<?xml version="1.0" encoding="utf-8"?>
<svg xmlns="http://www.w3.org/2000/svg" xmlns:xlink="http://www.w3.org/1999/xlink" width="600" height="400" viewBox="0 0 2400 1600">
<defs>
  <clipPath id="clip440">
    <rect x="0" y="0" width="2400" height="1600"/>
  </clipPath>
</defs>
<path clip-path="url(#clip440)" d="
M0 1600 L2400 1600 L2400 0 L0 0  Z
  " fill="#ffffff" fill-rule="evenodd" fill-opacity="1"/>
<defs>
  <clipPath id="clip441">
    <rect x="480" y="0" width="1681" height="1600"/>
  </clipPath>
</defs>
<path clip-path="url(#clip440)" d="
M201.019 1486.45 L2352.76 1486.45 L2352.76 47.2441 L201.019 47.2441  Z
  " fill="#ffffff" fill-rule="evenodd" fill-opacity="1"/>
<defs>
  <clipPath id="clip442">
    <rect x="201" y="47" width="2153" height="1440"/>
  </clipPath>
</defs>
<polyline clip-path="url(#clip442)" style="stroke:#000000; stroke-linecap:butt; stroke-linejoin:round; stroke-width:2; stroke-opacity:0.1; fill:none" points="
  261.917,1486.45 261.917,47.2441 
  "/>
<polyline clip-path="url(#clip442)" style="stroke:#000000; stroke-linecap:butt; stroke-linejoin:round; stroke-width:2; stroke-opacity:0.1; fill:none" points="
  821.901,1486.45 821.901,47.2441 
  "/>
<polyline clip-path="url(#clip442)" style="stroke:#000000; stroke-linecap:butt; stroke-linejoin:round; stroke-width:2; stroke-opacity:0.1; fill:none" points="
  1381.88,1486.45 1381.88,47.2441 
  "/>
<polyline clip-path="url(#clip442)" style="stroke:#000000; stroke-linecap:butt; stroke-linejoin:round; stroke-width:2; stroke-opacity:0.1; fill:none" points="
  1941.87,1486.45 1941.87,47.2441 
  "/>
<polyline clip-path="url(#clip440)" style="stroke:#000000; stroke-linecap:butt; stroke-linejoin:round; stroke-width:4; stroke-opacity:1; fill:none" points="
  201.019,1486.45 2352.76,1486.45 
  "/>
<polyline clip-path="url(#clip440)" style="stroke:#000000; stroke-linecap:butt; stroke-linejoin:round; stroke-width:4; stroke-opacity:1; fill:none" points="
  261.917,1486.45 261.917,1469.18 
  "/>
<polyline clip-path="url(#clip440)" style="stroke:#000000; stroke-linecap:butt; stroke-linejoin:round; stroke-width:4; stroke-opacity:1; fill:none" points="
  821.901,1486.45 821.901,1469.18 
  "/>
<polyline clip-path="url(#clip440)" style="stroke:#000000; stroke-linecap:butt; stroke-linejoin:round; stroke-width:4; stroke-opacity:1; fill:none" points="
  1381.88,1486.45 1381.88,1469.18 
  "/>
<polyline clip-path="url(#clip440)" style="stroke:#000000; stroke-linecap:butt; stroke-linejoin:round; stroke-width:4; stroke-opacity:1; fill:none" points="
  1941.87,1486.45 1941.87,1469.18 
  "/>
<path clip-path="url(#clip440)" d="M133.099 1543.18 L149.418 1543.18 L149.418 1547.12 L127.474 1547.12 L127.474 1543.18 Q130.136 1540.43 134.719 1535.8 Q139.326 1531.15 140.506 1529.81 Q142.751 1527.28 143.631 1525.55 Q144.534 1523.79 144.534 1522.1 Q144.534 1519.34 142.589 1517.61 Q140.668 1515.87 137.566 1515.87 Q135.367 1515.87 132.914 1516.63 Q130.483 1517.4 127.705 1518.95 L127.705 1514.23 Q130.529 1513.09 132.983 1512.51 Q135.437 1511.93 137.474 1511.93 Q142.844 1511.93 146.038 1514.62 Q149.233 1517.31 149.233 1521.8 Q149.233 1523.93 148.423 1525.85 Q147.636 1527.74 145.529 1530.34 Q144.951 1531.01 141.849 1534.23 Q138.747 1537.42 133.099 1543.18 Z" fill="#000000" fill-rule="evenodd" fill-opacity="1" /><path clip-path="url(#clip440)" d="M169.233 1515.64 Q165.622 1515.64 163.793 1519.2 Q161.987 1522.75 161.987 1529.87 Q161.987 1536.98 163.793 1540.55 Q165.622 1544.09 169.233 1544.09 Q172.867 1544.09 174.673 1540.55 Q176.501 1536.98 176.501 1529.87 Q176.501 1522.75 174.673 1519.2 Q172.867 1515.64 169.233 1515.64 M169.233 1511.93 Q175.043 1511.93 178.099 1516.54 Q181.177 1521.12 181.177 1529.87 Q181.177 1538.6 178.099 1543.21 Q175.043 1547.79 169.233 1547.79 Q163.423 1547.79 160.344 1543.21 Q157.288 1538.6 157.288 1529.87 Q157.288 1521.12 160.344 1516.54 Q163.423 1511.93 169.233 1511.93 Z" fill="#000000" fill-rule="evenodd" fill-opacity="1" /><path clip-path="url(#clip440)" d="M193.422 1543.18 L209.742 1543.18 L209.742 1547.12 L187.798 1547.12 L187.798 1543.18 Q190.46 1540.43 195.043 1535.8 Q199.649 1531.15 200.83 1529.81 Q203.075 1527.28 203.955 1525.55 Q204.858 1523.79 204.858 1522.1 Q204.858 1519.34 202.913 1517.61 Q200.992 1515.87 197.89 1515.87 Q195.691 1515.87 193.237 1516.63 Q190.807 1517.4 188.029 1518.95 L188.029 1514.23 Q190.853 1513.09 193.307 1512.51 Q195.76 1511.93 197.797 1511.93 Q203.168 1511.93 206.362 1514.62 Q209.557 1517.31 209.557 1521.8 Q209.557 1523.93 208.746 1525.85 Q207.959 1527.74 205.853 1530.34 Q205.274 1531.01 202.172 1534.23 Q199.071 1537.42 193.422 1543.18 Z" fill="#000000" fill-rule="evenodd" fill-opacity="1" /><path clip-path="url(#clip440)" d="M220.367 1543.18 L228.006 1543.18 L228.006 1516.82 L219.696 1518.49 L219.696 1514.23 L227.959 1512.56 L232.635 1512.56 L232.635 1543.18 L240.274 1543.18 L240.274 1547.12 L220.367 1547.12 L220.367 1543.18 Z" fill="#000000" fill-rule="evenodd" fill-opacity="1" /><path clip-path="url(#clip440)" d="M246.964 1532.24 L259.441 1532.24 L259.441 1536.03 L246.964 1536.03 L246.964 1532.24 Z" fill="#000000" fill-rule="evenodd" fill-opacity="1" /><path clip-path="url(#clip440)" d="M276.825 1515.64 Q273.214 1515.64 271.385 1519.2 Q269.579 1522.75 269.579 1529.87 Q269.579 1536.98 271.385 1540.55 Q273.214 1544.09 276.825 1544.09 Q280.459 1544.09 282.265 1540.55 Q284.093 1536.98 284.093 1529.87 Q284.093 1522.75 282.265 1519.2 Q280.459 1515.64 276.825 1515.64 M276.825 1511.93 Q282.635 1511.93 285.691 1516.54 Q288.769 1521.12 288.769 1529.87 Q288.769 1538.6 285.691 1543.21 Q282.635 1547.79 276.825 1547.79 Q271.015 1547.79 267.936 1543.21 Q264.88 1538.6 264.88 1529.87 Q264.88 1521.12 267.936 1516.54 Q271.015 1511.93 276.825 1511.93 Z" fill="#000000" fill-rule="evenodd" fill-opacity="1" /><path clip-path="url(#clip440)" d="M307.565 1527.98 Q304.417 1527.98 302.565 1530.13 Q300.737 1532.28 300.737 1536.03 Q300.737 1539.76 302.565 1541.93 Q304.417 1544.09 307.565 1544.09 Q310.714 1544.09 312.542 1541.93 Q314.394 1539.76 314.394 1536.03 Q314.394 1532.28 312.542 1530.13 Q310.714 1527.98 307.565 1527.98 M316.848 1513.32 L316.848 1517.58 Q315.089 1516.75 313.283 1516.31 Q311.501 1515.87 309.741 1515.87 Q305.112 1515.87 302.658 1519 Q300.227 1522.12 299.88 1528.44 Q301.246 1526.43 303.306 1525.36 Q305.366 1524.27 307.843 1524.27 Q313.051 1524.27 316.061 1527.44 Q319.093 1530.59 319.093 1536.03 Q319.093 1541.36 315.945 1544.57 Q312.797 1547.79 307.565 1547.79 Q301.57 1547.79 298.399 1543.21 Q295.228 1538.6 295.228 1529.87 Q295.228 1521.68 299.116 1516.82 Q303.005 1511.93 309.556 1511.93 Q311.315 1511.93 313.098 1512.28 Q314.903 1512.63 316.848 1513.32 Z" fill="#000000" fill-rule="evenodd" fill-opacity="1" /><path clip-path="url(#clip440)" d="M324.394 1532.24 L336.871 1532.24 L336.871 1536.03 L324.394 1536.03 L324.394 1532.24 Z" fill="#000000" fill-rule="evenodd" fill-opacity="1" /><path clip-path="url(#clip440)" d="M345.065 1543.18 L352.704 1543.18 L352.704 1516.82 L344.394 1518.49 L344.394 1514.23 L352.658 1512.56 L357.334 1512.56 L357.334 1543.18 L364.973 1543.18 L364.973 1547.12 L345.065 1547.12 L345.065 1543.18 Z" fill="#000000" fill-rule="evenodd" fill-opacity="1" /><path clip-path="url(#clip440)" d="M384.417 1515.64 Q380.806 1515.64 378.977 1519.2 Q377.172 1522.75 377.172 1529.87 Q377.172 1536.98 378.977 1540.55 Q380.806 1544.09 384.417 1544.09 Q388.051 1544.09 389.857 1540.55 Q391.685 1536.98 391.685 1529.87 Q391.685 1522.75 389.857 1519.2 Q388.051 1515.64 384.417 1515.64 M384.417 1511.93 Q390.227 1511.93 393.283 1516.54 Q396.361 1521.12 396.361 1529.87 Q396.361 1538.6 393.283 1543.21 Q390.227 1547.79 384.417 1547.79 Q378.607 1547.79 375.528 1543.21 Q372.472 1538.6 372.472 1529.87 Q372.472 1521.12 375.528 1516.54 Q378.607 1511.93 384.417 1511.93 Z" fill="#000000" fill-rule="evenodd" fill-opacity="1" /><path clip-path="url(#clip440)" d="M693.129 1543.18 L709.448 1543.18 L709.448 1547.12 L687.504 1547.12 L687.504 1543.18 Q690.166 1540.43 694.749 1535.8 Q699.355 1531.15 700.536 1529.81 Q702.781 1527.28 703.661 1525.55 Q704.564 1523.79 704.564 1522.1 Q704.564 1519.34 702.619 1517.61 Q700.698 1515.87 697.596 1515.87 Q695.397 1515.87 692.943 1516.63 Q690.513 1517.4 687.735 1518.95 L687.735 1514.23 Q690.559 1513.09 693.013 1512.51 Q695.466 1511.93 697.504 1511.93 Q702.874 1511.93 706.068 1514.62 Q709.263 1517.31 709.263 1521.8 Q709.263 1523.93 708.453 1525.85 Q707.666 1527.74 705.559 1530.34 Q704.98 1531.01 701.878 1534.23 Q698.777 1537.42 693.129 1543.18 Z" fill="#000000" fill-rule="evenodd" fill-opacity="1" /><path clip-path="url(#clip440)" d="M729.263 1515.64 Q725.652 1515.64 723.823 1519.2 Q722.017 1522.75 722.017 1529.87 Q722.017 1536.98 723.823 1540.55 Q725.652 1544.09 729.263 1544.09 Q732.897 1544.09 734.702 1540.55 Q736.531 1536.98 736.531 1529.87 Q736.531 1522.75 734.702 1519.2 Q732.897 1515.64 729.263 1515.64 M729.263 1511.93 Q735.073 1511.93 738.128 1516.54 Q741.207 1521.12 741.207 1529.87 Q741.207 1538.6 738.128 1543.21 Q735.073 1547.79 729.263 1547.79 Q723.452 1547.79 720.374 1543.21 Q717.318 1538.6 717.318 1529.87 Q717.318 1521.12 720.374 1516.54 Q723.452 1511.93 729.263 1511.93 Z" fill="#000000" fill-rule="evenodd" fill-opacity="1" /><path clip-path="url(#clip440)" d="M753.452 1543.18 L769.772 1543.18 L769.772 1547.12 L747.827 1547.12 L747.827 1543.18 Q750.489 1540.43 755.073 1535.8 Q759.679 1531.15 760.86 1529.81 Q763.105 1527.28 763.985 1525.55 Q764.887 1523.79 764.887 1522.1 Q764.887 1519.34 762.943 1517.61 Q761.022 1515.87 757.92 1515.87 Q755.721 1515.87 753.267 1516.63 Q750.837 1517.4 748.059 1518.95 L748.059 1514.23 Q750.883 1513.09 753.337 1512.51 Q755.79 1511.93 757.827 1511.93 Q763.198 1511.93 766.392 1514.62 Q769.586 1517.31 769.586 1521.8 Q769.586 1523.93 768.776 1525.85 Q767.989 1527.74 765.883 1530.34 Q765.304 1531.01 762.202 1534.23 Q759.1 1537.42 753.452 1543.18 Z" fill="#000000" fill-rule="evenodd" fill-opacity="1" /><path clip-path="url(#clip440)" d="M780.397 1543.18 L788.035 1543.18 L788.035 1516.82 L779.725 1518.49 L779.725 1514.23 L787.989 1512.56 L792.665 1512.56 L792.665 1543.18 L800.304 1543.18 L800.304 1547.12 L780.397 1547.12 L780.397 1543.18 Z" fill="#000000" fill-rule="evenodd" fill-opacity="1" /><path clip-path="url(#clip440)" d="M806.994 1532.24 L819.47 1532.24 L819.47 1536.03 L806.994 1536.03 L806.994 1532.24 Z" fill="#000000" fill-rule="evenodd" fill-opacity="1" /><path clip-path="url(#clip440)" d="M836.855 1515.64 Q833.244 1515.64 831.415 1519.2 Q829.609 1522.75 829.609 1529.87 Q829.609 1536.98 831.415 1540.55 Q833.244 1544.09 836.855 1544.09 Q840.489 1544.09 842.294 1540.55 Q844.123 1536.98 844.123 1529.87 Q844.123 1522.75 842.294 1519.2 Q840.489 1515.64 836.855 1515.64 M836.855 1511.93 Q842.665 1511.93 845.72 1516.54 Q848.799 1521.12 848.799 1529.87 Q848.799 1538.6 845.72 1543.21 Q842.665 1547.79 836.855 1547.79 Q831.044 1547.79 827.966 1543.21 Q824.91 1538.6 824.91 1529.87 Q824.91 1521.12 827.966 1516.54 Q831.044 1511.93 836.855 1511.93 Z" fill="#000000" fill-rule="evenodd" fill-opacity="1" /><path clip-path="url(#clip440)" d="M867.595 1527.98 Q864.447 1527.98 862.595 1530.13 Q860.767 1532.28 860.767 1536.03 Q860.767 1539.76 862.595 1541.93 Q864.447 1544.09 867.595 1544.09 Q870.743 1544.09 872.572 1541.93 Q874.424 1539.76 874.424 1536.03 Q874.424 1532.28 872.572 1530.13 Q870.743 1527.98 867.595 1527.98 M876.878 1513.32 L876.878 1517.58 Q875.118 1516.75 873.313 1516.31 Q871.53 1515.87 869.771 1515.87 Q865.142 1515.87 862.688 1519 Q860.257 1522.12 859.91 1528.44 Q861.276 1526.43 863.336 1525.36 Q865.396 1524.27 867.873 1524.27 Q873.081 1524.27 876.091 1527.44 Q879.123 1530.59 879.123 1536.03 Q879.123 1541.36 875.975 1544.57 Q872.827 1547.79 867.595 1547.79 Q861.6 1547.79 858.429 1543.21 Q855.257 1538.6 855.257 1529.87 Q855.257 1521.68 859.146 1516.82 Q863.035 1511.93 869.586 1511.93 Q871.345 1511.93 873.128 1512.28 Q874.933 1512.63 876.878 1513.32 Z" fill="#000000" fill-rule="evenodd" fill-opacity="1" /><path clip-path="url(#clip440)" d="M884.424 1532.24 L896.901 1532.24 L896.901 1536.03 L884.424 1536.03 L884.424 1532.24 Z" fill="#000000" fill-rule="evenodd" fill-opacity="1" /><path clip-path="url(#clip440)" d="M905.095 1543.18 L912.734 1543.18 L912.734 1516.82 L904.424 1518.49 L904.424 1514.23 L912.688 1512.56 L917.363 1512.56 L917.363 1543.18 L925.002 1543.18 L925.002 1547.12 L905.095 1547.12 L905.095 1543.18 Z" fill="#000000" fill-rule="evenodd" fill-opacity="1" /><path clip-path="url(#clip440)" d="M944.447 1530.71 Q941.113 1530.71 939.192 1532.49 Q937.294 1534.27 937.294 1537.4 Q937.294 1540.52 939.192 1542.31 Q941.113 1544.09 944.447 1544.09 Q947.78 1544.09 949.701 1542.31 Q951.623 1540.5 951.623 1537.4 Q951.623 1534.27 949.701 1532.49 Q947.803 1530.71 944.447 1530.71 M939.771 1528.72 Q936.761 1527.98 935.072 1525.92 Q933.405 1523.86 933.405 1520.89 Q933.405 1516.75 936.345 1514.34 Q939.308 1511.93 944.447 1511.93 Q949.609 1511.93 952.548 1514.34 Q955.488 1516.75 955.488 1520.89 Q955.488 1523.86 953.798 1525.92 Q952.132 1527.98 949.146 1528.72 Q952.525 1529.5 954.4 1531.8 Q956.298 1534.09 956.298 1537.4 Q956.298 1542.42 953.22 1545.11 Q950.164 1547.79 944.447 1547.79 Q938.729 1547.79 935.65 1545.11 Q932.595 1542.42 932.595 1537.4 Q932.595 1534.09 934.493 1531.8 Q936.391 1529.5 939.771 1528.72 M938.058 1521.33 Q938.058 1524.02 939.724 1525.52 Q941.414 1527.03 944.447 1527.03 Q947.456 1527.03 949.146 1525.52 Q950.859 1524.02 950.859 1521.33 Q950.859 1518.65 949.146 1517.14 Q947.456 1515.64 944.447 1515.64 Q941.414 1515.64 939.724 1517.14 Q938.058 1518.65 938.058 1521.33 Z" fill="#000000" fill-rule="evenodd" fill-opacity="1" /><path clip-path="url(#clip440)" d="M1252.98 1543.18 L1269.3 1543.18 L1269.3 1547.12 L1247.36 1547.12 L1247.36 1543.18 Q1250.02 1540.43 1254.61 1535.8 Q1259.21 1531.15 1260.39 1529.81 Q1262.64 1527.28 1263.52 1525.55 Q1264.42 1523.79 1264.42 1522.1 Q1264.42 1519.34 1262.48 1517.61 Q1260.55 1515.87 1257.45 1515.87 Q1255.25 1515.87 1252.8 1516.63 Q1250.37 1517.4 1247.59 1518.95 L1247.59 1514.23 Q1250.42 1513.09 1252.87 1512.51 Q1255.32 1511.93 1257.36 1511.93 Q1262.73 1511.93 1265.92 1514.62 Q1269.12 1517.31 1269.12 1521.8 Q1269.12 1523.93 1268.31 1525.85 Q1267.52 1527.74 1265.42 1530.34 Q1264.84 1531.01 1261.73 1534.23 Q1258.63 1537.42 1252.98 1543.18 Z" fill="#000000" fill-rule="evenodd" fill-opacity="1" /><path clip-path="url(#clip440)" d="M1289.12 1515.64 Q1285.51 1515.64 1283.68 1519.2 Q1281.87 1522.75 1281.87 1529.87 Q1281.87 1536.98 1283.68 1540.55 Q1285.51 1544.09 1289.12 1544.09 Q1292.75 1544.09 1294.56 1540.55 Q1296.39 1536.98 1296.39 1529.87 Q1296.39 1522.75 1294.56 1519.2 Q1292.75 1515.64 1289.12 1515.64 M1289.12 1511.93 Q1294.93 1511.93 1297.98 1516.54 Q1301.06 1521.12 1301.06 1529.87 Q1301.06 1538.6 1297.98 1543.21 Q1294.93 1547.79 1289.12 1547.79 Q1283.31 1547.79 1280.23 1543.21 Q1277.17 1538.6 1277.17 1529.87 Q1277.17 1521.12 1280.23 1516.54 Q1283.31 1511.93 1289.12 1511.93 Z" fill="#000000" fill-rule="evenodd" fill-opacity="1" /><path clip-path="url(#clip440)" d="M1313.31 1543.18 L1329.63 1543.18 L1329.63 1547.12 L1307.68 1547.12 L1307.68 1543.18 Q1310.35 1540.43 1314.93 1535.8 Q1319.54 1531.15 1320.72 1529.81 Q1322.96 1527.28 1323.84 1525.55 Q1324.74 1523.79 1324.74 1522.1 Q1324.74 1519.34 1322.8 1517.61 Q1320.88 1515.87 1317.78 1515.87 Q1315.58 1515.87 1313.12 1516.63 Q1310.69 1517.4 1307.91 1518.95 L1307.91 1514.23 Q1310.74 1513.09 1313.19 1512.51 Q1315.65 1511.93 1317.68 1511.93 Q1323.05 1511.93 1326.25 1514.62 Q1329.44 1517.31 1329.44 1521.8 Q1329.44 1523.93 1328.63 1525.85 Q1327.85 1527.74 1325.74 1530.34 Q1325.16 1531.01 1322.06 1534.23 Q1318.96 1537.42 1313.31 1543.18 Z" fill="#000000" fill-rule="evenodd" fill-opacity="1" /><path clip-path="url(#clip440)" d="M1340.25 1543.18 L1347.89 1543.18 L1347.89 1516.82 L1339.58 1518.49 L1339.58 1514.23 L1347.85 1512.56 L1352.52 1512.56 L1352.52 1543.18 L1360.16 1543.18 L1360.16 1547.12 L1340.25 1547.12 L1340.25 1543.18 Z" fill="#000000" fill-rule="evenodd" fill-opacity="1" /><path clip-path="url(#clip440)" d="M1366.85 1532.24 L1379.33 1532.24 L1379.33 1536.03 L1366.85 1536.03 L1366.85 1532.24 Z" fill="#000000" fill-rule="evenodd" fill-opacity="1" /><path clip-path="url(#clip440)" d="M1396.71 1515.64 Q1393.1 1515.64 1391.27 1519.2 Q1389.47 1522.75 1389.47 1529.87 Q1389.47 1536.98 1391.27 1540.55 Q1393.1 1544.09 1396.71 1544.09 Q1400.35 1544.09 1402.15 1540.55 Q1403.98 1536.98 1403.98 1529.87 Q1403.98 1522.75 1402.15 1519.2 Q1400.35 1515.64 1396.71 1515.64 M1396.71 1511.93 Q1402.52 1511.93 1405.58 1516.54 Q1408.66 1521.12 1408.66 1529.87 Q1408.66 1538.6 1405.58 1543.21 Q1402.52 1547.79 1396.71 1547.79 Q1390.9 1547.79 1387.82 1543.21 Q1384.77 1538.6 1384.77 1529.87 Q1384.77 1521.12 1387.82 1516.54 Q1390.9 1511.93 1396.71 1511.93 Z" fill="#000000" fill-rule="evenodd" fill-opacity="1" /><path clip-path="url(#clip440)" d="M1427.45 1527.98 Q1424.3 1527.98 1422.45 1530.13 Q1420.62 1532.28 1420.62 1536.03 Q1420.62 1539.76 1422.45 1541.93 Q1424.3 1544.09 1427.45 1544.09 Q1430.6 1544.09 1432.43 1541.93 Q1434.28 1539.76 1434.28 1536.03 Q1434.28 1532.28 1432.43 1530.13 Q1430.6 1527.98 1427.45 1527.98 M1436.73 1513.32 L1436.73 1517.58 Q1434.97 1516.75 1433.17 1516.31 Q1431.39 1515.87 1429.63 1515.87 Q1425 1515.87 1422.54 1519 Q1420.11 1522.12 1419.77 1528.44 Q1421.13 1526.43 1423.19 1525.36 Q1425.25 1524.27 1427.73 1524.27 Q1432.94 1524.27 1435.95 1527.44 Q1438.98 1530.59 1438.98 1536.03 Q1438.98 1541.36 1435.83 1544.57 Q1432.68 1547.79 1427.45 1547.79 Q1421.46 1547.79 1418.28 1543.21 Q1415.11 1538.6 1415.11 1529.87 Q1415.11 1521.68 1419 1516.82 Q1422.89 1511.93 1429.44 1511.93 Q1431.2 1511.93 1432.98 1512.28 Q1434.79 1512.63 1436.73 1513.32 Z" fill="#000000" fill-rule="evenodd" fill-opacity="1" /><path clip-path="url(#clip440)" d="M1444.28 1532.24 L1456.76 1532.24 L1456.76 1536.03 L1444.28 1536.03 L1444.28 1532.24 Z" fill="#000000" fill-rule="evenodd" fill-opacity="1" /><path clip-path="url(#clip440)" d="M1468.17 1543.18 L1484.49 1543.18 L1484.49 1547.12 L1462.54 1547.12 L1462.54 1543.18 Q1465.21 1540.43 1469.79 1535.8 Q1474.4 1531.15 1475.58 1529.81 Q1477.82 1527.28 1478.7 1525.55 Q1479.6 1523.79 1479.6 1522.1 Q1479.6 1519.34 1477.66 1517.61 Q1475.74 1515.87 1472.64 1515.87 Q1470.44 1515.87 1467.98 1516.63 Q1465.55 1517.4 1462.78 1518.95 L1462.78 1514.23 Q1465.6 1513.09 1468.05 1512.51 Q1470.51 1511.93 1472.54 1511.93 Q1477.91 1511.93 1481.11 1514.62 Q1484.3 1517.31 1484.3 1521.8 Q1484.3 1523.93 1483.49 1525.85 Q1482.71 1527.74 1480.6 1530.34 Q1480.02 1531.01 1476.92 1534.23 Q1473.82 1537.42 1468.17 1543.18 Z" fill="#000000" fill-rule="evenodd" fill-opacity="1" /><path clip-path="url(#clip440)" d="M1504.88 1527.98 Q1501.73 1527.98 1499.88 1530.13 Q1498.05 1532.28 1498.05 1536.03 Q1498.05 1539.76 1499.88 1541.93 Q1501.73 1544.09 1504.88 1544.09 Q1508.03 1544.09 1509.86 1541.93 Q1511.71 1539.76 1511.71 1536.03 Q1511.71 1532.28 1509.86 1530.13 Q1508.03 1527.98 1504.88 1527.98 M1514.16 1513.32 L1514.16 1517.58 Q1512.4 1516.75 1510.6 1516.31 Q1508.82 1515.87 1507.06 1515.87 Q1502.43 1515.87 1499.97 1519 Q1497.54 1522.12 1497.2 1528.44 Q1498.56 1526.43 1500.62 1525.36 Q1502.68 1524.27 1505.16 1524.27 Q1510.37 1524.27 1513.38 1527.44 Q1516.41 1530.59 1516.41 1536.03 Q1516.41 1541.36 1513.26 1544.57 Q1510.11 1547.79 1504.88 1547.79 Q1498.89 1547.79 1495.71 1543.21 Q1492.54 1538.6 1492.54 1529.87 Q1492.54 1521.68 1496.43 1516.82 Q1500.32 1511.93 1506.87 1511.93 Q1508.63 1511.93 1510.41 1512.28 Q1512.22 1512.63 1514.16 1513.32 Z" fill="#000000" fill-rule="evenodd" fill-opacity="1" /><path clip-path="url(#clip440)" d="M1812.81 1543.18 L1829.13 1543.18 L1829.13 1547.12 L1807.18 1547.12 L1807.18 1543.18 Q1809.84 1540.43 1814.43 1535.8 Q1819.03 1531.15 1820.21 1529.81 Q1822.46 1527.28 1823.34 1525.55 Q1824.24 1523.79 1824.24 1522.1 Q1824.24 1519.34 1822.3 1517.61 Q1820.38 1515.87 1817.27 1515.87 Q1815.07 1515.87 1812.62 1516.63 Q1810.19 1517.4 1807.41 1518.95 L1807.41 1514.23 Q1810.24 1513.09 1812.69 1512.51 Q1815.14 1511.93 1817.18 1511.93 Q1822.55 1511.93 1825.75 1514.62 Q1828.94 1517.31 1828.94 1521.8 Q1828.94 1523.93 1828.13 1525.85 Q1827.34 1527.74 1825.24 1530.34 Q1824.66 1531.01 1821.56 1534.23 Q1818.45 1537.42 1812.81 1543.18 Z" fill="#000000" fill-rule="evenodd" fill-opacity="1" /><path clip-path="url(#clip440)" d="M1848.94 1515.64 Q1845.33 1515.64 1843.5 1519.2 Q1841.69 1522.75 1841.69 1529.87 Q1841.69 1536.98 1843.5 1540.55 Q1845.33 1544.09 1848.94 1544.09 Q1852.57 1544.09 1854.38 1540.55 Q1856.21 1536.98 1856.21 1529.87 Q1856.21 1522.75 1854.38 1519.2 Q1852.57 1515.64 1848.94 1515.64 M1848.94 1511.93 Q1854.75 1511.93 1857.81 1516.54 Q1860.88 1521.12 1860.88 1529.87 Q1860.88 1538.6 1857.81 1543.21 Q1854.75 1547.79 1848.94 1547.79 Q1843.13 1547.79 1840.05 1543.21 Q1837 1538.6 1837 1529.87 Q1837 1521.12 1840.05 1516.54 Q1843.13 1511.93 1848.94 1511.93 Z" fill="#000000" fill-rule="evenodd" fill-opacity="1" /><path clip-path="url(#clip440)" d="M1873.13 1543.18 L1889.45 1543.18 L1889.45 1547.12 L1867.5 1547.12 L1867.5 1543.18 Q1870.17 1540.43 1874.75 1535.8 Q1879.36 1531.15 1880.54 1529.81 Q1882.78 1527.28 1883.66 1525.55 Q1884.57 1523.79 1884.57 1522.1 Q1884.57 1519.34 1882.62 1517.61 Q1880.7 1515.87 1877.6 1515.87 Q1875.4 1515.87 1872.94 1516.63 Q1870.51 1517.4 1867.74 1518.95 L1867.74 1514.23 Q1870.56 1513.09 1873.01 1512.51 Q1875.47 1511.93 1877.5 1511.93 Q1882.88 1511.93 1886.07 1514.62 Q1889.26 1517.31 1889.26 1521.8 Q1889.26 1523.93 1888.45 1525.85 Q1887.67 1527.74 1885.56 1530.34 Q1884.98 1531.01 1881.88 1534.23 Q1878.78 1537.42 1873.13 1543.18 Z" fill="#000000" fill-rule="evenodd" fill-opacity="1" /><path clip-path="url(#clip440)" d="M1900.07 1543.18 L1907.71 1543.18 L1907.71 1516.82 L1899.4 1518.49 L1899.4 1514.23 L1907.67 1512.56 L1912.34 1512.56 L1912.34 1543.18 L1919.98 1543.18 L1919.98 1547.12 L1900.07 1547.12 L1900.07 1543.18 Z" fill="#000000" fill-rule="evenodd" fill-opacity="1" /><path clip-path="url(#clip440)" d="M1926.67 1532.24 L1939.15 1532.24 L1939.15 1536.03 L1926.67 1536.03 L1926.67 1532.24 Z" fill="#000000" fill-rule="evenodd" fill-opacity="1" /><path clip-path="url(#clip440)" d="M1956.53 1515.64 Q1952.92 1515.64 1951.09 1519.2 Q1949.29 1522.75 1949.29 1529.87 Q1949.29 1536.98 1951.09 1540.55 Q1952.92 1544.09 1956.53 1544.09 Q1960.17 1544.09 1961.97 1540.55 Q1963.8 1536.98 1963.8 1529.87 Q1963.8 1522.75 1961.97 1519.2 Q1960.17 1515.64 1956.53 1515.64 M1956.53 1511.93 Q1962.34 1511.93 1965.4 1516.54 Q1968.48 1521.12 1968.48 1529.87 Q1968.48 1538.6 1965.4 1543.21 Q1962.34 1547.79 1956.53 1547.79 Q1950.72 1547.79 1947.64 1543.21 Q1944.59 1538.6 1944.59 1529.87 Q1944.59 1521.12 1947.64 1516.54 Q1950.72 1511.93 1956.53 1511.93 Z" fill="#000000" fill-rule="evenodd" fill-opacity="1" /><path clip-path="url(#clip440)" d="M1975.51 1512.56 L1997.74 1512.56 L1997.74 1514.55 L1985.19 1547.12 L1980.31 1547.12 L1992.11 1516.5 L1975.51 1516.5 L1975.51 1512.56 Z" fill="#000000" fill-rule="evenodd" fill-opacity="1" /><path clip-path="url(#clip440)" d="M2004.1 1532.24 L2016.58 1532.24 L2016.58 1536.03 L2004.1 1536.03 L2004.1 1532.24 Z" fill="#000000" fill-rule="evenodd" fill-opacity="1" /><path clip-path="url(#clip440)" d="M2033.96 1515.64 Q2030.35 1515.64 2028.52 1519.2 Q2026.72 1522.75 2026.72 1529.87 Q2026.72 1536.98 2028.52 1540.55 Q2030.35 1544.09 2033.96 1544.09 Q2037.6 1544.09 2039.4 1540.55 Q2041.23 1536.98 2041.23 1529.87 Q2041.23 1522.75 2039.4 1519.2 Q2037.6 1515.64 2033.96 1515.64 M2033.96 1511.93 Q2039.77 1511.93 2042.83 1516.54 Q2045.91 1521.12 2045.91 1529.87 Q2045.91 1538.6 2042.83 1543.21 Q2039.77 1547.79 2033.96 1547.79 Q2028.15 1547.79 2025.07 1543.21 Q2022.02 1538.6 2022.02 1529.87 Q2022.02 1521.12 2025.07 1516.54 Q2028.15 1511.93 2033.96 1511.93 Z" fill="#000000" fill-rule="evenodd" fill-opacity="1" /><path clip-path="url(#clip440)" d="M2066.97 1516.63 L2055.17 1535.08 L2066.97 1535.08 L2066.97 1516.63 M2065.74 1512.56 L2071.62 1512.56 L2071.62 1535.08 L2076.55 1535.08 L2076.55 1538.97 L2071.62 1538.97 L2071.62 1547.12 L2066.97 1547.12 L2066.97 1538.97 L2051.37 1538.97 L2051.37 1534.46 L2065.74 1512.56 Z" fill="#000000" fill-rule="evenodd" fill-opacity="1" /><polyline clip-path="url(#clip442)" style="stroke:#000000; stroke-linecap:butt; stroke-linejoin:round; stroke-width:2; stroke-opacity:0.1; fill:none" points="
  201.019,1267.88 2352.76,1267.88 
  "/>
<polyline clip-path="url(#clip442)" style="stroke:#000000; stroke-linecap:butt; stroke-linejoin:round; stroke-width:2; stroke-opacity:0.1; fill:none" points="
  201.019,1006.37 2352.76,1006.37 
  "/>
<polyline clip-path="url(#clip442)" style="stroke:#000000; stroke-linecap:butt; stroke-linejoin:round; stroke-width:2; stroke-opacity:0.1; fill:none" points="
  201.019,744.864 2352.76,744.864 
  "/>
<polyline clip-path="url(#clip442)" style="stroke:#000000; stroke-linecap:butt; stroke-linejoin:round; stroke-width:2; stroke-opacity:0.1; fill:none" points="
  201.019,483.356 2352.76,483.356 
  "/>
<polyline clip-path="url(#clip442)" style="stroke:#000000; stroke-linecap:butt; stroke-linejoin:round; stroke-width:2; stroke-opacity:0.1; fill:none" points="
  201.019,221.848 2352.76,221.848 
  "/>
<polyline clip-path="url(#clip440)" style="stroke:#000000; stroke-linecap:butt; stroke-linejoin:round; stroke-width:4; stroke-opacity:1; fill:none" points="
  201.019,1486.45 201.019,47.2441 
  "/>
<polyline clip-path="url(#clip440)" style="stroke:#000000; stroke-linecap:butt; stroke-linejoin:round; stroke-width:4; stroke-opacity:1; fill:none" points="
  201.019,1267.88 226.84,1267.88 
  "/>
<polyline clip-path="url(#clip440)" style="stroke:#000000; stroke-linecap:butt; stroke-linejoin:round; stroke-width:4; stroke-opacity:1; fill:none" points="
  201.019,1006.37 226.84,1006.37 
  "/>
<polyline clip-path="url(#clip440)" style="stroke:#000000; stroke-linecap:butt; stroke-linejoin:round; stroke-width:4; stroke-opacity:1; fill:none" points="
  201.019,744.864 226.84,744.864 
  "/>
<polyline clip-path="url(#clip440)" style="stroke:#000000; stroke-linecap:butt; stroke-linejoin:round; stroke-width:4; stroke-opacity:1; fill:none" points="
  201.019,483.356 226.84,483.356 
  "/>
<polyline clip-path="url(#clip440)" style="stroke:#000000; stroke-linecap:butt; stroke-linejoin:round; stroke-width:4; stroke-opacity:1; fill:none" points="
  201.019,221.848 226.84,221.848 
  "/>
<path clip-path="url(#clip440)" d="M56.6171 1281.22 L72.9365 1281.22 L72.9365 1285.16 L50.9921 1285.16 L50.9921 1281.22 Q53.6541 1278.47 58.2375 1273.84 Q62.8439 1269.19 64.0245 1267.85 Q66.2698 1265.32 67.1494 1263.59 Q68.0522 1261.83 68.0522 1260.14 Q68.0522 1257.38 66.1078 1255.65 Q64.1865 1253.91 61.0847 1253.91 Q58.8856 1253.91 56.4319 1254.67 Q54.0014 1255.44 51.2236 1256.99 L51.2236 1252.27 Q54.0477 1251.13 56.5014 1250.55 Q58.955 1249.98 60.9921 1249.98 Q66.3624 1249.98 69.5568 1252.66 Q72.7513 1255.35 72.7513 1259.84 Q72.7513 1261.97 71.9411 1263.89 Q71.1541 1265.79 69.0476 1268.38 Q68.4689 1269.05 65.367 1272.27 Q62.2652 1275.46 56.6171 1281.22 Z" fill="#000000" fill-rule="evenodd" fill-opacity="1" /><path clip-path="url(#clip440)" d="M82.7975 1250.6 L101.154 1250.6 L101.154 1254.54 L87.0799 1254.54 L87.0799 1263.01 Q88.0984 1262.66 89.1169 1262.5 Q90.1354 1262.31 91.1539 1262.31 Q96.941 1262.31 100.321 1265.48 Q103.7 1268.66 103.7 1274.07 Q103.7 1279.65 100.228 1282.75 Q96.7558 1285.83 90.4364 1285.83 Q88.2604 1285.83 85.9919 1285.46 Q83.7466 1285.09 81.3392 1284.35 L81.3392 1279.65 Q83.4225 1280.79 85.6447 1281.34 Q87.8669 1281.9 90.3438 1281.9 Q94.3484 1281.9 96.6863 1279.79 Q99.0243 1277.68 99.0243 1274.07 Q99.0243 1270.46 96.6863 1268.35 Q94.3484 1266.25 90.3438 1266.25 Q88.4688 1266.25 86.5938 1266.66 Q84.7419 1267.08 82.7975 1267.96 L82.7975 1250.6 Z" fill="#000000" fill-rule="evenodd" fill-opacity="1" /><path clip-path="url(#clip440)" d="M122.913 1253.68 Q119.302 1253.68 117.473 1257.24 Q115.668 1260.79 115.668 1267.91 Q115.668 1275.02 117.473 1278.59 Q119.302 1282.13 122.913 1282.13 Q126.547 1282.13 128.353 1278.59 Q130.182 1275.02 130.182 1267.91 Q130.182 1260.79 128.353 1257.24 Q126.547 1253.68 122.913 1253.68 M122.913 1249.98 Q128.723 1249.98 131.779 1254.58 Q134.857 1259.16 134.857 1267.91 Q134.857 1276.64 131.779 1281.25 Q128.723 1285.83 122.913 1285.83 Q117.103 1285.83 114.024 1281.25 Q110.969 1276.64 110.969 1267.91 Q110.969 1259.16 114.024 1254.58 Q117.103 1249.98 122.913 1249.98 Z" fill="#000000" fill-rule="evenodd" fill-opacity="1" /><path clip-path="url(#clip440)" d="M153.075 1253.68 Q149.464 1253.68 147.635 1257.24 Q145.83 1260.79 145.83 1267.91 Q145.83 1275.02 147.635 1278.59 Q149.464 1282.13 153.075 1282.13 Q156.709 1282.13 158.515 1278.59 Q160.343 1275.02 160.343 1267.91 Q160.343 1260.79 158.515 1257.24 Q156.709 1253.68 153.075 1253.68 M153.075 1249.98 Q158.885 1249.98 161.941 1254.58 Q165.019 1259.16 165.019 1267.91 Q165.019 1276.64 161.941 1281.25 Q158.885 1285.83 153.075 1285.83 Q147.265 1285.83 144.186 1281.25 Q141.131 1276.64 141.131 1267.91 Q141.131 1259.16 144.186 1254.58 Q147.265 1249.98 153.075 1249.98 Z" fill="#000000" fill-rule="evenodd" fill-opacity="1" /><path clip-path="url(#clip440)" d="M57.6125 1019.72 L73.9318 1019.72 L73.9318 1023.65 L51.9875 1023.65 L51.9875 1019.72 Q54.6495 1016.96 59.2328 1012.33 Q63.8393 1007.68 65.0198 1006.34 Q67.2652 1003.81 68.1448 1002.08 Q69.0476 1000.32 69.0476 998.629 Q69.0476 995.875 67.1032 994.138 Q65.1819 992.402 62.08 992.402 Q59.881 992.402 57.4273 993.166 Q54.9967 993.93 52.219 995.481 L52.219 990.759 Q55.043 989.625 57.4967 989.046 Q59.9504 988.467 61.9874 988.467 Q67.3578 988.467 70.5522 991.152 Q73.7466 993.838 73.7466 998.328 Q73.7466 1000.46 72.9365 1002.38 Q72.1494 1004.28 70.0429 1006.87 Q69.4642 1007.54 66.3624 1010.76 Q63.2606 1013.95 57.6125 1019.72 Z" fill="#000000" fill-rule="evenodd" fill-opacity="1" /><path clip-path="url(#clip440)" d="M83.7929 989.092 L102.149 989.092 L102.149 993.027 L88.0753 993.027 L88.0753 1001.5 Q89.0938 1001.15 90.1123 1000.99 Q91.1308 1000.81 92.1493 1000.81 Q97.9363 1000.81 101.316 1003.98 Q104.696 1007.15 104.696 1012.56 Q104.696 1018.14 101.223 1021.24 Q97.7511 1024.32 91.4317 1024.32 Q89.2558 1024.32 86.9873 1023.95 Q84.7419 1023.58 82.3346 1022.84 L82.3346 1018.14 Q84.4179 1019.28 86.6401 1019.83 Q88.8623 1020.39 91.3391 1020.39 Q95.3437 1020.39 97.6817 1018.28 Q100.02 1016.18 100.02 1012.56 Q100.02 1008.95 97.6817 1006.85 Q95.3437 1004.74 91.3391 1004.74 Q89.4641 1004.74 87.5892 1005.16 Q85.7373 1005.57 83.7929 1006.45 L83.7929 989.092 Z" fill="#000000" fill-rule="evenodd" fill-opacity="1" /><path clip-path="url(#clip440)" d="M117.936 1019.72 L134.256 1019.72 L134.256 1023.65 L112.311 1023.65 L112.311 1019.72 Q114.973 1016.96 119.557 1012.33 Q124.163 1007.68 125.344 1006.34 Q127.589 1003.81 128.469 1002.08 Q129.371 1000.32 129.371 998.629 Q129.371 995.875 127.427 994.138 Q125.506 992.402 122.404 992.402 Q120.205 992.402 117.751 993.166 Q115.32 993.93 112.543 995.481 L112.543 990.759 Q115.367 989.625 117.82 989.046 Q120.274 988.467 122.311 988.467 Q127.682 988.467 130.876 991.152 Q134.07 993.838 134.07 998.328 Q134.07 1000.46 133.26 1002.38 Q132.473 1004.28 130.367 1006.87 Q129.788 1007.54 126.686 1010.76 Q123.584 1013.95 117.936 1019.72 Z" fill="#000000" fill-rule="evenodd" fill-opacity="1" /><path clip-path="url(#clip440)" d="M144.117 989.092 L162.473 989.092 L162.473 993.027 L148.399 993.027 L148.399 1001.5 Q149.418 1001.15 150.436 1000.99 Q151.455 1000.81 152.473 1000.81 Q158.26 1000.81 161.64 1003.98 Q165.019 1007.15 165.019 1012.56 Q165.019 1018.14 161.547 1021.24 Q158.075 1024.32 151.755 1024.32 Q149.58 1024.32 147.311 1023.95 Q145.066 1023.58 142.658 1022.84 L142.658 1018.14 Q144.742 1019.28 146.964 1019.83 Q149.186 1020.39 151.663 1020.39 Q155.667 1020.39 158.005 1018.28 Q160.343 1016.18 160.343 1012.56 Q160.343 1008.95 158.005 1006.85 Q155.667 1004.74 151.663 1004.74 Q149.788 1004.74 147.913 1005.16 Q146.061 1005.57 144.117 1006.45 L144.117 989.092 Z" fill="#000000" fill-rule="evenodd" fill-opacity="1" /><path clip-path="url(#clip440)" d="M56.6171 758.209 L72.9365 758.209 L72.9365 762.144 L50.9921 762.144 L50.9921 758.209 Q53.6541 755.454 58.2375 750.825 Q62.8439 746.172 64.0245 744.83 Q66.2698 742.306 67.1494 740.57 Q68.0522 738.811 68.0522 737.121 Q68.0522 734.367 66.1078 732.631 Q64.1865 730.894 61.0847 730.894 Q58.8856 730.894 56.4319 731.658 Q54.0014 732.422 51.2236 733.973 L51.2236 729.251 Q54.0477 728.117 56.5014 727.538 Q58.955 726.959 60.9921 726.959 Q66.3624 726.959 69.5568 729.644 Q72.7513 732.33 72.7513 736.82 Q72.7513 738.95 71.9411 740.871 Q71.1541 742.769 69.0476 745.362 Q68.4689 746.033 65.367 749.251 Q62.2652 752.445 56.6171 758.209 Z" fill="#000000" fill-rule="evenodd" fill-opacity="1" /><path clip-path="url(#clip440)" d="M82.7975 727.584 L101.154 727.584 L101.154 731.519 L87.0799 731.519 L87.0799 739.992 Q88.0984 739.644 89.1169 739.482 Q90.1354 739.297 91.1539 739.297 Q96.941 739.297 100.321 742.468 Q103.7 745.64 103.7 751.056 Q103.7 756.635 100.228 759.737 Q96.7558 762.816 90.4364 762.816 Q88.2604 762.816 85.9919 762.445 Q83.7466 762.075 81.3392 761.334 L81.3392 756.635 Q83.4225 757.769 85.6447 758.325 Q87.8669 758.88 90.3438 758.88 Q94.3484 758.88 96.6863 756.774 Q99.0243 754.667 99.0243 751.056 Q99.0243 747.445 96.6863 745.339 Q94.3484 743.232 90.3438 743.232 Q88.4688 743.232 86.5938 743.649 Q84.7419 744.066 82.7975 744.945 L82.7975 727.584 Z" fill="#000000" fill-rule="evenodd" fill-opacity="1" /><path clip-path="url(#clip440)" d="M112.959 727.584 L131.316 727.584 L131.316 731.519 L117.242 731.519 L117.242 739.992 Q118.26 739.644 119.279 739.482 Q120.297 739.297 121.316 739.297 Q127.103 739.297 130.482 742.468 Q133.862 745.64 133.862 751.056 Q133.862 756.635 130.39 759.737 Q126.918 762.816 120.598 762.816 Q118.422 762.816 116.154 762.445 Q113.908 762.075 111.501 761.334 L111.501 756.635 Q113.584 757.769 115.807 758.325 Q118.029 758.88 120.506 758.88 Q124.51 758.88 126.848 756.774 Q129.186 754.667 129.186 751.056 Q129.186 747.445 126.848 745.339 Q124.51 743.232 120.506 743.232 Q118.631 743.232 116.756 743.649 Q114.904 744.066 112.959 744.945 L112.959 727.584 Z" fill="#000000" fill-rule="evenodd" fill-opacity="1" /><path clip-path="url(#clip440)" d="M153.075 730.663 Q149.464 730.663 147.635 734.228 Q145.83 737.769 145.83 744.899 Q145.83 752.005 147.635 755.57 Q149.464 759.112 153.075 759.112 Q156.709 759.112 158.515 755.57 Q160.343 752.005 160.343 744.899 Q160.343 737.769 158.515 734.228 Q156.709 730.663 153.075 730.663 M153.075 726.959 Q158.885 726.959 161.941 731.566 Q165.019 736.149 165.019 744.899 Q165.019 753.626 161.941 758.232 Q158.885 762.816 153.075 762.816 Q147.265 762.816 144.186 758.232 Q141.131 753.626 141.131 744.899 Q141.131 736.149 144.186 731.566 Q147.265 726.959 153.075 726.959 Z" fill="#000000" fill-rule="evenodd" fill-opacity="1" /><path clip-path="url(#clip440)" d="M57.6125 496.701 L73.9318 496.701 L73.9318 500.636 L51.9875 500.636 L51.9875 496.701 Q54.6495 493.947 59.2328 489.317 Q63.8393 484.664 65.0198 483.322 Q67.2652 480.798 68.1448 479.062 Q69.0476 477.303 69.0476 475.613 Q69.0476 472.859 67.1032 471.123 Q65.1819 469.387 62.08 469.387 Q59.881 469.387 57.4273 470.15 Q54.9967 470.914 52.219 472.465 L52.219 467.743 Q55.043 466.609 57.4967 466.03 Q59.9504 465.451 61.9874 465.451 Q67.3578 465.451 70.5522 468.137 Q73.7466 470.822 73.7466 475.312 Q73.7466 477.442 72.9365 479.363 Q72.1494 481.261 70.0429 483.854 Q69.4642 484.525 66.3624 487.743 Q63.2606 490.937 57.6125 496.701 Z" fill="#000000" fill-rule="evenodd" fill-opacity="1" /><path clip-path="url(#clip440)" d="M83.7929 466.076 L102.149 466.076 L102.149 470.011 L88.0753 470.011 L88.0753 478.484 Q89.0938 478.136 90.1123 477.974 Q91.1308 477.789 92.1493 477.789 Q97.9363 477.789 101.316 480.961 Q104.696 484.132 104.696 489.548 Q104.696 495.127 101.223 498.229 Q97.7511 501.308 91.4317 501.308 Q89.2558 501.308 86.9873 500.937 Q84.7419 500.567 82.3346 499.826 L82.3346 495.127 Q84.4179 496.261 86.6401 496.817 Q88.8623 497.372 91.3391 497.372 Q95.3437 497.372 97.6817 495.266 Q100.02 493.16 100.02 489.548 Q100.02 485.937 97.6817 483.831 Q95.3437 481.724 91.3391 481.724 Q89.4641 481.724 87.5892 482.141 Q85.7373 482.558 83.7929 483.437 L83.7929 466.076 Z" fill="#000000" fill-rule="evenodd" fill-opacity="1" /><path clip-path="url(#clip440)" d="M112.728 466.076 L134.95 466.076 L134.95 468.067 L122.404 500.636 L117.52 500.636 L129.325 470.011 L112.728 470.011 L112.728 466.076 Z" fill="#000000" fill-rule="evenodd" fill-opacity="1" /><path clip-path="url(#clip440)" d="M144.117 466.076 L162.473 466.076 L162.473 470.011 L148.399 470.011 L148.399 478.484 Q149.418 478.136 150.436 477.974 Q151.455 477.789 152.473 477.789 Q158.26 477.789 161.64 480.961 Q165.019 484.132 165.019 489.548 Q165.019 495.127 161.547 498.229 Q158.075 501.308 151.755 501.308 Q149.58 501.308 147.311 500.937 Q145.066 500.567 142.658 499.826 L142.658 495.127 Q144.742 496.261 146.964 496.817 Q149.186 497.372 151.663 497.372 Q155.667 497.372 158.005 495.266 Q160.343 493.16 160.343 489.548 Q160.343 485.937 158.005 483.831 Q155.667 481.724 151.663 481.724 Q149.788 481.724 147.913 482.141 Q146.061 482.558 144.117 483.437 L144.117 466.076 Z" fill="#000000" fill-rule="evenodd" fill-opacity="1" /><path clip-path="url(#clip440)" d="M56.6171 235.193 L72.9365 235.193 L72.9365 239.128 L50.9921 239.128 L50.9921 235.193 Q53.6541 232.439 58.2375 227.809 Q62.8439 223.156 64.0245 221.814 Q66.2698 219.291 67.1494 217.554 Q68.0522 215.795 68.0522 214.105 Q68.0522 211.351 66.1078 209.615 Q64.1865 207.879 61.0847 207.879 Q58.8856 207.879 56.4319 208.642 Q54.0014 209.406 51.2236 210.957 L51.2236 206.235 Q54.0477 205.101 56.5014 204.522 Q58.955 203.943 60.9921 203.943 Q66.3624 203.943 69.5568 206.629 Q72.7513 209.314 72.7513 213.804 Q72.7513 215.934 71.9411 217.855 Q71.1541 219.754 69.0476 222.346 Q68.4689 223.017 65.367 226.235 Q62.2652 229.429 56.6171 235.193 Z" fill="#000000" fill-rule="evenodd" fill-opacity="1" /><path clip-path="url(#clip440)" d="M93.3299 219.985 Q90.1817 219.985 88.3299 222.138 Q86.5012 224.291 86.5012 228.041 Q86.5012 231.767 88.3299 233.943 Q90.1817 236.096 93.3299 236.096 Q96.478 236.096 98.3067 233.943 Q100.159 231.767 100.159 228.041 Q100.159 224.291 98.3067 222.138 Q96.478 219.985 93.3299 219.985 M102.612 205.332 L102.612 209.592 Q100.853 208.758 99.0474 208.318 Q97.265 207.879 95.5058 207.879 Q90.8762 207.879 88.4225 211.004 Q85.9919 214.129 85.6447 220.448 Q87.0105 218.434 89.0706 217.369 Q91.1308 216.281 93.6076 216.281 Q98.8159 216.281 101.825 219.453 Q104.858 222.601 104.858 228.041 Q104.858 233.365 101.709 236.582 Q98.5613 239.8 93.3299 239.8 Q87.3345 239.8 84.1632 235.216 Q80.992 230.61 80.992 221.883 Q80.992 213.689 84.8808 208.828 Q88.7697 203.943 95.3206 203.943 Q97.0798 203.943 98.8622 204.291 Q100.668 204.638 102.612 205.332 Z" fill="#000000" fill-rule="evenodd" fill-opacity="1" /><path clip-path="url(#clip440)" d="M122.913 207.647 Q119.302 207.647 117.473 211.212 Q115.668 214.754 115.668 221.883 Q115.668 228.99 117.473 232.554 Q119.302 236.096 122.913 236.096 Q126.547 236.096 128.353 232.554 Q130.182 228.99 130.182 221.883 Q130.182 214.754 128.353 211.212 Q126.547 207.647 122.913 207.647 M122.913 203.943 Q128.723 203.943 131.779 208.55 Q134.857 213.133 134.857 221.883 Q134.857 230.61 131.779 235.216 Q128.723 239.8 122.913 239.8 Q117.103 239.8 114.024 235.216 Q110.969 230.61 110.969 221.883 Q110.969 213.133 114.024 208.55 Q117.103 203.943 122.913 203.943 Z" fill="#000000" fill-rule="evenodd" fill-opacity="1" /><path clip-path="url(#clip440)" d="M153.075 207.647 Q149.464 207.647 147.635 211.212 Q145.83 214.754 145.83 221.883 Q145.83 228.99 147.635 232.554 Q149.464 236.096 153.075 236.096 Q156.709 236.096 158.515 232.554 Q160.343 228.99 160.343 221.883 Q160.343 214.754 158.515 211.212 Q156.709 207.647 153.075 207.647 M153.075 203.943 Q158.885 203.943 161.941 208.55 Q165.019 213.133 165.019 221.883 Q165.019 230.61 161.941 235.216 Q158.885 239.8 153.075 239.8 Q147.265 239.8 144.186 235.216 Q141.131 230.61 141.131 221.883 Q141.131 213.133 144.186 208.55 Q147.265 203.943 153.075 203.943 Z" fill="#000000" fill-rule="evenodd" fill-opacity="1" /><polyline clip-path="url(#clip442)" style="stroke:#009af9; stroke-linecap:butt; stroke-linejoin:round; stroke-width:4; stroke-opacity:1; fill:none" points="
  261.917,1330.54 331.915,1007.21 541.909,1127.82 611.907,949.469 681.905,1006.9 751.903,1158.47 821.901,1120.28 1031.89,1113.07 1101.89,964.531 1171.89,943.61 
  1241.89,838.274 1311.89,858.464 1521.88,849.467 1591.88,897.062 1661.88,1131.15 1731.87,1299.31 1801.87,883.045 2081.86,337.017 2151.86,150.508 2221.86,587.96 
  2291.86,442.667 
  "/>
<polyline clip-path="url(#clip442)" style="stroke:#e26f46; stroke-linecap:butt; stroke-linejoin:round; stroke-width:4; stroke-opacity:1; fill:none" points="
  261.917,1024.57 331.915,985.556 541.909,972.586 611.907,878.338 681.905,949.155 751.903,808.359 821.901,977.292 1031.89,841.778 1101.89,792.983 1171.89,682.94 
  1241.89,737.438 1311.89,743.817 1521.88,778.965 1591.88,849.467 1661.88,1100.52 1731.87,961.916 1801.87,462.855 2081.86,246.012 2151.86,87.9763 2221.86,215.05 
  2291.86,253.334 
  "/>
<polyline clip-path="url(#clip442)" style="stroke:#3da44d; stroke-linecap:butt; stroke-linejoin:round; stroke-width:4; stroke-opacity:1; fill:none" points="
  261.917,1330.64 331.915,1285.77 541.909,1258.05 611.907,1132.21 681.905,1445.72 751.903,1160.14 821.901,1350.93 1031.89,1239.79 1101.89,1053.13 1171.89,1005.95 
  1241.89,857.836 1311.89,965.787 1521.88,1064.15 1591.88,1176.46 1661.88,1318.61 1731.87,1299.31 1801.87,897.795 2081.86,554.696 2151.86,272.058 2221.86,631.892 
  2291.86,442.874 
  "/>
<polyline clip-path="url(#clip442)" style="stroke:#c271d2; stroke-linecap:butt; stroke-linejoin:round; stroke-width:4; stroke-opacity:1; fill:none" points="
  261.917,1041.94 331.915,1122.17 541.909,985.033 611.907,1051.77 681.905,1122.17 751.903,981.059 821.901,1149.15 1031.89,963.484 1101.89,849.572 1171.89,962.125 
  1241.89,790.472 1311.89,850.514 1521.88,887.23 1591.88,1054.8 1661.88,1201.77 1731.87,981.58 1801.87,489.843 2081.86,269.757 2151.86,205.634 2221.86,394.025 
  2291.86,310.866 
  "/>
<path clip-path="url(#clip440)" d="
M1917.99 354.418 L2281.03 354.418 L2281.03 95.2176 L1917.99 95.2176  Z
  " fill="#ffffff" fill-rule="evenodd" fill-opacity="1"/>
<polyline clip-path="url(#clip440)" style="stroke:#000000; stroke-linecap:butt; stroke-linejoin:round; stroke-width:4; stroke-opacity:1; fill:none" points="
  1917.99,354.418 2281.03,354.418 2281.03,95.2176 1917.99,95.2176 1917.99,354.418 
  "/>
<polyline clip-path="url(#clip440)" style="stroke:#009af9; stroke-linecap:butt; stroke-linejoin:round; stroke-width:4; stroke-opacity:1; fill:none" points="
  1941.9,147.058 2085.35,147.058 
  "/>
<path clip-path="url(#clip440)" d="M2125.28 132.949 Q2120.18 132.949 2117.17 136.745 Q2114.19 140.541 2114.19 147.092 Q2114.19 153.62 2117.17 157.416 Q2120.18 161.213 2125.28 161.213 Q2130.37 161.213 2133.33 157.416 Q2136.32 153.62 2136.32 147.092 Q2136.32 140.541 2133.33 136.745 Q2130.37 132.949 2125.28 132.949 M2125.28 129.153 Q2132.54 129.153 2136.9 134.037 Q2141.25 138.898 2141.25 147.092 Q2141.25 155.264 2136.9 160.148 Q2132.54 165.009 2125.28 165.009 Q2117.98 165.009 2113.61 160.148 Q2109.26 155.287 2109.26 147.092 Q2109.26 138.898 2113.61 134.037 Q2117.98 129.153 2125.28 129.153 Z" fill="#000000" fill-rule="evenodd" fill-opacity="1" /><path clip-path="url(#clip440)" d="M2152.5 160.449 L2152.5 174.199 L2148.22 174.199 L2148.22 138.412 L2152.5 138.412 L2152.5 142.347 Q2153.84 140.032 2155.88 138.921 Q2157.94 137.787 2160.78 137.787 Q2165.51 137.787 2168.45 141.537 Q2171.41 145.287 2171.41 151.398 Q2171.41 157.509 2168.45 161.259 Q2165.51 165.009 2160.78 165.009 Q2157.94 165.009 2155.88 163.898 Q2153.84 162.763 2152.5 160.449 M2166.99 151.398 Q2166.99 146.699 2165.04 144.037 Q2163.12 141.352 2159.74 141.352 Q2156.36 141.352 2154.42 144.037 Q2152.5 146.699 2152.5 151.398 Q2152.5 156.097 2154.42 158.782 Q2156.36 161.444 2159.74 161.444 Q2163.12 161.444 2165.04 158.782 Q2166.99 156.097 2166.99 151.398 Z" fill="#000000" fill-rule="evenodd" fill-opacity="1" /><path clip-path="url(#clip440)" d="M2200.65 150.31 L2200.65 152.393 L2181.06 152.393 Q2181.34 156.791 2183.7 159.106 Q2186.09 161.398 2190.32 161.398 Q2192.78 161.398 2195.07 160.796 Q2197.38 160.194 2199.65 158.99 L2199.65 163.018 Q2197.36 163.99 2194.95 164.5 Q2192.54 165.009 2190.07 165.009 Q2183.86 165.009 2180.23 161.398 Q2176.62 157.787 2176.62 151.629 Q2176.62 145.264 2180.04 141.537 Q2183.49 137.787 2189.33 137.787 Q2194.56 137.787 2197.59 141.166 Q2200.65 144.523 2200.65 150.31 M2196.39 149.06 Q2196.34 145.565 2194.42 143.481 Q2192.52 141.398 2189.37 141.398 Q2185.81 141.398 2183.66 143.412 Q2181.53 145.426 2181.2 149.083 L2196.39 149.06 Z" fill="#000000" fill-rule="evenodd" fill-opacity="1" /><path clip-path="url(#clip440)" d="M2229.19 148.689 L2229.19 164.338 L2224.93 164.338 L2224.93 148.828 Q2224.93 145.148 2223.49 143.319 Q2222.06 141.49 2219.19 141.49 Q2215.74 141.49 2213.75 143.69 Q2211.76 145.889 2211.76 149.685 L2211.76 164.338 L2207.47 164.338 L2207.47 138.412 L2211.76 138.412 L2211.76 142.44 Q2213.28 140.102 2215.34 138.944 Q2217.43 137.787 2220.14 137.787 Q2224.6 137.787 2226.9 140.565 Q2229.19 143.319 2229.19 148.689 Z" fill="#000000" fill-rule="evenodd" fill-opacity="1" /><polyline clip-path="url(#clip440)" style="stroke:#e26f46; stroke-linecap:butt; stroke-linejoin:round; stroke-width:4; stroke-opacity:1; fill:none" points="
  1941.9,198.898 2085.35,198.898 
  "/>
<path clip-path="url(#clip440)" d="M2109.26 181.618 L2113.93 181.618 L2113.93 195.784 L2130.92 195.784 L2130.92 181.618 L2135.6 181.618 L2135.6 216.178 L2130.92 216.178 L2130.92 199.719 L2113.93 199.719 L2113.93 216.178 L2109.26 216.178 L2109.26 181.618 Z" fill="#000000" fill-rule="evenodd" fill-opacity="1" /><path clip-path="url(#clip440)" d="M2144.72 190.252 L2148.98 190.252 L2148.98 216.178 L2144.72 216.178 L2144.72 190.252 M2144.72 180.159 L2148.98 180.159 L2148.98 185.553 L2144.72 185.553 L2144.72 180.159 Z" fill="#000000" fill-rule="evenodd" fill-opacity="1" /><path clip-path="url(#clip440)" d="M2174.95 202.914 Q2174.95 198.284 2173.03 195.738 Q2171.13 193.192 2167.68 193.192 Q2164.26 193.192 2162.34 195.738 Q2160.44 198.284 2160.44 202.914 Q2160.44 207.52 2162.34 210.066 Q2164.26 212.613 2167.68 212.613 Q2171.13 212.613 2173.03 210.066 Q2174.95 207.52 2174.95 202.914 M2179.21 212.96 Q2179.21 219.58 2176.27 222.798 Q2173.33 226.039 2167.27 226.039 Q2165.02 226.039 2163.03 225.691 Q2161.04 225.367 2159.16 224.673 L2159.16 220.529 Q2161.04 221.548 2162.87 222.034 Q2164.7 222.52 2166.59 222.52 Q2170.78 222.52 2172.87 220.321 Q2174.95 218.145 2174.95 213.724 L2174.95 211.617 Q2173.63 213.909 2171.57 215.043 Q2169.51 216.178 2166.64 216.178 Q2161.87 216.178 2158.96 212.543 Q2156.04 208.909 2156.04 202.914 Q2156.04 196.895 2158.96 193.261 Q2161.87 189.627 2166.64 189.627 Q2169.51 189.627 2171.57 190.761 Q2173.63 191.895 2174.95 194.187 L2174.95 190.252 L2179.21 190.252 L2179.21 212.96 Z" fill="#000000" fill-rule="evenodd" fill-opacity="1" /><path clip-path="url(#clip440)" d="M2209.53 200.529 L2209.53 216.178 L2205.28 216.178 L2205.28 200.668 Q2205.28 196.988 2203.84 195.159 Q2202.4 193.33 2199.53 193.33 Q2196.09 193.33 2194.09 195.53 Q2192.1 197.729 2192.1 201.525 L2192.1 216.178 L2187.82 216.178 L2187.82 180.159 L2192.1 180.159 L2192.1 194.28 Q2193.63 191.942 2195.69 190.784 Q2197.78 189.627 2200.48 189.627 Q2204.95 189.627 2207.24 192.405 Q2209.53 195.159 2209.53 200.529 Z" fill="#000000" fill-rule="evenodd" fill-opacity="1" /><polyline clip-path="url(#clip440)" style="stroke:#3da44d; stroke-linecap:butt; stroke-linejoin:round; stroke-width:4; stroke-opacity:1; fill:none" points="
  1941.9,250.738 2085.35,250.738 
  "/>
<path clip-path="url(#clip440)" d="M2109.26 233.458 L2113.93 233.458 L2113.93 264.082 L2130.76 264.082 L2130.76 268.018 L2109.26 268.018 L2109.26 233.458 Z" fill="#000000" fill-rule="evenodd" fill-opacity="1" /><path clip-path="url(#clip440)" d="M2144.7 245.078 Q2141.27 245.078 2139.28 247.763 Q2137.29 250.425 2137.29 255.078 Q2137.29 259.731 2139.26 262.416 Q2141.25 265.078 2144.7 265.078 Q2148.1 265.078 2150.09 262.393 Q2152.08 259.707 2152.08 255.078 Q2152.08 250.471 2150.09 247.786 Q2148.1 245.078 2144.7 245.078 M2144.7 241.467 Q2150.25 241.467 2153.42 245.078 Q2156.6 248.689 2156.6 255.078 Q2156.6 261.444 2153.42 265.078 Q2150.25 268.689 2144.7 268.689 Q2139.12 268.689 2135.95 265.078 Q2132.8 261.444 2132.8 255.078 Q2132.8 248.689 2135.95 245.078 Q2139.12 241.467 2144.7 241.467 Z" fill="#000000" fill-rule="evenodd" fill-opacity="1" /><path clip-path="url(#clip440)" d="M2161.18 242.092 L2165.44 242.092 L2170.76 262.323 L2176.06 242.092 L2181.09 242.092 L2186.41 262.323 L2191.71 242.092 L2195.97 242.092 L2189.19 268.018 L2184.16 268.018 L2178.59 246.768 L2172.98 268.018 L2167.96 268.018 L2161.18 242.092 Z" fill="#000000" fill-rule="evenodd" fill-opacity="1" /><polyline clip-path="url(#clip440)" style="stroke:#c271d2; stroke-linecap:butt; stroke-linejoin:round; stroke-width:4; stroke-opacity:1; fill:none" points="
  1941.9,302.578 2085.35,302.578 
  "/>
<path clip-path="url(#clip440)" d="M2137.13 287.96 L2137.13 292.89 Q2134.77 290.691 2132.08 289.603 Q2129.42 288.515 2126.41 288.515 Q2120.48 288.515 2117.34 292.149 Q2114.19 295.76 2114.19 302.612 Q2114.19 309.441 2117.34 313.075 Q2120.48 316.686 2126.41 316.686 Q2129.42 316.686 2132.08 315.598 Q2134.77 314.51 2137.13 312.311 L2137.13 317.196 Q2134.67 318.862 2131.92 319.696 Q2129.19 320.529 2126.13 320.529 Q2118.29 320.529 2113.77 315.737 Q2109.26 310.922 2109.26 302.612 Q2109.26 294.279 2113.77 289.487 Q2118.29 284.673 2126.13 284.673 Q2129.23 284.673 2131.97 285.506 Q2134.72 286.316 2137.13 287.96 Z" fill="#000000" fill-rule="evenodd" fill-opacity="1" /><path clip-path="url(#clip440)" d="M2144.16 283.839 L2148.42 283.839 L2148.42 319.858 L2144.16 319.858 L2144.16 283.839 Z" fill="#000000" fill-rule="evenodd" fill-opacity="1" /><path clip-path="url(#clip440)" d="M2167.38 296.918 Q2163.96 296.918 2161.97 299.603 Q2159.97 302.265 2159.97 306.918 Q2159.97 311.571 2161.94 314.256 Q2163.93 316.918 2167.38 316.918 Q2170.78 316.918 2172.78 314.233 Q2174.77 311.547 2174.77 306.918 Q2174.77 302.311 2172.78 299.626 Q2170.78 296.918 2167.38 296.918 M2167.38 293.307 Q2172.94 293.307 2176.11 296.918 Q2179.28 300.529 2179.28 306.918 Q2179.28 313.284 2176.11 316.918 Q2172.94 320.529 2167.38 320.529 Q2161.8 320.529 2158.63 316.918 Q2155.48 313.284 2155.48 306.918 Q2155.48 300.529 2158.63 296.918 Q2161.8 293.307 2167.38 293.307 Z" fill="#000000" fill-rule="evenodd" fill-opacity="1" /><path clip-path="url(#clip440)" d="M2202.87 294.696 L2202.87 298.723 Q2201.06 297.797 2199.12 297.335 Q2197.17 296.872 2195.09 296.872 Q2191.92 296.872 2190.32 297.844 Q2188.75 298.816 2188.75 300.76 Q2188.75 302.242 2189.88 303.098 Q2191.02 303.932 2194.44 304.696 L2195.9 305.02 Q2200.44 305.992 2202.34 307.774 Q2204.26 309.534 2204.26 312.705 Q2204.26 316.316 2201.39 318.422 Q2198.54 320.529 2193.54 320.529 Q2191.46 320.529 2189.19 320.112 Q2186.94 319.719 2184.44 318.908 L2184.44 314.51 Q2186.8 315.737 2189.09 316.362 Q2191.39 316.964 2193.63 316.964 Q2196.64 316.964 2198.26 315.946 Q2199.88 314.904 2199.88 313.029 Q2199.88 311.293 2198.7 310.367 Q2197.54 309.441 2193.59 308.584 L2192.1 308.237 Q2188.15 307.404 2186.39 305.691 Q2184.63 303.955 2184.63 300.946 Q2184.63 297.288 2187.22 295.298 Q2189.81 293.307 2194.58 293.307 Q2196.94 293.307 2199.03 293.654 Q2201.11 294.001 2202.87 294.696 Z" fill="#000000" fill-rule="evenodd" fill-opacity="1" /><path clip-path="url(#clip440)" d="M2233.21 305.83 L2233.21 307.913 L2213.63 307.913 Q2213.91 312.311 2216.27 314.626 Q2218.65 316.918 2222.89 316.918 Q2225.34 316.918 2227.64 316.316 Q2229.95 315.714 2232.22 314.51 L2232.22 318.538 Q2229.93 319.51 2227.52 320.02 Q2225.11 320.529 2222.64 320.529 Q2216.43 320.529 2212.8 316.918 Q2209.19 313.307 2209.19 307.149 Q2209.19 300.784 2212.61 297.057 Q2216.06 293.307 2221.9 293.307 Q2227.13 293.307 2230.16 296.686 Q2233.21 300.043 2233.21 305.83 M2228.96 304.58 Q2228.91 301.085 2226.99 299.001 Q2225.09 296.918 2221.94 296.918 Q2218.38 296.918 2216.22 298.932 Q2214.09 300.946 2213.77 304.603 L2228.96 304.58 Z" fill="#000000" fill-rule="evenodd" fill-opacity="1" /></svg>
