<?xml version="1.0" encoding="utf-8"?>
<svg xmlns="http://www.w3.org/2000/svg" xmlns:xlink="http://www.w3.org/1999/xlink" width="600" height="400" viewBox="0 0 2400 1600">
<defs>
  <clipPath id="clip530">
    <rect x="0" y="0" width="2400" height="1600"/>
  </clipPath>
</defs>
<path clip-path="url(#clip530)" d="
M0 1600 L2400 1600 L2400 0 L0 0  Z
  " fill="#ffffff" fill-rule="evenodd" fill-opacity="1"/>
<defs>
  <clipPath id="clip531">
    <rect x="480" y="0" width="1681" height="1600"/>
  </clipPath>
</defs>
<path clip-path="url(#clip530)" d="
M201.019 1331.21 L2352.76 1331.21 L2352.76 47.2441 L201.019 47.2441  Z
  " fill="#ffffff" fill-rule="evenodd" fill-opacity="1"/>
<defs>
  <clipPath id="clip532">
    <rect x="201" y="47" width="2153" height="1285"/>
  </clipPath>
</defs>
<polyline clip-path="url(#clip532)" style="stroke:#000000; stroke-linecap:butt; stroke-linejoin:round; stroke-width:2; stroke-opacity:0.1; fill:none" points="
  305.624,1331.21 305.624,47.2441 
  "/>
<polyline clip-path="url(#clip532)" style="stroke:#000000; stroke-linecap:butt; stroke-linejoin:round; stroke-width:2; stroke-opacity:0.1; fill:none" points="
  402.751,1331.21 402.751,47.2441 
  "/>
<polyline clip-path="url(#clip532)" style="stroke:#000000; stroke-linecap:butt; stroke-linejoin:round; stroke-width:2; stroke-opacity:0.1; fill:none" points="
  499.877,1331.21 499.877,47.2441 
  "/>
<polyline clip-path="url(#clip532)" style="stroke:#000000; stroke-linecap:butt; stroke-linejoin:round; stroke-width:2; stroke-opacity:0.1; fill:none" points="
  597.003,1331.21 597.003,47.2441 
  "/>
<polyline clip-path="url(#clip532)" style="stroke:#000000; stroke-linecap:butt; stroke-linejoin:round; stroke-width:2; stroke-opacity:0.1; fill:none" points="
  694.13,1331.21 694.13,47.2441 
  "/>
<polyline clip-path="url(#clip532)" style="stroke:#000000; stroke-linecap:butt; stroke-linejoin:round; stroke-width:2; stroke-opacity:0.1; fill:none" points="
  791.256,1331.21 791.256,47.2441 
  "/>
<polyline clip-path="url(#clip532)" style="stroke:#000000; stroke-linecap:butt; stroke-linejoin:round; stroke-width:2; stroke-opacity:0.1; fill:none" points="
  888.382,1331.21 888.382,47.2441 
  "/>
<polyline clip-path="url(#clip532)" style="stroke:#000000; stroke-linecap:butt; stroke-linejoin:round; stroke-width:2; stroke-opacity:0.1; fill:none" points="
  985.509,1331.21 985.509,47.2441 
  "/>
<polyline clip-path="url(#clip532)" style="stroke:#000000; stroke-linecap:butt; stroke-linejoin:round; stroke-width:2; stroke-opacity:0.1; fill:none" points="
  1082.63,1331.21 1082.63,47.2441 
  "/>
<polyline clip-path="url(#clip532)" style="stroke:#000000; stroke-linecap:butt; stroke-linejoin:round; stroke-width:2; stroke-opacity:0.1; fill:none" points="
  1179.76,1331.21 1179.76,47.2441 
  "/>
<polyline clip-path="url(#clip532)" style="stroke:#000000; stroke-linecap:butt; stroke-linejoin:round; stroke-width:2; stroke-opacity:0.1; fill:none" points="
  1276.89,1331.21 1276.89,47.2441 
  "/>
<polyline clip-path="url(#clip532)" style="stroke:#000000; stroke-linecap:butt; stroke-linejoin:round; stroke-width:2; stroke-opacity:0.1; fill:none" points="
  1374.01,1331.21 1374.01,47.2441 
  "/>
<polyline clip-path="url(#clip532)" style="stroke:#000000; stroke-linecap:butt; stroke-linejoin:round; stroke-width:2; stroke-opacity:0.1; fill:none" points="
  1471.14,1331.21 1471.14,47.2441 
  "/>
<polyline clip-path="url(#clip532)" style="stroke:#000000; stroke-linecap:butt; stroke-linejoin:round; stroke-width:2; stroke-opacity:0.1; fill:none" points="
  1568.27,1331.21 1568.27,47.2441 
  "/>
<polyline clip-path="url(#clip532)" style="stroke:#000000; stroke-linecap:butt; stroke-linejoin:round; stroke-width:2; stroke-opacity:0.1; fill:none" points="
  1665.39,1331.21 1665.39,47.2441 
  "/>
<polyline clip-path="url(#clip532)" style="stroke:#000000; stroke-linecap:butt; stroke-linejoin:round; stroke-width:2; stroke-opacity:0.1; fill:none" points="
  1762.52,1331.21 1762.52,47.2441 
  "/>
<polyline clip-path="url(#clip532)" style="stroke:#000000; stroke-linecap:butt; stroke-linejoin:round; stroke-width:2; stroke-opacity:0.1; fill:none" points="
  1859.65,1331.21 1859.65,47.2441 
  "/>
<polyline clip-path="url(#clip532)" style="stroke:#000000; stroke-linecap:butt; stroke-linejoin:round; stroke-width:2; stroke-opacity:0.1; fill:none" points="
  1956.77,1331.21 1956.77,47.2441 
  "/>
<polyline clip-path="url(#clip532)" style="stroke:#000000; stroke-linecap:butt; stroke-linejoin:round; stroke-width:2; stroke-opacity:0.1; fill:none" points="
  2053.9,1331.21 2053.9,47.2441 
  "/>
<polyline clip-path="url(#clip532)" style="stroke:#000000; stroke-linecap:butt; stroke-linejoin:round; stroke-width:2; stroke-opacity:0.1; fill:none" points="
  2151.02,1331.21 2151.02,47.2441 
  "/>
<polyline clip-path="url(#clip532)" style="stroke:#000000; stroke-linecap:butt; stroke-linejoin:round; stroke-width:2; stroke-opacity:0.1; fill:none" points="
  2248.15,1331.21 2248.15,47.2441 
  "/>
<polyline clip-path="url(#clip530)" style="stroke:#000000; stroke-linecap:butt; stroke-linejoin:round; stroke-width:4; stroke-opacity:1; fill:none" points="
  201.019,1331.21 2352.76,1331.21 
  "/>
<polyline clip-path="url(#clip530)" style="stroke:#000000; stroke-linecap:butt; stroke-linejoin:round; stroke-width:4; stroke-opacity:1; fill:none" points="
  305.624,1331.21 305.624,1315.8 
  "/>
<polyline clip-path="url(#clip530)" style="stroke:#000000; stroke-linecap:butt; stroke-linejoin:round; stroke-width:4; stroke-opacity:1; fill:none" points="
  402.751,1331.21 402.751,1315.8 
  "/>
<polyline clip-path="url(#clip530)" style="stroke:#000000; stroke-linecap:butt; stroke-linejoin:round; stroke-width:4; stroke-opacity:1; fill:none" points="
  499.877,1331.21 499.877,1315.8 
  "/>
<polyline clip-path="url(#clip530)" style="stroke:#000000; stroke-linecap:butt; stroke-linejoin:round; stroke-width:4; stroke-opacity:1; fill:none" points="
  597.003,1331.21 597.003,1315.8 
  "/>
<polyline clip-path="url(#clip530)" style="stroke:#000000; stroke-linecap:butt; stroke-linejoin:round; stroke-width:4; stroke-opacity:1; fill:none" points="
  694.13,1331.21 694.13,1315.8 
  "/>
<polyline clip-path="url(#clip530)" style="stroke:#000000; stroke-linecap:butt; stroke-linejoin:round; stroke-width:4; stroke-opacity:1; fill:none" points="
  791.256,1331.21 791.256,1315.8 
  "/>
<polyline clip-path="url(#clip530)" style="stroke:#000000; stroke-linecap:butt; stroke-linejoin:round; stroke-width:4; stroke-opacity:1; fill:none" points="
  888.382,1331.21 888.382,1315.8 
  "/>
<polyline clip-path="url(#clip530)" style="stroke:#000000; stroke-linecap:butt; stroke-linejoin:round; stroke-width:4; stroke-opacity:1; fill:none" points="
  985.509,1331.21 985.509,1315.8 
  "/>
<polyline clip-path="url(#clip530)" style="stroke:#000000; stroke-linecap:butt; stroke-linejoin:round; stroke-width:4; stroke-opacity:1; fill:none" points="
  1082.63,1331.21 1082.63,1315.8 
  "/>
<polyline clip-path="url(#clip530)" style="stroke:#000000; stroke-linecap:butt; stroke-linejoin:round; stroke-width:4; stroke-opacity:1; fill:none" points="
  1179.76,1331.21 1179.76,1315.8 
  "/>
<polyline clip-path="url(#clip530)" style="stroke:#000000; stroke-linecap:butt; stroke-linejoin:round; stroke-width:4; stroke-opacity:1; fill:none" points="
  1276.89,1331.21 1276.89,1315.8 
  "/>
<polyline clip-path="url(#clip530)" style="stroke:#000000; stroke-linecap:butt; stroke-linejoin:round; stroke-width:4; stroke-opacity:1; fill:none" points="
  1374.01,1331.21 1374.01,1315.8 
  "/>
<polyline clip-path="url(#clip530)" style="stroke:#000000; stroke-linecap:butt; stroke-linejoin:round; stroke-width:4; stroke-opacity:1; fill:none" points="
  1471.14,1331.21 1471.14,1315.8 
  "/>
<polyline clip-path="url(#clip530)" style="stroke:#000000; stroke-linecap:butt; stroke-linejoin:round; stroke-width:4; stroke-opacity:1; fill:none" points="
  1568.27,1331.21 1568.27,1315.8 
  "/>
<polyline clip-path="url(#clip530)" style="stroke:#000000; stroke-linecap:butt; stroke-linejoin:round; stroke-width:4; stroke-opacity:1; fill:none" points="
  1665.39,1331.21 1665.39,1315.8 
  "/>
<polyline clip-path="url(#clip530)" style="stroke:#000000; stroke-linecap:butt; stroke-linejoin:round; stroke-width:4; stroke-opacity:1; fill:none" points="
  1762.52,1331.21 1762.52,1315.8 
  "/>
<polyline clip-path="url(#clip530)" style="stroke:#000000; stroke-linecap:butt; stroke-linejoin:round; stroke-width:4; stroke-opacity:1; fill:none" points="
  1859.65,1331.21 1859.65,1315.8 
  "/>
<polyline clip-path="url(#clip530)" style="stroke:#000000; stroke-linecap:butt; stroke-linejoin:round; stroke-width:4; stroke-opacity:1; fill:none" points="
  1956.77,1331.21 1956.77,1315.8 
  "/>
<polyline clip-path="url(#clip530)" style="stroke:#000000; stroke-linecap:butt; stroke-linejoin:round; stroke-width:4; stroke-opacity:1; fill:none" points="
  2053.9,1331.21 2053.9,1315.8 
  "/>
<polyline clip-path="url(#clip530)" style="stroke:#000000; stroke-linecap:butt; stroke-linejoin:round; stroke-width:4; stroke-opacity:1; fill:none" points="
  2151.02,1331.21 2151.02,1315.8 
  "/>
<polyline clip-path="url(#clip530)" style="stroke:#000000; stroke-linecap:butt; stroke-linejoin:round; stroke-width:4; stroke-opacity:1; fill:none" points="
  2248.15,1331.21 2248.15,1315.8 
  "/>
<path clip-path="url(#clip530)" d="M185.55 1585.07 L193.71 1570.94 L197.118 1572.9 L186.146 1591.91 L182.738 1589.94 Q181.683 1586.26 179.965 1579.97 Q178.239 1573.66 177.667 1571.97 Q176.604 1568.76 175.541 1567.13 Q174.468 1565.47 173.005 1564.62 Q170.619 1563.25 168.144 1564.06 Q165.68 1564.86 164.129 1567.54 Q163.029 1569.45 162.464 1571.96 Q161.91 1574.44 161.864 1577.62 L157.775 1575.26 Q158.205 1572.25 158.93 1569.83 Q159.656 1567.42 160.674 1565.66 Q163.36 1561.01 167.282 1559.58 Q171.205 1558.16 175.094 1560.4 Q176.938 1561.47 178.197 1563.13 Q179.447 1564.76 180.639 1567.88 Q180.931 1568.72 182.167 1573.01 Q183.382 1577.3 185.55 1585.07 Z" fill="#000000" fill-rule="evenodd" fill-opacity="1" /><path clip-path="url(#clip530)" d="M179.761 1540 Q177.956 1543.13 180.129 1546.5 Q182.293 1549.83 188.468 1553.4 Q194.622 1556.95 198.612 1557.17 Q202.593 1557.36 204.399 1554.23 Q206.216 1551.08 204.052 1547.75 Q201.879 1544.38 195.724 1540.83 Q189.55 1537.26 185.569 1537.08 Q181.579 1536.86 179.761 1540 M176.554 1538.15 Q179.459 1533.12 184.976 1532.78 Q190.485 1532.4 198.062 1536.78 Q205.62 1541.14 208.07 1546.11 Q210.511 1551.05 207.606 1556.08 Q204.701 1561.11 199.193 1561.49 Q193.676 1561.83 186.118 1557.47 Q178.54 1553.09 176.099 1548.15 Q173.649 1543.18 176.554 1538.15 Z" fill="#000000" fill-rule="evenodd" fill-opacity="1" /><path clip-path="url(#clip530)" d="M215.712 1532.83 L223.872 1518.7 L227.28 1520.66 L216.307 1539.67 L212.899 1537.7 Q211.845 1534.02 210.127 1527.73 Q208.401 1521.42 207.829 1519.72 Q206.766 1516.52 205.702 1514.89 Q204.63 1513.23 203.167 1512.38 Q200.781 1511 198.306 1511.82 Q195.841 1512.62 194.291 1515.3 Q193.191 1517.21 192.626 1519.71 Q192.072 1522.2 192.026 1525.38 L187.937 1523.02 Q188.366 1520.01 189.092 1517.59 Q189.818 1515.18 190.836 1513.41 Q193.521 1508.76 197.444 1507.34 Q201.367 1505.92 205.256 1508.16 Q207.1 1509.23 208.359 1510.89 Q209.609 1512.52 210.801 1515.64 Q211.093 1516.48 212.329 1520.77 Q213.544 1525.05 215.712 1532.83 Z" fill="#000000" fill-rule="evenodd" fill-opacity="1" /><path clip-path="url(#clip530)" d="M229.184 1509.49 L233.004 1502.88 L210.17 1489.7 L207.459 1497.73 L203.77 1495.6 L206.458 1487.61 L208.796 1483.56 L235.318 1498.87 L239.138 1492.25 L242.546 1494.22 L232.592 1511.46 L229.184 1509.49 Z" fill="#000000" fill-rule="evenodd" fill-opacity="1" /><path clip-path="url(#clip530)" d="M233.001 1480.99 L239.239 1470.18 L242.527 1472.08 L236.288 1482.88 L233.001 1480.99 Z" fill="#000000" fill-rule="evenodd" fill-opacity="1" /><path clip-path="url(#clip530)" d="M233.557 1446.83 Q231.752 1449.95 233.925 1453.32 Q236.089 1456.65 242.264 1460.22 Q248.418 1463.77 252.408 1463.99 Q256.389 1464.18 258.195 1461.05 Q260.012 1457.9 257.848 1454.57 Q255.675 1451.2 249.52 1447.65 Q243.346 1444.09 239.365 1443.9 Q235.375 1443.68 233.557 1446.83 M230.35 1444.97 Q233.255 1439.94 238.772 1439.6 Q244.281 1439.23 251.858 1443.6 Q259.416 1447.96 261.866 1452.93 Q264.307 1457.87 261.402 1462.9 Q258.497 1467.93 252.989 1468.31 Q247.472 1468.65 239.914 1464.29 Q232.336 1459.91 229.895 1454.98 Q227.445 1450.01 230.35 1444.97 Z" fill="#000000" fill-rule="evenodd" fill-opacity="1" /><path clip-path="url(#clip530)" d="M259.613 1426.37 Q258.039 1429.1 258.977 1431.78 Q259.927 1434.44 263.175 1436.31 Q266.402 1438.18 269.201 1437.68 Q271.991 1437.16 273.565 1434.43 Q275.139 1431.7 274.189 1429.04 Q273.231 1426.35 270.003 1424.49 Q266.756 1422.61 263.965 1423.14 Q261.187 1423.65 259.613 1426.37 M251.564 1411.01 L255.253 1413.14 Q253.652 1414.24 252.368 1415.59 Q251.096 1416.91 250.216 1418.44 Q247.901 1422.45 249.381 1426.13 Q250.872 1429.8 256.171 1433.26 Q255.11 1431.07 255.218 1428.75 Q255.306 1426.43 256.544 1424.28 Q259.148 1419.77 263.399 1418.75 Q267.642 1417.7 272.353 1420.42 Q276.964 1423.08 278.176 1427.41 Q279.388 1431.75 276.773 1436.28 Q273.775 1441.47 268.22 1441.93 Q262.645 1442.37 255.088 1438.01 Q247.991 1433.91 245.726 1428.11 Q243.44 1422.3 246.716 1416.63 Q247.595 1415.1 248.787 1413.74 Q249.991 1412.34 251.564 1411.01 Z" fill="#000000" fill-rule="evenodd" fill-opacity="1" /><path clip-path="url(#clip530)" d="M271.716 1413.93 L277.954 1403.12 L281.242 1405.02 L275.003 1415.83 L271.716 1413.93 Z" fill="#000000" fill-rule="evenodd" fill-opacity="1" /><path clip-path="url(#clip530)" d="M291.533 1401.5 L295.353 1394.89 L272.519 1381.7 L269.808 1389.73 L266.119 1387.6 L268.808 1379.61 L271.146 1375.56 L297.668 1390.88 L301.487 1384.26 L304.895 1386.23 L294.941 1403.47 L291.533 1401.5 Z" fill="#000000" fill-rule="evenodd" fill-opacity="1" /><path clip-path="url(#clip530)" d="M287.353 1353.65 Q285.548 1356.78 287.721 1360.14 Q289.885 1363.48 296.06 1367.04 Q302.214 1370.59 306.204 1370.81 Q310.185 1371 311.991 1367.87 Q313.808 1364.73 311.644 1361.39 Q309.471 1358.03 303.316 1354.47 Q297.142 1350.91 293.161 1350.72 Q289.171 1350.5 287.353 1353.65 M284.146 1351.8 Q287.051 1346.77 292.568 1346.42 Q298.077 1346.05 305.654 1350.42 Q313.212 1354.79 315.662 1359.76 Q318.104 1364.69 315.198 1369.73 Q312.293 1374.76 306.785 1375.13 Q301.268 1375.47 293.71 1371.11 Q286.132 1366.74 283.691 1361.8 Q281.241 1356.83 284.146 1351.8 Z" fill="#000000" fill-rule="evenodd" fill-opacity="1" /><path clip-path="url(#clip530)" d="M477.427 1584.21 L485.586 1570.08 L488.994 1572.04 L478.022 1591.05 L474.614 1589.08 Q473.56 1585.4 471.842 1579.11 Q470.116 1572.8 469.543 1571.1 Q468.481 1567.9 467.417 1566.27 Q466.345 1564.61 464.882 1563.76 Q462.496 1562.38 460.02 1563.2 Q457.556 1564 456.005 1566.68 Q454.906 1568.59 454.34 1571.09 Q453.787 1573.58 453.741 1576.76 L449.651 1574.4 Q450.081 1571.39 450.807 1568.97 Q451.533 1566.56 452.551 1564.79 Q455.236 1560.14 459.159 1558.72 Q463.082 1557.3 466.971 1559.54 Q468.815 1560.61 470.074 1562.27 Q471.324 1563.9 472.516 1567.02 Q472.808 1567.86 474.044 1572.15 Q475.259 1576.43 477.427 1584.21 Z" fill="#000000" fill-rule="evenodd" fill-opacity="1" /><path clip-path="url(#clip530)" d="M471.638 1539.14 Q469.833 1542.27 472.005 1545.64 Q474.17 1548.97 480.344 1552.53 Q486.499 1556.09 490.489 1556.31 Q494.47 1556.49 496.276 1553.37 Q498.093 1550.22 495.928 1546.88 Q493.755 1543.52 487.601 1539.97 Q481.427 1536.4 477.445 1536.21 Q473.455 1535.99 471.638 1539.14 M468.431 1537.29 Q471.336 1532.26 476.853 1531.92 Q482.361 1531.54 489.939 1535.92 Q497.497 1540.28 499.947 1545.25 Q502.388 1550.19 499.483 1555.22 Q496.578 1560.25 491.069 1560.62 Q485.552 1560.97 477.995 1556.6 Q470.417 1552.23 467.976 1547.29 Q465.526 1542.32 468.431 1537.29 Z" fill="#000000" fill-rule="evenodd" fill-opacity="1" /><path clip-path="url(#clip530)" d="M507.589 1531.97 L515.748 1517.83 L519.156 1519.8 L508.184 1538.81 L504.776 1536.84 Q503.722 1533.15 502.004 1526.87 Q500.278 1520.56 499.705 1518.86 Q498.643 1515.66 497.579 1514.03 Q496.507 1512.36 495.044 1511.52 Q492.658 1510.14 490.182 1510.96 Q487.718 1511.75 486.167 1514.44 Q485.068 1516.34 484.502 1518.85 Q483.949 1521.34 483.903 1524.52 L479.813 1522.16 Q480.243 1519.15 480.969 1516.73 Q481.694 1514.32 482.713 1512.55 Q485.398 1507.9 489.321 1506.48 Q493.243 1505.05 497.132 1507.3 Q498.977 1508.36 500.236 1510.03 Q501.486 1511.66 502.678 1514.78 Q502.97 1515.61 504.205 1519.91 Q505.421 1524.19 507.589 1531.97 Z" fill="#000000" fill-rule="evenodd" fill-opacity="1" /><path clip-path="url(#clip530)" d="M521.061 1508.63 L524.88 1502.02 L502.047 1488.83 L499.335 1496.86 L495.647 1494.73 L498.335 1486.74 L500.673 1482.69 L527.195 1498.01 L531.014 1491.39 L534.422 1493.36 L524.469 1510.6 L521.061 1508.63 Z" fill="#000000" fill-rule="evenodd" fill-opacity="1" /><path clip-path="url(#clip530)" d="M524.877 1480.12 L531.116 1469.32 L534.403 1471.22 L528.165 1482.02 L524.877 1480.12 Z" fill="#000000" fill-rule="evenodd" fill-opacity="1" /><path clip-path="url(#clip530)" d="M525.434 1445.96 Q523.629 1449.09 525.801 1452.46 Q527.966 1455.79 534.14 1459.36 Q540.295 1462.91 544.285 1463.13 Q548.266 1463.32 550.072 1460.19 Q551.889 1457.04 549.724 1453.71 Q547.551 1450.34 541.397 1446.79 Q535.223 1443.22 531.241 1443.04 Q527.251 1442.82 525.434 1445.96 M522.227 1444.11 Q525.132 1439.08 530.649 1438.74 Q536.157 1438.36 543.735 1442.74 Q551.293 1447.1 553.743 1452.07 Q556.184 1457.01 553.279 1462.04 Q550.374 1467.07 544.865 1467.45 Q539.348 1467.79 531.791 1463.43 Q524.213 1459.05 521.772 1454.11 Q519.322 1449.14 522.227 1444.11 Z" fill="#000000" fill-rule="evenodd" fill-opacity="1" /><path clip-path="url(#clip530)" d="M551.489 1425.51 Q549.915 1428.24 550.854 1430.92 Q551.804 1433.58 555.051 1435.45 Q558.279 1437.32 561.078 1436.82 Q563.868 1436.29 565.442 1433.57 Q567.016 1430.84 566.066 1428.18 Q565.107 1425.49 561.88 1423.63 Q558.632 1421.75 555.842 1422.28 Q553.063 1422.78 551.489 1425.51 M543.441 1410.15 L547.13 1412.28 Q545.528 1413.38 544.245 1414.73 Q542.972 1416.05 542.093 1417.57 Q539.778 1421.58 541.257 1425.27 Q542.749 1428.94 548.048 1432.4 Q546.986 1430.21 547.094 1427.89 Q547.182 1425.56 548.421 1423.42 Q551.025 1418.91 555.276 1417.89 Q559.518 1416.84 564.229 1419.56 Q568.84 1422.22 570.053 1426.55 Q571.265 1430.89 568.649 1435.42 Q565.652 1440.61 560.097 1441.07 Q554.522 1441.51 546.964 1437.15 Q539.868 1433.05 537.602 1427.25 Q535.317 1421.44 538.592 1415.77 Q539.472 1414.24 540.664 1412.87 Q541.867 1411.48 543.441 1410.15 Z" fill="#000000" fill-rule="evenodd" fill-opacity="1" /><path clip-path="url(#clip530)" d="M563.592 1413.07 L569.831 1402.26 L573.118 1404.16 L566.88 1414.97 L563.592 1413.07 Z" fill="#000000" fill-rule="evenodd" fill-opacity="1" /><path clip-path="url(#clip530)" d="M583.41 1400.64 L587.229 1394.02 L564.396 1380.84 L561.684 1388.87 L557.996 1386.74 L560.684 1378.75 L563.022 1374.7 L589.544 1390.01 L593.364 1383.4 L596.772 1385.37 L586.818 1402.61 L583.41 1400.64 Z" fill="#000000" fill-rule="evenodd" fill-opacity="1" /><path clip-path="url(#clip530)" d="M571.587 1359.87 L580.765 1343.97 L584.173 1345.94 L577.136 1358.13 L584.473 1362.36 Q584.682 1361.31 585.051 1360.34 Q585.4 1359.37 585.909 1358.49 Q588.802 1353.48 593.239 1352.13 Q597.675 1350.79 602.366 1353.5 Q607.197 1356.29 608.147 1360.85 Q609.077 1365.4 605.918 1370.87 Q604.83 1372.75 603.375 1374.53 Q601.931 1376.29 600.086 1378.01 L596.017 1375.66 Q598.041 1374.42 599.633 1372.77 Q601.225 1371.13 602.463 1368.98 Q604.466 1365.51 603.81 1362.43 Q603.155 1359.36 600.028 1357.55 Q596.901 1355.75 593.907 1356.72 Q590.914 1357.69 588.912 1361.16 Q587.974 1362.78 587.398 1364.61 Q586.833 1366.42 586.622 1368.55 L571.587 1359.87 Z" fill="#000000" fill-rule="evenodd" fill-opacity="1" /><path clip-path="url(#clip530)" d="M768.354 1584.99 L776.514 1570.86 L779.922 1572.82 L768.95 1591.83 L765.542 1589.86 Q764.487 1586.18 762.77 1579.89 Q761.043 1573.58 760.471 1571.89 Q759.409 1568.68 758.345 1567.05 Q757.273 1565.39 755.809 1564.54 Q753.424 1563.17 750.948 1563.98 Q748.484 1564.78 746.933 1567.46 Q745.833 1569.37 745.268 1571.87 Q744.714 1574.36 744.669 1577.54 L740.579 1575.18 Q741.009 1572.17 741.734 1569.75 Q742.46 1567.34 743.479 1565.58 Q746.164 1560.93 750.086 1559.5 Q754.009 1558.08 757.898 1560.32 Q759.742 1561.39 761.001 1563.05 Q762.252 1564.68 763.444 1567.8 Q763.736 1568.64 764.971 1572.93 Q766.187 1577.22 768.354 1584.99 Z" fill="#000000" fill-rule="evenodd" fill-opacity="1" /><path clip-path="url(#clip530)" d="M762.566 1539.92 Q760.76 1543.05 762.933 1546.42 Q765.097 1549.75 771.272 1553.32 Q777.426 1556.87 781.416 1557.09 Q785.398 1557.28 787.203 1554.15 Q789.02 1551 786.856 1547.67 Q784.683 1544.3 778.529 1540.75 Q772.354 1537.18 768.373 1537 Q764.383 1536.78 762.566 1539.92 M759.358 1538.07 Q762.263 1533.04 767.78 1532.7 Q773.289 1532.32 780.867 1536.7 Q788.424 1541.06 790.874 1546.03 Q793.316 1550.97 790.411 1556 Q787.506 1561.03 781.997 1561.41 Q776.48 1561.75 768.922 1557.39 Q761.345 1553.01 758.903 1548.07 Q756.453 1543.1 759.358 1538.07 Z" fill="#000000" fill-rule="evenodd" fill-opacity="1" /><path clip-path="url(#clip530)" d="M798.516 1532.75 L806.676 1518.61 L810.084 1520.58 L799.112 1539.59 L795.704 1537.62 Q794.649 1533.94 792.931 1527.65 Q791.205 1521.34 790.633 1519.64 Q789.57 1516.44 788.507 1514.81 Q787.435 1513.15 785.971 1512.3 Q783.586 1510.92 781.11 1511.74 Q778.646 1512.54 777.095 1515.22 Q775.995 1517.13 775.43 1519.63 Q774.876 1522.12 774.83 1525.3 L770.741 1522.94 Q771.171 1519.93 771.896 1517.51 Q772.622 1515.1 773.641 1513.33 Q776.326 1508.68 780.248 1507.26 Q784.171 1505.84 788.06 1508.08 Q789.904 1509.15 791.163 1510.81 Q792.413 1512.44 793.605 1515.56 Q793.897 1516.4 795.133 1520.69 Q796.349 1524.97 798.516 1532.75 Z" fill="#000000" fill-rule="evenodd" fill-opacity="1" /><path clip-path="url(#clip530)" d="M811.988 1509.41 L815.808 1502.8 L792.974 1489.62 L790.263 1497.65 L786.574 1495.52 L789.263 1487.53 L791.601 1483.48 L818.123 1498.79 L821.942 1492.17 L825.35 1494.14 L815.396 1511.38 L811.988 1509.41 Z" fill="#000000" fill-rule="evenodd" fill-opacity="1" /><path clip-path="url(#clip530)" d="M815.805 1480.91 L822.043 1470.1 L825.331 1472 L819.092 1482.8 L815.805 1480.91 Z" fill="#000000" fill-rule="evenodd" fill-opacity="1" /><path clip-path="url(#clip530)" d="M816.362 1446.75 Q814.556 1449.87 816.729 1453.24 Q818.893 1456.57 825.068 1460.14 Q831.222 1463.69 835.212 1463.91 Q839.194 1464.1 840.999 1460.97 Q842.816 1457.82 840.652 1454.49 Q838.479 1451.12 832.325 1447.57 Q826.15 1444 822.169 1443.82 Q818.179 1443.6 816.362 1446.75 M813.154 1444.89 Q816.059 1439.86 821.576 1439.52 Q827.085 1439.15 834.663 1443.52 Q842.22 1447.88 844.67 1452.85 Q847.112 1457.79 844.207 1462.82 Q841.302 1467.85 835.793 1468.23 Q830.276 1468.57 822.718 1464.21 Q815.141 1459.83 812.699 1454.9 Q810.249 1449.93 813.154 1444.89 Z" fill="#000000" fill-rule="evenodd" fill-opacity="1" /><path clip-path="url(#clip530)" d="M842.417 1426.29 Q840.843 1429.02 841.781 1431.7 Q842.731 1434.36 845.979 1436.23 Q849.206 1438.1 852.005 1437.6 Q854.795 1437.08 856.369 1434.35 Q857.944 1431.62 856.994 1428.96 Q856.035 1426.27 852.808 1424.41 Q849.56 1422.53 846.77 1423.06 Q843.991 1423.57 842.417 1426.29 M834.368 1410.93 L838.057 1413.06 Q836.456 1414.16 835.172 1415.51 Q833.9 1416.83 833.02 1418.36 Q830.706 1422.36 832.185 1426.05 Q833.676 1429.72 838.975 1433.18 Q837.914 1430.99 838.022 1428.67 Q838.11 1426.35 839.348 1424.2 Q841.952 1419.69 846.204 1418.67 Q850.446 1417.62 855.157 1420.34 Q859.768 1423 860.98 1427.33 Q862.193 1431.67 859.577 1436.2 Q856.579 1441.39 851.024 1441.85 Q845.449 1442.29 837.892 1437.93 Q830.795 1433.83 828.53 1428.03 Q826.244 1422.22 829.52 1416.55 Q830.399 1415.02 831.591 1413.65 Q832.795 1412.26 834.368 1410.93 Z" fill="#000000" fill-rule="evenodd" fill-opacity="1" /><path clip-path="url(#clip530)" d="M854.52 1413.85 L860.758 1403.04 L864.046 1404.94 L857.808 1415.75 L854.52 1413.85 Z" fill="#000000" fill-rule="evenodd" fill-opacity="1" /><path clip-path="url(#clip530)" d="M874.338 1401.42 L878.157 1394.81 L855.324 1381.62 L852.612 1389.65 L848.923 1387.52 L851.612 1379.53 L853.95 1375.48 L880.472 1390.8 L884.291 1384.18 L887.699 1386.15 L877.746 1403.39 L874.338 1401.42 Z" fill="#000000" fill-rule="evenodd" fill-opacity="1" /><path clip-path="url(#clip530)" d="M883.208 1361.1 Q881.541 1363.99 882.124 1366.55 Q882.719 1369.08 885.425 1370.64 Q888.132 1372.21 890.624 1371.45 Q893.129 1370.68 894.795 1367.79 Q896.462 1364.91 895.879 1362.35 Q895.276 1359.78 892.59 1358.23 Q889.883 1356.67 887.379 1357.44 Q884.886 1358.2 883.208 1361.1 M879.146 1364.16 Q877 1366.39 874.371 1366.83 Q871.754 1367.24 869.188 1365.76 Q865.599 1363.69 864.984 1359.94 Q864.381 1356.17 866.95 1351.72 Q869.531 1347.25 873.086 1345.9 Q876.641 1344.56 880.229 1346.63 Q882.795 1348.12 883.734 1350.61 Q884.685 1353.08 883.834 1356.04 Q886.205 1353.51 889.127 1353.03 Q892.061 1352.53 894.928 1354.18 Q899.278 1356.7 900.064 1360.7 Q900.861 1364.69 898.003 1369.65 Q895.144 1374.6 891.279 1375.92 Q887.426 1377.22 883.076 1374.71 Q880.209 1373.06 879.174 1370.27 Q878.138 1367.48 879.146 1364.16 M871.895 1361.95 Q874.22 1363.29 876.357 1362.6 Q878.505 1361.89 880.021 1359.26 Q881.525 1356.66 881.067 1354.44 Q880.621 1352.21 878.295 1350.86 Q875.97 1349.52 873.81 1350.25 Q871.662 1350.96 870.158 1353.57 Q868.642 1356.2 869.1 1358.41 Q869.569 1360.61 871.895 1361.95 Z" fill="#000000" fill-rule="evenodd" fill-opacity="1" /><path clip-path="url(#clip530)" d="M1060.01 1584.51 L1068.17 1570.38 L1071.58 1572.34 L1060.61 1591.35 L1057.2 1589.38 Q1056.14 1585.7 1054.43 1579.41 Q1052.7 1573.1 1052.13 1571.4 Q1051.07 1568.2 1050 1566.57 Q1048.93 1564.91 1047.47 1564.06 Q1045.08 1562.68 1042.6 1563.5 Q1040.14 1564.3 1038.59 1566.98 Q1037.49 1568.89 1036.92 1571.39 Q1036.37 1573.88 1036.33 1577.06 L1032.24 1574.7 Q1032.67 1571.69 1033.39 1569.27 Q1034.12 1566.86 1035.14 1565.09 Q1037.82 1560.44 1041.74 1559.02 Q1045.67 1557.6 1049.55 1559.84 Q1051.4 1560.91 1052.66 1562.57 Q1053.91 1564.2 1055.1 1567.32 Q1055.39 1568.16 1056.63 1572.45 Q1057.84 1576.74 1060.01 1584.51 Z" fill="#000000" fill-rule="evenodd" fill-opacity="1" /><path clip-path="url(#clip530)" d="M1054.22 1539.44 Q1052.42 1542.57 1054.59 1545.94 Q1056.75 1549.27 1062.93 1552.84 Q1069.08 1556.39 1073.07 1556.61 Q1077.05 1556.79 1078.86 1553.67 Q1080.68 1550.52 1078.51 1547.19 Q1076.34 1543.82 1070.19 1540.27 Q1064.01 1536.7 1060.03 1536.51 Q1056.04 1536.3 1054.22 1539.44 M1051.01 1537.59 Q1053.92 1532.56 1059.44 1532.22 Q1064.95 1531.84 1072.52 1536.22 Q1080.08 1540.58 1082.53 1545.55 Q1084.97 1550.49 1082.07 1555.52 Q1079.16 1560.55 1073.65 1560.93 Q1068.14 1561.27 1060.58 1556.9 Q1053 1552.53 1050.56 1547.59 Q1048.11 1542.62 1051.01 1537.59 Z" fill="#000000" fill-rule="evenodd" fill-opacity="1" /><path clip-path="url(#clip530)" d="M1090.17 1532.27 L1098.33 1518.13 L1101.74 1520.1 L1090.77 1539.11 L1087.36 1537.14 Q1086.31 1533.46 1084.59 1527.17 Q1082.86 1520.86 1082.29 1519.16 Q1081.23 1515.96 1080.16 1514.33 Q1079.09 1512.66 1077.63 1511.82 Q1075.24 1510.44 1072.77 1511.26 Q1070.3 1512.05 1068.75 1514.74 Q1067.65 1516.64 1067.09 1519.15 Q1066.53 1521.64 1066.49 1524.82 L1062.4 1522.46 Q1062.83 1519.45 1063.55 1517.03 Q1064.28 1514.62 1065.3 1512.85 Q1067.98 1508.2 1071.91 1506.78 Q1075.83 1505.35 1079.72 1507.6 Q1081.56 1508.66 1082.82 1510.33 Q1084.07 1511.96 1085.26 1515.08 Q1085.55 1515.91 1086.79 1520.21 Q1088.01 1524.49 1090.17 1532.27 Z" fill="#000000" fill-rule="evenodd" fill-opacity="1" /><path clip-path="url(#clip530)" d="M1103.65 1508.93 L1107.46 1502.32 L1084.63 1489.13 L1081.92 1497.16 L1078.23 1495.03 L1080.92 1487.04 L1083.26 1483 L1109.78 1498.31 L1113.6 1491.69 L1117.01 1493.66 L1107.05 1510.9 L1103.65 1508.93 Z" fill="#000000" fill-rule="evenodd" fill-opacity="1" /><path clip-path="url(#clip530)" d="M1107.46 1480.42 L1113.7 1469.62 L1116.99 1471.52 L1110.75 1482.32 L1107.46 1480.42 Z" fill="#000000" fill-rule="evenodd" fill-opacity="1" /><path clip-path="url(#clip530)" d="M1108.02 1446.27 Q1106.21 1449.39 1108.39 1452.76 Q1110.55 1456.09 1116.72 1459.66 Q1122.88 1463.21 1126.87 1463.43 Q1130.85 1463.62 1132.66 1460.49 Q1134.47 1457.34 1132.31 1454.01 Q1130.14 1450.64 1123.98 1447.09 Q1117.81 1443.52 1113.83 1443.34 Q1109.84 1443.12 1108.02 1446.27 M1104.81 1444.41 Q1107.72 1439.38 1113.23 1439.04 Q1118.74 1438.66 1126.32 1443.04 Q1133.88 1447.4 1136.33 1452.37 Q1138.77 1457.31 1135.86 1462.34 Q1132.96 1467.37 1127.45 1467.75 Q1121.93 1468.09 1114.38 1463.73 Q1106.8 1459.35 1104.36 1454.41 Q1101.91 1449.45 1104.81 1444.41 Z" fill="#000000" fill-rule="evenodd" fill-opacity="1" /><path clip-path="url(#clip530)" d="M1134.07 1425.81 Q1132.5 1428.54 1133.44 1431.22 Q1134.39 1433.88 1137.64 1435.75 Q1140.86 1437.62 1143.66 1437.12 Q1146.45 1436.59 1148.03 1433.87 Q1149.6 1431.14 1148.65 1428.48 Q1147.69 1425.79 1144.46 1423.93 Q1141.22 1422.05 1138.43 1422.58 Q1135.65 1423.09 1134.07 1425.81 M1126.03 1410.45 L1129.71 1412.58 Q1128.11 1413.68 1126.83 1415.03 Q1125.56 1416.35 1124.68 1417.87 Q1122.36 1421.88 1123.84 1425.57 Q1125.33 1429.24 1130.63 1432.7 Q1129.57 1430.51 1129.68 1428.19 Q1129.77 1425.86 1131.01 1423.72 Q1133.61 1419.21 1137.86 1418.19 Q1142.1 1417.14 1146.81 1419.86 Q1151.42 1422.52 1152.64 1426.85 Q1153.85 1431.19 1151.23 1435.72 Q1148.24 1440.91 1142.68 1441.37 Q1137.11 1441.81 1129.55 1437.45 Q1122.45 1433.35 1120.19 1427.55 Q1117.9 1421.74 1121.18 1416.07 Q1122.06 1414.54 1123.25 1413.17 Q1124.45 1411.78 1126.03 1410.45 Z" fill="#000000" fill-rule="evenodd" fill-opacity="1" /><path clip-path="url(#clip530)" d="M1146.18 1413.37 L1152.41 1402.56 L1155.7 1404.46 L1149.46 1415.27 L1146.18 1413.37 Z" fill="#000000" fill-rule="evenodd" fill-opacity="1" /><path clip-path="url(#clip530)" d="M1167.6 1398.15 L1175.76 1384.02 L1179.17 1385.99 L1168.2 1404.99 L1164.79 1403.03 Q1163.74 1399.34 1162.02 1393.06 Q1160.29 1386.74 1159.72 1385.05 Q1158.66 1381.84 1157.59 1380.21 Q1156.52 1378.55 1155.06 1377.71 Q1152.67 1376.33 1150.2 1377.15 Q1147.73 1377.94 1146.18 1380.63 Q1145.08 1382.53 1144.52 1385.04 Q1143.96 1387.53 1143.92 1390.71 L1139.83 1388.35 Q1140.26 1385.33 1140.98 1382.92 Q1141.71 1380.5 1142.73 1378.74 Q1145.41 1374.09 1149.34 1372.67 Q1153.26 1371.24 1157.15 1373.49 Q1158.99 1374.55 1160.25 1376.21 Q1161.5 1377.84 1162.69 1380.97 Q1162.98 1381.8 1164.22 1386.1 Q1165.44 1390.38 1167.6 1398.15 Z" fill="#000000" fill-rule="evenodd" fill-opacity="1" /><path clip-path="url(#clip530)" d="M1175.02 1355.9 Q1177.32 1353.35 1180.23 1352.87 Q1183.14 1352.36 1186.03 1354.02 Q1190.46 1356.58 1191.12 1361.03 Q1191.79 1365.48 1188.55 1371.09 Q1187.46 1372.97 1185.92 1374.76 Q1184.42 1376.53 1182.45 1378.23 L1178.54 1375.97 Q1180.49 1374.86 1182.15 1373.14 Q1183.81 1371.43 1185.07 1369.24 Q1187.27 1365.43 1186.91 1362.58 Q1186.57 1359.71 1183.7 1358.05 Q1181.05 1356.52 1178.49 1357.53 Q1175.93 1358.51 1174.02 1361.82 L1172 1365.3 L1168.67 1363.38 L1170.78 1359.73 Q1172.5 1356.75 1172.24 1354.48 Q1171.95 1352.2 1169.7 1350.91 Q1167.4 1349.58 1165.23 1350.51 Q1163.05 1351.42 1161.29 1354.47 Q1160.33 1356.13 1159.59 1358.24 Q1158.85 1360.36 1158.29 1363.08 L1154.68 1361 Q1155.37 1358.32 1156.21 1356.13 Q1157.06 1353.92 1158.09 1352.14 Q1160.75 1347.53 1164.4 1346.06 Q1168.04 1344.57 1171.61 1346.63 Q1174.09 1348.07 1175 1350.49 Q1175.88 1352.89 1175.02 1355.9 Z" fill="#000000" fill-rule="evenodd" fill-opacity="1" /><path clip-path="url(#clip530)" d="M1351.11 1584.99 L1359.27 1570.86 L1362.68 1572.82 L1351.71 1591.83 L1348.3 1589.86 Q1347.25 1586.18 1345.53 1579.89 Q1343.8 1573.58 1343.23 1571.89 Q1342.17 1568.68 1341.1 1567.05 Q1340.03 1565.39 1338.57 1564.54 Q1336.18 1563.17 1333.71 1563.98 Q1331.24 1564.78 1329.69 1567.46 Q1328.59 1569.37 1328.03 1571.87 Q1327.47 1574.36 1327.43 1577.54 L1323.34 1575.18 Q1323.77 1572.17 1324.49 1569.75 Q1325.22 1567.34 1326.24 1565.58 Q1328.92 1560.93 1332.84 1559.5 Q1336.77 1558.08 1340.66 1560.32 Q1342.5 1561.39 1343.76 1563.05 Q1345.01 1564.68 1346.2 1567.8 Q1346.49 1568.64 1347.73 1572.93 Q1348.94 1577.22 1351.11 1584.99 Z" fill="#000000" fill-rule="evenodd" fill-opacity="1" /><path clip-path="url(#clip530)" d="M1345.32 1539.92 Q1343.52 1543.05 1345.69 1546.42 Q1347.86 1549.75 1354.03 1553.32 Q1360.18 1556.87 1364.17 1557.09 Q1368.16 1557.28 1369.96 1554.15 Q1371.78 1551 1369.61 1547.67 Q1367.44 1544.3 1361.29 1540.75 Q1355.11 1537.18 1351.13 1537 Q1347.14 1536.78 1345.32 1539.92 M1342.12 1538.07 Q1345.02 1533.04 1350.54 1532.7 Q1356.05 1532.32 1363.62 1536.7 Q1371.18 1541.06 1373.63 1546.03 Q1376.07 1550.97 1373.17 1556 Q1370.26 1561.03 1364.75 1561.41 Q1359.24 1561.75 1351.68 1557.39 Q1344.1 1553.01 1341.66 1548.07 Q1339.21 1543.1 1342.12 1538.07 Z" fill="#000000" fill-rule="evenodd" fill-opacity="1" /><path clip-path="url(#clip530)" d="M1381.27 1532.75 L1389.43 1518.61 L1392.84 1520.58 L1381.87 1539.59 L1378.46 1537.62 Q1377.41 1533.94 1375.69 1527.65 Q1373.96 1521.34 1373.39 1519.64 Q1372.33 1516.44 1371.26 1514.81 Q1370.19 1513.15 1368.73 1512.3 Q1366.34 1510.92 1363.87 1511.74 Q1361.4 1512.54 1359.85 1515.22 Q1358.75 1517.13 1358.19 1519.63 Q1357.63 1522.12 1357.59 1525.3 L1353.5 1522.94 Q1353.93 1519.93 1354.65 1517.51 Q1355.38 1515.1 1356.4 1513.33 Q1359.08 1508.68 1363.01 1507.26 Q1366.93 1505.84 1370.82 1508.08 Q1372.66 1509.15 1373.92 1510.81 Q1375.17 1512.44 1376.36 1515.56 Q1376.66 1516.4 1377.89 1520.69 Q1379.11 1524.97 1381.27 1532.75 Z" fill="#000000" fill-rule="evenodd" fill-opacity="1" /><path clip-path="url(#clip530)" d="M1394.75 1509.41 L1398.57 1502.8 L1375.73 1489.62 L1373.02 1497.65 L1369.33 1495.52 L1372.02 1487.53 L1374.36 1483.48 L1400.88 1498.79 L1404.7 1492.17 L1408.11 1494.14 L1398.15 1511.38 L1394.75 1509.41 Z" fill="#000000" fill-rule="evenodd" fill-opacity="1" /><path clip-path="url(#clip530)" d="M1398.56 1480.91 L1404.8 1470.1 L1408.09 1472 L1401.85 1482.8 L1398.56 1480.91 Z" fill="#000000" fill-rule="evenodd" fill-opacity="1" /><path clip-path="url(#clip530)" d="M1399.12 1446.75 Q1397.31 1449.87 1399.49 1453.24 Q1401.65 1456.57 1407.83 1460.14 Q1413.98 1463.69 1417.97 1463.91 Q1421.95 1464.1 1423.76 1460.97 Q1425.57 1457.82 1423.41 1454.49 Q1421.24 1451.12 1415.08 1447.57 Q1408.91 1444 1404.93 1443.82 Q1400.94 1443.6 1399.12 1446.75 M1395.91 1444.89 Q1398.82 1439.86 1404.33 1439.52 Q1409.84 1439.15 1417.42 1443.52 Q1424.98 1447.88 1427.43 1452.85 Q1429.87 1457.79 1426.96 1462.82 Q1424.06 1467.85 1418.55 1468.23 Q1413.03 1468.57 1405.48 1464.21 Q1397.9 1459.83 1395.46 1454.9 Q1393.01 1449.93 1395.91 1444.89 Z" fill="#000000" fill-rule="evenodd" fill-opacity="1" /><path clip-path="url(#clip530)" d="M1425.17 1426.29 Q1423.6 1429.02 1424.54 1431.7 Q1425.49 1434.36 1428.74 1436.23 Q1431.96 1438.1 1434.76 1437.6 Q1437.55 1437.08 1439.13 1434.35 Q1440.7 1431.62 1439.75 1428.96 Q1438.79 1426.27 1435.57 1424.41 Q1432.32 1422.53 1429.53 1423.06 Q1426.75 1423.57 1425.17 1426.29 M1417.13 1410.93 L1420.82 1413.06 Q1419.21 1414.16 1417.93 1415.51 Q1416.66 1416.83 1415.78 1418.36 Q1413.46 1422.36 1414.94 1426.05 Q1416.43 1429.72 1421.73 1433.18 Q1420.67 1430.99 1420.78 1428.67 Q1420.87 1426.35 1422.11 1424.2 Q1424.71 1419.69 1428.96 1418.67 Q1433.2 1417.62 1437.92 1420.34 Q1442.53 1423 1443.74 1427.33 Q1444.95 1431.67 1442.33 1436.2 Q1439.34 1441.39 1433.78 1441.85 Q1428.21 1442.29 1420.65 1437.93 Q1413.55 1433.83 1411.29 1428.03 Q1409 1422.22 1412.28 1416.55 Q1413.16 1415.02 1414.35 1413.65 Q1415.55 1412.26 1417.13 1410.93 Z" fill="#000000" fill-rule="evenodd" fill-opacity="1" /><path clip-path="url(#clip530)" d="M1437.28 1413.85 L1443.52 1403.04 L1446.8 1404.94 L1440.57 1415.75 L1437.28 1413.85 Z" fill="#000000" fill-rule="evenodd" fill-opacity="1" /><path clip-path="url(#clip530)" d="M1458.7 1398.64 L1466.86 1384.5 L1470.27 1386.47 L1459.3 1405.47 L1455.89 1403.51 Q1454.84 1399.82 1453.12 1393.54 Q1451.39 1387.22 1450.82 1385.53 Q1449.76 1382.32 1448.69 1380.69 Q1447.62 1379.03 1446.16 1378.19 Q1443.77 1376.81 1441.3 1377.63 Q1438.83 1378.42 1437.28 1381.11 Q1436.18 1383.01 1435.62 1385.52 Q1435.06 1388.01 1435.02 1391.19 L1430.93 1388.83 Q1431.36 1385.81 1432.08 1383.4 Q1432.81 1380.99 1433.83 1379.22 Q1436.51 1374.57 1440.44 1373.15 Q1444.36 1371.72 1448.25 1373.97 Q1450.09 1375.03 1451.35 1376.7 Q1452.6 1378.33 1453.79 1381.45 Q1454.09 1382.28 1455.32 1386.58 Q1456.54 1390.86 1458.7 1398.64 Z" fill="#000000" fill-rule="evenodd" fill-opacity="1" /><path clip-path="url(#clip530)" d="M1465.97 1361.1 Q1464.3 1363.99 1464.88 1366.55 Q1465.48 1369.08 1468.18 1370.64 Q1470.89 1372.21 1473.38 1371.45 Q1475.89 1370.68 1477.55 1367.79 Q1479.22 1364.91 1478.64 1362.35 Q1478.03 1359.78 1475.35 1358.23 Q1472.64 1356.67 1470.14 1357.44 Q1467.64 1358.2 1465.97 1361.1 M1461.9 1364.16 Q1459.76 1366.39 1457.13 1366.83 Q1454.51 1367.24 1451.95 1365.76 Q1448.36 1363.69 1447.74 1359.94 Q1447.14 1356.17 1449.71 1351.72 Q1452.29 1347.25 1455.84 1345.9 Q1459.4 1344.56 1462.99 1346.63 Q1465.55 1348.12 1466.49 1350.61 Q1467.44 1353.08 1466.59 1356.04 Q1468.96 1353.51 1471.89 1353.03 Q1474.82 1352.53 1477.69 1354.18 Q1482.04 1356.7 1482.82 1360.7 Q1483.62 1364.69 1480.76 1369.65 Q1477.9 1374.6 1474.04 1375.92 Q1470.18 1377.22 1465.83 1374.71 Q1462.97 1373.06 1461.93 1370.27 Q1460.9 1367.48 1461.9 1364.16 M1454.65 1361.95 Q1456.98 1363.29 1459.11 1362.6 Q1461.26 1361.89 1462.78 1359.26 Q1464.28 1356.66 1463.83 1354.44 Q1463.38 1352.21 1461.05 1350.86 Q1458.73 1349.52 1456.57 1350.25 Q1454.42 1350.96 1452.92 1353.57 Q1451.4 1356.2 1451.86 1358.41 Q1452.33 1360.61 1454.65 1361.95 Z" fill="#000000" fill-rule="evenodd" fill-opacity="1" /><path clip-path="url(#clip530)" d="M1643.06 1584.01 L1651.22 1569.87 L1654.63 1571.84 L1643.65 1590.85 L1640.25 1588.88 Q1639.19 1585.2 1637.47 1578.91 Q1635.75 1572.6 1635.18 1570.9 Q1634.11 1567.7 1633.05 1566.07 Q1631.98 1564.41 1630.51 1563.56 Q1628.13 1562.18 1625.65 1563 Q1623.19 1563.79 1621.64 1566.48 Q1620.54 1568.39 1619.97 1570.89 Q1619.42 1573.38 1619.37 1576.56 L1615.28 1574.2 Q1615.71 1571.19 1616.44 1568.77 Q1617.16 1566.36 1618.18 1564.59 Q1620.87 1559.94 1624.79 1558.52 Q1628.71 1557.1 1632.6 1559.34 Q1634.45 1560.41 1635.71 1562.07 Q1636.96 1563.7 1638.15 1566.82 Q1638.44 1567.66 1639.68 1571.95 Q1640.89 1576.23 1643.06 1584.01 Z" fill="#000000" fill-rule="evenodd" fill-opacity="1" /><path clip-path="url(#clip530)" d="M1637.27 1538.94 Q1635.46 1542.07 1637.64 1545.43 Q1639.8 1548.77 1645.98 1552.33 Q1652.13 1555.89 1656.12 1556.11 Q1660.1 1556.29 1661.91 1553.17 Q1663.72 1550.02 1661.56 1546.68 Q1659.39 1543.32 1653.23 1539.76 Q1647.06 1536.2 1643.08 1536.01 Q1639.09 1535.79 1637.27 1538.94 M1634.06 1537.09 Q1636.97 1532.06 1642.48 1531.71 Q1647.99 1531.34 1655.57 1535.72 Q1663.13 1540.08 1665.58 1545.05 Q1668.02 1549.99 1665.11 1555.02 Q1662.21 1560.05 1656.7 1560.42 Q1651.18 1560.77 1643.63 1556.4 Q1636.05 1552.03 1633.61 1547.09 Q1631.16 1542.12 1634.06 1537.09 Z" fill="#000000" fill-rule="evenodd" fill-opacity="1" /><path clip-path="url(#clip530)" d="M1673.22 1531.77 L1681.38 1517.63 L1684.79 1519.6 L1673.82 1538.6 L1670.41 1536.64 Q1669.35 1532.95 1667.64 1526.67 Q1665.91 1520.35 1665.34 1518.66 Q1664.27 1515.45 1663.21 1513.82 Q1662.14 1512.16 1660.68 1511.32 Q1658.29 1509.94 1655.81 1510.76 Q1653.35 1511.55 1651.8 1514.24 Q1650.7 1516.14 1650.13 1518.65 Q1649.58 1521.14 1649.53 1524.32 L1645.44 1521.96 Q1645.87 1518.94 1646.6 1516.53 Q1647.33 1514.12 1648.34 1512.35 Q1651.03 1507.7 1654.95 1506.28 Q1658.88 1504.85 1662.76 1507.1 Q1664.61 1508.16 1665.87 1509.83 Q1667.12 1511.46 1668.31 1514.58 Q1668.6 1515.41 1669.84 1519.71 Q1671.05 1523.99 1673.22 1531.77 Z" fill="#000000" fill-rule="evenodd" fill-opacity="1" /><path clip-path="url(#clip530)" d="M1686.69 1508.43 L1690.51 1501.82 L1667.68 1488.63 L1664.97 1496.66 L1661.28 1494.53 L1663.97 1486.54 L1666.3 1482.49 L1692.83 1497.81 L1696.65 1491.19 L1700.05 1493.16 L1690.1 1510.4 L1686.69 1508.43 Z" fill="#000000" fill-rule="evenodd" fill-opacity="1" /><path clip-path="url(#clip530)" d="M1690.51 1479.92 L1696.75 1469.12 L1700.03 1471.02 L1693.8 1481.82 L1690.51 1479.92 Z" fill="#000000" fill-rule="evenodd" fill-opacity="1" /><path clip-path="url(#clip530)" d="M1691.07 1445.76 Q1689.26 1448.89 1691.43 1452.26 Q1693.6 1455.59 1699.77 1459.16 Q1705.93 1462.71 1709.92 1462.93 Q1713.9 1463.12 1715.7 1459.99 Q1717.52 1456.84 1715.36 1453.51 Q1713.18 1450.14 1707.03 1446.59 Q1700.85 1443.02 1696.87 1442.84 Q1692.88 1442.62 1691.07 1445.76 M1687.86 1443.91 Q1690.76 1438.88 1696.28 1438.54 Q1701.79 1438.16 1709.37 1442.54 Q1716.92 1446.9 1719.37 1451.87 Q1721.82 1456.81 1718.91 1461.84 Q1716.01 1466.87 1710.5 1467.25 Q1704.98 1467.59 1697.42 1463.23 Q1689.84 1458.85 1687.4 1453.91 Q1684.95 1448.94 1687.86 1443.91 Z" fill="#000000" fill-rule="evenodd" fill-opacity="1" /><path clip-path="url(#clip530)" d="M1697.89 1427.79 L1709 1408.54 L1710.73 1409.54 L1732.66 1436.69 L1730.22 1440.92 L1709.6 1415.38 L1701.3 1429.75 L1697.89 1427.79 Z" fill="#000000" fill-rule="evenodd" fill-opacity="1" /><path clip-path="url(#clip530)" d="M1729.22 1412.87 L1735.46 1402.06 L1738.75 1403.96 L1732.51 1414.76 L1729.22 1412.87 Z" fill="#000000" fill-rule="evenodd" fill-opacity="1" /><path clip-path="url(#clip530)" d="M1729.78 1378.71 Q1727.98 1381.83 1730.15 1385.2 Q1732.31 1388.54 1738.49 1392.1 Q1744.64 1395.65 1748.63 1395.87 Q1752.61 1396.06 1754.42 1392.93 Q1756.24 1389.78 1754.07 1386.45 Q1751.9 1383.08 1745.74 1379.53 Q1739.57 1375.97 1735.59 1375.78 Q1731.6 1375.56 1729.78 1378.71 M1726.57 1376.86 Q1729.48 1371.82 1735 1371.48 Q1740.5 1371.11 1748.08 1375.48 Q1755.64 1379.84 1758.09 1384.81 Q1760.53 1389.75 1757.63 1394.78 Q1754.72 1399.82 1749.21 1400.19 Q1743.7 1400.53 1736.14 1396.17 Q1728.56 1391.79 1726.12 1386.86 Q1723.67 1381.89 1726.57 1376.86 Z" fill="#000000" fill-rule="evenodd" fill-opacity="1" /><path clip-path="url(#clip530)" d="M1764.12 1374.32 L1767.94 1367.7 L1745.11 1354.52 L1742.4 1362.55 L1738.71 1360.42 L1741.4 1352.43 L1743.73 1348.38 L1770.26 1363.69 L1774.08 1357.08 L1777.48 1359.05 L1767.53 1376.29 L1764.12 1374.32 Z" fill="#000000" fill-rule="evenodd" fill-opacity="1" /><path clip-path="url(#clip530)" d="M1934.28 1584.29 L1942.43 1570.16 L1945.84 1572.12 L1934.87 1591.13 L1931.46 1589.16 Q1930.41 1585.48 1928.69 1579.19 Q1926.96 1572.88 1926.39 1571.18 Q1925.33 1567.98 1924.27 1566.35 Q1923.19 1564.69 1921.73 1563.84 Q1919.34 1562.46 1916.87 1563.28 Q1914.4 1564.08 1912.85 1566.76 Q1911.75 1568.67 1911.19 1571.17 Q1910.64 1573.66 1910.59 1576.84 L1906.5 1574.48 Q1906.93 1571.47 1907.66 1569.05 Q1908.38 1566.64 1909.4 1564.87 Q1912.08 1560.22 1916.01 1558.8 Q1919.93 1557.38 1923.82 1559.62 Q1925.66 1560.69 1926.92 1562.35 Q1928.17 1563.98 1929.36 1567.1 Q1929.66 1567.94 1930.89 1572.23 Q1932.11 1576.51 1934.28 1584.29 Z" fill="#000000" fill-rule="evenodd" fill-opacity="1" /><path clip-path="url(#clip530)" d="M1928.49 1539.22 Q1926.68 1542.35 1928.85 1545.72 Q1931.02 1549.05 1937.19 1552.61 Q1943.35 1556.17 1947.34 1556.39 Q1951.32 1556.57 1953.12 1553.45 Q1954.94 1550.3 1952.78 1546.96 Q1950.6 1543.6 1944.45 1540.05 Q1938.28 1536.48 1934.29 1536.29 Q1930.3 1536.07 1928.49 1539.22 M1925.28 1537.37 Q1928.18 1532.34 1933.7 1532 Q1939.21 1531.62 1946.79 1536 Q1954.35 1540.36 1956.8 1545.33 Q1959.24 1550.27 1956.33 1555.3 Q1953.43 1560.33 1947.92 1560.7 Q1942.4 1561.05 1934.84 1556.68 Q1927.27 1552.31 1924.82 1547.37 Q1922.37 1542.4 1925.28 1537.37 Z" fill="#000000" fill-rule="evenodd" fill-opacity="1" /><path clip-path="url(#clip530)" d="M1964.44 1532.05 L1972.6 1517.91 L1976 1519.88 L1965.03 1538.89 L1961.62 1536.92 Q1960.57 1533.24 1958.85 1526.95 Q1957.13 1520.64 1956.55 1518.94 Q1955.49 1515.74 1954.43 1514.11 Q1953.36 1512.44 1951.89 1511.6 Q1949.51 1510.22 1947.03 1511.04 Q1944.57 1511.83 1943.02 1514.52 Q1941.92 1516.42 1941.35 1518.93 Q1940.8 1521.42 1940.75 1524.6 L1936.66 1522.24 Q1937.09 1519.23 1937.82 1516.81 Q1938.54 1514.4 1939.56 1512.63 Q1942.25 1507.98 1946.17 1506.56 Q1950.09 1505.13 1953.98 1507.38 Q1955.83 1508.44 1957.08 1510.11 Q1958.33 1511.74 1959.53 1514.86 Q1959.82 1515.69 1961.05 1519.99 Q1962.27 1524.27 1964.44 1532.05 Z" fill="#000000" fill-rule="evenodd" fill-opacity="1" /><path clip-path="url(#clip530)" d="M1977.91 1508.71 L1981.73 1502.1 L1958.9 1488.91 L1956.18 1496.94 L1952.5 1494.81 L1955.18 1486.82 L1957.52 1482.77 L1984.04 1498.09 L1987.86 1491.47 L1991.27 1493.44 L1981.32 1510.68 L1977.91 1508.71 Z" fill="#000000" fill-rule="evenodd" fill-opacity="1" /><path clip-path="url(#clip530)" d="M1981.73 1480.2 L1987.96 1469.4 L1991.25 1471.3 L1985.01 1482.1 L1981.73 1480.2 Z" fill="#000000" fill-rule="evenodd" fill-opacity="1" /><path clip-path="url(#clip530)" d="M1982.28 1446.04 Q1980.48 1449.17 1982.65 1452.54 Q1984.81 1455.87 1990.99 1459.44 Q1997.14 1462.99 2001.13 1463.21 Q2005.11 1463.4 2006.92 1460.27 Q2008.74 1457.12 2006.57 1453.79 Q2004.4 1450.42 1998.25 1446.87 Q1992.07 1443.3 1988.09 1443.12 Q1984.1 1442.9 1982.28 1446.04 M1979.08 1444.19 Q1981.98 1439.16 1987.5 1438.82 Q1993.01 1438.44 2000.58 1442.82 Q2008.14 1447.18 2010.59 1452.15 Q2013.03 1457.09 2010.13 1462.12 Q2007.22 1467.15 2001.71 1467.53 Q1996.2 1467.87 1988.64 1463.51 Q1981.06 1459.13 1978.62 1454.19 Q1976.17 1449.22 1979.08 1444.19 Z" fill="#000000" fill-rule="evenodd" fill-opacity="1" /><path clip-path="url(#clip530)" d="M1989.11 1428.07 L2000.22 1408.82 L2001.94 1409.82 L2023.87 1436.97 L2021.43 1441.2 L2000.81 1415.66 L1992.52 1430.03 L1989.11 1428.07 Z" fill="#000000" fill-rule="evenodd" fill-opacity="1" /><path clip-path="url(#clip530)" d="M2020.44 1413.15 L2026.68 1402.34 L2029.97 1404.24 L2023.73 1415.05 L2020.44 1413.15 Z" fill="#000000" fill-rule="evenodd" fill-opacity="1" /><path clip-path="url(#clip530)" d="M2021 1378.99 Q2019.19 1382.12 2021.37 1385.48 Q2023.53 1388.82 2029.7 1392.38 Q2035.86 1395.93 2039.85 1396.15 Q2043.83 1396.34 2045.64 1393.21 Q2047.45 1390.07 2045.29 1386.73 Q2043.12 1383.36 2036.96 1379.81 Q2030.79 1376.25 2026.8 1376.06 Q2022.81 1375.84 2021 1378.99 M2017.79 1377.14 Q2020.7 1372.1 2026.21 1371.76 Q2031.72 1371.39 2039.3 1375.76 Q2046.86 1380.13 2049.31 1385.09 Q2051.75 1390.03 2048.84 1395.06 Q2045.94 1400.1 2040.43 1400.47 Q2034.91 1400.81 2027.35 1396.45 Q2019.78 1392.08 2017.34 1387.14 Q2014.89 1382.17 2017.79 1377.14 Z" fill="#000000" fill-rule="evenodd" fill-opacity="1" /><path clip-path="url(#clip530)" d="M2027.82 1361.01 L2038.93 1341.77 L2040.66 1342.76 L2062.59 1369.91 L2060.15 1374.14 L2039.53 1348.6 L2031.23 1362.98 L2027.82 1361.01 Z" fill="#000000" fill-rule="evenodd" fill-opacity="1" /><polyline clip-path="url(#clip532)" style="stroke:#000000; stroke-linecap:butt; stroke-linejoin:round; stroke-width:2; stroke-opacity:0.1; fill:none" points="
  201.019,1136.21 2352.76,1136.21 
  "/>
<polyline clip-path="url(#clip532)" style="stroke:#000000; stroke-linecap:butt; stroke-linejoin:round; stroke-width:2; stroke-opacity:0.1; fill:none" points="
  201.019,902.914 2352.76,902.914 
  "/>
<polyline clip-path="url(#clip532)" style="stroke:#000000; stroke-linecap:butt; stroke-linejoin:round; stroke-width:2; stroke-opacity:0.1; fill:none" points="
  201.019,669.614 2352.76,669.614 
  "/>
<polyline clip-path="url(#clip532)" style="stroke:#000000; stroke-linecap:butt; stroke-linejoin:round; stroke-width:2; stroke-opacity:0.1; fill:none" points="
  201.019,436.314 2352.76,436.314 
  "/>
<polyline clip-path="url(#clip532)" style="stroke:#000000; stroke-linecap:butt; stroke-linejoin:round; stroke-width:2; stroke-opacity:0.1; fill:none" points="
  201.019,203.014 2352.76,203.014 
  "/>
<polyline clip-path="url(#clip530)" style="stroke:#000000; stroke-linecap:butt; stroke-linejoin:round; stroke-width:4; stroke-opacity:1; fill:none" points="
  201.019,1331.21 201.019,47.2441 
  "/>
<polyline clip-path="url(#clip530)" style="stroke:#000000; stroke-linecap:butt; stroke-linejoin:round; stroke-width:4; stroke-opacity:1; fill:none" points="
  201.019,1136.21 226.84,1136.21 
  "/>
<polyline clip-path="url(#clip530)" style="stroke:#000000; stroke-linecap:butt; stroke-linejoin:round; stroke-width:4; stroke-opacity:1; fill:none" points="
  201.019,902.914 226.84,902.914 
  "/>
<polyline clip-path="url(#clip530)" style="stroke:#000000; stroke-linecap:butt; stroke-linejoin:round; stroke-width:4; stroke-opacity:1; fill:none" points="
  201.019,669.614 226.84,669.614 
  "/>
<polyline clip-path="url(#clip530)" style="stroke:#000000; stroke-linecap:butt; stroke-linejoin:round; stroke-width:4; stroke-opacity:1; fill:none" points="
  201.019,436.314 226.84,436.314 
  "/>
<polyline clip-path="url(#clip530)" style="stroke:#000000; stroke-linecap:butt; stroke-linejoin:round; stroke-width:4; stroke-opacity:1; fill:none" points="
  201.019,203.014 226.84,203.014 
  "/>
<path clip-path="url(#clip530)" d="M56.6171 1149.56 L72.9365 1149.56 L72.9365 1153.49 L50.9921 1153.49 L50.9921 1149.56 Q53.6541 1146.8 58.2375 1142.17 Q62.8439 1137.52 64.0245 1136.18 Q66.2698 1133.66 67.1494 1131.92 Q68.0522 1130.16 68.0522 1128.47 Q68.0522 1125.72 66.1078 1123.98 Q64.1865 1122.24 61.0847 1122.24 Q58.8856 1122.24 56.4319 1123.01 Q54.0014 1123.77 51.2236 1125.32 L51.2236 1120.6 Q54.0477 1119.47 56.5014 1118.89 Q58.955 1118.31 60.9921 1118.31 Q66.3624 1118.31 69.5568 1120.99 Q72.7513 1123.68 72.7513 1128.17 Q72.7513 1130.3 71.9411 1132.22 Q71.1541 1134.12 69.0476 1136.71 Q68.4689 1137.38 65.367 1140.6 Q62.2652 1143.8 56.6171 1149.56 Z" fill="#000000" fill-rule="evenodd" fill-opacity="1" /><path clip-path="url(#clip530)" d="M82.7975 1118.93 L101.154 1118.93 L101.154 1122.87 L87.0799 1122.87 L87.0799 1131.34 Q88.0984 1130.99 89.1169 1130.83 Q90.1354 1130.65 91.1539 1130.65 Q96.941 1130.65 100.321 1133.82 Q103.7 1136.99 103.7 1142.41 Q103.7 1147.98 100.228 1151.09 Q96.7558 1154.17 90.4364 1154.17 Q88.2604 1154.17 85.9919 1153.79 Q83.7466 1153.42 81.3392 1152.68 L81.3392 1147.98 Q83.4225 1149.12 85.6447 1149.67 Q87.8669 1150.23 90.3438 1150.23 Q94.3484 1150.23 96.6863 1148.12 Q99.0243 1146.02 99.0243 1142.41 Q99.0243 1138.8 96.6863 1136.69 Q94.3484 1134.58 90.3438 1134.58 Q88.4688 1134.58 86.5938 1135 Q84.7419 1135.42 82.7975 1136.3 L82.7975 1118.93 Z" fill="#000000" fill-rule="evenodd" fill-opacity="1" /><path clip-path="url(#clip530)" d="M122.913 1122.01 Q119.302 1122.01 117.473 1125.58 Q115.668 1129.12 115.668 1136.25 Q115.668 1143.36 117.473 1146.92 Q119.302 1150.46 122.913 1150.46 Q126.547 1150.46 128.353 1146.92 Q130.182 1143.36 130.182 1136.25 Q130.182 1129.12 128.353 1125.58 Q126.547 1122.01 122.913 1122.01 M122.913 1118.31 Q128.723 1118.31 131.779 1122.92 Q134.857 1127.5 134.857 1136.25 Q134.857 1144.98 131.779 1149.58 Q128.723 1154.17 122.913 1154.17 Q117.103 1154.17 114.024 1149.58 Q110.969 1144.98 110.969 1136.25 Q110.969 1127.5 114.024 1122.92 Q117.103 1118.31 122.913 1118.31 Z" fill="#000000" fill-rule="evenodd" fill-opacity="1" /><path clip-path="url(#clip530)" d="M153.075 1122.01 Q149.464 1122.01 147.635 1125.58 Q145.83 1129.12 145.83 1136.25 Q145.83 1143.36 147.635 1146.92 Q149.464 1150.46 153.075 1150.46 Q156.709 1150.46 158.515 1146.92 Q160.343 1143.36 160.343 1136.25 Q160.343 1129.12 158.515 1125.58 Q156.709 1122.01 153.075 1122.01 M153.075 1118.31 Q158.885 1118.31 161.941 1122.92 Q165.019 1127.5 165.019 1136.25 Q165.019 1144.98 161.941 1149.58 Q158.885 1154.17 153.075 1154.17 Q147.265 1154.17 144.186 1149.58 Q141.131 1144.98 141.131 1136.25 Q141.131 1127.5 144.186 1122.92 Q147.265 1118.31 153.075 1118.31 Z" fill="#000000" fill-rule="evenodd" fill-opacity="1" /><path clip-path="url(#clip530)" d="M57.6125 916.259 L73.9318 916.259 L73.9318 920.194 L51.9875 920.194 L51.9875 916.259 Q54.6495 913.504 59.2328 908.875 Q63.8393 904.222 65.0198 902.879 Q67.2652 900.356 68.1448 898.62 Q69.0476 896.861 69.0476 895.171 Q69.0476 892.417 67.1032 890.68 Q65.1819 888.944 62.08 888.944 Q59.881 888.944 57.4273 889.708 Q54.9967 890.472 52.219 892.023 L52.219 887.301 Q55.043 886.167 57.4967 885.588 Q59.9504 885.009 61.9874 885.009 Q67.3578 885.009 70.5522 887.694 Q73.7466 890.379 73.7466 894.87 Q73.7466 897 72.9365 898.921 Q72.1494 900.819 70.0429 903.412 Q69.4642 904.083 66.3624 907.301 Q63.2606 910.495 57.6125 916.259 Z" fill="#000000" fill-rule="evenodd" fill-opacity="1" /><path clip-path="url(#clip530)" d="M83.7929 885.634 L102.149 885.634 L102.149 889.569 L88.0753 889.569 L88.0753 898.041 Q89.0938 897.694 90.1123 897.532 Q91.1308 897.347 92.1493 897.347 Q97.9363 897.347 101.316 900.518 Q104.696 903.69 104.696 909.106 Q104.696 914.685 101.223 917.787 Q97.7511 920.865 91.4317 920.865 Q89.2558 920.865 86.9873 920.495 Q84.7419 920.125 82.3346 919.384 L82.3346 914.685 Q84.4179 915.819 86.6401 916.375 Q88.8623 916.93 91.3391 916.93 Q95.3437 916.93 97.6817 914.824 Q100.02 912.717 100.02 909.106 Q100.02 905.495 97.6817 903.389 Q95.3437 901.282 91.3391 901.282 Q89.4641 901.282 87.5892 901.699 Q85.7373 902.116 83.7929 902.995 L83.7929 885.634 Z" fill="#000000" fill-rule="evenodd" fill-opacity="1" /><path clip-path="url(#clip530)" d="M117.936 916.259 L134.256 916.259 L134.256 920.194 L112.311 920.194 L112.311 916.259 Q114.973 913.504 119.557 908.875 Q124.163 904.222 125.344 902.879 Q127.589 900.356 128.469 898.62 Q129.371 896.861 129.371 895.171 Q129.371 892.417 127.427 890.68 Q125.506 888.944 122.404 888.944 Q120.205 888.944 117.751 889.708 Q115.32 890.472 112.543 892.023 L112.543 887.301 Q115.367 886.167 117.82 885.588 Q120.274 885.009 122.311 885.009 Q127.682 885.009 130.876 887.694 Q134.07 890.379 134.07 894.87 Q134.07 897 133.26 898.921 Q132.473 900.819 130.367 903.412 Q129.788 904.083 126.686 907.301 Q123.584 910.495 117.936 916.259 Z" fill="#000000" fill-rule="evenodd" fill-opacity="1" /><path clip-path="url(#clip530)" d="M144.117 885.634 L162.473 885.634 L162.473 889.569 L148.399 889.569 L148.399 898.041 Q149.418 897.694 150.436 897.532 Q151.455 897.347 152.473 897.347 Q158.26 897.347 161.64 900.518 Q165.019 903.69 165.019 909.106 Q165.019 914.685 161.547 917.787 Q158.075 920.865 151.755 920.865 Q149.58 920.865 147.311 920.495 Q145.066 920.125 142.658 919.384 L142.658 914.685 Q144.742 915.819 146.964 916.375 Q149.186 916.93 151.663 916.93 Q155.667 916.93 158.005 914.824 Q160.343 912.717 160.343 909.106 Q160.343 905.495 158.005 903.389 Q155.667 901.282 151.663 901.282 Q149.788 901.282 147.913 901.699 Q146.061 902.116 144.117 902.995 L144.117 885.634 Z" fill="#000000" fill-rule="evenodd" fill-opacity="1" /><path clip-path="url(#clip530)" d="M56.6171 682.959 L72.9365 682.959 L72.9365 686.894 L50.9921 686.894 L50.9921 682.959 Q53.6541 680.204 58.2375 675.575 Q62.8439 670.922 64.0245 669.58 Q66.2698 667.056 67.1494 665.32 Q68.0522 663.561 68.0522 661.871 Q68.0522 659.117 66.1078 657.38 Q64.1865 655.644 61.0847 655.644 Q58.8856 655.644 56.4319 656.408 Q54.0014 657.172 51.2236 658.723 L51.2236 654.001 Q54.0477 652.867 56.5014 652.288 Q58.955 651.709 60.9921 651.709 Q66.3624 651.709 69.5568 654.394 Q72.7513 657.08 72.7513 661.57 Q72.7513 663.7 71.9411 665.621 Q71.1541 667.519 69.0476 670.112 Q68.4689 670.783 65.367 674.001 Q62.2652 677.195 56.6171 682.959 Z" fill="#000000" fill-rule="evenodd" fill-opacity="1" /><path clip-path="url(#clip530)" d="M82.7975 652.334 L101.154 652.334 L101.154 656.269 L87.0799 656.269 L87.0799 664.742 Q88.0984 664.394 89.1169 664.232 Q90.1354 664.047 91.1539 664.047 Q96.941 664.047 100.321 667.218 Q103.7 670.39 103.7 675.806 Q103.7 681.385 100.228 684.487 Q96.7558 687.566 90.4364 687.566 Q88.2604 687.566 85.9919 687.195 Q83.7466 686.825 81.3392 686.084 L81.3392 681.385 Q83.4225 682.519 85.6447 683.075 Q87.8669 683.63 90.3438 683.63 Q94.3484 683.63 96.6863 681.524 Q99.0243 679.417 99.0243 675.806 Q99.0243 672.195 96.6863 670.089 Q94.3484 667.982 90.3438 667.982 Q88.4688 667.982 86.5938 668.399 Q84.7419 668.816 82.7975 669.695 L82.7975 652.334 Z" fill="#000000" fill-rule="evenodd" fill-opacity="1" /><path clip-path="url(#clip530)" d="M112.959 652.334 L131.316 652.334 L131.316 656.269 L117.242 656.269 L117.242 664.742 Q118.26 664.394 119.279 664.232 Q120.297 664.047 121.316 664.047 Q127.103 664.047 130.482 667.218 Q133.862 670.39 133.862 675.806 Q133.862 681.385 130.39 684.487 Q126.918 687.566 120.598 687.566 Q118.422 687.566 116.154 687.195 Q113.908 686.825 111.501 686.084 L111.501 681.385 Q113.584 682.519 115.807 683.075 Q118.029 683.63 120.506 683.63 Q124.51 683.63 126.848 681.524 Q129.186 679.417 129.186 675.806 Q129.186 672.195 126.848 670.089 Q124.51 667.982 120.506 667.982 Q118.631 667.982 116.756 668.399 Q114.904 668.816 112.959 669.695 L112.959 652.334 Z" fill="#000000" fill-rule="evenodd" fill-opacity="1" /><path clip-path="url(#clip530)" d="M153.075 655.413 Q149.464 655.413 147.635 658.978 Q145.83 662.519 145.83 669.649 Q145.83 676.755 147.635 680.32 Q149.464 683.862 153.075 683.862 Q156.709 683.862 158.515 680.32 Q160.343 676.755 160.343 669.649 Q160.343 662.519 158.515 658.978 Q156.709 655.413 153.075 655.413 M153.075 651.709 Q158.885 651.709 161.941 656.316 Q165.019 660.899 165.019 669.649 Q165.019 678.376 161.941 682.982 Q158.885 687.566 153.075 687.566 Q147.265 687.566 144.186 682.982 Q141.131 678.376 141.131 669.649 Q141.131 660.899 144.186 656.316 Q147.265 651.709 153.075 651.709 Z" fill="#000000" fill-rule="evenodd" fill-opacity="1" /><path clip-path="url(#clip530)" d="M57.6125 449.659 L73.9318 449.659 L73.9318 453.594 L51.9875 453.594 L51.9875 449.659 Q54.6495 446.905 59.2328 442.275 Q63.8393 437.622 65.0198 436.28 Q67.2652 433.756 68.1448 432.02 Q69.0476 430.261 69.0476 428.571 Q69.0476 425.817 67.1032 424.081 Q65.1819 422.344 62.08 422.344 Q59.881 422.344 57.4273 423.108 Q54.9967 423.872 52.219 425.423 L52.219 420.701 Q55.043 419.567 57.4967 418.988 Q59.9504 418.409 61.9874 418.409 Q67.3578 418.409 70.5522 421.094 Q73.7466 423.78 73.7466 428.27 Q73.7466 430.4 72.9365 432.321 Q72.1494 434.219 70.0429 436.812 Q69.4642 437.483 66.3624 440.701 Q63.2606 443.895 57.6125 449.659 Z" fill="#000000" fill-rule="evenodd" fill-opacity="1" /><path clip-path="url(#clip530)" d="M83.7929 419.034 L102.149 419.034 L102.149 422.969 L88.0753 422.969 L88.0753 431.442 Q89.0938 431.094 90.1123 430.932 Q91.1308 430.747 92.1493 430.747 Q97.9363 430.747 101.316 433.919 Q104.696 437.09 104.696 442.506 Q104.696 448.085 101.223 451.187 Q97.7511 454.266 91.4317 454.266 Q89.2558 454.266 86.9873 453.895 Q84.7419 453.525 82.3346 452.784 L82.3346 448.085 Q84.4179 449.219 86.6401 449.775 Q88.8623 450.33 91.3391 450.33 Q95.3437 450.33 97.6817 448.224 Q100.02 446.118 100.02 442.506 Q100.02 438.895 97.6817 436.789 Q95.3437 434.682 91.3391 434.682 Q89.4641 434.682 87.5892 435.099 Q85.7373 435.516 83.7929 436.395 L83.7929 419.034 Z" fill="#000000" fill-rule="evenodd" fill-opacity="1" /><path clip-path="url(#clip530)" d="M112.728 419.034 L134.95 419.034 L134.95 421.025 L122.404 453.594 L117.52 453.594 L129.325 422.969 L112.728 422.969 L112.728 419.034 Z" fill="#000000" fill-rule="evenodd" fill-opacity="1" /><path clip-path="url(#clip530)" d="M144.117 419.034 L162.473 419.034 L162.473 422.969 L148.399 422.969 L148.399 431.442 Q149.418 431.094 150.436 430.932 Q151.455 430.747 152.473 430.747 Q158.26 430.747 161.64 433.919 Q165.019 437.09 165.019 442.506 Q165.019 448.085 161.547 451.187 Q158.075 454.266 151.755 454.266 Q149.58 454.266 147.311 453.895 Q145.066 453.525 142.658 452.784 L142.658 448.085 Q144.742 449.219 146.964 449.775 Q149.186 450.33 151.663 450.33 Q155.667 450.33 158.005 448.224 Q160.343 446.118 160.343 442.506 Q160.343 438.895 158.005 436.789 Q155.667 434.682 151.663 434.682 Q149.788 434.682 147.913 435.099 Q146.061 435.516 144.117 436.395 L144.117 419.034 Z" fill="#000000" fill-rule="evenodd" fill-opacity="1" /><path clip-path="url(#clip530)" d="M56.6171 216.359 L72.9365 216.359 L72.9365 220.294 L50.9921 220.294 L50.9921 216.359 Q53.6541 213.605 58.2375 208.975 Q62.8439 204.322 64.0245 202.98 Q66.2698 200.457 67.1494 198.72 Q68.0522 196.961 68.0522 195.271 Q68.0522 192.517 66.1078 190.781 Q64.1865 189.045 61.0847 189.045 Q58.8856 189.045 56.4319 189.808 Q54.0014 190.572 51.2236 192.123 L51.2236 187.401 Q54.0477 186.267 56.5014 185.688 Q58.955 185.109 60.9921 185.109 Q66.3624 185.109 69.5568 187.795 Q72.7513 190.48 72.7513 194.97 Q72.7513 197.1 71.9411 199.021 Q71.1541 200.92 69.0476 203.512 Q68.4689 204.183 65.367 207.401 Q62.2652 210.595 56.6171 216.359 Z" fill="#000000" fill-rule="evenodd" fill-opacity="1" /><path clip-path="url(#clip530)" d="M93.3299 201.151 Q90.1817 201.151 88.3299 203.304 Q86.5012 205.457 86.5012 209.207 Q86.5012 212.933 88.3299 215.109 Q90.1817 217.262 93.3299 217.262 Q96.478 217.262 98.3067 215.109 Q100.159 212.933 100.159 209.207 Q100.159 205.457 98.3067 203.304 Q96.478 201.151 93.3299 201.151 M102.612 186.498 L102.612 190.758 Q100.853 189.924 99.0474 189.484 Q97.265 189.045 95.5058 189.045 Q90.8762 189.045 88.4225 192.17 Q85.9919 195.295 85.6447 201.614 Q87.0105 199.6 89.0706 198.535 Q91.1308 197.447 93.6076 197.447 Q98.8159 197.447 101.825 200.619 Q104.858 203.767 104.858 209.207 Q104.858 214.531 101.709 217.748 Q98.5613 220.966 93.3299 220.966 Q87.3345 220.966 84.1632 216.382 Q80.992 211.776 80.992 203.049 Q80.992 194.855 84.8808 189.994 Q88.7697 185.109 95.3206 185.109 Q97.0798 185.109 98.8622 185.457 Q100.668 185.804 102.612 186.498 Z" fill="#000000" fill-rule="evenodd" fill-opacity="1" /><path clip-path="url(#clip530)" d="M122.913 188.813 Q119.302 188.813 117.473 192.378 Q115.668 195.92 115.668 203.049 Q115.668 210.156 117.473 213.72 Q119.302 217.262 122.913 217.262 Q126.547 217.262 128.353 213.72 Q130.182 210.156 130.182 203.049 Q130.182 195.92 128.353 192.378 Q126.547 188.813 122.913 188.813 M122.913 185.109 Q128.723 185.109 131.779 189.716 Q134.857 194.299 134.857 203.049 Q134.857 211.776 131.779 216.382 Q128.723 220.966 122.913 220.966 Q117.103 220.966 114.024 216.382 Q110.969 211.776 110.969 203.049 Q110.969 194.299 114.024 189.716 Q117.103 185.109 122.913 185.109 Z" fill="#000000" fill-rule="evenodd" fill-opacity="1" /><path clip-path="url(#clip530)" d="M153.075 188.813 Q149.464 188.813 147.635 192.378 Q145.83 195.92 145.83 203.049 Q145.83 210.156 147.635 213.72 Q149.464 217.262 153.075 217.262 Q156.709 217.262 158.515 213.72 Q160.343 210.156 160.343 203.049 Q160.343 195.92 158.515 192.378 Q156.709 188.813 153.075 188.813 M153.075 185.109 Q158.885 185.109 161.941 189.716 Q165.019 194.299 165.019 203.049 Q165.019 211.776 161.941 216.382 Q158.885 220.966 153.075 220.966 Q147.265 220.966 144.186 216.382 Q141.131 211.776 141.131 203.049 Q141.131 194.299 144.186 189.716 Q147.265 185.109 153.075 185.109 Z" fill="#000000" fill-rule="evenodd" fill-opacity="1" /><path clip-path="url(#clip532)" d="
M305.624 1192.21 L305.624 1192.11 L261.917 1192.11 L261.917 934.642 L305.624 934.642 L305.624 919.152 L305.624 934.642 L349.331 934.642 L349.331 1192.11 L305.624 1192.11 
  L305.624 1192.21  Z
  " fill="#008000" fill-rule="evenodd" fill-opacity="1"/>
<polyline clip-path="url(#clip532)" style="stroke:#008000; stroke-linecap:butt; stroke-linejoin:round; stroke-width:2; stroke-opacity:1; fill:none" points="
  305.624,1192.21 305.624,1192.11 261.917,1192.11 261.917,934.642 305.624,934.642 305.624,919.152 305.624,934.642 349.331,934.642 349.331,1192.11 305.624,1192.11 
  305.624,1192.21 
  "/>
<path clip-path="url(#clip532)" d="
M402.751 1152.17 L402.751 1006.22 L359.044 1006.22 L359.044 903.661 L402.751 903.661 L402.751 884.344 L402.751 903.661 L446.458 903.661 L446.458 1006.22 L402.751 1006.22 
  L402.751 1152.17  Z
  " fill="#ff0000" fill-rule="evenodd" fill-opacity="1"/>
<polyline clip-path="url(#clip532)" style="stroke:#ff0000; stroke-linecap:butt; stroke-linejoin:round; stroke-width:2; stroke-opacity:1; fill:none" points="
  402.751,1152.17 402.751,1006.22 359.044,1006.22 359.044,903.661 402.751,903.661 402.751,884.344 402.751,903.661 446.458,903.661 446.458,1006.22 402.751,1006.22 
  402.751,1152.17 
  "/>
<path clip-path="url(#clip532)" d="
M499.877 1127.44 L499.877 1011.26 L456.17 1011.26 L456.17 883.877 L499.877 883.877 L499.877 872.772 L499.877 883.877 L543.584 883.877 L543.584 1011.26 L499.877 1011.26 
  L499.877 1127.44  Z
  " fill="#008000" fill-rule="evenodd" fill-opacity="1"/>
<polyline clip-path="url(#clip532)" style="stroke:#008000; stroke-linecap:butt; stroke-linejoin:round; stroke-width:2; stroke-opacity:1; fill:none" points="
  499.877,1127.44 499.877,1011.26 456.17,1011.26 456.17,883.877 499.877,883.877 499.877,872.772 499.877,883.877 543.584,883.877 543.584,1011.26 499.877,1011.26 
  499.877,1127.44 
  "/>
<path clip-path="url(#clip532)" d="
M597.003 1015.18 L597.003 943.416 L553.296 943.416 L553.296 852.149 L597.003 852.149 L597.003 788.691 L597.003 852.149 L640.71 852.149 L640.71 943.416 L597.003 943.416 
  L597.003 1015.18  Z
  " fill="#ff0000" fill-rule="evenodd" fill-opacity="1"/>
<polyline clip-path="url(#clip532)" style="stroke:#ff0000; stroke-linecap:butt; stroke-linejoin:round; stroke-width:2; stroke-opacity:1; fill:none" points="
  597.003,1015.18 597.003,943.416 553.296,943.416 553.296,852.149 597.003,852.149 597.003,788.691 597.003,852.149 640.71,852.149 640.71,943.416 597.003,943.416 
  597.003,1015.18 
  "/>
<path clip-path="url(#clip532)" d="
M694.13 1294.87 L694.13 1006.22 L650.423 1006.22 L650.423 903.381 L694.13 903.381 L694.13 851.868 L694.13 903.381 L737.836 903.381 L737.836 1006.22 L694.13 1006.22 
  L694.13 1294.87  Z
  " fill="#ff0000" fill-rule="evenodd" fill-opacity="1"/>
<polyline clip-path="url(#clip532)" style="stroke:#ff0000; stroke-linecap:butt; stroke-linejoin:round; stroke-width:2; stroke-opacity:1; fill:none" points="
  694.13,1294.87 694.13,1006.22 650.423,1006.22 650.423,903.381 694.13,903.381 694.13,851.868 694.13,903.381 737.836,903.381 737.836,1006.22 694.13,1006.22 
  694.13,1294.87 
  "/>
<path clip-path="url(#clip532)" d="
M791.256 1040.09 L791.256 1038.6 L747.549 1038.6 L747.549 880.331 L791.256 880.331 L791.256 726.26 L791.256 880.331 L834.963 880.331 L834.963 1038.6 L791.256 1038.6 
  L791.256 1040.09  Z
  " fill="#008000" fill-rule="evenodd" fill-opacity="1"/>
<polyline clip-path="url(#clip532)" style="stroke:#008000; stroke-linecap:butt; stroke-linejoin:round; stroke-width:2; stroke-opacity:1; fill:none" points="
  791.256,1040.09 791.256,1038.6 747.549,1038.6 747.549,880.331 791.256,880.331 791.256,726.26 791.256,880.331 834.963,880.331 834.963,1038.6 791.256,1038.6 
  791.256,1040.09 
  "/>
<path clip-path="url(#clip532)" d="
M888.382 1210.31 L888.382 1030.29 L844.675 1030.29 L844.675 1004.54 L888.382 1004.54 L888.382 876.971 L888.382 1004.54 L932.089 1004.54 L932.089 1030.29 L888.382 1030.29 
  L888.382 1210.31  Z
  " fill="#ff0000" fill-rule="evenodd" fill-opacity="1"/>
<polyline clip-path="url(#clip532)" style="stroke:#ff0000; stroke-linecap:butt; stroke-linejoin:round; stroke-width:2; stroke-opacity:1; fill:none" points="
  888.382,1210.31 888.382,1030.29 844.675,1030.29 844.675,1004.54 888.382,1004.54 888.382,876.971 888.382,1004.54 932.089,1004.54 932.089,1030.29 888.382,1030.29 
  888.382,1210.31 
  "/>
<path clip-path="url(#clip532)" d="
M985.509 1111.16 L985.509 998.1 L941.802 998.1 L941.802 864.652 L985.509 864.652 L985.509 756.074 L985.509 864.652 L1029.22 864.652 L1029.22 998.1 L985.509 998.1 
  L985.509 1111.16  Z
  " fill="#008000" fill-rule="evenodd" fill-opacity="1"/>
<polyline clip-path="url(#clip532)" style="stroke:#008000; stroke-linecap:butt; stroke-linejoin:round; stroke-width:2; stroke-opacity:1; fill:none" points="
  985.509,1111.16 985.509,998.1 941.802,998.1 941.802,864.652 985.509,864.652 985.509,756.074 985.509,864.652 1029.22,864.652 1029.22,998.1 985.509,998.1 
  985.509,1111.16 
  "/>
<path clip-path="url(#clip532)" d="
M1082.63 944.628 L1082.63 865.586 L1038.93 865.586 L1038.93 763.028 L1082.63 763.028 L1082.63 712.542 L1082.63 763.028 L1126.34 763.028 L1126.34 865.586 L1082.63 865.586 
  L1082.63 944.628  Z
  " fill="#008000" fill-rule="evenodd" fill-opacity="1"/>
<polyline clip-path="url(#clip532)" style="stroke:#008000; stroke-linecap:butt; stroke-linejoin:round; stroke-width:2; stroke-opacity:1; fill:none" points="
  1082.63,944.628 1082.63,865.586 1038.93,865.586 1038.93,763.028 1082.63,763.028 1082.63,712.542 1082.63,763.028 1126.34,763.028 1126.34,865.586 1082.63,865.586 
  1082.63,944.628 
  "/>
<path clip-path="url(#clip532)" d="
M1179.76 902.54 L1179.76 863.44 L1136.05 863.44 L1136.05 846.922 L1179.76 846.922 L1179.76 614.37 L1179.76 846.922 L1223.47 846.922 L1223.47 863.44 L1179.76 863.44 
  L1179.76 902.54  Z
  " fill="#ff0000" fill-rule="evenodd" fill-opacity="1"/>
<polyline clip-path="url(#clip532)" style="stroke:#ff0000; stroke-linecap:butt; stroke-linejoin:round; stroke-width:2; stroke-opacity:1; fill:none" points="
  1179.76,902.54 1179.76,863.44 1136.05,863.44 1136.05,846.922 1179.76,846.922 1179.76,614.37 1179.76,846.922 1223.47,846.922 1223.47,863.44 1179.76,863.44 
  1179.76,902.54 
  "/>
<path clip-path="url(#clip532)" d="
M1276.89 770.4 L1276.89 752.948 L1233.18 752.948 L1233.18 710.303 L1276.89 710.303 L1276.89 662.989 L1276.89 710.303 L1320.59 710.303 L1320.59 752.948 L1276.89 752.948 
  L1276.89 770.4  Z
  " fill="#008000" fill-rule="evenodd" fill-opacity="1"/>
<polyline clip-path="url(#clip532)" style="stroke:#008000; stroke-linecap:butt; stroke-linejoin:round; stroke-width:2; stroke-opacity:1; fill:none" points="
  1276.89,770.4 1276.89,752.948 1233.18,752.948 1233.18,710.303 1276.89,710.303 1276.89,662.989 1276.89,710.303 1320.59,710.303 1320.59,752.948 1276.89,752.948 
  1276.89,770.4 
  "/>
<path clip-path="url(#clip532)" d="
M1374.01 866.707 L1374.01 770.961 L1330.31 770.961 L1330.31 763.868 L1374.01 763.868 L1374.01 668.68 L1374.01 763.868 L1417.72 763.868 L1417.72 770.961 L1374.01 770.961 
  L1374.01 866.707  Z
  " fill="#008000" fill-rule="evenodd" fill-opacity="1"/>
<polyline clip-path="url(#clip532)" style="stroke:#008000; stroke-linecap:butt; stroke-linejoin:round; stroke-width:2; stroke-opacity:1; fill:none" points="
  1374.01,866.707 1374.01,770.961 1330.31,770.961 1330.31,763.868 1374.01,763.868 1374.01,668.68 1374.01,763.868 1417.72,763.868 1417.72,770.961 1374.01,770.961 
  1374.01,866.707 
  "/>
<path clip-path="url(#clip532)" d="
M1471.14 954.463 L1471.14 796.624 L1427.43 796.624 L1427.43 762.934 L1471.14 762.934 L1471.14 700.037 L1471.14 762.934 L1514.85 762.934 L1514.85 796.624 L1471.14 796.624 
  L1471.14 954.463  Z
  " fill="#ff0000" fill-rule="evenodd" fill-opacity="1"/>
<polyline clip-path="url(#clip532)" style="stroke:#ff0000; stroke-linecap:butt; stroke-linejoin:round; stroke-width:2; stroke-opacity:1; fill:none" points="
  1471.14,954.463 1471.14,796.624 1427.43,796.624 1427.43,762.934 1471.14,762.934 1471.14,700.037 1471.14,762.934 1514.85,762.934 1514.85,796.624 1471.14,796.624 
  1471.14,954.463 
  "/>
<path clip-path="url(#clip532)" d="
M1568.27 1054.65 L1568.27 946.12 L1524.56 946.12 L1524.56 805.395 L1568.27 805.395 L1568.27 762.934 L1568.27 805.395 L1611.97 805.395 L1611.97 946.12 L1568.27 946.12 
  L1568.27 1054.65  Z
  " fill="#ff0000" fill-rule="evenodd" fill-opacity="1"/>
<polyline clip-path="url(#clip532)" style="stroke:#ff0000; stroke-linecap:butt; stroke-linejoin:round; stroke-width:2; stroke-opacity:1; fill:none" points="
  1568.27,1054.65 1568.27,946.12 1524.56,946.12 1524.56,805.395 1568.27,805.395 1568.27,762.934 1568.27,805.395 1611.97,805.395 1611.97,946.12 1568.27,946.12 
  1568.27,1054.65 
  "/>
<path clip-path="url(#clip532)" d="
M1665.39 1181.48 L1665.39 1077.24 L1621.69 1077.24 L1621.69 1014.24 L1665.39 1014.24 L1665.39 986.902 L1665.39 1014.24 L1709.1 1014.24 L1709.1 1077.24 L1665.39 1077.24 
  L1665.39 1181.48  Z
  " fill="#ff0000" fill-rule="evenodd" fill-opacity="1"/>
<polyline clip-path="url(#clip532)" style="stroke:#ff0000; stroke-linecap:butt; stroke-linejoin:round; stroke-width:2; stroke-opacity:1; fill:none" points="
  1665.39,1181.48 1665.39,1077.24 1621.69,1077.24 1621.69,1014.24 1665.39,1014.24 1665.39,986.902 1665.39,1014.24 1709.1,1014.24 1709.1,1077.24 1665.39,1077.24 
  1665.39,1181.48 
  "/>
<path clip-path="url(#clip532)" d="
M1762.52 1164.26 L1762.52 1164.26 L1718.81 1164.26 L1718.81 880.796 L1762.52 880.796 L1762.52 863.253 L1762.52 880.796 L1806.23 880.796 L1806.23 1164.26 L1762.52 1164.26 
  L1762.52 1164.26  Z
  " fill="#008000" fill-rule="evenodd" fill-opacity="1"/>
<polyline clip-path="url(#clip532)" style="stroke:#008000; stroke-linecap:butt; stroke-linejoin:round; stroke-width:2; stroke-opacity:1; fill:none" points="
  1762.52,1164.26 1762.52,1164.26 1718.81,1164.26 1718.81,880.796 1762.52,880.796 1762.52,863.253 1762.52,880.796 1806.23,880.796 1806.23,1164.26 1762.52,1164.26 
  
  "/>
<path clip-path="url(#clip532)" d="
M1859.65 806.049 L1859.65 792.89 L1815.94 792.89 L1815.94 442.101 L1859.65 442.101 L1859.65 418.024 L1859.65 442.101 L1903.35 442.101 L1903.35 792.89 L1859.65 792.89 
  L1859.65 806.049  Z
  " fill="#008000" fill-rule="evenodd" fill-opacity="1"/>
<polyline clip-path="url(#clip532)" style="stroke:#008000; stroke-linecap:butt; stroke-linejoin:round; stroke-width:2; stroke-opacity:1; fill:none" points="
  1859.65,806.049 1859.65,792.89 1815.94,792.89 1815.94,442.101 1859.65,442.101 1859.65,418.024 1859.65,442.101 1903.35,442.101 1903.35,792.89 1859.65,792.89 
  1859.65,806.049 
  "/>
<path clip-path="url(#clip532)" d="
M1956.77 499.959 L1956.77 305.76 L1913.07 305.76 L1913.07 245.756 L1956.77 245.756 L1956.77 224.572 L1956.77 245.756 L2000.48 245.756 L2000.48 305.76 L1956.77 305.76 
  L1956.77 499.959  Z
  " fill="#008000" fill-rule="evenodd" fill-opacity="1"/>
<polyline clip-path="url(#clip532)" style="stroke:#008000; stroke-linecap:butt; stroke-linejoin:round; stroke-width:2; stroke-opacity:1; fill:none" points="
  1956.77,499.959 1956.77,305.76 1913.07,305.76 1913.07,245.756 1956.77,245.756 1956.77,224.572 1956.77,245.756 2000.48,245.756 2000.48,305.76 1956.77,305.76 
  1956.77,499.959 
  "/>
<path clip-path="url(#clip532)" d="
M2053.9 247.808 L2053.9 188.549 L2010.19 188.549 L2010.19 139.37 L2053.9 139.37 L2053.9 83.5826 L2053.9 139.37 L2097.61 139.37 L2097.61 188.549 L2053.9 188.549 
  L2053.9 247.808  Z
  " fill="#ff0000" fill-rule="evenodd" fill-opacity="1"/>
<polyline clip-path="url(#clip532)" style="stroke:#ff0000; stroke-linecap:butt; stroke-linejoin:round; stroke-width:2; stroke-opacity:1; fill:none" points="
  2053.9,247.808 2053.9,188.549 2010.19,188.549 2010.19,139.37 2053.9,139.37 2053.9,83.5826 2053.9,139.37 2097.61,139.37 2097.61,188.549 2053.9,188.549 
  2053.9,247.808 
  "/>
<path clip-path="url(#clip532)" d="
M2151.02 568.828 L2151.02 529.634 L2107.32 529.634 L2107.32 356.619 L2151.02 356.619 L2151.02 196.95 L2151.02 356.619 L2194.73 356.619 L2194.73 529.634 L2151.02 529.634 
  L2151.02 568.828  Z
  " fill="#008000" fill-rule="evenodd" fill-opacity="1"/>
<polyline clip-path="url(#clip532)" style="stroke:#008000; stroke-linecap:butt; stroke-linejoin:round; stroke-width:2; stroke-opacity:1; fill:none" points="
  2151.02,568.828 2151.02,529.634 2107.32,529.634 2107.32,356.619 2151.02,356.619 2151.02,196.95 2151.02,356.619 2194.73,356.619 2194.73,529.634 2151.02,529.634 
  2151.02,568.828 
  "/>
<path clip-path="url(#clip532)" d="
M2248.15 400.198 L2248.15 400.014 L2204.44 400.014 L2204.44 282.43 L2248.15 282.43 L2248.15 231.104 L2248.15 282.43 L2291.86 282.43 L2291.86 400.014 L2248.15 400.014 
  L2248.15 400.198  Z
  " fill="#008000" fill-rule="evenodd" fill-opacity="1"/>
<polyline clip-path="url(#clip532)" style="stroke:#008000; stroke-linecap:butt; stroke-linejoin:round; stroke-width:2; stroke-opacity:1; fill:none" points="
  2248.15,400.198 2248.15,400.014 2204.44,400.014 2204.44,282.43 2248.15,282.43 2248.15,231.104 2248.15,282.43 2291.86,282.43 2291.86,400.014 2248.15,400.014 
  2248.15,400.198 
  "/>
<circle clip-path="url(#clip532)" cx="305.624" cy="1063.38" r="3" fill="#008000" fill-rule="evenodd" fill-opacity="1" stroke="#000000" stroke-opacity="1" stroke-width="0"/>
<circle clip-path="url(#clip532)" cx="402.751" cy="954.941" r="3" fill="#ff0000" fill-rule="evenodd" fill-opacity="1" stroke="#000000" stroke-opacity="1" stroke-width="0"/>
<circle clip-path="url(#clip532)" cx="499.877" cy="947.568" r="3" fill="#008000" fill-rule="evenodd" fill-opacity="1" stroke="#000000" stroke-opacity="1" stroke-width="0"/>
<circle clip-path="url(#clip532)" cx="597.003" cy="897.782" r="3" fill="#ff0000" fill-rule="evenodd" fill-opacity="1" stroke="#000000" stroke-opacity="1" stroke-width="0"/>
<circle clip-path="url(#clip532)" cx="694.13" cy="954.801" r="3" fill="#ff0000" fill-rule="evenodd" fill-opacity="1" stroke="#000000" stroke-opacity="1" stroke-width="0"/>
<circle clip-path="url(#clip532)" cx="791.256" cy="959.467" r="3" fill="#008000" fill-rule="evenodd" fill-opacity="1" stroke="#000000" stroke-opacity="1" stroke-width="0"/>
<circle clip-path="url(#clip532)" cx="888.382" cy="1017.42" r="3" fill="#ff0000" fill-rule="evenodd" fill-opacity="1" stroke="#000000" stroke-opacity="1" stroke-width="0"/>
<circle clip-path="url(#clip532)" cx="985.509" cy="931.376" r="3" fill="#008000" fill-rule="evenodd" fill-opacity="1" stroke="#000000" stroke-opacity="1" stroke-width="0"/>
<circle clip-path="url(#clip532)" cx="1082.63" cy="814.307" r="3" fill="#008000" fill-rule="evenodd" fill-opacity="1" stroke="#000000" stroke-opacity="1" stroke-width="0"/>
<circle clip-path="url(#clip532)" cx="1179.76" cy="855.181" r="3" fill="#ff0000" fill-rule="evenodd" fill-opacity="1" stroke="#000000" stroke-opacity="1" stroke-width="0"/>
<circle clip-path="url(#clip532)" cx="1276.89" cy="731.626" r="3" fill="#008000" fill-rule="evenodd" fill-opacity="1" stroke="#000000" stroke-opacity="1" stroke-width="0"/>
<circle clip-path="url(#clip532)" cx="1374.01" cy="767.415" r="3" fill="#008000" fill-rule="evenodd" fill-opacity="1" stroke="#000000" stroke-opacity="1" stroke-width="0"/>
<circle clip-path="url(#clip532)" cx="1471.14" cy="779.779" r="3" fill="#ff0000" fill-rule="evenodd" fill-opacity="1" stroke="#000000" stroke-opacity="1" stroke-width="0"/>
<circle clip-path="url(#clip532)" cx="1568.27" cy="875.758" r="3" fill="#ff0000" fill-rule="evenodd" fill-opacity="1" stroke="#000000" stroke-opacity="1" stroke-width="0"/>
<circle clip-path="url(#clip532)" cx="1665.39" cy="1045.74" r="3" fill="#ff0000" fill-rule="evenodd" fill-opacity="1" stroke="#000000" stroke-opacity="1" stroke-width="0"/>
<circle clip-path="url(#clip532)" cx="1762.52" cy="1022.53" r="3" fill="#008000" fill-rule="evenodd" fill-opacity="1" stroke="#000000" stroke-opacity="1" stroke-width="0"/>
<circle clip-path="url(#clip532)" cx="1859.65" cy="617.495" r="3" fill="#008000" fill-rule="evenodd" fill-opacity="1" stroke="#000000" stroke-opacity="1" stroke-width="0"/>
<circle clip-path="url(#clip532)" cx="1956.77" cy="275.758" r="3" fill="#008000" fill-rule="evenodd" fill-opacity="1" stroke="#000000" stroke-opacity="1" stroke-width="0"/>
<circle clip-path="url(#clip532)" cx="2053.9" cy="163.959" r="3" fill="#ff0000" fill-rule="evenodd" fill-opacity="1" stroke="#000000" stroke-opacity="1" stroke-width="0"/>
<circle clip-path="url(#clip532)" cx="2151.02" cy="443.126" r="3" fill="#008000" fill-rule="evenodd" fill-opacity="1" stroke="#000000" stroke-opacity="1" stroke-width="0"/>
<circle clip-path="url(#clip532)" cx="2248.15" cy="341.222" r="3" fill="#008000" fill-rule="evenodd" fill-opacity="1" stroke="#000000" stroke-opacity="1" stroke-width="0"/>
</svg>
