<?xml version="1.0" encoding="utf-8" standalone="no"?>
<!DOCTYPE svg PUBLIC "-//W3C//DTD SVG 1.1//EN"
  "http://www.w3.org/Graphics/SVG/1.1/DTD/svg11.dtd">
<!-- Created with matplotlib (http://matplotlib.org/) -->
<svg height="288pt" version="1.1" viewBox="0 0 432 288" width="432pt" xmlns="http://www.w3.org/2000/svg" xmlns:xlink="http://www.w3.org/1999/xlink">
 <defs>
  <style type="text/css">
*{stroke-linecap:butt;stroke-linejoin:round;}
  </style>
 </defs>
 <g id="figure_1">
  <g id="patch_1">
   <path d="M 0 288 
L 432 288 
L 432 0 
L 0 0 
z
" style="fill:#ffffff;"/>
  </g>
  <g id="axes_1">
   <g id="patch_2">
    <path d="M 20.104646 275.905354 
L 429.165354 275.905354 
L 429.165354 2.834646 
L 20.104646 2.834646 
z
" style="fill:#ffffff;"/>
   </g>
   <g id="matplotlib.axis_1">
    <g id="xtick_1">
     <g id="line2d_1">
      <path clip-path="url(#p3f1949cee6)" d="M 36.399646 275.905354 
L 36.399646 2.834646 
" style="fill:none;opacity:0.1;stroke:#000000;stroke-linecap:square;stroke-width:0.5;"/>
     </g>
     <g id="line2d_2">
      <defs>
       <path d="M 0 0 
L 0 -3.5 
" id="me49400ff73" style="stroke:#000000;stroke-width:0.8;"/>
      </defs>
      <g>
       <use style="stroke:#000000;stroke-width:0.8;" x="36.399646" xlink:href="#me49400ff73" y="275.905354"/>
      </g>
     </g>
     <g id="text_1">
      <!-- 2000-02-01 -->
      <defs>
       <path d="M 19.1875 8.296875 
L 53.609375 8.296875 
L 53.609375 0 
L 7.328125 0 
L 7.328125 8.296875 
Q 12.9375 14.109375 22.625 23.890625 
Q 32.328125 33.6875 34.8125 36.53125 
Q 39.546875 41.84375 41.421875 45.53125 
Q 43.3125 49.21875 43.3125 52.78125 
Q 43.3125 58.59375 39.234375 62.25 
Q 35.15625 65.921875 28.609375 65.921875 
Q 23.96875 65.921875 18.8125 64.3125 
Q 13.671875 62.703125 7.8125 59.421875 
L 7.8125 69.390625 
Q 13.765625 71.78125 18.9375 73 
Q 24.125 74.21875 28.421875 74.21875 
Q 39.75 74.21875 46.484375 68.546875 
Q 53.21875 62.890625 53.21875 53.421875 
Q 53.21875 48.921875 51.53125 44.890625 
Q 49.859375 40.875 45.40625 35.40625 
Q 44.1875 33.984375 37.640625 27.21875 
Q 31.109375 20.453125 19.1875 8.296875 
z
" id="DejaVuSans-32"/>
       <path d="M 31.78125 66.40625 
Q 24.171875 66.40625 20.328125 58.90625 
Q 16.5 51.421875 16.5 36.375 
Q 16.5 21.390625 20.328125 13.890625 
Q 24.171875 6.390625 31.78125 6.390625 
Q 39.453125 6.390625 43.28125 13.890625 
Q 47.125 21.390625 47.125 36.375 
Q 47.125 51.421875 43.28125 58.90625 
Q 39.453125 66.40625 31.78125 66.40625 
z
M 31.78125 74.21875 
Q 44.046875 74.21875 50.515625 64.515625 
Q 56.984375 54.828125 56.984375 36.375 
Q 56.984375 17.96875 50.515625 8.265625 
Q 44.046875 -1.421875 31.78125 -1.421875 
Q 19.53125 -1.421875 13.0625 8.265625 
Q 6.59375 17.96875 6.59375 36.375 
Q 6.59375 54.828125 13.0625 64.515625 
Q 19.53125 74.21875 31.78125 74.21875 
z
" id="DejaVuSans-30"/>
       <path d="M 4.890625 31.390625 
L 31.203125 31.390625 
L 31.203125 23.390625 
L 4.890625 23.390625 
z
" id="DejaVuSans-2d"/>
       <path d="M 12.40625 8.296875 
L 28.515625 8.296875 
L 28.515625 63.921875 
L 10.984375 60.40625 
L 10.984375 69.390625 
L 28.421875 72.90625 
L 38.28125 72.90625 
L 38.28125 8.296875 
L 54.390625 8.296875 
L 54.390625 0 
L 12.40625 0 
z
" id="DejaVuSans-31"/>
      </defs>
      <g transform="translate(13.153396 285.484104)scale(0.08 -0.08)">
       <use xlink:href="#DejaVuSans-32"/>
       <use x="63.623047" xlink:href="#DejaVuSans-30"/>
       <use x="127.246094" xlink:href="#DejaVuSans-30"/>
       <use x="190.869141" xlink:href="#DejaVuSans-30"/>
       <use x="254.492188" xlink:href="#DejaVuSans-2d"/>
       <use x="290.576172" xlink:href="#DejaVuSans-30"/>
       <use x="354.199219" xlink:href="#DejaVuSans-32"/>
       <use x="417.822266" xlink:href="#DejaVuSans-2d"/>
       <use x="453.90625" xlink:href="#DejaVuSans-30"/>
       <use x="517.529297" xlink:href="#DejaVuSans-31"/>
      </g>
     </g>
    </g>
    <g id="xtick_2">
     <g id="line2d_3">
      <path clip-path="url(#p3f1949cee6)" d="M 138.664824 275.905354 
L 138.664824 2.834646 
" style="fill:none;opacity:0.1;stroke:#000000;stroke-linecap:square;stroke-width:0.5;"/>
     </g>
     <g id="line2d_4">
      <g>
       <use style="stroke:#000000;stroke-width:0.8;" x="138.664824" xlink:href="#me49400ff73" y="275.905354"/>
      </g>
     </g>
     <g id="text_2">
      <!-- 2000-08-01 -->
      <defs>
       <path d="M 31.78125 34.625 
Q 24.75 34.625 20.71875 30.859375 
Q 16.703125 27.09375 16.703125 20.515625 
Q 16.703125 13.921875 20.71875 10.15625 
Q 24.75 6.390625 31.78125 6.390625 
Q 38.8125 6.390625 42.859375 10.171875 
Q 46.921875 13.96875 46.921875 20.515625 
Q 46.921875 27.09375 42.890625 30.859375 
Q 38.875 34.625 31.78125 34.625 
z
M 21.921875 38.8125 
Q 15.578125 40.375 12.03125 44.71875 
Q 8.5 49.078125 8.5 55.328125 
Q 8.5 64.0625 14.71875 69.140625 
Q 20.953125 74.21875 31.78125 74.21875 
Q 42.671875 74.21875 48.875 69.140625 
Q 55.078125 64.0625 55.078125 55.328125 
Q 55.078125 49.078125 51.53125 44.71875 
Q 48 40.375 41.703125 38.8125 
Q 48.828125 37.15625 52.796875 32.3125 
Q 56.78125 27.484375 56.78125 20.515625 
Q 56.78125 9.90625 50.3125 4.234375 
Q 43.84375 -1.421875 31.78125 -1.421875 
Q 19.734375 -1.421875 13.25 4.234375 
Q 6.78125 9.90625 6.78125 20.515625 
Q 6.78125 27.484375 10.78125 32.3125 
Q 14.796875 37.15625 21.921875 38.8125 
z
M 18.3125 54.390625 
Q 18.3125 48.734375 21.84375 45.5625 
Q 25.390625 42.390625 31.78125 42.390625 
Q 38.140625 42.390625 41.71875 45.5625 
Q 45.3125 48.734375 45.3125 54.390625 
Q 45.3125 60.0625 41.71875 63.234375 
Q 38.140625 66.40625 31.78125 66.40625 
Q 25.390625 66.40625 21.84375 63.234375 
Q 18.3125 60.0625 18.3125 54.390625 
z
" id="DejaVuSans-38"/>
      </defs>
      <g transform="translate(115.418574 285.484104)scale(0.08 -0.08)">
       <use xlink:href="#DejaVuSans-32"/>
       <use x="63.623047" xlink:href="#DejaVuSans-30"/>
       <use x="127.246094" xlink:href="#DejaVuSans-30"/>
       <use x="190.869141" xlink:href="#DejaVuSans-30"/>
       <use x="254.492188" xlink:href="#DejaVuSans-2d"/>
       <use x="290.576172" xlink:href="#DejaVuSans-30"/>
       <use x="354.199219" xlink:href="#DejaVuSans-38"/>
       <use x="417.822266" xlink:href="#DejaVuSans-2d"/>
       <use x="453.90625" xlink:href="#DejaVuSans-30"/>
       <use x="517.529297" xlink:href="#DejaVuSans-31"/>
      </g>
     </g>
    </g>
    <g id="xtick_3">
     <g id="line2d_5">
      <path clip-path="url(#p3f1949cee6)" d="M 242.053794 275.905354 
L 242.053794 2.834646 
" style="fill:none;opacity:0.1;stroke:#000000;stroke-linecap:square;stroke-width:0.5;"/>
     </g>
     <g id="line2d_6">
      <g>
       <use style="stroke:#000000;stroke-width:0.8;" x="242.053794" xlink:href="#me49400ff73" y="275.905354"/>
      </g>
     </g>
     <g id="text_3">
      <!-- 2001-02-01 -->
      <g transform="translate(218.807544 285.484104)scale(0.08 -0.08)">
       <use xlink:href="#DejaVuSans-32"/>
       <use x="63.623047" xlink:href="#DejaVuSans-30"/>
       <use x="127.246094" xlink:href="#DejaVuSans-30"/>
       <use x="190.869141" xlink:href="#DejaVuSans-31"/>
       <use x="254.492188" xlink:href="#DejaVuSans-2d"/>
       <use x="290.576172" xlink:href="#DejaVuSans-30"/>
       <use x="354.199219" xlink:href="#DejaVuSans-32"/>
       <use x="417.822266" xlink:href="#DejaVuSans-2d"/>
       <use x="453.90625" xlink:href="#DejaVuSans-30"/>
       <use x="517.529297" xlink:href="#DejaVuSans-31"/>
      </g>
     </g>
    </g>
    <g id="xtick_4">
     <g id="line2d_7">
      <path clip-path="url(#p3f1949cee6)" d="M 343.757075 275.905354 
L 343.757075 2.834646 
" style="fill:none;opacity:0.1;stroke:#000000;stroke-linecap:square;stroke-width:0.5;"/>
     </g>
     <g id="line2d_8">
      <g>
       <use style="stroke:#000000;stroke-width:0.8;" x="343.757075" xlink:href="#me49400ff73" y="275.905354"/>
      </g>
     </g>
     <g id="text_4">
      <!-- 2001-08-01 -->
      <g transform="translate(320.510825 285.484104)scale(0.08 -0.08)">
       <use xlink:href="#DejaVuSans-32"/>
       <use x="63.623047" xlink:href="#DejaVuSans-30"/>
       <use x="127.246094" xlink:href="#DejaVuSans-30"/>
       <use x="190.869141" xlink:href="#DejaVuSans-31"/>
       <use x="254.492188" xlink:href="#DejaVuSans-2d"/>
       <use x="290.576172" xlink:href="#DejaVuSans-30"/>
       <use x="354.199219" xlink:href="#DejaVuSans-38"/>
       <use x="417.822266" xlink:href="#DejaVuSans-2d"/>
       <use x="453.90625" xlink:href="#DejaVuSans-30"/>
       <use x="517.529297" xlink:href="#DejaVuSans-31"/>
      </g>
     </g>
    </g>
   </g>
   <g id="matplotlib.axis_2">
    <g id="ytick_1">
     <g id="line2d_9">
      <path clip-path="url(#p3f1949cee6)" d="M 20.104646 263.166314 
L 429.165354 263.166314 
" style="fill:none;opacity:0.1;stroke:#000000;stroke-linecap:square;stroke-width:0.5;"/>
     </g>
     <g id="line2d_10">
      <defs>
       <path d="M 0 0 
L 3.5 0 
" id="m31b7a759c0" style="stroke:#000000;stroke-width:0.8;"/>
      </defs>
      <g>
       <use style="stroke:#000000;stroke-width:0.8;" x="20.104646" xlink:href="#m31b7a759c0" y="263.166314"/>
      </g>
     </g>
     <g id="text_5">
      <!-- 20 -->
      <g transform="translate(6.424646 266.205689)scale(0.08 -0.08)">
       <use xlink:href="#DejaVuSans-32"/>
       <use x="63.623047" xlink:href="#DejaVuSans-30"/>
      </g>
     </g>
    </g>
    <g id="ytick_2">
     <g id="line2d_11">
      <path clip-path="url(#p3f1949cee6)" d="M 20.104646 223.232019 
L 429.165354 223.232019 
" style="fill:none;opacity:0.1;stroke:#000000;stroke-linecap:square;stroke-width:0.5;"/>
     </g>
     <g id="line2d_12">
      <g>
       <use style="stroke:#000000;stroke-width:0.8;" x="20.104646" xlink:href="#m31b7a759c0" y="223.232019"/>
      </g>
     </g>
     <g id="text_6">
      <!-- 40 -->
      <defs>
       <path d="M 37.796875 64.3125 
L 12.890625 25.390625 
L 37.796875 25.390625 
z
M 35.203125 72.90625 
L 47.609375 72.90625 
L 47.609375 25.390625 
L 58.015625 25.390625 
L 58.015625 17.1875 
L 47.609375 17.1875 
L 47.609375 0 
L 37.796875 0 
L 37.796875 17.1875 
L 4.890625 17.1875 
L 4.890625 26.703125 
z
" id="DejaVuSans-34"/>
      </defs>
      <g transform="translate(6.424646 226.271394)scale(0.08 -0.08)">
       <use xlink:href="#DejaVuSans-34"/>
       <use x="63.623047" xlink:href="#DejaVuSans-30"/>
      </g>
     </g>
    </g>
    <g id="ytick_3">
     <g id="line2d_13">
      <path clip-path="url(#p3f1949cee6)" d="M 20.104646 183.297724 
L 429.165354 183.297724 
" style="fill:none;opacity:0.1;stroke:#000000;stroke-linecap:square;stroke-width:0.5;"/>
     </g>
     <g id="line2d_14">
      <g>
       <use style="stroke:#000000;stroke-width:0.8;" x="20.104646" xlink:href="#m31b7a759c0" y="183.297724"/>
      </g>
     </g>
     <g id="text_7">
      <!-- 60 -->
      <defs>
       <path d="M 33.015625 40.375 
Q 26.375 40.375 22.484375 35.828125 
Q 18.609375 31.296875 18.609375 23.390625 
Q 18.609375 15.53125 22.484375 10.953125 
Q 26.375 6.390625 33.015625 6.390625 
Q 39.65625 6.390625 43.53125 10.953125 
Q 47.40625 15.53125 47.40625 23.390625 
Q 47.40625 31.296875 43.53125 35.828125 
Q 39.65625 40.375 33.015625 40.375 
z
M 52.59375 71.296875 
L 52.59375 62.3125 
Q 48.875 64.0625 45.09375 64.984375 
Q 41.3125 65.921875 37.59375 65.921875 
Q 27.828125 65.921875 22.671875 59.328125 
Q 17.53125 52.734375 16.796875 39.40625 
Q 19.671875 43.65625 24.015625 45.921875 
Q 28.375 48.1875 33.59375 48.1875 
Q 44.578125 48.1875 50.953125 41.515625 
Q 57.328125 34.859375 57.328125 23.390625 
Q 57.328125 12.15625 50.6875 5.359375 
Q 44.046875 -1.421875 33.015625 -1.421875 
Q 20.359375 -1.421875 13.671875 8.265625 
Q 6.984375 17.96875 6.984375 36.375 
Q 6.984375 53.65625 15.1875 63.9375 
Q 23.390625 74.21875 37.203125 74.21875 
Q 40.921875 74.21875 44.703125 73.484375 
Q 48.484375 72.75 52.59375 71.296875 
z
" id="DejaVuSans-36"/>
      </defs>
      <g transform="translate(6.424646 186.337099)scale(0.08 -0.08)">
       <use xlink:href="#DejaVuSans-36"/>
       <use x="63.623047" xlink:href="#DejaVuSans-30"/>
      </g>
     </g>
    </g>
    <g id="ytick_4">
     <g id="line2d_15">
      <path clip-path="url(#p3f1949cee6)" d="M 20.104646 143.363429 
L 429.165354 143.363429 
" style="fill:none;opacity:0.1;stroke:#000000;stroke-linecap:square;stroke-width:0.5;"/>
     </g>
     <g id="line2d_16">
      <g>
       <use style="stroke:#000000;stroke-width:0.8;" x="20.104646" xlink:href="#m31b7a759c0" y="143.363429"/>
      </g>
     </g>
     <g id="text_8">
      <!-- 80 -->
      <g transform="translate(6.424646 146.402804)scale(0.08 -0.08)">
       <use xlink:href="#DejaVuSans-38"/>
       <use x="63.623047" xlink:href="#DejaVuSans-30"/>
      </g>
     </g>
    </g>
    <g id="ytick_5">
     <g id="line2d_17">
      <path clip-path="url(#p3f1949cee6)" d="M 20.104646 103.429135 
L 429.165354 103.429135 
" style="fill:none;opacity:0.1;stroke:#000000;stroke-linecap:square;stroke-width:0.5;"/>
     </g>
     <g id="line2d_18">
      <g>
       <use style="stroke:#000000;stroke-width:0.8;" x="20.104646" xlink:href="#m31b7a759c0" y="103.429135"/>
      </g>
     </g>
     <g id="text_9">
      <!-- 100 -->
      <g transform="translate(1.334646 106.46851)scale(0.08 -0.08)">
       <use xlink:href="#DejaVuSans-31"/>
       <use x="63.623047" xlink:href="#DejaVuSans-30"/>
       <use x="127.246094" xlink:href="#DejaVuSans-30"/>
      </g>
     </g>
    </g>
    <g id="ytick_6">
     <g id="line2d_19">
      <path clip-path="url(#p3f1949cee6)" d="M 20.104646 63.49484 
L 429.165354 63.49484 
" style="fill:none;opacity:0.1;stroke:#000000;stroke-linecap:square;stroke-width:0.5;"/>
     </g>
     <g id="line2d_20">
      <g>
       <use style="stroke:#000000;stroke-width:0.8;" x="20.104646" xlink:href="#m31b7a759c0" y="63.49484"/>
      </g>
     </g>
     <g id="text_10">
      <!-- 120 -->
      <g transform="translate(1.334646 66.534215)scale(0.08 -0.08)">
       <use xlink:href="#DejaVuSans-31"/>
       <use x="63.623047" xlink:href="#DejaVuSans-32"/>
       <use x="127.246094" xlink:href="#DejaVuSans-30"/>
      </g>
     </g>
    </g>
    <g id="ytick_7">
     <g id="line2d_21">
      <path clip-path="url(#p3f1949cee6)" d="M 20.104646 23.560545 
L 429.165354 23.560545 
" style="fill:none;opacity:0.1;stroke:#000000;stroke-linecap:square;stroke-width:0.5;"/>
     </g>
     <g id="line2d_22">
      <g>
       <use style="stroke:#000000;stroke-width:0.8;" x="20.104646" xlink:href="#m31b7a759c0" y="23.560545"/>
      </g>
     </g>
     <g id="text_11">
      <!-- 140 -->
      <g transform="translate(1.334646 26.59992)scale(0.08 -0.08)">
       <use xlink:href="#DejaVuSans-31"/>
       <use x="63.623047" xlink:href="#DejaVuSans-34"/>
       <use x="127.246094" xlink:href="#DejaVuSans-30"/>
      </g>
     </g>
    </g>
   </g>
   <g id="line2d_23">
    <path clip-path="url(#p3f1949cee6)" d="M 20.104646 93.685167 
L 20.666542 86.956238 
L 21.228439 95.941454 
L 21.790335 91.20924 
L 22.352232 110.417636 
L 24.037922 99.435705 
L 24.599818 111.535796 
L 25.161715 113.412708 
L 25.723611 114.451 
L 26.285508 103.429135 
L 28.533094 101.43242 
L 29.094991 92.207598 
L 29.656887 72.480056 
L 30.218784 74.975949 
L 31.904474 86.576862 
L 32.46637 93.445561 
L 33.028267 83.461987 
L 33.590164 85.838078 
L 34.15206 87.076041 
L 35.83775 101.43242 
L 36.399646 95.442276 
L 36.961543 101.931599 
L 37.52344 102.810153 
L 38.085336 95.562078 
L 39.771026 87.455417 
L 40.332922 75.475128 
L 40.894819 75.235522 
L 41.456716 77.711449 
L 42.018612 76.23388 
L 43.704302 84.83972 
L 44.266199 72.979235 
L 44.828095 67.987448 
L 45.389992 73.099038 
L 45.951888 74.237165 
L 48.199475 83.222381 
L 48.761371 77.012598 
L 49.323268 68.866002 
L 49.885164 73.857789 
L 51.570854 83.222381 
L 52.132751 76.353683 
L 52.694647 66.370109 
L 53.256544 49.517836 
L 53.81844 53.750872 
L 56.066027 50.635997 
L 56.627923 57.744301 
L 57.18982 61.737731 
L 57.751716 60.120392 
L 59.437406 59.261804 
L 59.999303 61.058848 
L 60.561199 72.24045 
L 61.123096 68.866002 
L 61.684992 63.255234 
L 63.370682 56.506338 
L 63.932579 58.38325 
L 65.056372 19.567115 
L 65.618268 18.688561 
L 67.303958 28.312726 
L 67.865855 29.05151 
L 68.427751 24.798508 
L 69.551545 48.639282 
L 71.237234 32.545761 
L 71.799131 38.2963 
L 72.361027 50.576095 
L 72.922924 42.289729 
L 73.484821 49.018658 
L 75.17051 40.153244 
L 75.732407 56.506338 
L 76.294303 65.491554 
L 76.8562 80.466915 
L 77.418097 84.83972 
L 79.103786 84.460344 
L 79.665683 56.506338 
L 80.227579 51.135175 
L 80.789476 56.126962 
L 83.037062 73.478413 
L 83.598959 59.261804 
L 84.160856 50.276588 
L 84.722752 69.105608 
L 85.284649 49.278231 
L 86.970338 53.750872 
L 87.532235 57.005517 
L 89.217925 81.844648 
L 90.903614 79.288853 
L 91.465511 82.843006 
L 92.027408 95.322473 
L 92.589304 100.673668 
L 93.151201 91.448846 
L 94.836891 87.335614 
L 95.398787 94.403984 
L 95.960684 96.201027 
L 96.52258 97.43899 
L 97.084477 104.926671 
L 98.770167 115.908602 
L 99.332063 122.397925 
L 99.89396 131.003765 
L 100.455856 126.391354 
L 101.017753 127.389712 
L 103.265339 128.148463 
L 103.827236 129.626032 
L 104.389132 139.869179 
L 104.951029 115.908602 
L 106.636719 116.787156 
L 107.198615 119.462754 
L 107.760512 116.168175 
L 108.322408 108.181316 
L 108.884305 109.918457 
L 110.569995 110.657242 
L 111.131891 121.020191 
L 111.693788 114.03169 
L 112.255684 120.900389 
L 112.817581 116.40778 
L 114.503271 122.278122 
L 115.065167 106.424207 
L 115.627064 202.266514 
L 116.18896 191.783762 
L 116.750857 195.71729 
L 118.436547 198.273085 
L 118.998443 195.71729 
L 119.56034 196.655746 
L 122.369823 199.031837 
L 123.493616 196.775549 
L 124.055513 198.273085 
L 124.617409 198.093381 
L 126.303099 195.098309 
L 126.864995 189.287869 
L 127.426892 187.051548 
L 127.988789 186.292797 
L 128.550685 189.048263 
L 130.236375 186.791975 
L 130.798272 186.292797 
L 131.360168 192.901922 
L 131.922065 193.281298 
L 134.169651 198.153282 
L 134.731548 202.64589 
L 135.293444 203.584346 
L 135.855341 203.264872 
L 136.417237 198.712362 
L 138.102927 204.942112 
L 138.664824 202.64589 
L 139.22672 205.261587 
L 139.788617 212.130285 
L 140.350513 204.323131 
L 142.036203 207.497907 
L 142.5981 207.378104 
L 143.159996 207.018696 
L 143.721893 207.258301 
L 144.283789 209.57449 
L 145.969479 208.076954 
L 147.093272 209.494622 
L 147.655169 206.49955 
L 148.217065 200.509406 
L 149.902755 202.765693 
L 150.464652 202.026909 
L 151.026548 200.329701 
L 151.588445 193.940214 
L 152.150341 190.286226 
L 153.836031 188.78869 
L 154.397928 187.53076 
L 154.959824 185.294439 
L 155.521721 185.354341 
L 156.083618 180.682028 
L 158.331204 177.986463 
L 158.8931 180.542258 
L 159.454997 185.054833 
L 160.016894 180.063047 
L 161.702583 185.913421 
L 162.26448 188.608986 
L 162.826376 189.787047 
L 163.388273 186.172994 
L 165.635859 192.782119 
L 166.197756 183.796903 
L 166.759652 184.475786 
L 167.321549 186.292797 
L 167.883446 202.64589 
L 169.569135 197.773906 
L 170.131032 196.655746 
L 170.692929 199.770621 
L 171.254825 204.642605 
L 171.816722 246.81322 
L 173.502411 249.808293 
L 174.064308 253.302543 
L 174.626205 258.414133 
L 175.188101 256.177813 
L 175.749998 257.795152 
L 177.435687 257.934922 
L 177.997584 259.931636 
L 178.559481 262.926708 
L 179.121377 262.547333 
L 179.683274 262.667136 
L 181.368964 258.553903 
L 181.93086 259.791866 
L 182.492757 264.284475 
L 183.054653 264.843555 
L 183.61655 265.043226 
L 185.864136 261.788581 
L 186.426033 265.043226 
L 186.987929 265.542405 
L 189.235516 264.923423 
L 189.797412 263.665493 
L 190.359309 264.284475 
L 191.483102 257.17617 
L 193.168792 258.29433 
L 193.730688 260.171242 
L 194.292585 260.410848 
L 194.854481 263.40592 
L 195.416378 264.444212 
L 197.102068 265.662208 
L 197.663964 263.286117 
L 198.225861 263.106413 
L 198.787757 264.164672 
L 199.349654 264.783653 
L 201.035344 265.981682 
L 201.59724 264.783653 
L 202.159137 265.542405 
L 203.28293 265.442569 
L 204.96862 263.40592 
L 205.530516 265.782011 
L 206.092413 266.980039 
L 206.65431 269.77544 
L 207.216206 269.156458 
L 208.901896 268.777083 
L 209.463792 269.276261 
L 210.025689 273.90864 
L 210.587586 274.268048 
L 211.149482 273.529264 
L 212.835172 272.770512 
L 213.397068 272.650709 
L 213.958965 272.031728 
L 215.082758 274.028442 
L 216.768448 274.028442 
L 217.330344 274.387851 
L 217.892241 275.58588 
L 218.454138 274.647424 
L 219.016034 274.906997 
L 221.263621 273.389494 
L 221.825517 274.46772 
L 222.387414 274.387851 
L 222.94931 273.76887 
L 225.196897 273.389494 
L 225.758793 274.148245 
L 226.32069 266.880204 
L 226.882586 269.276261 
L 228.568276 269.276261 
L 229.692069 269.77544 
L 230.253966 270.653995 
L 230.815862 267.39935 
L 233.063449 268.277904 
L 233.625345 268.038298 
L 234.187242 267.53912 
L 234.749138 264.284475 
L 236.434828 265.043226 
L 236.996725 264.544047 
L 237.558621 261.928351 
L 238.120518 262.048154 
L 238.682414 264.164672 
L 240.368104 264.044869 
L 240.930001 260.051439 
L 241.491897 260.171242 
L 242.053794 261.788581 
L 242.61569 260.929994 
L 244.30138 262.167957 
L 244.863277 262.84684 
L 245.425173 261.848483 
L 246.548967 262.167957 
L 248.234656 265.043226 
L 248.796553 263.286117 
L 249.358449 264.783653 
L 249.920346 263.785296 
L 250.482243 265.163029 
L 252.729829 264.783653 
L 253.291725 266.660565 
L 253.853622 265.043226 
L 254.415519 265.921781 
L 256.101208 265.043226 
L 256.663105 264.603949 
L 257.225002 264.404277 
L 257.786898 267.53912 
L 258.348795 266.540762 
L 260.034484 264.404277 
L 260.596381 261.72868 
L 261.158278 260.550618 
L 261.720174 261.788581 
L 262.282071 261.928351 
L 263.96776 263.785296 
L 264.529657 265.402635 
L 265.091554 266.161386 
L 265.65345 261.409205 
L 266.215347 265.163029 
L 267.901036 263.665493 
L 268.462933 261.72868 
L 269.02483 263.605591 
L 269.586726 262.407563 
L 270.148623 259.053082 
L 271.834313 256.916597 
L 272.396209 259.292688 
L 272.958106 259.013148 
L 273.520002 259.632129 
L 274.081899 258.074692 
L 275.767589 258.99318 
L 276.329485 260.450782 
L 276.891382 263.645526 
L 277.453278 261.968285 
L 278.015175 261.568942 
L 279.700865 261.788581 
L 280.262761 261.369271 
L 280.824658 257.216104 
L 281.386554 260.330979 
L 283.634141 258.99318 
L 284.196037 260.770257 
L 284.757934 260.031472 
L 285.31983 252.084547 
L 285.881727 253.322511 
L 287.567417 254.500572 
L 288.129313 254.520539 
L 288.69121 254.760145 
L 289.253106 252.843299 
L 289.815003 252.783398 
L 291.500693 249.788325 
L 292.062589 252.364087 
L 292.624486 250.507143 
L 293.186382 251.245927 
L 293.748279 254.700244 
L 295.433969 251.944777 
L 295.995865 252.48389 
L 296.557762 254.899915 
L 297.119659 254.760145 
L 297.681555 257.156203 
L 299.367245 257.395809 
L 299.929141 256.437386 
L 300.491038 256.657024 
L 301.052935 254.720211 
L 301.614831 256.457353 
L 303.300521 255.91824 
L 303.862417 255.179455 
L 304.424314 255.678634 
L 304.986211 256.597123 
L 305.548107 256.776827 
L 307.795694 258.533936 
L 308.35759 261.648811 
L 308.919487 263.565657 
L 311.167073 261.009862 
L 311.72897 261.568942 
L 312.290866 261.30937 
L 312.852763 261.748647 
L 313.414659 259.871735 
L 315.100349 261.069764 
L 315.662246 263.625559 
L 316.224142 260.330979 
L 316.786039 263.086446 
L 317.347935 262.966643 
L 319.033625 262.347661 
L 319.595522 261.469107 
L 320.157418 263.166314 
L 320.719315 260.071406 
L 321.281211 258.214462 
L 322.966901 258.174527 
L 323.528798 256.497287 
L 324.090694 255.518897 
L 324.652591 257.076334 
L 325.214487 255.858338 
L 326.900177 255.898273 
L 327.462074 256.157845 
L 328.585867 255.978141 
L 329.147763 257.655382 
L 330.833453 258.99318 
L 331.39535 257.276006 
L 331.957246 261.109698 
L 332.519143 256.577156 
L 333.08104 254.919882 
L 334.766729 253.422346 
L 335.328626 255.21939 
L 335.890522 259.612162 
L 336.452419 260.710355 
L 337.014316 263.765329 
L 338.700005 262.98661 
L 339.261902 264.38431 
L 339.823798 264.923423 
L 340.385695 266.201321 
L 340.947592 265.662208 
L 343.195178 264.623916 
L 343.757075 265.143062 
L 344.318971 263.865164 
L 344.880868 263.385953 
L 346.566557 265.08316 
L 347.128454 264.504113 
L 347.690351 264.643883 
L 348.252247 265.242898 
L 348.814144 265.08316 
L 350.499833 264.963358 
L 351.06173 264.763686 
L 352.185523 266.620631 
L 352.74742 267.159744 
L 354.995006 266.880204 
L 355.556903 267.279547 
L 356.118799 266.760401 
L 356.680696 267.159744 
L 358.366386 265.961715 
L 358.928282 265.3627 
L 359.490179 266.281189 
L 360.052075 267.67889 
L 360.613972 267.698857 
L 362.861558 266.161386 
L 363.423455 266.680532 
L 363.985351 266.361058 
L 364.547248 268.158101 
L 366.232938 269.156458 
L 370.166214 271.153173 
L 370.72811 269.35613 
L 371.290007 270.154816 
L 371.851903 270.574126 
L 372.4138 273.549231 
L 374.09949 270.933535 
L 374.661386 270.873633 
L 375.223283 271.532549 
L 375.785179 272.650709 
L 376.347076 271.732221 
L 378.594662 272.291301 
L 379.156559 273.249724 
L 379.718455 272.451038 
L 381.966042 272.011761 
L 382.527938 271.053337 
L 383.089835 270.953502 
L 383.651732 269.316196 
L 384.213628 268.537477 
L 385.899318 267.259579 
L 386.461214 266.980039 
L 387.023111 266.480861 
L 387.585008 268.577411 
L 388.146904 267.279547 
L 389.832594 266.740434 
L 390.39449 264.923423 
L 390.956387 267.039941 
L 392.08018 265.442569 
L 393.76587 266.021616 
L 394.327767 268.397707 
L 394.889663 267.698857 
L 395.45156 267.858594 
L 396.013456 266.121452 
L 398.261043 265.242898 
L 398.822939 264.24454 
L 399.384836 263.905099 
L 399.946732 265.961715 
L 401.632422 265.841912 
L 402.756215 263.984967 
L 403.880008 264.623916 
L 405.565698 265.163029 
L 406.127595 263.525723 
L 406.689491 263.945033 
L 407.813284 263.745362 
L 409.498974 263.286117 
L 410.060871 260.770257 
L 410.622767 261.469107 
L 411.184664 261.968285 
L 411.74656 262.227858 
L 413.43225 261.049797 
L 413.994147 261.069764 
L 415.11794 256.217747 
L 415.679836 258.254396 
L 417.365526 258.593837 
L 417.927423 257.835086 
L 418.489319 259.432458 
L 419.051216 260.191209 
L 419.613113 261.708712 
L 421.298802 262.367628 
L 421.860699 261.389238 
L 422.422595 262.00822 
L 422.984492 260.370914 
L 423.546389 261.149632 
L 425.232078 261.369271 
L 426.917768 260.011505 
L 427.479665 259.232786 
L 429.165354 258.15456 
L 429.165354 258.15456 
" style="fill:none;stroke:#009afa;stroke-linecap:round;"/>
   </g>
   <g id="line2d_24">
    <path clip-path="url(#p3f1949cee6)" d="M 20.104646 78.4702 
L 20.666542 82.224024 
L 21.228439 82.343827 
L 21.790335 89.452131 
L 22.352232 101.43242 
L 24.037922 98.936526 
L 24.599818 104.667098 
L 25.161715 112.414351 
L 26.285508 98.936526 
L 28.533094 91.448846 
L 29.094991 85.957881 
L 29.656887 60.499768 
L 30.218784 74.975949 
L 31.904474 77.971022 
L 32.46637 77.232237 
L 33.028267 75.095752 
L 33.590164 77.471843 
L 34.15206 81.704878 
L 35.83775 95.681881 
L 36.399646 93.445561 
L 36.961543 99.196099 
L 37.52344 94.943097 
L 38.085336 83.461987 
L 39.771026 74.975949 
L 40.332922 71.242093 
L 40.894819 69.245378 
L 41.456716 75.714734 
L 42.018612 75.235522 
L 43.704302 71.721304 
L 44.266199 63.614643 
L 44.828095 67.248663 
L 45.389992 72.480056 
L 45.951888 72.719662 
L 48.199475 69.604787 
L 48.761371 65.491554 
L 49.323268 65.251949 
L 49.885164 69.484984 
L 51.570854 73.478413 
L 52.132751 68.985805 
L 52.694647 39.41446 
L 53.256544 47.640925 
L 55.50413 45.284801 
L 56.066027 48.639282 
L 56.627923 55.627784 
L 57.18982 53.511266 
L 57.751716 47.640925 
L 59.437406 50.516194 
L 59.999303 55.008802 
L 60.561199 62.995661 
L 61.123096 59.50141 
L 61.684992 53.511266 
L 63.370682 51.015372 
L 63.932579 30.049868 
L 64.494475 14.814934 
L 65.056372 2.834646 
L 65.618268 15.693489 
L 67.303958 14.07615 
L 68.427751 24.678705 
L 68.989648 28.172956 
L 69.551545 29.05151 
L 71.237234 24.558902 
L 71.799131 37.537548 
L 72.361027 37.777154 
L 72.922924 34.542476 
L 73.484821 39.773868 
L 75.17051 38.036727 
L 75.732407 53.750872 
L 76.294303 65.491554 
L 76.8562 63.49484 
L 77.418097 67.488269 
L 79.103786 55.627784 
L 80.227579 43.028514 
L 80.789476 54.010445 
L 83.037062 62.496482 
L 83.598959 46.023586 
L 84.160856 47.521122 
L 84.722752 49.517836 
L 85.284649 48.519479 
L 86.970338 53.27166 
L 87.532235 51.015372 
L 88.094132 60.998946 
L 88.656028 72.979235 
L 89.217925 73.977592 
L 90.903614 76.09411 
L 91.465511 80.966094 
L 92.027408 93.445561 
L 92.589304 94.943097 
L 93.151201 82.46363 
L 94.836891 87.335614 
L 95.398787 85.338899 
L 95.960684 96.061257 
L 96.52258 93.565364 
L 97.084477 104.926671 
L 98.770167 115.908602 
L 99.332063 116.647386 
L 99.89396 123.895461 
L 100.455856 118.085021 
L 101.017753 123.635888 
L 103.265339 127.150106 
L 103.827236 120.900389 
L 104.389132 124.274837 
L 104.951029 103.928313 
L 106.636719 112.91353 
L 107.198615 109.918457 
L 107.760512 109.419279 
L 108.322408 106.424207 
L 108.884305 107.542367 
L 110.569995 110.537439 
L 111.131891 114.03169 
L 111.693788 110.916815 
L 112.255684 116.647386 
L 112.817581 115.908602 
L 114.503271 107.66217 
L 115.065167 95.562078 
L 115.627064 189.407672 
L 116.18896 188.049906 
L 116.750857 194.04005 
L 118.436547 193.780477 
L 118.998443 192.282941 
L 119.56034 192.522547 
L 120.122237 195.397816 
L 120.684133 193.401101 
L 122.369823 194.659031 
L 123.493616 192.901922 
L 124.055513 197.394531 
L 124.617409 193.660674 
L 126.864995 184.79526 
L 127.426892 185.414242 
L 127.988789 182.059761 
L 128.550685 185.294439 
L 130.236375 185.673815 
L 130.798272 185.534045 
L 131.360168 189.667244 
L 131.922065 189.168066 
L 132.483961 192.043335 
L 134.169651 197.514333 
L 134.731548 202.026909 
L 135.293444 200.768978 
L 135.855341 196.775549 
L 136.417237 198.273085 
L 138.102927 200.030194 
L 138.664824 200.948683 
L 139.22672 203.384675 
L 139.788617 207.138498 
L 140.350513 200.768978 
L 142.036203 205.141784 
L 142.5981 207.258301 
L 143.159996 206.379747 
L 143.721893 206.379747 
L 144.283789 207.258301 
L 145.969479 207.877283 
L 146.531376 207.378104 
L 147.093272 205.261587 
L 147.655169 198.392888 
L 148.217065 199.650818 
L 149.902755 200.149997 
L 150.464652 197.654103 
L 151.588445 190.04662 
L 152.150341 188.289511 
L 154.959824 183.297724 
L 155.521721 180.302652 
L 156.083618 176.069617 
L 158.331204 175.07126 
L 158.8931 178.545543 
L 159.454997 178.186135 
L 160.016894 180.063047 
L 162.826376 184.296082 
L 163.388273 184.056476 
L 163.95017 186.911778 
L 165.635859 181.800188 
L 166.197756 182.299367 
L 166.759652 180.422455 
L 167.321549 184.056476 
L 167.883446 198.392888 
L 169.569135 192.282941 
L 170.131032 193.780477 
L 170.692929 197.773906 
L 171.254825 195.657389 
L 171.816722 245.195882 
L 173.502411 249.68849 
L 174.064308 253.182741 
L 174.626205 255.678634 
L 175.188101 254.181098 
L 175.749998 257.295973 
L 177.435687 257.415776 
L 177.997584 258.29433 
L 178.559481 261.1696 
L 179.121377 261.548975 
L 179.683274 258.933279 
L 181.368964 256.676991 
L 181.93086 259.292688 
L 182.492757 261.049797 
L 183.054653 263.54569 
L 183.61655 262.407563 
L 185.30224 262.048154 
L 185.864136 261.409205 
L 186.426033 264.783653 
L 186.987929 265.402635 
L 187.549826 264.783653 
L 189.797412 262.667136 
L 190.359309 261.409205 
L 190.921205 258.29433 
L 191.483102 257.17617 
L 193.168792 257.934922 
L 193.730688 259.552261 
L 194.292585 260.291045 
L 194.854481 262.167957 
L 195.416378 263.40592 
L 197.102068 263.166314 
L 197.663964 262.167957 
L 198.787757 263.54569 
L 199.349654 264.66385 
L 201.035344 264.164672 
L 201.59724 264.164672 
L 202.159137 264.923423 
L 203.28293 264.164672 
L 204.96862 263.286117 
L 205.530516 265.163029 
L 206.092413 266.540762 
L 206.65431 269.156458 
L 207.216206 268.158101 
L 208.901896 268.777083 
L 209.463792 268.277904 
L 210.025689 273.149888 
L 210.587586 273.389494 
L 211.149482 272.530906 
L 212.835172 272.391136 
L 213.397068 271.153173 
L 213.958965 272.031728 
L 214.520862 272.650709 
L 215.082758 273.76887 
L 216.768448 273.90864 
L 217.330344 272.650709 
L 217.892241 273.90864 
L 218.454138 273.149888 
L 221.263621 273.149888 
L 221.825517 273.529264 
L 222.387414 273.269691 
L 225.196897 272.650709 
L 225.758793 269.77544 
L 226.32069 266.161386 
L 226.882586 268.397707 
L 228.568276 269.196393 
L 229.130173 267.878561 
L 229.692069 269.156458 
L 230.253966 266.161386 
L 230.815862 267.159744 
L 233.063449 266.660565 
L 233.625345 268.038298 
L 234.187242 265.662208 
L 234.749138 264.044869 
L 236.434828 263.925066 
L 236.996725 261.289402 
L 237.558621 261.788581 
L 238.120518 262.048154 
L 238.682414 263.54569 
L 240.368104 259.672063 
L 240.930001 259.172885 
L 241.491897 258.174527 
L 242.053794 260.171242 
L 242.61569 259.292688 
L 244.30138 262.048154 
L 244.863277 260.390881 
L 245.425173 261.409205 
L 245.98707 261.049797 
L 248.234656 263.166314 
L 248.796553 262.28776 
L 249.358449 263.925066 
L 249.920346 262.048154 
L 250.482243 264.164672 
L 252.729829 264.284475 
L 253.291725 263.286117 
L 254.415519 265.402635 
L 256.101208 263.785296 
L 256.663105 264.284475 
L 257.225002 264.284475 
L 257.786898 265.662208 
L 258.348795 262.28776 
L 260.034484 262.167957 
L 260.596381 259.053082 
L 262.282071 261.788581 
L 264.529657 264.044869 
L 265.65345 260.410848 
L 266.215347 262.547333 
L 267.901036 261.928351 
L 268.462933 261.289402 
L 269.02483 261.409205 
L 269.586726 259.672063 
L 270.148623 256.05801 
L 271.834313 255.678634 
L 272.396209 257.076334 
L 272.958106 258.174527 
L 273.520002 256.277648 
L 274.081899 257.73525 
L 275.767589 257.855053 
L 276.891382 262.667136 
L 277.453278 258.174527 
L 278.015175 261.089731 
L 279.700865 260.490716 
L 280.262761 257.775184 
L 280.824658 257.17617 
L 281.386554 257.136236 
L 283.634141 258.374199 
L 284.196037 260.750289 
L 284.757934 255.019718 
L 285.31983 251.685204 
L 285.881727 251.92481 
L 288.129313 253.681919 
L 288.69121 253.462281 
L 289.253106 250.986354 
L 289.815003 250.606978 
L 291.500693 248.949705 
L 292.062589 250.187668 
L 292.624486 249.788325 
L 293.748279 251.485533 
L 295.433969 251.665237 
L 295.995865 252.284219 
L 296.557762 254.081262 
L 297.119659 254.181098 
L 297.681555 256.19778 
L 299.367245 255.818404 
L 299.929141 252.184383 
L 300.491038 254.181098 
L 301.052935 254.520539 
L 301.614831 255.898273 
L 303.300521 255.35916 
L 303.862417 254.919882 
L 304.986211 256.577156 
L 305.548107 256.597123 
L 307.795694 258.174527 
L 308.35759 261.648811 
L 308.919487 262.687103 
L 309.481383 260.989895 
L 311.72897 260.969928 
L 312.290866 261.30937 
L 312.852763 259.771899 
L 313.414659 259.871735 
L 315.100349 261.029829 
L 315.662246 261.788581 
L 316.224142 259.711998 
L 316.786039 262.267793 
L 317.347935 261.668778 
L 319.033625 261.469107 
L 320.157418 259.472392 
L 320.719315 257.17617 
L 321.281211 257.17617 
L 322.966901 255.179455 
L 323.528798 255.6387 
L 324.090694 255.179455 
L 324.652591 255.35916 
L 325.214487 252.983069 
L 326.900177 254.720211 
L 327.462074 254.820047 
L 328.585867 255.6387 
L 329.147763 257.256039 
L 330.833453 257.17617 
L 331.39535 257.0364 
L 331.957246 258.074692 
L 332.519143 253.562116 
L 333.08104 253.162773 
L 334.766729 252.983069 
L 335.328626 252.743463 
L 335.890522 257.615447 
L 337.014316 263.046511 
L 338.700005 262.167957 
L 340.385695 265.562372 
L 340.947592 264.66385 
L 343.195178 264.324409 
L 343.757075 263.605591 
L 344.318971 263.425887 
L 344.880868 263.365986 
L 346.566557 263.845197 
L 347.690351 263.765329 
L 348.252247 264.863522 
L 348.814144 264.52408 
L 351.06173 264.444212 
L 351.623627 265.282832 
L 352.185523 265.662208 
L 352.74742 266.261222 
L 354.995006 266.880204 
L 356.118799 266.480861 
L 356.680696 265.921781 
L 358.366386 264.564015 
L 358.928282 264.883489 
L 359.490179 265.502471 
L 360.052075 266.800335 
L 360.613972 265.961715 
L 362.861558 265.003292 
L 363.423455 265.262865 
L 363.985351 265.302799 
L 364.547248 266.960072 
L 366.232938 268.158101 
L 370.166214 269.016688 
L 370.72811 267.718824 
L 371.290007 268.956787 
L 371.851903 269.256294 
L 372.4138 270.653995 
L 374.09949 269.475933 
L 374.661386 270.713896 
L 375.223283 271.372812 
L 375.785179 271.652352 
L 376.347076 271.332878 
L 378.032766 271.17314 
L 378.594662 271.492615 
L 379.156559 272.431071 
L 379.718455 270.653995 
L 380.280352 270.853666 
L 381.966042 270.454323 
L 382.527938 270.75383 
L 383.089835 269.455966 
L 383.651732 267.67889 
L 384.213628 267.000007 
L 385.899318 266.400992 
L 386.461214 266.760401 
L 387.023111 266.341091 
L 387.585008 266.700499 
L 388.146904 266.361058 
L 389.832594 265.023259 
L 390.39449 264.324409 
L 390.956387 264.983325 
L 391.518284 264.66385 
L 392.08018 264.66385 
L 393.76587 265.821945 
L 394.327767 267.159744 
L 395.45156 265.602306 
L 396.013456 265.442569 
L 397.699146 264.66385 
L 398.261043 263.925066 
L 398.822939 262.906741 
L 399.384836 263.385953 
L 399.946732 264.66385 
L 401.632422 264.823587 
L 402.194319 264.38431 
L 402.756215 263.365986 
L 403.318112 263.365986 
L 403.880008 264.583982 
L 405.565698 263.066479 
L 406.127595 262.766971 
L 406.689491 263.565657 
L 407.813284 263.26615 
L 409.498974 260.071406 
L 410.060871 260.131308 
L 410.622767 260.750289 
L 411.184664 261.768614 
L 411.74656 260.291045 
L 413.43225 260.610519 
L 414.556043 255.119554 
L 415.11794 256.177813 
L 415.679836 257.755217 
L 417.365526 257.196137 
L 417.927423 257.475677 
L 418.489319 259.332622 
L 419.051216 260.071406 
L 419.613113 261.509041 
L 421.298802 261.1696 
L 422.422595 259.811833 
L 422.984492 260.231144 
L 423.546389 260.091374 
L 425.232078 260.271078 
L 426.355871 258.57387 
L 426.917768 258.673706 
L 427.479665 257.17617 
L 429.165354 257.855053 
L 429.165354 257.855053 
" style="fill:none;stroke:#e36f47;stroke-linecap:round;"/>
   </g>
   <g id="patch_3">
    <path d="M 20.104646 275.905354 
L 20.104646 2.834646 
" style="fill:none;stroke:#000000;stroke-linecap:square;stroke-linejoin:miter;stroke-width:0.8;"/>
   </g>
   <g id="patch_4">
    <path d="M 20.104646 275.905354 
L 429.165354 275.905354 
" style="fill:none;stroke:#000000;stroke-linecap:square;stroke-linejoin:miter;stroke-width:0.8;"/>
   </g>
   <g id="line2d_25">
    <path clip-path="url(#p3f1949cee6)" d="M 20.104646 100.054687 
L 20.666542 101.053044 
L 21.228439 97.43899 
L 21.790335 113.412708 
L 22.352232 112.414351 
L 24.037922 113.911887 
L 25.161715 130.384784 
L 26.285508 104.667098 
L 28.533094 102.55058 
L 29.094991 96.680239 
L 29.656887 76.473486 
L 30.218784 83.082611 
L 31.904474 93.205955 
L 32.46637 98.676953 
L 33.028267 83.961166 
L 33.590164 89.452131 
L 34.15206 102.191171 
L 35.83775 114.411066 
L 36.399646 103.429135 
L 36.961543 109.419279 
L 38.085336 96.201027 
L 39.771026 91.568649 
L 40.332922 80.966094 
L 40.894819 78.590003 
L 41.456716 83.461987 
L 42.018612 86.956238 
L 43.704302 86.217453 
L 44.266199 73.099038 
L 44.828095 79.228952 
L 45.389992 77.232237 
L 45.951888 81.704878 
L 48.199475 90.071113 
L 48.761371 81.465272 
L 49.323268 79.967736 
L 49.885164 83.222381 
L 51.570854 86.696665 
L 52.132751 78.350397 
L 52.694647 66.489912 
L 53.256544 62.117106 
L 53.81844 63.49484 
L 55.50413 53.511266 
L 56.066027 61.258519 
L 56.627923 66.370109 
L 57.18982 66.98909 
L 57.751716 61.498125 
L 59.437406 64.493197 
L 59.999303 75.475128 
L 60.561199 75.235522 
L 61.123096 74.476771 
L 61.684992 64.253591 
L 63.370682 58.742659 
L 63.932579 60.260162 
L 65.056372 23.560545 
L 65.618268 32.545761 
L 67.303958 29.790295 
L 67.865855 29.311083 
L 68.427751 35.880275 
L 68.989648 52.632711 
L 69.551545 51.514551 
L 71.237234 44.645852 
L 71.799131 69.984163 
L 72.361027 55.507981 
L 72.922924 57.005517 
L 73.484821 52.512909 
L 75.17051 54.010445 
L 75.732407 67.368466 
L 76.294303 93.685167 
L 76.8562 86.457059 
L 77.418097 85.458702 
L 79.103786 85.338899 
L 79.665683 64.732803 
L 80.227579 63.994018 
L 80.789476 69.365181 
L 83.037062 73.977592 
L 83.598959 59.381607 
L 84.160856 63.49484 
L 84.722752 70.323604 
L 85.284649 60.879143 
L 86.970338 59.741016 
L 87.532235 68.486627 
L 88.094132 80.227309 
L 88.656028 82.343827 
L 89.217925 82.024352 
L 90.903614 83.461987 
L 92.027408 105.925028 
L 92.589304 105.425849 
L 93.151201 93.904805 
L 94.836891 103.189529 
L 95.398787 97.938169 
L 95.960684 102.670383 
L 96.52258 102.191171 
L 97.084477 116.647386 
L 98.770167 131.383141 
L 99.332063 132.141893 
L 99.89396 137.373285 
L 100.455856 131.383141 
L 101.017753 132.880677 
L 103.265339 139.869179 
L 103.827236 135.755946 
L 104.389132 142.604678 
L 104.951029 125.392997 
L 106.636719 124.015264 
L 107.198615 122.7773 
L 108.884305 114.650671 
L 110.569995 121.639173 
L 111.131891 127.010336 
L 111.693788 123.156676 
L 112.255684 125.392997 
L 112.817581 125.273194 
L 114.503271 123.775658 
L 115.065167 106.663812 
L 115.627064 202.64589 
L 116.18896 196.156567 
L 116.750857 201.647533 
L 118.436547 199.031837 
L 118.998443 200.030194 
L 119.56034 200.2698 
L 120.122237 201.148354 
L 120.684133 199.890424 
L 122.369823 199.031837 
L 123.493616 201.767336 
L 124.055513 204.023623 
L 124.617409 199.031837 
L 126.303099 195.777192 
L 126.864995 192.402744 
L 127.426892 190.525832 
L 127.988789 193.780477 
L 128.550685 189.527474 
L 130.236375 189.048263 
L 130.798272 189.527474 
L 131.360168 199.770621 
L 131.922065 195.038407 
L 132.483961 197.394531 
L 134.169651 208.256659 
L 134.731548 205.141784 
L 135.293444 204.762408 
L 135.855341 203.504478 
L 136.417237 209.494622 
L 138.664824 204.762408 
L 139.22672 208.87564 
L 139.788617 214.745982 
L 140.350513 210.632749 
L 142.036203 208.87564 
L 142.5981 210.632749 
L 143.159996 208.755837 
L 143.721893 208.496265 
L 144.283789 212.130285 
L 147.093272 209.634392 
L 148.217065 203.504478 
L 149.902755 204.023623 
L 151.026548 201.148354 
L 151.588445 196.515976 
L 152.150341 190.525832 
L 153.836031 189.168066 
L 154.397928 187.910135 
L 154.959824 185.893454 
L 155.521721 185.414242 
L 156.083618 181.061404 
L 158.331204 178.805116 
L 158.8931 187.790333 
L 159.454997 186.791975 
L 160.016894 186.292797 
L 161.702583 187.051548 
L 162.26448 189.287869 
L 162.826376 189.787047 
L 163.388273 189.667244 
L 163.95017 194.778834 
L 165.635859 193.161495 
L 166.197756 186.172994 
L 166.759652 186.172994 
L 167.321549 192.782119 
L 167.883446 203.264872 
L 169.569135 199.151639 
L 170.131032 200.509406 
L 170.692929 206.759123 
L 171.254825 207.018696 
L 171.816722 252.423989 
L 173.502411 256.177813 
L 174.064308 258.793509 
L 174.626205 259.412491 
L 175.188101 259.172885 
L 175.749998 261.1696 
L 177.435687 260.929994 
L 177.997584 262.167957 
L 178.559481 264.923423 
L 179.121377 264.164672 
L 179.683274 263.166314 
L 181.368964 260.410848 
L 181.93086 263.785296 
L 182.492757 265.662208 
L 183.054653 266.540762 
L 183.61655 265.282832 
L 185.30224 264.284475 
L 185.864136 265.542405 
L 186.426033 266.281189 
L 186.987929 268.158101 
L 187.549826 267.39935 
L 189.235516 265.662208 
L 189.797412 264.66385 
L 190.359309 264.284475 
L 190.921205 261.049797 
L 191.483102 259.292688 
L 193.168792 261.409205 
L 193.730688 261.548975 
L 194.292585 263.54569 
L 194.854481 265.043226 
L 195.416378 265.043226 
L 197.102068 266.660565 
L 197.663964 264.044869 
L 198.787757 265.402635 
L 199.349654 266.660565 
L 201.035344 266.660565 
L 201.59724 265.662208 
L 202.159137 266.400992 
L 203.28293 265.542405 
L 204.96862 266.161386 
L 205.530516 267.279547 
L 206.092413 268.65728 
L 206.65431 270.913567 
L 207.216206 269.535834 
L 208.901896 270.274619 
L 209.463792 270.394422 
L 210.025689 275.146603 
L 210.587586 275.146603 
L 211.149482 274.268048 
L 213.397068 273.149888 
L 213.958965 273.389494 
L 215.082758 275.146603 
L 216.768448 275.266406 
L 217.330344 275.146603 
L 217.892241 275.905354 
L 219.016034 274.906997 
L 221.263621 274.647424 
L 221.825517 274.767227 
L 222.387414 274.527621 
L 222.94931 274.148245 
L 225.196897 274.028442 
L 225.758793 274.268048 
L 226.32069 269.535834 
L 226.882586 271.03337 
L 228.568276 271.272976 
L 229.130173 270.035013 
L 229.692069 271.03337 
L 230.253966 270.653995 
L 230.815862 269.036656 
L 233.063449 269.156458 
L 233.625345 270.154816 
L 234.749138 265.782011 
L 236.434828 266.281189 
L 237.558621 264.044869 
L 238.120518 263.665493 
L 238.682414 265.043226 
L 240.368104 264.044869 
L 240.930001 261.409205 
L 241.491897 260.291045 
L 242.053794 262.167957 
L 242.61569 262.167957 
L 244.30138 263.665493 
L 244.863277 263.166314 
L 245.425173 263.54569 
L 245.98707 262.786938 
L 246.548967 265.782011 
L 248.234656 265.542405 
L 248.796553 265.163029 
L 249.358449 266.161386 
L 249.920346 263.785296 
L 250.482243 265.662208 
L 252.729829 266.780368 
L 253.291725 266.660565 
L 253.853622 267.159744 
L 254.415519 266.660565 
L 256.663105 265.782011 
L 257.225002 266.920138 
L 257.786898 268.777083 
L 258.348795 266.660565 
L 260.034484 264.66385 
L 260.596381 261.788581 
L 261.158278 261.668778 
L 261.720174 262.28776 
L 262.282071 263.166314 
L 263.96776 266.920138 
L 264.529657 266.780368 
L 265.091554 266.281189 
L 265.65345 263.785296 
L 266.215347 265.402635 
L 268.462933 263.785296 
L 269.02483 264.404277 
L 269.586726 262.786938 
L 270.148623 259.172885 
L 271.834313 260.910027 
L 272.396209 259.372556 
L 272.958106 260.171242 
L 273.520002 260.171242 
L 274.081899 260.490716 
L 275.767589 260.370914 
L 276.891382 265.662208 
L 277.453278 263.166314 
L 278.015175 263.365986 
L 279.700865 263.046511 
L 280.262761 261.608877 
L 280.824658 260.610519 
L 281.386554 260.870092 
L 283.634141 261.44914 
L 284.196037 263.965 
L 284.757934 261.009862 
L 285.31983 255.978141 
L 285.881727 253.981426 
L 287.567417 255.179455 
L 288.129313 256.157845 
L 288.69121 256.038043 
L 289.253106 253.821689 
L 289.815003 253.681919 
L 291.500693 253.442313 
L 292.062589 252.783398 
L 292.624486 251.665237 
L 293.186382 253.721854 
L 293.748279 255.259324 
L 295.433969 253.502215 
L 295.995865 255.279291 
L 296.557762 255.838371 
L 297.119659 257.276006 
L 297.681555 257.655382 
L 299.367245 257.675349 
L 299.929141 257.096301 
L 300.491038 257.475677 
L 301.052935 256.676991 
L 301.614831 256.936564 
L 303.300521 257.076334 
L 303.862417 256.377484 
L 304.424314 257.45571 
L 304.986211 257.934922 
L 305.548107 258.174527 
L 307.795694 261.548975 
L 308.35759 264.564015 
L 308.919487 264.184639 
L 309.481383 263.206249 
L 311.167073 262.247825 
L 311.72897 262.467464 
L 312.290866 262.507398 
L 312.852763 262.267793 
L 313.414659 261.748647 
L 315.662246 263.645526 
L 316.224142 263.046511 
L 316.786039 263.625559 
L 317.347935 264.464179 
L 319.033625 263.166314 
L 320.157418 263.206249 
L 320.719315 260.969928 
L 321.281211 259.652096 
L 322.966901 258.274363 
L 323.528798 257.156203 
L 324.090694 258.174527 
L 324.652591 257.295973 
L 325.214487 256.776827 
L 326.900177 256.89663 
L 327.462074 256.177813 
L 328.585867 257.156203 
L 329.147763 259.731965 
L 330.833453 259.811833 
L 331.39535 261.489074 
L 331.957246 261.1696 
L 332.519143 256.577156 
L 333.08104 255.49893 
L 334.766729 255.35916 
L 335.328626 257.156203 
L 335.890522 262.327694 
L 336.452419 263.665493 
L 337.014316 264.184639 
L 338.700005 264.144704 
L 339.823798 267.219645 
L 340.385695 267.459251 
L 340.947592 266.161386 
L 343.195178 266.141419 
L 343.757075 265.262865 
L 344.318971 264.643883 
L 344.880868 265.163029 
L 347.128454 265.202963 
L 347.690351 266.081518 
L 348.252247 265.722109 
L 348.814144 265.981682 
L 350.499833 265.642241 
L 351.06173 265.821945 
L 351.623627 266.760401 
L 352.185523 267.219645 
L 352.74742 267.179711 
L 354.995006 267.758758 
L 355.556903 267.938462 
L 356.118799 267.998364 
L 356.680696 267.858594 
L 358.366386 266.840269 
L 358.928282 266.361058 
L 360.052075 268.597378 
L 360.613972 267.858594 
L 362.861558 266.800335 
L 363.423455 266.920138 
L 364.547248 268.757116 
L 366.232938 269.316196 
L 370.166214 271.692286 
L 370.72811 270.813732 
L 371.290007 271.951859 
L 371.851903 272.151531 
L 372.4138 273.788837 
L 374.09949 271.253009 
L 374.661386 272.451038 
L 375.223283 273.289658 
L 375.785179 272.750545 
L 376.347076 272.371169 
L 378.032766 272.690644 
L 378.594662 273.389494 
L 379.156559 273.489329 
L 379.718455 273.169855 
L 380.280352 273.169855 
L 382.527938 271.891958 
L 383.089835 271.253009 
L 383.651732 269.455966 
L 384.213628 269.435999 
L 385.899318 267.259579 
L 386.461214 267.618988 
L 387.023111 269.236327 
L 387.585008 268.577411 
L 388.146904 267.39935 
L 389.832594 266.980039 
L 390.39449 267.419317 
L 390.956387 267.658922 
L 392.08018 265.921781 
L 393.76587 267.95843 
L 394.327767 269.036656 
L 394.889663 268.277904 
L 395.45156 268.65728 
L 396.013456 266.840269 
L 397.699146 265.941748 
L 398.261043 266.101485 
L 398.822939 264.504113 
L 399.384836 266.021616 
L 399.946732 266.061551 
L 401.632422 267.239612 
L 402.194319 265.742076 
L 402.756215 264.863522 
L 403.318112 264.703785 
L 403.880008 266.361058 
L 405.565698 265.242898 
L 406.127595 264.164672 
L 406.689491 264.643883 
L 407.813284 264.024902 
L 409.498974 263.40592 
L 410.060871 262.167957 
L 410.622767 262.347661 
L 411.184664 262.786938 
L 411.74656 262.667136 
L 413.994147 261.72868 
L 414.556043 258.833443 
L 415.11794 258.893345 
L 415.679836 259.172885 
L 417.365526 258.71364 
L 417.927423 259.871735 
L 418.489319 260.670421 
L 419.051216 262.167957 
L 419.613113 262.98661 
L 421.860699 262.727037 
L 422.422595 262.227858 
L 423.546389 261.568942 
L 425.232078 261.369271 
L 426.355871 260.890059 
L 427.479665 259.252753 
L 429.165354 259.512326 
L 429.165354 259.512326 
" style="fill:none;stroke:#3ea44e;stroke-linecap:round;"/>
   </g>
   <g id="line2d_26">
    <path clip-path="url(#p3f1949cee6)" d="M 20.104646 79.588361 
L 20.666542 98.437348 
L 21.228439 95.442276 
L 21.790335 113.412708 
L 22.352232 104.427492 
L 24.037922 107.921743 
L 25.161715 129.00705 
L 25.723611 109.918457 
L 26.285508 102.55058 
L 28.533094 95.562078 
L 29.094991 90.330686 
L 29.656887 76.473486 
L 30.218784 80.846291 
L 31.904474 90.949667 
L 32.46637 78.969379 
L 33.028267 83.082611 
L 33.590164 83.461987 
L 34.15206 100.194457 
L 35.83775 95.941454 
L 36.399646 102.929956 
L 36.961543 105.805225 
L 38.085336 87.455417 
L 39.771026 75.355325 
L 40.332922 73.718019 
L 40.894819 78.230594 
L 41.456716 76.473486 
L 42.018612 85.957881 
L 43.704302 71.861074 
L 44.266199 65.491554 
L 44.828095 75.235522 
L 45.389992 73.718019 
L 45.951888 80.966094 
L 48.199475 75.854504 
L 48.761371 70.98252 
L 49.323268 73.07907 
L 49.885164 82.703236 
L 51.570854 76.972664 
L 52.132751 74.237165 
L 52.694647 42.908711 
L 53.256544 59.50141 
L 53.81844 47.521122 
L 55.50413 52.133533 
L 56.066027 57.744301 
L 56.627923 59.50141 
L 57.18982 59.002231 
L 57.751716 52.01373 
L 59.437406 60.879143 
L 59.999303 74.975949 
L 60.561199 70.98252 
L 61.123096 60.379965 
L 61.684992 53.511266 
L 63.370682 57.504695 
L 63.932579 33.663921 
L 64.494475 15.19431 
L 65.618268 26.176241 
L 67.303958 24.439099 
L 67.865855 25.317654 
L 68.427751 31.667207 
L 68.989648 52.01373 
L 69.551545 31.92678 
L 71.237234 36.918566 
L 71.799131 48.898855 
L 72.361027 42.768941 
L 72.922924 53.13189 
L 73.484821 40.033441 
L 75.17051 53.511266 
L 75.732407 64.613 
L 76.294303 84.959523 
L 76.8562 75.854504 
L 77.418097 79.708163 
L 79.103786 55.747586 
L 79.665683 49.757442 
L 80.227579 61.258519 
L 80.789476 65.73116 
L 83.037062 62.496482 
L 83.598959 46.90214 
L 84.160856 60.879143 
L 84.722752 50.017015 
L 85.284649 55.388178 
L 86.970338 54.888999 
L 87.532235 67.727875 
L 88.094132 73.35861 
L 88.656028 82.084254 
L 89.217925 77.232237 
L 90.903614 83.222381 
L 91.465511 92.567006 
L 92.027408 104.806868 
L 92.589304 97.818366 
L 93.151201 88.214168 
L 94.836891 101.43242 
L 95.398787 92.067828 
L 95.960684 100.673668 
L 96.52258 101.931599 
L 97.084477 115.409423 
L 98.770167 123.516085 
L 99.332063 131.762517 
L 99.89396 128.008693 
L 100.455856 128.847313 
L 101.017753 130.624389 
L 103.265339 128.268266 
L 103.827236 135.376571 
L 104.389132 125.153391 
L 104.951029 118.284692 
L 106.636719 120.780586 
L 107.198615 117.645744 
L 107.760512 110.297833 
L 108.322408 113.792084 
L 108.884305 111.915172 
L 110.569995 121.020191 
L 111.131891 114.411066 
L 111.693788 122.517728 
L 112.255684 118.644101 
L 112.817581 121.020191 
L 114.503271 110.17803 
L 115.065167 100.933241 
L 115.627064 192.043335 
L 116.750857 199.890424 
L 118.436547 195.038407 
L 118.998443 199.770621 
L 119.56034 194.399458 
L 120.122237 200.768978 
L 120.684133 198.512691 
L 122.369823 196.655746 
L 123.493616 200.030194 
L 124.055513 199.650818 
L 124.617409 194.399458 
L 126.303099 189.048263 
L 126.864995 189.407672 
L 127.426892 185.534045 
L 127.988789 190.286226 
L 128.550685 187.910135 
L 130.236375 186.672172 
L 130.798272 188.78869 
L 131.360168 197.893709 
L 131.922065 193.041692 
L 134.169651 205.880568 
L 134.731548 203.145069 
L 135.293444 203.145069 
L 135.855341 199.271442 
L 136.417237 206.63932 
L 138.102927 201.647533 
L 138.664824 204.642605 
L 139.22672 208.755837 
L 139.788617 207.258301 
L 140.350513 208.496265 
L 142.036203 207.378104 
L 142.5981 209.754195 
L 143.159996 208.256659 
L 143.721893 208.136856 
L 144.283789 207.877283 
L 145.969479 209.135213 
L 146.531376 209.873998 
L 147.093272 206.259944 
L 147.655169 200.389603 
L 148.217065 203.264872 
L 149.902755 202.266514 
L 150.464652 199.890424 
L 151.026548 194.659031 
L 151.588445 191.064945 
L 152.150341 189.667244 
L 153.836031 187.171351 
L 154.397928 184.915063 
L 154.959824 184.296082 
L 155.521721 181.420813 
L 156.083618 176.429026 
L 158.331204 178.42574 
L 158.8931 186.412599 
L 159.454997 179.304295 
L 160.016894 185.534045 
L 161.702583 186.412599 
L 162.26448 187.790333 
L 162.826376 187.291154 
L 163.388273 189.567409 
L 163.95017 192.822054 
L 165.635859 181.979893 
L 166.197756 183.417527 
L 166.759652 181.201174 
L 167.883446 198.892067 
L 169.569135 196.27637 
L 170.131032 200.389603 
L 170.692929 205.38139 
L 171.254825 196.27637 
L 171.816722 251.685204 
L 173.502411 254.680277 
L 174.064308 258.553903 
L 174.626205 255.938207 
L 175.188101 259.053082 
L 175.749998 258.793509 
L 177.435687 259.672063 
L 177.997584 261.409205 
L 178.559481 263.925066 
L 179.121377 263.166314 
L 179.683274 259.053082 
L 181.368964 260.171242 
L 181.93086 262.926708 
L 182.492757 262.926708 
L 183.054653 265.282832 
L 183.61655 264.164672 
L 185.30224 262.407563 
L 185.864136 265.402635 
L 186.426033 266.161386 
L 186.987929 266.161386 
L 187.549826 266.041583 
L 189.797412 264.044869 
L 190.359309 262.167957 
L 190.921205 258.553903 
L 191.483102 258.673706 
L 193.168792 260.291045 
L 193.730688 260.550618 
L 194.292585 263.046511 
L 194.854481 262.786938 
L 195.416378 265.043226 
L 197.102068 264.404277 
L 197.663964 262.667136 
L 198.225861 263.40592 
L 198.787757 265.163029 
L 199.349654 266.161386 
L 201.035344 265.282832 
L 201.59724 265.542405 
L 202.159137 266.161386 
L 203.28293 264.544047 
L 204.96862 265.782011 
L 205.530516 267.099842 
L 206.092413 268.038298 
L 206.65431 270.154816 
L 207.216206 269.036656 
L 208.901896 269.77544 
L 209.463792 269.156458 
L 210.025689 274.527621 
L 210.587586 274.527621 
L 211.149482 273.030085 
L 212.835172 272.770512 
L 213.397068 272.391136 
L 213.958965 273.149888 
L 214.520862 274.268048 
L 215.082758 275.0268 
L 216.768448 274.647424 
L 217.330344 275.146603 
L 217.892241 274.387851 
L 218.454138 275.0268 
L 219.016034 273.149888 
L 221.263621 273.76887 
L 221.825517 273.529264 
L 222.387414 273.529264 
L 222.94931 273.389494 
L 225.196897 273.389494 
L 225.758793 270.394422 
L 226.32069 269.036656 
L 226.882586 270.394422 
L 228.568276 270.035013 
L 229.130173 268.777083 
L 229.692069 270.035013 
L 230.253966 267.159744 
L 230.815862 268.777083 
L 233.063449 268.916853 
L 233.625345 269.535834 
L 234.187242 265.782011 
L 234.749138 264.164672 
L 236.434828 264.66385 
L 236.996725 262.167957 
L 237.558621 262.167957 
L 238.120518 263.286117 
L 238.682414 264.044869 
L 240.368104 259.791866 
L 240.930001 259.672063 
L 241.491897 259.931636 
L 242.61569 261.928351 
L 244.30138 262.786938 
L 244.863277 260.929994 
L 245.425173 261.668778 
L 245.98707 261.668778 
L 246.548967 264.923423 
L 248.234656 263.785296 
L 248.796553 264.923423 
L 249.358449 264.164672 
L 249.920346 263.046511 
L 250.482243 265.163029 
L 252.729829 266.540762 
L 253.291725 265.402635 
L 253.853622 265.542405 
L 254.415519 265.542405 
L 256.101208 264.164672 
L 256.663105 264.404277 
L 257.225002 266.660565 
L 258.348795 264.66385 
L 260.034484 262.407563 
L 260.596381 260.171242 
L 261.158278 260.670421 
L 261.720174 261.548975 
L 263.96776 265.921781 
L 265.091554 262.28776 
L 265.65345 263.785296 
L 266.215347 263.925066 
L 267.901036 262.048154 
L 268.462933 263.785296 
L 269.02483 262.926708 
L 270.148623 257.17617 
L 271.834313 259.612162 
L 272.396209 257.435743 
L 272.958106 258.833443 
L 273.520002 258.114626 
L 274.081899 259.033115 
L 275.767589 259.991538 
L 276.329485 262.687103 
L 276.891382 264.164672 
L 277.453278 261.429172 
L 278.015175 261.988253 
L 279.700865 262.088088 
L 280.262761 259.093016 
L 280.824658 259.572228 
L 281.386554 258.334265 
L 283.634141 260.291045 
L 284.196037 262.367628 
L 284.757934 257.59548 
L 285.31983 251.745106 
L 285.881727 253.102872 
L 288.129313 255.119554 
L 288.69121 253.741821 
L 289.253106 253.801722 
L 289.815003 250.786683 
L 291.500693 252.20435 
L 292.062589 251.325796 
L 292.624486 250.007964 
L 293.186382 253.262609 
L 293.748279 251.685204 
L 295.433969 253.262609 
L 295.995865 254.041328 
L 296.557762 255.21939 
L 297.119659 257.17617 
L 297.681555 257.475677 
L 299.367245 256.597123 
L 299.929141 256.816761 
L 300.491038 254.979784 
L 301.052935 256.077977 
L 301.614831 256.117911 
L 303.300521 256.05801 
L 303.862417 256.177813 
L 304.424314 256.716926 
L 304.986211 256.776827 
L 305.548107 257.655382 
L 307.795694 260.231144 
L 308.35759 263.605591 
L 308.919487 263.26615 
L 309.481383 261.389238 
L 311.167073 261.848483 
L 311.72897 261.289402 
L 312.290866 261.708712 
L 312.852763 259.851768 
L 313.414659 260.530651 
L 315.100349 263.086446 
L 315.662246 262.547333 
L 316.224142 262.227858 
L 316.786039 263.40592 
L 317.347935 262.28776 
L 319.033625 262.507398 
L 319.595522 262.786938 
L 320.157418 259.831801 
L 320.719315 258.194495 
L 321.281211 258.653739 
L 322.966901 255.199422 
L 323.528798 255.678634 
L 324.090694 256.497287 
L 324.652591 256.097944 
L 325.214487 256.676991 
L 326.900177 255.379127 
L 327.462074 255.49893 
L 328.585867 256.796794 
L 329.147763 259.112983 
L 330.833453 257.775184 
L 331.39535 260.890059 
L 331.957246 258.094659 
L 332.519143 254.460638 
L 333.08104 253.482248 
L 334.766729 255.259324 
L 335.328626 252.983069 
L 335.890522 261.58891 
L 336.452419 263.246183 
L 337.014316 263.206249 
L 338.700005 264.084803 
L 339.261902 264.983325 
L 339.823798 266.221288 
L 340.385695 265.981682 
L 340.947592 265.242898 
L 342.633281 265.302799 
L 343.195178 265.582339 
L 343.757075 265.043226 
L 344.318971 263.525723 
L 344.880868 264.164672 
L 346.566557 264.903456 
L 347.128454 264.66385 
L 347.690351 265.3627 
L 348.252247 265.063193 
L 348.814144 265.123095 
L 350.499833 264.983325 
L 351.623627 266.281189 
L 352.185523 265.861879 
L 352.74742 267.019974 
L 354.433109 266.920138 
L 354.995006 267.319481 
L 355.556903 266.740434 
L 356.118799 267.53912 
L 356.680696 266.021616 
L 358.366386 265.322766 
L 359.490179 267.499185 
L 360.052075 267.499185 
L 360.613972 266.061551 
L 362.861558 266.660565 
L 363.423455 266.061551 
L 363.985351 267.718824 
L 364.547248 268.597378 
L 366.232938 268.417674 
L 370.166214 269.176426 
L 370.72811 270.594093 
L 371.290007 269.116524 
L 371.851903 271.792122 
L 372.4138 271.692286 
L 374.09949 270.254652 
L 374.661386 272.071662 
L 375.223283 272.850381 
L 375.785179 272.131563 
L 378.032766 272.071662 
L 378.594662 273.050052 
L 379.156559 273.189822 
L 379.718455 271.392779 
L 380.280352 270.873633 
L 381.966042 270.75383 
L 382.527938 271.153173 
L 383.651732 267.67889 
L 384.213628 267.139777 
L 386.461214 267.139777 
L 387.023111 269.176426 
L 387.585008 267.159744 
L 388.146904 266.560729 
L 389.832594 265.123095 
L 390.39449 266.880204 
L 390.956387 265.262865 
L 391.518284 264.783653 
L 392.08018 265.821945 
L 393.76587 267.898528 
L 394.889663 268.038298 
L 395.45156 265.981682 
L 396.013456 266.021616 
L 397.699146 265.023259 
L 398.261043 264.024902 
L 398.822939 263.984967 
L 399.384836 265.742076 
L 401.632422 265.662208 
L 402.194319 264.424245 
L 402.756215 263.945033 
L 403.318112 264.264507 
L 403.880008 265.22293 
L 405.565698 263.166314 
L 406.127595 264.10477 
L 406.689491 263.805263 
L 407.813284 263.485789 
L 409.498974 260.430815 
L 410.060871 261.1696 
L 410.622767 262.108055 
L 411.184664 262.327694 
L 411.74656 260.570585 
L 413.43225 261.069764 
L 414.556043 255.658667 
L 415.11794 257.615447 
L 415.679836 258.094659 
L 417.365526 258.094659 
L 417.927423 259.612162 
L 418.489319 260.191209 
L 419.051216 261.1696 
L 419.613113 262.387596 
L 421.298802 261.928351 
L 421.860699 261.149632 
L 422.422595 259.931636 
L 422.984492 261.828515 
L 423.546389 261.1696 
L 425.232078 260.450782 
L 426.355871 260.191209 
L 426.917768 259.033115 
L 427.479665 258.314297 
L 429.165354 259.372556 
L 429.165354 259.372556 
" style="fill:none;stroke:#c371d2;stroke-linecap:round;"/>
   </g>
   <g id="legend_1">
    <g id="patch_5">
     <path d="M 376.171604 56.204646 
L 423.565354 56.204646 
Q 425.165354 56.204646 425.165354 54.604646 
L 425.165354 8.434646 
Q 425.165354 6.834646 423.565354 6.834646 
L 376.171604 6.834646 
Q 374.571604 6.834646 374.571604 8.434646 
L 374.571604 54.604646 
Q 374.571604 56.204646 376.171604 56.204646 
z
" style="fill:#ffffff;opacity:0.8;stroke:#000000;stroke-linejoin:miter;"/>
    </g>
    <g id="line2d_27">
     <path d="M 377.771604 13.313396 
L 393.771604 13.313396 
" style="fill:none;stroke:#009afa;stroke-linecap:round;"/>
    </g>
    <g id="line2d_28"/>
    <g id="text_12">
     <!-- Open -->
     <defs>
      <path d="M 39.40625 66.21875 
Q 28.65625 66.21875 22.328125 58.203125 
Q 16.015625 50.203125 16.015625 36.375 
Q 16.015625 22.609375 22.328125 14.59375 
Q 28.65625 6.59375 39.40625 6.59375 
Q 50.140625 6.59375 56.421875 14.59375 
Q 62.703125 22.609375 62.703125 36.375 
Q 62.703125 50.203125 56.421875 58.203125 
Q 50.140625 66.21875 39.40625 66.21875 
z
M 39.40625 74.21875 
Q 54.734375 74.21875 63.90625 63.9375 
Q 73.09375 53.65625 73.09375 36.375 
Q 73.09375 19.140625 63.90625 8.859375 
Q 54.734375 -1.421875 39.40625 -1.421875 
Q 24.03125 -1.421875 14.8125 8.828125 
Q 5.609375 19.09375 5.609375 36.375 
Q 5.609375 53.65625 14.8125 63.9375 
Q 24.03125 74.21875 39.40625 74.21875 
z
" id="DejaVuSans-4f"/>
      <path d="M 18.109375 8.203125 
L 18.109375 -20.796875 
L 9.078125 -20.796875 
L 9.078125 54.6875 
L 18.109375 54.6875 
L 18.109375 46.390625 
Q 20.953125 51.265625 25.265625 53.625 
Q 29.59375 56 35.59375 56 
Q 45.5625 56 51.78125 48.09375 
Q 58.015625 40.1875 58.015625 27.296875 
Q 58.015625 14.40625 51.78125 6.484375 
Q 45.5625 -1.421875 35.59375 -1.421875 
Q 29.59375 -1.421875 25.265625 0.953125 
Q 20.953125 3.328125 18.109375 8.203125 
z
M 48.6875 27.296875 
Q 48.6875 37.203125 44.609375 42.84375 
Q 40.53125 48.484375 33.40625 48.484375 
Q 26.265625 48.484375 22.1875 42.84375 
Q 18.109375 37.203125 18.109375 27.296875 
Q 18.109375 17.390625 22.1875 11.75 
Q 26.265625 6.109375 33.40625 6.109375 
Q 40.53125 6.109375 44.609375 11.75 
Q 48.6875 17.390625 48.6875 27.296875 
z
" id="DejaVuSans-70"/>
      <path d="M 56.203125 29.59375 
L 56.203125 25.203125 
L 14.890625 25.203125 
Q 15.484375 15.921875 20.484375 11.0625 
Q 25.484375 6.203125 34.421875 6.203125 
Q 39.59375 6.203125 44.453125 7.46875 
Q 49.3125 8.734375 54.109375 11.28125 
L 54.109375 2.78125 
Q 49.265625 0.734375 44.1875 -0.34375 
Q 39.109375 -1.421875 33.890625 -1.421875 
Q 20.796875 -1.421875 13.15625 6.1875 
Q 5.515625 13.8125 5.515625 26.8125 
Q 5.515625 40.234375 12.765625 48.109375 
Q 20.015625 56 32.328125 56 
Q 43.359375 56 49.78125 48.890625 
Q 56.203125 41.796875 56.203125 29.59375 
z
M 47.21875 32.234375 
Q 47.125 39.59375 43.09375 43.984375 
Q 39.0625 48.390625 32.421875 48.390625 
Q 24.90625 48.390625 20.390625 44.140625 
Q 15.875 39.890625 15.1875 32.171875 
z
" id="DejaVuSans-65"/>
      <path d="M 54.890625 33.015625 
L 54.890625 0 
L 45.90625 0 
L 45.90625 32.71875 
Q 45.90625 40.484375 42.875 44.328125 
Q 39.84375 48.1875 33.796875 48.1875 
Q 26.515625 48.1875 22.3125 43.546875 
Q 18.109375 38.921875 18.109375 30.90625 
L 18.109375 0 
L 9.078125 0 
L 9.078125 54.6875 
L 18.109375 54.6875 
L 18.109375 46.1875 
Q 21.34375 51.125 25.703125 53.5625 
Q 30.078125 56 35.796875 56 
Q 45.21875 56 50.046875 50.171875 
Q 54.890625 44.34375 54.890625 33.015625 
z
" id="DejaVuSans-6e"/>
     </defs>
     <g transform="translate(400.171604 16.113396)scale(0.08 -0.08)">
      <use xlink:href="#DejaVuSans-4f"/>
      <use x="78.710938" xlink:href="#DejaVuSans-70"/>
      <use x="142.1875" xlink:href="#DejaVuSans-65"/>
      <use x="203.710938" xlink:href="#DejaVuSans-6e"/>
     </g>
    </g>
    <g id="line2d_29">
     <path d="M 377.771604 25.055896 
L 393.771604 25.055896 
" style="fill:none;stroke:#e36f47;stroke-linecap:round;"/>
    </g>
    <g id="line2d_30"/>
    <g id="text_13">
     <!-- High -->
     <defs>
      <path d="M 9.8125 72.90625 
L 19.671875 72.90625 
L 19.671875 43.015625 
L 55.515625 43.015625 
L 55.515625 72.90625 
L 65.375 72.90625 
L 65.375 0 
L 55.515625 0 
L 55.515625 34.71875 
L 19.671875 34.71875 
L 19.671875 0 
L 9.8125 0 
z
" id="DejaVuSans-48"/>
      <path d="M 9.421875 54.6875 
L 18.40625 54.6875 
L 18.40625 0 
L 9.421875 0 
z
M 9.421875 75.984375 
L 18.40625 75.984375 
L 18.40625 64.59375 
L 9.421875 64.59375 
z
" id="DejaVuSans-69"/>
      <path d="M 45.40625 27.984375 
Q 45.40625 37.75 41.375 43.109375 
Q 37.359375 48.484375 30.078125 48.484375 
Q 22.859375 48.484375 18.828125 43.109375 
Q 14.796875 37.75 14.796875 27.984375 
Q 14.796875 18.265625 18.828125 12.890625 
Q 22.859375 7.515625 30.078125 7.515625 
Q 37.359375 7.515625 41.375 12.890625 
Q 45.40625 18.265625 45.40625 27.984375 
z
M 54.390625 6.78125 
Q 54.390625 -7.171875 48.1875 -13.984375 
Q 42 -20.796875 29.203125 -20.796875 
Q 24.46875 -20.796875 20.265625 -20.09375 
Q 16.0625 -19.390625 12.109375 -17.921875 
L 12.109375 -9.1875 
Q 16.0625 -11.328125 19.921875 -12.34375 
Q 23.78125 -13.375 27.78125 -13.375 
Q 36.625 -13.375 41.015625 -8.765625 
Q 45.40625 -4.15625 45.40625 5.171875 
L 45.40625 9.625 
Q 42.625 4.78125 38.28125 2.390625 
Q 33.9375 0 27.875 0 
Q 17.828125 0 11.671875 7.65625 
Q 5.515625 15.328125 5.515625 27.984375 
Q 5.515625 40.671875 11.671875 48.328125 
Q 17.828125 56 27.875 56 
Q 33.9375 56 38.28125 53.609375 
Q 42.625 51.21875 45.40625 46.390625 
L 45.40625 54.6875 
L 54.390625 54.6875 
z
" id="DejaVuSans-67"/>
      <path d="M 54.890625 33.015625 
L 54.890625 0 
L 45.90625 0 
L 45.90625 32.71875 
Q 45.90625 40.484375 42.875 44.328125 
Q 39.84375 48.1875 33.796875 48.1875 
Q 26.515625 48.1875 22.3125 43.546875 
Q 18.109375 38.921875 18.109375 30.90625 
L 18.109375 0 
L 9.078125 0 
L 9.078125 75.984375 
L 18.109375 75.984375 
L 18.109375 46.1875 
Q 21.34375 51.125 25.703125 53.5625 
Q 30.078125 56 35.796875 56 
Q 45.21875 56 50.046875 50.171875 
Q 54.890625 44.34375 54.890625 33.015625 
z
" id="DejaVuSans-68"/>
     </defs>
     <g transform="translate(400.171604 27.855896)scale(0.08 -0.08)">
      <use xlink:href="#DejaVuSans-48"/>
      <use x="75.195312" xlink:href="#DejaVuSans-69"/>
      <use x="102.978516" xlink:href="#DejaVuSans-67"/>
      <use x="166.455078" xlink:href="#DejaVuSans-68"/>
     </g>
    </g>
    <g id="line2d_31">
     <path d="M 377.771604 36.798396 
L 393.771604 36.798396 
" style="fill:none;stroke:#3ea44e;stroke-linecap:round;"/>
    </g>
    <g id="line2d_32"/>
    <g id="text_14">
     <!-- Low -->
     <defs>
      <path d="M 9.8125 72.90625 
L 19.671875 72.90625 
L 19.671875 8.296875 
L 55.171875 8.296875 
L 55.171875 0 
L 9.8125 0 
z
" id="DejaVuSans-4c"/>
      <path d="M 30.609375 48.390625 
Q 23.390625 48.390625 19.1875 42.75 
Q 14.984375 37.109375 14.984375 27.296875 
Q 14.984375 17.484375 19.15625 11.84375 
Q 23.34375 6.203125 30.609375 6.203125 
Q 37.796875 6.203125 41.984375 11.859375 
Q 46.1875 17.53125 46.1875 27.296875 
Q 46.1875 37.015625 41.984375 42.703125 
Q 37.796875 48.390625 30.609375 48.390625 
z
M 30.609375 56 
Q 42.328125 56 49.015625 48.375 
Q 55.71875 40.765625 55.71875 27.296875 
Q 55.71875 13.875 49.015625 6.21875 
Q 42.328125 -1.421875 30.609375 -1.421875 
Q 18.84375 -1.421875 12.171875 6.21875 
Q 5.515625 13.875 5.515625 27.296875 
Q 5.515625 40.765625 12.171875 48.375 
Q 18.84375 56 30.609375 56 
z
" id="DejaVuSans-6f"/>
      <path d="M 4.203125 54.6875 
L 13.1875 54.6875 
L 24.421875 12.015625 
L 35.59375 54.6875 
L 46.1875 54.6875 
L 57.421875 12.015625 
L 68.609375 54.6875 
L 77.59375 54.6875 
L 63.28125 0 
L 52.6875 0 
L 40.921875 44.828125 
L 29.109375 0 
L 18.5 0 
z
" id="DejaVuSans-77"/>
     </defs>
     <g transform="translate(400.171604 39.598396)scale(0.08 -0.08)">
      <use xlink:href="#DejaVuSans-4c"/>
      <use x="55.697266" xlink:href="#DejaVuSans-6f"/>
      <use x="116.878906" xlink:href="#DejaVuSans-77"/>
     </g>
    </g>
    <g id="line2d_33">
     <path d="M 377.771604 48.540896 
L 393.771604 48.540896 
" style="fill:none;stroke:#c371d2;stroke-linecap:round;"/>
    </g>
    <g id="line2d_34"/>
    <g id="text_15">
     <!-- Close -->
     <defs>
      <path d="M 64.40625 67.28125 
L 64.40625 56.890625 
Q 59.421875 61.53125 53.78125 63.8125 
Q 48.140625 66.109375 41.796875 66.109375 
Q 29.296875 66.109375 22.65625 58.46875 
Q 16.015625 50.828125 16.015625 36.375 
Q 16.015625 21.96875 22.65625 14.328125 
Q 29.296875 6.6875 41.796875 6.6875 
Q 48.140625 6.6875 53.78125 8.984375 
Q 59.421875 11.28125 64.40625 15.921875 
L 64.40625 5.609375 
Q 59.234375 2.09375 53.4375 0.328125 
Q 47.65625 -1.421875 41.21875 -1.421875 
Q 24.65625 -1.421875 15.125 8.703125 
Q 5.609375 18.84375 5.609375 36.375 
Q 5.609375 53.953125 15.125 64.078125 
Q 24.65625 74.21875 41.21875 74.21875 
Q 47.75 74.21875 53.53125 72.484375 
Q 59.328125 70.75 64.40625 67.28125 
z
" id="DejaVuSans-43"/>
      <path d="M 9.421875 75.984375 
L 18.40625 75.984375 
L 18.40625 0 
L 9.421875 0 
z
" id="DejaVuSans-6c"/>
      <path d="M 44.28125 53.078125 
L 44.28125 44.578125 
Q 40.484375 46.53125 36.375 47.5 
Q 32.28125 48.484375 27.875 48.484375 
Q 21.1875 48.484375 17.84375 46.4375 
Q 14.5 44.390625 14.5 40.28125 
Q 14.5 37.15625 16.890625 35.375 
Q 19.28125 33.59375 26.515625 31.984375 
L 29.59375 31.296875 
Q 39.15625 29.25 43.1875 25.515625 
Q 47.21875 21.78125 47.21875 15.09375 
Q 47.21875 7.46875 41.1875 3.015625 
Q 35.15625 -1.421875 24.609375 -1.421875 
Q 20.21875 -1.421875 15.453125 -0.5625 
Q 10.6875 0.296875 5.421875 2 
L 5.421875 11.28125 
Q 10.40625 8.6875 15.234375 7.390625 
Q 20.0625 6.109375 24.8125 6.109375 
Q 31.15625 6.109375 34.5625 8.28125 
Q 37.984375 10.453125 37.984375 14.40625 
Q 37.984375 18.0625 35.515625 20.015625 
Q 33.0625 21.96875 24.703125 23.78125 
L 21.578125 24.515625 
Q 13.234375 26.265625 9.515625 29.90625 
Q 5.8125 33.546875 5.8125 39.890625 
Q 5.8125 47.609375 11.28125 51.796875 
Q 16.75 56 26.8125 56 
Q 31.78125 56 36.171875 55.265625 
Q 40.578125 54.546875 44.28125 53.078125 
z
" id="DejaVuSans-73"/>
     </defs>
     <g transform="translate(400.171604 51.340896)scale(0.08 -0.08)">
      <use xlink:href="#DejaVuSans-43"/>
      <use x="69.824219" xlink:href="#DejaVuSans-6c"/>
      <use x="97.607422" xlink:href="#DejaVuSans-6f"/>
      <use x="158.789062" xlink:href="#DejaVuSans-73"/>
      <use x="210.888672" xlink:href="#DejaVuSans-65"/>
     </g>
    </g>
   </g>
  </g>
 </g>
 <defs>
  <clipPath id="p3f1949cee6">
   <rect height="273.070709" width="409.060709" x="20.104646" y="2.834646"/>
  </clipPath>
 </defs>
</svg>
