<?xml version="1.0" encoding="utf-8"?>
<svg xmlns="http://www.w3.org/2000/svg" xmlns:xlink="http://www.w3.org/1999/xlink" width="600" height="400" viewBox="0 0 2400 1600">
<defs>
  <clipPath id="clip310">
    <rect x="0" y="0" width="2400" height="1600"/>
  </clipPath>
</defs>
<path clip-path="url(#clip310)" d="M0 1600 L2400 1600 L2400 0 L0 0  Z" fill="#ffffff" fill-rule="evenodd" fill-opacity="1"/>
<defs>
  <clipPath id="clip311">
    <rect x="480" y="0" width="1681" height="1600"/>
  </clipPath>
</defs>
<path clip-path="url(#clip310)" d="M214.353 1486.45 L2352.76 1486.45 L2352.76 47.2441 L214.353 47.2441  Z" fill="#ffffff" fill-rule="evenodd" fill-opacity="1"/>
<defs>
  <clipPath id="clip312">
    <rect x="214" y="47" width="2139" height="1440"/>
  </clipPath>
</defs>
<polyline clip-path="url(#clip312)" style="stroke:#000000; stroke-linecap:round; stroke-linejoin:round; stroke-width:2; stroke-opacity:0.1; fill:none" points="274.873,1486.45 274.873,47.2441 "/>
<polyline clip-path="url(#clip312)" style="stroke:#000000; stroke-linecap:round; stroke-linejoin:round; stroke-width:2; stroke-opacity:0.1; fill:none" points="779.214,1486.45 779.214,47.2441 "/>
<polyline clip-path="url(#clip312)" style="stroke:#000000; stroke-linecap:round; stroke-linejoin:round; stroke-width:2; stroke-opacity:0.1; fill:none" points="1283.55,1486.45 1283.55,47.2441 "/>
<polyline clip-path="url(#clip312)" style="stroke:#000000; stroke-linecap:round; stroke-linejoin:round; stroke-width:2; stroke-opacity:0.1; fill:none" points="1787.89,1486.45 1787.89,47.2441 "/>
<polyline clip-path="url(#clip312)" style="stroke:#000000; stroke-linecap:round; stroke-linejoin:round; stroke-width:2; stroke-opacity:0.1; fill:none" points="2292.24,1486.45 2292.24,47.2441 "/>
<polyline clip-path="url(#clip310)" style="stroke:#000000; stroke-linecap:round; stroke-linejoin:round; stroke-width:4; stroke-opacity:1; fill:none" points="214.353,1486.45 2352.76,1486.45 "/>
<polyline clip-path="url(#clip310)" style="stroke:#000000; stroke-linecap:round; stroke-linejoin:round; stroke-width:4; stroke-opacity:1; fill:none" points="274.873,1486.45 274.873,1467.55 "/>
<polyline clip-path="url(#clip310)" style="stroke:#000000; stroke-linecap:round; stroke-linejoin:round; stroke-width:4; stroke-opacity:1; fill:none" points="779.214,1486.45 779.214,1467.55 "/>
<polyline clip-path="url(#clip310)" style="stroke:#000000; stroke-linecap:round; stroke-linejoin:round; stroke-width:4; stroke-opacity:1; fill:none" points="1283.55,1486.45 1283.55,1467.55 "/>
<polyline clip-path="url(#clip310)" style="stroke:#000000; stroke-linecap:round; stroke-linejoin:round; stroke-width:4; stroke-opacity:1; fill:none" points="1787.89,1486.45 1787.89,1467.55 "/>
<polyline clip-path="url(#clip310)" style="stroke:#000000; stroke-linecap:round; stroke-linejoin:round; stroke-width:4; stroke-opacity:1; fill:none" points="2292.24,1486.45 2292.24,1467.55 "/>
<path clip-path="url(#clip310)" d="M146.552 1544.91 L162.872 1544.91 L162.872 1548.85 L140.927 1548.85 L140.927 1544.91 Q143.589 1542.16 148.173 1537.53 Q152.779 1532.88 153.96 1531.53 Q156.205 1529.01 157.085 1527.27 Q157.987 1525.51 157.987 1523.82 Q157.987 1521.07 156.043 1519.33 Q154.122 1517.6 151.02 1517.6 Q148.821 1517.6 146.367 1518.36 Q143.937 1519.13 141.159 1520.68 L141.159 1515.95 Q143.983 1514.82 146.437 1514.24 Q148.89 1513.66 150.927 1513.66 Q156.298 1513.66 159.492 1516.35 Q162.687 1519.03 162.687 1523.52 Q162.687 1525.65 161.876 1527.57 Q161.089 1529.47 158.983 1532.07 Q158.404 1532.74 155.302 1535.95 Q152.2 1539.15 146.552 1544.91 Z" fill="#000000" fill-rule="nonzero" fill-opacity="1" /><path clip-path="url(#clip310)" d="M182.686 1517.37 Q179.075 1517.37 177.247 1520.93 Q175.441 1524.47 175.441 1531.6 Q175.441 1538.71 177.247 1542.27 Q179.075 1545.82 182.686 1545.82 Q186.321 1545.82 188.126 1542.27 Q189.955 1538.71 189.955 1531.6 Q189.955 1524.47 188.126 1520.93 Q186.321 1517.37 182.686 1517.37 M182.686 1513.66 Q188.497 1513.66 191.552 1518.27 Q194.631 1522.85 194.631 1531.6 Q194.631 1540.33 191.552 1544.94 Q188.497 1549.52 182.686 1549.52 Q176.876 1549.52 173.798 1544.94 Q170.742 1540.33 170.742 1531.6 Q170.742 1522.85 173.798 1518.27 Q176.876 1513.66 182.686 1513.66 Z" fill="#000000" fill-rule="nonzero" fill-opacity="1" /><path clip-path="url(#clip310)" d="M206.876 1544.91 L223.195 1544.91 L223.195 1548.85 L201.251 1548.85 L201.251 1544.91 Q203.913 1542.16 208.496 1537.53 Q213.103 1532.88 214.283 1531.53 Q216.529 1529.01 217.408 1527.27 Q218.311 1525.51 218.311 1523.82 Q218.311 1521.07 216.367 1519.33 Q214.445 1517.6 211.344 1517.6 Q209.145 1517.6 206.691 1518.36 Q204.26 1519.13 201.483 1520.68 L201.483 1515.95 Q204.307 1514.82 206.76 1514.24 Q209.214 1513.66 211.251 1513.66 Q216.621 1513.66 219.816 1516.35 Q223.01 1519.03 223.01 1523.52 Q223.01 1525.65 222.2 1527.57 Q221.413 1529.47 219.307 1532.07 Q218.728 1532.74 215.626 1535.95 Q212.524 1539.15 206.876 1544.91 Z" fill="#000000" fill-rule="nonzero" fill-opacity="1" /><path clip-path="url(#clip310)" d="M245.857 1518.36 L234.052 1536.81 L245.857 1536.81 L245.857 1518.36 M244.631 1514.29 L250.51 1514.29 L250.51 1536.81 L255.441 1536.81 L255.441 1540.7 L250.51 1540.7 L250.51 1548.85 L245.857 1548.85 L245.857 1540.7 L230.256 1540.7 L230.256 1536.19 L244.631 1514.29 Z" fill="#000000" fill-rule="nonzero" fill-opacity="1" /><path clip-path="url(#clip310)" d="M260.417 1533.96 L272.894 1533.96 L272.894 1537.76 L260.417 1537.76 L260.417 1533.96 Z" fill="#000000" fill-rule="nonzero" fill-opacity="1" /><path clip-path="url(#clip310)" d="M290.278 1517.37 Q286.667 1517.37 284.839 1520.93 Q283.033 1524.47 283.033 1531.6 Q283.033 1538.71 284.839 1542.27 Q286.667 1545.82 290.278 1545.82 Q293.913 1545.82 295.718 1542.27 Q297.547 1538.71 297.547 1531.6 Q297.547 1524.47 295.718 1520.93 Q293.913 1517.37 290.278 1517.37 M290.278 1513.66 Q296.089 1513.66 299.144 1518.27 Q302.223 1522.85 302.223 1531.6 Q302.223 1540.33 299.144 1544.94 Q296.089 1549.52 290.278 1549.52 Q284.468 1549.52 281.39 1544.94 Q278.334 1540.33 278.334 1531.6 Q278.334 1522.85 281.39 1518.27 Q284.468 1513.66 290.278 1513.66 Z" fill="#000000" fill-rule="nonzero" fill-opacity="1" /><path clip-path="url(#clip310)" d="M324.607 1530.21 Q327.963 1530.93 329.838 1533.2 Q331.737 1535.47 331.737 1538.8 Q331.737 1543.92 328.218 1546.72 Q324.7 1549.52 318.218 1549.52 Q316.042 1549.52 313.727 1549.08 Q311.436 1548.66 308.982 1547.81 L308.982 1543.29 Q310.926 1544.43 313.241 1545.01 Q315.556 1545.58 318.079 1545.58 Q322.477 1545.58 324.769 1543.85 Q327.084 1542.11 327.084 1538.8 Q327.084 1535.75 324.931 1534.03 Q322.801 1532.3 318.982 1532.3 L314.954 1532.3 L314.954 1528.45 L319.167 1528.45 Q322.616 1528.45 324.445 1527.09 Q326.274 1525.7 326.274 1523.11 Q326.274 1520.45 324.375 1519.03 Q322.5 1517.6 318.982 1517.6 Q317.061 1517.6 314.862 1518.01 Q312.663 1518.43 310.024 1519.31 L310.024 1515.14 Q312.686 1514.4 315.001 1514.03 Q317.338 1513.66 319.399 1513.66 Q324.723 1513.66 327.825 1516.09 Q330.926 1518.5 330.926 1522.62 Q330.926 1525.49 329.283 1527.48 Q327.639 1529.45 324.607 1530.21 Z" fill="#000000" fill-rule="nonzero" fill-opacity="1" /><path clip-path="url(#clip310)" d="M337.848 1533.96 L350.324 1533.96 L350.324 1537.76 L337.848 1537.76 L337.848 1533.96 Z" fill="#000000" fill-rule="nonzero" fill-opacity="1" /><path clip-path="url(#clip310)" d="M361.736 1544.91 L378.056 1544.91 L378.056 1548.85 L356.111 1548.85 L356.111 1544.91 Q358.773 1542.16 363.357 1537.53 Q367.963 1532.88 369.144 1531.53 Q371.389 1529.01 372.269 1527.27 Q373.171 1525.51 373.171 1523.82 Q373.171 1521.07 371.227 1519.33 Q369.306 1517.6 366.204 1517.6 Q364.005 1517.6 361.551 1518.36 Q359.121 1519.13 356.343 1520.68 L356.343 1515.95 Q359.167 1514.82 361.621 1514.24 Q364.074 1513.66 366.111 1513.66 Q371.482 1513.66 374.676 1516.35 Q377.871 1519.03 377.871 1523.52 Q377.871 1525.65 377.06 1527.57 Q376.273 1529.47 374.167 1532.07 Q373.588 1532.74 370.486 1535.95 Q367.384 1539.15 361.736 1544.91 Z" fill="#000000" fill-rule="nonzero" fill-opacity="1" /><path clip-path="url(#clip310)" d="M387.917 1514.29 L406.273 1514.29 L406.273 1518.22 L392.199 1518.22 L392.199 1526.7 Q393.218 1526.35 394.236 1526.19 Q395.255 1526 396.273 1526 Q402.06 1526 405.44 1529.17 Q408.819 1532.34 408.819 1537.76 Q408.819 1543.34 405.347 1546.44 Q401.875 1549.52 395.556 1549.52 Q393.38 1549.52 391.111 1549.15 Q388.866 1548.78 386.458 1548.04 L386.458 1543.34 Q388.542 1544.47 390.764 1545.03 Q392.986 1545.58 395.463 1545.58 Q399.468 1545.58 401.806 1543.48 Q404.144 1541.37 404.144 1537.76 Q404.144 1534.15 401.806 1532.04 Q399.468 1529.94 395.463 1529.94 Q393.588 1529.94 391.713 1530.35 Q389.861 1530.77 387.917 1531.65 L387.917 1514.29 Z" fill="#000000" fill-rule="nonzero" fill-opacity="1" /><path clip-path="url(#clip310)" d="M651.008 1544.91 L667.328 1544.91 L667.328 1548.85 L645.384 1548.85 L645.384 1544.91 Q648.046 1542.16 652.629 1537.53 Q657.235 1532.88 658.416 1531.53 Q660.661 1529.01 661.541 1527.27 Q662.444 1525.51 662.444 1523.82 Q662.444 1521.07 660.499 1519.33 Q658.578 1517.6 655.476 1517.6 Q653.277 1517.6 650.823 1518.36 Q648.393 1519.13 645.615 1520.68 L645.615 1515.95 Q648.439 1514.82 650.893 1514.24 Q653.346 1513.66 655.383 1513.66 Q660.754 1513.66 663.948 1516.35 Q667.143 1519.03 667.143 1523.52 Q667.143 1525.65 666.332 1527.57 Q665.545 1529.47 663.439 1532.07 Q662.86 1532.74 659.758 1535.95 Q656.657 1539.15 651.008 1544.91 Z" fill="#000000" fill-rule="nonzero" fill-opacity="1" /><path clip-path="url(#clip310)" d="M687.143 1517.37 Q683.531 1517.37 681.703 1520.93 Q679.897 1524.47 679.897 1531.6 Q679.897 1538.71 681.703 1542.27 Q683.531 1545.82 687.143 1545.82 Q690.777 1545.82 692.582 1542.27 Q694.411 1538.71 694.411 1531.6 Q694.411 1524.47 692.582 1520.93 Q690.777 1517.37 687.143 1517.37 M687.143 1513.66 Q692.953 1513.66 696.008 1518.27 Q699.087 1522.85 699.087 1531.6 Q699.087 1540.33 696.008 1544.94 Q692.953 1549.52 687.143 1549.52 Q681.332 1549.52 678.254 1544.94 Q675.198 1540.33 675.198 1531.6 Q675.198 1522.85 678.254 1518.27 Q681.332 1513.66 687.143 1513.66 Z" fill="#000000" fill-rule="nonzero" fill-opacity="1" /><path clip-path="url(#clip310)" d="M711.332 1544.91 L727.652 1544.91 L727.652 1548.85 L705.707 1548.85 L705.707 1544.91 Q708.369 1542.16 712.953 1537.53 Q717.559 1532.88 718.74 1531.53 Q720.985 1529.01 721.865 1527.27 Q722.767 1525.51 722.767 1523.82 Q722.767 1521.07 720.823 1519.33 Q718.902 1517.6 715.8 1517.6 Q713.601 1517.6 711.147 1518.36 Q708.717 1519.13 705.939 1520.68 L705.939 1515.95 Q708.763 1514.82 711.216 1514.24 Q713.67 1513.66 715.707 1513.66 Q721.078 1513.66 724.272 1516.35 Q727.466 1519.03 727.466 1523.52 Q727.466 1525.65 726.656 1527.57 Q725.869 1529.47 723.763 1532.07 Q723.184 1532.74 720.082 1535.95 Q716.98 1539.15 711.332 1544.91 Z" fill="#000000" fill-rule="nonzero" fill-opacity="1" /><path clip-path="url(#clip310)" d="M750.314 1518.36 L738.508 1536.81 L750.314 1536.81 L750.314 1518.36 M749.087 1514.29 L754.966 1514.29 L754.966 1536.81 L759.897 1536.81 L759.897 1540.7 L754.966 1540.7 L754.966 1548.85 L750.314 1548.85 L750.314 1540.7 L734.712 1540.7 L734.712 1536.19 L749.087 1514.29 Z" fill="#000000" fill-rule="nonzero" fill-opacity="1" /><path clip-path="url(#clip310)" d="M764.874 1533.96 L777.35 1533.96 L777.35 1537.76 L764.874 1537.76 L764.874 1533.96 Z" fill="#000000" fill-rule="nonzero" fill-opacity="1" /><path clip-path="url(#clip310)" d="M794.735 1517.37 Q791.123 1517.37 789.295 1520.93 Q787.489 1524.47 787.489 1531.6 Q787.489 1538.71 789.295 1542.27 Q791.123 1545.82 794.735 1545.82 Q798.369 1545.82 800.174 1542.27 Q802.003 1538.71 802.003 1531.6 Q802.003 1524.47 800.174 1520.93 Q798.369 1517.37 794.735 1517.37 M794.735 1513.66 Q800.545 1513.66 803.6 1518.27 Q806.679 1522.85 806.679 1531.6 Q806.679 1540.33 803.6 1544.94 Q800.545 1549.52 794.735 1549.52 Q788.924 1549.52 785.846 1544.94 Q782.79 1540.33 782.79 1531.6 Q782.79 1522.85 785.846 1518.27 Q788.924 1513.66 794.735 1513.66 Z" fill="#000000" fill-rule="nonzero" fill-opacity="1" /><path clip-path="url(#clip310)" d="M827.744 1518.36 L815.938 1536.81 L827.744 1536.81 L827.744 1518.36 M826.517 1514.29 L832.396 1514.29 L832.396 1536.81 L837.327 1536.81 L837.327 1540.7 L832.396 1540.7 L832.396 1548.85 L827.744 1548.85 L827.744 1540.7 L812.142 1540.7 L812.142 1536.19 L826.517 1514.29 Z" fill="#000000" fill-rule="nonzero" fill-opacity="1" /><path clip-path="url(#clip310)" d="M842.304 1533.96 L854.781 1533.96 L854.781 1537.76 L842.304 1537.76 L842.304 1533.96 Z" fill="#000000" fill-rule="nonzero" fill-opacity="1" /><path clip-path="url(#clip310)" d="M872.165 1517.37 Q868.554 1517.37 866.725 1520.93 Q864.919 1524.47 864.919 1531.6 Q864.919 1538.71 866.725 1542.27 Q868.554 1545.82 872.165 1545.82 Q875.799 1545.82 877.604 1542.27 Q879.433 1538.71 879.433 1531.6 Q879.433 1524.47 877.604 1520.93 Q875.799 1517.37 872.165 1517.37 M872.165 1513.66 Q877.975 1513.66 881.03 1518.27 Q884.109 1522.85 884.109 1531.6 Q884.109 1540.33 881.03 1544.94 Q877.975 1549.52 872.165 1549.52 Q866.355 1549.52 863.276 1544.94 Q860.22 1540.33 860.22 1531.6 Q860.22 1522.85 863.276 1518.27 Q866.355 1513.66 872.165 1513.66 Z" fill="#000000" fill-rule="nonzero" fill-opacity="1" /><path clip-path="url(#clip310)" d="M893.137 1544.91 L900.776 1544.91 L900.776 1518.55 L892.466 1520.21 L892.466 1515.95 L900.729 1514.29 L905.405 1514.29 L905.405 1544.91 L913.044 1544.91 L913.044 1548.85 L893.137 1548.85 L893.137 1544.91 Z" fill="#000000" fill-rule="nonzero" fill-opacity="1" /><path clip-path="url(#clip310)" d="M1154.78 1544.91 L1171.1 1544.91 L1171.1 1548.85 L1149.16 1548.85 L1149.16 1544.91 Q1151.82 1542.16 1156.4 1537.53 Q1161.01 1532.88 1162.19 1531.53 Q1164.43 1529.01 1165.31 1527.27 Q1166.22 1525.51 1166.22 1523.82 Q1166.22 1521.07 1164.27 1519.33 Q1162.35 1517.6 1159.25 1517.6 Q1157.05 1517.6 1154.6 1518.36 Q1152.17 1519.13 1149.39 1520.68 L1149.39 1515.95 Q1152.21 1514.82 1154.67 1514.24 Q1157.12 1513.66 1159.16 1513.66 Q1164.53 1513.66 1167.72 1516.35 Q1170.92 1519.03 1170.92 1523.52 Q1170.92 1525.65 1170.11 1527.57 Q1169.32 1529.47 1167.21 1532.07 Q1166.63 1532.74 1163.53 1535.95 Q1160.43 1539.15 1154.78 1544.91 Z" fill="#000000" fill-rule="nonzero" fill-opacity="1" /><path clip-path="url(#clip310)" d="M1190.92 1517.37 Q1187.3 1517.37 1185.48 1520.93 Q1183.67 1524.47 1183.67 1531.6 Q1183.67 1538.71 1185.48 1542.27 Q1187.3 1545.82 1190.92 1545.82 Q1194.55 1545.82 1196.36 1542.27 Q1198.18 1538.71 1198.18 1531.6 Q1198.18 1524.47 1196.36 1520.93 Q1194.55 1517.37 1190.92 1517.37 M1190.92 1513.66 Q1196.73 1513.66 1199.78 1518.27 Q1202.86 1522.85 1202.86 1531.6 Q1202.86 1540.33 1199.78 1544.94 Q1196.73 1549.52 1190.92 1549.52 Q1185.11 1549.52 1182.03 1544.94 Q1178.97 1540.33 1178.97 1531.6 Q1178.97 1522.85 1182.03 1518.27 Q1185.11 1513.66 1190.92 1513.66 Z" fill="#000000" fill-rule="nonzero" fill-opacity="1" /><path clip-path="url(#clip310)" d="M1215.11 1544.91 L1231.42 1544.91 L1231.42 1548.85 L1209.48 1548.85 L1209.48 1544.91 Q1212.14 1542.16 1216.73 1537.53 Q1221.33 1532.88 1222.51 1531.53 Q1224.76 1529.01 1225.64 1527.27 Q1226.54 1525.51 1226.54 1523.82 Q1226.54 1521.07 1224.6 1519.33 Q1222.67 1517.6 1219.57 1517.6 Q1217.37 1517.6 1214.92 1518.36 Q1212.49 1519.13 1209.71 1520.68 L1209.71 1515.95 Q1212.54 1514.82 1214.99 1514.24 Q1217.44 1513.66 1219.48 1513.66 Q1224.85 1513.66 1228.05 1516.35 Q1231.24 1519.03 1231.24 1523.52 Q1231.24 1525.65 1230.43 1527.57 Q1229.64 1529.47 1227.54 1532.07 Q1226.96 1532.74 1223.86 1535.95 Q1220.75 1539.15 1215.11 1544.91 Z" fill="#000000" fill-rule="nonzero" fill-opacity="1" /><path clip-path="url(#clip310)" d="M1254.09 1518.36 L1242.28 1536.81 L1254.09 1536.81 L1254.09 1518.36 M1252.86 1514.29 L1258.74 1514.29 L1258.74 1536.81 L1263.67 1536.81 L1263.67 1540.7 L1258.74 1540.7 L1258.74 1548.85 L1254.09 1548.85 L1254.09 1540.7 L1238.49 1540.7 L1238.49 1536.19 L1252.86 1514.29 Z" fill="#000000" fill-rule="nonzero" fill-opacity="1" /><path clip-path="url(#clip310)" d="M1268.65 1533.96 L1281.12 1533.96 L1281.12 1537.76 L1268.65 1537.76 L1268.65 1533.96 Z" fill="#000000" fill-rule="nonzero" fill-opacity="1" /><path clip-path="url(#clip310)" d="M1298.51 1517.37 Q1294.9 1517.37 1293.07 1520.93 Q1291.26 1524.47 1291.26 1531.6 Q1291.26 1538.71 1293.07 1542.27 Q1294.9 1545.82 1298.51 1545.82 Q1302.14 1545.82 1303.95 1542.27 Q1305.78 1538.71 1305.78 1531.6 Q1305.78 1524.47 1303.95 1520.93 Q1302.14 1517.37 1298.51 1517.37 M1298.51 1513.66 Q1304.32 1513.66 1307.37 1518.27 Q1310.45 1522.85 1310.45 1531.6 Q1310.45 1540.33 1307.37 1544.94 Q1304.32 1549.52 1298.51 1549.52 Q1292.7 1549.52 1289.62 1544.94 Q1286.56 1540.33 1286.56 1531.6 Q1286.56 1522.85 1289.62 1518.27 Q1292.7 1513.66 1298.51 1513.66 Z" fill="#000000" fill-rule="nonzero" fill-opacity="1" /><path clip-path="url(#clip310)" d="M1331.52 1518.36 L1319.71 1536.81 L1331.52 1536.81 L1331.52 1518.36 M1330.29 1514.29 L1336.17 1514.29 L1336.17 1536.81 L1341.1 1536.81 L1341.1 1540.7 L1336.17 1540.7 L1336.17 1548.85 L1331.52 1548.85 L1331.52 1540.7 L1315.92 1540.7 L1315.92 1536.19 L1330.29 1514.29 Z" fill="#000000" fill-rule="nonzero" fill-opacity="1" /><path clip-path="url(#clip310)" d="M1346.08 1533.96 L1358.55 1533.96 L1358.55 1537.76 L1346.08 1537.76 L1346.08 1533.96 Z" fill="#000000" fill-rule="nonzero" fill-opacity="1" /><path clip-path="url(#clip310)" d="M1375.94 1517.37 Q1372.33 1517.37 1370.5 1520.93 Q1368.69 1524.47 1368.69 1531.6 Q1368.69 1538.71 1370.5 1542.27 Q1372.33 1545.82 1375.94 1545.82 Q1379.57 1545.82 1381.38 1542.27 Q1383.21 1538.71 1383.21 1531.6 Q1383.21 1524.47 1381.38 1520.93 Q1379.57 1517.37 1375.94 1517.37 M1375.94 1513.66 Q1381.75 1513.66 1384.8 1518.27 Q1387.88 1522.85 1387.88 1531.6 Q1387.88 1540.33 1384.8 1544.94 Q1381.75 1549.52 1375.94 1549.52 Q1370.13 1549.52 1367.05 1544.94 Q1363.99 1540.33 1363.99 1531.6 Q1363.99 1522.85 1367.05 1518.27 Q1370.13 1513.66 1375.94 1513.66 Z" fill="#000000" fill-rule="nonzero" fill-opacity="1" /><path clip-path="url(#clip310)" d="M1406.1 1532.44 Q1402.77 1532.44 1400.85 1534.22 Q1398.95 1536 1398.95 1539.13 Q1398.95 1542.25 1400.85 1544.03 Q1402.77 1545.82 1406.1 1545.82 Q1409.43 1545.82 1411.35 1544.03 Q1413.28 1542.23 1413.28 1539.13 Q1413.28 1536 1411.35 1534.22 Q1409.46 1532.44 1406.1 1532.44 M1401.42 1530.45 Q1398.41 1529.7 1396.72 1527.64 Q1395.06 1525.58 1395.06 1522.62 Q1395.06 1518.48 1398 1516.07 Q1400.96 1513.66 1406.1 1513.66 Q1411.26 1513.66 1414.2 1516.07 Q1417.14 1518.48 1417.14 1522.62 Q1417.14 1525.58 1415.45 1527.64 Q1413.79 1529.7 1410.8 1530.45 Q1414.18 1531.23 1416.05 1533.52 Q1417.95 1535.82 1417.95 1539.13 Q1417.95 1544.15 1414.87 1546.83 Q1411.82 1549.52 1406.1 1549.52 Q1400.38 1549.52 1397.3 1546.83 Q1394.25 1544.15 1394.25 1539.13 Q1394.25 1535.82 1396.15 1533.52 Q1398.04 1531.23 1401.42 1530.45 M1399.71 1523.06 Q1399.71 1525.75 1401.38 1527.25 Q1403.07 1528.76 1406.1 1528.76 Q1409.11 1528.76 1410.8 1527.25 Q1412.51 1525.75 1412.51 1523.06 Q1412.51 1520.38 1410.8 1518.87 Q1409.11 1517.37 1406.1 1517.37 Q1403.07 1517.37 1401.38 1518.87 Q1399.71 1520.38 1399.71 1523.06 Z" fill="#000000" fill-rule="nonzero" fill-opacity="1" /><path clip-path="url(#clip310)" d="M1659.57 1544.91 L1675.89 1544.91 L1675.89 1548.85 L1653.95 1548.85 L1653.95 1544.91 Q1656.61 1542.16 1661.19 1537.53 Q1665.8 1532.88 1666.98 1531.53 Q1669.23 1529.01 1670.11 1527.27 Q1671.01 1525.51 1671.01 1523.82 Q1671.01 1521.07 1669.06 1519.33 Q1667.14 1517.6 1664.04 1517.6 Q1661.84 1517.6 1659.39 1518.36 Q1656.96 1519.13 1654.18 1520.68 L1654.18 1515.95 Q1657 1514.82 1659.46 1514.24 Q1661.91 1513.66 1663.95 1513.66 Q1669.32 1513.66 1672.51 1516.35 Q1675.71 1519.03 1675.71 1523.52 Q1675.71 1525.65 1674.9 1527.57 Q1674.11 1529.47 1672 1532.07 Q1671.43 1532.74 1668.32 1535.95 Q1665.22 1539.15 1659.57 1544.91 Z" fill="#000000" fill-rule="nonzero" fill-opacity="1" /><path clip-path="url(#clip310)" d="M1695.71 1517.37 Q1692.1 1517.37 1690.27 1520.93 Q1688.46 1524.47 1688.46 1531.6 Q1688.46 1538.71 1690.27 1542.27 Q1692.1 1545.82 1695.71 1545.82 Q1699.34 1545.82 1701.15 1542.27 Q1702.98 1538.71 1702.98 1531.6 Q1702.98 1524.47 1701.15 1520.93 Q1699.34 1517.37 1695.71 1517.37 M1695.71 1513.66 Q1701.52 1513.66 1704.57 1518.27 Q1707.65 1522.85 1707.65 1531.6 Q1707.65 1540.33 1704.57 1544.94 Q1701.52 1549.52 1695.71 1549.52 Q1689.9 1549.52 1686.82 1544.94 Q1683.76 1540.33 1683.76 1531.6 Q1683.76 1522.85 1686.82 1518.27 Q1689.9 1513.66 1695.71 1513.66 Z" fill="#000000" fill-rule="nonzero" fill-opacity="1" /><path clip-path="url(#clip310)" d="M1719.9 1544.91 L1736.22 1544.91 L1736.22 1548.85 L1714.27 1548.85 L1714.27 1544.91 Q1716.93 1542.16 1721.52 1537.53 Q1726.12 1532.88 1727.3 1531.53 Q1729.55 1529.01 1730.43 1527.27 Q1731.33 1525.51 1731.33 1523.82 Q1731.33 1521.07 1729.39 1519.33 Q1727.47 1517.6 1724.36 1517.6 Q1722.17 1517.6 1719.71 1518.36 Q1717.28 1519.13 1714.5 1520.68 L1714.5 1515.95 Q1717.33 1514.82 1719.78 1514.24 Q1722.24 1513.66 1724.27 1513.66 Q1729.64 1513.66 1732.84 1516.35 Q1736.03 1519.03 1736.03 1523.52 Q1736.03 1525.65 1735.22 1527.57 Q1734.43 1529.47 1732.33 1532.07 Q1731.75 1532.74 1728.65 1535.95 Q1725.55 1539.15 1719.9 1544.91 Z" fill="#000000" fill-rule="nonzero" fill-opacity="1" /><path clip-path="url(#clip310)" d="M1758.88 1518.36 L1747.07 1536.81 L1758.88 1536.81 L1758.88 1518.36 M1757.65 1514.29 L1763.53 1514.29 L1763.53 1536.81 L1768.46 1536.81 L1768.46 1540.7 L1763.53 1540.7 L1763.53 1548.85 L1758.88 1548.85 L1758.88 1540.7 L1743.28 1540.7 L1743.28 1536.19 L1757.65 1514.29 Z" fill="#000000" fill-rule="nonzero" fill-opacity="1" /><path clip-path="url(#clip310)" d="M1773.44 1533.96 L1785.92 1533.96 L1785.92 1537.76 L1773.44 1537.76 L1773.44 1533.96 Z" fill="#000000" fill-rule="nonzero" fill-opacity="1" /><path clip-path="url(#clip310)" d="M1803.3 1517.37 Q1799.69 1517.37 1797.86 1520.93 Q1796.05 1524.47 1796.05 1531.6 Q1796.05 1538.71 1797.86 1542.27 Q1799.69 1545.82 1803.3 1545.82 Q1806.93 1545.82 1808.74 1542.27 Q1810.57 1538.71 1810.57 1531.6 Q1810.57 1524.47 1808.74 1520.93 Q1806.93 1517.37 1803.3 1517.37 M1803.3 1513.66 Q1809.11 1513.66 1812.17 1518.27 Q1815.24 1522.85 1815.24 1531.6 Q1815.24 1540.33 1812.17 1544.94 Q1809.11 1549.52 1803.3 1549.52 Q1797.49 1549.52 1794.41 1544.94 Q1791.36 1540.33 1791.36 1531.6 Q1791.36 1522.85 1794.41 1518.27 Q1797.49 1513.66 1803.3 1513.66 Z" fill="#000000" fill-rule="nonzero" fill-opacity="1" /><path clip-path="url(#clip310)" d="M1836.31 1518.36 L1824.5 1536.81 L1836.31 1536.81 L1836.31 1518.36 M1835.08 1514.29 L1840.96 1514.29 L1840.96 1536.81 L1845.89 1536.81 L1845.89 1540.7 L1840.96 1540.7 L1840.96 1548.85 L1836.31 1548.85 L1836.31 1540.7 L1820.71 1540.7 L1820.71 1536.19 L1835.08 1514.29 Z" fill="#000000" fill-rule="nonzero" fill-opacity="1" /><path clip-path="url(#clip310)" d="M1850.87 1533.96 L1863.35 1533.96 L1863.35 1537.76 L1850.87 1537.76 L1850.87 1533.96 Z" fill="#000000" fill-rule="nonzero" fill-opacity="1" /><path clip-path="url(#clip310)" d="M1871.54 1544.91 L1879.18 1544.91 L1879.18 1518.55 L1870.87 1520.21 L1870.87 1515.95 L1879.13 1514.29 L1883.81 1514.29 L1883.81 1544.91 L1891.45 1544.91 L1891.45 1548.85 L1871.54 1548.85 L1871.54 1544.91 Z" fill="#000000" fill-rule="nonzero" fill-opacity="1" /><path clip-path="url(#clip310)" d="M1900.94 1514.29 L1919.29 1514.29 L1919.29 1518.22 L1905.22 1518.22 L1905.22 1526.7 Q1906.24 1526.35 1907.26 1526.19 Q1908.28 1526 1909.29 1526 Q1915.08 1526 1918.46 1529.17 Q1921.84 1532.34 1921.84 1537.76 Q1921.84 1543.34 1918.37 1546.44 Q1914.9 1549.52 1908.58 1549.52 Q1906.4 1549.52 1904.13 1549.15 Q1901.89 1548.78 1899.48 1548.04 L1899.48 1543.34 Q1901.56 1544.47 1903.79 1545.03 Q1906.01 1545.58 1908.48 1545.58 Q1912.49 1545.58 1914.83 1543.48 Q1917.16 1541.37 1917.16 1537.76 Q1917.16 1534.15 1914.83 1532.04 Q1912.49 1529.94 1908.48 1529.94 Q1906.61 1529.94 1904.73 1530.35 Q1902.88 1530.77 1900.94 1531.65 L1900.94 1514.29 Z" fill="#000000" fill-rule="nonzero" fill-opacity="1" /><path clip-path="url(#clip310)" d="M2164.21 1544.91 L2180.53 1544.91 L2180.53 1548.85 L2158.59 1548.85 L2158.59 1544.91 Q2161.25 1542.16 2165.84 1537.53 Q2170.44 1532.88 2171.62 1531.53 Q2173.87 1529.01 2174.75 1527.27 Q2175.65 1525.51 2175.65 1523.82 Q2175.65 1521.07 2173.71 1519.33 Q2171.78 1517.6 2168.68 1517.6 Q2166.48 1517.6 2164.03 1518.36 Q2161.6 1519.13 2158.82 1520.68 L2158.82 1515.95 Q2161.65 1514.82 2164.1 1514.24 Q2166.55 1513.66 2168.59 1513.66 Q2173.96 1513.66 2177.15 1516.35 Q2180.35 1519.03 2180.35 1523.52 Q2180.35 1525.65 2179.54 1527.57 Q2178.75 1529.47 2176.65 1532.07 Q2176.07 1532.74 2172.96 1535.95 Q2169.86 1539.15 2164.21 1544.91 Z" fill="#000000" fill-rule="nonzero" fill-opacity="1" /><path clip-path="url(#clip310)" d="M2200.35 1517.37 Q2196.74 1517.37 2194.91 1520.93 Q2193.1 1524.47 2193.1 1531.6 Q2193.1 1538.71 2194.91 1542.27 Q2196.74 1545.82 2200.35 1545.82 Q2203.98 1545.82 2205.79 1542.27 Q2207.62 1538.71 2207.62 1531.6 Q2207.62 1524.47 2205.79 1520.93 Q2203.98 1517.37 2200.35 1517.37 M2200.35 1513.66 Q2206.16 1513.66 2209.21 1518.27 Q2212.29 1522.85 2212.29 1531.6 Q2212.29 1540.33 2209.21 1544.94 Q2206.16 1549.52 2200.35 1549.52 Q2194.54 1549.52 2191.46 1544.94 Q2188.4 1540.33 2188.4 1531.6 Q2188.4 1522.85 2191.46 1518.27 Q2194.54 1513.66 2200.35 1513.66 Z" fill="#000000" fill-rule="nonzero" fill-opacity="1" /><path clip-path="url(#clip310)" d="M2224.54 1544.91 L2240.86 1544.91 L2240.86 1548.85 L2218.91 1548.85 L2218.91 1544.91 Q2221.58 1542.16 2226.16 1537.53 Q2230.77 1532.88 2231.95 1531.53 Q2234.19 1529.01 2235.07 1527.27 Q2235.97 1525.51 2235.97 1523.82 Q2235.97 1521.07 2234.03 1519.33 Q2232.11 1517.6 2229.01 1517.6 Q2226.81 1517.6 2224.35 1518.36 Q2221.92 1519.13 2219.15 1520.68 L2219.15 1515.95 Q2221.97 1514.82 2224.42 1514.24 Q2226.88 1513.66 2228.91 1513.66 Q2234.28 1513.66 2237.48 1516.35 Q2240.67 1519.03 2240.67 1523.52 Q2240.67 1525.65 2239.86 1527.57 Q2239.08 1529.47 2236.97 1532.07 Q2236.39 1532.74 2233.29 1535.95 Q2230.19 1539.15 2224.54 1544.91 Z" fill="#000000" fill-rule="nonzero" fill-opacity="1" /><path clip-path="url(#clip310)" d="M2263.52 1518.36 L2251.71 1536.81 L2263.52 1536.81 L2263.52 1518.36 M2262.29 1514.29 L2268.17 1514.29 L2268.17 1536.81 L2273.1 1536.81 L2273.1 1540.7 L2268.17 1540.7 L2268.17 1548.85 L2263.52 1548.85 L2263.52 1540.7 L2247.92 1540.7 L2247.92 1536.19 L2262.29 1514.29 Z" fill="#000000" fill-rule="nonzero" fill-opacity="1" /><path clip-path="url(#clip310)" d="M2278.08 1533.96 L2290.56 1533.96 L2290.56 1537.76 L2278.08 1537.76 L2278.08 1533.96 Z" fill="#000000" fill-rule="nonzero" fill-opacity="1" /><path clip-path="url(#clip310)" d="M2307.94 1517.37 Q2304.33 1517.37 2302.5 1520.93 Q2300.7 1524.47 2300.7 1531.6 Q2300.7 1538.71 2302.5 1542.27 Q2304.33 1545.82 2307.94 1545.82 Q2311.58 1545.82 2313.38 1542.27 Q2315.21 1538.71 2315.21 1531.6 Q2315.21 1524.47 2313.38 1520.93 Q2311.58 1517.37 2307.94 1517.37 M2307.94 1513.66 Q2313.75 1513.66 2316.81 1518.27 Q2319.89 1522.85 2319.89 1531.6 Q2319.89 1540.33 2316.81 1544.94 Q2313.75 1549.52 2307.94 1549.52 Q2302.13 1549.52 2299.05 1544.94 Q2296 1540.33 2296 1531.6 Q2296 1522.85 2299.05 1518.27 Q2302.13 1513.66 2307.94 1513.66 Z" fill="#000000" fill-rule="nonzero" fill-opacity="1" /><path clip-path="url(#clip310)" d="M2340.95 1518.36 L2329.14 1536.81 L2340.95 1536.81 L2340.95 1518.36 M2339.72 1514.29 L2345.6 1514.29 L2345.6 1536.81 L2350.53 1536.81 L2350.53 1540.7 L2345.6 1540.7 L2345.6 1548.85 L2340.95 1548.85 L2340.95 1540.7 L2325.35 1540.7 L2325.35 1536.19 L2339.72 1514.29 Z" fill="#000000" fill-rule="nonzero" fill-opacity="1" /><path clip-path="url(#clip310)" d="M2355.51 1533.96 L2367.99 1533.96 L2367.99 1537.76 L2355.51 1537.76 L2355.51 1533.96 Z" fill="#000000" fill-rule="nonzero" fill-opacity="1" /><path clip-path="url(#clip310)" d="M2379.4 1544.91 L2395.72 1544.91 L2395.72 1548.85 L2373.77 1548.85 L2373.77 1544.91 Q2376.44 1542.16 2381.02 1537.53 Q2385.63 1532.88 2386.81 1531.53 Q2389.05 1529.01 2389.93 1527.27 Q2390.83 1525.51 2390.83 1523.82 Q2390.83 1521.07 2388.89 1519.33 Q2386.97 1517.6 2383.87 1517.6 Q2381.67 1517.6 2379.21 1518.36 Q2376.78 1519.13 2374.01 1520.68 L2374.01 1515.95 Q2376.83 1514.82 2379.28 1514.24 Q2381.74 1513.66 2383.77 1513.66 Q2389.14 1513.66 2392.34 1516.35 Q2395.53 1519.03 2395.53 1523.52 Q2395.53 1525.65 2394.72 1527.57 Q2393.94 1529.47 2391.83 1532.07 Q2391.25 1532.74 2388.15 1535.95 Q2385.05 1539.15 2379.4 1544.91 Z" fill="#000000" fill-rule="nonzero" fill-opacity="1" /><path clip-path="url(#clip310)" d="M2409.56 1544.91 L2425.88 1544.91 L2425.88 1548.85 L2403.94 1548.85 L2403.94 1544.91 Q2406.6 1542.16 2411.18 1537.53 Q2415.79 1532.88 2416.97 1531.53 Q2419.21 1529.01 2420.09 1527.27 Q2421 1525.51 2421 1523.82 Q2421 1521.07 2419.05 1519.33 Q2417.13 1517.6 2414.03 1517.6 Q2411.83 1517.6 2409.38 1518.36 Q2406.95 1519.13 2404.17 1520.68 L2404.17 1515.95 Q2406.99 1514.82 2409.45 1514.24 Q2411.9 1513.66 2413.94 1513.66 Q2419.31 1513.66 2422.5 1516.35 Q2425.69 1519.03 2425.69 1523.52 Q2425.69 1525.65 2424.88 1527.57 Q2424.1 1529.47 2421.99 1532.07 Q2421.41 1532.74 2418.31 1535.95 Q2415.21 1539.15 2409.56 1544.91 Z" fill="#000000" fill-rule="nonzero" fill-opacity="1" /><polyline clip-path="url(#clip312)" style="stroke:#000000; stroke-linecap:round; stroke-linejoin:round; stroke-width:2; stroke-opacity:0.1; fill:none" points="214.353,1319.41 2352.76,1319.41 "/>
<polyline clip-path="url(#clip312)" style="stroke:#000000; stroke-linecap:round; stroke-linejoin:round; stroke-width:2; stroke-opacity:0.1; fill:none" points="214.353,1056.29 2352.76,1056.29 "/>
<polyline clip-path="url(#clip312)" style="stroke:#000000; stroke-linecap:round; stroke-linejoin:round; stroke-width:2; stroke-opacity:0.1; fill:none" points="214.353,793.159 2352.76,793.159 "/>
<polyline clip-path="url(#clip312)" style="stroke:#000000; stroke-linecap:round; stroke-linejoin:round; stroke-width:2; stroke-opacity:0.1; fill:none" points="214.353,530.031 2352.76,530.031 "/>
<polyline clip-path="url(#clip312)" style="stroke:#000000; stroke-linecap:round; stroke-linejoin:round; stroke-width:2; stroke-opacity:0.1; fill:none" points="214.353,266.903 2352.76,266.903 "/>
<polyline clip-path="url(#clip310)" style="stroke:#000000; stroke-linecap:round; stroke-linejoin:round; stroke-width:4; stroke-opacity:1; fill:none" points="214.353,1486.45 214.353,47.2441 "/>
<polyline clip-path="url(#clip310)" style="stroke:#000000; stroke-linecap:round; stroke-linejoin:round; stroke-width:4; stroke-opacity:1; fill:none" points="214.353,1319.41 233.25,1319.41 "/>
<polyline clip-path="url(#clip310)" style="stroke:#000000; stroke-linecap:round; stroke-linejoin:round; stroke-width:4; stroke-opacity:1; fill:none" points="214.353,1056.29 233.25,1056.29 "/>
<polyline clip-path="url(#clip310)" style="stroke:#000000; stroke-linecap:round; stroke-linejoin:round; stroke-width:4; stroke-opacity:1; fill:none" points="214.353,793.159 233.25,793.159 "/>
<polyline clip-path="url(#clip310)" style="stroke:#000000; stroke-linecap:round; stroke-linejoin:round; stroke-width:4; stroke-opacity:1; fill:none" points="214.353,530.031 233.25,530.031 "/>
<polyline clip-path="url(#clip310)" style="stroke:#000000; stroke-linecap:round; stroke-linejoin:round; stroke-width:4; stroke-opacity:1; fill:none" points="214.353,266.903 233.25,266.903 "/>
<path clip-path="url(#clip310)" d="M51.6634 1332.76 L59.3023 1332.76 L59.3023 1306.39 L50.9921 1308.06 L50.9921 1303.8 L59.256 1302.13 L63.9319 1302.13 L63.9319 1332.76 L71.5707 1332.76 L71.5707 1336.69 L51.6634 1336.69 L51.6634 1332.76 Z" fill="#000000" fill-rule="nonzero" fill-opacity="1" /><path clip-path="url(#clip310)" d="M81.0614 1302.13 L99.4178 1302.13 L99.4178 1306.07 L85.3438 1306.07 L85.3438 1314.54 Q86.3623 1314.19 87.3808 1314.03 Q88.3993 1313.85 89.4178 1313.85 Q95.2049 1313.85 98.5845 1317.02 Q101.964 1320.19 101.964 1325.61 Q101.964 1331.19 98.4919 1334.29 Q95.0197 1337.37 88.7003 1337.37 Q86.5243 1337.37 84.2558 1337 Q82.0105 1336.63 79.6031 1335.88 L79.6031 1331.19 Q81.6864 1332.32 83.9086 1332.88 Q86.1308 1333.43 88.6077 1333.43 Q92.6123 1333.43 94.9502 1331.32 Q97.2882 1329.22 97.2882 1325.61 Q97.2882 1322 94.9502 1319.89 Q92.6123 1317.78 88.6077 1317.78 Q86.7327 1317.78 84.8577 1318.2 Q83.0058 1318.62 81.0614 1319.5 L81.0614 1302.13 Z" fill="#000000" fill-rule="nonzero" fill-opacity="1" /><path clip-path="url(#clip310)" d="M121.177 1305.21 Q117.566 1305.21 115.737 1308.78 Q113.932 1312.32 113.932 1319.45 Q113.932 1326.56 115.737 1330.12 Q117.566 1333.66 121.177 1333.66 Q124.811 1333.66 126.617 1330.12 Q128.445 1326.56 128.445 1319.45 Q128.445 1312.32 126.617 1308.78 Q124.811 1305.21 121.177 1305.21 M121.177 1301.51 Q126.987 1301.51 130.043 1306.12 Q133.121 1310.7 133.121 1319.45 Q133.121 1328.18 130.043 1332.78 Q126.987 1337.37 121.177 1337.37 Q115.367 1337.37 112.288 1332.78 Q109.233 1328.18 109.233 1319.45 Q109.233 1310.7 112.288 1306.12 Q115.367 1301.51 121.177 1301.51 Z" fill="#000000" fill-rule="nonzero" fill-opacity="1" /><path clip-path="url(#clip310)" d="M141.339 1330.82 L146.223 1330.82 L146.223 1336.69 L141.339 1336.69 L141.339 1330.82 Z" fill="#000000" fill-rule="nonzero" fill-opacity="1" /><path clip-path="url(#clip310)" d="M166.408 1305.21 Q162.797 1305.21 160.968 1308.78 Q159.163 1312.32 159.163 1319.45 Q159.163 1326.56 160.968 1330.12 Q162.797 1333.66 166.408 1333.66 Q170.042 1333.66 171.848 1330.12 Q173.677 1326.56 173.677 1319.45 Q173.677 1312.32 171.848 1308.78 Q170.042 1305.21 166.408 1305.21 M166.408 1301.51 Q172.218 1301.51 175.274 1306.12 Q178.353 1310.7 178.353 1319.45 Q178.353 1328.18 175.274 1332.78 Q172.218 1337.37 166.408 1337.37 Q160.598 1337.37 157.519 1332.78 Q154.464 1328.18 154.464 1319.45 Q154.464 1310.7 157.519 1306.12 Q160.598 1301.51 166.408 1301.51 Z" fill="#000000" fill-rule="nonzero" fill-opacity="1" /><path clip-path="url(#clip310)" d="M52.6588 1069.63 L60.2976 1069.63 L60.2976 1043.27 L51.9875 1044.93 L51.9875 1040.67 L60.2513 1039.01 L64.9272 1039.01 L64.9272 1069.63 L72.5661 1069.63 L72.5661 1073.57 L52.6588 1073.57 L52.6588 1069.63 Z" fill="#000000" fill-rule="nonzero" fill-opacity="1" /><path clip-path="url(#clip310)" d="M82.0568 1039.01 L100.413 1039.01 L100.413 1042.94 L86.3392 1042.94 L86.3392 1051.41 Q87.3577 1051.07 88.3762 1050.9 Q89.3947 1050.72 90.4132 1050.72 Q96.2002 1050.72 99.5798 1053.89 Q102.959 1057.06 102.959 1062.48 Q102.959 1068.06 99.4872 1071.16 Q96.015 1074.24 89.6956 1074.24 Q87.5197 1074.24 85.2512 1073.87 Q83.0058 1073.5 80.5984 1072.76 L80.5984 1068.06 Q82.6818 1069.19 84.904 1069.75 Q87.1262 1070.3 89.603 1070.3 Q93.6076 1070.3 95.9456 1068.2 Q98.2835 1066.09 98.2835 1062.48 Q98.2835 1058.87 95.9456 1056.76 Q93.6076 1054.65 89.603 1054.65 Q87.728 1054.65 85.8531 1055.07 Q84.0012 1055.49 82.0568 1056.37 L82.0568 1039.01 Z" fill="#000000" fill-rule="nonzero" fill-opacity="1" /><path clip-path="url(#clip310)" d="M116.2 1069.63 L132.519 1069.63 L132.519 1073.57 L110.575 1073.57 L110.575 1069.63 Q113.237 1066.88 117.82 1062.25 Q122.427 1057.59 123.607 1056.25 Q125.853 1053.73 126.732 1051.99 Q127.635 1050.23 127.635 1048.54 Q127.635 1045.79 125.691 1044.05 Q123.77 1042.32 120.668 1042.32 Q118.469 1042.32 116.015 1043.08 Q113.584 1043.84 110.807 1045.4 L110.807 1040.67 Q113.631 1039.54 116.084 1038.96 Q118.538 1038.38 120.575 1038.38 Q125.945 1038.38 129.14 1041.07 Q132.334 1043.75 132.334 1048.24 Q132.334 1050.37 131.524 1052.29 Q130.737 1054.19 128.631 1056.78 Q128.052 1057.46 124.95 1060.67 Q121.848 1063.87 116.2 1069.63 Z" fill="#000000" fill-rule="nonzero" fill-opacity="1" /><path clip-path="url(#clip310)" d="M142.334 1067.69 L147.218 1067.69 L147.218 1073.57 L142.334 1073.57 L142.334 1067.69 Z" fill="#000000" fill-rule="nonzero" fill-opacity="1" /><path clip-path="url(#clip310)" d="M157.45 1039.01 L175.806 1039.01 L175.806 1042.94 L161.732 1042.94 L161.732 1051.41 Q162.751 1051.07 163.769 1050.9 Q164.788 1050.72 165.806 1050.72 Q171.593 1050.72 174.973 1053.89 Q178.353 1057.06 178.353 1062.48 Q178.353 1068.06 174.88 1071.16 Q171.408 1074.24 165.089 1074.24 Q162.913 1074.24 160.644 1073.87 Q158.399 1073.5 155.992 1072.76 L155.992 1068.06 Q158.075 1069.19 160.297 1069.75 Q162.519 1070.3 164.996 1070.3 Q169.001 1070.3 171.339 1068.2 Q173.677 1066.09 173.677 1062.48 Q173.677 1058.87 171.339 1056.76 Q169.001 1054.65 164.996 1054.65 Q163.121 1054.65 161.246 1055.07 Q159.394 1055.49 157.45 1056.37 L157.45 1039.01 Z" fill="#000000" fill-rule="nonzero" fill-opacity="1" /><path clip-path="url(#clip310)" d="M51.6634 806.504 L59.3023 806.504 L59.3023 780.138 L50.9921 781.805 L50.9921 777.545 L59.256 775.879 L63.9319 775.879 L63.9319 806.504 L71.5707 806.504 L71.5707 810.439 L51.6634 810.439 L51.6634 806.504 Z" fill="#000000" fill-rule="nonzero" fill-opacity="1" /><path clip-path="url(#clip310)" d="M81.0614 775.879 L99.4178 775.879 L99.4178 779.814 L85.3438 779.814 L85.3438 788.286 Q86.3623 787.939 87.3808 787.777 Q88.3993 787.592 89.4178 787.592 Q95.2049 787.592 98.5845 790.763 Q101.964 793.934 101.964 799.351 Q101.964 804.93 98.4919 808.031 Q95.0197 811.11 88.7003 811.11 Q86.5243 811.11 84.2558 810.74 Q82.0105 810.369 79.6031 809.629 L79.6031 804.93 Q81.6864 806.064 83.9086 806.619 Q86.1308 807.175 88.6077 807.175 Q92.6123 807.175 94.9502 805.068 Q97.2882 802.962 97.2882 799.351 Q97.2882 795.74 94.9502 793.633 Q92.6123 791.527 88.6077 791.527 Q86.7327 791.527 84.8577 791.944 Q83.0058 792.36 81.0614 793.24 L81.0614 775.879 Z" fill="#000000" fill-rule="nonzero" fill-opacity="1" /><path clip-path="url(#clip310)" d="M111.223 775.879 L129.58 775.879 L129.58 779.814 L115.506 779.814 L115.506 788.286 Q116.524 787.939 117.543 787.777 Q118.561 787.592 119.58 787.592 Q125.367 787.592 128.746 790.763 Q132.126 793.934 132.126 799.351 Q132.126 804.93 128.654 808.031 Q125.182 811.11 118.862 811.11 Q116.686 811.11 114.418 810.74 Q112.172 810.369 109.765 809.629 L109.765 804.93 Q111.848 806.064 114.07 806.619 Q116.293 807.175 118.77 807.175 Q122.774 807.175 125.112 805.068 Q127.45 802.962 127.45 799.351 Q127.45 795.74 125.112 793.633 Q122.774 791.527 118.77 791.527 Q116.895 791.527 115.02 791.944 Q113.168 792.36 111.223 793.24 L111.223 775.879 Z" fill="#000000" fill-rule="nonzero" fill-opacity="1" /><path clip-path="url(#clip310)" d="M141.339 804.559 L146.223 804.559 L146.223 810.439 L141.339 810.439 L141.339 804.559 Z" fill="#000000" fill-rule="nonzero" fill-opacity="1" /><path clip-path="url(#clip310)" d="M166.408 778.957 Q162.797 778.957 160.968 782.522 Q159.163 786.064 159.163 793.193 Q159.163 800.3 160.968 803.865 Q162.797 807.406 166.408 807.406 Q170.042 807.406 171.848 803.865 Q173.677 800.3 173.677 793.193 Q173.677 786.064 171.848 782.522 Q170.042 778.957 166.408 778.957 M166.408 775.254 Q172.218 775.254 175.274 779.86 Q178.353 784.444 178.353 793.193 Q178.353 801.92 175.274 806.527 Q172.218 811.11 166.408 811.11 Q160.598 811.11 157.519 806.527 Q154.464 801.92 154.464 793.193 Q154.464 784.444 157.519 779.86 Q160.598 775.254 166.408 775.254 Z" fill="#000000" fill-rule="nonzero" fill-opacity="1" /><path clip-path="url(#clip310)" d="M52.6588 543.376 L60.2976 543.376 L60.2976 517.01 L51.9875 518.677 L51.9875 514.418 L60.2513 512.751 L64.9272 512.751 L64.9272 543.376 L72.5661 543.376 L72.5661 547.311 L52.6588 547.311 L52.6588 543.376 Z" fill="#000000" fill-rule="nonzero" fill-opacity="1" /><path clip-path="url(#clip310)" d="M82.0568 512.751 L100.413 512.751 L100.413 516.686 L86.3392 516.686 L86.3392 525.158 Q87.3577 524.811 88.3762 524.649 Q89.3947 524.464 90.4132 524.464 Q96.2002 524.464 99.5798 527.635 Q102.959 530.806 102.959 536.223 Q102.959 541.802 99.4872 544.903 Q96.015 547.982 89.6956 547.982 Q87.5197 547.982 85.2512 547.612 Q83.0058 547.241 80.5984 546.501 L80.5984 541.802 Q82.6818 542.936 84.904 543.491 Q87.1262 544.047 89.603 544.047 Q93.6076 544.047 95.9456 541.941 Q98.2835 539.834 98.2835 536.223 Q98.2835 532.612 95.9456 530.505 Q93.6076 528.399 89.603 528.399 Q87.728 528.399 85.8531 528.816 Q84.0012 529.232 82.0568 530.112 L82.0568 512.751 Z" fill="#000000" fill-rule="nonzero" fill-opacity="1" /><path clip-path="url(#clip310)" d="M110.992 512.751 L133.214 512.751 L133.214 514.742 L120.668 547.311 L115.783 547.311 L127.589 516.686 L110.992 516.686 L110.992 512.751 Z" fill="#000000" fill-rule="nonzero" fill-opacity="1" /><path clip-path="url(#clip310)" d="M142.334 541.431 L147.218 541.431 L147.218 547.311 L142.334 547.311 L142.334 541.431 Z" fill="#000000" fill-rule="nonzero" fill-opacity="1" /><path clip-path="url(#clip310)" d="M157.45 512.751 L175.806 512.751 L175.806 516.686 L161.732 516.686 L161.732 525.158 Q162.751 524.811 163.769 524.649 Q164.788 524.464 165.806 524.464 Q171.593 524.464 174.973 527.635 Q178.353 530.806 178.353 536.223 Q178.353 541.802 174.88 544.903 Q171.408 547.982 165.089 547.982 Q162.913 547.982 160.644 547.612 Q158.399 547.241 155.992 546.501 L155.992 541.802 Q158.075 542.936 160.297 543.491 Q162.519 544.047 164.996 544.047 Q169.001 544.047 171.339 541.941 Q173.677 539.834 173.677 536.223 Q173.677 532.612 171.339 530.505 Q169.001 528.399 164.996 528.399 Q163.121 528.399 161.246 528.816 Q159.394 529.232 157.45 530.112 L157.45 512.751 Z" fill="#000000" fill-rule="nonzero" fill-opacity="1" /><path clip-path="url(#clip310)" d="M51.6634 280.248 L59.3023 280.248 L59.3023 253.882 L50.9921 255.549 L50.9921 251.29 L59.256 249.623 L63.9319 249.623 L63.9319 280.248 L71.5707 280.248 L71.5707 284.183 L51.6634 284.183 L51.6634 280.248 Z" fill="#000000" fill-rule="nonzero" fill-opacity="1" /><path clip-path="url(#clip310)" d="M91.5938 265.04 Q88.4456 265.04 86.5938 267.192 Q84.7651 269.345 84.7651 273.095 Q84.7651 276.822 86.5938 278.998 Q88.4456 281.151 91.5938 281.151 Q94.7419 281.151 96.5706 278.998 Q98.4224 276.822 98.4224 273.095 Q98.4224 269.345 96.5706 267.192 Q94.7419 265.04 91.5938 265.04 M100.876 250.387 L100.876 254.646 Q99.1169 253.813 97.3113 253.373 Q95.5289 252.933 93.7697 252.933 Q89.1401 252.933 86.6864 256.058 Q84.2558 259.183 83.9086 265.502 Q85.2743 263.489 87.3345 262.424 Q89.3947 261.336 91.8715 261.336 Q97.0798 261.336 100.089 264.507 Q103.121 267.655 103.121 273.095 Q103.121 278.419 99.9733 281.637 Q96.8252 284.854 91.5938 284.854 Q85.5984 284.854 82.4271 280.271 Q79.2559 275.664 79.2559 266.938 Q79.2559 258.743 83.1447 253.882 Q87.0336 248.998 93.5845 248.998 Q95.3437 248.998 97.1261 249.345 Q98.9317 249.692 100.876 250.387 Z" fill="#000000" fill-rule="nonzero" fill-opacity="1" /><path clip-path="url(#clip310)" d="M121.177 252.702 Q117.566 252.702 115.737 256.266 Q113.932 259.808 113.932 266.938 Q113.932 274.044 115.737 277.609 Q117.566 281.151 121.177 281.151 Q124.811 281.151 126.617 277.609 Q128.445 274.044 128.445 266.938 Q128.445 259.808 126.617 256.266 Q124.811 252.702 121.177 252.702 M121.177 248.998 Q126.987 248.998 130.043 253.604 Q133.121 258.188 133.121 266.938 Q133.121 275.664 130.043 280.271 Q126.987 284.854 121.177 284.854 Q115.367 284.854 112.288 280.271 Q109.233 275.664 109.233 266.938 Q109.233 258.188 112.288 253.604 Q115.367 248.998 121.177 248.998 Z" fill="#000000" fill-rule="nonzero" fill-opacity="1" /><path clip-path="url(#clip310)" d="M141.339 278.303 L146.223 278.303 L146.223 284.183 L141.339 284.183 L141.339 278.303 Z" fill="#000000" fill-rule="nonzero" fill-opacity="1" /><path clip-path="url(#clip310)" d="M166.408 252.702 Q162.797 252.702 160.968 256.266 Q159.163 259.808 159.163 266.938 Q159.163 274.044 160.968 277.609 Q162.797 281.151 166.408 281.151 Q170.042 281.151 171.848 277.609 Q173.677 274.044 173.677 266.938 Q173.677 259.808 171.848 256.266 Q170.042 252.702 166.408 252.702 M166.408 248.998 Q172.218 248.998 175.274 253.604 Q178.353 258.188 178.353 266.938 Q178.353 275.664 175.274 280.271 Q172.218 284.854 166.408 284.854 Q160.598 284.854 157.519 280.271 Q154.464 275.664 154.464 266.938 Q154.464 258.188 157.519 253.604 Q160.598 248.998 166.408 248.998 Z" fill="#000000" fill-rule="nonzero" fill-opacity="1" /><polyline clip-path="url(#clip312)" style="stroke:#009af9; stroke-linecap:round; stroke-linejoin:round; stroke-width:4; stroke-opacity:1; fill:none" points="274.873,1219.43 346.922,1188.9 418.971,1093.65 491.019,1108.91 779.214,1126.8 851.262,819.472 923.311,801.579 995.36,784.738 1067.41,1142.59 1283.55,896.831 1355.6,545.818 1427.65,490.035 1499.7,441.62 1571.75,329.527 1787.89,237.433 1859.94,725.798 1931.99,562.659 2004.04,590.55 2076.09,503.718 2292.24,686.856 "/>
<polyline clip-path="url(#clip312)" style="stroke:#e26f46; stroke-linecap:round; stroke-linejoin:round; stroke-width:4; stroke-opacity:1; fill:none" points="274.873,1166.17 346.922,982.611 418.971,1036.29 491.019,1038.39 779.214,582.656 851.262,688.96 923.311,630.019 995.36,668.963 1067.41,809.999 1283.55,618.968 1355.6,278.481 1427.65,460.565 1499.7,149.022 1571.75,87.9763 1787.89,179.544 1859.94,558.449 1931.99,405.729 2004.04,426.358 2076.09,478.457 2292.24,352.683 "/>
<polyline clip-path="url(#clip312)" style="stroke:#3da44d; stroke-linecap:round; stroke-linejoin:round; stroke-width:4; stroke-opacity:1; fill:none" points="274.873,1445.72 346.922,1211.01 418.971,1305.73 491.019,1179.43 779.214,1145.75 851.262,955.245 923.311,884.516 995.36,1121.54 1067.41,1205.64 1283.55,899.462 1355.6,620.547 1427.65,666.858 1499.7,484.774 1571.75,414.254 1787.89,672.121 1859.94,787.896 1931.99,673.699 2004.04,665.804 2076.09,907.882 2292.24,723.693 "/>
<polyline clip-path="url(#clip312)" style="stroke:#c271d2; stroke-linecap:round; stroke-linejoin:round; stroke-width:4; stroke-opacity:1; fill:none" points="274.873,1198.38 346.922,1140.49 418.971,1115.23 491.019,1081.55 779.214,635.282 851.262,701.591 923.311,648.965 995.36,1115.23 1067.41,904.725 1283.55,673.173 1355.6,462.67 1427.65,513.19 1499.7,183.755 1571.75,352.156 1787.89,653.175 1859.94,687.908 1931.99,595.286 2004.04,534.24 2076.09,717.378 2292.24,482.668 "/>
<path clip-path="url(#clip310)" d="M285.633 354.418 L623.431 354.418 L623.431 95.2176 L285.633 95.2176  Z" fill="#ffffff" fill-rule="evenodd" fill-opacity="1"/>
<polyline clip-path="url(#clip310)" style="stroke:#000000; stroke-linecap:round; stroke-linejoin:round; stroke-width:4; stroke-opacity:1; fill:none" points="285.633,354.418 623.431,354.418 623.431,95.2176 285.633,95.2176 285.633,354.418 "/>
<polyline clip-path="url(#clip310)" style="stroke:#009af9; stroke-linecap:round; stroke-linejoin:round; stroke-width:4; stroke-opacity:1; fill:none" points="309.393,147.058 451.953,147.058 "/>
<path clip-path="url(#clip310)" d="M491.731 132.949 Q486.639 132.949 483.63 136.745 Q480.643 140.541 480.643 147.092 Q480.643 153.62 483.63 157.416 Q486.639 161.213 491.731 161.213 Q496.824 161.213 499.787 157.416 Q502.773 153.62 502.773 147.092 Q502.773 140.541 499.787 136.745 Q496.824 132.949 491.731 132.949 M491.731 129.153 Q499 129.153 503.352 134.037 Q507.704 138.898 507.704 147.092 Q507.704 155.264 503.352 160.148 Q499 165.009 491.731 165.009 Q484.44 165.009 480.065 160.148 Q475.713 155.287 475.713 147.092 Q475.713 138.898 480.065 134.037 Q484.44 129.153 491.731 129.153 Z" fill="#000000" fill-rule="nonzero" fill-opacity="1" /><path clip-path="url(#clip310)" d="M518.953 160.449 L518.953 174.199 L514.671 174.199 L514.671 138.412 L518.953 138.412 L518.953 142.347 Q520.296 140.032 522.333 138.921 Q524.393 137.787 527.24 137.787 Q531.963 137.787 534.902 141.537 Q537.865 145.287 537.865 151.398 Q537.865 157.509 534.902 161.259 Q531.963 165.009 527.24 165.009 Q524.393 165.009 522.333 163.898 Q520.296 162.763 518.953 160.449 M533.444 151.398 Q533.444 146.699 531.5 144.037 Q529.578 141.352 526.199 141.352 Q522.819 141.352 520.875 144.037 Q518.953 146.699 518.953 151.398 Q518.953 156.097 520.875 158.782 Q522.819 161.444 526.199 161.444 Q529.578 161.444 531.5 158.782 Q533.444 156.097 533.444 151.398 Z" fill="#000000" fill-rule="nonzero" fill-opacity="1" /><path clip-path="url(#clip310)" d="M567.101 150.31 L567.101 152.393 L547.518 152.393 Q547.796 156.791 550.157 159.106 Q552.541 161.398 556.777 161.398 Q559.231 161.398 561.523 160.796 Q563.837 160.194 566.106 158.99 L566.106 163.018 Q563.814 163.99 561.407 164.5 Q559 165.009 556.523 165.009 Q550.319 165.009 546.685 161.398 Q543.074 157.787 543.074 151.629 Q543.074 145.264 546.5 141.537 Q549.949 137.787 555.782 137.787 Q561.013 137.787 564.046 141.166 Q567.101 144.523 567.101 150.31 M562.842 149.06 Q562.796 145.565 560.875 143.481 Q558.976 141.398 555.828 141.398 Q552.263 141.398 550.111 143.412 Q547.981 145.426 547.657 149.083 L562.842 149.06 Z" fill="#000000" fill-rule="nonzero" fill-opacity="1" /><path clip-path="url(#clip310)" d="M595.643 148.689 L595.643 164.338 L591.384 164.338 L591.384 148.828 Q591.384 145.148 589.948 143.319 Q588.513 141.49 585.643 141.49 Q582.194 141.49 580.203 143.69 Q578.212 145.889 578.212 149.685 L578.212 164.338 L573.93 164.338 L573.93 138.412 L578.212 138.412 L578.212 142.44 Q579.74 140.102 581.8 138.944 Q583.884 137.787 586.592 137.787 Q591.06 137.787 593.351 140.565 Q595.643 143.319 595.643 148.689 Z" fill="#000000" fill-rule="nonzero" fill-opacity="1" /><polyline clip-path="url(#clip310)" style="stroke:#e26f46; stroke-linecap:round; stroke-linejoin:round; stroke-width:4; stroke-opacity:1; fill:none" points="309.393,198.898 451.953,198.898 "/>
<path clip-path="url(#clip310)" d="M475.713 181.618 L480.389 181.618 L480.389 195.784 L497.38 195.784 L497.38 181.618 L502.055 181.618 L502.055 216.178 L497.38 216.178 L497.38 199.719 L480.389 199.719 L480.389 216.178 L475.713 216.178 L475.713 181.618 Z" fill="#000000" fill-rule="nonzero" fill-opacity="1" /><path clip-path="url(#clip310)" d="M511.176 190.252 L515.435 190.252 L515.435 216.178 L511.176 216.178 L511.176 190.252 M511.176 180.159 L515.435 180.159 L515.435 185.553 L511.176 185.553 L511.176 180.159 Z" fill="#000000" fill-rule="nonzero" fill-opacity="1" /><path clip-path="url(#clip310)" d="M541.407 202.914 Q541.407 198.284 539.486 195.738 Q537.588 193.192 534.139 193.192 Q530.713 193.192 528.791 195.738 Q526.893 198.284 526.893 202.914 Q526.893 207.52 528.791 210.066 Q530.713 212.613 534.139 212.613 Q537.588 212.613 539.486 210.066 Q541.407 207.52 541.407 202.914 M545.666 212.96 Q545.666 219.58 542.726 222.798 Q539.787 226.039 533.722 226.039 Q531.477 226.039 529.486 225.691 Q527.495 225.367 525.62 224.673 L525.62 220.529 Q527.495 221.548 529.324 222.034 Q531.152 222.52 533.051 222.52 Q537.24 222.52 539.324 220.321 Q541.407 218.145 541.407 213.724 L541.407 211.617 Q540.088 213.909 538.027 215.043 Q535.967 216.178 533.097 216.178 Q528.328 216.178 525.412 212.543 Q522.495 208.909 522.495 202.914 Q522.495 196.895 525.412 193.261 Q528.328 189.627 533.097 189.627 Q535.967 189.627 538.027 190.761 Q540.088 191.895 541.407 194.187 L541.407 190.252 L545.666 190.252 L545.666 212.96 Z" fill="#000000" fill-rule="nonzero" fill-opacity="1" /><path clip-path="url(#clip310)" d="M575.99 200.529 L575.99 216.178 L571.731 216.178 L571.731 200.668 Q571.731 196.988 570.296 195.159 Q568.861 193.33 565.99 193.33 Q562.541 193.33 560.55 195.53 Q558.56 197.729 558.56 201.525 L558.56 216.178 L554.277 216.178 L554.277 180.159 L558.56 180.159 L558.56 194.28 Q560.088 191.942 562.148 190.784 Q564.231 189.627 566.939 189.627 Q571.407 189.627 573.699 192.405 Q575.99 195.159 575.99 200.529 Z" fill="#000000" fill-rule="nonzero" fill-opacity="1" /><polyline clip-path="url(#clip310)" style="stroke:#3da44d; stroke-linecap:round; stroke-linejoin:round; stroke-width:4; stroke-opacity:1; fill:none" points="309.393,250.738 451.953,250.738 "/>
<path clip-path="url(#clip310)" d="M475.713 233.458 L480.389 233.458 L480.389 264.082 L497.217 264.082 L497.217 268.018 L475.713 268.018 L475.713 233.458 Z" fill="#000000" fill-rule="nonzero" fill-opacity="1" /><path clip-path="url(#clip310)" d="M511.153 245.078 Q507.727 245.078 505.736 247.763 Q503.745 250.425 503.745 255.078 Q503.745 259.731 505.713 262.416 Q507.704 265.078 511.153 265.078 Q514.555 265.078 516.546 262.393 Q518.537 259.707 518.537 255.078 Q518.537 250.471 516.546 247.786 Q514.555 245.078 511.153 245.078 M511.153 241.467 Q516.708 241.467 519.879 245.078 Q523.051 248.689 523.051 255.078 Q523.051 261.444 519.879 265.078 Q516.708 268.689 511.153 268.689 Q505.574 268.689 502.403 265.078 Q499.255 261.444 499.255 255.078 Q499.255 248.689 502.403 245.078 Q505.574 241.467 511.153 241.467 Z" fill="#000000" fill-rule="nonzero" fill-opacity="1" /><path clip-path="url(#clip310)" d="M527.634 242.092 L531.893 242.092 L537.217 262.323 L542.518 242.092 L547.541 242.092 L552.865 262.323 L558.166 242.092 L562.425 242.092 L555.643 268.018 L550.62 268.018 L545.041 246.768 L539.439 268.018 L534.416 268.018 L527.634 242.092 Z" fill="#000000" fill-rule="nonzero" fill-opacity="1" /><polyline clip-path="url(#clip310)" style="stroke:#c271d2; stroke-linecap:round; stroke-linejoin:round; stroke-width:4; stroke-opacity:1; fill:none" points="309.393,302.578 451.953,302.578 "/>
<path clip-path="url(#clip310)" d="M503.583 287.96 L503.583 292.89 Q501.222 290.691 498.537 289.603 Q495.875 288.515 492.866 288.515 Q486.94 288.515 483.792 292.149 Q480.643 295.76 480.643 302.612 Q480.643 309.441 483.792 313.075 Q486.94 316.686 492.866 316.686 Q495.875 316.686 498.537 315.598 Q501.222 314.51 503.583 312.311 L503.583 317.196 Q501.129 318.862 498.375 319.696 Q495.643 320.529 492.588 320.529 Q484.741 320.529 480.227 315.737 Q475.713 310.922 475.713 302.612 Q475.713 294.279 480.227 289.487 Q484.741 284.673 492.588 284.673 Q495.69 284.673 498.421 285.506 Q501.176 286.316 503.583 287.96 Z" fill="#000000" fill-rule="nonzero" fill-opacity="1" /><path clip-path="url(#clip310)" d="M510.62 283.839 L514.879 283.839 L514.879 319.858 L510.62 319.858 L510.62 283.839 Z" fill="#000000" fill-rule="nonzero" fill-opacity="1" /><path clip-path="url(#clip310)" d="M533.838 296.918 Q530.412 296.918 528.421 299.603 Q526.43 302.265 526.43 306.918 Q526.43 311.571 528.398 314.256 Q530.389 316.918 533.838 316.918 Q537.24 316.918 539.231 314.233 Q541.222 311.547 541.222 306.918 Q541.222 302.311 539.231 299.626 Q537.24 296.918 533.838 296.918 M533.838 293.307 Q539.393 293.307 542.564 296.918 Q545.736 300.529 545.736 306.918 Q545.736 313.284 542.564 316.918 Q539.393 320.529 533.838 320.529 Q528.259 320.529 525.088 316.918 Q521.94 313.284 521.94 306.918 Q521.94 300.529 525.088 296.918 Q528.259 293.307 533.838 293.307 Z" fill="#000000" fill-rule="nonzero" fill-opacity="1" /><path clip-path="url(#clip310)" d="M569.324 294.696 L569.324 298.723 Q567.518 297.797 565.574 297.335 Q563.629 296.872 561.546 296.872 Q558.375 296.872 556.777 297.844 Q555.203 298.816 555.203 300.76 Q555.203 302.242 556.338 303.098 Q557.472 303.932 560.898 304.696 L562.356 305.02 Q566.893 305.992 568.791 307.774 Q570.712 309.534 570.712 312.705 Q570.712 316.316 567.842 318.422 Q564.995 320.529 559.995 320.529 Q557.912 320.529 555.643 320.112 Q553.398 319.719 550.898 318.908 L550.898 314.51 Q553.259 315.737 555.55 316.362 Q557.842 316.964 560.088 316.964 Q563.097 316.964 564.717 315.946 Q566.337 314.904 566.337 313.029 Q566.337 311.293 565.157 310.367 Q564 309.441 560.041 308.584 L558.56 308.237 Q554.601 307.404 552.842 305.691 Q551.083 303.955 551.083 300.946 Q551.083 297.288 553.676 295.298 Q556.268 293.307 561.037 293.307 Q563.398 293.307 565.481 293.654 Q567.564 294.001 569.324 294.696 Z" fill="#000000" fill-rule="nonzero" fill-opacity="1" /><path clip-path="url(#clip310)" d="M599.671 305.83 L599.671 307.913 L580.087 307.913 Q580.365 312.311 582.726 314.626 Q585.111 316.918 589.347 316.918 Q591.8 316.918 594.092 316.316 Q596.407 315.714 598.675 314.51 L598.675 318.538 Q596.384 319.51 593.976 320.02 Q591.569 320.529 589.092 320.529 Q582.888 320.529 579.254 316.918 Q575.643 313.307 575.643 307.149 Q575.643 300.784 579.069 297.057 Q582.518 293.307 588.351 293.307 Q593.583 293.307 596.615 296.686 Q599.671 300.043 599.671 305.83 M595.411 304.58 Q595.365 301.085 593.444 299.001 Q591.546 296.918 588.398 296.918 Q584.833 296.918 582.68 298.932 Q580.55 300.946 580.226 304.603 L595.411 304.58 Z" fill="#000000" fill-rule="nonzero" fill-opacity="1" /></svg>
