<?xml version="1.0" encoding="utf-8"?>
<svg xmlns="http://www.w3.org/2000/svg" xmlns:xlink="http://www.w3.org/1999/xlink" width="600" height="400" viewBox="0 0 2400 1600">
<defs>
  <clipPath id="clip400">
    <rect x="0" y="0" width="2400" height="1600"/>
  </clipPath>
</defs>
<path clip-path="url(#clip400)" d="M0 1600 L2400 1600 L2400 0 L0 0  Z" fill="#ffffff" fill-rule="evenodd" fill-opacity="1"/>
<defs>
  <clipPath id="clip401">
    <rect x="480" y="0" width="1681" height="1600"/>
  </clipPath>
</defs>
<path clip-path="url(#clip400)" d="M214.353 1348.39 L2352.76 1348.39 L2352.76 47.2441 L214.353 47.2441  Z" fill="#ffffff" fill-rule="evenodd" fill-opacity="1"/>
<defs>
  <clipPath id="clip402">
    <rect x="214" y="47" width="2139" height="1302"/>
  </clipPath>
</defs>
<polyline clip-path="url(#clip402)" style="stroke:#000000; stroke-linecap:round; stroke-linejoin:round; stroke-width:2; stroke-opacity:0.1; fill:none" points="320.492,1348.39 320.492,47.2441 "/>
<polyline clip-path="url(#clip402)" style="stroke:#000000; stroke-linecap:round; stroke-linejoin:round; stroke-width:2; stroke-opacity:0.1; fill:none" points="421.867,1348.39 421.867,47.2441 "/>
<polyline clip-path="url(#clip402)" style="stroke:#000000; stroke-linecap:round; stroke-linejoin:round; stroke-width:2; stroke-opacity:0.1; fill:none" points="523.242,1348.39 523.242,47.2441 "/>
<polyline clip-path="url(#clip402)" style="stroke:#000000; stroke-linecap:round; stroke-linejoin:round; stroke-width:2; stroke-opacity:0.1; fill:none" points="624.617,1348.39 624.617,47.2441 "/>
<polyline clip-path="url(#clip402)" style="stroke:#000000; stroke-linecap:round; stroke-linejoin:round; stroke-width:2; stroke-opacity:0.1; fill:none" points="725.992,1348.39 725.992,47.2441 "/>
<polyline clip-path="url(#clip402)" style="stroke:#000000; stroke-linecap:round; stroke-linejoin:round; stroke-width:2; stroke-opacity:0.1; fill:none" points="827.367,1348.39 827.367,47.2441 "/>
<polyline clip-path="url(#clip402)" style="stroke:#000000; stroke-linecap:round; stroke-linejoin:round; stroke-width:2; stroke-opacity:0.1; fill:none" points="928.742,1348.39 928.742,47.2441 "/>
<polyline clip-path="url(#clip402)" style="stroke:#000000; stroke-linecap:round; stroke-linejoin:round; stroke-width:2; stroke-opacity:0.1; fill:none" points="1030.12,1348.39 1030.12,47.2441 "/>
<polyline clip-path="url(#clip402)" style="stroke:#000000; stroke-linecap:round; stroke-linejoin:round; stroke-width:2; stroke-opacity:0.1; fill:none" points="1131.49,1348.39 1131.49,47.2441 "/>
<polyline clip-path="url(#clip402)" style="stroke:#000000; stroke-linecap:round; stroke-linejoin:round; stroke-width:2; stroke-opacity:0.1; fill:none" points="1232.87,1348.39 1232.87,47.2441 "/>
<polyline clip-path="url(#clip402)" style="stroke:#000000; stroke-linecap:round; stroke-linejoin:round; stroke-width:2; stroke-opacity:0.1; fill:none" points="1334.24,1348.39 1334.24,47.2441 "/>
<polyline clip-path="url(#clip402)" style="stroke:#000000; stroke-linecap:round; stroke-linejoin:round; stroke-width:2; stroke-opacity:0.1; fill:none" points="1435.62,1348.39 1435.62,47.2441 "/>
<polyline clip-path="url(#clip402)" style="stroke:#000000; stroke-linecap:round; stroke-linejoin:round; stroke-width:2; stroke-opacity:0.1; fill:none" points="1536.99,1348.39 1536.99,47.2441 "/>
<polyline clip-path="url(#clip402)" style="stroke:#000000; stroke-linecap:round; stroke-linejoin:round; stroke-width:2; stroke-opacity:0.1; fill:none" points="1638.37,1348.39 1638.37,47.2441 "/>
<polyline clip-path="url(#clip402)" style="stroke:#000000; stroke-linecap:round; stroke-linejoin:round; stroke-width:2; stroke-opacity:0.1; fill:none" points="1739.74,1348.39 1739.74,47.2441 "/>
<polyline clip-path="url(#clip402)" style="stroke:#000000; stroke-linecap:round; stroke-linejoin:round; stroke-width:2; stroke-opacity:0.1; fill:none" points="1841.12,1348.39 1841.12,47.2441 "/>
<polyline clip-path="url(#clip402)" style="stroke:#000000; stroke-linecap:round; stroke-linejoin:round; stroke-width:2; stroke-opacity:0.1; fill:none" points="1942.49,1348.39 1942.49,47.2441 "/>
<polyline clip-path="url(#clip402)" style="stroke:#000000; stroke-linecap:round; stroke-linejoin:round; stroke-width:2; stroke-opacity:0.1; fill:none" points="2043.87,1348.39 2043.87,47.2441 "/>
<polyline clip-path="url(#clip402)" style="stroke:#000000; stroke-linecap:round; stroke-linejoin:round; stroke-width:2; stroke-opacity:0.1; fill:none" points="2145.24,1348.39 2145.24,47.2441 "/>
<polyline clip-path="url(#clip402)" style="stroke:#000000; stroke-linecap:round; stroke-linejoin:round; stroke-width:2; stroke-opacity:0.1; fill:none" points="2246.62,1348.39 2246.62,47.2441 "/>
<polyline clip-path="url(#clip400)" style="stroke:#000000; stroke-linecap:round; stroke-linejoin:round; stroke-width:4; stroke-opacity:1; fill:none" points="214.353,1348.39 2352.76,1348.39 "/>
<polyline clip-path="url(#clip400)" style="stroke:#000000; stroke-linecap:round; stroke-linejoin:round; stroke-width:4; stroke-opacity:1; fill:none" points="320.492,1348.39 320.492,1329.49 "/>
<polyline clip-path="url(#clip400)" style="stroke:#000000; stroke-linecap:round; stroke-linejoin:round; stroke-width:4; stroke-opacity:1; fill:none" points="421.867,1348.39 421.867,1329.49 "/>
<polyline clip-path="url(#clip400)" style="stroke:#000000; stroke-linecap:round; stroke-linejoin:round; stroke-width:4; stroke-opacity:1; fill:none" points="523.242,1348.39 523.242,1329.49 "/>
<polyline clip-path="url(#clip400)" style="stroke:#000000; stroke-linecap:round; stroke-linejoin:round; stroke-width:4; stroke-opacity:1; fill:none" points="624.617,1348.39 624.617,1329.49 "/>
<polyline clip-path="url(#clip400)" style="stroke:#000000; stroke-linecap:round; stroke-linejoin:round; stroke-width:4; stroke-opacity:1; fill:none" points="725.992,1348.39 725.992,1329.49 "/>
<polyline clip-path="url(#clip400)" style="stroke:#000000; stroke-linecap:round; stroke-linejoin:round; stroke-width:4; stroke-opacity:1; fill:none" points="827.367,1348.39 827.367,1329.49 "/>
<polyline clip-path="url(#clip400)" style="stroke:#000000; stroke-linecap:round; stroke-linejoin:round; stroke-width:4; stroke-opacity:1; fill:none" points="928.742,1348.39 928.742,1329.49 "/>
<polyline clip-path="url(#clip400)" style="stroke:#000000; stroke-linecap:round; stroke-linejoin:round; stroke-width:4; stroke-opacity:1; fill:none" points="1030.12,1348.39 1030.12,1329.49 "/>
<polyline clip-path="url(#clip400)" style="stroke:#000000; stroke-linecap:round; stroke-linejoin:round; stroke-width:4; stroke-opacity:1; fill:none" points="1131.49,1348.39 1131.49,1329.49 "/>
<polyline clip-path="url(#clip400)" style="stroke:#000000; stroke-linecap:round; stroke-linejoin:round; stroke-width:4; stroke-opacity:1; fill:none" points="1232.87,1348.39 1232.87,1329.49 "/>
<polyline clip-path="url(#clip400)" style="stroke:#000000; stroke-linecap:round; stroke-linejoin:round; stroke-width:4; stroke-opacity:1; fill:none" points="1334.24,1348.39 1334.24,1329.49 "/>
<polyline clip-path="url(#clip400)" style="stroke:#000000; stroke-linecap:round; stroke-linejoin:round; stroke-width:4; stroke-opacity:1; fill:none" points="1435.62,1348.39 1435.62,1329.49 "/>
<polyline clip-path="url(#clip400)" style="stroke:#000000; stroke-linecap:round; stroke-linejoin:round; stroke-width:4; stroke-opacity:1; fill:none" points="1536.99,1348.39 1536.99,1329.49 "/>
<polyline clip-path="url(#clip400)" style="stroke:#000000; stroke-linecap:round; stroke-linejoin:round; stroke-width:4; stroke-opacity:1; fill:none" points="1638.37,1348.39 1638.37,1329.49 "/>
<polyline clip-path="url(#clip400)" style="stroke:#000000; stroke-linecap:round; stroke-linejoin:round; stroke-width:4; stroke-opacity:1; fill:none" points="1739.74,1348.39 1739.74,1329.49 "/>
<polyline clip-path="url(#clip400)" style="stroke:#000000; stroke-linecap:round; stroke-linejoin:round; stroke-width:4; stroke-opacity:1; fill:none" points="1841.12,1348.39 1841.12,1329.49 "/>
<polyline clip-path="url(#clip400)" style="stroke:#000000; stroke-linecap:round; stroke-linejoin:round; stroke-width:4; stroke-opacity:1; fill:none" points="1942.49,1348.39 1942.49,1329.49 "/>
<polyline clip-path="url(#clip400)" style="stroke:#000000; stroke-linecap:round; stroke-linejoin:round; stroke-width:4; stroke-opacity:1; fill:none" points="2043.87,1348.39 2043.87,1329.49 "/>
<polyline clip-path="url(#clip400)" style="stroke:#000000; stroke-linecap:round; stroke-linejoin:round; stroke-width:4; stroke-opacity:1; fill:none" points="2145.24,1348.39 2145.24,1329.49 "/>
<polyline clip-path="url(#clip400)" style="stroke:#000000; stroke-linecap:round; stroke-linejoin:round; stroke-width:4; stroke-opacity:1; fill:none" points="2246.62,1348.39 2246.62,1329.49 "/>
<path clip-path="url(#clip400)" d="M200.916 1614.35 L209.075 1600.22 L212.483 1602.19 L201.511 1621.19 L198.103 1619.23 Q197.049 1615.54 195.331 1609.26 Q193.605 1602.94 193.032 1601.25 Q191.97 1598.04 190.906 1596.41 Q189.834 1594.75 188.37 1593.91 Q185.985 1592.53 183.509 1593.35 Q181.045 1594.14 179.494 1596.83 Q178.395 1598.73 177.829 1601.24 Q177.276 1603.73 177.23 1606.91 L173.14 1604.55 Q173.57 1601.53 174.296 1599.12 Q175.021 1596.7 176.04 1594.94 Q178.725 1590.29 182.648 1588.87 Q186.57 1587.44 190.459 1589.69 Q192.304 1590.75 193.563 1592.41 Q194.813 1594.05 196.005 1597.17 Q196.297 1598 197.532 1602.3 Q198.748 1606.58 200.916 1614.35 Z" fill="#000000" fill-rule="nonzero" fill-opacity="1" /><path clip-path="url(#clip400)" d="M195.127 1569.29 Q193.321 1572.42 195.494 1575.78 Q197.659 1579.12 203.833 1582.68 Q209.987 1586.23 213.977 1586.45 Q217.959 1586.64 219.764 1583.51 Q221.582 1580.37 219.417 1577.03 Q217.244 1573.66 211.09 1570.11 Q204.916 1566.55 200.934 1566.36 Q196.944 1566.14 195.127 1569.29 M191.919 1567.44 Q194.825 1562.4 200.342 1562.06 Q205.85 1561.69 213.428 1566.06 Q220.986 1570.43 223.435 1575.4 Q225.877 1580.33 222.972 1585.36 Q220.067 1590.4 214.558 1590.77 Q209.041 1591.11 201.483 1586.75 Q193.906 1582.38 191.464 1577.44 Q189.014 1572.47 191.919 1567.44 Z" fill="#000000" fill-rule="nonzero" fill-opacity="1" /><path clip-path="url(#clip400)" d="M231.077 1562.11 L239.237 1547.98 L242.645 1549.95 L231.673 1568.95 L228.265 1566.98 Q227.21 1563.3 225.493 1557.02 Q223.767 1550.7 223.194 1549.01 Q222.132 1545.8 221.068 1544.17 Q219.996 1542.51 218.532 1541.67 Q216.147 1540.29 213.671 1541.1 Q211.207 1541.9 209.656 1544.59 Q208.556 1546.49 207.991 1549 Q207.437 1551.48 207.392 1554.67 L203.302 1552.3 Q203.732 1549.29 204.458 1546.88 Q205.183 1544.46 206.202 1542.7 Q208.887 1538.05 212.81 1536.62 Q216.732 1535.2 220.621 1537.45 Q222.466 1538.51 223.724 1540.17 Q224.975 1541.8 226.167 1544.92 Q226.459 1545.76 227.694 1550.06 Q228.91 1554.34 231.077 1562.11 Z" fill="#000000" fill-rule="nonzero" fill-opacity="1" /><path clip-path="url(#clip400)" d="M227.574 1515.08 L237.649 1534.53 L243.552 1524.3 L227.574 1515.08 M223.433 1514.1 L226.373 1509.01 L245.878 1520.27 L248.343 1516 L251.711 1517.95 L249.246 1522.22 L256.302 1526.29 L253.976 1530.32 L246.92 1526.25 L239.119 1539.76 L235.21 1537.5 L223.433 1514.1 Z" fill="#000000" fill-rule="nonzero" fill-opacity="1" /><path clip-path="url(#clip400)" d="M248.366 1510.27 L254.604 1499.46 L257.892 1501.36 L251.654 1512.17 L248.366 1510.27 Z" fill="#000000" fill-rule="nonzero" fill-opacity="1" /><path clip-path="url(#clip400)" d="M248.923 1476.11 Q247.117 1479.24 249.29 1482.6 Q251.455 1485.94 257.629 1489.5 Q263.783 1493.06 267.773 1493.28 Q271.755 1493.46 273.56 1490.34 Q275.378 1487.19 273.213 1483.85 Q271.04 1480.49 264.886 1476.93 Q258.712 1473.37 254.73 1473.18 Q250.74 1472.96 248.923 1476.11 M245.715 1474.26 Q248.621 1469.23 254.138 1468.88 Q259.646 1468.51 267.224 1472.88 Q274.782 1477.25 277.231 1482.22 Q279.673 1487.16 276.768 1492.19 Q273.863 1497.22 268.354 1497.59 Q262.837 1497.94 255.279 1493.57 Q247.702 1489.2 245.26 1484.26 Q242.81 1479.29 245.715 1474.26 Z" fill="#000000" fill-rule="nonzero" fill-opacity="1" /><path clip-path="url(#clip400)" d="M277.213 1452.81 Q279.513 1450.26 282.415 1449.77 Q285.329 1449.26 288.215 1450.92 Q292.646 1453.48 293.312 1457.93 Q293.978 1462.38 290.738 1467.99 Q289.65 1469.88 288.111 1471.66 Q286.605 1473.44 284.636 1475.13 L280.727 1472.88 Q282.682 1471.76 284.34 1470.04 Q285.999 1468.33 287.26 1466.14 Q289.459 1462.33 289.102 1459.48 Q288.756 1456.61 285.889 1454.95 Q283.243 1453.43 280.683 1454.43 Q278.115 1455.41 276.205 1458.72 L274.191 1462.21 L270.863 1460.29 L272.97 1456.64 Q274.694 1453.65 274.426 1451.38 Q274.137 1449.1 271.892 1447.81 Q269.587 1446.48 267.415 1447.42 Q265.234 1448.32 263.475 1451.37 Q262.515 1453.03 261.776 1455.15 Q261.037 1457.26 260.479 1459.98 L256.871 1457.9 Q257.561 1455.22 258.397 1453.03 Q259.245 1450.82 260.276 1449.04 Q262.938 1444.43 266.593 1442.96 Q270.229 1441.48 273.798 1443.54 Q276.283 1444.97 277.186 1447.39 Q278.068 1449.8 277.213 1452.81 Z" fill="#000000" fill-rule="nonzero" fill-opacity="1" /><path clip-path="url(#clip400)" d="M287.081 1443.21 L293.319 1432.41 L296.607 1434.31 L290.369 1445.11 L287.081 1443.21 Z" fill="#000000" fill-rule="nonzero" fill-opacity="1" /><path clip-path="url(#clip400)" d="M308.508 1428 L316.667 1413.87 L320.075 1415.83 L309.103 1434.84 L305.695 1432.87 Q304.641 1429.19 302.923 1422.9 Q301.197 1416.59 300.624 1414.89 Q299.562 1411.69 298.498 1410.06 Q297.426 1408.4 295.963 1407.55 Q293.577 1406.18 291.101 1406.99 Q288.637 1407.79 287.086 1410.47 Q285.987 1412.38 285.421 1414.88 Q284.868 1417.37 284.822 1420.55 L280.732 1418.19 Q281.162 1415.18 281.888 1412.76 Q282.613 1410.35 283.632 1408.59 Q286.317 1403.94 290.24 1402.51 Q294.162 1401.09 298.051 1403.33 Q299.896 1404.4 301.155 1406.06 Q302.405 1407.69 303.597 1410.81 Q303.889 1411.65 305.124 1415.94 Q306.34 1420.23 308.508 1428 Z" fill="#000000" fill-rule="nonzero" fill-opacity="1" /><path clip-path="url(#clip400)" d="M295.076 1390.01 L304.254 1374.12 L307.662 1376.08 L300.625 1388.27 L307.962 1392.51 Q308.171 1391.45 308.54 1390.49 Q308.889 1389.52 309.398 1388.63 Q312.291 1383.62 316.727 1382.28 Q321.164 1380.94 325.855 1383.65 Q330.686 1386.44 331.636 1391 Q332.566 1395.54 329.407 1401.01 Q328.319 1402.9 326.864 1404.68 Q325.42 1406.44 323.575 1408.15 L319.505 1405.8 Q321.529 1404.57 323.122 1402.92 Q324.714 1401.27 325.952 1399.13 Q327.955 1395.66 327.299 1392.58 Q326.644 1389.5 323.517 1387.7 Q320.389 1385.89 317.396 1386.86 Q314.403 1387.84 312.401 1391.3 Q311.463 1392.93 310.886 1394.76 Q310.321 1396.57 310.111 1398.69 L295.076 1390.01 Z" fill="#000000" fill-rule="nonzero" fill-opacity="1" /><path clip-path="url(#clip400)" d="M504.589 1615.14 L512.749 1601 L516.157 1602.97 L505.184 1621.98 L501.777 1620.01 Q500.722 1616.32 499.004 1610.04 Q497.278 1603.73 496.706 1602.03 Q495.643 1598.83 494.58 1597.2 Q493.507 1595.53 492.044 1594.69 Q489.658 1593.31 487.183 1594.13 Q484.719 1594.92 483.168 1597.61 Q482.068 1599.51 481.503 1602.02 Q480.949 1604.51 480.903 1607.69 L476.814 1605.33 Q477.244 1602.32 477.969 1599.9 Q478.695 1597.49 479.713 1595.72 Q482.399 1591.07 486.321 1589.65 Q490.244 1588.22 494.133 1590.47 Q495.977 1591.53 497.236 1593.2 Q498.486 1594.83 499.678 1597.95 Q499.97 1598.78 501.206 1603.08 Q502.421 1607.36 504.589 1615.14 Z" fill="#000000" fill-rule="nonzero" fill-opacity="1" /><path clip-path="url(#clip400)" d="M498.8 1570.07 Q496.995 1573.2 499.168 1576.56 Q501.332 1579.9 507.507 1583.46 Q513.661 1587.02 517.651 1587.23 Q521.632 1587.42 523.438 1584.29 Q525.255 1581.15 523.091 1577.81 Q520.918 1574.45 514.763 1570.89 Q508.589 1567.33 504.607 1567.14 Q500.618 1566.92 498.8 1570.07 M495.593 1568.22 Q498.498 1563.19 504.015 1562.84 Q509.524 1562.47 517.101 1566.84 Q524.659 1571.21 527.109 1576.18 Q529.55 1581.11 526.645 1586.15 Q523.74 1591.18 518.232 1591.55 Q512.715 1591.9 505.157 1587.53 Q497.579 1583.16 495.138 1578.22 Q492.688 1573.25 495.593 1568.22 Z" fill="#000000" fill-rule="nonzero" fill-opacity="1" /><path clip-path="url(#clip400)" d="M534.751 1562.89 L542.911 1548.76 L546.319 1550.73 L535.346 1569.73 L531.938 1567.77 Q530.884 1564.08 529.166 1557.8 Q527.44 1551.48 526.868 1549.79 Q525.805 1546.58 524.741 1544.95 Q523.669 1543.29 522.206 1542.45 Q519.82 1541.07 517.345 1541.89 Q514.88 1542.68 513.329 1545.37 Q512.23 1547.27 511.665 1549.78 Q511.111 1552.27 511.065 1555.45 L506.976 1553.09 Q507.405 1550.07 508.131 1547.66 Q508.857 1545.24 509.875 1543.48 Q512.56 1538.83 516.483 1537.41 Q520.406 1535.98 524.295 1538.23 Q526.139 1539.29 527.398 1540.95 Q528.648 1542.59 529.84 1545.71 Q530.132 1546.54 531.368 1550.84 Q532.583 1555.12 534.751 1562.89 Z" fill="#000000" fill-rule="nonzero" fill-opacity="1" /><path clip-path="url(#clip400)" d="M531.248 1515.86 L541.322 1535.31 L547.225 1525.08 L531.248 1515.86 M527.106 1514.89 L530.046 1509.79 L549.552 1521.06 L552.017 1516.79 L555.385 1518.73 L552.919 1523 L559.976 1527.07 L557.649 1531.1 L550.593 1527.03 L542.792 1540.54 L538.883 1538.28 L527.106 1514.89 Z" fill="#000000" fill-rule="nonzero" fill-opacity="1" /><path clip-path="url(#clip400)" d="M552.039 1511.05 L558.278 1500.25 L561.566 1502.14 L555.327 1512.95 L552.039 1511.05 Z" fill="#000000" fill-rule="nonzero" fill-opacity="1" /><path clip-path="url(#clip400)" d="M552.596 1476.89 Q550.791 1480.02 552.964 1483.39 Q555.128 1486.72 561.303 1490.29 Q567.457 1493.84 571.447 1494.06 Q575.428 1494.24 577.234 1491.12 Q579.051 1487.97 576.887 1484.64 Q574.714 1481.27 568.559 1477.72 Q562.385 1474.15 558.404 1473.96 Q554.414 1473.75 552.596 1476.89 M549.389 1475.04 Q552.294 1470.01 557.811 1469.67 Q563.32 1469.29 570.897 1473.67 Q578.455 1478.03 580.905 1483 Q583.346 1487.94 580.441 1492.97 Q577.536 1498 572.028 1498.38 Q566.511 1498.72 558.953 1494.35 Q551.375 1489.98 548.934 1485.04 Q546.484 1480.07 549.389 1475.04 Z" fill="#000000" fill-rule="nonzero" fill-opacity="1" /><path clip-path="url(#clip400)" d="M580.887 1453.59 Q583.186 1451.04 586.088 1450.55 Q589.002 1450.04 591.889 1451.71 Q596.319 1454.26 596.986 1458.71 Q597.652 1463.16 594.411 1468.77 Q593.323 1470.66 591.785 1472.44 Q590.278 1474.22 588.31 1475.91 L584.401 1473.66 Q586.355 1472.54 588.014 1470.83 Q589.672 1469.11 590.934 1466.93 Q593.133 1463.12 592.775 1460.26 Q592.429 1457.39 589.562 1455.74 Q586.916 1454.21 584.356 1455.22 Q581.788 1456.19 579.878 1459.5 L577.864 1462.99 L574.537 1461.07 L576.643 1457.42 Q578.368 1454.43 578.099 1452.16 Q577.811 1449.89 575.566 1448.59 Q573.26 1447.26 571.088 1448.2 Q568.908 1449.1 567.149 1452.15 Q566.188 1453.81 565.449 1455.93 Q564.711 1458.04 564.153 1460.77 L560.545 1458.68 Q561.234 1456.01 562.071 1453.82 Q562.919 1451.61 563.949 1449.82 Q566.611 1445.21 570.267 1443.74 Q573.903 1442.26 577.471 1444.32 Q579.957 1445.75 580.859 1448.17 Q581.741 1450.58 580.887 1453.59 Z" fill="#000000" fill-rule="nonzero" fill-opacity="1" /><path clip-path="url(#clip400)" d="M590.755 1444 L596.993 1433.19 L600.281 1435.09 L594.042 1445.89 L590.755 1444 Z" fill="#000000" fill-rule="nonzero" fill-opacity="1" /><path clip-path="url(#clip400)" d="M612.181 1428.78 L620.341 1414.65 L623.749 1416.62 L612.777 1435.62 L609.369 1433.65 Q608.314 1429.97 606.596 1423.69 Q604.87 1417.37 604.298 1415.68 Q603.235 1412.47 602.172 1410.84 Q601.099 1409.18 599.636 1408.33 Q597.25 1406.96 594.775 1407.77 Q592.311 1408.57 590.76 1411.26 Q589.66 1413.16 589.095 1415.67 Q588.541 1418.15 588.495 1421.33 L584.406 1418.97 Q584.836 1415.96 585.561 1413.55 Q586.287 1411.13 587.305 1409.37 Q589.991 1404.72 593.913 1403.29 Q597.836 1401.87 601.725 1404.11 Q603.569 1405.18 604.828 1406.84 Q606.078 1408.47 607.27 1411.59 Q607.562 1412.43 608.798 1416.72 Q610.013 1421.01 612.181 1428.78 Z" fill="#000000" fill-rule="nonzero" fill-opacity="1" /><path clip-path="url(#clip400)" d="M619.443 1391.25 Q617.776 1394.14 618.359 1396.69 Q618.954 1399.23 621.66 1400.79 Q624.366 1402.35 626.859 1401.6 Q629.363 1400.83 631.03 1397.94 Q632.697 1395.05 632.114 1392.5 Q631.511 1389.93 628.824 1388.38 Q626.118 1386.82 623.614 1387.59 Q621.121 1388.34 619.443 1391.25 M615.381 1394.3 Q613.235 1396.54 610.606 1396.97 Q607.988 1397.39 605.422 1395.9 Q601.834 1393.83 601.219 1390.08 Q600.616 1386.31 603.185 1381.86 Q605.766 1377.39 609.321 1376.05 Q612.875 1374.71 616.464 1376.78 Q619.03 1378.26 619.969 1380.76 Q620.92 1383.23 620.068 1386.19 Q622.44 1383.65 625.362 1383.17 Q628.296 1382.68 631.162 1384.33 Q635.512 1386.84 636.299 1390.85 Q637.096 1394.84 634.237 1399.79 Q631.379 1404.74 627.514 1406.07 Q623.661 1407.37 619.31 1404.86 Q616.444 1403.2 615.408 1400.41 Q614.373 1397.62 615.381 1394.3 M608.129 1392.1 Q610.455 1393.44 612.591 1392.75 Q614.739 1392.04 616.255 1389.41 Q617.76 1386.8 617.302 1384.59 Q616.855 1382.35 614.53 1381.01 Q612.204 1379.67 610.045 1380.4 Q607.897 1381.11 606.392 1383.72 Q604.876 1386.34 605.334 1388.56 Q605.804 1390.75 608.129 1392.1 Z" fill="#000000" fill-rule="nonzero" fill-opacity="1" /><path clip-path="url(#clip400)" d="M808.992 1614.66 L817.151 1600.52 L820.559 1602.49 L809.587 1621.49 L806.179 1619.53 Q805.125 1615.84 803.407 1609.56 Q801.681 1603.24 801.108 1601.55 Q800.046 1598.34 798.982 1596.71 Q797.91 1595.05 796.447 1594.21 Q794.061 1592.83 791.585 1593.65 Q789.121 1594.44 787.57 1597.13 Q786.471 1599.03 785.905 1601.54 Q785.352 1604.03 785.306 1607.21 L781.216 1604.85 Q781.646 1601.83 782.372 1599.42 Q783.098 1597.01 784.116 1595.24 Q786.801 1590.59 790.724 1589.17 Q794.646 1587.74 798.536 1589.99 Q800.38 1591.05 801.639 1592.72 Q802.889 1594.35 804.081 1597.47 Q804.373 1598.3 805.609 1602.6 Q806.824 1606.88 808.992 1614.66 Z" fill="#000000" fill-rule="nonzero" fill-opacity="1" /><path clip-path="url(#clip400)" d="M803.203 1569.59 Q801.398 1572.72 803.57 1576.08 Q805.735 1579.42 811.909 1582.98 Q818.064 1586.53 822.053 1586.75 Q826.035 1586.94 827.841 1583.81 Q829.658 1580.67 827.493 1577.33 Q825.32 1573.97 819.166 1570.41 Q812.992 1566.85 809.01 1566.66 Q805.02 1566.44 803.203 1569.59 M799.996 1567.74 Q802.901 1562.71 808.418 1562.36 Q813.926 1561.99 821.504 1566.36 Q829.062 1570.73 831.512 1575.7 Q833.953 1580.63 831.048 1585.67 Q828.143 1590.7 822.634 1591.07 Q817.117 1591.41 809.56 1587.05 Q801.982 1582.68 799.54 1577.74 Q797.09 1572.77 799.996 1567.74 Z" fill="#000000" fill-rule="nonzero" fill-opacity="1" /><path clip-path="url(#clip400)" d="M839.154 1562.41 L847.313 1548.28 L850.721 1550.25 L839.749 1569.25 L836.341 1567.28 Q835.287 1563.6 833.569 1557.32 Q831.843 1551 831.27 1549.31 Q830.208 1546.1 829.144 1544.47 Q828.072 1542.81 826.609 1541.97 Q824.223 1540.59 821.747 1541.4 Q819.283 1542.2 817.732 1544.89 Q816.633 1546.79 816.067 1549.3 Q815.514 1551.79 815.468 1554.97 L811.378 1552.61 Q811.808 1549.59 812.534 1547.18 Q813.259 1544.76 814.278 1543 Q816.963 1538.35 820.886 1536.92 Q824.808 1535.5 828.697 1537.75 Q830.542 1538.81 831.801 1540.47 Q833.051 1542.1 834.243 1545.22 Q834.535 1546.06 835.77 1550.36 Q836.986 1554.64 839.154 1562.41 Z" fill="#000000" fill-rule="nonzero" fill-opacity="1" /><path clip-path="url(#clip400)" d="M835.651 1515.38 L845.725 1534.83 L851.628 1524.6 L835.651 1515.38 M831.509 1514.4 L834.449 1509.31 L853.954 1520.57 L856.419 1516.3 L859.787 1518.25 L857.322 1522.52 L864.379 1526.59 L862.052 1530.62 L854.996 1526.55 L847.195 1540.06 L843.286 1537.8 L831.509 1514.4 Z" fill="#000000" fill-rule="nonzero" fill-opacity="1" /><path clip-path="url(#clip400)" d="M856.442 1510.57 L862.681 1499.77 L865.968 1501.66 L859.73 1512.47 L856.442 1510.57 Z" fill="#000000" fill-rule="nonzero" fill-opacity="1" /><path clip-path="url(#clip400)" d="M856.999 1476.41 Q855.194 1479.54 857.366 1482.91 Q859.531 1486.24 865.705 1489.8 Q871.86 1493.36 875.849 1493.58 Q879.831 1493.76 881.637 1490.64 Q883.454 1487.49 881.289 1484.15 Q879.116 1480.79 872.962 1477.24 Q866.788 1473.67 862.806 1473.48 Q858.816 1473.26 856.999 1476.41 M853.792 1474.56 Q856.697 1469.53 862.214 1469.19 Q867.722 1468.81 875.3 1473.19 Q882.858 1477.55 885.308 1482.52 Q887.749 1487.46 884.844 1492.49 Q881.939 1497.52 876.43 1497.89 Q870.913 1498.24 863.356 1493.87 Q855.778 1489.5 853.336 1484.56 Q850.886 1479.59 853.792 1474.56 Z" fill="#000000" fill-rule="nonzero" fill-opacity="1" /><path clip-path="url(#clip400)" d="M874.366 1448.32 L884.44 1467.77 L890.343 1457.55 L874.366 1448.32 M870.224 1447.35 L873.164 1442.26 L892.669 1453.52 L895.135 1449.25 L898.502 1451.19 L896.037 1455.46 L903.094 1459.54 L900.767 1463.57 L893.711 1459.49 L885.91 1473 L882.001 1470.75 L870.224 1447.35 Z" fill="#000000" fill-rule="nonzero" fill-opacity="1" /><path clip-path="url(#clip400)" d="M895.157 1443.51 L901.396 1432.71 L904.683 1434.61 L898.445 1445.41 L895.157 1443.51 Z" fill="#000000" fill-rule="nonzero" fill-opacity="1" /><path clip-path="url(#clip400)" d="M895.714 1409.36 Q893.909 1412.48 896.081 1415.85 Q898.246 1419.18 904.42 1422.75 Q910.575 1426.3 914.565 1426.52 Q918.546 1426.71 920.352 1423.58 Q922.169 1420.43 920.004 1417.1 Q917.831 1413.73 911.677 1410.18 Q905.503 1406.61 901.521 1406.43 Q897.531 1406.21 895.714 1409.36 M892.507 1407.5 Q895.412 1402.47 900.929 1402.13 Q906.437 1401.75 914.015 1406.13 Q921.573 1410.49 924.023 1415.46 Q926.464 1420.4 923.559 1425.43 Q920.654 1430.46 915.145 1430.84 Q909.628 1431.18 902.071 1426.82 Q894.493 1422.44 892.052 1417.5 Q889.602 1412.54 892.507 1407.5 Z" fill="#000000" fill-rule="nonzero" fill-opacity="1" /><path clip-path="url(#clip400)" d="M924.004 1386.05 Q926.304 1383.5 929.206 1383.01 Q932.12 1382.5 935.006 1384.17 Q939.437 1386.73 940.103 1391.17 Q940.77 1395.62 937.529 1401.24 Q936.441 1403.12 934.903 1404.9 Q933.396 1406.68 931.427 1408.38 L927.518 1406.12 Q929.473 1405 931.131 1403.29 Q932.79 1401.57 934.052 1399.39 Q936.251 1395.58 935.893 1392.73 Q935.547 1389.85 932.68 1388.2 Q930.034 1386.67 927.474 1387.68 Q924.906 1388.65 922.996 1391.96 L920.982 1395.45 L917.654 1393.53 L919.761 1389.88 Q921.485 1386.89 921.217 1384.63 Q920.929 1382.35 918.683 1381.05 Q916.378 1379.72 914.206 1380.66 Q912.026 1381.57 910.266 1384.61 Q909.306 1386.28 908.567 1388.39 Q907.828 1390.5 907.271 1393.23 L903.662 1391.14 Q904.352 1388.47 905.188 1386.28 Q906.037 1384.07 907.067 1382.28 Q909.729 1377.67 913.385 1376.2 Q917.02 1374.72 920.589 1376.78 Q923.075 1378.22 923.977 1380.63 Q924.859 1383.04 924.004 1386.05 Z" fill="#000000" fill-rule="nonzero" fill-opacity="1" /><path clip-path="url(#clip400)" d="M1112.84 1615.14 L1121 1601 L1124.41 1602.97 L1113.43 1621.98 L1110.03 1620.01 Q1108.97 1616.32 1107.25 1610.04 Q1105.53 1603.73 1104.96 1602.03 Q1103.89 1598.83 1102.83 1597.2 Q1101.76 1595.53 1100.29 1594.69 Q1097.91 1593.31 1095.43 1594.13 Q1092.97 1594.92 1091.42 1597.61 Q1090.32 1599.51 1089.75 1602.02 Q1089.2 1604.51 1089.15 1607.69 L1085.06 1605.33 Q1085.49 1602.32 1086.22 1599.9 Q1086.94 1597.49 1087.96 1595.72 Q1090.65 1591.07 1094.57 1589.65 Q1098.49 1588.22 1102.38 1590.47 Q1104.23 1591.53 1105.49 1593.2 Q1106.74 1594.83 1107.93 1597.95 Q1108.22 1598.78 1109.46 1603.08 Q1110.67 1607.36 1112.84 1615.14 Z" fill="#000000" fill-rule="nonzero" fill-opacity="1" /><path clip-path="url(#clip400)" d="M1107.05 1570.07 Q1105.24 1573.2 1107.42 1576.56 Q1109.58 1579.9 1115.76 1583.46 Q1121.91 1587.02 1125.9 1587.23 Q1129.88 1587.42 1131.69 1584.29 Q1133.5 1581.15 1131.34 1577.81 Q1129.17 1574.45 1123.01 1570.89 Q1116.84 1567.33 1112.86 1567.14 Q1108.87 1566.92 1107.05 1570.07 M1103.84 1568.22 Q1106.75 1563.19 1112.26 1562.84 Q1117.77 1562.47 1125.35 1566.84 Q1132.91 1571.21 1135.36 1576.18 Q1137.8 1581.11 1134.9 1586.15 Q1131.99 1591.18 1126.48 1591.55 Q1120.96 1591.9 1113.41 1587.53 Q1105.83 1583.16 1103.39 1578.22 Q1100.94 1573.25 1103.84 1568.22 Z" fill="#000000" fill-rule="nonzero" fill-opacity="1" /><path clip-path="url(#clip400)" d="M1143 1562.89 L1151.16 1548.76 L1154.57 1550.73 L1143.6 1569.73 L1140.19 1567.77 Q1139.13 1564.08 1137.42 1557.8 Q1135.69 1551.48 1135.12 1549.79 Q1134.05 1546.58 1132.99 1544.95 Q1131.92 1543.29 1130.46 1542.45 Q1128.07 1541.07 1125.59 1541.89 Q1123.13 1542.68 1121.58 1545.37 Q1120.48 1547.27 1119.91 1549.78 Q1119.36 1552.27 1119.31 1555.45 L1115.23 1553.09 Q1115.66 1550.07 1116.38 1547.66 Q1117.11 1545.24 1118.12 1543.48 Q1120.81 1538.83 1124.73 1537.41 Q1128.66 1535.98 1132.54 1538.23 Q1134.39 1539.29 1135.65 1540.95 Q1136.9 1542.59 1138.09 1545.71 Q1138.38 1546.54 1139.62 1550.84 Q1140.83 1555.12 1143 1562.89 Z" fill="#000000" fill-rule="nonzero" fill-opacity="1" /><path clip-path="url(#clip400)" d="M1139.5 1515.86 L1149.57 1535.31 L1155.47 1525.08 L1139.5 1515.86 M1135.36 1514.89 L1138.3 1509.79 L1157.8 1521.06 L1160.27 1516.79 L1163.63 1518.73 L1161.17 1523 L1168.23 1527.07 L1165.9 1531.1 L1158.84 1527.03 L1151.04 1540.54 L1147.13 1538.28 L1135.36 1514.89 Z" fill="#000000" fill-rule="nonzero" fill-opacity="1" /><path clip-path="url(#clip400)" d="M1160.29 1511.05 L1166.53 1500.25 L1169.82 1502.14 L1163.58 1512.95 L1160.29 1511.05 Z" fill="#000000" fill-rule="nonzero" fill-opacity="1" /><path clip-path="url(#clip400)" d="M1160.85 1476.89 Q1159.04 1480.02 1161.21 1483.39 Q1163.38 1486.72 1169.55 1490.29 Q1175.71 1493.84 1179.7 1494.06 Q1183.68 1494.24 1185.48 1491.12 Q1187.3 1487.97 1185.14 1484.64 Q1182.96 1481.27 1176.81 1477.72 Q1170.63 1474.15 1166.65 1473.96 Q1162.66 1473.75 1160.85 1476.89 M1157.64 1475.04 Q1160.54 1470.01 1166.06 1469.67 Q1171.57 1469.29 1179.15 1473.67 Q1186.7 1478.03 1189.15 1483 Q1191.6 1487.94 1188.69 1492.97 Q1185.79 1498 1180.28 1498.38 Q1174.76 1498.72 1167.2 1494.35 Q1159.63 1489.98 1157.18 1485.04 Q1154.73 1480.07 1157.64 1475.04 Z" fill="#000000" fill-rule="nonzero" fill-opacity="1" /><path clip-path="url(#clip400)" d="M1178.21 1448.8 L1188.29 1468.25 L1194.19 1458.03 L1178.21 1448.8 M1174.07 1447.83 L1177.01 1442.74 L1196.52 1454 L1198.98 1449.73 L1202.35 1451.67 L1199.88 1455.94 L1206.94 1460.02 L1204.61 1464.05 L1197.56 1459.97 L1189.76 1473.48 L1185.85 1471.23 L1174.07 1447.83 Z" fill="#000000" fill-rule="nonzero" fill-opacity="1" /><path clip-path="url(#clip400)" d="M1199 1444 L1205.24 1433.19 L1208.53 1435.09 L1202.29 1445.89 L1199 1444 Z" fill="#000000" fill-rule="nonzero" fill-opacity="1" /><path clip-path="url(#clip400)" d="M1199.56 1409.84 Q1197.76 1412.96 1199.93 1416.33 Q1202.09 1419.66 1208.27 1423.23 Q1214.42 1426.78 1218.41 1427 Q1222.39 1427.19 1224.2 1424.06 Q1226.02 1420.91 1223.85 1417.58 Q1221.68 1414.21 1215.52 1410.66 Q1209.35 1407.09 1205.37 1406.91 Q1201.38 1406.69 1199.56 1409.84 M1196.35 1407.98 Q1199.26 1402.95 1204.78 1402.61 Q1210.28 1402.24 1217.86 1406.61 Q1225.42 1410.97 1227.87 1415.94 Q1230.31 1420.88 1227.41 1425.91 Q1224.5 1430.94 1218.99 1431.32 Q1213.48 1431.66 1205.92 1427.3 Q1198.34 1422.92 1195.9 1417.99 Q1193.45 1413.02 1196.35 1407.98 Z" fill="#000000" fill-rule="nonzero" fill-opacity="1" /><path clip-path="url(#clip400)" d="M1227.69 1391.25 Q1226.03 1394.14 1226.61 1396.69 Q1227.2 1399.23 1229.91 1400.79 Q1232.62 1402.35 1235.11 1401.6 Q1237.61 1400.83 1239.28 1397.94 Q1240.95 1395.05 1240.36 1392.5 Q1239.76 1389.93 1237.07 1388.38 Q1234.37 1386.82 1231.86 1387.59 Q1229.37 1388.34 1227.69 1391.25 M1223.63 1394.3 Q1221.48 1396.54 1218.86 1396.97 Q1216.24 1397.39 1213.67 1395.9 Q1210.08 1393.83 1209.47 1390.08 Q1208.87 1386.31 1211.43 1381.86 Q1214.02 1377.39 1217.57 1376.05 Q1221.13 1374.71 1224.71 1376.78 Q1227.28 1378.26 1228.22 1380.76 Q1229.17 1383.23 1228.32 1386.19 Q1230.69 1383.65 1233.61 1383.17 Q1236.55 1382.68 1239.41 1384.33 Q1243.76 1386.84 1244.55 1390.85 Q1245.35 1394.84 1242.49 1399.79 Q1239.63 1404.74 1235.76 1406.07 Q1231.91 1407.37 1227.56 1404.86 Q1224.69 1403.2 1223.66 1400.41 Q1222.62 1397.62 1223.63 1394.3 M1216.38 1392.1 Q1218.7 1393.44 1220.84 1392.75 Q1222.99 1392.04 1224.51 1389.41 Q1226.01 1386.8 1225.55 1384.59 Q1225.11 1382.35 1222.78 1381.01 Q1220.45 1379.67 1218.29 1380.4 Q1216.15 1381.11 1214.64 1383.72 Q1213.13 1386.34 1213.58 1388.56 Q1214.05 1390.75 1216.38 1392.1 Z" fill="#000000" fill-rule="nonzero" fill-opacity="1" /><path clip-path="url(#clip400)" d="M1417.53 1614.15 L1425.69 1600.02 L1429.1 1601.99 L1418.13 1620.99 L1414.72 1619.03 Q1413.66 1615.34 1411.95 1609.06 Q1410.22 1602.74 1409.65 1601.05 Q1408.59 1597.84 1407.52 1596.21 Q1406.45 1594.55 1404.99 1593.71 Q1402.6 1592.33 1400.12 1593.15 Q1397.66 1593.94 1396.11 1596.63 Q1395.01 1598.53 1394.44 1601.04 Q1393.89 1603.53 1393.85 1606.71 L1389.76 1604.35 Q1390.19 1601.33 1390.91 1598.92 Q1391.64 1596.5 1392.66 1594.74 Q1395.34 1590.09 1399.26 1588.67 Q1403.19 1587.24 1407.07 1589.49 Q1408.92 1590.55 1410.18 1592.21 Q1411.43 1593.84 1412.62 1596.97 Q1412.91 1597.8 1414.15 1602.1 Q1415.36 1606.38 1417.53 1614.15 Z" fill="#000000" fill-rule="nonzero" fill-opacity="1" /><path clip-path="url(#clip400)" d="M1411.74 1569.09 Q1409.94 1572.22 1412.11 1575.58 Q1414.27 1578.92 1420.45 1582.48 Q1426.6 1586.03 1430.59 1586.25 Q1434.57 1586.44 1436.38 1583.31 Q1438.2 1580.17 1436.03 1576.83 Q1433.86 1573.46 1427.71 1569.91 Q1421.53 1566.35 1417.55 1566.16 Q1413.56 1565.94 1411.74 1569.09 M1408.53 1567.24 Q1411.44 1562.2 1416.96 1561.86 Q1422.47 1561.49 1430.04 1565.86 Q1437.6 1570.23 1440.05 1575.19 Q1442.49 1580.13 1439.59 1585.16 Q1436.68 1590.2 1431.17 1590.57 Q1425.66 1590.91 1418.1 1586.55 Q1410.52 1582.18 1408.08 1577.24 Q1405.63 1572.27 1408.53 1567.24 Z" fill="#000000" fill-rule="nonzero" fill-opacity="1" /><path clip-path="url(#clip400)" d="M1447.69 1561.91 L1455.85 1547.78 L1459.26 1549.75 L1448.29 1568.75 L1444.88 1566.78 Q1443.83 1563.1 1442.11 1556.82 Q1440.38 1550.5 1439.81 1548.81 Q1438.75 1545.6 1437.68 1543.97 Q1436.61 1542.31 1435.15 1541.47 Q1432.76 1540.09 1430.29 1540.9 Q1427.82 1541.7 1426.27 1544.39 Q1425.17 1546.29 1424.61 1548.8 Q1424.05 1551.28 1424.01 1554.47 L1419.92 1552.1 Q1420.35 1549.09 1421.07 1546.68 Q1421.8 1544.26 1422.82 1542.5 Q1425.5 1537.85 1429.42 1536.42 Q1433.35 1535 1437.24 1537.25 Q1439.08 1538.31 1440.34 1539.97 Q1441.59 1541.6 1442.78 1544.72 Q1443.07 1545.56 1444.31 1549.86 Q1445.53 1554.14 1447.69 1561.91 Z" fill="#000000" fill-rule="nonzero" fill-opacity="1" /><path clip-path="url(#clip400)" d="M1444.19 1514.88 L1454.26 1534.33 L1460.17 1524.1 L1444.19 1514.88 M1440.05 1513.9 L1442.99 1508.81 L1462.49 1520.07 L1464.96 1515.8 L1468.33 1517.75 L1465.86 1522.02 L1472.92 1526.09 L1470.59 1530.12 L1463.53 1526.05 L1455.73 1539.56 L1451.82 1537.3 L1440.05 1513.9 Z" fill="#000000" fill-rule="nonzero" fill-opacity="1" /><path clip-path="url(#clip400)" d="M1464.98 1510.07 L1471.22 1499.26 L1474.51 1501.16 L1468.27 1511.97 L1464.98 1510.07 Z" fill="#000000" fill-rule="nonzero" fill-opacity="1" /><path clip-path="url(#clip400)" d="M1465.54 1475.91 Q1463.73 1479.04 1465.91 1482.4 Q1468.07 1485.74 1474.24 1489.3 Q1480.4 1492.86 1484.39 1493.08 Q1488.37 1493.26 1490.18 1490.13 Q1491.99 1486.99 1489.83 1483.65 Q1487.66 1480.29 1481.5 1476.73 Q1475.33 1473.17 1471.35 1472.98 Q1467.36 1472.76 1465.54 1475.91 M1462.33 1474.06 Q1465.24 1469.03 1470.75 1468.68 Q1476.26 1468.31 1483.84 1472.68 Q1491.4 1477.05 1493.85 1482.02 Q1496.29 1486.96 1493.38 1491.99 Q1490.48 1497.02 1484.97 1497.39 Q1479.45 1497.74 1471.89 1493.37 Q1464.32 1489 1461.88 1484.06 Q1459.43 1479.09 1462.33 1474.06 Z" fill="#000000" fill-rule="nonzero" fill-opacity="1" /><path clip-path="url(#clip400)" d="M1482.9 1447.82 L1492.98 1467.27 L1498.88 1457.05 L1482.9 1447.82 M1478.76 1446.85 L1481.7 1441.76 L1501.21 1453.02 L1503.67 1448.75 L1507.04 1450.69 L1504.58 1454.96 L1511.63 1459.04 L1509.31 1463.06 L1502.25 1458.99 L1494.45 1472.5 L1490.54 1470.24 L1478.76 1446.85 Z" fill="#000000" fill-rule="nonzero" fill-opacity="1" /><path clip-path="url(#clip400)" d="M1503.7 1443.01 L1509.93 1432.21 L1513.22 1434.11 L1506.98 1444.91 L1503.7 1443.01 Z" fill="#000000" fill-rule="nonzero" fill-opacity="1" /><path clip-path="url(#clip400)" d="M1523.51 1430.59 L1527.33 1423.97 L1504.5 1410.79 L1501.79 1418.82 L1498.1 1416.69 L1500.79 1408.7 L1503.13 1404.65 L1529.65 1419.96 L1533.47 1413.35 L1536.88 1415.31 L1526.92 1432.55 L1523.51 1430.59 Z" fill="#000000" fill-rule="nonzero" fill-opacity="1" /><path clip-path="url(#clip400)" d="M1538.59 1404.46 L1542.41 1397.85 L1519.58 1384.67 L1516.87 1392.7 L1513.18 1390.57 L1515.87 1382.58 L1518.21 1378.53 L1544.73 1393.84 L1548.55 1387.22 L1551.96 1389.19 L1542 1406.43 L1538.59 1404.46 Z" fill="#000000" fill-rule="nonzero" fill-opacity="1" /><path clip-path="url(#clip400)" d="M1720.96 1615.36 L1729.12 1601.22 L1732.53 1603.19 L1721.56 1622.2 L1718.15 1620.23 Q1717.09 1616.55 1715.38 1610.26 Q1713.65 1603.95 1713.08 1602.25 Q1712.02 1599.05 1710.95 1597.42 Q1709.88 1595.75 1708.42 1594.91 Q1706.03 1593.53 1703.55 1594.35 Q1701.09 1595.14 1699.54 1597.83 Q1698.44 1599.73 1697.87 1602.24 Q1697.32 1604.73 1697.28 1607.91 L1693.19 1605.55 Q1693.62 1602.54 1694.34 1600.12 Q1695.07 1597.71 1696.09 1595.94 Q1698.77 1591.29 1702.69 1589.87 Q1706.62 1588.44 1710.51 1590.69 Q1712.35 1591.75 1713.61 1593.42 Q1714.86 1595.05 1716.05 1598.17 Q1716.34 1599 1717.58 1603.3 Q1718.79 1607.58 1720.96 1615.36 Z" fill="#000000" fill-rule="nonzero" fill-opacity="1" /><path clip-path="url(#clip400)" d="M1715.17 1570.29 Q1713.37 1573.42 1715.54 1576.78 Q1717.7 1580.12 1723.88 1583.68 Q1730.03 1587.24 1734.02 1587.46 Q1738 1587.64 1739.81 1584.52 Q1741.63 1581.37 1739.46 1578.03 Q1737.29 1574.67 1731.14 1571.11 Q1724.96 1567.55 1720.98 1567.36 Q1716.99 1567.14 1715.17 1570.29 M1711.97 1568.44 Q1714.87 1563.41 1720.39 1563.06 Q1725.9 1562.69 1733.47 1567.06 Q1741.03 1571.43 1743.48 1576.4 Q1745.92 1581.34 1743.02 1586.37 Q1740.11 1591.4 1734.6 1591.77 Q1729.09 1592.12 1721.53 1587.75 Q1713.95 1583.38 1711.51 1578.44 Q1709.06 1573.47 1711.97 1568.44 Z" fill="#000000" fill-rule="nonzero" fill-opacity="1" /><path clip-path="url(#clip400)" d="M1751.12 1563.11 L1759.28 1548.98 L1762.69 1550.95 L1751.72 1569.95 L1748.31 1567.99 Q1747.26 1564.3 1745.54 1558.02 Q1743.81 1551.7 1743.24 1550.01 Q1742.18 1546.8 1741.11 1545.17 Q1740.04 1543.51 1738.58 1542.67 Q1736.19 1541.29 1733.72 1542.11 Q1731.25 1542.9 1729.7 1545.59 Q1728.6 1547.49 1728.04 1550 Q1727.48 1552.49 1727.44 1555.67 L1723.35 1553.31 Q1723.78 1550.29 1724.5 1547.88 Q1725.23 1545.47 1726.25 1543.7 Q1728.93 1539.05 1732.86 1537.63 Q1736.78 1536.2 1740.67 1538.45 Q1742.51 1539.51 1743.77 1541.18 Q1745.02 1542.81 1746.21 1545.93 Q1746.5 1546.76 1747.74 1551.06 Q1748.96 1555.34 1751.12 1563.11 Z" fill="#000000" fill-rule="nonzero" fill-opacity="1" /><path clip-path="url(#clip400)" d="M1747.62 1516.08 L1757.69 1535.53 L1763.6 1525.31 L1747.62 1516.08 M1743.48 1515.11 L1746.42 1510.01 L1765.92 1521.28 L1768.39 1517.01 L1771.76 1518.95 L1769.29 1523.22 L1776.35 1527.29 L1774.02 1531.32 L1766.97 1527.25 L1759.16 1540.76 L1755.26 1538.5 L1743.48 1515.11 Z" fill="#000000" fill-rule="nonzero" fill-opacity="1" /><path clip-path="url(#clip400)" d="M1768.41 1511.27 L1774.65 1500.47 L1777.94 1502.37 L1771.7 1513.17 L1768.41 1511.27 Z" fill="#000000" fill-rule="nonzero" fill-opacity="1" /><path clip-path="url(#clip400)" d="M1768.97 1477.11 Q1767.16 1480.24 1769.34 1483.61 Q1771.5 1486.94 1777.67 1490.51 Q1783.83 1494.06 1787.82 1494.28 Q1791.8 1494.47 1793.61 1491.34 Q1795.42 1488.19 1793.26 1484.86 Q1791.09 1481.49 1784.93 1477.94 Q1778.76 1474.37 1774.78 1474.18 Q1770.79 1473.97 1768.97 1477.11 M1765.76 1475.26 Q1768.67 1470.23 1774.18 1469.89 Q1779.69 1469.51 1787.27 1473.89 Q1794.83 1478.25 1797.28 1483.22 Q1799.72 1488.16 1796.81 1493.19 Q1793.91 1498.22 1788.4 1498.6 Q1782.88 1498.94 1775.33 1494.58 Q1767.75 1490.2 1765.31 1485.26 Q1762.86 1480.29 1765.76 1475.26 Z" fill="#000000" fill-rule="nonzero" fill-opacity="1" /><path clip-path="url(#clip400)" d="M1786.34 1449.02 L1796.41 1468.47 L1802.31 1458.25 L1786.34 1449.02 M1782.19 1448.05 L1785.13 1442.96 L1804.64 1454.22 L1807.1 1449.95 L1810.47 1451.89 L1808.01 1456.16 L1815.06 1460.24 L1812.74 1464.27 L1805.68 1460.19 L1797.88 1473.7 L1793.97 1471.45 L1782.19 1448.05 Z" fill="#000000" fill-rule="nonzero" fill-opacity="1" /><path clip-path="url(#clip400)" d="M1807.13 1444.22 L1813.37 1433.41 L1816.65 1435.31 L1810.41 1446.11 L1807.13 1444.22 Z" fill="#000000" fill-rule="nonzero" fill-opacity="1" /><path clip-path="url(#clip400)" d="M1826.94 1431.79 L1830.76 1425.17 L1807.93 1411.99 L1805.22 1420.02 L1801.53 1417.89 L1804.22 1409.9 L1806.56 1405.85 L1833.08 1421.16 L1836.9 1414.55 L1840.31 1416.52 L1830.35 1433.76 L1826.94 1431.79 Z" fill="#000000" fill-rule="nonzero" fill-opacity="1" /><path clip-path="url(#clip400)" d="M1833.74 1389.6 Q1832.16 1392.33 1833.1 1395.01 Q1834.05 1397.67 1837.3 1399.55 Q1840.53 1401.41 1843.33 1400.91 Q1846.12 1400.39 1847.69 1397.66 Q1849.27 1394.93 1848.32 1392.27 Q1847.36 1389.58 1844.13 1387.72 Q1840.88 1385.84 1838.09 1386.37 Q1835.31 1386.88 1833.74 1389.6 M1825.69 1374.24 L1829.38 1376.37 Q1827.78 1377.48 1826.49 1378.82 Q1825.22 1380.14 1824.34 1381.67 Q1822.03 1385.68 1823.51 1389.36 Q1825 1393.03 1830.3 1396.49 Q1829.24 1394.3 1829.34 1391.98 Q1829.43 1389.66 1830.67 1387.51 Q1833.27 1383 1837.53 1381.98 Q1841.77 1380.93 1846.48 1383.65 Q1851.09 1386.31 1852.3 1390.65 Q1853.51 1394.98 1850.9 1399.51 Q1847.9 1404.7 1842.35 1405.16 Q1836.77 1405.6 1829.21 1401.24 Q1822.12 1397.14 1819.85 1391.34 Q1817.57 1385.53 1820.84 1379.86 Q1821.72 1378.34 1822.91 1376.97 Q1824.12 1375.58 1825.69 1374.24 Z" fill="#000000" fill-rule="nonzero" fill-opacity="1" /><path clip-path="url(#clip400)" d="M2025.26 1615.06 L2033.42 1600.92 L2036.83 1602.89 L2025.86 1621.9 L2022.45 1619.93 Q2021.39 1616.24 2019.67 1609.96 Q2017.95 1603.65 2017.38 1601.95 Q2016.31 1598.75 2015.25 1597.12 Q2014.18 1595.45 2012.71 1594.61 Q2010.33 1593.23 2007.85 1594.05 Q2005.39 1594.84 2003.84 1597.53 Q2002.74 1599.43 2002.17 1601.94 Q2001.62 1604.43 2001.57 1607.61 L1997.48 1605.25 Q1997.91 1602.24 1998.64 1599.82 Q1999.37 1597.41 2000.38 1595.64 Q2003.07 1590.99 2006.99 1589.57 Q2010.91 1588.14 2014.8 1590.39 Q2016.65 1591.45 2017.91 1593.12 Q2019.16 1594.75 2020.35 1597.87 Q2020.64 1598.7 2021.88 1603 Q2023.09 1607.28 2025.26 1615.06 Z" fill="#000000" fill-rule="nonzero" fill-opacity="1" /><path clip-path="url(#clip400)" d="M2019.47 1569.99 Q2017.67 1573.12 2019.84 1576.48 Q2022 1579.82 2028.18 1583.38 Q2034.33 1586.94 2038.32 1587.15 Q2042.3 1587.34 2044.11 1584.21 Q2045.93 1581.07 2043.76 1577.73 Q2041.59 1574.37 2035.43 1570.81 Q2029.26 1567.25 2025.28 1567.06 Q2021.29 1566.84 2019.47 1569.99 M2016.26 1568.14 Q2019.17 1563.11 2024.69 1562.76 Q2030.19 1562.39 2037.77 1566.76 Q2045.33 1571.13 2047.78 1576.1 Q2050.22 1581.03 2047.32 1586.07 Q2044.41 1591.1 2038.9 1591.47 Q2033.39 1591.82 2025.83 1587.45 Q2018.25 1583.08 2015.81 1578.14 Q2013.36 1573.17 2016.26 1568.14 Z" fill="#000000" fill-rule="nonzero" fill-opacity="1" /><path clip-path="url(#clip400)" d="M2055.42 1562.81 L2063.58 1548.68 L2066.99 1550.65 L2056.02 1569.65 L2052.61 1567.69 Q2051.55 1564 2049.84 1557.72 Q2048.11 1551.4 2047.54 1549.71 Q2046.48 1546.5 2045.41 1544.87 Q2044.34 1543.21 2042.88 1542.37 Q2040.49 1540.99 2038.02 1541.81 Q2035.55 1542.6 2034 1545.29 Q2032.9 1547.19 2032.34 1549.7 Q2031.78 1552.19 2031.74 1555.37 L2027.65 1553.01 Q2028.08 1549.99 2028.8 1547.58 Q2029.53 1545.16 2030.55 1543.4 Q2033.23 1538.75 2037.15 1537.33 Q2041.08 1535.9 2044.97 1538.15 Q2046.81 1539.21 2048.07 1540.87 Q2049.32 1542.5 2050.51 1545.63 Q2050.8 1546.46 2052.04 1550.76 Q2053.25 1555.04 2055.42 1562.81 Z" fill="#000000" fill-rule="nonzero" fill-opacity="1" /><path clip-path="url(#clip400)" d="M2051.92 1515.78 L2061.99 1535.23 L2067.9 1525 L2051.92 1515.78 M2047.78 1514.81 L2050.72 1509.71 L2070.22 1520.98 L2072.69 1516.71 L2076.06 1518.65 L2073.59 1522.92 L2080.65 1526.99 L2078.32 1531.02 L2071.26 1526.95 L2063.46 1540.46 L2059.55 1538.2 L2047.78 1514.81 Z" fill="#000000" fill-rule="nonzero" fill-opacity="1" /><path clip-path="url(#clip400)" d="M2072.71 1510.97 L2078.95 1500.17 L2082.24 1502.06 L2076 1512.87 L2072.71 1510.97 Z" fill="#000000" fill-rule="nonzero" fill-opacity="1" /><path clip-path="url(#clip400)" d="M2073.27 1476.81 Q2071.46 1479.94 2073.63 1483.31 Q2075.8 1486.64 2081.97 1490.21 Q2088.13 1493.76 2092.12 1493.98 Q2096.1 1494.16 2097.9 1491.04 Q2099.72 1487.89 2097.56 1484.56 Q2095.38 1481.19 2089.23 1477.64 Q2083.06 1474.07 2079.07 1473.88 Q2075.08 1473.67 2073.27 1476.81 M2070.06 1474.96 Q2072.96 1469.93 2078.48 1469.59 Q2083.99 1469.21 2091.57 1473.59 Q2099.13 1477.95 2101.58 1482.92 Q2104.02 1487.86 2101.11 1492.89 Q2098.21 1497.92 2092.7 1498.3 Q2087.18 1498.64 2079.62 1494.27 Q2072.05 1489.9 2069.6 1484.96 Q2067.15 1479.99 2070.06 1474.96 Z" fill="#000000" fill-rule="nonzero" fill-opacity="1" /><path clip-path="url(#clip400)" d="M2090.63 1448.72 L2100.71 1468.17 L2106.61 1457.95 L2090.63 1448.72 M2086.49 1447.75 L2089.43 1442.66 L2108.94 1453.92 L2111.4 1449.65 L2114.77 1451.59 L2112.31 1455.86 L2119.36 1459.94 L2117.04 1463.97 L2109.98 1459.89 L2102.18 1473.4 L2098.27 1471.15 L2086.49 1447.75 Z" fill="#000000" fill-rule="nonzero" fill-opacity="1" /><path clip-path="url(#clip400)" d="M2111.43 1443.92 L2117.66 1433.11 L2120.95 1435.01 L2114.71 1445.81 L2111.43 1443.92 Z" fill="#000000" fill-rule="nonzero" fill-opacity="1" /><path clip-path="url(#clip400)" d="M2131.24 1431.49 L2135.06 1424.87 L2112.23 1411.69 L2109.52 1419.72 L2105.83 1417.59 L2108.52 1409.6 L2110.86 1405.55 L2137.38 1420.86 L2141.2 1414.25 L2144.6 1416.22 L2134.65 1433.46 L2131.24 1431.49 Z" fill="#000000" fill-rule="nonzero" fill-opacity="1" /><path clip-path="url(#clip400)" d="M2148.77 1407.56 L2145.09 1405.43 Q2146.69 1404.32 2147.97 1402.98 Q2149.25 1401.63 2150.12 1400.13 Q2152.44 1396.12 2150.97 1392.46 Q2149.49 1388.78 2144.17 1385.3 Q2145.22 1387.46 2145.11 1389.78 Q2145 1392.1 2143.75 1394.26 Q2141.16 1398.75 2136.94 1399.82 Q2132.71 1400.85 2128 1398.13 Q2123.39 1395.47 2122.17 1391.13 Q2120.96 1386.8 2123.58 1382.26 Q2126.58 1377.07 2132.14 1376.65 Q2137.69 1376.19 2145.27 1380.57 Q2152.35 1384.66 2154.63 1390.47 Q2156.91 1396.24 2153.63 1401.92 Q2152.76 1403.44 2151.55 1404.83 Q2150.35 1406.22 2148.77 1407.56 M2140.74 1392.17 Q2142.31 1389.45 2141.36 1386.79 Q2140.42 1384.11 2137.18 1382.23 Q2133.95 1380.37 2131.16 1380.89 Q2128.36 1381.39 2126.79 1384.12 Q2125.21 1386.84 2126.17 1389.53 Q2127.12 1392.19 2130.35 1394.06 Q2133.59 1395.93 2136.37 1395.43 Q2139.16 1394.9 2140.74 1392.17 Z" fill="#000000" fill-rule="nonzero" fill-opacity="1" /><polyline clip-path="url(#clip402)" style="stroke:#000000; stroke-linecap:round; stroke-linejoin:round; stroke-width:2; stroke-opacity:0.1; fill:none" points="214.353,1197.38 2352.76,1197.38 "/>
<polyline clip-path="url(#clip402)" style="stroke:#000000; stroke-linecap:round; stroke-linejoin:round; stroke-width:2; stroke-opacity:0.1; fill:none" points="214.353,959.494 2352.76,959.494 "/>
<polyline clip-path="url(#clip402)" style="stroke:#000000; stroke-linecap:round; stroke-linejoin:round; stroke-width:2; stroke-opacity:0.1; fill:none" points="214.353,721.607 2352.76,721.607 "/>
<polyline clip-path="url(#clip402)" style="stroke:#000000; stroke-linecap:round; stroke-linejoin:round; stroke-width:2; stroke-opacity:0.1; fill:none" points="214.353,483.719 2352.76,483.719 "/>
<polyline clip-path="url(#clip402)" style="stroke:#000000; stroke-linecap:round; stroke-linejoin:round; stroke-width:2; stroke-opacity:0.1; fill:none" points="214.353,245.832 2352.76,245.832 "/>
<polyline clip-path="url(#clip400)" style="stroke:#000000; stroke-linecap:round; stroke-linejoin:round; stroke-width:4; stroke-opacity:1; fill:none" points="214.353,1348.39 214.353,47.2441 "/>
<polyline clip-path="url(#clip400)" style="stroke:#000000; stroke-linecap:round; stroke-linejoin:round; stroke-width:4; stroke-opacity:1; fill:none" points="214.353,1197.38 233.25,1197.38 "/>
<polyline clip-path="url(#clip400)" style="stroke:#000000; stroke-linecap:round; stroke-linejoin:round; stroke-width:4; stroke-opacity:1; fill:none" points="214.353,959.494 233.25,959.494 "/>
<polyline clip-path="url(#clip400)" style="stroke:#000000; stroke-linecap:round; stroke-linejoin:round; stroke-width:4; stroke-opacity:1; fill:none" points="214.353,721.607 233.25,721.607 "/>
<polyline clip-path="url(#clip400)" style="stroke:#000000; stroke-linecap:round; stroke-linejoin:round; stroke-width:4; stroke-opacity:1; fill:none" points="214.353,483.719 233.25,483.719 "/>
<polyline clip-path="url(#clip400)" style="stroke:#000000; stroke-linecap:round; stroke-linejoin:round; stroke-width:4; stroke-opacity:1; fill:none" points="214.353,245.832 233.25,245.832 "/>
<path clip-path="url(#clip400)" d="M51.6634 1210.73 L59.3023 1210.73 L59.3023 1184.36 L50.9921 1186.03 L50.9921 1181.77 L59.256 1180.1 L63.9319 1180.1 L63.9319 1210.73 L71.5707 1210.73 L71.5707 1214.66 L51.6634 1214.66 L51.6634 1210.73 Z" fill="#000000" fill-rule="nonzero" fill-opacity="1" /><path clip-path="url(#clip400)" d="M81.0614 1180.1 L99.4178 1180.1 L99.4178 1184.04 L85.3438 1184.04 L85.3438 1192.51 Q86.3623 1192.16 87.3808 1192 Q88.3993 1191.81 89.4178 1191.81 Q95.2049 1191.81 98.5845 1194.99 Q101.964 1198.16 101.964 1203.57 Q101.964 1209.15 98.4919 1212.25 Q95.0197 1215.33 88.7003 1215.33 Q86.5243 1215.33 84.2558 1214.96 Q82.0105 1214.59 79.6031 1213.85 L79.6031 1209.15 Q81.6864 1210.29 83.9086 1210.84 Q86.1308 1211.4 88.6077 1211.4 Q92.6123 1211.4 94.9502 1209.29 Q97.2882 1207.18 97.2882 1203.57 Q97.2882 1199.96 94.9502 1197.86 Q92.6123 1195.75 88.6077 1195.75 Q86.7327 1195.75 84.8577 1196.17 Q83.0058 1196.58 81.0614 1197.46 L81.0614 1180.1 Z" fill="#000000" fill-rule="nonzero" fill-opacity="1" /><path clip-path="url(#clip400)" d="M121.177 1183.18 Q117.566 1183.18 115.737 1186.74 Q113.932 1190.29 113.932 1197.42 Q113.932 1204.52 115.737 1208.09 Q117.566 1211.63 121.177 1211.63 Q124.811 1211.63 126.617 1208.09 Q128.445 1204.52 128.445 1197.42 Q128.445 1190.29 126.617 1186.74 Q124.811 1183.18 121.177 1183.18 M121.177 1179.48 Q126.987 1179.48 130.043 1184.08 Q133.121 1188.67 133.121 1197.42 Q133.121 1206.14 130.043 1210.75 Q126.987 1215.33 121.177 1215.33 Q115.367 1215.33 112.288 1210.75 Q109.233 1206.14 109.233 1197.42 Q109.233 1188.67 112.288 1184.08 Q115.367 1179.48 121.177 1179.48 Z" fill="#000000" fill-rule="nonzero" fill-opacity="1" /><path clip-path="url(#clip400)" d="M141.339 1208.78 L146.223 1208.78 L146.223 1214.66 L141.339 1214.66 L141.339 1208.78 Z" fill="#000000" fill-rule="nonzero" fill-opacity="1" /><path clip-path="url(#clip400)" d="M166.408 1183.18 Q162.797 1183.18 160.968 1186.74 Q159.163 1190.29 159.163 1197.42 Q159.163 1204.52 160.968 1208.09 Q162.797 1211.63 166.408 1211.63 Q170.042 1211.63 171.848 1208.09 Q173.677 1204.52 173.677 1197.42 Q173.677 1190.29 171.848 1186.74 Q170.042 1183.18 166.408 1183.18 M166.408 1179.48 Q172.218 1179.48 175.274 1184.08 Q178.353 1188.67 178.353 1197.42 Q178.353 1206.14 175.274 1210.75 Q172.218 1215.33 166.408 1215.33 Q160.598 1215.33 157.519 1210.75 Q154.464 1206.14 154.464 1197.42 Q154.464 1188.67 157.519 1184.08 Q160.598 1179.48 166.408 1179.48 Z" fill="#000000" fill-rule="nonzero" fill-opacity="1" /><path clip-path="url(#clip400)" d="M52.6588 972.839 L60.2976 972.839 L60.2976 946.473 L51.9875 948.14 L51.9875 943.881 L60.2513 942.214 L64.9272 942.214 L64.9272 972.839 L72.5661 972.839 L72.5661 976.774 L52.6588 976.774 L52.6588 972.839 Z" fill="#000000" fill-rule="nonzero" fill-opacity="1" /><path clip-path="url(#clip400)" d="M82.0568 942.214 L100.413 942.214 L100.413 946.149 L86.3392 946.149 L86.3392 954.622 Q87.3577 954.274 88.3762 954.112 Q89.3947 953.927 90.4132 953.927 Q96.2002 953.927 99.5798 957.098 Q102.959 960.27 102.959 965.686 Q102.959 971.265 99.4872 974.367 Q96.015 977.445 89.6956 977.445 Q87.5197 977.445 85.2512 977.075 Q83.0058 976.705 80.5984 975.964 L80.5984 971.265 Q82.6818 972.399 84.904 972.955 Q87.1262 973.51 89.603 973.51 Q93.6076 973.51 95.9456 971.404 Q98.2835 969.297 98.2835 965.686 Q98.2835 962.075 95.9456 959.969 Q93.6076 957.862 89.603 957.862 Q87.728 957.862 85.8531 958.279 Q84.0012 958.696 82.0568 959.575 L82.0568 942.214 Z" fill="#000000" fill-rule="nonzero" fill-opacity="1" /><path clip-path="url(#clip400)" d="M116.2 972.839 L132.519 972.839 L132.519 976.774 L110.575 976.774 L110.575 972.839 Q113.237 970.084 117.82 965.455 Q122.427 960.802 123.607 959.459 Q125.853 956.936 126.732 955.2 Q127.635 953.441 127.635 951.751 Q127.635 948.997 125.691 947.26 Q123.77 945.524 120.668 945.524 Q118.469 945.524 116.015 946.288 Q113.584 947.052 110.807 948.603 L110.807 943.881 Q113.631 942.747 116.084 942.168 Q118.538 941.589 120.575 941.589 Q125.945 941.589 129.14 944.274 Q132.334 946.96 132.334 951.45 Q132.334 953.58 131.524 955.501 Q130.737 957.399 128.631 959.992 Q128.052 960.663 124.95 963.881 Q121.848 967.075 116.2 972.839 Z" fill="#000000" fill-rule="nonzero" fill-opacity="1" /><path clip-path="url(#clip400)" d="M142.334 970.895 L147.218 970.895 L147.218 976.774 L142.334 976.774 L142.334 970.895 Z" fill="#000000" fill-rule="nonzero" fill-opacity="1" /><path clip-path="url(#clip400)" d="M157.45 942.214 L175.806 942.214 L175.806 946.149 L161.732 946.149 L161.732 954.622 Q162.751 954.274 163.769 954.112 Q164.788 953.927 165.806 953.927 Q171.593 953.927 174.973 957.098 Q178.353 960.27 178.353 965.686 Q178.353 971.265 174.88 974.367 Q171.408 977.445 165.089 977.445 Q162.913 977.445 160.644 977.075 Q158.399 976.705 155.992 975.964 L155.992 971.265 Q158.075 972.399 160.297 972.955 Q162.519 973.51 164.996 973.51 Q169.001 973.51 171.339 971.404 Q173.677 969.297 173.677 965.686 Q173.677 962.075 171.339 959.969 Q169.001 957.862 164.996 957.862 Q163.121 957.862 161.246 958.279 Q159.394 958.696 157.45 959.575 L157.45 942.214 Z" fill="#000000" fill-rule="nonzero" fill-opacity="1" /><path clip-path="url(#clip400)" d="M51.6634 734.952 L59.3023 734.952 L59.3023 708.586 L50.9921 710.253 L50.9921 705.993 L59.256 704.327 L63.9319 704.327 L63.9319 734.952 L71.5707 734.952 L71.5707 738.887 L51.6634 738.887 L51.6634 734.952 Z" fill="#000000" fill-rule="nonzero" fill-opacity="1" /><path clip-path="url(#clip400)" d="M81.0614 704.327 L99.4178 704.327 L99.4178 708.262 L85.3438 708.262 L85.3438 716.734 Q86.3623 716.387 87.3808 716.225 Q88.3993 716.04 89.4178 716.04 Q95.2049 716.04 98.5845 719.211 Q101.964 722.382 101.964 727.799 Q101.964 733.378 98.4919 736.479 Q95.0197 739.558 88.7003 739.558 Q86.5243 739.558 84.2558 739.188 Q82.0105 738.817 79.6031 738.077 L79.6031 733.378 Q81.6864 734.512 83.9086 735.067 Q86.1308 735.623 88.6077 735.623 Q92.6123 735.623 94.9502 733.516 Q97.2882 731.41 97.2882 727.799 Q97.2882 724.188 94.9502 722.081 Q92.6123 719.975 88.6077 719.975 Q86.7327 719.975 84.8577 720.392 Q83.0058 720.808 81.0614 721.688 L81.0614 704.327 Z" fill="#000000" fill-rule="nonzero" fill-opacity="1" /><path clip-path="url(#clip400)" d="M111.223 704.327 L129.58 704.327 L129.58 708.262 L115.506 708.262 L115.506 716.734 Q116.524 716.387 117.543 716.225 Q118.561 716.04 119.58 716.04 Q125.367 716.04 128.746 719.211 Q132.126 722.382 132.126 727.799 Q132.126 733.378 128.654 736.479 Q125.182 739.558 118.862 739.558 Q116.686 739.558 114.418 739.188 Q112.172 738.817 109.765 738.077 L109.765 733.378 Q111.848 734.512 114.07 735.067 Q116.293 735.623 118.77 735.623 Q122.774 735.623 125.112 733.516 Q127.45 731.41 127.45 727.799 Q127.45 724.188 125.112 722.081 Q122.774 719.975 118.77 719.975 Q116.895 719.975 115.02 720.392 Q113.168 720.808 111.223 721.688 L111.223 704.327 Z" fill="#000000" fill-rule="nonzero" fill-opacity="1" /><path clip-path="url(#clip400)" d="M141.339 733.007 L146.223 733.007 L146.223 738.887 L141.339 738.887 L141.339 733.007 Z" fill="#000000" fill-rule="nonzero" fill-opacity="1" /><path clip-path="url(#clip400)" d="M166.408 707.406 Q162.797 707.406 160.968 710.97 Q159.163 714.512 159.163 721.642 Q159.163 728.748 160.968 732.313 Q162.797 735.854 166.408 735.854 Q170.042 735.854 171.848 732.313 Q173.677 728.748 173.677 721.642 Q173.677 714.512 171.848 710.97 Q170.042 707.406 166.408 707.406 M166.408 703.702 Q172.218 703.702 175.274 708.308 Q178.353 712.892 178.353 721.642 Q178.353 730.368 175.274 734.975 Q172.218 739.558 166.408 739.558 Q160.598 739.558 157.519 734.975 Q154.464 730.368 154.464 721.642 Q154.464 712.892 157.519 708.308 Q160.598 703.702 166.408 703.702 Z" fill="#000000" fill-rule="nonzero" fill-opacity="1" /><path clip-path="url(#clip400)" d="M52.6588 497.064 L60.2976 497.064 L60.2976 470.699 L51.9875 472.365 L51.9875 468.106 L60.2513 466.439 L64.9272 466.439 L64.9272 497.064 L72.5661 497.064 L72.5661 500.999 L52.6588 500.999 L52.6588 497.064 Z" fill="#000000" fill-rule="nonzero" fill-opacity="1" /><path clip-path="url(#clip400)" d="M82.0568 466.439 L100.413 466.439 L100.413 470.375 L86.3392 470.375 L86.3392 478.847 Q87.3577 478.5 88.3762 478.338 Q89.3947 478.152 90.4132 478.152 Q96.2002 478.152 99.5798 481.324 Q102.959 484.495 102.959 489.912 Q102.959 495.49 99.4872 498.592 Q96.015 501.671 89.6956 501.671 Q87.5197 501.671 85.2512 501.3 Q83.0058 500.93 80.5984 500.189 L80.5984 495.49 Q82.6818 496.625 84.904 497.18 Q87.1262 497.736 89.603 497.736 Q93.6076 497.736 95.9456 495.629 Q98.2835 493.523 98.2835 489.912 Q98.2835 486.3 95.9456 484.194 Q93.6076 482.088 89.603 482.088 Q87.728 482.088 85.8531 482.504 Q84.0012 482.921 82.0568 483.801 L82.0568 466.439 Z" fill="#000000" fill-rule="nonzero" fill-opacity="1" /><path clip-path="url(#clip400)" d="M110.992 466.439 L133.214 466.439 L133.214 468.43 L120.668 500.999 L115.783 500.999 L127.589 470.375 L110.992 470.375 L110.992 466.439 Z" fill="#000000" fill-rule="nonzero" fill-opacity="1" /><path clip-path="url(#clip400)" d="M142.334 495.12 L147.218 495.12 L147.218 500.999 L142.334 500.999 L142.334 495.12 Z" fill="#000000" fill-rule="nonzero" fill-opacity="1" /><path clip-path="url(#clip400)" d="M157.45 466.439 L175.806 466.439 L175.806 470.375 L161.732 470.375 L161.732 478.847 Q162.751 478.5 163.769 478.338 Q164.788 478.152 165.806 478.152 Q171.593 478.152 174.973 481.324 Q178.353 484.495 178.353 489.912 Q178.353 495.49 174.88 498.592 Q171.408 501.671 165.089 501.671 Q162.913 501.671 160.644 501.3 Q158.399 500.93 155.992 500.189 L155.992 495.49 Q158.075 496.625 160.297 497.18 Q162.519 497.736 164.996 497.736 Q169.001 497.736 171.339 495.629 Q173.677 493.523 173.677 489.912 Q173.677 486.3 171.339 484.194 Q169.001 482.088 164.996 482.088 Q163.121 482.088 161.246 482.504 Q159.394 482.921 157.45 483.801 L157.45 466.439 Z" fill="#000000" fill-rule="nonzero" fill-opacity="1" /><path clip-path="url(#clip400)" d="M51.6634 259.177 L59.3023 259.177 L59.3023 232.811 L50.9921 234.478 L50.9921 230.219 L59.256 228.552 L63.9319 228.552 L63.9319 259.177 L71.5707 259.177 L71.5707 263.112 L51.6634 263.112 L51.6634 259.177 Z" fill="#000000" fill-rule="nonzero" fill-opacity="1" /><path clip-path="url(#clip400)" d="M91.5938 243.969 Q88.4456 243.969 86.5938 246.121 Q84.7651 248.274 84.7651 252.024 Q84.7651 255.751 86.5938 257.927 Q88.4456 260.08 91.5938 260.08 Q94.7419 260.08 96.5706 257.927 Q98.4224 255.751 98.4224 252.024 Q98.4224 248.274 96.5706 246.121 Q94.7419 243.969 91.5938 243.969 M100.876 229.316 L100.876 233.575 Q99.1169 232.742 97.3113 232.302 Q95.5289 231.862 93.7697 231.862 Q89.1401 231.862 86.6864 234.987 Q84.2558 238.112 83.9086 244.432 Q85.2743 242.418 87.3345 241.353 Q89.3947 240.265 91.8715 240.265 Q97.0798 240.265 100.089 243.436 Q103.121 246.584 103.121 252.024 Q103.121 257.348 99.9733 260.566 Q96.8252 263.783 91.5938 263.783 Q85.5984 263.783 82.4271 259.2 Q79.2559 254.594 79.2559 245.867 Q79.2559 237.672 83.1447 232.811 Q87.0336 227.927 93.5845 227.927 Q95.3437 227.927 97.1261 228.274 Q98.9317 228.622 100.876 229.316 Z" fill="#000000" fill-rule="nonzero" fill-opacity="1" /><path clip-path="url(#clip400)" d="M121.177 231.631 Q117.566 231.631 115.737 235.196 Q113.932 238.737 113.932 245.867 Q113.932 252.973 115.737 256.538 Q117.566 260.08 121.177 260.08 Q124.811 260.08 126.617 256.538 Q128.445 252.973 128.445 245.867 Q128.445 238.737 126.617 235.196 Q124.811 231.631 121.177 231.631 M121.177 227.927 Q126.987 227.927 130.043 232.534 Q133.121 237.117 133.121 245.867 Q133.121 254.594 130.043 259.2 Q126.987 263.783 121.177 263.783 Q115.367 263.783 112.288 259.2 Q109.233 254.594 109.233 245.867 Q109.233 237.117 112.288 232.534 Q115.367 227.927 121.177 227.927 Z" fill="#000000" fill-rule="nonzero" fill-opacity="1" /><path clip-path="url(#clip400)" d="M141.339 257.233 L146.223 257.233 L146.223 263.112 L141.339 263.112 L141.339 257.233 Z" fill="#000000" fill-rule="nonzero" fill-opacity="1" /><path clip-path="url(#clip400)" d="M166.408 231.631 Q162.797 231.631 160.968 235.196 Q159.163 238.737 159.163 245.867 Q159.163 252.973 160.968 256.538 Q162.797 260.08 166.408 260.08 Q170.042 260.08 171.848 256.538 Q173.677 252.973 173.677 245.867 Q173.677 238.737 171.848 235.196 Q170.042 231.631 166.408 231.631 M166.408 227.927 Q172.218 227.927 175.274 232.534 Q178.353 237.117 178.353 245.867 Q178.353 254.594 175.274 259.2 Q172.218 263.783 166.408 263.783 Q160.598 263.783 157.519 259.2 Q154.464 254.594 154.464 245.867 Q154.464 237.117 157.519 232.534 Q160.598 227.927 166.408 227.927 Z" fill="#000000" fill-rule="nonzero" fill-opacity="1" /><path clip-path="url(#clip402)" d="M320.492 1311.57 L320.492 1106.98 L274.873 1106.98 L274.873 1087.95 L320.492 1087.95 L320.492 1058.84 L320.492 1087.95 L366.111 1087.95 L366.111 1106.98 L320.492 1106.98 L320.492 1311.57  Z" fill="#008000" fill-rule="evenodd" fill-opacity="1"/>
<polyline clip-path="url(#clip402)" style="stroke:#008000; stroke-linecap:round; stroke-linejoin:round; stroke-width:2; stroke-opacity:1; fill:none" points="320.492,1311.57 320.492,1106.98 274.873,1106.98 274.873,1087.95 320.492,1087.95 320.492,1058.84 320.492,1087.95 366.111,1087.95 366.111,1106.98 320.492,1106.98 320.492,1311.57 "/>
<path clip-path="url(#clip402)" d="M421.867 1099.37 L421.867 1079.39 L376.248 1079.39 L376.248 1035.62 L421.867 1035.62 L421.867 892.886 L421.867 1035.62 L467.486 1035.62 L467.486 1079.39 L421.867 1079.39 L421.867 1099.37  Z" fill="#008000" fill-rule="evenodd" fill-opacity="1"/>
<polyline clip-path="url(#clip402)" style="stroke:#008000; stroke-linecap:round; stroke-linejoin:round; stroke-width:2; stroke-opacity:1; fill:none" points="421.867,1099.37 421.867,1079.39 376.248,1079.39 376.248,1035.62 421.867,1035.62 421.867,892.886 421.867,1035.62 467.486,1035.62 467.486,1079.39 421.867,1079.39 421.867,1099.37 "/>
<path clip-path="url(#clip402)" d="M523.242 1185.01 L523.242 1012.78 L477.623 1012.78 L477.623 993.274 L523.242 993.274 L523.242 941.415 L523.242 993.274 L568.861 993.274 L568.861 1012.78 L523.242 1012.78 L523.242 1185.01  Z" fill="#ff0000" fill-rule="evenodd" fill-opacity="1"/>
<polyline clip-path="url(#clip402)" style="stroke:#ff0000; stroke-linecap:round; stroke-linejoin:round; stroke-width:2; stroke-opacity:1; fill:none" points="523.242,1185.01 523.242,1012.78 477.623,1012.78 477.623,993.274 523.242,993.274 523.242,941.415 523.242,993.274 568.861,993.274 568.861,1012.78 523.242,1012.78 523.242,1185.01 "/>
<path clip-path="url(#clip402)" d="M624.617 1070.83 L624.617 1007.07 L578.998 1007.07 L578.998 982.332 L624.617 982.332 L624.617 943.318 L624.617 982.332 L670.236 982.332 L670.236 1007.07 L624.617 1007.07 L624.617 1070.83  Z" fill="#008000" fill-rule="evenodd" fill-opacity="1"/>
<polyline clip-path="url(#clip402)" style="stroke:#008000; stroke-linecap:round; stroke-linejoin:round; stroke-width:2; stroke-opacity:1; fill:none" points="624.617,1070.83 624.617,1007.07 578.998,1007.07 578.998,982.332 624.617,982.332 624.617,943.318 624.617,982.332 670.236,982.332 670.236,1007.07 624.617,1007.07 624.617,1070.83 "/>
<path clip-path="url(#clip402)" d="M725.992 1040.38 L725.992 1023.25 L680.373 1023.25 L680.373 578.874 L725.992 578.874 L725.992 531.297 L725.992 578.874 L771.611 578.874 L771.611 1023.25 L725.992 1023.25 L725.992 1040.38  Z" fill="#008000" fill-rule="evenodd" fill-opacity="1"/>
<polyline clip-path="url(#clip402)" style="stroke:#008000; stroke-linecap:round; stroke-linejoin:round; stroke-width:2; stroke-opacity:1; fill:none" points="725.992,1040.38 725.992,1023.25 680.373,1023.25 680.373,578.874 725.992,578.874 725.992,531.297 725.992,578.874 771.611,578.874 771.611,1023.25 725.992,1023.25 725.992,1040.38 "/>
<path clip-path="url(#clip402)" d="M827.367 868.145 L827.367 745.396 L781.748 745.396 L781.748 638.823 L827.367 638.823 L827.367 627.403 L827.367 638.823 L872.986 638.823 L872.986 745.396 L827.367 745.396 L827.367 868.145  Z" fill="#008000" fill-rule="evenodd" fill-opacity="1"/>
<polyline clip-path="url(#clip402)" style="stroke:#008000; stroke-linecap:round; stroke-linejoin:round; stroke-width:2; stroke-opacity:1; fill:none" points="827.367,868.145 827.367,745.396 781.748,745.396 781.748,638.823 827.367,638.823 827.367,627.403 827.367,638.823 872.986,638.823 872.986,745.396 827.367,745.396 827.367,868.145 "/>
<path clip-path="url(#clip402)" d="M928.742 804.201 L928.742 729.219 L883.123 729.219 L883.123 591.245 L928.742 591.245 L928.742 574.116 L928.742 591.245 L974.361 591.245 L974.361 729.219 L928.742 729.219 L928.742 804.201  Z" fill="#008000" fill-rule="evenodd" fill-opacity="1"/>
<polyline clip-path="url(#clip402)" style="stroke:#008000; stroke-linecap:round; stroke-linejoin:round; stroke-width:2; stroke-opacity:1; fill:none" points="928.742,804.201 928.742,729.219 883.123,729.219 883.123,591.245 928.742,591.245 928.742,574.116 928.742,591.245 974.361,591.245 974.361,729.219 928.742,729.219 928.742,804.201 "/>
<path clip-path="url(#clip402)" d="M1030.12 1018.49 L1030.12 1012.78 L984.498 1012.78 L984.498 713.994 L1030.12 713.994 L1030.12 609.325 L1030.12 713.994 L1075.74 713.994 L1075.74 1012.78 L1030.12 1012.78 L1030.12 1018.49  Z" fill="#ff0000" fill-rule="evenodd" fill-opacity="1"/>
<polyline clip-path="url(#clip402)" style="stroke:#ff0000; stroke-linecap:round; stroke-linejoin:round; stroke-width:2; stroke-opacity:1; fill:none" points="1030.12,1018.49 1030.12,1012.78 984.498,1012.78 984.498,713.994 1030.12,713.994 1030.12,609.325 1030.12,713.994 1075.74,713.994 1075.74,1012.78 1030.12,1012.78 1030.12,1018.49 "/>
<path clip-path="url(#clip402)" d="M1131.49 1094.52 L1131.49 1037.52 L1085.87 1037.52 L1085.87 822.471 L1131.49 822.471 L1131.49 736.832 L1131.49 822.471 L1177.11 822.471 L1177.11 1037.52 L1131.49 1037.52 L1131.49 1094.52  Z" fill="#008000" fill-rule="evenodd" fill-opacity="1"/>
<polyline clip-path="url(#clip402)" style="stroke:#008000; stroke-linecap:round; stroke-linejoin:round; stroke-width:2; stroke-opacity:1; fill:none" points="1131.49,1094.52 1131.49,1037.52 1085.87,1037.52 1085.87,822.471 1131.49,822.471 1131.49,736.832 1131.49,822.471 1177.11,822.471 1177.11,1037.52 1131.49,1037.52 1131.49,1094.52 "/>
<path clip-path="url(#clip402)" d="M1232.87 817.713 L1232.87 815.335 L1187.25 815.335 L1187.25 613.13 L1232.87 613.13 L1232.87 564.125 L1232.87 613.13 L1278.49 613.13 L1278.49 815.335 L1232.87 815.335 L1232.87 817.713  Z" fill="#008000" fill-rule="evenodd" fill-opacity="1"/>
<polyline clip-path="url(#clip402)" style="stroke:#008000; stroke-linecap:round; stroke-linejoin:round; stroke-width:2; stroke-opacity:1; fill:none" points="1232.87,817.713 1232.87,815.335 1187.25,815.335 1187.25,613.13 1232.87,613.13 1232.87,564.125 1232.87,613.13 1278.49,613.13 1278.49,815.335 1232.87,815.335 1232.87,817.713 "/>
<path clip-path="url(#clip402)" d="M1334.24 565.553 L1334.24 497.992 L1288.62 497.992 L1288.62 422.82 L1334.24 422.82 L1334.24 256.299 L1334.24 422.82 L1379.86 422.82 L1379.86 497.992 L1334.24 497.992 L1334.24 565.553  Z" fill="#008000" fill-rule="evenodd" fill-opacity="1"/>
<polyline clip-path="url(#clip402)" style="stroke:#008000; stroke-linecap:round; stroke-linejoin:round; stroke-width:2; stroke-opacity:1; fill:none" points="1334.24,565.553 1334.24,497.992 1288.62,497.992 1288.62,422.82 1334.24,422.82 1334.24,256.299 1334.24,422.82 1379.86,422.82 1379.86,497.992 1334.24,497.992 1334.24,565.553 "/>
<path clip-path="url(#clip402)" d="M1435.62 607.421 L1435.62 468.494 L1390 468.494 L1390 447.56 L1435.62 447.56 L1435.62 420.917 L1435.62 447.56 L1481.24 447.56 L1481.24 468.494 L1435.62 468.494 L1435.62 607.421  Z" fill="#ff0000" fill-rule="evenodd" fill-opacity="1"/>
<polyline clip-path="url(#clip402)" style="stroke:#ff0000; stroke-linecap:round; stroke-linejoin:round; stroke-width:2; stroke-opacity:1; fill:none" points="1435.62,607.421 1435.62,468.494 1390,468.494 1390,447.56 1435.62,447.56 1435.62,420.917 1435.62,447.56 1481.24,447.56 1481.24,468.494 1435.62,468.494 1435.62,607.421 "/>
<path clip-path="url(#clip402)" d="M1536.99 442.804 L1536.99 403.79 L1491.37 403.79 L1491.37 170.66 L1536.99 170.66 L1536.99 139.259 L1536.99 170.66 L1582.61 170.66 L1582.61 403.79 L1536.99 403.79 L1536.99 442.804  Z" fill="#008000" fill-rule="evenodd" fill-opacity="1"/>
<polyline clip-path="url(#clip402)" style="stroke:#008000; stroke-linecap:round; stroke-linejoin:round; stroke-width:2; stroke-opacity:1; fill:none" points="1536.99,442.804 1536.99,403.79 1491.37,403.79 1491.37,170.66 1536.99,170.66 1536.99,139.259 1536.99,170.66 1582.61,170.66 1582.61,403.79 1536.99,403.79 1536.99,442.804 "/>
<path clip-path="url(#clip402)" d="M1638.37 379.048 L1638.37 322.907 L1592.75 322.907 L1592.75 302.449 L1638.37 302.449 L1638.37 84.069 L1638.37 302.449 L1683.99 302.449 L1683.99 322.907 L1638.37 322.907 L1638.37 379.048  Z" fill="#ff0000" fill-rule="evenodd" fill-opacity="1"/>
<polyline clip-path="url(#clip402)" style="stroke:#ff0000; stroke-linecap:round; stroke-linejoin:round; stroke-width:2; stroke-opacity:1; fill:none" points="1638.37,379.048 1638.37,322.907 1592.75,322.907 1592.75,302.449 1638.37,302.449 1638.37,84.069 1638.37,302.449 1683.99,302.449 1683.99,322.907 1638.37,322.907 1638.37,379.048 "/>
<path clip-path="url(#clip402)" d="M1739.74 612.179 L1739.74 595.051 L1694.12 595.051 L1694.12 219.189 L1739.74 219.189 L1739.74 166.853 L1739.74 219.189 L1785.36 219.189 L1785.36 595.051 L1739.74 595.051 L1739.74 612.179  Z" fill="#ff0000" fill-rule="evenodd" fill-opacity="1"/>
<polyline clip-path="url(#clip402)" style="stroke:#ff0000; stroke-linecap:round; stroke-linejoin:round; stroke-width:2; stroke-opacity:1; fill:none" points="1739.74,612.179 1739.74,595.051 1694.12,595.051 1694.12,219.189 1739.74,219.189 1739.74,166.853 1739.74,219.189 1785.36,219.189 1785.36,595.051 1739.74,595.051 1739.74,612.179 "/>
<path clip-path="url(#clip402)" d="M1841.12 716.849 L1841.12 660.708 L1795.5 660.708 L1795.5 626.452 L1841.12 626.452 L1841.12 509.412 L1841.12 626.452 L1886.74 626.452 L1886.74 660.708 L1841.12 660.708 L1841.12 716.849  Z" fill="#008000" fill-rule="evenodd" fill-opacity="1"/>
<polyline clip-path="url(#clip402)" style="stroke:#008000; stroke-linecap:round; stroke-linejoin:round; stroke-width:2; stroke-opacity:1; fill:none" points="1841.12,716.849 1841.12,660.708 1795.5,660.708 1795.5,626.452 1841.12,626.452 1841.12,509.412 1841.12,626.452 1886.74,626.452 1886.74,660.708 1841.12,660.708 1841.12,716.849 "/>
<path clip-path="url(#clip402)" d="M1942.49 613.606 L1942.49 542.715 L1896.87 542.715 L1896.87 513.217 L1942.49 513.217 L1942.49 371.342 L1942.49 513.217 L1988.11 513.217 L1988.11 542.715 L1942.49 542.715 L1942.49 613.606  Z" fill="#ff0000" fill-rule="evenodd" fill-opacity="1"/>
<polyline clip-path="url(#clip402)" style="stroke:#ff0000; stroke-linecap:round; stroke-linejoin:round; stroke-width:2; stroke-opacity:1; fill:none" points="1942.49,613.606 1942.49,542.715 1896.87,542.715 1896.87,513.217 1942.49,513.217 1942.49,371.342 1942.49,513.217 1988.11,513.217 1988.11,542.715 1942.49,542.715 1942.49,613.606 "/>
<path clip-path="url(#clip402)" d="M2043.87 606.469 L2043.87 538.433 L1998.25 538.433 L1998.25 487.525 L2043.87 487.525 L2043.87 389.992 L2043.87 487.525 L2089.49 487.525 L2089.49 538.433 L2043.87 538.433 L2043.87 606.469  Z" fill="#008000" fill-rule="evenodd" fill-opacity="1"/>
<polyline clip-path="url(#clip402)" style="stroke:#008000; stroke-linecap:round; stroke-linejoin:round; stroke-width:2; stroke-opacity:1; fill:none" points="2043.87,606.469 2043.87,538.433 1998.25,538.433 1998.25,487.525 2043.87,487.525 2043.87,389.992 2043.87,487.525 2089.49,487.525 2089.49,538.433 2043.87,538.433 2043.87,606.469 "/>
<path clip-path="url(#clip402)" d="M2145.24 825.325 L2145.24 653.095 L2099.62 653.095 L2099.62 459.931 L2145.24 459.931 L2145.24 437.093 L2145.24 459.931 L2190.86 459.931 L2190.86 653.095 L2145.24 653.095 L2145.24 825.325  Z" fill="#ff0000" fill-rule="evenodd" fill-opacity="1"/>
<polyline clip-path="url(#clip402)" style="stroke:#ff0000; stroke-linecap:round; stroke-linejoin:round; stroke-width:2; stroke-opacity:1; fill:none" points="2145.24,825.325 2145.24,653.095 2099.62,653.095 2099.62,459.931 2145.24,459.931 2145.24,437.093 2145.24,459.931 2190.86,459.931 2190.86,653.095 2145.24,653.095 2145.24,825.325 "/>
<path clip-path="url(#clip402)" d="M2246.62 658.804 L2246.62 625.501 L2201 625.501 L2201 440.9 L2246.62 440.9 L2246.62 323.384 L2246.62 440.9 L2292.24 440.9 L2292.24 625.501 L2246.62 625.501 L2246.62 658.804  Z" fill="#008000" fill-rule="evenodd" fill-opacity="1"/>
<polyline clip-path="url(#clip402)" style="stroke:#008000; stroke-linecap:round; stroke-linejoin:round; stroke-width:2; stroke-opacity:1; fill:none" points="2246.62,658.804 2246.62,625.501 2201,625.501 2201,440.9 2246.62,440.9 2246.62,323.384 2246.62,440.9 2292.24,440.9 2292.24,625.501 2246.62,625.501 2246.62,658.804 "/>
<circle clip-path="url(#clip402)" cx="320.492" cy="1097.47" r="3.6" fill="#008000" fill-rule="evenodd" fill-opacity="1" stroke="none"/>
<circle clip-path="url(#clip402)" cx="421.867" cy="1057.5" r="3.6" fill="#008000" fill-rule="evenodd" fill-opacity="1" stroke="none"/>
<circle clip-path="url(#clip402)" cx="523.242" cy="1003.03" r="3.6" fill="#ff0000" fill-rule="evenodd" fill-opacity="1" stroke="none"/>
<circle clip-path="url(#clip402)" cx="624.617" cy="994.702" r="3.6" fill="#008000" fill-rule="evenodd" fill-opacity="1" stroke="none"/>
<circle clip-path="url(#clip402)" cx="725.992" cy="801.061" r="3.6" fill="#008000" fill-rule="evenodd" fill-opacity="1" stroke="none"/>
<circle clip-path="url(#clip402)" cx="827.367" cy="692.109" r="3.6" fill="#008000" fill-rule="evenodd" fill-opacity="1" stroke="none"/>
<circle clip-path="url(#clip402)" cx="928.742" cy="660.232" r="3.6" fill="#008000" fill-rule="evenodd" fill-opacity="1" stroke="none"/>
<circle clip-path="url(#clip402)" cx="1030.12" cy="863.387" r="3.6" fill="#ff0000" fill-rule="evenodd" fill-opacity="1" stroke="none"/>
<circle clip-path="url(#clip402)" cx="1131.49" cy="929.996" r="3.6" fill="#008000" fill-rule="evenodd" fill-opacity="1" stroke="none"/>
<circle clip-path="url(#clip402)" cx="1232.87" cy="714.232" r="3.6" fill="#008000" fill-rule="evenodd" fill-opacity="1" stroke="none"/>
<circle clip-path="url(#clip402)" cx="1334.24" cy="460.406" r="3.6" fill="#008000" fill-rule="evenodd" fill-opacity="1" stroke="none"/>
<circle clip-path="url(#clip402)" cx="1435.62" cy="458.027" r="3.6" fill="#ff0000" fill-rule="evenodd" fill-opacity="1" stroke="none"/>
<circle clip-path="url(#clip402)" cx="1536.99" cy="287.225" r="3.6" fill="#008000" fill-rule="evenodd" fill-opacity="1" stroke="none"/>
<circle clip-path="url(#clip402)" cx="1638.37" cy="312.678" r="3.6" fill="#ff0000" fill-rule="evenodd" fill-opacity="1" stroke="none"/>
<circle clip-path="url(#clip402)" cx="1739.74" cy="407.12" r="3.6" fill="#ff0000" fill-rule="evenodd" fill-opacity="1" stroke="none"/>
<circle clip-path="url(#clip402)" cx="1841.12" cy="643.58" r="3.6" fill="#008000" fill-rule="evenodd" fill-opacity="1" stroke="none"/>
<circle clip-path="url(#clip402)" cx="1942.49" cy="527.966" r="3.6" fill="#ff0000" fill-rule="evenodd" fill-opacity="1" stroke="none"/>
<circle clip-path="url(#clip402)" cx="2043.87" cy="512.979" r="3.6" fill="#008000" fill-rule="evenodd" fill-opacity="1" stroke="none"/>
<circle clip-path="url(#clip402)" cx="2145.24" cy="556.513" r="3.6" fill="#ff0000" fill-rule="evenodd" fill-opacity="1" stroke="none"/>
<circle clip-path="url(#clip402)" cx="2246.62" cy="533.2" r="3.6" fill="#008000" fill-rule="evenodd" fill-opacity="1" stroke="none"/>
</svg>
