<?xml version="1.0" encoding="utf-8"?>
<svg xmlns="http://www.w3.org/2000/svg" xmlns:xlink="http://www.w3.org/1999/xlink" width="600" height="400" viewBox="0 0 2400 1600">
<defs>
  <clipPath id="clip140">
    <rect x="0" y="0" width="2400" height="1600"/>
  </clipPath>
</defs>
<path clip-path="url(#clip140)" d="M0 1600 L2400 1600 L2400 0 L0 0  Z" fill="#ffffff" fill-rule="evenodd" fill-opacity="1"/>
<defs>
  <clipPath id="clip141">
    <rect x="480" y="0" width="1681" height="1600"/>
  </clipPath>
</defs>
<path clip-path="url(#clip140)" d="M169.121 1486.45 L2352.76 1486.45 L2352.76 47.2441 L169.121 47.2441  Z" fill="#ffffff" fill-rule="evenodd" fill-opacity="1"/>
<defs>
  <clipPath id="clip142">
    <rect x="169" y="47" width="2185" height="1440"/>
  </clipPath>
</defs>
<polyline clip-path="url(#clip142)" style="stroke:#000000; stroke-linecap:round; stroke-linejoin:round; stroke-width:2; stroke-opacity:0.1; fill:none" points="230.922,1486.45 230.922,47.2441 "/>
<polyline clip-path="url(#clip142)" style="stroke:#000000; stroke-linecap:round; stroke-linejoin:round; stroke-width:2; stroke-opacity:0.1; fill:none" points="765.005,1486.45 765.005,47.2441 "/>
<polyline clip-path="url(#clip142)" style="stroke:#000000; stroke-linecap:round; stroke-linejoin:round; stroke-width:2; stroke-opacity:0.1; fill:none" points="1299.09,1486.45 1299.09,47.2441 "/>
<polyline clip-path="url(#clip142)" style="stroke:#000000; stroke-linecap:round; stroke-linejoin:round; stroke-width:2; stroke-opacity:0.1; fill:none" points="1833.17,1486.45 1833.17,47.2441 "/>
<polyline clip-path="url(#clip142)" style="stroke:#000000; stroke-linecap:round; stroke-linejoin:round; stroke-width:2; stroke-opacity:0.1; fill:none" points="169.121,1388.89 2352.76,1388.89 "/>
<polyline clip-path="url(#clip142)" style="stroke:#000000; stroke-linecap:round; stroke-linejoin:round; stroke-width:2; stroke-opacity:0.1; fill:none" points="169.121,1152.1 2352.76,1152.1 "/>
<polyline clip-path="url(#clip142)" style="stroke:#000000; stroke-linecap:round; stroke-linejoin:round; stroke-width:2; stroke-opacity:0.1; fill:none" points="169.121,915.312 2352.76,915.312 "/>
<polyline clip-path="url(#clip142)" style="stroke:#000000; stroke-linecap:round; stroke-linejoin:round; stroke-width:2; stroke-opacity:0.1; fill:none" points="169.121,678.524 2352.76,678.524 "/>
<polyline clip-path="url(#clip142)" style="stroke:#000000; stroke-linecap:round; stroke-linejoin:round; stroke-width:2; stroke-opacity:0.1; fill:none" points="169.121,441.737 2352.76,441.737 "/>
<polyline clip-path="url(#clip142)" style="stroke:#000000; stroke-linecap:round; stroke-linejoin:round; stroke-width:2; stroke-opacity:0.1; fill:none" points="169.121,204.949 2352.76,204.949 "/>
<polyline clip-path="url(#clip140)" style="stroke:#000000; stroke-linecap:round; stroke-linejoin:round; stroke-width:4; stroke-opacity:1; fill:none" points="169.121,1486.45 2352.76,1486.45 "/>
<polyline clip-path="url(#clip140)" style="stroke:#000000; stroke-linecap:round; stroke-linejoin:round; stroke-width:4; stroke-opacity:1; fill:none" points="230.922,1486.45 230.922,1467.55 "/>
<polyline clip-path="url(#clip140)" style="stroke:#000000; stroke-linecap:round; stroke-linejoin:round; stroke-width:4; stroke-opacity:1; fill:none" points="765.005,1486.45 765.005,1467.55 "/>
<polyline clip-path="url(#clip140)" style="stroke:#000000; stroke-linecap:round; stroke-linejoin:round; stroke-width:4; stroke-opacity:1; fill:none" points="1299.09,1486.45 1299.09,1467.55 "/>
<polyline clip-path="url(#clip140)" style="stroke:#000000; stroke-linecap:round; stroke-linejoin:round; stroke-width:4; stroke-opacity:1; fill:none" points="1833.17,1486.45 1833.17,1467.55 "/>
<path clip-path="url(#clip140)" d="M102.104 1544.91 L118.423 1544.91 L118.423 1548.85 L96.4786 1548.85 L96.4786 1544.91 Q99.1406 1542.16 103.724 1537.53 Q108.33 1532.88 109.511 1531.53 Q111.756 1529.01 112.636 1527.27 Q113.539 1525.51 113.539 1523.82 Q113.539 1521.07 111.594 1519.33 Q109.673 1517.6 106.571 1517.6 Q104.372 1517.6 101.918 1518.36 Q99.4878 1519.13 96.7101 1520.68 L96.7101 1515.95 Q99.5341 1514.82 101.988 1514.24 Q104.441 1513.66 106.479 1513.66 Q111.849 1513.66 115.043 1516.35 Q118.238 1519.03 118.238 1523.52 Q118.238 1525.65 117.428 1527.57 Q116.64 1529.47 114.534 1532.07 Q113.955 1532.74 110.853 1535.95 Q107.752 1539.15 102.104 1544.91 Z" fill="#000000" fill-rule="nonzero" fill-opacity="1" /><path clip-path="url(#clip140)" d="M138.238 1517.37 Q134.627 1517.37 132.798 1520.93 Q130.992 1524.47 130.992 1531.6 Q130.992 1538.71 132.798 1542.27 Q134.627 1545.82 138.238 1545.82 Q141.872 1545.82 143.677 1542.27 Q145.506 1538.71 145.506 1531.6 Q145.506 1524.47 143.677 1520.93 Q141.872 1517.37 138.238 1517.37 M138.238 1513.66 Q144.048 1513.66 147.103 1518.27 Q150.182 1522.85 150.182 1531.6 Q150.182 1540.33 147.103 1544.94 Q144.048 1549.52 138.238 1549.52 Q132.427 1549.52 129.349 1544.94 Q126.293 1540.33 126.293 1531.6 Q126.293 1522.85 129.349 1518.27 Q132.427 1513.66 138.238 1513.66 Z" fill="#000000" fill-rule="nonzero" fill-opacity="1" /><path clip-path="url(#clip140)" d="M162.427 1544.91 L178.747 1544.91 L178.747 1548.85 L156.802 1548.85 L156.802 1544.91 Q159.464 1542.16 164.048 1537.53 Q168.654 1532.88 169.835 1531.53 Q172.08 1529.01 172.96 1527.27 Q173.862 1525.51 173.862 1523.82 Q173.862 1521.07 171.918 1519.33 Q169.997 1517.6 166.895 1517.6 Q164.696 1517.6 162.242 1518.36 Q159.812 1519.13 157.034 1520.68 L157.034 1515.95 Q159.858 1514.82 162.312 1514.24 Q164.765 1513.66 166.802 1513.66 Q172.173 1513.66 175.367 1516.35 Q178.561 1519.03 178.561 1523.52 Q178.561 1525.65 177.751 1527.57 Q176.964 1529.47 174.858 1532.07 Q174.279 1532.74 171.177 1535.95 Q168.075 1539.15 162.427 1544.91 Z" fill="#000000" fill-rule="nonzero" fill-opacity="1" /><path clip-path="url(#clip140)" d="M188.608 1514.29 L206.964 1514.29 L206.964 1518.22 L192.89 1518.22 L192.89 1526.7 Q193.909 1526.35 194.927 1526.19 Q195.946 1526 196.964 1526 Q202.751 1526 206.131 1529.17 Q209.51 1532.34 209.51 1537.76 Q209.51 1543.34 206.038 1546.44 Q202.566 1549.52 196.247 1549.52 Q194.071 1549.52 191.802 1549.15 Q189.557 1548.78 187.149 1548.04 L187.149 1543.34 Q189.233 1544.47 191.455 1545.03 Q193.677 1545.58 196.154 1545.58 Q200.159 1545.58 202.497 1543.48 Q204.834 1541.37 204.834 1537.76 Q204.834 1534.15 202.497 1532.04 Q200.159 1529.94 196.154 1529.94 Q194.279 1529.94 192.404 1530.35 Q190.552 1530.77 188.608 1531.65 L188.608 1514.29 Z" fill="#000000" fill-rule="nonzero" fill-opacity="1" /><path clip-path="url(#clip140)" d="M215.969 1533.96 L228.445 1533.96 L228.445 1537.76 L215.969 1537.76 L215.969 1533.96 Z" fill="#000000" fill-rule="nonzero" fill-opacity="1" /><path clip-path="url(#clip140)" d="M245.83 1517.37 Q242.219 1517.37 240.39 1520.93 Q238.584 1524.47 238.584 1531.6 Q238.584 1538.71 240.39 1542.27 Q242.219 1545.82 245.83 1545.82 Q249.464 1545.82 251.269 1542.27 Q253.098 1538.71 253.098 1531.6 Q253.098 1524.47 251.269 1520.93 Q249.464 1517.37 245.83 1517.37 M245.83 1513.66 Q251.64 1513.66 254.695 1518.27 Q257.774 1522.85 257.774 1531.6 Q257.774 1540.33 254.695 1544.94 Q251.64 1549.52 245.83 1549.52 Q240.019 1549.52 236.941 1544.94 Q233.885 1540.33 233.885 1531.6 Q233.885 1522.85 236.941 1518.27 Q240.019 1513.66 245.83 1513.66 Z" fill="#000000" fill-rule="nonzero" fill-opacity="1" /><path clip-path="url(#clip140)" d="M270.019 1544.91 L286.339 1544.91 L286.339 1548.85 L264.394 1548.85 L264.394 1544.91 Q267.056 1542.16 271.64 1537.53 Q276.246 1532.88 277.427 1531.53 Q279.672 1529.01 280.552 1527.27 Q281.454 1525.51 281.454 1523.82 Q281.454 1521.07 279.51 1519.33 Q277.589 1517.6 274.487 1517.6 Q272.288 1517.6 269.834 1518.36 Q267.404 1519.13 264.626 1520.68 L264.626 1515.95 Q267.45 1514.82 269.904 1514.24 Q272.357 1513.66 274.394 1513.66 Q279.765 1513.66 282.959 1516.35 Q286.153 1519.03 286.153 1523.52 Q286.153 1525.65 285.343 1527.57 Q284.556 1529.47 282.45 1532.07 Q281.871 1532.74 278.769 1535.95 Q275.667 1539.15 270.019 1544.91 Z" fill="#000000" fill-rule="nonzero" fill-opacity="1" /><path clip-path="url(#clip140)" d="M293.399 1533.96 L305.876 1533.96 L305.876 1537.76 L293.399 1537.76 L293.399 1533.96 Z" fill="#000000" fill-rule="nonzero" fill-opacity="1" /><path clip-path="url(#clip140)" d="M317.288 1544.91 L333.607 1544.91 L333.607 1548.85 L311.663 1548.85 L311.663 1544.91 Q314.325 1542.16 318.908 1537.53 Q323.514 1532.88 324.695 1531.53 Q326.94 1529.01 327.82 1527.27 Q328.723 1525.51 328.723 1523.82 Q328.723 1521.07 326.778 1519.33 Q324.857 1517.6 321.755 1517.6 Q319.556 1517.6 317.102 1518.36 Q314.672 1519.13 311.894 1520.68 L311.894 1515.95 Q314.718 1514.82 317.172 1514.24 Q319.626 1513.66 321.663 1513.66 Q327.033 1513.66 330.227 1516.35 Q333.422 1519.03 333.422 1523.52 Q333.422 1525.65 332.612 1527.57 Q331.825 1529.47 329.718 1532.07 Q329.139 1532.74 326.038 1535.95 Q322.936 1539.15 317.288 1544.91 Z" fill="#000000" fill-rule="nonzero" fill-opacity="1" /><path clip-path="url(#clip140)" d="M353.422 1517.37 Q349.811 1517.37 347.982 1520.93 Q346.176 1524.47 346.176 1531.6 Q346.176 1538.71 347.982 1542.27 Q349.811 1545.82 353.422 1545.82 Q357.056 1545.82 358.861 1542.27 Q360.69 1538.71 360.69 1531.6 Q360.69 1524.47 358.861 1520.93 Q357.056 1517.37 353.422 1517.37 M353.422 1513.66 Q359.232 1513.66 362.287 1518.27 Q365.366 1522.85 365.366 1531.6 Q365.366 1540.33 362.287 1544.94 Q359.232 1549.52 353.422 1549.52 Q347.611 1549.52 344.533 1544.94 Q341.477 1540.33 341.477 1531.6 Q341.477 1522.85 344.533 1518.27 Q347.611 1513.66 353.422 1513.66 Z" fill="#000000" fill-rule="nonzero" fill-opacity="1" /><path clip-path="url(#clip140)" d="M636.637 1544.91 L652.957 1544.91 L652.957 1548.85 L631.012 1548.85 L631.012 1544.91 Q633.675 1542.16 638.258 1537.53 Q642.864 1532.88 644.045 1531.53 Q646.29 1529.01 647.17 1527.27 Q648.073 1525.51 648.073 1523.82 Q648.073 1521.07 646.128 1519.33 Q644.207 1517.6 641.105 1517.6 Q638.906 1517.6 636.452 1518.36 Q634.022 1519.13 631.244 1520.68 L631.244 1515.95 Q634.068 1514.82 636.522 1514.24 Q638.975 1513.66 641.012 1513.66 Q646.383 1513.66 649.577 1516.35 Q652.772 1519.03 652.772 1523.52 Q652.772 1525.65 651.961 1527.57 Q651.174 1529.47 649.068 1532.07 Q648.489 1532.74 645.387 1535.95 Q642.286 1539.15 636.637 1544.91 Z" fill="#000000" fill-rule="nonzero" fill-opacity="1" /><path clip-path="url(#clip140)" d="M672.772 1517.37 Q669.16 1517.37 667.332 1520.93 Q665.526 1524.47 665.526 1531.6 Q665.526 1538.71 667.332 1542.27 Q669.16 1545.82 672.772 1545.82 Q676.406 1545.82 678.211 1542.27 Q680.04 1538.71 680.04 1531.6 Q680.04 1524.47 678.211 1520.93 Q676.406 1517.37 672.772 1517.37 M672.772 1513.66 Q678.582 1513.66 681.637 1518.27 Q684.716 1522.85 684.716 1531.6 Q684.716 1540.33 681.637 1544.94 Q678.582 1549.52 672.772 1549.52 Q666.961 1549.52 663.883 1544.94 Q660.827 1540.33 660.827 1531.6 Q660.827 1522.85 663.883 1518.27 Q666.961 1513.66 672.772 1513.66 Z" fill="#000000" fill-rule="nonzero" fill-opacity="1" /><path clip-path="url(#clip140)" d="M696.961 1544.91 L713.281 1544.91 L713.281 1548.85 L691.336 1548.85 L691.336 1544.91 Q693.998 1542.16 698.582 1537.53 Q703.188 1532.88 704.369 1531.53 Q706.614 1529.01 707.494 1527.27 Q708.396 1525.51 708.396 1523.82 Q708.396 1521.07 706.452 1519.33 Q704.531 1517.6 701.429 1517.6 Q699.23 1517.6 696.776 1518.36 Q694.345 1519.13 691.568 1520.68 L691.568 1515.95 Q694.392 1514.82 696.845 1514.24 Q699.299 1513.66 701.336 1513.66 Q706.707 1513.66 709.901 1516.35 Q713.095 1519.03 713.095 1523.52 Q713.095 1525.65 712.285 1527.57 Q711.498 1529.47 709.392 1532.07 Q708.813 1532.74 705.711 1535.95 Q702.609 1539.15 696.961 1544.91 Z" fill="#000000" fill-rule="nonzero" fill-opacity="1" /><path clip-path="url(#clip140)" d="M723.142 1514.29 L741.498 1514.29 L741.498 1518.22 L727.424 1518.22 L727.424 1526.7 Q728.443 1526.35 729.461 1526.19 Q730.48 1526 731.498 1526 Q737.285 1526 740.665 1529.17 Q744.044 1532.34 744.044 1537.76 Q744.044 1543.34 740.572 1546.44 Q737.1 1549.52 730.78 1549.52 Q728.605 1549.52 726.336 1549.15 Q724.091 1548.78 721.683 1548.04 L721.683 1543.34 Q723.767 1544.47 725.989 1545.03 Q728.211 1545.58 730.688 1545.58 Q734.692 1545.58 737.03 1543.48 Q739.368 1541.37 739.368 1537.76 Q739.368 1534.15 737.03 1532.04 Q734.692 1529.94 730.688 1529.94 Q728.813 1529.94 726.938 1530.35 Q725.086 1530.77 723.142 1531.65 L723.142 1514.29 Z" fill="#000000" fill-rule="nonzero" fill-opacity="1" /><path clip-path="url(#clip140)" d="M750.503 1533.96 L762.979 1533.96 L762.979 1537.76 L750.503 1537.76 L750.503 1533.96 Z" fill="#000000" fill-rule="nonzero" fill-opacity="1" /><path clip-path="url(#clip140)" d="M780.364 1517.37 Q776.752 1517.37 774.924 1520.93 Q773.118 1524.47 773.118 1531.6 Q773.118 1538.71 774.924 1542.27 Q776.752 1545.82 780.364 1545.82 Q783.998 1545.82 785.803 1542.27 Q787.632 1538.71 787.632 1531.6 Q787.632 1524.47 785.803 1520.93 Q783.998 1517.37 780.364 1517.37 M780.364 1513.66 Q786.174 1513.66 789.229 1518.27 Q792.308 1522.85 792.308 1531.6 Q792.308 1540.33 789.229 1544.94 Q786.174 1549.52 780.364 1549.52 Q774.553 1549.52 771.475 1544.94 Q768.419 1540.33 768.419 1531.6 Q768.419 1522.85 771.475 1518.27 Q774.553 1513.66 780.364 1513.66 Z" fill="#000000" fill-rule="nonzero" fill-opacity="1" /><path clip-path="url(#clip140)" d="M804.553 1544.91 L820.873 1544.91 L820.873 1548.85 L798.928 1548.85 L798.928 1544.91 Q801.59 1542.16 806.174 1537.53 Q810.78 1532.88 811.961 1531.53 Q814.206 1529.01 815.086 1527.27 Q815.988 1525.51 815.988 1523.82 Q815.988 1521.07 814.044 1519.33 Q812.123 1517.6 809.021 1517.6 Q806.822 1517.6 804.368 1518.36 Q801.938 1519.13 799.16 1520.68 L799.16 1515.95 Q801.984 1514.82 804.437 1514.24 Q806.891 1513.66 808.928 1513.66 Q814.299 1513.66 817.493 1516.35 Q820.687 1519.03 820.687 1523.52 Q820.687 1525.65 819.877 1527.57 Q819.09 1529.47 816.984 1532.07 Q816.405 1532.74 813.303 1535.95 Q810.201 1539.15 804.553 1544.91 Z" fill="#000000" fill-rule="nonzero" fill-opacity="1" /><path clip-path="url(#clip140)" d="M827.933 1533.96 L840.41 1533.96 L840.41 1537.76 L827.933 1537.76 L827.933 1533.96 Z" fill="#000000" fill-rule="nonzero" fill-opacity="1" /><path clip-path="url(#clip140)" d="M851.821 1544.91 L868.141 1544.91 L868.141 1548.85 L846.197 1548.85 L846.197 1544.91 Q848.859 1542.16 853.442 1537.53 Q858.048 1532.88 859.229 1531.53 Q861.474 1529.01 862.354 1527.27 Q863.257 1525.51 863.257 1523.82 Q863.257 1521.07 861.312 1519.33 Q859.391 1517.6 856.289 1517.6 Q854.09 1517.6 851.636 1518.36 Q849.206 1519.13 846.428 1520.68 L846.428 1515.95 Q849.252 1514.82 851.706 1514.24 Q854.159 1513.66 856.196 1513.66 Q861.567 1513.66 864.761 1516.35 Q867.956 1519.03 867.956 1523.52 Q867.956 1525.65 867.145 1527.57 Q866.358 1529.47 864.252 1532.07 Q863.673 1532.74 860.571 1535.95 Q857.47 1539.15 851.821 1544.91 Z" fill="#000000" fill-rule="nonzero" fill-opacity="1" /><path clip-path="url(#clip140)" d="M876.775 1514.29 L898.997 1514.29 L898.997 1516.28 L886.451 1548.85 L881.567 1548.85 L893.372 1518.22 L876.775 1518.22 L876.775 1514.29 Z" fill="#000000" fill-rule="nonzero" fill-opacity="1" /><path clip-path="url(#clip140)" d="M1170.19 1544.91 L1186.51 1544.91 L1186.51 1548.85 L1164.56 1548.85 L1164.56 1544.91 Q1167.22 1542.16 1171.81 1537.53 Q1176.41 1532.88 1177.59 1531.53 Q1179.84 1529.01 1180.72 1527.27 Q1181.62 1525.51 1181.62 1523.82 Q1181.62 1521.07 1179.68 1519.33 Q1177.76 1517.6 1174.66 1517.6 Q1172.46 1517.6 1170 1518.36 Q1167.57 1519.13 1164.79 1520.68 L1164.79 1515.95 Q1167.62 1514.82 1170.07 1514.24 Q1172.53 1513.66 1174.56 1513.66 Q1179.93 1513.66 1183.13 1516.35 Q1186.32 1519.03 1186.32 1523.52 Q1186.32 1525.65 1185.51 1527.57 Q1184.72 1529.47 1182.62 1532.07 Q1182.04 1532.74 1178.94 1535.95 Q1175.84 1539.15 1170.19 1544.91 Z" fill="#000000" fill-rule="nonzero" fill-opacity="1" /><path clip-path="url(#clip140)" d="M1206.32 1517.37 Q1202.71 1517.37 1200.88 1520.93 Q1199.08 1524.47 1199.08 1531.6 Q1199.08 1538.71 1200.88 1542.27 Q1202.71 1545.82 1206.32 1545.82 Q1209.96 1545.82 1211.76 1542.27 Q1213.59 1538.71 1213.59 1531.6 Q1213.59 1524.47 1211.76 1520.93 Q1209.96 1517.37 1206.32 1517.37 M1206.32 1513.66 Q1212.13 1513.66 1215.19 1518.27 Q1218.27 1522.85 1218.27 1531.6 Q1218.27 1540.33 1215.19 1544.94 Q1212.13 1549.52 1206.32 1549.52 Q1200.51 1549.52 1197.43 1544.94 Q1194.38 1540.33 1194.38 1531.6 Q1194.38 1522.85 1197.43 1518.27 Q1200.51 1513.66 1206.32 1513.66 Z" fill="#000000" fill-rule="nonzero" fill-opacity="1" /><path clip-path="url(#clip140)" d="M1230.51 1544.91 L1246.83 1544.91 L1246.83 1548.85 L1224.89 1548.85 L1224.89 1544.91 Q1227.55 1542.16 1232.13 1537.53 Q1236.74 1532.88 1237.92 1531.53 Q1240.16 1529.01 1241.04 1527.27 Q1241.95 1525.51 1241.95 1523.82 Q1241.95 1521.07 1240 1519.33 Q1238.08 1517.6 1234.98 1517.6 Q1232.78 1517.6 1230.33 1518.36 Q1227.9 1519.13 1225.12 1520.68 L1225.12 1515.95 Q1227.94 1514.82 1230.4 1514.24 Q1232.85 1513.66 1234.89 1513.66 Q1240.26 1513.66 1243.45 1516.35 Q1246.65 1519.03 1246.65 1523.52 Q1246.65 1525.65 1245.84 1527.57 Q1245.05 1529.47 1242.94 1532.07 Q1242.36 1532.74 1239.26 1535.95 Q1236.16 1539.15 1230.51 1544.91 Z" fill="#000000" fill-rule="nonzero" fill-opacity="1" /><path clip-path="url(#clip140)" d="M1256.69 1514.29 L1275.05 1514.29 L1275.05 1518.22 L1260.97 1518.22 L1260.97 1526.7 Q1261.99 1526.35 1263.01 1526.19 Q1264.03 1526 1265.05 1526 Q1270.84 1526 1274.21 1529.17 Q1277.59 1532.34 1277.59 1537.76 Q1277.59 1543.34 1274.12 1546.44 Q1270.65 1549.52 1264.33 1549.52 Q1262.15 1549.52 1259.89 1549.15 Q1257.64 1548.78 1255.23 1548.04 L1255.23 1543.34 Q1257.32 1544.47 1259.54 1545.03 Q1261.76 1545.58 1264.24 1545.58 Q1268.24 1545.58 1270.58 1543.48 Q1272.92 1541.37 1272.92 1537.76 Q1272.92 1534.15 1270.58 1532.04 Q1268.24 1529.94 1264.24 1529.94 Q1262.36 1529.94 1260.49 1530.35 Q1258.64 1530.77 1256.69 1531.65 L1256.69 1514.29 Z" fill="#000000" fill-rule="nonzero" fill-opacity="1" /><path clip-path="url(#clip140)" d="M1284.05 1533.96 L1296.53 1533.96 L1296.53 1537.76 L1284.05 1537.76 L1284.05 1533.96 Z" fill="#000000" fill-rule="nonzero" fill-opacity="1" /><path clip-path="url(#clip140)" d="M1313.91 1517.37 Q1310.3 1517.37 1308.47 1520.93 Q1306.67 1524.47 1306.67 1531.6 Q1306.67 1538.71 1308.47 1542.27 Q1310.3 1545.82 1313.91 1545.82 Q1317.55 1545.82 1319.35 1542.27 Q1321.18 1538.71 1321.18 1531.6 Q1321.18 1524.47 1319.35 1520.93 Q1317.55 1517.37 1313.91 1517.37 M1313.91 1513.66 Q1319.72 1513.66 1322.78 1518.27 Q1325.86 1522.85 1325.86 1531.6 Q1325.86 1540.33 1322.78 1544.94 Q1319.72 1549.52 1313.91 1549.52 Q1308.1 1549.52 1305.02 1544.94 Q1301.97 1540.33 1301.97 1531.6 Q1301.97 1522.85 1305.02 1518.27 Q1308.1 1513.66 1313.91 1513.66 Z" fill="#000000" fill-rule="nonzero" fill-opacity="1" /><path clip-path="url(#clip140)" d="M1348.24 1530.21 Q1351.6 1530.93 1353.47 1533.2 Q1355.37 1535.47 1355.37 1538.8 Q1355.37 1543.92 1351.85 1546.72 Q1348.33 1549.52 1341.85 1549.52 Q1339.68 1549.52 1337.36 1549.08 Q1335.07 1548.66 1332.62 1547.81 L1332.62 1543.29 Q1334.56 1544.43 1336.88 1545.01 Q1339.19 1545.58 1341.71 1545.58 Q1346.11 1545.58 1348.4 1543.85 Q1350.72 1542.11 1350.72 1538.8 Q1350.72 1535.75 1348.57 1534.03 Q1346.44 1532.3 1342.62 1532.3 L1338.59 1532.3 L1338.59 1528.45 L1342.8 1528.45 Q1346.25 1528.45 1348.08 1527.09 Q1349.91 1525.7 1349.91 1523.11 Q1349.91 1520.45 1348.01 1519.03 Q1346.14 1517.6 1342.62 1517.6 Q1340.7 1517.6 1338.5 1518.01 Q1336.3 1518.43 1333.66 1519.31 L1333.66 1515.14 Q1336.32 1514.4 1338.64 1514.03 Q1340.97 1513.66 1343.03 1513.66 Q1348.36 1513.66 1351.46 1516.09 Q1354.56 1518.5 1354.56 1522.62 Q1354.56 1525.49 1352.92 1527.48 Q1351.27 1529.45 1348.24 1530.21 Z" fill="#000000" fill-rule="nonzero" fill-opacity="1" /><path clip-path="url(#clip140)" d="M1361.48 1533.96 L1373.96 1533.96 L1373.96 1537.76 L1361.48 1537.76 L1361.48 1533.96 Z" fill="#000000" fill-rule="nonzero" fill-opacity="1" /><path clip-path="url(#clip140)" d="M1391.34 1517.37 Q1387.73 1517.37 1385.9 1520.93 Q1384.1 1524.47 1384.1 1531.6 Q1384.1 1538.71 1385.9 1542.27 Q1387.73 1545.82 1391.34 1545.82 Q1394.98 1545.82 1396.78 1542.27 Q1398.61 1538.71 1398.61 1531.6 Q1398.61 1524.47 1396.78 1520.93 Q1394.98 1517.37 1391.34 1517.37 M1391.34 1513.66 Q1397.15 1513.66 1400.21 1518.27 Q1403.29 1522.85 1403.29 1531.6 Q1403.29 1540.33 1400.21 1544.94 Q1397.15 1549.52 1391.34 1549.52 Q1385.53 1549.52 1382.45 1544.94 Q1379.4 1540.33 1379.4 1531.6 Q1379.4 1522.85 1382.45 1518.27 Q1385.53 1513.66 1391.34 1513.66 Z" fill="#000000" fill-rule="nonzero" fill-opacity="1" /><path clip-path="url(#clip140)" d="M1422.08 1529.7 Q1418.94 1529.7 1417.08 1531.86 Q1415.26 1534.01 1415.26 1537.76 Q1415.26 1541.49 1417.08 1543.66 Q1418.94 1545.82 1422.08 1545.82 Q1425.23 1545.82 1427.06 1543.66 Q1428.91 1541.49 1428.91 1537.76 Q1428.91 1534.01 1427.06 1531.86 Q1425.23 1529.7 1422.08 1529.7 M1431.37 1515.05 L1431.37 1519.31 Q1429.61 1518.48 1427.8 1518.04 Q1426.02 1517.6 1424.26 1517.6 Q1419.63 1517.6 1417.18 1520.72 Q1414.75 1523.85 1414.4 1530.17 Q1415.76 1528.15 1417.83 1527.09 Q1419.89 1526 1422.36 1526 Q1427.57 1526 1430.58 1529.17 Q1433.61 1532.32 1433.61 1537.76 Q1433.61 1543.08 1430.46 1546.3 Q1427.32 1549.52 1422.08 1549.52 Q1416.09 1549.52 1412.92 1544.94 Q1409.75 1540.33 1409.75 1531.6 Q1409.75 1523.41 1413.64 1518.55 Q1417.52 1513.66 1424.08 1513.66 Q1425.83 1513.66 1427.62 1514.01 Q1429.42 1514.36 1431.37 1515.05 Z" fill="#000000" fill-rule="nonzero" fill-opacity="1" /><path clip-path="url(#clip140)" d="M1704.68 1544.91 L1720.99 1544.91 L1720.99 1548.85 L1699.05 1548.85 L1699.05 1544.91 Q1701.71 1542.16 1706.3 1537.53 Q1710.9 1532.88 1712.08 1531.53 Q1714.33 1529.01 1715.21 1527.27 Q1716.11 1525.51 1716.11 1523.82 Q1716.11 1521.07 1714.17 1519.33 Q1712.24 1517.6 1709.14 1517.6 Q1706.94 1517.6 1704.49 1518.36 Q1702.06 1519.13 1699.28 1520.68 L1699.28 1515.95 Q1702.11 1514.82 1704.56 1514.24 Q1707.01 1513.66 1709.05 1513.66 Q1714.42 1513.66 1717.61 1516.35 Q1720.81 1519.03 1720.81 1523.52 Q1720.81 1525.65 1720 1527.57 Q1719.21 1529.47 1717.11 1532.07 Q1716.53 1532.74 1713.43 1535.95 Q1710.32 1539.15 1704.68 1544.91 Z" fill="#000000" fill-rule="nonzero" fill-opacity="1" /><path clip-path="url(#clip140)" d="M1740.81 1517.37 Q1737.2 1517.37 1735.37 1520.93 Q1733.56 1524.47 1733.56 1531.6 Q1733.56 1538.71 1735.37 1542.27 Q1737.2 1545.82 1740.81 1545.82 Q1744.44 1545.82 1746.25 1542.27 Q1748.08 1538.71 1748.08 1531.6 Q1748.08 1524.47 1746.25 1520.93 Q1744.44 1517.37 1740.81 1517.37 M1740.81 1513.66 Q1746.62 1513.66 1749.67 1518.27 Q1752.75 1522.85 1752.75 1531.6 Q1752.75 1540.33 1749.67 1544.94 Q1746.62 1549.52 1740.81 1549.52 Q1735 1549.52 1731.92 1544.94 Q1728.86 1540.33 1728.86 1531.6 Q1728.86 1522.85 1731.92 1518.27 Q1735 1513.66 1740.81 1513.66 Z" fill="#000000" fill-rule="nonzero" fill-opacity="1" /><path clip-path="url(#clip140)" d="M1765 1544.91 L1781.32 1544.91 L1781.32 1548.85 L1759.37 1548.85 L1759.37 1544.91 Q1762.04 1542.16 1766.62 1537.53 Q1771.23 1532.88 1772.41 1531.53 Q1774.65 1529.01 1775.53 1527.27 Q1776.43 1525.51 1776.43 1523.82 Q1776.43 1521.07 1774.49 1519.33 Q1772.57 1517.6 1769.47 1517.6 Q1767.27 1517.6 1764.81 1518.36 Q1762.38 1519.13 1759.61 1520.68 L1759.61 1515.95 Q1762.43 1514.82 1764.88 1514.24 Q1767.34 1513.66 1769.37 1513.66 Q1774.74 1513.66 1777.94 1516.35 Q1781.13 1519.03 1781.13 1523.52 Q1781.13 1525.65 1780.32 1527.57 Q1779.54 1529.47 1777.43 1532.07 Q1776.85 1532.74 1773.75 1535.95 Q1770.65 1539.15 1765 1544.91 Z" fill="#000000" fill-rule="nonzero" fill-opacity="1" /><path clip-path="url(#clip140)" d="M1791.18 1514.29 L1809.54 1514.29 L1809.54 1518.22 L1795.46 1518.22 L1795.46 1526.7 Q1796.48 1526.35 1797.5 1526.19 Q1798.52 1526 1799.54 1526 Q1805.32 1526 1808.7 1529.17 Q1812.08 1532.34 1812.08 1537.76 Q1812.08 1543.34 1808.61 1546.44 Q1805.14 1549.52 1798.82 1549.52 Q1796.64 1549.52 1794.37 1549.15 Q1792.13 1548.78 1789.72 1548.04 L1789.72 1543.34 Q1791.8 1544.47 1794.03 1545.03 Q1796.25 1545.58 1798.73 1545.58 Q1802.73 1545.58 1805.07 1543.48 Q1807.41 1541.37 1807.41 1537.76 Q1807.41 1534.15 1805.07 1532.04 Q1802.73 1529.94 1798.73 1529.94 Q1796.85 1529.94 1794.98 1530.35 Q1793.12 1530.77 1791.18 1531.65 L1791.18 1514.29 Z" fill="#000000" fill-rule="nonzero" fill-opacity="1" /><path clip-path="url(#clip140)" d="M1818.54 1533.96 L1831.02 1533.96 L1831.02 1537.76 L1818.54 1537.76 L1818.54 1533.96 Z" fill="#000000" fill-rule="nonzero" fill-opacity="1" /><path clip-path="url(#clip140)" d="M1848.4 1517.37 Q1844.79 1517.37 1842.96 1520.93 Q1841.16 1524.47 1841.16 1531.6 Q1841.16 1538.71 1842.96 1542.27 Q1844.79 1545.82 1848.4 1545.82 Q1852.04 1545.82 1853.84 1542.27 Q1855.67 1538.71 1855.67 1531.6 Q1855.67 1524.47 1853.84 1520.93 Q1852.04 1517.37 1848.4 1517.37 M1848.4 1513.66 Q1854.21 1513.66 1857.27 1518.27 Q1860.35 1522.85 1860.35 1531.6 Q1860.35 1540.33 1857.27 1544.94 Q1854.21 1549.52 1848.4 1549.52 Q1842.59 1549.52 1839.51 1544.94 Q1836.46 1540.33 1836.46 1531.6 Q1836.46 1522.85 1839.51 1518.27 Q1842.59 1513.66 1848.4 1513.66 Z" fill="#000000" fill-rule="nonzero" fill-opacity="1" /><path clip-path="url(#clip140)" d="M1882.73 1530.21 Q1886.09 1530.93 1887.96 1533.2 Q1889.86 1535.47 1889.86 1538.8 Q1889.86 1543.92 1886.34 1546.72 Q1882.82 1549.52 1876.34 1549.52 Q1874.17 1549.52 1871.85 1549.08 Q1869.56 1548.66 1867.1 1547.81 L1867.1 1543.29 Q1869.05 1544.43 1871.36 1545.01 Q1873.68 1545.58 1876.2 1545.58 Q1880.6 1545.58 1882.89 1543.85 Q1885.21 1542.11 1885.21 1538.8 Q1885.21 1535.75 1883.05 1534.03 Q1880.92 1532.3 1877.1 1532.3 L1873.08 1532.3 L1873.08 1528.45 L1877.29 1528.45 Q1880.74 1528.45 1882.57 1527.09 Q1884.4 1525.7 1884.4 1523.11 Q1884.4 1520.45 1882.5 1519.03 Q1880.62 1517.6 1877.1 1517.6 Q1875.18 1517.6 1872.98 1518.01 Q1870.79 1518.43 1868.15 1519.31 L1868.15 1515.14 Q1870.81 1514.4 1873.12 1514.03 Q1875.46 1513.66 1877.52 1513.66 Q1882.85 1513.66 1885.95 1516.09 Q1889.05 1518.5 1889.05 1522.62 Q1889.05 1525.49 1887.41 1527.48 Q1885.76 1529.45 1882.73 1530.21 Z" fill="#000000" fill-rule="nonzero" fill-opacity="1" /><path clip-path="url(#clip140)" d="M1895.97 1533.96 L1908.45 1533.96 L1908.45 1537.76 L1895.97 1537.76 L1895.97 1533.96 Z" fill="#000000" fill-rule="nonzero" fill-opacity="1" /><path clip-path="url(#clip140)" d="M1916.64 1544.91 L1924.28 1544.91 L1924.28 1518.55 L1915.97 1520.21 L1915.97 1515.95 L1924.23 1514.29 L1928.91 1514.29 L1928.91 1544.91 L1936.55 1544.91 L1936.55 1548.85 L1916.64 1548.85 L1916.64 1544.91 Z" fill="#000000" fill-rule="nonzero" fill-opacity="1" /><path clip-path="url(#clip140)" d="M1960.16 1530.21 Q1963.52 1530.93 1965.39 1533.2 Q1967.29 1535.47 1967.29 1538.8 Q1967.29 1543.92 1963.77 1546.72 Q1960.25 1549.52 1953.77 1549.52 Q1951.6 1549.52 1949.28 1549.08 Q1946.99 1548.66 1944.54 1547.81 L1944.54 1543.29 Q1946.48 1544.43 1948.79 1545.01 Q1951.11 1545.58 1953.63 1545.58 Q1958.03 1545.58 1960.32 1543.85 Q1962.64 1542.11 1962.64 1538.8 Q1962.64 1535.75 1960.48 1534.03 Q1958.35 1532.3 1954.53 1532.3 L1950.51 1532.3 L1950.51 1528.45 L1954.72 1528.45 Q1958.17 1528.45 1960 1527.09 Q1961.83 1525.7 1961.83 1523.11 Q1961.83 1520.45 1959.93 1519.03 Q1958.05 1517.6 1954.53 1517.6 Q1952.61 1517.6 1950.41 1518.01 Q1948.22 1518.43 1945.58 1519.31 L1945.58 1515.14 Q1948.24 1514.4 1950.55 1514.03 Q1952.89 1513.66 1954.95 1513.66 Q1960.28 1513.66 1963.38 1516.09 Q1966.48 1518.5 1966.48 1522.62 Q1966.48 1525.49 1964.84 1527.48 Q1963.19 1529.45 1960.16 1530.21 Z" fill="#000000" fill-rule="nonzero" fill-opacity="1" /><polyline clip-path="url(#clip140)" style="stroke:#000000; stroke-linecap:round; stroke-linejoin:round; stroke-width:4; stroke-opacity:1; fill:none" points="169.121,1486.45 169.121,47.2441 "/>
<polyline clip-path="url(#clip140)" style="stroke:#000000; stroke-linecap:round; stroke-linejoin:round; stroke-width:4; stroke-opacity:1; fill:none" points="169.121,1388.89 188.019,1388.89 "/>
<polyline clip-path="url(#clip140)" style="stroke:#000000; stroke-linecap:round; stroke-linejoin:round; stroke-width:4; stroke-opacity:1; fill:none" points="169.121,1152.1 188.019,1152.1 "/>
<polyline clip-path="url(#clip140)" style="stroke:#000000; stroke-linecap:round; stroke-linejoin:round; stroke-width:4; stroke-opacity:1; fill:none" points="169.121,915.312 188.019,915.312 "/>
<polyline clip-path="url(#clip140)" style="stroke:#000000; stroke-linecap:round; stroke-linejoin:round; stroke-width:4; stroke-opacity:1; fill:none" points="169.121,678.524 188.019,678.524 "/>
<polyline clip-path="url(#clip140)" style="stroke:#000000; stroke-linecap:round; stroke-linejoin:round; stroke-width:4; stroke-opacity:1; fill:none" points="169.121,441.737 188.019,441.737 "/>
<polyline clip-path="url(#clip140)" style="stroke:#000000; stroke-linecap:round; stroke-linejoin:round; stroke-width:4; stroke-opacity:1; fill:none" points="169.121,204.949 188.019,204.949 "/>
<path clip-path="url(#clip140)" d="M51.6634 1402.23 L59.3023 1402.23 L59.3023 1375.87 L50.9921 1377.53 L50.9921 1373.27 L59.256 1371.61 L63.9319 1371.61 L63.9319 1402.23 L71.5707 1402.23 L71.5707 1406.17 L51.6634 1406.17 L51.6634 1402.23 Z" fill="#000000" fill-rule="nonzero" fill-opacity="1" /><path clip-path="url(#clip140)" d="M91.5938 1387.02 Q88.4456 1387.02 86.5938 1389.18 Q84.7651 1391.33 84.7651 1395.08 Q84.7651 1398.81 86.5938 1400.98 Q88.4456 1403.13 91.5938 1403.13 Q94.7419 1403.13 96.5706 1400.98 Q98.4224 1398.81 98.4224 1395.08 Q98.4224 1391.33 96.5706 1389.18 Q94.7419 1387.02 91.5938 1387.02 M100.876 1372.37 L100.876 1376.63 Q99.1169 1375.8 97.3113 1375.36 Q95.5289 1374.92 93.7697 1374.92 Q89.1401 1374.92 86.6864 1378.04 Q84.2558 1381.17 83.9086 1387.49 Q85.2743 1385.47 87.3345 1384.41 Q89.3947 1383.32 91.8715 1383.32 Q97.0798 1383.32 100.089 1386.49 Q103.121 1389.64 103.121 1395.08 Q103.121 1400.4 99.9733 1403.62 Q96.8252 1406.84 91.5938 1406.84 Q85.5984 1406.84 82.4271 1402.25 Q79.2559 1397.65 79.2559 1388.92 Q79.2559 1380.73 83.1447 1375.87 Q87.0336 1370.98 93.5845 1370.98 Q95.3437 1370.98 97.1261 1371.33 Q98.9317 1371.68 100.876 1372.37 Z" fill="#000000" fill-rule="nonzero" fill-opacity="1" /><path clip-path="url(#clip140)" d="M121.177 1374.69 Q117.566 1374.69 115.737 1378.25 Q113.932 1381.79 113.932 1388.92 Q113.932 1396.03 115.737 1399.59 Q117.566 1403.13 121.177 1403.13 Q124.811 1403.13 126.617 1399.59 Q128.445 1396.03 128.445 1388.92 Q128.445 1381.79 126.617 1378.25 Q124.811 1374.69 121.177 1374.69 M121.177 1370.98 Q126.987 1370.98 130.043 1375.59 Q133.121 1380.17 133.121 1388.92 Q133.121 1397.65 130.043 1402.25 Q126.987 1406.84 121.177 1406.84 Q115.367 1406.84 112.288 1402.25 Q109.233 1397.65 109.233 1388.92 Q109.233 1380.17 112.288 1375.59 Q115.367 1370.98 121.177 1370.98 Z" fill="#000000" fill-rule="nonzero" fill-opacity="1" /><path clip-path="url(#clip140)" d="M52.6588 1165.44 L60.2976 1165.44 L60.2976 1139.08 L51.9875 1140.75 L51.9875 1136.49 L60.2513 1134.82 L64.9272 1134.82 L64.9272 1165.44 L72.5661 1165.44 L72.5661 1169.38 L52.6588 1169.38 L52.6588 1165.44 Z" fill="#000000" fill-rule="nonzero" fill-opacity="1" /><path clip-path="url(#clip140)" d="M92.5891 1150.24 Q89.441 1150.24 87.5892 1152.39 Q85.7605 1154.54 85.7605 1158.29 Q85.7605 1162.02 87.5892 1164.19 Q89.441 1166.35 92.5891 1166.35 Q95.7373 1166.35 97.566 1164.19 Q99.4178 1162.02 99.4178 1158.29 Q99.4178 1154.54 97.566 1152.39 Q95.7373 1150.24 92.5891 1150.24 M101.871 1135.58 L101.871 1139.84 Q100.112 1139.01 98.3067 1138.57 Q96.5243 1138.13 94.765 1138.13 Q90.1354 1138.13 87.6817 1141.25 Q85.2512 1144.38 84.904 1150.7 Q86.2697 1148.69 88.3299 1147.62 Q90.3901 1146.53 92.8669 1146.53 Q98.0752 1146.53 101.084 1149.7 Q104.117 1152.85 104.117 1158.29 Q104.117 1163.62 100.969 1166.83 Q97.8206 1170.05 92.5891 1170.05 Q86.5938 1170.05 83.4225 1165.47 Q80.2512 1160.86 80.2512 1152.13 Q80.2512 1143.94 84.1401 1139.08 Q88.029 1134.19 94.5799 1134.19 Q96.3391 1134.19 98.1215 1134.54 Q99.927 1134.89 101.871 1135.58 Z" fill="#000000" fill-rule="nonzero" fill-opacity="1" /><path clip-path="url(#clip140)" d="M112.219 1134.82 L130.575 1134.82 L130.575 1138.75 L116.501 1138.75 L116.501 1147.23 Q117.52 1146.88 118.538 1146.72 Q119.557 1146.53 120.575 1146.53 Q126.362 1146.53 129.742 1149.7 Q133.121 1152.87 133.121 1158.29 Q133.121 1163.87 129.649 1166.97 Q126.177 1170.05 119.857 1170.05 Q117.682 1170.05 115.413 1169.68 Q113.168 1169.31 110.76 1168.57 L110.76 1163.87 Q112.844 1165 115.066 1165.56 Q117.288 1166.12 119.765 1166.12 Q123.77 1166.12 126.107 1164.01 Q128.445 1161.9 128.445 1158.29 Q128.445 1154.68 126.107 1152.57 Q123.77 1150.47 119.765 1150.47 Q117.89 1150.47 116.015 1150.88 Q114.163 1151.3 112.219 1152.18 L112.219 1134.82 Z" fill="#000000" fill-rule="nonzero" fill-opacity="1" /><path clip-path="url(#clip140)" d="M51.6634 928.657 L59.3023 928.657 L59.3023 902.291 L50.9921 903.958 L50.9921 899.699 L59.256 898.032 L63.9319 898.032 L63.9319 928.657 L71.5707 928.657 L71.5707 932.592 L51.6634 932.592 L51.6634 928.657 Z" fill="#000000" fill-rule="nonzero" fill-opacity="1" /><path clip-path="url(#clip140)" d="M79.8346 898.032 L102.057 898.032 L102.057 900.023 L89.5104 932.592 L84.6262 932.592 L96.4317 901.967 L79.8346 901.967 L79.8346 898.032 Z" fill="#000000" fill-rule="nonzero" fill-opacity="1" /><path clip-path="url(#clip140)" d="M121.177 901.111 Q117.566 901.111 115.737 904.675 Q113.932 908.217 113.932 915.347 Q113.932 922.453 115.737 926.018 Q117.566 929.559 121.177 929.559 Q124.811 929.559 126.617 926.018 Q128.445 922.453 128.445 915.347 Q128.445 908.217 126.617 904.675 Q124.811 901.111 121.177 901.111 M121.177 897.407 Q126.987 897.407 130.043 902.013 Q133.121 906.597 133.121 915.347 Q133.121 924.073 130.043 928.68 Q126.987 933.263 121.177 933.263 Q115.367 933.263 112.288 928.68 Q109.233 924.073 109.233 915.347 Q109.233 906.597 112.288 902.013 Q115.367 897.407 121.177 897.407 Z" fill="#000000" fill-rule="nonzero" fill-opacity="1" /><path clip-path="url(#clip140)" d="M52.6588 691.869 L60.2976 691.869 L60.2976 665.504 L51.9875 667.17 L51.9875 662.911 L60.2513 661.244 L64.9272 661.244 L64.9272 691.869 L72.5661 691.869 L72.5661 695.804 L52.6588 695.804 L52.6588 691.869 Z" fill="#000000" fill-rule="nonzero" fill-opacity="1" /><path clip-path="url(#clip140)" d="M80.8299 661.244 L103.052 661.244 L103.052 663.235 L90.5058 695.804 L85.6216 695.804 L97.4271 665.18 L80.8299 665.18 L80.8299 661.244 Z" fill="#000000" fill-rule="nonzero" fill-opacity="1" /><path clip-path="url(#clip140)" d="M112.219 661.244 L130.575 661.244 L130.575 665.18 L116.501 665.18 L116.501 673.652 Q117.52 673.304 118.538 673.142 Q119.557 672.957 120.575 672.957 Q126.362 672.957 129.742 676.129 Q133.121 679.3 133.121 684.716 Q133.121 690.295 129.649 693.397 Q126.177 696.476 119.857 696.476 Q117.682 696.476 115.413 696.105 Q113.168 695.735 110.76 694.994 L110.76 690.295 Q112.844 691.429 115.066 691.985 Q117.288 692.54 119.765 692.54 Q123.77 692.54 126.107 690.434 Q128.445 688.328 128.445 684.716 Q128.445 681.105 126.107 678.999 Q123.77 676.892 119.765 676.892 Q117.89 676.892 116.015 677.309 Q114.163 677.726 112.219 678.605 L112.219 661.244 Z" fill="#000000" fill-rule="nonzero" fill-opacity="1" /><path clip-path="url(#clip140)" d="M51.6634 455.082 L59.3023 455.082 L59.3023 428.716 L50.9921 430.383 L50.9921 426.124 L59.256 424.457 L63.9319 424.457 L63.9319 455.082 L71.5707 455.082 L71.5707 459.017 L51.6634 459.017 L51.6634 455.082 Z" fill="#000000" fill-rule="nonzero" fill-opacity="1" /><path clip-path="url(#clip140)" d="M91.0151 442.605 Q87.6817 442.605 85.7605 444.387 Q83.8623 446.17 83.8623 449.295 Q83.8623 452.42 85.7605 454.202 Q87.6817 455.984 91.0151 455.984 Q94.3484 455.984 96.2697 454.202 Q98.1909 452.397 98.1909 449.295 Q98.1909 446.17 96.2697 444.387 Q94.3715 442.605 91.0151 442.605 M86.3392 440.614 Q83.3299 439.873 81.6401 437.813 Q79.9735 435.753 79.9735 432.79 Q79.9735 428.647 82.9133 426.239 Q85.8762 423.832 91.0151 423.832 Q96.1771 423.832 99.1169 426.239 Q102.057 428.647 102.057 432.79 Q102.057 435.753 100.367 437.813 Q98.7002 439.873 95.7141 440.614 Q99.0937 441.401 100.969 443.693 Q102.867 445.985 102.867 449.295 Q102.867 454.318 99.7882 457.003 Q96.7326 459.688 91.0151 459.688 Q85.2975 459.688 82.2188 457.003 Q79.1633 454.318 79.1633 449.295 Q79.1633 445.985 81.0614 443.693 Q82.9595 441.401 86.3392 440.614 M84.6262 433.23 Q84.6262 435.915 86.2929 437.42 Q87.9827 438.924 91.0151 438.924 Q94.0243 438.924 95.7141 437.42 Q97.4271 435.915 97.4271 433.23 Q97.4271 430.545 95.7141 429.04 Q94.0243 427.536 91.0151 427.536 Q87.9827 427.536 86.2929 429.04 Q84.6262 430.545 84.6262 433.23 Z" fill="#000000" fill-rule="nonzero" fill-opacity="1" /><path clip-path="url(#clip140)" d="M121.177 427.536 Q117.566 427.536 115.737 431.1 Q113.932 434.642 113.932 441.772 Q113.932 448.878 115.737 452.443 Q117.566 455.984 121.177 455.984 Q124.811 455.984 126.617 452.443 Q128.445 448.878 128.445 441.772 Q128.445 434.642 126.617 431.1 Q124.811 427.536 121.177 427.536 M121.177 423.832 Q126.987 423.832 130.043 428.438 Q133.121 433.022 133.121 441.772 Q133.121 450.498 130.043 455.105 Q126.987 459.688 121.177 459.688 Q115.367 459.688 112.288 455.105 Q109.233 450.498 109.233 441.772 Q109.233 433.022 112.288 428.438 Q115.367 423.832 121.177 423.832 Z" fill="#000000" fill-rule="nonzero" fill-opacity="1" /><path clip-path="url(#clip140)" d="M52.6588 218.294 L60.2976 218.294 L60.2976 191.929 L51.9875 193.595 L51.9875 189.336 L60.2513 187.669 L64.9272 187.669 L64.9272 218.294 L72.5661 218.294 L72.5661 222.229 L52.6588 222.229 L52.6588 218.294 Z" fill="#000000" fill-rule="nonzero" fill-opacity="1" /><path clip-path="url(#clip140)" d="M92.0104 205.817 Q88.6771 205.817 86.7558 207.6 Q84.8577 209.382 84.8577 212.507 Q84.8577 215.632 86.7558 217.415 Q88.6771 219.197 92.0104 219.197 Q95.3437 219.197 97.265 217.415 Q99.1863 215.609 99.1863 212.507 Q99.1863 209.382 97.265 207.6 Q95.3669 205.817 92.0104 205.817 M87.3345 203.827 Q84.3253 203.086 82.6355 201.026 Q80.9688 198.966 80.9688 196.003 Q80.9688 191.859 83.9086 189.452 Q86.8716 187.044 92.0104 187.044 Q97.1724 187.044 100.112 189.452 Q103.052 191.859 103.052 196.003 Q103.052 198.966 101.362 201.026 Q99.6956 203.086 96.7095 203.827 Q100.089 204.614 101.964 206.905 Q103.862 209.197 103.862 212.507 Q103.862 217.53 100.784 220.215 Q97.728 222.901 92.0104 222.901 Q86.2929 222.901 83.2142 220.215 Q80.1586 217.53 80.1586 212.507 Q80.1586 209.197 82.0568 206.905 Q83.9549 204.614 87.3345 203.827 M85.6216 196.442 Q85.6216 199.128 87.2882 200.632 Q88.978 202.137 92.0104 202.137 Q95.0197 202.137 96.7095 200.632 Q98.4224 199.128 98.4224 196.442 Q98.4224 193.757 96.7095 192.253 Q95.0197 190.748 92.0104 190.748 Q88.978 190.748 87.2882 192.253 Q85.6216 193.757 85.6216 196.442 Z" fill="#000000" fill-rule="nonzero" fill-opacity="1" /><path clip-path="url(#clip140)" d="M112.219 187.669 L130.575 187.669 L130.575 191.605 L116.501 191.605 L116.501 200.077 Q117.52 199.729 118.538 199.567 Q119.557 199.382 120.575 199.382 Q126.362 199.382 129.742 202.554 Q133.121 205.725 133.121 211.141 Q133.121 216.72 129.649 219.822 Q126.177 222.901 119.857 222.901 Q117.682 222.901 115.413 222.53 Q113.168 222.16 110.76 221.419 L110.76 216.72 Q112.844 217.854 115.066 218.41 Q117.288 218.965 119.765 218.965 Q123.77 218.965 126.107 216.859 Q128.445 214.753 128.445 211.141 Q128.445 207.53 126.107 205.424 Q123.77 203.317 119.765 203.317 Q117.89 203.317 116.015 203.734 Q114.163 204.151 112.219 205.03 L112.219 187.669 Z" fill="#000000" fill-rule="nonzero" fill-opacity="1" /><polyline clip-path="url(#clip142)" style="stroke:#009af9; stroke-linecap:round; stroke-linejoin:round; stroke-width:4; stroke-opacity:1; fill:none" points="230.922,133.913 307.22,96.501 536.112,261.778 612.41,434.396 688.707,586.414 765.005,634.008 841.302,901.104 1070.19,738.669 1146.49,1012.87 1222.79,805.442 1299.09,794.55 1375.38,761.779 1604.28,907.734 1680.57,1072.54 1756.87,987.769 1833.17,1010.97 1909.47,1137.18 2138.36,1041.99 2214.66,1106.64 2290.95,1203.48 "/>
<polyline clip-path="url(#clip142)" style="stroke:#e26f46; stroke-linecap:round; stroke-linejoin:round; stroke-width:4; stroke-opacity:1; fill:none" points="230.922,104.552 307.22,87.9763 536.112,200.687 612.41,405.745 688.707,532.663 765.005,603.226 841.302,796.918 1070.19,678.524 1146.49,670.711 1222.79,643.006 1299.09,596.596 1375.38,588.545 1604.28,894.001 1680.57,979.008 1756.87,937.57 1833.17,1004.34 1909.47,998.187 2138.36,988.242 2214.66,1083.9 2290.95,1003.73 "/>
<polyline clip-path="url(#clip142)" style="stroke:#3da44d; stroke-linecap:round; stroke-linejoin:round; stroke-width:4; stroke-opacity:1; fill:none" points="230.922,223.892 307.22,388.223 536.112,400.062 612.41,594.701 688.707,745.299 765.005,927.057 841.302,991.557 1070.19,1027.08 1146.49,1031.81 1222.79,871.27 1299.09,796.539 1375.38,808.757 1604.28,1125.34 1680.57,1235.45 1756.87,1129.37 1833.17,1196.14 1909.47,1175.3 2138.36,1113.74 2214.66,1445.72 2290.95,1244.45 "/>
<polyline clip-path="url(#clip142)" style="stroke:#c271d2; stroke-linecap:round; stroke-linejoin:round; stroke-width:4; stroke-opacity:1; fill:none" points="230.922,127.283 307.22,366.912 536.112,385.381 612.41,566.287 688.707,692.732 765.005,905.366 841.302,810.178 1070.19,978.771 1146.49,791.709 1222.79,678.998 1299.09,715.936 1375.38,643.006 1604.28,1019.02 1680.57,1105.69 1756.87,962.669 1833.17,1164.89 1909.47,1028.02 2138.36,1077.75 2214.66,1262.44 2290.95,1091.48 "/>
<path clip-path="url(#clip140)" d="M1937.65 354.418 L2279.97 354.418 L2279.97 95.2176 L1937.65 95.2176  Z" fill="#ffffff" fill-rule="evenodd" fill-opacity="1"/>
<polyline clip-path="url(#clip140)" style="stroke:#000000; stroke-linecap:round; stroke-linejoin:round; stroke-width:4; stroke-opacity:1; fill:none" points="1937.65,354.418 2279.97,354.418 2279.97,95.2176 1937.65,95.2176 1937.65,354.418 "/>
<polyline clip-path="url(#clip140)" style="stroke:#009af9; stroke-linecap:round; stroke-linejoin:round; stroke-width:4; stroke-opacity:1; fill:none" points="1961.91,147.058 2107.49,147.058 "/>
<path clip-path="url(#clip140)" d="M2147.77 132.949 Q2142.67 132.949 2139.66 136.745 Q2136.68 140.541 2136.68 147.092 Q2136.68 153.62 2139.66 157.416 Q2142.67 161.213 2147.77 161.213 Q2152.86 161.213 2155.82 157.416 Q2158.81 153.62 2158.81 147.092 Q2158.81 140.541 2155.82 136.745 Q2152.86 132.949 2147.77 132.949 M2147.77 129.153 Q2155.03 129.153 2159.39 134.037 Q2163.74 138.898 2163.74 147.092 Q2163.74 155.264 2159.39 160.148 Q2155.03 165.009 2147.77 165.009 Q2140.47 165.009 2136.1 160.148 Q2131.75 155.287 2131.75 147.092 Q2131.75 138.898 2136.1 134.037 Q2140.47 129.153 2147.77 129.153 Z" fill="#000000" fill-rule="nonzero" fill-opacity="1" /><path clip-path="url(#clip140)" d="M2174.99 160.449 L2174.99 174.199 L2170.71 174.199 L2170.71 138.412 L2174.99 138.412 L2174.99 142.347 Q2176.33 140.032 2178.37 138.921 Q2180.43 137.787 2183.28 137.787 Q2188 137.787 2190.94 141.537 Q2193.9 145.287 2193.9 151.398 Q2193.9 157.509 2190.94 161.259 Q2188 165.009 2183.28 165.009 Q2180.43 165.009 2178.37 163.898 Q2176.33 162.763 2174.99 160.449 M2189.48 151.398 Q2189.48 146.699 2187.53 144.037 Q2185.61 141.352 2182.23 141.352 Q2178.85 141.352 2176.91 144.037 Q2174.99 146.699 2174.99 151.398 Q2174.99 156.097 2176.91 158.782 Q2178.85 161.444 2182.23 161.444 Q2185.61 161.444 2187.53 158.782 Q2189.48 156.097 2189.48 151.398 Z" fill="#000000" fill-rule="nonzero" fill-opacity="1" /><path clip-path="url(#clip140)" d="M2223.14 150.31 L2223.14 152.393 L2203.55 152.393 Q2203.83 156.791 2206.19 159.106 Q2208.58 161.398 2212.81 161.398 Q2215.27 161.398 2217.56 160.796 Q2219.87 160.194 2222.14 158.99 L2222.14 163.018 Q2219.85 163.99 2217.44 164.5 Q2215.03 165.009 2212.56 165.009 Q2206.35 165.009 2202.72 161.398 Q2199.11 157.787 2199.11 151.629 Q2199.11 145.264 2202.53 141.537 Q2205.98 137.787 2211.82 137.787 Q2217.05 137.787 2220.08 141.166 Q2223.14 144.523 2223.14 150.31 M2218.88 149.06 Q2218.83 145.565 2216.91 143.481 Q2215.01 141.398 2211.86 141.398 Q2208.3 141.398 2206.15 143.412 Q2204.02 145.426 2203.69 149.083 L2218.88 149.06 Z" fill="#000000" fill-rule="nonzero" fill-opacity="1" /><path clip-path="url(#clip140)" d="M2251.68 148.689 L2251.68 164.338 L2247.42 164.338 L2247.42 148.828 Q2247.42 145.148 2245.98 143.319 Q2244.55 141.49 2241.68 141.49 Q2238.23 141.49 2236.24 143.69 Q2234.25 145.889 2234.25 149.685 L2234.25 164.338 L2229.96 164.338 L2229.96 138.412 L2234.25 138.412 L2234.25 142.44 Q2235.78 140.102 2237.84 138.944 Q2239.92 137.787 2242.63 137.787 Q2247.09 137.787 2249.39 140.565 Q2251.68 143.319 2251.68 148.689 Z" fill="#000000" fill-rule="nonzero" fill-opacity="1" /><polyline clip-path="url(#clip140)" style="stroke:#e26f46; stroke-linecap:round; stroke-linejoin:round; stroke-width:4; stroke-opacity:1; fill:none" points="1961.91,198.898 2107.49,198.898 "/>
<path clip-path="url(#clip140)" d="M2131.75 181.618 L2136.42 181.618 L2136.42 195.784 L2153.41 195.784 L2153.41 181.618 L2158.09 181.618 L2158.09 216.178 L2153.41 216.178 L2153.41 199.719 L2136.42 199.719 L2136.42 216.178 L2131.75 216.178 L2131.75 181.618 Z" fill="#000000" fill-rule="nonzero" fill-opacity="1" /><path clip-path="url(#clip140)" d="M2167.21 190.252 L2171.47 190.252 L2171.47 216.178 L2167.21 216.178 L2167.21 190.252 M2167.21 180.159 L2171.47 180.159 L2171.47 185.553 L2167.21 185.553 L2167.21 180.159 Z" fill="#000000" fill-rule="nonzero" fill-opacity="1" /><path clip-path="url(#clip140)" d="M2197.44 202.914 Q2197.44 198.284 2195.52 195.738 Q2193.62 193.192 2190.17 193.192 Q2186.75 193.192 2184.83 195.738 Q2182.93 198.284 2182.93 202.914 Q2182.93 207.52 2184.83 210.066 Q2186.75 212.613 2190.17 212.613 Q2193.62 212.613 2195.52 210.066 Q2197.44 207.52 2197.44 202.914 M2201.7 212.96 Q2201.7 219.58 2198.76 222.798 Q2195.82 226.039 2189.76 226.039 Q2187.51 226.039 2185.52 225.691 Q2183.53 225.367 2181.65 224.673 L2181.65 220.529 Q2183.53 221.548 2185.36 222.034 Q2187.19 222.52 2189.09 222.52 Q2193.28 222.52 2195.36 220.321 Q2197.44 218.145 2197.44 213.724 L2197.44 211.617 Q2196.12 213.909 2194.06 215.043 Q2192 216.178 2189.13 216.178 Q2184.36 216.178 2181.45 212.543 Q2178.53 208.909 2178.53 202.914 Q2178.53 196.895 2181.45 193.261 Q2184.36 189.627 2189.13 189.627 Q2192 189.627 2194.06 190.761 Q2196.12 191.895 2197.44 194.187 L2197.44 190.252 L2201.7 190.252 L2201.7 212.96 Z" fill="#000000" fill-rule="nonzero" fill-opacity="1" /><path clip-path="url(#clip140)" d="M2232.03 200.529 L2232.03 216.178 L2227.77 216.178 L2227.77 200.668 Q2227.77 196.988 2226.33 195.159 Q2224.9 193.33 2222.03 193.33 Q2218.58 193.33 2216.59 195.53 Q2214.59 197.729 2214.59 201.525 L2214.59 216.178 L2210.31 216.178 L2210.31 180.159 L2214.59 180.159 L2214.59 194.28 Q2216.12 191.942 2218.18 190.784 Q2220.27 189.627 2222.97 189.627 Q2227.44 189.627 2229.73 192.405 Q2232.03 195.159 2232.03 200.529 Z" fill="#000000" fill-rule="nonzero" fill-opacity="1" /><polyline clip-path="url(#clip140)" style="stroke:#3da44d; stroke-linecap:round; stroke-linejoin:round; stroke-width:4; stroke-opacity:1; fill:none" points="1961.91,250.738 2107.49,250.738 "/>
<path clip-path="url(#clip140)" d="M2131.75 233.458 L2136.42 233.458 L2136.42 264.082 L2153.25 264.082 L2153.25 268.018 L2131.75 268.018 L2131.75 233.458 Z" fill="#000000" fill-rule="nonzero" fill-opacity="1" /><path clip-path="url(#clip140)" d="M2167.19 245.078 Q2163.76 245.078 2161.77 247.763 Q2159.78 250.425 2159.78 255.078 Q2159.78 259.731 2161.75 262.416 Q2163.74 265.078 2167.19 265.078 Q2170.59 265.078 2172.58 262.393 Q2174.57 259.707 2174.57 255.078 Q2174.57 250.471 2172.58 247.786 Q2170.59 245.078 2167.19 245.078 M2167.19 241.467 Q2172.74 241.467 2175.91 245.078 Q2179.09 248.689 2179.09 255.078 Q2179.09 261.444 2175.91 265.078 Q2172.74 268.689 2167.19 268.689 Q2161.61 268.689 2158.44 265.078 Q2155.29 261.444 2155.29 255.078 Q2155.29 248.689 2158.44 245.078 Q2161.61 241.467 2167.19 241.467 Z" fill="#000000" fill-rule="nonzero" fill-opacity="1" /><path clip-path="url(#clip140)" d="M2183.67 242.092 L2187.93 242.092 L2193.25 262.323 L2198.55 242.092 L2203.58 242.092 L2208.9 262.323 L2214.2 242.092 L2218.46 242.092 L2211.68 268.018 L2206.65 268.018 L2201.08 246.768 L2195.47 268.018 L2190.45 268.018 L2183.67 242.092 Z" fill="#000000" fill-rule="nonzero" fill-opacity="1" /><polyline clip-path="url(#clip140)" style="stroke:#c271d2; stroke-linecap:round; stroke-linejoin:round; stroke-width:4; stroke-opacity:1; fill:none" points="1961.91,302.578 2107.49,302.578 "/>
<path clip-path="url(#clip140)" d="M2159.62 287.96 L2159.62 292.89 Q2157.26 290.691 2154.57 289.603 Q2151.91 288.515 2148.9 288.515 Q2142.97 288.515 2139.83 292.149 Q2136.68 295.76 2136.68 302.612 Q2136.68 309.441 2139.83 313.075 Q2142.97 316.686 2148.9 316.686 Q2151.91 316.686 2154.57 315.598 Q2157.26 314.51 2159.62 312.311 L2159.62 317.196 Q2157.16 318.862 2154.41 319.696 Q2151.68 320.529 2148.62 320.529 Q2140.78 320.529 2136.26 315.737 Q2131.75 310.922 2131.75 302.612 Q2131.75 294.279 2136.26 289.487 Q2140.78 284.673 2148.62 284.673 Q2151.72 284.673 2154.46 285.506 Q2157.21 286.316 2159.62 287.96 Z" fill="#000000" fill-rule="nonzero" fill-opacity="1" /><path clip-path="url(#clip140)" d="M2166.66 283.839 L2170.91 283.839 L2170.91 319.858 L2166.66 319.858 L2166.66 283.839 Z" fill="#000000" fill-rule="nonzero" fill-opacity="1" /><path clip-path="url(#clip140)" d="M2189.87 296.918 Q2186.45 296.918 2184.46 299.603 Q2182.47 302.265 2182.47 306.918 Q2182.47 311.571 2184.43 314.256 Q2186.42 316.918 2189.87 316.918 Q2193.28 316.918 2195.27 314.233 Q2197.26 311.547 2197.26 306.918 Q2197.26 302.311 2195.27 299.626 Q2193.28 296.918 2189.87 296.918 M2189.87 293.307 Q2195.43 293.307 2198.6 296.918 Q2201.77 300.529 2201.77 306.918 Q2201.77 313.284 2198.6 316.918 Q2195.43 320.529 2189.87 320.529 Q2184.29 320.529 2181.12 316.918 Q2177.97 313.284 2177.97 306.918 Q2177.97 300.529 2181.12 296.918 Q2184.29 293.307 2189.87 293.307 Z" fill="#000000" fill-rule="nonzero" fill-opacity="1" /><path clip-path="url(#clip140)" d="M2225.36 294.696 L2225.36 298.723 Q2223.55 297.797 2221.61 297.335 Q2219.66 296.872 2217.58 296.872 Q2214.41 296.872 2212.81 297.844 Q2211.24 298.816 2211.24 300.76 Q2211.24 302.242 2212.37 303.098 Q2213.51 303.932 2216.93 304.696 L2218.39 305.02 Q2222.93 305.992 2224.83 307.774 Q2226.75 309.534 2226.75 312.705 Q2226.75 316.316 2223.88 318.422 Q2221.03 320.529 2216.03 320.529 Q2213.95 320.529 2211.68 320.112 Q2209.43 319.719 2206.93 318.908 L2206.93 314.51 Q2209.29 315.737 2211.59 316.362 Q2213.88 316.964 2216.12 316.964 Q2219.13 316.964 2220.75 315.946 Q2222.37 314.904 2222.37 313.029 Q2222.37 311.293 2221.19 310.367 Q2220.03 309.441 2216.08 308.584 L2214.59 308.237 Q2210.64 307.404 2208.88 305.691 Q2207.12 303.955 2207.12 300.946 Q2207.12 297.288 2209.71 295.298 Q2212.3 293.307 2217.07 293.307 Q2219.43 293.307 2221.52 293.654 Q2223.6 294.001 2225.36 294.696 Z" fill="#000000" fill-rule="nonzero" fill-opacity="1" /><path clip-path="url(#clip140)" d="M2255.71 305.83 L2255.71 307.913 L2236.12 307.913 Q2236.4 312.311 2238.76 314.626 Q2241.15 316.918 2245.38 316.918 Q2247.84 316.918 2250.13 316.316 Q2252.44 315.714 2254.71 314.51 L2254.71 318.538 Q2252.42 319.51 2250.01 320.02 Q2247.6 320.529 2245.13 320.529 Q2238.92 320.529 2235.29 316.918 Q2231.68 313.307 2231.68 307.149 Q2231.68 300.784 2235.1 297.057 Q2238.55 293.307 2244.39 293.307 Q2249.62 293.307 2252.65 296.686 Q2255.71 300.043 2255.71 305.83 M2251.45 304.58 Q2251.4 301.085 2249.48 299.001 Q2247.58 296.918 2244.43 296.918 Q2240.87 296.918 2238.71 298.932 Q2236.59 300.946 2236.26 304.603 L2251.45 304.58 Z" fill="#000000" fill-rule="nonzero" fill-opacity="1" /></svg>
