<?xml version="1.0" encoding="utf-8"?>
<svg xmlns="http://www.w3.org/2000/svg" xmlns:xlink="http://www.w3.org/1999/xlink" width="600" height="400" viewBox="0 0 2400 1600">
<defs>
  <clipPath id="clip880">
    <rect x="0" y="0" width="2400" height="1600"/>
  </clipPath>
</defs>
<path clip-path="url(#clip880)" d="M0 1600 L2400 1600 L2400 0 L0 0  Z" fill="#ffffff" fill-rule="evenodd" fill-opacity="1"/>
<defs>
  <clipPath id="clip881">
    <rect x="480" y="0" width="1681" height="1600"/>
  </clipPath>
</defs>
<path clip-path="url(#clip880)" d="M169.121 1486.45 L2352.76 1486.45 L2352.76 47.2441 L169.121 47.2441  Z" fill="#ffffff" fill-rule="evenodd" fill-opacity="1"/>
<defs>
  <clipPath id="clip882">
    <rect x="169" y="47" width="2185" height="1440"/>
  </clipPath>
</defs>
<polyline clip-path="url(#clip882)" style="stroke:#000000; stroke-linecap:round; stroke-linejoin:round; stroke-width:2; stroke-opacity:0.1; fill:none" points="230.922,1486.45 230.922,47.2441 "/>
<polyline clip-path="url(#clip882)" style="stroke:#000000; stroke-linecap:round; stroke-linejoin:round; stroke-width:2; stroke-opacity:0.1; fill:none" points="765.005,1486.45 765.005,47.2441 "/>
<polyline clip-path="url(#clip882)" style="stroke:#000000; stroke-linecap:round; stroke-linejoin:round; stroke-width:2; stroke-opacity:0.1; fill:none" points="1299.09,1486.45 1299.09,47.2441 "/>
<polyline clip-path="url(#clip882)" style="stroke:#000000; stroke-linecap:round; stroke-linejoin:round; stroke-width:2; stroke-opacity:0.1; fill:none" points="1833.17,1486.45 1833.17,47.2441 "/>
<polyline clip-path="url(#clip882)" style="stroke:#000000; stroke-linecap:round; stroke-linejoin:round; stroke-width:2; stroke-opacity:0.1; fill:none" points="169.121,1340.69 2352.76,1340.69 "/>
<polyline clip-path="url(#clip882)" style="stroke:#000000; stroke-linecap:round; stroke-linejoin:round; stroke-width:2; stroke-opacity:0.1; fill:none" points="169.121,1116.27 2352.76,1116.27 "/>
<polyline clip-path="url(#clip882)" style="stroke:#000000; stroke-linecap:round; stroke-linejoin:round; stroke-width:2; stroke-opacity:0.1; fill:none" points="169.121,891.848 2352.76,891.848 "/>
<polyline clip-path="url(#clip882)" style="stroke:#000000; stroke-linecap:round; stroke-linejoin:round; stroke-width:2; stroke-opacity:0.1; fill:none" points="169.121,667.428 2352.76,667.428 "/>
<polyline clip-path="url(#clip882)" style="stroke:#000000; stroke-linecap:round; stroke-linejoin:round; stroke-width:2; stroke-opacity:0.1; fill:none" points="169.121,443.008 2352.76,443.008 "/>
<polyline clip-path="url(#clip882)" style="stroke:#000000; stroke-linecap:round; stroke-linejoin:round; stroke-width:2; stroke-opacity:0.1; fill:none" points="169.121,218.589 2352.76,218.589 "/>
<polyline clip-path="url(#clip880)" style="stroke:#000000; stroke-linecap:round; stroke-linejoin:round; stroke-width:4; stroke-opacity:1; fill:none" points="169.121,1486.45 2352.76,1486.45 "/>
<polyline clip-path="url(#clip880)" style="stroke:#000000; stroke-linecap:round; stroke-linejoin:round; stroke-width:4; stroke-opacity:1; fill:none" points="230.922,1486.45 230.922,1467.55 "/>
<polyline clip-path="url(#clip880)" style="stroke:#000000; stroke-linecap:round; stroke-linejoin:round; stroke-width:4; stroke-opacity:1; fill:none" points="765.005,1486.45 765.005,1467.55 "/>
<polyline clip-path="url(#clip880)" style="stroke:#000000; stroke-linecap:round; stroke-linejoin:round; stroke-width:4; stroke-opacity:1; fill:none" points="1299.09,1486.45 1299.09,1467.55 "/>
<polyline clip-path="url(#clip880)" style="stroke:#000000; stroke-linecap:round; stroke-linejoin:round; stroke-width:4; stroke-opacity:1; fill:none" points="1833.17,1486.45 1833.17,1467.55 "/>
<path clip-path="url(#clip880)" d="M102.717 1544.91 L119.036 1544.91 L119.036 1548.85 L97.092 1548.85 L97.092 1544.91 Q99.754 1542.16 104.337 1537.53 Q108.944 1532.88 110.124 1531.53 Q112.37 1529.01 113.249 1527.27 Q114.152 1525.51 114.152 1523.82 Q114.152 1521.07 112.208 1519.33 Q110.286 1517.6 107.185 1517.6 Q104.985 1517.6 102.532 1518.36 Q100.101 1519.13 97.3235 1520.68 L97.3235 1515.95 Q100.148 1514.82 102.601 1514.24 Q105.055 1513.66 107.092 1513.66 Q112.462 1513.66 115.657 1516.35 Q118.851 1519.03 118.851 1523.52 Q118.851 1525.65 118.041 1527.57 Q117.254 1529.47 115.147 1532.07 Q114.569 1532.74 111.467 1535.95 Q108.365 1539.15 102.717 1544.91 Z" fill="#000000" fill-rule="nonzero" fill-opacity="1" /><path clip-path="url(#clip880)" d="M138.851 1517.37 Q135.24 1517.37 133.411 1520.93 Q131.606 1524.47 131.606 1531.6 Q131.606 1538.71 133.411 1542.27 Q135.24 1545.82 138.851 1545.82 Q142.485 1545.82 144.291 1542.27 Q146.12 1538.71 146.12 1531.6 Q146.12 1524.47 144.291 1520.93 Q142.485 1517.37 138.851 1517.37 M138.851 1513.66 Q144.661 1513.66 147.717 1518.27 Q150.795 1522.85 150.795 1531.6 Q150.795 1540.33 147.717 1544.94 Q144.661 1549.52 138.851 1549.52 Q133.041 1549.52 129.962 1544.94 Q126.907 1540.33 126.907 1531.6 Q126.907 1522.85 129.962 1518.27 Q133.041 1513.66 138.851 1513.66 Z" fill="#000000" fill-rule="nonzero" fill-opacity="1" /><path clip-path="url(#clip880)" d="M163.041 1544.91 L179.36 1544.91 L179.36 1548.85 L157.416 1548.85 L157.416 1544.91 Q160.078 1542.16 164.661 1537.53 Q169.268 1532.88 170.448 1531.53 Q172.693 1529.01 173.573 1527.27 Q174.476 1525.51 174.476 1523.82 Q174.476 1521.07 172.531 1519.33 Q170.61 1517.6 167.508 1517.6 Q165.309 1517.6 162.856 1518.36 Q160.425 1519.13 157.647 1520.68 L157.647 1515.95 Q160.471 1514.82 162.925 1514.24 Q165.379 1513.66 167.416 1513.66 Q172.786 1513.66 175.98 1516.35 Q179.175 1519.03 179.175 1523.52 Q179.175 1525.65 178.365 1527.57 Q177.578 1529.47 175.471 1532.07 Q174.893 1532.74 171.791 1535.95 Q168.689 1539.15 163.041 1544.91 Z" fill="#000000" fill-rule="nonzero" fill-opacity="1" /><path clip-path="url(#clip880)" d="M189.221 1514.29 L207.578 1514.29 L207.578 1518.22 L193.504 1518.22 L193.504 1526.7 Q194.522 1526.35 195.541 1526.19 Q196.559 1526 197.578 1526 Q203.365 1526 206.744 1529.17 Q210.124 1532.34 210.124 1537.76 Q210.124 1543.34 206.652 1546.44 Q203.179 1549.52 196.86 1549.52 Q194.684 1549.52 192.416 1549.15 Q190.17 1548.78 187.763 1548.04 L187.763 1543.34 Q189.846 1544.47 192.068 1545.03 Q194.291 1545.58 196.767 1545.58 Q200.772 1545.58 203.11 1543.48 Q205.448 1541.37 205.448 1537.76 Q205.448 1534.15 203.11 1532.04 Q200.772 1529.94 196.767 1529.94 Q194.892 1529.94 193.017 1530.35 Q191.166 1530.77 189.221 1531.65 L189.221 1514.29 Z" fill="#000000" fill-rule="nonzero" fill-opacity="1" /><path clip-path="url(#clip880)" d="M216.582 1533.96 L229.059 1533.96 L229.059 1537.76 L216.582 1537.76 L216.582 1533.96 Z" fill="#000000" fill-rule="nonzero" fill-opacity="1" /><path clip-path="url(#clip880)" d="M246.443 1517.37 Q242.832 1517.37 241.003 1520.93 Q239.198 1524.47 239.198 1531.6 Q239.198 1538.71 241.003 1542.27 Q242.832 1545.82 246.443 1545.82 Q250.077 1545.82 251.883 1542.27 Q253.712 1538.71 253.712 1531.6 Q253.712 1524.47 251.883 1520.93 Q250.077 1517.37 246.443 1517.37 M246.443 1513.66 Q252.253 1513.66 255.309 1518.27 Q258.387 1522.85 258.387 1531.6 Q258.387 1540.33 255.309 1544.94 Q252.253 1549.52 246.443 1549.52 Q240.633 1549.52 237.554 1544.94 Q234.499 1540.33 234.499 1531.6 Q234.499 1522.85 237.554 1518.27 Q240.633 1513.66 246.443 1513.66 Z" fill="#000000" fill-rule="nonzero" fill-opacity="1" /><path clip-path="url(#clip880)" d="M280.772 1530.21 Q284.128 1530.93 286.003 1533.2 Q287.901 1535.47 287.901 1538.8 Q287.901 1543.92 284.383 1546.72 Q280.864 1549.52 274.383 1549.52 Q272.207 1549.52 269.892 1549.08 Q267.6 1548.66 265.147 1547.81 L265.147 1543.29 Q267.091 1544.43 269.406 1545.01 Q271.721 1545.58 274.244 1545.58 Q278.642 1545.58 280.934 1543.85 Q283.248 1542.11 283.248 1538.8 Q283.248 1535.75 281.096 1534.03 Q278.966 1532.3 275.147 1532.3 L271.119 1532.3 L271.119 1528.45 L275.332 1528.45 Q278.781 1528.45 280.61 1527.09 Q282.438 1525.7 282.438 1523.11 Q282.438 1520.45 280.54 1519.03 Q278.665 1517.6 275.147 1517.6 Q273.225 1517.6 271.026 1518.01 Q268.827 1518.43 266.188 1519.31 L266.188 1515.14 Q268.85 1514.4 271.165 1514.03 Q273.503 1513.66 275.563 1513.66 Q280.887 1513.66 283.989 1516.09 Q287.091 1518.5 287.091 1522.62 Q287.091 1525.49 285.447 1527.48 Q283.804 1529.45 280.772 1530.21 Z" fill="#000000" fill-rule="nonzero" fill-opacity="1" /><path clip-path="url(#clip880)" d="M294.012 1533.96 L306.489 1533.96 L306.489 1537.76 L294.012 1537.76 L294.012 1533.96 Z" fill="#000000" fill-rule="nonzero" fill-opacity="1" /><path clip-path="url(#clip880)" d="M317.901 1544.91 L334.22 1544.91 L334.22 1548.85 L312.276 1548.85 L312.276 1544.91 Q314.938 1542.16 319.521 1537.53 Q324.128 1532.88 325.308 1531.53 Q327.554 1529.01 328.433 1527.27 Q329.336 1525.51 329.336 1523.82 Q329.336 1521.07 327.392 1519.33 Q325.47 1517.6 322.369 1517.6 Q320.17 1517.6 317.716 1518.36 Q315.285 1519.13 312.508 1520.68 L312.508 1515.95 Q315.332 1514.82 317.785 1514.24 Q320.239 1513.66 322.276 1513.66 Q327.646 1513.66 330.841 1516.35 Q334.035 1519.03 334.035 1523.52 Q334.035 1525.65 333.225 1527.57 Q332.438 1529.47 330.331 1532.07 Q329.753 1532.74 326.651 1535.95 Q323.549 1539.15 317.901 1544.91 Z" fill="#000000" fill-rule="nonzero" fill-opacity="1" /><path clip-path="url(#clip880)" d="M344.845 1544.91 L352.484 1544.91 L352.484 1518.55 L344.174 1520.21 L344.174 1515.95 L352.438 1514.29 L357.114 1514.29 L357.114 1544.91 L364.753 1544.91 L364.753 1548.85 L344.845 1548.85 L344.845 1544.91 Z" fill="#000000" fill-rule="nonzero" fill-opacity="1" /><path clip-path="url(#clip880)" d="M636.232 1544.91 L652.552 1544.91 L652.552 1548.85 L630.607 1548.85 L630.607 1544.91 Q633.269 1542.16 637.853 1537.53 Q642.459 1532.88 643.64 1531.53 Q645.885 1529.01 646.765 1527.27 Q647.667 1525.51 647.667 1523.82 Q647.667 1521.07 645.723 1519.33 Q643.802 1517.6 640.7 1517.6 Q638.501 1517.6 636.047 1518.36 Q633.617 1519.13 630.839 1520.68 L630.839 1515.95 Q633.663 1514.82 636.117 1514.24 Q638.57 1513.66 640.607 1513.66 Q645.978 1513.66 649.172 1516.35 Q652.367 1519.03 652.367 1523.52 Q652.367 1525.65 651.556 1527.57 Q650.769 1529.47 648.663 1532.07 Q648.084 1532.74 644.982 1535.95 Q641.88 1539.15 636.232 1544.91 Z" fill="#000000" fill-rule="nonzero" fill-opacity="1" /><path clip-path="url(#clip880)" d="M672.366 1517.37 Q668.755 1517.37 666.927 1520.93 Q665.121 1524.47 665.121 1531.6 Q665.121 1538.71 666.927 1542.27 Q668.755 1545.82 672.366 1545.82 Q676.001 1545.82 677.806 1542.27 Q679.635 1538.71 679.635 1531.6 Q679.635 1524.47 677.806 1520.93 Q676.001 1517.37 672.366 1517.37 M672.366 1513.66 Q678.177 1513.66 681.232 1518.27 Q684.311 1522.85 684.311 1531.6 Q684.311 1540.33 681.232 1544.94 Q678.177 1549.52 672.366 1549.52 Q666.556 1549.52 663.478 1544.94 Q660.422 1540.33 660.422 1531.6 Q660.422 1522.85 663.478 1518.27 Q666.556 1513.66 672.366 1513.66 Z" fill="#000000" fill-rule="nonzero" fill-opacity="1" /><path clip-path="url(#clip880)" d="M696.556 1544.91 L712.875 1544.91 L712.875 1548.85 L690.931 1548.85 L690.931 1544.91 Q693.593 1542.16 698.176 1537.53 Q702.783 1532.88 703.963 1531.53 Q706.209 1529.01 707.088 1527.27 Q707.991 1525.51 707.991 1523.82 Q707.991 1521.07 706.047 1519.33 Q704.126 1517.6 701.024 1517.6 Q698.825 1517.6 696.371 1518.36 Q693.94 1519.13 691.163 1520.68 L691.163 1515.95 Q693.987 1514.82 696.44 1514.24 Q698.894 1513.66 700.931 1513.66 Q706.301 1513.66 709.496 1516.35 Q712.69 1519.03 712.69 1523.52 Q712.69 1525.65 711.88 1527.57 Q711.093 1529.47 708.987 1532.07 Q708.408 1532.74 705.306 1535.95 Q702.204 1539.15 696.556 1544.91 Z" fill="#000000" fill-rule="nonzero" fill-opacity="1" /><path clip-path="url(#clip880)" d="M722.737 1514.29 L741.093 1514.29 L741.093 1518.22 L727.019 1518.22 L727.019 1526.7 Q728.037 1526.35 729.056 1526.19 Q730.074 1526 731.093 1526 Q736.88 1526 740.26 1529.17 Q743.639 1532.34 743.639 1537.76 Q743.639 1543.34 740.167 1546.44 Q736.695 1549.52 730.375 1549.52 Q728.199 1549.52 725.931 1549.15 Q723.686 1548.78 721.278 1548.04 L721.278 1543.34 Q723.362 1544.47 725.584 1545.03 Q727.806 1545.58 730.283 1545.58 Q734.287 1545.58 736.625 1543.48 Q738.963 1541.37 738.963 1537.76 Q738.963 1534.15 736.625 1532.04 Q734.287 1529.94 730.283 1529.94 Q728.408 1529.94 726.533 1530.35 Q724.681 1530.77 722.737 1531.65 L722.737 1514.29 Z" fill="#000000" fill-rule="nonzero" fill-opacity="1" /><path clip-path="url(#clip880)" d="M750.098 1533.96 L762.574 1533.96 L762.574 1537.76 L750.098 1537.76 L750.098 1533.96 Z" fill="#000000" fill-rule="nonzero" fill-opacity="1" /><path clip-path="url(#clip880)" d="M779.958 1517.37 Q776.347 1517.37 774.519 1520.93 Q772.713 1524.47 772.713 1531.6 Q772.713 1538.71 774.519 1542.27 Q776.347 1545.82 779.958 1545.82 Q783.593 1545.82 785.398 1542.27 Q787.227 1538.71 787.227 1531.6 Q787.227 1524.47 785.398 1520.93 Q783.593 1517.37 779.958 1517.37 M779.958 1513.66 Q785.769 1513.66 788.824 1518.27 Q791.903 1522.85 791.903 1531.6 Q791.903 1540.33 788.824 1544.94 Q785.769 1549.52 779.958 1549.52 Q774.148 1549.52 771.07 1544.94 Q768.014 1540.33 768.014 1531.6 Q768.014 1522.85 771.07 1518.27 Q774.148 1513.66 779.958 1513.66 Z" fill="#000000" fill-rule="nonzero" fill-opacity="1" /><path clip-path="url(#clip880)" d="M814.287 1530.21 Q817.643 1530.93 819.518 1533.2 Q821.417 1535.47 821.417 1538.8 Q821.417 1543.92 817.898 1546.72 Q814.38 1549.52 807.898 1549.52 Q805.722 1549.52 803.407 1549.08 Q801.116 1548.66 798.662 1547.81 L798.662 1543.29 Q800.606 1544.43 802.921 1545.01 Q805.236 1545.58 807.759 1545.58 Q812.157 1545.58 814.449 1543.85 Q816.764 1542.11 816.764 1538.8 Q816.764 1535.75 814.611 1534.03 Q812.481 1532.3 808.662 1532.3 L804.634 1532.3 L804.634 1528.45 L808.847 1528.45 Q812.296 1528.45 814.125 1527.09 Q815.954 1525.7 815.954 1523.11 Q815.954 1520.45 814.055 1519.03 Q812.181 1517.6 808.662 1517.6 Q806.741 1517.6 804.542 1518.01 Q802.343 1518.43 799.704 1519.31 L799.704 1515.14 Q802.366 1514.4 804.681 1514.03 Q807.018 1513.66 809.079 1513.66 Q814.403 1513.66 817.505 1516.09 Q820.606 1518.5 820.606 1522.62 Q820.606 1525.49 818.963 1527.48 Q817.319 1529.45 814.287 1530.21 Z" fill="#000000" fill-rule="nonzero" fill-opacity="1" /><path clip-path="url(#clip880)" d="M827.528 1533.96 L840.004 1533.96 L840.004 1537.76 L827.528 1537.76 L827.528 1533.96 Z" fill="#000000" fill-rule="nonzero" fill-opacity="1" /><path clip-path="url(#clip880)" d="M851.416 1544.91 L867.736 1544.91 L867.736 1548.85 L845.791 1548.85 L845.791 1544.91 Q848.453 1542.16 853.037 1537.53 Q857.643 1532.88 858.824 1531.53 Q861.069 1529.01 861.949 1527.27 Q862.852 1525.51 862.852 1523.82 Q862.852 1521.07 860.907 1519.33 Q858.986 1517.6 855.884 1517.6 Q853.685 1517.6 851.231 1518.36 Q848.801 1519.13 846.023 1520.68 L846.023 1515.95 Q848.847 1514.82 851.301 1514.24 Q853.754 1513.66 855.791 1513.66 Q861.162 1513.66 864.356 1516.35 Q867.551 1519.03 867.551 1523.52 Q867.551 1525.65 866.74 1527.57 Q865.953 1529.47 863.847 1532.07 Q863.268 1532.74 860.166 1535.95 Q857.065 1539.15 851.416 1544.91 Z" fill="#000000" fill-rule="nonzero" fill-opacity="1" /><path clip-path="url(#clip880)" d="M887.55 1532.44 Q884.217 1532.44 882.296 1534.22 Q880.398 1536 880.398 1539.13 Q880.398 1542.25 882.296 1544.03 Q884.217 1545.82 887.55 1545.82 Q890.884 1545.82 892.805 1544.03 Q894.726 1542.23 894.726 1539.13 Q894.726 1536 892.805 1534.22 Q890.907 1532.44 887.55 1532.44 M882.875 1530.45 Q879.865 1529.7 878.176 1527.64 Q876.509 1525.58 876.509 1522.62 Q876.509 1518.48 879.449 1516.07 Q882.412 1513.66 887.55 1513.66 Q892.712 1513.66 895.652 1516.07 Q898.592 1518.48 898.592 1522.62 Q898.592 1525.58 896.902 1527.64 Q895.236 1529.7 892.25 1530.45 Q895.629 1531.23 897.504 1533.52 Q899.402 1535.82 899.402 1539.13 Q899.402 1544.15 896.324 1546.83 Q893.268 1549.52 887.55 1549.52 Q881.833 1549.52 878.754 1546.83 Q875.699 1544.15 875.699 1539.13 Q875.699 1535.82 877.597 1533.52 Q879.495 1531.23 882.875 1530.45 M881.162 1523.06 Q881.162 1525.75 882.828 1527.25 Q884.518 1528.76 887.55 1528.76 Q890.56 1528.76 892.25 1527.25 Q893.962 1525.75 893.962 1523.06 Q893.962 1520.38 892.25 1518.87 Q890.56 1517.37 887.55 1517.37 Q884.518 1517.37 882.828 1518.87 Q881.162 1520.38 881.162 1523.06 Z" fill="#000000" fill-rule="nonzero" fill-opacity="1" /><path clip-path="url(#clip880)" d="M1170.03 1544.91 L1186.34 1544.91 L1186.34 1548.85 L1164.4 1548.85 L1164.4 1544.91 Q1167.06 1542.16 1171.65 1537.53 Q1176.25 1532.88 1177.43 1531.53 Q1179.68 1529.01 1180.56 1527.27 Q1181.46 1525.51 1181.46 1523.82 Q1181.46 1521.07 1179.52 1519.33 Q1177.59 1517.6 1174.49 1517.6 Q1172.29 1517.6 1169.84 1518.36 Q1167.41 1519.13 1164.63 1520.68 L1164.63 1515.95 Q1167.46 1514.82 1169.91 1514.24 Q1172.36 1513.66 1174.4 1513.66 Q1179.77 1513.66 1182.97 1516.35 Q1186.16 1519.03 1186.16 1523.52 Q1186.16 1525.65 1185.35 1527.57 Q1184.56 1529.47 1182.46 1532.07 Q1181.88 1532.74 1178.78 1535.95 Q1175.67 1539.15 1170.03 1544.91 Z" fill="#000000" fill-rule="nonzero" fill-opacity="1" /><path clip-path="url(#clip880)" d="M1206.16 1517.37 Q1202.55 1517.37 1200.72 1520.93 Q1198.91 1524.47 1198.91 1531.6 Q1198.91 1538.71 1200.72 1542.27 Q1202.55 1545.82 1206.16 1545.82 Q1209.79 1545.82 1211.6 1542.27 Q1213.43 1538.71 1213.43 1531.6 Q1213.43 1524.47 1211.6 1520.93 Q1209.79 1517.37 1206.16 1517.37 M1206.16 1513.66 Q1211.97 1513.66 1215.03 1518.27 Q1218.1 1522.85 1218.1 1531.6 Q1218.1 1540.33 1215.03 1544.94 Q1211.97 1549.52 1206.16 1549.52 Q1200.35 1549.52 1197.27 1544.94 Q1194.22 1540.33 1194.22 1531.6 Q1194.22 1522.85 1197.27 1518.27 Q1200.35 1513.66 1206.16 1513.66 Z" fill="#000000" fill-rule="nonzero" fill-opacity="1" /><path clip-path="url(#clip880)" d="M1230.35 1544.91 L1246.67 1544.91 L1246.67 1548.85 L1224.72 1548.85 L1224.72 1544.91 Q1227.39 1542.16 1231.97 1537.53 Q1236.58 1532.88 1237.76 1531.53 Q1240 1529.01 1240.88 1527.27 Q1241.78 1525.51 1241.78 1523.82 Q1241.78 1521.07 1239.84 1519.33 Q1237.92 1517.6 1234.82 1517.6 Q1232.62 1517.6 1230.16 1518.36 Q1227.73 1519.13 1224.96 1520.68 L1224.96 1515.95 Q1227.78 1514.82 1230.23 1514.24 Q1232.69 1513.66 1234.72 1513.66 Q1240.09 1513.66 1243.29 1516.35 Q1246.48 1519.03 1246.48 1523.52 Q1246.48 1525.65 1245.67 1527.57 Q1244.89 1529.47 1242.78 1532.07 Q1242.2 1532.74 1239.1 1535.95 Q1236 1539.15 1230.35 1544.91 Z" fill="#000000" fill-rule="nonzero" fill-opacity="1" /><path clip-path="url(#clip880)" d="M1256.53 1514.29 L1274.89 1514.29 L1274.89 1518.22 L1260.81 1518.22 L1260.81 1526.7 Q1261.83 1526.35 1262.85 1526.19 Q1263.87 1526 1264.89 1526 Q1270.67 1526 1274.05 1529.17 Q1277.43 1532.34 1277.43 1537.76 Q1277.43 1543.34 1273.96 1546.44 Q1270.49 1549.52 1264.17 1549.52 Q1261.99 1549.52 1259.72 1549.15 Q1257.48 1548.78 1255.07 1548.04 L1255.07 1543.34 Q1257.15 1544.47 1259.38 1545.03 Q1261.6 1545.58 1264.08 1545.58 Q1268.08 1545.58 1270.42 1543.48 Q1272.76 1541.37 1272.76 1537.76 Q1272.76 1534.15 1270.42 1532.04 Q1268.08 1529.94 1264.08 1529.94 Q1262.2 1529.94 1260.33 1530.35 Q1258.47 1530.77 1256.53 1531.65 L1256.53 1514.29 Z" fill="#000000" fill-rule="nonzero" fill-opacity="1" /><path clip-path="url(#clip880)" d="M1283.89 1533.96 L1296.37 1533.96 L1296.37 1537.76 L1283.89 1537.76 L1283.89 1533.96 Z" fill="#000000" fill-rule="nonzero" fill-opacity="1" /><path clip-path="url(#clip880)" d="M1313.75 1517.37 Q1310.14 1517.37 1308.31 1520.93 Q1306.51 1524.47 1306.51 1531.6 Q1306.51 1538.71 1308.31 1542.27 Q1310.14 1545.82 1313.75 1545.82 Q1317.39 1545.82 1319.19 1542.27 Q1321.02 1538.71 1321.02 1531.6 Q1321.02 1524.47 1319.19 1520.93 Q1317.39 1517.37 1313.75 1517.37 M1313.75 1513.66 Q1319.56 1513.66 1322.62 1518.27 Q1325.7 1522.85 1325.7 1531.6 Q1325.7 1540.33 1322.62 1544.94 Q1319.56 1549.52 1313.75 1549.52 Q1307.94 1549.52 1304.86 1544.94 Q1301.81 1540.33 1301.81 1531.6 Q1301.81 1522.85 1304.86 1518.27 Q1307.94 1513.66 1313.75 1513.66 Z" fill="#000000" fill-rule="nonzero" fill-opacity="1" /><path clip-path="url(#clip880)" d="M1346.76 1518.36 L1334.96 1536.81 L1346.76 1536.81 L1346.76 1518.36 M1345.53 1514.29 L1351.41 1514.29 L1351.41 1536.81 L1356.34 1536.81 L1356.34 1540.7 L1351.41 1540.7 L1351.41 1548.85 L1346.76 1548.85 L1346.76 1540.7 L1331.16 1540.7 L1331.16 1536.19 L1345.53 1514.29 Z" fill="#000000" fill-rule="nonzero" fill-opacity="1" /><path clip-path="url(#clip880)" d="M1361.32 1533.96 L1373.8 1533.96 L1373.8 1537.76 L1361.32 1537.76 L1361.32 1533.96 Z" fill="#000000" fill-rule="nonzero" fill-opacity="1" /><path clip-path="url(#clip880)" d="M1391.18 1517.37 Q1387.57 1517.37 1385.74 1520.93 Q1383.94 1524.47 1383.94 1531.6 Q1383.94 1538.71 1385.74 1542.27 Q1387.57 1545.82 1391.18 1545.82 Q1394.82 1545.82 1396.62 1542.27 Q1398.45 1538.71 1398.45 1531.6 Q1398.45 1524.47 1396.62 1520.93 Q1394.82 1517.37 1391.18 1517.37 M1391.18 1513.66 Q1396.99 1513.66 1400.05 1518.27 Q1403.13 1522.85 1403.13 1531.6 Q1403.13 1540.33 1400.05 1544.94 Q1396.99 1549.52 1391.18 1549.52 Q1385.37 1549.52 1382.29 1544.94 Q1379.24 1540.33 1379.24 1531.6 Q1379.24 1522.85 1382.29 1518.27 Q1385.37 1513.66 1391.18 1513.66 Z" fill="#000000" fill-rule="nonzero" fill-opacity="1" /><path clip-path="url(#clip880)" d="M1424.19 1518.36 L1412.39 1536.81 L1424.19 1536.81 L1424.19 1518.36 M1422.96 1514.29 L1428.84 1514.29 L1428.84 1536.81 L1433.77 1536.81 L1433.77 1540.7 L1428.84 1540.7 L1428.84 1548.85 L1424.19 1548.85 L1424.19 1540.7 L1408.59 1540.7 L1408.59 1536.19 L1422.96 1514.29 Z" fill="#000000" fill-rule="nonzero" fill-opacity="1" /><path clip-path="url(#clip880)" d="M1704.96 1544.91 L1721.28 1544.91 L1721.28 1548.85 L1699.34 1548.85 L1699.34 1544.91 Q1702 1542.16 1706.58 1537.53 Q1711.19 1532.88 1712.37 1531.53 Q1714.62 1529.01 1715.5 1527.27 Q1716.4 1525.51 1716.4 1523.82 Q1716.4 1521.07 1714.46 1519.33 Q1712.53 1517.6 1709.43 1517.6 Q1707.23 1517.6 1704.78 1518.36 Q1702.35 1519.13 1699.57 1520.68 L1699.57 1515.95 Q1702.4 1514.82 1704.85 1514.24 Q1707.3 1513.66 1709.34 1513.66 Q1714.71 1513.66 1717.9 1516.35 Q1721.1 1519.03 1721.1 1523.52 Q1721.1 1525.65 1720.29 1527.57 Q1719.5 1529.47 1717.4 1532.07 Q1716.82 1532.74 1713.71 1535.95 Q1710.61 1539.15 1704.96 1544.91 Z" fill="#000000" fill-rule="nonzero" fill-opacity="1" /><path clip-path="url(#clip880)" d="M1741.1 1517.37 Q1737.49 1517.37 1735.66 1520.93 Q1733.85 1524.47 1733.85 1531.6 Q1733.85 1538.71 1735.66 1542.27 Q1737.49 1545.82 1741.1 1545.82 Q1744.73 1545.82 1746.54 1542.27 Q1748.37 1538.71 1748.37 1531.6 Q1748.37 1524.47 1746.54 1520.93 Q1744.73 1517.37 1741.1 1517.37 M1741.1 1513.66 Q1746.91 1513.66 1749.96 1518.27 Q1753.04 1522.85 1753.04 1531.6 Q1753.04 1540.33 1749.96 1544.94 Q1746.91 1549.52 1741.1 1549.52 Q1735.29 1549.52 1732.21 1544.94 Q1729.15 1540.33 1729.15 1531.6 Q1729.15 1522.85 1732.21 1518.27 Q1735.29 1513.66 1741.1 1513.66 Z" fill="#000000" fill-rule="nonzero" fill-opacity="1" /><path clip-path="url(#clip880)" d="M1765.29 1544.91 L1781.61 1544.91 L1781.61 1548.85 L1759.66 1548.85 L1759.66 1544.91 Q1762.33 1542.16 1766.91 1537.53 Q1771.52 1532.88 1772.7 1531.53 Q1774.94 1529.01 1775.82 1527.27 Q1776.72 1525.51 1776.72 1523.82 Q1776.72 1521.07 1774.78 1519.33 Q1772.86 1517.6 1769.76 1517.6 Q1767.56 1517.6 1765.1 1518.36 Q1762.67 1519.13 1759.89 1520.68 L1759.89 1515.95 Q1762.72 1514.82 1765.17 1514.24 Q1767.63 1513.66 1769.66 1513.66 Q1775.03 1513.66 1778.23 1516.35 Q1781.42 1519.03 1781.42 1523.52 Q1781.42 1525.65 1780.61 1527.57 Q1779.83 1529.47 1777.72 1532.07 Q1777.14 1532.74 1774.04 1535.95 Q1770.94 1539.15 1765.29 1544.91 Z" fill="#000000" fill-rule="nonzero" fill-opacity="1" /><path clip-path="url(#clip880)" d="M1791.47 1514.29 L1809.83 1514.29 L1809.83 1518.22 L1795.75 1518.22 L1795.75 1526.7 Q1796.77 1526.35 1797.79 1526.19 Q1798.81 1526 1799.83 1526 Q1805.61 1526 1808.99 1529.17 Q1812.37 1532.34 1812.37 1537.76 Q1812.37 1543.34 1808.9 1546.44 Q1805.43 1549.52 1799.11 1549.52 Q1796.93 1549.52 1794.66 1549.15 Q1792.42 1548.78 1790.01 1548.04 L1790.01 1543.34 Q1792.09 1544.47 1794.32 1545.03 Q1796.54 1545.58 1799.01 1545.58 Q1803.02 1545.58 1805.36 1543.48 Q1807.7 1541.37 1807.7 1537.76 Q1807.7 1534.15 1805.36 1532.04 Q1803.02 1529.94 1799.01 1529.94 Q1797.14 1529.94 1795.27 1530.35 Q1793.41 1530.77 1791.47 1531.65 L1791.47 1514.29 Z" fill="#000000" fill-rule="nonzero" fill-opacity="1" /><path clip-path="url(#clip880)" d="M1818.83 1533.96 L1831.31 1533.96 L1831.31 1537.76 L1818.83 1537.76 L1818.83 1533.96 Z" fill="#000000" fill-rule="nonzero" fill-opacity="1" /><path clip-path="url(#clip880)" d="M1848.69 1517.37 Q1845.08 1517.37 1843.25 1520.93 Q1841.45 1524.47 1841.45 1531.6 Q1841.45 1538.71 1843.25 1542.27 Q1845.08 1545.82 1848.69 1545.82 Q1852.32 1545.82 1854.13 1542.27 Q1855.96 1538.71 1855.96 1531.6 Q1855.96 1524.47 1854.13 1520.93 Q1852.32 1517.37 1848.69 1517.37 M1848.69 1513.66 Q1854.5 1513.66 1857.56 1518.27 Q1860.64 1522.85 1860.64 1531.6 Q1860.64 1540.33 1857.56 1544.94 Q1854.5 1549.52 1848.69 1549.52 Q1842.88 1549.52 1839.8 1544.94 Q1836.75 1540.33 1836.75 1531.6 Q1836.75 1522.85 1839.8 1518.27 Q1842.88 1513.66 1848.69 1513.66 Z" fill="#000000" fill-rule="nonzero" fill-opacity="1" /><path clip-path="url(#clip880)" d="M1881.7 1518.36 L1869.89 1536.81 L1881.7 1536.81 L1881.7 1518.36 M1880.47 1514.29 L1886.35 1514.29 L1886.35 1536.81 L1891.28 1536.81 L1891.28 1540.7 L1886.35 1540.7 L1886.35 1548.85 L1881.7 1548.85 L1881.7 1540.7 L1866.1 1540.7 L1866.1 1536.19 L1880.47 1514.29 Z" fill="#000000" fill-rule="nonzero" fill-opacity="1" /><path clip-path="url(#clip880)" d="M1896.26 1533.96 L1908.74 1533.96 L1908.74 1537.76 L1896.26 1537.76 L1896.26 1533.96 Z" fill="#000000" fill-rule="nonzero" fill-opacity="1" /><path clip-path="url(#clip880)" d="M1916.93 1544.91 L1924.57 1544.91 L1924.57 1518.55 L1916.26 1520.21 L1916.26 1515.95 L1924.52 1514.29 L1929.2 1514.29 L1929.2 1544.91 L1936.84 1544.91 L1936.84 1548.85 L1916.93 1548.85 L1916.93 1544.91 Z" fill="#000000" fill-rule="nonzero" fill-opacity="1" /><path clip-path="url(#clip880)" d="M1947.09 1544.91 L1954.73 1544.91 L1954.73 1518.55 L1946.42 1520.21 L1946.42 1515.95 L1954.69 1514.29 L1959.36 1514.29 L1959.36 1544.91 L1967 1544.91 L1967 1548.85 L1947.09 1548.85 L1947.09 1544.91 Z" fill="#000000" fill-rule="nonzero" fill-opacity="1" /><polyline clip-path="url(#clip880)" style="stroke:#000000; stroke-linecap:round; stroke-linejoin:round; stroke-width:4; stroke-opacity:1; fill:none" points="169.121,1486.45 169.121,47.2441 "/>
<polyline clip-path="url(#clip880)" style="stroke:#000000; stroke-linecap:round; stroke-linejoin:round; stroke-width:4; stroke-opacity:1; fill:none" points="169.121,1340.69 188.019,1340.69 "/>
<polyline clip-path="url(#clip880)" style="stroke:#000000; stroke-linecap:round; stroke-linejoin:round; stroke-width:4; stroke-opacity:1; fill:none" points="169.121,1116.27 188.019,1116.27 "/>
<polyline clip-path="url(#clip880)" style="stroke:#000000; stroke-linecap:round; stroke-linejoin:round; stroke-width:4; stroke-opacity:1; fill:none" points="169.121,891.848 188.019,891.848 "/>
<polyline clip-path="url(#clip880)" style="stroke:#000000; stroke-linecap:round; stroke-linejoin:round; stroke-width:4; stroke-opacity:1; fill:none" points="169.121,667.428 188.019,667.428 "/>
<polyline clip-path="url(#clip880)" style="stroke:#000000; stroke-linecap:round; stroke-linejoin:round; stroke-width:4; stroke-opacity:1; fill:none" points="169.121,443.008 188.019,443.008 "/>
<polyline clip-path="url(#clip880)" style="stroke:#000000; stroke-linecap:round; stroke-linejoin:round; stroke-width:4; stroke-opacity:1; fill:none" points="169.121,218.589 188.019,218.589 "/>
<path clip-path="url(#clip880)" d="M52.6588 1354.03 L60.2976 1354.03 L60.2976 1327.67 L51.9875 1329.33 L51.9875 1325.07 L60.2513 1323.41 L64.9272 1323.41 L64.9272 1354.03 L72.5661 1354.03 L72.5661 1357.97 L52.6588 1357.97 L52.6588 1354.03 Z" fill="#000000" fill-rule="nonzero" fill-opacity="1" /><path clip-path="url(#clip880)" d="M94.8576 1327.48 L83.0521 1345.93 L94.8576 1345.93 L94.8576 1327.48 M93.6308 1323.41 L99.5104 1323.41 L99.5104 1345.93 L104.441 1345.93 L104.441 1349.82 L99.5104 1349.82 L99.5104 1357.97 L94.8576 1357.97 L94.8576 1349.82 L79.2559 1349.82 L79.2559 1345.31 L93.6308 1323.41 Z" fill="#000000" fill-rule="nonzero" fill-opacity="1" /><path clip-path="url(#clip880)" d="M112.219 1323.41 L130.575 1323.41 L130.575 1327.34 L116.501 1327.34 L116.501 1335.81 Q117.52 1335.47 118.538 1335.31 Q119.557 1335.12 120.575 1335.12 Q126.362 1335.12 129.742 1338.29 Q133.121 1341.46 133.121 1346.88 Q133.121 1352.46 129.649 1355.56 Q126.177 1358.64 119.857 1358.64 Q117.682 1358.64 115.413 1358.27 Q113.168 1357.9 110.76 1357.16 L110.76 1352.46 Q112.844 1353.59 115.066 1354.15 Q117.288 1354.7 119.765 1354.7 Q123.77 1354.7 126.107 1352.6 Q128.445 1350.49 128.445 1346.88 Q128.445 1343.27 126.107 1341.16 Q123.77 1339.06 119.765 1339.06 Q117.89 1339.06 116.015 1339.47 Q114.163 1339.89 112.219 1340.77 L112.219 1323.41 Z" fill="#000000" fill-rule="nonzero" fill-opacity="1" /><path clip-path="url(#clip880)" d="M51.6634 1129.61 L59.3023 1129.61 L59.3023 1103.25 L50.9921 1104.91 L50.9921 1100.65 L59.256 1098.99 L63.9319 1098.99 L63.9319 1129.61 L71.5707 1129.61 L71.5707 1133.55 L51.6634 1133.55 L51.6634 1129.61 Z" fill="#000000" fill-rule="nonzero" fill-opacity="1" /><path clip-path="url(#clip880)" d="M81.0614 1098.99 L99.4178 1098.99 L99.4178 1102.92 L85.3438 1102.92 L85.3438 1111.4 Q86.3623 1111.05 87.3808 1110.89 Q88.3993 1110.7 89.4178 1110.7 Q95.2049 1110.7 98.5845 1113.87 Q101.964 1117.04 101.964 1122.46 Q101.964 1128.04 98.4919 1131.14 Q95.0197 1134.22 88.7003 1134.22 Q86.5243 1134.22 84.2558 1133.85 Q82.0105 1133.48 79.6031 1132.74 L79.6031 1128.04 Q81.6864 1129.17 83.9086 1129.73 Q86.1308 1130.28 88.6077 1130.28 Q92.6123 1130.28 94.9502 1128.18 Q97.2882 1126.07 97.2882 1122.46 Q97.2882 1118.85 94.9502 1116.74 Q92.6123 1114.64 88.6077 1114.64 Q86.7327 1114.64 84.8577 1115.05 Q83.0058 1115.47 81.0614 1116.35 L81.0614 1098.99 Z" fill="#000000" fill-rule="nonzero" fill-opacity="1" /><path clip-path="url(#clip880)" d="M121.177 1102.07 Q117.566 1102.07 115.737 1105.63 Q113.932 1109.17 113.932 1116.3 Q113.932 1123.41 115.737 1126.97 Q117.566 1130.52 121.177 1130.52 Q124.811 1130.52 126.617 1126.97 Q128.445 1123.41 128.445 1116.3 Q128.445 1109.17 126.617 1105.63 Q124.811 1102.07 121.177 1102.07 M121.177 1098.36 Q126.987 1098.36 130.043 1102.97 Q133.121 1107.55 133.121 1116.3 Q133.121 1125.03 130.043 1129.64 Q126.987 1134.22 121.177 1134.22 Q115.367 1134.22 112.288 1129.64 Q109.233 1125.03 109.233 1116.3 Q109.233 1107.55 112.288 1102.97 Q115.367 1098.36 121.177 1098.36 Z" fill="#000000" fill-rule="nonzero" fill-opacity="1" /><path clip-path="url(#clip880)" d="M52.6588 905.193 L60.2976 905.193 L60.2976 878.827 L51.9875 880.494 L51.9875 876.235 L60.2513 874.568 L64.9272 874.568 L64.9272 905.193 L72.5661 905.193 L72.5661 909.128 L52.6588 909.128 L52.6588 905.193 Z" fill="#000000" fill-rule="nonzero" fill-opacity="1" /><path clip-path="url(#clip880)" d="M82.0568 874.568 L100.413 874.568 L100.413 878.503 L86.3392 878.503 L86.3392 886.975 Q87.3577 886.628 88.3762 886.466 Q89.3947 886.281 90.4132 886.281 Q96.2002 886.281 99.5798 889.452 Q102.959 892.623 102.959 898.04 Q102.959 903.619 99.4872 906.721 Q96.015 909.799 89.6956 909.799 Q87.5197 909.799 85.2512 909.429 Q83.0058 909.058 80.5984 908.318 L80.5984 903.619 Q82.6818 904.753 84.904 905.309 Q87.1262 905.864 89.603 905.864 Q93.6076 905.864 95.9456 903.758 Q98.2835 901.651 98.2835 898.04 Q98.2835 894.429 95.9456 892.322 Q93.6076 890.216 89.603 890.216 Q87.728 890.216 85.8531 890.633 Q84.0012 891.049 82.0568 891.929 L82.0568 874.568 Z" fill="#000000" fill-rule="nonzero" fill-opacity="1" /><path clip-path="url(#clip880)" d="M112.219 874.568 L130.575 874.568 L130.575 878.503 L116.501 878.503 L116.501 886.975 Q117.52 886.628 118.538 886.466 Q119.557 886.281 120.575 886.281 Q126.362 886.281 129.742 889.452 Q133.121 892.623 133.121 898.04 Q133.121 903.619 129.649 906.721 Q126.177 909.799 119.857 909.799 Q117.682 909.799 115.413 909.429 Q113.168 909.058 110.76 908.318 L110.76 903.619 Q112.844 904.753 115.066 905.309 Q117.288 905.864 119.765 905.864 Q123.77 905.864 126.107 903.758 Q128.445 901.651 128.445 898.04 Q128.445 894.429 126.107 892.322 Q123.77 890.216 119.765 890.216 Q117.89 890.216 116.015 890.633 Q114.163 891.049 112.219 891.929 L112.219 874.568 Z" fill="#000000" fill-rule="nonzero" fill-opacity="1" /><path clip-path="url(#clip880)" d="M51.6634 680.773 L59.3023 680.773 L59.3023 654.407 L50.9921 656.074 L50.9921 651.815 L59.256 650.148 L63.9319 650.148 L63.9319 680.773 L71.5707 680.773 L71.5707 684.708 L51.6634 684.708 L51.6634 680.773 Z" fill="#000000" fill-rule="nonzero" fill-opacity="1" /><path clip-path="url(#clip880)" d="M91.5938 665.565 Q88.4456 665.565 86.5938 667.718 Q84.7651 669.87 84.7651 673.62 Q84.7651 677.347 86.5938 679.523 Q88.4456 681.676 91.5938 681.676 Q94.7419 681.676 96.5706 679.523 Q98.4224 677.347 98.4224 673.62 Q98.4224 669.87 96.5706 667.718 Q94.7419 665.565 91.5938 665.565 M100.876 650.912 L100.876 655.171 Q99.1169 654.338 97.3113 653.898 Q95.5289 653.458 93.7697 653.458 Q89.1401 653.458 86.6864 656.583 Q84.2558 659.708 83.9086 666.028 Q85.2743 664.014 87.3345 662.949 Q89.3947 661.861 91.8715 661.861 Q97.0798 661.861 100.089 665.032 Q103.121 668.181 103.121 673.62 Q103.121 678.944 99.9733 682.162 Q96.8252 685.379 91.5938 685.379 Q85.5984 685.379 82.4271 680.796 Q79.2559 676.19 79.2559 667.463 Q79.2559 659.269 83.1447 654.407 Q87.0336 649.523 93.5845 649.523 Q95.3437 649.523 97.1261 649.87 Q98.9317 650.218 100.876 650.912 Z" fill="#000000" fill-rule="nonzero" fill-opacity="1" /><path clip-path="url(#clip880)" d="M121.177 653.227 Q117.566 653.227 115.737 656.792 Q113.932 660.333 113.932 667.463 Q113.932 674.569 115.737 678.134 Q117.566 681.676 121.177 681.676 Q124.811 681.676 126.617 678.134 Q128.445 674.569 128.445 667.463 Q128.445 660.333 126.617 656.792 Q124.811 653.227 121.177 653.227 M121.177 649.523 Q126.987 649.523 130.043 654.13 Q133.121 658.713 133.121 667.463 Q133.121 676.19 130.043 680.796 Q126.987 685.379 121.177 685.379 Q115.367 685.379 112.288 680.796 Q109.233 676.19 109.233 667.463 Q109.233 658.713 112.288 654.13 Q115.367 649.523 121.177 649.523 Z" fill="#000000" fill-rule="nonzero" fill-opacity="1" /><path clip-path="url(#clip880)" d="M52.6588 456.353 L60.2976 456.353 L60.2976 429.988 L51.9875 431.654 L51.9875 427.395 L60.2513 425.728 L64.9272 425.728 L64.9272 456.353 L72.5661 456.353 L72.5661 460.288 L52.6588 460.288 L52.6588 456.353 Z" fill="#000000" fill-rule="nonzero" fill-opacity="1" /><path clip-path="url(#clip880)" d="M92.5891 441.145 Q89.441 441.145 87.5892 443.298 Q85.7605 445.451 85.7605 449.201 Q85.7605 452.927 87.5892 455.103 Q89.441 457.256 92.5891 457.256 Q95.7373 457.256 97.566 455.103 Q99.4178 452.927 99.4178 449.201 Q99.4178 445.451 97.566 443.298 Q95.7373 441.145 92.5891 441.145 M101.871 426.492 L101.871 430.752 Q100.112 429.918 98.3067 429.478 Q96.5243 429.039 94.765 429.039 Q90.1354 429.039 87.6817 432.164 Q85.2512 435.289 84.904 441.608 Q86.2697 439.594 88.3299 438.529 Q90.3901 437.441 92.8669 437.441 Q98.0752 437.441 101.084 440.613 Q104.117 443.761 104.117 449.201 Q104.117 454.525 100.969 457.742 Q97.8206 460.96 92.5891 460.96 Q86.5938 460.96 83.4225 456.376 Q80.2512 451.77 80.2512 443.043 Q80.2512 434.849 84.1401 429.988 Q88.029 425.103 94.5799 425.103 Q96.3391 425.103 98.1215 425.451 Q99.927 425.798 101.871 426.492 Z" fill="#000000" fill-rule="nonzero" fill-opacity="1" /><path clip-path="url(#clip880)" d="M112.219 425.728 L130.575 425.728 L130.575 429.664 L116.501 429.664 L116.501 438.136 Q117.52 437.789 118.538 437.627 Q119.557 437.441 120.575 437.441 Q126.362 437.441 129.742 440.613 Q133.121 443.784 133.121 449.201 Q133.121 454.779 129.649 457.881 Q126.177 460.96 119.857 460.96 Q117.682 460.96 115.413 460.589 Q113.168 460.219 110.76 459.478 L110.76 454.779 Q112.844 455.913 115.066 456.469 Q117.288 457.025 119.765 457.025 Q123.77 457.025 126.107 454.918 Q128.445 452.812 128.445 449.201 Q128.445 445.589 126.107 443.483 Q123.77 441.377 119.765 441.377 Q117.89 441.377 116.015 441.793 Q114.163 442.21 112.219 443.089 L112.219 425.728 Z" fill="#000000" fill-rule="nonzero" fill-opacity="1" /><path clip-path="url(#clip880)" d="M51.6634 231.934 L59.3023 231.934 L59.3023 205.568 L50.9921 207.235 L50.9921 202.975 L59.256 201.309 L63.9319 201.309 L63.9319 231.934 L71.5707 231.934 L71.5707 235.869 L51.6634 235.869 L51.6634 231.934 Z" fill="#000000" fill-rule="nonzero" fill-opacity="1" /><path clip-path="url(#clip880)" d="M79.8346 201.309 L102.057 201.309 L102.057 203.299 L89.5104 235.869 L84.6262 235.869 L96.4317 205.244 L79.8346 205.244 L79.8346 201.309 Z" fill="#000000" fill-rule="nonzero" fill-opacity="1" /><path clip-path="url(#clip880)" d="M121.177 204.387 Q117.566 204.387 115.737 207.952 Q113.932 211.494 113.932 218.623 Q113.932 225.73 115.737 229.295 Q117.566 232.836 121.177 232.836 Q124.811 232.836 126.617 229.295 Q128.445 225.73 128.445 218.623 Q128.445 211.494 126.617 207.952 Q124.811 204.387 121.177 204.387 M121.177 200.684 Q126.987 200.684 130.043 205.29 Q133.121 209.873 133.121 218.623 Q133.121 227.35 130.043 231.957 Q126.987 236.54 121.177 236.54 Q115.367 236.54 112.288 231.957 Q109.233 227.35 109.233 218.623 Q109.233 209.873 112.288 205.29 Q115.367 200.684 121.177 200.684 Z" fill="#000000" fill-rule="nonzero" fill-opacity="1" /><polyline clip-path="url(#clip882)" style="stroke:#009af9; stroke-linecap:round; stroke-linejoin:round; stroke-width:4; stroke-opacity:1; fill:none" points="230.922,515.72 459.815,251.578 536.112,165.626 612.41,160.239 688.707,366.257 765.005,561.502 993.897,900.376 1070.19,878.383 1146.49,803.875 1222.79,989.021 1299.09,1120.76 1527.98,1412.95 1604.28,955.808 1680.57,1280.99 1756.87,723.085 1833.17,865.591 2062.06,563.746 2138.36,596.96 2214.66,870.752 2290.95,819.585 "/>
<polyline clip-path="url(#clip882)" style="stroke:#e26f46; stroke-linecap:round; stroke-linejoin:round; stroke-width:4; stroke-opacity:1; fill:none" points="230.922,377.029 459.815,196.147 536.112,87.9763 612.41,131.514 688.707,333.492 765.005,496.42 993.897,796.245 1070.19,663.837 1146.49,655.085 1222.79,905.897 1299.09,977.576 1527.98,894.99 1604.28,916.983 1680.57,583.495 1756.87,666.082 1833.17,673.712 2062.06,486.546 2138.36,575.416 2214.66,749.117 2290.95,798.938 "/>
<polyline clip-path="url(#clip882)" style="stroke:#3da44d; stroke-linecap:round; stroke-linejoin:round; stroke-width:4; stroke-opacity:1; fill:none" points="230.922,531.43 459.815,333.492 536.112,193.902 612.41,359.48 688.707,494.625 765.005,876.632 993.897,1017.07 1070.19,880.402 1146.49,823.176 1222.79,1018.42 1299.09,1226.68 1527.98,1445.72 1604.28,1331.26 1680.57,1304.33 1756.87,1017.52 1833.17,865.591 2062.06,671.019 2138.36,773.13 2214.66,940.771 2290.95,1075.87 "/>
<polyline clip-path="url(#clip882)" style="stroke:#c271d2; stroke-linecap:round; stroke-linejoin:round; stroke-width:4; stroke-opacity:1; fill:none" points="230.922,386.904 459.815,221.731 536.112,93.3628 612.41,346.957 688.707,484.302 765.005,844.271 993.897,836.641 1070.19,717.698 1146.49,718.596 1222.79,998.223 1299.09,1217.71 1527.98,1150.38 1604.28,1269.77 1680.57,619.851 1756.87,875.241 1833.17,694.359 2062.06,601.449 2138.36,726.675 2214.66,869.406 2290.95,965.458 "/>
<path clip-path="url(#clip880)" d="M1937.65 354.418 L2279.97 354.418 L2279.97 95.2176 L1937.65 95.2176  Z" fill="#ffffff" fill-rule="evenodd" fill-opacity="1"/>
<polyline clip-path="url(#clip880)" style="stroke:#000000; stroke-linecap:round; stroke-linejoin:round; stroke-width:4; stroke-opacity:1; fill:none" points="1937.65,354.418 2279.97,354.418 2279.97,95.2176 1937.65,95.2176 1937.65,354.418 "/>
<polyline clip-path="url(#clip880)" style="stroke:#009af9; stroke-linecap:round; stroke-linejoin:round; stroke-width:4; stroke-opacity:1; fill:none" points="1961.91,147.058 2107.49,147.058 "/>
<path clip-path="url(#clip880)" d="M2147.77 132.949 Q2142.67 132.949 2139.66 136.745 Q2136.68 140.541 2136.68 147.092 Q2136.68 153.62 2139.66 157.416 Q2142.67 161.213 2147.77 161.213 Q2152.86 161.213 2155.82 157.416 Q2158.81 153.62 2158.81 147.092 Q2158.81 140.541 2155.82 136.745 Q2152.86 132.949 2147.77 132.949 M2147.77 129.153 Q2155.03 129.153 2159.39 134.037 Q2163.74 138.898 2163.74 147.092 Q2163.74 155.264 2159.39 160.148 Q2155.03 165.009 2147.77 165.009 Q2140.47 165.009 2136.1 160.148 Q2131.75 155.287 2131.75 147.092 Q2131.75 138.898 2136.1 134.037 Q2140.47 129.153 2147.77 129.153 Z" fill="#000000" fill-rule="nonzero" fill-opacity="1" /><path clip-path="url(#clip880)" d="M2174.99 160.449 L2174.99 174.199 L2170.71 174.199 L2170.71 138.412 L2174.99 138.412 L2174.99 142.347 Q2176.33 140.032 2178.37 138.921 Q2180.43 137.787 2183.28 137.787 Q2188 137.787 2190.94 141.537 Q2193.9 145.287 2193.9 151.398 Q2193.9 157.509 2190.94 161.259 Q2188 165.009 2183.28 165.009 Q2180.43 165.009 2178.37 163.898 Q2176.33 162.763 2174.99 160.449 M2189.48 151.398 Q2189.48 146.699 2187.53 144.037 Q2185.61 141.352 2182.23 141.352 Q2178.85 141.352 2176.91 144.037 Q2174.99 146.699 2174.99 151.398 Q2174.99 156.097 2176.91 158.782 Q2178.85 161.444 2182.23 161.444 Q2185.61 161.444 2187.53 158.782 Q2189.48 156.097 2189.48 151.398 Z" fill="#000000" fill-rule="nonzero" fill-opacity="1" /><path clip-path="url(#clip880)" d="M2223.14 150.31 L2223.14 152.393 L2203.55 152.393 Q2203.83 156.791 2206.19 159.106 Q2208.58 161.398 2212.81 161.398 Q2215.27 161.398 2217.56 160.796 Q2219.87 160.194 2222.14 158.99 L2222.14 163.018 Q2219.85 163.99 2217.44 164.5 Q2215.03 165.009 2212.56 165.009 Q2206.35 165.009 2202.72 161.398 Q2199.11 157.787 2199.11 151.629 Q2199.11 145.264 2202.53 141.537 Q2205.98 137.787 2211.82 137.787 Q2217.05 137.787 2220.08 141.166 Q2223.14 144.523 2223.14 150.31 M2218.88 149.06 Q2218.83 145.565 2216.91 143.481 Q2215.01 141.398 2211.86 141.398 Q2208.3 141.398 2206.15 143.412 Q2204.02 145.426 2203.69 149.083 L2218.88 149.06 Z" fill="#000000" fill-rule="nonzero" fill-opacity="1" /><path clip-path="url(#clip880)" d="M2251.68 148.689 L2251.68 164.338 L2247.42 164.338 L2247.42 148.828 Q2247.42 145.148 2245.98 143.319 Q2244.55 141.49 2241.68 141.49 Q2238.23 141.49 2236.24 143.69 Q2234.25 145.889 2234.25 149.685 L2234.25 164.338 L2229.96 164.338 L2229.96 138.412 L2234.25 138.412 L2234.25 142.44 Q2235.78 140.102 2237.84 138.944 Q2239.92 137.787 2242.63 137.787 Q2247.09 137.787 2249.39 140.565 Q2251.68 143.319 2251.68 148.689 Z" fill="#000000" fill-rule="nonzero" fill-opacity="1" /><polyline clip-path="url(#clip880)" style="stroke:#e26f46; stroke-linecap:round; stroke-linejoin:round; stroke-width:4; stroke-opacity:1; fill:none" points="1961.91,198.898 2107.49,198.898 "/>
<path clip-path="url(#clip880)" d="M2131.75 181.618 L2136.42 181.618 L2136.42 195.784 L2153.41 195.784 L2153.41 181.618 L2158.09 181.618 L2158.09 216.178 L2153.41 216.178 L2153.41 199.719 L2136.42 199.719 L2136.42 216.178 L2131.75 216.178 L2131.75 181.618 Z" fill="#000000" fill-rule="nonzero" fill-opacity="1" /><path clip-path="url(#clip880)" d="M2167.21 190.252 L2171.47 190.252 L2171.47 216.178 L2167.21 216.178 L2167.21 190.252 M2167.21 180.159 L2171.47 180.159 L2171.47 185.553 L2167.21 185.553 L2167.21 180.159 Z" fill="#000000" fill-rule="nonzero" fill-opacity="1" /><path clip-path="url(#clip880)" d="M2197.44 202.914 Q2197.44 198.284 2195.52 195.738 Q2193.62 193.192 2190.17 193.192 Q2186.75 193.192 2184.83 195.738 Q2182.93 198.284 2182.93 202.914 Q2182.93 207.52 2184.83 210.066 Q2186.75 212.613 2190.17 212.613 Q2193.62 212.613 2195.52 210.066 Q2197.44 207.52 2197.44 202.914 M2201.7 212.96 Q2201.7 219.58 2198.76 222.798 Q2195.82 226.039 2189.76 226.039 Q2187.51 226.039 2185.52 225.691 Q2183.53 225.367 2181.65 224.673 L2181.65 220.529 Q2183.53 221.548 2185.36 222.034 Q2187.19 222.52 2189.09 222.52 Q2193.28 222.52 2195.36 220.321 Q2197.44 218.145 2197.44 213.724 L2197.44 211.617 Q2196.12 213.909 2194.06 215.043 Q2192 216.178 2189.13 216.178 Q2184.36 216.178 2181.45 212.543 Q2178.53 208.909 2178.53 202.914 Q2178.53 196.895 2181.45 193.261 Q2184.36 189.627 2189.13 189.627 Q2192 189.627 2194.06 190.761 Q2196.12 191.895 2197.44 194.187 L2197.44 190.252 L2201.7 190.252 L2201.7 212.96 Z" fill="#000000" fill-rule="nonzero" fill-opacity="1" /><path clip-path="url(#clip880)" d="M2232.03 200.529 L2232.03 216.178 L2227.77 216.178 L2227.77 200.668 Q2227.77 196.988 2226.33 195.159 Q2224.9 193.33 2222.03 193.33 Q2218.58 193.33 2216.59 195.53 Q2214.59 197.729 2214.59 201.525 L2214.59 216.178 L2210.31 216.178 L2210.31 180.159 L2214.59 180.159 L2214.59 194.28 Q2216.12 191.942 2218.18 190.784 Q2220.27 189.627 2222.97 189.627 Q2227.44 189.627 2229.73 192.405 Q2232.03 195.159 2232.03 200.529 Z" fill="#000000" fill-rule="nonzero" fill-opacity="1" /><polyline clip-path="url(#clip880)" style="stroke:#3da44d; stroke-linecap:round; stroke-linejoin:round; stroke-width:4; stroke-opacity:1; fill:none" points="1961.91,250.738 2107.49,250.738 "/>
<path clip-path="url(#clip880)" d="M2131.75 233.458 L2136.42 233.458 L2136.42 264.082 L2153.25 264.082 L2153.25 268.018 L2131.75 268.018 L2131.75 233.458 Z" fill="#000000" fill-rule="nonzero" fill-opacity="1" /><path clip-path="url(#clip880)" d="M2167.19 245.078 Q2163.76 245.078 2161.77 247.763 Q2159.78 250.425 2159.78 255.078 Q2159.78 259.731 2161.75 262.416 Q2163.74 265.078 2167.19 265.078 Q2170.59 265.078 2172.58 262.393 Q2174.57 259.707 2174.57 255.078 Q2174.57 250.471 2172.58 247.786 Q2170.59 245.078 2167.19 245.078 M2167.19 241.467 Q2172.74 241.467 2175.91 245.078 Q2179.09 248.689 2179.09 255.078 Q2179.09 261.444 2175.91 265.078 Q2172.74 268.689 2167.19 268.689 Q2161.61 268.689 2158.44 265.078 Q2155.29 261.444 2155.29 255.078 Q2155.29 248.689 2158.44 245.078 Q2161.61 241.467 2167.19 241.467 Z" fill="#000000" fill-rule="nonzero" fill-opacity="1" /><path clip-path="url(#clip880)" d="M2183.67 242.092 L2187.93 242.092 L2193.25 262.323 L2198.55 242.092 L2203.58 242.092 L2208.9 262.323 L2214.2 242.092 L2218.46 242.092 L2211.68 268.018 L2206.65 268.018 L2201.08 246.768 L2195.47 268.018 L2190.45 268.018 L2183.67 242.092 Z" fill="#000000" fill-rule="nonzero" fill-opacity="1" /><polyline clip-path="url(#clip880)" style="stroke:#c271d2; stroke-linecap:round; stroke-linejoin:round; stroke-width:4; stroke-opacity:1; fill:none" points="1961.91,302.578 2107.49,302.578 "/>
<path clip-path="url(#clip880)" d="M2159.62 287.96 L2159.62 292.89 Q2157.26 290.691 2154.57 289.603 Q2151.91 288.515 2148.9 288.515 Q2142.97 288.515 2139.83 292.149 Q2136.68 295.76 2136.68 302.612 Q2136.68 309.441 2139.83 313.075 Q2142.97 316.686 2148.9 316.686 Q2151.91 316.686 2154.57 315.598 Q2157.26 314.51 2159.62 312.311 L2159.62 317.196 Q2157.16 318.862 2154.41 319.696 Q2151.68 320.529 2148.62 320.529 Q2140.78 320.529 2136.26 315.737 Q2131.75 310.922 2131.75 302.612 Q2131.75 294.279 2136.26 289.487 Q2140.78 284.673 2148.62 284.673 Q2151.72 284.673 2154.46 285.506 Q2157.21 286.316 2159.62 287.96 Z" fill="#000000" fill-rule="nonzero" fill-opacity="1" /><path clip-path="url(#clip880)" d="M2166.66 283.839 L2170.91 283.839 L2170.91 319.858 L2166.66 319.858 L2166.66 283.839 Z" fill="#000000" fill-rule="nonzero" fill-opacity="1" /><path clip-path="url(#clip880)" d="M2189.87 296.918 Q2186.45 296.918 2184.46 299.603 Q2182.47 302.265 2182.47 306.918 Q2182.47 311.571 2184.43 314.256 Q2186.42 316.918 2189.87 316.918 Q2193.28 316.918 2195.27 314.233 Q2197.26 311.547 2197.26 306.918 Q2197.26 302.311 2195.27 299.626 Q2193.28 296.918 2189.87 296.918 M2189.87 293.307 Q2195.43 293.307 2198.6 296.918 Q2201.77 300.529 2201.77 306.918 Q2201.77 313.284 2198.6 316.918 Q2195.43 320.529 2189.87 320.529 Q2184.29 320.529 2181.12 316.918 Q2177.97 313.284 2177.97 306.918 Q2177.97 300.529 2181.12 296.918 Q2184.29 293.307 2189.87 293.307 Z" fill="#000000" fill-rule="nonzero" fill-opacity="1" /><path clip-path="url(#clip880)" d="M2225.36 294.696 L2225.36 298.723 Q2223.55 297.797 2221.61 297.335 Q2219.66 296.872 2217.58 296.872 Q2214.41 296.872 2212.81 297.844 Q2211.24 298.816 2211.24 300.76 Q2211.24 302.242 2212.37 303.098 Q2213.51 303.932 2216.93 304.696 L2218.39 305.02 Q2222.93 305.992 2224.83 307.774 Q2226.75 309.534 2226.75 312.705 Q2226.75 316.316 2223.88 318.422 Q2221.03 320.529 2216.03 320.529 Q2213.95 320.529 2211.68 320.112 Q2209.43 319.719 2206.93 318.908 L2206.93 314.51 Q2209.29 315.737 2211.59 316.362 Q2213.88 316.964 2216.12 316.964 Q2219.13 316.964 2220.75 315.946 Q2222.37 314.904 2222.37 313.029 Q2222.37 311.293 2221.19 310.367 Q2220.03 309.441 2216.08 308.584 L2214.59 308.237 Q2210.64 307.404 2208.88 305.691 Q2207.12 303.955 2207.12 300.946 Q2207.12 297.288 2209.71 295.298 Q2212.3 293.307 2217.07 293.307 Q2219.43 293.307 2221.52 293.654 Q2223.6 294.001 2225.36 294.696 Z" fill="#000000" fill-rule="nonzero" fill-opacity="1" /><path clip-path="url(#clip880)" d="M2255.71 305.83 L2255.71 307.913 L2236.12 307.913 Q2236.4 312.311 2238.76 314.626 Q2241.15 316.918 2245.38 316.918 Q2247.84 316.918 2250.13 316.316 Q2252.44 315.714 2254.71 314.51 L2254.71 318.538 Q2252.42 319.51 2250.01 320.02 Q2247.6 320.529 2245.13 320.529 Q2238.92 320.529 2235.29 316.918 Q2231.68 313.307 2231.68 307.149 Q2231.68 300.784 2235.1 297.057 Q2238.55 293.307 2244.39 293.307 Q2249.62 293.307 2252.65 296.686 Q2255.71 300.043 2255.71 305.83 M2251.45 304.58 Q2251.4 301.085 2249.48 299.001 Q2247.58 296.918 2244.43 296.918 Q2240.87 296.918 2238.71 298.932 Q2236.59 300.946 2236.26 304.603 L2251.45 304.58 Z" fill="#000000" fill-rule="nonzero" fill-opacity="1" /></svg>
