<?xml version="1.0" encoding="utf-8"?>
<svg xmlns="http://www.w3.org/2000/svg" xmlns:xlink="http://www.w3.org/1999/xlink" width="150" height="100" viewBox="0 0 600 400">
<defs>
  <clipPath id="clip980">
    <rect x="0" y="0" width="600" height="400"/>
  </clipPath>
</defs>
<path clip-path="url(#clip980)" d="
M0 400 L600 400 L600 0 L0 0  Z
  " fill="#ffffff" fill-rule="evenodd" fill-opacity="1"/>
<defs>
  <clipPath id="clip981">
    <rect x="120" y="0" width="421" height="400"/>
  </clipPath>
</defs>
<path clip-path="url(#clip980)" d="
M47.1298 371.612 L588.189 371.612 L588.189 11.811 L47.1298 11.811  Z
  " fill="#ffffff" fill-rule="evenodd" fill-opacity="1"/>
<defs>
  <clipPath id="clip982">
    <rect x="47" y="11" width="542" height="361"/>
  </clipPath>
</defs>
<polyline clip-path="url(#clip982)" style="stroke:#000000; stroke-width:0.5; stroke-opacity:0.1; fill:none" points="
  62.4428,371.612 62.4428,11.811 
  "/>
<polyline clip-path="url(#clip982)" style="stroke:#000000; stroke-width:0.5; stroke-opacity:0.1; fill:none" points="
  194.168,371.612 194.168,11.811 
  "/>
<polyline clip-path="url(#clip982)" style="stroke:#000000; stroke-width:0.5; stroke-opacity:0.1; fill:none" points="
  325.892,371.612 325.892,11.811 
  "/>
<polyline clip-path="url(#clip982)" style="stroke:#000000; stroke-width:0.5; stroke-opacity:0.1; fill:none" points="
  457.617,371.612 457.617,11.811 
  "/>
<polyline clip-path="url(#clip980)" style="stroke:#000000; stroke-width:1; stroke-opacity:1; fill:none" points="
  47.1298,371.612 588.189,371.612 
  "/>
<polyline clip-path="url(#clip980)" style="stroke:#000000; stroke-width:1; stroke-opacity:1; fill:none" points="
  62.4428,371.612 62.4428,367.294 
  "/>
<polyline clip-path="url(#clip980)" style="stroke:#000000; stroke-width:1; stroke-opacity:1; fill:none" points="
  194.168,371.612 194.168,367.294 
  "/>
<polyline clip-path="url(#clip980)" style="stroke:#000000; stroke-width:1; stroke-opacity:1; fill:none" points="
  325.892,371.612 325.892,367.294 
  "/>
<polyline clip-path="url(#clip980)" style="stroke:#000000; stroke-width:1; stroke-opacity:1; fill:none" points="
  457.617,371.612 457.617,367.294 
  "/>
<path clip-path="url(#clip980)" d="M 0 0 M34.6768 385.796 L38.7566 385.796 L38.7566 386.78 L33.2705 386.78 L33.2705 385.796 Q33.936 385.108 35.0819 383.95 Q36.2335 382.787 36.5286 382.451 Q37.09 381.821 37.3099 381.386 Q37.5356 380.947 37.5356 380.524 Q37.5356 379.836 37.0495 379.402 Q36.5691 378.968 35.7937 378.968 Q35.2439 378.968 34.6305 379.158 Q34.0228 379.349 33.3284 379.737 L33.3284 378.557 Q34.0344 378.273 34.6478 378.128 Q35.2613 377.984 35.7705 377.984 Q37.1131 377.984 37.9117 378.655 Q38.7103 379.326 38.7103 380.449 Q38.7103 380.981 38.5078 381.462 Q38.311 381.936 37.7844 382.584 Q37.6397 382.752 36.8643 383.557 Q36.0888 384.355 34.6768 385.796 Z" fill="#000000" fill-rule="evenodd" fill-opacity="1" /><path clip-path="url(#clip980)" d="M 0 0 M42.524 378.91 Q41.6212 378.91 41.164 379.801 Q40.7126 380.686 40.7126 382.469 Q40.7126 384.245 41.164 385.136 Q41.6212 386.022 42.524 386.022 Q43.4325 386.022 43.8839 385.136 Q44.3411 384.245 44.3411 382.469 Q44.3411 380.686 43.8839 379.801 Q43.4325 378.91 42.524 378.91 M42.524 377.984 Q43.9765 377.984 44.7404 379.135 Q45.5101 380.281 45.5101 382.469 Q45.5101 384.65 44.7404 385.802 Q43.9765 386.948 42.524 386.948 Q41.0714 386.948 40.3017 385.802 Q39.5379 384.65 39.5379 382.469 Q39.5379 380.281 40.3017 379.135 Q41.0714 377.984 42.524 377.984 Z" fill="#000000" fill-rule="evenodd" fill-opacity="1" /><path clip-path="url(#clip980)" d="M 0 0 M47.7843 385.796 L51.8642 385.796 L51.8642 386.78 L46.3781 386.78 L46.3781 385.796 Q47.0436 385.108 48.1894 383.95 Q49.3411 382.787 49.6362 382.451 Q50.1975 381.821 50.4174 381.386 Q50.6431 380.947 50.6431 380.524 Q50.6431 379.836 50.157 379.402 Q49.6767 378.968 48.9012 378.968 Q48.3515 378.968 47.7381 379.158 Q47.1304 379.349 46.436 379.737 L46.436 378.557 Q47.142 378.273 47.7554 378.128 Q48.3688 377.984 48.8781 377.984 Q50.2207 377.984 51.0193 378.655 Q51.8179 379.326 51.8179 380.449 Q51.8179 380.981 51.6153 381.462 Q51.4186 381.936 50.892 382.584 Q50.7473 382.752 49.9718 383.557 Q49.1964 384.355 47.7843 385.796 Z" fill="#000000" fill-rule="evenodd" fill-opacity="1" /><path clip-path="url(#clip980)" d="M 0 0 M55.6315 378.91 Q54.7288 378.91 54.2716 379.801 Q53.8202 380.686 53.8202 382.469 Q53.8202 384.245 54.2716 385.136 Q54.7288 386.022 55.6315 386.022 Q56.5401 386.022 56.9915 385.136 Q57.4486 384.245 57.4486 382.469 Q57.4486 380.686 56.9915 379.801 Q56.5401 378.91 55.6315 378.91 M55.6315 377.984 Q57.0841 377.984 57.848 379.135 Q58.6176 380.281 58.6176 382.469 Q58.6176 384.65 57.848 385.802 Q57.0841 386.948 55.6315 386.948 Q54.179 386.948 53.4093 385.802 Q52.6454 384.65 52.6454 382.469 Q52.6454 380.281 53.4093 379.135 Q54.179 377.984 55.6315 377.984 Z" fill="#000000" fill-rule="evenodd" fill-opacity="1" /><path clip-path="url(#clip980)" d="M 0 0 M59.1963 383.059 L62.3155 383.059 L62.3155 384.008 L59.1963 384.008 L59.1963 383.059 Z" fill="#000000" fill-rule="evenodd" fill-opacity="1" /><path clip-path="url(#clip980)" d="M 0 0 M63.7854 385.796 L65.6951 385.796 L65.6951 379.205 L63.6176 379.621 L63.6176 378.557 L65.6836 378.14 L66.8525 378.14 L66.8525 385.796 L68.7622 385.796 L68.7622 386.78 L63.7854 386.78 L63.7854 385.796 Z" fill="#000000" fill-rule="evenodd" fill-opacity="1" /><path clip-path="url(#clip980)" d="M 0 0 M71.0365 385.796 L75.1164 385.796 L75.1164 386.78 L69.6303 386.78 L69.6303 385.796 Q70.2958 385.108 71.4416 383.95 Q72.5932 382.787 72.8884 382.451 Q73.4497 381.821 73.6696 381.386 Q73.8953 380.947 73.8953 380.524 Q73.8953 379.836 73.4092 379.402 Q72.9289 378.968 72.1534 378.968 Q71.6037 378.968 70.9902 379.158 Q70.3826 379.349 69.6882 379.737 L69.6882 378.557 Q70.3942 378.273 71.0076 378.128 Q71.621 377.984 72.1303 377.984 Q73.4729 377.984 74.2715 378.655 Q75.0701 379.326 75.0701 380.449 Q75.0701 380.981 74.8675 381.462 Q74.6708 381.936 74.1442 382.584 Q73.9995 382.752 73.224 383.557 Q72.4486 384.355 71.0365 385.796 Z" fill="#000000" fill-rule="evenodd" fill-opacity="1" /><path clip-path="url(#clip980)" d="M 0 0 M75.6951 383.059 L78.8143 383.059 L78.8143 384.008 L75.6951 384.008 L75.6951 383.059 Z" fill="#000000" fill-rule="evenodd" fill-opacity="1" /><path clip-path="url(#clip980)" d="M 0 0 M81.0886 385.796 L85.1684 385.796 L85.1684 386.78 L79.6823 386.78 L79.6823 385.796 Q80.3478 385.108 81.4937 383.95 Q82.6453 382.787 82.9404 382.451 Q83.5017 381.821 83.7217 381.386 Q83.9473 380.947 83.9473 380.524 Q83.9473 379.836 83.4612 379.402 Q82.9809 378.968 82.2055 378.968 Q81.6557 378.968 81.0423 379.158 Q80.4346 379.349 79.7402 379.737 L79.7402 378.557 Q80.4462 378.273 81.0596 378.128 Q81.6731 377.984 82.1823 377.984 Q83.5249 377.984 84.3235 378.655 Q85.1221 379.326 85.1221 380.449 Q85.1221 380.981 84.9196 381.462 Q84.7228 381.936 84.1962 382.584 Q84.0515 382.752 83.2761 383.557 Q82.5006 384.355 81.0886 385.796 Z" fill="#000000" fill-rule="evenodd" fill-opacity="1" /><path clip-path="url(#clip980)" d="M 0 0 M86.6383 385.796 L88.548 385.796 L88.548 379.205 L86.4705 379.621 L86.4705 378.557 L88.5364 378.14 L89.7054 378.14 L89.7054 385.796 L91.6151 385.796 L91.6151 386.78 L86.6383 386.78 L86.6383 385.796 Z" fill="#000000" fill-rule="evenodd" fill-opacity="1" /><path clip-path="url(#clip980)" d="M 0 0 M166.271 385.796 L170.351 385.796 L170.351 386.78 L164.865 386.78 L164.865 385.796 Q165.531 385.108 166.676 383.95 Q167.828 382.787 168.123 382.451 Q168.684 381.821 168.904 381.386 Q169.13 380.947 169.13 380.524 Q169.13 379.836 168.644 379.402 Q168.164 378.968 167.388 378.968 Q166.838 378.968 166.225 379.158 Q165.617 379.349 164.923 379.737 L164.923 378.557 Q165.629 378.273 166.242 378.128 Q166.856 377.984 167.365 377.984 Q168.708 377.984 169.506 378.655 Q170.305 379.326 170.305 380.449 Q170.305 380.981 170.102 381.462 Q169.905 381.936 169.379 382.584 Q169.234 382.752 168.459 383.557 Q167.683 384.355 166.271 385.796 Z" fill="#000000" fill-rule="evenodd" fill-opacity="1" /><path clip-path="url(#clip980)" d="M 0 0 M174.118 378.91 Q173.216 378.91 172.758 379.801 Q172.307 380.686 172.307 382.469 Q172.307 384.245 172.758 385.136 Q173.216 386.022 174.118 386.022 Q175.027 386.022 175.478 385.136 Q175.936 384.245 175.936 382.469 Q175.936 380.686 175.478 379.801 Q175.027 378.91 174.118 378.91 M174.118 377.984 Q175.571 377.984 176.335 379.135 Q177.105 380.281 177.105 382.469 Q177.105 384.65 176.335 385.802 Q175.571 386.948 174.118 386.948 Q172.666 386.948 171.896 385.802 Q171.132 384.65 171.132 382.469 Q171.132 380.281 171.896 379.135 Q172.666 377.984 174.118 377.984 Z" fill="#000000" fill-rule="evenodd" fill-opacity="1" /><path clip-path="url(#clip980)" d="M 0 0 M179.379 385.796 L183.459 385.796 L183.459 386.78 L177.973 386.78 L177.973 385.796 Q178.638 385.108 179.784 383.95 Q180.936 382.787 181.231 382.451 Q181.792 381.821 182.012 381.386 Q182.238 380.947 182.238 380.524 Q182.238 379.836 181.751 379.402 Q181.271 378.968 180.496 378.968 Q179.946 378.968 179.333 379.158 Q178.725 379.349 178.03 379.737 L178.03 378.557 Q178.736 378.273 179.35 378.128 Q179.963 377.984 180.473 377.984 Q181.815 377.984 182.614 378.655 Q183.412 379.326 183.412 380.449 Q183.412 380.981 183.21 381.462 Q183.013 381.936 182.486 382.584 Q182.342 382.752 181.566 383.557 Q180.791 384.355 179.379 385.796 Z" fill="#000000" fill-rule="evenodd" fill-opacity="1" /><path clip-path="url(#clip980)" d="M 0 0 M187.226 378.91 Q186.323 378.91 185.866 379.801 Q185.415 380.686 185.415 382.469 Q185.415 384.245 185.866 385.136 Q186.323 386.022 187.226 386.022 Q188.135 386.022 188.586 385.136 Q189.043 384.245 189.043 382.469 Q189.043 380.686 188.586 379.801 Q188.135 378.91 187.226 378.91 M187.226 377.984 Q188.679 377.984 189.442 379.135 Q190.212 380.281 190.212 382.469 Q190.212 384.65 189.442 385.802 Q188.679 386.948 187.226 386.948 Q185.773 386.948 185.004 385.802 Q184.24 384.65 184.24 382.469 Q184.24 380.281 185.004 379.135 Q185.773 377.984 187.226 377.984 Z" fill="#000000" fill-rule="evenodd" fill-opacity="1" /><path clip-path="url(#clip980)" d="M 0 0 M190.791 383.059 L193.91 383.059 L193.91 384.008 L190.791 384.008 L190.791 383.059 Z" fill="#000000" fill-rule="evenodd" fill-opacity="1" /><path clip-path="url(#clip980)" d="M 0 0 M195.38 385.796 L197.29 385.796 L197.29 379.205 L195.212 379.621 L195.212 378.557 L197.278 378.14 L198.447 378.14 L198.447 385.796 L200.357 385.796 L200.357 386.78 L195.38 386.78 L195.38 385.796 Z" fill="#000000" fill-rule="evenodd" fill-opacity="1" /><path clip-path="url(#clip980)" d="M 0 0 M202.631 385.796 L206.711 385.796 L206.711 386.78 L201.225 386.78 L201.225 385.796 Q201.89 385.108 203.036 383.95 Q204.188 382.787 204.483 382.451 Q205.044 381.821 205.264 381.386 Q205.49 380.947 205.49 380.524 Q205.49 379.836 205.004 379.402 Q204.523 378.968 203.748 378.968 Q203.198 378.968 202.585 379.158 Q201.977 379.349 201.283 379.737 L201.283 378.557 Q201.989 378.273 202.602 378.128 Q203.216 377.984 203.725 377.984 Q205.067 377.984 205.866 378.655 Q206.665 379.326 206.665 380.449 Q206.665 380.981 206.462 381.462 Q206.265 381.936 205.739 382.584 Q205.594 382.752 204.819 383.557 Q204.043 384.355 202.631 385.796 Z" fill="#000000" fill-rule="evenodd" fill-opacity="1" /><path clip-path="url(#clip980)" d="M 0 0 M207.29 383.059 L210.409 383.059 L210.409 384.008 L207.29 384.008 L207.29 383.059 Z" fill="#000000" fill-rule="evenodd" fill-opacity="1" /><path clip-path="url(#clip980)" d="M 0 0 M212.683 385.796 L216.763 385.796 L216.763 386.78 L211.277 386.78 L211.277 385.796 Q211.942 385.108 213.088 383.95 Q214.24 382.787 214.535 382.451 Q215.096 381.821 215.316 381.386 Q215.542 380.947 215.542 380.524 Q215.542 379.836 215.056 379.402 Q214.575 378.968 213.8 378.968 Q213.25 378.968 212.637 379.158 Q212.029 379.349 211.335 379.737 L211.335 378.557 Q212.041 378.273 212.654 378.128 Q213.268 377.984 213.777 377.984 Q215.119 377.984 215.918 378.655 Q216.717 379.326 216.717 380.449 Q216.717 380.981 216.514 381.462 Q216.317 381.936 215.791 382.584 Q215.646 382.752 214.871 383.557 Q214.095 384.355 212.683 385.796 Z" fill="#000000" fill-rule="evenodd" fill-opacity="1" /><path clip-path="url(#clip980)" d="M 0 0 M218.065 386.601 L218.065 385.536 Q218.505 385.744 218.956 385.854 Q219.408 385.964 219.842 385.964 Q220.999 385.964 221.607 385.189 Q222.22 384.407 222.307 382.822 Q221.971 383.319 221.456 383.586 Q220.941 383.852 220.316 383.852 Q219.02 383.852 218.262 383.07 Q217.509 382.283 217.509 380.924 Q217.509 379.593 218.296 378.788 Q219.083 377.984 220.391 377.984 Q221.89 377.984 222.677 379.135 Q223.47 380.281 223.47 382.469 Q223.47 384.511 222.498 385.733 Q221.531 386.948 219.894 386.948 Q219.454 386.948 219.002 386.861 Q218.551 386.774 218.065 386.601 M220.391 382.937 Q221.178 382.937 221.636 382.399 Q222.099 381.861 222.099 380.924 Q222.099 379.992 221.636 379.454 Q221.178 378.91 220.391 378.91 Q219.604 378.91 219.141 379.454 Q218.684 379.992 218.684 380.924 Q218.684 381.861 219.141 382.399 Q219.604 382.937 220.391 382.937 Z" fill="#000000" fill-rule="evenodd" fill-opacity="1" /><path clip-path="url(#clip980)" d="M 0 0 M297.707 385.796 L301.786 385.796 L301.786 386.78 L296.3 386.78 L296.3 385.796 Q296.966 385.108 298.112 383.95 Q299.263 382.787 299.558 382.451 Q300.12 381.821 300.34 381.386 Q300.565 380.947 300.565 380.524 Q300.565 379.836 300.079 379.402 Q299.599 378.968 298.823 378.968 Q298.274 378.968 297.66 379.158 Q297.053 379.349 296.358 379.737 L296.358 378.557 Q297.064 378.273 297.678 378.128 Q298.291 377.984 298.8 377.984 Q300.143 377.984 300.942 378.655 Q301.74 379.326 301.74 380.449 Q301.74 380.981 301.538 381.462 Q301.341 381.936 300.814 382.584 Q300.67 382.752 299.894 383.557 Q299.119 384.355 297.707 385.796 Z" fill="#000000" fill-rule="evenodd" fill-opacity="1" /><path clip-path="url(#clip980)" d="M 0 0 M305.554 378.91 Q304.651 378.91 304.194 379.801 Q303.742 380.686 303.742 382.469 Q303.742 384.245 304.194 385.136 Q304.651 386.022 305.554 386.022 Q306.462 386.022 306.914 385.136 Q307.371 384.245 307.371 382.469 Q307.371 380.686 306.914 379.801 Q306.462 378.91 305.554 378.91 M305.554 377.984 Q307.006 377.984 307.77 379.135 Q308.54 380.281 308.54 382.469 Q308.54 384.65 307.77 385.802 Q307.006 386.948 305.554 386.948 Q304.101 386.948 303.332 385.802 Q302.568 384.65 302.568 382.469 Q302.568 380.281 303.332 379.135 Q304.101 377.984 305.554 377.984 Z" fill="#000000" fill-rule="evenodd" fill-opacity="1" /><path clip-path="url(#clip980)" d="M 0 0 M310.814 385.796 L314.894 385.796 L314.894 386.78 L309.408 386.78 L309.408 385.796 Q310.073 385.108 311.219 383.95 Q312.371 382.787 312.666 382.451 Q313.227 381.821 313.447 381.386 Q313.673 380.947 313.673 380.524 Q313.673 379.836 313.187 379.402 Q312.707 378.968 311.931 378.968 Q311.381 378.968 310.768 379.158 Q310.16 379.349 309.466 379.737 L309.466 378.557 Q310.172 378.273 310.785 378.128 Q311.399 377.984 311.908 377.984 Q313.25 377.984 314.049 378.655 Q314.848 379.326 314.848 380.449 Q314.848 380.981 314.645 381.462 Q314.448 381.936 313.922 382.584 Q313.777 382.752 313.002 383.557 Q312.226 384.355 310.814 385.796 Z" fill="#000000" fill-rule="evenodd" fill-opacity="1" /><path clip-path="url(#clip980)" d="M 0 0 M316.364 385.796 L318.274 385.796 L318.274 379.205 L316.196 379.621 L316.196 378.557 L318.262 378.14 L319.431 378.14 L319.431 385.796 L321.341 385.796 L321.341 386.78 L316.364 386.78 L316.364 385.796 Z" fill="#000000" fill-rule="evenodd" fill-opacity="1" /><path clip-path="url(#clip980)" d="M 0 0 M321.919 383.059 L325.039 383.059 L325.039 384.008 L321.919 384.008 L321.919 383.059 Z" fill="#000000" fill-rule="evenodd" fill-opacity="1" /><path clip-path="url(#clip980)" d="M 0 0 M328.806 378.91 Q327.903 378.91 327.446 379.801 Q326.995 380.686 326.995 382.469 Q326.995 384.245 327.446 385.136 Q327.903 386.022 328.806 386.022 Q329.715 386.022 330.166 385.136 Q330.623 384.245 330.623 382.469 Q330.623 380.686 330.166 379.801 Q329.715 378.91 328.806 378.91 M328.806 377.984 Q330.258 377.984 331.022 379.135 Q331.792 380.281 331.792 382.469 Q331.792 384.65 331.022 385.802 Q330.258 386.948 328.806 386.948 Q327.353 386.948 326.584 385.802 Q325.82 384.65 325.82 382.469 Q325.82 380.281 326.584 379.135 Q327.353 377.984 328.806 377.984 Z" fill="#000000" fill-rule="evenodd" fill-opacity="1" /><path clip-path="url(#clip980)" d="M 0 0 M333.262 385.796 L335.172 385.796 L335.172 379.205 L333.094 379.621 L333.094 378.557 L335.16 378.14 L336.329 378.14 L336.329 385.796 L338.239 385.796 L338.239 386.78 L333.262 386.78 L333.262 385.796 Z" fill="#000000" fill-rule="evenodd" fill-opacity="1" /><path clip-path="url(#clip980)" d="M 0 0 M338.817 383.059 L341.937 383.059 L341.937 384.008 L338.817 384.008 L338.817 383.059 Z" fill="#000000" fill-rule="evenodd" fill-opacity="1" /><path clip-path="url(#clip980)" d="M 0 0 M345.704 378.91 Q344.801 378.91 344.344 379.801 Q343.893 380.686 343.893 382.469 Q343.893 384.245 344.344 385.136 Q344.801 386.022 345.704 386.022 Q346.613 386.022 347.064 385.136 Q347.521 384.245 347.521 382.469 Q347.521 380.686 347.064 379.801 Q346.613 378.91 345.704 378.91 M345.704 377.984 Q347.157 377.984 347.92 379.135 Q348.69 380.281 348.69 382.469 Q348.69 384.65 347.92 385.802 Q347.157 386.948 345.704 386.948 Q344.251 386.948 343.482 385.802 Q342.718 384.65 342.718 382.469 Q342.718 380.281 343.482 379.135 Q344.251 377.984 345.704 377.984 Z" fill="#000000" fill-rule="evenodd" fill-opacity="1" /><path clip-path="url(#clip980)" d="M 0 0 M352.602 381.994 Q351.815 381.994 351.352 382.532 Q350.895 383.07 350.895 384.008 Q350.895 384.94 351.352 385.484 Q351.815 386.022 352.602 386.022 Q353.389 386.022 353.846 385.484 Q354.309 384.94 354.309 384.008 Q354.309 383.07 353.846 382.532 Q353.389 381.994 352.602 381.994 M354.923 378.331 L354.923 379.396 Q354.483 379.187 354.032 379.077 Q353.586 378.968 353.146 378.968 Q351.989 378.968 351.375 379.749 Q350.768 380.53 350.681 382.11 Q351.022 381.606 351.537 381.34 Q352.052 381.068 352.672 381.068 Q353.974 381.068 354.726 381.861 Q355.484 382.648 355.484 384.008 Q355.484 385.339 354.697 386.143 Q353.91 386.948 352.602 386.948 Q351.103 386.948 350.31 385.802 Q349.518 384.65 349.518 382.469 Q349.518 380.42 350.49 379.205 Q351.462 377.984 353.1 377.984 Q353.54 377.984 353.985 378.071 Q354.437 378.157 354.923 378.331 Z" fill="#000000" fill-rule="evenodd" fill-opacity="1" /><path clip-path="url(#clip980)" d="M 0 0 M429.544 385.796 L433.624 385.796 L433.624 386.78 L428.138 386.78 L428.138 385.796 Q428.803 385.108 429.949 383.95 Q431.101 382.787 431.396 382.451 Q431.957 381.821 432.177 381.386 Q432.403 380.947 432.403 380.524 Q432.403 379.836 431.917 379.402 Q431.436 378.968 430.661 378.968 Q430.111 378.968 429.498 379.158 Q428.89 379.349 428.196 379.737 L428.196 378.557 Q428.902 378.273 429.515 378.128 Q430.129 377.984 430.638 377.984 Q431.98 377.984 432.779 378.655 Q433.578 379.326 433.578 380.449 Q433.578 380.981 433.375 381.462 Q433.178 381.936 432.652 382.584 Q432.507 382.752 431.732 383.557 Q430.956 384.355 429.544 385.796 Z" fill="#000000" fill-rule="evenodd" fill-opacity="1" /><path clip-path="url(#clip980)" d="M 0 0 M437.391 378.91 Q436.489 378.91 436.031 379.801 Q435.58 380.686 435.58 382.469 Q435.58 384.245 436.031 385.136 Q436.489 386.022 437.391 386.022 Q438.3 386.022 438.751 385.136 Q439.208 384.245 439.208 382.469 Q439.208 380.686 438.751 379.801 Q438.3 378.91 437.391 378.91 M437.391 377.984 Q438.844 377.984 439.608 379.135 Q440.377 380.281 440.377 382.469 Q440.377 384.65 439.608 385.802 Q438.844 386.948 437.391 386.948 Q435.939 386.948 435.169 385.802 Q434.405 384.65 434.405 382.469 Q434.405 380.281 435.169 379.135 Q435.939 377.984 437.391 377.984 Z" fill="#000000" fill-rule="evenodd" fill-opacity="1" /><path clip-path="url(#clip980)" d="M 0 0 M442.652 385.796 L446.732 385.796 L446.732 386.78 L441.245 386.78 L441.245 385.796 Q441.911 385.108 443.057 383.95 Q444.208 382.787 444.504 382.451 Q445.065 381.821 445.285 381.386 Q445.51 380.947 445.51 380.524 Q445.51 379.836 445.024 379.402 Q444.544 378.968 443.769 378.968 Q443.219 378.968 442.605 379.158 Q441.998 379.349 441.303 379.737 L441.303 378.557 Q442.009 378.273 442.623 378.128 Q443.236 377.984 443.745 377.984 Q445.088 377.984 445.887 378.655 Q446.685 379.326 446.685 380.449 Q446.685 380.981 446.483 381.462 Q446.286 381.936 445.759 382.584 Q445.615 382.752 444.839 383.557 Q444.064 384.355 442.652 385.796 Z" fill="#000000" fill-rule="evenodd" fill-opacity="1" /><path clip-path="url(#clip980)" d="M 0 0 M448.201 385.796 L450.111 385.796 L450.111 379.205 L448.034 379.621 L448.034 378.557 L450.1 378.14 L451.269 378.14 L451.269 385.796 L453.178 385.796 L453.178 386.78 L448.201 386.78 L448.201 385.796 Z" fill="#000000" fill-rule="evenodd" fill-opacity="1" /><path clip-path="url(#clip980)" d="M 0 0 M453.757 383.059 L456.876 383.059 L456.876 384.008 L453.757 384.008 L453.757 383.059 Z" fill="#000000" fill-rule="evenodd" fill-opacity="1" /><path clip-path="url(#clip980)" d="M 0 0 M460.643 378.91 Q459.741 378.91 459.284 379.801 Q458.832 380.686 458.832 382.469 Q458.832 384.245 459.284 385.136 Q459.741 386.022 460.643 386.022 Q461.552 386.022 462.003 385.136 Q462.461 384.245 462.461 382.469 Q462.461 380.686 462.003 379.801 Q461.552 378.91 460.643 378.91 M460.643 377.984 Q462.096 377.984 462.86 379.135 Q463.63 380.281 463.63 382.469 Q463.63 384.65 462.86 385.802 Q462.096 386.948 460.643 386.948 Q459.191 386.948 458.421 385.802 Q457.657 384.65 457.657 382.469 Q457.657 380.281 458.421 379.135 Q459.191 377.984 460.643 377.984 Z" fill="#000000" fill-rule="evenodd" fill-opacity="1" /><path clip-path="url(#clip980)" d="M 0 0 M465.099 385.796 L467.009 385.796 L467.009 379.205 L464.932 379.621 L464.932 378.557 L466.998 378.14 L468.167 378.14 L468.167 385.796 L470.076 385.796 L470.076 386.78 L465.099 386.78 L465.099 385.796 Z" fill="#000000" fill-rule="evenodd" fill-opacity="1" /><path clip-path="url(#clip980)" d="M 0 0 M470.655 383.059 L473.774 383.059 L473.774 384.008 L470.655 384.008 L470.655 383.059 Z" fill="#000000" fill-rule="evenodd" fill-opacity="1" /><path clip-path="url(#clip980)" d="M 0 0 M475.244 385.796 L477.154 385.796 L477.154 379.205 L475.076 379.621 L475.076 378.557 L477.142 378.14 L478.311 378.14 L478.311 385.796 L480.221 385.796 L480.221 386.78 L475.244 386.78 L475.244 385.796 Z" fill="#000000" fill-rule="evenodd" fill-opacity="1" /><path clip-path="url(#clip980)" d="M 0 0 M484.7 379.158 L481.749 383.771 L484.7 383.771 L484.7 379.158 M484.393 378.14 L485.863 378.14 L485.863 383.771 L487.096 383.771 L487.096 384.743 L485.863 384.743 L485.863 386.78 L484.7 386.78 L484.7 384.743 L480.8 384.743 L480.8 383.614 L484.393 378.14 Z" fill="#000000" fill-rule="evenodd" fill-opacity="1" /><polyline clip-path="url(#clip982)" style="stroke:#000000; stroke-width:0.5; stroke-opacity:0.1; fill:none" points="
  47.1298,359.99 588.189,359.99 
  "/>
<polyline clip-path="url(#clip982)" style="stroke:#000000; stroke-width:0.5; stroke-opacity:0.1; fill:none" points="
  47.1298,288.03 588.189,288.03 
  "/>
<polyline clip-path="url(#clip982)" style="stroke:#000000; stroke-width:0.5; stroke-opacity:0.1; fill:none" points="
  47.1298,216.07 588.189,216.07 
  "/>
<polyline clip-path="url(#clip982)" style="stroke:#000000; stroke-width:0.5; stroke-opacity:0.1; fill:none" points="
  47.1298,144.11 588.189,144.11 
  "/>
<polyline clip-path="url(#clip982)" style="stroke:#000000; stroke-width:0.5; stroke-opacity:0.1; fill:none" points="
  47.1298,72.1501 588.189,72.1501 
  "/>
<polyline clip-path="url(#clip980)" style="stroke:#000000; stroke-width:1; stroke-opacity:1; fill:none" points="
  47.1298,371.612 47.1298,11.811 
  "/>
<polyline clip-path="url(#clip980)" style="stroke:#000000; stroke-width:1; stroke-opacity:1; fill:none" points="
  47.1298,359.99 53.6225,359.99 
  "/>
<polyline clip-path="url(#clip980)" style="stroke:#000000; stroke-width:1; stroke-opacity:1; fill:none" points="
  47.1298,288.03 53.6225,288.03 
  "/>
<polyline clip-path="url(#clip980)" style="stroke:#000000; stroke-width:1; stroke-opacity:1; fill:none" points="
  47.1298,216.07 53.6225,216.07 
  "/>
<polyline clip-path="url(#clip980)" style="stroke:#000000; stroke-width:1; stroke-opacity:1; fill:none" points="
  47.1298,144.11 53.6225,144.11 
  "/>
<polyline clip-path="url(#clip980)" style="stroke:#000000; stroke-width:1; stroke-opacity:1; fill:none" points="
  47.1298,72.1501 53.6225,72.1501 
  "/>
<path clip-path="url(#clip980)" d="M 0 0 M13.1184 363.326 L15.0281 363.326 L15.0281 356.735 L12.9506 357.151 L12.9506 356.086 L15.0165 355.67 L16.1855 355.67 L16.1855 363.326 L18.0952 363.326 L18.0952 364.31 L13.1184 364.31 L13.1184 363.326 Z" fill="#000000" fill-rule="evenodd" fill-opacity="1" /><path clip-path="url(#clip980)" d="M 0 0 M19.0674 355.67 L24.623 355.67 L24.623 356.167 L21.4864 364.31 L20.2654 364.31 L23.2167 356.654 L19.0674 356.654 L19.0674 355.67 Z" fill="#000000" fill-rule="evenodd" fill-opacity="1" /><path clip-path="url(#clip980)" d="M 0 0 M28.3903 356.439 Q27.4875 356.439 27.0304 357.331 Q26.579 358.216 26.579 359.998 Q26.579 361.775 27.0304 362.666 Q27.4875 363.552 28.3903 363.552 Q29.2989 363.552 29.7503 362.666 Q30.2074 361.775 30.2074 359.998 Q30.2074 358.216 29.7503 357.331 Q29.2989 356.439 28.3903 356.439 M28.3903 355.513 Q29.8428 355.513 30.6067 356.665 Q31.3764 357.811 31.3764 359.998 Q31.3764 362.18 30.6067 363.332 Q29.8428 364.478 28.3903 364.478 Q26.9378 364.478 26.1681 363.332 Q25.4042 362.18 25.4042 359.998 Q25.4042 357.811 26.1681 356.665 Q26.9378 355.513 28.3903 355.513 Z" fill="#000000" fill-rule="evenodd" fill-opacity="1" /><path clip-path="url(#clip980)" d="M 0 0 M35.1437 356.439 Q34.241 356.439 33.7838 357.331 Q33.3324 358.216 33.3324 359.998 Q33.3324 361.775 33.7838 362.666 Q34.241 363.552 35.1437 363.552 Q36.0523 363.552 36.5037 362.666 Q36.9609 361.775 36.9609 359.998 Q36.9609 358.216 36.5037 357.331 Q36.0523 356.439 35.1437 356.439 M35.1437 355.513 Q36.5963 355.513 37.3602 356.665 Q38.1298 357.811 38.1298 359.998 Q38.1298 362.18 37.3602 363.332 Q36.5963 364.478 35.1437 364.478 Q33.6912 364.478 32.9215 363.332 Q32.1576 362.18 32.1576 359.998 Q32.1576 357.811 32.9215 356.665 Q33.6912 355.513 35.1437 355.513 Z" fill="#000000" fill-rule="evenodd" fill-opacity="1" /><path clip-path="url(#clip980)" d="M 0 0 M13.3672 291.366 L15.277 291.366 L15.277 284.775 L13.1994 285.191 L13.1994 284.126 L15.2654 283.71 L16.4344 283.71 L16.4344 291.366 L18.3441 291.366 L18.3441 292.35 L13.3672 292.35 L13.3672 291.366 Z" fill="#000000" fill-rule="evenodd" fill-opacity="1" /><path clip-path="url(#clip980)" d="M 0 0 M19.3163 283.71 L24.8718 283.71 L24.8718 284.207 L21.7353 292.35 L20.5142 292.35 L23.4656 284.694 L19.3163 284.694 L19.3163 283.71 Z" fill="#000000" fill-rule="evenodd" fill-opacity="1" /><path clip-path="url(#clip980)" d="M 0 0 M26.1507 283.71 L30.7398 283.71 L30.7398 284.694 L27.2213 284.694 L27.2213 286.812 Q27.476 286.725 27.7306 286.684 Q27.9852 286.638 28.2398 286.638 Q29.6866 286.638 30.5315 287.431 Q31.3764 288.224 31.3764 289.578 Q31.3764 290.973 30.5084 291.748 Q29.6403 292.518 28.0604 292.518 Q27.5165 292.518 26.9493 292.425 Q26.388 292.332 25.7862 292.147 L25.7862 290.973 Q26.307 291.256 26.8625 291.395 Q27.4181 291.534 28.0373 291.534 Q29.0385 291.534 29.6229 291.007 Q30.2074 290.481 30.2074 289.578 Q30.2074 288.675 29.6229 288.148 Q29.0385 287.622 28.0373 287.622 Q27.5686 287.622 27.0998 287.726 Q26.6368 287.83 26.1507 288.05 L26.1507 283.71 Z" fill="#000000" fill-rule="evenodd" fill-opacity="1" /><path clip-path="url(#clip980)" d="M 0 0 M35.1437 284.479 Q34.241 284.479 33.7838 285.371 Q33.3324 286.256 33.3324 288.038 Q33.3324 289.815 33.7838 290.706 Q34.241 291.592 35.1437 291.592 Q36.0523 291.592 36.5037 290.706 Q36.9609 289.815 36.9609 288.038 Q36.9609 286.256 36.5037 285.371 Q36.0523 284.479 35.1437 284.479 M35.1437 283.554 Q36.5963 283.554 37.3602 284.705 Q38.1298 285.851 38.1298 288.038 Q38.1298 290.22 37.3602 291.372 Q36.5963 292.518 35.1437 292.518 Q33.6912 292.518 32.9215 291.372 Q32.1576 290.22 32.1576 288.038 Q32.1576 285.851 32.9215 284.705 Q33.6912 283.554 35.1437 283.554 Z" fill="#000000" fill-rule="evenodd" fill-opacity="1" /><path clip-path="url(#clip980)" d="M 0 0 M12.9159 219.406 L14.8256 219.406 L14.8256 212.815 L12.748 213.231 L12.748 212.167 L14.814 211.75 L15.983 211.75 L15.983 219.406 L17.8927 219.406 L17.8927 220.39 L12.9159 220.39 L12.9159 219.406 Z" fill="#000000" fill-rule="evenodd" fill-opacity="1" /><path clip-path="url(#clip980)" d="M 0 0 M21.66 216.287 Q20.8267 216.287 20.3464 216.733 Q19.8718 217.178 19.8718 217.959 Q19.8718 218.741 20.3464 219.186 Q20.8267 219.632 21.66 219.632 Q22.4933 219.632 22.9737 219.186 Q23.454 218.735 23.454 217.959 Q23.454 217.178 22.9737 216.733 Q22.4991 216.287 21.66 216.287 M20.491 215.789 Q19.7387 215.604 19.3163 215.089 Q18.8996 214.574 18.8996 213.833 Q18.8996 212.797 19.6346 212.196 Q20.3753 211.594 21.66 211.594 Q22.9505 211.594 23.6855 212.196 Q24.4204 212.797 24.4204 213.833 Q24.4204 214.574 23.998 215.089 Q23.5813 215.604 22.8348 215.789 Q23.6797 215.986 24.1484 216.559 Q24.623 217.132 24.623 217.959 Q24.623 219.215 23.8533 219.886 Q23.0894 220.558 21.66 220.558 Q20.2306 220.558 19.461 219.886 Q18.6971 219.215 18.6971 217.959 Q18.6971 217.132 19.1716 216.559 Q19.6461 215.986 20.491 215.789 M20.0628 213.943 Q20.0628 214.614 20.4795 214.991 Q20.9019 215.367 21.66 215.367 Q22.4123 215.367 22.8348 214.991 Q23.263 214.614 23.263 213.943 Q23.263 213.272 22.8348 212.896 Q22.4123 212.52 21.66 212.52 Q20.9019 212.52 20.4795 212.896 Q20.0628 213.272 20.0628 213.943 Z" fill="#000000" fill-rule="evenodd" fill-opacity="1" /><path clip-path="url(#clip980)" d="M 0 0 M28.3903 212.52 Q27.4875 212.52 27.0304 213.411 Q26.579 214.296 26.579 216.079 Q26.579 217.855 27.0304 218.746 Q27.4875 219.632 28.3903 219.632 Q29.2989 219.632 29.7503 218.746 Q30.2074 217.855 30.2074 216.079 Q30.2074 214.296 29.7503 213.411 Q29.2989 212.52 28.3903 212.52 M28.3903 211.594 Q29.8428 211.594 30.6067 212.745 Q31.3764 213.891 31.3764 216.079 Q31.3764 218.26 30.6067 219.412 Q29.8428 220.558 28.3903 220.558 Q26.9378 220.558 26.1681 219.412 Q25.4042 218.26 25.4042 216.079 Q25.4042 213.891 26.1681 212.745 Q26.9378 211.594 28.3903 211.594 Z" fill="#000000" fill-rule="evenodd" fill-opacity="1" /><path clip-path="url(#clip980)" d="M 0 0 M35.1437 212.52 Q34.241 212.52 33.7838 213.411 Q33.3324 214.296 33.3324 216.079 Q33.3324 217.855 33.7838 218.746 Q34.241 219.632 35.1437 219.632 Q36.0523 219.632 36.5037 218.746 Q36.9609 217.855 36.9609 216.079 Q36.9609 214.296 36.5037 213.411 Q36.0523 212.52 35.1437 212.52 M35.1437 211.594 Q36.5963 211.594 37.3602 212.745 Q38.1298 213.891 38.1298 216.079 Q38.1298 218.26 37.3602 219.412 Q36.5963 220.558 35.1437 220.558 Q33.6912 220.558 32.9215 219.412 Q32.1576 218.26 32.1576 216.079 Q32.1576 213.891 32.9215 212.745 Q33.6912 211.594 35.1437 211.594 Z" fill="#000000" fill-rule="evenodd" fill-opacity="1" /><path clip-path="url(#clip980)" d="M 0 0 M13.1647 147.446 L15.0744 147.446 L15.0744 140.855 L12.9969 141.271 L12.9969 140.207 L15.0628 139.79 L16.2318 139.79 L16.2318 147.446 L18.1415 147.446 L18.1415 148.43 L13.1647 148.43 L13.1647 147.446 Z" fill="#000000" fill-rule="evenodd" fill-opacity="1" /><path clip-path="url(#clip980)" d="M 0 0 M21.9089 144.327 Q21.0755 144.327 20.5952 144.773 Q20.1207 145.218 20.1207 145.999 Q20.1207 146.781 20.5952 147.226 Q21.0755 147.672 21.9089 147.672 Q22.7422 147.672 23.2225 147.226 Q23.7028 146.775 23.7028 145.999 Q23.7028 145.218 23.2225 144.773 Q22.748 144.327 21.9089 144.327 M20.7399 143.829 Q19.9876 143.644 19.5651 143.129 Q19.1485 142.614 19.1485 141.873 Q19.1485 140.837 19.8834 140.236 Q20.6241 139.634 21.9089 139.634 Q23.1994 139.634 23.9343 140.236 Q24.6693 140.837 24.6693 141.873 Q24.6693 142.614 24.2468 143.129 Q23.8301 143.644 23.0836 143.829 Q23.9285 144.026 24.3973 144.599 Q24.8718 145.172 24.8718 145.999 Q24.8718 147.255 24.1021 147.927 Q23.3383 148.598 21.9089 148.598 Q20.4795 148.598 19.7098 147.927 Q18.9459 147.255 18.9459 145.999 Q18.9459 145.172 19.4204 144.599 Q19.895 144.026 20.7399 143.829 M20.3116 141.983 Q20.3116 142.655 20.7283 143.031 Q21.1508 143.407 21.9089 143.407 Q22.6612 143.407 23.0836 143.031 Q23.5119 142.655 23.5119 141.983 Q23.5119 141.312 23.0836 140.936 Q22.6612 140.56 21.9089 140.56 Q21.1508 140.56 20.7283 140.936 Q20.3116 141.312 20.3116 141.983 Z" fill="#000000" fill-rule="evenodd" fill-opacity="1" /><path clip-path="url(#clip980)" d="M 0 0 M26.1507 139.79 L30.7398 139.79 L30.7398 140.774 L27.2213 140.774 L27.2213 142.892 Q27.476 142.805 27.7306 142.765 Q27.9852 142.718 28.2398 142.718 Q29.6866 142.718 30.5315 143.511 Q31.3764 144.304 31.3764 145.658 Q31.3764 147.053 30.5084 147.828 Q29.6403 148.598 28.0604 148.598 Q27.5165 148.598 26.9493 148.505 Q26.388 148.413 25.7862 148.227 L25.7862 147.053 Q26.307 147.336 26.8625 147.475 Q27.4181 147.614 28.0373 147.614 Q29.0385 147.614 29.6229 147.087 Q30.2074 146.561 30.2074 145.658 Q30.2074 144.755 29.6229 144.229 Q29.0385 143.702 28.0373 143.702 Q27.5686 143.702 27.0998 143.806 Q26.6368 143.91 26.1507 144.13 L26.1507 139.79 Z" fill="#000000" fill-rule="evenodd" fill-opacity="1" /><path clip-path="url(#clip980)" d="M 0 0 M35.1437 140.56 Q34.241 140.56 33.7838 141.451 Q33.3324 142.336 33.3324 144.119 Q33.3324 145.895 33.7838 146.786 Q34.241 147.672 35.1437 147.672 Q36.0523 147.672 36.5037 146.786 Q36.9609 145.895 36.9609 144.119 Q36.9609 142.336 36.5037 141.451 Q36.0523 140.56 35.1437 140.56 M35.1437 139.634 Q36.5963 139.634 37.3602 140.785 Q38.1298 141.931 38.1298 144.119 Q38.1298 146.3 37.3602 147.452 Q36.5963 148.598 35.1437 148.598 Q33.6912 148.598 32.9215 147.452 Q32.1576 146.3 32.1576 144.119 Q32.1576 141.931 32.9215 140.785 Q33.6912 139.634 35.1437 139.634 Z" fill="#000000" fill-rule="evenodd" fill-opacity="1" /><path clip-path="url(#clip980)" d="M 0 0 M12.939 75.4863 L14.8487 75.4863 L14.8487 68.8949 L12.7712 69.3116 L12.7712 68.2468 L14.8371 67.8301 L16.0061 67.8301 L16.0061 75.4863 L17.9158 75.4863 L17.9158 76.4701 L12.939 76.4701 L12.939 75.4863 Z" fill="#000000" fill-rule="evenodd" fill-opacity="1" /><path clip-path="url(#clip980)" d="M 0 0 M19.2179 76.2907 L19.2179 75.2259 Q19.6577 75.4342 20.1091 75.5442 Q20.5605 75.6541 20.9945 75.6541 Q22.1519 75.6541 22.7596 74.8787 Q23.373 74.0974 23.4598 72.5118 Q23.1241 73.0095 22.6091 73.2757 Q22.094 73.5419 21.469 73.5419 Q20.1728 73.5419 19.4147 72.7606 Q18.6624 71.9736 18.6624 70.6136 Q18.6624 69.2826 19.4494 68.4782 Q20.2364 67.6738 21.5443 67.6738 Q23.0431 67.6738 23.8301 68.8255 Q24.623 69.9713 24.623 72.1588 Q24.623 74.2016 23.6508 75.4226 Q22.6843 76.6379 21.0466 76.6379 Q20.6068 76.6379 20.1554 76.5511 Q19.704 76.4643 19.2179 76.2907 M21.5443 72.6275 Q22.3313 72.6275 22.7885 72.0893 Q23.2514 71.5511 23.2514 70.6136 Q23.2514 69.6819 22.7885 69.1437 Q22.3313 68.5998 21.5443 68.5998 Q20.7572 68.5998 20.2943 69.1437 Q19.8371 69.6819 19.8371 70.6136 Q19.8371 71.5511 20.2943 72.0893 Q20.7572 72.6275 21.5443 72.6275 Z" fill="#000000" fill-rule="evenodd" fill-opacity="1" /><path clip-path="url(#clip980)" d="M 0 0 M28.3903 68.5998 Q27.4875 68.5998 27.0304 69.491 Q26.579 70.3764 26.579 72.1588 Q26.579 73.9354 27.0304 74.8266 Q27.4875 75.712 28.3903 75.712 Q29.2989 75.712 29.7503 74.8266 Q30.2074 73.9354 30.2074 72.1588 Q30.2074 70.3764 29.7503 69.491 Q29.2989 68.5998 28.3903 68.5998 M28.3903 67.6738 Q29.8428 67.6738 30.6067 68.8255 Q31.3764 69.9713 31.3764 72.1588 Q31.3764 74.3405 30.6067 75.4921 Q29.8428 76.6379 28.3903 76.6379 Q26.9378 76.6379 26.1681 75.4921 Q25.4042 74.3405 25.4042 72.1588 Q25.4042 69.9713 26.1681 68.8255 Q26.9378 67.6738 28.3903 67.6738 Z" fill="#000000" fill-rule="evenodd" fill-opacity="1" /><path clip-path="url(#clip980)" d="M 0 0 M35.1437 68.5998 Q34.241 68.5998 33.7838 69.491 Q33.3324 70.3764 33.3324 72.1588 Q33.3324 73.9354 33.7838 74.8266 Q34.241 75.712 35.1437 75.712 Q36.0523 75.712 36.5037 74.8266 Q36.9609 73.9354 36.9609 72.1588 Q36.9609 70.3764 36.5037 69.491 Q36.0523 68.5998 35.1437 68.5998 M35.1437 67.6738 Q36.5963 67.6738 37.3602 68.8255 Q38.1298 69.9713 38.1298 72.1588 Q38.1298 74.3405 37.3602 75.4921 Q36.5963 76.6379 35.1437 76.6379 Q33.6912 76.6379 32.9215 75.4921 Q32.1576 74.3405 32.1576 72.1588 Q32.1576 69.9713 32.9215 68.8255 Q33.6912 67.6738 35.1437 67.6738 Z" fill="#000000" fill-rule="evenodd" fill-opacity="1" /><polyline clip-path="url(#clip982)" style="stroke:#009af9; stroke-width:1; stroke-opacity:1; fill:none" points="
  62.4428,340.546 78.9084,310.438 95.374,319.534 111.84,309.618 177.702,285.677 194.168,233.642 210.633,270.745 227.099,309.013 292.961,277.178 309.427,324.01 
  325.892,356.205 342.358,302.335 358.823,233.369 408.22,236.118 424.686,282.388 441.151,304.466 457.617,282.82 474.082,305.027 539.945,284.792 556.41,170.793 
  572.876,75.0285 
  "/>
<polyline clip-path="url(#clip982)" style="stroke:#e26f46; stroke-width:1; stroke-opacity:1; fill:none" points="
  62.4428,301.199 78.9084,306.156 95.374,290.923 111.84,293.787 177.702,229.414 194.168,226.95 210.633,266.305 227.099,275.178 292.961,272.702 309.427,291.383 
  325.892,290.908 342.358,232.765 358.823,201.908 408.22,224.252 424.686,247.675 441.151,266.391 457.617,252.035 474.082,279.395 539.945,202.721 556.41,66.8107 
  572.876,21.9941 
  "/>
<polyline clip-path="url(#clip982)" style="stroke:#3da44d; stroke-width:1; stroke-opacity:1; fill:none" points="
  62.4428,361.429 78.9084,341.892 95.374,323.952 111.84,318.095 177.702,293.305 194.168,279.265 210.633,323.146 227.099,309.013 292.961,348.692 309.427,334.063 
  325.892,361.429 342.358,306.667 358.823,254.158 408.22,272.889 424.686,323.564 441.151,305.286 457.617,311.92 474.082,328.975 539.945,300.321 556.41,179.327 
  572.876,81.0012 
  "/>
<polyline clip-path="url(#clip982)" style="stroke:#c271d2; stroke-width:1; stroke-opacity:1; fill:none" points="
  62.4428,303.328 78.9084,326.169 95.374,313.388 111.84,304.077 177.702,250.481 194.168,275.48 210.633,303.113 227.099,285.324 292.961,319.347 309.427,301.098 
  325.892,309.2 342.358,234.42 358.823,205.693 408.22,263.966 424.686,292.995 441.151,281.697 457.617,302.163 474.082,307.905 539.945,229.224 556.41,91.0036 
  572.876,79.6843 
  "/>
<path clip-path="url(#clip980)" d="
M481.998 99.4044 L570.154 99.4044 L570.154 23.8044 L481.998 23.8044  Z
  " fill="#ffffff" fill-rule="evenodd" fill-opacity="1"/>
<polyline clip-path="url(#clip980)" style="stroke:#000000; stroke-width:1; stroke-opacity:1; fill:none" points="
  481.998,99.4044 570.154,99.4044 570.154,23.8044 481.998,23.8044 481.998,99.4044 
  "/>
<polyline clip-path="url(#clip980)" style="stroke:#009af9; stroke-width:1; stroke-opacity:1; fill:none" points="
  488.01,38.9244 524.08,38.9244 
  "/>
<path clip-path="url(#clip980)" d="M 0 0 M534.097 35.3972 Q532.824 35.3972 532.071 36.3463 Q531.325 37.2953 531.325 38.9331 Q531.325 40.565 532.071 41.5141 Q532.824 42.4631 534.097 42.4631 Q535.37 42.4631 536.111 41.5141 Q536.857 40.565 536.857 38.9331 Q536.857 37.2953 536.111 36.3463 Q535.37 35.3972 534.097 35.3972 M534.097 34.4481 Q535.914 34.4481 537.002 35.6692 Q538.09 36.8845 538.09 38.9331 Q538.09 40.9759 537.002 42.1969 Q535.914 43.4122 534.097 43.4122 Q532.274 43.4122 531.18 42.1969 Q530.092 40.9817 530.092 38.9331 Q530.092 36.8845 531.18 35.6692 Q532.274 34.4481 534.097 34.4481 Z" fill="#000000" fill-rule="evenodd" fill-opacity="1" /><path clip-path="url(#clip980)" d="M 0 0 M540.237 42.2722 L540.237 45.7097 L539.166 45.7097 L539.166 36.7629 L540.237 36.7629 L540.237 37.7467 Q540.572 37.168 541.082 36.8903 Q541.597 36.6067 542.308 36.6067 Q543.489 36.6067 544.224 37.5442 Q544.965 38.4817 544.965 40.0095 Q544.965 41.5372 544.224 42.4747 Q543.489 43.4122 542.308 43.4122 Q541.597 43.4122 541.082 43.1344 Q540.572 42.8509 540.237 42.2722 M543.859 40.0095 Q543.859 38.8347 543.373 38.1692 Q542.893 37.4979 542.048 37.4979 Q541.203 37.4979 540.717 38.1692 Q540.237 38.8347 540.237 40.0095 Q540.237 41.1842 540.717 41.8555 Q541.203 42.521 542.048 42.521 Q542.893 42.521 543.373 41.8555 Q543.859 41.1842 543.859 40.0095 Z" fill="#000000" fill-rule="evenodd" fill-opacity="1" /><path clip-path="url(#clip980)" d="M 0 0 M551.626 39.7375 L551.626 40.2583 L546.73 40.2583 Q546.799 41.3578 547.389 41.9365 Q547.986 42.5094 549.045 42.5094 Q549.658 42.5094 550.231 42.359 Q550.81 42.2085 551.377 41.9076 L551.377 42.9145 Q550.804 43.1576 550.202 43.2849 Q549.6 43.4122 548.981 43.4122 Q547.43 43.4122 546.521 42.5094 Q545.619 41.6067 545.619 40.0673 Q545.619 38.4759 546.475 37.5442 Q547.337 36.6067 548.796 36.6067 Q550.104 36.6067 550.862 37.4516 Q551.626 38.2907 551.626 39.7375 M550.561 39.425 Q550.549 38.5511 550.069 38.0303 Q549.594 37.5095 548.807 37.5095 Q547.916 37.5095 547.378 38.0129 Q546.845 38.5164 546.764 39.4308 L550.561 39.425 Z" fill="#000000" fill-rule="evenodd" fill-opacity="1" /><path clip-path="url(#clip980)" d="M 0 0 M558.13 39.3324 L558.13 43.2444 L557.065 43.2444 L557.065 39.3671 Q557.065 38.447 556.707 37.9898 Q556.348 37.5326 555.63 37.5326 Q554.768 37.5326 554.27 38.0824 Q553.773 38.6321 553.773 39.5812 L553.773 43.2444 L552.702 43.2444 L552.702 36.7629 L553.773 36.7629 L553.773 37.7699 Q554.154 37.1854 554.67 36.896 Q555.19 36.6067 555.867 36.6067 Q556.984 36.6067 557.557 37.3011 Q558.13 37.9898 558.13 39.3324 Z" fill="#000000" fill-rule="evenodd" fill-opacity="1" /><polyline clip-path="url(#clip980)" style="stroke:#e26f46; stroke-width:1; stroke-opacity:1; fill:none" points="
  488.01,54.0444 524.08,54.0444 
  "/>
<path clip-path="url(#clip980)" d="M 0 0 M530.092 49.7244 L531.261 49.7244 L531.261 53.266 L535.509 53.266 L535.509 49.7244 L536.678 49.7244 L536.678 58.3644 L535.509 58.3644 L535.509 54.2498 L531.261 54.2498 L531.261 58.3644 L530.092 58.3644 L530.092 49.7244 Z" fill="#000000" fill-rule="evenodd" fill-opacity="1" /><path clip-path="url(#clip980)" d="M 0 0 M537.795 51.8829 L538.859 51.8829 L538.859 58.3644 L537.795 58.3644 L537.795 51.8829 M537.795 49.3598 L538.859 49.3598 L538.859 50.7082 L537.795 50.7082 L537.795 49.3598 Z" fill="#000000" fill-rule="evenodd" fill-opacity="1" /><path clip-path="url(#clip980)" d="M 0 0 M544.241 55.0484 Q544.241 53.891 543.761 53.2545 Q543.286 52.6179 542.424 52.6179 Q541.568 52.6179 541.087 53.2545 Q540.613 53.891 540.613 55.0484 Q540.613 56.2 541.087 56.8366 Q541.568 57.4732 542.424 57.4732 Q543.286 57.4732 543.761 56.8366 Q544.241 56.2 544.241 55.0484 M545.306 57.56 Q545.306 59.2151 544.571 60.0195 Q543.836 60.8297 542.32 60.8297 Q541.759 60.8297 541.261 60.7428 Q540.763 60.6618 540.295 60.4882 L540.295 59.4523 Q540.763 59.707 541.221 59.8285 Q541.678 59.95 542.152 59.95 Q543.2 59.95 543.72 59.4003 Q544.241 58.8563 544.241 57.751 L544.241 57.2243 Q543.911 57.7973 543.396 58.0808 Q542.881 58.3644 542.164 58.3644 Q540.972 58.3644 540.242 57.4558 Q539.513 56.5473 539.513 55.0484 Q539.513 53.5438 540.242 52.6353 Q540.972 51.7267 542.164 51.7267 Q542.881 51.7267 543.396 52.0103 Q543.911 52.2938 544.241 52.8667 L544.241 51.8829 L545.306 51.8829 L545.306 57.56 Z" fill="#000000" fill-rule="evenodd" fill-opacity="1" /><path clip-path="url(#clip980)" d="M 0 0 M551.811 54.4524 L551.811 58.3644 L550.746 58.3644 L550.746 54.4871 Q550.746 53.567 550.387 53.1098 Q550.028 52.6526 549.311 52.6526 Q548.448 52.6526 547.951 53.2024 Q547.453 53.7521 547.453 54.7012 L547.453 58.3644 L546.383 58.3644 L546.383 49.3598 L547.453 49.3598 L547.453 52.8899 Q547.835 52.3054 548.35 52.016 Q548.871 51.7267 549.548 51.7267 Q550.665 51.7267 551.238 52.4211 Q551.811 53.1098 551.811 54.4524 Z" fill="#000000" fill-rule="evenodd" fill-opacity="1" /><polyline clip-path="url(#clip980)" style="stroke:#3da44d; stroke-width:1; stroke-opacity:1; fill:none" points="
  488.01,69.1644 524.08,69.1644 
  "/>
<path clip-path="url(#clip980)" d="M 0 0 M530.092 64.8444 L531.261 64.8444 L531.261 72.5006 L535.468 72.5006 L535.468 73.4844 L530.092 73.4844 L530.092 64.8444 Z" fill="#000000" fill-rule="evenodd" fill-opacity="1" /><path clip-path="url(#clip980)" d="M 0 0 M538.888 67.7495 Q538.032 67.7495 537.534 68.4208 Q537.036 69.0863 537.036 70.2495 Q537.036 71.4126 537.528 72.0839 Q538.026 72.7494 538.888 72.7494 Q539.739 72.7494 540.237 72.0781 Q540.734 71.4069 540.734 70.2495 Q540.734 69.0978 540.237 68.4265 Q539.739 67.7495 538.888 67.7495 M538.888 66.8467 Q540.277 66.8467 541.07 67.7495 Q541.863 68.6522 541.863 70.2495 Q541.863 71.8409 541.07 72.7494 Q540.277 73.6522 538.888 73.6522 Q537.494 73.6522 536.701 72.7494 Q535.914 71.8409 535.914 70.2495 Q535.914 68.6522 536.701 67.7495 Q537.494 66.8467 538.888 66.8467 Z" fill="#000000" fill-rule="evenodd" fill-opacity="1" /><path clip-path="url(#clip980)" d="M 0 0 M542.361 67.0029 L543.425 67.0029 L544.756 72.0608 L546.082 67.0029 L547.337 67.0029 L548.668 72.0608 L549.994 67.0029 L551.058 67.0029 L549.363 73.4844 L548.107 73.4844 L546.712 68.1719 L545.312 73.4844 L544.056 73.4844 L542.361 67.0029 Z" fill="#000000" fill-rule="evenodd" fill-opacity="1" /><polyline clip-path="url(#clip980)" style="stroke:#c271d2; stroke-width:1; stroke-opacity:1; fill:none" points="
  488.01,84.2844 524.08,84.2844 
  "/>
<path clip-path="url(#clip980)" d="M 0 0 M537.06 80.6299 L537.06 81.8625 Q536.469 81.3128 535.798 81.0408 Q535.133 80.7688 534.38 80.7688 Q532.899 80.7688 532.112 81.6773 Q531.325 82.5801 531.325 84.2931 Q531.325 86.0002 532.112 86.9088 Q532.899 87.8116 534.38 87.8116 Q535.133 87.8116 535.798 87.5396 Q536.469 87.2676 537.06 86.7178 L537.06 87.9389 Q536.446 88.3555 535.758 88.5639 Q535.075 88.7722 534.311 88.7722 Q532.349 88.7722 531.221 87.5743 Q530.092 86.3706 530.092 84.2931 Q530.092 82.2097 531.221 81.0118 Q532.349 79.8081 534.311 79.8081 Q535.086 79.8081 535.769 80.0165 Q536.458 80.219 537.06 80.6299 Z" fill="#000000" fill-rule="evenodd" fill-opacity="1" /><path clip-path="url(#clip980)" d="M 0 0 M538.177 79.5998 L539.241 79.5998 L539.241 88.6044 L538.177 88.6044 L538.177 79.5998 Z" fill="#000000" fill-rule="evenodd" fill-opacity="1" /><path clip-path="url(#clip980)" d="M 0 0 M542.87 82.8695 Q542.013 82.8695 541.516 83.5408 Q541.018 84.2063 541.018 85.3695 Q541.018 86.5326 541.51 87.2039 Q542.008 87.8694 542.87 87.8694 Q543.72 87.8694 544.218 87.1981 Q544.716 86.5269 544.716 85.3695 Q544.716 84.2178 544.218 83.5465 Q543.72 82.8695 542.87 82.8695 M542.87 81.9667 Q544.259 81.9667 545.052 82.8695 Q545.844 83.7722 545.844 85.3695 Q545.844 86.9609 545.052 87.8694 Q544.259 88.7722 542.87 88.7722 Q541.475 88.7722 540.682 87.8694 Q539.895 86.9609 539.895 85.3695 Q539.895 83.7722 540.682 82.8695 Q541.475 81.9667 542.87 81.9667 Z" fill="#000000" fill-rule="evenodd" fill-opacity="1" /><path clip-path="url(#clip980)" d="M 0 0 M551.093 82.3139 L551.093 83.3209 Q550.642 83.0894 550.156 82.9736 Q549.67 82.8579 549.149 82.8579 Q548.356 82.8579 547.957 83.1009 Q547.563 83.344 547.563 83.8301 Q547.563 84.2005 547.847 84.4146 Q548.13 84.6229 548.987 84.8139 L549.351 84.8949 Q550.486 85.138 550.96 85.5836 Q551.44 86.0234 551.44 86.8162 Q551.44 87.719 550.723 88.2456 Q550.011 88.7722 548.761 88.7722 Q548.24 88.7722 547.673 88.668 Q547.112 88.5697 546.487 88.3671 L546.487 87.2676 Q547.077 87.5743 547.65 87.7306 Q548.223 87.881 548.784 87.881 Q549.536 87.881 549.942 87.6264 Q550.347 87.366 550.347 86.8972 Q550.347 86.4632 550.051 86.2317 Q549.762 86.0002 548.773 85.7861 L548.402 85.6993 Q547.413 85.491 546.973 85.0627 Q546.533 84.6287 546.533 83.8764 Q546.533 82.9621 547.181 82.4644 Q547.829 81.9667 549.021 81.9667 Q549.612 81.9667 550.132 82.0535 Q550.653 82.1403 551.093 82.3139 Z" fill="#000000" fill-rule="evenodd" fill-opacity="1" /><path clip-path="url(#clip980)" d="M 0 0 M558.101 85.0975 L558.101 85.6183 L553.205 85.6183 Q553.275 86.7178 553.865 87.2965 Q554.461 87.8694 555.52 87.8694 Q556.134 87.8694 556.707 87.719 Q557.285 87.5685 557.852 87.2676 L557.852 88.2745 Q557.279 88.5176 556.678 88.6449 Q556.076 88.7722 555.457 88.7722 Q553.906 88.7722 552.997 87.8694 Q552.094 86.9667 552.094 85.4273 Q552.094 83.8359 552.951 82.9042 Q553.813 81.9667 555.271 81.9667 Q556.579 81.9667 557.337 82.8116 Q558.101 83.6507 558.101 85.0975 M557.036 84.785 Q557.025 83.9111 556.544 83.3903 Q556.07 82.8695 555.283 82.8695 Q554.392 82.8695 553.854 83.3729 Q553.321 83.8764 553.24 84.7908 L557.036 84.785 Z" fill="#000000" fill-rule="evenodd" fill-opacity="1" /></svg>
