<?xml version="1.0" encoding="utf-8"?>
<svg xmlns="http://www.w3.org/2000/svg" xmlns:xlink="http://www.w3.org/1999/xlink" width="150" height="100" viewBox="0 0 600 400">
<defs>
  <clipPath id="clip070">
    <rect x="0" y="0" width="600" height="400"/>
  </clipPath>
</defs>
<path clip-path="url(#clip070)" d="
M0 400 L600 400 L600 0 L0 0  Z
  " fill="#ffffff" fill-rule="evenodd" fill-opacity="1"/>
<defs>
  <clipPath id="clip071">
    <rect x="120" y="0" width="421" height="400"/>
  </clipPath>
</defs>
<path clip-path="url(#clip070)" d="
M47.1298 337.479 L588.189 337.479 L588.189 11.811 L47.1298 11.811  Z
  " fill="#ffffff" fill-rule="evenodd" fill-opacity="1"/>
<defs>
  <clipPath id="clip072">
    <rect x="47" y="11" width="542" height="327"/>
  </clipPath>
</defs>
<polyline clip-path="url(#clip072)" style="stroke:#000000; stroke-width:0.5; stroke-opacity:0.1; fill:none" points="
  73.433,337.479 73.433,11.811 
  "/>
<polyline clip-path="url(#clip072)" style="stroke:#000000; stroke-width:0.5; stroke-opacity:0.1; fill:none" points="
  97.8557,337.479 97.8557,11.811 
  "/>
<polyline clip-path="url(#clip072)" style="stroke:#000000; stroke-width:0.5; stroke-opacity:0.1; fill:none" points="
  122.278,337.479 122.278,11.811 
  "/>
<polyline clip-path="url(#clip072)" style="stroke:#000000; stroke-width:0.5; stroke-opacity:0.1; fill:none" points="
  146.701,337.479 146.701,11.811 
  "/>
<polyline clip-path="url(#clip072)" style="stroke:#000000; stroke-width:0.5; stroke-opacity:0.1; fill:none" points="
  171.124,337.479 171.124,11.811 
  "/>
<polyline clip-path="url(#clip072)" style="stroke:#000000; stroke-width:0.5; stroke-opacity:0.1; fill:none" points="
  195.546,337.479 195.546,11.811 
  "/>
<polyline clip-path="url(#clip072)" style="stroke:#000000; stroke-width:0.5; stroke-opacity:0.1; fill:none" points="
  219.969,337.479 219.969,11.811 
  "/>
<polyline clip-path="url(#clip072)" style="stroke:#000000; stroke-width:0.5; stroke-opacity:0.1; fill:none" points="
  244.391,337.479 244.391,11.811 
  "/>
<polyline clip-path="url(#clip072)" style="stroke:#000000; stroke-width:0.5; stroke-opacity:0.1; fill:none" points="
  268.814,337.479 268.814,11.811 
  "/>
<polyline clip-path="url(#clip072)" style="stroke:#000000; stroke-width:0.5; stroke-opacity:0.1; fill:none" points="
  293.237,337.479 293.237,11.811 
  "/>
<polyline clip-path="url(#clip072)" style="stroke:#000000; stroke-width:0.5; stroke-opacity:0.1; fill:none" points="
  317.659,337.479 317.659,11.811 
  "/>
<polyline clip-path="url(#clip072)" style="stroke:#000000; stroke-width:0.5; stroke-opacity:0.1; fill:none" points="
  342.082,337.479 342.082,11.811 
  "/>
<polyline clip-path="url(#clip072)" style="stroke:#000000; stroke-width:0.5; stroke-opacity:0.1; fill:none" points="
  366.505,337.479 366.505,11.811 
  "/>
<polyline clip-path="url(#clip072)" style="stroke:#000000; stroke-width:0.5; stroke-opacity:0.1; fill:none" points="
  390.927,337.479 390.927,11.811 
  "/>
<polyline clip-path="url(#clip072)" style="stroke:#000000; stroke-width:0.5; stroke-opacity:0.1; fill:none" points="
  415.35,337.479 415.35,11.811 
  "/>
<polyline clip-path="url(#clip072)" style="stroke:#000000; stroke-width:0.5; stroke-opacity:0.1; fill:none" points="
  439.773,337.479 439.773,11.811 
  "/>
<polyline clip-path="url(#clip072)" style="stroke:#000000; stroke-width:0.5; stroke-opacity:0.1; fill:none" points="
  464.195,337.479 464.195,11.811 
  "/>
<polyline clip-path="url(#clip072)" style="stroke:#000000; stroke-width:0.5; stroke-opacity:0.1; fill:none" points="
  488.618,337.479 488.618,11.811 
  "/>
<polyline clip-path="url(#clip072)" style="stroke:#000000; stroke-width:0.5; stroke-opacity:0.1; fill:none" points="
  513.041,337.479 513.041,11.811 
  "/>
<polyline clip-path="url(#clip072)" style="stroke:#000000; stroke-width:0.5; stroke-opacity:0.1; fill:none" points="
  537.463,337.479 537.463,11.811 
  "/>
<polyline clip-path="url(#clip072)" style="stroke:#000000; stroke-width:0.5; stroke-opacity:0.1; fill:none" points="
  561.886,337.479 561.886,11.811 
  "/>
<polyline clip-path="url(#clip070)" style="stroke:#000000; stroke-width:1; stroke-opacity:1; fill:none" points="
  47.1298,337.479 588.189,337.479 
  "/>
<polyline clip-path="url(#clip070)" style="stroke:#000000; stroke-width:1; stroke-opacity:1; fill:none" points="
  73.433,337.479 73.433,333.571 
  "/>
<polyline clip-path="url(#clip070)" style="stroke:#000000; stroke-width:1; stroke-opacity:1; fill:none" points="
  97.8557,337.479 97.8557,333.571 
  "/>
<polyline clip-path="url(#clip070)" style="stroke:#000000; stroke-width:1; stroke-opacity:1; fill:none" points="
  122.278,337.479 122.278,333.571 
  "/>
<polyline clip-path="url(#clip070)" style="stroke:#000000; stroke-width:1; stroke-opacity:1; fill:none" points="
  146.701,337.479 146.701,333.571 
  "/>
<polyline clip-path="url(#clip070)" style="stroke:#000000; stroke-width:1; stroke-opacity:1; fill:none" points="
  171.124,337.479 171.124,333.571 
  "/>
<polyline clip-path="url(#clip070)" style="stroke:#000000; stroke-width:1; stroke-opacity:1; fill:none" points="
  195.546,337.479 195.546,333.571 
  "/>
<polyline clip-path="url(#clip070)" style="stroke:#000000; stroke-width:1; stroke-opacity:1; fill:none" points="
  219.969,337.479 219.969,333.571 
  "/>
<polyline clip-path="url(#clip070)" style="stroke:#000000; stroke-width:1; stroke-opacity:1; fill:none" points="
  244.391,337.479 244.391,333.571 
  "/>
<polyline clip-path="url(#clip070)" style="stroke:#000000; stroke-width:1; stroke-opacity:1; fill:none" points="
  268.814,337.479 268.814,333.571 
  "/>
<polyline clip-path="url(#clip070)" style="stroke:#000000; stroke-width:1; stroke-opacity:1; fill:none" points="
  293.237,337.479 293.237,333.571 
  "/>
<polyline clip-path="url(#clip070)" style="stroke:#000000; stroke-width:1; stroke-opacity:1; fill:none" points="
  317.659,337.479 317.659,333.571 
  "/>
<polyline clip-path="url(#clip070)" style="stroke:#000000; stroke-width:1; stroke-opacity:1; fill:none" points="
  342.082,337.479 342.082,333.571 
  "/>
<polyline clip-path="url(#clip070)" style="stroke:#000000; stroke-width:1; stroke-opacity:1; fill:none" points="
  366.505,337.479 366.505,333.571 
  "/>
<polyline clip-path="url(#clip070)" style="stroke:#000000; stroke-width:1; stroke-opacity:1; fill:none" points="
  390.927,337.479 390.927,333.571 
  "/>
<polyline clip-path="url(#clip070)" style="stroke:#000000; stroke-width:1; stroke-opacity:1; fill:none" points="
  415.35,337.479 415.35,333.571 
  "/>
<polyline clip-path="url(#clip070)" style="stroke:#000000; stroke-width:1; stroke-opacity:1; fill:none" points="
  439.773,337.479 439.773,333.571 
  "/>
<polyline clip-path="url(#clip070)" style="stroke:#000000; stroke-width:1; stroke-opacity:1; fill:none" points="
  464.195,337.479 464.195,333.571 
  "/>
<polyline clip-path="url(#clip070)" style="stroke:#000000; stroke-width:1; stroke-opacity:1; fill:none" points="
  488.618,337.479 488.618,333.571 
  "/>
<polyline clip-path="url(#clip070)" style="stroke:#000000; stroke-width:1; stroke-opacity:1; fill:none" points="
  513.041,337.479 513.041,333.571 
  "/>
<polyline clip-path="url(#clip070)" style="stroke:#000000; stroke-width:1; stroke-opacity:1; fill:none" points="
  537.463,337.479 537.463,333.571 
  "/>
<polyline clip-path="url(#clip070)" style="stroke:#000000; stroke-width:1; stroke-opacity:1; fill:none" points="
  561.886,337.479 561.886,333.571 
  "/>
<path clip-path="url(#clip070)" d="M 0 0 M53.0908 396.281 L55.1307 392.748 L55.9827 393.24 L53.2397 397.991 L52.3877 397.499 Q52.124 396.578 51.6946 395.007 Q51.2631 393.428 51.12 393.005 Q50.8544 392.203 50.5884 391.796 Q50.3204 391.381 49.9545 391.169 Q49.3582 390.825 48.7392 391.029 Q48.1232 391.228 47.7355 391.9 Q47.4606 392.376 47.3192 393.002 Q47.1808 393.624 47.1694 394.419 L46.147 393.829 Q46.2544 393.076 46.4358 392.472 Q46.6173 391.869 46.8719 391.428 Q47.5432 390.265 48.5238 389.909 Q49.5045 389.553 50.4768 390.114 Q50.9379 390.381 51.2525 390.796 Q51.5651 391.204 51.8631 391.984 Q51.9361 392.193 52.245 393.267 Q52.5489 394.338 53.0908 396.281 Z" fill="#000000" fill-rule="evenodd" fill-opacity="1" /><path clip-path="url(#clip070)" d="M 0 0 M51.0505 386.042 Q50.5991 386.824 51.1423 387.665 Q51.6834 388.499 53.227 389.39 Q54.7656 390.278 55.7631 390.333 Q56.7585 390.38 57.2099 389.598 Q57.6641 388.811 57.123 387.978 Q56.5798 387.136 55.0412 386.248 Q53.4976 385.357 52.5023 385.31 Q51.5048 385.255 51.0505 386.042 M50.2486 385.579 Q50.9749 384.321 52.3542 384.235 Q53.7313 384.142 55.6257 385.235 Q57.5151 386.326 58.1276 387.569 Q58.738 388.803 58.0117 390.061 Q57.2855 391.319 55.9083 391.413 Q54.529 391.498 52.6396 390.408 Q50.7452 389.314 50.1348 388.079 Q49.5223 386.837 50.2486 385.579 Z" fill="#000000" fill-rule="evenodd" fill-opacity="1" /><path clip-path="url(#clip070)" d="M 0 0 M59.6446 384.93 L61.6845 381.396 L62.5365 381.888 L59.7935 386.639 L58.9415 386.148 Q58.6778 385.227 58.2484 383.656 Q57.8169 382.077 57.6738 381.653 Q57.4082 380.852 57.1422 380.444 Q56.8742 380.029 56.5083 379.818 Q55.9119 379.474 55.293 379.678 Q54.677 379.877 54.2892 380.548 Q54.0144 381.024 53.873 381.651 Q53.7346 382.273 53.7232 383.068 L52.7008 382.478 Q52.8082 381.724 52.9896 381.121 Q53.171 380.517 53.4257 380.076 Q54.097 378.914 55.0776 378.558 Q56.0583 378.202 57.0306 378.763 Q57.4916 379.029 57.8063 379.445 Q58.1189 379.852 58.4169 380.632 Q58.4899 380.842 58.7988 381.915 Q59.1027 382.986 59.6446 384.93 Z" fill="#000000" fill-rule="evenodd" fill-opacity="1" /><path clip-path="url(#clip070)" d="M 0 0 M57.6043 374.691 Q57.1529 375.472 57.6961 376.314 Q58.2372 377.148 59.7808 378.039 Q61.3194 378.927 62.3169 378.982 Q63.3123 379.028 63.7636 378.247 Q64.2179 377.46 63.6768 376.626 Q63.1336 375.785 61.595 374.896 Q60.0514 374.005 59.056 373.958 Q58.0585 373.904 57.6043 374.691 M56.8024 374.228 Q57.5287 372.97 58.9079 372.884 Q60.2851 372.79 62.1795 373.884 Q64.0689 374.975 64.6814 376.217 Q65.2918 377.452 64.5655 378.71 Q63.8392 379.968 62.4621 380.061 Q61.0828 380.147 59.1934 379.056 Q57.299 377.962 56.6886 376.728 Q56.0761 375.486 56.8024 374.228 Z" fill="#000000" fill-rule="evenodd" fill-opacity="1" /><path clip-path="url(#clip070)" d="M 0 0 M62.98 373.678 L64.5396 370.977 L65.3616 371.451 L63.802 374.153 L62.98 373.678 Z" fill="#000000" fill-rule="evenodd" fill-opacity="1" /><path clip-path="url(#clip070)" d="M 0 0 M67.6451 371.072 L68.6 369.418 L62.8917 366.123 L62.2137 368.13 L61.2916 367.598 L61.9637 365.6 L62.5482 364.588 L69.1787 368.416 L70.1335 366.762 L70.9855 367.254 L68.4971 371.564 L67.6451 371.072 Z" fill="#000000" fill-rule="evenodd" fill-opacity="1" /><path clip-path="url(#clip070)" d="M 0 0 M71.2707 364.793 L73.3106 361.259 L74.1626 361.751 L71.4196 366.502 L70.5676 366.011 Q70.3039 365.09 69.8745 363.519 Q69.443 361.94 69.2999 361.516 Q69.0342 360.715 68.7683 360.308 Q68.5003 359.892 68.1344 359.681 Q67.538 359.337 66.9191 359.541 Q66.3031 359.74 65.9153 360.411 Q65.6405 360.887 65.4991 361.514 Q65.3607 362.136 65.3493 362.931 L64.3269 362.341 Q64.4343 361.587 64.6157 360.984 Q64.7971 360.38 65.0518 359.939 Q65.7231 358.777 66.7037 358.421 Q67.6844 358.065 68.6567 358.626 Q69.1177 358.892 69.4324 359.308 Q69.745 359.715 70.043 360.496 Q70.116 360.705 70.4249 361.778 Q70.7288 362.849 71.2707 364.793 Z" fill="#000000" fill-rule="evenodd" fill-opacity="1" /><path clip-path="url(#clip070)" d="M 0 0 M71.2294 359.39 L72.789 356.688 L73.6109 357.163 L72.0513 359.864 L71.2294 359.39 Z" fill="#000000" fill-rule="evenodd" fill-opacity="1" /><path clip-path="url(#clip070)" d="M 0 0 M76.2967 356.087 L78.3366 352.554 L79.1886 353.046 L76.4456 357.797 L75.5936 357.305 Q75.3299 356.385 74.9005 354.814 Q74.469 353.235 74.3259 352.811 Q74.0603 352.01 73.7943 351.602 Q73.5263 351.187 73.1604 350.976 Q72.564 350.631 71.9451 350.835 Q71.3291 351.034 70.9414 351.706 Q70.6665 352.182 70.5251 352.809 Q70.3867 353.43 70.3753 354.226 L69.3529 353.635 Q69.4603 352.882 69.6417 352.279 Q69.8232 351.675 70.0778 351.234 Q70.7491 350.071 71.7297 349.715 Q72.7104 349.359 73.6827 349.921 Q74.1437 350.187 74.4584 350.602 Q74.771 351.01 75.069 351.79 Q75.142 351.999 75.4509 353.073 Q75.7548 354.144 76.2967 356.087 Z" fill="#000000" fill-rule="evenodd" fill-opacity="1" /><path clip-path="url(#clip070)" d="M 0 0 M79.0716 351.281 L80.0264 349.627 L74.3181 346.332 L73.6402 348.339 L72.718 347.807 L73.3902 345.809 L73.9747 344.797 L80.6051 348.625 L81.56 346.971 L82.412 347.463 L79.9236 351.773 L79.0716 351.281 Z" fill="#000000" fill-rule="evenodd" fill-opacity="1" /><path clip-path="url(#clip070)" d="M 0 0 M126.145 396.652 L128.185 393.119 L129.037 393.611 L126.293 398.362 L125.441 397.87 Q125.178 396.949 124.748 395.378 Q124.317 393.799 124.174 393.376 Q123.908 392.574 123.642 392.167 Q123.374 391.751 123.008 391.54 Q122.412 391.196 121.793 391.4 Q121.177 391.599 120.789 392.27 Q120.514 392.747 120.373 393.373 Q120.235 393.995 120.223 394.79 L119.201 394.2 Q119.308 393.447 119.49 392.843 Q119.671 392.24 119.926 391.799 Q120.597 390.636 121.578 390.28 Q122.558 389.924 123.531 390.485 Q123.992 390.751 124.306 391.167 Q124.619 391.575 124.917 392.355 Q124.99 392.564 125.299 393.638 Q125.603 394.709 126.145 396.652 Z" fill="#000000" fill-rule="evenodd" fill-opacity="1" /><path clip-path="url(#clip070)" d="M 0 0 M124.104 386.413 Q123.653 387.195 124.196 388.036 Q124.737 388.87 126.281 389.761 Q127.819 390.649 128.817 390.704 Q129.812 390.751 130.264 389.969 Q130.718 389.182 130.177 388.349 Q129.634 387.507 128.095 386.619 Q126.551 385.728 125.556 385.681 Q124.559 385.626 124.104 386.413 M123.302 385.95 Q124.029 384.692 125.408 384.606 Q126.785 384.513 128.68 385.606 Q130.569 386.697 131.181 387.94 Q131.792 389.174 131.066 390.432 Q130.339 391.69 128.962 391.784 Q127.583 391.869 125.693 390.778 Q123.799 389.685 123.189 388.45 Q122.576 387.208 123.302 385.95 Z" fill="#000000" fill-rule="evenodd" fill-opacity="1" /><path clip-path="url(#clip070)" d="M 0 0 M132.698 385.301 L134.738 381.767 L135.59 382.259 L132.847 387.01 L131.995 386.518 Q131.732 385.598 131.302 384.027 Q130.871 382.448 130.728 382.024 Q130.462 381.223 130.196 380.815 Q129.928 380.4 129.562 380.189 Q128.966 379.844 128.347 380.048 Q127.731 380.247 127.343 380.919 Q127.068 381.395 126.927 382.022 Q126.788 382.643 126.777 383.439 L125.755 382.848 Q125.862 382.095 126.043 381.492 Q126.225 380.888 126.479 380.447 Q127.151 379.284 128.131 378.928 Q129.112 378.572 130.084 379.134 Q130.545 379.4 130.86 379.816 Q131.173 380.223 131.471 381.003 Q131.544 381.213 131.853 382.286 Q132.156 383.357 132.698 385.301 Z" fill="#000000" fill-rule="evenodd" fill-opacity="1" /><path clip-path="url(#clip070)" d="M 0 0 M130.658 375.061 Q130.207 375.843 130.75 376.685 Q131.291 377.518 132.835 378.41 Q134.373 379.298 135.371 379.353 Q136.366 379.399 136.817 378.618 Q137.272 377.831 136.731 376.997 Q136.187 376.156 134.649 375.267 Q133.105 374.376 132.11 374.329 Q131.112 374.275 130.658 375.061 M129.856 374.598 Q130.582 373.341 131.962 373.255 Q133.339 373.161 135.233 374.255 Q137.123 375.346 137.735 376.588 Q138.346 377.823 137.619 379.08 Q136.893 380.338 135.516 380.432 Q134.137 380.518 132.247 379.427 Q130.353 378.333 129.742 377.099 Q129.13 375.856 129.856 374.598 Z" fill="#000000" fill-rule="evenodd" fill-opacity="1" /><path clip-path="url(#clip070)" d="M 0 0 M136.034 374.049 L137.593 371.348 L138.415 371.822 L136.856 374.523 L136.034 374.049 Z" fill="#000000" fill-rule="evenodd" fill-opacity="1" /><path clip-path="url(#clip070)" d="M 0 0 M140.699 371.443 L141.654 369.789 L135.945 366.494 L135.268 368.501 L134.345 367.969 L135.018 365.971 L135.602 364.959 L142.232 368.787 L143.187 367.133 L144.039 367.625 L141.551 371.935 L140.699 371.443 Z" fill="#000000" fill-rule="evenodd" fill-opacity="1" /><path clip-path="url(#clip070)" d="M 0 0 M144.324 365.164 L146.364 361.63 L147.216 362.122 L144.473 366.873 L143.621 366.381 Q143.358 365.461 142.928 363.89 Q142.497 362.311 142.354 361.887 Q142.088 361.086 141.822 360.678 Q141.554 360.263 141.188 360.052 Q140.592 359.707 139.973 359.911 Q139.357 360.11 138.969 360.782 Q138.694 361.258 138.553 361.885 Q138.414 362.507 138.403 363.302 L137.381 362.711 Q137.488 361.958 137.67 361.355 Q137.851 360.751 138.106 360.31 Q138.777 359.147 139.758 358.791 Q140.738 358.435 141.71 358.997 Q142.172 359.263 142.486 359.679 Q142.799 360.086 143.097 360.866 Q143.17 361.076 143.479 362.149 Q143.783 363.22 144.324 365.164 Z" fill="#000000" fill-rule="evenodd" fill-opacity="1" /><path clip-path="url(#clip070)" d="M 0 0 M144.283 359.761 L145.843 357.059 L146.665 357.534 L145.105 360.235 L144.283 359.761 Z" fill="#000000" fill-rule="evenodd" fill-opacity="1" /><path clip-path="url(#clip070)" d="M 0 0 M149.35 356.458 L151.39 352.925 L152.242 353.417 L149.499 358.168 L148.647 357.676 Q148.384 356.755 147.954 355.184 Q147.523 353.605 147.38 353.182 Q147.114 352.381 146.848 351.973 Q146.58 351.558 146.214 351.346 Q145.618 351.002 144.999 351.206 Q144.383 351.405 143.995 352.077 Q143.72 352.553 143.579 353.179 Q143.441 353.801 143.429 354.596 L142.407 354.006 Q142.514 353.253 142.696 352.649 Q142.877 352.046 143.132 351.605 Q143.803 350.442 144.784 350.086 Q145.764 349.73 146.736 350.291 Q147.198 350.558 147.512 350.973 Q147.825 351.381 148.123 352.161 Q148.196 352.37 148.505 353.444 Q148.809 354.515 149.35 356.458 Z" fill="#000000" fill-rule="evenodd" fill-opacity="1" /><path clip-path="url(#clip070)" d="M 0 0 M147.882 345.727 L150.4 350.589 L151.876 348.033 L147.882 345.727 M146.846 345.483 L147.581 344.21 L152.457 347.026 L153.074 345.958 L153.916 346.444 L153.299 347.512 L155.064 348.53 L154.482 349.538 L152.718 348.519 L150.768 351.897 L149.79 351.333 L146.846 345.483 Z" fill="#000000" fill-rule="evenodd" fill-opacity="1" /><path clip-path="url(#clip070)" d="M 0 0 M199.355 396.752 L201.395 393.219 L202.247 393.711 L199.504 398.462 L198.652 397.97 Q198.388 397.049 197.958 395.478 Q197.527 393.899 197.384 393.476 Q197.118 392.675 196.852 392.267 Q196.584 391.852 196.218 391.64 Q195.622 391.296 195.003 391.5 Q194.387 391.699 193.999 392.371 Q193.724 392.847 193.583 393.473 Q193.445 394.095 193.433 394.89 L192.411 394.3 Q192.518 393.547 192.7 392.943 Q192.881 392.34 193.136 391.899 Q193.807 390.736 194.788 390.38 Q195.768 390.024 196.741 390.586 Q197.202 390.852 197.516 391.267 Q197.829 391.675 198.127 392.455 Q198.2 392.664 198.509 393.738 Q198.813 394.809 199.355 396.752 Z" fill="#000000" fill-rule="evenodd" fill-opacity="1" /><path clip-path="url(#clip070)" d="M 0 0 M197.314 386.513 Q196.863 387.295 197.406 388.136 Q197.947 388.97 199.491 389.861 Q201.029 390.75 202.027 390.804 Q203.022 390.851 203.474 390.069 Q203.928 389.282 203.387 388.449 Q202.844 387.607 201.305 386.719 Q199.761 385.828 198.766 385.781 Q197.769 385.726 197.314 386.513 M196.512 386.05 Q197.239 384.792 198.618 384.706 Q199.995 384.613 201.89 385.707 Q203.779 386.797 204.391 388.04 Q205.002 389.274 204.276 390.532 Q203.549 391.79 202.172 391.884 Q200.793 391.97 198.903 390.879 Q197.009 389.785 196.399 388.55 Q195.786 387.308 196.512 386.05 Z" fill="#000000" fill-rule="evenodd" fill-opacity="1" /><path clip-path="url(#clip070)" d="M 0 0 M205.908 385.401 L207.948 381.868 L208.8 382.359 L206.057 387.111 L205.205 386.619 Q204.942 385.698 204.512 384.127 Q204.081 382.548 203.938 382.125 Q203.672 381.323 203.406 380.916 Q203.138 380.5 202.772 380.289 Q202.176 379.945 201.557 380.149 Q200.941 380.348 200.553 381.019 Q200.278 381.495 200.137 382.122 Q199.998 382.744 199.987 383.539 L198.965 382.949 Q199.072 382.196 199.253 381.592 Q199.435 380.988 199.69 380.547 Q200.361 379.385 201.341 379.029 Q202.322 378.673 203.294 379.234 Q203.755 379.5 204.07 379.916 Q204.383 380.323 204.681 381.104 Q204.754 381.313 205.063 382.387 Q205.367 383.457 205.908 385.401 Z" fill="#000000" fill-rule="evenodd" fill-opacity="1" /><path clip-path="url(#clip070)" d="M 0 0 M203.868 375.162 Q203.417 375.943 203.96 376.785 Q204.501 377.619 206.045 378.51 Q207.583 379.398 208.581 379.453 Q209.576 379.5 210.027 378.718 Q210.482 377.931 209.941 377.097 Q209.397 376.256 207.859 375.367 Q206.315 374.476 205.32 374.429 Q204.322 374.375 203.868 375.162 M203.066 374.699 Q203.793 373.441 205.172 373.355 Q206.549 373.261 208.443 374.355 Q210.333 375.446 210.945 376.688 Q211.556 377.923 210.829 379.181 Q210.103 380.439 208.726 380.532 Q207.347 380.618 205.457 379.527 Q203.563 378.433 202.952 377.199 Q202.34 375.957 203.066 374.699 Z" fill="#000000" fill-rule="evenodd" fill-opacity="1" /><path clip-path="url(#clip070)" d="M 0 0 M209.244 374.149 L210.803 371.448 L211.625 371.922 L210.066 374.624 L209.244 374.149 Z" fill="#000000" fill-rule="evenodd" fill-opacity="1" /><path clip-path="url(#clip070)" d="M 0 0 M213.909 371.543 L214.864 369.89 L209.156 366.594 L208.478 368.601 L207.555 368.069 L208.228 366.071 L208.812 365.059 L215.443 368.887 L216.397 367.233 L217.249 367.725 L214.761 372.035 L213.909 371.543 Z" fill="#000000" fill-rule="evenodd" fill-opacity="1" /><path clip-path="url(#clip070)" d="M 0 0 M217.535 365.264 L219.574 361.731 L220.426 362.222 L217.683 366.974 L216.831 366.482 Q216.568 365.561 216.138 363.99 Q215.707 362.411 215.564 361.988 Q215.298 361.186 215.032 360.779 Q214.764 360.363 214.398 360.152 Q213.802 359.808 213.183 360.012 Q212.567 360.211 212.179 360.882 Q211.904 361.358 211.763 361.985 Q211.625 362.607 211.613 363.402 L210.591 362.812 Q210.698 362.059 210.88 361.455 Q211.061 360.851 211.316 360.41 Q211.987 359.248 212.968 358.892 Q213.948 358.536 214.92 359.097 Q215.382 359.363 215.696 359.779 Q216.009 360.186 216.307 360.967 Q216.38 361.176 216.689 362.25 Q216.993 363.32 217.535 365.264 Z" fill="#000000" fill-rule="evenodd" fill-opacity="1" /><path clip-path="url(#clip070)" d="M 0 0 M217.493 359.861 L219.053 357.159 L219.875 357.634 L218.315 360.335 L217.493 359.861 Z" fill="#000000" fill-rule="evenodd" fill-opacity="1" /><path clip-path="url(#clip070)" d="M 0 0 M220.645 352.526 Q221.22 351.889 221.946 351.767 Q222.674 351.639 223.396 352.056 Q224.504 352.695 224.67 353.807 Q224.837 354.919 224.027 356.322 Q223.755 356.793 223.37 357.24 Q222.993 357.684 222.501 358.108 L221.524 357.544 Q222.013 357.264 222.427 356.836 Q222.842 356.407 223.157 355.861 Q223.707 354.908 223.618 354.195 Q223.531 353.477 222.814 353.063 Q222.153 352.681 221.513 352.933 Q220.871 353.177 220.393 354.004 L219.89 354.876 L219.058 354.396 L219.585 353.484 Q220.016 352.737 219.949 352.17 Q219.877 351.601 219.315 351.277 Q218.739 350.944 218.196 351.179 Q217.651 351.405 217.211 352.167 Q216.971 352.583 216.786 353.111 Q216.601 353.639 216.462 354.32 L215.56 353.8 Q215.732 353.131 215.941 352.583 Q216.154 352.031 216.411 351.585 Q217.077 350.432 217.991 350.064 Q218.899 349.694 219.792 350.209 Q220.413 350.568 220.639 351.172 Q220.859 351.774 220.645 352.526 Z" fill="#000000" fill-rule="evenodd" fill-opacity="1" /><path clip-path="url(#clip070)" d="M 0 0 M220.639 346.114 Q220.187 346.896 220.731 347.737 Q221.272 348.571 222.815 349.462 Q224.354 350.35 225.351 350.405 Q226.347 350.452 226.798 349.67 Q227.253 348.883 226.711 348.05 Q226.168 347.208 224.63 346.32 Q223.086 345.428 222.091 345.382 Q221.093 345.327 220.639 346.114 M219.837 345.651 Q220.563 344.393 221.943 344.307 Q223.32 344.214 225.214 345.307 Q227.104 346.398 227.716 347.641 Q228.326 348.875 227.6 350.133 Q226.874 351.391 225.497 351.485 Q224.117 351.57 222.228 350.479 Q220.334 349.386 219.723 348.151 Q219.111 346.909 219.837 345.651 Z" fill="#000000" fill-rule="evenodd" fill-opacity="1" /><path clip-path="url(#clip070)" d="M 0 0 M272.62 396.757 L274.66 393.224 L275.512 393.716 L272.769 398.467 L271.917 397.975 Q271.653 397.054 271.223 395.483 Q270.792 393.904 270.649 393.481 Q270.383 392.68 270.117 392.272 Q269.849 391.857 269.483 391.646 Q268.887 391.301 268.268 391.505 Q267.652 391.704 267.264 392.376 Q266.989 392.852 266.848 393.479 Q266.71 394.1 266.698 394.895 L265.676 394.305 Q265.783 393.552 265.965 392.948 Q266.146 392.345 266.401 391.904 Q267.072 390.741 268.053 390.385 Q269.033 390.029 270.006 390.591 Q270.467 390.857 270.781 391.272 Q271.094 391.68 271.392 392.46 Q271.465 392.669 271.774 393.743 Q272.078 394.814 272.62 396.757 Z" fill="#000000" fill-rule="evenodd" fill-opacity="1" /><path clip-path="url(#clip070)" d="M 0 0 M270.579 386.518 Q270.128 387.3 270.671 388.141 Q271.212 388.975 272.756 389.866 Q274.294 390.755 275.292 390.809 Q276.287 390.856 276.739 390.074 Q277.193 389.287 276.652 388.454 Q276.109 387.612 274.57 386.724 Q273.026 385.833 272.031 385.786 Q271.034 385.731 270.579 386.518 M269.777 386.055 Q270.504 384.797 271.883 384.712 Q273.26 384.618 275.155 385.712 Q277.044 386.802 277.656 388.045 Q278.267 389.279 277.541 390.537 Q276.814 391.795 275.437 391.889 Q274.058 391.975 272.168 390.884 Q270.274 389.79 269.664 388.555 Q269.051 387.313 269.777 386.055 Z" fill="#000000" fill-rule="evenodd" fill-opacity="1" /><path clip-path="url(#clip070)" d="M 0 0 M279.173 385.406 L281.213 381.873 L282.065 382.364 L279.322 387.116 L278.47 386.624 Q278.207 385.703 277.777 384.132 Q277.346 382.553 277.203 382.13 Q276.937 381.328 276.671 380.921 Q276.403 380.505 276.037 380.294 Q275.441 379.95 274.822 380.154 Q274.206 380.353 273.818 381.024 Q273.543 381.5 273.402 382.127 Q273.263 382.749 273.252 383.544 L272.23 382.954 Q272.337 382.201 272.518 381.597 Q272.7 380.993 272.955 380.552 Q273.626 379.39 274.606 379.034 Q275.587 378.678 276.559 379.239 Q277.021 379.505 277.335 379.921 Q277.648 380.328 277.946 381.109 Q278.019 381.318 278.328 382.392 Q278.632 383.462 279.173 385.406 Z" fill="#000000" fill-rule="evenodd" fill-opacity="1" /><path clip-path="url(#clip070)" d="M 0 0 M281.948 380.6 L282.903 378.946 L277.195 375.65 L276.517 377.658 L275.595 377.125 L276.267 375.128 L276.851 374.115 L283.482 377.943 L284.437 376.29 L285.289 376.781 L282.8 381.091 L281.948 380.6 Z" fill="#000000" fill-rule="evenodd" fill-opacity="1" /><path clip-path="url(#clip070)" d="M 0 0 M282.356 374.42 L283.915 371.718 L284.737 372.193 L283.177 374.894 L282.356 374.42 Z" fill="#000000" fill-rule="evenodd" fill-opacity="1" /><path clip-path="url(#clip070)" d="M 0 0 M282.205 366.381 Q281.754 367.163 282.297 368.004 Q282.838 368.838 284.382 369.729 Q285.921 370.618 286.918 370.672 Q287.913 370.719 288.365 369.937 Q288.819 369.15 288.278 368.317 Q287.735 367.475 286.196 366.587 Q284.653 365.696 283.657 365.649 Q282.66 365.594 282.205 366.381 M281.404 365.918 Q282.13 364.66 283.509 364.575 Q284.886 364.481 286.781 365.575 Q288.67 366.665 289.283 367.908 Q289.893 369.142 289.167 370.4 Q288.44 371.658 287.063 371.752 Q285.684 371.838 283.795 370.747 Q281.9 369.653 281.29 368.418 Q280.677 367.176 281.404 365.918 Z" fill="#000000" fill-rule="evenodd" fill-opacity="1" /><path clip-path="url(#clip070)" d="M 0 0 M290.397 365.965 L291.352 364.312 L285.644 361.016 L284.966 363.023 L284.044 362.491 L284.716 360.493 L285.3 359.481 L291.931 363.309 L292.886 361.655 L293.738 362.147 L291.249 366.457 L290.397 365.965 Z" fill="#000000" fill-rule="evenodd" fill-opacity="1" /><path clip-path="url(#clip070)" d="M 0 0 M290.805 359.786 L292.364 357.084 L293.186 357.559 L291.627 360.26 L290.805 359.786 Z" fill="#000000" fill-rule="evenodd" fill-opacity="1" /><path clip-path="url(#clip070)" d="M 0 0 M290.654 351.747 Q290.203 352.529 290.746 353.37 Q291.287 354.204 292.831 355.095 Q294.37 355.983 295.367 356.038 Q296.362 356.085 296.814 355.303 Q297.268 354.516 296.727 353.683 Q296.184 352.841 294.645 351.953 Q293.102 351.062 292.106 351.015 Q291.109 350.96 290.654 351.747 M289.853 351.284 Q290.579 350.026 291.958 349.94 Q293.335 349.847 295.23 350.94 Q297.119 352.031 297.732 353.274 Q298.342 354.508 297.616 355.766 Q296.889 357.024 295.512 357.118 Q294.133 357.203 292.244 356.113 Q290.349 355.019 289.739 353.784 Q289.126 352.542 289.853 351.284 Z" fill="#000000" fill-rule="evenodd" fill-opacity="1" /><path clip-path="url(#clip070)" d="M 0 0 M292.12 347.669 L294.415 343.694 L295.267 344.186 L293.508 347.233 L295.342 348.292 Q295.394 348.028 295.486 347.788 Q295.574 347.544 295.701 347.323 Q296.424 346.071 297.533 345.735 Q298.642 345.4 299.815 346.077 Q301.023 346.774 301.26 347.914 Q301.493 349.05 300.703 350.419 Q300.431 350.89 300.067 351.335 Q299.706 351.774 299.245 352.203 L298.228 351.616 Q298.734 351.306 299.132 350.895 Q299.53 350.483 299.84 349.947 Q300.34 349.08 300.176 348.31 Q300.012 347.541 299.231 347.089 Q298.449 346.638 297.7 346.881 Q296.952 347.124 296.452 347.991 Q296.217 348.397 296.073 348.855 Q295.932 349.308 295.879 349.839 L292.12 347.669 Z" fill="#000000" fill-rule="evenodd" fill-opacity="1" /><path clip-path="url(#clip070)" d="M 0 0 M345.775 396.953 L347.815 393.419 L348.667 393.911 L345.924 398.662 L345.072 398.171 Q344.808 397.25 344.379 395.679 Q343.947 394.1 343.804 393.677 Q343.538 392.875 343.272 392.468 Q343.004 392.052 342.638 391.841 Q342.042 391.497 341.423 391.701 Q340.807 391.9 340.419 392.571 Q340.145 393.047 340.003 393.674 Q339.865 394.296 339.853 395.091 L338.831 394.501 Q338.938 393.747 339.12 393.144 Q339.301 392.54 339.556 392.099 Q340.227 390.937 341.208 390.581 Q342.188 390.225 343.161 390.786 Q343.622 391.052 343.936 391.468 Q344.249 391.875 344.547 392.656 Q344.62 392.865 344.929 393.939 Q345.233 395.009 345.775 396.953 Z" fill="#000000" fill-rule="evenodd" fill-opacity="1" /><path clip-path="url(#clip070)" d="M 0 0 M343.734 386.714 Q343.283 387.495 343.826 388.337 Q344.367 389.171 345.911 390.062 Q347.45 390.95 348.447 391.005 Q349.442 391.052 349.894 390.27 Q350.348 389.483 349.807 388.649 Q349.264 387.808 347.725 386.919 Q346.182 386.028 345.186 385.981 Q344.189 385.927 343.734 386.714 M342.933 386.251 Q343.659 384.993 345.038 384.907 Q346.415 384.813 348.31 385.907 Q350.199 386.998 350.812 388.24 Q351.422 389.475 350.696 390.733 Q349.969 391.991 348.592 392.084 Q347.213 392.17 345.324 391.079 Q343.429 389.985 342.819 388.751 Q342.206 387.509 342.933 386.251 Z" fill="#000000" fill-rule="evenodd" fill-opacity="1" /><path clip-path="url(#clip070)" d="M 0 0 M352.329 385.601 L354.368 382.068 L355.22 382.56 L352.477 387.311 L351.625 386.819 Q351.362 385.898 350.932 384.327 Q350.501 382.748 350.358 382.325 Q350.092 381.524 349.826 381.116 Q349.558 380.701 349.192 380.489 Q348.596 380.145 347.977 380.349 Q347.361 380.548 346.973 381.22 Q346.698 381.696 346.557 382.322 Q346.419 382.944 346.407 383.739 L345.385 383.149 Q345.492 382.396 345.674 381.792 Q345.855 381.189 346.11 380.748 Q346.781 379.585 347.762 379.229 Q348.742 378.873 349.714 379.434 Q350.176 379.701 350.49 380.116 Q350.803 380.524 351.101 381.304 Q351.174 381.513 351.483 382.587 Q351.787 383.658 352.329 385.601 Z" fill="#000000" fill-rule="evenodd" fill-opacity="1" /><path clip-path="url(#clip070)" d="M 0 0 M355.103 380.795 L356.058 379.141 L350.35 375.845 L349.672 377.853 L348.75 377.321 L349.422 375.323 L350.006 374.311 L356.637 378.139 L357.592 376.485 L358.444 376.977 L355.955 381.287 L355.103 380.795 Z" fill="#000000" fill-rule="evenodd" fill-opacity="1" /><path clip-path="url(#clip070)" d="M 0 0 M355.511 374.615 L357.07 371.914 L357.892 372.388 L356.333 375.09 L355.511 374.615 Z" fill="#000000" fill-rule="evenodd" fill-opacity="1" /><path clip-path="url(#clip070)" d="M 0 0 M355.361 366.577 Q354.909 367.358 355.452 368.2 Q355.993 369.034 357.537 369.925 Q359.076 370.813 360.073 370.868 Q361.068 370.915 361.52 370.133 Q361.974 369.346 361.433 368.512 Q360.89 367.671 359.351 366.782 Q357.808 365.891 356.812 365.844 Q355.815 365.79 355.361 366.577 M354.559 366.114 Q355.285 364.856 356.664 364.77 Q358.041 364.676 359.936 365.77 Q361.825 366.861 362.438 368.103 Q363.048 369.338 362.322 370.596 Q361.595 371.854 360.218 371.947 Q358.839 372.033 356.95 370.942 Q355.055 369.848 354.445 368.614 Q353.832 367.372 354.559 366.114 Z" fill="#000000" fill-rule="evenodd" fill-opacity="1" /><path clip-path="url(#clip070)" d="M 0 0 M363.552 366.161 L364.507 364.507 L358.799 361.211 L358.121 363.219 L357.199 362.686 L357.871 360.689 L358.456 359.677 L365.086 363.505 L366.041 361.851 L366.893 362.343 L364.404 366.653 L363.552 366.161 Z" fill="#000000" fill-rule="evenodd" fill-opacity="1" /><path clip-path="url(#clip070)" d="M 0 0 M363.96 359.981 L365.519 357.28 L366.341 357.754 L364.782 360.456 L363.96 359.981 Z" fill="#000000" fill-rule="evenodd" fill-opacity="1" /><path clip-path="url(#clip070)" d="M 0 0 M363.81 351.942 Q363.358 352.724 363.901 353.566 Q364.442 354.399 365.986 355.291 Q367.525 356.179 368.522 356.234 Q369.518 356.28 369.969 355.499 Q370.423 354.712 369.882 353.878 Q369.339 353.037 367.8 352.148 Q366.257 351.257 365.261 351.21 Q364.264 351.156 363.81 351.942 M363.008 351.479 Q363.734 350.222 365.113 350.136 Q366.49 350.042 368.385 351.136 Q370.274 352.227 370.887 353.469 Q371.497 354.704 370.771 355.962 Q370.045 357.219 368.667 357.313 Q367.288 357.399 365.399 356.308 Q363.504 355.214 362.894 353.98 Q362.281 352.737 363.008 351.479 Z" fill="#000000" fill-rule="evenodd" fill-opacity="1" /><path clip-path="url(#clip070)" d="M 0 0 M370.449 347.977 Q370.032 348.699 370.178 349.338 Q370.327 349.972 371.003 350.362 Q371.68 350.753 372.303 350.565 Q372.929 350.372 373.346 349.65 Q373.762 348.928 373.617 348.289 Q373.466 347.648 372.794 347.26 Q372.118 346.869 371.492 347.063 Q370.868 347.251 370.449 347.977 M369.433 348.741 Q368.897 349.3 368.24 349.408 Q367.585 349.512 366.944 349.141 Q366.047 348.623 365.893 347.686 Q365.742 346.743 366.384 345.631 Q367.03 344.513 367.918 344.178 Q368.807 343.842 369.704 344.36 Q370.346 344.73 370.58 345.354 Q370.818 345.972 370.605 346.711 Q371.198 346.078 371.929 345.958 Q372.662 345.834 373.379 346.248 Q374.466 346.876 374.663 347.878 Q374.862 348.875 374.148 350.113 Q373.433 351.351 372.467 351.682 Q371.503 352.008 370.416 351.38 Q369.699 350.966 369.44 350.269 Q369.181 349.571 369.433 348.741 M367.621 348.189 Q368.202 348.524 368.736 348.352 Q369.273 348.174 369.652 347.517 Q370.028 346.866 369.914 346.312 Q369.802 345.753 369.221 345.417 Q368.639 345.082 368.099 345.265 Q367.562 345.442 367.186 346.094 Q366.807 346.75 366.922 347.304 Q367.039 347.853 367.621 348.189 Z" fill="#000000" fill-rule="evenodd" fill-opacity="1" /><path clip-path="url(#clip070)" d="M 0 0 M419.265 396.567 L421.305 393.034 L422.157 393.525 L419.414 398.277 L418.562 397.785 Q418.299 396.864 417.869 395.293 Q417.438 393.714 417.295 393.291 Q417.029 392.489 416.763 392.082 Q416.495 391.666 416.129 391.455 Q415.533 391.111 414.914 391.315 Q414.298 391.514 413.91 392.185 Q413.635 392.661 413.494 393.288 Q413.355 393.91 413.344 394.705 L412.322 394.115 Q412.429 393.362 412.61 392.758 Q412.792 392.154 413.047 391.713 Q413.718 390.551 414.698 390.195 Q415.679 389.839 416.651 390.4 Q417.113 390.666 417.427 391.082 Q417.74 391.49 418.038 392.27 Q418.111 392.479 418.42 393.553 Q418.724 394.623 419.265 396.567 Z" fill="#000000" fill-rule="evenodd" fill-opacity="1" /><path clip-path="url(#clip070)" d="M 0 0 M417.225 386.328 Q416.774 387.11 417.317 387.951 Q417.858 388.785 419.402 389.676 Q420.94 390.564 421.938 390.619 Q422.933 390.666 423.385 389.884 Q423.839 389.097 423.298 388.263 Q422.754 387.422 421.216 386.534 Q419.672 385.642 418.677 385.596 Q417.679 385.541 417.225 386.328 M416.423 385.865 Q417.15 384.607 418.529 384.521 Q419.906 384.427 421.8 385.521 Q423.69 386.612 424.302 387.854 Q424.913 389.089 424.186 390.347 Q423.46 391.605 422.083 391.698 Q420.704 391.784 418.814 390.693 Q416.92 389.599 416.309 388.365 Q415.697 387.123 416.423 385.865 Z" fill="#000000" fill-rule="evenodd" fill-opacity="1" /><path clip-path="url(#clip070)" d="M 0 0 M425.819 385.215 L427.859 381.682 L428.711 382.174 L425.968 386.925 L425.116 386.433 Q424.852 385.513 424.423 383.941 Q423.992 382.363 423.848 381.939 Q423.583 381.138 423.317 380.73 Q423.049 380.315 422.683 380.104 Q422.087 379.759 421.468 379.963 Q420.852 380.162 420.464 380.834 Q420.189 381.31 420.048 381.937 Q419.909 382.558 419.898 383.354 L418.875 382.763 Q418.983 382.01 419.164 381.406 Q419.346 380.803 419.6 380.362 Q420.272 379.199 421.252 378.843 Q422.233 378.487 423.205 379.049 Q423.666 379.315 423.981 379.73 Q424.294 380.138 424.592 380.918 Q424.665 381.127 424.973 382.201 Q425.277 383.272 425.819 385.215 Z" fill="#000000" fill-rule="evenodd" fill-opacity="1" /><path clip-path="url(#clip070)" d="M 0 0 M428.594 380.409 L429.549 378.755 L423.841 375.46 L423.163 377.467 L422.241 376.935 L422.913 374.937 L423.497 373.925 L430.128 377.753 L431.083 376.099 L431.935 376.591 L429.446 380.901 L428.594 380.409 Z" fill="#000000" fill-rule="evenodd" fill-opacity="1" /><path clip-path="url(#clip070)" d="M 0 0 M429.001 374.229 L430.561 371.528 L431.383 372.002 L429.823 374.704 L429.001 374.229 Z" fill="#000000" fill-rule="evenodd" fill-opacity="1" /><path clip-path="url(#clip070)" d="M 0 0 M428.851 366.191 Q428.4 366.973 428.943 367.814 Q429.484 368.648 431.028 369.539 Q432.566 370.427 433.564 370.482 Q434.559 370.529 435.011 369.747 Q435.465 368.96 434.924 368.126 Q434.381 367.285 432.842 366.397 Q431.298 365.505 430.303 365.459 Q429.306 365.404 428.851 366.191 M428.049 365.728 Q428.776 364.47 430.155 364.384 Q431.532 364.29 433.426 365.384 Q435.316 366.475 435.928 367.717 Q436.539 368.952 435.812 370.21 Q435.086 371.468 433.709 371.561 Q432.33 371.647 430.44 370.556 Q428.546 369.463 427.936 368.228 Q427.323 366.986 428.049 365.728 Z" fill="#000000" fill-rule="evenodd" fill-opacity="1" /><path clip-path="url(#clip070)" d="M 0 0 M437.043 365.775 L437.998 364.121 L432.29 360.825 L431.612 362.833 L430.69 362.301 L431.362 360.303 L431.946 359.291 L438.577 363.119 L439.532 361.465 L440.384 361.957 L437.895 366.267 L437.043 365.775 Z" fill="#000000" fill-rule="evenodd" fill-opacity="1" /><path clip-path="url(#clip070)" d="M 0 0 M437.45 359.595 L439.01 356.894 L439.832 357.368 L438.272 360.07 L437.45 359.595 Z" fill="#000000" fill-rule="evenodd" fill-opacity="1" /><path clip-path="url(#clip070)" d="M 0 0 M442.115 356.989 L443.07 355.336 L437.362 352.04 L436.684 354.047 L435.762 353.515 L436.434 351.518 L437.019 350.505 L443.649 354.333 L444.604 352.679 L445.456 353.171 L442.967 357.481 L442.115 356.989 Z" fill="#000000" fill-rule="evenodd" fill-opacity="1" /><path clip-path="url(#clip070)" d="M 0 0 M443.826 346.677 Q444.401 346.04 445.126 345.918 Q445.855 345.791 446.576 346.207 Q447.684 346.847 447.851 347.959 Q448.017 349.07 447.207 350.474 Q446.935 350.945 446.551 351.391 Q446.174 351.835 445.682 352.259 L444.704 351.695 Q445.193 351.416 445.608 350.987 Q446.022 350.558 446.338 350.012 Q446.888 349.06 446.798 348.347 Q446.712 347.628 445.995 347.215 Q445.333 346.833 444.693 347.085 Q444.051 347.329 443.574 348.156 L443.07 349.028 L442.238 348.547 L442.765 347.635 Q443.196 346.888 443.129 346.322 Q443.057 345.752 442.496 345.428 Q441.919 345.095 441.376 345.33 Q440.831 345.556 440.391 346.318 Q440.151 346.734 439.967 347.262 Q439.782 347.791 439.643 348.472 L438.74 347.951 Q438.913 347.282 439.122 346.735 Q439.334 346.182 439.592 345.736 Q440.257 344.583 441.171 344.216 Q442.08 343.845 442.972 344.36 Q443.593 344.719 443.819 345.324 Q444.04 345.925 443.826 346.677 Z" fill="#000000" fill-rule="evenodd" fill-opacity="1" /><path clip-path="url(#clip070)" d="M 0 0 M492.476 396.667 L494.515 393.134 L495.367 393.626 L492.624 398.377 L491.772 397.885 Q491.509 396.964 491.079 395.393 Q490.648 393.814 490.505 393.391 Q490.239 392.589 489.973 392.182 Q489.705 391.767 489.339 391.555 Q488.743 391.211 488.124 391.415 Q487.508 391.614 487.12 392.285 Q486.845 392.762 486.704 393.388 Q486.566 394.01 486.554 394.805 L485.532 394.215 Q485.639 393.462 485.821 392.858 Q486.002 392.255 486.257 391.814 Q486.928 390.651 487.909 390.295 Q488.889 389.939 489.861 390.5 Q490.323 390.767 490.637 391.182 Q490.95 391.59 491.248 392.37 Q491.321 392.579 491.63 393.653 Q491.934 394.724 492.476 396.667 Z" fill="#000000" fill-rule="evenodd" fill-opacity="1" /><path clip-path="url(#clip070)" d="M 0 0 M490.435 386.428 Q489.984 387.21 490.527 388.051 Q491.068 388.885 492.612 389.776 Q494.15 390.664 495.148 390.719 Q496.143 390.766 496.595 389.984 Q497.049 389.197 496.508 388.364 Q495.965 387.522 494.426 386.634 Q492.882 385.743 491.887 385.696 Q490.889 385.641 490.435 386.428 M489.633 385.965 Q490.36 384.707 491.739 384.621 Q493.116 384.528 495.01 385.621 Q496.9 386.712 497.512 387.955 Q498.123 389.189 497.396 390.447 Q496.67 391.705 495.293 391.799 Q493.914 391.884 492.024 390.793 Q490.13 389.7 489.52 388.465 Q488.907 387.223 489.633 385.965 Z" fill="#000000" fill-rule="evenodd" fill-opacity="1" /><path clip-path="url(#clip070)" d="M 0 0 M499.029 385.316 L501.069 381.782 L501.921 382.274 L499.178 387.025 L498.326 386.533 Q498.063 385.613 497.633 384.042 Q497.202 382.463 497.058 382.039 Q496.793 381.238 496.527 380.83 Q496.259 380.415 495.893 380.204 Q495.297 379.859 494.678 380.063 Q494.062 380.262 493.674 380.934 Q493.399 381.41 493.258 382.037 Q493.119 382.659 493.108 383.454 L492.085 382.864 Q492.193 382.11 492.374 381.507 Q492.556 380.903 492.81 380.462 Q493.482 379.299 494.462 378.943 Q495.443 378.587 496.415 379.149 Q496.876 379.415 497.191 379.831 Q497.504 380.238 497.802 381.018 Q497.875 381.228 498.184 382.301 Q498.487 383.372 499.029 385.316 Z" fill="#000000" fill-rule="evenodd" fill-opacity="1" /><path clip-path="url(#clip070)" d="M 0 0 M501.804 380.509 L502.759 378.855 L497.051 375.56 L496.373 377.567 L495.451 377.035 L496.123 375.037 L496.707 374.025 L503.338 377.853 L504.293 376.199 L505.145 376.691 L502.656 381.001 L501.804 380.509 Z" fill="#000000" fill-rule="evenodd" fill-opacity="1" /><path clip-path="url(#clip070)" d="M 0 0 M502.211 374.329 L503.771 371.628 L504.593 372.103 L503.033 374.804 L502.211 374.329 Z" fill="#000000" fill-rule="evenodd" fill-opacity="1" /><path clip-path="url(#clip070)" d="M 0 0 M502.061 366.291 Q501.61 367.073 502.153 367.914 Q502.694 368.748 504.238 369.639 Q505.776 370.527 506.774 370.582 Q507.769 370.629 508.221 369.847 Q508.675 369.06 508.134 368.227 Q507.591 367.385 506.052 366.497 Q504.508 365.606 503.513 365.559 Q502.516 365.504 502.061 366.291 M501.259 365.828 Q501.986 364.57 503.365 364.484 Q504.742 364.391 506.637 365.484 Q508.526 366.575 509.138 367.818 Q509.749 369.052 509.023 370.31 Q508.296 371.568 506.919 371.662 Q505.54 371.747 503.65 370.656 Q501.756 369.563 501.146 368.328 Q500.533 367.086 501.259 365.828 Z" fill="#000000" fill-rule="evenodd" fill-opacity="1" /><path clip-path="url(#clip070)" d="M 0 0 M510.253 365.875 L511.208 364.221 L505.5 360.926 L504.822 362.933 L503.9 362.401 L504.572 360.403 L505.156 359.391 L511.787 363.219 L512.742 361.565 L513.594 362.057 L511.105 366.367 L510.253 365.875 Z" fill="#000000" fill-rule="evenodd" fill-opacity="1" /><path clip-path="url(#clip070)" d="M 0 0 M510.66 359.695 L512.22 356.994 L513.042 357.469 L511.482 360.17 L510.66 359.695 Z" fill="#000000" fill-rule="evenodd" fill-opacity="1" /><path clip-path="url(#clip070)" d="M 0 0 M515.325 357.09 L516.28 355.436 L510.572 352.14 L509.894 354.148 L508.972 353.615 L509.644 351.618 L510.229 350.605 L516.859 354.434 L517.814 352.78 L518.666 353.272 L516.177 357.582 L515.325 357.09 Z" fill="#000000" fill-rule="evenodd" fill-opacity="1" /><path clip-path="url(#clip070)" d="M 0 0 M519.162 352.054 L518.239 351.522 Q518.64 351.245 518.961 350.909 Q519.282 350.573 519.499 350.197 Q520.077 349.195 519.71 348.281 Q519.34 347.359 518.01 346.491 Q518.273 347.031 518.246 347.61 Q518.219 348.189 517.907 348.73 Q517.258 349.853 516.203 350.119 Q515.145 350.377 513.967 349.697 Q512.815 349.031 512.512 347.948 Q512.208 346.864 512.862 345.731 Q513.612 344.433 515.003 344.327 Q516.391 344.214 518.286 345.307 Q520.055 346.329 520.626 347.781 Q521.195 349.226 520.377 350.644 Q520.157 351.025 519.856 351.373 Q519.555 351.72 519.162 352.054 M517.152 348.208 Q517.546 347.526 517.308 346.861 Q517.074 346.191 516.262 345.723 Q515.455 345.257 514.757 345.389 Q514.058 345.512 513.664 346.194 Q513.271 346.876 513.51 347.549 Q513.748 348.214 514.555 348.679 Q515.367 349.148 516.061 349.021 Q516.759 348.89 517.152 348.208 Z" fill="#000000" fill-rule="evenodd" fill-opacity="1" /><polyline clip-path="url(#clip072)" style="stroke:#000000; stroke-width:0.5; stroke-opacity:0.1; fill:none" points="
  47.1298,326.959 588.189,326.959 
  "/>
<polyline clip-path="url(#clip072)" style="stroke:#000000; stroke-width:0.5; stroke-opacity:0.1; fill:none" points="
  47.1298,261.826 588.189,261.826 
  "/>
<polyline clip-path="url(#clip072)" style="stroke:#000000; stroke-width:0.5; stroke-opacity:0.1; fill:none" points="
  47.1298,196.693 588.189,196.693 
  "/>
<polyline clip-path="url(#clip072)" style="stroke:#000000; stroke-width:0.5; stroke-opacity:0.1; fill:none" points="
  47.1298,131.559 588.189,131.559 
  "/>
<polyline clip-path="url(#clip072)" style="stroke:#000000; stroke-width:0.5; stroke-opacity:0.1; fill:none" points="
  47.1298,66.4259 588.189,66.4259 
  "/>
<polyline clip-path="url(#clip070)" style="stroke:#000000; stroke-width:1; stroke-opacity:1; fill:none" points="
  47.1298,337.479 47.1298,11.811 
  "/>
<polyline clip-path="url(#clip070)" style="stroke:#000000; stroke-width:1; stroke-opacity:1; fill:none" points="
  47.1298,326.959 53.6225,326.959 
  "/>
<polyline clip-path="url(#clip070)" style="stroke:#000000; stroke-width:1; stroke-opacity:1; fill:none" points="
  47.1298,261.826 53.6225,261.826 
  "/>
<polyline clip-path="url(#clip070)" style="stroke:#000000; stroke-width:1; stroke-opacity:1; fill:none" points="
  47.1298,196.693 53.6225,196.693 
  "/>
<polyline clip-path="url(#clip070)" style="stroke:#000000; stroke-width:1; stroke-opacity:1; fill:none" points="
  47.1298,131.559 53.6225,131.559 
  "/>
<polyline clip-path="url(#clip070)" style="stroke:#000000; stroke-width:1; stroke-opacity:1; fill:none" points="
  47.1298,66.4259 53.6225,66.4259 
  "/>
<path clip-path="url(#clip070)" d="M 0 0 M13.1184 330.296 L15.0281 330.296 L15.0281 323.704 L12.9506 324.121 L12.9506 323.056 L15.0165 322.639 L16.1855 322.639 L16.1855 330.296 L18.0952 330.296 L18.0952 331.279 L13.1184 331.279 L13.1184 330.296 Z" fill="#000000" fill-rule="evenodd" fill-opacity="1" /><path clip-path="url(#clip070)" d="M 0 0 M19.0674 322.639 L24.623 322.639 L24.623 323.137 L21.4864 331.279 L20.2654 331.279 L23.2167 323.623 L19.0674 323.623 L19.0674 322.639 Z" fill="#000000" fill-rule="evenodd" fill-opacity="1" /><path clip-path="url(#clip070)" d="M 0 0 M28.3903 323.409 Q27.4875 323.409 27.0304 324.3 Q26.579 325.186 26.579 326.968 Q26.579 328.745 27.0304 329.636 Q27.4875 330.521 28.3903 330.521 Q29.2989 330.521 29.7503 329.636 Q30.2074 328.745 30.2074 326.968 Q30.2074 325.186 29.7503 324.3 Q29.2989 323.409 28.3903 323.409 M28.3903 322.483 Q29.8428 322.483 30.6067 323.635 Q31.3764 324.78 31.3764 326.968 Q31.3764 329.15 30.6067 330.301 Q29.8428 331.447 28.3903 331.447 Q26.9378 331.447 26.1681 330.301 Q25.4042 329.15 25.4042 326.968 Q25.4042 324.78 26.1681 323.635 Q26.9378 322.483 28.3903 322.483 Z" fill="#000000" fill-rule="evenodd" fill-opacity="1" /><path clip-path="url(#clip070)" d="M 0 0 M35.1437 323.409 Q34.241 323.409 33.7838 324.3 Q33.3324 325.186 33.3324 326.968 Q33.3324 328.745 33.7838 329.636 Q34.241 330.521 35.1437 330.521 Q36.0523 330.521 36.5037 329.636 Q36.9609 328.745 36.9609 326.968 Q36.9609 325.186 36.5037 324.3 Q36.0523 323.409 35.1437 323.409 M35.1437 322.483 Q36.5963 322.483 37.3602 323.635 Q38.1298 324.78 38.1298 326.968 Q38.1298 329.15 37.3602 330.301 Q36.5963 331.447 35.1437 331.447 Q33.6912 331.447 32.9215 330.301 Q32.1576 329.15 32.1576 326.968 Q32.1576 324.78 32.9215 323.635 Q33.6912 322.483 35.1437 322.483 Z" fill="#000000" fill-rule="evenodd" fill-opacity="1" /><path clip-path="url(#clip070)" d="M 0 0 M13.3672 265.162 L15.277 265.162 L15.277 258.571 L13.1994 258.987 L13.1994 257.923 L15.2654 257.506 L16.4344 257.506 L16.4344 265.162 L18.3441 265.162 L18.3441 266.146 L13.3672 266.146 L13.3672 265.162 Z" fill="#000000" fill-rule="evenodd" fill-opacity="1" /><path clip-path="url(#clip070)" d="M 0 0 M19.3163 257.506 L24.8718 257.506 L24.8718 258.004 L21.7353 266.146 L20.5142 266.146 L23.4656 258.49 L19.3163 258.49 L19.3163 257.506 Z" fill="#000000" fill-rule="evenodd" fill-opacity="1" /><path clip-path="url(#clip070)" d="M 0 0 M26.1507 257.506 L30.7398 257.506 L30.7398 258.49 L27.2213 258.49 L27.2213 260.608 Q27.476 260.521 27.7306 260.48 Q27.9852 260.434 28.2398 260.434 Q29.6866 260.434 30.5315 261.227 Q31.3764 262.02 31.3764 263.374 Q31.3764 264.769 30.5084 265.544 Q29.6403 266.314 28.0604 266.314 Q27.5165 266.314 26.9493 266.221 Q26.388 266.129 25.7862 265.943 L25.7862 264.769 Q26.307 265.052 26.8625 265.191 Q27.4181 265.33 28.0373 265.33 Q29.0385 265.33 29.6229 264.803 Q30.2074 264.277 30.2074 263.374 Q30.2074 262.471 29.6229 261.945 Q29.0385 261.418 28.0373 261.418 Q27.5686 261.418 27.0998 261.522 Q26.6368 261.626 26.1507 261.846 L26.1507 257.506 Z" fill="#000000" fill-rule="evenodd" fill-opacity="1" /><path clip-path="url(#clip070)" d="M 0 0 M35.1437 258.276 Q34.241 258.276 33.7838 259.167 Q33.3324 260.052 33.3324 261.835 Q33.3324 263.611 33.7838 264.502 Q34.241 265.388 35.1437 265.388 Q36.0523 265.388 36.5037 264.502 Q36.9609 263.611 36.9609 261.835 Q36.9609 260.052 36.5037 259.167 Q36.0523 258.276 35.1437 258.276 M35.1437 257.35 Q36.5963 257.35 37.3602 258.501 Q38.1298 259.647 38.1298 261.835 Q38.1298 264.016 37.3602 265.168 Q36.5963 266.314 35.1437 266.314 Q33.6912 266.314 32.9215 265.168 Q32.1576 264.016 32.1576 261.835 Q32.1576 259.647 32.9215 258.501 Q33.6912 257.35 35.1437 257.35 Z" fill="#000000" fill-rule="evenodd" fill-opacity="1" /><path clip-path="url(#clip070)" d="M 0 0 M12.9159 200.029 L14.8256 200.029 L14.8256 193.437 L12.748 193.854 L12.748 192.789 L14.814 192.373 L15.983 192.373 L15.983 200.029 L17.8927 200.029 L17.8927 201.013 L12.9159 201.013 L12.9159 200.029 Z" fill="#000000" fill-rule="evenodd" fill-opacity="1" /><path clip-path="url(#clip070)" d="M 0 0 M21.66 196.91 Q20.8267 196.91 20.3464 197.355 Q19.8718 197.801 19.8718 198.582 Q19.8718 199.363 20.3464 199.809 Q20.8267 200.255 21.66 200.255 Q22.4933 200.255 22.9737 199.809 Q23.454 199.358 23.454 198.582 Q23.454 197.801 22.9737 197.355 Q22.4991 196.91 21.66 196.91 M20.491 196.412 Q19.7387 196.227 19.3163 195.712 Q18.8996 195.197 18.8996 194.456 Q18.8996 193.42 19.6346 192.818 Q20.3753 192.216 21.66 192.216 Q22.9505 192.216 23.6855 192.818 Q24.4204 193.42 24.4204 194.456 Q24.4204 195.197 23.998 195.712 Q23.5813 196.227 22.8348 196.412 Q23.6797 196.609 24.1484 197.182 Q24.623 197.755 24.623 198.582 Q24.623 199.838 23.8533 200.509 Q23.0894 201.18 21.66 201.18 Q20.2306 201.18 19.461 200.509 Q18.6971 199.838 18.6971 198.582 Q18.6971 197.755 19.1716 197.182 Q19.6461 196.609 20.491 196.412 M20.0628 194.566 Q20.0628 195.237 20.4795 195.613 Q20.9019 195.99 21.66 195.99 Q22.4123 195.99 22.8348 195.613 Q23.263 195.237 23.263 194.566 Q23.263 193.895 22.8348 193.518 Q22.4123 193.142 21.66 193.142 Q20.9019 193.142 20.4795 193.518 Q20.0628 193.895 20.0628 194.566 Z" fill="#000000" fill-rule="evenodd" fill-opacity="1" /><path clip-path="url(#clip070)" d="M 0 0 M28.3903 193.142 Q27.4875 193.142 27.0304 194.033 Q26.579 194.919 26.579 196.701 Q26.579 198.478 27.0304 199.369 Q27.4875 200.255 28.3903 200.255 Q29.2989 200.255 29.7503 199.369 Q30.2074 198.478 30.2074 196.701 Q30.2074 194.919 29.7503 194.033 Q29.2989 193.142 28.3903 193.142 M28.3903 192.216 Q29.8428 192.216 30.6067 193.368 Q31.3764 194.514 31.3764 196.701 Q31.3764 198.883 30.6067 200.035 Q29.8428 201.18 28.3903 201.18 Q26.9378 201.18 26.1681 200.035 Q25.4042 198.883 25.4042 196.701 Q25.4042 194.514 26.1681 193.368 Q26.9378 192.216 28.3903 192.216 Z" fill="#000000" fill-rule="evenodd" fill-opacity="1" /><path clip-path="url(#clip070)" d="M 0 0 M35.1437 193.142 Q34.241 193.142 33.7838 194.033 Q33.3324 194.919 33.3324 196.701 Q33.3324 198.478 33.7838 199.369 Q34.241 200.255 35.1437 200.255 Q36.0523 200.255 36.5037 199.369 Q36.9609 198.478 36.9609 196.701 Q36.9609 194.919 36.5037 194.033 Q36.0523 193.142 35.1437 193.142 M35.1437 192.216 Q36.5963 192.216 37.3602 193.368 Q38.1298 194.514 38.1298 196.701 Q38.1298 198.883 37.3602 200.035 Q36.5963 201.18 35.1437 201.18 Q33.6912 201.18 32.9215 200.035 Q32.1576 198.883 32.1576 196.701 Q32.1576 194.514 32.9215 193.368 Q33.6912 192.216 35.1437 192.216 Z" fill="#000000" fill-rule="evenodd" fill-opacity="1" /><path clip-path="url(#clip070)" d="M 0 0 M13.1647 134.895 L15.0744 134.895 L15.0744 128.304 L12.9969 128.721 L12.9969 127.656 L15.0628 127.239 L16.2318 127.239 L16.2318 134.895 L18.1415 134.895 L18.1415 135.879 L13.1647 135.879 L13.1647 134.895 Z" fill="#000000" fill-rule="evenodd" fill-opacity="1" /><path clip-path="url(#clip070)" d="M 0 0 M21.9089 131.776 Q21.0755 131.776 20.5952 132.222 Q20.1207 132.667 20.1207 133.449 Q20.1207 134.23 20.5952 134.676 Q21.0755 135.121 21.9089 135.121 Q22.7422 135.121 23.2225 134.676 Q23.7028 134.224 23.7028 133.449 Q23.7028 132.667 23.2225 132.222 Q22.748 131.776 21.9089 131.776 M20.7399 131.279 Q19.9876 131.093 19.5651 130.578 Q19.1485 130.063 19.1485 129.323 Q19.1485 128.287 19.8834 127.685 Q20.6241 127.083 21.9089 127.083 Q23.1994 127.083 23.9343 127.685 Q24.6693 128.287 24.6693 129.323 Q24.6693 130.063 24.2468 130.578 Q23.8301 131.093 23.0836 131.279 Q23.9285 131.475 24.3973 132.048 Q24.8718 132.621 24.8718 133.449 Q24.8718 134.705 24.1021 135.376 Q23.3383 136.047 21.9089 136.047 Q20.4795 136.047 19.7098 135.376 Q18.9459 134.705 18.9459 133.449 Q18.9459 132.621 19.4204 132.048 Q19.895 131.475 20.7399 131.279 M20.3116 129.433 Q20.3116 130.104 20.7283 130.48 Q21.1508 130.856 21.9089 130.856 Q22.6612 130.856 23.0836 130.48 Q23.5119 130.104 23.5119 129.433 Q23.5119 128.761 23.0836 128.385 Q22.6612 128.009 21.9089 128.009 Q21.1508 128.009 20.7283 128.385 Q20.3116 128.761 20.3116 129.433 Z" fill="#000000" fill-rule="evenodd" fill-opacity="1" /><path clip-path="url(#clip070)" d="M 0 0 M26.1507 127.239 L30.7398 127.239 L30.7398 128.223 L27.2213 128.223 L27.2213 130.341 Q27.476 130.254 27.7306 130.214 Q27.9852 130.168 28.2398 130.168 Q29.6866 130.168 30.5315 130.96 Q31.3764 131.753 31.3764 133.107 Q31.3764 134.502 30.5084 135.277 Q29.6403 136.047 28.0604 136.047 Q27.5165 136.047 26.9493 135.955 Q26.388 135.862 25.7862 135.677 L25.7862 134.502 Q26.307 134.786 26.8625 134.924 Q27.4181 135.063 28.0373 135.063 Q29.0385 135.063 29.6229 134.537 Q30.2074 134.01 30.2074 133.107 Q30.2074 132.205 29.6229 131.678 Q29.0385 131.151 28.0373 131.151 Q27.5686 131.151 27.0998 131.255 Q26.6368 131.36 26.1507 131.58 L26.1507 127.239 Z" fill="#000000" fill-rule="evenodd" fill-opacity="1" /><path clip-path="url(#clip070)" d="M 0 0 M35.1437 128.009 Q34.241 128.009 33.7838 128.9 Q33.3324 129.786 33.3324 131.568 Q33.3324 133.345 33.7838 134.236 Q34.241 135.121 35.1437 135.121 Q36.0523 135.121 36.5037 134.236 Q36.9609 133.345 36.9609 131.568 Q36.9609 129.786 36.5037 128.9 Q36.0523 128.009 35.1437 128.009 M35.1437 127.083 Q36.5963 127.083 37.3602 128.235 Q38.1298 129.38 38.1298 131.568 Q38.1298 133.75 37.3602 134.901 Q36.5963 136.047 35.1437 136.047 Q33.6912 136.047 32.9215 134.901 Q32.1576 133.75 32.1576 131.568 Q32.1576 129.38 32.9215 128.235 Q33.6912 127.083 35.1437 127.083 Z" fill="#000000" fill-rule="evenodd" fill-opacity="1" /><path clip-path="url(#clip070)" d="M 0 0 M12.939 69.7622 L14.8487 69.7622 L14.8487 63.1708 L12.7712 63.5874 L12.7712 62.5226 L14.8371 62.1059 L16.0061 62.1059 L16.0061 69.7622 L17.9158 69.7622 L17.9158 70.7459 L12.939 70.7459 L12.939 69.7622 Z" fill="#000000" fill-rule="evenodd" fill-opacity="1" /><path clip-path="url(#clip070)" d="M 0 0 M19.2179 70.5666 L19.2179 69.5017 Q19.6577 69.7101 20.1091 69.82 Q20.5605 69.93 20.9945 69.93 Q22.1519 69.93 22.7596 69.1545 Q23.373 68.3733 23.4598 66.7876 Q23.1241 67.2853 22.6091 67.5515 Q22.094 67.8177 21.469 67.8177 Q20.1728 67.8177 19.4147 67.0365 Q18.6624 66.2494 18.6624 64.8895 Q18.6624 63.5585 19.4494 62.7541 Q20.2364 61.9497 21.5443 61.9497 Q23.0431 61.9497 23.8301 63.1013 Q24.623 64.2471 24.623 66.4346 Q24.623 68.4774 23.6508 69.6985 Q22.6843 70.9138 21.0466 70.9138 Q20.6068 70.9138 20.1554 70.827 Q19.704 70.7402 19.2179 70.5666 M21.5443 66.9034 Q22.3313 66.9034 22.7885 66.3652 Q23.2514 65.827 23.2514 64.8895 Q23.2514 63.9578 22.7885 63.4196 Q22.3313 62.8756 21.5443 62.8756 Q20.7572 62.8756 20.2943 63.4196 Q19.8371 63.9578 19.8371 64.8895 Q19.8371 65.827 20.2943 66.3652 Q20.7572 66.9034 21.5443 66.9034 Z" fill="#000000" fill-rule="evenodd" fill-opacity="1" /><path clip-path="url(#clip070)" d="M 0 0 M28.3903 62.8756 Q27.4875 62.8756 27.0304 63.7668 Q26.579 64.6522 26.579 66.4346 Q26.579 68.2112 27.0304 69.1024 Q27.4875 69.9878 28.3903 69.9878 Q29.2989 69.9878 29.7503 69.1024 Q30.2074 68.2112 30.2074 66.4346 Q30.2074 64.6522 29.7503 63.7668 Q29.2989 62.8756 28.3903 62.8756 M28.3903 61.9497 Q29.8428 61.9497 30.6067 63.1013 Q31.3764 64.2471 31.3764 66.4346 Q31.3764 68.6163 30.6067 69.7679 Q29.8428 70.9138 28.3903 70.9138 Q26.9378 70.9138 26.1681 69.7679 Q25.4042 68.6163 25.4042 66.4346 Q25.4042 64.2471 26.1681 63.1013 Q26.9378 61.9497 28.3903 61.9497 Z" fill="#000000" fill-rule="evenodd" fill-opacity="1" /><path clip-path="url(#clip070)" d="M 0 0 M35.1437 62.8756 Q34.241 62.8756 33.7838 63.7668 Q33.3324 64.6522 33.3324 66.4346 Q33.3324 68.2112 33.7838 69.1024 Q34.241 69.9878 35.1437 69.9878 Q36.0523 69.9878 36.5037 69.1024 Q36.9609 68.2112 36.9609 66.4346 Q36.9609 64.6522 36.5037 63.7668 Q36.0523 62.8756 35.1437 62.8756 M35.1437 61.9497 Q36.5963 61.9497 37.3602 63.1013 Q38.1298 64.2471 38.1298 66.4346 Q38.1298 68.6163 37.3602 69.7679 Q36.5963 70.9138 35.1437 70.9138 Q33.6912 70.9138 32.9215 69.7679 Q32.1576 68.6163 32.1576 66.4346 Q32.1576 64.2471 32.9215 63.1013 Q33.6912 61.9497 35.1437 61.9497 Z" fill="#000000" fill-rule="evenodd" fill-opacity="1" /><path clip-path="url(#clip072)" d="
M73.433 328.262 L73.433 309.36 L62.4428 309.36 L62.4428 275.673 L73.433 275.673 L73.433 273.745 L73.433 275.673 L84.4232 275.673 L84.4232 309.36 L73.433 309.36 
  L73.433 328.262  Z
  " fill="#008000" fill-rule="evenodd" fill-opacity="1"/>
<polyline clip-path="url(#clip072)" style="stroke:#008000; stroke-width:0.5; stroke-opacity:1; fill:none" points="
  73.433,328.262 73.433,309.36 62.4428,309.36 62.4428,275.673 73.433,275.673 73.433,273.745 73.433,275.673 84.4232,275.673 84.4232,309.36 73.433,309.36 
  73.433,328.262 
  "/>
<path clip-path="url(#clip072)" d="
M97.8557 310.578 L97.8557 296.347 L86.8655 296.347 L86.8655 282.108 L97.8557 282.108 L97.8557 278.233 L97.8557 282.108 L108.846 282.108 L108.846 296.347 L97.8557 296.347 
  L97.8557 310.578  Z
  " fill="#ff0000" fill-rule="evenodd" fill-opacity="1"/>
<polyline clip-path="url(#clip072)" style="stroke:#ff0000; stroke-width:0.5; stroke-opacity:1; fill:none" points="
  97.8557,310.578 97.8557,296.347 86.8655,296.347 86.8655,282.108 97.8557,282.108 97.8557,278.233 97.8557,282.108 108.846,282.108 108.846,296.347 97.8557,296.347 
  97.8557,310.578 
  "/>
<path clip-path="url(#clip072)" d="
M122.278 294.34 L122.278 290.341 L111.288 290.341 L111.288 284.779 L122.278 284.779 L122.278 264.444 L122.278 284.779 L133.268 284.779 L133.268 290.341 L122.278 290.341 
  L122.278 294.34  Z
  " fill="#008000" fill-rule="evenodd" fill-opacity="1"/>
<polyline clip-path="url(#clip072)" style="stroke:#008000; stroke-width:0.5; stroke-opacity:1; fill:none" points="
  122.278,294.34 122.278,290.341 111.288,290.341 111.288,284.779 122.278,284.779 122.278,264.444 122.278,284.779 133.268,284.779 133.268,290.341 122.278,290.341 
  122.278,294.34 
  "/>
<path clip-path="url(#clip072)" d="
M146.701 289.039 L146.701 281.366 L135.711 281.366 L135.711 276.351 L146.701 276.351 L146.701 267.037 L146.701 276.351 L157.691 276.351 L157.691 281.366 L146.701 281.366 
  L146.701 289.039  Z
  " fill="#008000" fill-rule="evenodd" fill-opacity="1"/>
<polyline clip-path="url(#clip072)" style="stroke:#008000; stroke-width:0.5; stroke-opacity:1; fill:none" points="
  146.701,289.039 146.701,281.366 135.711,281.366 135.711,276.351 146.701,276.351 146.701,267.037 146.701,276.351 157.691,276.351 157.691,281.366 146.701,281.366 
  146.701,289.039 
  "/>
<path clip-path="url(#clip072)" d="
M171.124 266.6 L171.124 259.696 L160.133 259.696 L160.133 227.839 L171.124 227.839 L171.124 208.771 L171.124 227.839 L182.114 227.839 L182.114 259.696 L171.124 259.696 
  L171.124 266.6  Z
  " fill="#008000" fill-rule="evenodd" fill-opacity="1"/>
<polyline clip-path="url(#clip072)" style="stroke:#008000; stroke-width:0.5; stroke-opacity:1; fill:none" points="
  171.124,266.6 171.124,259.696 160.133,259.696 160.133,227.839 171.124,227.839 171.124,208.771 171.124,227.839 182.114,227.839 182.114,259.696 171.124,259.696 
  171.124,266.6 
  "/>
<path clip-path="url(#clip072)" d="
M195.546 253.893 L195.546 250.467 L184.556 250.467 L184.556 212.598 L195.546 212.598 L195.546 206.541 L195.546 212.598 L206.536 212.598 L206.536 250.467 L195.546 250.467 
  L195.546 253.893  Z
  " fill="#ff0000" fill-rule="evenodd" fill-opacity="1"/>
<polyline clip-path="url(#clip072)" style="stroke:#ff0000; stroke-width:0.5; stroke-opacity:1; fill:none" points="
  195.546,253.893 195.546,250.467 184.556,250.467 184.556,212.598 195.546,212.598 195.546,206.541 195.546,212.598 206.536,212.598 206.536,250.467 195.546,250.467 
  195.546,253.893 
  "/>
<path clip-path="url(#clip072)" d="
M219.969 293.611 L219.969 275.478 L208.979 275.478 L208.979 246.181 L219.969 246.181 L219.969 242.162 L219.969 246.181 L230.959 246.181 L230.959 275.478 L219.969 275.478 
  L219.969 293.611  Z
  " fill="#ff0000" fill-rule="evenodd" fill-opacity="1"/>
<polyline clip-path="url(#clip072)" style="stroke:#ff0000; stroke-width:0.5; stroke-opacity:1; fill:none" points="
  219.969,293.611 219.969,275.478 208.979,275.478 208.979,246.181 219.969,246.181 219.969,242.162 219.969,246.181 230.959,246.181 230.959,275.478 219.969,275.478 
  219.969,293.611 
  "/>
<path clip-path="url(#clip072)" d="
M244.391 280.819 L244.391 280.819 L233.401 280.819 L233.401 259.377 L244.391 259.377 L244.391 250.193 L244.391 259.377 L255.382 259.377 L255.382 280.819 L244.391 280.819 
  L244.391 280.819  Z
  " fill="#008000" fill-rule="evenodd" fill-opacity="1"/>
<polyline clip-path="url(#clip072)" style="stroke:#008000; stroke-width:0.5; stroke-opacity:1; fill:none" points="
  244.391,280.819 244.391,280.819 233.401,280.819 233.401,259.377 244.391,259.377 244.391,250.193 244.391,259.377 255.382,259.377 255.382,280.819 244.391,280.819 
  
  "/>
<path clip-path="url(#clip072)" d="
M268.814 316.733 L268.814 290.172 L257.824 290.172 L257.824 252.004 L268.814 252.004 L268.814 247.953 L268.814 252.004 L279.804 252.004 L279.804 290.172 L268.814 290.172 
  L268.814 316.733  Z
  " fill="#ff0000" fill-rule="evenodd" fill-opacity="1"/>
<polyline clip-path="url(#clip072)" style="stroke:#ff0000; stroke-width:0.5; stroke-opacity:1; fill:none" points="
  268.814,316.733 268.814,290.172 257.824,290.172 257.824,252.004 268.814,252.004 268.814,247.953 268.814,252.004 279.804,252.004 279.804,290.172 268.814,290.172 
  268.814,316.733 
  "/>
<path clip-path="url(#clip072)" d="
M293.237 303.492 L293.237 294.393 L282.247 294.393 L282.247 273.654 L293.237 273.654 L293.237 264.861 L293.237 273.654 L304.227 273.654 L304.227 294.393 L293.237 294.393 
  L293.237 303.492  Z
  " fill="#008000" fill-rule="evenodd" fill-opacity="1"/>
<polyline clip-path="url(#clip072)" style="stroke:#008000; stroke-width:0.5; stroke-opacity:1; fill:none" points="
  293.237,303.492 293.237,294.393 282.247,294.393 282.247,273.654 293.237,273.654 293.237,264.861 293.237,273.654 304.227,273.654 304.227,294.393 293.237,294.393 
  293.237,303.492 
  "/>
<path clip-path="url(#clip072)" d="
M317.659 328.262 L317.659 323.533 L306.669 323.533 L306.669 280.988 L317.659 280.988 L317.659 264.431 L317.659 280.988 L328.65 280.988 L328.65 323.533 L317.659 323.533 
  L317.659 328.262  Z
  " fill="#008000" fill-rule="evenodd" fill-opacity="1"/>
<polyline clip-path="url(#clip072)" style="stroke:#008000; stroke-width:0.5; stroke-opacity:1; fill:none" points="
  317.659,328.262 317.659,323.533 306.669,323.533 306.669,280.988 317.659,280.988 317.659,264.431 317.659,280.988 328.65,280.988 328.65,323.533 317.659,323.533 
  317.659,328.262 
  "/>
<path clip-path="url(#clip072)" d="
M342.082 278.695 L342.082 274.774 L331.092 274.774 L331.092 213.302 L342.082 213.302 L342.082 211.804 L342.082 213.302 L353.072 213.302 L353.072 274.774 L342.082 274.774 
  L342.082 278.695  Z
  " fill="#008000" fill-rule="evenodd" fill-opacity="1"/>
<polyline clip-path="url(#clip072)" style="stroke:#008000; stroke-width:0.5; stroke-opacity:1; fill:none" points="
  342.082,278.695 342.082,274.774 331.092,274.774 331.092,213.302 342.082,213.302 342.082,211.804 342.082,213.302 353.072,213.302 353.072,274.774 342.082,274.774 
  342.082,278.695 
  "/>
<path clip-path="url(#clip072)" d="
M366.505 231.168 L366.505 212.351 L355.514 212.351 L355.514 187.3 L366.505 187.3 L366.505 183.874 L366.505 187.3 L377.495 187.3 L377.495 212.351 L366.505 212.351 
  L366.505 231.168  Z
  " fill="#008000" fill-rule="evenodd" fill-opacity="1"/>
<polyline clip-path="url(#clip072)" style="stroke:#008000; stroke-width:0.5; stroke-opacity:1; fill:none" points="
  366.505,231.168 366.505,212.351 355.514,212.351 355.514,187.3 366.505,187.3 366.505,183.874 366.505,187.3 377.495,187.3 377.495,212.351 366.505,212.351 
  366.505,231.168 
  "/>
<path clip-path="url(#clip072)" d="
M390.927 248.122 L390.927 240.045 L379.937 240.045 L379.937 214.839 L390.927 214.839 L390.927 204.098 L390.927 214.839 L401.918 214.839 L401.918 240.045 L390.927 240.045 
  L390.927 248.122  Z
  " fill="#ff0000" fill-rule="evenodd" fill-opacity="1"/>
<polyline clip-path="url(#clip072)" style="stroke:#ff0000; stroke-width:0.5; stroke-opacity:1; fill:none" points="
  390.927,248.122 390.927,240.045 379.937,240.045 379.937,214.839 390.927,214.839 390.927,204.098 390.927,214.839 401.918,214.839 401.918,240.045 390.927,240.045 
  390.927,248.122 
  "/>
<path clip-path="url(#clip072)" d="
M415.35 293.989 L415.35 266.32 L404.36 266.32 L404.36 256.719 L415.35 256.719 L415.35 225.299 L415.35 256.719 L426.34 256.719 L426.34 266.32 L415.35 266.32 
  L415.35 293.989  Z
  " fill="#ff0000" fill-rule="evenodd" fill-opacity="1"/>
<polyline clip-path="url(#clip072)" style="stroke:#ff0000; stroke-width:0.5; stroke-opacity:1; fill:none" points="
  415.35,293.989 415.35,266.32 404.36,266.32 404.36,256.719 415.35,256.719 415.35,225.299 415.35,256.719 426.34,256.719 426.34,266.32 415.35,266.32 
  415.35,293.989 
  "/>
<path clip-path="url(#clip072)" d="
M439.773 277.445 L439.773 276.702 L428.782 276.702 L428.782 256.094 L439.773 256.094 L439.773 242.24 L439.773 256.094 L450.763 256.094 L450.763 276.702 L439.773 276.702 
  L439.773 277.445  Z
  " fill="#008000" fill-rule="evenodd" fill-opacity="1"/>
<polyline clip-path="url(#clip072)" style="stroke:#008000; stroke-width:0.5; stroke-opacity:1; fill:none" points="
  439.773,277.445 439.773,276.702 428.782,276.702 428.782,256.094 439.773,256.094 439.773,242.24 439.773,256.094 450.763,256.094 450.763,276.702 439.773,276.702 
  439.773,277.445 
  "/>
<path clip-path="url(#clip072)" d="
M464.195 283.45 L464.195 274.618 L453.205 274.618 L453.205 257.11 L464.195 257.11 L464.195 229.246 L464.195 257.11 L475.185 257.11 L475.185 274.618 L464.195 274.618 
  L464.195 283.45  Z
  " fill="#ff0000" fill-rule="evenodd" fill-opacity="1"/>
<polyline clip-path="url(#clip072)" style="stroke:#ff0000; stroke-width:0.5; stroke-opacity:1; fill:none" points="
  464.195,283.45 464.195,274.618 453.205,274.618 453.205,257.11 464.195,257.11 464.195,229.246 464.195,257.11 475.185,257.11 475.185,274.618 464.195,274.618 
  464.195,283.45 
  "/>
<path clip-path="url(#clip072)" d="
M488.618 298.887 L488.618 279.816 L477.628 279.816 L477.628 277.211 L488.618 277.211 L488.618 254.01 L488.618 277.211 L499.608 277.211 L499.608 279.816 L488.618 279.816 
  L488.618 298.887  Z
  " fill="#ff0000" fill-rule="evenodd" fill-opacity="1"/>
<polyline clip-path="url(#clip072)" style="stroke:#ff0000; stroke-width:0.5; stroke-opacity:1; fill:none" points="
  488.618,298.887 488.618,279.816 477.628,279.816 477.628,277.211 488.618,277.211 488.618,254.01 488.618,277.211 499.608,277.211 499.608,279.816 488.618,279.816 
  488.618,298.887 
  "/>
<path clip-path="url(#clip072)" d="
M513.041 272.951 L513.041 258.895 L502.05 258.895 L502.05 208.599 L513.041 208.599 L513.041 184.61 L513.041 208.599 L524.031 208.599 L524.031 258.895 L513.041 258.895 
  L513.041 272.951  Z
  " fill="#008000" fill-rule="evenodd" fill-opacity="1"/>
<polyline clip-path="url(#clip072)" style="stroke:#008000; stroke-width:0.5; stroke-opacity:1; fill:none" points="
  513.041,272.951 513.041,258.895 502.05,258.895 502.05,208.599 513.041,208.599 513.041,184.61 513.041,208.599 524.031,208.599 524.031,258.895 513.041,258.895 
  513.041,272.951 
  "/>
<path clip-path="url(#clip072)" d="
M537.463 163.436 L537.463 155.711 L526.473 155.711 L526.473 83.4909 L537.463 83.4909 L537.463 61.5931 L537.463 83.4909 L548.453 83.4909 L548.453 155.711 L537.463 155.711 
  L537.463 163.436  Z
  " fill="#008000" fill-rule="evenodd" fill-opacity="1"/>
<polyline clip-path="url(#clip072)" style="stroke:#008000; stroke-width:0.5; stroke-opacity:1; fill:none" points="
  537.463,163.436 537.463,155.711 526.473,155.711 526.473,83.4909 537.463,83.4909 537.463,61.5931 537.463,83.4909 548.453,83.4909 548.453,155.711 537.463,155.711 
  537.463,163.436 
  "/>
<path clip-path="url(#clip072)" d="
M561.886 74.4374 L561.886 73.2454 L550.896 73.2454 L550.896 69.0313 L561.886 69.0313 L561.886 21.028 L561.886 69.0313 L572.876 69.0313 L572.876 73.2454 L561.886 73.2454 
  L561.886 74.4374  Z
  " fill="#ff0000" fill-rule="evenodd" fill-opacity="1"/>
<polyline clip-path="url(#clip072)" style="stroke:#ff0000; stroke-width:0.5; stroke-opacity:1; fill:none" points="
  561.886,74.4374 561.886,73.2454 550.896,73.2454 550.896,69.0313 561.886,69.0313 561.886,21.028 561.886,69.0313 572.876,69.0313 572.876,73.2454 561.886,73.2454 
  561.886,74.4374 
  "/>
<circle clip-path="url(#clip072)" style="fill:#008000; stroke:none; fill-opacity:1" cx="73.433" cy="292.517" r="2"/>
<circle clip-path="url(#clip072)" style="fill:#ff0000; stroke:none; fill-opacity:1" cx="97.8557" cy="289.228" r="2"/>
<circle clip-path="url(#clip072)" style="fill:#008000; stroke:none; fill-opacity:1" cx="122.278" cy="287.56" r="2"/>
<circle clip-path="url(#clip072)" style="fill:#008000; stroke:none; fill-opacity:1" cx="146.701" cy="278.858" r="2"/>
<circle clip-path="url(#clip072)" style="fill:#008000; stroke:none; fill-opacity:1" cx="171.124" cy="243.768" r="2"/>
<circle clip-path="url(#clip072)" style="fill:#ff0000; stroke:none; fill-opacity:1" cx="195.546" cy="231.532" r="2"/>
<circle clip-path="url(#clip072)" style="fill:#ff0000; stroke:none; fill-opacity:1" cx="219.969" cy="260.829" r="2"/>
<circle clip-path="url(#clip072)" style="fill:#008000; stroke:none; fill-opacity:1" cx="244.391" cy="270.098" r="2"/>
<circle clip-path="url(#clip072)" style="fill:#ff0000; stroke:none; fill-opacity:1" cx="268.814" cy="271.088" r="2"/>
<circle clip-path="url(#clip072)" style="fill:#008000; stroke:none; fill-opacity:1" cx="293.237" cy="284.023" r="2"/>
<circle clip-path="url(#clip072)" style="fill:#008000; stroke:none; fill-opacity:1" cx="317.659" cy="302.261" r="2"/>
<circle clip-path="url(#clip072)" style="fill:#008000; stroke:none; fill-opacity:1" cx="342.082" cy="244.038" r="2"/>
<circle clip-path="url(#clip072)" style="fill:#008000; stroke:none; fill-opacity:1" cx="366.505" cy="199.826" r="2"/>
<circle clip-path="url(#clip072)" style="fill:#ff0000; stroke:none; fill-opacity:1" cx="390.927" cy="227.442" r="2"/>
<circle clip-path="url(#clip072)" style="fill:#ff0000; stroke:none; fill-opacity:1" cx="415.35" cy="261.52" r="2"/>
<circle clip-path="url(#clip072)" style="fill:#008000; stroke:none; fill-opacity:1" cx="439.773" cy="266.398" r="2"/>
<circle clip-path="url(#clip072)" style="fill:#ff0000; stroke:none; fill-opacity:1" cx="464.195" cy="265.864" r="2"/>
<circle clip-path="url(#clip072)" style="fill:#ff0000; stroke:none; fill-opacity:1" cx="488.618" cy="278.513" r="2"/>
<circle clip-path="url(#clip072)" style="fill:#008000; stroke:none; fill-opacity:1" cx="513.041" cy="233.747" r="2"/>
<circle clip-path="url(#clip072)" style="fill:#008000; stroke:none; fill-opacity:1" cx="537.463" cy="119.601" r="2"/>
<circle clip-path="url(#clip072)" style="fill:#ff0000; stroke:none; fill-opacity:1" cx="561.886" cy="71.1383" r="2"/>
</svg>
