<svg class="main-svg" xmlns="http://www.w3.org/2000/svg" xmlns:xlink="http://www.w3.org/1999/xlink" width="600" height="400" style="" viewBox="0 0 600 400"><rect x="0" y="0" width="600" height="400" style="fill: rgb(255, 255, 255); fill-opacity: 1;"/><defs id="defs-93e623"><g class="clips"><clipPath id="clip93e623xyplot" class="plotclip"><rect width="556.5704286964129" height="272.9133858267716"/></clipPath><clipPath class="axesclip" id="clip93e623x"><rect x="39.4925634295713" y="0" width="556.5704286964129" height="400"/></clipPath><clipPath class="axesclip" id="clip93e623y"><rect x="0" y="23.543307086614167" width="600" height="272.9133858267716"/></clipPath><clipPath class="axesclip" id="clip93e623xy"><rect x="39.4925634295713" y="23.543307086614167" width="556.5704286964129" height="272.9133858267716"/></clipPath></g><g class="gradients"/></defs><g class="bglayer"/><g class="layer-below"><g class="imagelayer"/><g class="shapelayer"/></g><g class="cartesianlayer"><g class="subplot xy"><g class="layer-subplot"><g class="shapelayer"/><g class="imagelayer"/></g><g class="gridlayer"><g class="x"><path class="xgrid crisp" transform="translate(63.3425634295713,0)" d="M0,23.543307086614167v272.9133858267716" style="stroke: rgb(0, 0, 0); stroke-opacity: 0.1; stroke-width: 0.5px;"/><path class="xgrid crisp" transform="translate(86.4725634295713,0)" d="M0,23.543307086614167v272.9133858267716" style="stroke: rgb(0, 0, 0); stroke-opacity: 0.1; stroke-width: 0.5px;"/><path class="xgrid crisp" transform="translate(109.60256342957129,0)" d="M0,23.543307086614167v272.9133858267716" style="stroke: rgb(0, 0, 0); stroke-opacity: 0.1; stroke-width: 0.5px;"/><path class="xgrid crisp" transform="translate(132.7325634295713,0)" d="M0,23.543307086614167v272.9133858267716" style="stroke: rgb(0, 0, 0); stroke-opacity: 0.1; stroke-width: 0.5px;"/><path class="xgrid crisp" transform="translate(155.8625634295713,0)" d="M0,23.543307086614167v272.9133858267716" style="stroke: rgb(0, 0, 0); stroke-opacity: 0.1; stroke-width: 0.5px;"/><path class="xgrid crisp" transform="translate(178.9925634295713,0)" d="M0,23.543307086614167v272.9133858267716" style="stroke: rgb(0, 0, 0); stroke-opacity: 0.1; stroke-width: 0.5px;"/><path class="xgrid crisp" transform="translate(202.1225634295713,0)" d="M0,23.543307086614167v272.9133858267716" style="stroke: rgb(0, 0, 0); stroke-opacity: 0.1; stroke-width: 0.5px;"/><path class="xgrid crisp" transform="translate(225.2525634295713,0)" d="M0,23.543307086614167v272.9133858267716" style="stroke: rgb(0, 0, 0); stroke-opacity: 0.1; stroke-width: 0.5px;"/><path class="xgrid crisp" transform="translate(248.3825634295713,0)" d="M0,23.543307086614167v272.9133858267716" style="stroke: rgb(0, 0, 0); stroke-opacity: 0.1; stroke-width: 0.5px;"/><path class="xgrid crisp" transform="translate(271.5125634295713,0)" d="M0,23.543307086614167v272.9133858267716" style="stroke: rgb(0, 0, 0); stroke-opacity: 0.1; stroke-width: 0.5px;"/><path class="xgrid crisp" transform="translate(294.6425634295713,0)" d="M0,23.543307086614167v272.9133858267716" style="stroke: rgb(0, 0, 0); stroke-opacity: 0.1; stroke-width: 0.5px;"/><path class="xgrid crisp" transform="translate(317.7825634295713,0)" d="M0,23.543307086614167v272.9133858267716" style="stroke: rgb(0, 0, 0); stroke-opacity: 0.1; stroke-width: 0.5px;"/><path class="xgrid crisp" transform="translate(340.9125634295713,0)" d="M0,23.543307086614167v272.9133858267716" style="stroke: rgb(0, 0, 0); stroke-opacity: 0.1; stroke-width: 0.5px;"/><path class="xgrid crisp" transform="translate(364.0425634295713,0)" d="M0,23.543307086614167v272.9133858267716" style="stroke: rgb(0, 0, 0); stroke-opacity: 0.1; stroke-width: 0.5px;"/><path class="xgrid crisp" transform="translate(387.1725634295713,0)" d="M0,23.543307086614167v272.9133858267716" style="stroke: rgb(0, 0, 0); stroke-opacity: 0.1; stroke-width: 0.5px;"/><path class="xgrid crisp" transform="translate(410.3025634295713,0)" d="M0,23.543307086614167v272.9133858267716" style="stroke: rgb(0, 0, 0); stroke-opacity: 0.1; stroke-width: 0.5px;"/><path class="xgrid crisp" transform="translate(433.4325634295713,0)" d="M0,23.543307086614167v272.9133858267716" style="stroke: rgb(0, 0, 0); stroke-opacity: 0.1; stroke-width: 0.5px;"/><path class="xgrid crisp" transform="translate(456.5625634295713,0)" d="M0,23.543307086614167v272.9133858267716" style="stroke: rgb(0, 0, 0); stroke-opacity: 0.1; stroke-width: 0.5px;"/><path class="xgrid crisp" transform="translate(479.6925634295713,0)" d="M0,23.543307086614167v272.9133858267716" style="stroke: rgb(0, 0, 0); stroke-opacity: 0.1; stroke-width: 0.5px;"/><path class="xgrid crisp" transform="translate(502.8225634295713,0)" d="M0,23.543307086614167v272.9133858267716" style="stroke: rgb(0, 0, 0); stroke-opacity: 0.1; stroke-width: 0.5px;"/><path class="xgrid crisp" transform="translate(525.9525634295712,0)" d="M0,23.543307086614167v272.9133858267716" style="stroke: rgb(0, 0, 0); stroke-opacity: 0.1; stroke-width: 0.5px;"/><path class="xgrid crisp" transform="translate(549.0825634295712,0)" d="M0,23.543307086614167v272.9133858267716" style="stroke: rgb(0, 0, 0); stroke-opacity: 0.1; stroke-width: 0.5px;"/><path class="xgrid crisp" transform="translate(572.2125634295713,0)" d="M0,23.543307086614167v272.9133858267716" style="stroke: rgb(0, 0, 0); stroke-opacity: 0.1; stroke-width: 0.5px;"/></g><g class="y"><path class="ygrid crisp" transform="translate(0,248.12330708661418)" d="M39.4925634295713,0h556.5704286964129" style="stroke: rgb(0, 0, 0); stroke-opacity: 0.1; stroke-width: 0.5px;"/><path class="ygrid crisp" transform="translate(0,199.71330708661415)" d="M39.4925634295713,0h556.5704286964129" style="stroke: rgb(0, 0, 0); stroke-opacity: 0.1; stroke-width: 0.5px;"/><path class="ygrid crisp" transform="translate(0,151.30330708661418)" d="M39.4925634295713,0h556.5704286964129" style="stroke: rgb(0, 0, 0); stroke-opacity: 0.1; stroke-width: 0.5px;"/><path class="ygrid crisp" transform="translate(0,102.89330708661416)" d="M39.4925634295713,0h556.5704286964129" style="stroke: rgb(0, 0, 0); stroke-opacity: 0.1; stroke-width: 0.5px;"/><path class="ygrid crisp" transform="translate(0,54.48330708661417)" d="M39.4925634295713,0h556.5704286964129" style="stroke: rgb(0, 0, 0); stroke-opacity: 0.1; stroke-width: 0.5px;"/></g></g><g class="zerolinelayer"/><path class="xlines-below"/><path class="ylines-below"/><g class="overlines-below"/><g class="xaxislayer-below"/><g class="yaxislayer-below"/><g class="overaxes-below"/><g class="plot" transform="translate(39.4925634295713, 23.543307086614167)" clip-path="url('#clip93e623xyplot')"><g class="scatterlayer mlayer"><g class="trace scatter tracee8373e" style="stroke-miterlimit: 2;"><g class="fills"><g><path class="js-fill" d="M23.85,3080.79L23.85,3080.79L23.85,166.02L23.85,154.21L15.75,154.21L15.75,79.35L23.85,79.35L23.85,26.81L23.85,79.35L31.94,79.35L31.94,154.21L23.85,154.21L23.85,166.02" style="fill: rgb(255, 0, 0); fill-opacity: 1; stroke-width: 0;"/></g></g><g class="errorbars"/><g class="lines"><path class="js-line" d="M23.85,166.02L23.85,154.21L15.75,154.21L15.75,79.35L23.85,79.35L23.85,26.81L23.85,79.35L31.94,79.35L31.94,154.21L23.85,154.21L23.85,166.02" style="vector-effect: non-scaling-stroke; fill: none; stroke: rgb(255, 0, 0); stroke-opacity: 1; stroke-width: 0.5px; opacity: 1;"/></g><g class="points"/><g class="text"/></g><g class="trace scatter trace37bcbe" style="stroke-miterlimit: 2;"><g class="fills"><g><path class="js-fill" d="M46.98,3080.79L46.98,3080.79L46.98,208.12L46.98,194.94L38.88,194.94L38.88,136.32L46.98,136.32L46.98,131.73L46.98,136.32L55.07,136.32L55.07,194.94L46.98,194.94L46.98,208.12" style="fill: rgb(0, 128, 0); fill-opacity: 1; stroke-width: 0;"/></g></g><g class="errorbars"/><g class="lines"><path class="js-line" d="M46.98,208.12L46.98,194.94L38.88,194.94L38.88,136.32L46.98,136.32L46.98,131.73L46.98,136.32L55.07,136.32L55.07,194.94L46.98,194.94L46.98,208.12" style="vector-effect: non-scaling-stroke; fill: none; stroke: rgb(0, 128, 0); stroke-opacity: 1; stroke-width: 0.5px; opacity: 1;"/></g><g class="points"/><g class="text"/></g><g class="trace scatter traceea760c" style="stroke-miterlimit: 2;"><g class="fills"><g><path class="js-fill" d="M70.11,3080.79L70.11,3080.79L70.11,180.05L70.11,149.76L62.01,149.76L62.01,131.38L70.11,131.38L70.11,107.76L70.11,131.38L78.2,131.38L78.2,149.76L70.11,149.76L70.11,180.05" style="fill: rgb(255, 0, 0); fill-opacity: 1; stroke-width: 0;"/></g></g><g class="errorbars"/><g class="lines"><path class="js-line" d="M70.11,180.05L70.11,149.76L62.01,149.76L62.01,131.38L70.11,131.38L70.11,107.76L70.11,131.38L78.2,131.38L78.2,149.76L70.11,149.76L70.11,180.05" style="vector-effect: non-scaling-stroke; fill: none; stroke: rgb(255, 0, 0); stroke-opacity: 1; stroke-width: 0.5px; opacity: 1;"/></g><g class="points"/><g class="text"/></g><g class="trace scatter trace3b48df" style="stroke-miterlimit: 2;"><g class="fills"><g><path class="js-fill" d="M93.24,3080.79L93.24,3080.79L93.24,202.68L93.24,176.17L85.14,176.17L85.14,141.32L93.24,141.32L93.24,139.98L93.24,141.32L101.34,141.32L101.34,176.17L93.24,176.17L93.24,202.68" style="fill: rgb(0, 128, 0); fill-opacity: 1; stroke-width: 0;"/></g></g><g class="errorbars"/><g class="lines"><path class="js-line" d="M93.24,202.68L93.24,176.17L85.14,176.17L85.14,141.32L93.24,141.32L93.24,139.98L93.24,141.32L101.34,141.32L101.34,176.17L93.24,176.17L93.24,202.68" style="vector-effect: non-scaling-stroke; fill: none; stroke: rgb(0, 128, 0); stroke-opacity: 1; stroke-width: 0.5px; opacity: 1;"/></g><g class="points"/><g class="text"/></g><g class="trace scatter traceb56845" style="stroke-miterlimit: 2;"><g class="fills"><g><path class="js-fill" d="M116.37,3080.79L116.37,3080.79L116.37,179.23L116.37,146.06L108.27,146.06L108.27,134.31L116.37,134.31L116.37,130.78L116.37,134.31L124.47,134.31L124.47,146.06L116.37,146.06L116.37,179.23" style="fill: rgb(255, 0, 0); fill-opacity: 1; stroke-width: 0;"/></g></g><g class="errorbars"/><g class="lines"><path class="js-line" d="M116.37,179.23L116.37,146.06L108.27,146.06L108.27,134.31L116.37,134.31L116.37,130.78L116.37,134.31L124.47,134.31L124.47,146.06L116.37,146.06L116.37,179.23" style="vector-effect: non-scaling-stroke; fill: none; stroke: rgb(255, 0, 0); stroke-opacity: 1; stroke-width: 0.5px; opacity: 1;"/></g><g class="points"/><g class="text"/></g><g class="trace scatter trace073a1f" style="stroke-miterlimit: 2;"><g class="fills"><g><path class="js-fill" d="M139.5,3080.79L139.5,3080.79L139.5,169.2L139.5,146.62L131.41,146.62L131.41,48.91L139.5,48.91L139.5,40.06L139.5,48.91L147.6,48.91L147.6,146.62L139.5,146.62L139.5,169.2" style="fill: rgb(0, 128, 0); fill-opacity: 1; stroke-width: 0;"/></g></g><g class="errorbars"/><g class="lines"><path class="js-line" d="M139.5,169.2L139.5,146.62L131.41,146.62L131.41,48.91L139.5,48.91L139.5,40.06L139.5,48.91L147.6,48.91L147.6,146.62L139.5,146.62L139.5,169.2" style="vector-effect: non-scaling-stroke; fill: none; stroke: rgb(0, 128, 0); stroke-opacity: 1; stroke-width: 0.5px; opacity: 1;"/></g><g class="points"/><g class="text"/></g><g class="trace scatter tracefc9133" style="stroke-miterlimit: 2;"><g class="fills"><g><path class="js-fill" d="M162.63,3080.79L162.63,3080.79L162.63,71.06L162.63,63.05L154.54,63.05L154.54,7.72L162.63,7.72L170.73,7.72L170.73,63.05L162.63,63.05L162.63,71.06" style="fill: rgb(255, 0, 0); fill-opacity: 1; stroke-width: 0;"/></g></g><g class="errorbars"/><g class="lines"><path class="js-line" d="M162.63,71.06L162.63,63.05L154.54,63.05L154.54,7.72L162.63,7.72L170.73,7.72L170.73,63.05L162.63,63.05L162.63,71.06" style="vector-effect: non-scaling-stroke; fill: none; stroke: rgb(255, 0, 0); stroke-opacity: 1; stroke-width: 0.5px; opacity: 1;"/></g><g class="points"/><g class="text"/></g><g class="trace scatter tracef44995" style="stroke-miterlimit: 2;"><g class="fills"><g><path class="js-fill" d="M185.76,3080.79L185.76,3080.79L185.76,86.9L185.76,59.02L177.67,59.02L177.67,43.55L185.76,43.55L185.76,40.62L185.76,43.55L193.86,43.55L193.86,59.02L185.76,59.02L185.76,86.9" style="fill: rgb(0, 128, 0); fill-opacity: 1; stroke-width: 0;"/></g></g><g class="errorbars"/><g class="lines"><path class="js-line" d="M185.76,86.9L185.76,59.02L177.67,59.02L177.67,43.55L185.76,43.55L185.76,40.62L185.76,43.55L193.86,43.55L193.86,59.02L185.76,59.02L185.76,86.9" style="vector-effect: non-scaling-stroke; fill: none; stroke: rgb(0, 128, 0); stroke-opacity: 1; stroke-width: 0.5px; opacity: 1;"/></g><g class="points"/><g class="text"/></g><g class="trace scatter trace446fa7" style="stroke-miterlimit: 2;"><g class="fills"><g><path class="js-fill" d="M208.89,3080.79L208.89,3080.79L208.89,161.86L208.89,145.81L200.8,145.81L200.8,46.49L208.89,46.49L208.89,37L208.89,46.49L216.99,46.49L216.99,145.81L208.89,145.81L208.89,161.86" style="fill: rgb(255, 0, 0); fill-opacity: 1; stroke-width: 0;"/></g></g><g class="errorbars"/><g class="lines"><path class="js-line" d="M208.89,161.86L208.89,145.81L200.8,145.81L200.8,46.49L208.89,46.49L208.89,37L208.89,46.49L216.99,46.49L216.99,145.81L208.89,145.81L208.89,161.86" style="vector-effect: non-scaling-stroke; fill: none; stroke: rgb(255, 0, 0); stroke-opacity: 1; stroke-width: 0.5px; opacity: 1;"/></g><g class="points"/><g class="text"/></g><g class="trace scatter trace708e39" style="stroke-miterlimit: 2;"><g class="fills"><g><path class="js-fill" d="M232.02,3080.79L232.02,3080.79L232.02,198.63L232.02,178.24L223.93,178.24L223.93,153.19L232.02,153.19L232.02,142.02L232.02,153.19L240.12,153.19L240.12,178.24L232.02,178.24L232.02,198.63" style="fill: rgb(0, 128, 0); fill-opacity: 1; stroke-width: 0;"/></g></g><g class="errorbars"/><g class="lines"><path class="js-line" d="M232.02,198.63L232.02,178.24L223.93,178.24L223.93,153.19L232.02,153.19L232.02,142.02L232.02,153.19L240.12,153.19L240.12,178.24L232.02,178.24L232.02,198.63" style="vector-effect: non-scaling-stroke; fill: none; stroke: rgb(0, 128, 0); stroke-opacity: 1; stroke-width: 0.5px; opacity: 1;"/></g><g class="points"/><g class="text"/></g><g class="trace scatter trace15d5b7" style="stroke-miterlimit: 2;"><g class="fills"><g><path class="js-fill" d="M255.15,3080.79L255.15,3080.79L255.15,146.72L255.15,145.96L247.06,145.96L247.06,117.69L255.15,117.69L255.15,96.84L255.15,117.69L263.25,117.69L263.25,145.96L255.15,145.96L255.15,146.72" style="fill: rgb(0, 128, 0); fill-opacity: 1; stroke-width: 0;"/></g></g><g class="errorbars"/><g class="lines"><path class="js-line" d="M255.15,146.72L255.15,145.96L247.06,145.96L247.06,117.69L255.15,117.69L255.15,96.84L255.15,117.69L263.25,117.69L263.25,145.96L255.15,145.96L255.15,146.72" style="vector-effect: non-scaling-stroke; fill: none; stroke: rgb(0, 128, 0); stroke-opacity: 1; stroke-width: 0.5px; opacity: 1;"/></g><g class="points"/><g class="text"/></g><g class="trace scatter trace1c3742" style="stroke-miterlimit: 2;"><g class="fills"><g><path class="js-fill" d="M278.29,3080.79L278.29,3080.79L278.29,180.7L278.29,175.51L270.19,175.51L270.19,127.41L278.29,127.41L278.29,124.9L278.29,127.41L286.38,127.41L286.38,175.51L278.29,175.51L278.29,180.7" style="fill: rgb(255, 0, 0); fill-opacity: 1; stroke-width: 0;"/></g></g><g class="errorbars"/><g class="lines"><path class="js-line" d="M278.29,180.7L278.29,175.51L270.19,175.51L270.19,127.41L278.29,127.41L278.29,124.9L278.29,127.41L286.38,127.41L286.38,175.51L278.29,175.51L278.29,180.7" style="vector-effect: non-scaling-stroke; fill: none; stroke: rgb(255, 0, 0); stroke-opacity: 1; stroke-width: 0.5px; opacity: 1;"/></g><g class="points"/><g class="text"/></g><g class="trace scatter trace1bff84" style="stroke-miterlimit: 2;"><g class="fills"><g><path class="js-fill" d="M301.42,3080.79L301.42,3080.79L301.42,173.6L301.42,163.93L293.32,163.93L293.32,133.53L301.42,133.53L301.42,115.66L301.42,133.53L309.51,133.53L309.51,163.93L301.42,163.93L301.42,173.6" style="fill: rgb(0, 128, 0); fill-opacity: 1; stroke-width: 0;"/></g></g><g class="errorbars"/><g class="lines"><path class="js-line" d="M301.42,173.6L301.42,163.93L293.32,163.93L293.32,133.53L301.42,133.53L301.42,115.66L301.42,133.53L309.51,133.53L309.51,163.93L301.42,163.93L301.42,173.6" style="vector-effect: non-scaling-stroke; fill: none; stroke: rgb(0, 128, 0); stroke-opacity: 1; stroke-width: 0.5px; opacity: 1;"/></g><g class="points"/><g class="text"/></g><g class="trace scatter trace201f39" style="stroke-miterlimit: 2;"><g class="fills"><g><path class="js-fill" d="M324.55,3080.79L324.55,3080.79L324.55,191.24L324.55,181.98L316.45,181.98L316.45,115.27L324.55,115.27L324.55,102.84L324.55,115.27L332.64,115.27L332.64,181.98L324.55,181.98L324.55,191.24" style="fill: rgb(0, 128, 0); fill-opacity: 1; stroke-width: 0;"/></g></g><g class="errorbars"/><g class="lines"><path class="js-line" d="M324.55,191.24L324.55,181.98L316.45,181.98L316.45,115.27L324.55,115.27L324.55,102.84L324.55,115.27L332.64,115.27L332.64,181.98L324.55,181.98L324.55,191.24" style="vector-effect: non-scaling-stroke; fill: none; stroke: rgb(0, 128, 0); stroke-opacity: 1; stroke-width: 0.5px; opacity: 1;"/></g><g class="points"/><g class="text"/></g><g class="trace scatter trace78b96b" style="stroke-miterlimit: 2;"><g class="fills"><g><path class="js-fill" d="M347.68,3080.79L347.68,3080.79L347.68,265.19L347.68,209.17L339.58,209.17L339.58,166.47L347.68,166.47L347.68,158.84L347.68,166.47L355.77,166.47L355.77,209.17L347.68,209.17L347.68,265.19" style="fill: rgb(255, 0, 0); fill-opacity: 1; stroke-width: 0;"/></g></g><g class="errorbars"/><g class="lines"><path class="js-line" d="M347.68,265.19L347.68,209.17L339.58,209.17L339.58,166.47L347.68,166.47L347.68,158.84L347.68,166.47L355.77,166.47L355.77,209.17L347.68,209.17L347.68,265.19" style="vector-effect: non-scaling-stroke; fill: none; stroke: rgb(255, 0, 0); stroke-opacity: 1; stroke-width: 0.5px; opacity: 1;"/></g><g class="points"/><g class="text"/></g><g class="trace scatter tracee0750f" style="stroke-miterlimit: 2;"><g class="fills"><g><path class="js-fill" d="M370.81,3080.79L370.81,3080.79L370.81,242.71L370.81,225.65L362.71,225.65L362.71,202.04L370.81,202.04L370.81,194.63L370.81,202.04L378.9,202.04L378.9,225.65L370.81,225.65L370.81,242.71" style="fill: rgb(255, 0, 0); fill-opacity: 1; stroke-width: 0;"/></g></g><g class="errorbars"/><g class="lines"><path class="js-line" d="M370.81,242.71L370.81,225.65L362.71,225.65L362.71,202.04L370.81,202.04L370.81,194.63L370.81,202.04L378.9,202.04L378.9,225.65L370.81,225.65L370.81,242.71" style="vector-effect: non-scaling-stroke; fill: none; stroke: rgb(255, 0, 0); stroke-opacity: 1; stroke-width: 0.5px; opacity: 1;"/></g><g class="points"/><g class="text"/></g><g class="trace scatter tracec5c623" style="stroke-miterlimit: 2;"><g class="fills"><g><path class="js-fill" d="M393.94,3080.79L393.94,3080.79L393.94,256.24L393.94,244.01L385.84,244.01L385.84,221.54L393.94,221.54L393.94,204.13L393.94,221.54L402.03,221.54L402.03,244.01L393.94,244.01L393.94,256.24" style="fill: rgb(255, 0, 0); fill-opacity: 1; stroke-width: 0;"/></g></g><g class="errorbars"/><g class="lines"><path class="js-line" d="M393.94,256.24L393.94,244.01L385.84,244.01L385.84,221.54L393.94,221.54L393.94,204.13L393.94,221.54L402.03,221.54L402.03,244.01L393.94,244.01L393.94,256.24" style="vector-effect: non-scaling-stroke; fill: none; stroke: rgb(255, 0, 0); stroke-opacity: 1; stroke-width: 0.5px; opacity: 1;"/></g><g class="points"/><g class="text"/></g><g class="trace scatter traceda6207" style="stroke-miterlimit: 2;"><g class="fills"><g><path class="js-fill" d="M417.07,3080.79L417.07,3080.79L417.07,246.93L417.07,235.62L408.97,235.62L408.97,227.27L417.07,227.27L417.07,210.23L417.07,227.27L425.17,227.27L425.17,235.62L417.07,235.62L417.07,246.93" style="fill: rgb(0, 128, 0); fill-opacity: 1; stroke-width: 0;"/></g></g><g class="errorbars"/><g class="lines"><path class="js-line" d="M417.07,246.93L417.07,235.62L408.97,235.62L408.97,227.27L417.07,227.27L417.07,210.23L417.07,227.27L425.17,227.27L425.17,235.62L417.07,235.62L417.07,246.93" style="vector-effect: non-scaling-stroke; fill: none; stroke: rgb(0, 128, 0); stroke-opacity: 1; stroke-width: 0.5px; opacity: 1;"/></g><g class="points"/><g class="text"/></g><g class="trace scatter trace3ed47f" style="stroke-miterlimit: 2;"><g class="fills"><g><path class="js-fill" d="M440.2,3080.79L440.2,3080.79L440.2,242.01L440.2,230.88L432.1,230.88L432.1,175.98L440.2,175.98L440.2,171.54L440.2,175.98L448.3,175.98L448.3,230.88L440.2,230.88L440.2,242.01" style="fill: rgb(0, 128, 0); fill-opacity: 1; stroke-width: 0;"/></g></g><g class="errorbars"/><g class="lines"><path class="js-line" d="M440.2,242.01L440.2,230.88L432.1,230.88L432.1,175.98L440.2,175.98L440.2,171.54L440.2,175.98L448.3,175.98L448.3,230.88L440.2,230.88L440.2,242.01" style="vector-effect: non-scaling-stroke; fill: none; stroke: rgb(0, 128, 0); stroke-opacity: 1; stroke-width: 0.5px; opacity: 1;"/></g><g class="points"/><g class="text"/></g><g class="trace scatter tracec7abda" style="stroke-miterlimit: 2;"><g class="fills"><g><path class="js-fill" d="M463.33,3080.79L463.33,3080.79L463.33,211.73L463.33,186.84L455.23,186.84L455.23,176.17L463.33,176.17L463.33,143.55L463.33,176.17L471.43,176.17L471.43,186.84L463.33,186.84L463.33,211.73" style="fill: rgb(255, 0, 0); fill-opacity: 1; stroke-width: 0;"/></g></g><g class="errorbars"/><g class="lines"><path class="js-line" d="M463.33,211.73L463.33,186.84L455.23,186.84L455.23,176.17L463.33,176.17L463.33,143.55L463.33,176.17L471.43,176.17L471.43,186.84L463.33,186.84L463.33,211.73" style="vector-effect: non-scaling-stroke; fill: none; stroke: rgb(255, 0, 0); stroke-opacity: 1; stroke-width: 0.5px; opacity: 1;"/></g><g class="points"/><g class="text"/></g><g class="trace scatter tracee9e9de" style="stroke-miterlimit: 2;"><g class="fills"><g><path class="js-fill" d="M486.46,3080.79L486.46,3080.79L486.46,228.3L486.46,201L478.37,201L478.37,183.72L486.46,183.72L486.46,168.28L486.46,183.72L494.56,183.72L494.56,201L486.46,201L486.46,228.3" style="fill: rgb(0, 128, 0); fill-opacity: 1; stroke-width: 0;"/></g></g><g class="errorbars"/><g class="lines"><path class="js-line" d="M486.46,228.3L486.46,201L478.37,201L478.37,183.72L486.46,183.72L486.46,168.28L486.46,183.72L494.56,183.72L494.56,201L486.46,201L486.46,228.3" style="vector-effect: non-scaling-stroke; fill: none; stroke: rgb(0, 128, 0); stroke-opacity: 1; stroke-width: 0.5px; opacity: 1;"/></g><g class="points"/><g class="text"/></g><g class="trace scatter trace52e0f0" style="stroke-miterlimit: 2;"><g class="fills"><g><path class="js-fill" d="M509.59,3080.79L509.59,3080.79L509.59,218.77L509.59,214.28L501.5,214.28L501.5,190.81L509.59,190.81L509.59,156.81L509.59,190.81L517.69,190.81L517.69,214.28L509.59,214.28L509.59,218.77" style="fill: rgb(255, 0, 0); fill-opacity: 1; stroke-width: 0;"/></g></g><g class="errorbars"/><g class="lines"><path class="js-line" d="M509.59,218.77L509.59,214.28L501.5,214.28L501.5,190.81L509.59,190.81L509.59,156.81L509.59,190.81L517.69,190.81L517.69,214.28L509.59,214.28L509.59,218.77" style="vector-effect: non-scaling-stroke; fill: none; stroke: rgb(255, 0, 0); stroke-opacity: 1; stroke-width: 0.5px; opacity: 1;"/></g><g class="points"/><g class="text"/></g><g class="trace scatter traceca8acb" style="stroke-miterlimit: 2;"><g class="fills"><g><path class="js-fill" d="M532.72,3080.79L532.72,3080.79L532.72,204.73L532.72,204.1L524.63,204.1L524.63,163.35L532.72,163.35L532.72,152.19L532.72,163.35L540.82,163.35L540.82,204.1L532.72,204.1L532.72,204.73" style="fill: rgb(0, 128, 0); fill-opacity: 1; stroke-width: 0;"/></g></g><g class="errorbars"/><g class="lines"><path class="js-line" d="M532.72,204.73L532.72,204.1L524.63,204.1L524.63,163.35L532.72,163.35L532.72,152.19L532.72,163.35L540.82,163.35L540.82,204.1L532.72,204.1L532.72,204.73" style="vector-effect: non-scaling-stroke; fill: none; stroke: rgb(0, 128, 0); stroke-opacity: 1; stroke-width: 0.5px; opacity: 1;"/></g><g class="points"/><g class="text"/></g><g class="trace scatter trace3458d0" style="stroke-miterlimit: 2; opacity: 1;"><g class="fills"/><g class="errorbars"/><g class="lines"/><g class="points"><path class="point" transform="translate(23.85,116.78)" d="M1,0A1,1 0 1,1 0,-1A1,1 0 0,1 1,0Z" style="opacity: 1; stroke-width: 0px; fill: rgb(255, 0, 0); fill-opacity: 1;"/></g><g class="text"/></g><g class="trace scatter trace8b1812" style="stroke-miterlimit: 2; opacity: 1;"><g class="fills"/><g class="errorbars"/><g class="lines"/><g class="points"><path class="point" transform="translate(46.98,165.63)" d="M1,0A1,1 0 1,1 0,-1A1,1 0 0,1 1,0Z" style="opacity: 1; stroke-width: 0px; fill: rgb(0, 128, 0); fill-opacity: 1;"/></g><g class="text"/></g><g class="trace scatter traceddf430" style="stroke-miterlimit: 2; opacity: 1;"><g class="fills"/><g class="errorbars"/><g class="lines"/><g class="points"><path class="point" transform="translate(70.11,140.57)" d="M1,0A1,1 0 1,1 0,-1A1,1 0 0,1 1,0Z" style="opacity: 1; stroke-width: 0px; fill: rgb(255, 0, 0); fill-opacity: 1;"/></g><g class="text"/></g><g class="trace scatter trace6b0463" style="stroke-miterlimit: 2; opacity: 1;"><g class="fills"/><g class="errorbars"/><g class="lines"/><g class="points"><path class="point" transform="translate(93.24,158.74)" d="M1,0A1,1 0 1,1 0,-1A1,1 0 0,1 1,0Z" style="opacity: 1; stroke-width: 0px; fill: rgb(0, 128, 0); fill-opacity: 1;"/></g><g class="text"/></g><g class="trace scatter trace1d54bc" style="stroke-miterlimit: 2; opacity: 1;"><g class="fills"/><g class="errorbars"/><g class="lines"/><g class="points"><path class="point" transform="translate(116.37,140.18)" d="M1,0A1,1 0 1,1 0,-1A1,1 0 0,1 1,0Z" style="opacity: 1; stroke-width: 0px; fill: rgb(255, 0, 0); fill-opacity: 1;"/></g><g class="text"/></g><g class="trace scatter tracea88ee0" style="stroke-miterlimit: 2; opacity: 1;"><g class="fills"/><g class="errorbars"/><g class="lines"/><g class="points"><path class="point" transform="translate(139.5,97.77)" d="M1,0A1,1 0 1,1 0,-1A1,1 0 0,1 1,0Z" style="opacity: 1; stroke-width: 0px; fill: rgb(0, 128, 0); fill-opacity: 1;"/></g><g class="text"/></g><g class="trace scatter traceb0d529" style="stroke-miterlimit: 2; opacity: 1;"><g class="fills"/><g class="errorbars"/><g class="lines"/><g class="points"><path class="point" transform="translate(162.63,35.39)" d="M1,0A1,1 0 1,1 0,-1A1,1 0 0,1 1,0Z" style="opacity: 1; stroke-width: 0px; fill: rgb(255, 0, 0); fill-opacity: 1;"/></g><g class="text"/></g><g class="trace scatter traceae0927" style="stroke-miterlimit: 2; opacity: 1;"><g class="fills"/><g class="errorbars"/><g class="lines"/><g class="points"><path class="point" transform="translate(185.76,51.28)" d="M1,0A1,1 0 1,1 0,-1A1,1 0 0,1 1,0Z" style="opacity: 1; stroke-width: 0px; fill: rgb(0, 128, 0); fill-opacity: 1;"/></g><g class="text"/></g><g class="trace scatter trace25bd80" style="stroke-miterlimit: 2; opacity: 1;"><g class="fills"/><g class="errorbars"/><g class="lines"/><g class="points"><path class="point" transform="translate(208.89,96.15)" d="M1,0A1,1 0 1,1 0,-1A1,1 0 0,1 1,0Z" style="opacity: 1; stroke-width: 0px; fill: rgb(255, 0, 0); fill-opacity: 1;"/></g><g class="text"/></g><g class="trace scatter tracee186ab" style="stroke-miterlimit: 2; opacity: 1;"><g class="fills"/><g class="errorbars"/><g class="lines"/><g class="points"><path class="point" transform="translate(232.02,165.72)" d="M1,0A1,1 0 1,1 0,-1A1,1 0 0,1 1,0Z" style="opacity: 1; stroke-width: 0px; fill: rgb(0, 128, 0); fill-opacity: 1;"/></g><g class="text"/></g><g class="trace scatter tracedaa69a" style="stroke-miterlimit: 2; opacity: 1;"><g class="fills"/><g class="errorbars"/><g class="lines"/><g class="points"><path class="point" transform="translate(255.15,131.83)" d="M1,0A1,1 0 1,1 0,-1A1,1 0 0,1 1,0Z" style="opacity: 1; stroke-width: 0px; fill: rgb(0, 128, 0); fill-opacity: 1;"/></g><g class="text"/></g><g class="trace scatter traced75056" style="stroke-miterlimit: 2; opacity: 1;"><g class="fills"/><g class="errorbars"/><g class="lines"/><g class="points"><path class="point" transform="translate(278.29,151.46)" d="M1,0A1,1 0 1,1 0,-1A1,1 0 0,1 1,0Z" style="opacity: 1; stroke-width: 0px; fill: rgb(255, 0, 0); fill-opacity: 1;"/></g><g class="text"/></g><g class="trace scatter tracebb47b1" style="stroke-miterlimit: 2; opacity: 1;"><g class="fills"/><g class="errorbars"/><g class="lines"/><g class="points"><path class="point" transform="translate(301.42,148.73)" d="M1,0A1,1 0 1,1 0,-1A1,1 0 0,1 1,0Z" style="opacity: 1; stroke-width: 0px; fill: rgb(0, 128, 0); fill-opacity: 1;"/></g><g class="text"/></g><g class="trace scatter tracee2caca" style="stroke-miterlimit: 2; opacity: 1;"><g class="fills"/><g class="errorbars"/><g class="lines"/><g class="points"><path class="point" transform="translate(324.55,148.63)" d="M1,0A1,1 0 1,1 0,-1A1,1 0 0,1 1,0Z" style="opacity: 1; stroke-width: 0px; fill: rgb(0, 128, 0); fill-opacity: 1;"/></g><g class="text"/></g><g class="trace scatter traceb552b3" style="stroke-miterlimit: 2; opacity: 1;"><g class="fills"/><g class="errorbars"/><g class="lines"/><g class="points"><path class="point" transform="translate(347.68,187.82)" d="M1,0A1,1 0 1,1 0,-1A1,1 0 0,1 1,0Z" style="opacity: 1; stroke-width: 0px; fill: rgb(255, 0, 0); fill-opacity: 1;"/></g><g class="text"/></g><g class="trace scatter trace1c1797" style="stroke-miterlimit: 2; opacity: 1;"><g class="fills"/><g class="errorbars"/><g class="lines"/><g class="points"><path class="point" transform="translate(370.81,213.85)" d="M1,0A1,1 0 1,1 0,-1A1,1 0 0,1 1,0Z" style="opacity: 1; stroke-width: 0px; fill: rgb(255, 0, 0); fill-opacity: 1;"/></g><g class="text"/></g><g class="trace scatter trace3dcdc9" style="stroke-miterlimit: 2; opacity: 1;"><g class="fills"/><g class="errorbars"/><g class="lines"/><g class="points"><path class="point" transform="translate(393.94,232.77)" d="M1,0A1,1 0 1,1 0,-1A1,1 0 0,1 1,0Z" style="opacity: 1; stroke-width: 0px; fill: rgb(255, 0, 0); fill-opacity: 1;"/></g><g class="text"/></g><g class="trace scatter traceb62756" style="stroke-miterlimit: 2; opacity: 1;"><g class="fills"/><g class="errorbars"/><g class="lines"/><g class="points"><path class="point" transform="translate(417.07,231.45)" d="M1,0A1,1 0 1,1 0,-1A1,1 0 0,1 1,0Z" style="opacity: 1; stroke-width: 0px; fill: rgb(0, 128, 0); fill-opacity: 1;"/></g><g class="text"/></g><g class="trace scatter trace3ff145" style="stroke-miterlimit: 2; opacity: 1;"><g class="fills"/><g class="errorbars"/><g class="lines"/><g class="points"><path class="point" transform="translate(440.2,203.43)" d="M1,0A1,1 0 1,1 0,-1A1,1 0 0,1 1,0Z" style="opacity: 1; stroke-width: 0px; fill: rgb(0, 128, 0); fill-opacity: 1;"/></g><g class="text"/></g><g class="trace scatter tracef9ae9e" style="stroke-miterlimit: 2; opacity: 1;"><g class="fills"/><g class="errorbars"/><g class="lines"/><g class="points"><path class="point" transform="translate(463.33,181.51)" d="M1,0A1,1 0 1,1 0,-1A1,1 0 0,1 1,0Z" style="opacity: 1; stroke-width: 0px; fill: rgb(255, 0, 0); fill-opacity: 1;"/></g><g class="text"/></g><g class="trace scatter trace4b7000" style="stroke-miterlimit: 2; opacity: 1;"><g class="fills"/><g class="errorbars"/><g class="lines"/><g class="points"><path class="point" transform="translate(486.46,192.36)" d="M1,0A1,1 0 1,1 0,-1A1,1 0 0,1 1,0Z" style="opacity: 1; stroke-width: 0px; fill: rgb(0, 128, 0); fill-opacity: 1;"/></g><g class="text"/></g><g class="trace scatter tracef41a6e" style="stroke-miterlimit: 2; opacity: 1;"><g class="fills"/><g class="errorbars"/><g class="lines"/><g class="points"><path class="point" transform="translate(509.59,202.55)" d="M1,0A1,1 0 1,1 0,-1A1,1 0 0,1 1,0Z" style="opacity: 1; stroke-width: 0px; fill: rgb(255, 0, 0); fill-opacity: 1;"/></g><g class="text"/></g><g class="trace scatter trace4f8aad" style="stroke-miterlimit: 2; opacity: 1;"><g class="fills"/><g class="errorbars"/><g class="lines"/><g class="points"><path class="point" transform="translate(532.72,183.72)" d="M1,0A1,1 0 1,1 0,-1A1,1 0 0,1 1,0Z" style="opacity: 1; stroke-width: 0px; fill: rgb(0, 128, 0); fill-opacity: 1;"/></g><g class="text"/></g></g></g><g class="overplot"/><path class="xlines-above crisp" d="M38.4925634295713,296.9566929133858H596.0629921259842" style="fill: none; stroke-width: 1px; stroke: rgb(0, 0, 0); stroke-opacity: 1;"/><path class="ylines-above crisp" d="M38.9925634295713,23.543307086614167V296.4566929133858" style="fill: none; stroke-width: 1px; stroke: rgb(0, 0, 0); stroke-opacity: 1;"/><g class="overlines-above"/><g class="xaxislayer-above"><path class="xtick ticks crisp" d="M0,296.4566929133858v-5" transform="translate(63.3425634295713,0)" style="stroke: rgb(0, 0, 0); stroke-opacity: 1; stroke-width: 1px;"/><path class="xtick ticks crisp" d="M0,296.4566929133858v-5" transform="translate(86.4725634295713,0)" style="stroke: rgb(0, 0, 0); stroke-opacity: 1; stroke-width: 1px;"/><path class="xtick ticks crisp" d="M0,296.4566929133858v-5" transform="translate(109.60256342957129,0)" style="stroke: rgb(0, 0, 0); stroke-opacity: 1; stroke-width: 1px;"/><path class="xtick ticks crisp" d="M0,296.4566929133858v-5" transform="translate(132.7325634295713,0)" style="stroke: rgb(0, 0, 0); stroke-opacity: 1; stroke-width: 1px;"/><path class="xtick ticks crisp" d="M0,296.4566929133858v-5" transform="translate(155.8625634295713,0)" style="stroke: rgb(0, 0, 0); stroke-opacity: 1; stroke-width: 1px;"/><path class="xtick ticks crisp" d="M0,296.4566929133858v-5" transform="translate(178.9925634295713,0)" style="stroke: rgb(0, 0, 0); stroke-opacity: 1; stroke-width: 1px;"/><path class="xtick ticks crisp" d="M0,296.4566929133858v-5" transform="translate(202.1225634295713,0)" style="stroke: rgb(0, 0, 0); stroke-opacity: 1; stroke-width: 1px;"/><path class="xtick ticks crisp" d="M0,296.4566929133858v-5" transform="translate(225.2525634295713,0)" style="stroke: rgb(0, 0, 0); stroke-opacity: 1; stroke-width: 1px;"/><path class="xtick ticks crisp" d="M0,296.4566929133858v-5" transform="translate(248.3825634295713,0)" style="stroke: rgb(0, 0, 0); stroke-opacity: 1; stroke-width: 1px;"/><path class="xtick ticks crisp" d="M0,296.4566929133858v-5" transform="translate(271.5125634295713,0)" style="stroke: rgb(0, 0, 0); stroke-opacity: 1; stroke-width: 1px;"/><path class="xtick ticks crisp" d="M0,296.4566929133858v-5" transform="translate(294.6425634295713,0)" style="stroke: rgb(0, 0, 0); stroke-opacity: 1; stroke-width: 1px;"/><path class="xtick ticks crisp" d="M0,296.4566929133858v-5" transform="translate(317.7825634295713,0)" style="stroke: rgb(0, 0, 0); stroke-opacity: 1; stroke-width: 1px;"/><path class="xtick ticks crisp" d="M0,296.4566929133858v-5" transform="translate(340.9125634295713,0)" style="stroke: rgb(0, 0, 0); stroke-opacity: 1; stroke-width: 1px;"/><path class="xtick ticks crisp" d="M0,296.4566929133858v-5" transform="translate(364.0425634295713,0)" style="stroke: rgb(0, 0, 0); stroke-opacity: 1; stroke-width: 1px;"/><path class="xtick ticks crisp" d="M0,296.4566929133858v-5" transform="translate(387.1725634295713,0)" style="stroke: rgb(0, 0, 0); stroke-opacity: 1; stroke-width: 1px;"/><path class="xtick ticks crisp" d="M0,296.4566929133858v-5" transform="translate(410.3025634295713,0)" style="stroke: rgb(0, 0, 0); stroke-opacity: 1; stroke-width: 1px;"/><path class="xtick ticks crisp" d="M0,296.4566929133858v-5" transform="translate(433.4325634295713,0)" style="stroke: rgb(0, 0, 0); stroke-opacity: 1; stroke-width: 1px;"/><path class="xtick ticks crisp" d="M0,296.4566929133858v-5" transform="translate(456.5625634295713,0)" style="stroke: rgb(0, 0, 0); stroke-opacity: 1; stroke-width: 1px;"/><path class="xtick ticks crisp" d="M0,296.4566929133858v-5" transform="translate(479.6925634295713,0)" style="stroke: rgb(0, 0, 0); stroke-opacity: 1; stroke-width: 1px;"/><path class="xtick ticks crisp" d="M0,296.4566929133858v-5" transform="translate(502.8225634295713,0)" style="stroke: rgb(0, 0, 0); stroke-opacity: 1; stroke-width: 1px;"/><path class="xtick ticks crisp" d="M0,296.4566929133858v-5" transform="translate(525.9525634295712,0)" style="stroke: rgb(0, 0, 0); stroke-opacity: 1; stroke-width: 1px;"/><path class="xtick ticks crisp" d="M0,296.4566929133858v-5" transform="translate(549.0825634295712,0)" style="stroke: rgb(0, 0, 0); stroke-opacity: 1; stroke-width: 1px;"/><path class="xtick ticks crisp" d="M0,296.4566929133858v-5" transform="translate(572.2125634295713,0)" style="stroke: rgb(0, 0, 0); stroke-opacity: 1; stroke-width: 1px;"/><g class="xtick"><text text-anchor="end" x="0" y="310.65669291338577" transform="translate(63.3425634295713,0) rotate(-90,0,305.15669291338577)" style="font-family: sans-serif; font-size: 11px; fill: rgb(0, 0, 0); fill-opacity: 1; white-space: pre;">2020-07-13</text></g><g class="xtick"><text text-anchor="end" x="0" y="310.65669291338577" transform="translate(86.4725634295713,0) rotate(-90,0,305.15669291338577)" style="font-family: sans-serif; font-size: 11px; fill: rgb(0, 0, 0); fill-opacity: 1; white-space: pre;">2020-07-14</text></g><g class="xtick"><text text-anchor="end" x="0" y="310.65669291338577" transform="translate(109.60256342957129,0) rotate(-90,0,305.15669291338577)" style="font-family: sans-serif; font-size: 11px; fill: rgb(0, 0, 0); fill-opacity: 1; white-space: pre;">2020-07-15</text></g><g class="xtick"><text text-anchor="end" x="0" y="310.65669291338577" transform="translate(132.7325634295713,0) rotate(-90,0,305.15669291338577)" style="font-family: sans-serif; font-size: 11px; fill: rgb(0, 0, 0); fill-opacity: 1; white-space: pre;">2020-07-16</text></g><g class="xtick"><text text-anchor="end" x="0" y="310.65669291338577" transform="translate(155.8625634295713,0) rotate(-90,0,305.15669291338577)" style="font-family: sans-serif; font-size: 11px; fill: rgb(0, 0, 0); fill-opacity: 1; white-space: pre;">2020-07-17</text></g><g class="xtick"><text text-anchor="end" x="0" y="310.65669291338577" transform="translate(178.9925634295713,0) rotate(-90,0,305.15669291338577)" style="font-family: sans-serif; font-size: 11px; fill: rgb(0, 0, 0); fill-opacity: 1; white-space: pre;">2020-07-20</text></g><g class="xtick"><text text-anchor="end" x="0" y="310.65669291338577" transform="translate(202.1225634295713,0) rotate(-90,0,305.15669291338577)" style="font-family: sans-serif; font-size: 11px; fill: rgb(0, 0, 0); fill-opacity: 1; white-space: pre;">2020-07-21</text></g><g class="xtick"><text text-anchor="end" x="0" y="310.65669291338577" transform="translate(225.2525634295713,0) rotate(-90,0,305.15669291338577)" style="font-family: sans-serif; font-size: 11px; fill: rgb(0, 0, 0); fill-opacity: 1; white-space: pre;">2020-07-22</text></g><g class="xtick"><text text-anchor="end" x="0" y="310.65669291338577" transform="translate(248.3825634295713,0) rotate(-90,0,305.15669291338577)" style="font-family: sans-serif; font-size: 11px; fill: rgb(0, 0, 0); fill-opacity: 1; white-space: pre;">2020-07-23</text></g><g class="xtick"><text text-anchor="end" x="0" y="310.65669291338577" transform="translate(271.5125634295713,0) rotate(-90,0,305.15669291338577)" style="font-family: sans-serif; font-size: 11px; fill: rgb(0, 0, 0); fill-opacity: 1; white-space: pre;">2020-07-24</text></g><g class="xtick"><text text-anchor="end" x="0" y="310.65669291338577" transform="translate(294.6425634295713,0) rotate(-90,0,305.15669291338577)" style="font-family: sans-serif; font-size: 11px; fill: rgb(0, 0, 0); fill-opacity: 1; white-space: pre;">2020-07-27</text></g><g class="xtick"><text text-anchor="end" x="0" y="310.65669291338577" transform="translate(317.7825634295713,0) rotate(-90,0,305.15669291338577)" style="font-family: sans-serif; font-size: 11px; fill: rgb(0, 0, 0); fill-opacity: 1; white-space: pre;">2020-07-28</text></g><g class="xtick"><text text-anchor="end" x="0" y="310.65669291338577" transform="translate(340.9125634295713,0) rotate(-90,0,305.15669291338577)" style="font-family: sans-serif; font-size: 11px; fill: rgb(0, 0, 0); fill-opacity: 1; white-space: pre;">2020-07-29</text></g><g class="xtick"><text text-anchor="end" x="0" y="310.65669291338577" transform="translate(364.0425634295713,0) rotate(-90,0,305.15669291338577)" style="font-family: sans-serif; font-size: 11px; fill: rgb(0, 0, 0); fill-opacity: 1; white-space: pre;">2020-07-30</text></g><g class="xtick"><text text-anchor="end" x="0" y="310.65669291338577" transform="translate(387.1725634295713,0) rotate(-90,0,305.15669291338577)" style="font-family: sans-serif; font-size: 11px; fill: rgb(0, 0, 0); fill-opacity: 1; white-space: pre;">2020-07-31</text></g><g class="xtick"><text text-anchor="end" x="0" y="310.65669291338577" transform="translate(410.3025634295713,0) rotate(-90,0,305.15669291338577)" style="font-family: sans-serif; font-size: 11px; fill: rgb(0, 0, 0); fill-opacity: 1; white-space: pre;">2020-08-03</text></g><g class="xtick"><text text-anchor="end" x="0" y="310.65669291338577" transform="translate(433.4325634295713,0) rotate(-90,0,305.15669291338577)" style="font-family: sans-serif; font-size: 11px; fill: rgb(0, 0, 0); fill-opacity: 1; white-space: pre;">2020-08-04</text></g><g class="xtick"><text text-anchor="end" x="0" y="310.65669291338577" transform="translate(456.5625634295713,0) rotate(-90,0,305.15669291338577)" style="font-family: sans-serif; font-size: 11px; fill: rgb(0, 0, 0); fill-opacity: 1; white-space: pre;">2020-08-05</text></g><g class="xtick"><text text-anchor="end" x="0" y="310.65669291338577" transform="translate(479.6925634295713,0) rotate(-90,0,305.15669291338577)" style="font-family: sans-serif; font-size: 11px; fill: rgb(0, 0, 0); fill-opacity: 1; white-space: pre;">2020-08-06</text></g><g class="xtick"><text text-anchor="end" x="0" y="310.65669291338577" transform="translate(502.8225634295713,0) rotate(-90,0,305.15669291338577)" style="font-family: sans-serif; font-size: 11px; fill: rgb(0, 0, 0); fill-opacity: 1; white-space: pre;">2020-08-07</text></g><g class="xtick"><text text-anchor="end" x="0" y="310.65669291338577" transform="translate(525.9525634295712,0) rotate(-90,0,305.15669291338577)" style="font-family: sans-serif; font-size: 11px; fill: rgb(0, 0, 0); fill-opacity: 1; white-space: pre;">2020-08-10</text></g><g class="xtick"><text text-anchor="end" x="0" y="310.65669291338577" transform="translate(549.0825634295712,0) rotate(-90,0,305.15669291338577)" style="font-family: sans-serif; font-size: 11px; fill: rgb(0, 0, 0); fill-opacity: 1; white-space: pre;">2020-08-11</text></g><g class="xtick"><text text-anchor="end" x="0" y="310.65669291338577" transform="translate(572.2125634295713,0) rotate(-90,0,305.15669291338577)" style="font-family: sans-serif; font-size: 11px; fill: rgb(0, 0, 0); fill-opacity: 1; white-space: pre;">2020-08-12</text></g></g><g class="yaxislayer-above"><path class="ytick ticks crisp" d="M39.4925634295713,0h5" transform="translate(0,248.12330708661418)" style="stroke: rgb(0, 0, 0); stroke-opacity: 1; stroke-width: 1px;"/><path class="ytick ticks crisp" d="M39.4925634295713,0h5" transform="translate(0,199.71330708661415)" style="stroke: rgb(0, 0, 0); stroke-opacity: 1; stroke-width: 1px;"/><path class="ytick ticks crisp" d="M39.4925634295713,0h5" transform="translate(0,151.30330708661418)" style="stroke: rgb(0, 0, 0); stroke-opacity: 1; stroke-width: 1px;"/><path class="ytick ticks crisp" d="M39.4925634295713,0h5" transform="translate(0,102.89330708661416)" style="stroke: rgb(0, 0, 0); stroke-opacity: 1; stroke-width: 1px;"/><path class="ytick ticks crisp" d="M39.4925634295713,0h5" transform="translate(0,54.48330708661417)" style="stroke: rgb(0, 0, 0); stroke-opacity: 1; stroke-width: 1px;"/><g class="ytick"><text text-anchor="end" x="36.292563429571295" y="3.8499999999999996" transform="translate(0,248.12330708661418)" style="font-family: sans-serif; font-size: 11px; fill: rgb(0, 0, 0); fill-opacity: 1; white-space: pre;">1475</text></g><g class="ytick"><text text-anchor="end" x="36.292563429571295" y="3.8499999999999996" transform="translate(0,199.71330708661415)" style="font-family: sans-serif; font-size: 11px; fill: rgb(0, 0, 0); fill-opacity: 1; white-space: pre;">1500</text></g><g class="ytick"><text text-anchor="end" x="36.292563429571295" y="3.8499999999999996" transform="translate(0,151.30330708661418)" style="font-family: sans-serif; font-size: 11px; fill: rgb(0, 0, 0); fill-opacity: 1; white-space: pre;">1525</text></g><g class="ytick"><text text-anchor="end" x="36.292563429571295" y="3.8499999999999996" transform="translate(0,102.89330708661416)" style="font-family: sans-serif; font-size: 11px; fill: rgb(0, 0, 0); fill-opacity: 1; white-space: pre;">1550</text></g><g class="ytick"><text text-anchor="end" x="36.292563429571295" y="3.8499999999999996" transform="translate(0,54.48330708661417)" style="font-family: sans-serif; font-size: 11px; fill: rgb(0, 0, 0); fill-opacity: 1; white-space: pre;">1575</text></g></g><g class="overaxes-above"/></g></g><g class="polarlayer"/><g class="ternarylayer"/><g class="geolayer"/><g class="funnelarealayer"/><g class="pielayer"/><g class="treemaplayer"/><g class="sunburstlayer"/><g class="glimages"/><defs id="topdefs-93e623"><g class="clips"/></defs><g class="layer-above"><g class="imagelayer"/><g class="shapelayer"/></g><g class="infolayer"><g class="g-gtitle"/><g class="g-xtitle"/><g class="g-ytitle"/></g></svg>