<?xml version="1.0" encoding="utf-8"?>
<svg xmlns="http://www.w3.org/2000/svg" xmlns:xlink="http://www.w3.org/1999/xlink" width="600" height="400" viewBox="0 0 2400 1600">
<defs>
  <clipPath id="clip750">
    <rect x="0" y="0" width="2400" height="1600"/>
  </clipPath>
</defs>
<path clip-path="url(#clip750)" d="M0 1600 L2400 1600 L2400 0 L0 0  Z" fill="#ffffff" fill-rule="evenodd" fill-opacity="1"/>
<defs>
  <clipPath id="clip751">
    <rect x="480" y="0" width="1681" height="1600"/>
  </clipPath>
</defs>
<path clip-path="url(#clip750)" d="M170.857 1486.45 L2352.76 1486.45 L2352.76 47.2441 L170.857 47.2441  Z" fill="#ffffff" fill-rule="evenodd" fill-opacity="1"/>
<defs>
  <clipPath id="clip752">
    <rect x="170" y="47" width="2183" height="1440"/>
  </clipPath>
</defs>
<polyline clip-path="url(#clip752)" style="stroke:#000000; stroke-linecap:round; stroke-linejoin:round; stroke-width:2; stroke-opacity:0.1; fill:none" points="232.609,1486.45 232.609,47.2441 "/>
<polyline clip-path="url(#clip752)" style="stroke:#000000; stroke-linecap:round; stroke-linejoin:round; stroke-width:2; stroke-opacity:0.1; fill:none" points="747.208,1486.45 747.208,47.2441 "/>
<polyline clip-path="url(#clip752)" style="stroke:#000000; stroke-linecap:round; stroke-linejoin:round; stroke-width:2; stroke-opacity:0.1; fill:none" points="1261.81,1486.45 1261.81,47.2441 "/>
<polyline clip-path="url(#clip752)" style="stroke:#000000; stroke-linecap:round; stroke-linejoin:round; stroke-width:2; stroke-opacity:0.1; fill:none" points="1776.41,1486.45 1776.41,47.2441 "/>
<polyline clip-path="url(#clip752)" style="stroke:#000000; stroke-linecap:round; stroke-linejoin:round; stroke-width:2; stroke-opacity:0.1; fill:none" points="2291,1486.45 2291,47.2441 "/>
<polyline clip-path="url(#clip752)" style="stroke:#000000; stroke-linecap:round; stroke-linejoin:round; stroke-width:2; stroke-opacity:0.1; fill:none" points="170.857,1293.97 2352.76,1293.97 "/>
<polyline clip-path="url(#clip752)" style="stroke:#000000; stroke-linecap:round; stroke-linejoin:round; stroke-width:2; stroke-opacity:0.1; fill:none" points="170.857,1009.27 2352.76,1009.27 "/>
<polyline clip-path="url(#clip752)" style="stroke:#000000; stroke-linecap:round; stroke-linejoin:round; stroke-width:2; stroke-opacity:0.1; fill:none" points="170.857,724.568 2352.76,724.568 "/>
<polyline clip-path="url(#clip752)" style="stroke:#000000; stroke-linecap:round; stroke-linejoin:round; stroke-width:2; stroke-opacity:0.1; fill:none" points="170.857,439.866 2352.76,439.866 "/>
<polyline clip-path="url(#clip752)" style="stroke:#000000; stroke-linecap:round; stroke-linejoin:round; stroke-width:2; stroke-opacity:0.1; fill:none" points="170.857,155.165 2352.76,155.165 "/>
<polyline clip-path="url(#clip750)" style="stroke:#000000; stroke-linecap:round; stroke-linejoin:round; stroke-width:4; stroke-opacity:1; fill:none" points="170.857,1486.45 2352.76,1486.45 "/>
<polyline clip-path="url(#clip750)" style="stroke:#000000; stroke-linecap:round; stroke-linejoin:round; stroke-width:4; stroke-opacity:1; fill:none" points="232.609,1486.45 232.609,1467.55 "/>
<polyline clip-path="url(#clip750)" style="stroke:#000000; stroke-linecap:round; stroke-linejoin:round; stroke-width:4; stroke-opacity:1; fill:none" points="747.208,1486.45 747.208,1467.55 "/>
<polyline clip-path="url(#clip750)" style="stroke:#000000; stroke-linecap:round; stroke-linejoin:round; stroke-width:4; stroke-opacity:1; fill:none" points="1261.81,1486.45 1261.81,1467.55 "/>
<polyline clip-path="url(#clip750)" style="stroke:#000000; stroke-linecap:round; stroke-linejoin:round; stroke-width:4; stroke-opacity:1; fill:none" points="1776.41,1486.45 1776.41,1467.55 "/>
<polyline clip-path="url(#clip750)" style="stroke:#000000; stroke-linecap:round; stroke-linejoin:round; stroke-width:4; stroke-opacity:1; fill:none" points="2291,1486.45 2291,1467.55 "/>
<path clip-path="url(#clip750)" d="M104.242 1544.91 L120.561 1544.91 L120.561 1548.85 L98.6169 1548.85 L98.6169 1544.91 Q101.279 1542.16 105.862 1537.53 Q110.469 1532.88 111.649 1531.53 Q113.895 1529.01 114.774 1527.27 Q115.677 1525.51 115.677 1523.82 Q115.677 1521.07 113.733 1519.33 Q111.811 1517.6 108.709 1517.6 Q106.51 1517.6 104.057 1518.36 Q101.626 1519.13 98.8484 1520.68 L98.8484 1515.95 Q101.672 1514.82 104.126 1514.24 Q106.58 1513.66 108.617 1513.66 Q113.987 1513.66 117.182 1516.35 Q120.376 1519.03 120.376 1523.52 Q120.376 1525.65 119.566 1527.57 Q118.779 1529.47 116.672 1532.07 Q116.094 1532.74 112.992 1535.95 Q109.89 1539.15 104.242 1544.91 Z" fill="#000000" fill-rule="nonzero" fill-opacity="1" /><path clip-path="url(#clip750)" d="M140.376 1517.37 Q136.765 1517.37 134.936 1520.93 Q133.131 1524.47 133.131 1531.6 Q133.131 1538.71 134.936 1542.27 Q136.765 1545.82 140.376 1545.82 Q144.01 1545.82 145.816 1542.27 Q147.644 1538.71 147.644 1531.6 Q147.644 1524.47 145.816 1520.93 Q144.01 1517.37 140.376 1517.37 M140.376 1513.66 Q146.186 1513.66 149.242 1518.27 Q152.32 1522.85 152.32 1531.6 Q152.32 1540.33 149.242 1544.94 Q146.186 1549.52 140.376 1549.52 Q134.566 1549.52 131.487 1544.94 Q128.432 1540.33 128.432 1531.6 Q128.432 1522.85 131.487 1518.27 Q134.566 1513.66 140.376 1513.66 Z" fill="#000000" fill-rule="nonzero" fill-opacity="1" /><path clip-path="url(#clip750)" d="M164.566 1544.91 L180.885 1544.91 L180.885 1548.85 L158.941 1548.85 L158.941 1544.91 Q161.603 1542.16 166.186 1537.53 Q170.792 1532.88 171.973 1531.53 Q174.218 1529.01 175.098 1527.27 Q176.001 1525.51 176.001 1523.82 Q176.001 1521.07 174.056 1519.33 Q172.135 1517.6 169.033 1517.6 Q166.834 1517.6 164.38 1518.36 Q161.95 1519.13 159.172 1520.68 L159.172 1515.95 Q161.996 1514.82 164.45 1514.24 Q166.904 1513.66 168.941 1513.66 Q174.311 1513.66 177.505 1516.35 Q180.7 1519.03 180.7 1523.52 Q180.7 1525.65 179.89 1527.57 Q179.103 1529.47 176.996 1532.07 Q176.417 1532.74 173.316 1535.95 Q170.214 1539.15 164.566 1544.91 Z" fill="#000000" fill-rule="nonzero" fill-opacity="1" /><path clip-path="url(#clip750)" d="M190.746 1514.29 L209.102 1514.29 L209.102 1518.22 L195.028 1518.22 L195.028 1526.7 Q196.047 1526.35 197.065 1526.19 Q198.084 1526 199.102 1526 Q204.89 1526 208.269 1529.17 Q211.649 1532.34 211.649 1537.76 Q211.649 1543.34 208.177 1546.44 Q204.704 1549.52 198.385 1549.52 Q196.209 1549.52 193.94 1549.15 Q191.695 1548.78 189.288 1548.04 L189.288 1543.34 Q191.371 1544.47 193.593 1545.03 Q195.815 1545.58 198.292 1545.58 Q202.297 1545.58 204.635 1543.48 Q206.973 1541.37 206.973 1537.76 Q206.973 1534.15 204.635 1532.04 Q202.297 1529.94 198.292 1529.94 Q196.417 1529.94 194.542 1530.35 Q192.69 1530.77 190.746 1531.65 L190.746 1514.29 Z" fill="#000000" fill-rule="nonzero" fill-opacity="1" /><path clip-path="url(#clip750)" d="M218.107 1533.96 L230.584 1533.96 L230.584 1537.76 L218.107 1537.76 L218.107 1533.96 Z" fill="#000000" fill-rule="nonzero" fill-opacity="1" /><path clip-path="url(#clip750)" d="M238.778 1544.91 L246.417 1544.91 L246.417 1518.55 L238.107 1520.21 L238.107 1515.95 L246.371 1514.29 L251.047 1514.29 L251.047 1544.91 L258.686 1544.91 L258.686 1548.85 L238.778 1548.85 L238.778 1544.91 Z" fill="#000000" fill-rule="nonzero" fill-opacity="1" /><path clip-path="url(#clip750)" d="M278.13 1517.37 Q274.519 1517.37 272.69 1520.93 Q270.885 1524.47 270.885 1531.6 Q270.885 1538.71 272.69 1542.27 Q274.519 1545.82 278.13 1545.82 Q281.764 1545.82 283.57 1542.27 Q285.398 1538.71 285.398 1531.6 Q285.398 1524.47 283.57 1520.93 Q281.764 1517.37 278.13 1517.37 M278.13 1513.66 Q283.94 1513.66 286.996 1518.27 Q290.074 1522.85 290.074 1531.6 Q290.074 1540.33 286.996 1544.94 Q283.94 1549.52 278.13 1549.52 Q272.32 1549.52 269.241 1544.94 Q266.185 1540.33 266.185 1531.6 Q266.185 1522.85 269.241 1518.27 Q272.32 1513.66 278.13 1513.66 Z" fill="#000000" fill-rule="nonzero" fill-opacity="1" /><path clip-path="url(#clip750)" d="M295.537 1533.96 L308.014 1533.96 L308.014 1537.76 L295.537 1537.76 L295.537 1533.96 Z" fill="#000000" fill-rule="nonzero" fill-opacity="1" /><path clip-path="url(#clip750)" d="M316.208 1544.91 L323.847 1544.91 L323.847 1518.55 L315.537 1520.21 L315.537 1515.95 L323.801 1514.29 L328.477 1514.29 L328.477 1544.91 L336.116 1544.91 L336.116 1548.85 L316.208 1548.85 L316.208 1544.91 Z" fill="#000000" fill-rule="nonzero" fill-opacity="1" /><path clip-path="url(#clip750)" d="M344.379 1514.29 L366.602 1514.29 L366.602 1516.28 L354.055 1548.85 L349.171 1548.85 L360.977 1518.22 L344.379 1518.22 L344.379 1514.29 Z" fill="#000000" fill-rule="nonzero" fill-opacity="1" /><path clip-path="url(#clip750)" d="M618.146 1544.91 L634.466 1544.91 L634.466 1548.85 L612.521 1548.85 L612.521 1544.91 Q615.183 1542.16 619.767 1537.53 Q624.373 1532.88 625.554 1531.53 Q627.799 1529.01 628.679 1527.27 Q629.581 1525.51 629.581 1523.82 Q629.581 1521.07 627.637 1519.33 Q625.716 1517.6 622.614 1517.6 Q620.415 1517.6 617.961 1518.36 Q615.53 1519.13 612.753 1520.68 L612.753 1515.95 Q615.577 1514.82 618.03 1514.24 Q620.484 1513.66 622.521 1513.66 Q627.891 1513.66 631.086 1516.35 Q634.28 1519.03 634.28 1523.52 Q634.28 1525.65 633.47 1527.57 Q632.683 1529.47 630.577 1532.07 Q629.998 1532.74 626.896 1535.95 Q623.794 1539.15 618.146 1544.91 Z" fill="#000000" fill-rule="nonzero" fill-opacity="1" /><path clip-path="url(#clip750)" d="M654.28 1517.37 Q650.669 1517.37 648.84 1520.93 Q647.035 1524.47 647.035 1531.6 Q647.035 1538.71 648.84 1542.27 Q650.669 1545.82 654.28 1545.82 Q657.914 1545.82 659.72 1542.27 Q661.549 1538.71 661.549 1531.6 Q661.549 1524.47 659.72 1520.93 Q657.914 1517.37 654.28 1517.37 M654.28 1513.66 Q660.09 1513.66 663.146 1518.27 Q666.225 1522.85 666.225 1531.6 Q666.225 1540.33 663.146 1544.94 Q660.09 1549.52 654.28 1549.52 Q648.47 1549.52 645.391 1544.94 Q642.336 1540.33 642.336 1531.6 Q642.336 1522.85 645.391 1518.27 Q648.47 1513.66 654.28 1513.66 Z" fill="#000000" fill-rule="nonzero" fill-opacity="1" /><path clip-path="url(#clip750)" d="M678.47 1544.91 L694.789 1544.91 L694.789 1548.85 L672.845 1548.85 L672.845 1544.91 Q675.507 1542.16 680.09 1537.53 Q684.697 1532.88 685.877 1531.53 Q688.123 1529.01 689.002 1527.27 Q689.905 1525.51 689.905 1523.82 Q689.905 1521.07 687.961 1519.33 Q686.039 1517.6 682.937 1517.6 Q680.738 1517.6 678.285 1518.36 Q675.854 1519.13 673.076 1520.68 L673.076 1515.95 Q675.9 1514.82 678.354 1514.24 Q680.808 1513.66 682.845 1513.66 Q688.215 1513.66 691.41 1516.35 Q694.604 1519.03 694.604 1523.52 Q694.604 1525.65 693.794 1527.57 Q693.007 1529.47 690.9 1532.07 Q690.322 1532.74 687.22 1535.95 Q684.118 1539.15 678.47 1544.91 Z" fill="#000000" fill-rule="nonzero" fill-opacity="1" /><path clip-path="url(#clip750)" d="M704.65 1514.29 L723.007 1514.29 L723.007 1518.22 L708.933 1518.22 L708.933 1526.7 Q709.951 1526.35 710.97 1526.19 Q711.988 1526 713.007 1526 Q718.794 1526 722.173 1529.17 Q725.553 1532.34 725.553 1537.76 Q725.553 1543.34 722.081 1546.44 Q718.609 1549.52 712.289 1549.52 Q710.113 1549.52 707.845 1549.15 Q705.599 1548.78 703.192 1548.04 L703.192 1543.34 Q705.275 1544.47 707.498 1545.03 Q709.72 1545.58 712.197 1545.58 Q716.201 1545.58 718.539 1543.48 Q720.877 1541.37 720.877 1537.76 Q720.877 1534.15 718.539 1532.04 Q716.201 1529.94 712.197 1529.94 Q710.322 1529.94 708.447 1530.35 Q706.595 1530.77 704.65 1531.65 L704.65 1514.29 Z" fill="#000000" fill-rule="nonzero" fill-opacity="1" /><path clip-path="url(#clip750)" d="M732.011 1533.96 L744.488 1533.96 L744.488 1537.76 L732.011 1537.76 L732.011 1533.96 Z" fill="#000000" fill-rule="nonzero" fill-opacity="1" /><path clip-path="url(#clip750)" d="M752.682 1544.91 L760.321 1544.91 L760.321 1518.55 L752.011 1520.21 L752.011 1515.95 L760.275 1514.29 L764.951 1514.29 L764.951 1544.91 L772.59 1544.91 L772.59 1548.85 L752.682 1548.85 L752.682 1544.91 Z" fill="#000000" fill-rule="nonzero" fill-opacity="1" /><path clip-path="url(#clip750)" d="M792.034 1517.37 Q788.423 1517.37 786.594 1520.93 Q784.789 1524.47 784.789 1531.6 Q784.789 1538.71 786.594 1542.27 Q788.423 1545.82 792.034 1545.82 Q795.668 1545.82 797.474 1542.27 Q799.303 1538.71 799.303 1531.6 Q799.303 1524.47 797.474 1520.93 Q795.668 1517.37 792.034 1517.37 M792.034 1513.66 Q797.844 1513.66 800.9 1518.27 Q803.978 1522.85 803.978 1531.6 Q803.978 1540.33 800.9 1544.94 Q797.844 1549.52 792.034 1549.52 Q786.224 1549.52 783.145 1544.94 Q780.09 1540.33 780.09 1531.6 Q780.09 1522.85 783.145 1518.27 Q786.224 1513.66 792.034 1513.66 Z" fill="#000000" fill-rule="nonzero" fill-opacity="1" /><path clip-path="url(#clip750)" d="M809.441 1533.96 L821.918 1533.96 L821.918 1537.76 L809.441 1537.76 L809.441 1533.96 Z" fill="#000000" fill-rule="nonzero" fill-opacity="1" /><path clip-path="url(#clip750)" d="M833.33 1544.91 L849.65 1544.91 L849.65 1548.85 L827.705 1548.85 L827.705 1544.91 Q830.367 1542.16 834.951 1537.53 Q839.557 1532.88 840.738 1531.53 Q842.983 1529.01 843.863 1527.27 Q844.765 1525.51 844.765 1523.82 Q844.765 1521.07 842.821 1519.33 Q840.9 1517.6 837.798 1517.6 Q835.599 1517.6 833.145 1518.36 Q830.714 1519.13 827.937 1520.68 L827.937 1515.95 Q830.761 1514.82 833.214 1514.24 Q835.668 1513.66 837.705 1513.66 Q843.076 1513.66 846.27 1516.35 Q849.464 1519.03 849.464 1523.52 Q849.464 1525.65 848.654 1527.57 Q847.867 1529.47 845.761 1532.07 Q845.182 1532.74 842.08 1535.95 Q838.978 1539.15 833.33 1544.91 Z" fill="#000000" fill-rule="nonzero" fill-opacity="1" /><path clip-path="url(#clip750)" d="M872.311 1518.36 L860.506 1536.81 L872.311 1536.81 L872.311 1518.36 M871.085 1514.29 L876.964 1514.29 L876.964 1536.81 L881.895 1536.81 L881.895 1540.7 L876.964 1540.7 L876.964 1548.85 L872.311 1548.85 L872.311 1540.7 L856.71 1540.7 L856.71 1536.19 L871.085 1514.29 Z" fill="#000000" fill-rule="nonzero" fill-opacity="1" /><path clip-path="url(#clip750)" d="M1133.6 1544.91 L1149.92 1544.91 L1149.92 1548.85 L1127.98 1548.85 L1127.98 1544.91 Q1130.64 1542.16 1135.22 1537.53 Q1139.83 1532.88 1141.01 1531.53 Q1143.25 1529.01 1144.13 1527.27 Q1145.04 1525.51 1145.04 1523.82 Q1145.04 1521.07 1143.09 1519.33 Q1141.17 1517.6 1138.07 1517.6 Q1135.87 1517.6 1133.42 1518.36 Q1130.99 1519.13 1128.21 1520.68 L1128.21 1515.95 Q1131.03 1514.82 1133.49 1514.24 Q1135.94 1513.66 1137.98 1513.66 Q1143.35 1513.66 1146.54 1516.35 Q1149.74 1519.03 1149.74 1523.52 Q1149.74 1525.65 1148.93 1527.57 Q1148.14 1529.47 1146.03 1532.07 Q1145.45 1532.74 1142.35 1535.95 Q1139.25 1539.15 1133.6 1544.91 Z" fill="#000000" fill-rule="nonzero" fill-opacity="1" /><path clip-path="url(#clip750)" d="M1169.74 1517.37 Q1166.12 1517.37 1164.3 1520.93 Q1162.49 1524.47 1162.49 1531.6 Q1162.49 1538.71 1164.3 1542.27 Q1166.12 1545.82 1169.74 1545.82 Q1173.37 1545.82 1175.18 1542.27 Q1177 1538.71 1177 1531.6 Q1177 1524.47 1175.18 1520.93 Q1173.37 1517.37 1169.74 1517.37 M1169.74 1513.66 Q1175.55 1513.66 1178.6 1518.27 Q1181.68 1522.85 1181.68 1531.6 Q1181.68 1540.33 1178.6 1544.94 Q1175.55 1549.52 1169.74 1549.52 Q1163.93 1549.52 1160.85 1544.94 Q1157.79 1540.33 1157.79 1531.6 Q1157.79 1522.85 1160.85 1518.27 Q1163.93 1513.66 1169.74 1513.66 Z" fill="#000000" fill-rule="nonzero" fill-opacity="1" /><path clip-path="url(#clip750)" d="M1193.93 1544.91 L1210.24 1544.91 L1210.24 1548.85 L1188.3 1548.85 L1188.3 1544.91 Q1190.96 1542.16 1195.55 1537.53 Q1200.15 1532.88 1201.33 1531.53 Q1203.58 1529.01 1204.46 1527.27 Q1205.36 1525.51 1205.36 1523.82 Q1205.36 1521.07 1203.42 1519.33 Q1201.49 1517.6 1198.39 1517.6 Q1196.19 1517.6 1193.74 1518.36 Q1191.31 1519.13 1188.53 1520.68 L1188.53 1515.95 Q1191.36 1514.82 1193.81 1514.24 Q1196.26 1513.66 1198.3 1513.66 Q1203.67 1513.66 1206.86 1516.35 Q1210.06 1519.03 1210.06 1523.52 Q1210.06 1525.65 1209.25 1527.57 Q1208.46 1529.47 1206.36 1532.07 Q1205.78 1532.74 1202.68 1535.95 Q1199.57 1539.15 1193.93 1544.91 Z" fill="#000000" fill-rule="nonzero" fill-opacity="1" /><path clip-path="url(#clip750)" d="M1220.11 1514.29 L1238.46 1514.29 L1238.46 1518.22 L1224.39 1518.22 L1224.39 1526.7 Q1225.41 1526.35 1226.42 1526.19 Q1227.44 1526 1228.46 1526 Q1234.25 1526 1237.63 1529.17 Q1241.01 1532.34 1241.01 1537.76 Q1241.01 1543.34 1237.54 1546.44 Q1234.06 1549.52 1227.74 1549.52 Q1225.57 1549.52 1223.3 1549.15 Q1221.05 1548.78 1218.65 1548.04 L1218.65 1543.34 Q1220.73 1544.47 1222.95 1545.03 Q1225.17 1545.58 1227.65 1545.58 Q1231.66 1545.58 1233.99 1543.48 Q1236.33 1541.37 1236.33 1537.76 Q1236.33 1534.15 1233.99 1532.04 Q1231.66 1529.94 1227.65 1529.94 Q1225.78 1529.94 1223.9 1530.35 Q1222.05 1530.77 1220.11 1531.65 L1220.11 1514.29 Z" fill="#000000" fill-rule="nonzero" fill-opacity="1" /><path clip-path="url(#clip750)" d="M1247.47 1533.96 L1259.94 1533.96 L1259.94 1537.76 L1247.47 1537.76 L1247.47 1533.96 Z" fill="#000000" fill-rule="nonzero" fill-opacity="1" /><path clip-path="url(#clip750)" d="M1268.14 1544.91 L1275.78 1544.91 L1275.78 1518.55 L1267.47 1520.21 L1267.47 1515.95 L1275.73 1514.29 L1280.41 1514.29 L1280.41 1544.91 L1288.04 1544.91 L1288.04 1548.85 L1268.14 1548.85 L1268.14 1544.91 Z" fill="#000000" fill-rule="nonzero" fill-opacity="1" /><path clip-path="url(#clip750)" d="M1307.49 1517.37 Q1303.88 1517.37 1302.05 1520.93 Q1300.24 1524.47 1300.24 1531.6 Q1300.24 1538.71 1302.05 1542.27 Q1303.88 1545.82 1307.49 1545.82 Q1311.12 1545.82 1312.93 1542.27 Q1314.76 1538.71 1314.76 1531.6 Q1314.76 1524.47 1312.93 1520.93 Q1311.12 1517.37 1307.49 1517.37 M1307.49 1513.66 Q1313.3 1513.66 1316.35 1518.27 Q1319.43 1522.85 1319.43 1531.6 Q1319.43 1540.33 1316.35 1544.94 Q1313.3 1549.52 1307.49 1549.52 Q1301.68 1549.52 1298.6 1544.94 Q1295.54 1540.33 1295.54 1531.6 Q1295.54 1522.85 1298.6 1518.27 Q1301.68 1513.66 1307.49 1513.66 Z" fill="#000000" fill-rule="nonzero" fill-opacity="1" /><path clip-path="url(#clip750)" d="M1324.9 1533.96 L1337.37 1533.96 L1337.37 1537.76 L1324.9 1537.76 L1324.9 1533.96 Z" fill="#000000" fill-rule="nonzero" fill-opacity="1" /><path clip-path="url(#clip750)" d="M1358.92 1530.21 Q1362.28 1530.93 1364.16 1533.2 Q1366.05 1535.47 1366.05 1538.8 Q1366.05 1543.92 1362.54 1546.72 Q1359.02 1549.52 1352.54 1549.52 Q1350.36 1549.52 1348.04 1549.08 Q1345.75 1548.66 1343.3 1547.81 L1343.3 1543.29 Q1345.24 1544.43 1347.56 1545.01 Q1349.87 1545.58 1352.4 1545.58 Q1356.79 1545.58 1359.09 1543.85 Q1361.4 1542.11 1361.4 1538.8 Q1361.4 1535.75 1359.25 1534.03 Q1357.12 1532.3 1353.3 1532.3 L1349.27 1532.3 L1349.27 1528.45 L1353.48 1528.45 Q1356.93 1528.45 1358.76 1527.09 Q1360.59 1525.7 1360.59 1523.11 Q1360.59 1520.45 1358.69 1519.03 Q1356.82 1517.6 1353.3 1517.6 Q1351.38 1517.6 1349.18 1518.01 Q1346.98 1518.43 1344.34 1519.31 L1344.34 1515.14 Q1347 1514.4 1349.32 1514.03 Q1351.66 1513.66 1353.72 1513.66 Q1359.04 1513.66 1362.14 1516.09 Q1365.24 1518.5 1365.24 1522.62 Q1365.24 1525.49 1363.6 1527.48 Q1361.96 1529.45 1358.92 1530.21 Z" fill="#000000" fill-rule="nonzero" fill-opacity="1" /><path clip-path="url(#clip750)" d="M1375.73 1544.91 L1383.37 1544.91 L1383.37 1518.55 L1375.06 1520.21 L1375.06 1515.95 L1383.32 1514.29 L1388 1514.29 L1388 1544.91 L1395.64 1544.91 L1395.64 1548.85 L1375.73 1548.85 L1375.73 1544.91 Z" fill="#000000" fill-rule="nonzero" fill-opacity="1" /><path clip-path="url(#clip750)" d="M1648.04 1544.91 L1664.36 1544.91 L1664.36 1548.85 L1642.41 1548.85 L1642.41 1544.91 Q1645.08 1542.16 1649.66 1537.53 Q1654.26 1532.88 1655.45 1531.53 Q1657.69 1529.01 1658.57 1527.27 Q1659.47 1525.51 1659.47 1523.82 Q1659.47 1521.07 1657.53 1519.33 Q1655.61 1517.6 1652.51 1517.6 Q1650.31 1517.6 1647.85 1518.36 Q1645.42 1519.13 1642.64 1520.68 L1642.64 1515.95 Q1645.47 1514.82 1647.92 1514.24 Q1650.38 1513.66 1652.41 1513.66 Q1657.78 1513.66 1660.98 1516.35 Q1664.17 1519.03 1664.17 1523.52 Q1664.17 1525.65 1663.36 1527.57 Q1662.57 1529.47 1660.47 1532.07 Q1659.89 1532.74 1656.79 1535.95 Q1653.69 1539.15 1648.04 1544.91 Z" fill="#000000" fill-rule="nonzero" fill-opacity="1" /><path clip-path="url(#clip750)" d="M1684.17 1517.37 Q1680.56 1517.37 1678.73 1520.93 Q1676.93 1524.47 1676.93 1531.6 Q1676.93 1538.71 1678.73 1542.27 Q1680.56 1545.82 1684.17 1545.82 Q1687.81 1545.82 1689.61 1542.27 Q1691.44 1538.71 1691.44 1531.6 Q1691.44 1524.47 1689.61 1520.93 Q1687.81 1517.37 1684.17 1517.37 M1684.17 1513.66 Q1689.98 1513.66 1693.04 1518.27 Q1696.12 1522.85 1696.12 1531.6 Q1696.12 1540.33 1693.04 1544.94 Q1689.98 1549.52 1684.17 1549.52 Q1678.36 1549.52 1675.28 1544.94 Q1672.23 1540.33 1672.23 1531.6 Q1672.23 1522.85 1675.28 1518.27 Q1678.36 1513.66 1684.17 1513.66 Z" fill="#000000" fill-rule="nonzero" fill-opacity="1" /><path clip-path="url(#clip750)" d="M1708.36 1544.91 L1724.68 1544.91 L1724.68 1548.85 L1702.74 1548.85 L1702.74 1544.91 Q1705.4 1542.16 1709.98 1537.53 Q1714.59 1532.88 1715.77 1531.53 Q1718.01 1529.01 1718.89 1527.27 Q1719.8 1525.51 1719.8 1523.82 Q1719.8 1521.07 1717.85 1519.33 Q1715.93 1517.6 1712.83 1517.6 Q1710.63 1517.6 1708.18 1518.36 Q1705.75 1519.13 1702.97 1520.68 L1702.97 1515.95 Q1705.79 1514.82 1708.25 1514.24 Q1710.7 1513.66 1712.74 1513.66 Q1718.11 1513.66 1721.3 1516.35 Q1724.5 1519.03 1724.5 1523.52 Q1724.5 1525.65 1723.69 1527.57 Q1722.9 1529.47 1720.79 1532.07 Q1720.21 1532.74 1717.11 1535.95 Q1714.01 1539.15 1708.36 1544.91 Z" fill="#000000" fill-rule="nonzero" fill-opacity="1" /><path clip-path="url(#clip750)" d="M1734.54 1514.29 L1752.9 1514.29 L1752.9 1518.22 L1738.82 1518.22 L1738.82 1526.7 Q1739.84 1526.35 1740.86 1526.19 Q1741.88 1526 1742.9 1526 Q1748.69 1526 1752.07 1529.17 Q1755.44 1532.34 1755.44 1537.76 Q1755.44 1543.34 1751.97 1546.44 Q1748.5 1549.52 1742.18 1549.52 Q1740.01 1549.52 1737.74 1549.15 Q1735.49 1548.78 1733.08 1548.04 L1733.08 1543.34 Q1735.17 1544.47 1737.39 1545.03 Q1739.61 1545.58 1742.09 1545.58 Q1746.09 1545.58 1748.43 1543.48 Q1750.77 1541.37 1750.77 1537.76 Q1750.77 1534.15 1748.43 1532.04 Q1746.09 1529.94 1742.09 1529.94 Q1740.21 1529.94 1738.34 1530.35 Q1736.49 1530.77 1734.54 1531.65 L1734.54 1514.29 Z" fill="#000000" fill-rule="nonzero" fill-opacity="1" /><path clip-path="url(#clip750)" d="M1761.9 1533.96 L1774.38 1533.96 L1774.38 1537.76 L1761.9 1537.76 L1761.9 1533.96 Z" fill="#000000" fill-rule="nonzero" fill-opacity="1" /><path clip-path="url(#clip750)" d="M1782.57 1544.91 L1790.21 1544.91 L1790.21 1518.55 L1781.9 1520.21 L1781.9 1515.95 L1790.17 1514.29 L1794.84 1514.29 L1794.84 1544.91 L1802.48 1544.91 L1802.48 1548.85 L1782.57 1548.85 L1782.57 1544.91 Z" fill="#000000" fill-rule="nonzero" fill-opacity="1" /><path clip-path="url(#clip750)" d="M1812.74 1544.91 L1820.38 1544.91 L1820.38 1518.55 L1812.06 1520.21 L1812.06 1515.95 L1820.33 1514.29 L1825 1514.29 L1825 1544.91 L1832.64 1544.91 L1832.64 1548.85 L1812.74 1548.85 L1812.74 1544.91 Z" fill="#000000" fill-rule="nonzero" fill-opacity="1" /><path clip-path="url(#clip750)" d="M1839.33 1533.96 L1851.81 1533.96 L1851.81 1537.76 L1839.33 1537.76 L1839.33 1533.96 Z" fill="#000000" fill-rule="nonzero" fill-opacity="1" /><path clip-path="url(#clip750)" d="M1869.19 1517.37 Q1865.58 1517.37 1863.75 1520.93 Q1861.95 1524.47 1861.95 1531.6 Q1861.95 1538.71 1863.75 1542.27 Q1865.58 1545.82 1869.19 1545.82 Q1872.83 1545.82 1874.63 1542.27 Q1876.46 1538.71 1876.46 1531.6 Q1876.46 1524.47 1874.63 1520.93 Q1872.83 1517.37 1869.19 1517.37 M1869.19 1513.66 Q1875 1513.66 1878.06 1518.27 Q1881.14 1522.85 1881.14 1531.6 Q1881.14 1540.33 1878.06 1544.94 Q1875 1549.52 1869.19 1549.52 Q1863.38 1549.52 1860.31 1544.94 Q1857.25 1540.33 1857.25 1531.6 Q1857.25 1522.85 1860.31 1518.27 Q1863.38 1513.66 1869.19 1513.66 Z" fill="#000000" fill-rule="nonzero" fill-opacity="1" /><path clip-path="url(#clip750)" d="M1888.18 1514.29 L1910.4 1514.29 L1910.4 1516.28 L1897.85 1548.85 L1892.97 1548.85 L1904.77 1518.22 L1888.18 1518.22 L1888.18 1514.29 Z" fill="#000000" fill-rule="nonzero" fill-opacity="1" /><path clip-path="url(#clip750)" d="M2161.94 1544.91 L2178.26 1544.91 L2178.26 1548.85 L2156.32 1548.85 L2156.32 1544.91 Q2158.98 1542.16 2163.56 1537.53 Q2168.17 1532.88 2169.35 1531.53 Q2171.59 1529.01 2172.47 1527.27 Q2173.38 1525.51 2173.38 1523.82 Q2173.38 1521.07 2171.43 1519.33 Q2169.51 1517.6 2166.41 1517.6 Q2164.21 1517.6 2161.76 1518.36 Q2159.33 1519.13 2156.55 1520.68 L2156.55 1515.95 Q2159.37 1514.82 2161.83 1514.24 Q2164.28 1513.66 2166.32 1513.66 Q2171.69 1513.66 2174.88 1516.35 Q2178.08 1519.03 2178.08 1523.52 Q2178.08 1525.65 2177.27 1527.57 Q2176.48 1529.47 2174.37 1532.07 Q2173.79 1532.74 2170.69 1535.95 Q2167.59 1539.15 2161.94 1544.91 Z" fill="#000000" fill-rule="nonzero" fill-opacity="1" /><path clip-path="url(#clip750)" d="M2198.08 1517.37 Q2194.47 1517.37 2192.64 1520.93 Q2190.83 1524.47 2190.83 1531.6 Q2190.83 1538.71 2192.64 1542.27 Q2194.47 1545.82 2198.08 1545.82 Q2201.71 1545.82 2203.52 1542.27 Q2205.34 1538.71 2205.34 1531.6 Q2205.34 1524.47 2203.52 1520.93 Q2201.71 1517.37 2198.08 1517.37 M2198.08 1513.66 Q2203.89 1513.66 2206.94 1518.27 Q2210.02 1522.85 2210.02 1531.6 Q2210.02 1540.33 2206.94 1544.94 Q2203.89 1549.52 2198.08 1549.52 Q2192.27 1549.52 2189.19 1544.94 Q2186.13 1540.33 2186.13 1531.6 Q2186.13 1522.85 2189.19 1518.27 Q2192.27 1513.66 2198.08 1513.66 Z" fill="#000000" fill-rule="nonzero" fill-opacity="1" /><path clip-path="url(#clip750)" d="M2222.27 1544.91 L2238.59 1544.91 L2238.59 1548.85 L2216.64 1548.85 L2216.64 1544.91 Q2219.3 1542.16 2223.89 1537.53 Q2228.49 1532.88 2229.67 1531.53 Q2231.92 1529.01 2232.8 1527.27 Q2233.7 1525.51 2233.7 1523.82 Q2233.7 1521.07 2231.76 1519.33 Q2229.84 1517.6 2226.73 1517.6 Q2224.53 1517.6 2222.08 1518.36 Q2219.65 1519.13 2216.87 1520.68 L2216.87 1515.95 Q2219.7 1514.82 2222.15 1514.24 Q2224.6 1513.66 2226.64 1513.66 Q2232.01 1513.66 2235.21 1516.35 Q2238.4 1519.03 2238.4 1523.52 Q2238.4 1525.65 2237.59 1527.57 Q2236.8 1529.47 2234.7 1532.07 Q2234.12 1532.74 2231.02 1535.95 Q2227.91 1539.15 2222.27 1544.91 Z" fill="#000000" fill-rule="nonzero" fill-opacity="1" /><path clip-path="url(#clip750)" d="M2248.45 1514.29 L2266.8 1514.29 L2266.8 1518.22 L2252.73 1518.22 L2252.73 1526.7 Q2253.75 1526.35 2254.77 1526.19 Q2255.78 1526 2256.8 1526 Q2262.59 1526 2265.97 1529.17 Q2269.35 1532.34 2269.35 1537.76 Q2269.35 1543.34 2265.88 1546.44 Q2262.4 1549.52 2256.09 1549.52 Q2253.91 1549.52 2251.64 1549.15 Q2249.4 1548.78 2246.99 1548.04 L2246.99 1543.34 Q2249.07 1544.47 2251.29 1545.03 Q2253.52 1545.58 2255.99 1545.58 Q2260 1545.58 2262.34 1543.48 Q2264.67 1541.37 2264.67 1537.76 Q2264.67 1534.15 2262.34 1532.04 Q2260 1529.94 2255.99 1529.94 Q2254.12 1529.94 2252.24 1530.35 Q2250.39 1530.77 2248.45 1531.65 L2248.45 1514.29 Z" fill="#000000" fill-rule="nonzero" fill-opacity="1" /><path clip-path="url(#clip750)" d="M2275.81 1533.96 L2288.28 1533.96 L2288.28 1537.76 L2275.81 1537.76 L2275.81 1533.96 Z" fill="#000000" fill-rule="nonzero" fill-opacity="1" /><path clip-path="url(#clip750)" d="M2296.48 1544.91 L2304.12 1544.91 L2304.12 1518.55 L2295.81 1520.21 L2295.81 1515.95 L2304.07 1514.29 L2308.75 1514.29 L2308.75 1544.91 L2316.39 1544.91 L2316.39 1548.85 L2296.48 1548.85 L2296.48 1544.91 Z" fill="#000000" fill-rule="nonzero" fill-opacity="1" /><path clip-path="url(#clip750)" d="M2326.64 1544.91 L2334.28 1544.91 L2334.28 1518.55 L2325.97 1520.21 L2325.97 1515.95 L2334.23 1514.29 L2338.91 1514.29 L2338.91 1544.91 L2346.55 1544.91 L2346.55 1548.85 L2326.64 1548.85 L2326.64 1544.91 Z" fill="#000000" fill-rule="nonzero" fill-opacity="1" /><path clip-path="url(#clip750)" d="M2353.24 1533.96 L2365.71 1533.96 L2365.71 1537.76 L2353.24 1537.76 L2353.24 1533.96 Z" fill="#000000" fill-rule="nonzero" fill-opacity="1" /><path clip-path="url(#clip750)" d="M2373.91 1544.91 L2381.55 1544.91 L2381.55 1518.55 L2373.24 1520.21 L2373.24 1515.95 L2381.5 1514.29 L2386.18 1514.29 L2386.18 1544.91 L2393.82 1544.91 L2393.82 1548.85 L2373.91 1548.85 L2373.91 1544.91 Z" fill="#000000" fill-rule="nonzero" fill-opacity="1" /><path clip-path="url(#clip750)" d="M2416.11 1518.36 L2404.3 1536.81 L2416.11 1536.81 L2416.11 1518.36 M2414.88 1514.29 L2420.76 1514.29 L2420.76 1536.81 L2425.69 1536.81 L2425.69 1540.7 L2420.76 1540.7 L2420.76 1548.85 L2416.11 1548.85 L2416.11 1540.7 L2400.51 1540.7 L2400.51 1536.19 L2414.88 1514.29 Z" fill="#000000" fill-rule="nonzero" fill-opacity="1" /><polyline clip-path="url(#clip750)" style="stroke:#000000; stroke-linecap:round; stroke-linejoin:round; stroke-width:4; stroke-opacity:1; fill:none" points="170.857,1486.45 170.857,47.2441 "/>
<polyline clip-path="url(#clip750)" style="stroke:#000000; stroke-linecap:round; stroke-linejoin:round; stroke-width:4; stroke-opacity:1; fill:none" points="170.857,1293.97 189.755,1293.97 "/>
<polyline clip-path="url(#clip750)" style="stroke:#000000; stroke-linecap:round; stroke-linejoin:round; stroke-width:4; stroke-opacity:1; fill:none" points="170.857,1009.27 189.755,1009.27 "/>
<polyline clip-path="url(#clip750)" style="stroke:#000000; stroke-linecap:round; stroke-linejoin:round; stroke-width:4; stroke-opacity:1; fill:none" points="170.857,724.568 189.755,724.568 "/>
<polyline clip-path="url(#clip750)" style="stroke:#000000; stroke-linecap:round; stroke-linejoin:round; stroke-width:4; stroke-opacity:1; fill:none" points="170.857,439.866 189.755,439.866 "/>
<polyline clip-path="url(#clip750)" style="stroke:#000000; stroke-linecap:round; stroke-linejoin:round; stroke-width:4; stroke-opacity:1; fill:none" points="170.857,155.165 189.755,155.165 "/>
<path clip-path="url(#clip750)" d="M56.6171 1307.31 L72.9365 1307.31 L72.9365 1311.25 L50.9921 1311.25 L50.9921 1307.31 Q53.6541 1304.56 58.2375 1299.93 Q62.8439 1295.28 64.0245 1293.94 Q66.2698 1291.41 67.1494 1289.68 Q68.0522 1287.92 68.0522 1286.23 Q68.0522 1283.47 66.1078 1281.74 Q64.1865 1280 61.0847 1280 Q58.8856 1280 56.4319 1280.76 Q54.0014 1281.53 51.2236 1283.08 L51.2236 1278.36 Q54.0477 1277.22 56.5014 1276.64 Q58.955 1276.06 60.9921 1276.06 Q66.3624 1276.06 69.5568 1278.75 Q72.7513 1281.44 72.7513 1285.93 Q72.7513 1288.06 71.9411 1289.98 Q71.1541 1291.88 69.0476 1294.47 Q68.4689 1295.14 65.367 1298.36 Q62.2652 1301.55 56.6171 1307.31 Z" fill="#000000" fill-rule="nonzero" fill-opacity="1" /><path clip-path="url(#clip750)" d="M82.7975 1276.69 L101.154 1276.69 L101.154 1280.63 L87.0799 1280.63 L87.0799 1289.1 Q88.0984 1288.75 89.1169 1288.59 Q90.1354 1288.4 91.1539 1288.4 Q96.941 1288.4 100.321 1291.57 Q103.7 1294.75 103.7 1300.16 Q103.7 1305.74 100.228 1308.84 Q96.7558 1311.92 90.4364 1311.92 Q88.2604 1311.92 85.9919 1311.55 Q83.7466 1311.18 81.3392 1310.44 L81.3392 1305.74 Q83.4225 1306.87 85.6447 1307.43 Q87.8669 1307.99 90.3438 1307.99 Q94.3484 1307.99 96.6863 1305.88 Q99.0243 1303.77 99.0243 1300.16 Q99.0243 1296.55 96.6863 1294.44 Q94.3484 1292.34 90.3438 1292.34 Q88.4688 1292.34 86.5938 1292.75 Q84.7419 1293.17 82.7975 1294.05 L82.7975 1276.69 Z" fill="#000000" fill-rule="nonzero" fill-opacity="1" /><path clip-path="url(#clip750)" d="M122.913 1279.77 Q119.302 1279.77 117.473 1283.33 Q115.668 1286.88 115.668 1294 Q115.668 1301.11 117.473 1304.68 Q119.302 1308.22 122.913 1308.22 Q126.547 1308.22 128.353 1304.68 Q130.182 1301.11 130.182 1294 Q130.182 1286.88 128.353 1283.33 Q126.547 1279.77 122.913 1279.77 M122.913 1276.06 Q128.723 1276.06 131.779 1280.67 Q134.857 1285.25 134.857 1294 Q134.857 1302.73 131.779 1307.34 Q128.723 1311.92 122.913 1311.92 Q117.103 1311.92 114.024 1307.34 Q110.969 1302.73 110.969 1294 Q110.969 1285.25 114.024 1280.67 Q117.103 1276.06 122.913 1276.06 Z" fill="#000000" fill-rule="nonzero" fill-opacity="1" /><path clip-path="url(#clip750)" d="M56.6171 1022.61 L72.9365 1022.61 L72.9365 1026.55 L50.9921 1026.55 L50.9921 1022.61 Q53.6541 1019.86 58.2375 1015.23 Q62.8439 1010.58 64.0245 1009.23 Q66.2698 1006.71 67.1494 1004.97 Q68.0522 1003.22 68.0522 1001.53 Q68.0522 998.771 66.1078 997.035 Q64.1865 995.299 61.0847 995.299 Q58.8856 995.299 56.4319 996.063 Q54.0014 996.827 51.2236 998.378 L51.2236 993.655 Q54.0477 992.521 56.5014 991.942 Q58.955 991.364 60.9921 991.364 Q66.3624 991.364 69.5568 994.049 Q72.7513 996.734 72.7513 1001.22 Q72.7513 1003.35 71.9411 1005.28 Q71.1541 1007.17 69.0476 1009.77 Q68.4689 1010.44 65.367 1013.66 Q62.2652 1016.85 56.6171 1022.61 Z" fill="#000000" fill-rule="nonzero" fill-opacity="1" /><path clip-path="url(#clip750)" d="M93.3299 1007.41 Q90.1817 1007.41 88.3299 1009.56 Q86.5012 1011.71 86.5012 1015.46 Q86.5012 1019.19 88.3299 1021.36 Q90.1817 1023.52 93.3299 1023.52 Q96.478 1023.52 98.3067 1021.36 Q100.159 1019.19 100.159 1015.46 Q100.159 1011.71 98.3067 1009.56 Q96.478 1007.41 93.3299 1007.41 M102.612 992.753 L102.612 997.012 Q100.853 996.179 99.0474 995.739 Q97.265 995.299 95.5058 995.299 Q90.8762 995.299 88.4225 998.424 Q85.9919 1001.55 85.6447 1007.87 Q87.0105 1005.85 89.0706 1004.79 Q91.1308 1003.7 93.6076 1003.7 Q98.8159 1003.7 101.825 1006.87 Q104.858 1010.02 104.858 1015.46 Q104.858 1020.78 101.709 1024 Q98.5613 1027.22 93.3299 1027.22 Q87.3345 1027.22 84.1632 1022.64 Q80.992 1018.03 80.992 1009.3 Q80.992 1001.11 84.8808 996.248 Q88.7697 991.364 95.3206 991.364 Q97.0798 991.364 98.8622 991.711 Q100.668 992.058 102.612 992.753 Z" fill="#000000" fill-rule="nonzero" fill-opacity="1" /><path clip-path="url(#clip750)" d="M122.913 995.067 Q119.302 995.067 117.473 998.632 Q115.668 1002.17 115.668 1009.3 Q115.668 1016.41 117.473 1019.97 Q119.302 1023.52 122.913 1023.52 Q126.547 1023.52 128.353 1019.97 Q130.182 1016.41 130.182 1009.3 Q130.182 1002.17 128.353 998.632 Q126.547 995.067 122.913 995.067 M122.913 991.364 Q128.723 991.364 131.779 995.97 Q134.857 1000.55 134.857 1009.3 Q134.857 1018.03 131.779 1022.64 Q128.723 1027.22 122.913 1027.22 Q117.103 1027.22 114.024 1022.64 Q110.969 1018.03 110.969 1009.3 Q110.969 1000.55 114.024 995.97 Q117.103 991.364 122.913 991.364 Z" fill="#000000" fill-rule="nonzero" fill-opacity="1" /><path clip-path="url(#clip750)" d="M56.6171 737.912 L72.9365 737.912 L72.9365 741.848 L50.9921 741.848 L50.9921 737.912 Q53.6541 735.158 58.2375 730.528 Q62.8439 725.875 64.0245 724.533 Q66.2698 722.01 67.1494 720.274 Q68.0522 718.514 68.0522 716.825 Q68.0522 714.07 66.1078 712.334 Q64.1865 710.598 61.0847 710.598 Q58.8856 710.598 56.4319 711.362 Q54.0014 712.126 51.2236 713.676 L51.2236 708.954 Q54.0477 707.82 56.5014 707.241 Q58.955 706.663 60.9921 706.663 Q66.3624 706.663 69.5568 709.348 Q72.7513 712.033 72.7513 716.524 Q72.7513 718.653 71.9411 720.575 Q71.1541 722.473 69.0476 725.065 Q68.4689 725.737 65.367 728.954 Q62.2652 732.149 56.6171 737.912 Z" fill="#000000" fill-rule="nonzero" fill-opacity="1" /><path clip-path="url(#clip750)" d="M81.5707 707.288 L103.793 707.288 L103.793 709.278 L91.2465 741.848 L86.3623 741.848 L98.1678 711.223 L81.5707 711.223 L81.5707 707.288 Z" fill="#000000" fill-rule="nonzero" fill-opacity="1" /><path clip-path="url(#clip750)" d="M122.913 710.366 Q119.302 710.366 117.473 713.931 Q115.668 717.473 115.668 724.602 Q115.668 731.709 117.473 735.274 Q119.302 738.815 122.913 738.815 Q126.547 738.815 128.353 735.274 Q130.182 731.709 130.182 724.602 Q130.182 717.473 128.353 713.931 Q126.547 710.366 122.913 710.366 M122.913 706.663 Q128.723 706.663 131.779 711.269 Q134.857 715.852 134.857 724.602 Q134.857 733.329 131.779 737.936 Q128.723 742.519 122.913 742.519 Q117.103 742.519 114.024 737.936 Q110.969 733.329 110.969 724.602 Q110.969 715.852 114.024 711.269 Q117.103 706.663 122.913 706.663 Z" fill="#000000" fill-rule="nonzero" fill-opacity="1" /><path clip-path="url(#clip750)" d="M56.6171 453.211 L72.9365 453.211 L72.9365 457.146 L50.9921 457.146 L50.9921 453.211 Q53.6541 450.457 58.2375 445.827 Q62.8439 441.174 64.0245 439.832 Q66.2698 437.309 67.1494 435.573 Q68.0522 433.813 68.0522 432.123 Q68.0522 429.369 66.1078 427.633 Q64.1865 425.897 61.0847 425.897 Q58.8856 425.897 56.4319 426.661 Q54.0014 427.424 51.2236 428.975 L51.2236 424.253 Q54.0477 423.119 56.5014 422.54 Q58.955 421.961 60.9921 421.961 Q66.3624 421.961 69.5568 424.647 Q72.7513 427.332 72.7513 431.823 Q72.7513 433.952 71.9411 435.873 Q71.1541 437.772 69.0476 440.364 Q68.4689 441.035 65.367 444.253 Q62.2652 447.447 56.6171 453.211 Z" fill="#000000" fill-rule="nonzero" fill-opacity="1" /><path clip-path="url(#clip750)" d="M92.7512 440.735 Q89.4178 440.735 87.4966 442.517 Q85.5984 444.299 85.5984 447.424 Q85.5984 450.549 87.4966 452.332 Q89.4178 454.114 92.7512 454.114 Q96.0845 454.114 98.0058 452.332 Q99.927 450.526 99.927 447.424 Q99.927 444.299 98.0058 442.517 Q96.1076 440.735 92.7512 440.735 M88.0753 438.744 Q85.066 438.003 83.3762 435.943 Q81.7096 433.883 81.7096 430.92 Q81.7096 426.776 84.6494 424.369 Q87.6123 421.961 92.7512 421.961 Q97.9132 421.961 100.853 424.369 Q103.793 426.776 103.793 430.92 Q103.793 433.883 102.103 435.943 Q100.436 438.003 97.4502 438.744 Q100.83 439.531 102.705 441.822 Q104.603 444.114 104.603 447.424 Q104.603 452.447 101.524 455.133 Q98.4687 457.818 92.7512 457.818 Q87.0336 457.818 83.9549 455.133 Q80.8994 452.447 80.8994 447.424 Q80.8994 444.114 82.7975 441.822 Q84.6956 439.531 88.0753 438.744 M86.3623 431.36 Q86.3623 434.045 88.029 435.549 Q89.7188 437.054 92.7512 437.054 Q95.7604 437.054 97.4502 435.549 Q99.1632 434.045 99.1632 431.36 Q99.1632 428.674 97.4502 427.17 Q95.7604 425.665 92.7512 425.665 Q89.7188 425.665 88.029 427.17 Q86.3623 428.674 86.3623 431.36 Z" fill="#000000" fill-rule="nonzero" fill-opacity="1" /><path clip-path="url(#clip750)" d="M122.913 425.665 Q119.302 425.665 117.473 429.23 Q115.668 432.772 115.668 439.901 Q115.668 447.008 117.473 450.572 Q119.302 454.114 122.913 454.114 Q126.547 454.114 128.353 450.572 Q130.182 447.008 130.182 439.901 Q130.182 432.772 128.353 429.23 Q126.547 425.665 122.913 425.665 M122.913 421.961 Q128.723 421.961 131.779 426.568 Q134.857 431.151 134.857 439.901 Q134.857 448.628 131.779 453.234 Q128.723 457.818 122.913 457.818 Q117.103 457.818 114.024 453.234 Q110.969 448.628 110.969 439.901 Q110.969 431.151 114.024 426.568 Q117.103 421.961 122.913 421.961 Z" fill="#000000" fill-rule="nonzero" fill-opacity="1" /><path clip-path="url(#clip750)" d="M56.6171 168.51 L72.9365 168.51 L72.9365 172.445 L50.9921 172.445 L50.9921 168.51 Q53.6541 165.756 58.2375 161.126 Q62.8439 156.473 64.0245 155.131 Q66.2698 152.607 67.1494 150.871 Q68.0522 149.112 68.0522 147.422 Q68.0522 144.668 66.1078 142.932 Q64.1865 141.195 61.0847 141.195 Q58.8856 141.195 56.4319 141.959 Q54.0014 142.723 51.2236 144.274 L51.2236 139.552 Q54.0477 138.418 56.5014 137.839 Q58.955 137.26 60.9921 137.26 Q66.3624 137.26 69.5568 139.946 Q72.7513 142.631 72.7513 147.121 Q72.7513 149.251 71.9411 151.172 Q71.1541 153.07 69.0476 155.663 Q68.4689 156.334 65.367 159.552 Q62.2652 162.746 56.6171 168.51 Z" fill="#000000" fill-rule="nonzero" fill-opacity="1" /><path clip-path="url(#clip750)" d="M82.8901 171.728 L82.8901 167.469 Q84.6494 168.302 86.4549 168.742 Q88.2604 169.181 89.9965 169.181 Q94.6262 169.181 97.0567 166.08 Q99.5104 162.955 99.8576 156.612 Q98.515 158.603 96.4548 159.668 Q94.3947 160.732 91.8947 160.732 Q86.7095 160.732 83.6771 157.607 Q80.6679 154.459 80.6679 149.02 Q80.6679 143.695 83.816 140.478 Q86.9642 137.26 92.1956 137.26 Q98.1909 137.26 101.339 141.867 Q104.51 146.45 104.51 155.2 Q104.51 163.371 100.621 168.256 Q96.7558 173.117 90.2049 173.117 Q88.4456 173.117 86.6401 172.769 Q84.8345 172.422 82.8901 171.728 M92.1956 157.075 Q95.3437 157.075 97.1724 154.922 Q99.0243 152.77 99.0243 149.02 Q99.0243 145.293 97.1724 143.14 Q95.3437 140.964 92.1956 140.964 Q89.0475 140.964 87.1956 143.14 Q85.3669 145.293 85.3669 149.02 Q85.3669 152.77 87.1956 154.922 Q89.0475 157.075 92.1956 157.075 Z" fill="#000000" fill-rule="nonzero" fill-opacity="1" /><path clip-path="url(#clip750)" d="M122.913 140.964 Q119.302 140.964 117.473 144.529 Q115.668 148.07 115.668 155.2 Q115.668 162.306 117.473 165.871 Q119.302 169.413 122.913 169.413 Q126.547 169.413 128.353 165.871 Q130.182 162.306 130.182 155.2 Q130.182 148.07 128.353 144.529 Q126.547 140.964 122.913 140.964 M122.913 137.26 Q128.723 137.26 131.779 141.867 Q134.857 146.45 134.857 155.2 Q134.857 163.927 131.779 168.533 Q128.723 173.117 122.913 173.117 Q117.103 173.117 114.024 168.533 Q110.969 163.927 110.969 155.2 Q110.969 146.45 114.024 141.867 Q117.103 137.26 122.913 137.26 Z" fill="#000000" fill-rule="nonzero" fill-opacity="1" /><polyline clip-path="url(#clip752)" style="stroke:#009af9; stroke-linecap:round; stroke-linejoin:round; stroke-width:4; stroke-opacity:1; fill:none" points="232.609,1255.54 453.152,1145.07 526.666,1144.5 600.18,1151.33 673.694,1188.63 747.208,1086.14 967.75,856.669 1041.26,718.873 1114.78,764.142 1188.29,106.197 1261.81,348.62 1482.35,370.968 1555.86,523.426 1629.38,457.518 1702.89,276.591 1776.41,320.008 1996.95,289.971 2070.46,206.411 2143.98,95.8054 2217.49,354.884 2291,670.617 "/>
<polyline clip-path="url(#clip752)" style="stroke:#e26f46; stroke-linecap:round; stroke-linejoin:round; stroke-width:4; stroke-opacity:1; fill:none" points="232.609,1155.04 453.152,1069.63 526.666,1140.8 600.18,1089.55 673.694,1127.14 747.208,937.809 967.75,701.792 1041.26,685.279 1114.78,554.601 1188.29,100.218 1261.81,260.932 1482.35,270.754 1555.86,387.652 1629.38,249.116 1702.89,189.045 1776.41,311.751 1996.95,113.599 2070.46,88.5454 2143.98,87.9763 2217.49,339.936 2291,464.066 "/>
<polyline clip-path="url(#clip752)" style="stroke:#3da44d; stroke-linecap:round; stroke-linejoin:round; stroke-width:4; stroke-opacity:1; fill:none" points="232.609,1334.11 453.152,1163.01 526.666,1445.72 600.18,1281.13 673.694,1215.16 747.208,1120.3 967.75,868.626 1041.26,805.138 1114.78,769.266 1188.29,427.055 1261.81,510.387 1482.35,429.333 1555.86,529.121 1629.38,500.223 1702.89,393.745 1776.41,561.149 1996.95,339.082 2070.46,215.522 2143.98,315.167 2217.49,496.807 2291,684.425 "/>
<polyline clip-path="url(#clip752)" style="stroke:#c271d2; stroke-linecap:round; stroke-linejoin:round; stroke-width:4; stroke-opacity:1; fill:none" points="232.609,1186.07 453.152,1094.11 526.666,1255.82 600.18,1221.94 673.694,1187.78 747.208,994.749 967.75,726.561 1041.26,769.266 1114.78,577.377 1188.29,385.773 1261.81,388.051 1482.35,322.57 1555.86,495.099 1629.38,304.633 1702.89,287.836 1776.41,448.407 1996.95,138.368 2070.46,105.628 2143.98,228.334 2217.49,464.92 2291,525.846 "/>
<path clip-path="url(#clip750)" d="M243.587 354.418 L585.735 354.418 L585.735 95.2176 L243.587 95.2176  Z" fill="#ffffff" fill-rule="evenodd" fill-opacity="1"/>
<polyline clip-path="url(#clip750)" style="stroke:#000000; stroke-linecap:round; stroke-linejoin:round; stroke-width:4; stroke-opacity:1; fill:none" points="243.587,354.418 585.735,354.418 585.735,95.2176 243.587,95.2176 243.587,354.418 "/>
<polyline clip-path="url(#clip750)" style="stroke:#009af9; stroke-linecap:round; stroke-linejoin:round; stroke-width:4; stroke-opacity:1; fill:none" points="267.831,147.058 413.291,147.058 "/>
<path clip-path="url(#clip750)" d="M453.552 132.949 Q448.46 132.949 445.451 136.745 Q442.464 140.541 442.464 147.092 Q442.464 153.62 445.451 157.416 Q448.46 161.213 453.552 161.213 Q458.645 161.213 461.608 157.416 Q464.594 153.62 464.594 147.092 Q464.594 140.541 461.608 136.745 Q458.645 132.949 453.552 132.949 M453.552 129.153 Q460.821 129.153 465.173 134.037 Q469.524 138.898 469.524 147.092 Q469.524 155.264 465.173 160.148 Q460.821 165.009 453.552 165.009 Q446.261 165.009 441.886 160.148 Q437.534 155.287 437.534 147.092 Q437.534 138.898 441.886 134.037 Q446.261 129.153 453.552 129.153 Z" fill="#000000" fill-rule="nonzero" fill-opacity="1" /><path clip-path="url(#clip750)" d="M480.774 160.449 L480.774 174.199 L476.492 174.199 L476.492 138.412 L480.774 138.412 L480.774 142.347 Q482.117 140.032 484.154 138.921 Q486.214 137.787 489.061 137.787 Q493.784 137.787 496.723 141.537 Q499.686 145.287 499.686 151.398 Q499.686 157.509 496.723 161.259 Q493.784 165.009 489.061 165.009 Q486.214 165.009 484.154 163.898 Q482.117 162.763 480.774 160.449 M495.265 151.398 Q495.265 146.699 493.321 144.037 Q491.399 141.352 488.02 141.352 Q484.64 141.352 482.696 144.037 Q480.774 146.699 480.774 151.398 Q480.774 156.097 482.696 158.782 Q484.64 161.444 488.02 161.444 Q491.399 161.444 493.321 158.782 Q495.265 156.097 495.265 151.398 Z" fill="#000000" fill-rule="nonzero" fill-opacity="1" /><path clip-path="url(#clip750)" d="M528.922 150.31 L528.922 152.393 L509.339 152.393 Q509.617 156.791 511.978 159.106 Q514.362 161.398 518.598 161.398 Q521.052 161.398 523.344 160.796 Q525.658 160.194 527.927 158.99 L527.927 163.018 Q525.635 163.99 523.228 164.5 Q520.82 165.009 518.344 165.009 Q512.14 165.009 508.506 161.398 Q504.895 157.787 504.895 151.629 Q504.895 145.264 508.321 141.537 Q511.77 137.787 517.603 137.787 Q522.834 137.787 525.867 141.166 Q528.922 144.523 528.922 150.31 M524.663 149.06 Q524.617 145.565 522.695 143.481 Q520.797 141.398 517.649 141.398 Q514.084 141.398 511.932 143.412 Q509.802 145.426 509.478 149.083 L524.663 149.06 Z" fill="#000000" fill-rule="nonzero" fill-opacity="1" /><path clip-path="url(#clip750)" d="M557.464 148.689 L557.464 164.338 L553.205 164.338 L553.205 148.828 Q553.205 145.148 551.769 143.319 Q550.334 141.49 547.464 141.49 Q544.015 141.49 542.024 143.69 Q540.033 145.889 540.033 149.685 L540.033 164.338 L535.751 164.338 L535.751 138.412 L540.033 138.412 L540.033 142.44 Q541.561 140.102 543.621 138.944 Q545.705 137.787 548.413 137.787 Q552.881 137.787 555.172 140.565 Q557.464 143.319 557.464 148.689 Z" fill="#000000" fill-rule="nonzero" fill-opacity="1" /><polyline clip-path="url(#clip750)" style="stroke:#e26f46; stroke-linecap:round; stroke-linejoin:round; stroke-width:4; stroke-opacity:1; fill:none" points="267.831,198.898 413.291,198.898 "/>
<path clip-path="url(#clip750)" d="M437.534 181.618 L442.21 181.618 L442.21 195.784 L459.2 195.784 L459.2 181.618 L463.876 181.618 L463.876 216.178 L459.2 216.178 L459.2 199.719 L442.21 199.719 L442.21 216.178 L437.534 216.178 L437.534 181.618 Z" fill="#000000" fill-rule="nonzero" fill-opacity="1" /><path clip-path="url(#clip750)" d="M472.997 190.252 L477.256 190.252 L477.256 216.178 L472.997 216.178 L472.997 190.252 M472.997 180.159 L477.256 180.159 L477.256 185.553 L472.997 185.553 L472.997 180.159 Z" fill="#000000" fill-rule="nonzero" fill-opacity="1" /><path clip-path="url(#clip750)" d="M503.228 202.914 Q503.228 198.284 501.307 195.738 Q499.409 193.192 495.96 193.192 Q492.534 193.192 490.612 195.738 Q488.714 198.284 488.714 202.914 Q488.714 207.52 490.612 210.066 Q492.534 212.613 495.96 212.613 Q499.409 212.613 501.307 210.066 Q503.228 207.52 503.228 202.914 M507.487 212.96 Q507.487 219.58 504.547 222.798 Q501.608 226.039 495.543 226.039 Q493.297 226.039 491.307 225.691 Q489.316 225.367 487.441 224.673 L487.441 220.529 Q489.316 221.548 491.145 222.034 Q492.973 222.52 494.872 222.52 Q499.061 222.52 501.145 220.321 Q503.228 218.145 503.228 213.724 L503.228 211.617 Q501.909 213.909 499.848 215.043 Q497.788 216.178 494.918 216.178 Q490.149 216.178 487.233 212.543 Q484.316 208.909 484.316 202.914 Q484.316 196.895 487.233 193.261 Q490.149 189.627 494.918 189.627 Q497.788 189.627 499.848 190.761 Q501.909 191.895 503.228 194.187 L503.228 190.252 L507.487 190.252 L507.487 212.96 Z" fill="#000000" fill-rule="nonzero" fill-opacity="1" /><path clip-path="url(#clip750)" d="M537.811 200.529 L537.811 216.178 L533.552 216.178 L533.552 200.668 Q533.552 196.988 532.117 195.159 Q530.682 193.33 527.811 193.33 Q524.362 193.33 522.371 195.53 Q520.381 197.729 520.381 201.525 L520.381 216.178 L516.098 216.178 L516.098 180.159 L520.381 180.159 L520.381 194.28 Q521.908 191.942 523.969 190.784 Q526.052 189.627 528.76 189.627 Q533.228 189.627 535.519 192.405 Q537.811 195.159 537.811 200.529 Z" fill="#000000" fill-rule="nonzero" fill-opacity="1" /><polyline clip-path="url(#clip750)" style="stroke:#3da44d; stroke-linecap:round; stroke-linejoin:round; stroke-width:4; stroke-opacity:1; fill:none" points="267.831,250.738 413.291,250.738 "/>
<path clip-path="url(#clip750)" d="M437.534 233.458 L442.21 233.458 L442.21 264.082 L459.038 264.082 L459.038 268.018 L437.534 268.018 L437.534 233.458 Z" fill="#000000" fill-rule="nonzero" fill-opacity="1" /><path clip-path="url(#clip750)" d="M472.974 245.078 Q469.548 245.078 467.557 247.763 Q465.566 250.425 465.566 255.078 Q465.566 259.731 467.534 262.416 Q469.524 265.078 472.974 265.078 Q476.376 265.078 478.367 262.393 Q480.358 259.707 480.358 255.078 Q480.358 250.471 478.367 247.786 Q476.376 245.078 472.974 245.078 M472.974 241.467 Q478.529 241.467 481.7 245.078 Q484.872 248.689 484.872 255.078 Q484.872 261.444 481.7 265.078 Q478.529 268.689 472.974 268.689 Q467.395 268.689 464.224 265.078 Q461.075 261.444 461.075 255.078 Q461.075 248.689 464.224 245.078 Q467.395 241.467 472.974 241.467 Z" fill="#000000" fill-rule="nonzero" fill-opacity="1" /><path clip-path="url(#clip750)" d="M489.455 242.092 L493.714 242.092 L499.038 262.323 L504.339 242.092 L509.362 242.092 L514.686 262.323 L519.987 242.092 L524.246 242.092 L517.464 268.018 L512.441 268.018 L506.862 246.768 L501.26 268.018 L496.237 268.018 L489.455 242.092 Z" fill="#000000" fill-rule="nonzero" fill-opacity="1" /><polyline clip-path="url(#clip750)" style="stroke:#c271d2; stroke-linecap:round; stroke-linejoin:round; stroke-width:4; stroke-opacity:1; fill:none" points="267.831,302.578 413.291,302.578 "/>
<path clip-path="url(#clip750)" d="M465.404 287.96 L465.404 292.89 Q463.043 290.691 460.358 289.603 Q457.696 288.515 454.687 288.515 Q448.761 288.515 445.613 292.149 Q442.464 295.76 442.464 302.612 Q442.464 309.441 445.613 313.075 Q448.761 316.686 454.687 316.686 Q457.696 316.686 460.358 315.598 Q463.043 314.51 465.404 312.311 L465.404 317.196 Q462.95 318.862 460.196 319.696 Q457.464 320.529 454.409 320.529 Q446.562 320.529 442.048 315.737 Q437.534 310.922 437.534 302.612 Q437.534 294.279 442.048 289.487 Q446.562 284.673 454.409 284.673 Q457.511 284.673 460.242 285.506 Q462.997 286.316 465.404 287.96 Z" fill="#000000" fill-rule="nonzero" fill-opacity="1" /><path clip-path="url(#clip750)" d="M472.441 283.839 L476.7 283.839 L476.7 319.858 L472.441 319.858 L472.441 283.839 Z" fill="#000000" fill-rule="nonzero" fill-opacity="1" /><path clip-path="url(#clip750)" d="M495.659 296.918 Q492.233 296.918 490.242 299.603 Q488.251 302.265 488.251 306.918 Q488.251 311.571 490.219 314.256 Q492.21 316.918 495.659 316.918 Q499.061 316.918 501.052 314.233 Q503.043 311.547 503.043 306.918 Q503.043 302.311 501.052 299.626 Q499.061 296.918 495.659 296.918 M495.659 293.307 Q501.214 293.307 504.385 296.918 Q507.557 300.529 507.557 306.918 Q507.557 313.284 504.385 316.918 Q501.214 320.529 495.659 320.529 Q490.08 320.529 486.909 316.918 Q483.761 313.284 483.761 306.918 Q483.761 300.529 486.909 296.918 Q490.08 293.307 495.659 293.307 Z" fill="#000000" fill-rule="nonzero" fill-opacity="1" /><path clip-path="url(#clip750)" d="M531.145 294.696 L531.145 298.723 Q529.339 297.797 527.395 297.335 Q525.45 296.872 523.367 296.872 Q520.195 296.872 518.598 297.844 Q517.024 298.816 517.024 300.76 Q517.024 302.242 518.158 303.098 Q519.293 303.932 522.719 304.696 L524.177 305.02 Q528.714 305.992 530.612 307.774 Q532.533 309.534 532.533 312.705 Q532.533 316.316 529.663 318.422 Q526.816 320.529 521.816 320.529 Q519.733 320.529 517.464 320.112 Q515.219 319.719 512.719 318.908 L512.719 314.51 Q515.08 315.737 517.371 316.362 Q519.663 316.964 521.908 316.964 Q524.918 316.964 526.538 315.946 Q528.158 314.904 528.158 313.029 Q528.158 311.293 526.978 310.367 Q525.82 309.441 521.862 308.584 L520.381 308.237 Q516.422 307.404 514.663 305.691 Q512.904 303.955 512.904 300.946 Q512.904 297.288 515.496 295.298 Q518.089 293.307 522.858 293.307 Q525.219 293.307 527.302 293.654 Q529.385 294.001 531.145 294.696 Z" fill="#000000" fill-rule="nonzero" fill-opacity="1" /><path clip-path="url(#clip750)" d="M561.492 305.83 L561.492 307.913 L541.908 307.913 Q542.186 312.311 544.547 314.626 Q546.931 316.918 551.168 316.918 Q553.621 316.918 555.913 316.316 Q558.228 315.714 560.496 314.51 L560.496 318.538 Q558.205 319.51 555.797 320.02 Q553.39 320.529 550.913 320.529 Q544.709 320.529 541.075 316.918 Q537.464 313.307 537.464 307.149 Q537.464 300.784 540.89 297.057 Q544.339 293.307 550.172 293.307 Q555.404 293.307 558.436 296.686 Q561.492 300.043 561.492 305.83 M557.232 304.58 Q557.186 301.085 555.265 299.001 Q553.367 296.918 550.218 296.918 Q546.654 296.918 544.501 298.932 Q542.371 300.946 542.047 304.603 L557.232 304.58 Z" fill="#000000" fill-rule="nonzero" fill-opacity="1" /></svg>
