<?xml version="1.0" encoding="utf-8"?>
<svg xmlns="http://www.w3.org/2000/svg" xmlns:xlink="http://www.w3.org/1999/xlink" width="600" height="400" viewBox="0 0 2400 1600">
<defs>
  <clipPath id="clip900">
    <rect x="0" y="0" width="2400" height="1600"/>
  </clipPath>
</defs>
<path clip-path="url(#clip900)" d="M0 1600 L2400 1600 L2400 0 L0 0  Z" fill="#ffffff" fill-rule="evenodd" fill-opacity="1"/>
<defs>
  <clipPath id="clip901">
    <rect x="480" y="0" width="1681" height="1600"/>
  </clipPath>
</defs>
<path clip-path="url(#clip900)" d="M178.867 1486.45 L2352.76 1486.45 L2352.76 47.2441 L178.867 47.2441  Z" fill="#ffffff" fill-rule="evenodd" fill-opacity="1"/>
<defs>
  <clipPath id="clip902">
    <rect x="178" y="47" width="2175" height="1440"/>
  </clipPath>
</defs>
<polyline clip-path="url(#clip902)" style="stroke:#000000; stroke-linecap:round; stroke-linejoin:round; stroke-width:2; stroke-opacity:0.1; fill:none" points="240.392,1486.45 240.392,47.2441 "/>
<polyline clip-path="url(#clip902)" style="stroke:#000000; stroke-linecap:round; stroke-linejoin:round; stroke-width:2; stroke-opacity:0.1; fill:none" points="829.854,1486.45 829.854,47.2441 "/>
<polyline clip-path="url(#clip902)" style="stroke:#000000; stroke-linecap:round; stroke-linejoin:round; stroke-width:2; stroke-opacity:0.1; fill:none" points="1419.32,1486.45 1419.32,47.2441 "/>
<polyline clip-path="url(#clip902)" style="stroke:#000000; stroke-linecap:round; stroke-linejoin:round; stroke-width:2; stroke-opacity:0.1; fill:none" points="2008.78,1486.45 2008.78,47.2441 "/>
<polyline clip-path="url(#clip902)" style="stroke:#000000; stroke-linecap:round; stroke-linejoin:round; stroke-width:2; stroke-opacity:0.1; fill:none" points="178.867,1305.43 2352.76,1305.43 "/>
<polyline clip-path="url(#clip902)" style="stroke:#000000; stroke-linecap:round; stroke-linejoin:round; stroke-width:2; stroke-opacity:0.1; fill:none" points="178.867,1069.71 2352.76,1069.71 "/>
<polyline clip-path="url(#clip902)" style="stroke:#000000; stroke-linecap:round; stroke-linejoin:round; stroke-width:2; stroke-opacity:0.1; fill:none" points="178.867,833.99 2352.76,833.99 "/>
<polyline clip-path="url(#clip902)" style="stroke:#000000; stroke-linecap:round; stroke-linejoin:round; stroke-width:2; stroke-opacity:0.1; fill:none" points="178.867,598.271 2352.76,598.271 "/>
<polyline clip-path="url(#clip902)" style="stroke:#000000; stroke-linecap:round; stroke-linejoin:round; stroke-width:2; stroke-opacity:0.1; fill:none" points="178.867,362.551 2352.76,362.551 "/>
<polyline clip-path="url(#clip902)" style="stroke:#000000; stroke-linecap:round; stroke-linejoin:round; stroke-width:2; stroke-opacity:0.1; fill:none" points="178.867,126.832 2352.76,126.832 "/>
<polyline clip-path="url(#clip900)" style="stroke:#000000; stroke-linecap:round; stroke-linejoin:round; stroke-width:4; stroke-opacity:1; fill:none" points="178.867,1486.45 2352.76,1486.45 "/>
<polyline clip-path="url(#clip900)" style="stroke:#000000; stroke-linecap:round; stroke-linejoin:round; stroke-width:4; stroke-opacity:1; fill:none" points="240.392,1486.45 240.392,1467.55 "/>
<polyline clip-path="url(#clip900)" style="stroke:#000000; stroke-linecap:round; stroke-linejoin:round; stroke-width:4; stroke-opacity:1; fill:none" points="829.854,1486.45 829.854,1467.55 "/>
<polyline clip-path="url(#clip900)" style="stroke:#000000; stroke-linecap:round; stroke-linejoin:round; stroke-width:4; stroke-opacity:1; fill:none" points="1419.32,1486.45 1419.32,1467.55 "/>
<polyline clip-path="url(#clip900)" style="stroke:#000000; stroke-linecap:round; stroke-linejoin:round; stroke-width:4; stroke-opacity:1; fill:none" points="2008.78,1486.45 2008.78,1467.55 "/>
<path clip-path="url(#clip900)" d="M112.186 1544.91 L128.506 1544.91 L128.506 1548.85 L106.562 1548.85 L106.562 1544.91 Q109.224 1542.16 113.807 1537.53 Q118.413 1532.88 119.594 1531.53 Q121.839 1529.01 122.719 1527.27 Q123.622 1525.51 123.622 1523.82 Q123.622 1521.07 121.677 1519.33 Q119.756 1517.6 116.654 1517.6 Q114.455 1517.6 112.001 1518.36 Q109.571 1519.13 106.793 1520.68 L106.793 1515.95 Q109.617 1514.82 112.071 1514.24 Q114.524 1513.66 116.561 1513.66 Q121.932 1513.66 125.126 1516.35 Q128.321 1519.03 128.321 1523.52 Q128.321 1525.65 127.51 1527.57 Q126.723 1529.47 124.617 1532.07 Q124.038 1532.74 120.936 1535.95 Q117.835 1539.15 112.186 1544.91 Z" fill="#000000" fill-rule="nonzero" fill-opacity="1" /><path clip-path="url(#clip900)" d="M148.321 1517.37 Q144.709 1517.37 142.881 1520.93 Q141.075 1524.47 141.075 1531.6 Q141.075 1538.71 142.881 1542.27 Q144.709 1545.82 148.321 1545.82 Q151.955 1545.82 153.76 1542.27 Q155.589 1538.71 155.589 1531.6 Q155.589 1524.47 153.76 1520.93 Q151.955 1517.37 148.321 1517.37 M148.321 1513.66 Q154.131 1513.66 157.186 1518.27 Q160.265 1522.85 160.265 1531.6 Q160.265 1540.33 157.186 1544.94 Q154.131 1549.52 148.321 1549.52 Q142.51 1549.52 139.432 1544.94 Q136.376 1540.33 136.376 1531.6 Q136.376 1522.85 139.432 1518.27 Q142.51 1513.66 148.321 1513.66 Z" fill="#000000" fill-rule="nonzero" fill-opacity="1" /><path clip-path="url(#clip900)" d="M172.51 1544.91 L188.83 1544.91 L188.83 1548.85 L166.885 1548.85 L166.885 1544.91 Q169.547 1542.16 174.131 1537.53 Q178.737 1532.88 179.918 1531.53 Q182.163 1529.01 183.043 1527.27 Q183.945 1525.51 183.945 1523.82 Q183.945 1521.07 182.001 1519.33 Q180.08 1517.6 176.978 1517.6 Q174.779 1517.6 172.325 1518.36 Q169.894 1519.13 167.117 1520.68 L167.117 1515.95 Q169.941 1514.82 172.394 1514.24 Q174.848 1513.66 176.885 1513.66 Q182.256 1513.66 185.45 1516.35 Q188.644 1519.03 188.644 1523.52 Q188.644 1525.65 187.834 1527.57 Q187.047 1529.47 184.941 1532.07 Q184.362 1532.74 181.26 1535.95 Q178.158 1539.15 172.51 1544.91 Z" fill="#000000" fill-rule="nonzero" fill-opacity="1" /><path clip-path="url(#clip900)" d="M208.644 1517.37 Q205.033 1517.37 203.205 1520.93 Q201.399 1524.47 201.399 1531.6 Q201.399 1538.71 203.205 1542.27 Q205.033 1545.82 208.644 1545.82 Q212.279 1545.82 214.084 1542.27 Q215.913 1538.71 215.913 1531.6 Q215.913 1524.47 214.084 1520.93 Q212.279 1517.37 208.644 1517.37 M208.644 1513.66 Q214.454 1513.66 217.51 1518.27 Q220.589 1522.85 220.589 1531.6 Q220.589 1540.33 217.51 1544.94 Q214.454 1549.52 208.644 1549.52 Q202.834 1549.52 199.755 1544.94 Q196.7 1540.33 196.7 1531.6 Q196.7 1522.85 199.755 1518.27 Q202.834 1513.66 208.644 1513.66 Z" fill="#000000" fill-rule="nonzero" fill-opacity="1" /><path clip-path="url(#clip900)" d="M226.052 1533.96 L238.528 1533.96 L238.528 1537.76 L226.052 1537.76 L226.052 1533.96 Z" fill="#000000" fill-rule="nonzero" fill-opacity="1" /><path clip-path="url(#clip900)" d="M255.913 1517.37 Q252.301 1517.37 250.473 1520.93 Q248.667 1524.47 248.667 1531.6 Q248.667 1538.71 250.473 1542.27 Q252.301 1545.82 255.913 1545.82 Q259.547 1545.82 261.352 1542.27 Q263.181 1538.71 263.181 1531.6 Q263.181 1524.47 261.352 1520.93 Q259.547 1517.37 255.913 1517.37 M255.913 1513.66 Q261.723 1513.66 264.778 1518.27 Q267.857 1522.85 267.857 1531.6 Q267.857 1540.33 264.778 1544.94 Q261.723 1549.52 255.913 1549.52 Q250.102 1549.52 247.024 1544.94 Q243.968 1540.33 243.968 1531.6 Q243.968 1522.85 247.024 1518.27 Q250.102 1513.66 255.913 1513.66 Z" fill="#000000" fill-rule="nonzero" fill-opacity="1" /><path clip-path="url(#clip900)" d="M276.885 1544.91 L284.524 1544.91 L284.524 1518.55 L276.213 1520.21 L276.213 1515.95 L284.477 1514.29 L289.153 1514.29 L289.153 1544.91 L296.792 1544.91 L296.792 1548.85 L276.885 1548.85 L276.885 1544.91 Z" fill="#000000" fill-rule="nonzero" fill-opacity="1" /><path clip-path="url(#clip900)" d="M303.482 1533.96 L315.959 1533.96 L315.959 1537.76 L303.482 1537.76 L303.482 1533.96 Z" fill="#000000" fill-rule="nonzero" fill-opacity="1" /><path clip-path="url(#clip900)" d="M333.343 1517.37 Q329.732 1517.37 327.903 1520.93 Q326.097 1524.47 326.097 1531.6 Q326.097 1538.71 327.903 1542.27 Q329.732 1545.82 333.343 1545.82 Q336.977 1545.82 338.782 1542.27 Q340.611 1538.71 340.611 1531.6 Q340.611 1524.47 338.782 1520.93 Q336.977 1517.37 333.343 1517.37 M333.343 1513.66 Q339.153 1513.66 342.208 1518.27 Q345.287 1522.85 345.287 1531.6 Q345.287 1540.33 342.208 1544.94 Q339.153 1549.52 333.343 1549.52 Q327.533 1549.52 324.454 1544.94 Q321.398 1540.33 321.398 1531.6 Q321.398 1522.85 324.454 1518.27 Q327.533 1513.66 333.343 1513.66 Z" fill="#000000" fill-rule="nonzero" fill-opacity="1" /><path clip-path="url(#clip900)" d="M354.315 1544.91 L361.954 1544.91 L361.954 1518.55 L353.644 1520.21 L353.644 1515.95 L361.907 1514.29 L366.583 1514.29 L366.583 1544.91 L374.222 1544.91 L374.222 1548.85 L354.315 1548.85 L354.315 1544.91 Z" fill="#000000" fill-rule="nonzero" fill-opacity="1" /><path clip-path="url(#clip900)" d="M701.36 1544.91 L717.679 1544.91 L717.679 1548.85 L695.735 1548.85 L695.735 1544.91 Q698.397 1542.16 702.98 1537.53 Q707.587 1532.88 708.767 1531.53 Q711.013 1529.01 711.892 1527.27 Q712.795 1525.51 712.795 1523.82 Q712.795 1521.07 710.85 1519.33 Q708.929 1517.6 705.827 1517.6 Q703.628 1517.6 701.175 1518.36 Q698.744 1519.13 695.966 1520.68 L695.966 1515.95 Q698.79 1514.82 701.244 1514.24 Q703.698 1513.66 705.735 1513.66 Q711.105 1513.66 714.3 1516.35 Q717.494 1519.03 717.494 1523.52 Q717.494 1525.65 716.684 1527.57 Q715.897 1529.47 713.79 1532.07 Q713.212 1532.74 710.11 1535.95 Q707.008 1539.15 701.36 1544.91 Z" fill="#000000" fill-rule="nonzero" fill-opacity="1" /><path clip-path="url(#clip900)" d="M737.494 1517.37 Q733.883 1517.37 732.054 1520.93 Q730.249 1524.47 730.249 1531.6 Q730.249 1538.71 732.054 1542.27 Q733.883 1545.82 737.494 1545.82 Q741.128 1545.82 742.934 1542.27 Q744.762 1538.71 744.762 1531.6 Q744.762 1524.47 742.934 1520.93 Q741.128 1517.37 737.494 1517.37 M737.494 1513.66 Q743.304 1513.66 746.36 1518.27 Q749.438 1522.85 749.438 1531.6 Q749.438 1540.33 746.36 1544.94 Q743.304 1549.52 737.494 1549.52 Q731.684 1549.52 728.605 1544.94 Q725.549 1540.33 725.549 1531.6 Q725.549 1522.85 728.605 1518.27 Q731.684 1513.66 737.494 1513.66 Z" fill="#000000" fill-rule="nonzero" fill-opacity="1" /><path clip-path="url(#clip900)" d="M761.684 1544.91 L778.003 1544.91 L778.003 1548.85 L756.059 1548.85 L756.059 1544.91 Q758.721 1542.16 763.304 1537.53 Q767.91 1532.88 769.091 1531.53 Q771.336 1529.01 772.216 1527.27 Q773.119 1525.51 773.119 1523.82 Q773.119 1521.07 771.174 1519.33 Q769.253 1517.6 766.151 1517.6 Q763.952 1517.6 761.498 1518.36 Q759.068 1519.13 756.29 1520.68 L756.29 1515.95 Q759.114 1514.82 761.568 1514.24 Q764.022 1513.66 766.059 1513.66 Q771.429 1513.66 774.623 1516.35 Q777.818 1519.03 777.818 1523.52 Q777.818 1525.65 777.008 1527.57 Q776.221 1529.47 774.114 1532.07 Q773.535 1532.74 770.434 1535.95 Q767.332 1539.15 761.684 1544.91 Z" fill="#000000" fill-rule="nonzero" fill-opacity="1" /><path clip-path="url(#clip900)" d="M797.818 1517.37 Q794.207 1517.37 792.378 1520.93 Q790.572 1524.47 790.572 1531.6 Q790.572 1538.71 792.378 1542.27 Q794.207 1545.82 797.818 1545.82 Q801.452 1545.82 803.257 1542.27 Q805.086 1538.71 805.086 1531.6 Q805.086 1524.47 803.257 1520.93 Q801.452 1517.37 797.818 1517.37 M797.818 1513.66 Q803.628 1513.66 806.683 1518.27 Q809.762 1522.85 809.762 1531.6 Q809.762 1540.33 806.683 1544.94 Q803.628 1549.52 797.818 1549.52 Q792.007 1549.52 788.929 1544.94 Q785.873 1540.33 785.873 1531.6 Q785.873 1522.85 788.929 1518.27 Q792.007 1513.66 797.818 1513.66 Z" fill="#000000" fill-rule="nonzero" fill-opacity="1" /><path clip-path="url(#clip900)" d="M815.225 1533.96 L827.702 1533.96 L827.702 1537.76 L815.225 1537.76 L815.225 1533.96 Z" fill="#000000" fill-rule="nonzero" fill-opacity="1" /><path clip-path="url(#clip900)" d="M845.086 1517.37 Q841.475 1517.37 839.646 1520.93 Q837.841 1524.47 837.841 1531.6 Q837.841 1538.71 839.646 1542.27 Q841.475 1545.82 845.086 1545.82 Q848.72 1545.82 850.526 1542.27 Q852.354 1538.71 852.354 1531.6 Q852.354 1524.47 850.526 1520.93 Q848.72 1517.37 845.086 1517.37 M845.086 1513.66 Q850.896 1513.66 853.952 1518.27 Q857.03 1522.85 857.03 1531.6 Q857.03 1540.33 853.952 1544.94 Q850.896 1549.52 845.086 1549.52 Q839.276 1549.52 836.197 1544.94 Q833.142 1540.33 833.142 1531.6 Q833.142 1522.85 836.197 1518.27 Q839.276 1513.66 845.086 1513.66 Z" fill="#000000" fill-rule="nonzero" fill-opacity="1" /><path clip-path="url(#clip900)" d="M866.058 1544.91 L873.697 1544.91 L873.697 1518.55 L865.387 1520.21 L865.387 1515.95 L873.651 1514.29 L878.326 1514.29 L878.326 1544.91 L885.965 1544.91 L885.965 1548.85 L866.058 1548.85 L866.058 1544.91 Z" fill="#000000" fill-rule="nonzero" fill-opacity="1" /><path clip-path="url(#clip900)" d="M892.655 1533.96 L905.132 1533.96 L905.132 1537.76 L892.655 1537.76 L892.655 1533.96 Z" fill="#000000" fill-rule="nonzero" fill-opacity="1" /><path clip-path="url(#clip900)" d="M922.516 1517.37 Q918.905 1517.37 917.076 1520.93 Q915.271 1524.47 915.271 1531.6 Q915.271 1538.71 917.076 1542.27 Q918.905 1545.82 922.516 1545.82 Q926.15 1545.82 927.956 1542.27 Q929.785 1538.71 929.785 1531.6 Q929.785 1524.47 927.956 1520.93 Q926.15 1517.37 922.516 1517.37 M922.516 1513.66 Q928.326 1513.66 931.382 1518.27 Q934.46 1522.85 934.46 1531.6 Q934.46 1540.33 931.382 1544.94 Q928.326 1549.52 922.516 1549.52 Q916.706 1549.52 913.627 1544.94 Q910.572 1540.33 910.572 1531.6 Q910.572 1522.85 913.627 1518.27 Q916.706 1513.66 922.516 1513.66 Z" fill="#000000" fill-rule="nonzero" fill-opacity="1" /><path clip-path="url(#clip900)" d="M956.845 1530.21 Q960.201 1530.93 962.076 1533.2 Q963.974 1535.47 963.974 1538.8 Q963.974 1543.92 960.456 1546.72 Q956.937 1549.52 950.456 1549.52 Q948.28 1549.52 945.965 1549.08 Q943.673 1548.66 941.22 1547.81 L941.22 1543.29 Q943.164 1544.43 945.479 1545.01 Q947.794 1545.58 950.317 1545.58 Q954.715 1545.58 957.007 1543.85 Q959.321 1542.11 959.321 1538.8 Q959.321 1535.75 957.169 1534.03 Q955.039 1532.3 951.22 1532.3 L947.192 1532.3 L947.192 1528.45 L951.405 1528.45 Q954.854 1528.45 956.683 1527.09 Q958.511 1525.7 958.511 1523.11 Q958.511 1520.45 956.613 1519.03 Q954.738 1517.6 951.22 1517.6 Q949.298 1517.6 947.099 1518.01 Q944.9 1518.43 942.261 1519.31 L942.261 1515.14 Q944.923 1514.4 947.238 1514.03 Q949.576 1513.66 951.636 1513.66 Q956.96 1513.66 960.062 1516.09 Q963.164 1518.5 963.164 1522.62 Q963.164 1525.49 961.52 1527.48 Q959.877 1529.45 956.845 1530.21 Z" fill="#000000" fill-rule="nonzero" fill-opacity="1" /><path clip-path="url(#clip900)" d="M1291 1544.91 L1307.32 1544.91 L1307.32 1548.85 L1285.37 1548.85 L1285.37 1544.91 Q1288.03 1542.16 1292.62 1537.53 Q1297.22 1532.88 1298.4 1531.53 Q1300.65 1529.01 1301.53 1527.27 Q1302.43 1525.51 1302.43 1523.82 Q1302.43 1521.07 1300.49 1519.33 Q1298.57 1517.6 1295.46 1517.6 Q1293.26 1517.6 1290.81 1518.36 Q1288.38 1519.13 1285.6 1520.68 L1285.6 1515.95 Q1288.43 1514.82 1290.88 1514.24 Q1293.33 1513.66 1295.37 1513.66 Q1300.74 1513.66 1303.94 1516.35 Q1307.13 1519.03 1307.13 1523.52 Q1307.13 1525.65 1306.32 1527.57 Q1305.53 1529.47 1303.43 1532.07 Q1302.85 1532.74 1299.75 1535.95 Q1296.64 1539.15 1291 1544.91 Z" fill="#000000" fill-rule="nonzero" fill-opacity="1" /><path clip-path="url(#clip900)" d="M1327.13 1517.37 Q1323.52 1517.37 1321.69 1520.93 Q1319.88 1524.47 1319.88 1531.6 Q1319.88 1538.71 1321.69 1542.27 Q1323.52 1545.82 1327.13 1545.82 Q1330.76 1545.82 1332.57 1542.27 Q1334.4 1538.71 1334.4 1531.6 Q1334.4 1524.47 1332.57 1520.93 Q1330.76 1517.37 1327.13 1517.37 M1327.13 1513.66 Q1332.94 1513.66 1336 1518.27 Q1339.07 1522.85 1339.07 1531.6 Q1339.07 1540.33 1336 1544.94 Q1332.94 1549.52 1327.13 1549.52 Q1321.32 1549.52 1318.24 1544.94 Q1315.19 1540.33 1315.19 1531.6 Q1315.19 1522.85 1318.24 1518.27 Q1321.32 1513.66 1327.13 1513.66 Z" fill="#000000" fill-rule="nonzero" fill-opacity="1" /><path clip-path="url(#clip900)" d="M1351.32 1544.91 L1367.64 1544.91 L1367.64 1548.85 L1345.69 1548.85 L1345.69 1544.91 Q1348.36 1542.16 1352.94 1537.53 Q1357.55 1532.88 1358.73 1531.53 Q1360.97 1529.01 1361.85 1527.27 Q1362.75 1525.51 1362.75 1523.82 Q1362.75 1521.07 1360.81 1519.33 Q1358.89 1517.6 1355.79 1517.6 Q1353.59 1517.6 1351.13 1518.36 Q1348.7 1519.13 1345.93 1520.68 L1345.93 1515.95 Q1348.75 1514.82 1351.2 1514.24 Q1353.66 1513.66 1355.69 1513.66 Q1361.07 1513.66 1364.26 1516.35 Q1367.45 1519.03 1367.45 1523.52 Q1367.45 1525.65 1366.64 1527.57 Q1365.86 1529.47 1363.75 1532.07 Q1363.17 1532.74 1360.07 1535.95 Q1356.97 1539.15 1351.32 1544.91 Z" fill="#000000" fill-rule="nonzero" fill-opacity="1" /><path clip-path="url(#clip900)" d="M1387.45 1517.37 Q1383.84 1517.37 1382.01 1520.93 Q1380.21 1524.47 1380.21 1531.6 Q1380.21 1538.71 1382.01 1542.27 Q1383.84 1545.82 1387.45 1545.82 Q1391.09 1545.82 1392.89 1542.27 Q1394.72 1538.71 1394.72 1531.6 Q1394.72 1524.47 1392.89 1520.93 Q1391.09 1517.37 1387.45 1517.37 M1387.45 1513.66 Q1393.26 1513.66 1396.32 1518.27 Q1399.4 1522.85 1399.4 1531.6 Q1399.4 1540.33 1396.32 1544.94 Q1393.26 1549.52 1387.45 1549.52 Q1381.64 1549.52 1378.57 1544.94 Q1375.51 1540.33 1375.51 1531.6 Q1375.51 1522.85 1378.57 1518.27 Q1381.64 1513.66 1387.45 1513.66 Z" fill="#000000" fill-rule="nonzero" fill-opacity="1" /><path clip-path="url(#clip900)" d="M1404.86 1533.96 L1417.34 1533.96 L1417.34 1537.76 L1404.86 1537.76 L1404.86 1533.96 Z" fill="#000000" fill-rule="nonzero" fill-opacity="1" /><path clip-path="url(#clip900)" d="M1434.72 1517.37 Q1431.11 1517.37 1429.28 1520.93 Q1427.48 1524.47 1427.48 1531.6 Q1427.48 1538.71 1429.28 1542.27 Q1431.11 1545.82 1434.72 1545.82 Q1438.36 1545.82 1440.16 1542.27 Q1441.99 1538.71 1441.99 1531.6 Q1441.99 1524.47 1440.16 1520.93 Q1438.36 1517.37 1434.72 1517.37 M1434.72 1513.66 Q1440.53 1513.66 1443.59 1518.27 Q1446.67 1522.85 1446.67 1531.6 Q1446.67 1540.33 1443.59 1544.94 Q1440.53 1549.52 1434.72 1549.52 Q1428.91 1549.52 1425.83 1544.94 Q1422.78 1540.33 1422.78 1531.6 Q1422.78 1522.85 1425.83 1518.27 Q1428.91 1513.66 1434.72 1513.66 Z" fill="#000000" fill-rule="nonzero" fill-opacity="1" /><path clip-path="url(#clip900)" d="M1455.69 1544.91 L1463.33 1544.91 L1463.33 1518.55 L1455.02 1520.21 L1455.02 1515.95 L1463.29 1514.29 L1467.96 1514.29 L1467.96 1544.91 L1475.6 1544.91 L1475.6 1548.85 L1455.69 1548.85 L1455.69 1544.91 Z" fill="#000000" fill-rule="nonzero" fill-opacity="1" /><path clip-path="url(#clip900)" d="M1482.29 1533.96 L1494.77 1533.96 L1494.77 1537.76 L1482.29 1537.76 L1482.29 1533.96 Z" fill="#000000" fill-rule="nonzero" fill-opacity="1" /><path clip-path="url(#clip900)" d="M1512.15 1517.37 Q1508.54 1517.37 1506.71 1520.93 Q1504.91 1524.47 1504.91 1531.6 Q1504.91 1538.71 1506.71 1542.27 Q1508.54 1545.82 1512.15 1545.82 Q1515.79 1545.82 1517.59 1542.27 Q1519.42 1538.71 1519.42 1531.6 Q1519.42 1524.47 1517.59 1520.93 Q1515.79 1517.37 1512.15 1517.37 M1512.15 1513.66 Q1517.96 1513.66 1521.02 1518.27 Q1524.1 1522.85 1524.1 1531.6 Q1524.1 1540.33 1521.02 1544.94 Q1517.96 1549.52 1512.15 1549.52 Q1506.34 1549.52 1503.26 1544.94 Q1500.21 1540.33 1500.21 1531.6 Q1500.21 1522.85 1503.26 1518.27 Q1506.34 1513.66 1512.15 1513.66 Z" fill="#000000" fill-rule="nonzero" fill-opacity="1" /><path clip-path="url(#clip900)" d="M1532.36 1514.29 L1550.72 1514.29 L1550.72 1518.22 L1536.64 1518.22 L1536.64 1526.7 Q1537.66 1526.35 1538.68 1526.19 Q1539.7 1526 1540.72 1526 Q1546.5 1526 1549.88 1529.17 Q1553.26 1532.34 1553.26 1537.76 Q1553.26 1543.34 1549.79 1546.44 Q1546.32 1549.52 1540 1549.52 Q1537.82 1549.52 1535.55 1549.15 Q1533.31 1548.78 1530.9 1548.04 L1530.9 1543.34 Q1532.99 1544.47 1535.21 1545.03 Q1537.43 1545.58 1539.91 1545.58 Q1543.91 1545.58 1546.25 1543.48 Q1548.59 1541.37 1548.59 1537.76 Q1548.59 1534.15 1546.25 1532.04 Q1543.91 1529.94 1539.91 1529.94 Q1538.03 1529.94 1536.16 1530.35 Q1534.3 1530.77 1532.36 1531.65 L1532.36 1514.29 Z" fill="#000000" fill-rule="nonzero" fill-opacity="1" /><path clip-path="url(#clip900)" d="M1880.41 1544.91 L1896.73 1544.91 L1896.73 1548.85 L1874.79 1548.85 L1874.79 1544.91 Q1877.45 1542.16 1882.03 1537.53 Q1886.64 1532.88 1887.82 1531.53 Q1890.07 1529.01 1890.94 1527.27 Q1891.85 1525.51 1891.85 1523.82 Q1891.85 1521.07 1889.9 1519.33 Q1887.98 1517.6 1884.88 1517.6 Q1882.68 1517.6 1880.23 1518.36 Q1877.8 1519.13 1875.02 1520.68 L1875.02 1515.95 Q1877.84 1514.82 1880.3 1514.24 Q1882.75 1513.66 1884.79 1513.66 Q1890.16 1513.66 1893.35 1516.35 Q1896.55 1519.03 1896.55 1523.52 Q1896.55 1525.65 1895.74 1527.57 Q1894.95 1529.47 1892.84 1532.07 Q1892.26 1532.74 1889.16 1535.95 Q1886.06 1539.15 1880.41 1544.91 Z" fill="#000000" fill-rule="nonzero" fill-opacity="1" /><path clip-path="url(#clip900)" d="M1916.55 1517.37 Q1912.94 1517.37 1911.11 1520.93 Q1909.3 1524.47 1909.3 1531.6 Q1909.3 1538.71 1911.11 1542.27 Q1912.94 1545.82 1916.55 1545.82 Q1920.18 1545.82 1921.99 1542.27 Q1923.82 1538.71 1923.82 1531.6 Q1923.82 1524.47 1921.99 1520.93 Q1920.18 1517.37 1916.55 1517.37 M1916.55 1513.66 Q1922.36 1513.66 1925.41 1518.27 Q1928.49 1522.85 1928.49 1531.6 Q1928.49 1540.33 1925.41 1544.94 Q1922.36 1549.52 1916.55 1549.52 Q1910.74 1549.52 1907.66 1544.94 Q1904.6 1540.33 1904.6 1531.6 Q1904.6 1522.85 1907.66 1518.27 Q1910.74 1513.66 1916.55 1513.66 Z" fill="#000000" fill-rule="nonzero" fill-opacity="1" /><path clip-path="url(#clip900)" d="M1940.74 1544.91 L1957.06 1544.91 L1957.06 1548.85 L1935.11 1548.85 L1935.11 1544.91 Q1937.77 1542.16 1942.36 1537.53 Q1946.96 1532.88 1948.14 1531.53 Q1950.39 1529.01 1951.27 1527.27 Q1952.17 1525.51 1952.17 1523.82 Q1952.17 1521.07 1950.23 1519.33 Q1948.31 1517.6 1945.2 1517.6 Q1943 1517.6 1940.55 1518.36 Q1938.12 1519.13 1935.34 1520.68 L1935.34 1515.95 Q1938.17 1514.82 1940.62 1514.24 Q1943.07 1513.66 1945.11 1513.66 Q1950.48 1513.66 1953.68 1516.35 Q1956.87 1519.03 1956.87 1523.52 Q1956.87 1525.65 1956.06 1527.57 Q1955.27 1529.47 1953.17 1532.07 Q1952.59 1532.74 1949.49 1535.95 Q1946.38 1539.15 1940.74 1544.91 Z" fill="#000000" fill-rule="nonzero" fill-opacity="1" /><path clip-path="url(#clip900)" d="M1976.87 1517.37 Q1973.26 1517.37 1971.43 1520.93 Q1969.62 1524.47 1969.62 1531.6 Q1969.62 1538.71 1971.43 1542.27 Q1973.26 1545.82 1976.87 1545.82 Q1980.5 1545.82 1982.31 1542.27 Q1984.14 1538.71 1984.14 1531.6 Q1984.14 1524.47 1982.31 1520.93 Q1980.5 1517.37 1976.87 1517.37 M1976.87 1513.66 Q1982.68 1513.66 1985.74 1518.27 Q1988.81 1522.85 1988.81 1531.6 Q1988.81 1540.33 1985.74 1544.94 Q1982.68 1549.52 1976.87 1549.52 Q1971.06 1549.52 1967.98 1544.94 Q1964.93 1540.33 1964.93 1531.6 Q1964.93 1522.85 1967.98 1518.27 Q1971.06 1513.66 1976.87 1513.66 Z" fill="#000000" fill-rule="nonzero" fill-opacity="1" /><path clip-path="url(#clip900)" d="M1994.28 1533.96 L2006.75 1533.96 L2006.75 1537.76 L1994.28 1537.76 L1994.28 1533.96 Z" fill="#000000" fill-rule="nonzero" fill-opacity="1" /><path clip-path="url(#clip900)" d="M2024.14 1517.37 Q2020.53 1517.37 2018.7 1520.93 Q2016.89 1524.47 2016.89 1531.6 Q2016.89 1538.71 2018.7 1542.27 Q2020.53 1545.82 2024.14 1545.82 Q2027.77 1545.82 2029.58 1542.27 Q2031.41 1538.71 2031.41 1531.6 Q2031.41 1524.47 2029.58 1520.93 Q2027.77 1517.37 2024.14 1517.37 M2024.14 1513.66 Q2029.95 1513.66 2033 1518.27 Q2036.08 1522.85 2036.08 1531.6 Q2036.08 1540.33 2033 1544.94 Q2029.95 1549.52 2024.14 1549.52 Q2018.33 1549.52 2015.25 1544.94 Q2012.19 1540.33 2012.19 1531.6 Q2012.19 1522.85 2015.25 1518.27 Q2018.33 1513.66 2024.14 1513.66 Z" fill="#000000" fill-rule="nonzero" fill-opacity="1" /><path clip-path="url(#clip900)" d="M2045.11 1544.91 L2052.75 1544.91 L2052.75 1518.55 L2044.44 1520.21 L2044.44 1515.95 L2052.7 1514.29 L2057.38 1514.29 L2057.38 1544.91 L2065.02 1544.91 L2065.02 1548.85 L2045.11 1548.85 L2045.11 1544.91 Z" fill="#000000" fill-rule="nonzero" fill-opacity="1" /><path clip-path="url(#clip900)" d="M2071.71 1533.96 L2084.18 1533.96 L2084.18 1537.76 L2071.71 1537.76 L2071.71 1533.96 Z" fill="#000000" fill-rule="nonzero" fill-opacity="1" /><path clip-path="url(#clip900)" d="M2101.57 1517.37 Q2097.96 1517.37 2096.13 1520.93 Q2094.32 1524.47 2094.32 1531.6 Q2094.32 1538.71 2096.13 1542.27 Q2097.96 1545.82 2101.57 1545.82 Q2105.2 1545.82 2107.01 1542.27 Q2108.84 1538.71 2108.84 1531.6 Q2108.84 1524.47 2107.01 1520.93 Q2105.2 1517.37 2101.57 1517.37 M2101.57 1513.66 Q2107.38 1513.66 2110.43 1518.27 Q2113.51 1522.85 2113.51 1531.6 Q2113.51 1540.33 2110.43 1544.94 Q2107.38 1549.52 2101.57 1549.52 Q2095.76 1549.52 2092.68 1544.94 Q2089.62 1540.33 2089.62 1531.6 Q2089.62 1522.85 2092.68 1518.27 Q2095.76 1513.66 2101.57 1513.66 Z" fill="#000000" fill-rule="nonzero" fill-opacity="1" /><path clip-path="url(#clip900)" d="M2120.55 1514.29 L2142.77 1514.29 L2142.77 1516.28 L2130.23 1548.85 L2125.34 1548.85 L2137.15 1518.22 L2120.55 1518.22 L2120.55 1514.29 Z" fill="#000000" fill-rule="nonzero" fill-opacity="1" /><polyline clip-path="url(#clip900)" style="stroke:#000000; stroke-linecap:round; stroke-linejoin:round; stroke-width:4; stroke-opacity:1; fill:none" points="178.867,1486.45 178.867,47.2441 "/>
<polyline clip-path="url(#clip900)" style="stroke:#000000; stroke-linecap:round; stroke-linejoin:round; stroke-width:4; stroke-opacity:1; fill:none" points="178.867,1305.43 197.764,1305.43 "/>
<polyline clip-path="url(#clip900)" style="stroke:#000000; stroke-linecap:round; stroke-linejoin:round; stroke-width:4; stroke-opacity:1; fill:none" points="178.867,1069.71 197.764,1069.71 "/>
<polyline clip-path="url(#clip900)" style="stroke:#000000; stroke-linecap:round; stroke-linejoin:round; stroke-width:4; stroke-opacity:1; fill:none" points="178.867,833.99 197.764,833.99 "/>
<polyline clip-path="url(#clip900)" style="stroke:#000000; stroke-linecap:round; stroke-linejoin:round; stroke-width:4; stroke-opacity:1; fill:none" points="178.867,598.271 197.764,598.271 "/>
<polyline clip-path="url(#clip900)" style="stroke:#000000; stroke-linecap:round; stroke-linejoin:round; stroke-width:4; stroke-opacity:1; fill:none" points="178.867,362.551 197.764,362.551 "/>
<polyline clip-path="url(#clip900)" style="stroke:#000000; stroke-linecap:round; stroke-linejoin:round; stroke-width:4; stroke-opacity:1; fill:none" points="178.867,126.832 197.764,126.832 "/>
<path clip-path="url(#clip900)" d="M50.9921 1305.88 L80.6679 1305.88 L80.6679 1309.82 L50.9921 1309.82 L50.9921 1305.88 Z" fill="#000000" fill-rule="nonzero" fill-opacity="1" /><path clip-path="url(#clip900)" d="M94.7882 1318.77 L111.108 1318.77 L111.108 1322.71 L89.1632 1322.71 L89.1632 1318.77 Q91.8252 1316.02 96.4085 1311.39 Q101.015 1306.74 102.196 1305.39 Q104.441 1302.87 105.321 1301.13 Q106.223 1299.38 106.223 1297.69 Q106.223 1294.93 104.279 1293.19 Q102.358 1291.46 99.2558 1291.46 Q97.0567 1291.46 94.603 1292.22 Q92.1725 1292.99 89.3947 1294.54 L89.3947 1289.82 Q92.2188 1288.68 94.6724 1288.1 Q97.1261 1287.52 99.1632 1287.52 Q104.534 1287.52 107.728 1290.21 Q110.922 1292.89 110.922 1297.38 Q110.922 1299.51 110.112 1301.44 Q109.325 1303.33 107.219 1305.93 Q106.64 1306.6 103.538 1309.82 Q100.436 1313.01 94.7882 1318.77 Z" fill="#000000" fill-rule="nonzero" fill-opacity="1" /><path clip-path="url(#clip900)" d="M130.922 1291.23 Q127.311 1291.23 125.482 1294.79 Q123.677 1298.33 123.677 1305.46 Q123.677 1312.57 125.482 1316.13 Q127.311 1319.68 130.922 1319.68 Q134.556 1319.68 136.362 1316.13 Q138.191 1312.57 138.191 1305.46 Q138.191 1298.33 136.362 1294.79 Q134.556 1291.23 130.922 1291.23 M130.922 1287.52 Q136.732 1287.52 139.788 1292.13 Q142.867 1296.71 142.867 1305.46 Q142.867 1314.19 139.788 1318.8 Q136.732 1323.38 130.922 1323.38 Q125.112 1323.38 122.033 1318.8 Q118.978 1314.19 118.978 1305.46 Q118.978 1296.71 122.033 1292.13 Q125.112 1287.52 130.922 1287.52 Z" fill="#000000" fill-rule="nonzero" fill-opacity="1" /><path clip-path="url(#clip900)" d="M51.9875 1070.16 L81.6633 1070.16 L81.6633 1074.1 L51.9875 1074.1 L51.9875 1070.16 Z" fill="#000000" fill-rule="nonzero" fill-opacity="1" /><path clip-path="url(#clip900)" d="M92.566 1083.05 L100.205 1083.05 L100.205 1056.69 L91.8947 1058.36 L91.8947 1054.1 L100.159 1052.43 L104.834 1052.43 L104.834 1083.05 L112.473 1083.05 L112.473 1086.99 L92.566 1086.99 L92.566 1083.05 Z" fill="#000000" fill-rule="nonzero" fill-opacity="1" /><path clip-path="url(#clip900)" d="M121.964 1052.43 L140.32 1052.43 L140.32 1056.36 L126.246 1056.36 L126.246 1064.84 Q127.265 1064.49 128.283 1064.33 Q129.302 1064.14 130.32 1064.14 Q136.107 1064.14 139.487 1067.31 Q142.867 1070.48 142.867 1075.9 Q142.867 1081.48 139.394 1084.58 Q135.922 1087.66 129.603 1087.66 Q127.427 1087.66 125.158 1087.29 Q122.913 1086.92 120.506 1086.18 L120.506 1081.48 Q122.589 1082.61 124.811 1083.17 Q127.033 1083.73 129.51 1083.73 Q133.515 1083.73 135.853 1081.62 Q138.191 1079.51 138.191 1075.9 Q138.191 1072.29 135.853 1070.18 Q133.515 1068.08 129.51 1068.08 Q127.635 1068.08 125.76 1068.49 Q123.908 1068.91 121.964 1069.79 L121.964 1052.43 Z" fill="#000000" fill-rule="nonzero" fill-opacity="1" /><path clip-path="url(#clip900)" d="M50.9921 834.441 L80.6679 834.441 L80.6679 838.377 L50.9921 838.377 L50.9921 834.441 Z" fill="#000000" fill-rule="nonzero" fill-opacity="1" /><path clip-path="url(#clip900)" d="M91.5706 847.335 L99.2095 847.335 L99.2095 820.969 L90.8993 822.636 L90.8993 818.377 L99.1632 816.71 L103.839 816.71 L103.839 847.335 L111.478 847.335 L111.478 851.27 L91.5706 851.27 L91.5706 847.335 Z" fill="#000000" fill-rule="nonzero" fill-opacity="1" /><path clip-path="url(#clip900)" d="M130.922 819.789 Q127.311 819.789 125.482 823.353 Q123.677 826.895 123.677 834.025 Q123.677 841.131 125.482 844.696 Q127.311 848.238 130.922 848.238 Q134.556 848.238 136.362 844.696 Q138.191 841.131 138.191 834.025 Q138.191 826.895 136.362 823.353 Q134.556 819.789 130.922 819.789 M130.922 816.085 Q136.732 816.085 139.788 820.691 Q142.867 825.275 142.867 834.025 Q142.867 842.752 139.788 847.358 Q136.732 851.941 130.922 851.941 Q125.112 851.941 122.033 847.358 Q118.978 842.752 118.978 834.025 Q118.978 825.275 122.033 820.691 Q125.112 816.085 130.922 816.085 Z" fill="#000000" fill-rule="nonzero" fill-opacity="1" /><path clip-path="url(#clip900)" d="M82.1494 598.722 L111.825 598.722 L111.825 602.657 L82.1494 602.657 L82.1494 598.722 Z" fill="#000000" fill-rule="nonzero" fill-opacity="1" /><path clip-path="url(#clip900)" d="M121.964 580.991 L140.32 580.991 L140.32 584.926 L126.246 584.926 L126.246 593.398 Q127.265 593.051 128.283 592.889 Q129.302 592.704 130.32 592.704 Q136.107 592.704 139.487 595.875 Q142.867 599.046 142.867 604.463 Q142.867 610.041 139.394 613.143 Q135.922 616.222 129.603 616.222 Q127.427 616.222 125.158 615.852 Q122.913 615.481 120.506 614.741 L120.506 610.041 Q122.589 611.176 124.811 611.731 Q127.033 612.287 129.51 612.287 Q133.515 612.287 135.853 610.18 Q138.191 608.074 138.191 604.463 Q138.191 600.852 135.853 598.745 Q133.515 596.639 129.51 596.639 Q127.635 596.639 125.76 597.055 Q123.908 597.472 121.964 598.352 L121.964 580.991 Z" fill="#000000" fill-rule="nonzero" fill-opacity="1" /><path clip-path="url(#clip900)" d="M130.922 348.35 Q127.311 348.35 125.482 351.915 Q123.677 355.457 123.677 362.586 Q123.677 369.693 125.482 373.257 Q127.311 376.799 130.922 376.799 Q134.556 376.799 136.362 373.257 Q138.191 369.693 138.191 362.586 Q138.191 355.457 136.362 351.915 Q134.556 348.35 130.922 348.35 M130.922 344.646 Q136.732 344.646 139.788 349.253 Q142.867 353.836 142.867 362.586 Q142.867 371.313 139.788 375.919 Q136.732 380.503 130.922 380.503 Q125.112 380.503 122.033 375.919 Q118.978 371.313 118.978 362.586 Q118.978 353.836 122.033 349.253 Q125.112 344.646 130.922 344.646 Z" fill="#000000" fill-rule="nonzero" fill-opacity="1" /><path clip-path="url(#clip900)" d="M121.964 109.552 L140.32 109.552 L140.32 113.487 L126.246 113.487 L126.246 121.959 Q127.265 121.612 128.283 121.45 Q129.302 121.265 130.32 121.265 Q136.107 121.265 139.487 124.436 Q142.867 127.608 142.867 133.024 Q142.867 138.603 139.394 141.705 Q135.922 144.783 129.603 144.783 Q127.427 144.783 125.158 144.413 Q122.913 144.043 120.506 143.302 L120.506 138.603 Q122.589 139.737 124.811 140.293 Q127.033 140.848 129.51 140.848 Q133.515 140.848 135.853 138.742 Q138.191 136.635 138.191 133.024 Q138.191 129.413 135.853 127.307 Q133.515 125.2 129.51 125.2 Q127.635 125.2 125.76 125.617 Q123.908 126.033 121.964 126.913 L121.964 109.552 Z" fill="#000000" fill-rule="nonzero" fill-opacity="1" /><polyline clip-path="url(#clip902)" style="stroke:#009af9; stroke-linecap:round; stroke-linejoin:round; stroke-width:4; stroke-opacity:1; fill:none" points="240.392,371.023 252.672,418.185 264.953,443.108 277.233,501.76 289.514,611.731 301.794,573.924 314.075,594.898 326.355,531.977 338.636,533.158 350.916,472.415 363.197,504.838 375.477,558.922 387.757,556.29 400.038,499.817 412.318,477.063 424.599,500.929 436.879,477.733 449.16,481.385 461.44,386.54 473.721,312.898 486.001,270.61 498.282,282.442 510.562,279.394 522.843,211.426 535.123,126.206 547.404,87.9763 559.684,132.353 571.965,159.053 584.245,103.906 596.526,219.496 608.806,302.754 621.086,281.31 633.367,265.366 645.647,256.172 657.928,206.985 670.208,194.614 682.489,214.14 694.769,231.948 707.05,316.954 719.33,363.122 731.611,348.291 743.891,294.106 756.172,295.281 768.452,334.271 780.733,412.765 793.013,358.622 805.294,335.718 817.574,412.213 829.854,352.581 842.135,370.584 854.415,371.442 866.696,407.385 878.976,356.475 891.257,300.795 903.537,296.845 915.818,256.155 928.098,255.183 940.379,233.421 952.659,243.887 964.94,249.133 977.22,206.213 989.501,182.533 1001.78,163.204 1014.06,206.096 1026.34,251.907 1038.62,376.673 1050.9,471.59 1063.18,462.895 1075.46,402.469 1087.74,419.942 1100.02,426.265 1112.31,562.952 1124.59,610.788 1136.87,650.01 1149.15,749.503 1161.43,759.782 1173.71,721.394 1185.99,663.882 1198.27,613.851 1210.55,648.516 1222.83,669.298 1235.11,661.49 1247.39,699.727 1259.67,753.634 1271.95,722.168 1284.23,680.926 1296.51,673.291 1308.79,663.739 1321.07,687.523 1333.35,690.823 1345.63,749.09 1357.91,634.666 1370.2,623.805 1382.48,585.255 1394.76,627.654 1407.04,641.019 1419.32,648.833 1431.6,650.462 1443.88,640.971 1456.16,683.698 1468.44,748.576 1480.72,752.261 1493,736.507 1505.28,757.706 1517.56,734.463 1529.84,722.697 1542.12,763.177 1554.4,744.487 1566.68,772.244 1578.96,739.172 1591.24,776.316 1603.52,783.102 1615.8,779.327 1628.09,704.628 1640.37,762.297 1652.65,792.24 1664.93,752.175 1677.21,783.62 1689.49,834.825 1701.77,844.461 1714.05,871.113 1726.33,923.81 1738.61,987.464 1750.89,958.565 1763.17,1027.59 1775.45,1094.7 1787.73,1139.77 1800.01,1181.49 1812.29,1202.95 1824.57,1214.74 1836.85,1245.71 1849.13,1243.29 1861.41,1210.16 1873.69,1195.75 1885.98,1245.5 1898.26,1247.77 1910.54,1152.99 1922.82,1187.28 1935.1,1215.99 1947.38,1214.12 1959.66,1279.18 1971.94,1262.71 1984.22,1305.75 1996.5,1370.49 2008.78,1337.6 2021.06,1357.56 2033.34,1367.89 2045.62,1371.12 2057.9,1445.72 2070.18,1335.26 2082.46,1333.41 2094.74,1291.88 2107.02,1275.85 2119.3,1247.29 2131.58,1325.2 2143.87,1358.9 2156.15,1369.61 2168.43,1354.44 2180.71,1354.95 2192.99,1357.71 2205.27,1357.05 2217.55,1414.6 2229.83,1365.6 2242.11,1382.65 2254.39,1385.16 2266.67,1366.74 2278.95,1349.52 2291.23,1346.9 "/>
<polyline clip-path="url(#clip902)" style="stroke:#e26f46; stroke-linecap:round; stroke-linejoin:round; stroke-width:4; stroke-opacity:1; fill:none" points="240.392,486.622 314.075,532.701 387.757,498.87 461.44,290.552 535.123,138.165 608.806,251.2 682.489,294.76 756.172,358.145 829.854,359.877 903.537,255.771 977.22,231.104 1050.9,457.686 1124.59,692.56 1198.27,674.419 1271.95,686.412 1345.63,643.582 1419.32,687.467 1493,743.173 1566.68,759.132 1640.37,794.936 1714.05,977.206 1787.73,1204.66 1861.41,1206.57 1935.1,1274.7 2008.78,1369.19 2082.46,1305.42 2156.15,1368.06 2229.83,1366.1 "/>
<path clip-path="url(#clip900)" d="M2041.01 250.738 L2280.29 250.738 L2280.29 95.2176 L2041.01 95.2176  Z" fill="#ffffff" fill-rule="evenodd" fill-opacity="1"/>
<polyline clip-path="url(#clip900)" style="stroke:#000000; stroke-linecap:round; stroke-linejoin:round; stroke-width:4; stroke-opacity:1; fill:none" points="2041.01,250.738 2280.29,250.738 2280.29,95.2176 2041.01,95.2176 2041.01,250.738 "/>
<polyline clip-path="url(#clip900)" style="stroke:#009af9; stroke-linecap:round; stroke-linejoin:round; stroke-width:4; stroke-opacity:1; fill:none" points="2065.16,147.058 2210.09,147.058 "/>
<path clip-path="url(#clip900)" d="M2247.64 151.305 Q2242.48 151.305 2240.49 152.486 Q2238.5 153.666 2238.5 156.514 Q2238.5 158.782 2239.98 160.125 Q2241.49 161.444 2244.06 161.444 Q2247.6 161.444 2249.73 158.944 Q2251.88 156.421 2251.88 152.254 L2251.88 151.305 L2247.64 151.305 M2256.14 149.546 L2256.14 164.338 L2251.88 164.338 L2251.88 160.402 Q2250.42 162.763 2248.25 163.898 Q2246.07 165.009 2242.92 165.009 Q2238.94 165.009 2236.58 162.787 Q2234.24 160.541 2234.24 156.791 Q2234.24 152.416 2237.16 150.194 Q2240.1 147.972 2245.91 147.972 L2251.88 147.972 L2251.88 147.555 Q2251.88 144.615 2249.93 143.018 Q2248.01 141.398 2244.52 141.398 Q2242.3 141.398 2240.19 141.93 Q2238.08 142.463 2236.14 143.527 L2236.14 139.592 Q2238.48 138.69 2240.68 138.25 Q2242.87 137.787 2244.96 137.787 Q2250.58 137.787 2253.36 140.703 Q2256.14 143.62 2256.14 149.546 Z" fill="#000000" fill-rule="nonzero" fill-opacity="1" /><polyline clip-path="url(#clip900)" style="stroke:#e26f46; stroke-linecap:round; stroke-linejoin:round; stroke-width:4; stroke-opacity:1; fill:none" points="2065.16,198.898 2210.09,198.898 "/>
<path clip-path="url(#clip900)" d="M2247.64 203.145 Q2242.48 203.145 2240.49 204.326 Q2238.5 205.506 2238.5 208.354 Q2238.5 210.622 2239.98 211.965 Q2241.49 213.284 2244.06 213.284 Q2247.6 213.284 2249.73 210.784 Q2251.88 208.261 2251.88 204.094 L2251.88 203.145 L2247.64 203.145 M2256.14 201.386 L2256.14 216.178 L2251.88 216.178 L2251.88 212.242 Q2250.42 214.603 2248.25 215.738 Q2246.07 216.849 2242.92 216.849 Q2238.94 216.849 2236.58 214.627 Q2234.24 212.381 2234.24 208.631 Q2234.24 204.256 2237.16 202.034 Q2240.1 199.812 2245.91 199.812 L2251.88 199.812 L2251.88 199.395 Q2251.88 196.455 2249.93 194.858 Q2248.01 193.238 2244.52 193.238 Q2242.3 193.238 2240.19 193.77 Q2238.08 194.303 2236.14 195.367 L2236.14 191.432 Q2238.48 190.53 2240.68 190.09 Q2242.87 189.627 2244.96 189.627 Q2250.58 189.627 2253.36 192.543 Q2256.14 195.46 2256.14 201.386 Z" fill="#000000" fill-rule="nonzero" fill-opacity="1" /></svg>
