<?xml version="1.0" encoding="utf-8"?>
<svg xmlns="http://www.w3.org/2000/svg" xmlns:xlink="http://www.w3.org/1999/xlink" width="600" height="400" viewBox="0 0 2400 1600">
<defs>
  <clipPath id="clip840">
    <rect x="0" y="0" width="2400" height="1600"/>
  </clipPath>
</defs>
<path clip-path="url(#clip840)" d="M0 1600 L2400 1600 L2400 0 L0 0  Z" fill="#ffffff" fill-rule="evenodd" fill-opacity="1"/>
<defs>
  <clipPath id="clip841">
    <rect x="480" y="0" width="1681" height="1600"/>
  </clipPath>
</defs>
<path clip-path="url(#clip840)" d="M170.857 1348.2 L2352.76 1348.2 L2352.76 47.2441 L170.857 47.2441  Z" fill="#ffffff" fill-rule="evenodd" fill-opacity="1"/>
<defs>
  <clipPath id="clip842">
    <rect x="170" y="47" width="2183" height="1302"/>
  </clipPath>
</defs>
<polyline clip-path="url(#clip842)" style="stroke:#000000; stroke-linecap:round; stroke-linejoin:round; stroke-width:2; stroke-opacity:0.1; fill:none" points="276.929,1348.2 276.929,47.2441 "/>
<polyline clip-path="url(#clip842)" style="stroke:#000000; stroke-linecap:round; stroke-linejoin:round; stroke-width:2; stroke-opacity:0.1; fill:none" points="375.417,1348.2 375.417,47.2441 "/>
<polyline clip-path="url(#clip842)" style="stroke:#000000; stroke-linecap:round; stroke-linejoin:round; stroke-width:2; stroke-opacity:0.1; fill:none" points="473.904,1348.2 473.904,47.2441 "/>
<polyline clip-path="url(#clip842)" style="stroke:#000000; stroke-linecap:round; stroke-linejoin:round; stroke-width:2; stroke-opacity:0.1; fill:none" points="572.392,1348.2 572.392,47.2441 "/>
<polyline clip-path="url(#clip842)" style="stroke:#000000; stroke-linecap:round; stroke-linejoin:round; stroke-width:2; stroke-opacity:0.1; fill:none" points="670.88,1348.2 670.88,47.2441 "/>
<polyline clip-path="url(#clip842)" style="stroke:#000000; stroke-linecap:round; stroke-linejoin:round; stroke-width:2; stroke-opacity:0.1; fill:none" points="769.368,1348.2 769.368,47.2441 "/>
<polyline clip-path="url(#clip842)" style="stroke:#000000; stroke-linecap:round; stroke-linejoin:round; stroke-width:2; stroke-opacity:0.1; fill:none" points="867.856,1348.2 867.856,47.2441 "/>
<polyline clip-path="url(#clip842)" style="stroke:#000000; stroke-linecap:round; stroke-linejoin:round; stroke-width:2; stroke-opacity:0.1; fill:none" points="966.343,1348.2 966.343,47.2441 "/>
<polyline clip-path="url(#clip842)" style="stroke:#000000; stroke-linecap:round; stroke-linejoin:round; stroke-width:2; stroke-opacity:0.1; fill:none" points="1064.83,1348.2 1064.83,47.2441 "/>
<polyline clip-path="url(#clip842)" style="stroke:#000000; stroke-linecap:round; stroke-linejoin:round; stroke-width:2; stroke-opacity:0.1; fill:none" points="1163.32,1348.2 1163.32,47.2441 "/>
<polyline clip-path="url(#clip842)" style="stroke:#000000; stroke-linecap:round; stroke-linejoin:round; stroke-width:2; stroke-opacity:0.1; fill:none" points="1261.81,1348.2 1261.81,47.2441 "/>
<polyline clip-path="url(#clip842)" style="stroke:#000000; stroke-linecap:round; stroke-linejoin:round; stroke-width:2; stroke-opacity:0.1; fill:none" points="1360.29,1348.2 1360.29,47.2441 "/>
<polyline clip-path="url(#clip842)" style="stroke:#000000; stroke-linecap:round; stroke-linejoin:round; stroke-width:2; stroke-opacity:0.1; fill:none" points="1458.78,1348.2 1458.78,47.2441 "/>
<polyline clip-path="url(#clip842)" style="stroke:#000000; stroke-linecap:round; stroke-linejoin:round; stroke-width:2; stroke-opacity:0.1; fill:none" points="1557.27,1348.2 1557.27,47.2441 "/>
<polyline clip-path="url(#clip842)" style="stroke:#000000; stroke-linecap:round; stroke-linejoin:round; stroke-width:2; stroke-opacity:0.1; fill:none" points="1655.76,1348.2 1655.76,47.2441 "/>
<polyline clip-path="url(#clip842)" style="stroke:#000000; stroke-linecap:round; stroke-linejoin:round; stroke-width:2; stroke-opacity:0.1; fill:none" points="1754.25,1348.2 1754.25,47.2441 "/>
<polyline clip-path="url(#clip842)" style="stroke:#000000; stroke-linecap:round; stroke-linejoin:round; stroke-width:2; stroke-opacity:0.1; fill:none" points="1852.73,1348.2 1852.73,47.2441 "/>
<polyline clip-path="url(#clip842)" style="stroke:#000000; stroke-linecap:round; stroke-linejoin:round; stroke-width:2; stroke-opacity:0.1; fill:none" points="1951.22,1348.2 1951.22,47.2441 "/>
<polyline clip-path="url(#clip842)" style="stroke:#000000; stroke-linecap:round; stroke-linejoin:round; stroke-width:2; stroke-opacity:0.1; fill:none" points="2049.71,1348.2 2049.71,47.2441 "/>
<polyline clip-path="url(#clip842)" style="stroke:#000000; stroke-linecap:round; stroke-linejoin:round; stroke-width:2; stroke-opacity:0.1; fill:none" points="2148.2,1348.2 2148.2,47.2441 "/>
<polyline clip-path="url(#clip842)" style="stroke:#000000; stroke-linecap:round; stroke-linejoin:round; stroke-width:2; stroke-opacity:0.1; fill:none" points="2246.68,1348.2 2246.68,47.2441 "/>
<polyline clip-path="url(#clip842)" style="stroke:#000000; stroke-linecap:round; stroke-linejoin:round; stroke-width:2; stroke-opacity:0.1; fill:none" points="170.857,1174.22 2352.76,1174.22 "/>
<polyline clip-path="url(#clip842)" style="stroke:#000000; stroke-linecap:round; stroke-linejoin:round; stroke-width:2; stroke-opacity:0.1; fill:none" points="170.857,916.861 2352.76,916.861 "/>
<polyline clip-path="url(#clip842)" style="stroke:#000000; stroke-linecap:round; stroke-linejoin:round; stroke-width:2; stroke-opacity:0.1; fill:none" points="170.857,659.507 2352.76,659.507 "/>
<polyline clip-path="url(#clip842)" style="stroke:#000000; stroke-linecap:round; stroke-linejoin:round; stroke-width:2; stroke-opacity:0.1; fill:none" points="170.857,402.153 2352.76,402.153 "/>
<polyline clip-path="url(#clip842)" style="stroke:#000000; stroke-linecap:round; stroke-linejoin:round; stroke-width:2; stroke-opacity:0.1; fill:none" points="170.857,144.799 2352.76,144.799 "/>
<polyline clip-path="url(#clip840)" style="stroke:#000000; stroke-linecap:round; stroke-linejoin:round; stroke-width:4; stroke-opacity:1; fill:none" points="170.857,1348.2 2352.76,1348.2 "/>
<polyline clip-path="url(#clip840)" style="stroke:#000000; stroke-linecap:round; stroke-linejoin:round; stroke-width:4; stroke-opacity:1; fill:none" points="276.929,1348.2 276.929,1329.31 "/>
<polyline clip-path="url(#clip840)" style="stroke:#000000; stroke-linecap:round; stroke-linejoin:round; stroke-width:4; stroke-opacity:1; fill:none" points="375.417,1348.2 375.417,1329.31 "/>
<polyline clip-path="url(#clip840)" style="stroke:#000000; stroke-linecap:round; stroke-linejoin:round; stroke-width:4; stroke-opacity:1; fill:none" points="473.904,1348.2 473.904,1329.31 "/>
<polyline clip-path="url(#clip840)" style="stroke:#000000; stroke-linecap:round; stroke-linejoin:round; stroke-width:4; stroke-opacity:1; fill:none" points="572.392,1348.2 572.392,1329.31 "/>
<polyline clip-path="url(#clip840)" style="stroke:#000000; stroke-linecap:round; stroke-linejoin:round; stroke-width:4; stroke-opacity:1; fill:none" points="670.88,1348.2 670.88,1329.31 "/>
<polyline clip-path="url(#clip840)" style="stroke:#000000; stroke-linecap:round; stroke-linejoin:round; stroke-width:4; stroke-opacity:1; fill:none" points="769.368,1348.2 769.368,1329.31 "/>
<polyline clip-path="url(#clip840)" style="stroke:#000000; stroke-linecap:round; stroke-linejoin:round; stroke-width:4; stroke-opacity:1; fill:none" points="867.856,1348.2 867.856,1329.31 "/>
<polyline clip-path="url(#clip840)" style="stroke:#000000; stroke-linecap:round; stroke-linejoin:round; stroke-width:4; stroke-opacity:1; fill:none" points="966.343,1348.2 966.343,1329.31 "/>
<polyline clip-path="url(#clip840)" style="stroke:#000000; stroke-linecap:round; stroke-linejoin:round; stroke-width:4; stroke-opacity:1; fill:none" points="1064.83,1348.2 1064.83,1329.31 "/>
<polyline clip-path="url(#clip840)" style="stroke:#000000; stroke-linecap:round; stroke-linejoin:round; stroke-width:4; stroke-opacity:1; fill:none" points="1163.32,1348.2 1163.32,1329.31 "/>
<polyline clip-path="url(#clip840)" style="stroke:#000000; stroke-linecap:round; stroke-linejoin:round; stroke-width:4; stroke-opacity:1; fill:none" points="1261.81,1348.2 1261.81,1329.31 "/>
<polyline clip-path="url(#clip840)" style="stroke:#000000; stroke-linecap:round; stroke-linejoin:round; stroke-width:4; stroke-opacity:1; fill:none" points="1360.29,1348.2 1360.29,1329.31 "/>
<polyline clip-path="url(#clip840)" style="stroke:#000000; stroke-linecap:round; stroke-linejoin:round; stroke-width:4; stroke-opacity:1; fill:none" points="1458.78,1348.2 1458.78,1329.31 "/>
<polyline clip-path="url(#clip840)" style="stroke:#000000; stroke-linecap:round; stroke-linejoin:round; stroke-width:4; stroke-opacity:1; fill:none" points="1557.27,1348.2 1557.27,1329.31 "/>
<polyline clip-path="url(#clip840)" style="stroke:#000000; stroke-linecap:round; stroke-linejoin:round; stroke-width:4; stroke-opacity:1; fill:none" points="1655.76,1348.2 1655.76,1329.31 "/>
<polyline clip-path="url(#clip840)" style="stroke:#000000; stroke-linecap:round; stroke-linejoin:round; stroke-width:4; stroke-opacity:1; fill:none" points="1754.25,1348.2 1754.25,1329.31 "/>
<polyline clip-path="url(#clip840)" style="stroke:#000000; stroke-linecap:round; stroke-linejoin:round; stroke-width:4; stroke-opacity:1; fill:none" points="1852.73,1348.2 1852.73,1329.31 "/>
<polyline clip-path="url(#clip840)" style="stroke:#000000; stroke-linecap:round; stroke-linejoin:round; stroke-width:4; stroke-opacity:1; fill:none" points="1951.22,1348.2 1951.22,1329.31 "/>
<polyline clip-path="url(#clip840)" style="stroke:#000000; stroke-linecap:round; stroke-linejoin:round; stroke-width:4; stroke-opacity:1; fill:none" points="2049.71,1348.2 2049.71,1329.31 "/>
<polyline clip-path="url(#clip840)" style="stroke:#000000; stroke-linecap:round; stroke-linejoin:round; stroke-width:4; stroke-opacity:1; fill:none" points="2148.2,1348.2 2148.2,1329.31 "/>
<polyline clip-path="url(#clip840)" style="stroke:#000000; stroke-linecap:round; stroke-linejoin:round; stroke-width:4; stroke-opacity:1; fill:none" points="2246.68,1348.2 2246.68,1329.31 "/>
<path clip-path="url(#clip840)" d="M157.306 1614.25 L165.466 1600.11 L168.874 1602.08 L157.901 1621.09 L154.493 1619.12 Q153.439 1615.44 151.721 1609.15 Q149.995 1602.84 149.423 1601.14 Q148.36 1597.94 147.296 1596.31 Q146.224 1594.65 144.761 1593.8 Q142.375 1592.42 139.9 1593.24 Q137.435 1594.03 135.884 1596.72 Q134.785 1598.63 134.22 1601.13 Q133.666 1603.62 133.62 1606.8 L129.531 1604.44 Q129.96 1601.43 130.686 1599.01 Q131.412 1596.6 132.43 1594.83 Q135.115 1590.18 139.038 1588.76 Q142.961 1587.34 146.85 1589.58 Q148.694 1590.65 149.953 1592.31 Q151.203 1593.94 152.395 1597.06 Q152.687 1597.9 153.923 1602.19 Q155.138 1606.47 157.306 1614.25 Z" fill="#000000" fill-rule="nonzero" fill-opacity="1" /><path clip-path="url(#clip840)" d="M151.517 1569.18 Q149.712 1572.31 151.885 1575.67 Q154.049 1579.01 160.223 1582.57 Q166.378 1586.13 170.368 1586.35 Q174.349 1586.53 176.155 1583.41 Q177.972 1580.26 175.807 1576.92 Q173.635 1573.56 167.48 1570 Q161.306 1566.44 157.324 1566.25 Q153.334 1566.03 151.517 1569.18 M148.31 1567.33 Q151.215 1562.3 156.732 1561.95 Q162.241 1561.58 169.818 1565.96 Q177.376 1570.32 179.826 1575.29 Q182.267 1580.23 179.362 1585.26 Q176.457 1590.29 170.949 1590.66 Q165.431 1591.01 157.874 1586.64 Q150.296 1582.27 147.855 1577.33 Q145.405 1572.36 148.31 1567.33 Z" fill="#000000" fill-rule="nonzero" fill-opacity="1" /><path clip-path="url(#clip840)" d="M187.468 1562.01 L195.627 1547.87 L199.035 1549.84 L188.063 1568.84 L184.655 1566.88 Q183.601 1563.19 181.883 1556.91 Q180.157 1550.59 179.584 1548.9 Q178.522 1545.69 177.458 1544.06 Q176.386 1542.4 174.923 1541.56 Q172.537 1540.18 170.061 1541 Q167.597 1541.79 166.046 1544.48 Q164.947 1546.38 164.382 1548.89 Q163.828 1551.38 163.782 1554.56 L159.692 1552.2 Q160.122 1549.18 160.848 1546.77 Q161.574 1544.36 162.592 1542.59 Q165.277 1537.94 169.2 1536.52 Q173.123 1535.09 177.012 1537.34 Q178.856 1538.4 180.115 1540.07 Q181.365 1541.7 182.557 1544.82 Q182.849 1545.65 184.085 1549.95 Q185.3 1554.23 187.468 1562.01 Z" fill="#000000" fill-rule="nonzero" fill-opacity="1" /><path clip-path="url(#clip840)" d="M174.036 1524.02 L183.214 1508.12 L186.622 1510.09 L179.585 1522.28 L186.922 1526.52 Q187.131 1525.46 187.5 1524.5 Q187.849 1523.52 188.358 1522.64 Q191.251 1517.63 195.688 1516.29 Q200.124 1514.95 204.815 1517.65 Q209.646 1520.44 210.596 1525 Q211.526 1529.55 208.367 1535.02 Q207.279 1536.9 205.824 1538.68 Q204.38 1540.44 202.535 1542.16 L198.466 1539.81 Q200.49 1538.57 202.082 1536.92 Q203.674 1535.28 204.912 1533.13 Q206.915 1529.67 206.259 1526.59 Q205.604 1523.51 202.477 1521.7 Q199.35 1519.9 196.356 1520.87 Q193.363 1521.84 191.361 1525.31 Q190.423 1526.93 189.847 1528.77 Q189.282 1530.58 189.071 1532.7 L174.036 1524.02 Z" fill="#000000" fill-rule="nonzero" fill-opacity="1" /><path clip-path="url(#clip840)" d="M204.756 1510.16 L210.995 1499.36 L214.282 1501.26 L208.044 1512.06 L204.756 1510.16 Z" fill="#000000" fill-rule="nonzero" fill-opacity="1" /><path clip-path="url(#clip840)" d="M224.574 1497.74 L228.393 1491.12 L205.56 1477.94 L202.848 1485.97 L199.16 1483.84 L201.848 1475.85 L204.186 1471.8 L230.708 1487.11 L234.528 1480.5 L237.936 1482.46 L227.982 1499.7 L224.574 1497.74 Z" fill="#000000" fill-rule="nonzero" fill-opacity="1" /><path clip-path="url(#clip840)" d="M220.394 1449.88 Q218.589 1453.01 220.762 1456.38 Q222.926 1459.71 229.1 1463.28 Q235.255 1466.83 239.245 1467.05 Q243.226 1467.23 245.032 1464.11 Q246.849 1460.96 244.684 1457.63 Q242.512 1454.26 236.357 1450.71 Q230.183 1447.14 226.201 1446.95 Q222.211 1446.74 220.394 1449.88 M217.187 1448.03 Q220.092 1443 225.609 1442.66 Q231.117 1442.28 238.695 1446.66 Q246.253 1451.02 248.703 1455.99 Q251.144 1460.93 248.239 1465.96 Q245.334 1470.99 239.825 1471.37 Q234.308 1471.71 226.751 1467.35 Q219.173 1462.97 216.732 1458.03 Q214.282 1453.06 217.187 1448.03 Z" fill="#000000" fill-rule="nonzero" fill-opacity="1" /><path clip-path="url(#clip840)" d="M243.471 1443.11 L249.71 1432.3 L252.997 1434.2 L246.759 1445 L243.471 1443.11 Z" fill="#000000" fill-rule="nonzero" fill-opacity="1" /><path clip-path="url(#clip840)" d="M263.289 1430.68 L267.109 1424.06 L244.275 1410.88 L241.564 1418.91 L237.875 1416.78 L240.563 1408.79 L242.901 1404.74 L269.423 1420.05 L273.243 1413.44 L276.651 1415.41 L266.697 1432.65 L263.289 1430.68 Z" fill="#000000" fill-rule="nonzero" fill-opacity="1" /><path clip-path="url(#clip840)" d="M250.853 1390.97 L261.964 1371.72 L263.688 1372.72 L285.621 1399.87 L283.178 1404.1 L262.559 1378.56 L254.261 1392.94 L250.853 1390.97 Z" fill="#000000" fill-rule="nonzero" fill-opacity="1" /><path clip-path="url(#clip840)" d="M453.116 1613.65 L461.276 1599.51 L464.684 1601.48 L453.712 1620.49 L450.304 1618.52 Q449.249 1614.83 447.532 1608.55 Q445.806 1602.24 445.233 1600.54 Q444.171 1597.34 443.107 1595.71 Q442.035 1594.04 440.571 1593.2 Q438.186 1591.82 435.71 1592.64 Q433.246 1593.43 431.695 1596.12 Q430.596 1598.02 430.03 1600.53 Q429.476 1603.02 429.431 1606.2 L425.341 1603.84 Q425.771 1600.83 426.497 1598.41 Q427.222 1596 428.241 1594.23 Q430.926 1589.58 434.849 1588.16 Q438.771 1586.73 442.66 1588.98 Q444.505 1590.04 445.763 1591.71 Q447.014 1593.34 448.206 1596.46 Q448.498 1597.29 449.733 1601.59 Q450.949 1605.87 453.116 1613.65 Z" fill="#000000" fill-rule="nonzero" fill-opacity="1" /><path clip-path="url(#clip840)" d="M447.328 1568.58 Q445.522 1571.71 447.695 1575.07 Q449.86 1578.41 456.034 1581.97 Q462.188 1585.53 466.178 1585.74 Q470.16 1585.93 471.965 1582.8 Q473.782 1579.66 471.618 1576.32 Q469.445 1572.96 463.291 1569.4 Q457.116 1565.84 453.135 1565.65 Q449.145 1565.43 447.328 1568.58 M444.12 1566.73 Q447.025 1561.7 452.543 1561.35 Q458.051 1560.98 465.629 1565.35 Q473.186 1569.72 475.636 1574.69 Q478.078 1579.62 475.173 1584.66 Q472.268 1589.69 466.759 1590.06 Q461.242 1590.41 453.684 1586.04 Q446.107 1581.67 443.665 1576.73 Q441.215 1571.76 444.12 1566.73 Z" fill="#000000" fill-rule="nonzero" fill-opacity="1" /><path clip-path="url(#clip840)" d="M483.278 1561.4 L491.438 1547.27 L494.846 1549.24 L483.874 1568.24 L480.466 1566.28 Q479.411 1562.59 477.694 1556.31 Q475.967 1549.99 475.395 1548.3 Q474.333 1545.09 473.269 1543.46 Q472.197 1541.8 470.733 1540.96 Q468.348 1539.58 465.872 1540.4 Q463.408 1541.19 461.857 1543.88 Q460.757 1545.78 460.192 1548.29 Q459.638 1550.78 459.593 1553.96 L455.503 1551.6 Q455.933 1548.58 456.658 1546.17 Q457.384 1543.75 458.403 1541.99 Q461.088 1537.34 465.01 1535.92 Q468.933 1534.49 472.822 1536.74 Q474.667 1537.8 475.925 1539.46 Q477.176 1541.1 478.368 1544.22 Q478.66 1545.05 479.895 1549.35 Q481.111 1553.63 483.278 1561.4 Z" fill="#000000" fill-rule="nonzero" fill-opacity="1" /><path clip-path="url(#clip840)" d="M469.847 1523.42 L479.025 1507.52 L482.433 1509.49 L475.396 1521.68 L482.733 1525.91 Q482.941 1524.86 483.31 1523.9 Q483.659 1522.92 484.169 1522.04 Q487.062 1517.03 491.498 1515.69 Q495.934 1514.34 500.625 1517.05 Q505.457 1519.84 506.407 1524.4 Q507.337 1528.95 504.177 1534.42 Q503.089 1536.3 501.634 1538.08 Q500.191 1539.84 498.346 1541.56 L494.276 1539.21 Q496.3 1537.97 497.892 1536.32 Q499.485 1534.68 500.723 1532.53 Q502.725 1529.06 502.07 1525.99 Q501.415 1522.91 498.287 1521.1 Q495.16 1519.3 492.167 1520.27 Q489.174 1521.24 487.171 1524.71 Q486.234 1526.33 485.657 1528.16 Q485.092 1529.98 484.882 1532.1 L469.847 1523.42 Z" fill="#000000" fill-rule="nonzero" fill-opacity="1" /><path clip-path="url(#clip840)" d="M500.567 1509.56 L506.805 1498.76 L510.093 1500.65 L503.855 1511.46 L500.567 1509.56 Z" fill="#000000" fill-rule="nonzero" fill-opacity="1" /><path clip-path="url(#clip840)" d="M520.385 1497.13 L524.204 1490.52 L501.371 1477.34 L498.659 1485.37 L494.97 1483.24 L497.659 1475.25 L499.997 1471.2 L526.519 1486.51 L530.338 1479.89 L533.746 1481.86 L523.793 1499.1 L520.385 1497.13 Z" fill="#000000" fill-rule="nonzero" fill-opacity="1" /><path clip-path="url(#clip840)" d="M516.205 1449.28 Q514.399 1452.41 516.572 1455.78 Q518.736 1459.11 524.911 1462.67 Q531.065 1466.23 535.055 1466.45 Q539.037 1466.63 540.842 1463.51 Q542.659 1460.36 540.495 1457.02 Q538.322 1453.66 532.168 1450.11 Q525.993 1446.54 522.012 1446.35 Q518.022 1446.13 516.205 1449.28 M512.997 1447.43 Q515.902 1442.4 521.419 1442.06 Q526.928 1441.68 534.506 1446.06 Q542.063 1450.42 544.513 1455.39 Q546.955 1460.33 544.05 1465.36 Q541.145 1470.39 535.636 1470.76 Q530.119 1471.11 522.561 1466.74 Q514.984 1462.37 512.542 1457.43 Q510.092 1452.46 512.997 1447.43 Z" fill="#000000" fill-rule="nonzero" fill-opacity="1" /><path clip-path="url(#clip840)" d="M539.282 1442.51 L545.52 1431.7 L548.808 1433.6 L542.57 1444.4 L539.282 1442.51 Z" fill="#000000" fill-rule="nonzero" fill-opacity="1" /><path clip-path="url(#clip840)" d="M560.708 1427.29 L568.868 1413.16 L572.276 1415.13 L561.304 1434.13 L557.896 1432.16 Q556.841 1428.48 555.124 1422.2 Q553.398 1415.88 552.825 1414.19 Q551.763 1410.98 550.699 1409.35 Q549.627 1407.69 548.163 1406.84 Q545.778 1405.47 543.302 1406.28 Q540.838 1407.08 539.287 1409.76 Q538.188 1411.67 537.622 1414.18 Q537.069 1416.66 537.023 1419.84 L532.933 1417.48 Q533.363 1414.47 534.089 1412.06 Q534.814 1409.64 535.833 1407.88 Q538.518 1403.23 542.441 1401.8 Q546.363 1400.38 550.252 1402.62 Q552.097 1403.69 553.355 1405.35 Q554.606 1406.98 555.798 1410.1 Q556.09 1410.94 557.325 1415.23 Q558.541 1419.52 560.708 1427.29 Z" fill="#000000" fill-rule="nonzero" fill-opacity="1" /><path clip-path="url(#clip840)" d="M575.789 1401.17 L583.949 1387.04 L587.357 1389 L576.385 1408.01 L572.977 1406.04 Q571.922 1402.36 570.205 1396.07 Q568.479 1389.76 567.906 1388.07 Q566.844 1384.86 565.78 1383.23 Q564.708 1381.57 563.244 1380.72 Q560.859 1379.35 558.383 1380.16 Q555.919 1380.96 554.368 1383.64 Q553.268 1385.55 552.703 1388.06 Q552.149 1390.54 552.104 1393.72 L548.014 1391.36 Q548.444 1388.35 549.17 1385.94 Q549.895 1383.52 550.914 1381.76 Q553.599 1377.11 557.522 1375.68 Q561.444 1374.26 565.333 1376.5 Q567.178 1377.57 568.436 1379.23 Q569.687 1380.86 570.879 1383.98 Q571.171 1384.82 572.406 1389.11 Q573.622 1393.4 575.789 1401.17 Z" fill="#000000" fill-rule="nonzero" fill-opacity="1" /><path clip-path="url(#clip840)" d="M748.233 1614.25 L756.392 1600.11 L759.8 1602.08 L748.828 1621.09 L745.42 1619.12 Q744.366 1615.44 742.648 1609.15 Q740.922 1602.84 740.349 1601.14 Q739.287 1597.94 738.223 1596.31 Q737.151 1594.65 735.688 1593.8 Q733.302 1592.42 730.826 1593.24 Q728.362 1594.03 726.811 1596.72 Q725.712 1598.63 725.146 1601.13 Q724.593 1603.62 724.547 1606.8 L720.457 1604.44 Q720.887 1601.43 721.613 1599.01 Q722.338 1596.6 723.357 1594.83 Q726.042 1590.18 729.965 1588.76 Q733.887 1587.34 737.776 1589.58 Q739.621 1590.65 740.88 1592.31 Q742.13 1593.94 743.322 1597.06 Q743.614 1597.9 744.849 1602.19 Q746.065 1606.47 748.233 1614.25 Z" fill="#000000" fill-rule="nonzero" fill-opacity="1" /><path clip-path="url(#clip840)" d="M742.444 1569.18 Q740.638 1572.31 742.811 1575.67 Q744.976 1579.01 751.15 1582.57 Q757.304 1586.13 761.294 1586.35 Q765.276 1586.53 767.081 1583.41 Q768.899 1580.26 766.734 1576.92 Q764.561 1573.56 758.407 1570 Q752.233 1566.44 748.251 1566.25 Q744.261 1566.03 742.444 1569.18 M739.237 1567.33 Q742.142 1562.3 747.659 1561.95 Q753.167 1561.58 760.745 1565.96 Q768.303 1570.32 770.753 1575.29 Q773.194 1580.23 770.289 1585.26 Q767.384 1590.29 761.875 1590.66 Q756.358 1591.01 748.801 1586.64 Q741.223 1582.27 738.781 1577.33 Q736.331 1572.36 739.237 1567.33 Z" fill="#000000" fill-rule="nonzero" fill-opacity="1" /><path clip-path="url(#clip840)" d="M778.394 1562.01 L786.554 1547.87 L789.962 1549.84 L778.99 1568.84 L775.582 1566.88 Q774.527 1563.19 772.81 1556.91 Q771.084 1550.59 770.511 1548.9 Q769.449 1545.69 768.385 1544.06 Q767.313 1542.4 765.849 1541.56 Q763.464 1540.18 760.988 1541 Q758.524 1541.79 756.973 1544.48 Q755.874 1546.38 755.308 1548.89 Q754.755 1551.38 754.709 1554.56 L750.619 1552.2 Q751.049 1549.18 751.775 1546.77 Q752.5 1544.36 753.519 1542.59 Q756.204 1537.94 760.127 1536.52 Q764.049 1535.09 767.938 1537.34 Q769.783 1538.4 771.041 1540.07 Q772.292 1541.7 773.484 1544.82 Q773.776 1545.65 775.011 1549.95 Q776.227 1554.23 778.394 1562.01 Z" fill="#000000" fill-rule="nonzero" fill-opacity="1" /><path clip-path="url(#clip840)" d="M764.963 1524.02 L774.141 1508.12 L777.549 1510.09 L770.512 1522.28 L777.849 1526.52 Q778.058 1525.46 778.427 1524.5 Q778.775 1523.52 779.285 1522.64 Q782.178 1517.63 786.614 1516.29 Q791.051 1514.95 795.742 1517.65 Q800.573 1520.44 801.523 1525 Q802.453 1529.55 799.293 1535.02 Q798.205 1536.9 796.75 1538.68 Q795.307 1540.44 793.462 1542.16 L789.392 1539.81 Q791.416 1538.57 793.009 1536.92 Q794.601 1535.28 795.839 1533.13 Q797.841 1529.67 797.186 1526.59 Q796.531 1523.51 793.404 1521.7 Q790.276 1519.9 787.283 1520.87 Q784.29 1521.84 782.288 1525.31 Q781.35 1526.93 780.773 1528.77 Q780.208 1530.58 779.998 1532.7 L764.963 1524.02 Z" fill="#000000" fill-rule="nonzero" fill-opacity="1" /><path clip-path="url(#clip840)" d="M795.683 1510.16 L801.921 1499.36 L805.209 1501.26 L798.971 1512.06 L795.683 1510.16 Z" fill="#000000" fill-rule="nonzero" fill-opacity="1" /><path clip-path="url(#clip840)" d="M815.501 1497.74 L819.32 1491.12 L796.487 1477.94 L793.775 1485.97 L790.087 1483.84 L792.775 1475.85 L795.113 1471.8 L821.635 1487.11 L825.454 1480.5 L828.862 1482.46 L818.909 1499.7 L815.501 1497.74 Z" fill="#000000" fill-rule="nonzero" fill-opacity="1" /><path clip-path="url(#clip840)" d="M811.321 1449.88 Q809.515 1453.01 811.688 1456.38 Q813.853 1459.71 820.027 1463.28 Q826.181 1466.83 830.171 1467.05 Q834.153 1467.23 835.958 1464.11 Q837.776 1460.96 835.611 1457.63 Q833.438 1454.26 827.284 1450.71 Q821.11 1447.14 817.128 1446.95 Q813.138 1446.74 811.321 1449.88 M808.113 1448.03 Q811.019 1443 816.536 1442.66 Q822.044 1442.28 829.622 1446.66 Q837.18 1451.02 839.629 1455.99 Q842.071 1460.93 839.166 1465.96 Q836.261 1470.99 830.752 1471.37 Q825.235 1471.71 817.678 1467.35 Q810.1 1462.97 807.658 1458.03 Q805.208 1453.06 808.113 1448.03 Z" fill="#000000" fill-rule="nonzero" fill-opacity="1" /><path clip-path="url(#clip840)" d="M834.398 1443.11 L840.637 1432.3 L843.924 1434.2 L837.686 1445 L834.398 1443.11 Z" fill="#000000" fill-rule="nonzero" fill-opacity="1" /><path clip-path="url(#clip840)" d="M855.825 1427.89 L863.984 1413.76 L867.392 1415.73 L856.42 1434.73 L853.012 1432.76 Q851.958 1429.08 850.24 1422.8 Q848.514 1416.48 847.941 1414.79 Q846.879 1411.58 845.815 1409.95 Q844.743 1408.29 843.28 1407.45 Q840.894 1406.07 838.418 1406.88 Q835.954 1407.68 834.403 1410.37 Q833.304 1412.27 832.738 1414.78 Q832.185 1417.26 832.139 1420.45 L828.049 1418.08 Q828.479 1415.07 829.205 1412.66 Q829.93 1410.24 830.949 1408.48 Q833.634 1403.83 837.557 1402.4 Q841.479 1400.98 845.368 1403.23 Q847.213 1404.29 848.472 1405.95 Q849.722 1407.58 850.914 1410.7 Q851.206 1411.54 852.442 1415.84 Q853.657 1420.12 855.825 1427.89 Z" fill="#000000" fill-rule="nonzero" fill-opacity="1" /><path clip-path="url(#clip840)" d="M841.78 1390.97 L852.891 1371.72 L854.615 1372.72 L876.547 1399.87 L874.105 1404.1 L853.486 1378.56 L845.187 1392.94 L841.78 1390.97 Z" fill="#000000" fill-rule="nonzero" fill-opacity="1" /><path clip-path="url(#clip840)" d="M1043.24 1615.03 L1051.4 1600.9 L1054.81 1602.86 L1043.84 1621.87 L1040.43 1619.9 Q1039.38 1616.22 1037.66 1609.93 Q1035.93 1603.62 1035.36 1601.92 Q1034.3 1598.72 1033.24 1597.09 Q1032.16 1595.43 1030.7 1594.58 Q1028.31 1593.21 1025.84 1594.02 Q1023.37 1594.82 1021.82 1597.5 Q1020.72 1599.41 1020.16 1601.91 Q1019.6 1604.4 1019.56 1607.58 L1015.47 1605.22 Q1015.9 1602.21 1016.62 1599.79 Q1017.35 1597.38 1018.37 1595.62 Q1021.05 1590.96 1024.98 1589.54 Q1028.9 1588.12 1032.79 1590.36 Q1034.63 1591.43 1035.89 1593.09 Q1037.14 1594.72 1038.33 1597.84 Q1038.63 1598.68 1039.86 1602.97 Q1041.08 1607.26 1043.24 1615.03 Z" fill="#000000" fill-rule="nonzero" fill-opacity="1" /><path clip-path="url(#clip840)" d="M1037.46 1569.96 Q1035.65 1573.09 1037.82 1576.46 Q1039.99 1579.79 1046.16 1583.36 Q1052.32 1586.91 1056.31 1587.13 Q1060.29 1587.32 1062.09 1584.19 Q1063.91 1581.04 1061.75 1577.71 Q1059.57 1574.34 1053.42 1570.79 Q1047.24 1567.22 1043.26 1567.03 Q1039.27 1566.82 1037.46 1569.96 M1034.25 1568.11 Q1037.15 1563.08 1042.67 1562.74 Q1048.18 1562.36 1055.76 1566.74 Q1063.31 1571.1 1065.76 1576.07 Q1068.21 1581.01 1065.3 1586.04 Q1062.4 1591.07 1056.89 1591.45 Q1051.37 1591.79 1043.81 1587.43 Q1036.23 1583.05 1033.79 1578.11 Q1031.34 1573.14 1034.25 1568.11 Z" fill="#000000" fill-rule="nonzero" fill-opacity="1" /><path clip-path="url(#clip840)" d="M1073.41 1562.79 L1081.57 1548.65 L1084.97 1550.62 L1074 1569.63 L1070.59 1567.66 Q1069.54 1563.98 1067.82 1557.69 Q1066.1 1551.38 1065.52 1549.68 Q1064.46 1546.48 1063.4 1544.85 Q1062.32 1543.19 1060.86 1542.34 Q1058.48 1540.96 1056 1541.78 Q1053.54 1542.57 1051.99 1545.26 Q1050.89 1547.17 1050.32 1549.67 Q1049.77 1552.16 1049.72 1555.34 L1045.63 1552.98 Q1046.06 1549.97 1046.79 1547.55 Q1047.51 1545.14 1048.53 1543.37 Q1051.22 1538.72 1055.14 1537.3 Q1059.06 1535.88 1062.95 1538.12 Q1064.79 1539.19 1066.05 1540.85 Q1067.3 1542.48 1068.5 1545.6 Q1068.79 1546.44 1070.02 1550.73 Q1071.24 1555.01 1073.41 1562.79 Z" fill="#000000" fill-rule="nonzero" fill-opacity="1" /><path clip-path="url(#clip840)" d="M1059.97 1524.8 L1069.15 1508.91 L1072.56 1510.87 L1065.52 1523.06 L1072.86 1527.3 Q1073.07 1526.24 1073.44 1525.28 Q1073.79 1524.3 1074.3 1523.42 Q1077.19 1518.41 1081.63 1517.07 Q1086.06 1515.73 1090.75 1518.44 Q1095.58 1521.23 1096.54 1525.78 Q1097.47 1530.33 1094.31 1535.8 Q1093.22 1537.69 1091.76 1539.47 Q1090.32 1541.23 1088.47 1542.94 L1084.4 1540.59 Q1086.43 1539.35 1088.02 1537.71 Q1089.61 1536.06 1090.85 1533.91 Q1092.85 1530.45 1092.2 1527.37 Q1091.54 1524.29 1088.42 1522.49 Q1085.29 1520.68 1082.3 1521.65 Q1079.3 1522.62 1077.3 1526.09 Q1076.36 1527.71 1075.79 1529.55 Q1075.22 1531.36 1075.01 1533.48 L1059.97 1524.8 Z" fill="#000000" fill-rule="nonzero" fill-opacity="1" /><path clip-path="url(#clip840)" d="M1090.7 1510.94 L1096.93 1500.14 L1100.22 1502.04 L1093.98 1512.84 L1090.7 1510.94 Z" fill="#000000" fill-rule="nonzero" fill-opacity="1" /><path clip-path="url(#clip840)" d="M1110.51 1498.52 L1114.33 1491.9 L1091.5 1478.72 L1088.79 1486.75 L1085.1 1484.62 L1087.79 1476.63 L1090.13 1472.58 L1116.65 1487.89 L1120.47 1481.28 L1123.87 1483.24 L1113.92 1500.49 L1110.51 1498.52 Z" fill="#000000" fill-rule="nonzero" fill-opacity="1" /><path clip-path="url(#clip840)" d="M1106.33 1450.66 Q1104.53 1453.79 1106.7 1457.16 Q1108.86 1460.49 1115.04 1464.06 Q1121.19 1467.61 1125.18 1467.83 Q1129.16 1468.02 1130.97 1464.89 Q1132.79 1461.74 1130.62 1458.41 Q1128.45 1455.04 1122.3 1451.49 Q1116.12 1447.92 1112.14 1447.74 Q1108.15 1447.52 1106.33 1450.66 M1103.13 1448.81 Q1106.03 1443.78 1111.55 1443.44 Q1117.06 1443.06 1124.63 1447.44 Q1132.19 1451.8 1134.64 1456.77 Q1137.08 1461.71 1134.18 1466.74 Q1131.27 1471.77 1125.76 1472.15 Q1120.25 1472.49 1112.69 1468.13 Q1105.11 1463.75 1102.67 1458.81 Q1100.22 1453.84 1103.13 1448.81 Z" fill="#000000" fill-rule="nonzero" fill-opacity="1" /><path clip-path="url(#clip840)" d="M1129.41 1443.89 L1135.65 1433.08 L1138.94 1434.98 L1132.7 1445.79 L1129.41 1443.89 Z" fill="#000000" fill-rule="nonzero" fill-opacity="1" /><path clip-path="url(#clip840)" d="M1143.18 1412.54 Q1145.48 1410 1148.38 1409.51 Q1151.29 1409 1154.18 1410.66 Q1158.61 1413.22 1159.28 1417.67 Q1159.94 1422.12 1156.7 1427.73 Q1155.61 1429.61 1154.07 1431.4 Q1152.57 1433.18 1150.6 1434.87 L1146.69 1432.62 Q1148.64 1431.5 1150.3 1429.78 Q1151.96 1428.07 1153.22 1425.88 Q1155.42 1422.07 1155.06 1419.22 Q1154.72 1416.35 1151.85 1414.69 Q1149.21 1413.17 1146.65 1414.17 Q1144.08 1415.15 1142.17 1418.46 L1140.15 1421.95 L1136.83 1420.02 L1138.93 1416.38 Q1140.66 1413.39 1140.39 1411.12 Q1140.1 1408.84 1137.86 1407.55 Q1135.55 1406.22 1133.38 1407.15 Q1131.2 1408.06 1129.44 1411.11 Q1128.48 1412.77 1127.74 1414.88 Q1127 1417 1126.44 1419.72 L1122.83 1417.64 Q1123.52 1414.96 1124.36 1412.77 Q1125.21 1410.56 1126.24 1408.78 Q1128.9 1404.17 1132.56 1402.7 Q1136.19 1401.22 1139.76 1403.28 Q1142.25 1404.71 1143.15 1407.13 Q1144.03 1409.54 1143.18 1412.54 Z" fill="#000000" fill-rule="nonzero" fill-opacity="1" /><path clip-path="url(#clip840)" d="M1145.05 1383.61 Q1143.24 1386.74 1145.42 1390.1 Q1147.58 1393.44 1153.75 1397 Q1159.91 1400.55 1163.9 1400.77 Q1167.88 1400.96 1169.69 1397.83 Q1171.5 1394.69 1169.34 1391.35 Q1167.17 1387.99 1161.01 1384.43 Q1154.84 1380.87 1150.86 1380.68 Q1146.87 1380.46 1145.05 1383.61 M1141.84 1381.76 Q1144.75 1376.72 1150.26 1376.38 Q1155.77 1376.01 1163.35 1380.38 Q1170.91 1384.75 1173.36 1389.72 Q1175.8 1394.65 1172.89 1399.68 Q1169.99 1404.72 1164.48 1405.09 Q1158.96 1405.43 1151.4 1401.07 Q1143.83 1396.7 1141.39 1391.76 Q1138.94 1386.79 1141.84 1381.76 Z" fill="#000000" fill-rule="nonzero" fill-opacity="1" /><path clip-path="url(#clip840)" d="M1338.46 1615.45 L1346.62 1601.32 L1350.03 1603.28 L1339.06 1622.29 L1335.65 1620.32 Q1334.6 1616.64 1332.88 1610.35 Q1331.15 1604.04 1330.58 1602.35 Q1329.52 1599.14 1328.46 1597.51 Q1327.38 1595.85 1325.92 1595 Q1323.53 1593.63 1321.06 1594.44 Q1318.59 1595.24 1317.04 1597.92 Q1315.94 1599.83 1315.38 1602.34 Q1314.82 1604.82 1314.78 1608 L1310.69 1605.64 Q1311.12 1602.63 1311.85 1600.22 Q1312.57 1597.8 1313.59 1596.04 Q1316.27 1591.39 1320.2 1589.96 Q1324.12 1588.54 1328.01 1590.78 Q1329.85 1591.85 1331.11 1593.51 Q1332.36 1595.14 1333.55 1598.26 Q1333.85 1599.1 1335.08 1603.39 Q1336.3 1607.68 1338.46 1615.45 Z" fill="#000000" fill-rule="nonzero" fill-opacity="1" /><path clip-path="url(#clip840)" d="M1332.68 1570.38 Q1330.87 1573.51 1333.04 1576.88 Q1335.21 1580.21 1341.38 1583.78 Q1347.54 1587.33 1351.53 1587.55 Q1355.51 1587.74 1357.31 1584.61 Q1359.13 1581.46 1356.97 1578.13 Q1354.79 1574.76 1348.64 1571.21 Q1342.46 1567.64 1338.48 1567.46 Q1334.49 1567.24 1332.68 1570.38 M1329.47 1568.53 Q1332.37 1563.5 1337.89 1563.16 Q1343.4 1562.78 1350.98 1567.16 Q1358.53 1571.52 1360.98 1576.49 Q1363.43 1581.43 1360.52 1586.46 Q1357.62 1591.49 1352.11 1591.87 Q1346.59 1592.21 1339.03 1587.85 Q1331.46 1583.47 1329.01 1578.53 Q1326.56 1573.56 1329.47 1568.53 Z" fill="#000000" fill-rule="nonzero" fill-opacity="1" /><path clip-path="url(#clip840)" d="M1368.63 1563.21 L1376.79 1549.08 L1380.19 1551.04 L1369.22 1570.05 L1365.81 1568.08 Q1364.76 1564.4 1363.04 1558.11 Q1361.32 1551.8 1360.74 1550.1 Q1359.68 1546.9 1358.62 1545.27 Q1357.55 1543.61 1356.08 1542.76 Q1353.7 1541.38 1351.22 1542.2 Q1348.76 1543 1347.21 1545.68 Q1346.11 1547.59 1345.54 1550.09 Q1344.99 1552.58 1344.94 1555.76 L1340.85 1553.4 Q1341.28 1550.39 1342.01 1547.97 Q1342.73 1545.56 1343.75 1543.79 Q1346.44 1539.14 1350.36 1537.72 Q1354.28 1536.3 1358.17 1538.54 Q1360.01 1539.61 1361.27 1541.27 Q1362.52 1542.9 1363.72 1546.02 Q1364.01 1546.86 1365.24 1551.15 Q1366.46 1555.44 1368.63 1563.21 Z" fill="#000000" fill-rule="nonzero" fill-opacity="1" /><path clip-path="url(#clip840)" d="M1355.2 1525.22 L1364.37 1509.33 L1367.78 1511.29 L1360.74 1523.48 L1368.08 1527.72 Q1368.29 1526.66 1368.66 1525.7 Q1369.01 1524.72 1369.52 1523.84 Q1372.41 1518.83 1376.85 1517.49 Q1381.28 1516.15 1385.97 1518.86 Q1390.81 1521.65 1391.76 1526.2 Q1392.69 1530.75 1389.53 1536.22 Q1388.44 1538.11 1386.98 1539.89 Q1385.54 1541.65 1383.69 1543.36 L1379.62 1541.01 Q1381.65 1539.77 1383.24 1538.13 Q1384.83 1536.48 1386.07 1534.34 Q1388.07 1530.87 1387.42 1527.79 Q1386.76 1524.71 1383.64 1522.91 Q1380.51 1521.1 1377.52 1522.07 Q1374.52 1523.04 1372.52 1526.51 Q1371.58 1528.14 1371.01 1529.97 Q1370.44 1531.78 1370.23 1533.9 L1355.2 1525.22 Z" fill="#000000" fill-rule="nonzero" fill-opacity="1" /><path clip-path="url(#clip840)" d="M1385.92 1511.37 L1392.15 1500.56 L1395.44 1502.46 L1389.2 1513.26 L1385.92 1511.37 Z" fill="#000000" fill-rule="nonzero" fill-opacity="1" /><path clip-path="url(#clip840)" d="M1405.73 1498.94 L1409.55 1492.32 L1386.72 1479.14 L1384.01 1487.17 L1380.32 1485.04 L1383.01 1477.05 L1385.35 1473 L1411.87 1488.31 L1415.69 1481.7 L1419.09 1483.67 L1409.14 1500.91 L1405.73 1498.94 Z" fill="#000000" fill-rule="nonzero" fill-opacity="1" /><path clip-path="url(#clip840)" d="M1420.81 1472.82 L1424.63 1466.2 L1401.8 1453.02 L1399.09 1461.05 L1395.4 1458.92 L1398.09 1450.93 L1400.43 1446.88 L1426.95 1462.19 L1430.77 1455.58 L1434.18 1457.54 L1424.22 1474.79 L1420.81 1472.82 Z" fill="#000000" fill-rule="nonzero" fill-opacity="1" /><path clip-path="url(#clip840)" d="M1424.63 1444.31 L1430.87 1433.5 L1434.16 1435.4 L1427.92 1446.21 L1424.63 1444.31 Z" fill="#000000" fill-rule="nonzero" fill-opacity="1" /><path clip-path="url(#clip840)" d="M1425.19 1410.15 Q1423.38 1413.28 1425.55 1416.64 Q1427.72 1419.98 1433.89 1423.54 Q1440.05 1427.1 1444.04 1427.32 Q1448.02 1427.5 1449.82 1424.37 Q1451.64 1421.23 1449.48 1417.89 Q1447.3 1414.53 1441.15 1410.97 Q1434.98 1407.41 1430.99 1407.22 Q1427 1407 1425.19 1410.15 M1421.98 1408.3 Q1424.88 1403.27 1430.4 1402.92 Q1435.91 1402.55 1443.49 1406.92 Q1451.05 1411.29 1453.5 1416.26 Q1455.94 1421.19 1453.03 1426.23 Q1450.13 1431.26 1444.62 1431.63 Q1439.1 1431.98 1431.54 1427.61 Q1423.97 1423.24 1421.52 1418.3 Q1419.07 1413.33 1421.98 1408.3 Z" fill="#000000" fill-rule="nonzero" fill-opacity="1" /><path clip-path="url(#clip840)" d="M1442.55 1382.06 L1452.63 1401.51 L1458.53 1391.29 L1442.55 1382.06 M1438.41 1381.09 L1441.35 1375.99 L1460.86 1387.26 L1463.32 1382.99 L1466.69 1384.93 L1464.23 1389.2 L1471.28 1393.27 L1468.96 1397.3 L1461.9 1393.23 L1454.1 1406.74 L1450.19 1404.48 L1438.41 1381.09 Z" fill="#000000" fill-rule="nonzero" fill-opacity="1" /><path clip-path="url(#clip840)" d="M1634.62 1614.25 L1642.78 1600.11 L1646.19 1602.08 L1635.22 1621.09 L1631.81 1619.12 Q1630.76 1615.44 1629.04 1609.15 Q1627.31 1602.84 1626.74 1601.14 Q1625.68 1597.94 1624.61 1596.31 Q1623.54 1594.65 1622.08 1593.8 Q1619.69 1592.42 1617.22 1593.24 Q1614.75 1594.03 1613.2 1596.72 Q1612.1 1598.63 1611.54 1601.13 Q1610.98 1603.62 1610.94 1606.8 L1606.85 1604.44 Q1607.28 1601.43 1608 1599.01 Q1608.73 1596.6 1609.75 1594.83 Q1612.43 1590.18 1616.35 1588.76 Q1620.28 1587.34 1624.17 1589.58 Q1626.01 1590.65 1627.27 1592.31 Q1628.52 1593.94 1629.71 1597.06 Q1630 1597.9 1631.24 1602.19 Q1632.46 1606.47 1634.62 1614.25 Z" fill="#000000" fill-rule="nonzero" fill-opacity="1" /><path clip-path="url(#clip840)" d="M1628.83 1569.18 Q1627.03 1572.31 1629.2 1575.67 Q1631.37 1579.01 1637.54 1582.57 Q1643.69 1586.13 1647.68 1586.35 Q1651.67 1586.53 1653.47 1583.41 Q1655.29 1580.26 1653.12 1576.92 Q1650.95 1573.56 1644.8 1570 Q1638.62 1566.44 1634.64 1566.25 Q1630.65 1566.03 1628.83 1569.18 M1625.63 1567.33 Q1628.53 1562.3 1634.05 1561.95 Q1639.56 1561.58 1647.14 1565.96 Q1654.69 1570.32 1657.14 1575.29 Q1659.58 1580.23 1656.68 1585.26 Q1653.77 1590.29 1648.27 1590.66 Q1642.75 1591.01 1635.19 1586.64 Q1627.61 1582.27 1625.17 1577.33 Q1622.72 1572.36 1625.63 1567.33 Z" fill="#000000" fill-rule="nonzero" fill-opacity="1" /><path clip-path="url(#clip840)" d="M1664.78 1562.01 L1672.94 1547.87 L1676.35 1549.84 L1665.38 1568.84 L1661.97 1566.88 Q1660.92 1563.19 1659.2 1556.91 Q1657.47 1550.59 1656.9 1548.9 Q1655.84 1545.69 1654.78 1544.06 Q1653.7 1542.4 1652.24 1541.56 Q1649.85 1540.18 1647.38 1541 Q1644.91 1541.79 1643.36 1544.48 Q1642.26 1546.38 1641.7 1548.89 Q1641.14 1551.38 1641.1 1554.56 L1637.01 1552.2 Q1637.44 1549.18 1638.16 1546.77 Q1638.89 1544.36 1639.91 1542.59 Q1642.59 1537.94 1646.52 1536.52 Q1650.44 1535.09 1654.33 1537.34 Q1656.17 1538.4 1657.43 1540.07 Q1658.68 1541.7 1659.87 1544.82 Q1660.17 1545.65 1661.4 1549.95 Q1662.62 1554.23 1664.78 1562.01 Z" fill="#000000" fill-rule="nonzero" fill-opacity="1" /><path clip-path="url(#clip840)" d="M1651.35 1524.02 L1660.53 1508.12 L1663.94 1510.09 L1656.9 1522.28 L1664.24 1526.52 Q1664.45 1525.46 1664.82 1524.5 Q1665.17 1523.52 1665.67 1522.64 Q1668.57 1517.63 1673 1516.29 Q1677.44 1514.95 1682.13 1517.65 Q1686.96 1520.44 1687.91 1525 Q1688.84 1529.55 1685.68 1535.02 Q1684.6 1536.9 1683.14 1538.68 Q1681.7 1540.44 1679.85 1542.16 L1675.78 1539.81 Q1677.81 1538.57 1679.4 1536.92 Q1680.99 1535.28 1682.23 1533.13 Q1684.23 1529.67 1683.58 1526.59 Q1682.92 1523.51 1679.79 1521.7 Q1676.67 1519.9 1673.67 1520.87 Q1670.68 1521.84 1668.68 1525.31 Q1667.74 1526.93 1667.16 1528.77 Q1666.6 1530.58 1666.39 1532.7 L1651.35 1524.02 Z" fill="#000000" fill-rule="nonzero" fill-opacity="1" /><path clip-path="url(#clip840)" d="M1682.07 1510.16 L1688.31 1499.36 L1691.6 1501.26 L1685.36 1512.06 L1682.07 1510.16 Z" fill="#000000" fill-rule="nonzero" fill-opacity="1" /><path clip-path="url(#clip840)" d="M1701.89 1497.74 L1705.71 1491.12 L1682.88 1477.94 L1680.17 1485.97 L1676.48 1483.84 L1679.17 1475.85 L1681.5 1471.8 L1708.03 1487.11 L1711.84 1480.5 L1715.25 1482.46 L1705.3 1499.7 L1701.89 1497.74 Z" fill="#000000" fill-rule="nonzero" fill-opacity="1" /><path clip-path="url(#clip840)" d="M1716.97 1471.61 L1720.79 1465 L1697.96 1451.82 L1695.25 1459.85 L1691.56 1457.72 L1694.25 1449.73 L1696.58 1445.68 L1723.11 1460.99 L1726.93 1454.37 L1730.33 1456.34 L1720.38 1473.58 L1716.97 1471.61 Z" fill="#000000" fill-rule="nonzero" fill-opacity="1" /><path clip-path="url(#clip840)" d="M1720.79 1443.11 L1727.03 1432.3 L1730.31 1434.2 L1724.08 1445 L1720.79 1443.11 Z" fill="#000000" fill-rule="nonzero" fill-opacity="1" /><path clip-path="url(#clip840)" d="M1721.35 1408.95 Q1719.54 1412.07 1721.71 1415.44 Q1723.88 1418.78 1730.05 1422.34 Q1736.21 1425.89 1740.2 1426.11 Q1744.18 1426.3 1745.98 1423.17 Q1747.8 1420.02 1745.64 1416.69 Q1743.46 1413.32 1737.31 1409.77 Q1731.13 1406.21 1727.15 1406.02 Q1723.16 1405.8 1721.35 1408.95 M1718.14 1407.1 Q1721.04 1402.06 1726.56 1401.72 Q1732.07 1401.35 1739.65 1405.72 Q1747.2 1410.08 1749.65 1415.05 Q1752.1 1419.99 1749.19 1425.02 Q1746.29 1430.06 1740.78 1430.43 Q1735.26 1430.77 1727.7 1426.41 Q1720.12 1422.03 1717.68 1417.1 Q1715.23 1412.13 1718.14 1407.1 Z" fill="#000000" fill-rule="nonzero" fill-opacity="1" /><path clip-path="url(#clip840)" d="M1728.17 1390.97 L1739.28 1371.72 L1741 1372.72 L1762.94 1399.87 L1760.5 1404.1 L1739.88 1378.56 L1731.58 1392.94 L1728.17 1390.97 Z" fill="#000000" fill-rule="nonzero" fill-opacity="1" /><path clip-path="url(#clip840)" d="M1930.43 1613.65 L1938.59 1599.51 L1942 1601.48 L1931.03 1620.49 L1927.62 1618.52 Q1926.57 1614.83 1924.85 1608.55 Q1923.12 1602.24 1922.55 1600.54 Q1921.49 1597.34 1920.42 1595.71 Q1919.35 1594.04 1917.89 1593.2 Q1915.5 1591.82 1913.03 1592.64 Q1910.56 1593.43 1909.01 1596.12 Q1907.91 1598.02 1907.35 1600.53 Q1906.79 1603.02 1906.75 1606.2 L1902.66 1603.84 Q1903.09 1600.83 1903.81 1598.41 Q1904.54 1596 1905.56 1594.23 Q1908.24 1589.58 1912.17 1588.16 Q1916.09 1586.73 1919.98 1588.98 Q1921.82 1590.04 1923.08 1591.71 Q1924.33 1593.34 1925.52 1596.46 Q1925.81 1597.29 1927.05 1601.59 Q1928.27 1605.87 1930.43 1613.65 Z" fill="#000000" fill-rule="nonzero" fill-opacity="1" /><path clip-path="url(#clip840)" d="M1924.64 1568.58 Q1922.84 1571.71 1925.01 1575.07 Q1927.18 1578.41 1933.35 1581.97 Q1939.51 1585.53 1943.5 1585.74 Q1947.48 1585.93 1949.28 1582.8 Q1951.1 1579.66 1948.93 1576.32 Q1946.76 1572.96 1940.61 1569.4 Q1934.43 1565.84 1930.45 1565.65 Q1926.46 1565.43 1924.64 1568.58 M1921.44 1566.73 Q1924.34 1561.7 1929.86 1561.35 Q1935.37 1560.98 1942.95 1565.35 Q1950.5 1569.72 1952.95 1574.69 Q1955.39 1579.62 1952.49 1584.66 Q1949.58 1589.69 1944.08 1590.06 Q1938.56 1590.41 1931 1586.04 Q1923.42 1581.67 1920.98 1576.73 Q1918.53 1571.76 1921.44 1566.73 Z" fill="#000000" fill-rule="nonzero" fill-opacity="1" /><path clip-path="url(#clip840)" d="M1960.6 1561.4 L1968.75 1547.27 L1972.16 1549.24 L1961.19 1568.24 L1957.78 1566.28 Q1956.73 1562.59 1955.01 1556.31 Q1953.28 1549.99 1952.71 1548.3 Q1951.65 1545.09 1950.59 1543.46 Q1949.51 1541.8 1948.05 1540.96 Q1945.66 1539.58 1943.19 1540.4 Q1940.72 1541.19 1939.17 1543.88 Q1938.07 1545.78 1937.51 1548.29 Q1936.96 1550.78 1936.91 1553.96 L1932.82 1551.6 Q1933.25 1548.58 1933.98 1546.17 Q1934.7 1543.75 1935.72 1541.99 Q1938.4 1537.34 1942.33 1535.92 Q1946.25 1534.49 1950.14 1536.74 Q1951.98 1537.8 1953.24 1539.46 Q1954.49 1541.1 1955.68 1544.22 Q1955.98 1545.05 1957.21 1549.35 Q1958.43 1553.63 1960.6 1561.4 Z" fill="#000000" fill-rule="nonzero" fill-opacity="1" /><path clip-path="url(#clip840)" d="M1947.16 1523.42 L1956.34 1507.52 L1959.75 1509.49 L1952.71 1521.68 L1960.05 1525.91 Q1960.26 1524.86 1960.63 1523.9 Q1960.98 1522.92 1961.49 1522.04 Q1964.38 1517.03 1968.82 1515.69 Q1973.25 1514.34 1977.94 1517.05 Q1982.77 1519.84 1983.72 1524.4 Q1984.65 1528.95 1981.49 1534.42 Q1980.41 1536.3 1978.95 1538.08 Q1977.51 1539.84 1975.66 1541.56 L1971.59 1539.21 Q1973.62 1537.97 1975.21 1536.32 Q1976.8 1534.68 1978.04 1532.53 Q1980.04 1529.06 1979.39 1525.99 Q1978.73 1522.91 1975.6 1521.1 Q1972.48 1519.3 1969.48 1520.27 Q1966.49 1521.24 1964.49 1524.71 Q1963.55 1526.33 1962.97 1528.16 Q1962.41 1529.98 1962.2 1532.1 L1947.16 1523.42 Z" fill="#000000" fill-rule="nonzero" fill-opacity="1" /><path clip-path="url(#clip840)" d="M1977.88 1509.56 L1984.12 1498.76 L1987.41 1500.65 L1981.17 1511.46 L1977.88 1509.56 Z" fill="#000000" fill-rule="nonzero" fill-opacity="1" /><path clip-path="url(#clip840)" d="M1997.7 1497.13 L2001.52 1490.52 L1978.69 1477.34 L1975.98 1485.37 L1972.29 1483.24 L1974.98 1475.25 L1977.31 1471.2 L2003.84 1486.51 L2007.66 1479.89 L2011.06 1481.86 L2001.11 1499.1 L1997.7 1497.13 Z" fill="#000000" fill-rule="nonzero" fill-opacity="1" /><path clip-path="url(#clip840)" d="M2012.78 1471.01 L2016.6 1464.4 L1993.77 1451.22 L1991.06 1459.25 L1987.37 1457.12 L1990.06 1449.13 L1992.39 1445.08 L2018.92 1460.39 L2022.74 1453.77 L2026.14 1455.74 L2016.19 1472.98 L2012.78 1471.01 Z" fill="#000000" fill-rule="nonzero" fill-opacity="1" /><path clip-path="url(#clip840)" d="M2016.6 1442.51 L2022.84 1431.7 L2026.12 1433.6 L2019.89 1444.4 L2016.6 1442.51 Z" fill="#000000" fill-rule="nonzero" fill-opacity="1" /><path clip-path="url(#clip840)" d="M2036.42 1430.08 L2040.24 1423.46 L2017.4 1410.28 L2014.69 1418.31 L2011 1416.18 L2013.69 1408.19 L2016.03 1404.14 L2042.55 1419.45 L2046.37 1412.84 L2049.78 1414.81 L2039.82 1432.05 L2036.42 1430.08 Z" fill="#000000" fill-rule="nonzero" fill-opacity="1" /><path clip-path="url(#clip840)" d="M2053.11 1401.17 L2061.27 1387.04 L2064.67 1389 L2053.7 1408.01 L2050.29 1406.04 Q2049.24 1402.36 2047.52 1396.07 Q2045.8 1389.76 2045.22 1388.07 Q2044.16 1384.86 2043.1 1383.23 Q2042.02 1381.57 2040.56 1380.72 Q2038.18 1379.35 2035.7 1380.16 Q2033.24 1380.96 2031.68 1383.64 Q2030.59 1385.55 2030.02 1388.06 Q2029.47 1390.54 2029.42 1393.72 L2025.33 1391.36 Q2025.76 1388.35 2026.49 1385.94 Q2027.21 1383.52 2028.23 1381.76 Q2030.92 1377.11 2034.84 1375.68 Q2038.76 1374.26 2042.65 1376.5 Q2044.49 1377.57 2045.75 1379.23 Q2047 1380.86 2048.2 1383.98 Q2048.49 1384.82 2049.72 1389.11 Q2050.94 1393.4 2053.11 1401.17 Z" fill="#000000" fill-rule="nonzero" fill-opacity="1" /><polyline clip-path="url(#clip840)" style="stroke:#000000; stroke-linecap:round; stroke-linejoin:round; stroke-width:4; stroke-opacity:1; fill:none" points="170.857,1348.2 170.857,47.2441 "/>
<polyline clip-path="url(#clip840)" style="stroke:#000000; stroke-linecap:round; stroke-linejoin:round; stroke-width:4; stroke-opacity:1; fill:none" points="170.857,1174.22 189.755,1174.22 "/>
<polyline clip-path="url(#clip840)" style="stroke:#000000; stroke-linecap:round; stroke-linejoin:round; stroke-width:4; stroke-opacity:1; fill:none" points="170.857,916.861 189.755,916.861 "/>
<polyline clip-path="url(#clip840)" style="stroke:#000000; stroke-linecap:round; stroke-linejoin:round; stroke-width:4; stroke-opacity:1; fill:none" points="170.857,659.507 189.755,659.507 "/>
<polyline clip-path="url(#clip840)" style="stroke:#000000; stroke-linecap:round; stroke-linejoin:round; stroke-width:4; stroke-opacity:1; fill:none" points="170.857,402.153 189.755,402.153 "/>
<polyline clip-path="url(#clip840)" style="stroke:#000000; stroke-linecap:round; stroke-linejoin:round; stroke-width:4; stroke-opacity:1; fill:none" points="170.857,144.799 189.755,144.799 "/>
<path clip-path="url(#clip840)" d="M56.6171 1187.56 L72.9365 1187.56 L72.9365 1191.5 L50.9921 1191.5 L50.9921 1187.56 Q53.6541 1184.81 58.2375 1180.18 Q62.8439 1175.52 64.0245 1174.18 Q66.2698 1171.66 67.1494 1169.92 Q68.0522 1168.16 68.0522 1166.47 Q68.0522 1163.72 66.1078 1161.98 Q64.1865 1160.25 61.0847 1160.25 Q58.8856 1160.25 56.4319 1161.01 Q54.0014 1161.77 51.2236 1163.32 L51.2236 1158.6 Q54.0477 1157.47 56.5014 1156.89 Q58.955 1156.31 60.9921 1156.31 Q66.3624 1156.31 69.5568 1159 Q72.7513 1161.68 72.7513 1166.17 Q72.7513 1168.3 71.9411 1170.22 Q71.1541 1172.12 69.0476 1174.71 Q68.4689 1175.38 65.367 1178.6 Q62.2652 1181.8 56.6171 1187.56 Z" fill="#000000" fill-rule="nonzero" fill-opacity="1" /><path clip-path="url(#clip840)" d="M82.7975 1156.94 L101.154 1156.94 L101.154 1160.87 L87.0799 1160.87 L87.0799 1169.34 Q88.0984 1169 89.1169 1168.83 Q90.1354 1168.65 91.1539 1168.65 Q96.941 1168.65 100.321 1171.82 Q103.7 1174.99 103.7 1180.41 Q103.7 1185.99 100.228 1189.09 Q96.7558 1192.17 90.4364 1192.17 Q88.2604 1192.17 85.9919 1191.8 Q83.7466 1191.43 81.3392 1190.69 L81.3392 1185.99 Q83.4225 1187.12 85.6447 1187.68 Q87.8669 1188.23 90.3438 1188.23 Q94.3484 1188.23 96.6863 1186.13 Q99.0243 1184.02 99.0243 1180.41 Q99.0243 1176.8 96.6863 1174.69 Q94.3484 1172.58 90.3438 1172.58 Q88.4688 1172.58 86.5938 1173 Q84.7419 1173.42 82.7975 1174.3 L82.7975 1156.94 Z" fill="#000000" fill-rule="nonzero" fill-opacity="1" /><path clip-path="url(#clip840)" d="M122.913 1160.01 Q119.302 1160.01 117.473 1163.58 Q115.668 1167.12 115.668 1174.25 Q115.668 1181.36 117.473 1184.92 Q119.302 1188.46 122.913 1188.46 Q126.547 1188.46 128.353 1184.92 Q130.182 1181.36 130.182 1174.25 Q130.182 1167.12 128.353 1163.58 Q126.547 1160.01 122.913 1160.01 M122.913 1156.31 Q128.723 1156.31 131.779 1160.92 Q134.857 1165.5 134.857 1174.25 Q134.857 1182.98 131.779 1187.58 Q128.723 1192.17 122.913 1192.17 Q117.103 1192.17 114.024 1187.58 Q110.969 1182.98 110.969 1174.25 Q110.969 1165.5 114.024 1160.92 Q117.103 1156.31 122.913 1156.31 Z" fill="#000000" fill-rule="nonzero" fill-opacity="1" /><path clip-path="url(#clip840)" d="M56.6171 930.206 L72.9365 930.206 L72.9365 934.141 L50.9921 934.141 L50.9921 930.206 Q53.6541 927.452 58.2375 922.822 Q62.8439 918.169 64.0245 916.827 Q66.2698 914.304 67.1494 912.567 Q68.0522 910.808 68.0522 909.118 Q68.0522 906.364 66.1078 904.628 Q64.1865 902.892 61.0847 902.892 Q58.8856 902.892 56.4319 903.655 Q54.0014 904.419 51.2236 905.97 L51.2236 901.248 Q54.0477 900.114 56.5014 899.535 Q58.955 898.956 60.9921 898.956 Q66.3624 898.956 69.5568 901.642 Q72.7513 904.327 72.7513 908.817 Q72.7513 910.947 71.9411 912.868 Q71.1541 914.766 69.0476 917.359 Q68.4689 918.03 65.367 921.248 Q62.2652 924.442 56.6171 930.206 Z" fill="#000000" fill-rule="nonzero" fill-opacity="1" /><path clip-path="url(#clip840)" d="M93.3299 914.998 Q90.1817 914.998 88.3299 917.151 Q86.5012 919.303 86.5012 923.053 Q86.5012 926.78 88.3299 928.956 Q90.1817 931.109 93.3299 931.109 Q96.478 931.109 98.3067 928.956 Q100.159 926.78 100.159 923.053 Q100.159 919.303 98.3067 917.151 Q96.478 914.998 93.3299 914.998 M102.612 900.345 L102.612 904.605 Q100.853 903.771 99.0474 903.331 Q97.265 902.892 95.5058 902.892 Q90.8762 902.892 88.4225 906.017 Q85.9919 909.142 85.6447 915.461 Q87.0105 913.447 89.0706 912.382 Q91.1308 911.294 93.6076 911.294 Q98.8159 911.294 101.825 914.466 Q104.858 917.614 104.858 923.053 Q104.858 928.378 101.709 931.595 Q98.5613 934.813 93.3299 934.813 Q87.3345 934.813 84.1632 930.229 Q80.992 925.623 80.992 916.896 Q80.992 908.702 84.8808 903.841 Q88.7697 898.956 95.3206 898.956 Q97.0798 898.956 98.8622 899.304 Q100.668 899.651 102.612 900.345 Z" fill="#000000" fill-rule="nonzero" fill-opacity="1" /><path clip-path="url(#clip840)" d="M122.913 902.66 Q119.302 902.66 117.473 906.225 Q115.668 909.767 115.668 916.896 Q115.668 924.003 117.473 927.567 Q119.302 931.109 122.913 931.109 Q126.547 931.109 128.353 927.567 Q130.182 924.003 130.182 916.896 Q130.182 909.767 128.353 906.225 Q126.547 902.66 122.913 902.66 M122.913 898.956 Q128.723 898.956 131.779 903.563 Q134.857 908.146 134.857 916.896 Q134.857 925.623 131.779 930.229 Q128.723 934.813 122.913 934.813 Q117.103 934.813 114.024 930.229 Q110.969 925.623 110.969 916.896 Q110.969 908.146 114.024 903.563 Q117.103 898.956 122.913 898.956 Z" fill="#000000" fill-rule="nonzero" fill-opacity="1" /><path clip-path="url(#clip840)" d="M56.6171 672.852 L72.9365 672.852 L72.9365 676.787 L50.9921 676.787 L50.9921 672.852 Q53.6541 670.097 58.2375 665.468 Q62.8439 660.815 64.0245 659.473 Q66.2698 656.949 67.1494 655.213 Q68.0522 653.454 68.0522 651.764 Q68.0522 649.01 66.1078 647.274 Q64.1865 645.537 61.0847 645.537 Q58.8856 645.537 56.4319 646.301 Q54.0014 647.065 51.2236 648.616 L51.2236 643.894 Q54.0477 642.76 56.5014 642.181 Q58.955 641.602 60.9921 641.602 Q66.3624 641.602 69.5568 644.287 Q72.7513 646.973 72.7513 651.463 Q72.7513 653.593 71.9411 655.514 Q71.1541 657.412 69.0476 660.005 Q68.4689 660.676 65.367 663.894 Q62.2652 667.088 56.6171 672.852 Z" fill="#000000" fill-rule="nonzero" fill-opacity="1" /><path clip-path="url(#clip840)" d="M81.5707 642.227 L103.793 642.227 L103.793 644.218 L91.2465 676.787 L86.3623 676.787 L98.1678 646.162 L81.5707 646.162 L81.5707 642.227 Z" fill="#000000" fill-rule="nonzero" fill-opacity="1" /><path clip-path="url(#clip840)" d="M122.913 645.306 Q119.302 645.306 117.473 648.871 Q115.668 652.412 115.668 659.542 Q115.668 666.648 117.473 670.213 Q119.302 673.755 122.913 673.755 Q126.547 673.755 128.353 670.213 Q130.182 666.648 130.182 659.542 Q130.182 652.412 128.353 648.871 Q126.547 645.306 122.913 645.306 M122.913 641.602 Q128.723 641.602 131.779 646.209 Q134.857 650.792 134.857 659.542 Q134.857 668.269 131.779 672.875 Q128.723 677.459 122.913 677.459 Q117.103 677.459 114.024 672.875 Q110.969 668.269 110.969 659.542 Q110.969 650.792 114.024 646.209 Q117.103 641.602 122.913 641.602 Z" fill="#000000" fill-rule="nonzero" fill-opacity="1" /><path clip-path="url(#clip840)" d="M56.6171 415.498 L72.9365 415.498 L72.9365 419.433 L50.9921 419.433 L50.9921 415.498 Q53.6541 412.743 58.2375 408.114 Q62.8439 403.461 64.0245 402.118 Q66.2698 399.595 67.1494 397.859 Q68.0522 396.1 68.0522 394.41 Q68.0522 391.655 66.1078 389.919 Q64.1865 388.183 61.0847 388.183 Q58.8856 388.183 56.4319 388.947 Q54.0014 389.711 51.2236 391.262 L51.2236 386.54 Q54.0477 385.405 56.5014 384.827 Q58.955 384.248 60.9921 384.248 Q66.3624 384.248 69.5568 386.933 Q72.7513 389.618 72.7513 394.109 Q72.7513 396.239 71.9411 398.16 Q71.1541 400.058 69.0476 402.651 Q68.4689 403.322 65.367 406.54 Q62.2652 409.734 56.6171 415.498 Z" fill="#000000" fill-rule="nonzero" fill-opacity="1" /><path clip-path="url(#clip840)" d="M92.7512 403.021 Q89.4178 403.021 87.4966 404.804 Q85.5984 406.586 85.5984 409.711 Q85.5984 412.836 87.4966 414.618 Q89.4178 416.401 92.7512 416.401 Q96.0845 416.401 98.0058 414.618 Q99.927 412.813 99.927 409.711 Q99.927 406.586 98.0058 404.804 Q96.1076 403.021 92.7512 403.021 M88.0753 401.03 Q85.066 400.29 83.3762 398.229 Q81.7096 396.169 81.7096 393.206 Q81.7096 389.063 84.6494 386.655 Q87.6123 384.248 92.7512 384.248 Q97.9132 384.248 100.853 386.655 Q103.793 389.063 103.793 393.206 Q103.793 396.169 102.103 398.229 Q100.436 400.29 97.4502 401.03 Q100.83 401.817 102.705 404.109 Q104.603 406.401 104.603 409.711 Q104.603 414.734 101.524 417.419 Q98.4687 420.104 92.7512 420.104 Q87.0336 420.104 83.9549 417.419 Q80.8994 414.734 80.8994 409.711 Q80.8994 406.401 82.7975 404.109 Q84.6956 401.817 88.0753 401.03 M86.3623 393.646 Q86.3623 396.331 88.029 397.836 Q89.7188 399.341 92.7512 399.341 Q95.7604 399.341 97.4502 397.836 Q99.1632 396.331 99.1632 393.646 Q99.1632 390.961 97.4502 389.456 Q95.7604 387.952 92.7512 387.952 Q89.7188 387.952 88.029 389.456 Q86.3623 390.961 86.3623 393.646 Z" fill="#000000" fill-rule="nonzero" fill-opacity="1" /><path clip-path="url(#clip840)" d="M122.913 387.952 Q119.302 387.952 117.473 391.517 Q115.668 395.058 115.668 402.188 Q115.668 409.294 117.473 412.859 Q119.302 416.401 122.913 416.401 Q126.547 416.401 128.353 412.859 Q130.182 409.294 130.182 402.188 Q130.182 395.058 128.353 391.517 Q126.547 387.952 122.913 387.952 M122.913 384.248 Q128.723 384.248 131.779 388.855 Q134.857 393.438 134.857 402.188 Q134.857 410.915 131.779 415.521 Q128.723 420.104 122.913 420.104 Q117.103 420.104 114.024 415.521 Q110.969 410.915 110.969 402.188 Q110.969 393.438 114.024 388.855 Q117.103 384.248 122.913 384.248 Z" fill="#000000" fill-rule="nonzero" fill-opacity="1" /><path clip-path="url(#clip840)" d="M56.6171 158.144 L72.9365 158.144 L72.9365 162.079 L50.9921 162.079 L50.9921 158.144 Q53.6541 155.389 58.2375 150.76 Q62.8439 146.107 64.0245 144.764 Q66.2698 142.241 67.1494 140.505 Q68.0522 138.746 68.0522 137.056 Q68.0522 134.301 66.1078 132.565 Q64.1865 130.829 61.0847 130.829 Q58.8856 130.829 56.4319 131.593 Q54.0014 132.357 51.2236 133.908 L51.2236 129.186 Q54.0477 128.051 56.5014 127.473 Q58.955 126.894 60.9921 126.894 Q66.3624 126.894 69.5568 129.579 Q72.7513 132.264 72.7513 136.755 Q72.7513 138.885 71.9411 140.806 Q71.1541 142.704 69.0476 145.297 Q68.4689 145.968 65.367 149.185 Q62.2652 152.38 56.6171 158.144 Z" fill="#000000" fill-rule="nonzero" fill-opacity="1" /><path clip-path="url(#clip840)" d="M82.8901 161.361 L82.8901 157.102 Q84.6494 157.935 86.4549 158.375 Q88.2604 158.815 89.9965 158.815 Q94.6262 158.815 97.0567 155.713 Q99.5104 152.588 99.8576 146.246 Q98.515 148.236 96.4548 149.301 Q94.3947 150.366 91.8947 150.366 Q86.7095 150.366 83.6771 147.241 Q80.6679 144.093 80.6679 138.653 Q80.6679 133.329 83.816 130.112 Q86.9642 126.894 92.1956 126.894 Q98.1909 126.894 101.339 131.5 Q104.51 136.084 104.51 144.834 Q104.51 153.005 100.621 157.889 Q96.7558 162.75 90.2049 162.75 Q88.4456 162.75 86.6401 162.403 Q84.8345 162.056 82.8901 161.361 M92.1956 146.709 Q95.3437 146.709 97.1724 144.556 Q99.0243 142.403 99.0243 138.653 Q99.0243 134.926 97.1724 132.774 Q95.3437 130.598 92.1956 130.598 Q89.0475 130.598 87.1956 132.774 Q85.3669 134.926 85.3669 138.653 Q85.3669 142.403 87.1956 144.556 Q89.0475 146.709 92.1956 146.709 Z" fill="#000000" fill-rule="nonzero" fill-opacity="1" /><path clip-path="url(#clip840)" d="M122.913 130.598 Q119.302 130.598 117.473 134.162 Q115.668 137.704 115.668 144.834 Q115.668 151.94 117.473 155.505 Q119.302 159.047 122.913 159.047 Q126.547 159.047 128.353 155.505 Q130.182 151.94 130.182 144.834 Q130.182 137.704 128.353 134.162 Q126.547 130.598 122.913 130.598 M122.913 126.894 Q128.723 126.894 131.779 131.5 Q134.857 136.084 134.857 144.834 Q134.857 153.56 131.779 158.167 Q128.723 162.75 122.913 162.75 Q117.103 162.75 114.024 158.167 Q110.969 153.56 110.969 144.834 Q110.969 136.084 114.024 131.5 Q117.103 126.894 122.913 126.894 Z" fill="#000000" fill-rule="nonzero" fill-opacity="1" /><path clip-path="url(#clip842)" d="M276.929 1210.5 L276.929 1139.47 L232.609 1139.47 L232.609 1076.68 L276.929 1076.68 L276.929 1048.63 L276.929 1076.68 L321.248 1076.68 L321.248 1139.47 L276.929 1139.47 L276.929 1210.5  Z" fill="#008000" fill-rule="evenodd" fill-opacity="1"/>
<polyline clip-path="url(#clip842)" style="stroke:#008000; stroke-linecap:round; stroke-linejoin:round; stroke-width:2; stroke-opacity:1; fill:none" points="276.929,1210.5 276.929,1139.47 232.609,1139.47 232.609,1076.68 276.929,1076.68 276.929,1048.63 276.929,1076.68 321.248,1076.68 321.248,1139.47 276.929,1139.47 276.929,1210.5 "/>
<path clip-path="url(#clip842)" d="M375.417 1055.83 L375.417 1039.62 L331.097 1039.62 L331.097 993.553 L375.417 993.553 L375.417 971.42 L375.417 993.553 L419.736 993.553 L419.736 1039.62 L375.417 1039.62 L375.417 1055.83  Z" fill="#008000" fill-rule="evenodd" fill-opacity="1"/>
<polyline clip-path="url(#clip842)" style="stroke:#008000; stroke-linecap:round; stroke-linejoin:round; stroke-width:2; stroke-opacity:1; fill:none" points="375.417,1055.83 375.417,1039.62 331.097,1039.62 331.097,993.553 375.417,993.553 375.417,971.42 375.417,993.553 419.736,993.553 419.736,1039.62 375.417,1039.62 375.417,1055.83 "/>
<path clip-path="url(#clip842)" d="M473.904 1311.39 L473.904 1139.73 L429.585 1139.73 L429.585 1039.1 L473.904 1039.1 L473.904 1035.76 L473.904 1039.1 L518.224 1039.1 L518.224 1139.73 L473.904 1139.73 L473.904 1311.39  Z" fill="#ff0000" fill-rule="evenodd" fill-opacity="1"/>
<polyline clip-path="url(#clip842)" style="stroke:#ff0000; stroke-linecap:round; stroke-linejoin:round; stroke-width:2; stroke-opacity:1; fill:none" points="473.904,1311.39 473.904,1139.73 429.585,1139.73 429.585,1039.1 473.904,1039.1 473.904,1035.76 473.904,1039.1 518.224,1039.1 518.224,1139.73 473.904,1139.73 473.904,1311.39 "/>
<path clip-path="url(#clip842)" d="M572.392 1162.61 L572.392 1109.1 L528.073 1109.1 L528.073 1045.28 L572.392 1045.28 L572.392 989.435 L572.392 1045.28 L616.712 1045.28 L616.712 1109.1 L572.392 1109.1 L572.392 1162.61  Z" fill="#ff0000" fill-rule="evenodd" fill-opacity="1"/>
<polyline clip-path="url(#clip842)" style="stroke:#ff0000; stroke-linecap:round; stroke-linejoin:round; stroke-width:2; stroke-opacity:1; fill:none" points="572.392,1162.61 572.392,1109.1 528.073,1109.1 528.073,1045.28 572.392,1045.28 572.392,989.435 572.392,1045.28 616.712,1045.28 616.712,1109.1 572.392,1109.1 572.392,1162.61 "/>
<path clip-path="url(#clip842)" d="M670.88 1102.98 L670.88 1078.99 L626.56 1078.99 L626.56 1078.22 L670.88 1078.22 L670.88 1023.41 L670.88 1078.22 L715.199 1078.22 L715.199 1078.99 L670.88 1078.99 L670.88 1102.98  Z" fill="#008000" fill-rule="evenodd" fill-opacity="1"/>
<polyline clip-path="url(#clip842)" style="stroke:#008000; stroke-linecap:round; stroke-linejoin:round; stroke-width:2; stroke-opacity:1; fill:none" points="670.88,1102.98 670.88,1078.99 626.56,1078.99 626.56,1078.22 670.88,1078.22 670.88,1023.41 670.88,1078.22 715.199,1078.22 715.199,1078.99 670.88,1078.99 670.88,1102.98 "/>
<path clip-path="url(#clip842)" d="M769.368 1017.23 L769.368 986.347 L725.048 986.347 L725.048 903.736 L769.368 903.736 L769.368 852.265 L769.368 903.736 L813.687 903.736 L813.687 986.347 L769.368 986.347 L769.368 1017.23  Z" fill="#008000" fill-rule="evenodd" fill-opacity="1"/>
<polyline clip-path="url(#clip842)" style="stroke:#008000; stroke-linecap:round; stroke-linejoin:round; stroke-width:2; stroke-opacity:1; fill:none" points="769.368,1017.23 769.368,986.347 725.048,986.347 725.048,903.736 769.368,903.736 769.368,852.265 769.368,903.736 813.687,903.736 813.687,986.347 769.368,986.347 769.368,1017.23 "/>
<path clip-path="url(#clip842)" d="M867.856 789.728 L867.856 778.92 L823.536 778.92 L823.536 661.309 L867.856 661.309 L867.856 638.919 L867.856 661.309 L912.175 661.309 L912.175 778.92 L867.856 778.92 L867.856 789.728  Z" fill="#008000" fill-rule="evenodd" fill-opacity="1"/>
<polyline clip-path="url(#clip842)" style="stroke:#008000; stroke-linecap:round; stroke-linejoin:round; stroke-width:2; stroke-opacity:1; fill:none" points="867.856,789.728 867.856,778.92 823.536,778.92 823.536,661.309 867.856,661.309 867.856,638.919 867.856,661.309 912.175,661.309 912.175,778.92 867.856,778.92 867.856,789.728 "/>
<path clip-path="url(#clip842)" d="M966.343 732.338 L966.343 699.912 L922.024 699.912 L922.024 654.36 L966.343 654.36 L966.343 623.992 L966.343 654.36 L1010.66 654.36 L1010.66 699.912 L966.343 699.912 L966.343 732.338  Z" fill="#ff0000" fill-rule="evenodd" fill-opacity="1"/>
<polyline clip-path="url(#clip842)" style="stroke:#ff0000; stroke-linecap:round; stroke-linejoin:round; stroke-width:2; stroke-opacity:1; fill:none" points="966.343,732.338 966.343,699.912 922.024,699.912 922.024,654.36 966.343,654.36 966.343,623.992 966.343,654.36 1010.66,654.36 1010.66,699.912 966.343,699.912 966.343,732.338 "/>
<path clip-path="url(#clip842)" d="M1064.83 699.912 L1064.83 695.28 L1020.51 695.28 L1020.51 526.455 L1064.83 526.455 L1064.83 505.867 L1064.83 526.455 L1109.15 526.455 L1109.15 695.28 L1064.83 695.28 L1064.83 699.912  Z" fill="#008000" fill-rule="evenodd" fill-opacity="1"/>
<polyline clip-path="url(#clip842)" style="stroke:#008000; stroke-linecap:round; stroke-linejoin:round; stroke-width:2; stroke-opacity:1; fill:none" points="1064.83,699.912 1064.83,695.28 1020.51,695.28 1020.51,526.455 1064.83,526.455 1064.83,505.867 1064.83,526.455 1109.15,526.455 1109.15,695.28 1064.83,695.28 1064.83,699.912 "/>
<path clip-path="url(#clip842)" d="M1163.32 390.572 L1163.32 353.256 L1119 353.256 L1119 100.534 L1163.32 100.534 L1163.32 95.1298 L1163.32 100.534 L1207.64 100.534 L1207.64 353.256 L1163.32 353.256 L1163.32 390.572  Z" fill="#ff0000" fill-rule="evenodd" fill-opacity="1"/>
<polyline clip-path="url(#clip842)" style="stroke:#ff0000; stroke-linecap:round; stroke-linejoin:round; stroke-width:2; stroke-opacity:1; fill:none" points="1163.32,390.572 1163.32,353.256 1119,353.256 1119,100.534 1163.32,100.534 1163.32,95.1298 1163.32,100.534 1207.64,100.534 1207.64,353.256 1163.32,353.256 1163.32,390.572 "/>
<path clip-path="url(#clip842)" d="M1261.81 465.899 L1261.81 355.314 L1217.49 355.314 L1217.49 319.671 L1261.81 319.671 L1261.81 240.406 L1261.81 319.671 L1306.13 319.671 L1306.13 355.314 L1261.81 355.314 L1261.81 465.899  Z" fill="#ff0000" fill-rule="evenodd" fill-opacity="1"/>
<polyline clip-path="url(#clip842)" style="stroke:#ff0000; stroke-linecap:round; stroke-linejoin:round; stroke-width:2; stroke-opacity:1; fill:none" points="1261.81,465.899 1261.81,355.314 1217.49,355.314 1217.49,319.671 1261.81,319.671 1261.81,240.406 1261.81,319.671 1306.13,319.671 1306.13,355.314 1261.81,355.314 1261.81,465.899 "/>
<path clip-path="url(#clip842)" d="M1360.29 392.631 L1360.29 339.873 L1315.97 339.873 L1315.97 296.123 L1360.29 296.123 L1360.29 249.285 L1360.29 296.123 L1404.61 296.123 L1404.61 339.873 L1360.29 339.873 L1360.29 392.631  Z" fill="#008000" fill-rule="evenodd" fill-opacity="1"/>
<polyline clip-path="url(#clip842)" style="stroke:#008000; stroke-linecap:round; stroke-linejoin:round; stroke-width:2; stroke-opacity:1; fill:none" points="1360.29,392.631 1360.29,339.873 1315.97,339.873 1315.97,296.123 1360.29,296.123 1360.29,249.285 1360.29,296.123 1404.61,296.123 1404.61,339.873 1360.29,339.873 1360.29,392.631 "/>
<path clip-path="url(#clip842)" d="M1458.78 482.834 L1458.78 477.686 L1414.46 477.686 L1414.46 452.08 L1458.78 452.08 L1458.78 354.954 L1458.78 452.08 L1503.1 452.08 L1503.1 477.686 L1458.78 477.686 L1458.78 482.834  Z" fill="#008000" fill-rule="evenodd" fill-opacity="1"/>
<polyline clip-path="url(#clip842)" style="stroke:#008000; stroke-linecap:round; stroke-linejoin:round; stroke-width:2; stroke-opacity:1; fill:none" points="1458.78,482.834 1458.78,477.686 1414.46,477.686 1414.46,452.08 1458.78,452.08 1458.78,354.954 1458.78,452.08 1503.1,452.08 1503.1,477.686 1458.78,477.686 1458.78,482.834 "/>
<path clip-path="url(#clip842)" d="M1557.27 456.712 L1557.27 418.109 L1512.95 418.109 L1512.95 279.91 L1557.27 279.91 L1557.27 229.725 L1557.27 279.91 L1601.59 279.91 L1601.59 418.109 L1557.27 418.109 L1557.27 456.712  Z" fill="#008000" fill-rule="evenodd" fill-opacity="1"/>
<polyline clip-path="url(#clip842)" style="stroke:#008000; stroke-linecap:round; stroke-linejoin:round; stroke-width:2; stroke-opacity:1; fill:none" points="1557.27,456.712 1557.27,418.109 1512.95,418.109 1512.95,279.91 1557.27,279.91 1557.27,229.725 1557.27,279.91 1601.59,279.91 1601.59,418.109 1557.27,418.109 1557.27,456.712 "/>
<path clip-path="url(#clip842)" d="M1655.76 360.462 L1655.76 264.726 L1611.44 264.726 L1611.44 254.561 L1655.76 254.561 L1655.76 175.424 L1655.76 254.561 L1700.08 254.561 L1700.08 264.726 L1655.76 264.726 L1655.76 360.462  Z" fill="#ff0000" fill-rule="evenodd" fill-opacity="1"/>
<polyline clip-path="url(#clip842)" style="stroke:#ff0000; stroke-linecap:round; stroke-linejoin:round; stroke-width:2; stroke-opacity:1; fill:none" points="1655.76,360.462 1655.76,264.726 1611.44,264.726 1611.44,254.561 1655.76,254.561 1655.76,175.424 1655.76,254.561 1700.08,254.561 1700.08,264.726 1655.76,264.726 1655.76,360.462 "/>
<path clip-path="url(#clip842)" d="M1754.25 511.786 L1754.25 409.873 L1709.93 409.873 L1709.93 293.807 L1754.25 293.807 L1754.25 286.344 L1754.25 293.807 L1798.57 293.807 L1798.57 409.873 L1754.25 409.873 L1754.25 511.786  Z" fill="#ff0000" fill-rule="evenodd" fill-opacity="1"/>
<polyline clip-path="url(#clip842)" style="stroke:#ff0000; stroke-linecap:round; stroke-linejoin:round; stroke-width:2; stroke-opacity:1; fill:none" points="1754.25,511.786 1754.25,409.873 1709.93,409.873 1709.93,293.807 1754.25,293.807 1754.25,286.344 1754.25,293.807 1798.57,293.807 1798.57,409.873 1754.25,409.873 1754.25,511.786 "/>
<path clip-path="url(#clip842)" d="M1852.73 311.05 L1852.73 266.656 L1808.41 266.656 L1808.41 129.615 L1852.73 129.615 L1852.73 107.225 L1852.73 129.615 L1897.05 129.615 L1897.05 266.656 L1852.73 266.656 L1852.73 311.05  Z" fill="#008000" fill-rule="evenodd" fill-opacity="1"/>
<polyline clip-path="url(#clip842)" style="stroke:#008000; stroke-linecap:round; stroke-linejoin:round; stroke-width:2; stroke-opacity:1; fill:none" points="1852.73,311.05 1852.73,266.656 1808.41,266.656 1808.41,129.615 1852.73,129.615 1852.73,107.225 1852.73,129.615 1897.05,129.615 1897.05,266.656 1852.73,266.656 1852.73,311.05 "/>
<path clip-path="url(#clip842)" d="M1951.22 199.358 L1951.22 191.122 L1906.9 191.122 L1906.9 100.02 L1951.22 100.02 L1951.22 84.5782 L1951.22 100.02 L1995.54 100.02 L1995.54 191.122 L1951.22 191.122 L1951.22 199.358  Z" fill="#008000" fill-rule="evenodd" fill-opacity="1"/>
<polyline clip-path="url(#clip842)" style="stroke:#008000; stroke-linecap:round; stroke-linejoin:round; stroke-width:2; stroke-opacity:1; fill:none" points="1951.22,199.358 1951.22,191.122 1906.9,191.122 1906.9,100.02 1951.22,100.02 1951.22,84.5782 1951.22,100.02 1995.54,100.02 1995.54,191.122 1951.22,191.122 1951.22,199.358 "/>
<path clip-path="url(#clip842)" d="M2049.71 289.432 L2049.71 210.939 L2005.39 210.939 L2005.39 91.1408 L2049.71 91.1408 L2049.71 84.0637 L2049.71 91.1408 L2094.03 91.1408 L2094.03 210.939 L2049.71 210.939 L2049.71 289.432  Z" fill="#ff0000" fill-rule="evenodd" fill-opacity="1"/>
<polyline clip-path="url(#clip842)" style="stroke:#ff0000; stroke-linecap:round; stroke-linejoin:round; stroke-width:2; stroke-opacity:1; fill:none" points="2049.71,289.432 2049.71,210.939 2005.39,210.939 2005.39,91.1408 2049.71,91.1408 2049.71,84.0637 2049.71,91.1408 2094.03,91.1408 2094.03,210.939 2049.71,210.939 2049.71,289.432 "/>
<path clip-path="url(#clip842)" d="M2148.2 453.624 L2148.2 424.8 L2103.88 424.8 L2103.88 325.333 L2148.2 325.333 L2148.2 311.822 L2148.2 325.333 L2192.52 325.333 L2192.52 424.8 L2148.2 424.8 L2148.2 453.624  Z" fill="#ff0000" fill-rule="evenodd" fill-opacity="1"/>
<polyline clip-path="url(#clip842)" style="stroke:#ff0000; stroke-linecap:round; stroke-linejoin:round; stroke-width:2; stroke-opacity:1; fill:none" points="2148.2,453.624 2148.2,424.8 2103.88,424.8 2103.88,325.333 2148.2,325.333 2148.2,311.822 2148.2,325.333 2192.52,325.333 2192.52,424.8 2148.2,424.8 2148.2,453.624 "/>
<path clip-path="url(#clip842)" d="M2246.68 623.22 L2246.68 610.739 L2202.37 610.739 L2202.37 479.874 L2246.68 479.874 L2246.68 424.028 L2246.68 479.874 L2291 479.874 L2291 610.739 L2246.68 610.739 L2246.68 623.22  Z" fill="#008000" fill-rule="evenodd" fill-opacity="1"/>
<polyline clip-path="url(#clip842)" style="stroke:#008000; stroke-linecap:round; stroke-linejoin:round; stroke-width:2; stroke-opacity:1; fill:none" points="2246.68,623.22 2246.68,610.739 2202.37,610.739 2202.37,479.874 2246.68,479.874 2246.68,424.028 2246.68,479.874 2291,479.874 2291,610.739 2246.68,610.739 2246.68,623.22 "/>
<circle clip-path="url(#clip842)" cx="276.929" cy="1108.08" r="3.6" fill="#008000" fill-rule="evenodd" fill-opacity="1" stroke="none"/>
<circle clip-path="url(#clip842)" cx="375.417" cy="1016.59" r="3.6" fill="#008000" fill-rule="evenodd" fill-opacity="1" stroke="none"/>
<circle clip-path="url(#clip842)" cx="473.904" cy="1089.42" r="3.6" fill="#ff0000" fill-rule="evenodd" fill-opacity="1" stroke="none"/>
<circle clip-path="url(#clip842)" cx="572.392" cy="1077.19" r="3.6" fill="#ff0000" fill-rule="evenodd" fill-opacity="1" stroke="none"/>
<circle clip-path="url(#clip842)" cx="670.88" cy="1078.61" r="3.6" fill="#008000" fill-rule="evenodd" fill-opacity="1" stroke="none"/>
<circle clip-path="url(#clip842)" cx="769.368" cy="945.042" r="3.6" fill="#008000" fill-rule="evenodd" fill-opacity="1" stroke="none"/>
<circle clip-path="url(#clip842)" cx="867.856" cy="720.114" r="3.6" fill="#008000" fill-rule="evenodd" fill-opacity="1" stroke="none"/>
<circle clip-path="url(#clip842)" cx="966.343" cy="677.136" r="3.6" fill="#ff0000" fill-rule="evenodd" fill-opacity="1" stroke="none"/>
<circle clip-path="url(#clip842)" cx="1064.83" cy="610.867" r="3.6" fill="#008000" fill-rule="evenodd" fill-opacity="1" stroke="none"/>
<circle clip-path="url(#clip842)" cx="1163.32" cy="226.895" r="3.6" fill="#ff0000" fill-rule="evenodd" fill-opacity="1" stroke="none"/>
<circle clip-path="url(#clip842)" cx="1261.81" cy="337.493" r="3.6" fill="#ff0000" fill-rule="evenodd" fill-opacity="1" stroke="none"/>
<circle clip-path="url(#clip842)" cx="1360.29" cy="317.998" r="3.6" fill="#008000" fill-rule="evenodd" fill-opacity="1" stroke="none"/>
<circle clip-path="url(#clip842)" cx="1458.78" cy="464.883" r="3.6" fill="#008000" fill-rule="evenodd" fill-opacity="1" stroke="none"/>
<circle clip-path="url(#clip842)" cx="1557.27" cy="349.009" r="3.6" fill="#008000" fill-rule="evenodd" fill-opacity="1" stroke="none"/>
<circle clip-path="url(#clip842)" cx="1655.76" cy="259.643" r="3.6" fill="#ff0000" fill-rule="evenodd" fill-opacity="1" stroke="none"/>
<circle clip-path="url(#clip842)" cx="1754.25" cy="351.84" r="3.6" fill="#ff0000" fill-rule="evenodd" fill-opacity="1" stroke="none"/>
<circle clip-path="url(#clip842)" cx="1852.73" cy="198.135" r="3.6" fill="#008000" fill-rule="evenodd" fill-opacity="1" stroke="none"/>
<circle clip-path="url(#clip842)" cx="1951.22" cy="145.571" r="3.6" fill="#008000" fill-rule="evenodd" fill-opacity="1" stroke="none"/>
<circle clip-path="url(#clip842)" cx="2049.71" cy="151.04" r="3.6" fill="#ff0000" fill-rule="evenodd" fill-opacity="1" stroke="none"/>
<circle clip-path="url(#clip842)" cx="2148.2" cy="375.067" r="3.6" fill="#ff0000" fill-rule="evenodd" fill-opacity="1" stroke="none"/>
<circle clip-path="url(#clip842)" cx="2246.68" cy="545.306" r="3.6" fill="#008000" fill-rule="evenodd" fill-opacity="1" stroke="none"/>
</svg>
