<?xml version="1.0" encoding="utf-8"?>
<svg xmlns="http://www.w3.org/2000/svg" xmlns:xlink="http://www.w3.org/1999/xlink" width="600" height="400" viewBox="0 0 2400 1600">
<defs>
  <clipPath id="clip450">
    <rect x="0" y="0" width="2400" height="1600"/>
  </clipPath>
</defs>
<path clip-path="url(#clip450)" d="M0 1600 L2400 1600 L2400 0 L0 0  Z" fill="#ffffff" fill-rule="evenodd" fill-opacity="1"/>
<defs>
  <clipPath id="clip451">
    <rect x="480" y="0" width="1681" height="1600"/>
  </clipPath>
</defs>
<path clip-path="url(#clip450)" d="M214.353 1486.45 L2352.76 1486.45 L2352.76 47.2441 L214.353 47.2441  Z" fill="#ffffff" fill-rule="evenodd" fill-opacity="1"/>
<defs>
  <clipPath id="clip452">
    <rect x="214" y="47" width="2139" height="1440"/>
  </clipPath>
</defs>
<polyline clip-path="url(#clip452)" style="stroke:#000000; stroke-linecap:round; stroke-linejoin:round; stroke-width:2; stroke-opacity:0.1; fill:none" points="274.873,1486.45 274.873,47.2441 "/>
<polyline clip-path="url(#clip452)" style="stroke:#000000; stroke-linecap:round; stroke-linejoin:round; stroke-width:2; stroke-opacity:0.1; fill:none" points="831.387,1486.45 831.387,47.2441 "/>
<polyline clip-path="url(#clip452)" style="stroke:#000000; stroke-linecap:round; stroke-linejoin:round; stroke-width:2; stroke-opacity:0.1; fill:none" points="1387.9,1486.45 1387.9,47.2441 "/>
<polyline clip-path="url(#clip452)" style="stroke:#000000; stroke-linecap:round; stroke-linejoin:round; stroke-width:2; stroke-opacity:0.1; fill:none" points="1944.41,1486.45 1944.41,47.2441 "/>
<polyline clip-path="url(#clip450)" style="stroke:#000000; stroke-linecap:round; stroke-linejoin:round; stroke-width:4; stroke-opacity:1; fill:none" points="214.353,1486.45 2352.76,1486.45 "/>
<polyline clip-path="url(#clip450)" style="stroke:#000000; stroke-linecap:round; stroke-linejoin:round; stroke-width:4; stroke-opacity:1; fill:none" points="274.873,1486.45 274.873,1467.55 "/>
<polyline clip-path="url(#clip450)" style="stroke:#000000; stroke-linecap:round; stroke-linejoin:round; stroke-width:4; stroke-opacity:1; fill:none" points="831.387,1486.45 831.387,1467.55 "/>
<polyline clip-path="url(#clip450)" style="stroke:#000000; stroke-linecap:round; stroke-linejoin:round; stroke-width:4; stroke-opacity:1; fill:none" points="1387.9,1486.45 1387.9,1467.55 "/>
<polyline clip-path="url(#clip450)" style="stroke:#000000; stroke-linecap:round; stroke-linejoin:round; stroke-width:4; stroke-opacity:1; fill:none" points="1944.41,1486.45 1944.41,1467.55 "/>
<path clip-path="url(#clip450)" d="M146.506 1544.91 L162.825 1544.91 L162.825 1548.85 L140.881 1548.85 L140.881 1544.91 Q143.543 1542.16 148.126 1537.53 Q152.733 1532.88 153.913 1531.53 Q156.159 1529.01 157.038 1527.27 Q157.941 1525.51 157.941 1523.82 Q157.941 1521.07 155.997 1519.33 Q154.075 1517.6 150.974 1517.6 Q148.775 1517.6 146.321 1518.36 Q143.89 1519.13 141.113 1520.68 L141.113 1515.95 Q143.937 1514.82 146.39 1514.24 Q148.844 1513.66 150.881 1513.66 Q156.251 1513.66 159.446 1516.35 Q162.64 1519.03 162.64 1523.52 Q162.64 1525.65 161.83 1527.57 Q161.043 1529.47 158.937 1532.07 Q158.358 1532.74 155.256 1535.95 Q152.154 1539.15 146.506 1544.91 Z" fill="#000000" fill-rule="nonzero" fill-opacity="1" /><path clip-path="url(#clip450)" d="M182.64 1517.37 Q179.029 1517.37 177.2 1520.93 Q175.395 1524.47 175.395 1531.6 Q175.395 1538.71 177.2 1542.27 Q179.029 1545.82 182.64 1545.82 Q186.274 1545.82 188.08 1542.27 Q189.909 1538.71 189.909 1531.6 Q189.909 1524.47 188.08 1520.93 Q186.274 1517.37 182.64 1517.37 M182.64 1513.66 Q188.45 1513.66 191.506 1518.27 Q194.584 1522.85 194.584 1531.6 Q194.584 1540.33 191.506 1544.94 Q188.45 1549.52 182.64 1549.52 Q176.83 1549.52 173.751 1544.94 Q170.696 1540.33 170.696 1531.6 Q170.696 1522.85 173.751 1518.27 Q176.83 1513.66 182.64 1513.66 Z" fill="#000000" fill-rule="nonzero" fill-opacity="1" /><path clip-path="url(#clip450)" d="M206.83 1544.91 L223.149 1544.91 L223.149 1548.85 L201.205 1548.85 L201.205 1544.91 Q203.867 1542.16 208.45 1537.53 Q213.057 1532.88 214.237 1531.53 Q216.483 1529.01 217.362 1527.27 Q218.265 1525.51 218.265 1523.82 Q218.265 1521.07 216.32 1519.33 Q214.399 1517.6 211.297 1517.6 Q209.098 1517.6 206.645 1518.36 Q204.214 1519.13 201.436 1520.68 L201.436 1515.95 Q204.26 1514.82 206.714 1514.24 Q209.168 1513.66 211.205 1513.66 Q216.575 1513.66 219.77 1516.35 Q222.964 1519.03 222.964 1523.52 Q222.964 1525.65 222.154 1527.57 Q221.367 1529.47 219.26 1532.07 Q218.682 1532.74 215.58 1535.95 Q212.478 1539.15 206.83 1544.91 Z" fill="#000000" fill-rule="nonzero" fill-opacity="1" /><path clip-path="url(#clip450)" d="M247.13 1530.21 Q250.487 1530.93 252.362 1533.2 Q254.26 1535.47 254.26 1538.8 Q254.26 1543.92 250.742 1546.72 Q247.223 1549.52 240.742 1549.52 Q238.566 1549.52 236.251 1549.08 Q233.959 1548.66 231.506 1547.81 L231.506 1543.29 Q233.45 1544.43 235.765 1545.01 Q238.08 1545.58 240.603 1545.58 Q245.001 1545.58 247.293 1543.85 Q249.607 1542.11 249.607 1538.8 Q249.607 1535.75 247.455 1534.03 Q245.325 1532.3 241.506 1532.3 L237.478 1532.3 L237.478 1528.45 L241.691 1528.45 Q245.14 1528.45 246.968 1527.09 Q248.797 1525.7 248.797 1523.11 Q248.797 1520.45 246.899 1519.03 Q245.024 1517.6 241.506 1517.6 Q239.584 1517.6 237.385 1518.01 Q235.186 1518.43 232.547 1519.31 L232.547 1515.14 Q235.209 1514.4 237.524 1514.03 Q239.862 1513.66 241.922 1513.66 Q247.246 1513.66 250.348 1516.09 Q253.45 1518.5 253.45 1522.62 Q253.45 1525.49 251.806 1527.48 Q250.163 1529.45 247.13 1530.21 Z" fill="#000000" fill-rule="nonzero" fill-opacity="1" /><path clip-path="url(#clip450)" d="M260.371 1533.96 L272.848 1533.96 L272.848 1537.76 L260.371 1537.76 L260.371 1533.96 Z" fill="#000000" fill-rule="nonzero" fill-opacity="1" /><path clip-path="url(#clip450)" d="M281.042 1544.91 L288.681 1544.91 L288.681 1518.55 L280.371 1520.21 L280.371 1515.95 L288.635 1514.29 L293.311 1514.29 L293.311 1544.91 L300.95 1544.91 L300.95 1548.85 L281.042 1548.85 L281.042 1544.91 Z" fill="#000000" fill-rule="nonzero" fill-opacity="1" /><path clip-path="url(#clip450)" d="M311.204 1544.91 L318.843 1544.91 L318.843 1518.55 L310.533 1520.21 L310.533 1515.95 L318.797 1514.29 L323.473 1514.29 L323.473 1544.91 L331.112 1544.91 L331.112 1548.85 L311.204 1548.85 L311.204 1544.91 Z" fill="#000000" fill-rule="nonzero" fill-opacity="1" /><path clip-path="url(#clip450)" d="M337.801 1533.96 L350.278 1533.96 L350.278 1537.76 L337.801 1537.76 L337.801 1533.96 Z" fill="#000000" fill-rule="nonzero" fill-opacity="1" /><path clip-path="url(#clip450)" d="M367.662 1517.37 Q364.051 1517.37 362.222 1520.93 Q360.417 1524.47 360.417 1531.6 Q360.417 1538.71 362.222 1542.27 Q364.051 1545.82 367.662 1545.82 Q371.296 1545.82 373.102 1542.27 Q374.931 1538.71 374.931 1531.6 Q374.931 1524.47 373.102 1520.93 Q371.296 1517.37 367.662 1517.37 M367.662 1513.66 Q373.472 1513.66 376.528 1518.27 Q379.607 1522.85 379.607 1531.6 Q379.607 1540.33 376.528 1544.94 Q373.472 1549.52 367.662 1549.52 Q361.852 1549.52 358.773 1544.94 Q355.718 1540.33 355.718 1531.6 Q355.718 1522.85 358.773 1518.27 Q361.852 1513.66 367.662 1513.66 Z" fill="#000000" fill-rule="nonzero" fill-opacity="1" /><path clip-path="url(#clip450)" d="M386.644 1514.29 L408.866 1514.29 L408.866 1516.28 L396.32 1548.85 L391.435 1548.85 L403.241 1518.22 L386.644 1518.22 L386.644 1514.29 Z" fill="#000000" fill-rule="nonzero" fill-opacity="1" /><path clip-path="url(#clip450)" d="M703.066 1544.91 L719.385 1544.91 L719.385 1548.85 L697.441 1548.85 L697.441 1544.91 Q700.103 1542.16 704.686 1537.53 Q709.293 1532.88 710.473 1531.53 Q712.719 1529.01 713.598 1527.27 Q714.501 1525.51 714.501 1523.82 Q714.501 1521.07 712.557 1519.33 Q710.635 1517.6 707.533 1517.6 Q705.334 1517.6 702.881 1518.36 Q700.45 1519.13 697.672 1520.68 L697.672 1515.95 Q700.496 1514.82 702.95 1514.24 Q705.404 1513.66 707.441 1513.66 Q712.811 1513.66 716.006 1516.35 Q719.2 1519.03 719.2 1523.52 Q719.2 1525.65 718.39 1527.57 Q717.603 1529.47 715.496 1532.07 Q714.918 1532.74 711.816 1535.95 Q708.714 1539.15 703.066 1544.91 Z" fill="#000000" fill-rule="nonzero" fill-opacity="1" /><path clip-path="url(#clip450)" d="M739.2 1517.37 Q735.589 1517.37 733.76 1520.93 Q731.955 1524.47 731.955 1531.6 Q731.955 1538.71 733.76 1542.27 Q735.589 1545.82 739.2 1545.82 Q742.834 1545.82 744.64 1542.27 Q746.468 1538.71 746.468 1531.6 Q746.468 1524.47 744.64 1520.93 Q742.834 1517.37 739.2 1517.37 M739.2 1513.66 Q745.01 1513.66 748.066 1518.27 Q751.144 1522.85 751.144 1531.6 Q751.144 1540.33 748.066 1544.94 Q745.01 1549.52 739.2 1549.52 Q733.39 1549.52 730.311 1544.94 Q727.256 1540.33 727.256 1531.6 Q727.256 1522.85 730.311 1518.27 Q733.39 1513.66 739.2 1513.66 Z" fill="#000000" fill-rule="nonzero" fill-opacity="1" /><path clip-path="url(#clip450)" d="M763.39 1544.91 L779.709 1544.91 L779.709 1548.85 L757.765 1548.85 L757.765 1544.91 Q760.427 1542.16 765.01 1537.53 Q769.616 1532.88 770.797 1531.53 Q773.042 1529.01 773.922 1527.27 Q774.825 1525.51 774.825 1523.82 Q774.825 1521.07 772.88 1519.33 Q770.959 1517.6 767.857 1517.6 Q765.658 1517.6 763.204 1518.36 Q760.774 1519.13 757.996 1520.68 L757.996 1515.95 Q760.82 1514.82 763.274 1514.24 Q765.728 1513.66 767.765 1513.66 Q773.135 1513.66 776.329 1516.35 Q779.524 1519.03 779.524 1523.52 Q779.524 1525.65 778.714 1527.57 Q777.927 1529.47 775.82 1532.07 Q775.241 1532.74 772.14 1535.95 Q769.038 1539.15 763.39 1544.91 Z" fill="#000000" fill-rule="nonzero" fill-opacity="1" /><path clip-path="url(#clip450)" d="M803.69 1530.21 Q807.047 1530.93 808.922 1533.2 Q810.82 1535.47 810.82 1538.8 Q810.82 1543.92 807.301 1546.72 Q803.783 1549.52 797.301 1549.52 Q795.126 1549.52 792.811 1549.08 Q790.519 1548.66 788.065 1547.81 L788.065 1543.29 Q790.01 1544.43 792.325 1545.01 Q794.639 1545.58 797.163 1545.58 Q801.561 1545.58 803.852 1543.85 Q806.167 1542.11 806.167 1538.8 Q806.167 1535.75 804.014 1534.03 Q801.885 1532.3 798.065 1532.3 L794.038 1532.3 L794.038 1528.45 L798.251 1528.45 Q801.7 1528.45 803.528 1527.09 Q805.357 1525.7 805.357 1523.11 Q805.357 1520.45 803.459 1519.03 Q801.584 1517.6 798.065 1517.6 Q796.144 1517.6 793.945 1518.01 Q791.746 1518.43 789.107 1519.31 L789.107 1515.14 Q791.769 1514.4 794.084 1514.03 Q796.422 1513.66 798.482 1513.66 Q803.806 1513.66 806.908 1516.09 Q810.01 1518.5 810.01 1522.62 Q810.01 1525.49 808.366 1527.48 Q806.723 1529.45 803.69 1530.21 Z" fill="#000000" fill-rule="nonzero" fill-opacity="1" /><path clip-path="url(#clip450)" d="M816.931 1533.96 L829.408 1533.96 L829.408 1537.76 L816.931 1537.76 L816.931 1533.96 Z" fill="#000000" fill-rule="nonzero" fill-opacity="1" /><path clip-path="url(#clip450)" d="M837.602 1544.91 L845.241 1544.91 L845.241 1518.55 L836.931 1520.21 L836.931 1515.95 L845.195 1514.29 L849.871 1514.29 L849.871 1544.91 L857.51 1544.91 L857.51 1548.85 L837.602 1548.85 L837.602 1544.91 Z" fill="#000000" fill-rule="nonzero" fill-opacity="1" /><path clip-path="url(#clip450)" d="M867.764 1544.91 L875.403 1544.91 L875.403 1518.55 L867.093 1520.21 L867.093 1515.95 L875.357 1514.29 L880.033 1514.29 L880.033 1544.91 L887.671 1544.91 L887.671 1548.85 L867.764 1548.85 L867.764 1544.91 Z" fill="#000000" fill-rule="nonzero" fill-opacity="1" /><path clip-path="url(#clip450)" d="M894.361 1533.96 L906.838 1533.96 L906.838 1537.76 L894.361 1537.76 L894.361 1533.96 Z" fill="#000000" fill-rule="nonzero" fill-opacity="1" /><path clip-path="url(#clip450)" d="M915.032 1544.91 L922.671 1544.91 L922.671 1518.55 L914.361 1520.21 L914.361 1515.95 L922.625 1514.29 L927.301 1514.29 L927.301 1544.91 L934.94 1544.91 L934.94 1548.85 L915.032 1548.85 L915.032 1544.91 Z" fill="#000000" fill-rule="nonzero" fill-opacity="1" /><path clip-path="url(#clip450)" d="M944.43 1514.29 L962.787 1514.29 L962.787 1518.22 L948.713 1518.22 L948.713 1526.7 Q949.731 1526.35 950.75 1526.19 Q951.768 1526 952.787 1526 Q958.574 1526 961.953 1529.17 Q965.333 1532.34 965.333 1537.76 Q965.333 1543.34 961.861 1546.44 Q958.389 1549.52 952.069 1549.52 Q949.893 1549.52 947.625 1549.15 Q945.379 1548.78 942.972 1548.04 L942.972 1543.34 Q945.055 1544.47 947.278 1545.03 Q949.5 1545.58 951.977 1545.58 Q955.981 1545.58 958.319 1543.48 Q960.657 1541.37 960.657 1537.76 Q960.657 1534.15 958.319 1532.04 Q955.981 1529.94 951.977 1529.94 Q950.102 1529.94 948.227 1530.35 Q946.375 1530.77 944.43 1531.65 L944.43 1514.29 Z" fill="#000000" fill-rule="nonzero" fill-opacity="1" /><path clip-path="url(#clip450)" d="M1259.41 1544.91 L1275.73 1544.91 L1275.73 1548.85 L1253.78 1548.85 L1253.78 1544.91 Q1256.44 1542.16 1261.03 1537.53 Q1265.63 1532.88 1266.81 1531.53 Q1269.06 1529.01 1269.94 1527.27 Q1270.84 1525.51 1270.84 1523.82 Q1270.84 1521.07 1268.9 1519.33 Q1266.98 1517.6 1263.87 1517.6 Q1261.67 1517.6 1259.22 1518.36 Q1256.79 1519.13 1254.01 1520.68 L1254.01 1515.95 Q1256.84 1514.82 1259.29 1514.24 Q1261.74 1513.66 1263.78 1513.66 Q1269.15 1513.66 1272.35 1516.35 Q1275.54 1519.03 1275.54 1523.52 Q1275.54 1525.65 1274.73 1527.57 Q1273.94 1529.47 1271.84 1532.07 Q1271.26 1532.74 1268.16 1535.95 Q1265.05 1539.15 1259.41 1544.91 Z" fill="#000000" fill-rule="nonzero" fill-opacity="1" /><path clip-path="url(#clip450)" d="M1295.54 1517.37 Q1291.93 1517.37 1290.1 1520.93 Q1288.29 1524.47 1288.29 1531.6 Q1288.29 1538.71 1290.1 1542.27 Q1291.93 1545.82 1295.54 1545.82 Q1299.17 1545.82 1300.98 1542.27 Q1302.81 1538.71 1302.81 1531.6 Q1302.81 1524.47 1300.98 1520.93 Q1299.17 1517.37 1295.54 1517.37 M1295.54 1513.66 Q1301.35 1513.66 1304.41 1518.27 Q1307.48 1522.85 1307.48 1531.6 Q1307.48 1540.33 1304.41 1544.94 Q1301.35 1549.52 1295.54 1549.52 Q1289.73 1549.52 1286.65 1544.94 Q1283.6 1540.33 1283.6 1531.6 Q1283.6 1522.85 1286.65 1518.27 Q1289.73 1513.66 1295.54 1513.66 Z" fill="#000000" fill-rule="nonzero" fill-opacity="1" /><path clip-path="url(#clip450)" d="M1319.73 1544.91 L1336.05 1544.91 L1336.05 1548.85 L1314.1 1548.85 L1314.1 1544.91 Q1316.77 1542.16 1321.35 1537.53 Q1325.96 1532.88 1327.14 1531.53 Q1329.38 1529.01 1330.26 1527.27 Q1331.16 1525.51 1331.16 1523.82 Q1331.16 1521.07 1329.22 1519.33 Q1327.3 1517.6 1324.2 1517.6 Q1322 1517.6 1319.54 1518.36 Q1317.11 1519.13 1314.34 1520.68 L1314.34 1515.95 Q1317.16 1514.82 1319.61 1514.24 Q1322.07 1513.66 1324.1 1513.66 Q1329.47 1513.66 1332.67 1516.35 Q1335.86 1519.03 1335.86 1523.52 Q1335.86 1525.65 1335.05 1527.57 Q1334.27 1529.47 1332.16 1532.07 Q1331.58 1532.74 1328.48 1535.95 Q1325.38 1539.15 1319.73 1544.91 Z" fill="#000000" fill-rule="nonzero" fill-opacity="1" /><path clip-path="url(#clip450)" d="M1360.03 1530.21 Q1363.39 1530.93 1365.26 1533.2 Q1367.16 1535.47 1367.16 1538.8 Q1367.16 1543.92 1363.64 1546.72 Q1360.12 1549.52 1353.64 1549.52 Q1351.47 1549.52 1349.15 1549.08 Q1346.86 1548.66 1344.41 1547.81 L1344.41 1543.29 Q1346.35 1544.43 1348.66 1545.01 Q1350.98 1545.58 1353.5 1545.58 Q1357.9 1545.58 1360.19 1543.85 Q1362.51 1542.11 1362.51 1538.8 Q1362.51 1535.75 1360.35 1534.03 Q1358.22 1532.3 1354.41 1532.3 L1350.38 1532.3 L1350.38 1528.45 L1354.59 1528.45 Q1358.04 1528.45 1359.87 1527.09 Q1361.7 1525.7 1361.7 1523.11 Q1361.7 1520.45 1359.8 1519.03 Q1357.92 1517.6 1354.41 1517.6 Q1352.48 1517.6 1350.28 1518.01 Q1348.09 1518.43 1345.45 1519.31 L1345.45 1515.14 Q1348.11 1514.4 1350.42 1514.03 Q1352.76 1513.66 1354.82 1513.66 Q1360.15 1513.66 1363.25 1516.09 Q1366.35 1518.5 1366.35 1522.62 Q1366.35 1525.49 1364.71 1527.48 Q1363.06 1529.45 1360.03 1530.21 Z" fill="#000000" fill-rule="nonzero" fill-opacity="1" /><path clip-path="url(#clip450)" d="M1373.27 1533.96 L1385.75 1533.96 L1385.75 1537.76 L1373.27 1537.76 L1373.27 1533.96 Z" fill="#000000" fill-rule="nonzero" fill-opacity="1" /><path clip-path="url(#clip450)" d="M1393.94 1544.91 L1401.58 1544.91 L1401.58 1518.55 L1393.27 1520.21 L1393.27 1515.95 L1401.53 1514.29 L1406.21 1514.29 L1406.21 1544.91 L1413.85 1544.91 L1413.85 1548.85 L1393.94 1548.85 L1393.94 1544.91 Z" fill="#000000" fill-rule="nonzero" fill-opacity="1" /><path clip-path="url(#clip450)" d="M1424.1 1544.91 L1431.74 1544.91 L1431.74 1518.55 L1423.43 1520.21 L1423.43 1515.95 L1431.7 1514.29 L1436.37 1514.29 L1436.37 1544.91 L1444.01 1544.91 L1444.01 1548.85 L1424.1 1548.85 L1424.1 1544.91 Z" fill="#000000" fill-rule="nonzero" fill-opacity="1" /><path clip-path="url(#clip450)" d="M1450.7 1533.96 L1463.18 1533.96 L1463.18 1537.76 L1450.7 1537.76 L1450.7 1533.96 Z" fill="#000000" fill-rule="nonzero" fill-opacity="1" /><path clip-path="url(#clip450)" d="M1474.59 1544.91 L1490.91 1544.91 L1490.91 1548.85 L1468.96 1548.85 L1468.96 1544.91 Q1471.63 1542.16 1476.21 1537.53 Q1480.82 1532.88 1482 1531.53 Q1484.24 1529.01 1485.12 1527.27 Q1486.02 1525.51 1486.02 1523.82 Q1486.02 1521.07 1484.08 1519.33 Q1482.16 1517.6 1479.06 1517.6 Q1476.86 1517.6 1474.4 1518.36 Q1471.97 1519.13 1469.2 1520.68 L1469.2 1515.95 Q1472.02 1514.82 1474.47 1514.24 Q1476.93 1513.66 1478.96 1513.66 Q1484.34 1513.66 1487.53 1516.35 Q1490.72 1519.03 1490.72 1523.52 Q1490.72 1525.65 1489.91 1527.57 Q1489.13 1529.47 1487.02 1532.07 Q1486.44 1532.74 1483.34 1535.95 Q1480.24 1539.15 1474.59 1544.91 Z" fill="#000000" fill-rule="nonzero" fill-opacity="1" /><path clip-path="url(#clip450)" d="M1514.89 1530.21 Q1518.25 1530.93 1520.12 1533.2 Q1522.02 1535.47 1522.02 1538.8 Q1522.02 1543.92 1518.5 1546.72 Q1514.98 1549.52 1508.5 1549.52 Q1506.33 1549.52 1504.01 1549.08 Q1501.72 1548.66 1499.27 1547.81 L1499.27 1543.29 Q1501.21 1544.43 1503.52 1545.01 Q1505.84 1545.58 1508.36 1545.58 Q1512.76 1545.58 1515.05 1543.85 Q1517.37 1542.11 1517.37 1538.8 Q1517.37 1535.75 1515.21 1534.03 Q1513.09 1532.3 1509.27 1532.3 L1505.24 1532.3 L1505.24 1528.45 L1509.45 1528.45 Q1512.9 1528.45 1514.73 1527.09 Q1516.56 1525.7 1516.56 1523.11 Q1516.56 1520.45 1514.66 1519.03 Q1512.78 1517.6 1509.27 1517.6 Q1507.34 1517.6 1505.15 1518.01 Q1502.95 1518.43 1500.31 1519.31 L1500.31 1515.14 Q1502.97 1514.4 1505.28 1514.03 Q1507.62 1513.66 1509.68 1513.66 Q1515.01 1513.66 1518.11 1516.09 Q1521.21 1518.5 1521.21 1522.62 Q1521.21 1525.49 1519.57 1527.48 Q1517.92 1529.45 1514.89 1530.21 Z" fill="#000000" fill-rule="nonzero" fill-opacity="1" /><path clip-path="url(#clip450)" d="M1816.21 1544.91 L1832.53 1544.91 L1832.53 1548.85 L1810.58 1548.85 L1810.58 1544.91 Q1813.25 1542.16 1817.83 1537.53 Q1822.44 1532.88 1823.62 1531.53 Q1825.86 1529.01 1826.74 1527.27 Q1827.64 1525.51 1827.64 1523.82 Q1827.64 1521.07 1825.7 1519.33 Q1823.78 1517.6 1820.68 1517.6 Q1818.48 1517.6 1816.02 1518.36 Q1813.59 1519.13 1810.82 1520.68 L1810.82 1515.95 Q1813.64 1514.82 1816.09 1514.24 Q1818.55 1513.66 1820.58 1513.66 Q1825.95 1513.66 1829.15 1516.35 Q1832.34 1519.03 1832.34 1523.52 Q1832.34 1525.65 1831.53 1527.57 Q1830.75 1529.47 1828.64 1532.07 Q1828.06 1532.74 1824.96 1535.95 Q1821.86 1539.15 1816.21 1544.91 Z" fill="#000000" fill-rule="nonzero" fill-opacity="1" /><path clip-path="url(#clip450)" d="M1852.34 1517.37 Q1848.73 1517.37 1846.9 1520.93 Q1845.1 1524.47 1845.1 1531.6 Q1845.1 1538.71 1846.9 1542.27 Q1848.73 1545.82 1852.34 1545.82 Q1855.98 1545.82 1857.78 1542.27 Q1859.61 1538.71 1859.61 1531.6 Q1859.61 1524.47 1857.78 1520.93 Q1855.98 1517.37 1852.34 1517.37 M1852.34 1513.66 Q1858.15 1513.66 1861.21 1518.27 Q1864.29 1522.85 1864.29 1531.6 Q1864.29 1540.33 1861.21 1544.94 Q1858.15 1549.52 1852.34 1549.52 Q1846.53 1549.52 1843.45 1544.94 Q1840.4 1540.33 1840.4 1531.6 Q1840.4 1522.85 1843.45 1518.27 Q1846.53 1513.66 1852.34 1513.66 Z" fill="#000000" fill-rule="nonzero" fill-opacity="1" /><path clip-path="url(#clip450)" d="M1876.53 1544.91 L1892.85 1544.91 L1892.85 1548.85 L1870.91 1548.85 L1870.91 1544.91 Q1873.57 1542.16 1878.15 1537.53 Q1882.76 1532.88 1883.94 1531.53 Q1886.19 1529.01 1887.06 1527.27 Q1887.97 1525.51 1887.97 1523.82 Q1887.97 1521.07 1886.02 1519.33 Q1884.1 1517.6 1881 1517.6 Q1878.8 1517.6 1876.35 1518.36 Q1873.92 1519.13 1871.14 1520.68 L1871.14 1515.95 Q1873.96 1514.82 1876.42 1514.24 Q1878.87 1513.66 1880.91 1513.66 Q1886.28 1513.66 1889.47 1516.35 Q1892.67 1519.03 1892.67 1523.52 Q1892.67 1525.65 1891.86 1527.57 Q1891.07 1529.47 1888.96 1532.07 Q1888.38 1532.74 1885.28 1535.95 Q1882.18 1539.15 1876.53 1544.91 Z" fill="#000000" fill-rule="nonzero" fill-opacity="1" /><path clip-path="url(#clip450)" d="M1916.83 1530.21 Q1920.19 1530.93 1922.06 1533.2 Q1923.96 1535.47 1923.96 1538.8 Q1923.96 1543.92 1920.44 1546.72 Q1916.93 1549.52 1910.44 1549.52 Q1908.27 1549.52 1905.95 1549.08 Q1903.66 1548.66 1901.21 1547.81 L1901.21 1543.29 Q1903.15 1544.43 1905.47 1545.01 Q1907.78 1545.58 1910.31 1545.58 Q1914.7 1545.58 1917 1543.85 Q1919.31 1542.11 1919.31 1538.8 Q1919.31 1535.75 1917.16 1534.03 Q1915.03 1532.3 1911.21 1532.3 L1907.18 1532.3 L1907.18 1528.45 L1911.39 1528.45 Q1914.84 1528.45 1916.67 1527.09 Q1918.5 1525.7 1918.5 1523.11 Q1918.5 1520.45 1916.6 1519.03 Q1914.73 1517.6 1911.21 1517.6 Q1909.29 1517.6 1907.09 1518.01 Q1904.89 1518.43 1902.25 1519.31 L1902.25 1515.14 Q1904.91 1514.4 1907.23 1514.03 Q1909.56 1513.66 1911.62 1513.66 Q1916.95 1513.66 1920.05 1516.09 Q1923.15 1518.5 1923.15 1522.62 Q1923.15 1525.49 1921.51 1527.48 Q1919.87 1529.45 1916.83 1530.21 Z" fill="#000000" fill-rule="nonzero" fill-opacity="1" /><path clip-path="url(#clip450)" d="M1930.07 1533.96 L1942.55 1533.96 L1942.55 1537.76 L1930.07 1537.76 L1930.07 1533.96 Z" fill="#000000" fill-rule="nonzero" fill-opacity="1" /><path clip-path="url(#clip450)" d="M1950.75 1544.91 L1958.38 1544.91 L1958.38 1518.55 L1950.07 1520.21 L1950.07 1515.95 L1958.34 1514.29 L1963.01 1514.29 L1963.01 1544.91 L1970.65 1544.91 L1970.65 1548.85 L1950.75 1548.85 L1950.75 1544.91 Z" fill="#000000" fill-rule="nonzero" fill-opacity="1" /><path clip-path="url(#clip450)" d="M1984.12 1544.91 L2000.44 1544.91 L2000.44 1548.85 L1978.5 1548.85 L1978.5 1544.91 Q1981.16 1542.16 1985.74 1537.53 Q1990.35 1532.88 1991.53 1531.53 Q1993.78 1529.01 1994.66 1527.27 Q1995.56 1525.51 1995.56 1523.82 Q1995.56 1521.07 1993.62 1519.33 Q1991.69 1517.6 1988.59 1517.6 Q1986.39 1517.6 1983.94 1518.36 Q1981.51 1519.13 1978.73 1520.68 L1978.73 1515.95 Q1981.56 1514.82 1984.01 1514.24 Q1986.46 1513.66 1988.5 1513.66 Q1993.87 1513.66 1997.06 1516.35 Q2000.26 1519.03 2000.26 1523.52 Q2000.26 1525.65 1999.45 1527.57 Q1998.66 1529.47 1996.56 1532.07 Q1995.98 1532.74 1992.87 1535.95 Q1989.77 1539.15 1984.12 1544.91 Z" fill="#000000" fill-rule="nonzero" fill-opacity="1" /><path clip-path="url(#clip450)" d="M2007.5 1533.96 L2019.98 1533.96 L2019.98 1537.76 L2007.5 1537.76 L2007.5 1533.96 Z" fill="#000000" fill-rule="nonzero" fill-opacity="1" /><path clip-path="url(#clip450)" d="M2037.36 1517.37 Q2033.75 1517.37 2031.93 1520.93 Q2030.12 1524.47 2030.12 1531.6 Q2030.12 1538.71 2031.93 1542.27 Q2033.75 1545.82 2037.36 1545.82 Q2041 1545.82 2042.8 1542.27 Q2044.63 1538.71 2044.63 1531.6 Q2044.63 1524.47 2042.8 1520.93 Q2041 1517.37 2037.36 1517.37 M2037.36 1513.66 Q2043.18 1513.66 2046.23 1518.27 Q2049.31 1522.85 2049.31 1531.6 Q2049.31 1540.33 2046.23 1544.94 Q2043.18 1549.52 2037.36 1549.52 Q2031.55 1549.52 2028.48 1544.94 Q2025.42 1540.33 2025.42 1531.6 Q2025.42 1522.85 2028.48 1518.27 Q2031.55 1513.66 2037.36 1513.66 Z" fill="#000000" fill-rule="nonzero" fill-opacity="1" /><path clip-path="url(#clip450)" d="M2058.34 1544.91 L2065.98 1544.91 L2065.98 1518.55 L2057.67 1520.21 L2057.67 1515.95 L2065.93 1514.29 L2070.61 1514.29 L2070.61 1544.91 L2078.24 1544.91 L2078.24 1548.85 L2058.34 1548.85 L2058.34 1544.91 Z" fill="#000000" fill-rule="nonzero" fill-opacity="1" /><polyline clip-path="url(#clip452)" style="stroke:#000000; stroke-linecap:round; stroke-linejoin:round; stroke-width:2; stroke-opacity:0.1; fill:none" points="214.353,1376.09 2352.76,1376.09 "/>
<polyline clip-path="url(#clip452)" style="stroke:#000000; stroke-linecap:round; stroke-linejoin:round; stroke-width:2; stroke-opacity:0.1; fill:none" points="214.353,1085.97 2352.76,1085.97 "/>
<polyline clip-path="url(#clip452)" style="stroke:#000000; stroke-linecap:round; stroke-linejoin:round; stroke-width:2; stroke-opacity:0.1; fill:none" points="214.353,795.857 2352.76,795.857 "/>
<polyline clip-path="url(#clip452)" style="stroke:#000000; stroke-linecap:round; stroke-linejoin:round; stroke-width:2; stroke-opacity:0.1; fill:none" points="214.353,505.743 2352.76,505.743 "/>
<polyline clip-path="url(#clip452)" style="stroke:#000000; stroke-linecap:round; stroke-linejoin:round; stroke-width:2; stroke-opacity:0.1; fill:none" points="214.353,215.628 2352.76,215.628 "/>
<polyline clip-path="url(#clip450)" style="stroke:#000000; stroke-linecap:round; stroke-linejoin:round; stroke-width:4; stroke-opacity:1; fill:none" points="214.353,1486.45 214.353,47.2441 "/>
<polyline clip-path="url(#clip450)" style="stroke:#000000; stroke-linecap:round; stroke-linejoin:round; stroke-width:4; stroke-opacity:1; fill:none" points="214.353,1376.09 233.25,1376.09 "/>
<polyline clip-path="url(#clip450)" style="stroke:#000000; stroke-linecap:round; stroke-linejoin:round; stroke-width:4; stroke-opacity:1; fill:none" points="214.353,1085.97 233.25,1085.97 "/>
<polyline clip-path="url(#clip450)" style="stroke:#000000; stroke-linecap:round; stroke-linejoin:round; stroke-width:4; stroke-opacity:1; fill:none" points="214.353,795.857 233.25,795.857 "/>
<polyline clip-path="url(#clip450)" style="stroke:#000000; stroke-linecap:round; stroke-linejoin:round; stroke-width:4; stroke-opacity:1; fill:none" points="214.353,505.743 233.25,505.743 "/>
<polyline clip-path="url(#clip450)" style="stroke:#000000; stroke-linecap:round; stroke-linejoin:round; stroke-width:4; stroke-opacity:1; fill:none" points="214.353,215.628 233.25,215.628 "/>
<path clip-path="url(#clip450)" d="M51.6634 1389.43 L59.3023 1389.43 L59.3023 1363.07 L50.9921 1364.73 L50.9921 1360.47 L59.256 1358.81 L63.9319 1358.81 L63.9319 1389.43 L71.5707 1389.43 L71.5707 1393.37 L51.6634 1393.37 L51.6634 1389.43 Z" fill="#000000" fill-rule="nonzero" fill-opacity="1" /><path clip-path="url(#clip450)" d="M95.1817 1374.73 Q98.5382 1375.45 100.413 1377.72 Q102.311 1379.99 102.311 1383.32 Q102.311 1388.44 98.7928 1391.24 Q95.2743 1394.04 88.7928 1394.04 Q86.6169 1394.04 84.3021 1393.6 Q82.0105 1393.18 79.5568 1392.33 L79.5568 1387.81 Q81.5012 1388.95 83.816 1389.52 Q86.1308 1390.1 88.654 1390.1 Q93.0521 1390.1 95.3437 1388.37 Q97.6585 1386.63 97.6585 1383.32 Q97.6585 1380.27 95.5058 1378.55 Q93.3762 1376.82 89.5567 1376.82 L85.529 1376.82 L85.529 1372.97 L89.7419 1372.97 Q93.191 1372.97 95.0197 1371.61 Q96.8484 1370.22 96.8484 1367.63 Q96.8484 1364.96 94.9502 1363.55 Q93.0752 1362.12 89.5567 1362.12 Q87.6354 1362.12 85.4364 1362.53 Q83.2373 1362.95 80.5984 1363.83 L80.5984 1359.66 Q83.2605 1358.92 85.5753 1358.55 Q87.9132 1358.18 89.9734 1358.18 Q95.2974 1358.18 98.3993 1360.61 Q101.501 1363.02 101.501 1367.14 Q101.501 1370.01 99.8576 1372 Q98.2141 1373.97 95.1817 1374.73 Z" fill="#000000" fill-rule="nonzero" fill-opacity="1" /><path clip-path="url(#clip450)" d="M121.177 1361.89 Q117.566 1361.89 115.737 1365.45 Q113.932 1368.99 113.932 1376.12 Q113.932 1383.23 115.737 1386.79 Q117.566 1390.34 121.177 1390.34 Q124.811 1390.34 126.617 1386.79 Q128.445 1383.23 128.445 1376.12 Q128.445 1368.99 126.617 1365.45 Q124.811 1361.89 121.177 1361.89 M121.177 1358.18 Q126.987 1358.18 130.043 1362.79 Q133.121 1367.37 133.121 1376.12 Q133.121 1384.85 130.043 1389.46 Q126.987 1394.04 121.177 1394.04 Q115.367 1394.04 112.288 1389.46 Q109.233 1384.85 109.233 1376.12 Q109.233 1367.37 112.288 1362.79 Q115.367 1358.18 121.177 1358.18 Z" fill="#000000" fill-rule="nonzero" fill-opacity="1" /><path clip-path="url(#clip450)" d="M141.339 1387.49 L146.223 1387.49 L146.223 1393.37 L141.339 1393.37 L141.339 1387.49 Z" fill="#000000" fill-rule="nonzero" fill-opacity="1" /><path clip-path="url(#clip450)" d="M166.408 1361.89 Q162.797 1361.89 160.968 1365.45 Q159.163 1368.99 159.163 1376.12 Q159.163 1383.23 160.968 1386.79 Q162.797 1390.34 166.408 1390.34 Q170.042 1390.34 171.848 1386.79 Q173.677 1383.23 173.677 1376.12 Q173.677 1368.99 171.848 1365.45 Q170.042 1361.89 166.408 1361.89 M166.408 1358.18 Q172.218 1358.18 175.274 1362.79 Q178.353 1367.37 178.353 1376.12 Q178.353 1384.85 175.274 1389.46 Q172.218 1394.04 166.408 1394.04 Q160.598 1394.04 157.519 1389.46 Q154.464 1384.85 154.464 1376.12 Q154.464 1367.37 157.519 1362.79 Q160.598 1358.18 166.408 1358.18 Z" fill="#000000" fill-rule="nonzero" fill-opacity="1" /><path clip-path="url(#clip450)" d="M52.6588 1099.32 L60.2976 1099.32 L60.2976 1072.95 L51.9875 1074.62 L51.9875 1070.36 L60.2513 1068.69 L64.9272 1068.69 L64.9272 1099.32 L72.5661 1099.32 L72.5661 1103.25 L52.6588 1103.25 L52.6588 1099.32 Z" fill="#000000" fill-rule="nonzero" fill-opacity="1" /><path clip-path="url(#clip450)" d="M96.1771 1084.62 Q99.5335 1085.34 101.409 1087.6 Q103.307 1089.87 103.307 1093.21 Q103.307 1098.32 99.7882 1101.12 Q96.2697 1103.92 89.7882 1103.92 Q87.6123 1103.92 85.2975 1103.48 Q83.0058 1103.07 80.5522 1102.21 L80.5522 1097.7 Q82.4966 1098.83 84.8114 1099.41 Q87.1262 1099.99 89.6493 1099.99 Q94.0475 1099.99 96.3391 1098.25 Q98.6539 1096.52 98.6539 1093.21 Q98.6539 1090.15 96.5011 1088.44 Q94.3715 1086.7 90.5521 1086.7 L86.5243 1086.7 L86.5243 1082.86 L90.7373 1082.86 Q94.1863 1082.86 96.015 1081.49 Q97.8437 1080.1 97.8437 1077.51 Q97.8437 1074.85 95.9456 1073.44 Q94.0706 1072 90.5521 1072 Q88.6308 1072 86.4318 1072.42 Q84.2327 1072.84 81.5938 1073.72 L81.5938 1069.55 Q84.2558 1068.81 86.5706 1068.44 Q88.9086 1068.07 90.9688 1068.07 Q96.2928 1068.07 99.3946 1070.5 Q102.496 1072.91 102.496 1077.03 Q102.496 1079.9 100.853 1081.89 Q99.2095 1083.85 96.1771 1084.62 Z" fill="#000000" fill-rule="nonzero" fill-opacity="1" /><path clip-path="url(#clip450)" d="M116.2 1099.32 L132.519 1099.32 L132.519 1103.25 L110.575 1103.25 L110.575 1099.32 Q113.237 1096.56 117.82 1091.93 Q122.427 1087.28 123.607 1085.94 Q125.853 1083.41 126.732 1081.68 Q127.635 1079.92 127.635 1078.23 Q127.635 1075.47 125.691 1073.74 Q123.77 1072 120.668 1072 Q118.469 1072 116.015 1072.77 Q113.584 1073.53 110.807 1075.08 L110.807 1070.36 Q113.631 1069.22 116.084 1068.65 Q118.538 1068.07 120.575 1068.07 Q125.945 1068.07 129.14 1070.75 Q132.334 1073.44 132.334 1077.93 Q132.334 1080.06 131.524 1081.98 Q130.737 1083.88 128.631 1086.47 Q128.052 1087.14 124.95 1090.36 Q121.848 1093.55 116.2 1099.32 Z" fill="#000000" fill-rule="nonzero" fill-opacity="1" /><path clip-path="url(#clip450)" d="M142.334 1097.37 L147.218 1097.37 L147.218 1103.25 L142.334 1103.25 L142.334 1097.37 Z" fill="#000000" fill-rule="nonzero" fill-opacity="1" /><path clip-path="url(#clip450)" d="M157.45 1068.69 L175.806 1068.69 L175.806 1072.63 L161.732 1072.63 L161.732 1081.1 Q162.751 1080.75 163.769 1080.59 Q164.788 1080.41 165.806 1080.41 Q171.593 1080.41 174.973 1083.58 Q178.353 1086.75 178.353 1092.16 Q178.353 1097.74 174.88 1100.85 Q171.408 1103.92 165.089 1103.92 Q162.913 1103.92 160.644 1103.55 Q158.399 1103.18 155.992 1102.44 L155.992 1097.74 Q158.075 1098.88 160.297 1099.43 Q162.519 1099.99 164.996 1099.99 Q169.001 1099.99 171.339 1097.88 Q173.677 1095.78 173.677 1092.16 Q173.677 1088.55 171.339 1086.45 Q169.001 1084.34 164.996 1084.34 Q163.121 1084.34 161.246 1084.76 Q159.394 1085.17 157.45 1086.05 L157.45 1068.69 Z" fill="#000000" fill-rule="nonzero" fill-opacity="1" /><path clip-path="url(#clip450)" d="M51.6634 809.202 L59.3023 809.202 L59.3023 782.837 L50.9921 784.503 L50.9921 780.244 L59.256 778.577 L63.9319 778.577 L63.9319 809.202 L71.5707 809.202 L71.5707 813.137 L51.6634 813.137 L51.6634 809.202 Z" fill="#000000" fill-rule="nonzero" fill-opacity="1" /><path clip-path="url(#clip450)" d="M95.1817 794.503 Q98.5382 795.221 100.413 797.489 Q102.311 799.758 102.311 803.091 Q102.311 808.207 98.7928 811.008 Q95.2743 813.809 88.7928 813.809 Q86.6169 813.809 84.3021 813.369 Q82.0105 812.952 79.5568 812.096 L79.5568 807.582 Q81.5012 808.716 83.816 809.295 Q86.1308 809.874 88.654 809.874 Q93.0521 809.874 95.3437 808.138 Q97.6585 806.401 97.6585 803.091 Q97.6585 800.036 95.5058 798.323 Q93.3762 796.587 89.5567 796.587 L85.529 796.587 L85.529 792.744 L89.7419 792.744 Q93.191 792.744 95.0197 791.378 Q96.8484 789.989 96.8484 787.397 Q96.8484 784.735 94.9502 783.323 Q93.0752 781.888 89.5567 781.888 Q87.6354 781.888 85.4364 782.304 Q83.2373 782.721 80.5984 783.601 L80.5984 779.434 Q83.2605 778.693 85.5753 778.323 Q87.9132 777.952 89.9734 777.952 Q95.2974 777.952 98.3993 780.383 Q101.501 782.79 101.501 786.911 Q101.501 789.781 99.8576 791.772 Q98.2141 793.739 95.1817 794.503 Z" fill="#000000" fill-rule="nonzero" fill-opacity="1" /><path clip-path="url(#clip450)" d="M111.223 778.577 L129.58 778.577 L129.58 782.513 L115.506 782.513 L115.506 790.985 Q116.524 790.638 117.543 790.476 Q118.561 790.29 119.58 790.29 Q125.367 790.29 128.746 793.462 Q132.126 796.633 132.126 802.05 Q132.126 807.628 128.654 810.73 Q125.182 813.809 118.862 813.809 Q116.686 813.809 114.418 813.438 Q112.172 813.068 109.765 812.327 L109.765 807.628 Q111.848 808.763 114.07 809.318 Q116.293 809.874 118.77 809.874 Q122.774 809.874 125.112 807.767 Q127.45 805.661 127.45 802.05 Q127.45 798.438 125.112 796.332 Q122.774 794.226 118.77 794.226 Q116.895 794.226 115.02 794.642 Q113.168 795.059 111.223 795.938 L111.223 778.577 Z" fill="#000000" fill-rule="nonzero" fill-opacity="1" /><path clip-path="url(#clip450)" d="M141.339 807.258 L146.223 807.258 L146.223 813.137 L141.339 813.137 L141.339 807.258 Z" fill="#000000" fill-rule="nonzero" fill-opacity="1" /><path clip-path="url(#clip450)" d="M166.408 781.656 Q162.797 781.656 160.968 785.221 Q159.163 788.763 159.163 795.892 Q159.163 802.999 160.968 806.563 Q162.797 810.105 166.408 810.105 Q170.042 810.105 171.848 806.563 Q173.677 802.999 173.677 795.892 Q173.677 788.763 171.848 785.221 Q170.042 781.656 166.408 781.656 M166.408 777.952 Q172.218 777.952 175.274 782.559 Q178.353 787.142 178.353 795.892 Q178.353 804.619 175.274 809.225 Q172.218 813.809 166.408 813.809 Q160.598 813.809 157.519 809.225 Q154.464 804.619 154.464 795.892 Q154.464 787.142 157.519 782.559 Q160.598 777.952 166.408 777.952 Z" fill="#000000" fill-rule="nonzero" fill-opacity="1" /><path clip-path="url(#clip450)" d="M52.6588 519.087 L60.2976 519.087 L60.2976 492.722 L51.9875 494.388 L51.9875 490.129 L60.2513 488.463 L64.9272 488.463 L64.9272 519.087 L72.5661 519.087 L72.5661 523.023 L52.6588 523.023 L52.6588 519.087 Z" fill="#000000" fill-rule="nonzero" fill-opacity="1" /><path clip-path="url(#clip450)" d="M96.1771 504.388 Q99.5335 505.106 101.409 507.374 Q103.307 509.643 103.307 512.976 Q103.307 518.092 99.7882 520.893 Q96.2697 523.694 89.7882 523.694 Q87.6123 523.694 85.2975 523.254 Q83.0058 522.837 80.5522 521.981 L80.5522 517.467 Q82.4966 518.601 84.8114 519.18 Q87.1262 519.759 89.6493 519.759 Q94.0475 519.759 96.3391 518.023 Q98.6539 516.286 98.6539 512.976 Q98.6539 509.921 96.5011 508.208 Q94.3715 506.472 90.5521 506.472 L86.5243 506.472 L86.5243 502.629 L90.7373 502.629 Q94.1863 502.629 96.015 501.263 Q97.8437 499.874 97.8437 497.282 Q97.8437 494.62 95.9456 493.208 Q94.0706 491.773 90.5521 491.773 Q88.6308 491.773 86.4318 492.189 Q84.2327 492.606 81.5938 493.486 L81.5938 489.319 Q84.2558 488.578 86.5706 488.208 Q88.9086 487.838 90.9688 487.838 Q96.2928 487.838 99.3946 490.268 Q102.496 492.675 102.496 496.796 Q102.496 499.666 100.853 501.657 Q99.2095 503.624 96.1771 504.388 Z" fill="#000000" fill-rule="nonzero" fill-opacity="1" /><path clip-path="url(#clip450)" d="M110.992 488.463 L133.214 488.463 L133.214 490.453 L120.668 523.023 L115.783 523.023 L127.589 492.398 L110.992 492.398 L110.992 488.463 Z" fill="#000000" fill-rule="nonzero" fill-opacity="1" /><path clip-path="url(#clip450)" d="M142.334 517.143 L147.218 517.143 L147.218 523.023 L142.334 523.023 L142.334 517.143 Z" fill="#000000" fill-rule="nonzero" fill-opacity="1" /><path clip-path="url(#clip450)" d="M157.45 488.463 L175.806 488.463 L175.806 492.398 L161.732 492.398 L161.732 500.87 Q162.751 500.523 163.769 500.361 Q164.788 500.175 165.806 500.175 Q171.593 500.175 174.973 503.347 Q178.353 506.518 178.353 511.935 Q178.353 517.513 174.88 520.615 Q171.408 523.694 165.089 523.694 Q162.913 523.694 160.644 523.323 Q158.399 522.953 155.992 522.212 L155.992 517.513 Q158.075 518.648 160.297 519.203 Q162.519 519.759 164.996 519.759 Q169.001 519.759 171.339 517.652 Q173.677 515.546 173.677 511.935 Q173.677 508.324 171.339 506.217 Q169.001 504.111 164.996 504.111 Q163.121 504.111 161.246 504.527 Q159.394 504.944 157.45 505.824 L157.45 488.463 Z" fill="#000000" fill-rule="nonzero" fill-opacity="1" /><path clip-path="url(#clip450)" d="M51.6634 228.972 L59.3023 228.972 L59.3023 202.607 L50.9921 204.273 L50.9921 200.014 L59.256 198.348 L63.9319 198.348 L63.9319 228.972 L71.5707 228.972 L71.5707 232.908 L51.6634 232.908 L51.6634 228.972 Z" fill="#000000" fill-rule="nonzero" fill-opacity="1" /><path clip-path="url(#clip450)" d="M93.8623 202.422 L82.0568 220.871 L93.8623 220.871 L93.8623 202.422 M92.6354 198.348 L98.515 198.348 L98.515 220.871 L103.446 220.871 L103.446 224.759 L98.515 224.759 L98.515 232.908 L93.8623 232.908 L93.8623 224.759 L78.2605 224.759 L78.2605 220.246 L92.6354 198.348 Z" fill="#000000" fill-rule="nonzero" fill-opacity="1" /><path clip-path="url(#clip450)" d="M121.177 201.426 Q117.566 201.426 115.737 204.991 Q113.932 208.533 113.932 215.662 Q113.932 222.769 115.737 226.334 Q117.566 229.875 121.177 229.875 Q124.811 229.875 126.617 226.334 Q128.445 222.769 128.445 215.662 Q128.445 208.533 126.617 204.991 Q124.811 201.426 121.177 201.426 M121.177 197.723 Q126.987 197.723 130.043 202.329 Q133.121 206.912 133.121 215.662 Q133.121 224.389 130.043 228.996 Q126.987 233.579 121.177 233.579 Q115.367 233.579 112.288 228.996 Q109.233 224.389 109.233 215.662 Q109.233 206.912 112.288 202.329 Q115.367 197.723 121.177 197.723 Z" fill="#000000" fill-rule="nonzero" fill-opacity="1" /><path clip-path="url(#clip450)" d="M141.339 227.028 L146.223 227.028 L146.223 232.908 L141.339 232.908 L141.339 227.028 Z" fill="#000000" fill-rule="nonzero" fill-opacity="1" /><path clip-path="url(#clip450)" d="M166.408 201.426 Q162.797 201.426 160.968 204.991 Q159.163 208.533 159.163 215.662 Q159.163 222.769 160.968 226.334 Q162.797 229.875 166.408 229.875 Q170.042 229.875 171.848 226.334 Q173.677 222.769 173.677 215.662 Q173.677 208.533 171.848 204.991 Q170.042 201.426 166.408 201.426 M166.408 197.723 Q172.218 197.723 175.274 202.329 Q178.353 206.912 178.353 215.662 Q178.353 224.389 175.274 228.996 Q172.218 233.579 166.408 233.579 Q160.598 233.579 157.519 228.996 Q154.464 224.389 154.464 215.662 Q154.464 206.912 157.519 202.329 Q160.598 197.723 166.408 197.723 Z" fill="#000000" fill-rule="nonzero" fill-opacity="1" /><polyline clip-path="url(#clip452)" style="stroke:#009af9; stroke-linecap:round; stroke-linejoin:round; stroke-width:4; stroke-opacity:1; fill:none" points="274.873,1146.32 344.438,1102.22 414.002,986.173 483.566,1198.54 692.259,986.173 761.823,720.428 831.387,605.542 900.951,568.407 970.515,468.607 1179.21,737.834 1248.77,454.682 1318.34,320.068 1457.46,269.01 1666.16,497.618 1735.72,490.656 1805.29,333.414 1874.85,633.394 1944.41,990.814 2153.11,1225.92 2222.67,1333.15 2292.24,1039.55 "/>
<polyline clip-path="url(#clip452)" style="stroke:#e26f46; stroke-linecap:round; stroke-linejoin:round; stroke-width:4; stroke-opacity:1; fill:none" points="274.873,995.457 344.438,965.285 414.002,916.544 483.566,880.571 692.259,899.138 761.823,535.914 831.387,582.333 900.951,345.598 970.515,447.72 1179.21,398.4 1248.77,335.736 1318.34,87.9763 1457.46,253.11 1666.16,258.564 1735.72,371.129 1805.29,253.923 1874.85,568.407 1944.41,969.926 2153.11,1207.82 2222.67,965.285 2292.24,992.556 "/>
<polyline clip-path="url(#clip452)" style="stroke:#3da44d; stroke-linecap:round; stroke-linejoin:round; stroke-width:4; stroke-opacity:1; fill:none" points="274.873,1243.8 344.438,1125.43 414.002,1200.86 483.566,1275.13 692.259,1054.64 761.823,784.252 831.387,757.562 900.951,670.528 970.515,740.156 1179.21,738.994 1248.77,481.953 1318.34,331.674 1457.46,509.224 1666.16,501.101 1735.72,559.124 1805.29,645.578 1874.85,1052.32 1944.41,1126.36 2153.11,1445.72 2222.67,1407.42 2292.24,1224.07 "/>
<polyline clip-path="url(#clip452)" style="stroke:#c271d2; stroke-linecap:round; stroke-linejoin:round; stroke-width:4; stroke-opacity:1; fill:none" points="274.873,1097.58 344.438,997.778 414.002,1179.97 483.566,904.941 692.259,953.68 761.823,745.959 831.387,635.713 900.951,366.488 970.515,570.728 1179.21,457.003 1248.77,375.772 1318.34,213.306 1457.46,422.189 1666.16,441.917 1735.72,375.772 1805.29,633.394 1874.85,921.187 1944.41,990.814 2153.11,1302.98 2222.67,1098.74 2292.24,1210.14 "/>
<path clip-path="url(#clip450)" d="M1943.68 354.418 L2281.48 354.418 L2281.48 95.2176 L1943.68 95.2176  Z" fill="#ffffff" fill-rule="evenodd" fill-opacity="1"/>
<polyline clip-path="url(#clip450)" style="stroke:#000000; stroke-linecap:round; stroke-linejoin:round; stroke-width:4; stroke-opacity:1; fill:none" points="1943.68,354.418 2281.48,354.418 2281.48,95.2176 1943.68,95.2176 1943.68,354.418 "/>
<polyline clip-path="url(#clip450)" style="stroke:#009af9; stroke-linecap:round; stroke-linejoin:round; stroke-width:4; stroke-opacity:1; fill:none" points="1967.44,147.058 2110,147.058 "/>
<path clip-path="url(#clip450)" d="M2149.78 132.949 Q2144.68 132.949 2141.67 136.745 Q2138.69 140.541 2138.69 147.092 Q2138.69 153.62 2141.67 157.416 Q2144.68 161.213 2149.78 161.213 Q2154.87 161.213 2157.83 157.416 Q2160.82 153.62 2160.82 147.092 Q2160.82 140.541 2157.83 136.745 Q2154.87 132.949 2149.78 132.949 M2149.78 129.153 Q2157.04 129.153 2161.4 134.037 Q2165.75 138.898 2165.75 147.092 Q2165.75 155.264 2161.4 160.148 Q2157.04 165.009 2149.78 165.009 Q2142.48 165.009 2138.11 160.148 Q2133.76 155.287 2133.76 147.092 Q2133.76 138.898 2138.11 134.037 Q2142.48 129.153 2149.78 129.153 Z" fill="#000000" fill-rule="nonzero" fill-opacity="1" /><path clip-path="url(#clip450)" d="M2177 160.449 L2177 174.199 L2172.72 174.199 L2172.72 138.412 L2177 138.412 L2177 142.347 Q2178.34 140.032 2180.38 138.921 Q2182.44 137.787 2185.29 137.787 Q2190.01 137.787 2192.95 141.537 Q2195.91 145.287 2195.91 151.398 Q2195.91 157.509 2192.95 161.259 Q2190.01 165.009 2185.29 165.009 Q2182.44 165.009 2180.38 163.898 Q2178.34 162.763 2177 160.449 M2191.49 151.398 Q2191.49 146.699 2189.54 144.037 Q2187.62 141.352 2184.24 141.352 Q2180.86 141.352 2178.92 144.037 Q2177 146.699 2177 151.398 Q2177 156.097 2178.92 158.782 Q2180.86 161.444 2184.24 161.444 Q2187.62 161.444 2189.54 158.782 Q2191.49 156.097 2191.49 151.398 Z" fill="#000000" fill-rule="nonzero" fill-opacity="1" /><path clip-path="url(#clip450)" d="M2225.15 150.31 L2225.15 152.393 L2205.56 152.393 Q2205.84 156.791 2208.2 159.106 Q2210.59 161.398 2214.82 161.398 Q2217.28 161.398 2219.57 160.796 Q2221.88 160.194 2224.15 158.99 L2224.15 163.018 Q2221.86 163.99 2219.45 164.5 Q2217.04 165.009 2214.57 165.009 Q2208.36 165.009 2204.73 161.398 Q2201.12 157.787 2201.12 151.629 Q2201.12 145.264 2204.54 141.537 Q2207.99 137.787 2213.83 137.787 Q2219.06 137.787 2222.09 141.166 Q2225.15 144.523 2225.15 150.31 M2220.89 149.06 Q2220.84 145.565 2218.92 143.481 Q2217.02 141.398 2213.87 141.398 Q2210.31 141.398 2208.16 143.412 Q2206.03 145.426 2205.7 149.083 L2220.89 149.06 Z" fill="#000000" fill-rule="nonzero" fill-opacity="1" /><path clip-path="url(#clip450)" d="M2253.69 148.689 L2253.69 164.338 L2249.43 164.338 L2249.43 148.828 Q2249.43 145.148 2247.99 143.319 Q2246.56 141.49 2243.69 141.49 Q2240.24 141.49 2238.25 143.69 Q2236.26 145.889 2236.26 149.685 L2236.26 164.338 L2231.98 164.338 L2231.98 138.412 L2236.26 138.412 L2236.26 142.44 Q2237.79 140.102 2239.85 138.944 Q2241.93 137.787 2244.64 137.787 Q2249.1 137.787 2251.4 140.565 Q2253.69 143.319 2253.69 148.689 Z" fill="#000000" fill-rule="nonzero" fill-opacity="1" /><polyline clip-path="url(#clip450)" style="stroke:#e26f46; stroke-linecap:round; stroke-linejoin:round; stroke-width:4; stroke-opacity:1; fill:none" points="1967.44,198.898 2110,198.898 "/>
<path clip-path="url(#clip450)" d="M2133.76 181.618 L2138.43 181.618 L2138.43 195.784 L2155.42 195.784 L2155.42 181.618 L2160.1 181.618 L2160.1 216.178 L2155.42 216.178 L2155.42 199.719 L2138.43 199.719 L2138.43 216.178 L2133.76 216.178 L2133.76 181.618 Z" fill="#000000" fill-rule="nonzero" fill-opacity="1" /><path clip-path="url(#clip450)" d="M2169.22 190.252 L2173.48 190.252 L2173.48 216.178 L2169.22 216.178 L2169.22 190.252 M2169.22 180.159 L2173.48 180.159 L2173.48 185.553 L2169.22 185.553 L2169.22 180.159 Z" fill="#000000" fill-rule="nonzero" fill-opacity="1" /><path clip-path="url(#clip450)" d="M2199.45 202.914 Q2199.45 198.284 2197.53 195.738 Q2195.63 193.192 2192.18 193.192 Q2188.76 193.192 2186.84 195.738 Q2184.94 198.284 2184.94 202.914 Q2184.94 207.52 2186.84 210.066 Q2188.76 212.613 2192.18 212.613 Q2195.63 212.613 2197.53 210.066 Q2199.45 207.52 2199.45 202.914 M2203.71 212.96 Q2203.71 219.58 2200.77 222.798 Q2197.83 226.039 2191.77 226.039 Q2189.52 226.039 2187.53 225.691 Q2185.54 225.367 2183.67 224.673 L2183.67 220.529 Q2185.54 221.548 2187.37 222.034 Q2189.2 222.52 2191.1 222.52 Q2195.29 222.52 2197.37 220.321 Q2199.45 218.145 2199.45 213.724 L2199.45 211.617 Q2198.13 213.909 2196.07 215.043 Q2194.01 216.178 2191.14 216.178 Q2186.37 216.178 2183.46 212.543 Q2180.54 208.909 2180.54 202.914 Q2180.54 196.895 2183.46 193.261 Q2186.37 189.627 2191.14 189.627 Q2194.01 189.627 2196.07 190.761 Q2198.13 191.895 2199.45 194.187 L2199.45 190.252 L2203.71 190.252 L2203.71 212.96 Z" fill="#000000" fill-rule="nonzero" fill-opacity="1" /><path clip-path="url(#clip450)" d="M2234.04 200.529 L2234.04 216.178 L2229.78 216.178 L2229.78 200.668 Q2229.78 196.988 2228.34 195.159 Q2226.91 193.33 2224.04 193.33 Q2220.59 193.33 2218.6 195.53 Q2216.6 197.729 2216.6 201.525 L2216.6 216.178 L2212.32 216.178 L2212.32 180.159 L2216.6 180.159 L2216.6 194.28 Q2218.13 191.942 2220.19 190.784 Q2222.28 189.627 2224.98 189.627 Q2229.45 189.627 2231.74 192.405 Q2234.04 195.159 2234.04 200.529 Z" fill="#000000" fill-rule="nonzero" fill-opacity="1" /><polyline clip-path="url(#clip450)" style="stroke:#3da44d; stroke-linecap:round; stroke-linejoin:round; stroke-width:4; stroke-opacity:1; fill:none" points="1967.44,250.738 2110,250.738 "/>
<path clip-path="url(#clip450)" d="M2133.76 233.458 L2138.43 233.458 L2138.43 264.082 L2155.26 264.082 L2155.26 268.018 L2133.76 268.018 L2133.76 233.458 Z" fill="#000000" fill-rule="nonzero" fill-opacity="1" /><path clip-path="url(#clip450)" d="M2169.2 245.078 Q2165.77 245.078 2163.78 247.763 Q2161.79 250.425 2161.79 255.078 Q2161.79 259.731 2163.76 262.416 Q2165.75 265.078 2169.2 265.078 Q2172.6 265.078 2174.59 262.393 Q2176.58 259.707 2176.58 255.078 Q2176.58 250.471 2174.59 247.786 Q2172.6 245.078 2169.2 245.078 M2169.2 241.467 Q2174.75 241.467 2177.92 245.078 Q2181.1 248.689 2181.1 255.078 Q2181.1 261.444 2177.92 265.078 Q2174.75 268.689 2169.2 268.689 Q2163.62 268.689 2160.45 265.078 Q2157.3 261.444 2157.3 255.078 Q2157.3 248.689 2160.45 245.078 Q2163.62 241.467 2169.2 241.467 Z" fill="#000000" fill-rule="nonzero" fill-opacity="1" /><path clip-path="url(#clip450)" d="M2185.68 242.092 L2189.94 242.092 L2195.26 262.323 L2200.56 242.092 L2205.59 242.092 L2210.91 262.323 L2216.21 242.092 L2220.47 242.092 L2213.69 268.018 L2208.67 268.018 L2203.09 246.768 L2197.48 268.018 L2192.46 268.018 L2185.68 242.092 Z" fill="#000000" fill-rule="nonzero" fill-opacity="1" /><polyline clip-path="url(#clip450)" style="stroke:#c271d2; stroke-linecap:round; stroke-linejoin:round; stroke-width:4; stroke-opacity:1; fill:none" points="1967.44,302.578 2110,302.578 "/>
<path clip-path="url(#clip450)" d="M2161.63 287.96 L2161.63 292.89 Q2159.27 290.691 2156.58 289.603 Q2153.92 288.515 2150.91 288.515 Q2144.98 288.515 2141.84 292.149 Q2138.69 295.76 2138.69 302.612 Q2138.69 309.441 2141.84 313.075 Q2144.98 316.686 2150.91 316.686 Q2153.92 316.686 2156.58 315.598 Q2159.27 314.51 2161.63 312.311 L2161.63 317.196 Q2159.17 318.862 2156.42 319.696 Q2153.69 320.529 2150.63 320.529 Q2142.79 320.529 2138.27 315.737 Q2133.76 310.922 2133.76 302.612 Q2133.76 294.279 2138.27 289.487 Q2142.79 284.673 2150.63 284.673 Q2153.73 284.673 2156.47 285.506 Q2159.22 286.316 2161.63 287.96 Z" fill="#000000" fill-rule="nonzero" fill-opacity="1" /><path clip-path="url(#clip450)" d="M2168.67 283.839 L2172.92 283.839 L2172.92 319.858 L2168.67 319.858 L2168.67 283.839 Z" fill="#000000" fill-rule="nonzero" fill-opacity="1" /><path clip-path="url(#clip450)" d="M2191.88 296.918 Q2188.46 296.918 2186.47 299.603 Q2184.48 302.265 2184.48 306.918 Q2184.48 311.571 2186.44 314.256 Q2188.43 316.918 2191.88 316.918 Q2195.29 316.918 2197.28 314.233 Q2199.27 311.547 2199.27 306.918 Q2199.27 302.311 2197.28 299.626 Q2195.29 296.918 2191.88 296.918 M2191.88 293.307 Q2197.44 293.307 2200.61 296.918 Q2203.78 300.529 2203.78 306.918 Q2203.78 313.284 2200.61 316.918 Q2197.44 320.529 2191.88 320.529 Q2186.3 320.529 2183.13 316.918 Q2179.98 313.284 2179.98 306.918 Q2179.98 300.529 2183.13 296.918 Q2186.3 293.307 2191.88 293.307 Z" fill="#000000" fill-rule="nonzero" fill-opacity="1" /><path clip-path="url(#clip450)" d="M2227.37 294.696 L2227.37 298.723 Q2225.56 297.797 2223.62 297.335 Q2221.67 296.872 2219.59 296.872 Q2216.42 296.872 2214.82 297.844 Q2213.25 298.816 2213.25 300.76 Q2213.25 302.242 2214.38 303.098 Q2215.52 303.932 2218.94 304.696 L2220.4 305.02 Q2224.94 305.992 2226.84 307.774 Q2228.76 309.534 2228.76 312.705 Q2228.76 316.316 2225.89 318.422 Q2223.04 320.529 2218.04 320.529 Q2215.96 320.529 2213.69 320.112 Q2211.44 319.719 2208.94 318.908 L2208.94 314.51 Q2211.3 315.737 2213.6 316.362 Q2215.89 316.964 2218.13 316.964 Q2221.14 316.964 2222.76 315.946 Q2224.38 314.904 2224.38 313.029 Q2224.38 311.293 2223.2 310.367 Q2222.04 309.441 2218.09 308.584 L2216.6 308.237 Q2212.65 307.404 2210.89 305.691 Q2209.13 303.955 2209.13 300.946 Q2209.13 297.288 2211.72 295.298 Q2214.31 293.307 2219.08 293.307 Q2221.44 293.307 2223.53 293.654 Q2225.61 294.001 2227.37 294.696 Z" fill="#000000" fill-rule="nonzero" fill-opacity="1" /><path clip-path="url(#clip450)" d="M2257.72 305.83 L2257.72 307.913 L2238.13 307.913 Q2238.41 312.311 2240.77 314.626 Q2243.16 316.918 2247.39 316.918 Q2249.85 316.918 2252.14 316.316 Q2254.45 315.714 2256.72 314.51 L2256.72 318.538 Q2254.43 319.51 2252.02 320.02 Q2249.61 320.529 2247.14 320.529 Q2240.93 320.529 2237.3 316.918 Q2233.69 313.307 2233.69 307.149 Q2233.69 300.784 2237.11 297.057 Q2240.56 293.307 2246.4 293.307 Q2251.63 293.307 2254.66 296.686 Q2257.72 300.043 2257.72 305.83 M2253.46 304.58 Q2253.41 301.085 2251.49 299.001 Q2249.59 296.918 2246.44 296.918 Q2242.88 296.918 2240.73 298.932 Q2238.6 300.946 2238.27 304.603 L2253.46 304.58 Z" fill="#000000" fill-rule="nonzero" fill-opacity="1" /></svg>
