<?xml version="1.0" encoding="utf-8"?>
<svg xmlns="http://www.w3.org/2000/svg" xmlns:xlink="http://www.w3.org/1999/xlink" width="600" height="400" viewBox="0 0 2400 1600">
<defs>
  <clipPath id="clip540">
    <rect x="0" y="0" width="2400" height="1600"/>
  </clipPath>
</defs>
<path clip-path="url(#clip540)" d="M0 1600 L2400 1600 L2400 0 L0 0  Z" fill="#ffffff" fill-rule="evenodd" fill-opacity="1"/>
<defs>
  <clipPath id="clip541">
    <rect x="480" y="0" width="1681" height="1600"/>
  </clipPath>
</defs>
<path clip-path="url(#clip540)" d="M214.353 1348.2 L2352.76 1348.2 L2352.76 47.2441 L214.353 47.2441  Z" fill="#ffffff" fill-rule="evenodd" fill-opacity="1"/>
<defs>
  <clipPath id="clip542">
    <rect x="214" y="47" width="2139" height="1302"/>
  </clipPath>
</defs>
<polyline clip-path="url(#clip542)" style="stroke:#000000; stroke-linecap:round; stroke-linejoin:round; stroke-width:2; stroke-opacity:0.1; fill:none" points="318.309,1348.2 318.309,47.2441 "/>
<polyline clip-path="url(#clip542)" style="stroke:#000000; stroke-linecap:round; stroke-linejoin:round; stroke-width:2; stroke-opacity:0.1; fill:none" points="414.834,1348.2 414.834,47.2441 "/>
<polyline clip-path="url(#clip542)" style="stroke:#000000; stroke-linecap:round; stroke-linejoin:round; stroke-width:2; stroke-opacity:0.1; fill:none" points="511.358,1348.2 511.358,47.2441 "/>
<polyline clip-path="url(#clip542)" style="stroke:#000000; stroke-linecap:round; stroke-linejoin:round; stroke-width:2; stroke-opacity:0.1; fill:none" points="607.883,1348.2 607.883,47.2441 "/>
<polyline clip-path="url(#clip542)" style="stroke:#000000; stroke-linecap:round; stroke-linejoin:round; stroke-width:2; stroke-opacity:0.1; fill:none" points="704.407,1348.2 704.407,47.2441 "/>
<polyline clip-path="url(#clip542)" style="stroke:#000000; stroke-linecap:round; stroke-linejoin:round; stroke-width:2; stroke-opacity:0.1; fill:none" points="800.932,1348.2 800.932,47.2441 "/>
<polyline clip-path="url(#clip542)" style="stroke:#000000; stroke-linecap:round; stroke-linejoin:round; stroke-width:2; stroke-opacity:0.1; fill:none" points="897.456,1348.2 897.456,47.2441 "/>
<polyline clip-path="url(#clip542)" style="stroke:#000000; stroke-linecap:round; stroke-linejoin:round; stroke-width:2; stroke-opacity:0.1; fill:none" points="993.981,1348.2 993.981,47.2441 "/>
<polyline clip-path="url(#clip542)" style="stroke:#000000; stroke-linecap:round; stroke-linejoin:round; stroke-width:2; stroke-opacity:0.1; fill:none" points="1090.51,1348.2 1090.51,47.2441 "/>
<polyline clip-path="url(#clip542)" style="stroke:#000000; stroke-linecap:round; stroke-linejoin:round; stroke-width:2; stroke-opacity:0.1; fill:none" points="1187.03,1348.2 1187.03,47.2441 "/>
<polyline clip-path="url(#clip542)" style="stroke:#000000; stroke-linecap:round; stroke-linejoin:round; stroke-width:2; stroke-opacity:0.1; fill:none" points="1283.55,1348.2 1283.55,47.2441 "/>
<polyline clip-path="url(#clip542)" style="stroke:#000000; stroke-linecap:round; stroke-linejoin:round; stroke-width:2; stroke-opacity:0.1; fill:none" points="1380.08,1348.2 1380.08,47.2441 "/>
<polyline clip-path="url(#clip542)" style="stroke:#000000; stroke-linecap:round; stroke-linejoin:round; stroke-width:2; stroke-opacity:0.1; fill:none" points="1476.6,1348.2 1476.6,47.2441 "/>
<polyline clip-path="url(#clip542)" style="stroke:#000000; stroke-linecap:round; stroke-linejoin:round; stroke-width:2; stroke-opacity:0.1; fill:none" points="1573.13,1348.2 1573.13,47.2441 "/>
<polyline clip-path="url(#clip542)" style="stroke:#000000; stroke-linecap:round; stroke-linejoin:round; stroke-width:2; stroke-opacity:0.1; fill:none" points="1669.65,1348.2 1669.65,47.2441 "/>
<polyline clip-path="url(#clip542)" style="stroke:#000000; stroke-linecap:round; stroke-linejoin:round; stroke-width:2; stroke-opacity:0.1; fill:none" points="1766.18,1348.2 1766.18,47.2441 "/>
<polyline clip-path="url(#clip542)" style="stroke:#000000; stroke-linecap:round; stroke-linejoin:round; stroke-width:2; stroke-opacity:0.1; fill:none" points="1862.7,1348.2 1862.7,47.2441 "/>
<polyline clip-path="url(#clip542)" style="stroke:#000000; stroke-linecap:round; stroke-linejoin:round; stroke-width:2; stroke-opacity:0.1; fill:none" points="1959.23,1348.2 1959.23,47.2441 "/>
<polyline clip-path="url(#clip542)" style="stroke:#000000; stroke-linecap:round; stroke-linejoin:round; stroke-width:2; stroke-opacity:0.1; fill:none" points="2055.75,1348.2 2055.75,47.2441 "/>
<polyline clip-path="url(#clip542)" style="stroke:#000000; stroke-linecap:round; stroke-linejoin:round; stroke-width:2; stroke-opacity:0.1; fill:none" points="2152.27,1348.2 2152.27,47.2441 "/>
<polyline clip-path="url(#clip542)" style="stroke:#000000; stroke-linecap:round; stroke-linejoin:round; stroke-width:2; stroke-opacity:0.1; fill:none" points="2248.8,1348.2 2248.8,47.2441 "/>
<polyline clip-path="url(#clip540)" style="stroke:#000000; stroke-linecap:round; stroke-linejoin:round; stroke-width:4; stroke-opacity:1; fill:none" points="214.353,1348.2 2352.76,1348.2 "/>
<polyline clip-path="url(#clip540)" style="stroke:#000000; stroke-linecap:round; stroke-linejoin:round; stroke-width:4; stroke-opacity:1; fill:none" points="318.309,1348.2 318.309,1329.31 "/>
<polyline clip-path="url(#clip540)" style="stroke:#000000; stroke-linecap:round; stroke-linejoin:round; stroke-width:4; stroke-opacity:1; fill:none" points="414.834,1348.2 414.834,1329.31 "/>
<polyline clip-path="url(#clip540)" style="stroke:#000000; stroke-linecap:round; stroke-linejoin:round; stroke-width:4; stroke-opacity:1; fill:none" points="511.358,1348.2 511.358,1329.31 "/>
<polyline clip-path="url(#clip540)" style="stroke:#000000; stroke-linecap:round; stroke-linejoin:round; stroke-width:4; stroke-opacity:1; fill:none" points="607.883,1348.2 607.883,1329.31 "/>
<polyline clip-path="url(#clip540)" style="stroke:#000000; stroke-linecap:round; stroke-linejoin:round; stroke-width:4; stroke-opacity:1; fill:none" points="704.407,1348.2 704.407,1329.31 "/>
<polyline clip-path="url(#clip540)" style="stroke:#000000; stroke-linecap:round; stroke-linejoin:round; stroke-width:4; stroke-opacity:1; fill:none" points="800.932,1348.2 800.932,1329.31 "/>
<polyline clip-path="url(#clip540)" style="stroke:#000000; stroke-linecap:round; stroke-linejoin:round; stroke-width:4; stroke-opacity:1; fill:none" points="897.456,1348.2 897.456,1329.31 "/>
<polyline clip-path="url(#clip540)" style="stroke:#000000; stroke-linecap:round; stroke-linejoin:round; stroke-width:4; stroke-opacity:1; fill:none" points="993.981,1348.2 993.981,1329.31 "/>
<polyline clip-path="url(#clip540)" style="stroke:#000000; stroke-linecap:round; stroke-linejoin:round; stroke-width:4; stroke-opacity:1; fill:none" points="1090.51,1348.2 1090.51,1329.31 "/>
<polyline clip-path="url(#clip540)" style="stroke:#000000; stroke-linecap:round; stroke-linejoin:round; stroke-width:4; stroke-opacity:1; fill:none" points="1187.03,1348.2 1187.03,1329.31 "/>
<polyline clip-path="url(#clip540)" style="stroke:#000000; stroke-linecap:round; stroke-linejoin:round; stroke-width:4; stroke-opacity:1; fill:none" points="1283.55,1348.2 1283.55,1329.31 "/>
<polyline clip-path="url(#clip540)" style="stroke:#000000; stroke-linecap:round; stroke-linejoin:round; stroke-width:4; stroke-opacity:1; fill:none" points="1380.08,1348.2 1380.08,1329.31 "/>
<polyline clip-path="url(#clip540)" style="stroke:#000000; stroke-linecap:round; stroke-linejoin:round; stroke-width:4; stroke-opacity:1; fill:none" points="1476.6,1348.2 1476.6,1329.31 "/>
<polyline clip-path="url(#clip540)" style="stroke:#000000; stroke-linecap:round; stroke-linejoin:round; stroke-width:4; stroke-opacity:1; fill:none" points="1573.13,1348.2 1573.13,1329.31 "/>
<polyline clip-path="url(#clip540)" style="stroke:#000000; stroke-linecap:round; stroke-linejoin:round; stroke-width:4; stroke-opacity:1; fill:none" points="1669.65,1348.2 1669.65,1329.31 "/>
<polyline clip-path="url(#clip540)" style="stroke:#000000; stroke-linecap:round; stroke-linejoin:round; stroke-width:4; stroke-opacity:1; fill:none" points="1766.18,1348.2 1766.18,1329.31 "/>
<polyline clip-path="url(#clip540)" style="stroke:#000000; stroke-linecap:round; stroke-linejoin:round; stroke-width:4; stroke-opacity:1; fill:none" points="1862.7,1348.2 1862.7,1329.31 "/>
<polyline clip-path="url(#clip540)" style="stroke:#000000; stroke-linecap:round; stroke-linejoin:round; stroke-width:4; stroke-opacity:1; fill:none" points="1959.23,1348.2 1959.23,1329.31 "/>
<polyline clip-path="url(#clip540)" style="stroke:#000000; stroke-linecap:round; stroke-linejoin:round; stroke-width:4; stroke-opacity:1; fill:none" points="2055.75,1348.2 2055.75,1329.31 "/>
<polyline clip-path="url(#clip540)" style="stroke:#000000; stroke-linecap:round; stroke-linejoin:round; stroke-width:4; stroke-opacity:1; fill:none" points="2152.27,1348.2 2152.27,1329.31 "/>
<polyline clip-path="url(#clip540)" style="stroke:#000000; stroke-linecap:round; stroke-linejoin:round; stroke-width:4; stroke-opacity:1; fill:none" points="2248.8,1348.2 2248.8,1329.31 "/>
<path clip-path="url(#clip540)" d="M198.687 1614.25 L206.846 1600.11 L210.254 1602.08 L199.282 1621.09 L195.874 1619.12 Q194.819 1615.44 193.102 1609.15 Q191.376 1602.84 190.803 1601.14 Q189.741 1597.94 188.677 1596.31 Q187.605 1594.65 186.141 1593.8 Q183.756 1592.42 181.28 1593.24 Q178.816 1594.03 177.265 1596.72 Q176.166 1598.63 175.6 1601.13 Q175.047 1603.62 175.001 1606.8 L170.911 1604.44 Q171.341 1601.43 172.067 1599.01 Q172.792 1596.6 173.811 1594.83 Q176.496 1590.18 180.419 1588.76 Q184.341 1587.34 188.23 1589.58 Q190.075 1590.65 191.333 1592.31 Q192.584 1593.94 193.776 1597.06 Q194.068 1597.9 195.303 1602.19 Q196.519 1606.47 198.687 1614.25 Z" fill="#000000" fill-rule="nonzero" fill-opacity="1" /><path clip-path="url(#clip540)" d="M192.898 1569.18 Q191.092 1572.31 193.265 1575.67 Q195.43 1579.01 201.604 1582.57 Q207.758 1586.13 211.748 1586.35 Q215.73 1586.53 217.535 1583.41 Q219.353 1580.26 217.188 1576.92 Q215.015 1573.56 208.861 1570 Q202.687 1566.44 198.705 1566.25 Q194.715 1566.03 192.898 1569.18 M189.69 1567.33 Q192.595 1562.3 198.113 1561.95 Q203.621 1561.58 211.199 1565.96 Q218.756 1570.32 221.206 1575.29 Q223.648 1580.23 220.743 1585.26 Q217.838 1590.29 212.329 1590.66 Q206.812 1591.01 199.254 1586.64 Q191.677 1582.27 189.235 1577.33 Q186.785 1572.36 189.69 1567.33 Z" fill="#000000" fill-rule="nonzero" fill-opacity="1" /><path clip-path="url(#clip540)" d="M228.848 1562.01 L237.008 1547.87 L240.416 1549.84 L229.444 1568.84 L226.036 1566.88 Q224.981 1563.19 223.264 1556.91 Q221.537 1550.59 220.965 1548.9 Q219.903 1545.69 218.839 1544.06 Q217.767 1542.4 216.303 1541.56 Q213.918 1540.18 211.442 1541 Q208.978 1541.79 207.427 1544.48 Q206.327 1546.38 205.762 1548.89 Q205.208 1551.38 205.163 1554.56 L201.073 1552.2 Q201.503 1549.18 202.229 1546.77 Q202.954 1544.36 203.973 1542.59 Q206.658 1537.94 210.581 1536.52 Q214.503 1535.09 218.392 1537.34 Q220.237 1538.4 221.495 1540.07 Q222.746 1541.7 223.938 1544.82 Q224.23 1545.65 225.465 1549.95 Q226.681 1554.23 228.848 1562.01 Z" fill="#000000" fill-rule="nonzero" fill-opacity="1" /><path clip-path="url(#clip540)" d="M236.269 1519.75 Q238.569 1517.21 241.471 1516.72 Q244.384 1516.21 247.271 1517.87 Q251.702 1520.43 252.368 1524.88 Q253.034 1529.33 249.794 1534.94 Q248.706 1536.82 247.167 1538.61 Q245.661 1540.39 243.692 1542.08 L239.783 1539.83 Q241.738 1538.71 243.396 1536.99 Q245.055 1535.28 246.316 1533.09 Q248.515 1529.28 248.158 1526.43 Q247.812 1523.56 244.945 1521.9 Q242.299 1520.38 239.739 1521.38 Q237.17 1522.36 235.261 1525.67 L233.247 1529.16 L229.919 1527.23 L232.026 1523.59 Q233.75 1520.6 233.482 1518.33 Q233.193 1516.05 230.948 1514.76 Q228.643 1513.43 226.471 1514.36 Q224.29 1515.27 222.531 1518.32 Q221.57 1519.98 220.832 1522.09 Q220.093 1524.21 219.535 1526.93 L215.927 1524.85 Q216.616 1522.17 217.453 1519.98 Q218.301 1517.77 219.331 1515.99 Q221.993 1511.38 225.649 1509.91 Q229.285 1508.43 232.853 1510.49 Q235.339 1511.92 236.241 1514.34 Q237.124 1516.75 236.269 1519.75 Z" fill="#000000" fill-rule="nonzero" fill-opacity="1" /><path clip-path="url(#clip540)" d="M246.137 1510.16 L252.375 1499.36 L255.663 1501.26 L249.425 1512.06 L246.137 1510.16 Z" fill="#000000" fill-rule="nonzero" fill-opacity="1" /><path clip-path="url(#clip540)" d="M265.955 1497.74 L269.774 1491.12 L246.941 1477.94 L244.229 1485.97 L240.541 1483.84 L243.229 1475.85 L245.567 1471.8 L272.089 1487.11 L275.908 1480.5 L279.316 1482.46 L269.363 1499.7 L265.955 1497.74 Z" fill="#000000" fill-rule="nonzero" fill-opacity="1" /><path clip-path="url(#clip540)" d="M281.036 1471.61 L284.855 1465 L262.022 1451.82 L259.31 1459.85 L255.621 1457.72 L258.31 1449.73 L260.648 1445.68 L287.17 1460.99 L290.989 1454.37 L294.397 1456.34 L284.444 1473.58 L281.036 1471.61 Z" fill="#000000" fill-rule="nonzero" fill-opacity="1" /><path clip-path="url(#clip540)" d="M284.852 1443.11 L291.09 1432.3 L294.378 1434.2 L288.14 1445 L284.852 1443.11 Z" fill="#000000" fill-rule="nonzero" fill-opacity="1" /><path clip-path="url(#clip540)" d="M285.409 1408.95 Q283.603 1412.07 285.776 1415.44 Q287.941 1418.78 294.115 1422.34 Q300.269 1425.89 304.259 1426.11 Q308.241 1426.3 310.046 1423.17 Q311.864 1420.02 309.699 1416.69 Q307.526 1413.32 301.372 1409.77 Q295.198 1406.21 291.216 1406.02 Q287.226 1405.8 285.409 1408.95 M282.201 1407.1 Q285.107 1402.06 290.624 1401.72 Q296.132 1401.35 303.71 1405.72 Q311.268 1410.08 313.718 1415.05 Q316.159 1419.99 313.254 1425.02 Q310.349 1430.06 304.84 1430.43 Q299.323 1430.77 291.766 1426.41 Q284.188 1422.03 281.746 1417.1 Q279.296 1412.13 282.201 1407.1 Z" fill="#000000" fill-rule="nonzero" fill-opacity="1" /><path clip-path="url(#clip540)" d="M292.233 1390.97 L303.345 1371.72 L305.069 1372.72 L327.001 1399.87 L324.559 1404.1 L303.94 1378.56 L295.641 1392.94 L292.233 1390.97 Z" fill="#000000" fill-rule="nonzero" fill-opacity="1" /><path clip-path="url(#clip540)" d="M487.809 1615.03 L495.968 1600.9 L499.376 1602.86 L488.404 1621.87 L484.996 1619.9 Q483.942 1616.22 482.224 1609.93 Q480.498 1603.62 479.925 1601.92 Q478.863 1598.72 477.799 1597.09 Q476.727 1595.43 475.264 1594.58 Q472.878 1593.21 470.402 1594.02 Q467.938 1594.82 466.387 1597.5 Q465.288 1599.41 464.722 1601.91 Q464.169 1604.4 464.123 1607.58 L460.033 1605.22 Q460.463 1602.21 461.189 1599.79 Q461.914 1597.38 462.933 1595.62 Q465.618 1590.96 469.541 1589.54 Q473.463 1588.12 477.352 1590.36 Q479.197 1591.43 480.456 1593.09 Q481.706 1594.72 482.898 1597.84 Q483.19 1598.68 484.425 1602.97 Q485.641 1607.26 487.809 1615.03 Z" fill="#000000" fill-rule="nonzero" fill-opacity="1" /><path clip-path="url(#clip540)" d="M482.02 1569.96 Q480.214 1573.09 482.387 1576.46 Q484.552 1579.79 490.726 1583.36 Q496.88 1586.91 500.87 1587.13 Q504.852 1587.32 506.657 1584.19 Q508.475 1581.04 506.31 1577.71 Q504.137 1574.34 497.983 1570.79 Q491.809 1567.22 487.827 1567.03 Q483.837 1566.82 482.02 1569.96 M478.812 1568.11 Q481.718 1563.08 487.235 1562.74 Q492.743 1562.36 500.321 1566.74 Q507.879 1571.1 510.329 1576.07 Q512.77 1581.01 509.865 1586.04 Q506.96 1591.07 501.451 1591.45 Q495.934 1591.79 488.377 1587.43 Q480.799 1583.05 478.357 1578.11 Q475.907 1573.14 478.812 1568.11 Z" fill="#000000" fill-rule="nonzero" fill-opacity="1" /><path clip-path="url(#clip540)" d="M517.97 1562.79 L526.13 1548.65 L529.538 1550.62 L518.566 1569.63 L515.158 1567.66 Q514.103 1563.98 512.386 1557.69 Q510.66 1551.38 510.087 1549.68 Q509.025 1546.48 507.961 1544.85 Q506.889 1543.19 505.425 1542.34 Q503.04 1540.96 500.564 1541.78 Q498.1 1542.57 496.549 1545.26 Q495.45 1547.17 494.884 1549.67 Q494.33 1552.16 494.285 1555.34 L490.195 1552.98 Q490.625 1549.97 491.351 1547.55 Q492.076 1545.14 493.095 1543.37 Q495.78 1538.72 499.703 1537.3 Q503.625 1535.88 507.514 1538.12 Q509.359 1539.19 510.617 1540.85 Q511.868 1542.48 513.06 1545.6 Q513.352 1546.44 514.587 1550.73 Q515.803 1555.01 517.97 1562.79 Z" fill="#000000" fill-rule="nonzero" fill-opacity="1" /><path clip-path="url(#clip540)" d="M525.391 1520.54 Q527.691 1517.99 530.593 1517.5 Q533.507 1516.99 536.393 1518.66 Q540.824 1521.21 541.49 1525.66 Q542.156 1530.11 538.916 1535.72 Q537.828 1537.61 536.289 1539.39 Q534.783 1541.17 532.814 1542.86 L528.905 1540.61 Q530.86 1539.49 532.518 1537.78 Q534.177 1536.06 535.438 1533.87 Q537.637 1530.07 537.28 1527.21 Q536.934 1524.34 534.067 1522.69 Q531.421 1521.16 528.861 1522.17 Q526.293 1523.14 524.383 1526.45 L522.369 1529.94 L519.041 1528.02 L521.148 1524.37 Q522.872 1521.38 522.604 1519.11 Q522.315 1516.84 520.07 1515.54 Q517.765 1514.21 515.593 1515.15 Q513.412 1516.05 511.653 1519.1 Q510.692 1520.76 509.954 1522.88 Q509.215 1524.99 508.657 1527.71 L505.049 1525.63 Q505.739 1522.96 506.575 1520.77 Q507.423 1518.56 508.454 1516.77 Q511.116 1512.16 514.771 1510.69 Q518.407 1509.21 521.975 1511.27 Q524.461 1512.7 525.364 1515.12 Q526.246 1517.53 525.391 1520.54 Z" fill="#000000" fill-rule="nonzero" fill-opacity="1" /><path clip-path="url(#clip540)" d="M535.259 1510.94 L541.497 1500.14 L544.785 1502.04 L538.547 1512.84 L535.259 1510.94 Z" fill="#000000" fill-rule="nonzero" fill-opacity="1" /><path clip-path="url(#clip540)" d="M555.077 1498.52 L558.896 1491.9 L536.063 1478.72 L533.351 1486.75 L529.663 1484.62 L532.351 1476.63 L534.689 1472.58 L561.211 1487.89 L565.03 1481.28 L568.438 1483.24 L558.485 1500.49 L555.077 1498.52 Z" fill="#000000" fill-rule="nonzero" fill-opacity="1" /><path clip-path="url(#clip540)" d="M570.158 1472.4 L573.977 1465.78 L551.144 1452.6 L548.432 1460.63 L544.744 1458.5 L547.432 1450.51 L549.77 1446.46 L576.292 1461.77 L580.111 1455.16 L583.519 1457.12 L573.566 1474.36 L570.158 1472.4 Z" fill="#000000" fill-rule="nonzero" fill-opacity="1" /><path clip-path="url(#clip540)" d="M573.974 1443.89 L580.212 1433.08 L583.5 1434.98 L577.262 1445.79 L573.974 1443.89 Z" fill="#000000" fill-rule="nonzero" fill-opacity="1" /><path clip-path="url(#clip540)" d="M593.792 1431.46 L597.611 1424.85 L574.778 1411.66 L572.066 1419.69 L568.378 1417.56 L571.066 1409.57 L573.404 1405.52 L599.926 1420.84 L603.745 1414.22 L607.153 1416.19 L597.2 1433.43 L593.792 1431.46 Z" fill="#000000" fill-rule="nonzero" fill-opacity="1" /><path clip-path="url(#clip540)" d="M589.612 1383.61 Q587.806 1386.74 589.979 1390.1 Q592.144 1393.44 598.318 1397 Q604.472 1400.55 608.462 1400.77 Q612.444 1400.96 614.249 1397.83 Q616.067 1394.69 613.902 1391.35 Q611.729 1387.99 605.575 1384.43 Q599.401 1380.87 595.419 1380.68 Q591.429 1380.46 589.612 1383.61 M586.404 1381.76 Q589.31 1376.72 594.827 1376.38 Q600.335 1376.01 607.913 1380.38 Q615.471 1384.75 617.921 1389.72 Q620.362 1394.65 617.457 1399.68 Q614.552 1404.72 609.043 1405.09 Q603.526 1405.43 595.969 1401.07 Q588.391 1396.7 585.949 1391.76 Q583.499 1386.79 586.404 1381.76 Z" fill="#000000" fill-rule="nonzero" fill-opacity="1" /><path clip-path="url(#clip540)" d="M777.88 1614.17 L786.039 1600.03 L789.447 1602 L778.475 1621.01 L775.067 1619.04 Q774.013 1615.36 772.295 1609.07 Q770.569 1602.76 769.996 1601.06 Q768.934 1597.86 767.87 1596.23 Q766.798 1594.57 765.335 1593.72 Q762.949 1592.34 760.473 1593.16 Q758.009 1593.95 756.458 1596.64 Q755.359 1598.55 754.793 1601.05 Q754.24 1603.54 754.194 1606.72 L750.104 1604.36 Q750.534 1601.35 751.26 1598.93 Q751.986 1596.52 753.004 1594.75 Q755.689 1590.1 759.612 1588.68 Q763.535 1587.26 767.424 1589.5 Q769.268 1590.57 770.527 1592.23 Q771.777 1593.86 772.969 1596.98 Q773.261 1597.82 774.497 1602.11 Q775.712 1606.39 777.88 1614.17 Z" fill="#000000" fill-rule="nonzero" fill-opacity="1" /><path clip-path="url(#clip540)" d="M772.091 1569.1 Q770.286 1572.23 772.458 1575.59 Q774.623 1578.93 780.797 1582.49 Q786.952 1586.05 790.942 1586.27 Q794.923 1586.45 796.729 1583.33 Q798.546 1580.18 796.381 1576.84 Q794.208 1573.48 788.054 1569.92 Q781.88 1566.36 777.898 1566.17 Q773.908 1565.95 772.091 1569.1 M768.884 1567.25 Q771.789 1562.22 777.306 1561.87 Q782.814 1561.5 790.392 1565.88 Q797.95 1570.24 800.4 1575.21 Q802.841 1580.15 799.936 1585.18 Q797.031 1590.21 791.522 1590.58 Q786.005 1590.93 778.448 1586.56 Q770.87 1582.19 768.428 1577.25 Q765.979 1572.28 768.884 1567.25 Z" fill="#000000" fill-rule="nonzero" fill-opacity="1" /><path clip-path="url(#clip540)" d="M808.042 1561.93 L816.201 1547.79 L819.609 1549.76 L808.637 1568.76 L805.229 1566.8 Q804.175 1563.11 802.457 1556.83 Q800.731 1550.51 800.158 1548.82 Q799.096 1545.61 798.032 1543.98 Q796.96 1542.32 795.497 1541.48 Q793.111 1540.1 790.635 1540.92 Q788.171 1541.71 786.62 1544.4 Q785.521 1546.3 784.955 1548.81 Q784.402 1551.3 784.356 1554.48 L780.266 1552.12 Q780.696 1549.1 781.422 1546.69 Q782.147 1544.28 783.166 1542.51 Q785.851 1537.86 789.774 1536.44 Q793.696 1535.01 797.585 1537.26 Q799.43 1538.32 800.689 1539.99 Q801.939 1541.62 803.131 1544.74 Q803.423 1545.57 804.658 1549.87 Q805.874 1554.15 808.042 1561.93 Z" fill="#000000" fill-rule="nonzero" fill-opacity="1" /><path clip-path="url(#clip540)" d="M815.462 1519.67 Q817.762 1517.13 820.664 1516.64 Q823.578 1516.13 826.464 1517.79 Q830.895 1520.35 831.561 1524.8 Q832.228 1529.25 828.987 1534.86 Q827.899 1536.74 826.361 1538.53 Q824.854 1540.31 822.885 1542 L818.976 1539.75 Q820.931 1538.63 822.589 1536.91 Q824.248 1535.2 825.509 1533.01 Q827.708 1529.2 827.351 1526.35 Q827.005 1523.48 824.138 1521.82 Q821.492 1520.3 818.932 1521.3 Q816.364 1522.28 814.454 1525.59 L812.44 1529.08 L809.112 1527.15 L811.219 1523.51 Q812.943 1520.52 812.675 1518.25 Q812.386 1515.97 810.141 1514.68 Q807.836 1513.35 805.664 1514.28 Q803.484 1515.19 801.724 1518.24 Q800.764 1519.9 800.025 1522.01 Q799.286 1524.13 798.729 1526.85 L795.12 1524.77 Q795.81 1522.09 796.646 1519.9 Q797.495 1517.69 798.525 1515.91 Q801.187 1511.3 804.842 1509.83 Q808.478 1508.35 812.047 1510.41 Q814.532 1511.84 815.435 1514.26 Q816.317 1516.67 815.462 1519.67 Z" fill="#000000" fill-rule="nonzero" fill-opacity="1" /><path clip-path="url(#clip540)" d="M825.33 1510.08 L831.569 1499.28 L834.856 1501.18 L828.618 1511.98 L825.33 1510.08 Z" fill="#000000" fill-rule="nonzero" fill-opacity="1" /><path clip-path="url(#clip540)" d="M845.148 1497.66 L848.967 1491.04 L826.134 1477.86 L823.422 1485.89 L819.734 1483.76 L822.422 1475.77 L824.76 1471.72 L851.282 1487.03 L855.102 1480.42 L858.509 1482.38 L848.556 1499.62 L845.148 1497.66 Z" fill="#000000" fill-rule="nonzero" fill-opacity="1" /><path clip-path="url(#clip540)" d="M860.229 1471.53 L864.048 1464.92 L841.215 1451.74 L838.503 1459.77 L834.815 1457.64 L837.503 1449.65 L839.841 1445.6 L866.363 1460.91 L870.182 1454.29 L873.59 1456.26 L863.637 1473.5 L860.229 1471.53 Z" fill="#000000" fill-rule="nonzero" fill-opacity="1" /><path clip-path="url(#clip540)" d="M864.045 1443.03 L870.284 1432.22 L873.571 1434.12 L867.333 1444.92 L864.045 1443.03 Z" fill="#000000" fill-rule="nonzero" fill-opacity="1" /><path clip-path="url(#clip540)" d="M883.863 1430.6 L887.682 1423.98 L864.849 1410.8 L862.137 1418.83 L858.449 1416.7 L861.137 1408.71 L863.475 1404.66 L889.997 1419.97 L893.817 1413.36 L897.225 1415.33 L887.271 1432.57 L883.863 1430.6 Z" fill="#000000" fill-rule="nonzero" fill-opacity="1" /><path clip-path="url(#clip540)" d="M872.04 1389.83 L881.218 1373.93 L884.626 1375.9 L877.589 1388.09 L884.926 1392.32 Q885.135 1391.27 885.504 1390.3 Q885.853 1389.33 886.362 1388.45 Q889.255 1383.44 893.692 1382.09 Q898.128 1380.75 902.819 1383.46 Q907.65 1386.25 908.6 1390.81 Q909.53 1395.35 906.371 1400.83 Q905.283 1402.71 903.828 1404.49 Q902.384 1406.25 900.539 1407.97 L896.47 1405.62 Q898.494 1404.38 900.086 1402.73 Q901.678 1401.09 902.916 1398.94 Q904.919 1395.47 904.263 1392.39 Q903.608 1389.32 900.481 1387.51 Q897.354 1385.7 894.36 1386.68 Q891.367 1387.65 889.365 1391.12 Q888.427 1392.74 887.851 1394.57 Q887.286 1396.38 887.075 1398.51 L872.04 1389.83 Z" fill="#000000" fill-rule="nonzero" fill-opacity="1" /><path clip-path="url(#clip540)" d="M1066.96 1615.03 L1075.12 1600.9 L1078.52 1602.86 L1067.55 1621.87 L1064.14 1619.9 Q1063.09 1616.22 1061.37 1609.93 Q1059.64 1603.62 1059.07 1601.92 Q1058.01 1598.72 1056.95 1597.09 Q1055.87 1595.43 1054.41 1594.58 Q1052.02 1593.21 1049.55 1594.02 Q1047.08 1594.82 1045.53 1597.5 Q1044.43 1599.41 1043.87 1601.91 Q1043.32 1604.4 1043.27 1607.58 L1039.18 1605.22 Q1039.61 1602.21 1040.34 1599.79 Q1041.06 1597.38 1042.08 1595.62 Q1044.76 1590.96 1048.69 1589.54 Q1052.61 1588.12 1056.5 1590.36 Q1058.34 1591.43 1059.6 1593.09 Q1060.85 1594.72 1062.04 1597.84 Q1062.34 1598.68 1063.57 1602.97 Q1064.79 1607.26 1066.96 1615.03 Z" fill="#000000" fill-rule="nonzero" fill-opacity="1" /><path clip-path="url(#clip540)" d="M1061.17 1569.96 Q1059.36 1573.09 1061.53 1576.46 Q1063.7 1579.79 1069.87 1583.36 Q1076.03 1586.91 1080.02 1587.13 Q1084 1587.32 1085.8 1584.19 Q1087.62 1581.04 1085.46 1577.71 Q1083.28 1574.34 1077.13 1570.79 Q1070.96 1567.22 1066.97 1567.03 Q1062.98 1566.82 1061.17 1569.96 M1057.96 1568.11 Q1060.86 1563.08 1066.38 1562.74 Q1071.89 1562.36 1079.47 1566.74 Q1087.03 1571.1 1089.48 1576.07 Q1091.92 1581.01 1089.01 1586.04 Q1086.11 1591.07 1080.6 1591.45 Q1075.08 1591.79 1067.52 1587.43 Q1059.95 1583.05 1057.5 1578.11 Q1055.05 1573.14 1057.96 1568.11 Z" fill="#000000" fill-rule="nonzero" fill-opacity="1" /><path clip-path="url(#clip540)" d="M1097.12 1562.79 L1105.28 1548.65 L1108.68 1550.62 L1097.71 1569.63 L1094.3 1567.66 Q1093.25 1563.98 1091.53 1557.69 Q1089.81 1551.38 1089.23 1549.68 Q1088.17 1546.48 1087.11 1544.85 Q1086.04 1543.19 1084.57 1542.34 Q1082.19 1540.96 1079.71 1541.78 Q1077.25 1542.57 1075.7 1545.26 Q1074.6 1547.17 1074.03 1549.67 Q1073.48 1552.16 1073.43 1555.34 L1069.34 1552.98 Q1069.77 1549.97 1070.5 1547.55 Q1071.22 1545.14 1072.24 1543.37 Q1074.93 1538.72 1078.85 1537.3 Q1082.77 1535.88 1086.66 1538.12 Q1088.51 1539.19 1089.76 1540.85 Q1091.01 1542.48 1092.21 1545.6 Q1092.5 1546.44 1093.73 1550.73 Q1094.95 1555.01 1097.12 1562.79 Z" fill="#000000" fill-rule="nonzero" fill-opacity="1" /><path clip-path="url(#clip540)" d="M1104.54 1520.54 Q1106.84 1517.99 1109.74 1517.5 Q1112.65 1516.99 1115.54 1518.66 Q1119.97 1521.21 1120.64 1525.66 Q1121.3 1530.11 1118.06 1535.72 Q1116.97 1537.61 1115.44 1539.39 Q1113.93 1541.17 1111.96 1542.86 L1108.05 1540.61 Q1110.01 1539.49 1111.67 1537.78 Q1113.32 1536.06 1114.59 1533.87 Q1116.78 1530.07 1116.43 1527.21 Q1116.08 1524.34 1113.21 1522.69 Q1110.57 1521.16 1108.01 1522.17 Q1105.44 1523.14 1103.53 1526.45 L1101.52 1529.94 L1098.19 1528.02 L1100.29 1524.37 Q1102.02 1521.38 1101.75 1519.11 Q1101.46 1516.84 1099.22 1515.54 Q1096.91 1514.21 1094.74 1515.15 Q1092.56 1516.05 1090.8 1519.1 Q1089.84 1520.76 1089.1 1522.88 Q1088.36 1524.99 1087.8 1527.71 L1084.2 1525.63 Q1084.89 1522.96 1085.72 1520.77 Q1086.57 1518.56 1087.6 1516.77 Q1090.26 1512.16 1093.92 1510.69 Q1097.55 1509.21 1101.12 1511.27 Q1103.61 1512.7 1104.51 1515.12 Q1105.39 1517.53 1104.54 1520.54 Z" fill="#000000" fill-rule="nonzero" fill-opacity="1" /><path clip-path="url(#clip540)" d="M1114.41 1510.94 L1120.64 1500.14 L1123.93 1502.04 L1117.69 1512.84 L1114.41 1510.94 Z" fill="#000000" fill-rule="nonzero" fill-opacity="1" /><path clip-path="url(#clip540)" d="M1134.22 1498.52 L1138.04 1491.9 L1115.21 1478.72 L1112.5 1486.75 L1108.81 1484.62 L1111.5 1476.63 L1113.84 1472.58 L1140.36 1487.89 L1144.18 1481.28 L1147.59 1483.24 L1137.63 1500.49 L1134.22 1498.52 Z" fill="#000000" fill-rule="nonzero" fill-opacity="1" /><path clip-path="url(#clip540)" d="M1149.3 1472.4 L1153.12 1465.78 L1130.29 1452.6 L1127.58 1460.63 L1123.89 1458.5 L1126.58 1450.51 L1128.92 1446.46 L1155.44 1461.77 L1159.26 1455.16 L1162.67 1457.12 L1152.71 1474.36 L1149.3 1472.4 Z" fill="#000000" fill-rule="nonzero" fill-opacity="1" /><path clip-path="url(#clip540)" d="M1153.12 1443.89 L1159.36 1433.08 L1162.65 1434.98 L1156.41 1445.79 L1153.12 1443.89 Z" fill="#000000" fill-rule="nonzero" fill-opacity="1" /><path clip-path="url(#clip540)" d="M1174.55 1428.67 L1182.71 1414.54 L1186.12 1416.51 L1175.14 1435.51 L1171.74 1433.55 Q1170.68 1429.86 1168.96 1423.58 Q1167.24 1417.26 1166.66 1415.57 Q1165.6 1412.36 1164.54 1410.73 Q1163.47 1409.07 1162 1408.23 Q1159.62 1406.85 1157.14 1407.67 Q1154.68 1408.46 1153.13 1411.15 Q1152.03 1413.05 1151.46 1415.56 Q1150.91 1418.05 1150.86 1421.23 L1146.77 1418.87 Q1147.2 1415.85 1147.93 1413.44 Q1148.65 1411.02 1149.67 1409.26 Q1152.36 1404.61 1156.28 1403.19 Q1160.2 1401.76 1164.09 1404.01 Q1165.94 1405.07 1167.19 1406.73 Q1168.44 1408.37 1169.64 1411.49 Q1169.93 1412.32 1171.16 1416.62 Q1172.38 1420.9 1174.55 1428.67 Z" fill="#000000" fill-rule="nonzero" fill-opacity="1" /><path clip-path="url(#clip540)" d="M1168.76 1383.61 Q1166.95 1386.74 1169.13 1390.1 Q1171.29 1393.44 1177.46 1397 Q1183.62 1400.55 1187.61 1400.77 Q1191.59 1400.96 1193.4 1397.83 Q1195.21 1394.69 1193.05 1391.35 Q1190.88 1387.99 1184.72 1384.43 Q1178.55 1380.87 1174.57 1380.68 Q1170.58 1380.46 1168.76 1383.61 M1165.55 1381.76 Q1168.46 1376.72 1173.97 1376.38 Q1179.48 1376.01 1187.06 1380.38 Q1194.62 1384.75 1197.07 1389.72 Q1199.51 1394.65 1196.6 1399.68 Q1193.7 1404.72 1188.19 1405.09 Q1182.67 1405.43 1175.12 1401.07 Q1167.54 1396.7 1165.1 1391.76 Q1162.65 1386.79 1165.55 1381.76 Z" fill="#000000" fill-rule="nonzero" fill-opacity="1" /><path clip-path="url(#clip540)" d="M1356.29 1615.45 L1364.45 1601.32 L1367.85 1603.28 L1356.88 1622.29 L1353.47 1620.32 Q1352.42 1616.64 1350.7 1610.35 Q1348.97 1604.04 1348.4 1602.35 Q1347.34 1599.14 1346.28 1597.51 Q1345.2 1595.85 1343.74 1595 Q1341.36 1593.63 1338.88 1594.44 Q1336.42 1595.24 1334.86 1597.92 Q1333.76 1599.83 1333.2 1602.34 Q1332.65 1604.82 1332.6 1608 L1328.51 1605.64 Q1328.94 1602.63 1329.67 1600.22 Q1330.39 1597.8 1331.41 1596.04 Q1334.1 1591.39 1338.02 1589.96 Q1341.94 1588.54 1345.83 1590.78 Q1347.67 1591.85 1348.93 1593.51 Q1350.18 1595.14 1351.38 1598.26 Q1351.67 1599.1 1352.9 1603.39 Q1354.12 1607.68 1356.29 1615.45 Z" fill="#000000" fill-rule="nonzero" fill-opacity="1" /><path clip-path="url(#clip540)" d="M1350.5 1570.38 Q1348.69 1573.51 1350.86 1576.88 Q1353.03 1580.21 1359.2 1583.78 Q1365.36 1587.33 1369.35 1587.55 Q1373.33 1587.74 1375.13 1584.61 Q1376.95 1581.46 1374.79 1578.13 Q1372.61 1574.76 1366.46 1571.21 Q1360.29 1567.64 1356.3 1567.46 Q1352.31 1567.24 1350.5 1570.38 M1347.29 1568.53 Q1350.19 1563.5 1355.71 1563.16 Q1361.22 1562.78 1368.8 1567.16 Q1376.36 1571.52 1378.81 1576.49 Q1381.25 1581.43 1378.34 1586.46 Q1375.44 1591.49 1369.93 1591.87 Q1364.41 1592.21 1356.85 1587.85 Q1349.28 1583.47 1346.83 1578.53 Q1344.38 1573.56 1347.29 1568.53 Z" fill="#000000" fill-rule="nonzero" fill-opacity="1" /><path clip-path="url(#clip540)" d="M1386.45 1563.21 L1394.61 1549.08 L1398.02 1551.04 L1387.04 1570.05 L1383.64 1568.08 Q1382.58 1564.4 1380.86 1558.11 Q1379.14 1551.8 1378.56 1550.1 Q1377.5 1546.9 1376.44 1545.27 Q1375.37 1543.61 1373.9 1542.76 Q1371.52 1541.38 1369.04 1542.2 Q1366.58 1543 1365.03 1545.68 Q1363.93 1547.59 1363.36 1550.09 Q1362.81 1552.58 1362.76 1555.76 L1358.67 1553.4 Q1359.1 1550.39 1359.83 1547.97 Q1360.55 1545.56 1361.57 1543.79 Q1364.26 1539.14 1368.18 1537.72 Q1372.1 1536.3 1375.99 1538.54 Q1377.84 1539.61 1379.09 1541.27 Q1380.35 1542.9 1381.54 1546.02 Q1381.83 1546.86 1383.06 1551.15 Q1384.28 1555.44 1386.45 1563.21 Z" fill="#000000" fill-rule="nonzero" fill-opacity="1" /><path clip-path="url(#clip540)" d="M1393.87 1520.96 Q1396.17 1518.41 1399.07 1517.92 Q1401.98 1517.41 1404.87 1519.08 Q1409.3 1521.63 1409.97 1526.08 Q1410.63 1530.53 1407.39 1536.14 Q1406.31 1538.03 1404.77 1539.81 Q1403.26 1541.59 1401.29 1543.29 L1397.38 1541.03 Q1399.34 1539.91 1401 1538.2 Q1402.65 1536.48 1403.92 1534.3 Q1406.11 1530.49 1405.76 1527.63 Q1405.41 1524.76 1402.54 1523.11 Q1399.9 1521.58 1397.34 1522.59 Q1394.77 1523.56 1392.86 1526.87 L1390.85 1530.36 L1387.52 1528.44 L1389.62 1524.79 Q1391.35 1521.8 1391.08 1519.54 Q1390.79 1517.26 1388.55 1515.96 Q1386.24 1514.63 1384.07 1515.57 Q1381.89 1516.47 1380.13 1519.52 Q1379.17 1521.18 1378.43 1523.3 Q1377.69 1525.41 1377.13 1528.14 L1373.53 1526.05 Q1374.22 1523.38 1375.05 1521.19 Q1375.9 1518.98 1376.93 1517.19 Q1379.59 1512.58 1383.25 1511.11 Q1386.88 1509.63 1390.45 1511.69 Q1392.94 1513.12 1393.84 1515.54 Q1394.72 1517.95 1393.87 1520.96 Z" fill="#000000" fill-rule="nonzero" fill-opacity="1" /><path clip-path="url(#clip540)" d="M1403.74 1511.37 L1409.97 1500.56 L1413.26 1502.46 L1407.02 1513.26 L1403.74 1511.37 Z" fill="#000000" fill-rule="nonzero" fill-opacity="1" /><path clip-path="url(#clip540)" d="M1423.55 1498.94 L1427.37 1492.32 L1404.54 1479.14 L1401.83 1487.17 L1398.14 1485.04 L1400.83 1477.05 L1403.17 1473 L1429.69 1488.31 L1433.51 1481.7 L1436.92 1483.67 L1426.96 1500.91 L1423.55 1498.94 Z" fill="#000000" fill-rule="nonzero" fill-opacity="1" /><path clip-path="url(#clip540)" d="M1438.63 1472.82 L1442.45 1466.2 L1419.62 1453.02 L1416.91 1461.05 L1413.22 1458.92 L1415.91 1450.93 L1418.25 1446.88 L1444.77 1462.19 L1448.59 1455.58 L1452 1457.54 L1442.04 1474.79 L1438.63 1472.82 Z" fill="#000000" fill-rule="nonzero" fill-opacity="1" /><path clip-path="url(#clip540)" d="M1442.45 1444.31 L1448.69 1433.5 L1451.98 1435.4 L1445.74 1446.21 L1442.45 1444.31 Z" fill="#000000" fill-rule="nonzero" fill-opacity="1" /><path clip-path="url(#clip540)" d="M1463.88 1429.1 L1472.04 1414.96 L1475.45 1416.93 L1464.47 1435.93 L1461.07 1433.97 Q1460.01 1430.28 1458.29 1424 Q1456.57 1417.68 1455.99 1415.99 Q1454.93 1412.78 1453.87 1411.15 Q1452.8 1409.49 1451.33 1408.65 Q1448.95 1407.27 1446.47 1408.09 Q1444.01 1408.88 1442.46 1411.57 Q1441.36 1413.47 1440.79 1415.98 Q1440.24 1418.47 1440.19 1421.65 L1436.1 1419.29 Q1436.53 1416.27 1437.26 1413.86 Q1437.98 1411.45 1439 1409.68 Q1441.69 1405.03 1445.61 1403.61 Q1449.53 1402.18 1453.42 1404.43 Q1455.27 1405.49 1456.52 1407.16 Q1457.78 1408.79 1458.97 1411.91 Q1459.26 1412.74 1460.49 1417.04 Q1461.71 1421.32 1463.88 1429.1 Z" fill="#000000" fill-rule="nonzero" fill-opacity="1" /><path clip-path="url(#clip540)" d="M1460.37 1382.06 L1470.45 1401.51 L1476.35 1391.29 L1460.37 1382.06 M1456.23 1381.09 L1459.17 1375.99 L1478.68 1387.26 L1481.14 1382.99 L1484.51 1384.93 L1482.05 1389.2 L1489.1 1393.27 L1486.78 1397.3 L1479.72 1393.23 L1471.92 1406.74 L1468.01 1404.48 L1456.23 1381.09 Z" fill="#000000" fill-rule="nonzero" fill-opacity="1" /><path clip-path="url(#clip540)" d="M1646.19 1614.87 L1654.35 1600.74 L1657.76 1602.7 L1646.79 1621.71 L1643.38 1619.74 Q1642.33 1616.06 1640.61 1609.77 Q1638.88 1603.46 1638.31 1601.76 Q1637.25 1598.56 1636.19 1596.93 Q1635.11 1595.27 1633.65 1594.42 Q1631.26 1593.04 1628.79 1593.86 Q1626.32 1594.66 1624.77 1597.34 Q1623.67 1599.25 1623.11 1601.75 Q1622.55 1604.24 1622.51 1607.42 L1618.42 1605.06 Q1618.85 1602.05 1619.58 1599.63 Q1620.3 1597.22 1621.32 1595.46 Q1624 1590.8 1627.93 1589.38 Q1631.85 1587.96 1635.74 1590.2 Q1637.58 1591.27 1638.84 1592.93 Q1640.09 1594.56 1641.28 1597.68 Q1641.58 1598.52 1642.81 1602.81 Q1644.03 1607.1 1646.19 1614.87 Z" fill="#000000" fill-rule="nonzero" fill-opacity="1" /><path clip-path="url(#clip540)" d="M1640.41 1569.8 Q1638.6 1572.93 1640.77 1576.3 Q1642.94 1579.63 1649.11 1583.2 Q1655.27 1586.75 1659.26 1586.97 Q1663.24 1587.15 1665.04 1584.03 Q1666.86 1580.88 1664.7 1577.55 Q1662.52 1574.18 1656.37 1570.63 Q1650.19 1567.06 1646.21 1566.87 Q1642.22 1566.66 1640.41 1569.8 M1637.2 1567.95 Q1640.1 1562.92 1645.62 1562.58 Q1651.13 1562.2 1658.71 1566.58 Q1666.26 1570.94 1668.71 1575.91 Q1671.16 1580.85 1668.25 1585.88 Q1665.35 1590.91 1659.84 1591.29 Q1654.32 1591.63 1646.76 1587.27 Q1639.19 1582.89 1636.74 1577.95 Q1634.29 1572.98 1637.2 1567.95 Z" fill="#000000" fill-rule="nonzero" fill-opacity="1" /><path clip-path="url(#clip540)" d="M1676.36 1562.63 L1684.52 1548.49 L1687.92 1550.46 L1676.95 1569.47 L1673.54 1567.5 Q1672.49 1563.82 1670.77 1557.53 Q1669.05 1551.22 1668.47 1549.52 Q1667.41 1546.32 1666.35 1544.69 Q1665.28 1543.02 1663.81 1542.18 Q1661.43 1540.8 1658.95 1541.62 Q1656.49 1542.41 1654.94 1545.1 Q1653.84 1547.01 1653.27 1549.51 Q1652.72 1552 1652.67 1555.18 L1648.58 1552.82 Q1649.01 1549.81 1649.74 1547.39 Q1650.46 1544.98 1651.48 1543.21 Q1654.17 1538.56 1658.09 1537.14 Q1662.01 1535.71 1665.9 1537.96 Q1667.74 1539.02 1669 1540.69 Q1670.25 1542.32 1671.45 1545.44 Q1671.74 1546.28 1672.97 1550.57 Q1674.19 1554.85 1676.36 1562.63 Z" fill="#000000" fill-rule="nonzero" fill-opacity="1" /><path clip-path="url(#clip540)" d="M1683.78 1520.38 Q1686.08 1517.83 1688.98 1517.34 Q1691.89 1516.83 1694.78 1518.5 Q1699.21 1521.05 1699.88 1525.5 Q1700.54 1529.95 1697.3 1535.56 Q1696.21 1537.45 1694.68 1539.23 Q1693.17 1541.01 1691.2 1542.7 L1687.29 1540.45 Q1689.25 1539.33 1690.9 1537.61 Q1692.56 1535.9 1693.82 1533.71 Q1696.02 1529.91 1695.67 1527.05 Q1695.32 1524.18 1692.45 1522.53 Q1689.81 1521 1687.25 1522.01 Q1684.68 1522.98 1682.77 1526.29 L1680.76 1529.78 L1677.43 1527.86 L1679.53 1524.21 Q1681.26 1521.22 1680.99 1518.95 Q1680.7 1516.68 1678.46 1515.38 Q1676.15 1514.05 1673.98 1514.99 Q1671.8 1515.89 1670.04 1518.94 Q1669.08 1520.6 1668.34 1522.72 Q1667.6 1524.83 1667.04 1527.55 L1663.44 1525.47 Q1664.12 1522.8 1664.96 1520.61 Q1665.81 1518.4 1666.84 1516.61 Q1669.5 1512 1673.16 1510.53 Q1676.79 1509.05 1680.36 1511.11 Q1682.85 1512.54 1683.75 1514.96 Q1684.63 1517.37 1683.78 1520.38 Z" fill="#000000" fill-rule="nonzero" fill-opacity="1" /><path clip-path="url(#clip540)" d="M1693.65 1510.78 L1699.88 1499.98 L1703.17 1501.88 L1696.93 1512.68 L1693.65 1510.78 Z" fill="#000000" fill-rule="nonzero" fill-opacity="1" /><path clip-path="url(#clip540)" d="M1713.46 1498.36 L1717.28 1491.74 L1694.45 1478.56 L1691.74 1486.59 L1688.05 1484.46 L1690.74 1476.47 L1693.08 1472.42 L1719.6 1487.73 L1723.42 1481.12 L1726.82 1483.08 L1716.87 1500.32 L1713.46 1498.36 Z" fill="#000000" fill-rule="nonzero" fill-opacity="1" /><path clip-path="url(#clip540)" d="M1728.54 1472.24 L1732.36 1465.62 L1709.53 1452.44 L1706.82 1460.47 L1703.13 1458.34 L1705.82 1450.35 L1708.16 1446.3 L1734.68 1461.61 L1738.5 1455 L1741.91 1456.96 L1731.95 1474.2 L1728.54 1472.24 Z" fill="#000000" fill-rule="nonzero" fill-opacity="1" /><path clip-path="url(#clip540)" d="M1732.36 1443.73 L1738.6 1432.92 L1741.89 1434.82 L1735.65 1445.63 L1732.36 1443.73 Z" fill="#000000" fill-rule="nonzero" fill-opacity="1" /><path clip-path="url(#clip540)" d="M1753.79 1428.51 L1761.95 1414.38 L1765.35 1416.35 L1754.38 1435.35 L1750.97 1433.39 Q1749.92 1429.7 1748.2 1423.42 Q1746.48 1417.1 1745.9 1415.41 Q1744.84 1412.2 1743.78 1410.57 Q1742.71 1408.91 1741.24 1408.07 Q1738.86 1406.69 1736.38 1407.51 Q1733.92 1408.3 1732.37 1410.99 Q1731.27 1412.89 1730.7 1415.4 Q1730.15 1417.89 1730.1 1421.07 L1726.01 1418.71 Q1726.44 1415.69 1727.17 1413.28 Q1727.89 1410.86 1728.91 1409.1 Q1731.6 1404.45 1735.52 1403.03 Q1739.44 1401.6 1743.33 1403.85 Q1745.18 1404.91 1746.43 1406.57 Q1747.68 1408.2 1748.88 1411.33 Q1749.17 1412.16 1750.4 1416.46 Q1751.62 1420.74 1753.79 1428.51 Z" fill="#000000" fill-rule="nonzero" fill-opacity="1" /><path clip-path="url(#clip540)" d="M1769.71 1407.37 L1766.02 1405.24 Q1767.62 1404.13 1768.91 1402.79 Q1770.19 1401.45 1771.06 1399.94 Q1773.37 1395.93 1771.9 1392.28 Q1770.42 1388.59 1765.1 1385.12 Q1766.16 1387.28 1766.05 1389.59 Q1765.94 1391.91 1764.69 1394.07 Q1762.1 1398.56 1757.87 1399.63 Q1753.64 1400.66 1748.93 1397.94 Q1744.32 1395.28 1743.11 1390.94 Q1741.9 1386.61 1744.51 1382.08 Q1747.51 1376.89 1753.07 1376.46 Q1758.63 1376.01 1766.21 1380.38 Q1773.28 1384.47 1775.57 1390.28 Q1777.85 1396.06 1774.57 1401.73 Q1773.69 1403.25 1772.49 1404.64 Q1771.28 1406.03 1769.71 1407.37 M1761.67 1391.98 Q1763.25 1389.26 1762.3 1386.6 Q1761.36 1383.92 1758.11 1382.04 Q1754.88 1380.18 1752.09 1380.71 Q1749.29 1381.2 1747.72 1383.93 Q1746.15 1386.66 1747.1 1389.35 Q1748.05 1392.01 1751.28 1393.87 Q1754.53 1395.75 1757.31 1395.24 Q1760.1 1394.71 1761.67 1391.98 Z" fill="#000000" fill-rule="nonzero" fill-opacity="1" /><path clip-path="url(#clip540)" d="M1935.43 1615.45 L1943.59 1601.32 L1947 1603.28 L1936.03 1622.29 L1932.62 1620.32 Q1931.57 1616.64 1929.85 1610.35 Q1928.12 1604.04 1927.55 1602.35 Q1926.49 1599.14 1925.42 1597.51 Q1924.35 1595.85 1922.89 1595 Q1920.5 1593.63 1918.03 1594.44 Q1915.56 1595.24 1914.01 1597.92 Q1912.91 1599.83 1912.35 1602.34 Q1911.79 1604.82 1911.75 1608 L1907.66 1605.64 Q1908.09 1602.63 1908.81 1600.22 Q1909.54 1597.8 1910.56 1596.04 Q1913.24 1591.39 1917.16 1589.96 Q1921.09 1588.54 1924.98 1590.78 Q1926.82 1591.85 1928.08 1593.51 Q1929.33 1595.14 1930.52 1598.26 Q1930.81 1599.1 1932.05 1603.39 Q1933.27 1607.68 1935.43 1615.45 Z" fill="#000000" fill-rule="nonzero" fill-opacity="1" /><path clip-path="url(#clip540)" d="M1929.64 1570.38 Q1927.84 1573.51 1930.01 1576.88 Q1932.18 1580.21 1938.35 1583.78 Q1944.5 1587.33 1948.49 1587.55 Q1952.48 1587.74 1954.28 1584.61 Q1956.1 1581.46 1953.93 1578.13 Q1951.76 1574.76 1945.61 1571.21 Q1939.43 1567.64 1935.45 1567.46 Q1931.46 1567.24 1929.64 1570.38 M1926.44 1568.53 Q1929.34 1563.5 1934.86 1563.16 Q1940.37 1562.78 1947.95 1567.16 Q1955.5 1571.52 1957.95 1576.49 Q1960.39 1581.43 1957.49 1586.46 Q1954.58 1591.49 1949.08 1591.87 Q1943.56 1592.21 1936 1587.85 Q1928.42 1583.47 1925.98 1578.53 Q1923.53 1573.56 1926.44 1568.53 Z" fill="#000000" fill-rule="nonzero" fill-opacity="1" /><path clip-path="url(#clip540)" d="M1965.59 1563.21 L1973.75 1549.08 L1977.16 1551.04 L1966.19 1570.05 L1962.78 1568.08 Q1961.73 1564.4 1960.01 1558.11 Q1958.28 1551.8 1957.71 1550.1 Q1956.65 1546.9 1955.59 1545.27 Q1954.51 1543.61 1953.05 1542.76 Q1950.66 1541.38 1948.19 1542.2 Q1945.72 1543 1944.17 1545.68 Q1943.07 1547.59 1942.51 1550.09 Q1941.95 1552.58 1941.91 1555.76 L1937.82 1553.4 Q1938.25 1550.39 1938.97 1547.97 Q1939.7 1545.56 1940.72 1543.79 Q1943.4 1539.14 1947.33 1537.72 Q1951.25 1536.3 1955.14 1538.54 Q1956.98 1539.61 1958.24 1541.27 Q1959.49 1542.9 1960.68 1546.02 Q1960.98 1546.86 1962.21 1551.15 Q1963.43 1555.44 1965.59 1563.21 Z" fill="#000000" fill-rule="nonzero" fill-opacity="1" /><path clip-path="url(#clip540)" d="M1973.02 1520.96 Q1975.31 1518.41 1978.22 1517.92 Q1981.13 1517.41 1984.02 1519.08 Q1988.45 1521.63 1989.11 1526.08 Q1989.78 1530.53 1986.54 1536.14 Q1985.45 1538.03 1983.91 1539.81 Q1982.41 1541.59 1980.44 1543.29 L1976.53 1541.03 Q1978.48 1539.91 1980.14 1538.2 Q1981.8 1536.48 1983.06 1534.3 Q1985.26 1530.49 1984.9 1527.63 Q1984.56 1524.76 1981.69 1523.11 Q1979.04 1521.58 1976.49 1522.59 Q1973.92 1523.56 1972.01 1526.87 L1969.99 1530.36 L1966.67 1528.44 L1968.77 1524.79 Q1970.5 1521.8 1970.23 1519.54 Q1969.94 1517.26 1967.69 1515.96 Q1965.39 1514.63 1963.22 1515.57 Q1961.04 1516.47 1959.28 1519.52 Q1958.32 1521.18 1957.58 1523.3 Q1956.84 1525.41 1956.28 1528.14 L1952.67 1526.05 Q1953.36 1523.38 1954.2 1521.19 Q1955.05 1518.98 1956.08 1517.19 Q1958.74 1512.58 1962.4 1511.11 Q1966.03 1509.63 1969.6 1511.69 Q1972.09 1513.12 1972.99 1515.54 Q1973.87 1517.95 1973.02 1520.96 Z" fill="#000000" fill-rule="nonzero" fill-opacity="1" /><path clip-path="url(#clip540)" d="M1982.88 1511.37 L1989.12 1500.56 L1992.41 1502.46 L1986.17 1513.26 L1982.88 1511.37 Z" fill="#000000" fill-rule="nonzero" fill-opacity="1" /><path clip-path="url(#clip540)" d="M2002.7 1498.94 L2006.52 1492.32 L1983.69 1479.14 L1980.98 1487.17 L1977.29 1485.04 L1979.98 1477.05 L1982.31 1473 L2008.84 1488.31 L2012.65 1481.7 L2016.06 1483.67 L2006.11 1500.91 L2002.7 1498.94 Z" fill="#000000" fill-rule="nonzero" fill-opacity="1" /><path clip-path="url(#clip540)" d="M2019.39 1470.03 L2027.55 1455.9 L2030.96 1457.87 L2019.99 1476.87 L2016.58 1474.9 Q2015.52 1471.22 2013.81 1464.94 Q2012.08 1458.62 2011.51 1456.93 Q2010.44 1453.72 2009.38 1452.09 Q2008.31 1450.43 2006.85 1449.58 Q2004.46 1448.21 2001.98 1449.02 Q1999.52 1449.82 1997.97 1452.5 Q1996.87 1454.41 1996.3 1456.92 Q1995.75 1459.4 1995.7 1462.58 L1991.62 1460.22 Q1992.05 1457.21 1992.77 1454.8 Q1993.5 1452.38 1994.51 1450.62 Q1997.2 1445.97 2001.12 1444.54 Q2005.05 1443.12 2008.93 1445.36 Q2010.78 1446.43 2012.04 1448.09 Q2013.29 1449.72 2014.48 1452.84 Q2014.77 1453.68 2016.01 1457.97 Q2017.22 1462.26 2019.39 1470.03 Z" fill="#000000" fill-rule="nonzero" fill-opacity="1" /><path clip-path="url(#clip540)" d="M2021.6 1444.31 L2027.84 1433.5 L2031.12 1435.4 L2024.89 1446.21 L2021.6 1444.31 Z" fill="#000000" fill-rule="nonzero" fill-opacity="1" /><path clip-path="url(#clip540)" d="M2022.16 1410.15 Q2020.35 1413.28 2022.52 1416.64 Q2024.69 1419.98 2030.86 1423.54 Q2037.02 1427.1 2041.01 1427.32 Q2044.99 1427.5 2046.79 1424.37 Q2048.61 1421.23 2046.45 1417.89 Q2044.27 1414.53 2038.12 1410.97 Q2031.94 1407.41 2027.96 1407.22 Q2023.97 1407 2022.16 1410.15 M2018.95 1408.3 Q2021.85 1403.27 2027.37 1402.92 Q2032.88 1402.55 2040.46 1406.92 Q2048.01 1411.29 2050.46 1416.26 Q2052.91 1421.19 2050 1426.23 Q2047.1 1431.26 2041.59 1431.63 Q2036.07 1431.98 2028.51 1427.61 Q2020.93 1423.24 2018.49 1418.3 Q2016.04 1413.33 2018.95 1408.3 Z" fill="#000000" fill-rule="nonzero" fill-opacity="1" /><path clip-path="url(#clip540)" d="M2039.52 1382.06 L2049.6 1401.51 L2055.5 1391.29 L2039.52 1382.06 M2035.38 1381.09 L2038.32 1375.99 L2057.83 1387.26 L2060.29 1382.99 L2063.66 1384.93 L2061.19 1389.2 L2068.25 1393.27 L2065.92 1397.3 L2058.87 1393.23 L2051.07 1406.74 L2047.16 1404.48 L2035.38 1381.09 Z" fill="#000000" fill-rule="nonzero" fill-opacity="1" /><polyline clip-path="url(#clip542)" style="stroke:#000000; stroke-linecap:round; stroke-linejoin:round; stroke-width:2; stroke-opacity:0.1; fill:none" points="214.353,1248.45 2352.76,1248.45 "/>
<polyline clip-path="url(#clip542)" style="stroke:#000000; stroke-linecap:round; stroke-linejoin:round; stroke-width:2; stroke-opacity:0.1; fill:none" points="214.353,986.197 2352.76,986.197 "/>
<polyline clip-path="url(#clip542)" style="stroke:#000000; stroke-linecap:round; stroke-linejoin:round; stroke-width:2; stroke-opacity:0.1; fill:none" points="214.353,723.949 2352.76,723.949 "/>
<polyline clip-path="url(#clip542)" style="stroke:#000000; stroke-linecap:round; stroke-linejoin:round; stroke-width:2; stroke-opacity:0.1; fill:none" points="214.353,461.701 2352.76,461.701 "/>
<polyline clip-path="url(#clip542)" style="stroke:#000000; stroke-linecap:round; stroke-linejoin:round; stroke-width:2; stroke-opacity:0.1; fill:none" points="214.353,199.453 2352.76,199.453 "/>
<polyline clip-path="url(#clip540)" style="stroke:#000000; stroke-linecap:round; stroke-linejoin:round; stroke-width:4; stroke-opacity:1; fill:none" points="214.353,1348.2 214.353,47.2441 "/>
<polyline clip-path="url(#clip540)" style="stroke:#000000; stroke-linecap:round; stroke-linejoin:round; stroke-width:4; stroke-opacity:1; fill:none" points="214.353,1248.45 233.25,1248.45 "/>
<polyline clip-path="url(#clip540)" style="stroke:#000000; stroke-linecap:round; stroke-linejoin:round; stroke-width:4; stroke-opacity:1; fill:none" points="214.353,986.197 233.25,986.197 "/>
<polyline clip-path="url(#clip540)" style="stroke:#000000; stroke-linecap:round; stroke-linejoin:round; stroke-width:4; stroke-opacity:1; fill:none" points="214.353,723.949 233.25,723.949 "/>
<polyline clip-path="url(#clip540)" style="stroke:#000000; stroke-linecap:round; stroke-linejoin:round; stroke-width:4; stroke-opacity:1; fill:none" points="214.353,461.701 233.25,461.701 "/>
<polyline clip-path="url(#clip540)" style="stroke:#000000; stroke-linecap:round; stroke-linejoin:round; stroke-width:4; stroke-opacity:1; fill:none" points="214.353,199.453 233.25,199.453 "/>
<path clip-path="url(#clip540)" d="M51.6634 1261.79 L59.3023 1261.79 L59.3023 1235.42 L50.9921 1237.09 L50.9921 1232.83 L59.256 1231.17 L63.9319 1231.17 L63.9319 1261.79 L71.5707 1261.79 L71.5707 1265.73 L51.6634 1265.73 L51.6634 1261.79 Z" fill="#000000" fill-rule="nonzero" fill-opacity="1" /><path clip-path="url(#clip540)" d="M95.1817 1247.09 Q98.5382 1247.81 100.413 1250.08 Q102.311 1252.35 102.311 1255.68 Q102.311 1260.79 98.7928 1263.6 Q95.2743 1266.4 88.7928 1266.4 Q86.6169 1266.4 84.3021 1265.96 Q82.0105 1265.54 79.5568 1264.68 L79.5568 1260.17 Q81.5012 1261.3 83.816 1261.88 Q86.1308 1262.46 88.654 1262.46 Q93.0521 1262.46 95.3437 1260.73 Q97.6585 1258.99 97.6585 1255.68 Q97.6585 1252.62 95.5058 1250.91 Q93.3762 1249.17 89.5567 1249.17 L85.529 1249.17 L85.529 1245.33 L89.7419 1245.33 Q93.191 1245.33 95.0197 1243.97 Q96.8484 1242.58 96.8484 1239.98 Q96.8484 1237.32 94.9502 1235.91 Q93.0752 1234.48 89.5567 1234.48 Q87.6354 1234.48 85.4364 1234.89 Q83.2373 1235.31 80.5984 1236.19 L80.5984 1232.02 Q83.2605 1231.28 85.5753 1230.91 Q87.9132 1230.54 89.9734 1230.54 Q95.2974 1230.54 98.3993 1232.97 Q101.501 1235.38 101.501 1239.5 Q101.501 1242.37 99.8576 1244.36 Q98.2141 1246.33 95.1817 1247.09 Z" fill="#000000" fill-rule="nonzero" fill-opacity="1" /><path clip-path="url(#clip540)" d="M121.177 1234.24 Q117.566 1234.24 115.737 1237.81 Q113.932 1241.35 113.932 1248.48 Q113.932 1255.59 115.737 1259.15 Q117.566 1262.69 121.177 1262.69 Q124.811 1262.69 126.617 1259.15 Q128.445 1255.59 128.445 1248.48 Q128.445 1241.35 126.617 1237.81 Q124.811 1234.24 121.177 1234.24 M121.177 1230.54 Q126.987 1230.54 130.043 1235.15 Q133.121 1239.73 133.121 1248.48 Q133.121 1257.21 130.043 1261.81 Q126.987 1266.4 121.177 1266.4 Q115.367 1266.4 112.288 1261.81 Q109.233 1257.21 109.233 1248.48 Q109.233 1239.73 112.288 1235.15 Q115.367 1230.54 121.177 1230.54 Z" fill="#000000" fill-rule="nonzero" fill-opacity="1" /><path clip-path="url(#clip540)" d="M141.339 1259.85 L146.223 1259.85 L146.223 1265.73 L141.339 1265.73 L141.339 1259.85 Z" fill="#000000" fill-rule="nonzero" fill-opacity="1" /><path clip-path="url(#clip540)" d="M166.408 1234.24 Q162.797 1234.24 160.968 1237.81 Q159.163 1241.35 159.163 1248.48 Q159.163 1255.59 160.968 1259.15 Q162.797 1262.69 166.408 1262.69 Q170.042 1262.69 171.848 1259.15 Q173.677 1255.59 173.677 1248.48 Q173.677 1241.35 171.848 1237.81 Q170.042 1234.24 166.408 1234.24 M166.408 1230.54 Q172.218 1230.54 175.274 1235.15 Q178.353 1239.73 178.353 1248.48 Q178.353 1257.21 175.274 1261.81 Q172.218 1266.4 166.408 1266.4 Q160.598 1266.4 157.519 1261.81 Q154.464 1257.21 154.464 1248.48 Q154.464 1239.73 157.519 1235.15 Q160.598 1230.54 166.408 1230.54 Z" fill="#000000" fill-rule="nonzero" fill-opacity="1" /><path clip-path="url(#clip540)" d="M52.6588 999.542 L60.2976 999.542 L60.2976 973.177 L51.9875 974.843 L51.9875 970.584 L60.2513 968.917 L64.9272 968.917 L64.9272 999.542 L72.5661 999.542 L72.5661 1003.48 L52.6588 1003.48 L52.6588 999.542 Z" fill="#000000" fill-rule="nonzero" fill-opacity="1" /><path clip-path="url(#clip540)" d="M96.1771 984.843 Q99.5335 985.561 101.409 987.829 Q103.307 990.098 103.307 993.431 Q103.307 998.547 99.7882 1001.35 Q96.2697 1004.15 89.7882 1004.15 Q87.6123 1004.15 85.2975 1003.71 Q83.0058 1003.29 80.5522 1002.44 L80.5522 997.922 Q82.4966 999.056 84.8114 999.635 Q87.1262 1000.21 89.6493 1000.21 Q94.0475 1000.21 96.3391 998.477 Q98.6539 996.741 98.6539 993.431 Q98.6539 990.375 96.5011 988.663 Q94.3715 986.926 90.5521 986.926 L86.5243 986.926 L86.5243 983.084 L90.7373 983.084 Q94.1863 983.084 96.015 981.718 Q97.8437 980.329 97.8437 977.737 Q97.8437 975.075 95.9456 973.663 Q94.0706 972.227 90.5521 972.227 Q88.6308 972.227 86.4318 972.644 Q84.2327 973.061 81.5938 973.94 L81.5938 969.774 Q84.2558 969.033 86.5706 968.663 Q88.9086 968.292 90.9688 968.292 Q96.2928 968.292 99.3946 970.723 Q102.496 973.13 102.496 977.251 Q102.496 980.121 100.853 982.112 Q99.2095 984.079 96.1771 984.843 Z" fill="#000000" fill-rule="nonzero" fill-opacity="1" /><path clip-path="url(#clip540)" d="M116.2 999.542 L132.519 999.542 L132.519 1003.48 L110.575 1003.48 L110.575 999.542 Q113.237 996.787 117.82 992.158 Q122.427 987.505 123.607 986.163 Q125.853 983.639 126.732 981.903 Q127.635 980.144 127.635 978.454 Q127.635 975.7 125.691 973.964 Q123.77 972.227 120.668 972.227 Q118.469 972.227 116.015 972.991 Q113.584 973.755 110.807 975.306 L110.807 970.584 Q113.631 969.45 116.084 968.871 Q118.538 968.292 120.575 968.292 Q125.945 968.292 129.14 970.977 Q132.334 973.663 132.334 978.153 Q132.334 980.283 131.524 982.204 Q130.737 984.102 128.631 986.695 Q128.052 987.366 124.95 990.584 Q121.848 993.778 116.2 999.542 Z" fill="#000000" fill-rule="nonzero" fill-opacity="1" /><path clip-path="url(#clip540)" d="M142.334 997.598 L147.218 997.598 L147.218 1003.48 L142.334 1003.48 L142.334 997.598 Z" fill="#000000" fill-rule="nonzero" fill-opacity="1" /><path clip-path="url(#clip540)" d="M157.45 968.917 L175.806 968.917 L175.806 972.852 L161.732 972.852 L161.732 981.325 Q162.751 980.977 163.769 980.815 Q164.788 980.63 165.806 980.63 Q171.593 980.63 174.973 983.801 Q178.353 986.973 178.353 992.389 Q178.353 997.968 174.88 1001.07 Q171.408 1004.15 165.089 1004.15 Q162.913 1004.15 160.644 1003.78 Q158.399 1003.41 155.992 1002.67 L155.992 997.968 Q158.075 999.102 160.297 999.658 Q162.519 1000.21 164.996 1000.21 Q169.001 1000.21 171.339 998.107 Q173.677 996 173.677 992.389 Q173.677 988.778 171.339 986.672 Q169.001 984.565 164.996 984.565 Q163.121 984.565 161.246 984.982 Q159.394 985.399 157.45 986.278 L157.45 968.917 Z" fill="#000000" fill-rule="nonzero" fill-opacity="1" /><path clip-path="url(#clip540)" d="M51.6634 737.294 L59.3023 737.294 L59.3023 710.929 L50.9921 712.595 L50.9921 708.336 L59.256 706.669 L63.9319 706.669 L63.9319 737.294 L71.5707 737.294 L71.5707 741.229 L51.6634 741.229 L51.6634 737.294 Z" fill="#000000" fill-rule="nonzero" fill-opacity="1" /><path clip-path="url(#clip540)" d="M95.1817 722.595 Q98.5382 723.313 100.413 725.581 Q102.311 727.85 102.311 731.183 Q102.311 736.299 98.7928 739.1 Q95.2743 741.901 88.7928 741.901 Q86.6169 741.901 84.3021 741.461 Q82.0105 741.044 79.5568 740.188 L79.5568 735.674 Q81.5012 736.808 83.816 737.387 Q86.1308 737.965 88.654 737.965 Q93.0521 737.965 95.3437 736.229 Q97.6585 734.493 97.6585 731.183 Q97.6585 728.128 95.5058 726.415 Q93.3762 724.678 89.5567 724.678 L85.529 724.678 L85.529 720.836 L89.7419 720.836 Q93.191 720.836 95.0197 719.47 Q96.8484 718.081 96.8484 715.489 Q96.8484 712.827 94.9502 711.415 Q93.0752 709.979 89.5567 709.979 Q87.6354 709.979 85.4364 710.396 Q83.2373 710.813 80.5984 711.692 L80.5984 707.526 Q83.2605 706.785 85.5753 706.415 Q87.9132 706.044 89.9734 706.044 Q95.2974 706.044 98.3993 708.475 Q101.501 710.882 101.501 715.003 Q101.501 717.873 99.8576 719.864 Q98.2141 721.831 95.1817 722.595 Z" fill="#000000" fill-rule="nonzero" fill-opacity="1" /><path clip-path="url(#clip540)" d="M111.223 706.669 L129.58 706.669 L129.58 710.604 L115.506 710.604 L115.506 719.077 Q116.524 718.729 117.543 718.567 Q118.561 718.382 119.58 718.382 Q125.367 718.382 128.746 721.554 Q132.126 724.725 132.126 730.141 Q132.126 735.72 128.654 738.822 Q125.182 741.901 118.862 741.901 Q116.686 741.901 114.418 741.53 Q112.172 741.16 109.765 740.419 L109.765 735.72 Q111.848 736.854 114.07 737.41 Q116.293 737.965 118.77 737.965 Q122.774 737.965 125.112 735.859 Q127.45 733.753 127.45 730.141 Q127.45 726.53 125.112 724.424 Q122.774 722.317 118.77 722.317 Q116.895 722.317 115.02 722.734 Q113.168 723.151 111.223 724.03 L111.223 706.669 Z" fill="#000000" fill-rule="nonzero" fill-opacity="1" /><path clip-path="url(#clip540)" d="M141.339 735.35 L146.223 735.35 L146.223 741.229 L141.339 741.229 L141.339 735.35 Z" fill="#000000" fill-rule="nonzero" fill-opacity="1" /><path clip-path="url(#clip540)" d="M166.408 709.748 Q162.797 709.748 160.968 713.313 Q159.163 716.854 159.163 723.984 Q159.163 731.09 160.968 734.655 Q162.797 738.197 166.408 738.197 Q170.042 738.197 171.848 734.655 Q173.677 731.09 173.677 723.984 Q173.677 716.854 171.848 713.313 Q170.042 709.748 166.408 709.748 M166.408 706.044 Q172.218 706.044 175.274 710.651 Q178.353 715.234 178.353 723.984 Q178.353 732.711 175.274 737.317 Q172.218 741.901 166.408 741.901 Q160.598 741.901 157.519 737.317 Q154.464 732.711 154.464 723.984 Q154.464 715.234 157.519 710.651 Q160.598 706.044 166.408 706.044 Z" fill="#000000" fill-rule="nonzero" fill-opacity="1" /><path clip-path="url(#clip540)" d="M52.6588 475.046 L60.2976 475.046 L60.2976 448.681 L51.9875 450.347 L51.9875 446.088 L60.2513 444.421 L64.9272 444.421 L64.9272 475.046 L72.5661 475.046 L72.5661 478.981 L52.6588 478.981 L52.6588 475.046 Z" fill="#000000" fill-rule="nonzero" fill-opacity="1" /><path clip-path="url(#clip540)" d="M96.1771 460.347 Q99.5335 461.065 101.409 463.333 Q103.307 465.602 103.307 468.935 Q103.307 474.051 99.7882 476.852 Q96.2697 479.653 89.7882 479.653 Q87.6123 479.653 85.2975 479.213 Q83.0058 478.796 80.5522 477.94 L80.5522 473.426 Q82.4966 474.56 84.8114 475.139 Q87.1262 475.718 89.6493 475.718 Q94.0475 475.718 96.3391 473.981 Q98.6539 472.245 98.6539 468.935 Q98.6539 465.88 96.5011 464.167 Q94.3715 462.431 90.5521 462.431 L86.5243 462.431 L86.5243 458.588 L90.7373 458.588 Q94.1863 458.588 96.015 457.222 Q97.8437 455.833 97.8437 453.241 Q97.8437 450.579 95.9456 449.167 Q94.0706 447.732 90.5521 447.732 Q88.6308 447.732 86.4318 448.148 Q84.2327 448.565 81.5938 449.445 L81.5938 445.278 Q84.2558 444.537 86.5706 444.167 Q88.9086 443.796 90.9688 443.796 Q96.2928 443.796 99.3946 446.227 Q102.496 448.634 102.496 452.755 Q102.496 455.625 100.853 457.616 Q99.2095 459.583 96.1771 460.347 Z" fill="#000000" fill-rule="nonzero" fill-opacity="1" /><path clip-path="url(#clip540)" d="M110.992 444.421 L133.214 444.421 L133.214 446.412 L120.668 478.981 L115.783 478.981 L127.589 448.357 L110.992 448.357 L110.992 444.421 Z" fill="#000000" fill-rule="nonzero" fill-opacity="1" /><path clip-path="url(#clip540)" d="M142.334 473.102 L147.218 473.102 L147.218 478.981 L142.334 478.981 L142.334 473.102 Z" fill="#000000" fill-rule="nonzero" fill-opacity="1" /><path clip-path="url(#clip540)" d="M157.45 444.421 L175.806 444.421 L175.806 448.357 L161.732 448.357 L161.732 456.829 Q162.751 456.482 163.769 456.319 Q164.788 456.134 165.806 456.134 Q171.593 456.134 174.973 459.306 Q178.353 462.477 178.353 467.893 Q178.353 473.472 174.88 476.574 Q171.408 479.653 165.089 479.653 Q162.913 479.653 160.644 479.282 Q158.399 478.912 155.992 478.171 L155.992 473.472 Q158.075 474.606 160.297 475.162 Q162.519 475.718 164.996 475.718 Q169.001 475.718 171.339 473.611 Q173.677 471.505 173.677 467.893 Q173.677 464.282 171.339 462.176 Q169.001 460.069 164.996 460.069 Q163.121 460.069 161.246 460.486 Q159.394 460.903 157.45 461.782 L157.45 444.421 Z" fill="#000000" fill-rule="nonzero" fill-opacity="1" /><path clip-path="url(#clip540)" d="M51.6634 212.798 L59.3023 212.798 L59.3023 186.433 L50.9921 188.099 L50.9921 183.84 L59.256 182.173 L63.9319 182.173 L63.9319 212.798 L71.5707 212.798 L71.5707 216.733 L51.6634 216.733 L51.6634 212.798 Z" fill="#000000" fill-rule="nonzero" fill-opacity="1" /><path clip-path="url(#clip540)" d="M93.8623 186.248 L82.0568 204.696 L93.8623 204.696 L93.8623 186.248 M92.6354 182.173 L98.515 182.173 L98.515 204.696 L103.446 204.696 L103.446 208.585 L98.515 208.585 L98.515 216.733 L93.8623 216.733 L93.8623 208.585 L78.2605 208.585 L78.2605 204.071 L92.6354 182.173 Z" fill="#000000" fill-rule="nonzero" fill-opacity="1" /><path clip-path="url(#clip540)" d="M121.177 185.252 Q117.566 185.252 115.737 188.817 Q113.932 192.359 113.932 199.488 Q113.932 206.595 115.737 210.159 Q117.566 213.701 121.177 213.701 Q124.811 213.701 126.617 210.159 Q128.445 206.595 128.445 199.488 Q128.445 192.359 126.617 188.817 Q124.811 185.252 121.177 185.252 M121.177 181.548 Q126.987 181.548 130.043 186.155 Q133.121 190.738 133.121 199.488 Q133.121 208.215 130.043 212.821 Q126.987 217.405 121.177 217.405 Q115.367 217.405 112.288 212.821 Q109.233 208.215 109.233 199.488 Q109.233 190.738 112.288 186.155 Q115.367 181.548 121.177 181.548 Z" fill="#000000" fill-rule="nonzero" fill-opacity="1" /><path clip-path="url(#clip540)" d="M141.339 210.854 L146.223 210.854 L146.223 216.733 L141.339 216.733 L141.339 210.854 Z" fill="#000000" fill-rule="nonzero" fill-opacity="1" /><path clip-path="url(#clip540)" d="M166.408 185.252 Q162.797 185.252 160.968 188.817 Q159.163 192.359 159.163 199.488 Q159.163 206.595 160.968 210.159 Q162.797 213.701 166.408 213.701 Q170.042 213.701 171.848 210.159 Q173.677 206.595 173.677 199.488 Q173.677 192.359 171.848 188.817 Q170.042 185.252 166.408 185.252 M166.408 181.548 Q172.218 181.548 175.274 186.155 Q178.353 190.738 178.353 199.488 Q178.353 208.215 175.274 212.821 Q172.218 217.405 166.408 217.405 Q160.598 217.405 157.519 212.821 Q154.464 208.215 154.464 199.488 Q154.464 190.738 157.519 186.155 Q160.598 181.548 166.408 181.548 Z" fill="#000000" fill-rule="nonzero" fill-opacity="1" /><path clip-path="url(#clip542)" d="M318.309 1128.86 L318.309 1040.75 L274.873 1040.75 L274.873 996.688 L318.309 996.688 L318.309 904.376 L318.309 996.688 L361.745 996.688 L361.745 1040.75 L318.309 1040.75 L318.309 1128.86  Z" fill="#008000" fill-rule="evenodd" fill-opacity="1"/>
<polyline clip-path="url(#clip542)" style="stroke:#008000; stroke-linecap:round; stroke-linejoin:round; stroke-width:2; stroke-opacity:1; fill:none" points="318.309,1128.86 318.309,1040.75 274.873,1040.75 274.873,996.688 318.309,996.688 318.309,904.376 318.309,996.688 361.745,996.688 361.745,1040.75 318.309,1040.75 318.309,1128.86 "/>
<path clip-path="url(#clip542)" d="M414.834 1021.86 L414.834 1000.88 L371.398 1000.88 L371.398 906.474 L414.834 906.474 L414.834 877.103 L414.834 906.474 L458.27 906.474 L458.27 1000.88 L414.834 1000.88 L414.834 1021.86  Z" fill="#008000" fill-rule="evenodd" fill-opacity="1"/>
<polyline clip-path="url(#clip542)" style="stroke:#008000; stroke-linecap:round; stroke-linejoin:round; stroke-width:2; stroke-opacity:1; fill:none" points="414.834,1021.86 414.834,1000.88 371.398,1000.88 371.398,906.474 414.834,906.474 414.834,877.103 414.834,906.474 458.27,906.474 458.27,1000.88 414.834,1000.88 414.834,1021.86 "/>
<path clip-path="url(#clip542)" d="M511.358 1090.05 L511.358 1071.17 L467.922 1071.17 L467.922 895.984 L511.358 895.984 L511.358 833.044 L511.358 895.984 L554.794 895.984 L554.794 1071.17 L511.358 1071.17 L511.358 1090.05  Z" fill="#ff0000" fill-rule="evenodd" fill-opacity="1"/>
<polyline clip-path="url(#clip542)" style="stroke:#ff0000; stroke-linecap:round; stroke-linejoin:round; stroke-width:2; stroke-opacity:1; fill:none" points="511.358,1090.05 511.358,1071.17 467.922,1071.17 467.922,895.984 511.358,895.984 511.358,833.044 511.358,895.984 554.794,895.984 554.794,1071.17 511.358,1071.17 511.358,1090.05 "/>
<path clip-path="url(#clip542)" d="M607.883 1157.18 L607.883 1087.95 L564.447 1087.95 L564.447 822.555 L607.883 822.555 L607.883 800.525 L607.883 822.555 L651.319 822.555 L651.319 1087.95 L607.883 1087.95 L607.883 1157.18  Z" fill="#008000" fill-rule="evenodd" fill-opacity="1"/>
<polyline clip-path="url(#clip542)" style="stroke:#008000; stroke-linecap:round; stroke-linejoin:round; stroke-width:2; stroke-opacity:1; fill:none" points="607.883,1157.18 607.883,1087.95 564.447,1087.95 564.447,822.555 607.883,822.555 607.883,800.525 607.883,822.555 651.319,822.555 651.319,1087.95 607.883,1087.95 607.883,1157.18 "/>
<path clip-path="url(#clip542)" d="M704.407 957.874 L704.407 895.984 L660.971 895.984 L660.971 866.612 L704.407 866.612 L704.407 817.309 L704.407 866.612 L747.843 866.612 L747.843 895.984 L704.407 895.984 L704.407 957.874  Z" fill="#008000" fill-rule="evenodd" fill-opacity="1"/>
<polyline clip-path="url(#clip542)" style="stroke:#008000; stroke-linecap:round; stroke-linejoin:round; stroke-width:2; stroke-opacity:1; fill:none" points="704.407,957.874 704.407,895.984 660.971,895.984 660.971,866.612 704.407,866.612 704.407,817.309 704.407,866.612 747.843,866.612 747.843,895.984 704.407,895.984 704.407,957.874 "/>
<path clip-path="url(#clip542)" d="M800.932 713.459 L800.932 678.843 L757.496 678.843 L757.496 655.765 L800.932 655.765 L800.932 488.975 L800.932 655.765 L844.368 655.765 L844.368 678.843 L800.932 678.843 L800.932 713.459  Z" fill="#ff0000" fill-rule="evenodd" fill-opacity="1"/>
<polyline clip-path="url(#clip542)" style="stroke:#ff0000; stroke-linecap:round; stroke-linejoin:round; stroke-width:2; stroke-opacity:1; fill:none" points="800.932,713.459 800.932,678.843 757.496,678.843 757.496,655.765 800.932,655.765 800.932,488.975 800.932,655.765 844.368,655.765 844.368,678.843 800.932,678.843 800.932,713.459 "/>
<path clip-path="url(#clip542)" d="M897.456 689.332 L897.456 579.188 L854.02 579.188 L854.02 551.915 L897.456 551.915 L897.456 530.935 L897.456 551.915 L940.892 551.915 L940.892 579.188 L897.456 579.188 L897.456 689.332  Z" fill="#ff0000" fill-rule="evenodd" fill-opacity="1"/>
<polyline clip-path="url(#clip542)" style="stroke:#ff0000; stroke-linecap:round; stroke-linejoin:round; stroke-width:2; stroke-opacity:1; fill:none" points="897.456,689.332 897.456,579.188 854.02,579.188 854.02,551.915 897.456,551.915 897.456,530.935 897.456,551.915 940.892,551.915 940.892,579.188 897.456,579.188 897.456,689.332 "/>
<path clip-path="url(#clip542)" d="M993.981 610.658 L993.981 518.346 L950.545 518.346 L950.545 335.823 L993.981 335.823 L993.981 316.94 L993.981 335.823 L1037.42 335.823 L1037.42 518.346 L993.981 518.346 L993.981 610.658  Z" fill="#008000" fill-rule="evenodd" fill-opacity="1"/>
<polyline clip-path="url(#clip542)" style="stroke:#008000; stroke-linecap:round; stroke-linejoin:round; stroke-width:2; stroke-opacity:1; fill:none" points="993.981,610.658 993.981,518.346 950.545,518.346 950.545,335.823 993.981,335.823 993.981,316.94 993.981,335.823 1037.42,335.823 1037.42,518.346 993.981,518.346 993.981,610.658 "/>
<path clip-path="url(#clip542)" d="M1090.51 673.598 L1090.51 520.445 L1047.07 520.445 L1047.07 428.133 L1090.51 428.133 L1090.51 409.252 L1090.51 428.133 L1133.94 428.133 L1133.94 520.445 L1090.51 520.445 L1090.51 673.598  Z" fill="#ff0000" fill-rule="evenodd" fill-opacity="1"/>
<polyline clip-path="url(#clip542)" style="stroke:#ff0000; stroke-linecap:round; stroke-linejoin:round; stroke-width:2; stroke-opacity:1; fill:none" points="1090.51,673.598 1090.51,520.445 1047.07,520.445 1047.07,428.133 1090.51,428.133 1090.51,409.252 1090.51,428.133 1133.94,428.133 1133.94,520.445 1090.51,520.445 1090.51,673.598 "/>
<path clip-path="url(#clip542)" d="M1187.03 672.548 L1187.03 671.5 L1143.59 671.5 L1143.59 417.644 L1187.03 417.644 L1187.03 364.669 L1187.03 417.644 L1230.47 417.644 L1230.47 671.5 L1187.03 671.5 L1187.03 672.548  Z" fill="#008000" fill-rule="evenodd" fill-opacity="1"/>
<polyline clip-path="url(#clip542)" style="stroke:#008000; stroke-linecap:round; stroke-linejoin:round; stroke-width:2; stroke-opacity:1; fill:none" points="1187.03,672.548 1187.03,671.5 1143.59,671.5 1143.59,417.644 1187.03,417.644 1187.03,364.669 1187.03,417.644 1230.47,417.644 1230.47,671.5 1187.03,671.5 1187.03,672.548 "/>
<path clip-path="url(#clip542)" d="M1283.55 440.197 L1283.55 415.546 L1240.12 415.546 L1240.12 344.215 L1283.55 344.215 L1283.55 308.025 L1283.55 344.215 L1326.99 344.215 L1326.99 415.546 L1283.55 415.546 L1283.55 440.197  Z" fill="#008000" fill-rule="evenodd" fill-opacity="1"/>
<polyline clip-path="url(#clip542)" style="stroke:#008000; stroke-linecap:round; stroke-linejoin:round; stroke-width:2; stroke-opacity:1; fill:none" points="1283.55,440.197 1283.55,415.546 1240.12,415.546 1240.12,344.215 1283.55,344.215 1283.55,308.025 1283.55,344.215 1326.99,344.215 1326.99,415.546 1283.55,415.546 1283.55,440.197 "/>
<path clip-path="url(#clip542)" d="M1380.08 304.353 L1380.08 293.862 L1336.64 293.862 L1336.64 197.355 L1380.08 197.355 L1380.08 84.0637 L1380.08 197.355 L1423.51 197.355 L1423.51 293.862 L1380.08 293.862 L1380.08 304.353  Z" fill="#008000" fill-rule="evenodd" fill-opacity="1"/>
<polyline clip-path="url(#clip542)" style="stroke:#008000; stroke-linecap:round; stroke-linejoin:round; stroke-width:2; stroke-opacity:1; fill:none" points="1380.08,304.353 1380.08,293.862 1336.64,293.862 1336.64,197.355 1380.08,197.355 1380.08,84.0637 1380.08,197.355 1423.51,197.355 1423.51,293.862 1380.08,293.862 1380.08,304.353 "/>
<path clip-path="url(#clip542)" d="M1476.6 464.848 L1476.6 386.174 L1433.17 386.174 L1433.17 247.708 L1476.6 247.708 L1476.6 233.336 L1476.6 247.708 L1520.04 247.708 L1520.04 386.174 L1476.6 386.174 L1476.6 464.848  Z" fill="#ff0000" fill-rule="evenodd" fill-opacity="1"/>
<polyline clip-path="url(#clip542)" style="stroke:#ff0000; stroke-linecap:round; stroke-linejoin:round; stroke-width:2; stroke-opacity:1; fill:none" points="1476.6,464.848 1476.6,386.174 1433.17,386.174 1433.17,247.708 1476.6,247.708 1476.6,233.336 1476.6,247.708 1520.04,247.708 1520.04,386.174 1476.6,386.174 1476.6,464.848 "/>
<path clip-path="url(#clip542)" d="M1573.13 457.506 L1573.13 454.358 L1529.69 454.358 L1529.69 404.007 L1573.13 404.007 L1573.13 238.266 L1573.13 404.007 L1616.56 404.007 L1616.56 454.358 L1573.13 454.358 L1573.13 457.506  Z" fill="#008000" fill-rule="evenodd" fill-opacity="1"/>
<polyline clip-path="url(#clip542)" style="stroke:#008000; stroke-linecap:round; stroke-linejoin:round; stroke-width:2; stroke-opacity:1; fill:none" points="1573.13,457.506 1573.13,454.358 1529.69,454.358 1529.69,404.007 1573.13,404.007 1573.13,238.266 1573.13,404.007 1616.56,404.007 1616.56,454.358 1573.13,454.358 1573.13,457.506 "/>
<path clip-path="url(#clip542)" d="M1669.65 509.956 L1669.65 448.064 L1626.22 448.064 L1626.22 344.215 L1669.65 344.215 L1669.65 340.018 L1669.65 344.215 L1713.09 344.215 L1713.09 448.064 L1669.65 448.064 L1669.65 509.956  Z" fill="#008000" fill-rule="evenodd" fill-opacity="1"/>
<polyline clip-path="url(#clip542)" style="stroke:#008000; stroke-linecap:round; stroke-linejoin:round; stroke-width:2; stroke-opacity:1; fill:none" points="1669.65,509.956 1669.65,448.064 1626.22,448.064 1626.22,344.215 1669.65,344.215 1669.65,340.018 1669.65,344.215 1713.09,344.215 1713.09,448.064 1669.65,448.064 1669.65,509.956 "/>
<path clip-path="url(#clip542)" d="M1766.18 588.105 L1766.18 577.091 L1722.74 577.091 L1722.74 305.926 L1766.18 305.926 L1766.18 234.07 L1766.18 305.926 L1809.61 305.926 L1809.61 577.091 L1766.18 577.091 L1766.18 588.105  Z" fill="#ff0000" fill-rule="evenodd" fill-opacity="1"/>
<polyline clip-path="url(#clip542)" style="stroke:#ff0000; stroke-linecap:round; stroke-linejoin:round; stroke-width:2; stroke-opacity:1; fill:none" points="1766.18,588.105 1766.18,577.091 1722.74,577.091 1722.74,305.926 1766.18,305.926 1766.18,234.07 1766.18,305.926 1809.61,305.926 1809.61,577.091 1766.18,577.091 1766.18,588.105 "/>
<path clip-path="url(#clip542)" d="M1862.7 955.777 L1862.7 837.241 L1819.27 837.241 L1819.27 577.091 L1862.7 577.091 L1862.7 518.346 L1862.7 577.091 L1906.14 577.091 L1906.14 837.241 L1862.7 837.241 L1862.7 955.777  Z" fill="#ff0000" fill-rule="evenodd" fill-opacity="1"/>
<polyline clip-path="url(#clip542)" style="stroke:#ff0000; stroke-linecap:round; stroke-linejoin:round; stroke-width:2; stroke-opacity:1; fill:none" points="1862.7,955.777 1862.7,837.241 1819.27,837.241 1819.27,577.091 1862.7,577.091 1862.7,518.346 1862.7,577.091 1906.14,577.091 1906.14,837.241 1862.7,837.241 1862.7,955.777 "/>
<path clip-path="url(#clip542)" d="M1959.23 1022.7 L1959.23 900.179 L1915.79 900.179 L1915.79 900.179 L1959.23 900.179 L1959.23 881.298 L1959.23 900.179 L2002.66 900.179 L2002.66 900.179 L1959.23 900.179 L1959.23 1022.7  Z" fill="#008000" fill-rule="evenodd" fill-opacity="1"/>
<polyline clip-path="url(#clip542)" style="stroke:#008000; stroke-linecap:round; stroke-linejoin:round; stroke-width:2; stroke-opacity:1; fill:none" points="1959.23,1022.7 1959.23,900.179 1915.79,900.179 1959.23,900.179 1959.23,881.298 1959.23,900.179 2002.66,900.179 1959.23,900.179 1959.23,1022.7 "/>
<path clip-path="url(#clip542)" d="M2055.75 1311.39 L2055.75 1182.36 L2012.31 1182.36 L2012.31 1112.71 L2055.75 1112.71 L2055.75 1096.34 L2055.75 1112.71 L2099.19 1112.71 L2099.19 1182.36 L2055.75 1182.36 L2055.75 1311.39  Z" fill="#ff0000" fill-rule="evenodd" fill-opacity="1"/>
<polyline clip-path="url(#clip542)" style="stroke:#ff0000; stroke-linecap:round; stroke-linejoin:round; stroke-width:2; stroke-opacity:1; fill:none" points="2055.75,1311.39 2055.75,1182.36 2012.31,1182.36 2012.31,1112.71 2055.75,1112.71 2055.75,1096.34 2055.75,1112.71 2099.19,1112.71 2099.19,1182.36 2055.75,1182.36 2055.75,1311.39 "/>
<path clip-path="url(#clip542)" d="M2152.27 1276.77 L2152.27 1209.63 L2108.84 1209.63 L2108.84 997.736 L2152.27 997.736 L2152.27 877.103 L2152.27 997.736 L2195.71 997.736 L2195.71 1209.63 L2152.27 1209.63 L2152.27 1276.77  Z" fill="#008000" fill-rule="evenodd" fill-opacity="1"/>
<polyline clip-path="url(#clip542)" style="stroke:#008000; stroke-linecap:round; stroke-linejoin:round; stroke-width:2; stroke-opacity:1; fill:none" points="2152.27,1276.77 2152.27,1209.63 2108.84,1209.63 2108.84,997.736 2152.27,997.736 2152.27,877.103 2152.27,997.736 2195.71,997.736 2195.71,1209.63 2152.27,1209.63 2152.27,1276.77 "/>
<path clip-path="url(#clip542)" d="M2248.8 1111.03 L2248.8 1098.44 L2205.36 1098.44 L2205.36 944.238 L2248.8 944.238 L2248.8 901.754 L2248.8 944.238 L2292.24 944.238 L2292.24 1098.44 L2248.8 1098.44 L2248.8 1111.03  Z" fill="#ff0000" fill-rule="evenodd" fill-opacity="1"/>
<polyline clip-path="url(#clip542)" style="stroke:#ff0000; stroke-linecap:round; stroke-linejoin:round; stroke-width:2; stroke-opacity:1; fill:none" points="2248.8,1111.03 2248.8,1098.44 2205.36,1098.44 2205.36,944.238 2248.8,944.238 2248.8,901.754 2248.8,944.238 2292.24,944.238 2292.24,1098.44 2248.8,1098.44 2248.8,1111.03 "/>
<circle clip-path="url(#clip542)" cx="318.309" cy="1018.72" r="3.6" fill="#008000" fill-rule="evenodd" fill-opacity="1" stroke="none"/>
<circle clip-path="url(#clip542)" cx="414.834" cy="953.679" r="3.6" fill="#008000" fill-rule="evenodd" fill-opacity="1" stroke="none"/>
<circle clip-path="url(#clip542)" cx="511.358" cy="983.575" r="3.6" fill="#ff0000" fill-rule="evenodd" fill-opacity="1" stroke="none"/>
<circle clip-path="url(#clip542)" cx="607.883" cy="955.252" r="3.6" fill="#008000" fill-rule="evenodd" fill-opacity="1" stroke="none"/>
<circle clip-path="url(#clip542)" cx="704.407" cy="881.298" r="3.6" fill="#008000" fill-rule="evenodd" fill-opacity="1" stroke="none"/>
<circle clip-path="url(#clip542)" cx="800.932" cy="667.304" r="3.6" fill="#ff0000" fill-rule="evenodd" fill-opacity="1" stroke="none"/>
<circle clip-path="url(#clip542)" cx="897.456" cy="565.551" r="3.6" fill="#ff0000" fill-rule="evenodd" fill-opacity="1" stroke="none"/>
<circle clip-path="url(#clip542)" cx="993.981" cy="427.084" r="3.6" fill="#008000" fill-rule="evenodd" fill-opacity="1" stroke="none"/>
<circle clip-path="url(#clip542)" cx="1090.51" cy="474.289" r="3.6" fill="#ff0000" fill-rule="evenodd" fill-opacity="1" stroke="none"/>
<circle clip-path="url(#clip542)" cx="1187.03" cy="544.572" r="3.6" fill="#008000" fill-rule="evenodd" fill-opacity="1" stroke="none"/>
<circle clip-path="url(#clip542)" cx="1283.55" cy="379.88" r="3.6" fill="#008000" fill-rule="evenodd" fill-opacity="1" stroke="none"/>
<circle clip-path="url(#clip542)" cx="1380.08" cy="245.609" r="3.6" fill="#008000" fill-rule="evenodd" fill-opacity="1" stroke="none"/>
<circle clip-path="url(#clip542)" cx="1476.6" cy="316.941" r="3.6" fill="#ff0000" fill-rule="evenodd" fill-opacity="1" stroke="none"/>
<circle clip-path="url(#clip542)" cx="1573.13" cy="429.182" r="3.6" fill="#008000" fill-rule="evenodd" fill-opacity="1" stroke="none"/>
<circle clip-path="url(#clip542)" cx="1669.65" cy="396.139" r="3.6" fill="#008000" fill-rule="evenodd" fill-opacity="1" stroke="none"/>
<circle clip-path="url(#clip542)" cx="1766.18" cy="441.509" r="3.6" fill="#ff0000" fill-rule="evenodd" fill-opacity="1" stroke="none"/>
<circle clip-path="url(#clip542)" cx="1862.7" cy="707.166" r="3.6" fill="#ff0000" fill-rule="evenodd" fill-opacity="1" stroke="none"/>
<circle clip-path="url(#clip542)" cx="1959.23" cy="900.179" r="3.6" fill="#008000" fill-rule="evenodd" fill-opacity="1" stroke="none"/>
<circle clip-path="url(#clip542)" cx="2055.75" cy="1147.53" r="3.6" fill="#ff0000" fill-rule="evenodd" fill-opacity="1" stroke="none"/>
<circle clip-path="url(#clip542)" cx="2152.27" cy="1103.68" r="3.6" fill="#008000" fill-rule="evenodd" fill-opacity="1" stroke="none"/>
<circle clip-path="url(#clip542)" cx="2248.8" cy="1021.34" r="3.6" fill="#ff0000" fill-rule="evenodd" fill-opacity="1" stroke="none"/>
</svg>
