<?xml version="1.0" encoding="utf-8"?>
<svg xmlns="http://www.w3.org/2000/svg" xmlns:xlink="http://www.w3.org/1999/xlink" width="600" height="400" viewBox="0 0 2400 1600">
<defs>
  <clipPath id="clip240">
    <rect x="0" y="0" width="2400" height="1600"/>
  </clipPath>
</defs>
<path clip-path="url(#clip240)" d="
M0 1600 L2400 1600 L2400 0 L0 0  Z
  " fill="#ffffff" fill-rule="evenodd" fill-opacity="1"/>
<defs>
  <clipPath id="clip241">
    <rect x="480" y="0" width="1681" height="1600"/>
  </clipPath>
</defs>
<path clip-path="url(#clip240)" d="
M201.019 1486.45 L2352.76 1486.45 L2352.76 47.2441 L201.019 47.2441  Z
  " fill="#ffffff" fill-rule="evenodd" fill-opacity="1"/>
<defs>
  <clipPath id="clip242">
    <rect x="201" y="47" width="2153" height="1440"/>
  </clipPath>
</defs>
<polyline clip-path="url(#clip242)" style="stroke:#000000; stroke-width:2; stroke-opacity:0.1; fill:none" points="
  261.917,1486.45 261.917,47.2441 
  "/>
<polyline clip-path="url(#clip242)" style="stroke:#000000; stroke-width:2; stroke-opacity:0.1; fill:none" points="
  803.235,1486.45 803.235,47.2441 
  "/>
<polyline clip-path="url(#clip242)" style="stroke:#000000; stroke-width:2; stroke-opacity:0.1; fill:none" points="
  1344.55,1486.45 1344.55,47.2441 
  "/>
<polyline clip-path="url(#clip242)" style="stroke:#000000; stroke-width:2; stroke-opacity:0.1; fill:none" points="
  1885.87,1486.45 1885.87,47.2441 
  "/>
<polyline clip-path="url(#clip240)" style="stroke:#000000; stroke-width:4; stroke-opacity:1; fill:none" points="
  201.019,1486.45 2352.76,1486.45 
  "/>
<polyline clip-path="url(#clip240)" style="stroke:#000000; stroke-width:4; stroke-opacity:1; fill:none" points="
  261.917,1486.45 261.917,1469.18 
  "/>
<polyline clip-path="url(#clip240)" style="stroke:#000000; stroke-width:4; stroke-opacity:1; fill:none" points="
  803.235,1486.45 803.235,1469.18 
  "/>
<polyline clip-path="url(#clip240)" style="stroke:#000000; stroke-width:4; stroke-opacity:1; fill:none" points="
  1344.55,1486.45 1344.55,1469.18 
  "/>
<polyline clip-path="url(#clip240)" style="stroke:#000000; stroke-width:4; stroke-opacity:1; fill:none" points="
  1885.87,1486.45 1885.87,1469.18 
  "/>
<path clip-path="url(#clip240)" d="M 0 0 M133.423 1543.18 L149.742 1543.18 L149.742 1547.12 L127.798 1547.12 L127.798 1543.18 Q130.46 1540.43 135.043 1535.8 Q139.65 1531.15 140.83 1529.81 Q143.076 1527.28 143.955 1525.55 Q144.858 1523.79 144.858 1522.1 Q144.858 1519.34 142.914 1517.61 Q140.992 1515.87 137.89 1515.87 Q135.691 1515.87 133.238 1516.63 Q130.807 1517.4 128.029 1518.95 L128.029 1514.23 Q130.853 1513.09 133.307 1512.51 Q135.761 1511.93 137.798 1511.93 Q143.168 1511.93 146.363 1514.62 Q149.557 1517.31 149.557 1521.8 Q149.557 1523.93 148.747 1525.85 Q147.96 1527.74 145.853 1530.34 Q145.275 1531.01 142.173 1534.23 Q139.071 1537.42 133.423 1543.18 Z" fill="#000000" fill-rule="evenodd" fill-opacity="1" /><path clip-path="url(#clip240)" d="M 0 0 M169.557 1515.64 Q165.946 1515.64 164.117 1519.2 Q162.312 1522.75 162.312 1529.87 Q162.312 1536.98 164.117 1540.55 Q165.946 1544.09 169.557 1544.09 Q173.191 1544.09 174.997 1540.55 Q176.825 1536.98 176.825 1529.87 Q176.825 1522.75 174.997 1519.2 Q173.191 1515.64 169.557 1515.64 M169.557 1511.93 Q175.367 1511.93 178.423 1516.54 Q181.501 1521.12 181.501 1529.87 Q181.501 1538.6 178.423 1543.21 Q175.367 1547.79 169.557 1547.79 Q163.747 1547.79 160.668 1543.21 Q157.613 1538.6 157.613 1529.87 Q157.613 1521.12 160.668 1516.54 Q163.747 1511.93 169.557 1511.93 Z" fill="#000000" fill-rule="evenodd" fill-opacity="1" /><path clip-path="url(#clip240)" d="M 0 0 M193.747 1543.18 L210.066 1543.18 L210.066 1547.12 L188.122 1547.12 L188.122 1543.18 Q190.784 1540.43 195.367 1535.8 Q199.973 1531.15 201.154 1529.81 Q203.399 1527.28 204.279 1525.55 Q205.182 1523.79 205.182 1522.1 Q205.182 1519.34 203.237 1517.61 Q201.316 1515.87 198.214 1515.87 Q196.015 1515.87 193.561 1516.63 Q191.131 1517.4 188.353 1518.95 L188.353 1514.23 Q191.177 1513.09 193.631 1512.51 Q196.085 1511.93 198.122 1511.93 Q203.492 1511.93 206.686 1514.62 Q209.881 1517.31 209.881 1521.8 Q209.881 1523.93 209.071 1525.85 Q208.284 1527.74 206.177 1530.34 Q205.598 1531.01 202.497 1534.23 Q199.395 1537.42 193.747 1543.18 Z" fill="#000000" fill-rule="evenodd" fill-opacity="1" /><path clip-path="url(#clip240)" d="M 0 0 M220.691 1543.18 L228.33 1543.18 L228.33 1516.82 L220.02 1518.49 L220.02 1514.23 L228.283 1512.56 L232.959 1512.56 L232.959 1543.18 L240.598 1543.18 L240.598 1547.12 L220.691 1547.12 L220.691 1543.18 Z" fill="#000000" fill-rule="evenodd" fill-opacity="1" /><path clip-path="url(#clip240)" d="M 0 0 M247.288 1532.24 L259.765 1532.24 L259.765 1536.03 L247.288 1536.03 L247.288 1532.24 Z" fill="#000000" fill-rule="evenodd" fill-opacity="1" /><path clip-path="url(#clip240)" d="M 0 0 M277.149 1515.64 Q273.538 1515.64 271.709 1519.2 Q269.904 1522.75 269.904 1529.87 Q269.904 1536.98 271.709 1540.55 Q273.538 1544.09 277.149 1544.09 Q280.783 1544.09 282.589 1540.55 Q284.417 1536.98 284.417 1529.87 Q284.417 1522.75 282.589 1519.2 Q280.783 1515.64 277.149 1515.64 M277.149 1511.93 Q282.959 1511.93 286.015 1516.54 Q289.093 1521.12 289.093 1529.87 Q289.093 1538.6 286.015 1543.21 Q282.959 1547.79 277.149 1547.79 Q271.339 1547.79 268.26 1543.21 Q265.205 1538.6 265.205 1529.87 Q265.205 1521.12 268.26 1516.54 Q271.339 1511.93 277.149 1511.93 Z" fill="#000000" fill-rule="evenodd" fill-opacity="1" /><path clip-path="url(#clip240)" d="M 0 0 M311.477 1528.49 Q314.834 1529.2 316.709 1531.47 Q318.607 1533.74 318.607 1537.07 Q318.607 1542.19 315.089 1544.99 Q311.57 1547.79 305.089 1547.79 Q302.913 1547.79 300.598 1547.35 Q298.306 1546.93 295.853 1546.08 L295.853 1541.56 Q297.797 1542.7 300.112 1543.28 Q302.427 1543.86 304.95 1543.86 Q309.348 1543.86 311.639 1542.12 Q313.954 1540.38 313.954 1537.07 Q313.954 1534.02 311.801 1532.31 Q309.672 1530.57 305.852 1530.57 L301.825 1530.57 L301.825 1526.73 L306.038 1526.73 Q309.487 1526.73 311.315 1525.36 Q313.144 1523.97 313.144 1521.38 Q313.144 1518.72 311.246 1517.31 Q309.371 1515.87 305.852 1515.87 Q303.931 1515.87 301.732 1516.29 Q299.533 1516.7 296.894 1517.58 L296.894 1513.42 Q299.556 1512.68 301.871 1512.31 Q304.209 1511.93 306.269 1511.93 Q311.593 1511.93 314.695 1514.37 Q317.797 1516.77 317.797 1520.89 Q317.797 1523.76 316.153 1525.75 Q314.51 1527.72 311.477 1528.49 Z" fill="#000000" fill-rule="evenodd" fill-opacity="1" /><path clip-path="url(#clip240)" d="M 0 0 M324.718 1532.24 L337.195 1532.24 L337.195 1536.03 L324.718 1536.03 L324.718 1532.24 Z" fill="#000000" fill-rule="evenodd" fill-opacity="1" /><path clip-path="url(#clip240)" d="M 0 0 M348.607 1543.18 L364.926 1543.18 L364.926 1547.12 L342.982 1547.12 L342.982 1543.18 Q345.644 1540.43 350.227 1535.8 Q354.834 1531.15 356.014 1529.81 Q358.26 1527.28 359.139 1525.55 Q360.042 1523.79 360.042 1522.1 Q360.042 1519.34 358.098 1517.61 Q356.176 1515.87 353.074 1515.87 Q350.875 1515.87 348.422 1516.63 Q345.991 1517.4 343.213 1518.95 L343.213 1514.23 Q346.037 1513.09 348.491 1512.51 Q350.945 1511.93 352.982 1511.93 Q358.352 1511.93 361.547 1514.62 Q364.741 1517.31 364.741 1521.8 Q364.741 1523.93 363.931 1525.85 Q363.144 1527.74 361.037 1530.34 Q360.459 1531.01 357.357 1534.23 Q354.255 1537.42 348.607 1543.18 Z" fill="#000000" fill-rule="evenodd" fill-opacity="1" /><path clip-path="url(#clip240)" d="M 0 0 M388.908 1528.49 Q392.264 1529.2 394.139 1531.47 Q396.037 1533.74 396.037 1537.07 Q396.037 1542.19 392.519 1544.99 Q389 1547.79 382.519 1547.79 Q380.343 1547.79 378.028 1547.35 Q375.736 1546.93 373.283 1546.08 L373.283 1541.56 Q375.227 1542.7 377.542 1543.28 Q379.857 1543.86 382.38 1543.86 Q386.778 1543.86 389.07 1542.12 Q391.384 1540.38 391.384 1537.07 Q391.384 1534.02 389.232 1532.31 Q387.102 1530.57 383.283 1530.57 L379.255 1530.57 L379.255 1526.73 L383.468 1526.73 Q386.917 1526.73 388.746 1525.36 Q390.574 1523.97 390.574 1521.38 Q390.574 1518.72 388.676 1517.31 Q386.801 1515.87 383.283 1515.87 Q381.361 1515.87 379.162 1516.29 Q376.963 1516.7 374.324 1517.58 L374.324 1513.42 Q376.986 1512.68 379.301 1512.31 Q381.639 1511.93 383.699 1511.93 Q389.023 1511.93 392.125 1514.37 Q395.227 1516.77 395.227 1520.89 Q395.227 1523.76 393.583 1525.75 Q391.94 1527.72 388.908 1528.49 Z" fill="#000000" fill-rule="evenodd" fill-opacity="1" /><path clip-path="url(#clip240)" d="M 0 0 M675.03 1543.18 L691.349 1543.18 L691.349 1547.12 L669.405 1547.12 L669.405 1543.18 Q672.067 1540.43 676.65 1535.8 Q681.256 1531.15 682.437 1529.81 Q684.682 1527.28 685.562 1525.55 Q686.465 1523.79 686.465 1522.1 Q686.465 1519.34 684.52 1517.61 Q682.599 1515.87 679.497 1515.87 Q677.298 1515.87 674.844 1516.63 Q672.414 1517.4 669.636 1518.95 L669.636 1514.23 Q672.46 1513.09 674.914 1512.51 Q677.368 1511.93 679.405 1511.93 Q684.775 1511.93 687.969 1514.62 Q691.164 1517.31 691.164 1521.8 Q691.164 1523.93 690.354 1525.85 Q689.567 1527.74 687.46 1530.34 Q686.881 1531.01 683.78 1534.23 Q680.678 1537.42 675.03 1543.18 Z" fill="#000000" fill-rule="evenodd" fill-opacity="1" /><path clip-path="url(#clip240)" d="M 0 0 M711.164 1515.64 Q707.553 1515.64 705.724 1519.2 Q703.918 1522.75 703.918 1529.87 Q703.918 1536.98 705.724 1540.55 Q707.553 1544.09 711.164 1544.09 Q714.798 1544.09 716.603 1540.55 Q718.432 1536.98 718.432 1529.87 Q718.432 1522.75 716.603 1519.2 Q714.798 1515.64 711.164 1515.64 M711.164 1511.93 Q716.974 1511.93 720.029 1516.54 Q723.108 1521.12 723.108 1529.87 Q723.108 1538.6 720.029 1543.21 Q716.974 1547.79 711.164 1547.79 Q705.353 1547.79 702.275 1543.21 Q699.219 1538.6 699.219 1529.87 Q699.219 1521.12 702.275 1516.54 Q705.353 1511.93 711.164 1511.93 Z" fill="#000000" fill-rule="evenodd" fill-opacity="1" /><path clip-path="url(#clip240)" d="M 0 0 M735.353 1543.18 L751.673 1543.18 L751.673 1547.12 L729.728 1547.12 L729.728 1543.18 Q732.39 1540.43 736.974 1535.8 Q741.58 1531.15 742.761 1529.81 Q745.006 1527.28 745.886 1525.55 Q746.788 1523.79 746.788 1522.1 Q746.788 1519.34 744.844 1517.61 Q742.923 1515.87 739.821 1515.87 Q737.622 1515.87 735.168 1516.63 Q732.738 1517.4 729.96 1518.95 L729.96 1514.23 Q732.784 1513.09 735.238 1512.51 Q737.691 1511.93 739.728 1511.93 Q745.099 1511.93 748.293 1514.62 Q751.487 1517.31 751.487 1521.8 Q751.487 1523.93 750.677 1525.85 Q749.89 1527.74 747.784 1530.34 Q747.205 1531.01 744.103 1534.23 Q741.001 1537.42 735.353 1543.18 Z" fill="#000000" fill-rule="evenodd" fill-opacity="1" /><path clip-path="url(#clip240)" d="M 0 0 M762.298 1543.18 L769.936 1543.18 L769.936 1516.82 L761.626 1518.49 L761.626 1514.23 L769.89 1512.56 L774.566 1512.56 L774.566 1543.18 L782.205 1543.18 L782.205 1547.12 L762.298 1547.12 L762.298 1543.18 Z" fill="#000000" fill-rule="evenodd" fill-opacity="1" /><path clip-path="url(#clip240)" d="M 0 0 M788.895 1532.24 L801.371 1532.24 L801.371 1536.03 L788.895 1536.03 L788.895 1532.24 Z" fill="#000000" fill-rule="evenodd" fill-opacity="1" /><path clip-path="url(#clip240)" d="M 0 0 M818.756 1515.64 Q815.145 1515.64 813.316 1519.2 Q811.51 1522.75 811.51 1529.87 Q811.51 1536.98 813.316 1540.55 Q815.145 1544.09 818.756 1544.09 Q822.39 1544.09 824.195 1540.55 Q826.024 1536.98 826.024 1529.87 Q826.024 1522.75 824.195 1519.2 Q822.39 1515.64 818.756 1515.64 M818.756 1511.93 Q824.566 1511.93 827.621 1516.54 Q830.7 1521.12 830.7 1529.87 Q830.7 1538.6 827.621 1543.21 Q824.566 1547.79 818.756 1547.79 Q812.945 1547.79 809.867 1543.21 Q806.811 1538.6 806.811 1529.87 Q806.811 1521.12 809.867 1516.54 Q812.945 1511.93 818.756 1511.93 Z" fill="#000000" fill-rule="evenodd" fill-opacity="1" /><path clip-path="url(#clip240)" d="M 0 0 M853.084 1528.49 Q856.441 1529.2 858.316 1531.47 Q860.214 1533.74 860.214 1537.07 Q860.214 1542.19 856.695 1544.99 Q853.177 1547.79 846.695 1547.79 Q844.519 1547.79 842.205 1547.35 Q839.913 1546.93 837.459 1546.08 L837.459 1541.56 Q839.404 1542.7 841.718 1543.28 Q844.033 1543.86 846.556 1543.86 Q850.955 1543.86 853.246 1542.12 Q855.561 1540.38 855.561 1537.07 Q855.561 1534.02 853.408 1532.31 Q851.279 1530.57 847.459 1530.57 L843.431 1530.57 L843.431 1526.73 L847.644 1526.73 Q851.093 1526.73 852.922 1525.36 Q854.751 1523.97 854.751 1521.38 Q854.751 1518.72 852.853 1517.31 Q850.978 1515.87 847.459 1515.87 Q845.538 1515.87 843.339 1516.29 Q841.14 1516.7 838.501 1517.58 L838.501 1513.42 Q841.163 1512.68 843.478 1512.31 Q845.816 1511.93 847.876 1511.93 Q853.2 1511.93 856.302 1514.37 Q859.404 1516.77 859.404 1520.89 Q859.404 1523.76 857.76 1525.75 Q856.117 1527.72 853.084 1528.49 Z" fill="#000000" fill-rule="evenodd" fill-opacity="1" /><path clip-path="url(#clip240)" d="M 0 0 M866.325 1532.24 L878.802 1532.24 L878.802 1536.03 L866.325 1536.03 L866.325 1532.24 Z" fill="#000000" fill-rule="evenodd" fill-opacity="1" /><path clip-path="url(#clip240)" d="M 0 0 M900.352 1528.49 Q903.709 1529.2 905.584 1531.47 Q907.482 1533.74 907.482 1537.07 Q907.482 1542.19 903.964 1544.99 Q900.445 1547.79 893.964 1547.79 Q891.788 1547.79 889.473 1547.35 Q887.181 1546.93 884.728 1546.08 L884.728 1541.56 Q886.672 1542.7 888.987 1543.28 Q891.302 1543.86 893.825 1543.86 Q898.223 1543.86 900.514 1542.12 Q902.829 1540.38 902.829 1537.07 Q902.829 1534.02 900.676 1532.31 Q898.547 1530.57 894.727 1530.57 L890.7 1530.57 L890.7 1526.73 L894.913 1526.73 Q898.362 1526.73 900.19 1525.36 Q902.019 1523.97 902.019 1521.38 Q902.019 1518.72 900.121 1517.31 Q898.246 1515.87 894.727 1515.87 Q892.806 1515.87 890.607 1516.29 Q888.408 1516.7 885.769 1517.58 L885.769 1513.42 Q888.431 1512.68 890.746 1512.31 Q893.084 1511.93 895.144 1511.93 Q900.468 1511.93 903.57 1514.37 Q906.672 1516.77 906.672 1520.89 Q906.672 1523.76 905.028 1525.75 Q903.385 1527.72 900.352 1528.49 Z" fill="#000000" fill-rule="evenodd" fill-opacity="1" /><path clip-path="url(#clip240)" d="M 0 0 M917.158 1543.18 L924.797 1543.18 L924.797 1516.82 L916.487 1518.49 L916.487 1514.23 L924.75 1512.56 L929.426 1512.56 L929.426 1543.18 L937.065 1543.18 L937.065 1547.12 L917.158 1547.12 L917.158 1543.18 Z" fill="#000000" fill-rule="evenodd" fill-opacity="1" /><path clip-path="url(#clip240)" d="M 0 0 M1215.78 1543.18 L1232.1 1543.18 L1232.1 1547.12 L1210.15 1547.12 L1210.15 1543.18 Q1212.82 1540.43 1217.4 1535.8 Q1222.01 1531.15 1223.19 1529.81 Q1225.43 1527.28 1226.31 1525.55 Q1227.21 1523.79 1227.21 1522.1 Q1227.21 1519.34 1225.27 1517.61 Q1223.35 1515.87 1220.25 1515.87 Q1218.05 1515.87 1215.59 1516.63 Q1213.16 1517.4 1210.39 1518.95 L1210.39 1514.23 Q1213.21 1513.09 1215.66 1512.51 Q1218.12 1511.93 1220.15 1511.93 Q1225.53 1511.93 1228.72 1514.62 Q1231.91 1517.31 1231.91 1521.8 Q1231.91 1523.93 1231.1 1525.85 Q1230.32 1527.74 1228.21 1530.34 Q1227.63 1531.01 1224.53 1534.23 Q1221.43 1537.42 1215.78 1543.18 Z" fill="#000000" fill-rule="evenodd" fill-opacity="1" /><path clip-path="url(#clip240)" d="M 0 0 M1251.91 1515.64 Q1248.3 1515.64 1246.47 1519.2 Q1244.67 1522.75 1244.67 1529.87 Q1244.67 1536.98 1246.47 1540.55 Q1248.3 1544.09 1251.91 1544.09 Q1255.55 1544.09 1257.35 1540.55 Q1259.18 1536.98 1259.18 1529.87 Q1259.18 1522.75 1257.35 1519.2 Q1255.55 1515.64 1251.91 1515.64 M1251.91 1511.93 Q1257.72 1511.93 1260.78 1516.54 Q1263.86 1521.12 1263.86 1529.87 Q1263.86 1538.6 1260.78 1543.21 Q1257.72 1547.79 1251.91 1547.79 Q1246.1 1547.79 1243.03 1543.21 Q1239.97 1538.6 1239.97 1529.87 Q1239.97 1521.12 1243.03 1516.54 Q1246.1 1511.93 1251.91 1511.93 Z" fill="#000000" fill-rule="evenodd" fill-opacity="1" /><path clip-path="url(#clip240)" d="M 0 0 M1276.1 1543.18 L1292.42 1543.18 L1292.42 1547.12 L1270.48 1547.12 L1270.48 1543.18 Q1273.14 1540.43 1277.72 1535.8 Q1282.33 1531.15 1283.51 1529.81 Q1285.76 1527.28 1286.64 1525.55 Q1287.54 1523.79 1287.54 1522.1 Q1287.54 1519.34 1285.59 1517.61 Q1283.67 1515.87 1280.57 1515.87 Q1278.37 1515.87 1275.92 1516.63 Q1273.49 1517.4 1270.71 1518.95 L1270.71 1514.23 Q1273.53 1513.09 1275.99 1512.51 Q1278.44 1511.93 1280.48 1511.93 Q1285.85 1511.93 1289.04 1514.62 Q1292.24 1517.31 1292.24 1521.8 Q1292.24 1523.93 1291.43 1525.85 Q1290.64 1527.74 1288.53 1530.34 Q1287.96 1531.01 1284.85 1534.23 Q1281.75 1537.42 1276.1 1543.18 Z" fill="#000000" fill-rule="evenodd" fill-opacity="1" /><path clip-path="url(#clip240)" d="M 0 0 M1303.05 1543.18 L1310.69 1543.18 L1310.69 1516.82 L1302.38 1518.49 L1302.38 1514.23 L1310.64 1512.56 L1315.32 1512.56 L1315.32 1543.18 L1322.96 1543.18 L1322.96 1547.12 L1303.05 1547.12 L1303.05 1543.18 Z" fill="#000000" fill-rule="evenodd" fill-opacity="1" /><path clip-path="url(#clip240)" d="M 0 0 M1329.64 1532.24 L1342.12 1532.24 L1342.12 1536.03 L1329.64 1536.03 L1329.64 1532.24 Z" fill="#000000" fill-rule="evenodd" fill-opacity="1" /><path clip-path="url(#clip240)" d="M 0 0 M1359.51 1515.64 Q1355.89 1515.64 1354.07 1519.2 Q1352.26 1522.75 1352.26 1529.87 Q1352.26 1536.98 1354.07 1540.55 Q1355.89 1544.09 1359.51 1544.09 Q1363.14 1544.09 1364.95 1540.55 Q1366.77 1536.98 1366.77 1529.87 Q1366.77 1522.75 1364.95 1519.2 Q1363.14 1515.64 1359.51 1515.64 M1359.51 1511.93 Q1365.32 1511.93 1368.37 1516.54 Q1371.45 1521.12 1371.45 1529.87 Q1371.45 1538.6 1368.37 1543.21 Q1365.32 1547.79 1359.51 1547.79 Q1353.7 1547.79 1350.62 1543.21 Q1347.56 1538.6 1347.56 1529.87 Q1347.56 1521.12 1350.62 1516.54 Q1353.7 1511.93 1359.51 1511.93 Z" fill="#000000" fill-rule="evenodd" fill-opacity="1" /><path clip-path="url(#clip240)" d="M 0 0 M1392.51 1516.63 L1380.71 1535.08 L1392.51 1535.08 L1392.51 1516.63 M1391.29 1512.56 L1397.17 1512.56 L1397.17 1535.08 L1402.1 1535.08 L1402.1 1538.97 L1397.17 1538.97 L1397.17 1547.12 L1392.51 1547.12 L1392.51 1538.97 L1376.91 1538.97 L1376.91 1534.46 L1391.29 1512.56 Z" fill="#000000" fill-rule="evenodd" fill-opacity="1" /><path clip-path="url(#clip240)" d="M 0 0 M1407.08 1532.24 L1419.55 1532.24 L1419.55 1536.03 L1407.08 1536.03 L1407.08 1532.24 Z" fill="#000000" fill-rule="evenodd" fill-opacity="1" /><path clip-path="url(#clip240)" d="M 0 0 M1436.94 1515.64 Q1433.32 1515.64 1431.5 1519.2 Q1429.69 1522.75 1429.69 1529.87 Q1429.69 1536.98 1431.5 1540.55 Q1433.32 1544.09 1436.94 1544.09 Q1440.57 1544.09 1442.38 1540.55 Q1444.2 1536.98 1444.2 1529.87 Q1444.2 1522.75 1442.38 1519.2 Q1440.57 1515.64 1436.94 1515.64 M1436.94 1511.93 Q1442.75 1511.93 1445.8 1516.54 Q1448.88 1521.12 1448.88 1529.87 Q1448.88 1538.6 1445.8 1543.21 Q1442.75 1547.79 1436.94 1547.79 Q1431.13 1547.79 1428.05 1543.21 Q1424.99 1538.6 1424.99 1529.87 Q1424.99 1521.12 1428.05 1516.54 Q1431.13 1511.93 1436.94 1511.93 Z" fill="#000000" fill-rule="evenodd" fill-opacity="1" /><path clip-path="url(#clip240)" d="M 0 0 M1467.1 1530.71 Q1463.76 1530.71 1461.84 1532.49 Q1459.95 1534.27 1459.95 1537.4 Q1459.95 1540.52 1461.84 1542.31 Q1463.76 1544.09 1467.1 1544.09 Q1470.43 1544.09 1472.35 1542.31 Q1474.27 1540.5 1474.27 1537.4 Q1474.27 1534.27 1472.35 1532.49 Q1470.45 1530.71 1467.1 1530.71 M1462.42 1528.72 Q1459.41 1527.98 1457.72 1525.92 Q1456.06 1523.86 1456.06 1520.89 Q1456.06 1516.75 1459 1514.34 Q1461.96 1511.93 1467.1 1511.93 Q1472.26 1511.93 1475.2 1514.34 Q1478.14 1516.75 1478.14 1520.89 Q1478.14 1523.86 1476.45 1525.92 Q1474.78 1527.98 1471.8 1528.72 Q1475.18 1529.5 1477.05 1531.8 Q1478.95 1534.09 1478.95 1537.4 Q1478.95 1542.42 1475.87 1545.11 Q1472.82 1547.79 1467.1 1547.79 Q1461.38 1547.79 1458.3 1545.11 Q1455.25 1542.42 1455.25 1537.4 Q1455.25 1534.09 1457.14 1531.8 Q1459.04 1529.5 1462.42 1528.72 M1460.71 1521.33 Q1460.71 1524.02 1462.38 1525.52 Q1464.07 1527.03 1467.1 1527.03 Q1470.11 1527.03 1471.8 1525.52 Q1473.51 1524.02 1473.51 1521.33 Q1473.51 1518.65 1471.8 1517.14 Q1470.11 1515.64 1467.1 1515.64 Q1464.07 1515.64 1462.38 1517.14 Q1460.71 1518.65 1460.71 1521.33 Z" fill="#000000" fill-rule="evenodd" fill-opacity="1" /><path clip-path="url(#clip240)" d="M 0 0 M1756.97 1543.18 L1773.29 1543.18 L1773.29 1547.12 L1751.34 1547.12 L1751.34 1543.18 Q1754.01 1540.43 1758.59 1535.8 Q1763.2 1531.15 1764.38 1529.81 Q1766.62 1527.28 1767.5 1525.55 Q1768.41 1523.79 1768.41 1522.1 Q1768.41 1519.34 1766.46 1517.61 Q1764.54 1515.87 1761.44 1515.87 Q1759.24 1515.87 1756.78 1516.63 Q1754.35 1517.4 1751.58 1518.95 L1751.58 1514.23 Q1754.4 1513.09 1756.85 1512.51 Q1759.31 1511.93 1761.34 1511.93 Q1766.72 1511.93 1769.91 1514.62 Q1773.1 1517.31 1773.1 1521.8 Q1773.1 1523.93 1772.29 1525.85 Q1771.51 1527.74 1769.4 1530.34 Q1768.82 1531.01 1765.72 1534.23 Q1762.62 1537.42 1756.97 1543.18 Z" fill="#000000" fill-rule="evenodd" fill-opacity="1" /><path clip-path="url(#clip240)" d="M 0 0 M1793.1 1515.64 Q1789.49 1515.64 1787.66 1519.2 Q1785.86 1522.75 1785.86 1529.87 Q1785.86 1536.98 1787.66 1540.55 Q1789.49 1544.09 1793.1 1544.09 Q1796.74 1544.09 1798.54 1540.55 Q1800.37 1536.98 1800.37 1529.87 Q1800.37 1522.75 1798.54 1519.2 Q1796.74 1515.64 1793.1 1515.64 M1793.1 1511.93 Q1798.91 1511.93 1801.97 1516.54 Q1805.05 1521.12 1805.05 1529.87 Q1805.05 1538.6 1801.97 1543.21 Q1798.91 1547.79 1793.1 1547.79 Q1787.29 1547.79 1784.22 1543.21 Q1781.16 1538.6 1781.16 1529.87 Q1781.16 1521.12 1784.22 1516.54 Q1787.29 1511.93 1793.1 1511.93 Z" fill="#000000" fill-rule="evenodd" fill-opacity="1" /><path clip-path="url(#clip240)" d="M 0 0 M1817.29 1543.18 L1833.61 1543.18 L1833.61 1547.12 L1811.67 1547.12 L1811.67 1543.18 Q1814.33 1540.43 1818.91 1535.8 Q1823.52 1531.15 1824.7 1529.81 Q1826.95 1527.28 1827.83 1525.55 Q1828.73 1523.79 1828.73 1522.1 Q1828.73 1519.34 1826.78 1517.61 Q1824.86 1515.87 1821.76 1515.87 Q1819.56 1515.87 1817.11 1516.63 Q1814.68 1517.4 1811.9 1518.95 L1811.9 1514.23 Q1814.72 1513.09 1817.18 1512.51 Q1819.63 1511.93 1821.67 1511.93 Q1827.04 1511.93 1830.23 1514.62 Q1833.43 1517.31 1833.43 1521.8 Q1833.43 1523.93 1832.62 1525.85 Q1831.83 1527.74 1829.72 1530.34 Q1829.15 1531.01 1826.04 1534.23 Q1822.94 1537.42 1817.29 1543.18 Z" fill="#000000" fill-rule="evenodd" fill-opacity="1" /><path clip-path="url(#clip240)" d="M 0 0 M1844.24 1543.18 L1851.88 1543.18 L1851.88 1516.82 L1843.57 1518.49 L1843.57 1514.23 L1851.83 1512.56 L1856.51 1512.56 L1856.51 1543.18 L1864.15 1543.18 L1864.15 1547.12 L1844.24 1547.12 L1844.24 1543.18 Z" fill="#000000" fill-rule="evenodd" fill-opacity="1" /><path clip-path="url(#clip240)" d="M 0 0 M1870.84 1532.24 L1883.31 1532.24 L1883.31 1536.03 L1870.84 1536.03 L1870.84 1532.24 Z" fill="#000000" fill-rule="evenodd" fill-opacity="1" /><path clip-path="url(#clip240)" d="M 0 0 M1900.7 1515.64 Q1897.08 1515.64 1895.26 1519.2 Q1893.45 1522.75 1893.45 1529.87 Q1893.45 1536.98 1895.26 1540.55 Q1897.08 1544.09 1900.7 1544.09 Q1904.33 1544.09 1906.14 1540.55 Q1907.96 1536.98 1907.96 1529.87 Q1907.96 1522.75 1906.14 1519.2 Q1904.33 1515.64 1900.7 1515.64 M1900.7 1511.93 Q1906.51 1511.93 1909.56 1516.54 Q1912.64 1521.12 1912.64 1529.87 Q1912.64 1538.6 1909.56 1543.21 Q1906.51 1547.79 1900.7 1547.79 Q1894.89 1547.79 1891.81 1543.21 Q1888.75 1538.6 1888.75 1529.87 Q1888.75 1521.12 1891.81 1516.54 Q1894.89 1511.93 1900.7 1511.93 Z" fill="#000000" fill-rule="evenodd" fill-opacity="1" /><path clip-path="url(#clip240)" d="M 0 0 M1933.71 1516.63 L1921.9 1535.08 L1933.71 1535.08 L1933.71 1516.63 M1932.48 1512.56 L1938.36 1512.56 L1938.36 1535.08 L1943.29 1535.08 L1943.29 1538.97 L1938.36 1538.97 L1938.36 1547.12 L1933.71 1547.12 L1933.71 1538.97 L1918.1 1538.97 L1918.1 1534.46 L1932.48 1512.56 Z" fill="#000000" fill-rule="evenodd" fill-opacity="1" /><path clip-path="url(#clip240)" d="M 0 0 M1948.27 1532.24 L1960.74 1532.24 L1960.74 1536.03 L1948.27 1536.03 L1948.27 1532.24 Z" fill="#000000" fill-rule="evenodd" fill-opacity="1" /><path clip-path="url(#clip240)" d="M 0 0 M1968.94 1543.18 L1976.58 1543.18 L1976.58 1516.82 L1968.27 1518.49 L1968.27 1514.23 L1976.53 1512.56 L1981.2 1512.56 L1981.2 1543.18 L1988.84 1543.18 L1988.84 1547.12 L1968.94 1547.12 L1968.94 1543.18 Z" fill="#000000" fill-rule="evenodd" fill-opacity="1" /><path clip-path="url(#clip240)" d="M 0 0 M2008.87 1527.98 Q2005.72 1527.98 2003.87 1530.13 Q2002.04 1532.28 2002.04 1536.03 Q2002.04 1539.76 2003.87 1541.93 Q2005.72 1544.09 2008.87 1544.09 Q2012.01 1544.09 2013.84 1541.93 Q2015.7 1539.76 2015.7 1536.03 Q2015.7 1532.28 2013.84 1530.13 Q2012.01 1527.98 2008.87 1527.98 M2018.15 1513.32 L2018.15 1517.58 Q2016.39 1516.75 2014.58 1516.31 Q2012.8 1515.87 2011.04 1515.87 Q2006.41 1515.87 2003.96 1519 Q2001.53 1522.12 2001.18 1528.44 Q2002.55 1526.43 2004.61 1525.36 Q2006.67 1524.27 2009.14 1524.27 Q2014.35 1524.27 2017.36 1527.44 Q2020.39 1530.59 2020.39 1536.03 Q2020.39 1541.36 2017.25 1544.57 Q2014.1 1547.79 2008.87 1547.79 Q2002.87 1547.79 1999.7 1543.21 Q1996.53 1538.6 1996.53 1529.87 Q1996.53 1521.68 2000.42 1516.82 Q2004.31 1511.93 2010.86 1511.93 Q2012.62 1511.93 2014.4 1512.28 Q2016.2 1512.63 2018.15 1513.32 Z" fill="#000000" fill-rule="evenodd" fill-opacity="1" /><polyline clip-path="url(#clip242)" style="stroke:#000000; stroke-width:2; stroke-opacity:0.1; fill:none" points="
  201.019,1272.45 2352.76,1272.45 
  "/>
<polyline clip-path="url(#clip242)" style="stroke:#000000; stroke-width:2; stroke-opacity:0.1; fill:none" points="
  201.019,1051.83 2352.76,1051.83 
  "/>
<polyline clip-path="url(#clip242)" style="stroke:#000000; stroke-width:2; stroke-opacity:0.1; fill:none" points="
  201.019,831.221 2352.76,831.221 
  "/>
<polyline clip-path="url(#clip242)" style="stroke:#000000; stroke-width:2; stroke-opacity:0.1; fill:none" points="
  201.019,610.608 2352.76,610.608 
  "/>
<polyline clip-path="url(#clip242)" style="stroke:#000000; stroke-width:2; stroke-opacity:0.1; fill:none" points="
  201.019,389.995 2352.76,389.995 
  "/>
<polyline clip-path="url(#clip242)" style="stroke:#000000; stroke-width:2; stroke-opacity:0.1; fill:none" points="
  201.019,169.382 2352.76,169.382 
  "/>
<polyline clip-path="url(#clip240)" style="stroke:#000000; stroke-width:4; stroke-opacity:1; fill:none" points="
  201.019,1486.45 201.019,47.2441 
  "/>
<polyline clip-path="url(#clip240)" style="stroke:#000000; stroke-width:4; stroke-opacity:1; fill:none" points="
  201.019,1272.45 226.84,1272.45 
  "/>
<polyline clip-path="url(#clip240)" style="stroke:#000000; stroke-width:4; stroke-opacity:1; fill:none" points="
  201.019,1051.83 226.84,1051.83 
  "/>
<polyline clip-path="url(#clip240)" style="stroke:#000000; stroke-width:4; stroke-opacity:1; fill:none" points="
  201.019,831.221 226.84,831.221 
  "/>
<polyline clip-path="url(#clip240)" style="stroke:#000000; stroke-width:4; stroke-opacity:1; fill:none" points="
  201.019,610.608 226.84,610.608 
  "/>
<polyline clip-path="url(#clip240)" style="stroke:#000000; stroke-width:4; stroke-opacity:1; fill:none" points="
  201.019,389.995 226.84,389.995 
  "/>
<polyline clip-path="url(#clip240)" style="stroke:#000000; stroke-width:4; stroke-opacity:1; fill:none" points="
  201.019,169.382 226.84,169.382 
  "/>
<path clip-path="url(#clip240)" d="M 0 0 M56.6171 1285.79 L72.9365 1285.79 L72.9365 1289.73 L50.9921 1289.73 L50.9921 1285.79 Q53.6541 1283.04 58.2375 1278.41 Q62.8439 1273.75 64.0245 1272.41 Q66.2698 1269.89 67.1494 1268.15 Q68.0522 1266.39 68.0522 1264.7 Q68.0522 1261.95 66.1078 1260.21 Q64.1865 1258.48 61.0847 1258.48 Q58.8856 1258.48 56.4319 1259.24 Q54.0014 1260 51.2236 1261.56 L51.2236 1256.83 Q54.0477 1255.7 56.5014 1255.12 Q58.955 1254.54 60.9921 1254.54 Q66.3624 1254.54 69.5568 1257.23 Q72.7513 1259.91 72.7513 1264.4 Q72.7513 1266.53 71.9411 1268.45 Q71.1541 1270.35 69.0476 1272.94 Q68.4689 1273.62 65.367 1276.83 Q62.2652 1280.03 56.6171 1285.79 Z" fill="#000000" fill-rule="evenodd" fill-opacity="1" /><path clip-path="url(#clip240)" d="M 0 0 M92.7512 1258.24 Q89.1401 1258.24 87.3114 1261.81 Q85.5058 1265.35 85.5058 1272.48 Q85.5058 1279.59 87.3114 1283.15 Q89.1401 1286.69 92.7512 1286.69 Q96.3854 1286.69 98.1909 1283.15 Q100.02 1279.59 100.02 1272.48 Q100.02 1265.35 98.1909 1261.81 Q96.3854 1258.24 92.7512 1258.24 M92.7512 1254.54 Q98.5613 1254.54 101.617 1259.15 Q104.696 1263.73 104.696 1272.48 Q104.696 1281.21 101.617 1285.81 Q98.5613 1290.4 92.7512 1290.4 Q86.941 1290.4 83.8623 1285.81 Q80.8068 1281.21 80.8068 1272.48 Q80.8068 1263.73 83.8623 1259.15 Q86.941 1254.54 92.7512 1254.54 Z" fill="#000000" fill-rule="evenodd" fill-opacity="1" /><path clip-path="url(#clip240)" d="M 0 0 M112.959 1255.17 L131.316 1255.17 L131.316 1259.1 L117.242 1259.1 L117.242 1267.57 Q118.26 1267.23 119.279 1267.06 Q120.297 1266.88 121.316 1266.88 Q127.103 1266.88 130.482 1270.05 Q133.862 1273.22 133.862 1278.64 Q133.862 1284.22 130.39 1287.32 Q126.918 1290.4 120.598 1290.4 Q118.422 1290.4 116.154 1290.03 Q113.908 1289.66 111.501 1288.92 L111.501 1284.22 Q113.584 1285.35 115.807 1285.91 Q118.029 1286.46 120.506 1286.46 Q124.51 1286.46 126.848 1284.36 Q129.186 1282.25 129.186 1278.64 Q129.186 1275.03 126.848 1272.92 Q124.51 1270.81 120.506 1270.81 Q118.631 1270.81 116.756 1271.23 Q114.904 1271.65 112.959 1272.53 L112.959 1255.17 Z" fill="#000000" fill-rule="evenodd" fill-opacity="1" /><path clip-path="url(#clip240)" d="M 0 0 M153.075 1258.24 Q149.464 1258.24 147.635 1261.81 Q145.83 1265.35 145.83 1272.48 Q145.83 1279.59 147.635 1283.15 Q149.464 1286.69 153.075 1286.69 Q156.709 1286.69 158.515 1283.15 Q160.343 1279.59 160.343 1272.48 Q160.343 1265.35 158.515 1261.81 Q156.709 1258.24 153.075 1258.24 M153.075 1254.54 Q158.885 1254.54 161.941 1259.15 Q165.019 1263.73 165.019 1272.48 Q165.019 1281.21 161.941 1285.81 Q158.885 1290.4 153.075 1290.4 Q147.265 1290.4 144.186 1285.81 Q141.131 1281.21 141.131 1272.48 Q141.131 1263.73 144.186 1259.15 Q147.265 1254.54 153.075 1254.54 Z" fill="#000000" fill-rule="evenodd" fill-opacity="1" /><path clip-path="url(#clip240)" d="M 0 0 M56.6171 1065.18 L72.9365 1065.18 L72.9365 1069.11 L50.9921 1069.11 L50.9921 1065.18 Q53.6541 1062.42 58.2375 1057.79 Q62.8439 1053.14 64.0245 1051.8 Q66.2698 1049.28 67.1494 1047.54 Q68.0522 1045.78 68.0522 1044.09 Q68.0522 1041.34 66.1078 1039.6 Q64.1865 1037.86 61.0847 1037.86 Q58.8856 1037.86 56.4319 1038.63 Q54.0014 1039.39 51.2236 1040.94 L51.2236 1036.22 Q54.0477 1035.09 56.5014 1034.51 Q58.955 1033.93 60.9921 1033.93 Q66.3624 1033.93 69.5568 1036.61 Q72.7513 1039.3 72.7513 1043.79 Q72.7513 1045.92 71.9411 1047.84 Q71.1541 1049.74 69.0476 1052.33 Q68.4689 1053 65.367 1056.22 Q62.2652 1059.41 56.6171 1065.18 Z" fill="#000000" fill-rule="evenodd" fill-opacity="1" /><path clip-path="url(#clip240)" d="M 0 0 M83.5614 1065.18 L91.2002 1065.18 L91.2002 1038.81 L82.8901 1040.48 L82.8901 1036.22 L91.1539 1034.55 L95.8298 1034.55 L95.8298 1065.18 L103.469 1065.18 L103.469 1069.11 L83.5614 1069.11 L83.5614 1065.18 Z" fill="#000000" fill-rule="evenodd" fill-opacity="1" /><path clip-path="url(#clip240)" d="M 0 0 M122.913 1037.63 Q119.302 1037.63 117.473 1041.2 Q115.668 1044.74 115.668 1051.87 Q115.668 1058.97 117.473 1062.54 Q119.302 1066.08 122.913 1066.08 Q126.547 1066.08 128.353 1062.54 Q130.182 1058.97 130.182 1051.87 Q130.182 1044.74 128.353 1041.2 Q126.547 1037.63 122.913 1037.63 M122.913 1033.93 Q128.723 1033.93 131.779 1038.53 Q134.857 1043.12 134.857 1051.87 Q134.857 1060.6 131.779 1065.2 Q128.723 1069.78 122.913 1069.78 Q117.103 1069.78 114.024 1065.2 Q110.969 1060.6 110.969 1051.87 Q110.969 1043.12 114.024 1038.53 Q117.103 1033.93 122.913 1033.93 Z" fill="#000000" fill-rule="evenodd" fill-opacity="1" /><path clip-path="url(#clip240)" d="M 0 0 M153.075 1037.63 Q149.464 1037.63 147.635 1041.2 Q145.83 1044.74 145.83 1051.87 Q145.83 1058.97 147.635 1062.54 Q149.464 1066.08 153.075 1066.08 Q156.709 1066.08 158.515 1062.54 Q160.343 1058.97 160.343 1051.87 Q160.343 1044.74 158.515 1041.2 Q156.709 1037.63 153.075 1037.63 M153.075 1033.93 Q158.885 1033.93 161.941 1038.53 Q165.019 1043.12 165.019 1051.87 Q165.019 1060.6 161.941 1065.2 Q158.885 1069.78 153.075 1069.78 Q147.265 1069.78 144.186 1065.2 Q141.131 1060.6 141.131 1051.87 Q141.131 1043.12 144.186 1038.53 Q147.265 1033.93 153.075 1033.93 Z" fill="#000000" fill-rule="evenodd" fill-opacity="1" /><path clip-path="url(#clip240)" d="M 0 0 M56.6171 844.565 L72.9365 844.565 L72.9365 848.501 L50.9921 848.501 L50.9921 844.565 Q53.6541 841.811 58.2375 837.181 Q62.8439 832.529 64.0245 831.186 Q66.2698 828.663 67.1494 826.927 Q68.0522 825.167 68.0522 823.478 Q68.0522 820.723 66.1078 818.987 Q64.1865 817.251 61.0847 817.251 Q58.8856 817.251 56.4319 818.015 Q54.0014 818.779 51.2236 820.33 L51.2236 815.607 Q54.0477 814.473 56.5014 813.894 Q58.955 813.316 60.9921 813.316 Q66.3624 813.316 69.5568 816.001 Q72.7513 818.686 72.7513 823.177 Q72.7513 825.306 71.9411 827.228 Q71.1541 829.126 69.0476 831.718 Q68.4689 832.39 65.367 835.607 Q62.2652 838.802 56.6171 844.565 Z" fill="#000000" fill-rule="evenodd" fill-opacity="1" /><path clip-path="url(#clip240)" d="M 0 0 M83.5614 844.565 L91.2002 844.565 L91.2002 818.2 L82.8901 819.867 L82.8901 815.607 L91.1539 813.941 L95.8298 813.941 L95.8298 844.565 L103.469 844.565 L103.469 848.501 L83.5614 848.501 L83.5614 844.565 Z" fill="#000000" fill-rule="evenodd" fill-opacity="1" /><path clip-path="url(#clip240)" d="M 0 0 M112.959 813.941 L131.316 813.941 L131.316 817.876 L117.242 817.876 L117.242 826.348 Q118.26 826.001 119.279 825.839 Q120.297 825.654 121.316 825.654 Q127.103 825.654 130.482 828.825 Q133.862 831.996 133.862 837.413 Q133.862 842.991 130.39 846.093 Q126.918 849.172 120.598 849.172 Q118.422 849.172 116.154 848.802 Q113.908 848.431 111.501 847.69 L111.501 842.991 Q113.584 844.126 115.807 844.681 Q118.029 845.237 120.506 845.237 Q124.51 845.237 126.848 843.13 Q129.186 841.024 129.186 837.413 Q129.186 833.802 126.848 831.695 Q124.51 829.589 120.506 829.589 Q118.631 829.589 116.756 830.005 Q114.904 830.422 112.959 831.302 L112.959 813.941 Z" fill="#000000" fill-rule="evenodd" fill-opacity="1" /><path clip-path="url(#clip240)" d="M 0 0 M153.075 817.019 Q149.464 817.019 147.635 820.584 Q145.83 824.126 145.83 831.255 Q145.83 838.362 147.635 841.927 Q149.464 845.468 153.075 845.468 Q156.709 845.468 158.515 841.927 Q160.343 838.362 160.343 831.255 Q160.343 824.126 158.515 820.584 Q156.709 817.019 153.075 817.019 M153.075 813.316 Q158.885 813.316 161.941 817.922 Q165.019 822.505 165.019 831.255 Q165.019 839.982 161.941 844.589 Q158.885 849.172 153.075 849.172 Q147.265 849.172 144.186 844.589 Q141.131 839.982 141.131 831.255 Q141.131 822.505 144.186 817.922 Q147.265 813.316 153.075 813.316 Z" fill="#000000" fill-rule="evenodd" fill-opacity="1" /><path clip-path="url(#clip240)" d="M 0 0 M56.6171 623.953 L72.9365 623.953 L72.9365 627.888 L50.9921 627.888 L50.9921 623.953 Q53.6541 621.198 58.2375 616.568 Q62.8439 611.916 64.0245 610.573 Q66.2698 608.05 67.1494 606.314 Q68.0522 604.555 68.0522 602.865 Q68.0522 600.11 66.1078 598.374 Q64.1865 596.638 61.0847 596.638 Q58.8856 596.638 56.4319 597.402 Q54.0014 598.166 51.2236 599.717 L51.2236 594.994 Q54.0477 593.86 56.5014 593.282 Q58.955 592.703 60.9921 592.703 Q66.3624 592.703 69.5568 595.388 Q72.7513 598.073 72.7513 602.564 Q72.7513 604.694 71.9411 606.615 Q71.1541 608.513 69.0476 611.106 Q68.4689 611.777 65.367 614.994 Q62.2652 618.189 56.6171 623.953 Z" fill="#000000" fill-rule="evenodd" fill-opacity="1" /><path clip-path="url(#clip240)" d="M 0 0 M86.779 623.953 L103.098 623.953 L103.098 627.888 L81.154 627.888 L81.154 623.953 Q83.816 621.198 88.3993 616.568 Q93.0058 611.916 94.1863 610.573 Q96.4317 608.05 97.3113 606.314 Q98.2141 604.555 98.2141 602.865 Q98.2141 600.11 96.2697 598.374 Q94.3484 596.638 91.2465 596.638 Q89.0475 596.638 86.5938 597.402 Q84.1632 598.166 81.3855 599.717 L81.3855 594.994 Q84.2095 593.86 86.6632 593.282 Q89.1169 592.703 91.1539 592.703 Q96.5243 592.703 99.7187 595.388 Q102.913 598.073 102.913 602.564 Q102.913 604.694 102.103 606.615 Q101.316 608.513 99.2095 611.106 Q98.6308 611.777 95.5289 614.994 Q92.4271 618.189 86.779 623.953 Z" fill="#000000" fill-rule="evenodd" fill-opacity="1" /><path clip-path="url(#clip240)" d="M 0 0 M122.913 596.407 Q119.302 596.407 117.473 599.971 Q115.668 603.513 115.668 610.643 Q115.668 617.749 117.473 621.314 Q119.302 624.855 122.913 624.855 Q126.547 624.855 128.353 621.314 Q130.182 617.749 130.182 610.643 Q130.182 603.513 128.353 599.971 Q126.547 596.407 122.913 596.407 M122.913 592.703 Q128.723 592.703 131.779 597.309 Q134.857 601.893 134.857 610.643 Q134.857 619.369 131.779 623.976 Q128.723 628.559 122.913 628.559 Q117.103 628.559 114.024 623.976 Q110.969 619.369 110.969 610.643 Q110.969 601.893 114.024 597.309 Q117.103 592.703 122.913 592.703 Z" fill="#000000" fill-rule="evenodd" fill-opacity="1" /><path clip-path="url(#clip240)" d="M 0 0 M153.075 596.407 Q149.464 596.407 147.635 599.971 Q145.83 603.513 145.83 610.643 Q145.83 617.749 147.635 621.314 Q149.464 624.855 153.075 624.855 Q156.709 624.855 158.515 621.314 Q160.343 617.749 160.343 610.643 Q160.343 603.513 158.515 599.971 Q156.709 596.407 153.075 596.407 M153.075 592.703 Q158.885 592.703 161.941 597.309 Q165.019 601.893 165.019 610.643 Q165.019 619.369 161.941 623.976 Q158.885 628.559 153.075 628.559 Q147.265 628.559 144.186 623.976 Q141.131 619.369 141.131 610.643 Q141.131 601.893 144.186 597.309 Q147.265 592.703 153.075 592.703 Z" fill="#000000" fill-rule="evenodd" fill-opacity="1" /><path clip-path="url(#clip240)" d="M 0 0 M56.6171 403.34 L72.9365 403.34 L72.9365 407.275 L50.9921 407.275 L50.9921 403.34 Q53.6541 400.585 58.2375 395.956 Q62.8439 391.303 64.0245 389.96 Q66.2698 387.437 67.1494 385.701 Q68.0522 383.942 68.0522 382.252 Q68.0522 379.497 66.1078 377.761 Q64.1865 376.025 61.0847 376.025 Q58.8856 376.025 56.4319 376.789 Q54.0014 377.553 51.2236 379.104 L51.2236 374.382 Q54.0477 373.247 56.5014 372.669 Q58.955 372.09 60.9921 372.09 Q66.3624 372.09 69.5568 374.775 Q72.7513 377.46 72.7513 381.951 Q72.7513 384.081 71.9411 386.002 Q71.1541 387.9 69.0476 390.493 Q68.4689 391.164 65.367 394.382 Q62.2652 397.576 56.6171 403.34 Z" fill="#000000" fill-rule="evenodd" fill-opacity="1" /><path clip-path="url(#clip240)" d="M 0 0 M86.779 403.34 L103.098 403.34 L103.098 407.275 L81.154 407.275 L81.154 403.34 Q83.816 400.585 88.3993 395.956 Q93.0058 391.303 94.1863 389.96 Q96.4317 387.437 97.3113 385.701 Q98.2141 383.942 98.2141 382.252 Q98.2141 379.497 96.2697 377.761 Q94.3484 376.025 91.2465 376.025 Q89.0475 376.025 86.5938 376.789 Q84.1632 377.553 81.3855 379.104 L81.3855 374.382 Q84.2095 373.247 86.6632 372.669 Q89.1169 372.09 91.1539 372.09 Q96.5243 372.09 99.7187 374.775 Q102.913 377.46 102.913 381.951 Q102.913 384.081 102.103 386.002 Q101.316 387.9 99.2095 390.493 Q98.6308 391.164 95.5289 394.382 Q92.4271 397.576 86.779 403.34 Z" fill="#000000" fill-rule="evenodd" fill-opacity="1" /><path clip-path="url(#clip240)" d="M 0 0 M112.959 372.715 L131.316 372.715 L131.316 376.65 L117.242 376.65 L117.242 385.122 Q118.26 384.775 119.279 384.613 Q120.297 384.428 121.316 384.428 Q127.103 384.428 130.482 387.599 Q133.862 390.77 133.862 396.187 Q133.862 401.766 130.39 404.868 Q126.918 407.946 120.598 407.946 Q118.422 407.946 116.154 407.576 Q113.908 407.206 111.501 406.465 L111.501 401.766 Q113.584 402.9 115.807 403.456 Q118.029 404.011 120.506 404.011 Q124.51 404.011 126.848 401.905 Q129.186 399.798 129.186 396.187 Q129.186 392.576 126.848 390.47 Q124.51 388.363 120.506 388.363 Q118.631 388.363 116.756 388.78 Q114.904 389.196 112.959 390.076 L112.959 372.715 Z" fill="#000000" fill-rule="evenodd" fill-opacity="1" /><path clip-path="url(#clip240)" d="M 0 0 M153.075 375.794 Q149.464 375.794 147.635 379.358 Q145.83 382.9 145.83 390.03 Q145.83 397.136 147.635 400.701 Q149.464 404.243 153.075 404.243 Q156.709 404.243 158.515 400.701 Q160.343 397.136 160.343 390.03 Q160.343 382.9 158.515 379.358 Q156.709 375.794 153.075 375.794 M153.075 372.09 Q158.885 372.09 161.941 376.696 Q165.019 381.28 165.019 390.03 Q165.019 398.757 161.941 403.363 Q158.885 407.946 153.075 407.946 Q147.265 407.946 144.186 403.363 Q141.131 398.757 141.131 390.03 Q141.131 381.28 144.186 376.696 Q147.265 372.09 153.075 372.09 Z" fill="#000000" fill-rule="evenodd" fill-opacity="1" /><path clip-path="url(#clip240)" d="M 0 0 M56.6171 182.727 L72.9365 182.727 L72.9365 186.662 L50.9921 186.662 L50.9921 182.727 Q53.6541 179.972 58.2375 175.343 Q62.8439 170.69 64.0245 169.347 Q66.2698 166.824 67.1494 165.088 Q68.0522 163.329 68.0522 161.639 Q68.0522 158.885 66.1078 157.148 Q64.1865 155.412 61.0847 155.412 Q58.8856 155.412 56.4319 156.176 Q54.0014 156.94 51.2236 158.491 L51.2236 153.769 Q54.0477 152.635 56.5014 152.056 Q58.955 151.477 60.9921 151.477 Q66.3624 151.477 69.5568 154.162 Q72.7513 156.848 72.7513 161.338 Q72.7513 163.468 71.9411 165.389 Q71.1541 167.287 69.0476 169.88 Q68.4689 170.551 65.367 173.769 Q62.2652 176.963 56.6171 182.727 Z" fill="#000000" fill-rule="evenodd" fill-opacity="1" /><path clip-path="url(#clip240)" d="M 0 0 M96.9178 168.028 Q100.274 168.746 102.149 171.014 Q104.047 173.283 104.047 176.616 Q104.047 181.732 100.529 184.533 Q97.0104 187.333 90.529 187.333 Q88.353 187.333 86.0382 186.894 Q83.7466 186.477 81.2929 185.621 L81.2929 181.107 Q83.2373 182.241 85.5521 182.82 Q87.8669 183.398 90.3901 183.398 Q94.7882 183.398 97.0798 181.662 Q99.3946 179.926 99.3946 176.616 Q99.3946 173.56 97.2419 171.847 Q95.1123 170.111 91.2928 170.111 L87.2651 170.111 L87.2651 166.269 L91.478 166.269 Q94.9271 166.269 96.7558 164.903 Q98.5845 163.514 98.5845 160.922 Q98.5845 158.26 96.6863 156.848 Q94.8113 155.412 91.2928 155.412 Q89.3715 155.412 87.1725 155.829 Q84.9734 156.246 82.3346 157.125 L82.3346 152.959 Q84.9966 152.218 87.3114 151.848 Q89.6493 151.477 91.7095 151.477 Q97.0335 151.477 100.135 153.908 Q103.237 156.315 103.237 160.435 Q103.237 163.306 101.594 165.297 Q99.9502 167.264 96.9178 168.028 Z" fill="#000000" fill-rule="evenodd" fill-opacity="1" /><path clip-path="url(#clip240)" d="M 0 0 M122.913 155.181 Q119.302 155.181 117.473 158.746 Q115.668 162.287 115.668 169.417 Q115.668 176.523 117.473 180.088 Q119.302 183.63 122.913 183.63 Q126.547 183.63 128.353 180.088 Q130.182 176.523 130.182 169.417 Q130.182 162.287 128.353 158.746 Q126.547 155.181 122.913 155.181 M122.913 151.477 Q128.723 151.477 131.779 156.084 Q134.857 160.667 134.857 169.417 Q134.857 178.144 131.779 182.75 Q128.723 187.333 122.913 187.333 Q117.103 187.333 114.024 182.75 Q110.969 178.144 110.969 169.417 Q110.969 160.667 114.024 156.084 Q117.103 151.477 122.913 151.477 Z" fill="#000000" fill-rule="evenodd" fill-opacity="1" /><path clip-path="url(#clip240)" d="M 0 0 M153.075 155.181 Q149.464 155.181 147.635 158.746 Q145.83 162.287 145.83 169.417 Q145.83 176.523 147.635 180.088 Q149.464 183.63 153.075 183.63 Q156.709 183.63 158.515 180.088 Q160.343 176.523 160.343 169.417 Q160.343 162.287 158.515 158.746 Q156.709 155.181 153.075 155.181 M153.075 151.477 Q158.885 151.477 161.941 156.084 Q165.019 160.667 165.019 169.417 Q165.019 178.144 161.941 182.75 Q158.885 187.333 153.075 187.333 Q147.265 187.333 144.186 182.75 Q141.131 178.144 141.131 169.417 Q141.131 160.667 144.186 156.084 Q147.265 151.477 153.075 151.477 Z" fill="#000000" fill-rule="evenodd" fill-opacity="1" /><polyline clip-path="url(#clip242)" style="stroke:#009af9; stroke-width:4; stroke-opacity:1; fill:none" points="
  261.917,1264.95 329.582,1204.63 397.247,1295.35 464.912,1321.6 667.906,1370.05 735.57,1238.78 803.235,1232.21 870.9,1060.88 1141.56,818.249 1209.22,511.332 
  1276.89,495.316 1344.55,266.628 1412.22,360.433 1615.21,318.296 1682.88,339.387 1750.54,278.983 1818.2,270.952 1885.87,156.145 2088.86,204.769 2156.53,134.57 
  2224.19,234.463 2291.86,199.253 
  "/>
<polyline clip-path="url(#clip242)" style="stroke:#e26f46; stroke-width:4; stroke-opacity:1; fill:none" points="
  261.917,1174.04 329.582,1147.98 397.247,1233.31 464.912,1268.08 667.906,1235.25 735.57,1180.76 803.235,1081.28 870.9,862.371 1141.56,445.986 1209.22,444.443 
  1276.89,367.934 1344.55,239.957 1412.22,217.74 1615.21,278.276 1682.88,269.938 1750.54,266.496 1818.2,140.275 1885.87,140.968 2088.86,87.9763 2156.53,127.024 
  2224.19,190.031 2291.86,152.783 
  "/>
<polyline clip-path="url(#clip242)" style="stroke:#3da44d; stroke-width:4; stroke-opacity:1; fill:none" points="
  261.917,1320.01 329.582,1309.71 397.247,1445.72 464.912,1431.2 667.906,1424.14 735.57,1298.79 803.235,1242.69 870.9,1065.56 1141.56,824.072 1209.22,545.306 
  1276.89,498.845 1344.55,356.109 1412.22,373.607 1615.21,440.89 1682.88,363.124 1750.54,393.569 1818.2,319.399 1885.87,237.993 2088.86,223.013 2156.53,294.205 
  2224.19,352.182 2291.86,361.536 
  "/>
<polyline clip-path="url(#clip242)" style="stroke:#c271d2; stroke-width:4; stroke-opacity:1; fill:none" points="
  261.917,1259.39 329.582,1294.24 397.247,1297.33 464.912,1336.2 667.906,1246.19 735.57,1248 803.235,1190.25 870.9,885.271 1141.56,497.874 1209.22,501.404 
  1276.89,391.407 1344.55,321.87 1412.22,231.684 1615.21,368.86 1682.88,313.795 1750.54,368.639 1818.2,184.12 1885.87,179.266 2088.86,158.793 2156.53,197.489 
  2224.19,198.988 2291.86,310.928 
  "/>
<path clip-path="url(#clip240)" d="
M1917.99 397.618 L2281.03 397.618 L2281.03 95.2176 L1917.99 95.2176  Z
  " fill="#ffffff" fill-rule="evenodd" fill-opacity="1"/>
<polyline clip-path="url(#clip240)" style="stroke:#000000; stroke-width:4; stroke-opacity:1; fill:none" points="
  1917.99,397.618 2281.03,397.618 2281.03,95.2176 1917.99,95.2176 1917.99,397.618 
  "/>
<polyline clip-path="url(#clip240)" style="stroke:#009af9; stroke-width:4; stroke-opacity:1; fill:none" points="
  1941.9,155.698 2085.35,155.698 
  "/>
<path clip-path="url(#clip240)" d="M 0 0 M2125.28 141.589 Q2120.18 141.589 2117.17 145.385 Q2114.19 149.181 2114.19 155.732 Q2114.19 162.26 2117.17 166.056 Q2120.18 169.853 2125.28 169.853 Q2130.37 169.853 2133.33 166.056 Q2136.32 162.26 2136.32 155.732 Q2136.32 149.181 2133.33 145.385 Q2130.37 141.589 2125.28 141.589 M2125.28 137.793 Q2132.54 137.793 2136.9 142.677 Q2141.25 147.538 2141.25 155.732 Q2141.25 163.904 2136.9 168.788 Q2132.54 173.649 2125.28 173.649 Q2117.98 173.649 2113.61 168.788 Q2109.26 163.927 2109.26 155.732 Q2109.26 147.538 2113.61 142.677 Q2117.98 137.793 2125.28 137.793 Z" fill="#000000" fill-rule="evenodd" fill-opacity="1" /><path clip-path="url(#clip240)" d="M 0 0 M2152.5 169.089 L2152.5 182.839 L2148.22 182.839 L2148.22 147.052 L2152.5 147.052 L2152.5 150.987 Q2153.84 148.672 2155.88 147.561 Q2157.94 146.427 2160.78 146.427 Q2165.51 146.427 2168.45 150.177 Q2171.41 153.927 2171.41 160.038 Q2171.41 166.149 2168.45 169.899 Q2165.51 173.649 2160.78 173.649 Q2157.94 173.649 2155.88 172.538 Q2153.84 171.403 2152.5 169.089 M2166.99 160.038 Q2166.99 155.339 2165.04 152.677 Q2163.12 149.992 2159.74 149.992 Q2156.36 149.992 2154.42 152.677 Q2152.5 155.339 2152.5 160.038 Q2152.5 164.737 2154.42 167.422 Q2156.36 170.084 2159.74 170.084 Q2163.12 170.084 2165.04 167.422 Q2166.99 164.737 2166.99 160.038 Z" fill="#000000" fill-rule="evenodd" fill-opacity="1" /><path clip-path="url(#clip240)" d="M 0 0 M2200.65 158.95 L2200.65 161.033 L2181.06 161.033 Q2181.34 165.431 2183.7 167.746 Q2186.09 170.038 2190.32 170.038 Q2192.78 170.038 2195.07 169.436 Q2197.38 168.834 2199.65 167.63 L2199.65 171.658 Q2197.36 172.63 2194.95 173.14 Q2192.54 173.649 2190.07 173.649 Q2183.86 173.649 2180.23 170.038 Q2176.62 166.427 2176.62 160.269 Q2176.62 153.904 2180.04 150.177 Q2183.49 146.427 2189.33 146.427 Q2194.56 146.427 2197.59 149.806 Q2200.65 153.163 2200.65 158.95 M2196.39 157.7 Q2196.34 154.205 2194.42 152.121 Q2192.52 150.038 2189.37 150.038 Q2185.81 150.038 2183.66 152.052 Q2181.53 154.066 2181.2 157.723 L2196.39 157.7 Z" fill="#000000" fill-rule="evenodd" fill-opacity="1" /><path clip-path="url(#clip240)" d="M 0 0 M2229.19 157.329 L2229.19 172.978 L2224.93 172.978 L2224.93 157.468 Q2224.93 153.788 2223.49 151.959 Q2222.06 150.13 2219.19 150.13 Q2215.74 150.13 2213.75 152.33 Q2211.76 154.529 2211.76 158.325 L2211.76 172.978 L2207.47 172.978 L2207.47 147.052 L2211.76 147.052 L2211.76 151.08 Q2213.28 148.742 2215.34 147.584 Q2217.43 146.427 2220.14 146.427 Q2224.6 146.427 2226.9 149.205 Q2229.19 151.959 2229.19 157.329 Z" fill="#000000" fill-rule="evenodd" fill-opacity="1" /><polyline clip-path="url(#clip240)" style="stroke:#e26f46; stroke-width:4; stroke-opacity:1; fill:none" points="
  1941.9,216.178 2085.35,216.178 
  "/>
<path clip-path="url(#clip240)" d="M 0 0 M2109.26 198.898 L2113.93 198.898 L2113.93 213.064 L2130.92 213.064 L2130.92 198.898 L2135.6 198.898 L2135.6 233.458 L2130.92 233.458 L2130.92 216.999 L2113.93 216.999 L2113.93 233.458 L2109.26 233.458 L2109.26 198.898 Z" fill="#000000" fill-rule="evenodd" fill-opacity="1" /><path clip-path="url(#clip240)" d="M 0 0 M2144.72 207.532 L2148.98 207.532 L2148.98 233.458 L2144.72 233.458 L2144.72 207.532 M2144.72 197.439 L2148.98 197.439 L2148.98 202.833 L2144.72 202.833 L2144.72 197.439 Z" fill="#000000" fill-rule="evenodd" fill-opacity="1" /><path clip-path="url(#clip240)" d="M 0 0 M2174.95 220.194 Q2174.95 215.564 2173.03 213.018 Q2171.13 210.472 2167.68 210.472 Q2164.26 210.472 2162.34 213.018 Q2160.44 215.564 2160.44 220.194 Q2160.44 224.8 2162.34 227.346 Q2164.26 229.893 2167.68 229.893 Q2171.13 229.893 2173.03 227.346 Q2174.95 224.8 2174.95 220.194 M2179.21 230.24 Q2179.21 236.86 2176.27 240.078 Q2173.33 243.319 2167.27 243.319 Q2165.02 243.319 2163.03 242.971 Q2161.04 242.647 2159.16 241.953 L2159.16 237.809 Q2161.04 238.828 2162.87 239.314 Q2164.7 239.8 2166.59 239.8 Q2170.78 239.8 2172.87 237.601 Q2174.95 235.425 2174.95 231.004 L2174.95 228.897 Q2173.63 231.189 2171.57 232.323 Q2169.51 233.458 2166.64 233.458 Q2161.87 233.458 2158.96 229.823 Q2156.04 226.189 2156.04 220.194 Q2156.04 214.175 2158.96 210.541 Q2161.87 206.907 2166.64 206.907 Q2169.51 206.907 2171.57 208.041 Q2173.63 209.175 2174.95 211.467 L2174.95 207.532 L2179.21 207.532 L2179.21 230.24 Z" fill="#000000" fill-rule="evenodd" fill-opacity="1" /><path clip-path="url(#clip240)" d="M 0 0 M2209.53 217.809 L2209.53 233.458 L2205.28 233.458 L2205.28 217.948 Q2205.28 214.268 2203.84 212.439 Q2202.4 210.61 2199.53 210.61 Q2196.09 210.61 2194.09 212.81 Q2192.1 215.009 2192.1 218.805 L2192.1 233.458 L2187.82 233.458 L2187.82 197.439 L2192.1 197.439 L2192.1 211.56 Q2193.63 209.222 2195.69 208.064 Q2197.78 206.907 2200.48 206.907 Q2204.95 206.907 2207.24 209.685 Q2209.53 212.439 2209.53 217.809 Z" fill="#000000" fill-rule="evenodd" fill-opacity="1" /><polyline clip-path="url(#clip240)" style="stroke:#3da44d; stroke-width:4; stroke-opacity:1; fill:none" points="
  1941.9,276.658 2085.35,276.658 
  "/>
<path clip-path="url(#clip240)" d="M 0 0 M2109.26 259.378 L2113.93 259.378 L2113.93 290.002 L2130.76 290.002 L2130.76 293.938 L2109.26 293.938 L2109.26 259.378 Z" fill="#000000" fill-rule="evenodd" fill-opacity="1" /><path clip-path="url(#clip240)" d="M 0 0 M2144.7 270.998 Q2141.27 270.998 2139.28 273.683 Q2137.29 276.345 2137.29 280.998 Q2137.29 285.651 2139.26 288.336 Q2141.25 290.998 2144.7 290.998 Q2148.1 290.998 2150.09 288.313 Q2152.08 285.627 2152.08 280.998 Q2152.08 276.391 2150.09 273.706 Q2148.1 270.998 2144.7 270.998 M2144.7 267.387 Q2150.25 267.387 2153.42 270.998 Q2156.6 274.609 2156.6 280.998 Q2156.6 287.364 2153.42 290.998 Q2150.25 294.609 2144.7 294.609 Q2139.12 294.609 2135.95 290.998 Q2132.8 287.364 2132.8 280.998 Q2132.8 274.609 2135.95 270.998 Q2139.12 267.387 2144.7 267.387 Z" fill="#000000" fill-rule="evenodd" fill-opacity="1" /><path clip-path="url(#clip240)" d="M 0 0 M2161.18 268.012 L2165.44 268.012 L2170.76 288.243 L2176.06 268.012 L2181.09 268.012 L2186.41 288.243 L2191.71 268.012 L2195.97 268.012 L2189.19 293.938 L2184.16 293.938 L2178.59 272.688 L2172.98 293.938 L2167.96 293.938 L2161.18 268.012 Z" fill="#000000" fill-rule="evenodd" fill-opacity="1" /><polyline clip-path="url(#clip240)" style="stroke:#c271d2; stroke-width:4; stroke-opacity:1; fill:none" points="
  1941.9,337.138 2085.35,337.138 
  "/>
<path clip-path="url(#clip240)" d="M 0 0 M2137.13 322.52 L2137.13 327.45 Q2134.77 325.251 2132.08 324.163 Q2129.42 323.075 2126.41 323.075 Q2120.48 323.075 2117.34 326.709 Q2114.19 330.32 2114.19 337.172 Q2114.19 344.001 2117.34 347.635 Q2120.48 351.246 2126.41 351.246 Q2129.42 351.246 2132.08 350.158 Q2134.77 349.07 2137.13 346.871 L2137.13 351.756 Q2134.67 353.422 2131.92 354.256 Q2129.19 355.089 2126.13 355.089 Q2118.29 355.089 2113.77 350.297 Q2109.26 345.482 2109.26 337.172 Q2109.26 328.839 2113.77 324.047 Q2118.29 319.233 2126.13 319.233 Q2129.23 319.233 2131.97 320.066 Q2134.72 320.876 2137.13 322.52 Z" fill="#000000" fill-rule="evenodd" fill-opacity="1" /><path clip-path="url(#clip240)" d="M 0 0 M2144.16 318.399 L2148.42 318.399 L2148.42 354.418 L2144.16 354.418 L2144.16 318.399 Z" fill="#000000" fill-rule="evenodd" fill-opacity="1" /><path clip-path="url(#clip240)" d="M 0 0 M2167.38 331.478 Q2163.96 331.478 2161.97 334.163 Q2159.97 336.825 2159.97 341.478 Q2159.97 346.131 2161.94 348.816 Q2163.93 351.478 2167.38 351.478 Q2170.78 351.478 2172.78 348.793 Q2174.77 346.107 2174.77 341.478 Q2174.77 336.871 2172.78 334.186 Q2170.78 331.478 2167.38 331.478 M2167.38 327.867 Q2172.94 327.867 2176.11 331.478 Q2179.28 335.089 2179.28 341.478 Q2179.28 347.844 2176.11 351.478 Q2172.94 355.089 2167.38 355.089 Q2161.8 355.089 2158.63 351.478 Q2155.48 347.844 2155.48 341.478 Q2155.48 335.089 2158.63 331.478 Q2161.8 327.867 2167.38 327.867 Z" fill="#000000" fill-rule="evenodd" fill-opacity="1" /><path clip-path="url(#clip240)" d="M 0 0 M2202.87 329.256 L2202.87 333.283 Q2201.06 332.357 2199.12 331.895 Q2197.17 331.432 2195.09 331.432 Q2191.92 331.432 2190.32 332.404 Q2188.75 333.376 2188.75 335.32 Q2188.75 336.802 2189.88 337.658 Q2191.02 338.492 2194.44 339.256 L2195.9 339.58 Q2200.44 340.552 2202.34 342.334 Q2204.26 344.094 2204.26 347.265 Q2204.26 350.876 2201.39 352.982 Q2198.54 355.089 2193.54 355.089 Q2191.46 355.089 2189.19 354.672 Q2186.94 354.279 2184.44 353.468 L2184.44 349.07 Q2186.8 350.297 2189.09 350.922 Q2191.39 351.524 2193.63 351.524 Q2196.64 351.524 2198.26 350.506 Q2199.88 349.464 2199.88 347.589 Q2199.88 345.853 2198.7 344.927 Q2197.54 344.001 2193.59 343.144 L2192.1 342.797 Q2188.15 341.964 2186.39 340.251 Q2184.63 338.515 2184.63 335.506 Q2184.63 331.848 2187.22 329.858 Q2189.81 327.867 2194.58 327.867 Q2196.94 327.867 2199.03 328.214 Q2201.11 328.561 2202.87 329.256 Z" fill="#000000" fill-rule="evenodd" fill-opacity="1" /><path clip-path="url(#clip240)" d="M 0 0 M2233.21 340.39 L2233.21 342.473 L2213.63 342.473 Q2213.91 346.871 2216.27 349.186 Q2218.65 351.478 2222.89 351.478 Q2225.34 351.478 2227.64 350.876 Q2229.95 350.274 2232.22 349.07 L2232.22 353.098 Q2229.93 354.07 2227.52 354.58 Q2225.11 355.089 2222.64 355.089 Q2216.43 355.089 2212.8 351.478 Q2209.19 347.867 2209.19 341.709 Q2209.19 335.344 2212.61 331.617 Q2216.06 327.867 2221.9 327.867 Q2227.13 327.867 2230.16 331.246 Q2233.21 334.603 2233.21 340.39 M2228.96 339.14 Q2228.91 335.645 2226.99 333.561 Q2225.09 331.478 2221.94 331.478 Q2218.38 331.478 2216.22 333.492 Q2214.09 335.506 2213.77 339.163 L2228.96 339.14 Z" fill="#000000" fill-rule="evenodd" fill-opacity="1" /></svg>
