<?xml version="1.0" encoding="utf-8"?>
<svg xmlns="http://www.w3.org/2000/svg" xmlns:xlink="http://www.w3.org/1999/xlink" width="600" height="400" viewBox="0 0 2400 1600">
<defs>
  <clipPath id="clip330">
    <rect x="0" y="0" width="2400" height="1600"/>
  </clipPath>
</defs>
<path clip-path="url(#clip330)" d="
M0 1600 L2400 1600 L2400 0 L0 0  Z
  " fill="#ffffff" fill-rule="evenodd" fill-opacity="1"/>
<defs>
  <clipPath id="clip331">
    <rect x="480" y="0" width="1681" height="1600"/>
  </clipPath>
</defs>
<path clip-path="url(#clip330)" d="
M201.019 1330.92 L2352.76 1330.92 L2352.76 47.2441 L201.019 47.2441  Z
  " fill="#ffffff" fill-rule="evenodd" fill-opacity="1"/>
<defs>
  <clipPath id="clip332">
    <rect x="201" y="47" width="2153" height="1285"/>
  </clipPath>
</defs>
<polyline clip-path="url(#clip332)" style="stroke:#000000; stroke-width:2; stroke-opacity:0.1; fill:none" points="
  303.629,1330.92 303.629,47.2441 
  "/>
<polyline clip-path="url(#clip332)" style="stroke:#000000; stroke-width:2; stroke-opacity:0.1; fill:none" points="
  396.32,1330.92 396.32,47.2441 
  "/>
<polyline clip-path="url(#clip332)" style="stroke:#000000; stroke-width:2; stroke-opacity:0.1; fill:none" points="
  489.011,1330.92 489.011,47.2441 
  "/>
<polyline clip-path="url(#clip332)" style="stroke:#000000; stroke-width:2; stroke-opacity:0.1; fill:none" points="
  581.703,1330.92 581.703,47.2441 
  "/>
<polyline clip-path="url(#clip332)" style="stroke:#000000; stroke-width:2; stroke-opacity:0.1; fill:none" points="
  674.394,1330.92 674.394,47.2441 
  "/>
<polyline clip-path="url(#clip332)" style="stroke:#000000; stroke-width:2; stroke-opacity:0.1; fill:none" points="
  767.085,1330.92 767.085,47.2441 
  "/>
<polyline clip-path="url(#clip332)" style="stroke:#000000; stroke-width:2; stroke-opacity:0.1; fill:none" points="
  859.777,1330.92 859.777,47.2441 
  "/>
<polyline clip-path="url(#clip332)" style="stroke:#000000; stroke-width:2; stroke-opacity:0.1; fill:none" points="
  952.468,1330.92 952.468,47.2441 
  "/>
<polyline clip-path="url(#clip332)" style="stroke:#000000; stroke-width:2; stroke-opacity:0.1; fill:none" points="
  1045.16,1330.92 1045.16,47.2441 
  "/>
<polyline clip-path="url(#clip332)" style="stroke:#000000; stroke-width:2; stroke-opacity:0.1; fill:none" points="
  1137.85,1330.92 1137.85,47.2441 
  "/>
<polyline clip-path="url(#clip332)" style="stroke:#000000; stroke-width:2; stroke-opacity:0.1; fill:none" points="
  1230.54,1330.92 1230.54,47.2441 
  "/>
<polyline clip-path="url(#clip332)" style="stroke:#000000; stroke-width:2; stroke-opacity:0.1; fill:none" points="
  1323.23,1330.92 1323.23,47.2441 
  "/>
<polyline clip-path="url(#clip332)" style="stroke:#000000; stroke-width:2; stroke-opacity:0.1; fill:none" points="
  1415.92,1330.92 1415.92,47.2441 
  "/>
<polyline clip-path="url(#clip332)" style="stroke:#000000; stroke-width:2; stroke-opacity:0.1; fill:none" points="
  1508.62,1330.92 1508.62,47.2441 
  "/>
<polyline clip-path="url(#clip332)" style="stroke:#000000; stroke-width:2; stroke-opacity:0.1; fill:none" points="
  1601.31,1330.92 1601.31,47.2441 
  "/>
<polyline clip-path="url(#clip332)" style="stroke:#000000; stroke-width:2; stroke-opacity:0.1; fill:none" points="
  1694,1330.92 1694,47.2441 
  "/>
<polyline clip-path="url(#clip332)" style="stroke:#000000; stroke-width:2; stroke-opacity:0.1; fill:none" points="
  1786.69,1330.92 1786.69,47.2441 
  "/>
<polyline clip-path="url(#clip332)" style="stroke:#000000; stroke-width:2; stroke-opacity:0.1; fill:none" points="
  1879.38,1330.92 1879.38,47.2441 
  "/>
<polyline clip-path="url(#clip332)" style="stroke:#000000; stroke-width:2; stroke-opacity:0.1; fill:none" points="
  1972.07,1330.92 1972.07,47.2441 
  "/>
<polyline clip-path="url(#clip332)" style="stroke:#000000; stroke-width:2; stroke-opacity:0.1; fill:none" points="
  2064.76,1330.92 2064.76,47.2441 
  "/>
<polyline clip-path="url(#clip332)" style="stroke:#000000; stroke-width:2; stroke-opacity:0.1; fill:none" points="
  2157.46,1330.92 2157.46,47.2441 
  "/>
<polyline clip-path="url(#clip332)" style="stroke:#000000; stroke-width:2; stroke-opacity:0.1; fill:none" points="
  2250.15,1330.92 2250.15,47.2441 
  "/>
<polyline clip-path="url(#clip330)" style="stroke:#000000; stroke-width:4; stroke-opacity:1; fill:none" points="
  201.019,1330.92 2352.76,1330.92 
  "/>
<polyline clip-path="url(#clip330)" style="stroke:#000000; stroke-width:4; stroke-opacity:1; fill:none" points="
  303.629,1330.92 303.629,1315.52 
  "/>
<polyline clip-path="url(#clip330)" style="stroke:#000000; stroke-width:4; stroke-opacity:1; fill:none" points="
  396.32,1330.92 396.32,1315.52 
  "/>
<polyline clip-path="url(#clip330)" style="stroke:#000000; stroke-width:4; stroke-opacity:1; fill:none" points="
  489.011,1330.92 489.011,1315.52 
  "/>
<polyline clip-path="url(#clip330)" style="stroke:#000000; stroke-width:4; stroke-opacity:1; fill:none" points="
  581.703,1330.92 581.703,1315.52 
  "/>
<polyline clip-path="url(#clip330)" style="stroke:#000000; stroke-width:4; stroke-opacity:1; fill:none" points="
  674.394,1330.92 674.394,1315.52 
  "/>
<polyline clip-path="url(#clip330)" style="stroke:#000000; stroke-width:4; stroke-opacity:1; fill:none" points="
  767.085,1330.92 767.085,1315.52 
  "/>
<polyline clip-path="url(#clip330)" style="stroke:#000000; stroke-width:4; stroke-opacity:1; fill:none" points="
  859.777,1330.92 859.777,1315.52 
  "/>
<polyline clip-path="url(#clip330)" style="stroke:#000000; stroke-width:4; stroke-opacity:1; fill:none" points="
  952.468,1330.92 952.468,1315.52 
  "/>
<polyline clip-path="url(#clip330)" style="stroke:#000000; stroke-width:4; stroke-opacity:1; fill:none" points="
  1045.16,1330.92 1045.16,1315.52 
  "/>
<polyline clip-path="url(#clip330)" style="stroke:#000000; stroke-width:4; stroke-opacity:1; fill:none" points="
  1137.85,1330.92 1137.85,1315.52 
  "/>
<polyline clip-path="url(#clip330)" style="stroke:#000000; stroke-width:4; stroke-opacity:1; fill:none" points="
  1230.54,1330.92 1230.54,1315.52 
  "/>
<polyline clip-path="url(#clip330)" style="stroke:#000000; stroke-width:4; stroke-opacity:1; fill:none" points="
  1323.23,1330.92 1323.23,1315.52 
  "/>
<polyline clip-path="url(#clip330)" style="stroke:#000000; stroke-width:4; stroke-opacity:1; fill:none" points="
  1415.92,1330.92 1415.92,1315.52 
  "/>
<polyline clip-path="url(#clip330)" style="stroke:#000000; stroke-width:4; stroke-opacity:1; fill:none" points="
  1508.62,1330.92 1508.62,1315.52 
  "/>
<polyline clip-path="url(#clip330)" style="stroke:#000000; stroke-width:4; stroke-opacity:1; fill:none" points="
  1601.31,1330.92 1601.31,1315.52 
  "/>
<polyline clip-path="url(#clip330)" style="stroke:#000000; stroke-width:4; stroke-opacity:1; fill:none" points="
  1694,1330.92 1694,1315.52 
  "/>
<polyline clip-path="url(#clip330)" style="stroke:#000000; stroke-width:4; stroke-opacity:1; fill:none" points="
  1786.69,1330.92 1786.69,1315.52 
  "/>
<polyline clip-path="url(#clip330)" style="stroke:#000000; stroke-width:4; stroke-opacity:1; fill:none" points="
  1879.38,1330.92 1879.38,1315.52 
  "/>
<polyline clip-path="url(#clip330)" style="stroke:#000000; stroke-width:4; stroke-opacity:1; fill:none" points="
  1972.07,1330.92 1972.07,1315.52 
  "/>
<polyline clip-path="url(#clip330)" style="stroke:#000000; stroke-width:4; stroke-opacity:1; fill:none" points="
  2064.76,1330.92 2064.76,1315.52 
  "/>
<polyline clip-path="url(#clip330)" style="stroke:#000000; stroke-width:4; stroke-opacity:1; fill:none" points="
  2157.46,1330.92 2157.46,1315.52 
  "/>
<polyline clip-path="url(#clip330)" style="stroke:#000000; stroke-width:4; stroke-opacity:1; fill:none" points="
  2250.15,1330.92 2250.15,1315.52 
  "/>
<path clip-path="url(#clip330)" d="M 0 0 M204.829 1596.32 L212.989 1582.19 L216.397 1584.16 L205.425 1603.16 L202.017 1601.2 Q200.962 1597.51 199.245 1591.23 Q197.518 1584.91 196.946 1583.22 Q195.884 1580.01 194.82 1578.38 Q193.748 1576.72 192.284 1575.88 Q189.899 1574.5 187.423 1575.32 Q184.959 1576.11 183.408 1578.8 Q182.308 1580.7 181.743 1583.21 Q181.189 1585.7 181.144 1588.88 L177.054 1586.52 Q177.484 1583.5 178.209 1581.09 Q178.935 1578.67 179.954 1576.91 Q182.639 1572.26 186.561 1570.84 Q190.484 1569.41 194.373 1571.66 Q196.217 1572.72 197.476 1574.38 Q198.727 1576.01 199.919 1579.14 Q200.211 1579.97 201.446 1584.27 Q202.662 1588.55 204.829 1596.32 Z" fill="#000000" fill-rule="evenodd" fill-opacity="1" /><path clip-path="url(#clip330)" d="M 0 0 M199.041 1551.26 Q197.235 1554.39 199.408 1557.75 Q201.572 1561.09 207.747 1564.65 Q213.901 1568.2 217.891 1568.42 Q221.873 1568.61 223.678 1565.48 Q225.495 1562.34 223.331 1559 Q221.158 1555.63 215.004 1552.08 Q208.829 1548.52 204.848 1548.33 Q200.858 1548.11 199.041 1551.26 M195.833 1549.41 Q198.738 1544.37 204.255 1544.03 Q209.764 1543.66 217.342 1548.03 Q224.899 1552.4 227.349 1557.36 Q229.791 1562.3 226.886 1567.33 Q223.981 1572.37 218.472 1572.74 Q212.955 1573.08 205.397 1568.72 Q197.82 1564.35 195.378 1559.41 Q192.928 1554.44 195.833 1549.41 Z" fill="#000000" fill-rule="evenodd" fill-opacity="1" /><path clip-path="url(#clip330)" d="M 0 0 M234.991 1544.08 L243.151 1529.95 L246.559 1531.92 L235.587 1550.92 L232.179 1548.95 Q231.124 1545.27 229.406 1538.99 Q227.68 1532.67 227.108 1530.98 Q226.045 1527.77 224.982 1526.14 Q223.91 1524.48 222.446 1523.64 Q220.061 1522.26 217.585 1523.07 Q215.121 1523.87 213.57 1526.56 Q212.47 1528.46 211.905 1530.97 Q211.351 1533.45 211.305 1536.64 L207.216 1534.27 Q207.646 1531.26 208.371 1528.85 Q209.097 1526.43 210.116 1524.67 Q212.801 1520.02 216.723 1518.59 Q220.646 1517.17 224.535 1519.42 Q226.379 1520.48 227.638 1522.14 Q228.888 1523.77 230.08 1526.89 Q230.372 1527.73 231.608 1532.03 Q232.824 1536.31 234.991 1544.08 Z" fill="#000000" fill-rule="evenodd" fill-opacity="1" /><path clip-path="url(#clip330)" d="M 0 0 M248.463 1520.75 L252.283 1514.13 L229.449 1500.95 L226.738 1508.98 L223.049 1506.85 L225.738 1498.86 L228.076 1494.81 L254.598 1510.12 L258.417 1503.51 L261.825 1505.48 L251.871 1522.72 L248.463 1520.75 Z" fill="#000000" fill-rule="evenodd" fill-opacity="1" /><path clip-path="url(#clip330)" d="M 0 0 M252.28 1492.24 L258.518 1481.43 L261.806 1483.33 L255.567 1494.14 L252.28 1492.24 Z" fill="#000000" fill-rule="evenodd" fill-opacity="1" /><path clip-path="url(#clip330)" d="M 0 0 M252.837 1458.08 Q251.031 1461.21 253.204 1464.57 Q255.368 1467.91 261.543 1471.47 Q267.697 1475.03 271.687 1475.25 Q275.669 1475.43 277.474 1472.31 Q279.291 1469.16 277.127 1465.82 Q274.954 1462.46 268.8 1458.9 Q262.625 1455.34 258.644 1455.15 Q254.654 1454.93 252.837 1458.08 M249.629 1456.23 Q252.534 1451.2 258.051 1450.85 Q263.56 1450.48 271.138 1454.85 Q278.695 1459.22 281.145 1464.19 Q283.587 1469.13 280.682 1474.16 Q277.777 1479.19 272.268 1479.56 Q266.751 1479.91 259.193 1475.54 Q251.616 1471.17 249.174 1466.23 Q246.724 1461.26 249.629 1456.23 Z" fill="#000000" fill-rule="evenodd" fill-opacity="1" /><path clip-path="url(#clip330)" d="M 0 0 M281.127 1434.77 Q283.427 1432.23 286.329 1431.74 Q289.242 1431.23 292.129 1432.89 Q296.559 1435.45 297.226 1439.9 Q297.892 1444.35 294.651 1449.96 Q293.564 1451.84 292.025 1453.63 Q290.519 1455.41 288.55 1457.1 L284.641 1454.85 Q286.595 1453.73 288.254 1452.01 Q289.913 1450.3 291.174 1448.11 Q293.373 1444.3 293.015 1441.45 Q292.669 1438.58 289.803 1436.92 Q287.156 1435.4 284.597 1436.4 Q282.028 1437.38 280.119 1440.69 L278.105 1444.18 L274.777 1442.25 L276.883 1438.61 Q278.608 1435.62 278.34 1433.35 Q278.051 1431.07 275.806 1429.78 Q273.5 1428.45 271.329 1429.38 Q269.148 1430.29 267.389 1433.34 Q266.428 1435 265.69 1437.11 Q264.951 1439.23 264.393 1441.95 L260.785 1439.87 Q261.474 1437.19 262.311 1435 Q263.159 1432.79 264.189 1431.01 Q266.851 1426.4 270.507 1424.93 Q274.143 1423.45 277.711 1425.51 Q280.197 1426.94 281.099 1429.36 Q281.982 1431.77 281.127 1434.77 Z" fill="#000000" fill-rule="evenodd" fill-opacity="1" /><path clip-path="url(#clip330)" d="M 0 0 M290.995 1425.18 L297.233 1414.38 L300.521 1416.28 L294.282 1427.08 L290.995 1425.18 Z" fill="#000000" fill-rule="evenodd" fill-opacity="1" /><path clip-path="url(#clip330)" d="M 0 0 M312.421 1409.97 L320.581 1395.84 L323.989 1397.8 L313.017 1416.81 L309.609 1414.84 Q308.554 1411.16 306.837 1404.87 Q305.11 1398.56 304.538 1396.86 Q303.476 1393.66 302.412 1392.03 Q301.34 1390.37 299.876 1389.52 Q297.491 1388.14 295.015 1388.96 Q292.551 1389.76 291 1392.44 Q289.9 1394.35 289.335 1396.85 Q288.781 1399.34 288.736 1402.52 L284.646 1400.16 Q285.076 1397.15 285.801 1394.73 Q286.527 1392.32 287.546 1390.56 Q290.231 1385.9 294.153 1384.48 Q298.076 1383.06 301.965 1385.3 Q303.809 1386.37 305.068 1388.03 Q306.319 1389.66 307.511 1392.78 Q307.803 1393.62 309.038 1397.91 Q310.254 1402.2 312.421 1409.97 Z" fill="#000000" fill-rule="evenodd" fill-opacity="1" /><path clip-path="url(#clip330)" d="M 0 0 M319.842 1367.72 Q322.142 1365.17 325.044 1364.68 Q327.957 1364.17 330.844 1365.84 Q335.274 1368.4 335.941 1372.84 Q336.607 1377.29 333.367 1382.9 Q332.279 1384.79 330.74 1386.57 Q329.234 1388.35 327.265 1390.05 L323.356 1387.79 Q325.31 1386.67 326.969 1384.96 Q328.628 1383.24 329.889 1381.06 Q332.088 1377.25 331.731 1374.4 Q331.384 1371.52 328.518 1369.87 Q325.872 1368.34 323.312 1369.35 Q320.743 1370.32 318.834 1373.63 L316.82 1377.12 L313.492 1375.2 L315.599 1371.55 Q317.323 1368.56 317.055 1366.3 Q316.766 1364.02 314.521 1362.72 Q312.216 1361.39 310.044 1362.33 Q307.863 1363.23 306.104 1366.28 Q305.143 1367.95 304.405 1370.06 Q303.666 1372.17 303.108 1374.9 L299.5 1372.81 Q300.189 1370.14 301.026 1367.95 Q301.874 1365.74 302.904 1363.95 Q305.566 1359.34 309.222 1357.87 Q312.858 1356.39 316.426 1358.45 Q318.912 1359.88 319.814 1362.3 Q320.697 1364.71 319.842 1367.72 Z" fill="#000000" fill-rule="evenodd" fill-opacity="1" /><path clip-path="url(#clip330)" d="M 0 0 M482.498 1597.03 L490.658 1582.89 L494.066 1584.86 L483.094 1603.86 L479.686 1601.9 Q478.631 1598.21 476.913 1591.93 Q475.187 1585.61 474.615 1583.92 Q473.552 1580.71 472.489 1579.09 Q471.417 1577.42 469.953 1576.58 Q467.568 1575.2 465.092 1576.02 Q462.628 1576.81 461.077 1579.5 Q459.977 1581.4 459.412 1583.91 Q458.858 1586.4 458.812 1589.58 L454.723 1587.22 Q455.153 1584.2 455.878 1581.79 Q456.604 1579.38 457.623 1577.61 Q460.308 1572.96 464.23 1571.54 Q468.153 1570.11 472.042 1572.36 Q473.886 1573.42 475.145 1575.09 Q476.395 1576.72 477.587 1579.84 Q477.879 1580.67 479.115 1584.97 Q480.331 1589.25 482.498 1597.03 Z" fill="#000000" fill-rule="evenodd" fill-opacity="1" /><path clip-path="url(#clip330)" d="M 0 0 M476.71 1551.96 Q474.904 1555.09 477.077 1558.45 Q479.241 1561.79 485.416 1565.35 Q491.57 1568.91 495.56 1569.12 Q499.542 1569.31 501.347 1566.18 Q503.164 1563.04 501 1559.7 Q498.827 1556.34 492.673 1552.78 Q486.498 1549.22 482.517 1549.03 Q478.527 1548.81 476.71 1551.96 M473.502 1550.11 Q476.407 1545.08 481.924 1544.73 Q487.433 1544.36 495.011 1548.73 Q502.568 1553.1 505.018 1558.07 Q507.46 1563 504.555 1568.04 Q501.649 1573.07 496.141 1573.44 Q490.624 1573.79 483.066 1569.42 Q475.488 1565.05 473.047 1560.11 Q470.597 1555.14 473.502 1550.11 Z" fill="#000000" fill-rule="evenodd" fill-opacity="1" /><path clip-path="url(#clip330)" d="M 0 0 M512.66 1544.78 L520.82 1530.65 L524.228 1532.62 L513.256 1551.62 L509.848 1549.66 Q508.793 1545.97 507.075 1539.69 Q505.349 1533.37 504.777 1531.68 Q503.714 1528.47 502.651 1526.84 Q501.578 1525.18 500.115 1524.34 Q497.729 1522.96 495.254 1523.78 Q492.79 1524.57 491.239 1527.26 Q490.139 1529.16 489.574 1531.67 Q489.02 1534.16 488.974 1537.34 L484.885 1534.98 Q485.315 1531.96 486.04 1529.55 Q486.766 1527.13 487.784 1525.37 Q490.47 1520.72 494.392 1519.3 Q498.315 1517.87 502.204 1520.12 Q504.048 1521.18 505.307 1522.84 Q506.557 1524.47 507.749 1527.6 Q508.041 1528.43 509.277 1532.73 Q510.492 1537.01 512.66 1544.78 Z" fill="#000000" fill-rule="evenodd" fill-opacity="1" /><path clip-path="url(#clip330)" d="M 0 0 M526.132 1521.45 L529.952 1514.83 L507.118 1501.65 L504.407 1509.68 L500.718 1507.55 L503.407 1499.56 L505.745 1495.51 L532.266 1510.82 L536.086 1504.21 L539.494 1506.18 L529.54 1523.42 L526.132 1521.45 Z" fill="#000000" fill-rule="evenodd" fill-opacity="1" /><path clip-path="url(#clip330)" d="M 0 0 M529.949 1492.94 L536.187 1482.14 L539.475 1484.03 L533.236 1494.84 L529.949 1492.94 Z" fill="#000000" fill-rule="evenodd" fill-opacity="1" /><path clip-path="url(#clip330)" d="M 0 0 M530.506 1458.78 Q528.7 1461.91 530.873 1465.28 Q533.037 1468.61 539.212 1472.17 Q545.366 1475.73 549.356 1475.95 Q553.338 1476.13 555.143 1473.01 Q556.96 1469.86 554.796 1466.52 Q552.623 1463.16 546.469 1459.61 Q540.294 1456.04 536.313 1455.85 Q532.323 1455.63 530.506 1458.78 M527.298 1456.93 Q530.203 1451.9 535.72 1451.56 Q541.229 1451.18 548.807 1455.56 Q556.364 1459.92 558.814 1464.89 Q561.256 1469.83 558.351 1474.86 Q555.445 1479.89 549.937 1480.26 Q544.42 1480.61 536.862 1476.24 Q529.284 1471.87 526.843 1466.93 Q524.393 1461.96 527.298 1456.93 Z" fill="#000000" fill-rule="evenodd" fill-opacity="1" /><path clip-path="url(#clip330)" d="M 0 0 M558.796 1435.48 Q561.095 1432.93 563.998 1432.44 Q566.911 1431.93 569.798 1433.6 Q574.228 1436.15 574.895 1440.6 Q575.561 1445.05 572.32 1450.66 Q571.232 1452.55 569.694 1454.33 Q568.187 1456.11 566.219 1457.8 L562.31 1455.55 Q564.264 1454.43 565.923 1452.72 Q567.581 1451 568.843 1448.81 Q571.042 1445.01 570.684 1442.15 Q570.338 1439.28 567.472 1437.63 Q564.825 1436.1 562.266 1437.11 Q559.697 1438.08 557.788 1441.39 L555.774 1444.88 L552.446 1442.96 L554.552 1439.31 Q556.277 1436.32 556.008 1434.05 Q555.72 1431.78 553.475 1430.48 Q551.169 1429.15 548.997 1430.09 Q546.817 1430.99 545.058 1434.04 Q544.097 1435.7 543.358 1437.82 Q542.62 1439.93 542.062 1442.65 L538.454 1440.57 Q539.143 1437.9 539.98 1435.71 Q540.828 1433.5 541.858 1431.71 Q544.52 1427.1 548.176 1425.63 Q551.812 1424.15 555.38 1426.21 Q557.866 1427.64 558.768 1430.06 Q559.65 1432.47 558.796 1435.48 Z" fill="#000000" fill-rule="evenodd" fill-opacity="1" /><path clip-path="url(#clip330)" d="M 0 0 M568.664 1425.88 L574.902 1415.08 L578.19 1416.98 L571.951 1427.78 L568.664 1425.88 Z" fill="#000000" fill-rule="evenodd" fill-opacity="1" /><path clip-path="url(#clip330)" d="M 0 0 M590.09 1410.67 L598.25 1396.54 L601.658 1398.51 L590.686 1417.51 L587.278 1415.54 Q586.223 1411.86 584.505 1405.58 Q582.779 1399.26 582.207 1397.57 Q581.144 1394.36 580.081 1392.73 Q579.009 1391.07 577.545 1390.22 Q575.16 1388.85 572.684 1389.66 Q570.22 1390.46 568.669 1393.14 Q567.569 1395.05 567.004 1397.56 Q566.45 1400.04 566.404 1403.22 L562.315 1400.86 Q562.745 1397.85 563.47 1395.44 Q564.196 1393.02 565.215 1391.26 Q567.9 1386.61 571.822 1385.18 Q575.745 1383.76 579.634 1386 Q581.478 1387.07 582.737 1388.73 Q583.987 1390.36 585.179 1393.48 Q585.472 1394.32 586.707 1398.61 Q587.923 1402.9 590.09 1410.67 Z" fill="#000000" fill-rule="evenodd" fill-opacity="1" /><path clip-path="url(#clip330)" d="M 0 0 M595.276 1371.27 Q593.702 1374 594.64 1376.68 Q595.59 1379.34 598.838 1381.21 Q602.065 1383.08 604.864 1382.58 Q607.654 1382.05 609.228 1379.33 Q610.802 1376.6 609.852 1373.94 Q608.894 1371.25 605.666 1369.39 Q602.419 1367.51 599.629 1368.04 Q596.85 1368.55 595.276 1371.27 M587.227 1355.91 L590.916 1358.04 Q589.315 1359.14 588.031 1360.49 Q586.759 1361.81 585.879 1363.33 Q583.565 1367.34 585.044 1371.03 Q586.535 1374.7 591.834 1378.16 Q590.773 1375.97 590.881 1373.65 Q590.969 1371.33 592.207 1369.18 Q594.811 1364.67 599.062 1363.65 Q603.305 1362.6 608.016 1365.32 Q612.627 1367.98 613.839 1372.31 Q615.052 1376.65 612.436 1381.18 Q609.438 1386.37 603.883 1386.83 Q598.308 1387.27 590.751 1382.91 Q583.654 1378.81 581.389 1373.01 Q579.103 1367.2 582.379 1361.53 Q583.258 1360 584.45 1358.63 Q585.654 1357.24 587.227 1355.91 Z" fill="#000000" fill-rule="evenodd" fill-opacity="1" /><path clip-path="url(#clip330)" d="M 0 0 M761.267 1595.82 L769.426 1581.69 L772.834 1583.66 L761.862 1602.66 L758.454 1600.69 Q757.4 1597.01 755.682 1590.73 Q753.956 1584.41 753.383 1582.72 Q752.321 1579.51 751.257 1577.88 Q750.185 1576.22 748.722 1575.38 Q746.336 1574 743.86 1574.81 Q741.396 1575.61 739.845 1578.3 Q738.746 1580.2 738.18 1582.71 Q737.627 1585.19 737.581 1588.38 L733.491 1586.01 Q733.921 1583 734.647 1580.59 Q735.372 1578.17 736.391 1576.41 Q739.076 1571.76 742.999 1570.33 Q746.921 1568.91 750.811 1571.16 Q752.655 1572.22 753.914 1573.88 Q755.164 1575.51 756.356 1578.63 Q756.648 1579.47 757.884 1583.77 Q759.099 1588.05 761.267 1595.82 Z" fill="#000000" fill-rule="evenodd" fill-opacity="1" /><path clip-path="url(#clip330)" d="M 0 0 M755.478 1550.76 Q753.672 1553.88 755.845 1557.25 Q758.01 1560.58 764.184 1564.15 Q770.338 1567.7 774.328 1567.92 Q778.31 1568.11 780.115 1564.98 Q781.933 1561.83 779.768 1558.5 Q777.595 1555.13 771.441 1551.58 Q765.267 1548.02 761.285 1547.83 Q757.295 1547.61 755.478 1550.76 M752.271 1548.9 Q755.176 1543.87 760.693 1543.53 Q766.201 1543.16 773.779 1547.53 Q781.337 1551.89 783.787 1556.86 Q786.228 1561.8 783.323 1566.83 Q780.418 1571.86 774.909 1572.24 Q769.392 1572.58 761.835 1568.22 Q754.257 1563.84 751.815 1558.91 Q749.365 1553.94 752.271 1548.9 Z" fill="#000000" fill-rule="evenodd" fill-opacity="1" /><path clip-path="url(#clip330)" d="M 0 0 M791.429 1543.58 L799.588 1529.45 L802.996 1531.42 L792.024 1550.42 L788.616 1548.45 Q787.561 1544.77 785.844 1538.49 Q784.118 1532.17 783.545 1530.48 Q782.483 1527.27 781.419 1525.64 Q780.347 1523.98 778.883 1523.13 Q776.498 1521.76 774.022 1522.57 Q771.558 1523.37 770.007 1526.05 Q768.908 1527.96 768.342 1530.47 Q767.789 1532.95 767.743 1536.13 L763.653 1533.77 Q764.083 1530.76 764.809 1528.35 Q765.534 1525.93 766.553 1524.17 Q769.238 1519.52 773.161 1518.09 Q777.083 1516.67 780.972 1518.91 Q782.817 1519.98 784.075 1521.64 Q785.326 1523.27 786.518 1526.39 Q786.81 1527.23 788.045 1531.52 Q789.261 1535.81 791.429 1543.58 Z" fill="#000000" fill-rule="evenodd" fill-opacity="1" /><path clip-path="url(#clip330)" d="M 0 0 M804.901 1520.25 L808.72 1513.63 L785.887 1500.45 L783.175 1508.48 L779.486 1506.35 L782.175 1498.36 L784.513 1494.31 L811.035 1509.62 L814.854 1503.01 L818.262 1504.97 L808.309 1522.21 L804.901 1520.25 Z" fill="#000000" fill-rule="evenodd" fill-opacity="1" /><path clip-path="url(#clip330)" d="M 0 0 M808.717 1491.74 L814.955 1480.93 L818.243 1482.83 L812.005 1493.64 L808.717 1491.74 Z" fill="#000000" fill-rule="evenodd" fill-opacity="1" /><path clip-path="url(#clip330)" d="M 0 0 M809.274 1457.58 Q807.468 1460.71 809.641 1464.07 Q811.806 1467.41 817.98 1470.97 Q824.134 1474.53 828.124 1474.74 Q832.106 1474.93 833.912 1471.8 Q835.729 1468.66 833.564 1465.32 Q831.391 1461.96 825.237 1458.4 Q819.063 1454.84 815.081 1454.65 Q811.091 1454.43 809.274 1457.58 M806.067 1455.73 Q808.972 1450.7 814.489 1450.35 Q819.997 1449.98 827.575 1454.35 Q835.133 1458.72 837.583 1463.69 Q840.024 1468.62 837.119 1473.66 Q834.214 1478.69 828.705 1479.06 Q823.188 1479.4 815.631 1475.04 Q808.053 1470.67 805.611 1465.73 Q803.161 1460.76 806.067 1455.73 Z" fill="#000000" fill-rule="evenodd" fill-opacity="1" /><path clip-path="url(#clip330)" d="M 0 0 M837.564 1434.27 Q839.864 1431.73 842.766 1431.24 Q845.68 1430.73 848.566 1432.39 Q852.997 1434.95 853.663 1439.4 Q854.33 1443.85 851.089 1449.46 Q850.001 1451.34 848.463 1453.13 Q846.956 1454.9 844.987 1456.6 L841.078 1454.34 Q843.033 1453.23 844.691 1451.51 Q846.35 1449.8 847.611 1447.61 Q849.81 1443.8 849.453 1440.95 Q849.107 1438.08 846.24 1436.42 Q843.594 1434.89 841.034 1435.9 Q838.466 1436.88 836.556 1440.19 L834.542 1443.67 L831.214 1441.75 L833.321 1438.1 Q835.045 1435.12 834.777 1432.85 Q834.488 1430.57 832.243 1429.28 Q829.938 1427.95 827.766 1428.88 Q825.586 1429.79 823.826 1432.84 Q822.866 1434.5 822.127 1436.61 Q821.388 1438.73 820.831 1441.45 L817.222 1439.37 Q817.912 1436.69 818.748 1434.5 Q819.597 1432.29 820.627 1430.51 Q823.289 1425.9 826.944 1424.43 Q830.58 1422.94 834.149 1425 Q836.634 1426.44 837.537 1428.86 Q838.419 1431.27 837.564 1434.27 Z" fill="#000000" fill-rule="evenodd" fill-opacity="1" /><path clip-path="url(#clip330)" d="M 0 0 M847.432 1424.68 L853.671 1413.88 L856.958 1415.77 L850.72 1426.58 L847.432 1424.68 Z" fill="#000000" fill-rule="evenodd" fill-opacity="1" /><path clip-path="url(#clip330)" d="M 0 0 M861.198 1393.34 Q863.498 1390.79 866.4 1390.3 Q869.314 1389.79 872.201 1391.46 Q876.631 1394.02 877.297 1398.46 Q877.964 1402.91 874.723 1408.52 Q873.635 1410.41 872.097 1412.19 Q870.59 1413.97 868.621 1415.67 L864.712 1413.41 Q866.667 1412.29 868.325 1410.58 Q869.984 1408.86 871.246 1406.68 Q873.445 1402.87 873.087 1400.01 Q872.741 1397.14 869.874 1395.49 Q867.228 1393.96 864.668 1394.97 Q862.1 1395.94 860.19 1399.25 L858.176 1402.74 L854.848 1400.82 L856.955 1397.17 Q858.679 1394.18 858.411 1391.92 Q858.123 1389.64 855.877 1388.34 Q853.572 1387.01 851.4 1387.95 Q849.22 1388.85 847.46 1391.9 Q846.5 1393.57 845.761 1395.68 Q845.022 1397.79 844.465 1400.52 L840.856 1398.43 Q841.546 1395.76 842.382 1393.57 Q843.231 1391.36 844.261 1389.57 Q846.923 1384.96 850.579 1383.49 Q854.214 1382.01 857.783 1384.07 Q860.269 1385.5 861.171 1387.92 Q862.053 1390.33 861.198 1393.34 Z" fill="#000000" fill-rule="evenodd" fill-opacity="1" /><path clip-path="url(#clip330)" d="M 0 0 M882.331 1386.13 L886.15 1379.52 L863.317 1366.34 L860.605 1374.37 L856.917 1372.24 L859.605 1364.25 L861.943 1360.2 L888.465 1375.51 L892.284 1368.89 L895.692 1370.86 L885.739 1388.1 L882.331 1386.13 Z" fill="#000000" fill-rule="evenodd" fill-opacity="1" /><path clip-path="url(#clip330)" d="M 0 0 M1038.65 1597.03 L1046.81 1582.89 L1050.21 1584.86 L1039.24 1603.86 L1035.83 1601.9 Q1034.78 1598.21 1033.06 1591.93 Q1031.34 1585.61 1030.76 1583.92 Q1029.7 1580.71 1028.64 1579.09 Q1027.56 1577.42 1026.1 1576.58 Q1023.72 1575.2 1021.24 1576.02 Q1018.78 1576.81 1017.22 1579.5 Q1016.13 1581.4 1015.56 1583.91 Q1015.01 1586.4 1014.96 1589.58 L1010.87 1587.22 Q1011.3 1584.2 1012.03 1581.79 Q1012.75 1579.38 1013.77 1577.61 Q1016.46 1572.96 1020.38 1571.54 Q1024.3 1570.11 1028.19 1572.36 Q1030.03 1573.42 1031.29 1575.09 Q1032.54 1576.72 1033.74 1579.84 Q1034.03 1580.67 1035.26 1584.97 Q1036.48 1589.25 1038.65 1597.03 Z" fill="#000000" fill-rule="evenodd" fill-opacity="1" /><path clip-path="url(#clip330)" d="M 0 0 M1032.86 1551.96 Q1031.05 1555.09 1033.22 1558.45 Q1035.39 1561.79 1041.56 1565.35 Q1047.72 1568.91 1051.71 1569.12 Q1055.69 1569.31 1057.5 1566.18 Q1059.31 1563.04 1057.15 1559.7 Q1054.97 1556.34 1048.82 1552.78 Q1042.65 1549.22 1038.66 1549.03 Q1034.67 1548.81 1032.86 1551.96 M1029.65 1550.11 Q1032.56 1545.08 1038.07 1544.73 Q1043.58 1544.36 1051.16 1548.73 Q1058.72 1553.1 1061.17 1558.07 Q1063.61 1563 1060.7 1568.04 Q1057.8 1573.07 1052.29 1573.44 Q1046.77 1573.79 1039.21 1569.42 Q1031.64 1565.05 1029.19 1560.11 Q1026.75 1555.14 1029.65 1550.11 Z" fill="#000000" fill-rule="evenodd" fill-opacity="1" /><path clip-path="url(#clip330)" d="M 0 0 M1068.81 1544.78 L1076.97 1530.65 L1080.38 1532.62 L1069.4 1551.62 L1066 1549.66 Q1064.94 1545.97 1063.22 1539.69 Q1061.5 1533.37 1060.92 1531.68 Q1059.86 1528.47 1058.8 1526.84 Q1057.73 1525.18 1056.26 1524.34 Q1053.88 1522.96 1051.4 1523.78 Q1048.94 1524.57 1047.39 1527.26 Q1046.29 1529.16 1045.72 1531.67 Q1045.17 1534.16 1045.12 1537.34 L1041.03 1534.98 Q1041.46 1531.96 1042.19 1529.55 Q1042.91 1527.13 1043.93 1525.37 Q1046.62 1520.72 1050.54 1519.3 Q1054.46 1517.87 1058.35 1520.12 Q1060.2 1521.18 1061.46 1522.84 Q1062.71 1524.47 1063.9 1527.6 Q1064.19 1528.43 1065.42 1532.73 Q1066.64 1537.01 1068.81 1544.78 Z" fill="#000000" fill-rule="evenodd" fill-opacity="1" /><path clip-path="url(#clip330)" d="M 0 0 M1082.28 1521.45 L1086.1 1514.83 L1063.27 1501.65 L1060.55 1509.68 L1056.87 1507.55 L1059.55 1499.56 L1061.89 1495.51 L1088.41 1510.82 L1092.23 1504.21 L1095.64 1506.18 L1085.69 1523.42 L1082.28 1521.45 Z" fill="#000000" fill-rule="evenodd" fill-opacity="1" /><path clip-path="url(#clip330)" d="M 0 0 M1086.1 1492.94 L1092.34 1482.14 L1095.62 1484.03 L1089.38 1494.84 L1086.1 1492.94 Z" fill="#000000" fill-rule="evenodd" fill-opacity="1" /><path clip-path="url(#clip330)" d="M 0 0 M1086.65 1458.78 Q1084.85 1461.91 1087.02 1465.28 Q1089.19 1468.61 1095.36 1472.17 Q1101.51 1475.73 1105.5 1475.95 Q1109.49 1476.13 1111.29 1473.01 Q1113.11 1469.86 1110.94 1466.52 Q1108.77 1463.16 1102.62 1459.61 Q1096.44 1456.04 1092.46 1455.85 Q1088.47 1455.63 1086.65 1458.78 M1083.45 1456.93 Q1086.35 1451.9 1091.87 1451.56 Q1097.38 1451.18 1104.95 1455.56 Q1112.51 1459.92 1114.96 1464.89 Q1117.4 1469.83 1114.5 1474.86 Q1111.59 1479.89 1106.08 1480.26 Q1100.57 1480.61 1093.01 1476.24 Q1085.43 1471.87 1082.99 1466.93 Q1080.54 1461.96 1083.45 1456.93 Z" fill="#000000" fill-rule="evenodd" fill-opacity="1" /><path clip-path="url(#clip330)" d="M 0 0 M1104.02 1430.69 L1114.09 1450.14 L1120 1439.92 L1104.02 1430.69 M1099.88 1429.72 L1102.82 1424.63 L1122.32 1435.89 L1124.79 1431.62 L1128.16 1433.56 L1125.69 1437.83 L1132.75 1441.91 L1130.42 1445.94 L1123.37 1441.86 L1115.56 1455.37 L1111.66 1453.12 L1099.88 1429.72 Z" fill="#000000" fill-rule="evenodd" fill-opacity="1" /><path clip-path="url(#clip330)" d="M 0 0 M1124.81 1425.88 L1131.05 1415.08 L1134.34 1416.98 L1128.1 1427.78 L1124.81 1425.88 Z" fill="#000000" fill-rule="evenodd" fill-opacity="1" /><path clip-path="url(#clip330)" d="M 0 0 M1125.37 1391.73 Q1123.56 1394.85 1125.74 1398.22 Q1127.9 1401.55 1134.07 1405.12 Q1140.23 1408.67 1144.22 1408.89 Q1148.2 1409.08 1150.01 1405.95 Q1151.82 1402.8 1149.66 1399.47 Q1147.49 1396.1 1141.33 1392.55 Q1135.16 1388.98 1131.18 1388.8 Q1127.19 1388.58 1125.37 1391.73 M1122.16 1389.87 Q1125.07 1384.84 1130.58 1384.5 Q1136.09 1384.12 1143.67 1388.5 Q1151.23 1392.86 1153.68 1397.83 Q1156.12 1402.77 1153.21 1407.8 Q1150.31 1412.83 1144.8 1413.21 Q1139.28 1413.55 1131.73 1409.19 Q1124.15 1404.81 1121.71 1399.88 Q1119.26 1394.91 1122.16 1389.87 Z" fill="#000000" fill-rule="evenodd" fill-opacity="1" /><path clip-path="url(#clip330)" d="M 0 0 M1151.42 1371.27 Q1149.85 1374 1150.79 1376.68 Q1151.74 1379.34 1154.99 1381.21 Q1158.21 1383.08 1161.01 1382.58 Q1163.8 1382.05 1165.38 1379.33 Q1166.95 1376.6 1166 1373.94 Q1165.04 1371.25 1161.81 1369.39 Q1158.57 1367.51 1155.78 1368.04 Q1153 1368.55 1151.42 1371.27 M1143.38 1355.91 L1147.06 1358.04 Q1145.46 1359.14 1144.18 1360.49 Q1142.91 1361.81 1142.03 1363.33 Q1139.71 1367.34 1141.19 1371.03 Q1142.68 1374.7 1147.98 1378.16 Q1146.92 1375.97 1147.03 1373.65 Q1147.12 1371.33 1148.36 1369.18 Q1150.96 1364.67 1155.21 1363.65 Q1159.45 1362.6 1164.16 1365.32 Q1168.77 1367.98 1169.99 1372.31 Q1171.2 1376.65 1168.58 1381.18 Q1165.59 1386.37 1160.03 1386.83 Q1154.46 1387.27 1146.9 1382.91 Q1139.8 1378.81 1137.54 1373.01 Q1135.25 1367.2 1138.53 1361.53 Q1139.41 1360 1140.6 1358.63 Q1141.8 1357.24 1143.38 1355.91 Z" fill="#000000" fill-rule="evenodd" fill-opacity="1" /><path clip-path="url(#clip330)" d="M 0 0 M1316.89 1596.73 L1325.05 1582.59 L1328.46 1584.56 L1317.49 1603.56 L1314.08 1601.6 Q1313.03 1597.91 1311.31 1591.63 Q1309.58 1585.31 1309.01 1583.62 Q1307.95 1580.41 1306.88 1578.78 Q1305.81 1577.12 1304.35 1576.28 Q1301.96 1574.9 1299.49 1575.72 Q1297.02 1576.51 1295.47 1579.2 Q1294.37 1581.1 1293.81 1583.61 Q1293.25 1586.1 1293.21 1589.28 L1289.12 1586.92 Q1289.55 1583.9 1290.27 1581.49 Q1291 1579.08 1292.02 1577.31 Q1294.7 1572.66 1298.63 1571.24 Q1302.55 1569.81 1306.44 1572.06 Q1308.28 1573.12 1309.54 1574.79 Q1310.79 1576.42 1311.98 1579.54 Q1312.28 1580.37 1313.51 1584.67 Q1314.73 1588.95 1316.89 1596.73 Z" fill="#000000" fill-rule="evenodd" fill-opacity="1" /><path clip-path="url(#clip330)" d="M 0 0 M1311.11 1551.66 Q1309.3 1554.79 1311.47 1558.15 Q1313.64 1561.49 1319.81 1565.05 Q1325.97 1568.6 1329.96 1568.82 Q1333.94 1569.01 1335.74 1565.88 Q1337.56 1562.74 1335.4 1559.4 Q1333.22 1556.04 1327.07 1552.48 Q1320.89 1548.92 1316.91 1548.73 Q1312.92 1548.51 1311.11 1551.66 M1307.9 1549.81 Q1310.8 1544.78 1316.32 1544.43 Q1321.83 1544.06 1329.41 1548.43 Q1336.96 1552.8 1339.41 1557.77 Q1341.86 1562.7 1338.95 1567.74 Q1336.05 1572.77 1330.54 1573.14 Q1325.02 1573.48 1317.46 1569.12 Q1309.88 1564.75 1307.44 1559.81 Q1304.99 1554.84 1307.9 1549.81 Z" fill="#000000" fill-rule="evenodd" fill-opacity="1" /><path clip-path="url(#clip330)" d="M 0 0 M1347.06 1544.48 L1355.22 1530.35 L1358.62 1532.32 L1347.65 1551.32 L1344.24 1549.35 Q1343.19 1545.67 1341.47 1539.39 Q1339.74 1533.07 1339.17 1531.38 Q1338.11 1528.17 1337.05 1526.54 Q1335.97 1524.88 1334.51 1524.04 Q1332.13 1522.66 1329.65 1523.47 Q1327.19 1524.27 1325.63 1526.96 Q1324.53 1528.86 1323.97 1531.37 Q1323.42 1533.85 1323.37 1537.04 L1319.28 1534.67 Q1319.71 1531.66 1320.44 1529.25 Q1321.16 1526.83 1322.18 1525.07 Q1324.87 1520.42 1328.79 1518.99 Q1332.71 1517.57 1336.6 1519.82 Q1338.44 1520.88 1339.7 1522.54 Q1340.95 1524.17 1342.14 1527.29 Q1342.44 1528.13 1343.67 1532.43 Q1344.89 1536.71 1347.06 1544.48 Z" fill="#000000" fill-rule="evenodd" fill-opacity="1" /><path clip-path="url(#clip330)" d="M 0 0 M1360.53 1521.15 L1364.35 1514.53 L1341.51 1501.35 L1338.8 1509.38 L1335.11 1507.25 L1337.8 1499.26 L1340.14 1495.21 L1366.66 1510.52 L1370.48 1503.91 L1373.89 1505.88 L1363.94 1523.12 L1360.53 1521.15 Z" fill="#000000" fill-rule="evenodd" fill-opacity="1" /><path clip-path="url(#clip330)" d="M 0 0 M1364.34 1492.64 L1370.58 1481.84 L1373.87 1483.73 L1367.63 1494.54 L1364.34 1492.64 Z" fill="#000000" fill-rule="evenodd" fill-opacity="1" /><path clip-path="url(#clip330)" d="M 0 0 M1364.9 1458.48 Q1363.1 1461.61 1365.27 1464.97 Q1367.43 1468.31 1373.61 1471.87 Q1379.76 1475.43 1383.75 1475.65 Q1387.73 1475.83 1389.54 1472.71 Q1391.36 1469.56 1389.19 1466.22 Q1387.02 1462.86 1380.86 1459.3 Q1374.69 1455.74 1370.71 1455.55 Q1366.72 1455.33 1364.9 1458.48 M1361.69 1456.63 Q1364.6 1451.6 1370.12 1451.25 Q1375.62 1450.88 1383.2 1455.26 Q1390.76 1459.62 1393.21 1464.59 Q1395.65 1469.53 1392.75 1474.56 Q1389.84 1479.59 1384.33 1479.96 Q1378.82 1480.31 1371.26 1475.94 Q1363.68 1471.57 1361.24 1466.63 Q1358.79 1461.66 1361.69 1456.63 Z" fill="#000000" fill-rule="evenodd" fill-opacity="1" /><path clip-path="url(#clip330)" d="M 0 0 M1382.27 1430.39 L1392.34 1449.84 L1398.25 1439.62 L1382.27 1430.39 M1378.13 1429.42 L1381.07 1424.33 L1400.57 1435.59 L1403.04 1431.32 L1406.4 1433.26 L1403.94 1437.53 L1411 1441.61 L1408.67 1445.64 L1401.61 1441.56 L1393.81 1455.07 L1389.9 1452.82 L1378.13 1429.42 Z" fill="#000000" fill-rule="evenodd" fill-opacity="1" /><path clip-path="url(#clip330)" d="M 0 0 M1403.06 1425.58 L1409.3 1414.78 L1412.59 1416.68 L1406.35 1427.48 L1403.06 1425.58 Z" fill="#000000" fill-rule="evenodd" fill-opacity="1" /><path clip-path="url(#clip330)" d="M 0 0 M1403.62 1391.43 Q1401.81 1394.55 1403.98 1397.92 Q1406.15 1401.25 1412.32 1404.82 Q1418.48 1408.37 1422.47 1408.59 Q1426.45 1408.78 1428.25 1405.65 Q1430.07 1402.5 1427.91 1399.17 Q1425.73 1395.8 1419.58 1392.25 Q1413.4 1388.68 1409.42 1388.5 Q1405.43 1388.28 1403.62 1391.43 M1400.41 1389.57 Q1403.31 1384.54 1408.83 1384.2 Q1414.34 1383.82 1421.92 1388.2 Q1429.47 1392.56 1431.92 1397.53 Q1434.37 1402.47 1431.46 1407.5 Q1428.56 1412.53 1423.05 1412.91 Q1417.53 1413.25 1409.97 1408.89 Q1402.4 1404.51 1399.95 1399.57 Q1397.5 1394.6 1400.41 1389.57 Z" fill="#000000" fill-rule="evenodd" fill-opacity="1" /><path clip-path="url(#clip330)" d="M 0 0 M1440.41 1389.23 L1436.72 1387.1 Q1438.32 1385.99 1439.61 1384.65 Q1440.89 1383.3 1441.76 1381.8 Q1444.07 1377.79 1442.6 1374.13 Q1441.12 1370.45 1435.8 1366.97 Q1436.85 1369.13 1436.75 1371.45 Q1436.64 1373.76 1435.39 1375.93 Q1432.8 1380.42 1428.57 1381.48 Q1424.34 1382.52 1419.63 1379.8 Q1415.02 1377.13 1413.81 1372.8 Q1412.6 1368.46 1415.21 1363.93 Q1418.21 1358.74 1423.77 1358.32 Q1429.33 1357.86 1436.91 1362.24 Q1443.98 1366.32 1446.27 1372.13 Q1448.54 1377.91 1445.27 1383.59 Q1444.39 1385.11 1443.19 1386.5 Q1441.98 1387.89 1440.41 1389.23 M1432.37 1373.84 Q1433.95 1371.11 1433 1368.45 Q1432.06 1365.77 1428.81 1363.9 Q1425.58 1362.04 1422.79 1362.56 Q1419.99 1363.06 1418.42 1365.79 Q1416.85 1368.51 1417.8 1371.2 Q1418.75 1373.86 1421.98 1375.73 Q1425.23 1377.6 1428.01 1377.09 Q1430.8 1376.57 1432.37 1373.84 Z" fill="#000000" fill-rule="evenodd" fill-opacity="1" /><path clip-path="url(#clip330)" d="M 0 0 M1594.63 1597.31 L1602.79 1583.17 L1606.2 1585.14 L1595.23 1604.15 L1591.82 1602.18 Q1590.77 1598.5 1589.05 1592.21 Q1587.32 1585.9 1586.75 1584.2 Q1585.69 1581 1584.62 1579.37 Q1583.55 1577.7 1582.09 1576.86 Q1579.7 1575.48 1577.23 1576.3 Q1574.76 1577.09 1573.21 1579.78 Q1572.11 1581.68 1571.55 1584.19 Q1570.99 1586.68 1570.95 1589.86 L1566.86 1587.5 Q1567.29 1584.49 1568.01 1582.07 Q1568.74 1579.66 1569.76 1577.89 Q1572.44 1573.24 1576.36 1571.82 Q1580.29 1570.39 1584.18 1572.64 Q1586.02 1573.7 1587.28 1575.37 Q1588.53 1577 1589.72 1580.12 Q1590.01 1580.95 1591.25 1585.25 Q1592.46 1589.53 1594.63 1597.31 Z" fill="#000000" fill-rule="evenodd" fill-opacity="1" /><path clip-path="url(#clip330)" d="M 0 0 M1588.84 1552.24 Q1587.04 1555.37 1589.21 1558.73 Q1591.38 1562.07 1597.55 1565.63 Q1603.7 1569.19 1607.69 1569.4 Q1611.68 1569.59 1613.48 1566.46 Q1615.3 1563.32 1613.13 1559.98 Q1610.96 1556.62 1604.81 1553.06 Q1598.63 1549.5 1594.65 1549.31 Q1590.66 1549.09 1588.84 1552.24 M1585.64 1550.39 Q1588.54 1545.36 1594.06 1545.01 Q1599.57 1544.64 1607.14 1549.01 Q1614.7 1553.38 1617.15 1558.35 Q1619.59 1563.28 1616.69 1568.32 Q1613.78 1573.35 1608.27 1573.72 Q1602.76 1574.07 1595.2 1569.7 Q1587.62 1565.33 1585.18 1560.39 Q1582.73 1555.42 1585.64 1550.39 Z" fill="#000000" fill-rule="evenodd" fill-opacity="1" /><path clip-path="url(#clip330)" d="M 0 0 M1624.79 1545.06 L1632.95 1530.93 L1636.36 1532.9 L1625.39 1551.9 L1621.98 1549.94 Q1620.93 1546.25 1619.21 1539.97 Q1617.48 1533.65 1616.91 1531.96 Q1615.85 1528.75 1614.78 1527.12 Q1613.71 1525.46 1612.25 1524.62 Q1609.86 1523.24 1607.39 1524.06 Q1604.92 1524.85 1603.37 1527.54 Q1602.27 1529.44 1601.71 1531.95 Q1601.15 1534.44 1601.11 1537.62 L1597.02 1535.26 Q1597.45 1532.24 1598.17 1529.83 Q1598.9 1527.41 1599.92 1525.65 Q1602.6 1521 1606.53 1519.58 Q1610.45 1518.15 1614.34 1520.4 Q1616.18 1521.46 1617.44 1523.12 Q1618.69 1524.76 1619.88 1527.88 Q1620.18 1528.71 1621.41 1533.01 Q1622.63 1537.29 1624.79 1545.06 Z" fill="#000000" fill-rule="evenodd" fill-opacity="1" /><path clip-path="url(#clip330)" d="M 0 0 M1638.27 1521.73 L1642.09 1515.11 L1619.25 1501.93 L1616.54 1509.96 L1612.85 1507.83 L1615.54 1499.84 L1617.88 1495.79 L1644.4 1511.11 L1648.22 1504.49 L1651.63 1506.46 L1641.67 1523.7 L1638.27 1521.73 Z" fill="#000000" fill-rule="evenodd" fill-opacity="1" /><path clip-path="url(#clip330)" d="M 0 0 M1642.08 1493.22 L1648.32 1482.42 L1651.61 1484.31 L1645.37 1495.12 L1642.08 1493.22 Z" fill="#000000" fill-rule="evenodd" fill-opacity="1" /><path clip-path="url(#clip330)" d="M 0 0 M1642.64 1459.06 Q1640.83 1462.19 1643.01 1465.56 Q1645.17 1468.89 1651.35 1472.46 Q1657.5 1476.01 1661.49 1476.23 Q1665.47 1476.41 1667.28 1473.29 Q1669.09 1470.14 1666.93 1466.81 Q1664.76 1463.44 1658.6 1459.89 Q1652.43 1456.32 1648.45 1456.13 Q1644.46 1455.92 1642.64 1459.06 M1639.43 1457.21 Q1642.34 1452.18 1647.85 1451.84 Q1653.36 1451.46 1660.94 1455.84 Q1668.5 1460.2 1670.95 1465.17 Q1673.39 1470.11 1670.48 1475.14 Q1667.58 1480.17 1662.07 1480.55 Q1656.55 1480.89 1649 1476.53 Q1641.42 1472.15 1638.98 1467.21 Q1636.53 1462.24 1639.43 1457.21 Z" fill="#000000" fill-rule="evenodd" fill-opacity="1" /><path clip-path="url(#clip330)" d="M 0 0 M1660.01 1430.97 L1670.08 1450.42 L1675.98 1440.2 L1660.01 1430.97 M1655.86 1430 L1658.8 1424.91 L1678.31 1436.17 L1680.78 1431.9 L1684.14 1433.84 L1681.68 1438.11 L1688.73 1442.19 L1686.41 1446.22 L1679.35 1442.14 L1671.55 1455.65 L1667.64 1453.4 L1655.86 1430 Z" fill="#000000" fill-rule="evenodd" fill-opacity="1" /><path clip-path="url(#clip330)" d="M 0 0 M1680.8 1426.17 L1687.04 1415.36 L1690.32 1417.26 L1684.09 1428.06 L1680.8 1426.17 Z" fill="#000000" fill-rule="evenodd" fill-opacity="1" /><path clip-path="url(#clip330)" d="M 0 0 M1700.62 1413.74 L1704.43 1407.12 L1681.6 1393.94 L1678.89 1401.97 L1675.2 1399.84 L1677.89 1391.85 L1680.23 1387.8 L1706.75 1403.11 L1710.57 1396.5 L1713.98 1398.47 L1704.02 1415.71 L1700.62 1413.74 Z" fill="#000000" fill-rule="evenodd" fill-opacity="1" /><path clip-path="url(#clip330)" d="M 0 0 M1698.72 1363.92 L1708.8 1383.37 L1714.7 1373.14 L1698.72 1363.92 M1694.58 1362.94 L1697.52 1357.85 L1717.02 1369.11 L1719.49 1364.84 L1722.86 1366.79 L1720.39 1371.06 L1727.45 1375.13 L1725.12 1379.16 L1718.07 1375.09 L1710.27 1388.6 L1706.36 1386.34 L1694.58 1362.94 Z" fill="#000000" fill-rule="evenodd" fill-opacity="1" /><path clip-path="url(#clip330)" d="M 0 0 M1873.04 1596.73 L1881.2 1582.59 L1884.61 1584.56 L1873.64 1603.56 L1870.23 1601.6 Q1869.17 1597.91 1867.46 1591.63 Q1865.73 1585.31 1865.16 1583.62 Q1864.1 1580.41 1863.03 1578.78 Q1861.96 1577.12 1860.5 1576.28 Q1858.11 1574.9 1855.64 1575.72 Q1853.17 1576.51 1851.62 1579.2 Q1850.52 1581.1 1849.96 1583.61 Q1849.4 1586.1 1849.36 1589.28 L1845.27 1586.92 Q1845.7 1583.9 1846.42 1581.49 Q1847.15 1579.08 1848.17 1577.31 Q1850.85 1572.66 1854.77 1571.24 Q1858.7 1569.81 1862.59 1572.06 Q1864.43 1573.12 1865.69 1574.79 Q1866.94 1576.42 1868.13 1579.54 Q1868.42 1580.37 1869.66 1584.67 Q1870.87 1588.95 1873.04 1596.73 Z" fill="#000000" fill-rule="evenodd" fill-opacity="1" /><path clip-path="url(#clip330)" d="M 0 0 M1867.25 1551.66 Q1865.45 1554.79 1867.62 1558.15 Q1869.78 1561.49 1875.96 1565.05 Q1882.11 1568.6 1886.1 1568.82 Q1890.09 1569.01 1891.89 1565.88 Q1893.71 1562.74 1891.54 1559.4 Q1889.37 1556.04 1883.22 1552.48 Q1877.04 1548.92 1873.06 1548.73 Q1869.07 1548.51 1867.25 1551.66 M1864.05 1549.81 Q1866.95 1544.78 1872.47 1544.43 Q1877.98 1544.06 1885.55 1548.43 Q1893.11 1552.8 1895.56 1557.77 Q1898 1562.7 1895.1 1567.74 Q1892.19 1572.77 1886.68 1573.14 Q1881.17 1573.48 1873.61 1569.12 Q1866.03 1564.75 1863.59 1559.81 Q1861.14 1554.84 1864.05 1549.81 Z" fill="#000000" fill-rule="evenodd" fill-opacity="1" /><path clip-path="url(#clip330)" d="M 0 0 M1903.2 1544.48 L1911.36 1530.35 L1914.77 1532.32 L1903.8 1551.32 L1900.39 1549.35 Q1899.34 1545.67 1897.62 1539.39 Q1895.89 1533.07 1895.32 1531.38 Q1894.26 1528.17 1893.19 1526.54 Q1892.12 1524.88 1890.66 1524.04 Q1888.27 1522.66 1885.8 1523.47 Q1883.33 1524.27 1881.78 1526.96 Q1880.68 1528.86 1880.12 1531.37 Q1879.56 1533.85 1879.52 1537.04 L1875.43 1534.67 Q1875.86 1531.66 1876.58 1529.25 Q1877.31 1526.83 1878.33 1525.07 Q1881.01 1520.42 1884.94 1518.99 Q1888.86 1517.57 1892.75 1519.82 Q1894.59 1520.88 1895.85 1522.54 Q1897.1 1524.17 1898.29 1527.29 Q1898.58 1528.13 1899.82 1532.43 Q1901.04 1536.71 1903.2 1544.48 Z" fill="#000000" fill-rule="evenodd" fill-opacity="1" /><path clip-path="url(#clip330)" d="M 0 0 M1916.68 1521.15 L1920.5 1514.53 L1897.66 1501.35 L1894.95 1509.38 L1891.26 1507.25 L1893.95 1499.26 L1896.29 1495.21 L1922.81 1510.52 L1926.63 1503.91 L1930.04 1505.88 L1920.08 1523.12 L1916.68 1521.15 Z" fill="#000000" fill-rule="evenodd" fill-opacity="1" /><path clip-path="url(#clip330)" d="M 0 0 M1920.49 1492.64 L1926.73 1481.84 L1930.02 1483.73 L1923.78 1494.54 L1920.49 1492.64 Z" fill="#000000" fill-rule="evenodd" fill-opacity="1" /><path clip-path="url(#clip330)" d="M 0 0 M1921.05 1458.48 Q1919.24 1461.61 1921.42 1464.97 Q1923.58 1468.31 1929.76 1471.87 Q1935.91 1475.43 1939.9 1475.65 Q1943.88 1475.83 1945.69 1472.71 Q1947.5 1469.56 1945.34 1466.22 Q1943.17 1462.86 1937.01 1459.3 Q1930.84 1455.74 1926.86 1455.55 Q1922.87 1455.33 1921.05 1458.48 M1917.84 1456.63 Q1920.75 1451.6 1926.26 1451.25 Q1931.77 1450.88 1939.35 1455.26 Q1946.91 1459.62 1949.36 1464.59 Q1951.8 1469.53 1948.89 1474.56 Q1945.99 1479.59 1940.48 1479.96 Q1934.96 1480.31 1927.41 1475.94 Q1919.83 1471.57 1917.39 1466.63 Q1914.94 1461.66 1917.84 1456.63 Z" fill="#000000" fill-rule="evenodd" fill-opacity="1" /><path clip-path="url(#clip330)" d="M 0 0 M1938.42 1430.39 L1948.49 1449.84 L1954.39 1439.62 L1938.42 1430.39 M1934.27 1429.42 L1937.21 1424.33 L1956.72 1435.59 L1959.18 1431.32 L1962.55 1433.26 L1960.09 1437.53 L1967.14 1441.61 L1964.82 1445.64 L1957.76 1441.56 L1949.96 1455.07 L1946.05 1452.82 L1934.27 1429.42 Z" fill="#000000" fill-rule="evenodd" fill-opacity="1" /><path clip-path="url(#clip330)" d="M 0 0 M1959.21 1425.58 L1965.45 1414.78 L1968.73 1416.68 L1962.49 1427.48 L1959.21 1425.58 Z" fill="#000000" fill-rule="evenodd" fill-opacity="1" /><path clip-path="url(#clip330)" d="M 0 0 M1979.03 1413.16 L1982.84 1406.54 L1960.01 1393.36 L1957.3 1401.39 L1953.61 1399.26 L1956.3 1391.27 L1958.64 1387.22 L1985.16 1402.53 L1988.98 1395.92 L1992.39 1397.88 L1982.43 1415.12 L1979.03 1413.16 Z" fill="#000000" fill-rule="evenodd" fill-opacity="1" /><path clip-path="url(#clip330)" d="M 0 0 M1996.56 1389.23 L1992.87 1387.1 Q1994.47 1385.99 1995.75 1384.65 Q1997.04 1383.3 1997.9 1381.8 Q2000.22 1377.79 1998.75 1374.13 Q1997.27 1370.45 1991.95 1366.97 Q1993 1369.13 1992.89 1371.45 Q1992.79 1373.76 1991.54 1375.93 Q1988.94 1380.42 1984.72 1381.48 Q1980.49 1382.52 1975.78 1379.8 Q1971.17 1377.13 1969.96 1372.8 Q1968.74 1368.46 1971.36 1363.93 Q1974.36 1358.74 1979.92 1358.32 Q1985.48 1357.86 1993.05 1362.24 Q2000.13 1366.32 2002.42 1372.13 Q2004.69 1377.91 2001.42 1383.59 Q2000.54 1385.11 1999.33 1386.5 Q1998.13 1387.89 1996.56 1389.23 M1988.52 1373.84 Q1990.09 1371.11 1989.14 1368.45 Q1988.21 1365.77 1984.96 1363.9 Q1981.73 1362.04 1978.94 1362.56 Q1976.14 1363.06 1974.57 1365.79 Q1972.99 1368.51 1973.95 1371.2 Q1974.9 1373.86 1978.13 1375.73 Q1981.38 1377.6 1984.16 1377.09 Q1986.95 1376.57 1988.52 1373.84 Z" fill="#000000" fill-rule="evenodd" fill-opacity="1" /><path clip-path="url(#clip330)" d="M 0 0 M2151.82 1595.5 L2159.98 1581.37 L2163.39 1583.34 L2152.42 1602.34 L2149.01 1600.37 Q2147.95 1596.69 2146.24 1590.41 Q2144.51 1584.09 2143.94 1582.4 Q2142.88 1579.19 2141.81 1577.56 Q2140.74 1575.9 2139.28 1575.06 Q2136.89 1573.68 2134.42 1574.49 Q2131.95 1575.29 2130.4 1577.98 Q2129.3 1579.88 2128.74 1582.39 Q2128.18 1584.87 2128.14 1588.06 L2124.05 1585.69 Q2124.48 1582.68 2125.2 1580.27 Q2125.93 1577.85 2126.95 1576.09 Q2129.63 1571.44 2133.55 1570.01 Q2137.48 1568.59 2141.37 1570.84 Q2143.21 1571.9 2144.47 1573.56 Q2145.72 1575.19 2146.91 1578.31 Q2147.2 1579.15 2148.44 1583.45 Q2149.65 1587.73 2151.82 1595.5 Z" fill="#000000" fill-rule="evenodd" fill-opacity="1" /><path clip-path="url(#clip330)" d="M 0 0 M2146.03 1550.44 Q2144.23 1553.56 2146.4 1556.93 Q2148.56 1560.26 2154.74 1563.83 Q2160.89 1567.38 2164.88 1567.6 Q2168.87 1567.79 2170.67 1564.66 Q2172.49 1561.51 2170.32 1558.18 Q2168.15 1554.81 2162 1551.26 Q2155.82 1547.69 2151.84 1547.51 Q2147.85 1547.29 2146.03 1550.44 M2142.83 1548.58 Q2145.73 1543.55 2151.25 1543.21 Q2156.76 1542.83 2164.33 1547.21 Q2171.89 1551.57 2174.34 1556.54 Q2176.78 1561.48 2173.88 1566.51 Q2170.97 1571.54 2165.46 1571.92 Q2159.95 1572.26 2152.39 1567.9 Q2144.81 1563.52 2142.37 1558.59 Q2139.92 1553.62 2142.83 1548.58 Z" fill="#000000" fill-rule="evenodd" fill-opacity="1" /><path clip-path="url(#clip330)" d="M 0 0 M2181.98 1543.26 L2190.14 1529.13 L2193.55 1531.09 L2182.58 1550.1 L2179.17 1548.13 Q2178.12 1544.45 2176.4 1538.16 Q2174.67 1531.85 2174.1 1530.16 Q2173.04 1526.95 2171.97 1525.32 Q2170.9 1523.66 2169.44 1522.81 Q2167.05 1521.44 2164.58 1522.25 Q2162.11 1523.05 2160.56 1525.73 Q2159.46 1527.64 2158.9 1530.15 Q2158.34 1532.63 2158.3 1535.81 L2154.21 1533.45 Q2154.64 1530.44 2155.36 1528.02 Q2156.09 1525.61 2157.11 1523.85 Q2159.79 1519.2 2163.72 1517.77 Q2167.64 1516.35 2171.53 1518.59 Q2173.37 1519.66 2174.63 1521.32 Q2175.88 1522.95 2177.07 1526.07 Q2177.36 1526.91 2178.6 1531.2 Q2179.82 1535.49 2181.98 1543.26 Z" fill="#000000" fill-rule="evenodd" fill-opacity="1" /><path clip-path="url(#clip330)" d="M 0 0 M2195.46 1519.93 L2199.28 1513.31 L2176.44 1500.13 L2173.73 1508.16 L2170.04 1506.03 L2172.73 1498.04 L2175.07 1493.99 L2201.59 1509.3 L2205.41 1502.69 L2208.82 1504.65 L2198.86 1521.89 L2195.46 1519.93 Z" fill="#000000" fill-rule="evenodd" fill-opacity="1" /><path clip-path="url(#clip330)" d="M 0 0 M2199.27 1491.42 L2205.51 1480.61 L2208.8 1482.51 L2202.56 1493.32 L2199.27 1491.42 Z" fill="#000000" fill-rule="evenodd" fill-opacity="1" /><path clip-path="url(#clip330)" d="M 0 0 M2199.83 1457.26 Q2198.02 1460.39 2200.2 1463.75 Q2202.36 1467.09 2208.54 1470.65 Q2214.69 1474.2 2218.68 1474.42 Q2222.66 1474.61 2224.47 1471.48 Q2226.28 1468.34 2224.12 1465 Q2221.95 1461.64 2215.79 1458.08 Q2209.62 1454.52 2205.64 1454.33 Q2201.65 1454.11 2199.83 1457.26 M2196.62 1455.41 Q2199.53 1450.38 2205.04 1450.03 Q2210.55 1449.66 2218.13 1454.03 Q2225.69 1458.4 2228.14 1463.37 Q2230.58 1468.3 2227.67 1473.33 Q2224.77 1478.37 2219.26 1478.74 Q2213.74 1479.08 2206.19 1474.72 Q2198.61 1470.35 2196.17 1465.41 Q2193.72 1460.44 2196.62 1455.41 Z" fill="#000000" fill-rule="evenodd" fill-opacity="1" /><path clip-path="url(#clip330)" d="M 0 0 M2217.2 1429.17 L2227.27 1448.62 L2233.17 1438.39 L2217.2 1429.17 M2213.05 1428.2 L2215.99 1423.1 L2235.5 1434.36 L2237.96 1430.09 L2241.33 1432.04 L2238.87 1436.31 L2245.92 1440.38 L2243.6 1444.41 L2236.54 1440.34 L2228.74 1453.85 L2224.83 1451.59 L2213.05 1428.2 Z" fill="#000000" fill-rule="evenodd" fill-opacity="1" /><path clip-path="url(#clip330)" d="M 0 0 M2237.99 1424.36 L2244.23 1413.56 L2247.51 1415.45 L2241.28 1426.26 L2237.99 1424.36 Z" fill="#000000" fill-rule="evenodd" fill-opacity="1" /><path clip-path="url(#clip330)" d="M 0 0 M2259.41 1409.15 L2267.57 1395.01 L2270.98 1396.98 L2260.01 1415.99 L2256.6 1414.02 Q2255.55 1410.34 2253.83 1404.05 Q2252.1 1397.74 2251.53 1396.04 Q2250.47 1392.84 2249.4 1391.21 Q2248.33 1389.55 2246.87 1388.7 Q2244.48 1387.32 2242.01 1388.14 Q2239.54 1388.93 2237.99 1391.62 Q2236.89 1393.53 2236.33 1396.03 Q2235.77 1398.52 2235.73 1401.7 L2231.64 1399.34 Q2232.07 1396.33 2232.79 1393.91 Q2233.52 1391.5 2234.54 1389.73 Q2237.22 1385.08 2241.15 1383.66 Q2245.07 1382.23 2248.96 1384.48 Q2250.8 1385.55 2252.06 1387.21 Q2253.31 1388.84 2254.5 1391.96 Q2254.8 1392.8 2256.03 1397.09 Q2257.25 1401.37 2259.41 1409.15 Z" fill="#000000" fill-rule="evenodd" fill-opacity="1" /><path clip-path="url(#clip330)" d="M 0 0 M2274.49 1383.03 L2282.65 1368.89 L2286.06 1370.86 L2275.09 1389.87 L2271.68 1387.9 Q2270.63 1384.22 2268.91 1377.93 Q2267.18 1371.62 2266.61 1369.92 Q2265.55 1366.72 2264.49 1365.09 Q2263.41 1363.42 2261.95 1362.58 Q2259.56 1361.2 2257.09 1362.02 Q2254.62 1362.81 2253.07 1365.5 Q2251.97 1367.4 2251.41 1369.91 Q2250.85 1372.4 2250.81 1375.58 L2246.72 1373.22 Q2247.15 1370.21 2247.87 1367.79 Q2248.6 1365.38 2249.62 1363.61 Q2252.3 1358.96 2256.23 1357.54 Q2260.15 1356.11 2264.04 1358.36 Q2265.88 1359.42 2267.14 1361.09 Q2268.39 1362.72 2269.58 1365.84 Q2269.88 1366.67 2271.11 1370.97 Q2272.33 1375.25 2274.49 1383.03 Z" fill="#000000" fill-rule="evenodd" fill-opacity="1" /><polyline clip-path="url(#clip332)" style="stroke:#000000; stroke-width:2; stroke-opacity:0.1; fill:none" points="
  201.019,1140.05 2352.76,1140.05 
  "/>
<polyline clip-path="url(#clip332)" style="stroke:#000000; stroke-width:2; stroke-opacity:0.1; fill:none" points="
  201.019,943.276 2352.76,943.276 
  "/>
<polyline clip-path="url(#clip332)" style="stroke:#000000; stroke-width:2; stroke-opacity:0.1; fill:none" points="
  201.019,746.503 2352.76,746.503 
  "/>
<polyline clip-path="url(#clip332)" style="stroke:#000000; stroke-width:2; stroke-opacity:0.1; fill:none" points="
  201.019,549.73 2352.76,549.73 
  "/>
<polyline clip-path="url(#clip332)" style="stroke:#000000; stroke-width:2; stroke-opacity:0.1; fill:none" points="
  201.019,352.957 2352.76,352.957 
  "/>
<polyline clip-path="url(#clip332)" style="stroke:#000000; stroke-width:2; stroke-opacity:0.1; fill:none" points="
  201.019,156.184 2352.76,156.184 
  "/>
<polyline clip-path="url(#clip330)" style="stroke:#000000; stroke-width:4; stroke-opacity:1; fill:none" points="
  201.019,1330.92 201.019,47.2441 
  "/>
<polyline clip-path="url(#clip330)" style="stroke:#000000; stroke-width:4; stroke-opacity:1; fill:none" points="
  201.019,1140.05 226.84,1140.05 
  "/>
<polyline clip-path="url(#clip330)" style="stroke:#000000; stroke-width:4; stroke-opacity:1; fill:none" points="
  201.019,943.276 226.84,943.276 
  "/>
<polyline clip-path="url(#clip330)" style="stroke:#000000; stroke-width:4; stroke-opacity:1; fill:none" points="
  201.019,746.503 226.84,746.503 
  "/>
<polyline clip-path="url(#clip330)" style="stroke:#000000; stroke-width:4; stroke-opacity:1; fill:none" points="
  201.019,549.73 226.84,549.73 
  "/>
<polyline clip-path="url(#clip330)" style="stroke:#000000; stroke-width:4; stroke-opacity:1; fill:none" points="
  201.019,352.957 226.84,352.957 
  "/>
<polyline clip-path="url(#clip330)" style="stroke:#000000; stroke-width:4; stroke-opacity:1; fill:none" points="
  201.019,156.184 226.84,156.184 
  "/>
<path clip-path="url(#clip330)" d="M 0 0 M56.6171 1153.39 L72.9365 1153.39 L72.9365 1157.33 L50.9921 1157.33 L50.9921 1153.39 Q53.6541 1150.64 58.2375 1146.01 Q62.8439 1141.36 64.0245 1140.01 Q66.2698 1137.49 67.1494 1135.75 Q68.0522 1134 68.0522 1132.31 Q68.0522 1129.55 66.1078 1127.82 Q64.1865 1126.08 61.0847 1126.08 Q58.8856 1126.08 56.4319 1126.84 Q54.0014 1127.61 51.2236 1129.16 L51.2236 1124.44 Q54.0477 1123.3 56.5014 1122.72 Q58.955 1122.14 60.9921 1122.14 Q66.3624 1122.14 69.5568 1124.83 Q72.7513 1127.51 72.7513 1132 Q72.7513 1134.13 71.9411 1136.06 Q71.1541 1137.95 69.0476 1140.55 Q68.4689 1141.22 65.367 1144.44 Q62.2652 1147.63 56.6171 1153.39 Z" fill="#000000" fill-rule="evenodd" fill-opacity="1" /><path clip-path="url(#clip330)" d="M 0 0 M92.7512 1125.85 Q89.1401 1125.85 87.3114 1129.41 Q85.5058 1132.95 85.5058 1140.08 Q85.5058 1147.19 87.3114 1150.75 Q89.1401 1154.3 92.7512 1154.3 Q96.3854 1154.3 98.1909 1150.75 Q100.02 1147.19 100.02 1140.08 Q100.02 1132.95 98.1909 1129.41 Q96.3854 1125.85 92.7512 1125.85 M92.7512 1122.14 Q98.5613 1122.14 101.617 1126.75 Q104.696 1131.33 104.696 1140.08 Q104.696 1148.81 101.617 1153.42 Q98.5613 1158 92.7512 1158 Q86.941 1158 83.8623 1153.42 Q80.8068 1148.81 80.8068 1140.08 Q80.8068 1131.33 83.8623 1126.75 Q86.941 1122.14 92.7512 1122.14 Z" fill="#000000" fill-rule="evenodd" fill-opacity="1" /><path clip-path="url(#clip330)" d="M 0 0 M112.959 1122.77 L131.316 1122.77 L131.316 1126.7 L117.242 1126.7 L117.242 1135.18 Q118.26 1134.83 119.279 1134.67 Q120.297 1134.48 121.316 1134.48 Q127.103 1134.48 130.482 1137.65 Q133.862 1140.82 133.862 1146.24 Q133.862 1151.82 130.39 1154.92 Q126.918 1158 120.598 1158 Q118.422 1158 116.154 1157.63 Q113.908 1157.26 111.501 1156.52 L111.501 1151.82 Q113.584 1152.95 115.807 1153.51 Q118.029 1154.06 120.506 1154.06 Q124.51 1154.06 126.848 1151.96 Q129.186 1149.85 129.186 1146.24 Q129.186 1142.63 126.848 1140.52 Q124.51 1138.42 120.506 1138.42 Q118.631 1138.42 116.756 1138.83 Q114.904 1139.25 112.959 1140.13 L112.959 1122.77 Z" fill="#000000" fill-rule="evenodd" fill-opacity="1" /><path clip-path="url(#clip330)" d="M 0 0 M153.075 1125.85 Q149.464 1125.85 147.635 1129.41 Q145.83 1132.95 145.83 1140.08 Q145.83 1147.19 147.635 1150.75 Q149.464 1154.3 153.075 1154.3 Q156.709 1154.3 158.515 1150.75 Q160.343 1147.19 160.343 1140.08 Q160.343 1132.95 158.515 1129.41 Q156.709 1125.85 153.075 1125.85 M153.075 1122.14 Q158.885 1122.14 161.941 1126.75 Q165.019 1131.33 165.019 1140.08 Q165.019 1148.81 161.941 1153.42 Q158.885 1158 153.075 1158 Q147.265 1158 144.186 1153.42 Q141.131 1148.81 141.131 1140.08 Q141.131 1131.33 144.186 1126.75 Q147.265 1122.14 153.075 1122.14 Z" fill="#000000" fill-rule="evenodd" fill-opacity="1" /><path clip-path="url(#clip330)" d="M 0 0 M56.6171 956.621 L72.9365 956.621 L72.9365 960.556 L50.9921 960.556 L50.9921 956.621 Q53.6541 953.866 58.2375 949.236 Q62.8439 944.584 64.0245 943.241 Q66.2698 940.718 67.1494 938.982 Q68.0522 937.223 68.0522 935.533 Q68.0522 932.778 66.1078 931.042 Q64.1865 929.306 61.0847 929.306 Q58.8856 929.306 56.4319 930.07 Q54.0014 930.834 51.2236 932.385 L51.2236 927.662 Q54.0477 926.528 56.5014 925.949 Q58.955 925.371 60.9921 925.371 Q66.3624 925.371 69.5568 928.056 Q72.7513 930.741 72.7513 935.232 Q72.7513 937.361 71.9411 939.283 Q71.1541 941.181 69.0476 943.773 Q68.4689 944.445 65.367 947.662 Q62.2652 950.857 56.6171 956.621 Z" fill="#000000" fill-rule="evenodd" fill-opacity="1" /><path clip-path="url(#clip330)" d="M 0 0 M83.5614 956.621 L91.2002 956.621 L91.2002 930.255 L82.8901 931.922 L82.8901 927.662 L91.1539 925.996 L95.8298 925.996 L95.8298 956.621 L103.469 956.621 L103.469 960.556 L83.5614 960.556 L83.5614 956.621 Z" fill="#000000" fill-rule="evenodd" fill-opacity="1" /><path clip-path="url(#clip330)" d="M 0 0 M122.913 929.074 Q119.302 929.074 117.473 932.639 Q115.668 936.181 115.668 943.31 Q115.668 950.417 117.473 953.982 Q119.302 957.523 122.913 957.523 Q126.547 957.523 128.353 953.982 Q130.182 950.417 130.182 943.31 Q130.182 936.181 128.353 932.639 Q126.547 929.074 122.913 929.074 M122.913 925.371 Q128.723 925.371 131.779 929.977 Q134.857 934.561 134.857 943.31 Q134.857 952.037 131.779 956.644 Q128.723 961.227 122.913 961.227 Q117.103 961.227 114.024 956.644 Q110.969 952.037 110.969 943.31 Q110.969 934.561 114.024 929.977 Q117.103 925.371 122.913 925.371 Z" fill="#000000" fill-rule="evenodd" fill-opacity="1" /><path clip-path="url(#clip330)" d="M 0 0 M153.075 929.074 Q149.464 929.074 147.635 932.639 Q145.83 936.181 145.83 943.31 Q145.83 950.417 147.635 953.982 Q149.464 957.523 153.075 957.523 Q156.709 957.523 158.515 953.982 Q160.343 950.417 160.343 943.31 Q160.343 936.181 158.515 932.639 Q156.709 929.074 153.075 929.074 M153.075 925.371 Q158.885 925.371 161.941 929.977 Q165.019 934.561 165.019 943.31 Q165.019 952.037 161.941 956.644 Q158.885 961.227 153.075 961.227 Q147.265 961.227 144.186 956.644 Q141.131 952.037 141.131 943.31 Q141.131 934.561 144.186 929.977 Q147.265 925.371 153.075 925.371 Z" fill="#000000" fill-rule="evenodd" fill-opacity="1" /><path clip-path="url(#clip330)" d="M 0 0 M56.6171 759.848 L72.9365 759.848 L72.9365 763.783 L50.9921 763.783 L50.9921 759.848 Q53.6541 757.093 58.2375 752.463 Q62.8439 747.811 64.0245 746.468 Q66.2698 743.945 67.1494 742.209 Q68.0522 740.45 68.0522 738.76 Q68.0522 736.005 66.1078 734.269 Q64.1865 732.533 61.0847 732.533 Q58.8856 732.533 56.4319 733.297 Q54.0014 734.061 51.2236 735.612 L51.2236 730.889 Q54.0477 729.755 56.5014 729.176 Q58.955 728.598 60.9921 728.598 Q66.3624 728.598 69.5568 731.283 Q72.7513 733.968 72.7513 738.459 Q72.7513 740.588 71.9411 742.51 Q71.1541 744.408 69.0476 747 Q68.4689 747.672 65.367 750.889 Q62.2652 754.084 56.6171 759.848 Z" fill="#000000" fill-rule="evenodd" fill-opacity="1" /><path clip-path="url(#clip330)" d="M 0 0 M83.5614 759.848 L91.2002 759.848 L91.2002 733.482 L82.8901 735.149 L82.8901 730.889 L91.1539 729.223 L95.8298 729.223 L95.8298 759.848 L103.469 759.848 L103.469 763.783 L83.5614 763.783 L83.5614 759.848 Z" fill="#000000" fill-rule="evenodd" fill-opacity="1" /><path clip-path="url(#clip330)" d="M 0 0 M112.959 729.223 L131.316 729.223 L131.316 733.158 L117.242 733.158 L117.242 741.63 Q118.26 741.283 119.279 741.121 Q120.297 740.936 121.316 740.936 Q127.103 740.936 130.482 744.107 Q133.862 747.278 133.862 752.695 Q133.862 758.274 130.39 761.375 Q126.918 764.454 120.598 764.454 Q118.422 764.454 116.154 764.084 Q113.908 763.713 111.501 762.973 L111.501 758.274 Q113.584 759.408 115.807 759.963 Q118.029 760.519 120.506 760.519 Q124.51 760.519 126.848 758.412 Q129.186 756.306 129.186 752.695 Q129.186 749.084 126.848 746.977 Q124.51 744.871 120.506 744.871 Q118.631 744.871 116.756 745.287 Q114.904 745.704 112.959 746.584 L112.959 729.223 Z" fill="#000000" fill-rule="evenodd" fill-opacity="1" /><path clip-path="url(#clip330)" d="M 0 0 M153.075 732.301 Q149.464 732.301 147.635 735.866 Q145.83 739.408 145.83 746.537 Q145.83 753.644 147.635 757.209 Q149.464 760.75 153.075 760.75 Q156.709 760.75 158.515 757.209 Q160.343 753.644 160.343 746.537 Q160.343 739.408 158.515 735.866 Q156.709 732.301 153.075 732.301 M153.075 728.598 Q158.885 728.598 161.941 733.204 Q165.019 737.788 165.019 746.537 Q165.019 755.264 161.941 759.871 Q158.885 764.454 153.075 764.454 Q147.265 764.454 144.186 759.871 Q141.131 755.264 141.131 746.537 Q141.131 737.788 144.186 733.204 Q147.265 728.598 153.075 728.598 Z" fill="#000000" fill-rule="evenodd" fill-opacity="1" /><path clip-path="url(#clip330)" d="M 0 0 M56.6171 563.075 L72.9365 563.075 L72.9365 567.01 L50.9921 567.01 L50.9921 563.075 Q53.6541 560.32 58.2375 555.69 Q62.8439 551.038 64.0245 549.695 Q66.2698 547.172 67.1494 545.436 Q68.0522 543.677 68.0522 541.987 Q68.0522 539.232 66.1078 537.496 Q64.1865 535.76 61.0847 535.76 Q58.8856 535.76 56.4319 536.524 Q54.0014 537.288 51.2236 538.839 L51.2236 534.116 Q54.0477 532.982 56.5014 532.403 Q58.955 531.825 60.9921 531.825 Q66.3624 531.825 69.5568 534.51 Q72.7513 537.195 72.7513 541.686 Q72.7513 543.815 71.9411 545.737 Q71.1541 547.635 69.0476 550.227 Q68.4689 550.899 65.367 554.116 Q62.2652 557.311 56.6171 563.075 Z" fill="#000000" fill-rule="evenodd" fill-opacity="1" /><path clip-path="url(#clip330)" d="M 0 0 M86.779 563.075 L103.098 563.075 L103.098 567.01 L81.154 567.01 L81.154 563.075 Q83.816 560.32 88.3993 555.69 Q93.0058 551.038 94.1863 549.695 Q96.4317 547.172 97.3113 545.436 Q98.2141 543.677 98.2141 541.987 Q98.2141 539.232 96.2697 537.496 Q94.3484 535.76 91.2465 535.76 Q89.0475 535.76 86.5938 536.524 Q84.1632 537.288 81.3855 538.839 L81.3855 534.116 Q84.2095 532.982 86.6632 532.403 Q89.1169 531.825 91.1539 531.825 Q96.5243 531.825 99.7187 534.51 Q102.913 537.195 102.913 541.686 Q102.913 543.815 102.103 545.737 Q101.316 547.635 99.2095 550.227 Q98.6308 550.899 95.5289 554.116 Q92.4271 557.311 86.779 563.075 Z" fill="#000000" fill-rule="evenodd" fill-opacity="1" /><path clip-path="url(#clip330)" d="M 0 0 M122.913 535.528 Q119.302 535.528 117.473 539.093 Q115.668 542.635 115.668 549.764 Q115.668 556.871 117.473 560.436 Q119.302 563.977 122.913 563.977 Q126.547 563.977 128.353 560.436 Q130.182 556.871 130.182 549.764 Q130.182 542.635 128.353 539.093 Q126.547 535.528 122.913 535.528 M122.913 531.825 Q128.723 531.825 131.779 536.431 Q134.857 541.015 134.857 549.764 Q134.857 558.491 131.779 563.098 Q128.723 567.681 122.913 567.681 Q117.103 567.681 114.024 563.098 Q110.969 558.491 110.969 549.764 Q110.969 541.015 114.024 536.431 Q117.103 531.825 122.913 531.825 Z" fill="#000000" fill-rule="evenodd" fill-opacity="1" /><path clip-path="url(#clip330)" d="M 0 0 M153.075 535.528 Q149.464 535.528 147.635 539.093 Q145.83 542.635 145.83 549.764 Q145.83 556.871 147.635 560.436 Q149.464 563.977 153.075 563.977 Q156.709 563.977 158.515 560.436 Q160.343 556.871 160.343 549.764 Q160.343 542.635 158.515 539.093 Q156.709 535.528 153.075 535.528 M153.075 531.825 Q158.885 531.825 161.941 536.431 Q165.019 541.015 165.019 549.764 Q165.019 558.491 161.941 563.098 Q158.885 567.681 153.075 567.681 Q147.265 567.681 144.186 563.098 Q141.131 558.491 141.131 549.764 Q141.131 541.015 144.186 536.431 Q147.265 531.825 153.075 531.825 Z" fill="#000000" fill-rule="evenodd" fill-opacity="1" /><path clip-path="url(#clip330)" d="M 0 0 M56.6171 366.302 L72.9365 366.302 L72.9365 370.237 L50.9921 370.237 L50.9921 366.302 Q53.6541 363.547 58.2375 358.917 Q62.8439 354.265 64.0245 352.922 Q66.2698 350.399 67.1494 348.663 Q68.0522 346.904 68.0522 345.214 Q68.0522 342.459 66.1078 340.723 Q64.1865 338.987 61.0847 338.987 Q58.8856 338.987 56.4319 339.751 Q54.0014 340.515 51.2236 342.066 L51.2236 337.343 Q54.0477 336.209 56.5014 335.63 Q58.955 335.052 60.9921 335.052 Q66.3624 335.052 69.5568 337.737 Q72.7513 340.422 72.7513 344.913 Q72.7513 347.042 71.9411 348.964 Q71.1541 350.862 69.0476 353.454 Q68.4689 354.126 65.367 357.343 Q62.2652 360.538 56.6171 366.302 Z" fill="#000000" fill-rule="evenodd" fill-opacity="1" /><path clip-path="url(#clip330)" d="M 0 0 M86.779 366.302 L103.098 366.302 L103.098 370.237 L81.154 370.237 L81.154 366.302 Q83.816 363.547 88.3993 358.917 Q93.0058 354.265 94.1863 352.922 Q96.4317 350.399 97.3113 348.663 Q98.2141 346.904 98.2141 345.214 Q98.2141 342.459 96.2697 340.723 Q94.3484 338.987 91.2465 338.987 Q89.0475 338.987 86.5938 339.751 Q84.1632 340.515 81.3855 342.066 L81.3855 337.343 Q84.2095 336.209 86.6632 335.63 Q89.1169 335.052 91.1539 335.052 Q96.5243 335.052 99.7187 337.737 Q102.913 340.422 102.913 344.913 Q102.913 347.042 102.103 348.964 Q101.316 350.862 99.2095 353.454 Q98.6308 354.126 95.5289 357.343 Q92.4271 360.538 86.779 366.302 Z" fill="#000000" fill-rule="evenodd" fill-opacity="1" /><path clip-path="url(#clip330)" d="M 0 0 M112.959 335.677 L131.316 335.677 L131.316 339.612 L117.242 339.612 L117.242 348.084 Q118.26 347.737 119.279 347.575 Q120.297 347.39 121.316 347.39 Q127.103 347.39 130.482 350.561 Q133.862 353.732 133.862 359.149 Q133.862 364.728 130.39 367.829 Q126.918 370.908 120.598 370.908 Q118.422 370.908 116.154 370.538 Q113.908 370.167 111.501 369.427 L111.501 364.728 Q113.584 365.862 115.807 366.417 Q118.029 366.973 120.506 366.973 Q124.51 366.973 126.848 364.866 Q129.186 362.76 129.186 359.149 Q129.186 355.538 126.848 353.431 Q124.51 351.325 120.506 351.325 Q118.631 351.325 116.756 351.741 Q114.904 352.158 112.959 353.038 L112.959 335.677 Z" fill="#000000" fill-rule="evenodd" fill-opacity="1" /><path clip-path="url(#clip330)" d="M 0 0 M153.075 338.755 Q149.464 338.755 147.635 342.32 Q145.83 345.862 145.83 352.991 Q145.83 360.098 147.635 363.663 Q149.464 367.204 153.075 367.204 Q156.709 367.204 158.515 363.663 Q160.343 360.098 160.343 352.991 Q160.343 345.862 158.515 342.32 Q156.709 338.755 153.075 338.755 M153.075 335.052 Q158.885 335.052 161.941 339.658 Q165.019 344.242 165.019 352.991 Q165.019 361.718 161.941 366.325 Q158.885 370.908 153.075 370.908 Q147.265 370.908 144.186 366.325 Q141.131 361.718 141.131 352.991 Q141.131 344.242 144.186 339.658 Q147.265 335.052 153.075 335.052 Z" fill="#000000" fill-rule="evenodd" fill-opacity="1" /><path clip-path="url(#clip330)" d="M 0 0 M56.6171 169.529 L72.9365 169.529 L72.9365 173.464 L50.9921 173.464 L50.9921 169.529 Q53.6541 166.774 58.2375 162.144 Q62.8439 157.492 64.0245 156.149 Q66.2698 153.626 67.1494 151.89 Q68.0522 150.131 68.0522 148.441 Q68.0522 145.686 66.1078 143.95 Q64.1865 142.214 61.0847 142.214 Q58.8856 142.214 56.4319 142.978 Q54.0014 143.742 51.2236 145.293 L51.2236 140.57 Q54.0477 139.436 56.5014 138.857 Q58.955 138.279 60.9921 138.279 Q66.3624 138.279 69.5568 140.964 Q72.7513 143.649 72.7513 148.14 Q72.7513 150.269 71.9411 152.191 Q71.1541 154.089 69.0476 156.681 Q68.4689 157.353 65.367 160.57 Q62.2652 163.765 56.6171 169.529 Z" fill="#000000" fill-rule="evenodd" fill-opacity="1" /><path clip-path="url(#clip330)" d="M 0 0 M96.9178 154.83 Q100.274 155.547 102.149 157.816 Q104.047 160.084 104.047 163.417 Q104.047 168.533 100.529 171.334 Q97.0104 174.135 90.529 174.135 Q88.353 174.135 86.0382 173.695 Q83.7466 173.279 81.2929 172.422 L81.2929 167.908 Q83.2373 169.042 85.5521 169.621 Q87.8669 170.2 90.3901 170.2 Q94.7882 170.2 97.0798 168.464 Q99.3946 166.728 99.3946 163.417 Q99.3946 160.362 97.2419 158.649 Q95.1123 156.913 91.2928 156.913 L87.2651 156.913 L87.2651 153.07 L91.478 153.07 Q94.9271 153.07 96.7558 151.705 Q98.5845 150.316 98.5845 147.723 Q98.5845 145.061 96.6863 143.649 Q94.8113 142.214 91.2928 142.214 Q89.3715 142.214 87.1725 142.631 Q84.9734 143.047 82.3346 143.927 L82.3346 139.76 Q84.9966 139.019 87.3114 138.649 Q89.6493 138.279 91.7095 138.279 Q97.0335 138.279 100.135 140.709 Q103.237 143.117 103.237 147.237 Q103.237 150.107 101.594 152.098 Q99.9502 154.066 96.9178 154.83 Z" fill="#000000" fill-rule="evenodd" fill-opacity="1" /><path clip-path="url(#clip330)" d="M 0 0 M122.913 141.982 Q119.302 141.982 117.473 145.547 Q115.668 149.089 115.668 156.218 Q115.668 163.325 117.473 166.89 Q119.302 170.431 122.913 170.431 Q126.547 170.431 128.353 166.89 Q130.182 163.325 130.182 156.218 Q130.182 149.089 128.353 145.547 Q126.547 141.982 122.913 141.982 M122.913 138.279 Q128.723 138.279 131.779 142.885 Q134.857 147.469 134.857 156.218 Q134.857 164.945 131.779 169.552 Q128.723 174.135 122.913 174.135 Q117.103 174.135 114.024 169.552 Q110.969 164.945 110.969 156.218 Q110.969 147.469 114.024 142.885 Q117.103 138.279 122.913 138.279 Z" fill="#000000" fill-rule="evenodd" fill-opacity="1" /><path clip-path="url(#clip330)" d="M 0 0 M153.075 141.982 Q149.464 141.982 147.635 145.547 Q145.83 149.089 145.83 156.218 Q145.83 163.325 147.635 166.89 Q149.464 170.431 153.075 170.431 Q156.709 170.431 158.515 166.89 Q160.343 163.325 160.343 156.218 Q160.343 149.089 158.515 145.547 Q156.709 141.982 153.075 141.982 M153.075 138.279 Q158.885 138.279 161.941 142.885 Q165.019 147.469 165.019 156.218 Q165.019 164.945 161.941 169.552 Q158.885 174.135 153.075 174.135 Q147.265 174.135 144.186 169.552 Q141.131 164.945 141.131 156.218 Q141.131 147.469 144.186 142.885 Q147.265 138.279 153.075 138.279 Z" fill="#000000" fill-rule="evenodd" fill-opacity="1" /><path clip-path="url(#clip332)" d="
M303.629 1182.47 L303.629 1133.36 L261.917 1133.36 L261.917 1128.4 L303.629 1128.4 L303.629 1052.28 L303.629 1128.4 L345.34 1128.4 L345.34 1133.36 L303.629 1133.36 
  L303.629 1182.47  Z
  " fill="#008000" fill-rule="evenodd" fill-opacity="1"/>
<polyline clip-path="url(#clip332)" style="stroke:#008000; stroke-width:2; stroke-opacity:1; fill:none" points="
  303.629,1182.47 303.629,1133.36 261.917,1133.36 261.917,1128.4 303.629,1128.4 303.629,1052.28 303.629,1128.4 345.34,1128.4 345.34,1133.36 303.629,1133.36 
  303.629,1182.47 
  "/>
<path clip-path="url(#clip332)" d="
M396.32 1173.28 L396.32 1159.49 L354.609 1159.49 L354.609 1079.56 L396.32 1079.56 L396.32 1029.03 L396.32 1079.56 L438.031 1079.56 L438.031 1159.49 L396.32 1159.49 
  L396.32 1173.28  Z
  " fill="#ff0000" fill-rule="evenodd" fill-opacity="1"/>
<polyline clip-path="url(#clip332)" style="stroke:#ff0000; stroke-width:2; stroke-opacity:1; fill:none" points="
  396.32,1173.28 396.32,1159.49 354.609,1159.49 354.609,1079.56 396.32,1079.56 396.32,1029.03 396.32,1079.56 438.031,1079.56 438.031,1159.49 396.32,1159.49 
  396.32,1173.28 
  "/>
<path clip-path="url(#clip332)" d="
M489.011 1294.59 L489.011 1162.24 L447.3 1162.24 L447.3 1160.47 L489.011 1160.47 L489.011 1105.14 L489.011 1160.47 L530.722 1160.47 L530.722 1162.24 L489.011 1162.24 
  L489.011 1294.59  Z
  " fill="#ff0000" fill-rule="evenodd" fill-opacity="1"/>
<polyline clip-path="url(#clip332)" style="stroke:#ff0000; stroke-width:2; stroke-opacity:1; fill:none" points="
  489.011,1294.59 489.011,1162.24 447.3,1162.24 447.3,1160.47 489.011,1160.47 489.011,1105.14 489.011,1160.47 530.722,1160.47 530.722,1162.24 489.011,1162.24 
  489.011,1294.59 
  "/>
<path clip-path="url(#clip332)" d="
M581.703 1281.65 L581.703 1196.92 L539.991 1196.92 L539.991 1183.89 L581.703 1183.89 L581.703 1136.15 L581.703 1183.89 L623.414 1183.89 L623.414 1196.92 L581.703 1196.92 
  L581.703 1281.65  Z
  " fill="#ff0000" fill-rule="evenodd" fill-opacity="1"/>
<polyline clip-path="url(#clip332)" style="stroke:#ff0000; stroke-width:2; stroke-opacity:1; fill:none" points="
  581.703,1281.65 581.703,1196.92 539.991,1196.92 539.991,1183.89 581.703,1183.89 581.703,1136.15 581.703,1183.89 623.414,1183.89 623.414,1196.92 581.703,1196.92 
  581.703,1281.65 
  "/>
<path clip-path="url(#clip332)" d="
M674.394 1275.35 L674.394 1227.1 L632.683 1227.1 L632.683 1116.63 L674.394 1116.63 L674.394 1106.87 L674.394 1116.63 L716.105 1116.63 L716.105 1227.1 L674.394 1227.1 
  L674.394 1275.35  Z
  " fill="#008000" fill-rule="evenodd" fill-opacity="1"/>
<polyline clip-path="url(#clip332)" style="stroke:#008000; stroke-width:2; stroke-opacity:1; fill:none" points="
  674.394,1275.35 674.394,1227.1 632.683,1227.1 632.683,1116.63 674.394,1116.63 674.394,1106.87 674.394,1116.63 716.105,1116.63 716.105,1227.1 674.394,1227.1 
  674.394,1275.35 
  "/>
<path clip-path="url(#clip332)" d="
M767.085 1163.54 L767.085 1118.25 L725.374 1118.25 L725.374 1110.02 L767.085 1110.02 L767.085 1058.27 L767.085 1110.02 L808.796 1110.02 L808.796 1118.25 L767.085 1118.25 
  L767.085 1163.54  Z
  " fill="#ff0000" fill-rule="evenodd" fill-opacity="1"/>
<polyline clip-path="url(#clip332)" style="stroke:#ff0000; stroke-width:2; stroke-opacity:1; fill:none" points="
  767.085,1163.54 767.085,1118.25 725.374,1118.25 725.374,1110.02 767.085,1110.02 767.085,1058.27 767.085,1110.02 808.796,1110.02 808.796,1118.25 767.085,1118.25 
  767.085,1163.54 
  "/>
<path clip-path="url(#clip332)" d="
M859.777 1113.5 L859.777 1104.16 L818.065 1104.16 L818.065 1066.73 L859.777 1066.73 L859.777 969.537 L859.777 1066.73 L901.488 1066.73 L901.488 1104.16 L859.777 1104.16 
  L859.777 1113.5  Z
  " fill="#008000" fill-rule="evenodd" fill-opacity="1"/>
<polyline clip-path="url(#clip332)" style="stroke:#008000; stroke-width:2; stroke-opacity:1; fill:none" points="
  859.777,1113.5 859.777,1104.16 818.065,1104.16 818.065,1066.73 859.777,1066.73 859.777,969.537 859.777,1066.73 901.488,1066.73 901.488,1104.16 859.777,1104.16 
  859.777,1113.5 
  "/>
<path clip-path="url(#clip332)" d="
M952.468 955.515 L952.468 951.344 L910.757 951.344 L910.757 794.712 L952.468 794.712 L952.468 774.287 L952.468 794.712 L994.179 794.712 L994.179 951.344 L952.468 951.344 
  L952.468 955.515  Z
  " fill="#008000" fill-rule="evenodd" fill-opacity="1"/>
<polyline clip-path="url(#clip332)" style="stroke:#008000; stroke-width:2; stroke-opacity:1; fill:none" points="
  952.468,955.515 952.468,951.344 910.757,951.344 910.757,794.712 952.468,794.712 952.468,774.287 952.468,794.712 994.179,794.712 994.179,951.344 952.468,951.344 
  952.468,955.515 
  "/>
<path clip-path="url(#clip332)" d="
M1045.16 740.127 L1045.16 734.933 L1003.45 734.933 L1003.45 449.179 L1045.16 449.179 L1045.16 402.898 L1045.16 449.179 L1086.87 449.179 L1086.87 734.933 L1045.16 734.933 
  L1045.16 740.127  Z
  " fill="#008000" fill-rule="evenodd" fill-opacity="1"/>
<polyline clip-path="url(#clip332)" style="stroke:#008000; stroke-width:2; stroke-opacity:1; fill:none" points="
  1045.16,740.127 1045.16,734.933 1003.45,734.933 1003.45,449.179 1045.16,449.179 1045.16,402.898 1045.16,449.179 1086.87,449.179 1086.87,734.933 1045.16,734.933 
  1045.16,740.127 
  "/>
<path clip-path="url(#clip332)" d="
M1137.85 491.485 L1137.85 461.182 L1096.14 461.182 L1096.14 452.327 L1137.85 452.327 L1137.85 401.521 L1137.85 452.327 L1179.56 452.327 L1179.56 461.182 L1137.85 461.182 
  L1137.85 491.485  Z
  " fill="#008000" fill-rule="evenodd" fill-opacity="1"/>
<polyline clip-path="url(#clip332)" style="stroke:#008000; stroke-width:2; stroke-opacity:1; fill:none" points="
  1137.85,491.485 1137.85,461.182 1096.14,461.182 1096.14,452.327 1137.85,452.327 1137.85,401.521 1137.85,452.327 1179.56,452.327 1179.56,461.182 1137.85,461.182 
  1137.85,491.485 
  "/>
<path clip-path="url(#clip332)" d="
M1230.54 450.044 L1230.54 446.897 L1188.83 446.897 L1188.83 354.216 L1230.54 354.216 L1230.54 333.279 L1230.54 354.216 L1272.25 354.216 L1272.25 446.897 L1230.54 446.897 
  L1230.54 450.044  Z
  " fill="#008000" fill-rule="evenodd" fill-opacity="1"/>
<polyline clip-path="url(#clip332)" style="stroke:#008000; stroke-width:2; stroke-opacity:1; fill:none" points="
  1230.54,450.044 1230.54,446.897 1188.83,446.897 1188.83,354.216 1230.54,354.216 1230.54,333.279 1230.54,354.216 1272.25,354.216 1272.25,446.897 1230.54,446.897 
  1230.54,450.044 
  "/>
<path clip-path="url(#clip332)" d="
M1323.23 322.733 L1323.23 292.193 L1281.52 292.193 L1281.52 242.921 L1323.23 242.921 L1323.23 219.132 L1323.23 242.921 L1364.94 242.921 L1364.94 292.193 L1323.23 292.193 
  L1323.23 322.733  Z
  " fill="#ff0000" fill-rule="evenodd" fill-opacity="1"/>
<polyline clip-path="url(#clip332)" style="stroke:#ff0000; stroke-width:2; stroke-opacity:1; fill:none" points="
  1323.23,322.733 1323.23,292.193 1281.52,292.193 1281.52,242.921 1323.23,242.921 1323.23,219.132 1323.23,242.921 1364.94,242.921 1364.94,292.193 1323.23,292.193 
  1323.23,322.733 
  "/>
<path clip-path="url(#clip332)" d="
M1415.92 338.34 L1415.92 326.589 L1374.21 326.589 L1374.21 211.753 L1415.92 211.753 L1415.92 199.316 L1415.92 211.753 L1457.64 211.753 L1457.64 326.589 L1415.92 326.589 
  L1415.92 338.34  Z
  " fill="#008000" fill-rule="evenodd" fill-opacity="1"/>
<polyline clip-path="url(#clip332)" style="stroke:#008000; stroke-width:2; stroke-opacity:1; fill:none" points="
  1415.92,338.34 1415.92,326.589 1374.21,326.589 1374.21,211.753 1415.92,211.753 1415.92,199.316 1415.92,211.753 1457.64,211.753 1457.64,326.589 1415.92,326.589 
  1415.92,338.34 
  "/>
<path clip-path="url(#clip332)" d="
M1508.62 398.352 L1508.62 334.106 L1466.9 334.106 L1466.9 289.006 L1508.62 289.006 L1508.62 253.311 L1508.62 289.006 L1550.33 289.006 L1550.33 334.106 L1508.62 334.106 
  L1508.62 398.352  Z
  " fill="#ff0000" fill-rule="evenodd" fill-opacity="1"/>
<polyline clip-path="url(#clip332)" style="stroke:#ff0000; stroke-width:2; stroke-opacity:1; fill:none" points="
  1508.62,398.352 1508.62,334.106 1466.9,334.106 1466.9,289.006 1508.62,289.006 1508.62,253.311 1508.62,289.006 1550.33,289.006 1550.33,334.106 1508.62,334.106 
  1508.62,398.352 
  "/>
<path clip-path="url(#clip332)" d="
M1601.31 328.989 L1601.31 307.817 L1559.6 307.817 L1559.6 284.991 L1601.31 284.991 L1601.31 245.873 L1601.31 284.991 L1643.02 284.991 L1643.02 307.817 L1601.31 307.817 
  L1601.31 328.989  Z
  " fill="#008000" fill-rule="evenodd" fill-opacity="1"/>
<polyline clip-path="url(#clip332)" style="stroke:#008000; stroke-width:2; stroke-opacity:1; fill:none" points="
  1601.31,328.989 1601.31,307.817 1559.6,307.817 1559.6,284.991 1601.31,284.991 1601.31,245.873 1601.31,284.991 1643.02,284.991 1643.02,307.817 1601.31,307.817 
  1601.31,328.989 
  "/>
<path clip-path="url(#clip332)" d="
M1694 356.145 L1694 333.909 L1652.29 333.909 L1652.29 253.941 L1694 253.941 L1694 242.803 L1694 253.941 L1735.71 253.941 L1735.71 333.909 L1694 333.909 
  L1694 356.145  Z
  " fill="#ff0000" fill-rule="evenodd" fill-opacity="1"/>
<polyline clip-path="url(#clip332)" style="stroke:#ff0000; stroke-width:2; stroke-opacity:1; fill:none" points="
  1694,356.145 1694,333.909 1652.29,333.909 1652.29,253.941 1694,253.941 1694,242.803 1694,253.941 1735.71,253.941 1735.71,333.909 1694,333.909 
  1694,356.145 
  "/>
<path clip-path="url(#clip332)" d="
M1786.69 289.989 L1786.69 246.778 L1744.98 246.778 L1744.98 169.329 L1786.69 169.329 L1786.69 130.222 L1786.69 169.329 L1828.4 169.329 L1828.4 246.778 L1786.69 246.778 
  L1786.69 289.989  Z
  " fill="#008000" fill-rule="evenodd" fill-opacity="1"/>
<polyline clip-path="url(#clip332)" style="stroke:#008000; stroke-width:2; stroke-opacity:1; fill:none" points="
  1786.69,289.989 1786.69,246.778 1744.98,246.778 1744.98,169.329 1786.69,169.329 1786.69,130.222 1786.69,169.329 1828.4,169.329 1828.4,246.778 1786.69,246.778 
  1786.69,289.989 
  "/>
<path clip-path="url(#clip332)" d="
M1879.38 217.38 L1879.38 164.999 L1837.67 164.999 L1837.67 144.377 L1879.38 144.377 L1879.38 130.84 L1879.38 144.377 L1921.09 144.377 L1921.09 164.999 L1879.38 164.999 
  L1879.38 217.38  Z
  " fill="#ff0000" fill-rule="evenodd" fill-opacity="1"/>
<polyline clip-path="url(#clip332)" style="stroke:#ff0000; stroke-width:2; stroke-opacity:1; fill:none" points="
  1879.38,217.38 1879.38,164.999 1837.67,164.999 1837.67,144.377 1879.38,144.377 1879.38,130.84 1879.38,144.377 1921.09,144.377 1921.09,164.999 1879.38,164.999 
  1879.38,217.38 
  "/>
<path clip-path="url(#clip332)" d="
M1972.07 204.019 L1972.07 187.746 L1930.36 187.746 L1930.36 146.739 L1972.07 146.739 L1972.07 83.5747 L1972.07 146.739 L2013.78 146.739 L2013.78 187.746 L1972.07 187.746 
  L1972.07 204.019  Z
  " fill="#008000" fill-rule="evenodd" fill-opacity="1"/>
<polyline clip-path="url(#clip332)" style="stroke:#008000; stroke-width:2; stroke-opacity:1; fill:none" points="
  1972.07,204.019 1972.07,187.746 1930.36,187.746 1930.36,146.739 1972.07,146.739 1972.07,83.5747 1972.07,146.739 2013.78,146.739 2013.78,187.746 1972.07,187.746 
  1972.07,204.019 
  "/>
<path clip-path="url(#clip332)" d="
M2064.76 267.518 L2064.76 181.253 L2023.05 181.253 L2023.05 125.133 L2064.76 125.133 L2064.76 118.403 L2064.76 125.133 L2106.48 125.133 L2106.48 181.253 L2064.76 181.253 
  L2064.76 267.518  Z
  " fill="#ff0000" fill-rule="evenodd" fill-opacity="1"/>
<polyline clip-path="url(#clip332)" style="stroke:#ff0000; stroke-width:2; stroke-opacity:1; fill:none" points="
  2064.76,267.518 2064.76,181.253 2023.05,181.253 2023.05,125.133 2064.76,125.133 2064.76,118.403 2064.76,125.133 2106.48,125.133 2106.48,181.253 2064.76,181.253 
  2064.76,267.518 
  "/>
<path clip-path="url(#clip332)" d="
M2157.46 319.23 L2157.46 214.232 L2115.74 214.232 L2115.74 182.591 L2157.46 182.591 L2157.46 174.601 L2157.46 182.591 L2199.17 182.591 L2199.17 214.232 L2157.46 214.232 
  L2157.46 319.23  Z
  " fill="#008000" fill-rule="evenodd" fill-opacity="1"/>
<polyline clip-path="url(#clip332)" style="stroke:#008000; stroke-width:2; stroke-opacity:1; fill:none" points="
  2157.46,319.23 2157.46,214.232 2115.74,214.232 2115.74,182.591 2157.46,182.591 2157.46,174.601 2157.46,182.591 2199.17,182.591 2199.17,214.232 2157.46,214.232 
  2157.46,319.23 
  "/>
<path clip-path="url(#clip332)" d="
M2250.15 327.573 L2250.15 282.434 L2208.44 282.434 L2208.44 182.827 L2250.15 182.827 L2250.15 141.379 L2250.15 182.827 L2291.86 182.827 L2291.86 282.434 L2250.15 282.434 
  L2250.15 327.573  Z
  " fill="#ff0000" fill-rule="evenodd" fill-opacity="1"/>
<polyline clip-path="url(#clip332)" style="stroke:#ff0000; stroke-width:2; stroke-opacity:1; fill:none" points="
  2250.15,327.573 2250.15,282.434 2208.44,282.434 2208.44,182.827 2250.15,182.827 2250.15,141.379 2250.15,182.827 2291.86,182.827 2291.86,282.434 2250.15,282.434 
  2250.15,327.573 
  "/>
<circle clip-path="url(#clip332)" cx="303.629" cy="1130.88" r="3" fill="#008000" fill-rule="evenodd" fill-opacity="1" stroke="#000000" stroke-opacity="1" stroke-width="0"/>
<circle clip-path="url(#clip332)" cx="396.32" cy="1119.53" r="3" fill="#ff0000" fill-rule="evenodd" fill-opacity="1" stroke="#000000" stroke-opacity="1" stroke-width="0"/>
<circle clip-path="url(#clip332)" cx="489.011" cy="1161.36" r="3" fill="#ff0000" fill-rule="evenodd" fill-opacity="1" stroke="#000000" stroke-opacity="1" stroke-width="0"/>
<circle clip-path="url(#clip332)" cx="581.703" cy="1190.4" r="3" fill="#ff0000" fill-rule="evenodd" fill-opacity="1" stroke="#000000" stroke-opacity="1" stroke-width="0"/>
<circle clip-path="url(#clip332)" cx="674.394" cy="1171.87" r="3" fill="#008000" fill-rule="evenodd" fill-opacity="1" stroke="#000000" stroke-opacity="1" stroke-width="0"/>
<circle clip-path="url(#clip332)" cx="767.085" cy="1114.13" r="3" fill="#ff0000" fill-rule="evenodd" fill-opacity="1" stroke="#000000" stroke-opacity="1" stroke-width="0"/>
<circle clip-path="url(#clip332)" cx="859.777" cy="1085.44" r="3" fill="#008000" fill-rule="evenodd" fill-opacity="1" stroke="#000000" stroke-opacity="1" stroke-width="0"/>
<circle clip-path="url(#clip332)" cx="952.468" cy="873.028" r="3" fill="#008000" fill-rule="evenodd" fill-opacity="1" stroke="#000000" stroke-opacity="1" stroke-width="0"/>
<circle clip-path="url(#clip332)" cx="1045.16" cy="592.056" r="3" fill="#008000" fill-rule="evenodd" fill-opacity="1" stroke="#000000" stroke-opacity="1" stroke-width="0"/>
<circle clip-path="url(#clip332)" cx="1137.85" cy="456.755" r="3" fill="#008000" fill-rule="evenodd" fill-opacity="1" stroke="#000000" stroke-opacity="1" stroke-width="0"/>
<circle clip-path="url(#clip332)" cx="1230.54" cy="400.556" r="3" fill="#008000" fill-rule="evenodd" fill-opacity="1" stroke="#000000" stroke-opacity="1" stroke-width="0"/>
<circle clip-path="url(#clip332)" cx="1323.23" cy="267.557" r="3" fill="#ff0000" fill-rule="evenodd" fill-opacity="1" stroke="#000000" stroke-opacity="1" stroke-width="0"/>
<circle clip-path="url(#clip332)" cx="1415.92" cy="269.171" r="3" fill="#008000" fill-rule="evenodd" fill-opacity="1" stroke="#000000" stroke-opacity="1" stroke-width="0"/>
<circle clip-path="url(#clip332)" cx="1508.62" cy="311.556" r="3" fill="#ff0000" fill-rule="evenodd" fill-opacity="1" stroke="#000000" stroke-opacity="1" stroke-width="0"/>
<circle clip-path="url(#clip332)" cx="1601.31" cy="296.404" r="3" fill="#008000" fill-rule="evenodd" fill-opacity="1" stroke="#000000" stroke-opacity="1" stroke-width="0"/>
<circle clip-path="url(#clip332)" cx="1694" cy="293.925" r="3" fill="#ff0000" fill-rule="evenodd" fill-opacity="1" stroke="#000000" stroke-opacity="1" stroke-width="0"/>
<circle clip-path="url(#clip332)" cx="1786.69" cy="208.053" r="3" fill="#008000" fill-rule="evenodd" fill-opacity="1" stroke="#000000" stroke-opacity="1" stroke-width="0"/>
<circle clip-path="url(#clip332)" cx="1879.38" cy="154.688" r="3" fill="#ff0000" fill-rule="evenodd" fill-opacity="1" stroke="#000000" stroke-opacity="1" stroke-width="0"/>
<circle clip-path="url(#clip332)" cx="1972.07" cy="167.243" r="3" fill="#008000" fill-rule="evenodd" fill-opacity="1" stroke="#000000" stroke-opacity="1" stroke-width="0"/>
<circle clip-path="url(#clip332)" cx="2064.76" cy="153.193" r="3" fill="#ff0000" fill-rule="evenodd" fill-opacity="1" stroke="#000000" stroke-opacity="1" stroke-width="0"/>
<circle clip-path="url(#clip332)" cx="2157.46" cy="198.411" r="3" fill="#008000" fill-rule="evenodd" fill-opacity="1" stroke="#000000" stroke-opacity="1" stroke-width="0"/>
<circle clip-path="url(#clip332)" cx="2250.15" cy="232.63" r="3" fill="#ff0000" fill-rule="evenodd" fill-opacity="1" stroke="#000000" stroke-opacity="1" stroke-width="0"/>
</svg>
