<?xml version="1.0" encoding="utf-8"?>
<svg xmlns="http://www.w3.org/2000/svg" xmlns:xlink="http://www.w3.org/1999/xlink" width="600" height="400" viewBox="0 0 2400 1600">
<defs>
  <clipPath id="clip650">
    <rect x="0" y="0" width="2400" height="1600"/>
  </clipPath>
</defs>
<path clip-path="url(#clip650)" d="
M0 1600 L2400 1600 L2400 0 L0 0  Z
  " fill="#ffffff" fill-rule="evenodd" fill-opacity="1"/>
<defs>
  <clipPath id="clip651">
    <rect x="480" y="0" width="1681" height="1600"/>
  </clipPath>
</defs>
<path clip-path="url(#clip650)" d="
M201.019 1486.45 L2352.76 1486.45 L2352.76 47.2441 L201.019 47.2441  Z
  " fill="#ffffff" fill-rule="evenodd" fill-opacity="1"/>
<defs>
  <clipPath id="clip652">
    <rect x="201" y="47" width="2153" height="1440"/>
  </clipPath>
</defs>
<polyline clip-path="url(#clip652)" style="stroke:#000000; stroke-linecap:butt; stroke-linejoin:round; stroke-width:2; stroke-opacity:0.1; fill:none" points="
  261.917,1486.45 261.917,47.2441 
  "/>
<polyline clip-path="url(#clip652)" style="stroke:#000000; stroke-linecap:butt; stroke-linejoin:round; stroke-width:2; stroke-opacity:0.1; fill:none" points="
  803.235,1486.45 803.235,47.2441 
  "/>
<polyline clip-path="url(#clip652)" style="stroke:#000000; stroke-linecap:butt; stroke-linejoin:round; stroke-width:2; stroke-opacity:0.1; fill:none" points="
  1344.55,1486.45 1344.55,47.2441 
  "/>
<polyline clip-path="url(#clip652)" style="stroke:#000000; stroke-linecap:butt; stroke-linejoin:round; stroke-width:2; stroke-opacity:0.1; fill:none" points="
  1885.87,1486.45 1885.87,47.2441 
  "/>
<polyline clip-path="url(#clip650)" style="stroke:#000000; stroke-linecap:butt; stroke-linejoin:round; stroke-width:4; stroke-opacity:1; fill:none" points="
  201.019,1486.45 2352.76,1486.45 
  "/>
<polyline clip-path="url(#clip650)" style="stroke:#000000; stroke-linecap:butt; stroke-linejoin:round; stroke-width:4; stroke-opacity:1; fill:none" points="
  261.917,1486.45 261.917,1469.18 
  "/>
<polyline clip-path="url(#clip650)" style="stroke:#000000; stroke-linecap:butt; stroke-linejoin:round; stroke-width:4; stroke-opacity:1; fill:none" points="
  803.235,1486.45 803.235,1469.18 
  "/>
<polyline clip-path="url(#clip650)" style="stroke:#000000; stroke-linecap:butt; stroke-linejoin:round; stroke-width:4; stroke-opacity:1; fill:none" points="
  1344.55,1486.45 1344.55,1469.18 
  "/>
<polyline clip-path="url(#clip650)" style="stroke:#000000; stroke-linecap:butt; stroke-linejoin:round; stroke-width:4; stroke-opacity:1; fill:none" points="
  1885.87,1486.45 1885.87,1469.18 
  "/>
<path clip-path="url(#clip650)" d="M133.897 1543.18 L150.217 1543.18 L150.217 1547.12 L128.272 1547.12 L128.272 1543.18 Q130.934 1540.43 135.518 1535.8 Q140.124 1531.15 141.305 1529.81 Q143.55 1527.28 144.43 1525.55 Q145.332 1523.79 145.332 1522.1 Q145.332 1519.34 143.388 1517.61 Q141.467 1515.87 138.365 1515.87 Q136.166 1515.87 133.712 1516.63 Q131.282 1517.4 128.504 1518.95 L128.504 1514.23 Q131.328 1513.09 133.782 1512.51 Q136.235 1511.93 138.272 1511.93 Q143.643 1511.93 146.837 1514.62 Q150.032 1517.31 150.032 1521.8 Q150.032 1523.93 149.221 1525.85 Q148.434 1527.74 146.328 1530.34 Q145.749 1531.01 142.647 1534.23 Q139.545 1537.42 133.897 1543.18 Z" fill="#000000" fill-rule="evenodd" fill-opacity="1" /><path clip-path="url(#clip650)" d="M170.031 1515.64 Q166.42 1515.64 164.592 1519.2 Q162.786 1522.75 162.786 1529.87 Q162.786 1536.98 164.592 1540.55 Q166.42 1544.09 170.031 1544.09 Q173.666 1544.09 175.471 1540.55 Q177.3 1536.98 177.3 1529.87 Q177.3 1522.75 175.471 1519.2 Q173.666 1515.64 170.031 1515.64 M170.031 1511.93 Q175.842 1511.93 178.897 1516.54 Q181.976 1521.12 181.976 1529.87 Q181.976 1538.6 178.897 1543.21 Q175.842 1547.79 170.031 1547.79 Q164.221 1547.79 161.143 1543.21 Q158.087 1538.6 158.087 1529.87 Q158.087 1521.12 161.143 1516.54 Q164.221 1511.93 170.031 1511.93 Z" fill="#000000" fill-rule="evenodd" fill-opacity="1" /><path clip-path="url(#clip650)" d="M194.221 1543.18 L210.54 1543.18 L210.54 1547.12 L188.596 1547.12 L188.596 1543.18 Q191.258 1540.43 195.841 1535.8 Q200.448 1531.15 201.628 1529.81 Q203.874 1527.28 204.753 1525.55 Q205.656 1523.79 205.656 1522.1 Q205.656 1519.34 203.712 1517.61 Q201.791 1515.87 198.689 1515.87 Q196.49 1515.87 194.036 1516.63 Q191.605 1517.4 188.828 1518.95 L188.828 1514.23 Q191.652 1513.09 194.105 1512.51 Q196.559 1511.93 198.596 1511.93 Q203.966 1511.93 207.161 1514.62 Q210.355 1517.31 210.355 1521.8 Q210.355 1523.93 209.545 1525.85 Q208.758 1527.74 206.652 1530.34 Q206.073 1531.01 202.971 1534.23 Q199.869 1537.42 194.221 1543.18 Z" fill="#000000" fill-rule="evenodd" fill-opacity="1" /><path clip-path="url(#clip650)" d="M221.165 1543.18 L228.804 1543.18 L228.804 1516.82 L220.494 1518.49 L220.494 1514.23 L228.758 1512.56 L233.434 1512.56 L233.434 1543.18 L241.073 1543.18 L241.073 1547.12 L221.165 1547.12 L221.165 1543.18 Z" fill="#000000" fill-rule="evenodd" fill-opacity="1" /><path clip-path="url(#clip650)" d="M247.762 1532.24 L260.239 1532.24 L260.239 1536.03 L247.762 1536.03 L247.762 1532.24 Z" fill="#000000" fill-rule="evenodd" fill-opacity="1" /><path clip-path="url(#clip650)" d="M277.623 1515.64 Q274.012 1515.64 272.184 1519.2 Q270.378 1522.75 270.378 1529.87 Q270.378 1536.98 272.184 1540.55 Q274.012 1544.09 277.623 1544.09 Q281.258 1544.09 283.063 1540.55 Q284.892 1536.98 284.892 1529.87 Q284.892 1522.75 283.063 1519.2 Q281.258 1515.64 277.623 1515.64 M277.623 1511.93 Q283.434 1511.93 286.489 1516.54 Q289.568 1521.12 289.568 1529.87 Q289.568 1538.6 286.489 1543.21 Q283.434 1547.79 277.623 1547.79 Q271.813 1547.79 268.735 1543.21 Q265.679 1538.6 265.679 1529.87 Q265.679 1521.12 268.735 1516.54 Q271.813 1511.93 277.623 1511.93 Z" fill="#000000" fill-rule="evenodd" fill-opacity="1" /><path clip-path="url(#clip650)" d="M297.832 1512.56 L316.188 1512.56 L316.188 1516.5 L302.114 1516.5 L302.114 1524.97 Q303.133 1524.62 304.151 1524.46 Q305.17 1524.27 306.188 1524.27 Q311.975 1524.27 315.355 1527.44 Q318.734 1530.62 318.734 1536.03 Q318.734 1541.61 315.262 1544.71 Q311.79 1547.79 305.471 1547.79 Q303.295 1547.79 301.026 1547.42 Q298.781 1547.05 296.373 1546.31 L296.373 1541.61 Q298.457 1542.74 300.679 1543.3 Q302.901 1543.86 305.378 1543.86 Q309.383 1543.86 311.72 1541.75 Q314.058 1539.64 314.058 1536.03 Q314.058 1532.42 311.72 1530.31 Q309.383 1528.21 305.378 1528.21 Q303.503 1528.21 301.628 1528.62 Q299.776 1529.04 297.832 1529.92 L297.832 1512.56 Z" fill="#000000" fill-rule="evenodd" fill-opacity="1" /><path clip-path="url(#clip650)" d="M325.193 1532.24 L337.669 1532.24 L337.669 1536.03 L325.193 1536.03 L325.193 1532.24 Z" fill="#000000" fill-rule="evenodd" fill-opacity="1" /><path clip-path="url(#clip650)" d="M345.864 1543.18 L353.503 1543.18 L353.503 1516.82 L345.193 1518.49 L345.193 1514.23 L353.456 1512.56 L358.132 1512.56 L358.132 1543.18 L365.771 1543.18 L365.771 1547.12 L345.864 1547.12 L345.864 1543.18 Z" fill="#000000" fill-rule="evenodd" fill-opacity="1" /><path clip-path="url(#clip650)" d="M379.243 1543.18 L395.563 1543.18 L395.563 1547.12 L373.618 1547.12 L373.618 1543.18 Q376.28 1540.43 380.864 1535.8 Q385.47 1531.15 386.651 1529.81 Q388.896 1527.28 389.776 1525.55 Q390.678 1523.79 390.678 1522.1 Q390.678 1519.34 388.734 1517.61 Q386.813 1515.87 383.711 1515.87 Q381.512 1515.87 379.058 1516.63 Q376.628 1517.4 373.85 1518.95 L373.85 1514.23 Q376.674 1513.09 379.128 1512.51 Q381.581 1511.93 383.618 1511.93 Q388.989 1511.93 392.183 1514.62 Q395.377 1517.31 395.377 1521.8 Q395.377 1523.93 394.567 1525.85 Q393.78 1527.74 391.674 1530.34 Q391.095 1531.01 387.993 1534.23 Q384.891 1537.42 379.243 1543.18 Z" fill="#000000" fill-rule="evenodd" fill-opacity="1" /><path clip-path="url(#clip650)" d="M674.416 1543.18 L690.735 1543.18 L690.735 1547.12 L668.791 1547.12 L668.791 1543.18 Q671.453 1540.43 676.036 1535.8 Q680.643 1531.15 681.823 1529.81 Q684.069 1527.28 684.948 1525.55 Q685.851 1523.79 685.851 1522.1 Q685.851 1519.34 683.907 1517.61 Q681.986 1515.87 678.884 1515.87 Q676.685 1515.87 674.231 1516.63 Q671.8 1517.4 669.023 1518.95 L669.023 1514.23 Q671.847 1513.09 674.3 1512.51 Q676.754 1511.93 678.791 1511.93 Q684.161 1511.93 687.356 1514.62 Q690.55 1517.31 690.55 1521.8 Q690.55 1523.93 689.74 1525.85 Q688.953 1527.74 686.847 1530.34 Q686.268 1531.01 683.166 1534.23 Q680.064 1537.42 674.416 1543.18 Z" fill="#000000" fill-rule="evenodd" fill-opacity="1" /><path clip-path="url(#clip650)" d="M710.55 1515.64 Q706.939 1515.64 705.11 1519.2 Q703.305 1522.75 703.305 1529.87 Q703.305 1536.98 705.11 1540.55 Q706.939 1544.09 710.55 1544.09 Q714.184 1544.09 715.99 1540.55 Q717.819 1536.98 717.819 1529.87 Q717.819 1522.75 715.99 1519.2 Q714.184 1515.64 710.55 1515.64 M710.55 1511.93 Q716.36 1511.93 719.416 1516.54 Q722.495 1521.12 722.495 1529.87 Q722.495 1538.6 719.416 1543.21 Q716.36 1547.79 710.55 1547.79 Q704.74 1547.79 701.661 1543.21 Q698.606 1538.6 698.606 1529.87 Q698.606 1521.12 701.661 1516.54 Q704.74 1511.93 710.55 1511.93 Z" fill="#000000" fill-rule="evenodd" fill-opacity="1" /><path clip-path="url(#clip650)" d="M734.74 1543.18 L751.059 1543.18 L751.059 1547.12 L729.115 1547.12 L729.115 1543.18 Q731.777 1540.43 736.36 1535.8 Q740.967 1531.15 742.147 1529.81 Q744.393 1527.28 745.272 1525.55 Q746.175 1523.79 746.175 1522.1 Q746.175 1519.34 744.231 1517.61 Q742.309 1515.87 739.207 1515.87 Q737.008 1515.87 734.555 1516.63 Q732.124 1517.4 729.346 1518.95 L729.346 1514.23 Q732.17 1513.09 734.624 1512.51 Q737.078 1511.93 739.115 1511.93 Q744.485 1511.93 747.68 1514.62 Q750.874 1517.31 750.874 1521.8 Q750.874 1523.93 750.064 1525.85 Q749.277 1527.74 747.17 1530.34 Q746.592 1531.01 743.49 1534.23 Q740.388 1537.42 734.74 1543.18 Z" fill="#000000" fill-rule="evenodd" fill-opacity="1" /><path clip-path="url(#clip650)" d="M761.684 1543.18 L769.323 1543.18 L769.323 1516.82 L761.013 1518.49 L761.013 1514.23 L769.277 1512.56 L773.953 1512.56 L773.953 1543.18 L781.591 1543.18 L781.591 1547.12 L761.684 1547.12 L761.684 1543.18 Z" fill="#000000" fill-rule="evenodd" fill-opacity="1" /><path clip-path="url(#clip650)" d="M788.281 1532.24 L800.758 1532.24 L800.758 1536.03 L788.281 1536.03 L788.281 1532.24 Z" fill="#000000" fill-rule="evenodd" fill-opacity="1" /><path clip-path="url(#clip650)" d="M818.142 1515.64 Q814.531 1515.64 812.702 1519.2 Q810.897 1522.75 810.897 1529.87 Q810.897 1536.98 812.702 1540.55 Q814.531 1544.09 818.142 1544.09 Q821.776 1544.09 823.582 1540.55 Q825.411 1536.98 825.411 1529.87 Q825.411 1522.75 823.582 1519.2 Q821.776 1515.64 818.142 1515.64 M818.142 1511.93 Q823.952 1511.93 827.008 1516.54 Q830.087 1521.12 830.087 1529.87 Q830.087 1538.6 827.008 1543.21 Q823.952 1547.79 818.142 1547.79 Q812.332 1547.79 809.253 1543.21 Q806.198 1538.6 806.198 1529.87 Q806.198 1521.12 809.253 1516.54 Q812.332 1511.93 818.142 1511.93 Z" fill="#000000" fill-rule="evenodd" fill-opacity="1" /><path clip-path="url(#clip650)" d="M838.35 1512.56 L856.707 1512.56 L856.707 1516.5 L842.633 1516.5 L842.633 1524.97 Q843.651 1524.62 844.67 1524.46 Q845.688 1524.27 846.707 1524.27 Q852.494 1524.27 855.873 1527.44 Q859.253 1530.62 859.253 1536.03 Q859.253 1541.61 855.781 1544.71 Q852.309 1547.79 845.989 1547.79 Q843.813 1547.79 841.545 1547.42 Q839.3 1547.05 836.892 1546.31 L836.892 1541.61 Q838.975 1542.74 841.198 1543.3 Q843.42 1543.86 845.897 1543.86 Q849.901 1543.86 852.239 1541.75 Q854.577 1539.64 854.577 1536.03 Q854.577 1532.42 852.239 1530.31 Q849.901 1528.21 845.897 1528.21 Q844.022 1528.21 842.147 1528.62 Q840.295 1529.04 838.35 1529.92 L838.35 1512.56 Z" fill="#000000" fill-rule="evenodd" fill-opacity="1" /><path clip-path="url(#clip650)" d="M865.711 1532.24 L878.188 1532.24 L878.188 1536.03 L865.711 1536.03 L865.711 1532.24 Z" fill="#000000" fill-rule="evenodd" fill-opacity="1" /><path clip-path="url(#clip650)" d="M889.6 1543.18 L905.92 1543.18 L905.92 1547.12 L883.975 1547.12 L883.975 1543.18 Q886.637 1540.43 891.221 1535.8 Q895.827 1531.15 897.008 1529.81 Q899.253 1527.28 900.133 1525.55 Q901.035 1523.79 901.035 1522.1 Q901.035 1519.34 899.091 1517.61 Q897.17 1515.87 894.068 1515.87 Q891.869 1515.87 889.415 1516.63 Q886.984 1517.4 884.207 1518.95 L884.207 1514.23 Q887.031 1513.09 889.484 1512.51 Q891.938 1511.93 893.975 1511.93 Q899.345 1511.93 902.54 1514.62 Q905.734 1517.31 905.734 1521.8 Q905.734 1523.93 904.924 1525.85 Q904.137 1527.74 902.031 1530.34 Q901.452 1531.01 898.35 1534.23 Q895.248 1537.42 889.6 1543.18 Z" fill="#000000" fill-rule="evenodd" fill-opacity="1" /><path clip-path="url(#clip650)" d="M925.734 1515.64 Q922.123 1515.64 920.294 1519.2 Q918.489 1522.75 918.489 1529.87 Q918.489 1536.98 920.294 1540.55 Q922.123 1544.09 925.734 1544.09 Q929.368 1544.09 931.174 1540.55 Q933.003 1536.98 933.003 1529.87 Q933.003 1522.75 931.174 1519.2 Q929.368 1515.64 925.734 1515.64 M925.734 1511.93 Q931.544 1511.93 934.6 1516.54 Q937.679 1521.12 937.679 1529.87 Q937.679 1538.6 934.6 1543.21 Q931.544 1547.79 925.734 1547.79 Q919.924 1547.79 916.845 1543.21 Q913.79 1538.6 913.79 1529.87 Q913.79 1521.12 916.845 1516.54 Q919.924 1511.93 925.734 1511.93 Z" fill="#000000" fill-rule="evenodd" fill-opacity="1" /><path clip-path="url(#clip650)" d="M1215.78 1543.18 L1232.1 1543.18 L1232.1 1547.12 L1210.15 1547.12 L1210.15 1543.18 Q1212.82 1540.43 1217.4 1535.8 Q1222.01 1531.15 1223.19 1529.81 Q1225.43 1527.28 1226.31 1525.55 Q1227.21 1523.79 1227.21 1522.1 Q1227.21 1519.34 1225.27 1517.61 Q1223.35 1515.87 1220.25 1515.87 Q1218.05 1515.87 1215.59 1516.63 Q1213.16 1517.4 1210.39 1518.95 L1210.39 1514.23 Q1213.21 1513.09 1215.66 1512.51 Q1218.12 1511.93 1220.15 1511.93 Q1225.53 1511.93 1228.72 1514.62 Q1231.91 1517.31 1231.91 1521.8 Q1231.91 1523.93 1231.1 1525.85 Q1230.32 1527.74 1228.21 1530.34 Q1227.63 1531.01 1224.53 1534.23 Q1221.43 1537.42 1215.78 1543.18 Z" fill="#000000" fill-rule="evenodd" fill-opacity="1" /><path clip-path="url(#clip650)" d="M1251.91 1515.64 Q1248.3 1515.64 1246.47 1519.2 Q1244.67 1522.75 1244.67 1529.87 Q1244.67 1536.98 1246.47 1540.55 Q1248.3 1544.09 1251.91 1544.09 Q1255.55 1544.09 1257.35 1540.55 Q1259.18 1536.98 1259.18 1529.87 Q1259.18 1522.75 1257.35 1519.2 Q1255.55 1515.64 1251.91 1515.64 M1251.91 1511.93 Q1257.72 1511.93 1260.78 1516.54 Q1263.86 1521.12 1263.86 1529.87 Q1263.86 1538.6 1260.78 1543.21 Q1257.72 1547.79 1251.91 1547.79 Q1246.1 1547.79 1243.03 1543.21 Q1239.97 1538.6 1239.97 1529.87 Q1239.97 1521.12 1243.03 1516.54 Q1246.1 1511.93 1251.91 1511.93 Z" fill="#000000" fill-rule="evenodd" fill-opacity="1" /><path clip-path="url(#clip650)" d="M1276.1 1543.18 L1292.42 1543.18 L1292.42 1547.12 L1270.48 1547.12 L1270.48 1543.18 Q1273.14 1540.43 1277.72 1535.8 Q1282.33 1531.15 1283.51 1529.81 Q1285.76 1527.28 1286.64 1525.55 Q1287.54 1523.79 1287.54 1522.1 Q1287.54 1519.34 1285.59 1517.61 Q1283.67 1515.87 1280.57 1515.87 Q1278.37 1515.87 1275.92 1516.63 Q1273.49 1517.4 1270.71 1518.95 L1270.71 1514.23 Q1273.53 1513.09 1275.99 1512.51 Q1278.44 1511.93 1280.48 1511.93 Q1285.85 1511.93 1289.04 1514.62 Q1292.24 1517.31 1292.24 1521.8 Q1292.24 1523.93 1291.43 1525.85 Q1290.64 1527.74 1288.53 1530.34 Q1287.96 1531.01 1284.85 1534.23 Q1281.75 1537.42 1276.1 1543.18 Z" fill="#000000" fill-rule="evenodd" fill-opacity="1" /><path clip-path="url(#clip650)" d="M1303.05 1543.18 L1310.69 1543.18 L1310.69 1516.82 L1302.38 1518.49 L1302.38 1514.23 L1310.64 1512.56 L1315.32 1512.56 L1315.32 1543.18 L1322.96 1543.18 L1322.96 1547.12 L1303.05 1547.12 L1303.05 1543.18 Z" fill="#000000" fill-rule="evenodd" fill-opacity="1" /><path clip-path="url(#clip650)" d="M1329.64 1532.24 L1342.12 1532.24 L1342.12 1536.03 L1329.64 1536.03 L1329.64 1532.24 Z" fill="#000000" fill-rule="evenodd" fill-opacity="1" /><path clip-path="url(#clip650)" d="M1359.51 1515.64 Q1355.89 1515.64 1354.07 1519.2 Q1352.26 1522.75 1352.26 1529.87 Q1352.26 1536.98 1354.07 1540.55 Q1355.89 1544.09 1359.51 1544.09 Q1363.14 1544.09 1364.95 1540.55 Q1366.77 1536.98 1366.77 1529.87 Q1366.77 1522.75 1364.95 1519.2 Q1363.14 1515.64 1359.51 1515.64 M1359.51 1511.93 Q1365.32 1511.93 1368.37 1516.54 Q1371.45 1521.12 1371.45 1529.87 Q1371.45 1538.6 1368.37 1543.21 Q1365.32 1547.79 1359.51 1547.79 Q1353.7 1547.79 1350.62 1543.21 Q1347.56 1538.6 1347.56 1529.87 Q1347.56 1521.12 1350.62 1516.54 Q1353.7 1511.93 1359.51 1511.93 Z" fill="#000000" fill-rule="evenodd" fill-opacity="1" /><path clip-path="url(#clip650)" d="M1379.71 1512.56 L1398.07 1512.56 L1398.07 1516.5 L1384 1516.5 L1384 1524.97 Q1385.02 1524.62 1386.03 1524.46 Q1387.05 1524.27 1388.07 1524.27 Q1393.86 1524.27 1397.24 1527.44 Q1400.62 1530.62 1400.62 1536.03 Q1400.62 1541.61 1397.14 1544.71 Q1393.67 1547.79 1387.35 1547.79 Q1385.18 1547.79 1382.91 1547.42 Q1380.66 1547.05 1378.26 1546.31 L1378.26 1541.61 Q1380.34 1542.74 1382.56 1543.3 Q1384.78 1543.86 1387.26 1543.86 Q1391.26 1543.86 1393.6 1541.75 Q1395.94 1539.64 1395.94 1536.03 Q1395.94 1532.42 1393.6 1530.31 Q1391.26 1528.21 1387.26 1528.21 Q1385.39 1528.21 1383.51 1528.62 Q1381.66 1529.04 1379.71 1529.92 L1379.71 1512.56 Z" fill="#000000" fill-rule="evenodd" fill-opacity="1" /><path clip-path="url(#clip650)" d="M1407.08 1532.24 L1419.55 1532.24 L1419.55 1536.03 L1407.08 1536.03 L1407.08 1532.24 Z" fill="#000000" fill-rule="evenodd" fill-opacity="1" /><path clip-path="url(#clip650)" d="M1430.96 1543.18 L1447.28 1543.18 L1447.28 1547.12 L1425.34 1547.12 L1425.34 1543.18 Q1428 1540.43 1432.58 1535.8 Q1437.19 1531.15 1438.37 1529.81 Q1440.62 1527.28 1441.5 1525.55 Q1442.4 1523.79 1442.4 1522.1 Q1442.4 1519.34 1440.45 1517.61 Q1438.53 1515.87 1435.43 1515.87 Q1433.23 1515.87 1430.78 1516.63 Q1428.35 1517.4 1425.57 1518.95 L1425.57 1514.23 Q1428.39 1513.09 1430.85 1512.51 Q1433.3 1511.93 1435.34 1511.93 Q1440.71 1511.93 1443.9 1514.62 Q1447.1 1517.31 1447.1 1521.8 Q1447.1 1523.93 1446.29 1525.85 Q1445.5 1527.74 1443.39 1530.34 Q1442.82 1531.01 1439.71 1534.23 Q1436.61 1537.42 1430.96 1543.18 Z" fill="#000000" fill-rule="evenodd" fill-opacity="1" /><path clip-path="url(#clip650)" d="M1467.1 1530.71 Q1463.76 1530.71 1461.84 1532.49 Q1459.95 1534.27 1459.95 1537.4 Q1459.95 1540.52 1461.84 1542.31 Q1463.76 1544.09 1467.1 1544.09 Q1470.43 1544.09 1472.35 1542.31 Q1474.27 1540.5 1474.27 1537.4 Q1474.27 1534.27 1472.35 1532.49 Q1470.45 1530.71 1467.1 1530.71 M1462.42 1528.72 Q1459.41 1527.98 1457.72 1525.92 Q1456.06 1523.86 1456.06 1520.89 Q1456.06 1516.75 1459 1514.34 Q1461.96 1511.93 1467.1 1511.93 Q1472.26 1511.93 1475.2 1514.34 Q1478.14 1516.75 1478.14 1520.89 Q1478.14 1523.86 1476.45 1525.92 Q1474.78 1527.98 1471.8 1528.72 Q1475.18 1529.5 1477.05 1531.8 Q1478.95 1534.09 1478.95 1537.4 Q1478.95 1542.42 1475.87 1545.11 Q1472.82 1547.79 1467.1 1547.79 Q1461.38 1547.79 1458.3 1545.11 Q1455.25 1542.42 1455.25 1537.4 Q1455.25 1534.09 1457.14 1531.8 Q1459.04 1529.5 1462.42 1528.72 M1460.71 1521.33 Q1460.71 1524.02 1462.38 1525.52 Q1464.07 1527.03 1467.1 1527.03 Q1470.11 1527.03 1471.8 1525.52 Q1473.51 1524.02 1473.51 1521.33 Q1473.51 1518.65 1471.8 1517.14 Q1470.11 1515.64 1467.1 1515.64 Q1464.07 1515.64 1462.38 1517.14 Q1460.71 1518.65 1460.71 1521.33 Z" fill="#000000" fill-rule="evenodd" fill-opacity="1" /><path clip-path="url(#clip650)" d="M1757.55 1543.18 L1773.87 1543.18 L1773.87 1547.12 L1751.92 1547.12 L1751.92 1543.18 Q1754.59 1540.43 1759.17 1535.8 Q1763.78 1531.15 1764.96 1529.81 Q1767.2 1527.28 1768.08 1525.55 Q1768.98 1523.79 1768.98 1522.1 Q1768.98 1519.34 1767.04 1517.61 Q1765.12 1515.87 1762.02 1515.87 Q1759.82 1515.87 1757.36 1516.63 Q1754.93 1517.4 1752.16 1518.95 L1752.16 1514.23 Q1754.98 1513.09 1757.43 1512.51 Q1759.89 1511.93 1761.92 1511.93 Q1767.29 1511.93 1770.49 1514.62 Q1773.68 1517.31 1773.68 1521.8 Q1773.68 1523.93 1772.87 1525.85 Q1772.09 1527.74 1769.98 1530.34 Q1769.4 1531.01 1766.3 1534.23 Q1763.2 1537.42 1757.55 1543.18 Z" fill="#000000" fill-rule="evenodd" fill-opacity="1" /><path clip-path="url(#clip650)" d="M1793.68 1515.64 Q1790.07 1515.64 1788.24 1519.2 Q1786.44 1522.75 1786.44 1529.87 Q1786.44 1536.98 1788.24 1540.55 Q1790.07 1544.09 1793.68 1544.09 Q1797.32 1544.09 1799.12 1540.55 Q1800.95 1536.98 1800.95 1529.87 Q1800.95 1522.75 1799.12 1519.2 Q1797.32 1515.64 1793.68 1515.64 M1793.68 1511.93 Q1799.49 1511.93 1802.55 1516.54 Q1805.63 1521.12 1805.63 1529.87 Q1805.63 1538.6 1802.55 1543.21 Q1799.49 1547.79 1793.68 1547.79 Q1787.87 1547.79 1784.79 1543.21 Q1781.74 1538.6 1781.74 1529.87 Q1781.74 1521.12 1784.79 1516.54 Q1787.87 1511.93 1793.68 1511.93 Z" fill="#000000" fill-rule="evenodd" fill-opacity="1" /><path clip-path="url(#clip650)" d="M1817.87 1543.18 L1834.19 1543.18 L1834.19 1547.12 L1812.25 1547.12 L1812.25 1543.18 Q1814.91 1540.43 1819.49 1535.8 Q1824.1 1531.15 1825.28 1529.81 Q1827.53 1527.28 1828.4 1525.55 Q1829.31 1523.79 1829.31 1522.1 Q1829.31 1519.34 1827.36 1517.61 Q1825.44 1515.87 1822.34 1515.87 Q1820.14 1515.87 1817.69 1516.63 Q1815.26 1517.4 1812.48 1518.95 L1812.48 1514.23 Q1815.3 1513.09 1817.76 1512.51 Q1820.21 1511.93 1822.25 1511.93 Q1827.62 1511.93 1830.81 1514.62 Q1834.01 1517.31 1834.01 1521.8 Q1834.01 1523.93 1833.2 1525.85 Q1832.41 1527.74 1830.3 1530.34 Q1829.72 1531.01 1826.62 1534.23 Q1823.52 1537.42 1817.87 1543.18 Z" fill="#000000" fill-rule="evenodd" fill-opacity="1" /><path clip-path="url(#clip650)" d="M1844.82 1543.18 L1852.46 1543.18 L1852.46 1516.82 L1844.15 1518.49 L1844.15 1514.23 L1852.41 1512.56 L1857.09 1512.56 L1857.09 1543.18 L1864.72 1543.18 L1864.72 1547.12 L1844.82 1547.12 L1844.82 1543.18 Z" fill="#000000" fill-rule="evenodd" fill-opacity="1" /><path clip-path="url(#clip650)" d="M1871.41 1532.24 L1883.89 1532.24 L1883.89 1536.03 L1871.41 1536.03 L1871.41 1532.24 Z" fill="#000000" fill-rule="evenodd" fill-opacity="1" /><path clip-path="url(#clip650)" d="M1901.27 1515.64 Q1897.66 1515.64 1895.83 1519.2 Q1894.03 1522.75 1894.03 1529.87 Q1894.03 1536.98 1895.83 1540.55 Q1897.66 1544.09 1901.27 1544.09 Q1904.91 1544.09 1906.71 1540.55 Q1908.54 1536.98 1908.54 1529.87 Q1908.54 1522.75 1906.71 1519.2 Q1904.91 1515.64 1901.27 1515.64 M1901.27 1511.93 Q1907.08 1511.93 1910.14 1516.54 Q1913.22 1521.12 1913.22 1529.87 Q1913.22 1538.6 1910.14 1543.21 Q1907.08 1547.79 1901.27 1547.79 Q1895.46 1547.79 1892.39 1543.21 Q1889.33 1538.6 1889.33 1529.87 Q1889.33 1521.12 1892.39 1516.54 Q1895.46 1511.93 1901.27 1511.93 Z" fill="#000000" fill-rule="evenodd" fill-opacity="1" /><path clip-path="url(#clip650)" d="M1932.02 1527.98 Q1928.87 1527.98 1927.02 1530.13 Q1925.19 1532.28 1925.19 1536.03 Q1925.19 1539.76 1927.02 1541.93 Q1928.87 1544.09 1932.02 1544.09 Q1935.16 1544.09 1936.99 1541.93 Q1938.84 1539.76 1938.84 1536.03 Q1938.84 1532.28 1936.99 1530.13 Q1935.16 1527.98 1932.02 1527.98 M1941.3 1513.32 L1941.3 1517.58 Q1939.54 1516.75 1937.73 1516.31 Q1935.95 1515.87 1934.19 1515.87 Q1929.56 1515.87 1927.11 1519 Q1924.68 1522.12 1924.33 1528.44 Q1925.7 1526.43 1927.76 1525.36 Q1929.82 1524.27 1932.29 1524.27 Q1937.5 1524.27 1940.51 1527.44 Q1943.54 1530.59 1943.54 1536.03 Q1943.54 1541.36 1940.39 1544.57 Q1937.25 1547.79 1932.02 1547.79 Q1926.02 1547.79 1922.85 1543.21 Q1919.68 1538.6 1919.68 1529.87 Q1919.68 1521.68 1923.57 1516.82 Q1927.46 1511.93 1934.01 1511.93 Q1935.77 1511.93 1937.55 1512.28 Q1939.35 1512.63 1941.3 1513.32 Z" fill="#000000" fill-rule="evenodd" fill-opacity="1" /><path clip-path="url(#clip650)" d="M1948.84 1532.24 L1961.32 1532.24 L1961.32 1536.03 L1948.84 1536.03 L1948.84 1532.24 Z" fill="#000000" fill-rule="evenodd" fill-opacity="1" /><path clip-path="url(#clip650)" d="M1978.7 1515.64 Q1975.09 1515.64 1973.27 1519.2 Q1971.46 1522.75 1971.46 1529.87 Q1971.46 1536.98 1973.27 1540.55 Q1975.09 1544.09 1978.7 1544.09 Q1982.34 1544.09 1984.14 1540.55 Q1985.97 1536.98 1985.97 1529.87 Q1985.97 1522.75 1984.14 1519.2 Q1982.34 1515.64 1978.7 1515.64 M1978.7 1511.93 Q1984.51 1511.93 1987.57 1516.54 Q1990.65 1521.12 1990.65 1529.87 Q1990.65 1538.6 1987.57 1543.21 Q1984.51 1547.79 1978.7 1547.79 Q1972.89 1547.79 1969.82 1543.21 Q1966.76 1538.6 1966.76 1529.87 Q1966.76 1521.12 1969.82 1516.54 Q1972.89 1511.93 1978.7 1511.93 Z" fill="#000000" fill-rule="evenodd" fill-opacity="1" /><path clip-path="url(#clip650)" d="M1998.91 1512.56 L2017.27 1512.56 L2017.27 1516.5 L2003.2 1516.5 L2003.2 1524.97 Q2004.21 1524.62 2005.23 1524.46 Q2006.25 1524.27 2007.27 1524.27 Q2013.06 1524.27 2016.44 1527.44 Q2019.82 1530.62 2019.82 1536.03 Q2019.82 1541.61 2016.34 1544.71 Q2012.87 1547.79 2006.55 1547.79 Q2004.38 1547.79 2002.11 1547.42 Q1999.86 1547.05 1997.45 1546.31 L1997.45 1541.61 Q1999.54 1542.74 2001.76 1543.3 Q2003.98 1543.86 2006.46 1543.86 Q2010.46 1543.86 2012.8 1541.75 Q2015.14 1539.64 2015.14 1536.03 Q2015.14 1532.42 2012.8 1530.31 Q2010.46 1528.21 2006.46 1528.21 Q2004.58 1528.21 2002.71 1528.62 Q2000.86 1529.04 1998.91 1529.92 L1998.91 1512.56 Z" fill="#000000" fill-rule="evenodd" fill-opacity="1" /><polyline clip-path="url(#clip652)" style="stroke:#000000; stroke-linecap:butt; stroke-linejoin:round; stroke-width:2; stroke-opacity:0.1; fill:none" points="
  201.019,1354.5 2352.76,1354.5 
  "/>
<polyline clip-path="url(#clip652)" style="stroke:#000000; stroke-linecap:butt; stroke-linejoin:round; stroke-width:2; stroke-opacity:0.1; fill:none" points="
  201.019,1125.87 2352.76,1125.87 
  "/>
<polyline clip-path="url(#clip652)" style="stroke:#000000; stroke-linecap:butt; stroke-linejoin:round; stroke-width:2; stroke-opacity:0.1; fill:none" points="
  201.019,897.252 2352.76,897.252 
  "/>
<polyline clip-path="url(#clip652)" style="stroke:#000000; stroke-linecap:butt; stroke-linejoin:round; stroke-width:2; stroke-opacity:0.1; fill:none" points="
  201.019,668.63 2352.76,668.63 
  "/>
<polyline clip-path="url(#clip652)" style="stroke:#000000; stroke-linecap:butt; stroke-linejoin:round; stroke-width:2; stroke-opacity:0.1; fill:none" points="
  201.019,440.008 2352.76,440.008 
  "/>
<polyline clip-path="url(#clip652)" style="stroke:#000000; stroke-linecap:butt; stroke-linejoin:round; stroke-width:2; stroke-opacity:0.1; fill:none" points="
  201.019,211.386 2352.76,211.386 
  "/>
<polyline clip-path="url(#clip650)" style="stroke:#000000; stroke-linecap:butt; stroke-linejoin:round; stroke-width:4; stroke-opacity:1; fill:none" points="
  201.019,1486.45 201.019,47.2441 
  "/>
<polyline clip-path="url(#clip650)" style="stroke:#000000; stroke-linecap:butt; stroke-linejoin:round; stroke-width:4; stroke-opacity:1; fill:none" points="
  201.019,1354.5 226.84,1354.5 
  "/>
<polyline clip-path="url(#clip650)" style="stroke:#000000; stroke-linecap:butt; stroke-linejoin:round; stroke-width:4; stroke-opacity:1; fill:none" points="
  201.019,1125.87 226.84,1125.87 
  "/>
<polyline clip-path="url(#clip650)" style="stroke:#000000; stroke-linecap:butt; stroke-linejoin:round; stroke-width:4; stroke-opacity:1; fill:none" points="
  201.019,897.252 226.84,897.252 
  "/>
<polyline clip-path="url(#clip650)" style="stroke:#000000; stroke-linecap:butt; stroke-linejoin:round; stroke-width:4; stroke-opacity:1; fill:none" points="
  201.019,668.63 226.84,668.63 
  "/>
<polyline clip-path="url(#clip650)" style="stroke:#000000; stroke-linecap:butt; stroke-linejoin:round; stroke-width:4; stroke-opacity:1; fill:none" points="
  201.019,440.008 226.84,440.008 
  "/>
<polyline clip-path="url(#clip650)" style="stroke:#000000; stroke-linecap:butt; stroke-linejoin:round; stroke-width:4; stroke-opacity:1; fill:none" points="
  201.019,211.386 226.84,211.386 
  "/>
<path clip-path="url(#clip650)" d="M56.6171 1367.84 L72.9365 1367.84 L72.9365 1371.78 L50.9921 1371.78 L50.9921 1367.84 Q53.6541 1365.09 58.2375 1360.46 Q62.8439 1355.8 64.0245 1354.46 Q66.2698 1351.94 67.1494 1350.2 Q68.0522 1348.44 68.0522 1346.75 Q68.0522 1344 66.1078 1342.26 Q64.1865 1340.53 61.0847 1340.53 Q58.8856 1340.53 56.4319 1341.29 Q54.0014 1342.05 51.2236 1343.6 L51.2236 1338.88 Q54.0477 1337.75 56.5014 1337.17 Q58.955 1336.59 60.9921 1336.59 Q66.3624 1336.59 69.5568 1339.28 Q72.7513 1341.96 72.7513 1346.45 Q72.7513 1348.58 71.9411 1350.5 Q71.1541 1352.4 69.0476 1354.99 Q68.4689 1355.66 65.367 1358.88 Q62.2652 1362.08 56.6171 1367.84 Z" fill="#000000" fill-rule="evenodd" fill-opacity="1" /><path clip-path="url(#clip650)" d="M86.779 1367.84 L103.098 1367.84 L103.098 1371.78 L81.154 1371.78 L81.154 1367.84 Q83.816 1365.09 88.3993 1360.46 Q93.0058 1355.8 94.1863 1354.46 Q96.4317 1351.94 97.3113 1350.2 Q98.2141 1348.44 98.2141 1346.75 Q98.2141 1344 96.2697 1342.26 Q94.3484 1340.53 91.2465 1340.53 Q89.0475 1340.53 86.5938 1341.29 Q84.1632 1342.05 81.3855 1343.6 L81.3855 1338.88 Q84.2095 1337.75 86.6632 1337.17 Q89.1169 1336.59 91.1539 1336.59 Q96.5243 1336.59 99.7187 1339.28 Q102.913 1341.96 102.913 1346.45 Q102.913 1348.58 102.103 1350.5 Q101.316 1352.4 99.2095 1354.99 Q98.6308 1355.66 95.5289 1358.88 Q92.4271 1362.08 86.779 1367.84 Z" fill="#000000" fill-rule="evenodd" fill-opacity="1" /><path clip-path="url(#clip650)" d="M112.959 1337.22 L131.316 1337.22 L131.316 1341.15 L117.242 1341.15 L117.242 1349.62 Q118.26 1349.28 119.279 1349.11 Q120.297 1348.93 121.316 1348.93 Q127.103 1348.93 130.482 1352.1 Q133.862 1355.27 133.862 1360.69 Q133.862 1366.27 130.39 1369.37 Q126.918 1372.45 120.598 1372.45 Q118.422 1372.45 116.154 1372.08 Q113.908 1371.71 111.501 1370.97 L111.501 1366.27 Q113.584 1367.4 115.807 1367.96 Q118.029 1368.51 120.506 1368.51 Q124.51 1368.51 126.848 1366.41 Q129.186 1364.3 129.186 1360.69 Q129.186 1357.08 126.848 1354.97 Q124.51 1352.86 120.506 1352.86 Q118.631 1352.86 116.756 1353.28 Q114.904 1353.7 112.959 1354.58 L112.959 1337.22 Z" fill="#000000" fill-rule="evenodd" fill-opacity="1" /><path clip-path="url(#clip650)" d="M153.075 1340.29 Q149.464 1340.29 147.635 1343.86 Q145.83 1347.4 145.83 1354.53 Q145.83 1361.64 147.635 1365.2 Q149.464 1368.74 153.075 1368.74 Q156.709 1368.74 158.515 1365.2 Q160.343 1361.64 160.343 1354.53 Q160.343 1347.4 158.515 1343.86 Q156.709 1340.29 153.075 1340.29 M153.075 1336.59 Q158.885 1336.59 161.941 1341.2 Q165.019 1345.78 165.019 1354.53 Q165.019 1363.26 161.941 1367.86 Q158.885 1372.45 153.075 1372.45 Q147.265 1372.45 144.186 1367.86 Q141.131 1363.26 141.131 1354.53 Q141.131 1345.78 144.186 1341.2 Q147.265 1336.59 153.075 1336.59 Z" fill="#000000" fill-rule="evenodd" fill-opacity="1" /><path clip-path="url(#clip650)" d="M56.6171 1139.22 L72.9365 1139.22 L72.9365 1143.15 L50.9921 1143.15 L50.9921 1139.22 Q53.6541 1136.46 58.2375 1131.83 Q62.8439 1127.18 64.0245 1125.84 Q66.2698 1123.32 67.1494 1121.58 Q68.0522 1119.82 68.0522 1118.13 Q68.0522 1115.38 66.1078 1113.64 Q64.1865 1111.9 61.0847 1111.9 Q58.8856 1111.9 56.4319 1112.67 Q54.0014 1113.43 51.2236 1114.98 L51.2236 1110.26 Q54.0477 1109.13 56.5014 1108.55 Q58.955 1107.97 60.9921 1107.97 Q66.3624 1107.97 69.5568 1110.65 Q72.7513 1113.34 72.7513 1117.83 Q72.7513 1119.96 71.9411 1121.88 Q71.1541 1123.78 69.0476 1126.37 Q68.4689 1127.04 65.367 1130.26 Q62.2652 1133.45 56.6171 1139.22 Z" fill="#000000" fill-rule="evenodd" fill-opacity="1" /><path clip-path="url(#clip650)" d="M96.9178 1124.52 Q100.274 1125.24 102.149 1127.51 Q104.047 1129.77 104.047 1133.11 Q104.047 1138.22 100.529 1141.02 Q97.0104 1143.83 90.529 1143.83 Q88.353 1143.83 86.0382 1143.39 Q83.7466 1142.97 81.2929 1142.11 L81.2929 1137.6 Q83.2373 1138.73 85.5521 1139.31 Q87.8669 1139.89 90.3901 1139.89 Q94.7882 1139.89 97.0798 1138.15 Q99.3946 1136.42 99.3946 1133.11 Q99.3946 1130.05 97.2419 1128.34 Q95.1123 1126.6 91.2928 1126.6 L87.2651 1126.6 L87.2651 1122.76 L91.478 1122.76 Q94.9271 1122.76 96.7558 1121.39 Q98.5845 1120.01 98.5845 1117.41 Q98.5845 1114.75 96.6863 1113.34 Q94.8113 1111.9 91.2928 1111.9 Q89.3715 1111.9 87.1725 1112.32 Q84.9734 1112.74 82.3346 1113.62 L82.3346 1109.45 Q84.9966 1108.71 87.3114 1108.34 Q89.6493 1107.97 91.7095 1107.97 Q97.0335 1107.97 100.135 1110.4 Q103.237 1112.81 103.237 1116.93 Q103.237 1119.8 101.594 1121.79 Q99.9502 1123.76 96.9178 1124.52 Z" fill="#000000" fill-rule="evenodd" fill-opacity="1" /><path clip-path="url(#clip650)" d="M122.913 1111.67 Q119.302 1111.67 117.473 1115.24 Q115.668 1118.78 115.668 1125.91 Q115.668 1133.02 117.473 1136.58 Q119.302 1140.12 122.913 1140.12 Q126.547 1140.12 128.353 1136.58 Q130.182 1133.02 130.182 1125.91 Q130.182 1118.78 128.353 1115.24 Q126.547 1111.67 122.913 1111.67 M122.913 1107.97 Q128.723 1107.97 131.779 1112.58 Q134.857 1117.16 134.857 1125.91 Q134.857 1134.64 131.779 1139.24 Q128.723 1143.83 122.913 1143.83 Q117.103 1143.83 114.024 1139.24 Q110.969 1134.64 110.969 1125.91 Q110.969 1117.16 114.024 1112.58 Q117.103 1107.97 122.913 1107.97 Z" fill="#000000" fill-rule="evenodd" fill-opacity="1" /><path clip-path="url(#clip650)" d="M153.075 1111.67 Q149.464 1111.67 147.635 1115.24 Q145.83 1118.78 145.83 1125.91 Q145.83 1133.02 147.635 1136.58 Q149.464 1140.12 153.075 1140.12 Q156.709 1140.12 158.515 1136.58 Q160.343 1133.02 160.343 1125.91 Q160.343 1118.78 158.515 1115.24 Q156.709 1111.67 153.075 1111.67 M153.075 1107.97 Q158.885 1107.97 161.941 1112.58 Q165.019 1117.16 165.019 1125.91 Q165.019 1134.64 161.941 1139.24 Q158.885 1143.83 153.075 1143.83 Q147.265 1143.83 144.186 1139.24 Q141.131 1134.64 141.131 1125.91 Q141.131 1117.16 144.186 1112.58 Q147.265 1107.97 153.075 1107.97 Z" fill="#000000" fill-rule="evenodd" fill-opacity="1" /><path clip-path="url(#clip650)" d="M56.6171 910.597 L72.9365 910.597 L72.9365 914.532 L50.9921 914.532 L50.9921 910.597 Q53.6541 907.842 58.2375 903.213 Q62.8439 898.56 64.0245 897.217 Q66.2698 894.694 67.1494 892.958 Q68.0522 891.199 68.0522 889.509 Q68.0522 886.754 66.1078 885.018 Q64.1865 883.282 61.0847 883.282 Q58.8856 883.282 56.4319 884.046 Q54.0014 884.81 51.2236 886.361 L51.2236 881.639 Q54.0477 880.504 56.5014 879.926 Q58.955 879.347 60.9921 879.347 Q66.3624 879.347 69.5568 882.032 Q72.7513 884.717 72.7513 889.208 Q72.7513 891.338 71.9411 893.259 Q71.1541 895.157 69.0476 897.75 Q68.4689 898.421 65.367 901.639 Q62.2652 904.833 56.6171 910.597 Z" fill="#000000" fill-rule="evenodd" fill-opacity="1" /><path clip-path="url(#clip650)" d="M96.9178 895.898 Q100.274 896.615 102.149 898.884 Q104.047 901.152 104.047 904.486 Q104.047 909.601 100.529 912.402 Q97.0104 915.203 90.529 915.203 Q88.353 915.203 86.0382 914.763 Q83.7466 914.347 81.2929 913.49 L81.2929 908.976 Q83.2373 910.111 85.5521 910.689 Q87.8669 911.268 90.3901 911.268 Q94.7882 911.268 97.0798 909.532 Q99.3946 907.796 99.3946 904.486 Q99.3946 901.43 97.2419 899.717 Q95.1123 897.981 91.2928 897.981 L87.2651 897.981 L87.2651 894.139 L91.478 894.139 Q94.9271 894.139 96.7558 892.773 Q98.5845 891.384 98.5845 888.791 Q98.5845 886.129 96.6863 884.717 Q94.8113 883.282 91.2928 883.282 Q89.3715 883.282 87.1725 883.699 Q84.9734 884.115 82.3346 884.995 L82.3346 880.828 Q84.9966 880.088 87.3114 879.717 Q89.6493 879.347 91.7095 879.347 Q97.0335 879.347 100.135 881.778 Q103.237 884.185 103.237 888.305 Q103.237 891.176 101.594 893.166 Q99.9502 895.134 96.9178 895.898 Z" fill="#000000" fill-rule="evenodd" fill-opacity="1" /><path clip-path="url(#clip650)" d="M112.959 879.972 L131.316 879.972 L131.316 883.907 L117.242 883.907 L117.242 892.379 Q118.26 892.032 119.279 891.87 Q120.297 891.685 121.316 891.685 Q127.103 891.685 130.482 894.856 Q133.862 898.027 133.862 903.444 Q133.862 909.023 130.39 912.125 Q126.918 915.203 120.598 915.203 Q118.422 915.203 116.154 914.833 Q113.908 914.463 111.501 913.722 L111.501 909.023 Q113.584 910.157 115.807 910.713 Q118.029 911.268 120.506 911.268 Q124.51 911.268 126.848 909.162 Q129.186 907.055 129.186 903.444 Q129.186 899.833 126.848 897.727 Q124.51 895.62 120.506 895.62 Q118.631 895.62 116.756 896.037 Q114.904 896.453 112.959 897.333 L112.959 879.972 Z" fill="#000000" fill-rule="evenodd" fill-opacity="1" /><path clip-path="url(#clip650)" d="M153.075 883.051 Q149.464 883.051 147.635 886.615 Q145.83 890.157 145.83 897.287 Q145.83 904.393 147.635 907.958 Q149.464 911.5 153.075 911.5 Q156.709 911.5 158.515 907.958 Q160.343 904.393 160.343 897.287 Q160.343 890.157 158.515 886.615 Q156.709 883.051 153.075 883.051 M153.075 879.347 Q158.885 879.347 161.941 883.953 Q165.019 888.537 165.019 897.287 Q165.019 906.014 161.941 910.62 Q158.885 915.203 153.075 915.203 Q147.265 915.203 144.186 910.62 Q141.131 906.014 141.131 897.287 Q141.131 888.537 144.186 883.953 Q147.265 879.347 153.075 879.347 Z" fill="#000000" fill-rule="evenodd" fill-opacity="1" /><path clip-path="url(#clip650)" d="M56.6171 681.975 L72.9365 681.975 L72.9365 685.91 L50.9921 685.91 L50.9921 681.975 Q53.6541 679.22 58.2375 674.591 Q62.8439 669.938 64.0245 668.595 Q66.2698 666.072 67.1494 664.336 Q68.0522 662.577 68.0522 660.887 Q68.0522 658.132 66.1078 656.396 Q64.1865 654.66 61.0847 654.66 Q58.8856 654.66 56.4319 655.424 Q54.0014 656.188 51.2236 657.739 L51.2236 653.017 Q54.0477 651.883 56.5014 651.304 Q58.955 650.725 60.9921 650.725 Q66.3624 650.725 69.5568 653.41 Q72.7513 656.095 72.7513 660.586 Q72.7513 662.716 71.9411 664.637 Q71.1541 666.535 69.0476 669.128 Q68.4689 669.799 65.367 673.017 Q62.2652 676.211 56.6171 681.975 Z" fill="#000000" fill-rule="evenodd" fill-opacity="1" /><path clip-path="url(#clip650)" d="M95.5984 655.424 L83.7929 673.873 L95.5984 673.873 L95.5984 655.424 M94.3715 651.35 L100.251 651.35 L100.251 673.873 L105.182 673.873 L105.182 677.762 L100.251 677.762 L100.251 685.91 L95.5984 685.91 L95.5984 677.762 L79.9966 677.762 L79.9966 673.248 L94.3715 651.35 Z" fill="#000000" fill-rule="evenodd" fill-opacity="1" /><path clip-path="url(#clip650)" d="M122.913 654.429 Q119.302 654.429 117.473 657.994 Q115.668 661.535 115.668 668.665 Q115.668 675.771 117.473 679.336 Q119.302 682.878 122.913 682.878 Q126.547 682.878 128.353 679.336 Q130.182 675.771 130.182 668.665 Q130.182 661.535 128.353 657.994 Q126.547 654.429 122.913 654.429 M122.913 650.725 Q128.723 650.725 131.779 655.332 Q134.857 659.915 134.857 668.665 Q134.857 677.392 131.779 681.998 Q128.723 686.581 122.913 686.581 Q117.103 686.581 114.024 681.998 Q110.969 677.392 110.969 668.665 Q110.969 659.915 114.024 655.332 Q117.103 650.725 122.913 650.725 Z" fill="#000000" fill-rule="evenodd" fill-opacity="1" /><path clip-path="url(#clip650)" d="M153.075 654.429 Q149.464 654.429 147.635 657.994 Q145.83 661.535 145.83 668.665 Q145.83 675.771 147.635 679.336 Q149.464 682.878 153.075 682.878 Q156.709 682.878 158.515 679.336 Q160.343 675.771 160.343 668.665 Q160.343 661.535 158.515 657.994 Q156.709 654.429 153.075 654.429 M153.075 650.725 Q158.885 650.725 161.941 655.332 Q165.019 659.915 165.019 668.665 Q165.019 677.392 161.941 681.998 Q158.885 686.581 153.075 686.581 Q147.265 686.581 144.186 681.998 Q141.131 677.392 141.131 668.665 Q141.131 659.915 144.186 655.332 Q147.265 650.725 153.075 650.725 Z" fill="#000000" fill-rule="evenodd" fill-opacity="1" /><path clip-path="url(#clip650)" d="M56.6171 453.353 L72.9365 453.353 L72.9365 457.288 L50.9921 457.288 L50.9921 453.353 Q53.6541 450.598 58.2375 445.969 Q62.8439 441.316 64.0245 439.973 Q66.2698 437.45 67.1494 435.714 Q68.0522 433.955 68.0522 432.265 Q68.0522 429.511 66.1078 427.774 Q64.1865 426.038 61.0847 426.038 Q58.8856 426.038 56.4319 426.802 Q54.0014 427.566 51.2236 429.117 L51.2236 424.395 Q54.0477 423.261 56.5014 422.682 Q58.955 422.103 60.9921 422.103 Q66.3624 422.103 69.5568 424.788 Q72.7513 427.474 72.7513 431.964 Q72.7513 434.094 71.9411 436.015 Q71.1541 437.913 69.0476 440.506 Q68.4689 441.177 65.367 444.395 Q62.2652 447.589 56.6171 453.353 Z" fill="#000000" fill-rule="evenodd" fill-opacity="1" /><path clip-path="url(#clip650)" d="M95.5984 426.802 L83.7929 445.251 L95.5984 445.251 L95.5984 426.802 M94.3715 422.728 L100.251 422.728 L100.251 445.251 L105.182 445.251 L105.182 449.14 L100.251 449.14 L100.251 457.288 L95.5984 457.288 L95.5984 449.14 L79.9966 449.14 L79.9966 444.626 L94.3715 422.728 Z" fill="#000000" fill-rule="evenodd" fill-opacity="1" /><path clip-path="url(#clip650)" d="M112.959 422.728 L131.316 422.728 L131.316 426.663 L117.242 426.663 L117.242 435.136 Q118.26 434.788 119.279 434.626 Q120.297 434.441 121.316 434.441 Q127.103 434.441 130.482 437.612 Q133.862 440.784 133.862 446.2 Q133.862 451.779 130.39 454.881 Q126.918 457.96 120.598 457.96 Q118.422 457.96 116.154 457.589 Q113.908 457.219 111.501 456.478 L111.501 451.779 Q113.584 452.913 115.807 453.469 Q118.029 454.024 120.506 454.024 Q124.51 454.024 126.848 451.918 Q129.186 449.811 129.186 446.2 Q129.186 442.589 126.848 440.483 Q124.51 438.376 120.506 438.376 Q118.631 438.376 116.756 438.793 Q114.904 439.21 112.959 440.089 L112.959 422.728 Z" fill="#000000" fill-rule="evenodd" fill-opacity="1" /><path clip-path="url(#clip650)" d="M153.075 425.807 Q149.464 425.807 147.635 429.372 Q145.83 432.913 145.83 440.043 Q145.83 447.149 147.635 450.714 Q149.464 454.256 153.075 454.256 Q156.709 454.256 158.515 450.714 Q160.343 447.149 160.343 440.043 Q160.343 432.913 158.515 429.372 Q156.709 425.807 153.075 425.807 M153.075 422.103 Q158.885 422.103 161.941 426.71 Q165.019 431.293 165.019 440.043 Q165.019 448.77 161.941 453.376 Q158.885 457.96 153.075 457.96 Q147.265 457.96 144.186 453.376 Q141.131 448.77 141.131 440.043 Q141.131 431.293 144.186 426.71 Q147.265 422.103 153.075 422.103 Z" fill="#000000" fill-rule="evenodd" fill-opacity="1" /><path clip-path="url(#clip650)" d="M56.6171 224.731 L72.9365 224.731 L72.9365 228.666 L50.9921 228.666 L50.9921 224.731 Q53.6541 221.977 58.2375 217.347 Q62.8439 212.694 64.0245 211.352 Q66.2698 208.828 67.1494 207.092 Q68.0522 205.333 68.0522 203.643 Q68.0522 200.889 66.1078 199.153 Q64.1865 197.416 61.0847 197.416 Q58.8856 197.416 56.4319 198.18 Q54.0014 198.944 51.2236 200.495 L51.2236 195.773 Q54.0477 194.639 56.5014 194.06 Q58.955 193.481 60.9921 193.481 Q66.3624 193.481 69.5568 196.167 Q72.7513 198.852 72.7513 203.342 Q72.7513 205.472 71.9411 207.393 Q71.1541 209.291 69.0476 211.884 Q68.4689 212.555 65.367 215.773 Q62.2652 218.967 56.6171 224.731 Z" fill="#000000" fill-rule="evenodd" fill-opacity="1" /><path clip-path="url(#clip650)" d="M82.7975 194.106 L101.154 194.106 L101.154 198.041 L87.0799 198.041 L87.0799 206.514 Q88.0984 206.166 89.1169 206.004 Q90.1354 205.819 91.1539 205.819 Q96.941 205.819 100.321 208.991 Q103.7 212.162 103.7 217.578 Q103.7 223.157 100.228 226.259 Q96.7558 229.338 90.4364 229.338 Q88.2604 229.338 85.9919 228.967 Q83.7466 228.597 81.3392 227.856 L81.3392 223.157 Q83.4225 224.291 85.6447 224.847 Q87.8669 225.402 90.3438 225.402 Q94.3484 225.402 96.6863 223.296 Q99.0243 221.19 99.0243 217.578 Q99.0243 213.967 96.6863 211.861 Q94.3484 209.754 90.3438 209.754 Q88.4688 209.754 86.5938 210.171 Q84.7419 210.588 82.7975 211.467 L82.7975 194.106 Z" fill="#000000" fill-rule="evenodd" fill-opacity="1" /><path clip-path="url(#clip650)" d="M122.913 197.185 Q119.302 197.185 117.473 200.75 Q115.668 204.291 115.668 211.421 Q115.668 218.527 117.473 222.092 Q119.302 225.634 122.913 225.634 Q126.547 225.634 128.353 222.092 Q130.182 218.527 130.182 211.421 Q130.182 204.291 128.353 200.75 Q126.547 197.185 122.913 197.185 M122.913 193.481 Q128.723 193.481 131.779 198.088 Q134.857 202.671 134.857 211.421 Q134.857 220.148 131.779 224.754 Q128.723 229.338 122.913 229.338 Q117.103 229.338 114.024 224.754 Q110.969 220.148 110.969 211.421 Q110.969 202.671 114.024 198.088 Q117.103 193.481 122.913 193.481 Z" fill="#000000" fill-rule="evenodd" fill-opacity="1" /><path clip-path="url(#clip650)" d="M153.075 197.185 Q149.464 197.185 147.635 200.75 Q145.83 204.291 145.83 211.421 Q145.83 218.527 147.635 222.092 Q149.464 225.634 153.075 225.634 Q156.709 225.634 158.515 222.092 Q160.343 218.527 160.343 211.421 Q160.343 204.291 158.515 200.75 Q156.709 197.185 153.075 197.185 M153.075 193.481 Q158.885 193.481 161.941 198.088 Q165.019 202.671 165.019 211.421 Q165.019 220.148 161.941 224.754 Q158.885 229.338 153.075 229.338 Q147.265 229.338 144.186 224.754 Q141.131 220.148 141.131 211.421 Q141.131 202.671 144.186 198.088 Q147.265 193.481 153.075 193.481 Z" fill="#000000" fill-rule="evenodd" fill-opacity="1" /><polyline clip-path="url(#clip652)" style="stroke:#009af9; stroke-linecap:butt; stroke-linejoin:round; stroke-width:4; stroke-opacity:1; fill:none" points="
  261.917,1300.95 329.582,1303.79 397.247,1163.23 600.241,1083.26 667.906,957.123 735.57,1288.65 803.235,997.663 870.9,824.139 1073.89,819.521 1141.56,577.181 
  1209.22,609.943 1276.89,499.725 1344.55,568.22 1615.21,568.036 1682.88,507.177 1750.54,691.401 1818.2,565.659 2021.2,433.972 2088.86,303.293 2156.53,213.673 
  2224.19,238.775 2291.86,97.4415 
  "/>
<polyline clip-path="url(#clip652)" style="stroke:#e26f46; stroke-linecap:butt; stroke-linejoin:round; stroke-width:4; stroke-opacity:1; fill:none" points="
  261.917,1192.77 329.582,1232.86 397.247,1029.21 600.241,1019.15 667.906,928.574 735.57,1049.24 803.235,849.973 870.9,810.376 1073.89,584.132 1141.56,518.243 
  1209.22,472.271 1276.89,485.733 1344.55,539.962 1615.21,495.01 1682.88,476.588 1750.54,624.071 1818.2,422.364 2021.2,357.704 2088.86,236.557 2156.53,188.524 
  2224.19,105.031 2291.86,87.9763 
  "/>
<polyline clip-path="url(#clip652)" style="stroke:#3da44d; stroke-linecap:butt; stroke-linejoin:round; stroke-width:4; stroke-opacity:1; fill:none" points="
  261.917,1445.72 329.582,1387.78 397.247,1202.14 600.241,1148.74 667.906,1111.43 735.57,1292.68 803.235,1029.44 870.9,932.139 1073.89,851.024 1141.56,654.959 
  1209.22,611.407 1276.89,659.485 1344.55,633.468 1615.21,646.317 1682.88,649.426 1750.54,747.139 1818.2,587.378 2021.2,480.826 2088.86,356.607 2156.53,269.319 
  2224.19,238.821 2291.86,219.205 
  "/>
<polyline clip-path="url(#clip652)" style="stroke:#c271d2; stroke-linecap:butt; stroke-linejoin:round; stroke-width:4; stroke-opacity:1; fill:none" points="
  261.917,1404.43 329.582,1299.76 397.247,1051.98 600.241,1027.98 667.906,1110.19 735.57,1086.05 803.235,869.405 870.9,919.656 1073.89,638.132 1141.56,627.158 
  1209.22,515.316 1276.89,657.153 1344.55,615.772 1615.21,532.325 1682.88,571.328 1750.54,647.551 1818.2,431.961 2021.2,366.437 2088.86,289.803 2156.53,250.71 
  2224.19,112.621 2291.86,147.693 
  "/>
<path clip-path="url(#clip650)" d="
M1917.99 397.618 L2281.03 397.618 L2281.03 95.2176 L1917.99 95.2176  Z
  " fill="#ffffff" fill-rule="evenodd" fill-opacity="1"/>
<polyline clip-path="url(#clip650)" style="stroke:#000000; stroke-linecap:butt; stroke-linejoin:round; stroke-width:4; stroke-opacity:1; fill:none" points="
  1917.99,397.618 2281.03,397.618 2281.03,95.2176 1917.99,95.2176 1917.99,397.618 
  "/>
<polyline clip-path="url(#clip650)" style="stroke:#009af9; stroke-linecap:butt; stroke-linejoin:round; stroke-width:4; stroke-opacity:1; fill:none" points="
  1941.9,155.698 2085.35,155.698 
  "/>
<path clip-path="url(#clip650)" d="M2125.28 141.589 Q2120.18 141.589 2117.17 145.385 Q2114.19 149.181 2114.19 155.732 Q2114.19 162.26 2117.17 166.056 Q2120.18 169.853 2125.28 169.853 Q2130.37 169.853 2133.33 166.056 Q2136.32 162.26 2136.32 155.732 Q2136.32 149.181 2133.33 145.385 Q2130.37 141.589 2125.28 141.589 M2125.28 137.793 Q2132.54 137.793 2136.9 142.677 Q2141.25 147.538 2141.25 155.732 Q2141.25 163.904 2136.9 168.788 Q2132.54 173.649 2125.28 173.649 Q2117.98 173.649 2113.61 168.788 Q2109.26 163.927 2109.26 155.732 Q2109.26 147.538 2113.61 142.677 Q2117.98 137.793 2125.28 137.793 Z" fill="#000000" fill-rule="evenodd" fill-opacity="1" /><path clip-path="url(#clip650)" d="M2152.5 169.089 L2152.5 182.839 L2148.22 182.839 L2148.22 147.052 L2152.5 147.052 L2152.5 150.987 Q2153.84 148.672 2155.88 147.561 Q2157.94 146.427 2160.78 146.427 Q2165.51 146.427 2168.45 150.177 Q2171.41 153.927 2171.41 160.038 Q2171.41 166.149 2168.45 169.899 Q2165.51 173.649 2160.78 173.649 Q2157.94 173.649 2155.88 172.538 Q2153.84 171.403 2152.5 169.089 M2166.99 160.038 Q2166.99 155.339 2165.04 152.677 Q2163.12 149.992 2159.74 149.992 Q2156.36 149.992 2154.42 152.677 Q2152.5 155.339 2152.5 160.038 Q2152.5 164.737 2154.42 167.422 Q2156.36 170.084 2159.74 170.084 Q2163.12 170.084 2165.04 167.422 Q2166.99 164.737 2166.99 160.038 Z" fill="#000000" fill-rule="evenodd" fill-opacity="1" /><path clip-path="url(#clip650)" d="M2200.65 158.95 L2200.65 161.033 L2181.06 161.033 Q2181.34 165.431 2183.7 167.746 Q2186.09 170.038 2190.32 170.038 Q2192.78 170.038 2195.07 169.436 Q2197.38 168.834 2199.65 167.63 L2199.65 171.658 Q2197.36 172.63 2194.95 173.14 Q2192.54 173.649 2190.07 173.649 Q2183.86 173.649 2180.23 170.038 Q2176.62 166.427 2176.62 160.269 Q2176.62 153.904 2180.04 150.177 Q2183.49 146.427 2189.33 146.427 Q2194.56 146.427 2197.59 149.806 Q2200.65 153.163 2200.65 158.95 M2196.39 157.7 Q2196.34 154.205 2194.42 152.121 Q2192.52 150.038 2189.37 150.038 Q2185.81 150.038 2183.66 152.052 Q2181.53 154.066 2181.2 157.723 L2196.39 157.7 Z" fill="#000000" fill-rule="evenodd" fill-opacity="1" /><path clip-path="url(#clip650)" d="M2229.19 157.329 L2229.19 172.978 L2224.93 172.978 L2224.93 157.468 Q2224.93 153.788 2223.49 151.959 Q2222.06 150.13 2219.19 150.13 Q2215.74 150.13 2213.75 152.33 Q2211.76 154.529 2211.76 158.325 L2211.76 172.978 L2207.47 172.978 L2207.47 147.052 L2211.76 147.052 L2211.76 151.08 Q2213.28 148.742 2215.34 147.584 Q2217.43 146.427 2220.14 146.427 Q2224.6 146.427 2226.9 149.205 Q2229.19 151.959 2229.19 157.329 Z" fill="#000000" fill-rule="evenodd" fill-opacity="1" /><polyline clip-path="url(#clip650)" style="stroke:#e26f46; stroke-linecap:butt; stroke-linejoin:round; stroke-width:4; stroke-opacity:1; fill:none" points="
  1941.9,216.178 2085.35,216.178 
  "/>
<path clip-path="url(#clip650)" d="M2109.26 198.898 L2113.93 198.898 L2113.93 213.064 L2130.92 213.064 L2130.92 198.898 L2135.6 198.898 L2135.6 233.458 L2130.92 233.458 L2130.92 216.999 L2113.93 216.999 L2113.93 233.458 L2109.26 233.458 L2109.26 198.898 Z" fill="#000000" fill-rule="evenodd" fill-opacity="1" /><path clip-path="url(#clip650)" d="M2144.72 207.532 L2148.98 207.532 L2148.98 233.458 L2144.72 233.458 L2144.72 207.532 M2144.72 197.439 L2148.98 197.439 L2148.98 202.833 L2144.72 202.833 L2144.72 197.439 Z" fill="#000000" fill-rule="evenodd" fill-opacity="1" /><path clip-path="url(#clip650)" d="M2174.95 220.194 Q2174.95 215.564 2173.03 213.018 Q2171.13 210.472 2167.68 210.472 Q2164.26 210.472 2162.34 213.018 Q2160.44 215.564 2160.44 220.194 Q2160.44 224.8 2162.34 227.346 Q2164.26 229.893 2167.68 229.893 Q2171.13 229.893 2173.03 227.346 Q2174.95 224.8 2174.95 220.194 M2179.21 230.24 Q2179.21 236.86 2176.27 240.078 Q2173.33 243.319 2167.27 243.319 Q2165.02 243.319 2163.03 242.971 Q2161.04 242.647 2159.16 241.953 L2159.16 237.809 Q2161.04 238.828 2162.87 239.314 Q2164.7 239.8 2166.59 239.8 Q2170.78 239.8 2172.87 237.601 Q2174.95 235.425 2174.95 231.004 L2174.95 228.897 Q2173.63 231.189 2171.57 232.323 Q2169.51 233.458 2166.64 233.458 Q2161.87 233.458 2158.96 229.823 Q2156.04 226.189 2156.04 220.194 Q2156.04 214.175 2158.96 210.541 Q2161.87 206.907 2166.64 206.907 Q2169.51 206.907 2171.57 208.041 Q2173.63 209.175 2174.95 211.467 L2174.95 207.532 L2179.21 207.532 L2179.21 230.24 Z" fill="#000000" fill-rule="evenodd" fill-opacity="1" /><path clip-path="url(#clip650)" d="M2209.53 217.809 L2209.53 233.458 L2205.28 233.458 L2205.28 217.948 Q2205.28 214.268 2203.84 212.439 Q2202.4 210.61 2199.53 210.61 Q2196.09 210.61 2194.09 212.81 Q2192.1 215.009 2192.1 218.805 L2192.1 233.458 L2187.82 233.458 L2187.82 197.439 L2192.1 197.439 L2192.1 211.56 Q2193.63 209.222 2195.69 208.064 Q2197.78 206.907 2200.48 206.907 Q2204.95 206.907 2207.24 209.685 Q2209.53 212.439 2209.53 217.809 Z" fill="#000000" fill-rule="evenodd" fill-opacity="1" /><polyline clip-path="url(#clip650)" style="stroke:#3da44d; stroke-linecap:butt; stroke-linejoin:round; stroke-width:4; stroke-opacity:1; fill:none" points="
  1941.9,276.658 2085.35,276.658 
  "/>
<path clip-path="url(#clip650)" d="M2109.26 259.378 L2113.93 259.378 L2113.93 290.002 L2130.76 290.002 L2130.76 293.938 L2109.26 293.938 L2109.26 259.378 Z" fill="#000000" fill-rule="evenodd" fill-opacity="1" /><path clip-path="url(#clip650)" d="M2144.7 270.998 Q2141.27 270.998 2139.28 273.683 Q2137.29 276.345 2137.29 280.998 Q2137.29 285.651 2139.26 288.336 Q2141.25 290.998 2144.7 290.998 Q2148.1 290.998 2150.09 288.313 Q2152.08 285.627 2152.08 280.998 Q2152.08 276.391 2150.09 273.706 Q2148.1 270.998 2144.7 270.998 M2144.7 267.387 Q2150.25 267.387 2153.42 270.998 Q2156.6 274.609 2156.6 280.998 Q2156.6 287.364 2153.42 290.998 Q2150.25 294.609 2144.7 294.609 Q2139.12 294.609 2135.95 290.998 Q2132.8 287.364 2132.8 280.998 Q2132.8 274.609 2135.95 270.998 Q2139.12 267.387 2144.7 267.387 Z" fill="#000000" fill-rule="evenodd" fill-opacity="1" /><path clip-path="url(#clip650)" d="M2161.18 268.012 L2165.44 268.012 L2170.76 288.243 L2176.06 268.012 L2181.09 268.012 L2186.41 288.243 L2191.71 268.012 L2195.97 268.012 L2189.19 293.938 L2184.16 293.938 L2178.59 272.688 L2172.98 293.938 L2167.96 293.938 L2161.18 268.012 Z" fill="#000000" fill-rule="evenodd" fill-opacity="1" /><polyline clip-path="url(#clip650)" style="stroke:#c271d2; stroke-linecap:butt; stroke-linejoin:round; stroke-width:4; stroke-opacity:1; fill:none" points="
  1941.9,337.138 2085.35,337.138 
  "/>
<path clip-path="url(#clip650)" d="M2137.13 322.52 L2137.13 327.45 Q2134.77 325.251 2132.08 324.163 Q2129.42 323.075 2126.41 323.075 Q2120.48 323.075 2117.34 326.709 Q2114.19 330.32 2114.19 337.172 Q2114.19 344.001 2117.34 347.635 Q2120.48 351.246 2126.41 351.246 Q2129.42 351.246 2132.08 350.158 Q2134.77 349.07 2137.13 346.871 L2137.13 351.756 Q2134.67 353.422 2131.92 354.256 Q2129.19 355.089 2126.13 355.089 Q2118.29 355.089 2113.77 350.297 Q2109.26 345.482 2109.26 337.172 Q2109.26 328.839 2113.77 324.047 Q2118.29 319.233 2126.13 319.233 Q2129.23 319.233 2131.97 320.066 Q2134.72 320.876 2137.13 322.52 Z" fill="#000000" fill-rule="evenodd" fill-opacity="1" /><path clip-path="url(#clip650)" d="M2144.16 318.399 L2148.42 318.399 L2148.42 354.418 L2144.16 354.418 L2144.16 318.399 Z" fill="#000000" fill-rule="evenodd" fill-opacity="1" /><path clip-path="url(#clip650)" d="M2167.38 331.478 Q2163.96 331.478 2161.97 334.163 Q2159.97 336.825 2159.97 341.478 Q2159.97 346.131 2161.94 348.816 Q2163.93 351.478 2167.38 351.478 Q2170.78 351.478 2172.78 348.793 Q2174.77 346.107 2174.77 341.478 Q2174.77 336.871 2172.78 334.186 Q2170.78 331.478 2167.38 331.478 M2167.38 327.867 Q2172.94 327.867 2176.11 331.478 Q2179.28 335.089 2179.28 341.478 Q2179.28 347.844 2176.11 351.478 Q2172.94 355.089 2167.38 355.089 Q2161.8 355.089 2158.63 351.478 Q2155.48 347.844 2155.48 341.478 Q2155.48 335.089 2158.63 331.478 Q2161.8 327.867 2167.38 327.867 Z" fill="#000000" fill-rule="evenodd" fill-opacity="1" /><path clip-path="url(#clip650)" d="M2202.87 329.256 L2202.87 333.283 Q2201.06 332.357 2199.12 331.895 Q2197.17 331.432 2195.09 331.432 Q2191.92 331.432 2190.32 332.404 Q2188.75 333.376 2188.75 335.32 Q2188.75 336.802 2189.88 337.658 Q2191.02 338.492 2194.44 339.256 L2195.9 339.58 Q2200.44 340.552 2202.34 342.334 Q2204.26 344.094 2204.26 347.265 Q2204.26 350.876 2201.39 352.982 Q2198.54 355.089 2193.54 355.089 Q2191.46 355.089 2189.19 354.672 Q2186.94 354.279 2184.44 353.468 L2184.44 349.07 Q2186.8 350.297 2189.09 350.922 Q2191.39 351.524 2193.63 351.524 Q2196.64 351.524 2198.26 350.506 Q2199.88 349.464 2199.88 347.589 Q2199.88 345.853 2198.7 344.927 Q2197.54 344.001 2193.59 343.144 L2192.1 342.797 Q2188.15 341.964 2186.39 340.251 Q2184.63 338.515 2184.63 335.506 Q2184.63 331.848 2187.22 329.858 Q2189.81 327.867 2194.58 327.867 Q2196.94 327.867 2199.03 328.214 Q2201.11 328.561 2202.87 329.256 Z" fill="#000000" fill-rule="evenodd" fill-opacity="1" /><path clip-path="url(#clip650)" d="M2233.21 340.39 L2233.21 342.473 L2213.63 342.473 Q2213.91 346.871 2216.27 349.186 Q2218.65 351.478 2222.89 351.478 Q2225.34 351.478 2227.64 350.876 Q2229.95 350.274 2232.22 349.07 L2232.22 353.098 Q2229.93 354.07 2227.52 354.58 Q2225.11 355.089 2222.64 355.089 Q2216.43 355.089 2212.8 351.478 Q2209.19 347.867 2209.19 341.709 Q2209.19 335.344 2212.61 331.617 Q2216.06 327.867 2221.9 327.867 Q2227.13 327.867 2230.16 331.246 Q2233.21 334.603 2233.21 340.39 M2228.96 339.14 Q2228.91 335.645 2226.99 333.561 Q2225.09 331.478 2221.94 331.478 Q2218.38 331.478 2216.22 333.492 Q2214.09 335.506 2213.77 339.163 L2228.96 339.14 Z" fill="#000000" fill-rule="evenodd" fill-opacity="1" /></svg>
