<?xml version="1.0" encoding="utf-8"?>
<svg xmlns="http://www.w3.org/2000/svg" xmlns:xlink="http://www.w3.org/1999/xlink" width="600" height="400" viewBox="0 0 2400 1600">
<defs>
  <clipPath id="clip970">
    <rect x="0" y="0" width="2400" height="1600"/>
  </clipPath>
</defs>
<path clip-path="url(#clip970)" d="
M0 1600 L2400 1600 L2400 0 L0 0  Z
  " fill="#ffffff" fill-rule="evenodd" fill-opacity="1"/>
<defs>
  <clipPath id="clip971">
    <rect x="480" y="0" width="1681" height="1600"/>
  </clipPath>
</defs>
<path clip-path="url(#clip970)" d="
M201.019 1331.21 L2352.76 1331.21 L2352.76 47.2441 L201.019 47.2441  Z
  " fill="#ffffff" fill-rule="evenodd" fill-opacity="1"/>
<defs>
  <clipPath id="clip972">
    <rect x="201" y="47" width="2153" height="1285"/>
  </clipPath>
</defs>
<polyline clip-path="url(#clip972)" style="stroke:#000000; stroke-linecap:butt; stroke-linejoin:round; stroke-width:2; stroke-opacity:0.1; fill:none" points="
  303.629,1331.21 303.629,47.2441 
  "/>
<polyline clip-path="url(#clip972)" style="stroke:#000000; stroke-linecap:butt; stroke-linejoin:round; stroke-width:2; stroke-opacity:0.1; fill:none" points="
  396.32,1331.21 396.32,47.2441 
  "/>
<polyline clip-path="url(#clip972)" style="stroke:#000000; stroke-linecap:butt; stroke-linejoin:round; stroke-width:2; stroke-opacity:0.1; fill:none" points="
  489.011,1331.21 489.011,47.2441 
  "/>
<polyline clip-path="url(#clip972)" style="stroke:#000000; stroke-linecap:butt; stroke-linejoin:round; stroke-width:2; stroke-opacity:0.1; fill:none" points="
  581.703,1331.21 581.703,47.2441 
  "/>
<polyline clip-path="url(#clip972)" style="stroke:#000000; stroke-linecap:butt; stroke-linejoin:round; stroke-width:2; stroke-opacity:0.1; fill:none" points="
  674.394,1331.21 674.394,47.2441 
  "/>
<polyline clip-path="url(#clip972)" style="stroke:#000000; stroke-linecap:butt; stroke-linejoin:round; stroke-width:2; stroke-opacity:0.1; fill:none" points="
  767.085,1331.21 767.085,47.2441 
  "/>
<polyline clip-path="url(#clip972)" style="stroke:#000000; stroke-linecap:butt; stroke-linejoin:round; stroke-width:2; stroke-opacity:0.1; fill:none" points="
  859.777,1331.21 859.777,47.2441 
  "/>
<polyline clip-path="url(#clip972)" style="stroke:#000000; stroke-linecap:butt; stroke-linejoin:round; stroke-width:2; stroke-opacity:0.1; fill:none" points="
  952.468,1331.21 952.468,47.2441 
  "/>
<polyline clip-path="url(#clip972)" style="stroke:#000000; stroke-linecap:butt; stroke-linejoin:round; stroke-width:2; stroke-opacity:0.1; fill:none" points="
  1045.16,1331.21 1045.16,47.2441 
  "/>
<polyline clip-path="url(#clip972)" style="stroke:#000000; stroke-linecap:butt; stroke-linejoin:round; stroke-width:2; stroke-opacity:0.1; fill:none" points="
  1137.85,1331.21 1137.85,47.2441 
  "/>
<polyline clip-path="url(#clip972)" style="stroke:#000000; stroke-linecap:butt; stroke-linejoin:round; stroke-width:2; stroke-opacity:0.1; fill:none" points="
  1230.54,1331.21 1230.54,47.2441 
  "/>
<polyline clip-path="url(#clip972)" style="stroke:#000000; stroke-linecap:butt; stroke-linejoin:round; stroke-width:2; stroke-opacity:0.1; fill:none" points="
  1323.23,1331.21 1323.23,47.2441 
  "/>
<polyline clip-path="url(#clip972)" style="stroke:#000000; stroke-linecap:butt; stroke-linejoin:round; stroke-width:2; stroke-opacity:0.1; fill:none" points="
  1415.92,1331.21 1415.92,47.2441 
  "/>
<polyline clip-path="url(#clip972)" style="stroke:#000000; stroke-linecap:butt; stroke-linejoin:round; stroke-width:2; stroke-opacity:0.1; fill:none" points="
  1508.62,1331.21 1508.62,47.2441 
  "/>
<polyline clip-path="url(#clip972)" style="stroke:#000000; stroke-linecap:butt; stroke-linejoin:round; stroke-width:2; stroke-opacity:0.1; fill:none" points="
  1601.31,1331.21 1601.31,47.2441 
  "/>
<polyline clip-path="url(#clip972)" style="stroke:#000000; stroke-linecap:butt; stroke-linejoin:round; stroke-width:2; stroke-opacity:0.1; fill:none" points="
  1694,1331.21 1694,47.2441 
  "/>
<polyline clip-path="url(#clip972)" style="stroke:#000000; stroke-linecap:butt; stroke-linejoin:round; stroke-width:2; stroke-opacity:0.1; fill:none" points="
  1786.69,1331.21 1786.69,47.2441 
  "/>
<polyline clip-path="url(#clip972)" style="stroke:#000000; stroke-linecap:butt; stroke-linejoin:round; stroke-width:2; stroke-opacity:0.1; fill:none" points="
  1879.38,1331.21 1879.38,47.2441 
  "/>
<polyline clip-path="url(#clip972)" style="stroke:#000000; stroke-linecap:butt; stroke-linejoin:round; stroke-width:2; stroke-opacity:0.1; fill:none" points="
  1972.07,1331.21 1972.07,47.2441 
  "/>
<polyline clip-path="url(#clip972)" style="stroke:#000000; stroke-linecap:butt; stroke-linejoin:round; stroke-width:2; stroke-opacity:0.1; fill:none" points="
  2064.76,1331.21 2064.76,47.2441 
  "/>
<polyline clip-path="url(#clip972)" style="stroke:#000000; stroke-linecap:butt; stroke-linejoin:round; stroke-width:2; stroke-opacity:0.1; fill:none" points="
  2157.46,1331.21 2157.46,47.2441 
  "/>
<polyline clip-path="url(#clip972)" style="stroke:#000000; stroke-linecap:butt; stroke-linejoin:round; stroke-width:2; stroke-opacity:0.1; fill:none" points="
  2250.15,1331.21 2250.15,47.2441 
  "/>
<polyline clip-path="url(#clip970)" style="stroke:#000000; stroke-linecap:butt; stroke-linejoin:round; stroke-width:4; stroke-opacity:1; fill:none" points="
  201.019,1331.21 2352.76,1331.21 
  "/>
<polyline clip-path="url(#clip970)" style="stroke:#000000; stroke-linecap:butt; stroke-linejoin:round; stroke-width:4; stroke-opacity:1; fill:none" points="
  303.629,1331.21 303.629,1315.8 
  "/>
<polyline clip-path="url(#clip970)" style="stroke:#000000; stroke-linecap:butt; stroke-linejoin:round; stroke-width:4; stroke-opacity:1; fill:none" points="
  396.32,1331.21 396.32,1315.8 
  "/>
<polyline clip-path="url(#clip970)" style="stroke:#000000; stroke-linecap:butt; stroke-linejoin:round; stroke-width:4; stroke-opacity:1; fill:none" points="
  489.011,1331.21 489.011,1315.8 
  "/>
<polyline clip-path="url(#clip970)" style="stroke:#000000; stroke-linecap:butt; stroke-linejoin:round; stroke-width:4; stroke-opacity:1; fill:none" points="
  581.703,1331.21 581.703,1315.8 
  "/>
<polyline clip-path="url(#clip970)" style="stroke:#000000; stroke-linecap:butt; stroke-linejoin:round; stroke-width:4; stroke-opacity:1; fill:none" points="
  674.394,1331.21 674.394,1315.8 
  "/>
<polyline clip-path="url(#clip970)" style="stroke:#000000; stroke-linecap:butt; stroke-linejoin:round; stroke-width:4; stroke-opacity:1; fill:none" points="
  767.085,1331.21 767.085,1315.8 
  "/>
<polyline clip-path="url(#clip970)" style="stroke:#000000; stroke-linecap:butt; stroke-linejoin:round; stroke-width:4; stroke-opacity:1; fill:none" points="
  859.777,1331.21 859.777,1315.8 
  "/>
<polyline clip-path="url(#clip970)" style="stroke:#000000; stroke-linecap:butt; stroke-linejoin:round; stroke-width:4; stroke-opacity:1; fill:none" points="
  952.468,1331.21 952.468,1315.8 
  "/>
<polyline clip-path="url(#clip970)" style="stroke:#000000; stroke-linecap:butt; stroke-linejoin:round; stroke-width:4; stroke-opacity:1; fill:none" points="
  1045.16,1331.21 1045.16,1315.8 
  "/>
<polyline clip-path="url(#clip970)" style="stroke:#000000; stroke-linecap:butt; stroke-linejoin:round; stroke-width:4; stroke-opacity:1; fill:none" points="
  1137.85,1331.21 1137.85,1315.8 
  "/>
<polyline clip-path="url(#clip970)" style="stroke:#000000; stroke-linecap:butt; stroke-linejoin:round; stroke-width:4; stroke-opacity:1; fill:none" points="
  1230.54,1331.21 1230.54,1315.8 
  "/>
<polyline clip-path="url(#clip970)" style="stroke:#000000; stroke-linecap:butt; stroke-linejoin:round; stroke-width:4; stroke-opacity:1; fill:none" points="
  1323.23,1331.21 1323.23,1315.8 
  "/>
<polyline clip-path="url(#clip970)" style="stroke:#000000; stroke-linecap:butt; stroke-linejoin:round; stroke-width:4; stroke-opacity:1; fill:none" points="
  1415.92,1331.21 1415.92,1315.8 
  "/>
<polyline clip-path="url(#clip970)" style="stroke:#000000; stroke-linecap:butt; stroke-linejoin:round; stroke-width:4; stroke-opacity:1; fill:none" points="
  1508.62,1331.21 1508.62,1315.8 
  "/>
<polyline clip-path="url(#clip970)" style="stroke:#000000; stroke-linecap:butt; stroke-linejoin:round; stroke-width:4; stroke-opacity:1; fill:none" points="
  1601.31,1331.21 1601.31,1315.8 
  "/>
<polyline clip-path="url(#clip970)" style="stroke:#000000; stroke-linecap:butt; stroke-linejoin:round; stroke-width:4; stroke-opacity:1; fill:none" points="
  1694,1331.21 1694,1315.8 
  "/>
<polyline clip-path="url(#clip970)" style="stroke:#000000; stroke-linecap:butt; stroke-linejoin:round; stroke-width:4; stroke-opacity:1; fill:none" points="
  1786.69,1331.21 1786.69,1315.8 
  "/>
<polyline clip-path="url(#clip970)" style="stroke:#000000; stroke-linecap:butt; stroke-linejoin:round; stroke-width:4; stroke-opacity:1; fill:none" points="
  1879.38,1331.21 1879.38,1315.8 
  "/>
<polyline clip-path="url(#clip970)" style="stroke:#000000; stroke-linecap:butt; stroke-linejoin:round; stroke-width:4; stroke-opacity:1; fill:none" points="
  1972.07,1331.21 1972.07,1315.8 
  "/>
<polyline clip-path="url(#clip970)" style="stroke:#000000; stroke-linecap:butt; stroke-linejoin:round; stroke-width:4; stroke-opacity:1; fill:none" points="
  2064.76,1331.21 2064.76,1315.8 
  "/>
<polyline clip-path="url(#clip970)" style="stroke:#000000; stroke-linecap:butt; stroke-linejoin:round; stroke-width:4; stroke-opacity:1; fill:none" points="
  2157.46,1331.21 2157.46,1315.8 
  "/>
<polyline clip-path="url(#clip970)" style="stroke:#000000; stroke-linecap:butt; stroke-linejoin:round; stroke-width:4; stroke-opacity:1; fill:none" points="
  2250.15,1331.21 2250.15,1315.8 
  "/>
<path clip-path="url(#clip970)" d="M205.304 1595.78 L213.463 1581.65 L216.871 1583.62 L205.899 1602.62 L202.491 1600.65 Q201.437 1596.97 199.719 1590.69 Q197.993 1584.37 197.42 1582.68 Q196.358 1579.47 195.294 1577.84 Q194.222 1576.18 192.759 1575.34 Q190.373 1573.96 187.897 1574.77 Q185.433 1575.57 183.882 1578.26 Q182.783 1580.16 182.218 1582.67 Q181.664 1585.15 181.618 1588.34 L177.529 1585.97 Q177.958 1582.96 178.684 1580.55 Q179.41 1578.13 180.428 1576.37 Q183.113 1571.72 187.036 1570.29 Q190.959 1568.87 194.848 1571.12 Q196.692 1572.18 197.951 1573.84 Q199.201 1575.47 200.393 1578.59 Q200.685 1579.43 201.921 1583.73 Q203.136 1588.01 205.304 1595.78 Z" fill="#000000" fill-rule="evenodd" fill-opacity="1" /><path clip-path="url(#clip970)" d="M199.515 1550.72 Q197.71 1553.84 199.882 1557.21 Q202.047 1560.54 208.221 1564.11 Q214.376 1567.66 218.366 1567.88 Q222.347 1568.07 224.153 1564.94 Q225.97 1561.79 223.805 1558.46 Q221.633 1555.09 215.478 1551.54 Q209.304 1547.98 205.322 1547.79 Q201.332 1547.57 199.515 1550.72 M196.308 1548.86 Q199.213 1543.83 204.73 1543.49 Q210.238 1543.12 217.816 1547.49 Q225.374 1551.85 227.824 1556.82 Q230.265 1561.76 227.36 1566.79 Q224.455 1571.82 218.946 1572.2 Q213.429 1572.54 205.872 1568.18 Q198.294 1563.8 195.853 1558.87 Q193.403 1553.9 196.308 1548.86 Z" fill="#000000" fill-rule="evenodd" fill-opacity="1" /><path clip-path="url(#clip970)" d="M235.466 1543.54 L243.625 1529.41 L247.033 1531.38 L236.061 1550.38 L232.653 1548.41 Q231.599 1544.73 229.881 1538.45 Q228.155 1532.13 227.582 1530.44 Q226.52 1527.23 225.456 1525.6 Q224.384 1523.94 222.921 1523.09 Q220.535 1521.72 218.059 1522.53 Q215.595 1523.33 214.044 1526.01 Q212.945 1527.92 212.379 1530.43 Q211.826 1532.91 211.78 1536.09 L207.69 1533.73 Q208.12 1530.72 208.846 1528.31 Q209.572 1525.89 210.59 1524.13 Q213.275 1519.48 217.198 1518.05 Q221.12 1516.63 225.01 1518.87 Q226.854 1519.94 228.113 1521.6 Q229.363 1523.23 230.555 1526.35 Q230.847 1527.19 232.083 1531.48 Q233.298 1535.77 235.466 1543.54 Z" fill="#000000" fill-rule="evenodd" fill-opacity="1" /><path clip-path="url(#clip970)" d="M248.938 1520.21 L252.757 1513.59 L229.924 1500.41 L227.212 1508.44 L223.524 1506.31 L226.212 1498.32 L228.55 1494.27 L255.072 1509.58 L258.891 1502.97 L262.299 1504.93 L252.346 1522.17 L248.938 1520.21 Z" fill="#000000" fill-rule="evenodd" fill-opacity="1" /><path clip-path="url(#clip970)" d="M252.754 1491.7 L258.993 1480.89 L262.28 1482.79 L256.042 1493.6 L252.754 1491.7 Z" fill="#000000" fill-rule="evenodd" fill-opacity="1" /><path clip-path="url(#clip970)" d="M253.311 1457.54 Q251.506 1460.67 253.679 1464.03 Q255.843 1467.37 262.017 1470.93 Q268.172 1474.49 272.162 1474.7 Q276.143 1474.89 277.949 1471.76 Q279.766 1468.62 277.601 1465.28 Q275.429 1461.92 269.274 1458.36 Q263.1 1454.8 259.118 1454.61 Q255.128 1454.39 253.311 1457.54 M250.104 1455.69 Q253.009 1450.66 258.526 1450.31 Q264.034 1449.94 271.612 1454.31 Q279.17 1458.68 281.62 1463.65 Q284.061 1468.58 281.156 1473.62 Q278.251 1478.65 272.742 1479.02 Q267.225 1479.36 259.668 1475 Q252.09 1470.63 249.649 1465.69 Q247.199 1460.72 250.104 1455.69 Z" fill="#000000" fill-rule="evenodd" fill-opacity="1" /><path clip-path="url(#clip970)" d="M260.749 1438.5 L269.927 1422.6 L273.335 1424.57 L266.298 1436.76 L273.635 1440.99 Q273.844 1439.94 274.213 1438.98 Q274.562 1438 275.071 1437.12 Q277.964 1432.11 282.401 1430.77 Q286.837 1429.42 291.528 1432.13 Q296.359 1434.92 297.309 1439.48 Q298.239 1444.03 295.08 1449.5 Q293.992 1451.38 292.537 1453.16 Q291.093 1454.92 289.248 1456.64 L285.179 1454.29 Q287.203 1453.05 288.795 1451.4 Q290.387 1449.76 291.625 1447.61 Q293.628 1444.14 292.972 1441.07 Q292.317 1437.99 289.19 1436.18 Q286.063 1434.38 283.069 1435.35 Q280.076 1436.32 278.074 1439.79 Q277.136 1441.41 276.56 1443.24 Q275.995 1445.06 275.784 1447.18 L260.749 1438.5 Z" fill="#000000" fill-rule="evenodd" fill-opacity="1" /><path clip-path="url(#clip970)" d="M291.469 1424.64 L297.708 1413.84 L300.995 1415.73 L294.757 1426.54 L291.469 1424.64 Z" fill="#000000" fill-rule="evenodd" fill-opacity="1" /><path clip-path="url(#clip970)" d="M311.287 1412.21 L315.106 1405.6 L292.273 1392.42 L289.561 1400.45 L285.873 1398.32 L288.561 1390.33 L290.899 1386.28 L317.421 1401.59 L321.241 1394.97 L324.649 1396.94 L314.695 1414.18 L311.287 1412.21 Z" fill="#000000" fill-rule="evenodd" fill-opacity="1" /><path clip-path="url(#clip970)" d="M327.977 1383.31 L336.136 1369.17 L339.544 1371.14 L328.572 1390.15 L325.164 1388.18 Q324.11 1384.5 322.392 1378.21 Q320.666 1371.9 320.093 1370.2 Q319.031 1367 317.967 1365.37 Q316.895 1363.7 315.432 1362.86 Q313.046 1361.48 310.57 1362.3 Q308.106 1363.09 306.555 1365.78 Q305.456 1367.69 304.891 1370.19 Q304.337 1372.68 304.291 1375.86 L300.202 1373.5 Q300.631 1370.49 301.357 1368.07 Q302.083 1365.66 303.101 1363.89 Q305.786 1359.24 309.709 1357.82 Q313.632 1356.39 317.521 1358.64 Q319.365 1359.7 320.624 1361.37 Q321.874 1363 323.066 1366.12 Q323.358 1366.96 324.594 1371.25 Q325.809 1375.53 327.977 1383.31 Z" fill="#000000" fill-rule="evenodd" fill-opacity="1" /><path clip-path="url(#clip970)" d="M483.031 1596.38 L491.19 1582.25 L494.598 1584.22 L483.626 1603.22 L480.218 1601.26 Q479.164 1597.57 477.446 1591.29 Q475.72 1584.97 475.147 1583.28 Q474.085 1580.07 473.021 1578.44 Q471.949 1576.78 470.486 1575.94 Q468.1 1574.56 465.624 1575.38 Q463.16 1576.17 461.609 1578.86 Q460.51 1580.76 459.944 1583.27 Q459.391 1585.76 459.345 1588.94 L455.255 1586.58 Q455.685 1583.56 456.411 1581.15 Q457.136 1578.73 458.155 1576.97 Q460.84 1572.32 464.763 1570.9 Q468.685 1569.47 472.574 1571.72 Q474.419 1572.78 475.678 1574.44 Q476.928 1576.07 478.12 1579.2 Q478.412 1580.03 479.647 1584.33 Q480.863 1588.61 483.031 1596.38 Z" fill="#000000" fill-rule="evenodd" fill-opacity="1" /><path clip-path="url(#clip970)" d="M477.242 1551.32 Q475.436 1554.45 477.609 1557.81 Q479.774 1561.15 485.948 1564.71 Q492.102 1568.26 496.092 1568.48 Q500.074 1568.67 501.879 1565.54 Q503.697 1562.4 501.532 1559.06 Q499.359 1555.69 493.205 1552.14 Q487.031 1548.58 483.049 1548.39 Q479.059 1548.17 477.242 1551.32 M474.034 1549.47 Q476.94 1544.43 482.457 1544.09 Q487.965 1543.72 495.543 1548.09 Q503.101 1552.46 505.551 1557.42 Q507.992 1562.36 505.087 1567.39 Q502.182 1572.43 496.673 1572.8 Q491.156 1573.14 483.599 1568.78 Q476.021 1564.41 473.579 1559.47 Q471.129 1554.5 474.034 1549.47 Z" fill="#000000" fill-rule="evenodd" fill-opacity="1" /><path clip-path="url(#clip970)" d="M513.192 1544.14 L521.352 1530.01 L524.76 1531.98 L513.788 1550.98 L510.38 1549.01 Q509.325 1545.33 507.608 1539.05 Q505.882 1532.73 505.309 1531.04 Q504.247 1527.83 503.183 1526.2 Q502.111 1524.54 500.647 1523.7 Q498.262 1522.32 495.786 1523.13 Q493.322 1523.93 491.771 1526.62 Q490.672 1528.52 490.106 1531.03 Q489.553 1533.51 489.507 1536.7 L485.417 1534.33 Q485.847 1531.32 486.573 1528.91 Q487.298 1526.49 488.317 1524.73 Q491.002 1520.08 494.925 1518.65 Q498.847 1517.23 502.736 1519.48 Q504.581 1520.54 505.839 1522.2 Q507.09 1523.83 508.282 1526.95 Q508.574 1527.79 509.809 1532.09 Q511.025 1536.37 513.192 1544.14 Z" fill="#000000" fill-rule="evenodd" fill-opacity="1" /><path clip-path="url(#clip970)" d="M526.665 1520.81 L530.484 1514.19 L507.651 1501.01 L504.939 1509.04 L501.25 1506.91 L503.939 1498.92 L506.277 1494.87 L532.799 1510.18 L536.618 1503.57 L540.026 1505.54 L530.073 1522.78 L526.665 1520.81 Z" fill="#000000" fill-rule="evenodd" fill-opacity="1" /><path clip-path="url(#clip970)" d="M530.481 1492.3 L536.719 1481.49 L540.007 1483.39 L533.769 1494.2 L530.481 1492.3 Z" fill="#000000" fill-rule="evenodd" fill-opacity="1" /><path clip-path="url(#clip970)" d="M531.038 1458.14 Q529.232 1461.27 531.405 1464.63 Q533.57 1467.97 539.744 1471.53 Q545.898 1475.09 549.888 1475.31 Q553.87 1475.49 555.675 1472.37 Q557.493 1469.22 555.328 1465.88 Q553.155 1462.52 547.001 1458.96 Q540.827 1455.4 536.845 1455.21 Q532.855 1454.99 531.038 1458.14 M527.83 1456.29 Q530.736 1451.26 536.253 1450.91 Q541.761 1450.54 549.339 1454.91 Q556.897 1459.28 559.347 1464.25 Q561.788 1469.19 558.883 1474.22 Q555.978 1479.25 550.469 1479.62 Q544.952 1479.97 537.395 1475.6 Q529.817 1471.23 527.375 1466.29 Q524.925 1461.32 527.83 1456.29 Z" fill="#000000" fill-rule="evenodd" fill-opacity="1" /><path clip-path="url(#clip970)" d="M538.476 1439.1 L547.654 1423.2 L551.062 1425.17 L544.025 1437.36 L551.362 1441.6 Q551.571 1440.54 551.94 1439.58 Q552.288 1438.6 552.798 1437.72 Q555.691 1432.71 560.127 1431.37 Q564.564 1430.03 569.255 1432.73 Q574.086 1435.52 575.036 1440.08 Q575.966 1444.63 572.806 1450.1 Q571.719 1451.99 570.264 1453.76 Q568.82 1455.52 566.975 1457.24 L562.905 1454.89 Q564.929 1453.65 566.522 1452.01 Q568.114 1450.36 569.352 1448.21 Q571.355 1444.75 570.699 1441.67 Q570.044 1438.59 566.917 1436.78 Q563.789 1434.98 560.796 1435.95 Q557.803 1436.92 555.801 1440.39 Q554.863 1442.01 554.286 1443.85 Q553.721 1445.66 553.511 1447.78 L538.476 1439.1 Z" fill="#000000" fill-rule="evenodd" fill-opacity="1" /><path clip-path="url(#clip970)" d="M569.196 1425.24 L575.435 1414.44 L578.722 1416.34 L572.484 1427.14 L569.196 1425.24 Z" fill="#000000" fill-rule="evenodd" fill-opacity="1" /><path clip-path="url(#clip970)" d="M589.014 1412.82 L592.833 1406.2 L570 1393.02 L567.288 1401.05 L563.6 1398.92 L566.288 1390.93 L568.626 1386.88 L595.148 1402.19 L598.967 1395.58 L602.375 1397.54 L592.422 1414.78 L589.014 1412.82 Z" fill="#000000" fill-rule="evenodd" fill-opacity="1" /><path clip-path="url(#clip970)" d="M576.578 1373.11 L587.689 1353.86 L589.413 1354.86 L611.345 1382.01 L608.903 1386.24 L588.284 1360.7 L579.985 1375.07 L576.578 1373.11 Z" fill="#000000" fill-rule="evenodd" fill-opacity="1" /><path clip-path="url(#clip970)" d="M760.653 1597.17 L768.813 1583.03 L772.221 1585 L761.249 1604 L757.841 1602.04 Q756.786 1598.35 755.068 1592.07 Q753.342 1585.75 752.77 1584.06 Q751.707 1580.86 750.644 1579.23 Q749.572 1577.56 748.108 1576.72 Q745.723 1575.34 743.247 1576.16 Q740.783 1576.95 739.232 1579.64 Q738.132 1581.54 737.567 1584.05 Q737.013 1586.54 736.967 1589.72 L732.878 1587.36 Q733.308 1584.35 734.033 1581.93 Q734.759 1579.52 735.778 1577.75 Q738.463 1573.1 742.385 1571.68 Q746.308 1570.25 750.197 1572.5 Q752.041 1573.56 753.3 1575.23 Q754.55 1576.86 755.742 1579.98 Q756.035 1580.81 757.27 1585.11 Q758.486 1589.39 760.653 1597.17 Z" fill="#000000" fill-rule="evenodd" fill-opacity="1" /><path clip-path="url(#clip970)" d="M754.865 1552.1 Q753.059 1555.23 755.232 1558.59 Q757.396 1561.93 763.571 1565.49 Q769.725 1569.05 773.715 1569.26 Q777.697 1569.45 779.502 1566.32 Q781.319 1563.18 779.155 1559.84 Q776.982 1556.48 770.828 1552.92 Q764.653 1549.36 760.672 1549.17 Q756.682 1548.95 754.865 1552.1 M751.657 1550.25 Q754.562 1545.22 760.079 1544.87 Q765.588 1544.5 773.166 1548.87 Q780.723 1553.24 783.173 1558.21 Q785.615 1563.14 782.71 1568.18 Q779.804 1573.21 774.296 1573.58 Q768.779 1573.93 761.221 1569.56 Q753.643 1565.19 751.202 1560.25 Q748.752 1555.28 751.657 1550.25 Z" fill="#000000" fill-rule="evenodd" fill-opacity="1" /><path clip-path="url(#clip970)" d="M790.815 1544.92 L798.975 1530.79 L802.383 1532.76 L791.411 1551.76 L788.003 1549.8 Q786.948 1546.11 785.23 1539.83 Q783.504 1533.51 782.932 1531.82 Q781.869 1528.61 780.806 1526.98 Q779.733 1525.32 778.27 1524.48 Q775.884 1523.1 773.409 1523.92 Q770.945 1524.71 769.394 1527.4 Q768.294 1529.3 767.729 1531.81 Q767.175 1534.3 767.129 1537.48 L763.04 1535.12 Q763.47 1532.1 764.195 1529.69 Q764.921 1527.27 765.939 1525.51 Q768.625 1520.86 772.547 1519.44 Q776.47 1518.01 780.359 1520.26 Q782.203 1521.32 783.462 1522.98 Q784.712 1524.61 785.904 1527.74 Q786.196 1528.57 787.432 1532.87 Q788.648 1537.15 790.815 1544.92 Z" fill="#000000" fill-rule="evenodd" fill-opacity="1" /><path clip-path="url(#clip970)" d="M804.287 1521.59 L808.107 1514.97 L785.273 1501.79 L782.562 1509.82 L778.873 1507.69 L781.562 1499.7 L783.9 1495.65 L810.421 1510.96 L814.241 1504.35 L817.649 1506.32 L807.695 1523.56 L804.287 1521.59 Z" fill="#000000" fill-rule="evenodd" fill-opacity="1" /><path clip-path="url(#clip970)" d="M808.104 1493.08 L814.342 1482.28 L817.63 1484.17 L811.391 1494.98 L808.104 1493.08 Z" fill="#000000" fill-rule="evenodd" fill-opacity="1" /><path clip-path="url(#clip970)" d="M808.661 1458.92 Q806.855 1462.05 809.028 1465.42 Q811.192 1468.75 817.367 1472.32 Q823.521 1475.87 827.511 1476.09 Q831.493 1476.27 833.298 1473.15 Q835.115 1470 832.951 1466.67 Q830.778 1463.3 824.624 1459.75 Q818.449 1456.18 814.468 1455.99 Q810.478 1455.78 808.661 1458.92 M805.453 1457.07 Q808.358 1452.04 813.875 1451.7 Q819.384 1451.32 826.962 1455.7 Q834.519 1460.06 836.969 1465.03 Q839.411 1469.97 836.506 1475 Q833.6 1480.03 828.092 1480.41 Q822.575 1480.75 815.017 1476.38 Q807.439 1472.01 804.998 1467.07 Q802.548 1462.1 805.453 1457.07 Z" fill="#000000" fill-rule="evenodd" fill-opacity="1" /><path clip-path="url(#clip970)" d="M816.098 1439.88 L825.277 1423.99 L828.685 1425.95 L821.648 1438.14 L828.985 1442.38 Q829.193 1441.32 829.562 1440.36 Q829.911 1439.38 830.42 1438.5 Q833.314 1433.49 837.75 1432.15 Q842.186 1430.81 846.877 1433.52 Q851.709 1436.31 852.659 1440.86 Q853.589 1445.41 850.429 1450.88 Q849.341 1452.77 847.886 1454.55 Q846.443 1456.31 844.598 1458.02 L840.528 1455.67 Q842.552 1454.43 844.144 1452.79 Q845.736 1451.14 846.975 1449 Q848.977 1445.53 848.322 1442.45 Q847.667 1439.37 844.539 1437.57 Q841.412 1435.76 838.419 1436.73 Q835.426 1437.7 833.423 1441.17 Q832.486 1442.79 831.909 1444.63 Q831.344 1446.44 831.134 1448.56 L816.098 1439.88 Z" fill="#000000" fill-rule="evenodd" fill-opacity="1" /><path clip-path="url(#clip970)" d="M846.819 1426.02 L853.057 1415.22 L856.345 1417.12 L850.106 1427.92 L846.819 1426.02 Z" fill="#000000" fill-rule="evenodd" fill-opacity="1" /><path clip-path="url(#clip970)" d="M868.245 1410.81 L876.405 1396.68 L879.813 1398.65 L868.841 1417.65 L865.433 1415.68 Q864.378 1412 862.66 1405.72 Q860.934 1399.4 860.362 1397.71 Q859.299 1394.5 858.236 1392.87 Q857.164 1391.21 855.7 1390.36 Q853.315 1388.99 850.839 1389.8 Q848.375 1390.6 846.824 1393.28 Q845.724 1395.19 845.159 1397.7 Q844.605 1400.18 844.56 1403.36 L840.47 1401 Q840.9 1397.99 841.625 1395.58 Q842.351 1393.16 843.37 1391.4 Q846.055 1386.75 849.977 1385.32 Q853.9 1383.9 857.789 1386.14 Q859.633 1387.21 860.892 1388.87 Q862.143 1390.5 863.335 1393.62 Q863.627 1394.46 864.862 1398.75 Q866.078 1403.04 868.245 1410.81 Z" fill="#000000" fill-rule="evenodd" fill-opacity="1" /><path clip-path="url(#clip970)" d="M862.457 1365.75 Q860.651 1368.87 862.824 1372.24 Q864.988 1375.57 871.163 1379.14 Q877.317 1382.69 881.307 1382.91 Q885.289 1383.1 887.094 1379.97 Q888.911 1376.82 886.747 1373.49 Q884.574 1370.12 878.42 1366.57 Q872.245 1363 868.264 1362.82 Q864.274 1362.6 862.457 1365.75 M859.249 1363.89 Q862.154 1358.86 867.671 1358.52 Q873.18 1358.14 880.758 1362.52 Q888.315 1366.88 890.765 1371.85 Q893.207 1376.79 890.302 1381.82 Q887.396 1386.85 881.888 1387.23 Q876.371 1387.57 868.813 1383.21 Q861.235 1378.83 858.794 1373.89 Q856.344 1368.93 859.249 1363.89 Z" fill="#000000" fill-rule="evenodd" fill-opacity="1" /><path clip-path="url(#clip970)" d="M1039.22 1596.3 L1047.38 1582.17 L1050.79 1584.14 L1039.82 1603.14 L1036.41 1601.18 Q1035.36 1597.49 1033.64 1591.21 Q1031.91 1584.89 1031.34 1583.2 Q1030.28 1579.99 1029.22 1578.36 Q1028.14 1576.7 1026.68 1575.86 Q1024.29 1574.48 1021.82 1575.3 Q1019.35 1576.09 1017.8 1578.78 Q1016.7 1580.68 1016.14 1583.19 Q1015.58 1585.68 1015.54 1588.86 L1011.45 1586.5 Q1011.88 1583.48 1012.61 1581.07 Q1013.33 1578.65 1014.35 1576.89 Q1017.03 1572.24 1020.96 1570.82 Q1024.88 1569.39 1028.77 1571.64 Q1030.61 1572.7 1031.87 1574.36 Q1033.12 1575.99 1034.31 1579.12 Q1034.61 1579.95 1035.84 1584.25 Q1037.06 1588.53 1039.22 1596.3 Z" fill="#000000" fill-rule="evenodd" fill-opacity="1" /><path clip-path="url(#clip970)" d="M1033.44 1551.24 Q1031.63 1554.37 1033.8 1557.73 Q1035.97 1561.07 1042.14 1564.63 Q1048.3 1568.18 1052.29 1568.4 Q1056.27 1568.59 1058.07 1565.46 Q1059.89 1562.32 1057.73 1558.98 Q1055.55 1555.61 1049.4 1552.06 Q1043.22 1548.5 1039.24 1548.31 Q1035.25 1548.09 1033.44 1551.24 M1030.23 1549.39 Q1033.13 1544.35 1038.65 1544.01 Q1044.16 1543.64 1051.74 1548.01 Q1059.29 1552.38 1061.74 1557.34 Q1064.19 1562.28 1061.28 1567.31 Q1058.38 1572.35 1052.87 1572.72 Q1047.35 1573.06 1039.79 1568.7 Q1032.22 1564.33 1029.77 1559.39 Q1027.32 1554.42 1030.23 1549.39 Z" fill="#000000" fill-rule="evenodd" fill-opacity="1" /><path clip-path="url(#clip970)" d="M1069.39 1544.06 L1077.55 1529.93 L1080.95 1531.9 L1069.98 1550.9 L1066.57 1548.93 Q1065.52 1545.25 1063.8 1538.97 Q1062.08 1532.65 1061.5 1530.96 Q1060.44 1527.75 1059.38 1526.12 Q1058.31 1524.46 1056.84 1523.62 Q1054.46 1522.24 1051.98 1523.05 Q1049.52 1523.85 1047.97 1526.54 Q1046.87 1528.44 1046.3 1530.95 Q1045.75 1533.43 1045.7 1536.62 L1041.61 1534.25 Q1042.04 1531.24 1042.77 1528.83 Q1043.49 1526.41 1044.51 1524.65 Q1047.2 1520 1051.12 1518.57 Q1055.04 1517.15 1058.93 1519.4 Q1060.77 1520.46 1062.03 1522.12 Q1063.28 1523.75 1064.48 1526.87 Q1064.77 1527.71 1066 1532.01 Q1067.22 1536.29 1069.39 1544.06 Z" fill="#000000" fill-rule="evenodd" fill-opacity="1" /><path clip-path="url(#clip970)" d="M1082.86 1520.73 L1086.68 1514.11 L1063.85 1500.93 L1061.13 1508.96 L1057.44 1506.83 L1060.13 1498.84 L1062.47 1494.79 L1088.99 1510.1 L1092.81 1503.49 L1096.22 1505.46 L1086.27 1522.7 L1082.86 1520.73 Z" fill="#000000" fill-rule="evenodd" fill-opacity="1" /><path clip-path="url(#clip970)" d="M1086.68 1492.22 L1092.91 1481.41 L1096.2 1483.31 L1089.96 1494.12 L1086.68 1492.22 Z" fill="#000000" fill-rule="evenodd" fill-opacity="1" /><path clip-path="url(#clip970)" d="M1087.23 1458.06 Q1085.43 1461.19 1087.6 1464.55 Q1089.76 1467.89 1095.94 1471.45 Q1102.09 1475.01 1106.08 1475.23 Q1110.06 1475.41 1111.87 1472.28 Q1113.69 1469.14 1111.52 1465.8 Q1109.35 1462.44 1103.2 1458.88 Q1097.02 1455.32 1093.04 1455.13 Q1089.05 1454.91 1087.23 1458.06 M1084.02 1456.21 Q1086.93 1451.18 1092.45 1450.83 Q1097.96 1450.46 1105.53 1454.83 Q1113.09 1459.2 1115.54 1464.17 Q1117.98 1469.11 1115.08 1474.14 Q1112.17 1479.17 1106.66 1479.54 Q1101.15 1479.89 1093.59 1475.52 Q1086.01 1471.15 1083.57 1466.21 Q1081.12 1461.24 1084.02 1456.21 Z" fill="#000000" fill-rule="evenodd" fill-opacity="1" /><path clip-path="url(#clip970)" d="M1094.67 1439.02 L1103.85 1423.12 L1107.26 1425.09 L1100.22 1437.28 L1107.56 1441.52 Q1107.76 1440.46 1108.13 1439.5 Q1108.48 1438.52 1108.99 1437.64 Q1111.89 1432.63 1116.32 1431.29 Q1120.76 1429.95 1125.45 1432.65 Q1130.28 1435.44 1131.23 1440 Q1132.16 1444.55 1129 1450.02 Q1127.91 1451.9 1126.46 1453.68 Q1125.01 1455.44 1123.17 1457.16 L1119.1 1454.81 Q1121.12 1453.57 1122.72 1451.92 Q1124.31 1450.28 1125.55 1448.13 Q1127.55 1444.67 1126.89 1441.59 Q1126.24 1438.51 1123.11 1436.7 Q1119.98 1434.9 1116.99 1435.87 Q1114 1436.84 1111.99 1440.31 Q1111.06 1441.93 1110.48 1443.77 Q1109.92 1445.58 1109.71 1447.7 L1094.67 1439.02 Z" fill="#000000" fill-rule="evenodd" fill-opacity="1" /><path clip-path="url(#clip970)" d="M1125.39 1425.16 L1131.63 1414.36 L1134.92 1416.26 L1128.68 1427.06 L1125.39 1425.16 Z" fill="#000000" fill-rule="evenodd" fill-opacity="1" /><path clip-path="url(#clip970)" d="M1146.82 1409.95 L1154.98 1395.82 L1158.38 1397.78 L1147.41 1416.79 L1144 1414.82 Q1142.95 1411.14 1141.23 1404.85 Q1139.51 1398.54 1138.93 1396.84 Q1137.87 1393.64 1136.81 1392.01 Q1135.74 1390.35 1134.27 1389.5 Q1131.89 1388.12 1129.41 1388.94 Q1126.95 1389.74 1125.4 1392.42 Q1124.3 1394.33 1123.73 1396.83 Q1123.18 1399.32 1123.13 1402.5 L1119.04 1400.14 Q1119.47 1397.13 1120.2 1394.71 Q1120.92 1392.3 1121.94 1390.54 Q1124.63 1385.88 1128.55 1384.46 Q1132.47 1383.04 1136.36 1385.28 Q1138.21 1386.35 1139.46 1388.01 Q1140.71 1389.64 1141.91 1392.76 Q1142.2 1393.6 1143.43 1397.89 Q1144.65 1402.18 1146.82 1409.95 Z" fill="#000000" fill-rule="evenodd" fill-opacity="1" /><path clip-path="url(#clip970)" d="M1133.39 1371.96 L1142.56 1356.07 L1145.97 1358.03 L1138.93 1370.22 L1146.27 1374.46 Q1146.48 1373.4 1146.85 1372.44 Q1147.2 1371.47 1147.71 1370.58 Q1150.6 1365.57 1155.04 1364.23 Q1159.47 1362.89 1164.16 1365.6 Q1169 1368.39 1169.95 1372.94 Q1170.88 1377.49 1167.72 1382.96 Q1166.63 1384.85 1165.17 1386.63 Q1163.73 1388.39 1161.88 1390.1 L1157.81 1387.75 Q1159.84 1386.52 1161.43 1384.87 Q1163.02 1383.22 1164.26 1381.08 Q1166.26 1377.61 1165.61 1374.53 Q1164.95 1371.45 1161.83 1369.65 Q1158.7 1367.84 1155.71 1368.81 Q1152.71 1369.78 1150.71 1373.25 Q1149.77 1374.88 1149.2 1376.71 Q1148.63 1378.52 1148.42 1380.64 L1133.39 1371.96 Z" fill="#000000" fill-rule="evenodd" fill-opacity="1" /><path clip-path="url(#clip970)" d="M1316.85 1597.09 L1325.01 1582.95 L1328.42 1584.92 L1317.44 1603.92 L1314.04 1601.96 Q1312.98 1598.27 1311.26 1591.99 Q1309.54 1585.67 1308.96 1583.98 Q1307.9 1580.78 1306.84 1579.15 Q1305.77 1577.48 1304.3 1576.64 Q1301.92 1575.26 1299.44 1576.08 Q1296.98 1576.87 1295.43 1579.56 Q1294.33 1581.46 1293.76 1583.97 Q1293.21 1586.46 1293.16 1589.64 L1289.07 1587.28 Q1289.5 1584.26 1290.23 1581.85 Q1290.95 1579.44 1291.97 1577.67 Q1294.66 1573.02 1298.58 1571.6 Q1302.5 1570.17 1306.39 1572.42 Q1308.24 1573.48 1309.49 1575.15 Q1310.74 1576.78 1311.94 1579.9 Q1312.23 1580.73 1313.46 1585.03 Q1314.68 1589.31 1316.85 1597.09 Z" fill="#000000" fill-rule="evenodd" fill-opacity="1" /><path clip-path="url(#clip970)" d="M1311.06 1552.02 Q1309.25 1555.15 1311.43 1558.51 Q1313.59 1561.85 1319.76 1565.41 Q1325.92 1568.97 1329.91 1569.18 Q1333.89 1569.37 1335.7 1566.24 Q1337.51 1563.1 1335.35 1559.76 Q1333.18 1556.4 1327.02 1552.84 Q1320.85 1549.28 1316.87 1549.09 Q1312.88 1548.87 1311.06 1552.02 M1307.85 1550.17 Q1310.76 1545.14 1316.27 1544.79 Q1321.78 1544.42 1329.36 1548.79 Q1336.92 1553.16 1339.37 1558.13 Q1341.81 1563.06 1338.9 1568.1 Q1336 1573.13 1330.49 1573.5 Q1324.97 1573.85 1317.42 1569.48 Q1309.84 1565.11 1307.4 1560.17 Q1304.95 1555.2 1307.85 1550.17 Z" fill="#000000" fill-rule="evenodd" fill-opacity="1" /><path clip-path="url(#clip970)" d="M1347.01 1544.84 L1355.17 1530.71 L1358.58 1532.68 L1347.6 1551.68 L1344.2 1549.72 Q1343.14 1546.03 1341.42 1539.75 Q1339.7 1533.43 1339.13 1531.74 Q1338.06 1528.53 1337 1526.9 Q1335.93 1525.24 1334.46 1524.4 Q1332.08 1523.02 1329.6 1523.84 Q1327.14 1524.63 1325.59 1527.32 Q1324.49 1529.22 1323.92 1531.73 Q1323.37 1534.22 1323.32 1537.4 L1319.23 1535.04 Q1319.66 1532.02 1320.39 1529.61 Q1321.12 1527.19 1322.13 1525.43 Q1324.82 1520.78 1328.74 1519.36 Q1332.66 1517.93 1336.55 1520.18 Q1338.4 1521.24 1339.66 1522.9 Q1340.91 1524.53 1342.1 1527.66 Q1342.39 1528.49 1343.63 1532.79 Q1344.84 1537.07 1347.01 1544.84 Z" fill="#000000" fill-rule="evenodd" fill-opacity="1" /><path clip-path="url(#clip970)" d="M1360.48 1521.51 L1364.3 1514.89 L1341.47 1501.71 L1338.76 1509.74 L1335.07 1507.61 L1337.76 1499.62 L1340.09 1495.57 L1366.62 1510.88 L1370.44 1504.27 L1373.84 1506.24 L1363.89 1523.48 L1360.48 1521.51 Z" fill="#000000" fill-rule="evenodd" fill-opacity="1" /><path clip-path="url(#clip970)" d="M1364.3 1493 L1370.54 1482.2 L1373.82 1484.09 L1367.59 1494.9 L1364.3 1493 Z" fill="#000000" fill-rule="evenodd" fill-opacity="1" /><path clip-path="url(#clip970)" d="M1364.85 1458.84 Q1363.05 1461.97 1365.22 1465.34 Q1367.39 1468.67 1373.56 1472.24 Q1379.72 1475.79 1383.71 1476.01 Q1387.69 1476.19 1389.49 1473.07 Q1391.31 1469.92 1389.15 1466.58 Q1386.97 1463.22 1380.82 1459.67 Q1374.64 1456.1 1370.66 1455.91 Q1366.67 1455.7 1364.85 1458.84 M1361.65 1456.99 Q1364.55 1451.96 1370.07 1451.62 Q1375.58 1451.24 1383.16 1455.62 Q1390.71 1459.98 1393.16 1464.95 Q1395.6 1469.89 1392.7 1474.92 Q1389.79 1479.95 1384.29 1480.32 Q1378.77 1480.67 1371.21 1476.3 Q1363.63 1471.93 1361.19 1466.99 Q1358.74 1462.02 1361.65 1456.99 Z" fill="#000000" fill-rule="evenodd" fill-opacity="1" /><path clip-path="url(#clip970)" d="M1372.29 1439.8 L1381.47 1423.91 L1384.88 1425.87 L1377.84 1438.06 L1385.18 1442.3 Q1385.39 1441.24 1385.76 1440.28 Q1386.11 1439.3 1386.61 1438.42 Q1389.51 1433.41 1393.94 1432.07 Q1398.38 1430.73 1403.07 1433.44 Q1407.9 1436.23 1408.85 1440.78 Q1409.78 1445.33 1406.62 1450.8 Q1405.54 1452.69 1404.08 1454.47 Q1402.64 1456.23 1400.79 1457.94 L1396.72 1455.59 Q1398.75 1454.35 1400.34 1452.71 Q1401.93 1451.06 1403.17 1448.91 Q1405.17 1445.45 1404.52 1442.37 Q1403.86 1439.29 1400.73 1437.49 Q1397.61 1435.68 1394.61 1436.65 Q1391.62 1437.62 1389.62 1441.09 Q1388.68 1442.71 1388.1 1444.55 Q1387.54 1446.36 1387.33 1448.48 L1372.29 1439.8 Z" fill="#000000" fill-rule="evenodd" fill-opacity="1" /><path clip-path="url(#clip970)" d="M1403.01 1425.94 L1409.25 1415.14 L1412.54 1417.04 L1406.3 1427.84 L1403.01 1425.94 Z" fill="#000000" fill-rule="evenodd" fill-opacity="1" /><path clip-path="url(#clip970)" d="M1424.44 1410.73 L1432.6 1396.6 L1436.01 1398.57 L1425.03 1417.57 L1421.63 1415.6 Q1420.57 1411.92 1418.85 1405.64 Q1417.13 1399.32 1416.56 1397.63 Q1415.49 1394.42 1414.43 1392.79 Q1413.36 1391.13 1411.89 1390.28 Q1409.51 1388.91 1407.03 1389.72 Q1404.57 1390.52 1403.02 1393.2 Q1401.92 1395.11 1401.35 1397.62 Q1400.8 1400.1 1400.75 1403.28 L1396.66 1400.92 Q1397.09 1397.91 1397.82 1395.5 Q1398.55 1393.08 1399.56 1391.32 Q1402.25 1386.67 1406.17 1385.24 Q1410.09 1383.82 1413.98 1386.06 Q1415.83 1387.13 1417.09 1388.79 Q1418.34 1390.42 1419.53 1393.54 Q1419.82 1394.38 1421.06 1398.67 Q1422.27 1402.96 1424.44 1410.73 Z" fill="#000000" fill-rule="evenodd" fill-opacity="1" /><path clip-path="url(#clip970)" d="M1431.7 1373.2 Q1430.03 1376.09 1430.62 1378.64 Q1431.21 1381.18 1433.92 1382.74 Q1436.62 1384.3 1439.12 1383.55 Q1441.62 1382.78 1443.29 1379.89 Q1444.96 1377 1444.37 1374.45 Q1443.77 1371.88 1441.08 1370.33 Q1438.38 1368.77 1435.87 1369.54 Q1433.38 1370.29 1431.7 1373.2 M1427.64 1376.25 Q1425.49 1378.49 1422.86 1378.92 Q1420.25 1379.34 1417.68 1377.85 Q1414.09 1375.78 1413.48 1372.03 Q1412.87 1368.26 1415.44 1363.81 Q1418.02 1359.34 1421.58 1358 Q1425.13 1356.66 1428.72 1358.73 Q1431.29 1360.21 1432.23 1362.7 Q1433.18 1365.18 1432.33 1368.13 Q1434.7 1365.6 1437.62 1365.12 Q1440.55 1364.63 1443.42 1366.28 Q1447.77 1368.79 1448.56 1372.8 Q1449.35 1376.79 1446.5 1381.74 Q1443.64 1386.69 1439.77 1388.02 Q1435.92 1389.32 1431.57 1386.81 Q1428.7 1385.15 1427.67 1382.36 Q1426.63 1379.57 1427.64 1376.25 M1420.39 1374.05 Q1422.71 1375.39 1424.85 1374.7 Q1427 1373.99 1428.51 1371.36 Q1430.02 1368.75 1429.56 1366.54 Q1429.11 1364.3 1426.79 1362.96 Q1424.46 1361.62 1422.3 1362.35 Q1420.16 1363.06 1418.65 1365.66 Q1417.13 1368.29 1417.59 1370.51 Q1418.06 1372.7 1420.39 1374.05 Z" fill="#000000" fill-rule="evenodd" fill-opacity="1" /><path clip-path="url(#clip970)" d="M1595.2 1596.6 L1603.36 1582.47 L1606.77 1584.44 L1595.79 1603.44 L1592.39 1601.48 Q1591.33 1597.79 1589.61 1591.51 Q1587.89 1585.19 1587.32 1583.5 Q1586.25 1580.29 1585.19 1578.66 Q1584.12 1577 1582.65 1576.16 Q1580.27 1574.78 1577.79 1575.6 Q1575.33 1576.39 1573.78 1579.08 Q1572.68 1580.98 1572.11 1583.49 Q1571.56 1585.98 1571.51 1589.16 L1567.42 1586.8 Q1567.85 1583.78 1568.58 1581.37 Q1569.31 1578.96 1570.32 1577.19 Q1573.01 1572.54 1576.93 1571.12 Q1580.85 1569.69 1584.74 1571.94 Q1586.59 1573 1587.85 1574.66 Q1589.1 1576.3 1590.29 1579.42 Q1590.58 1580.25 1591.82 1584.55 Q1593.03 1588.83 1595.2 1596.6 Z" fill="#000000" fill-rule="evenodd" fill-opacity="1" /><path clip-path="url(#clip970)" d="M1589.41 1551.54 Q1587.61 1554.67 1589.78 1558.03 Q1591.94 1561.37 1598.12 1564.93 Q1604.27 1568.48 1608.26 1568.7 Q1612.24 1568.89 1614.05 1565.76 Q1615.87 1562.62 1613.7 1559.28 Q1611.53 1555.92 1605.37 1552.36 Q1599.2 1548.8 1595.22 1548.61 Q1591.23 1548.39 1589.41 1551.54 M1586.2 1549.69 Q1589.11 1544.66 1594.63 1544.31 Q1600.13 1543.94 1607.71 1548.31 Q1615.27 1552.68 1617.72 1557.65 Q1620.16 1562.58 1617.26 1567.61 Q1614.35 1572.65 1608.84 1573.02 Q1603.32 1573.36 1595.77 1569 Q1588.19 1564.63 1585.75 1559.69 Q1583.3 1554.72 1586.2 1549.69 Z" fill="#000000" fill-rule="evenodd" fill-opacity="1" /><path clip-path="url(#clip970)" d="M1625.36 1544.36 L1633.52 1530.23 L1636.93 1532.2 L1625.96 1551.2 L1622.55 1549.23 Q1621.49 1545.55 1619.78 1539.27 Q1618.05 1532.95 1617.48 1531.26 Q1616.42 1528.05 1615.35 1526.42 Q1614.28 1524.76 1612.82 1523.92 Q1610.43 1522.54 1607.95 1523.35 Q1605.49 1524.15 1603.94 1526.84 Q1602.84 1528.74 1602.27 1531.25 Q1601.72 1533.73 1601.68 1536.92 L1597.59 1534.55 Q1598.02 1531.54 1598.74 1529.13 Q1599.47 1526.71 1600.49 1524.95 Q1603.17 1520.3 1607.09 1518.87 Q1611.02 1517.45 1614.91 1519.7 Q1616.75 1520.76 1618.01 1522.42 Q1619.26 1524.05 1620.45 1527.17 Q1620.74 1528.01 1621.98 1532.31 Q1623.19 1536.59 1625.36 1544.36 Z" fill="#000000" fill-rule="evenodd" fill-opacity="1" /><path clip-path="url(#clip970)" d="M1638.83 1521.03 L1642.65 1514.41 L1619.82 1501.23 L1617.11 1509.26 L1613.42 1507.13 L1616.11 1499.14 L1618.45 1495.09 L1644.97 1510.4 L1648.79 1503.79 L1652.19 1505.76 L1642.24 1523 L1638.83 1521.03 Z" fill="#000000" fill-rule="evenodd" fill-opacity="1" /><path clip-path="url(#clip970)" d="M1642.65 1492.52 L1648.89 1481.71 L1652.18 1483.61 L1645.94 1494.42 L1642.65 1492.52 Z" fill="#000000" fill-rule="evenodd" fill-opacity="1" /><path clip-path="url(#clip970)" d="M1643.21 1458.36 Q1641.4 1461.49 1643.57 1464.85 Q1645.74 1468.19 1651.91 1471.75 Q1658.07 1475.31 1662.06 1475.53 Q1666.04 1475.71 1667.84 1472.59 Q1669.66 1469.44 1667.5 1466.1 Q1665.32 1462.74 1659.17 1459.18 Q1653 1455.62 1649.01 1455.43 Q1645.02 1455.21 1643.21 1458.36 M1640 1456.51 Q1642.9 1451.48 1648.42 1451.13 Q1653.93 1450.76 1661.51 1455.14 Q1669.07 1459.5 1671.52 1464.47 Q1673.96 1469.41 1671.05 1474.44 Q1668.15 1479.47 1662.64 1479.84 Q1657.12 1480.19 1649.56 1475.82 Q1641.99 1471.45 1639.54 1466.51 Q1637.09 1461.54 1640 1456.51 Z" fill="#000000" fill-rule="evenodd" fill-opacity="1" /><path clip-path="url(#clip970)" d="M1669.26 1437.91 Q1667.69 1440.63 1668.63 1443.31 Q1669.58 1445.97 1672.82 1447.85 Q1676.05 1449.71 1678.85 1449.22 Q1681.64 1448.69 1683.21 1445.96 Q1684.79 1443.24 1683.84 1440.58 Q1682.88 1437.89 1679.65 1436.02 Q1676.4 1434.15 1673.61 1434.67 Q1670.84 1435.18 1669.26 1437.91 M1661.21 1422.54 L1664.9 1424.67 Q1663.3 1425.78 1662.02 1427.12 Q1660.75 1428.45 1659.87 1429.97 Q1657.55 1433.98 1659.03 1437.67 Q1660.52 1441.33 1665.82 1444.8 Q1664.76 1442.61 1664.87 1440.29 Q1664.95 1437.96 1666.19 1435.82 Q1668.8 1431.31 1673.05 1430.28 Q1677.29 1429.23 1682 1431.95 Q1686.61 1434.61 1687.83 1438.95 Q1689.04 1443.28 1686.42 1447.82 Q1683.42 1453.01 1677.87 1453.46 Q1672.29 1453.91 1664.74 1449.54 Q1657.64 1445.44 1655.37 1439.65 Q1653.09 1433.84 1656.36 1428.16 Q1657.24 1426.64 1658.44 1425.27 Q1659.64 1423.88 1661.21 1422.54 Z" fill="#000000" fill-rule="evenodd" fill-opacity="1" /><path clip-path="url(#clip970)" d="M1681.36 1425.46 L1687.6 1414.66 L1690.89 1416.56 L1684.65 1427.36 L1681.36 1425.46 Z" fill="#000000" fill-rule="evenodd" fill-opacity="1" /><path clip-path="url(#clip970)" d="M1681.92 1391.3 Q1680.12 1394.43 1682.29 1397.8 Q1684.45 1401.13 1690.63 1404.7 Q1696.78 1408.25 1700.77 1408.47 Q1704.75 1408.66 1706.56 1405.53 Q1708.38 1402.38 1706.21 1399.05 Q1704.04 1395.68 1697.88 1392.13 Q1691.71 1388.56 1687.73 1388.38 Q1683.74 1388.16 1681.92 1391.3 M1678.71 1389.45 Q1681.62 1384.42 1687.14 1384.08 Q1692.65 1383.7 1700.22 1388.08 Q1707.78 1392.44 1710.23 1397.41 Q1712.67 1402.35 1709.77 1407.38 Q1706.86 1412.41 1701.35 1412.79 Q1695.84 1413.13 1688.28 1408.77 Q1680.7 1404.39 1678.26 1399.45 Q1675.81 1394.48 1678.71 1389.45 Z" fill="#000000" fill-rule="evenodd" fill-opacity="1" /><path clip-path="url(#clip970)" d="M1710.21 1368 Q1712.51 1365.45 1715.41 1364.96 Q1718.33 1364.45 1721.21 1366.12 Q1725.64 1368.68 1726.31 1373.12 Q1726.98 1377.57 1723.74 1383.18 Q1722.65 1385.07 1721.11 1386.85 Q1719.6 1388.63 1717.64 1390.33 L1713.73 1388.07 Q1715.68 1386.95 1717.34 1385.24 Q1719 1383.52 1720.26 1381.34 Q1722.46 1377.53 1722.1 1374.68 Q1721.75 1371.8 1718.89 1370.15 Q1716.24 1368.62 1713.68 1369.63 Q1711.11 1370.6 1709.2 1373.91 L1707.19 1377.4 L1703.86 1375.48 L1705.97 1371.83 Q1707.69 1368.84 1707.42 1366.58 Q1707.14 1364.3 1704.89 1363 Q1702.59 1361.67 1700.41 1362.61 Q1698.23 1363.52 1696.47 1366.56 Q1695.51 1368.23 1694.77 1370.34 Q1694.04 1372.45 1693.48 1375.18 L1689.87 1373.09 Q1690.56 1370.42 1691.4 1368.23 Q1692.24 1366.02 1693.27 1364.23 Q1695.94 1359.62 1699.59 1358.15 Q1703.23 1356.67 1706.8 1358.73 Q1709.28 1360.17 1710.18 1362.58 Q1711.07 1364.99 1710.21 1368 Z" fill="#000000" fill-rule="evenodd" fill-opacity="1" /><path clip-path="url(#clip970)" d="M1873 1597.09 L1881.16 1582.95 L1884.56 1584.92 L1873.59 1603.92 L1870.18 1601.96 Q1869.13 1598.27 1867.41 1591.99 Q1865.68 1585.67 1865.11 1583.98 Q1864.05 1580.78 1862.99 1579.15 Q1861.91 1577.48 1860.45 1576.64 Q1858.06 1575.26 1855.59 1576.08 Q1853.13 1576.87 1851.57 1579.56 Q1850.47 1581.46 1849.91 1583.97 Q1849.36 1586.46 1849.31 1589.64 L1845.22 1587.28 Q1845.65 1584.26 1846.38 1581.85 Q1847.1 1579.44 1848.12 1577.67 Q1850.81 1573.02 1854.73 1571.6 Q1858.65 1570.17 1862.54 1572.42 Q1864.38 1573.48 1865.64 1575.15 Q1866.89 1576.78 1868.08 1579.9 Q1868.38 1580.73 1869.61 1585.03 Q1870.83 1589.31 1873 1597.09 Z" fill="#000000" fill-rule="evenodd" fill-opacity="1" /><path clip-path="url(#clip970)" d="M1867.21 1552.02 Q1865.4 1555.15 1867.57 1558.51 Q1869.74 1561.85 1875.91 1565.41 Q1882.07 1568.97 1886.06 1569.18 Q1890.04 1569.37 1891.84 1566.24 Q1893.66 1563.1 1891.5 1559.76 Q1889.32 1556.4 1883.17 1552.84 Q1877 1549.28 1873.01 1549.09 Q1869.02 1548.87 1867.21 1552.02 M1864 1550.17 Q1866.9 1545.14 1872.42 1544.79 Q1877.93 1544.42 1885.51 1548.79 Q1893.07 1553.16 1895.52 1558.13 Q1897.96 1563.06 1895.05 1568.1 Q1892.15 1573.13 1886.64 1573.5 Q1881.12 1573.85 1873.56 1569.48 Q1865.99 1565.11 1863.54 1560.17 Q1861.09 1555.2 1864 1550.17 Z" fill="#000000" fill-rule="evenodd" fill-opacity="1" /><path clip-path="url(#clip970)" d="M1903.16 1544.84 L1911.32 1530.71 L1914.73 1532.68 L1903.75 1551.68 L1900.34 1549.72 Q1899.29 1546.03 1897.57 1539.75 Q1895.85 1533.43 1895.27 1531.74 Q1894.21 1528.53 1893.15 1526.9 Q1892.08 1525.24 1890.61 1524.4 Q1888.23 1523.02 1885.75 1523.84 Q1883.29 1524.63 1881.74 1527.32 Q1880.64 1529.22 1880.07 1531.73 Q1879.52 1534.22 1879.47 1537.4 L1875.38 1535.04 Q1875.81 1532.02 1876.54 1529.61 Q1877.26 1527.19 1878.28 1525.43 Q1880.97 1520.78 1884.89 1519.36 Q1888.81 1517.93 1892.7 1520.18 Q1894.55 1521.24 1895.8 1522.9 Q1897.05 1524.53 1898.25 1527.66 Q1898.54 1528.49 1899.77 1532.79 Q1900.99 1537.07 1903.16 1544.84 Z" fill="#000000" fill-rule="evenodd" fill-opacity="1" /><path clip-path="url(#clip970)" d="M1916.63 1521.51 L1920.45 1514.89 L1897.62 1501.71 L1894.9 1509.74 L1891.22 1507.61 L1893.9 1499.62 L1896.24 1495.57 L1922.76 1510.88 L1926.58 1504.27 L1929.99 1506.24 L1920.04 1523.48 L1916.63 1521.51 Z" fill="#000000" fill-rule="evenodd" fill-opacity="1" /><path clip-path="url(#clip970)" d="M1920.45 1493 L1926.68 1482.2 L1929.97 1484.09 L1923.73 1494.9 L1920.45 1493 Z" fill="#000000" fill-rule="evenodd" fill-opacity="1" /><path clip-path="url(#clip970)" d="M1921 1458.84 Q1919.2 1461.97 1921.37 1465.34 Q1923.53 1468.67 1929.71 1472.24 Q1935.86 1475.79 1939.85 1476.01 Q1943.83 1476.19 1945.64 1473.07 Q1947.46 1469.92 1945.29 1466.58 Q1943.12 1463.22 1936.97 1459.67 Q1930.79 1456.1 1926.81 1455.91 Q1922.82 1455.7 1921 1458.84 M1917.8 1456.99 Q1920.7 1451.96 1926.22 1451.62 Q1931.73 1451.24 1939.3 1455.62 Q1946.86 1459.98 1949.31 1464.95 Q1951.75 1469.89 1948.85 1474.92 Q1945.94 1479.95 1940.43 1480.32 Q1934.92 1480.67 1927.36 1476.3 Q1919.78 1471.93 1917.34 1466.99 Q1914.89 1462.02 1917.8 1456.99 Z" fill="#000000" fill-rule="evenodd" fill-opacity="1" /><path clip-path="url(#clip970)" d="M1947.06 1438.39 Q1945.48 1441.12 1946.42 1443.8 Q1947.37 1446.46 1950.62 1448.33 Q1953.85 1450.19 1956.65 1449.7 Q1959.44 1449.17 1961.01 1446.44 Q1962.58 1443.72 1961.63 1441.06 Q1960.68 1438.37 1957.45 1436.5 Q1954.2 1434.63 1951.41 1435.16 Q1948.63 1435.66 1947.06 1438.39 M1939.01 1423.02 L1942.7 1425.15 Q1941.1 1426.26 1939.81 1427.6 Q1938.54 1428.93 1937.66 1430.45 Q1935.35 1434.46 1936.83 1438.15 Q1938.32 1441.82 1943.62 1445.28 Q1942.56 1443.09 1942.66 1440.77 Q1942.75 1438.44 1943.99 1436.3 Q1946.59 1431.79 1950.84 1430.77 Q1955.09 1429.71 1959.8 1432.43 Q1964.41 1435.1 1965.62 1439.43 Q1966.83 1443.77 1964.22 1448.3 Q1961.22 1453.49 1955.67 1453.94 Q1950.09 1454.39 1942.53 1450.02 Q1935.44 1445.93 1933.17 1440.13 Q1930.89 1434.32 1934.16 1428.64 Q1935.04 1427.12 1936.23 1425.75 Q1937.44 1424.36 1939.01 1423.02 Z" fill="#000000" fill-rule="evenodd" fill-opacity="1" /><path clip-path="url(#clip970)" d="M1959.16 1425.94 L1965.4 1415.14 L1968.69 1417.04 L1962.45 1427.84 L1959.16 1425.94 Z" fill="#000000" fill-rule="evenodd" fill-opacity="1" /><path clip-path="url(#clip970)" d="M1959.72 1391.79 Q1957.91 1394.91 1960.09 1398.28 Q1962.25 1401.61 1968.42 1405.18 Q1974.58 1408.73 1978.57 1408.95 Q1982.55 1409.14 1984.36 1406.01 Q1986.17 1402.86 1984.01 1399.53 Q1981.84 1396.16 1975.68 1392.61 Q1969.51 1389.04 1965.53 1388.86 Q1961.54 1388.64 1959.72 1391.79 M1956.51 1389.93 Q1959.42 1384.9 1964.93 1384.56 Q1970.44 1384.18 1978.02 1388.56 Q1985.58 1392.92 1988.03 1397.89 Q1990.47 1402.83 1987.56 1407.86 Q1984.66 1412.89 1979.15 1413.27 Q1973.63 1413.61 1966.07 1409.25 Q1958.5 1404.87 1956.06 1399.94 Q1953.61 1394.97 1956.51 1389.93 Z" fill="#000000" fill-rule="evenodd" fill-opacity="1" /><path clip-path="url(#clip970)" d="M1987.85 1373.2 Q1986.18 1376.09 1986.77 1378.64 Q1987.36 1381.18 1990.07 1382.74 Q1992.77 1384.3 1995.27 1383.55 Q1997.77 1382.78 1999.44 1379.89 Q2001.1 1377 2000.52 1374.45 Q1999.92 1371.88 1997.23 1370.33 Q1994.52 1368.77 1992.02 1369.54 Q1989.53 1370.29 1987.85 1373.2 M1983.79 1376.25 Q1981.64 1378.49 1979.01 1378.92 Q1976.39 1379.34 1973.83 1377.85 Q1970.24 1375.78 1969.63 1372.03 Q1969.02 1368.26 1971.59 1363.81 Q1974.17 1359.34 1977.73 1358 Q1981.28 1356.66 1984.87 1358.73 Q1987.44 1360.21 1988.38 1362.7 Q1989.33 1365.18 1988.47 1368.13 Q1990.85 1365.6 1993.77 1365.12 Q1996.7 1364.63 1999.57 1366.28 Q2003.92 1368.79 2004.7 1372.8 Q2005.5 1376.79 2002.64 1381.74 Q1999.79 1386.69 1995.92 1388.02 Q1992.07 1389.32 1987.72 1386.81 Q1984.85 1385.15 1983.81 1382.36 Q1982.78 1379.57 1983.79 1376.25 M1976.54 1374.05 Q1978.86 1375.39 1981 1374.7 Q1983.15 1373.99 1984.66 1371.36 Q1986.17 1368.75 1985.71 1366.54 Q1985.26 1364.3 1982.94 1362.96 Q1980.61 1361.62 1978.45 1362.35 Q1976.3 1363.06 1974.8 1365.66 Q1973.28 1368.29 1973.74 1370.51 Q1974.21 1372.7 1976.54 1374.05 Z" fill="#000000" fill-rule="evenodd" fill-opacity="1" /><path clip-path="url(#clip970)" d="M2151.64 1596.1 L2159.8 1581.97 L2163.2 1583.94 L2152.23 1602.94 L2148.82 1600.97 Q2147.77 1597.29 2146.05 1591.01 Q2144.33 1584.69 2143.75 1583 Q2142.69 1579.79 2141.63 1578.16 Q2140.55 1576.5 2139.09 1575.66 Q2136.71 1574.28 2134.23 1575.1 Q2131.77 1575.89 2130.22 1578.58 Q2129.12 1580.48 2128.55 1582.99 Q2128 1585.48 2127.95 1588.66 L2123.86 1586.3 Q2124.29 1583.28 2125.02 1580.87 Q2125.74 1578.45 2126.76 1576.69 Q2129.45 1572.04 2133.37 1570.62 Q2137.29 1569.19 2141.18 1571.44 Q2143.02 1572.5 2144.28 1574.16 Q2145.53 1575.79 2146.73 1578.91 Q2147.02 1579.75 2148.25 1584.05 Q2149.47 1588.33 2151.64 1596.1 Z" fill="#000000" fill-rule="evenodd" fill-opacity="1" /><path clip-path="url(#clip970)" d="M2145.85 1551.04 Q2144.04 1554.16 2146.22 1557.53 Q2148.38 1560.87 2154.55 1564.43 Q2160.71 1567.98 2164.7 1568.2 Q2168.68 1568.39 2170.49 1565.26 Q2172.3 1562.11 2170.14 1558.78 Q2167.97 1555.41 2161.81 1551.86 Q2155.64 1548.3 2151.66 1548.11 Q2147.67 1547.89 2145.85 1551.04 M2142.64 1549.19 Q2145.55 1544.15 2151.06 1543.81 Q2156.57 1543.44 2164.15 1547.81 Q2171.71 1552.17 2174.16 1557.14 Q2176.6 1562.08 2173.69 1567.11 Q2170.79 1572.15 2165.28 1572.52 Q2159.76 1572.86 2152.2 1568.5 Q2144.63 1564.12 2142.19 1559.19 Q2139.74 1554.22 2142.64 1549.19 Z" fill="#000000" fill-rule="evenodd" fill-opacity="1" /><path clip-path="url(#clip970)" d="M2181.8 1543.86 L2189.96 1529.73 L2193.37 1531.7 L2182.39 1550.7 L2178.99 1548.73 Q2177.93 1545.05 2176.21 1538.77 Q2174.49 1532.45 2173.92 1530.76 Q2172.85 1527.55 2171.79 1525.92 Q2170.72 1524.26 2169.25 1523.41 Q2166.87 1522.04 2164.39 1522.85 Q2161.93 1523.65 2160.38 1526.34 Q2159.28 1528.24 2158.71 1530.75 Q2158.16 1533.23 2158.11 1536.41 L2154.02 1534.05 Q2154.45 1531.04 2155.18 1528.63 Q2155.9 1526.21 2156.92 1524.45 Q2159.61 1519.8 2163.53 1518.37 Q2167.45 1516.95 2171.34 1519.19 Q2173.19 1520.26 2174.45 1521.92 Q2175.7 1523.55 2176.89 1526.67 Q2177.18 1527.51 2178.42 1531.8 Q2179.63 1536.09 2181.8 1543.86 Z" fill="#000000" fill-rule="evenodd" fill-opacity="1" /><path clip-path="url(#clip970)" d="M2195.27 1520.53 L2199.09 1513.91 L2176.26 1500.73 L2173.55 1508.76 L2169.86 1506.63 L2172.55 1498.64 L2174.88 1494.59 L2201.4 1509.9 L2205.22 1503.29 L2208.63 1505.25 L2198.68 1522.49 L2195.27 1520.53 Z" fill="#000000" fill-rule="evenodd" fill-opacity="1" /><path clip-path="url(#clip970)" d="M2199.09 1492.02 L2205.33 1481.21 L2208.61 1483.11 L2202.37 1493.92 L2199.09 1492.02 Z" fill="#000000" fill-rule="evenodd" fill-opacity="1" /><path clip-path="url(#clip970)" d="M2199.64 1457.86 Q2197.84 1460.99 2200.01 1464.35 Q2202.18 1467.69 2208.35 1471.25 Q2214.5 1474.81 2218.49 1475.02 Q2222.48 1475.21 2224.28 1472.08 Q2226.1 1468.94 2223.93 1465.6 Q2221.76 1462.24 2215.61 1458.68 Q2209.43 1455.12 2205.45 1454.93 Q2201.46 1454.71 2199.64 1457.86 M2196.44 1456.01 Q2199.34 1450.98 2204.86 1450.63 Q2210.37 1450.26 2217.94 1454.63 Q2225.5 1459 2227.95 1463.97 Q2230.39 1468.9 2227.49 1473.94 Q2224.58 1478.97 2219.08 1479.34 Q2213.56 1479.69 2206 1475.32 Q2198.42 1470.95 2195.98 1466.01 Q2193.53 1461.04 2196.44 1456.01 Z" fill="#000000" fill-rule="evenodd" fill-opacity="1" /><path clip-path="url(#clip970)" d="M2225.7 1437.41 Q2224.13 1440.13 2225.06 1442.81 Q2226.01 1445.47 2229.26 1447.35 Q2232.49 1449.21 2235.29 1448.72 Q2238.08 1448.19 2239.65 1445.46 Q2241.23 1442.74 2240.28 1440.08 Q2239.32 1437.38 2236.09 1435.52 Q2232.84 1433.65 2230.05 1434.17 Q2227.27 1434.68 2225.7 1437.41 M2217.65 1422.04 L2221.34 1424.17 Q2219.74 1425.28 2218.45 1426.62 Q2217.18 1427.95 2216.3 1429.47 Q2213.99 1433.48 2215.47 1437.17 Q2216.96 1440.83 2222.26 1444.29 Q2221.2 1442.1 2221.3 1439.79 Q2221.39 1437.46 2222.63 1435.31 Q2225.23 1430.8 2229.49 1429.78 Q2233.73 1428.73 2238.44 1431.45 Q2243.05 1434.11 2244.26 1438.45 Q2245.48 1442.78 2242.86 1447.31 Q2239.86 1452.51 2234.31 1452.96 Q2228.73 1453.4 2221.17 1449.04 Q2214.08 1444.94 2211.81 1439.15 Q2209.53 1433.34 2212.8 1427.66 Q2213.68 1426.14 2214.87 1424.77 Q2216.08 1423.38 2217.65 1422.04 Z" fill="#000000" fill-rule="evenodd" fill-opacity="1" /><path clip-path="url(#clip970)" d="M2237.8 1424.96 L2244.04 1414.16 L2247.33 1416.06 L2241.09 1426.86 L2237.8 1424.96 Z" fill="#000000" fill-rule="evenodd" fill-opacity="1" /><path clip-path="url(#clip970)" d="M2257.62 1412.54 L2261.44 1405.92 L2238.61 1392.74 L2235.89 1400.77 L2232.21 1398.64 L2234.89 1390.65 L2237.23 1386.6 L2263.75 1401.91 L2267.57 1395.3 L2270.98 1397.26 L2261.03 1414.5 L2257.62 1412.54 Z" fill="#000000" fill-rule="evenodd" fill-opacity="1" /><path clip-path="url(#clip970)" d="M2272.7 1386.41 L2276.52 1379.8 L2253.69 1366.62 L2250.98 1374.65 L2247.29 1372.52 L2249.98 1364.53 L2252.31 1360.48 L2278.84 1375.79 L2282.65 1369.17 L2286.06 1371.14 L2276.11 1388.38 L2272.7 1386.41 Z" fill="#000000" fill-rule="evenodd" fill-opacity="1" /><polyline clip-path="url(#clip972)" style="stroke:#000000; stroke-linecap:butt; stroke-linejoin:round; stroke-width:2; stroke-opacity:0.1; fill:none" points="
  201.019,1213.49 2352.76,1213.49 
  "/>
<polyline clip-path="url(#clip972)" style="stroke:#000000; stroke-linecap:butt; stroke-linejoin:round; stroke-width:2; stroke-opacity:0.1; fill:none" points="
  201.019,1009.53 2352.76,1009.53 
  "/>
<polyline clip-path="url(#clip972)" style="stroke:#000000; stroke-linecap:butt; stroke-linejoin:round; stroke-width:2; stroke-opacity:0.1; fill:none" points="
  201.019,805.564 2352.76,805.564 
  "/>
<polyline clip-path="url(#clip972)" style="stroke:#000000; stroke-linecap:butt; stroke-linejoin:round; stroke-width:2; stroke-opacity:0.1; fill:none" points="
  201.019,601.603 2352.76,601.603 
  "/>
<polyline clip-path="url(#clip972)" style="stroke:#000000; stroke-linecap:butt; stroke-linejoin:round; stroke-width:2; stroke-opacity:0.1; fill:none" points="
  201.019,397.642 2352.76,397.642 
  "/>
<polyline clip-path="url(#clip972)" style="stroke:#000000; stroke-linecap:butt; stroke-linejoin:round; stroke-width:2; stroke-opacity:0.1; fill:none" points="
  201.019,193.681 2352.76,193.681 
  "/>
<polyline clip-path="url(#clip970)" style="stroke:#000000; stroke-linecap:butt; stroke-linejoin:round; stroke-width:4; stroke-opacity:1; fill:none" points="
  201.019,1331.21 201.019,47.2441 
  "/>
<polyline clip-path="url(#clip970)" style="stroke:#000000; stroke-linecap:butt; stroke-linejoin:round; stroke-width:4; stroke-opacity:1; fill:none" points="
  201.019,1213.49 226.84,1213.49 
  "/>
<polyline clip-path="url(#clip970)" style="stroke:#000000; stroke-linecap:butt; stroke-linejoin:round; stroke-width:4; stroke-opacity:1; fill:none" points="
  201.019,1009.53 226.84,1009.53 
  "/>
<polyline clip-path="url(#clip970)" style="stroke:#000000; stroke-linecap:butt; stroke-linejoin:round; stroke-width:4; stroke-opacity:1; fill:none" points="
  201.019,805.564 226.84,805.564 
  "/>
<polyline clip-path="url(#clip970)" style="stroke:#000000; stroke-linecap:butt; stroke-linejoin:round; stroke-width:4; stroke-opacity:1; fill:none" points="
  201.019,601.603 226.84,601.603 
  "/>
<polyline clip-path="url(#clip970)" style="stroke:#000000; stroke-linecap:butt; stroke-linejoin:round; stroke-width:4; stroke-opacity:1; fill:none" points="
  201.019,397.642 226.84,397.642 
  "/>
<polyline clip-path="url(#clip970)" style="stroke:#000000; stroke-linecap:butt; stroke-linejoin:round; stroke-width:4; stroke-opacity:1; fill:none" points="
  201.019,193.681 226.84,193.681 
  "/>
<path clip-path="url(#clip970)" d="M56.6171 1226.83 L72.9365 1226.83 L72.9365 1230.77 L50.9921 1230.77 L50.9921 1226.83 Q53.6541 1224.08 58.2375 1219.45 Q62.8439 1214.79 64.0245 1213.45 Q66.2698 1210.93 67.1494 1209.19 Q68.0522 1207.43 68.0522 1205.74 Q68.0522 1202.99 66.1078 1201.25 Q64.1865 1199.52 61.0847 1199.52 Q58.8856 1199.52 56.4319 1200.28 Q54.0014 1201.04 51.2236 1202.6 L51.2236 1197.87 Q54.0477 1196.74 56.5014 1196.16 Q58.955 1195.58 60.9921 1195.58 Q66.3624 1195.58 69.5568 1198.27 Q72.7513 1200.95 72.7513 1205.44 Q72.7513 1207.57 71.9411 1209.49 Q71.1541 1211.39 69.0476 1213.98 Q68.4689 1214.66 65.367 1217.87 Q62.2652 1221.07 56.6171 1226.83 Z" fill="#000000" fill-rule="evenodd" fill-opacity="1" /><path clip-path="url(#clip970)" d="M86.779 1226.83 L103.098 1226.83 L103.098 1230.77 L81.154 1230.77 L81.154 1226.83 Q83.816 1224.08 88.3993 1219.45 Q93.0058 1214.79 94.1863 1213.45 Q96.4317 1210.93 97.3113 1209.19 Q98.2141 1207.43 98.2141 1205.74 Q98.2141 1202.99 96.2697 1201.25 Q94.3484 1199.52 91.2465 1199.52 Q89.0475 1199.52 86.5938 1200.28 Q84.1632 1201.04 81.3855 1202.6 L81.3855 1197.87 Q84.2095 1196.74 86.6632 1196.16 Q89.1169 1195.58 91.1539 1195.58 Q96.5243 1195.58 99.7187 1198.27 Q102.913 1200.95 102.913 1205.44 Q102.913 1207.57 102.103 1209.49 Q101.316 1211.39 99.2095 1213.98 Q98.6308 1214.66 95.5289 1217.87 Q92.4271 1221.07 86.779 1226.83 Z" fill="#000000" fill-rule="evenodd" fill-opacity="1" /><path clip-path="url(#clip970)" d="M112.959 1196.21 L131.316 1196.21 L131.316 1200.14 L117.242 1200.14 L117.242 1208.61 Q118.26 1208.27 119.279 1208.1 Q120.297 1207.92 121.316 1207.92 Q127.103 1207.92 130.482 1211.09 Q133.862 1214.26 133.862 1219.68 Q133.862 1225.26 130.39 1228.36 Q126.918 1231.44 120.598 1231.44 Q118.422 1231.44 116.154 1231.07 Q113.908 1230.7 111.501 1229.96 L111.501 1225.26 Q113.584 1226.39 115.807 1226.95 Q118.029 1227.5 120.506 1227.5 Q124.51 1227.5 126.848 1225.4 Q129.186 1223.29 129.186 1219.68 Q129.186 1216.07 126.848 1213.96 Q124.51 1211.85 120.506 1211.85 Q118.631 1211.85 116.756 1212.27 Q114.904 1212.69 112.959 1213.57 L112.959 1196.21 Z" fill="#000000" fill-rule="evenodd" fill-opacity="1" /><path clip-path="url(#clip970)" d="M153.075 1199.29 Q149.464 1199.29 147.635 1202.85 Q145.83 1206.39 145.83 1213.52 Q145.83 1220.63 147.635 1224.19 Q149.464 1227.73 153.075 1227.73 Q156.709 1227.73 158.515 1224.19 Q160.343 1220.63 160.343 1213.52 Q160.343 1206.39 158.515 1202.85 Q156.709 1199.29 153.075 1199.29 M153.075 1195.58 Q158.885 1195.58 161.941 1200.19 Q165.019 1204.77 165.019 1213.52 Q165.019 1222.25 161.941 1226.85 Q158.885 1231.44 153.075 1231.44 Q147.265 1231.44 144.186 1226.85 Q141.131 1222.25 141.131 1213.52 Q141.131 1204.77 144.186 1200.19 Q147.265 1195.58 153.075 1195.58 Z" fill="#000000" fill-rule="evenodd" fill-opacity="1" /><path clip-path="url(#clip970)" d="M56.6171 1022.87 L72.9365 1022.87 L72.9365 1026.81 L50.9921 1026.81 L50.9921 1022.87 Q53.6541 1020.12 58.2375 1015.49 Q62.8439 1010.83 64.0245 1009.49 Q66.2698 1006.97 67.1494 1005.23 Q68.0522 1003.47 68.0522 1001.78 Q68.0522 999.028 66.1078 997.292 Q64.1865 995.556 61.0847 995.556 Q58.8856 995.556 56.4319 996.32 Q54.0014 997.084 51.2236 998.634 L51.2236 993.912 Q54.0477 992.778 56.5014 992.199 Q58.955 991.621 60.9921 991.621 Q66.3624 991.621 69.5568 994.306 Q72.7513 996.991 72.7513 1001.48 Q72.7513 1003.61 71.9411 1005.53 Q71.1541 1007.43 69.0476 1010.02 Q68.4689 1010.69 65.367 1013.91 Q62.2652 1017.11 56.6171 1022.87 Z" fill="#000000" fill-rule="evenodd" fill-opacity="1" /><path clip-path="url(#clip970)" d="M96.9178 1008.17 Q100.274 1008.89 102.149 1011.16 Q104.047 1013.43 104.047 1016.76 Q104.047 1021.88 100.529 1024.68 Q97.0104 1027.48 90.529 1027.48 Q88.353 1027.48 86.0382 1027.04 Q83.7466 1026.62 81.2929 1025.76 L81.2929 1021.25 Q83.2373 1022.38 85.5521 1022.96 Q87.8669 1023.54 90.3901 1023.54 Q94.7882 1023.54 97.0798 1021.81 Q99.3946 1020.07 99.3946 1016.76 Q99.3946 1013.7 97.2419 1011.99 Q95.1123 1010.25 91.2928 1010.25 L87.2651 1010.25 L87.2651 1006.41 L91.478 1006.41 Q94.9271 1006.41 96.7558 1005.05 Q98.5845 1003.66 98.5845 1001.06 Q98.5845 998.403 96.6863 996.991 Q94.8113 995.556 91.2928 995.556 Q89.3715 995.556 87.1725 995.972 Q84.9734 996.389 82.3346 997.269 L82.3346 993.102 Q84.9966 992.361 87.3114 991.991 Q89.6493 991.621 91.7095 991.621 Q97.0335 991.621 100.135 994.051 Q103.237 996.459 103.237 1000.58 Q103.237 1003.45 101.594 1005.44 Q99.9502 1007.41 96.9178 1008.17 Z" fill="#000000" fill-rule="evenodd" fill-opacity="1" /><path clip-path="url(#clip970)" d="M122.913 995.324 Q119.302 995.324 117.473 998.889 Q115.668 1002.43 115.668 1009.56 Q115.668 1016.67 117.473 1020.23 Q119.302 1023.77 122.913 1023.77 Q126.547 1023.77 128.353 1020.23 Q130.182 1016.67 130.182 1009.56 Q130.182 1002.43 128.353 998.889 Q126.547 995.324 122.913 995.324 M122.913 991.621 Q128.723 991.621 131.779 996.227 Q134.857 1000.81 134.857 1009.56 Q134.857 1018.29 131.779 1022.89 Q128.723 1027.48 122.913 1027.48 Q117.103 1027.48 114.024 1022.89 Q110.969 1018.29 110.969 1009.56 Q110.969 1000.81 114.024 996.227 Q117.103 991.621 122.913 991.621 Z" fill="#000000" fill-rule="evenodd" fill-opacity="1" /><path clip-path="url(#clip970)" d="M153.075 995.324 Q149.464 995.324 147.635 998.889 Q145.83 1002.43 145.83 1009.56 Q145.83 1016.67 147.635 1020.23 Q149.464 1023.77 153.075 1023.77 Q156.709 1023.77 158.515 1020.23 Q160.343 1016.67 160.343 1009.56 Q160.343 1002.43 158.515 998.889 Q156.709 995.324 153.075 995.324 M153.075 991.621 Q158.885 991.621 161.941 996.227 Q165.019 1000.81 165.019 1009.56 Q165.019 1018.29 161.941 1022.89 Q158.885 1027.48 153.075 1027.48 Q147.265 1027.48 144.186 1022.89 Q141.131 1018.29 141.131 1009.56 Q141.131 1000.81 144.186 996.227 Q147.265 991.621 153.075 991.621 Z" fill="#000000" fill-rule="evenodd" fill-opacity="1" /><path clip-path="url(#clip970)" d="M56.6171 818.909 L72.9365 818.909 L72.9365 822.844 L50.9921 822.844 L50.9921 818.909 Q53.6541 816.155 58.2375 811.525 Q62.8439 806.872 64.0245 805.53 Q66.2698 803.007 67.1494 801.27 Q68.0522 799.511 68.0522 797.821 Q68.0522 795.067 66.1078 793.331 Q64.1865 791.595 61.0847 791.595 Q58.8856 791.595 56.4319 792.358 Q54.0014 793.122 51.2236 794.673 L51.2236 789.951 Q54.0477 788.817 56.5014 788.238 Q58.955 787.659 60.9921 787.659 Q66.3624 787.659 69.5568 790.345 Q72.7513 793.03 72.7513 797.52 Q72.7513 799.65 71.9411 801.571 Q71.1541 803.47 69.0476 806.062 Q68.4689 806.733 65.367 809.951 Q62.2652 813.145 56.6171 818.909 Z" fill="#000000" fill-rule="evenodd" fill-opacity="1" /><path clip-path="url(#clip970)" d="M96.9178 804.21 Q100.274 804.928 102.149 807.196 Q104.047 809.465 104.047 812.798 Q104.047 817.914 100.529 820.715 Q97.0104 823.516 90.529 823.516 Q88.353 823.516 86.0382 823.076 Q83.7466 822.659 81.2929 821.803 L81.2929 817.289 Q83.2373 818.423 85.5521 819.002 Q87.8669 819.581 90.3901 819.581 Q94.7882 819.581 97.0798 817.844 Q99.3946 816.108 99.3946 812.798 Q99.3946 809.743 97.2419 808.03 Q95.1123 806.294 91.2928 806.294 L87.2651 806.294 L87.2651 802.451 L91.478 802.451 Q94.9271 802.451 96.7558 801.085 Q98.5845 799.696 98.5845 797.104 Q98.5845 794.442 96.6863 793.03 Q94.8113 791.595 91.2928 791.595 Q89.3715 791.595 87.1725 792.011 Q84.9734 792.428 82.3346 793.308 L82.3346 789.141 Q84.9966 788.4 87.3114 788.03 Q89.6493 787.659 91.7095 787.659 Q97.0335 787.659 100.135 790.09 Q103.237 792.497 103.237 796.618 Q103.237 799.488 101.594 801.479 Q99.9502 803.446 96.9178 804.21 Z" fill="#000000" fill-rule="evenodd" fill-opacity="1" /><path clip-path="url(#clip970)" d="M112.959 788.284 L131.316 788.284 L131.316 792.22 L117.242 792.22 L117.242 800.692 Q118.26 800.345 119.279 800.182 Q120.297 799.997 121.316 799.997 Q127.103 799.997 130.482 803.169 Q133.862 806.34 133.862 811.757 Q133.862 817.335 130.39 820.437 Q126.918 823.516 120.598 823.516 Q118.422 823.516 116.154 823.145 Q113.908 822.775 111.501 822.034 L111.501 817.335 Q113.584 818.469 115.807 819.025 Q118.029 819.581 120.506 819.581 Q124.51 819.581 126.848 817.474 Q129.186 815.368 129.186 811.757 Q129.186 808.145 126.848 806.039 Q124.51 803.932 120.506 803.932 Q118.631 803.932 116.756 804.349 Q114.904 804.766 112.959 805.645 L112.959 788.284 Z" fill="#000000" fill-rule="evenodd" fill-opacity="1" /><path clip-path="url(#clip970)" d="M153.075 791.363 Q149.464 791.363 147.635 794.928 Q145.83 798.47 145.83 805.599 Q145.83 812.706 147.635 816.27 Q149.464 819.812 153.075 819.812 Q156.709 819.812 158.515 816.27 Q160.343 812.706 160.343 805.599 Q160.343 798.47 158.515 794.928 Q156.709 791.363 153.075 791.363 M153.075 787.659 Q158.885 787.659 161.941 792.266 Q165.019 796.849 165.019 805.599 Q165.019 814.326 161.941 818.932 Q158.885 823.516 153.075 823.516 Q147.265 823.516 144.186 818.932 Q141.131 814.326 141.131 805.599 Q141.131 796.849 144.186 792.266 Q147.265 787.659 153.075 787.659 Z" fill="#000000" fill-rule="evenodd" fill-opacity="1" /><path clip-path="url(#clip970)" d="M56.6171 614.948 L72.9365 614.948 L72.9365 618.883 L50.9921 618.883 L50.9921 614.948 Q53.6541 612.193 58.2375 607.564 Q62.8439 602.911 64.0245 601.568 Q66.2698 599.045 67.1494 597.309 Q68.0522 595.55 68.0522 593.86 Q68.0522 591.106 66.1078 589.369 Q64.1865 587.633 61.0847 587.633 Q58.8856 587.633 56.4319 588.397 Q54.0014 589.161 51.2236 590.712 L51.2236 585.99 Q54.0477 584.856 56.5014 584.277 Q58.955 583.698 60.9921 583.698 Q66.3624 583.698 69.5568 586.383 Q72.7513 589.069 72.7513 593.559 Q72.7513 595.689 71.9411 597.61 Q71.1541 599.508 69.0476 602.101 Q68.4689 602.772 65.367 605.99 Q62.2652 609.184 56.6171 614.948 Z" fill="#000000" fill-rule="evenodd" fill-opacity="1" /><path clip-path="url(#clip970)" d="M95.5984 588.397 L83.7929 606.846 L95.5984 606.846 L95.5984 588.397 M94.3715 584.323 L100.251 584.323 L100.251 606.846 L105.182 606.846 L105.182 610.735 L100.251 610.735 L100.251 618.883 L95.5984 618.883 L95.5984 610.735 L79.9966 610.735 L79.9966 606.221 L94.3715 584.323 Z" fill="#000000" fill-rule="evenodd" fill-opacity="1" /><path clip-path="url(#clip970)" d="M122.913 587.402 Q119.302 587.402 117.473 590.967 Q115.668 594.508 115.668 601.638 Q115.668 608.744 117.473 612.309 Q119.302 615.851 122.913 615.851 Q126.547 615.851 128.353 612.309 Q130.182 608.744 130.182 601.638 Q130.182 594.508 128.353 590.967 Q126.547 587.402 122.913 587.402 M122.913 583.698 Q128.723 583.698 131.779 588.305 Q134.857 592.888 134.857 601.638 Q134.857 610.365 131.779 614.971 Q128.723 619.555 122.913 619.555 Q117.103 619.555 114.024 614.971 Q110.969 610.365 110.969 601.638 Q110.969 592.888 114.024 588.305 Q117.103 583.698 122.913 583.698 Z" fill="#000000" fill-rule="evenodd" fill-opacity="1" /><path clip-path="url(#clip970)" d="M153.075 587.402 Q149.464 587.402 147.635 590.967 Q145.83 594.508 145.83 601.638 Q145.83 608.744 147.635 612.309 Q149.464 615.851 153.075 615.851 Q156.709 615.851 158.515 612.309 Q160.343 608.744 160.343 601.638 Q160.343 594.508 158.515 590.967 Q156.709 587.402 153.075 587.402 M153.075 583.698 Q158.885 583.698 161.941 588.305 Q165.019 592.888 165.019 601.638 Q165.019 610.365 161.941 614.971 Q158.885 619.555 153.075 619.555 Q147.265 619.555 144.186 614.971 Q141.131 610.365 141.131 601.638 Q141.131 592.888 144.186 588.305 Q147.265 583.698 153.075 583.698 Z" fill="#000000" fill-rule="evenodd" fill-opacity="1" /><path clip-path="url(#clip970)" d="M56.6171 410.987 L72.9365 410.987 L72.9365 414.922 L50.9921 414.922 L50.9921 410.987 Q53.6541 408.232 58.2375 403.603 Q62.8439 398.95 64.0245 397.607 Q66.2698 395.084 67.1494 393.348 Q68.0522 391.589 68.0522 389.899 Q68.0522 387.144 66.1078 385.408 Q64.1865 383.672 61.0847 383.672 Q58.8856 383.672 56.4319 384.436 Q54.0014 385.2 51.2236 386.751 L51.2236 382.029 Q54.0477 380.894 56.5014 380.316 Q58.955 379.737 60.9921 379.737 Q66.3624 379.737 69.5568 382.422 Q72.7513 385.107 72.7513 389.598 Q72.7513 391.728 71.9411 393.649 Q71.1541 395.547 69.0476 398.14 Q68.4689 398.811 65.367 402.029 Q62.2652 405.223 56.6171 410.987 Z" fill="#000000" fill-rule="evenodd" fill-opacity="1" /><path clip-path="url(#clip970)" d="M95.5984 384.436 L83.7929 402.885 L95.5984 402.885 L95.5984 384.436 M94.3715 380.362 L100.251 380.362 L100.251 402.885 L105.182 402.885 L105.182 406.774 L100.251 406.774 L100.251 414.922 L95.5984 414.922 L95.5984 406.774 L79.9966 406.774 L79.9966 402.26 L94.3715 380.362 Z" fill="#000000" fill-rule="evenodd" fill-opacity="1" /><path clip-path="url(#clip970)" d="M112.959 380.362 L131.316 380.362 L131.316 384.297 L117.242 384.297 L117.242 392.769 Q118.26 392.422 119.279 392.26 Q120.297 392.075 121.316 392.075 Q127.103 392.075 130.482 395.246 Q133.862 398.417 133.862 403.834 Q133.862 409.413 130.39 412.515 Q126.918 415.593 120.598 415.593 Q118.422 415.593 116.154 415.223 Q113.908 414.853 111.501 414.112 L111.501 409.413 Q113.584 410.547 115.807 411.103 Q118.029 411.658 120.506 411.658 Q124.51 411.658 126.848 409.552 Q129.186 407.445 129.186 403.834 Q129.186 400.223 126.848 398.117 Q124.51 396.01 120.506 396.01 Q118.631 396.01 116.756 396.427 Q114.904 396.843 112.959 397.723 L112.959 380.362 Z" fill="#000000" fill-rule="evenodd" fill-opacity="1" /><path clip-path="url(#clip970)" d="M153.075 383.441 Q149.464 383.441 147.635 387.006 Q145.83 390.547 145.83 397.677 Q145.83 404.783 147.635 408.348 Q149.464 411.89 153.075 411.89 Q156.709 411.89 158.515 408.348 Q160.343 404.783 160.343 397.677 Q160.343 390.547 158.515 387.006 Q156.709 383.441 153.075 383.441 M153.075 379.737 Q158.885 379.737 161.941 384.343 Q165.019 388.927 165.019 397.677 Q165.019 406.404 161.941 411.01 Q158.885 415.593 153.075 415.593 Q147.265 415.593 144.186 411.01 Q141.131 406.404 141.131 397.677 Q141.131 388.927 144.186 384.343 Q147.265 379.737 153.075 379.737 Z" fill="#000000" fill-rule="evenodd" fill-opacity="1" /><path clip-path="url(#clip970)" d="M56.6171 207.026 L72.9365 207.026 L72.9365 210.961 L50.9921 210.961 L50.9921 207.026 Q53.6541 204.271 58.2375 199.641 Q62.8439 194.989 64.0245 193.646 Q66.2698 191.123 67.1494 189.387 Q68.0522 187.628 68.0522 185.938 Q68.0522 183.183 66.1078 181.447 Q64.1865 179.711 61.0847 179.711 Q58.8856 179.711 56.4319 180.475 Q54.0014 181.239 51.2236 182.79 L51.2236 178.067 Q54.0477 176.933 56.5014 176.355 Q58.955 175.776 60.9921 175.776 Q66.3624 175.776 69.5568 178.461 Q72.7513 181.146 72.7513 185.637 Q72.7513 187.767 71.9411 189.688 Q71.1541 191.586 69.0476 194.179 Q68.4689 194.85 65.367 198.067 Q62.2652 201.262 56.6171 207.026 Z" fill="#000000" fill-rule="evenodd" fill-opacity="1" /><path clip-path="url(#clip970)" d="M82.7975 176.401 L101.154 176.401 L101.154 180.336 L87.0799 180.336 L87.0799 188.808 Q88.0984 188.461 89.1169 188.299 Q90.1354 188.114 91.1539 188.114 Q96.941 188.114 100.321 191.285 Q103.7 194.456 103.7 199.873 Q103.7 205.452 100.228 208.553 Q96.7558 211.632 90.4364 211.632 Q88.2604 211.632 85.9919 211.262 Q83.7466 210.891 81.3392 210.151 L81.3392 205.452 Q83.4225 206.586 85.6447 207.141 Q87.8669 207.697 90.3438 207.697 Q94.3484 207.697 96.6863 205.59 Q99.0243 203.484 99.0243 199.873 Q99.0243 196.262 96.6863 194.155 Q94.3484 192.049 90.3438 192.049 Q88.4688 192.049 86.5938 192.466 Q84.7419 192.882 82.7975 193.762 L82.7975 176.401 Z" fill="#000000" fill-rule="evenodd" fill-opacity="1" /><path clip-path="url(#clip970)" d="M122.913 179.48 Q119.302 179.48 117.473 183.044 Q115.668 186.586 115.668 193.716 Q115.668 200.822 117.473 204.387 Q119.302 207.928 122.913 207.928 Q126.547 207.928 128.353 204.387 Q130.182 200.822 130.182 193.716 Q130.182 186.586 128.353 183.044 Q126.547 179.48 122.913 179.48 M122.913 175.776 Q128.723 175.776 131.779 180.382 Q134.857 184.966 134.857 193.716 Q134.857 202.442 131.779 207.049 Q128.723 211.632 122.913 211.632 Q117.103 211.632 114.024 207.049 Q110.969 202.442 110.969 193.716 Q110.969 184.966 114.024 180.382 Q117.103 175.776 122.913 175.776 Z" fill="#000000" fill-rule="evenodd" fill-opacity="1" /><path clip-path="url(#clip970)" d="M153.075 179.48 Q149.464 179.48 147.635 183.044 Q145.83 186.586 145.83 193.716 Q145.83 200.822 147.635 204.387 Q149.464 207.928 153.075 207.928 Q156.709 207.928 158.515 204.387 Q160.343 200.822 160.343 193.716 Q160.343 186.586 158.515 183.044 Q156.709 179.48 153.075 179.48 M153.075 175.776 Q158.885 175.776 161.941 180.382 Q165.019 184.966 165.019 193.716 Q165.019 202.442 161.941 207.049 Q158.885 211.632 153.075 211.632 Q147.265 211.632 144.186 207.049 Q141.131 202.442 141.131 193.716 Q141.131 184.966 144.186 180.382 Q147.265 175.776 153.075 175.776 Z" fill="#000000" fill-rule="evenodd" fill-opacity="1" /><path clip-path="url(#clip972)" d="
M303.629 1294.87 L303.629 1258.03 L261.917 1258.03 L261.917 1165.72 L303.629 1165.72 L303.629 1069.2 L303.629 1165.72 L345.34 1165.72 L345.34 1258.03 L303.629 1258.03 
  L303.629 1294.87  Z
  " fill="#ff0000" fill-rule="evenodd" fill-opacity="1"/>
<polyline clip-path="url(#clip972)" style="stroke:#ff0000; stroke-linecap:butt; stroke-linejoin:round; stroke-width:2; stroke-opacity:1; fill:none" points="
  303.629,1294.87 303.629,1258.03 261.917,1258.03 261.917,1165.72 303.629,1165.72 303.629,1069.2 303.629,1165.72 345.34,1165.72 345.34,1258.03 303.629,1258.03 
  303.629,1294.87 
  "/>
<path clip-path="url(#clip972)" d="
M396.32 1243.18 L396.32 1168.25 L354.609 1168.25 L354.609 1164.66 L396.32 1164.66 L396.32 1104.98 L396.32 1164.66 L438.031 1164.66 L438.031 1168.25 L396.32 1168.25 
  L396.32 1243.18  Z
  " fill="#008000" fill-rule="evenodd" fill-opacity="1"/>
<polyline clip-path="url(#clip972)" style="stroke:#008000; stroke-linecap:butt; stroke-linejoin:round; stroke-width:2; stroke-opacity:1; fill:none" points="
  396.32,1243.18 396.32,1168.25 354.609,1168.25 354.609,1164.66 396.32,1164.66 396.32,1104.98 396.32,1164.66 438.031,1164.66 438.031,1168.25 396.32,1168.25 
  396.32,1243.18 
  "/>
<path clip-path="url(#clip972)" d="
M489.011 1077.57 L489.011 1042.85 L447.3 1042.85 L447.3 943.606 L489.011 943.606 L489.011 923.291 L489.011 943.606 L530.722 943.606 L530.722 1042.85 L489.011 1042.85 
  L489.011 1077.57  Z
  " fill="#008000" fill-rule="evenodd" fill-opacity="1"/>
<polyline clip-path="url(#clip972)" style="stroke:#008000; stroke-linecap:butt; stroke-linejoin:round; stroke-width:2; stroke-opacity:1; fill:none" points="
  489.011,1077.57 489.011,1042.85 447.3,1042.85 447.3,943.606 489.011,943.606 489.011,923.291 489.011,943.606 530.722,943.606 530.722,1042.85 489.011,1042.85 
  489.011,1077.57 
  "/>
<path clip-path="url(#clip972)" d="
M581.703 1029.92 L581.703 971.507 L539.991 971.507 L539.991 922.19 L581.703 922.19 L581.703 914.316 L581.703 922.19 L623.414 922.19 L623.414 971.507 L581.703 971.507 
  L581.703 1029.92  Z
  " fill="#008000" fill-rule="evenodd" fill-opacity="1"/>
<polyline clip-path="url(#clip972)" style="stroke:#008000; stroke-linecap:butt; stroke-linejoin:round; stroke-width:2; stroke-opacity:1; fill:none" points="
  581.703,1029.92 581.703,971.507 539.991,971.507 539.991,922.19 581.703,922.19 581.703,914.316 581.703,922.19 623.414,922.19 623.414,971.507 581.703,971.507 
  581.703,1029.92 
  "/>
<path clip-path="url(#clip972)" d="
M674.394 996.636 L674.394 995.534 L632.683 995.534 L632.683 858.978 L674.394 858.978 L674.394 833.507 L674.394 858.978 L716.105 858.978 L716.105 995.534 L674.394 995.534 
  L674.394 996.636  Z
  " fill="#ff0000" fill-rule="evenodd" fill-opacity="1"/>
<polyline clip-path="url(#clip972)" style="stroke:#ff0000; stroke-linecap:butt; stroke-linejoin:round; stroke-width:2; stroke-opacity:1; fill:none" points="
  674.394,996.636 674.394,995.534 632.683,995.534 632.683,858.978 674.394,858.978 674.394,833.507 674.394,858.978 716.105,858.978 716.105,995.534 674.394,995.534 
  674.394,996.636 
  "/>
<path clip-path="url(#clip972)" d="
M767.085 1158.34 L767.085 1154.75 L725.374 1154.75 L725.374 973.996 L767.085 973.996 L767.085 941.158 L767.085 973.996 L808.796 973.996 L808.796 1154.75 L767.085 1154.75 
  L767.085 1158.34  Z
  " fill="#008000" fill-rule="evenodd" fill-opacity="1"/>
<polyline clip-path="url(#clip972)" style="stroke:#008000; stroke-linecap:butt; stroke-linejoin:round; stroke-width:2; stroke-opacity:1; fill:none" points="
  767.085,1158.34 767.085,1154.75 725.374,1154.75 725.374,973.996 767.085,973.996 767.085,941.158 767.085,973.996 808.796,973.996 808.796,1154.75 767.085,1154.75 
  767.085,1158.34 
  "/>
<path clip-path="url(#clip972)" d="
M859.777 923.494 L859.777 895.144 L818.065 895.144 L818.065 780.722 L859.777 780.722 L859.777 763.385 L859.777 780.722 L901.488 780.722 L901.488 895.144 L859.777 895.144 
  L859.777 923.494  Z
  " fill="#008000" fill-rule="evenodd" fill-opacity="1"/>
<polyline clip-path="url(#clip972)" style="stroke:#008000; stroke-linecap:butt; stroke-linejoin:round; stroke-width:2; stroke-opacity:1; fill:none" points="
  859.777,923.494 859.777,895.144 818.065,895.144 818.065,780.722 859.777,780.722 859.777,763.385 859.777,780.722 901.488,780.722 901.488,895.144 859.777,895.144 
  859.777,923.494 
  "/>
<path clip-path="url(#clip972)" d="
M952.468 836.688 L952.468 825.552 L910.757 825.552 L910.757 740.338 L952.468 740.338 L952.468 728.059 L952.468 740.338 L994.179 740.338 L994.179 825.552 L952.468 825.552 
  L952.468 836.688  Z
  " fill="#ff0000" fill-rule="evenodd" fill-opacity="1"/>
<polyline clip-path="url(#clip972)" style="stroke:#ff0000; stroke-linecap:butt; stroke-linejoin:round; stroke-width:2; stroke-opacity:1; fill:none" points="
  952.468,836.688 952.468,825.552 910.757,825.552 910.757,740.338 952.468,740.338 952.468,728.059 952.468,740.338 994.179,740.338 994.179,825.552 952.468,825.552 
  952.468,836.688 
  "/>
<path clip-path="url(#clip972)" d="
M1045.16 764.323 L1045.16 736.218 L1003.45 736.218 L1003.45 574.395 L1045.16 574.395 L1045.16 526.219 L1045.16 574.395 L1086.87 574.395 L1086.87 736.218 L1045.16 736.218 
  L1045.16 764.323  Z
  " fill="#008000" fill-rule="evenodd" fill-opacity="1"/>
<polyline clip-path="url(#clip972)" style="stroke:#008000; stroke-linecap:butt; stroke-linejoin:round; stroke-width:2; stroke-opacity:1; fill:none" points="
  1045.16,764.323 1045.16,736.218 1003.45,736.218 1003.45,574.395 1045.16,574.395 1045.16,526.219 1045.16,574.395 1086.87,574.395 1086.87,736.218 1045.16,736.218 
  1045.16,764.323 
  "/>
<path clip-path="url(#clip972)" d="
M1137.85 589.406 L1137.85 564.604 L1096.14 564.604 L1096.14 520.019 L1137.85 520.019 L1137.85 467.438 L1137.85 520.019 L1179.56 520.019 L1179.56 564.604 L1137.85 564.604 
  L1137.85 589.406  Z
  " fill="#ff0000" fill-rule="evenodd" fill-opacity="1"/>
<polyline clip-path="url(#clip972)" style="stroke:#ff0000; stroke-linecap:butt; stroke-linejoin:round; stroke-width:2; stroke-opacity:1; fill:none" points="
  1137.85,589.406 1137.85,564.604 1096.14,564.604 1096.14,520.019 1137.85,520.019 1137.85,467.438 1137.85,520.019 1179.56,520.019 1179.56,564.604 1137.85,564.604 
  1137.85,589.406 
  "/>
<path clip-path="url(#clip972)" d="
M1230.54 550.552 L1230.54 549.247 L1188.83 549.247 L1188.83 464.827 L1230.54 464.827 L1230.54 426.425 L1230.54 464.827 L1272.25 464.827 L1272.25 549.247 L1230.54 549.247 
  L1230.54 550.552  Z
  " fill="#008000" fill-rule="evenodd" fill-opacity="1"/>
<polyline clip-path="url(#clip972)" style="stroke:#008000; stroke-linecap:butt; stroke-linejoin:round; stroke-width:2; stroke-opacity:1; fill:none" points="
  1230.54,550.552 1230.54,549.247 1188.83,549.247 1188.83,464.827 1230.54,464.827 1230.54,426.425 1230.54,464.827 1272.25,464.827 1272.25,549.247 1230.54,549.247 
  1230.54,550.552 
  "/>
<path clip-path="url(#clip972)" d="
M1323.23 593.445 L1323.23 591.364 L1281.52 591.364 L1281.52 450.917 L1323.23 450.917 L1323.23 438.434 L1323.23 450.917 L1364.94 450.917 L1364.94 591.364 L1323.23 591.364 
  L1323.23 593.445  Z
  " fill="#ff0000" fill-rule="evenodd" fill-opacity="1"/>
<polyline clip-path="url(#clip972)" style="stroke:#ff0000; stroke-linecap:butt; stroke-linejoin:round; stroke-width:2; stroke-opacity:1; fill:none" points="
  1323.23,593.445 1323.23,591.364 1281.52,591.364 1281.52,450.917 1323.23,450.917 1323.23,438.434 1323.23,450.917 1364.94,450.917 1364.94,591.364 1323.23,591.364 
  1323.23,593.445 
  "/>
<path clip-path="url(#clip972)" d="
M1415.92 570.234 L1415.92 554.447 L1374.21 554.447 L1374.21 512.024 L1415.92 512.024 L1415.92 486.814 L1415.92 512.024 L1457.64 512.024 L1457.64 554.447 L1415.92 554.447 
  L1415.92 570.234  Z
  " fill="#ff0000" fill-rule="evenodd" fill-opacity="1"/>
<polyline clip-path="url(#clip972)" style="stroke:#ff0000; stroke-linecap:butt; stroke-linejoin:round; stroke-width:2; stroke-opacity:1; fill:none" points="
  1415.92,570.234 1415.92,554.447 1374.21,554.447 1374.21,512.024 1415.92,512.024 1415.92,486.814 1415.92,512.024 1457.64,512.024 1457.64,554.447 1415.92,554.447 
  1415.92,570.234 
  "/>
<path clip-path="url(#clip972)" d="
M1508.62 581.697 L1508.62 511.86 L1466.9 511.86 L1466.9 480.001 L1508.62 480.001 L1508.62 446.711 L1508.62 480.001 L1550.33 480.001 L1550.33 511.86 L1508.62 511.86 
  L1508.62 581.697  Z
  " fill="#008000" fill-rule="evenodd" fill-opacity="1"/>
<polyline clip-path="url(#clip972)" style="stroke:#008000; stroke-linecap:butt; stroke-linejoin:round; stroke-width:2; stroke-opacity:1; fill:none" points="
  1508.62,581.697 1508.62,511.86 1466.9,511.86 1466.9,480.001 1508.62,480.001 1508.62,446.711 1508.62,480.001 1550.33,480.001 1550.33,511.86 1508.62,511.86 
  1508.62,581.697 
  "/>
<path clip-path="url(#clip972)" d="
M1601.31 584.471 L1601.31 514.797 L1559.6 514.797 L1559.6 457.566 L1601.31 457.566 L1601.31 430.276 L1601.31 457.566 L1643.02 457.566 L1643.02 514.797 L1601.31 514.797 
  L1601.31 584.471  Z
  " fill="#ff0000" fill-rule="evenodd" fill-opacity="1"/>
<polyline clip-path="url(#clip972)" style="stroke:#ff0000; stroke-linecap:butt; stroke-linejoin:round; stroke-width:2; stroke-opacity:1; fill:none" points="
  1601.31,584.471 1601.31,514.797 1559.6,514.797 1559.6,457.566 1601.31,457.566 1601.31,430.276 1601.31,457.566 1643.02,457.566 1643.02,514.797 1601.31,514.797 
  1601.31,584.471 
  "/>
<path clip-path="url(#clip972)" d="
M1694 671.643 L1694 621.918 L1652.29 621.918 L1652.29 582.798 L1694 582.798 L1694 561.851 L1694 582.798 L1735.71 582.798 L1735.71 621.918 L1694 621.918 
  L1694 671.643  Z
  " fill="#008000" fill-rule="evenodd" fill-opacity="1"/>
<polyline clip-path="url(#clip972)" style="stroke:#008000; stroke-linecap:butt; stroke-linejoin:round; stroke-width:2; stroke-opacity:1; fill:none" points="
  1694,671.643 1694,621.918 1652.29,621.918 1652.29,582.798 1694,582.798 1694,561.851 1694,582.798 1735.71,582.798 1735.71,621.918 1694,621.918 
  1694,671.643 
  "/>
<path clip-path="url(#clip972)" d="
M1786.69 529.115 L1786.69 509.739 L1744.98 509.739 L1744.98 390.463 L1786.69 390.463 L1786.69 381.901 L1786.69 390.463 L1828.4 390.463 L1828.4 509.739 L1786.69 509.739 
  L1786.69 529.115  Z
  " fill="#008000" fill-rule="evenodd" fill-opacity="1"/>
<polyline clip-path="url(#clip972)" style="stroke:#008000; stroke-linecap:butt; stroke-linejoin:round; stroke-width:2; stroke-opacity:1; fill:none" points="
  1786.69,529.115 1786.69,509.739 1744.98,509.739 1744.98,390.463 1786.69,390.463 1786.69,381.901 1786.69,390.463 1828.4,390.463 1828.4,509.739 1786.69,509.739 
  1786.69,529.115 
  "/>
<path clip-path="url(#clip972)" d="
M1879.38 434.057 L1879.38 392.257 L1837.67 392.257 L1837.67 332.007 L1879.38 332.007 L1879.38 324.216 L1879.38 332.007 L1921.09 332.007 L1921.09 392.257 L1879.38 392.257 
  L1879.38 434.057  Z
  " fill="#008000" fill-rule="evenodd" fill-opacity="1"/>
<polyline clip-path="url(#clip972)" style="stroke:#008000; stroke-linecap:butt; stroke-linejoin:round; stroke-width:2; stroke-opacity:1; fill:none" points="
  1879.38,434.057 1879.38,392.257 1837.67,392.257 1837.67,332.007 1879.38,332.007 1879.38,324.216 1879.38,332.007 1921.09,332.007 1921.09,392.257 1879.38,392.257 
  1879.38,434.057 
  "/>
<path clip-path="url(#clip972)" d="
M1972.07 323.237 L1972.07 275.674 L1930.36 275.674 L1930.36 263.639 L1972.07 263.639 L1972.07 216.136 L1972.07 263.639 L2013.78 263.639 L2013.78 275.674 L1972.07 275.674 
  L1972.07 323.237  Z
  " fill="#008000" fill-rule="evenodd" fill-opacity="1"/>
<polyline clip-path="url(#clip972)" style="stroke:#008000; stroke-linecap:butt; stroke-linejoin:round; stroke-width:2; stroke-opacity:1; fill:none" points="
  1972.07,323.237 1972.07,275.674 1930.36,275.674 1930.36,263.639 1972.07,263.639 1972.07,216.136 1972.07,263.639 2013.78,263.639 2013.78,275.674 1972.07,275.674 
  1972.07,323.237 
  "/>
<path clip-path="url(#clip972)" d="
M2064.76 245.364 L2064.76 228.763 L2023.05 228.763 L2023.05 195.72 L2064.76 195.72 L2064.76 173.285 L2064.76 195.72 L2106.48 195.72 L2106.48 228.763 L2064.76 228.763 
  L2064.76 245.364  Z
  " fill="#ff0000" fill-rule="evenodd" fill-opacity="1"/>
<polyline clip-path="url(#clip972)" style="stroke:#ff0000; stroke-linecap:butt; stroke-linejoin:round; stroke-width:2; stroke-opacity:1; fill:none" points="
  2064.76,245.364 2064.76,228.763 2023.05,228.763 2023.05,195.72 2064.76,195.72 2064.76,173.285 2064.76,195.72 2106.48,195.72 2106.48,228.763 2064.76,228.763 
  2064.76,245.364 
  "/>
<path clip-path="url(#clip972)" d="
M2157.46 218.156 L2157.46 218.115 L2115.74 218.115 L2115.74 105.569 L2157.46 105.569 L2157.46 98.7981 L2157.46 105.569 L2199.17 105.569 L2199.17 218.115 L2157.46 218.115 
  L2157.46 218.156  Z
  " fill="#008000" fill-rule="evenodd" fill-opacity="1"/>
<polyline clip-path="url(#clip972)" style="stroke:#008000; stroke-linecap:butt; stroke-linejoin:round; stroke-width:2; stroke-opacity:1; fill:none" points="
  2157.46,218.156 2157.46,218.115 2115.74,218.115 2115.74,105.569 2157.46,105.569 2157.46,98.7981 2157.46,105.569 2199.17,105.569 2199.17,218.115 2157.46,218.115 
  2157.46,218.156 
  "/>
<path clip-path="url(#clip972)" d="
M2250.15 200.656 L2250.15 136.858 L2208.44 136.858 L2208.44 92.0269 L2250.15 92.0269 L2250.15 83.5826 L2250.15 92.0269 L2291.86 92.0269 L2291.86 136.858 L2250.15 136.858 
  L2250.15 200.656  Z
  " fill="#ff0000" fill-rule="evenodd" fill-opacity="1"/>
<polyline clip-path="url(#clip972)" style="stroke:#ff0000; stroke-linecap:butt; stroke-linejoin:round; stroke-width:2; stroke-opacity:1; fill:none" points="
  2250.15,200.656 2250.15,136.858 2208.44,136.858 2208.44,92.0269 2250.15,92.0269 2250.15,83.5826 2250.15,92.0269 2291.86,92.0269 2291.86,136.858 2250.15,136.858 
  2250.15,200.656 
  "/>
<circle clip-path="url(#clip972)" cx="303.629" cy="1211.88" r="3" fill="#ff0000" fill-rule="evenodd" fill-opacity="1" stroke="#000000" stroke-opacity="1" stroke-width="0"/>
<circle clip-path="url(#clip972)" cx="396.32" cy="1166.45" r="3" fill="#008000" fill-rule="evenodd" fill-opacity="1" stroke="#000000" stroke-opacity="1" stroke-width="0"/>
<circle clip-path="url(#clip972)" cx="489.011" cy="993.229" r="3" fill="#008000" fill-rule="evenodd" fill-opacity="1" stroke="#000000" stroke-opacity="1" stroke-width="0"/>
<circle clip-path="url(#clip972)" cx="581.703" cy="946.848" r="3" fill="#008000" fill-rule="evenodd" fill-opacity="1" stroke="#000000" stroke-opacity="1" stroke-width="0"/>
<circle clip-path="url(#clip972)" cx="674.394" cy="927.256" r="3" fill="#ff0000" fill-rule="evenodd" fill-opacity="1" stroke="#000000" stroke-opacity="1" stroke-width="0"/>
<circle clip-path="url(#clip972)" cx="767.085" cy="1064.37" r="3" fill="#008000" fill-rule="evenodd" fill-opacity="1" stroke="#000000" stroke-opacity="1" stroke-width="0"/>
<circle clip-path="url(#clip972)" cx="859.777" cy="837.933" r="3" fill="#008000" fill-rule="evenodd" fill-opacity="1" stroke="#000000" stroke-opacity="1" stroke-width="0"/>
<circle clip-path="url(#clip972)" cx="952.468" cy="782.945" r="3" fill="#ff0000" fill-rule="evenodd" fill-opacity="1" stroke="#000000" stroke-opacity="1" stroke-width="0"/>
<circle clip-path="url(#clip972)" cx="1045.16" cy="655.306" r="3" fill="#008000" fill-rule="evenodd" fill-opacity="1" stroke="#000000" stroke-opacity="1" stroke-width="0"/>
<circle clip-path="url(#clip972)" cx="1137.85" cy="542.312" r="3" fill="#ff0000" fill-rule="evenodd" fill-opacity="1" stroke="#000000" stroke-opacity="1" stroke-width="0"/>
<circle clip-path="url(#clip972)" cx="1230.54" cy="507.037" r="3" fill="#008000" fill-rule="evenodd" fill-opacity="1" stroke="#000000" stroke-opacity="1" stroke-width="0"/>
<circle clip-path="url(#clip972)" cx="1323.23" cy="521.141" r="3" fill="#ff0000" fill-rule="evenodd" fill-opacity="1" stroke="#000000" stroke-opacity="1" stroke-width="0"/>
<circle clip-path="url(#clip972)" cx="1415.92" cy="533.235" r="3" fill="#ff0000" fill-rule="evenodd" fill-opacity="1" stroke="#000000" stroke-opacity="1" stroke-width="0"/>
<circle clip-path="url(#clip972)" cx="1508.62" cy="495.931" r="3" fill="#008000" fill-rule="evenodd" fill-opacity="1" stroke="#000000" stroke-opacity="1" stroke-width="0"/>
<circle clip-path="url(#clip972)" cx="1601.31" cy="486.181" r="3" fill="#ff0000" fill-rule="evenodd" fill-opacity="1" stroke="#000000" stroke-opacity="1" stroke-width="0"/>
<circle clip-path="url(#clip972)" cx="1694" cy="602.358" r="3" fill="#008000" fill-rule="evenodd" fill-opacity="1" stroke="#000000" stroke-opacity="1" stroke-width="0"/>
<circle clip-path="url(#clip972)" cx="1786.69" cy="450.101" r="3" fill="#008000" fill-rule="evenodd" fill-opacity="1" stroke="#000000" stroke-opacity="1" stroke-width="0"/>
<circle clip-path="url(#clip972)" cx="1879.38" cy="362.132" r="3" fill="#008000" fill-rule="evenodd" fill-opacity="1" stroke="#000000" stroke-opacity="1" stroke-width="0"/>
<circle clip-path="url(#clip972)" cx="1972.07" cy="269.656" r="3" fill="#008000" fill-rule="evenodd" fill-opacity="1" stroke="#000000" stroke-opacity="1" stroke-width="0"/>
<circle clip-path="url(#clip972)" cx="2064.76" cy="212.242" r="3" fill="#ff0000" fill-rule="evenodd" fill-opacity="1" stroke="#000000" stroke-opacity="1" stroke-width="0"/>
<circle clip-path="url(#clip972)" cx="2157.46" cy="161.842" r="3" fill="#008000" fill-rule="evenodd" fill-opacity="1" stroke="#000000" stroke-opacity="1" stroke-width="0"/>
<circle clip-path="url(#clip972)" cx="2250.15" cy="114.442" r="3" fill="#ff0000" fill-rule="evenodd" fill-opacity="1" stroke="#000000" stroke-opacity="1" stroke-width="0"/>
</svg>
