<?xml version="1.0" encoding="utf-8"?>
<svg xmlns="http://www.w3.org/2000/svg" xmlns:xlink="http://www.w3.org/1999/xlink" width="600" height="400" viewBox="0 0 2400 1600">
<defs>
  <clipPath id="clip240">
    <rect x="0" y="0" width="2400" height="1600"/>
  </clipPath>
</defs>
<path clip-path="url(#clip240)" d="
M0 1600 L2400 1600 L2400 0 L0 0  Z
  " fill="#ffffff" fill-rule="evenodd" fill-opacity="1"/>
<defs>
  <clipPath id="clip241">
    <rect x="480" y="0" width="1681" height="1600"/>
  </clipPath>
</defs>
<path clip-path="url(#clip240)" d="
M214.353 1486.45 L2352.76 1486.45 L2352.76 47.2441 L214.353 47.2441  Z
  " fill="#ffffff" fill-rule="evenodd" fill-opacity="1"/>
<defs>
  <clipPath id="clip242">
    <rect x="214" y="47" width="2139" height="1440"/>
  </clipPath>
</defs>
<polyline clip-path="url(#clip242)" style="stroke:#000000; stroke-linecap:butt; stroke-linejoin:round; stroke-width:2; stroke-opacity:0.1; fill:none" points="
  274.873,1486.45 274.873,47.2441 
  "/>
<polyline clip-path="url(#clip242)" style="stroke:#000000; stroke-linecap:butt; stroke-linejoin:round; stroke-width:2; stroke-opacity:0.1; fill:none" points="
  839.735,1486.45 839.735,47.2441 
  "/>
<polyline clip-path="url(#clip242)" style="stroke:#000000; stroke-linecap:butt; stroke-linejoin:round; stroke-width:2; stroke-opacity:0.1; fill:none" points="
  1404.6,1486.45 1404.6,47.2441 
  "/>
<polyline clip-path="url(#clip242)" style="stroke:#000000; stroke-linecap:butt; stroke-linejoin:round; stroke-width:2; stroke-opacity:0.1; fill:none" points="
  1969.46,1486.45 1969.46,47.2441 
  "/>
<polyline clip-path="url(#clip240)" style="stroke:#000000; stroke-linecap:butt; stroke-linejoin:round; stroke-width:4; stroke-opacity:1; fill:none" points="
  214.353,1486.45 2352.76,1486.45 
  "/>
<polyline clip-path="url(#clip240)" style="stroke:#000000; stroke-linecap:butt; stroke-linejoin:round; stroke-width:4; stroke-opacity:1; fill:none" points="
  274.873,1486.45 274.873,1467.55 
  "/>
<polyline clip-path="url(#clip240)" style="stroke:#000000; stroke-linecap:butt; stroke-linejoin:round; stroke-width:4; stroke-opacity:1; fill:none" points="
  839.735,1486.45 839.735,1467.55 
  "/>
<polyline clip-path="url(#clip240)" style="stroke:#000000; stroke-linecap:butt; stroke-linejoin:round; stroke-width:4; stroke-opacity:1; fill:none" points="
  1404.6,1486.45 1404.6,1467.55 
  "/>
<polyline clip-path="url(#clip240)" style="stroke:#000000; stroke-linecap:butt; stroke-linejoin:round; stroke-width:4; stroke-opacity:1; fill:none" points="
  1969.46,1486.45 1969.46,1467.55 
  "/>
<path clip-path="url(#clip240)" d="M146.101 1544.91 L162.42 1544.91 L162.42 1548.85 L140.476 1548.85 L140.476 1544.91 Q143.138 1542.16 147.721 1537.53 Q152.328 1532.88 153.508 1531.53 Q155.754 1529.01 156.633 1527.27 Q157.536 1525.51 157.536 1523.82 Q157.536 1521.07 155.592 1519.33 Q153.67 1517.6 150.569 1517.6 Q148.369 1517.6 145.916 1518.36 Q143.485 1519.13 140.707 1520.68 L140.707 1515.95 Q143.532 1514.82 145.985 1514.24 Q148.439 1513.66 150.476 1513.66 Q155.846 1513.66 159.041 1516.35 Q162.235 1519.03 162.235 1523.52 Q162.235 1525.65 161.425 1527.57 Q160.638 1529.47 158.531 1532.07 Q157.953 1532.74 154.851 1535.95 Q151.749 1539.15 146.101 1544.91 Z" fill="#000000" fill-rule="evenodd" fill-opacity="1" /><path clip-path="url(#clip240)" d="M182.235 1517.37 Q178.624 1517.37 176.795 1520.93 Q174.99 1524.47 174.99 1531.6 Q174.99 1538.71 176.795 1542.27 Q178.624 1545.82 182.235 1545.82 Q185.869 1545.82 187.675 1542.27 Q189.503 1538.71 189.503 1531.6 Q189.503 1524.47 187.675 1520.93 Q185.869 1517.37 182.235 1517.37 M182.235 1513.66 Q188.045 1513.66 191.101 1518.27 Q194.179 1522.85 194.179 1531.6 Q194.179 1540.33 191.101 1544.94 Q188.045 1549.52 182.235 1549.52 Q176.425 1549.52 173.346 1544.94 Q170.291 1540.33 170.291 1531.6 Q170.291 1522.85 173.346 1518.27 Q176.425 1513.66 182.235 1513.66 Z" fill="#000000" fill-rule="evenodd" fill-opacity="1" /><path clip-path="url(#clip240)" d="M206.425 1544.91 L222.744 1544.91 L222.744 1548.85 L200.8 1548.85 L200.8 1544.91 Q203.462 1542.16 208.045 1537.53 Q212.652 1532.88 213.832 1531.53 Q216.077 1529.01 216.957 1527.27 Q217.86 1525.51 217.86 1523.82 Q217.86 1521.07 215.915 1519.33 Q213.994 1517.6 210.892 1517.6 Q208.693 1517.6 206.24 1518.36 Q203.809 1519.13 201.031 1520.68 L201.031 1515.95 Q203.855 1514.82 206.309 1514.24 Q208.763 1513.66 210.8 1513.66 Q216.17 1513.66 219.364 1516.35 Q222.559 1519.03 222.559 1523.52 Q222.559 1525.65 221.749 1527.57 Q220.962 1529.47 218.855 1532.07 Q218.276 1532.74 215.175 1535.95 Q212.073 1539.15 206.425 1544.91 Z" fill="#000000" fill-rule="evenodd" fill-opacity="1" /><path clip-path="url(#clip240)" d="M236.587 1544.91 L252.906 1544.91 L252.906 1548.85 L230.962 1548.85 L230.962 1544.91 Q233.624 1542.16 238.207 1537.53 Q242.813 1532.88 243.994 1531.53 Q246.239 1529.01 247.119 1527.27 Q248.022 1525.51 248.022 1523.82 Q248.022 1521.07 246.077 1519.33 Q244.156 1517.6 241.054 1517.6 Q238.855 1517.6 236.401 1518.36 Q233.971 1519.13 231.193 1520.68 L231.193 1515.95 Q234.017 1514.82 236.471 1514.24 Q238.925 1513.66 240.962 1513.66 Q246.332 1513.66 249.526 1516.35 Q252.721 1519.03 252.721 1523.52 Q252.721 1525.65 251.911 1527.57 Q251.124 1529.47 249.017 1532.07 Q248.438 1532.74 245.337 1535.95 Q242.235 1539.15 236.587 1544.91 Z" fill="#000000" fill-rule="evenodd" fill-opacity="1" /><path clip-path="url(#clip240)" d="M259.966 1533.96 L272.443 1533.96 L272.443 1537.76 L259.966 1537.76 L259.966 1533.96 Z" fill="#000000" fill-rule="evenodd" fill-opacity="1" /><path clip-path="url(#clip240)" d="M289.827 1517.37 Q286.216 1517.37 284.387 1520.93 Q282.582 1524.47 282.582 1531.6 Q282.582 1538.71 284.387 1542.27 Q286.216 1545.82 289.827 1545.82 Q293.461 1545.82 295.267 1542.27 Q297.096 1538.71 297.096 1531.6 Q297.096 1524.47 295.267 1520.93 Q293.461 1517.37 289.827 1517.37 M289.827 1513.66 Q295.637 1513.66 298.693 1518.27 Q301.771 1522.85 301.771 1531.6 Q301.771 1540.33 298.693 1544.94 Q295.637 1549.52 289.827 1549.52 Q284.017 1549.52 280.938 1544.94 Q277.883 1540.33 277.883 1531.6 Q277.883 1522.85 280.938 1518.27 Q284.017 1513.66 289.827 1513.66 Z" fill="#000000" fill-rule="evenodd" fill-opacity="1" /><path clip-path="url(#clip240)" d="M319.989 1532.44 Q316.656 1532.44 314.734 1534.22 Q312.836 1536 312.836 1539.13 Q312.836 1542.25 314.734 1544.03 Q316.656 1545.82 319.989 1545.82 Q323.322 1545.82 325.244 1544.03 Q327.165 1542.23 327.165 1539.13 Q327.165 1536 325.244 1534.22 Q323.345 1532.44 319.989 1532.44 M315.313 1530.45 Q312.304 1529.7 310.614 1527.64 Q308.947 1525.58 308.947 1522.62 Q308.947 1518.48 311.887 1516.07 Q314.85 1513.66 319.989 1513.66 Q325.151 1513.66 328.091 1516.07 Q331.031 1518.48 331.031 1522.62 Q331.031 1525.58 329.341 1527.64 Q327.674 1529.7 324.688 1530.45 Q328.068 1531.23 329.943 1533.52 Q331.841 1535.82 331.841 1539.13 Q331.841 1544.15 328.762 1546.83 Q325.706 1549.52 319.989 1549.52 Q314.271 1549.52 311.193 1546.83 Q308.137 1544.15 308.137 1539.13 Q308.137 1535.82 310.035 1533.52 Q311.933 1531.23 315.313 1530.45 M313.6 1523.06 Q313.6 1525.75 315.267 1527.25 Q316.957 1528.76 319.989 1528.76 Q322.998 1528.76 324.688 1527.25 Q326.401 1525.75 326.401 1523.06 Q326.401 1520.38 324.688 1518.87 Q322.998 1517.37 319.989 1517.37 Q316.957 1517.37 315.267 1518.87 Q313.6 1520.38 313.6 1523.06 Z" fill="#000000" fill-rule="evenodd" fill-opacity="1" /><path clip-path="url(#clip240)" d="M337.396 1533.96 L349.873 1533.96 L349.873 1537.76 L337.396 1537.76 L337.396 1533.96 Z" fill="#000000" fill-rule="evenodd" fill-opacity="1" /><path clip-path="url(#clip240)" d="M367.257 1517.37 Q363.646 1517.37 361.817 1520.93 Q360.012 1524.47 360.012 1531.6 Q360.012 1538.71 361.817 1542.27 Q363.646 1545.82 367.257 1545.82 Q370.891 1545.82 372.697 1542.27 Q374.526 1538.71 374.526 1531.6 Q374.526 1524.47 372.697 1520.93 Q370.891 1517.37 367.257 1517.37 M367.257 1513.66 Q373.067 1513.66 376.123 1518.27 Q379.202 1522.85 379.202 1531.6 Q379.202 1540.33 376.123 1544.94 Q373.067 1549.52 367.257 1549.52 Q361.447 1549.52 358.368 1544.94 Q355.313 1540.33 355.313 1531.6 Q355.313 1522.85 358.368 1518.27 Q361.447 1513.66 367.257 1513.66 Z" fill="#000000" fill-rule="evenodd" fill-opacity="1" /><path clip-path="url(#clip240)" d="M397.419 1532.44 Q394.086 1532.44 392.164 1534.22 Q390.266 1536 390.266 1539.13 Q390.266 1542.25 392.164 1544.03 Q394.086 1545.82 397.419 1545.82 Q400.752 1545.82 402.674 1544.03 Q404.595 1542.23 404.595 1539.13 Q404.595 1536 402.674 1534.22 Q400.776 1532.44 397.419 1532.44 M392.743 1530.45 Q389.734 1529.7 388.044 1527.64 Q386.377 1525.58 386.377 1522.62 Q386.377 1518.48 389.317 1516.07 Q392.28 1513.66 397.419 1513.66 Q402.581 1513.66 405.521 1516.07 Q408.461 1518.48 408.461 1522.62 Q408.461 1525.58 406.771 1527.64 Q405.104 1529.7 402.118 1530.45 Q405.498 1531.23 407.373 1533.52 Q409.271 1535.82 409.271 1539.13 Q409.271 1544.15 406.192 1546.83 Q403.137 1549.52 397.419 1549.52 Q391.701 1549.52 388.623 1546.83 Q385.567 1544.15 385.567 1539.13 Q385.567 1535.82 387.465 1533.52 Q389.364 1531.23 392.743 1530.45 M391.03 1523.06 Q391.03 1525.75 392.697 1527.25 Q394.387 1528.76 397.419 1528.76 Q400.428 1528.76 402.118 1527.25 Q403.831 1525.75 403.831 1523.06 Q403.831 1520.38 402.118 1518.87 Q400.428 1517.37 397.419 1517.37 Q394.387 1517.37 392.697 1518.87 Q391.03 1520.38 391.03 1523.06 Z" fill="#000000" fill-rule="evenodd" fill-opacity="1" /><path clip-path="url(#clip240)" d="M711.414 1544.91 L727.733 1544.91 L727.733 1548.85 L705.789 1548.85 L705.789 1544.91 Q708.451 1542.16 713.034 1537.53 Q717.64 1532.88 718.821 1531.53 Q721.066 1529.01 721.946 1527.27 Q722.849 1525.51 722.849 1523.82 Q722.849 1521.07 720.904 1519.33 Q718.983 1517.6 715.881 1517.6 Q713.682 1517.6 711.228 1518.36 Q708.798 1519.13 706.02 1520.68 L706.02 1515.95 Q708.844 1514.82 711.298 1514.24 Q713.752 1513.66 715.789 1513.66 Q721.159 1513.66 724.353 1516.35 Q727.548 1519.03 727.548 1523.52 Q727.548 1525.65 726.738 1527.57 Q725.951 1529.47 723.844 1532.07 Q723.265 1532.74 720.164 1535.95 Q717.062 1539.15 711.414 1544.91 Z" fill="#000000" fill-rule="evenodd" fill-opacity="1" /><path clip-path="url(#clip240)" d="M747.548 1517.37 Q743.937 1517.37 742.108 1520.93 Q740.302 1524.47 740.302 1531.6 Q740.302 1538.71 742.108 1542.27 Q743.937 1545.82 747.548 1545.82 Q751.182 1545.82 752.987 1542.27 Q754.816 1538.71 754.816 1531.6 Q754.816 1524.47 752.987 1520.93 Q751.182 1517.37 747.548 1517.37 M747.548 1513.66 Q753.358 1513.66 756.413 1518.27 Q759.492 1522.85 759.492 1531.6 Q759.492 1540.33 756.413 1544.94 Q753.358 1549.52 747.548 1549.52 Q741.738 1549.52 738.659 1544.94 Q735.603 1540.33 735.603 1531.6 Q735.603 1522.85 738.659 1518.27 Q741.738 1513.66 747.548 1513.66 Z" fill="#000000" fill-rule="evenodd" fill-opacity="1" /><path clip-path="url(#clip240)" d="M771.737 1544.91 L788.057 1544.91 L788.057 1548.85 L766.112 1548.85 L766.112 1544.91 Q768.774 1542.16 773.358 1537.53 Q777.964 1532.88 779.145 1531.53 Q781.39 1529.01 782.27 1527.27 Q783.172 1525.51 783.172 1523.82 Q783.172 1521.07 781.228 1519.33 Q779.307 1517.6 776.205 1517.6 Q774.006 1517.6 771.552 1518.36 Q769.122 1519.13 766.344 1520.68 L766.344 1515.95 Q769.168 1514.82 771.622 1514.24 Q774.075 1513.66 776.112 1513.66 Q781.483 1513.66 784.677 1516.35 Q787.872 1519.03 787.872 1523.52 Q787.872 1525.65 787.061 1527.57 Q786.274 1529.47 784.168 1532.07 Q783.589 1532.74 780.487 1535.95 Q777.385 1539.15 771.737 1544.91 Z" fill="#000000" fill-rule="evenodd" fill-opacity="1" /><path clip-path="url(#clip240)" d="M801.899 1544.91 L818.219 1544.91 L818.219 1548.85 L796.274 1548.85 L796.274 1544.91 Q798.936 1542.16 803.52 1537.53 Q808.126 1532.88 809.307 1531.53 Q811.552 1529.01 812.432 1527.27 Q813.334 1525.51 813.334 1523.82 Q813.334 1521.07 811.39 1519.33 Q809.469 1517.6 806.367 1517.6 Q804.168 1517.6 801.714 1518.36 Q799.283 1519.13 796.506 1520.68 L796.506 1515.95 Q799.33 1514.82 801.783 1514.24 Q804.237 1513.66 806.274 1513.66 Q811.645 1513.66 814.839 1516.35 Q818.033 1519.03 818.033 1523.52 Q818.033 1525.65 817.223 1527.57 Q816.436 1529.47 814.33 1532.07 Q813.751 1532.74 810.649 1535.95 Q807.547 1539.15 801.899 1544.91 Z" fill="#000000" fill-rule="evenodd" fill-opacity="1" /><path clip-path="url(#clip240)" d="M825.279 1533.96 L837.756 1533.96 L837.756 1537.76 L825.279 1537.76 L825.279 1533.96 Z" fill="#000000" fill-rule="evenodd" fill-opacity="1" /><path clip-path="url(#clip240)" d="M855.14 1517.37 Q851.529 1517.37 849.7 1520.93 Q847.894 1524.47 847.894 1531.6 Q847.894 1538.71 849.7 1542.27 Q851.529 1545.82 855.14 1545.82 Q858.774 1545.82 860.579 1542.27 Q862.408 1538.71 862.408 1531.6 Q862.408 1524.47 860.579 1520.93 Q858.774 1517.37 855.14 1517.37 M855.14 1513.66 Q860.95 1513.66 864.005 1518.27 Q867.084 1522.85 867.084 1531.6 Q867.084 1540.33 864.005 1544.94 Q860.95 1549.52 855.14 1549.52 Q849.33 1549.52 846.251 1544.94 Q843.195 1540.33 843.195 1531.6 Q843.195 1522.85 846.251 1518.27 Q849.33 1513.66 855.14 1513.66 Z" fill="#000000" fill-rule="evenodd" fill-opacity="1" /><path clip-path="url(#clip240)" d="M885.302 1532.44 Q881.968 1532.44 880.047 1534.22 Q878.149 1536 878.149 1539.13 Q878.149 1542.25 880.047 1544.03 Q881.968 1545.82 885.302 1545.82 Q888.635 1545.82 890.556 1544.03 Q892.477 1542.23 892.477 1539.13 Q892.477 1536 890.556 1534.22 Q888.658 1532.44 885.302 1532.44 M880.626 1530.45 Q877.616 1529.7 875.927 1527.64 Q874.26 1525.58 874.26 1522.62 Q874.26 1518.48 877.2 1516.07 Q880.163 1513.66 885.302 1513.66 Q890.464 1513.66 893.403 1516.07 Q896.343 1518.48 896.343 1522.62 Q896.343 1525.58 894.653 1527.64 Q892.987 1529.7 890.001 1530.45 Q893.38 1531.23 895.255 1533.52 Q897.153 1535.82 897.153 1539.13 Q897.153 1544.15 894.075 1546.83 Q891.019 1549.52 885.302 1549.52 Q879.584 1549.52 876.505 1546.83 Q873.45 1544.15 873.45 1539.13 Q873.45 1535.82 875.348 1533.52 Q877.246 1531.23 880.626 1530.45 M878.913 1523.06 Q878.913 1525.75 880.579 1527.25 Q882.269 1528.76 885.302 1528.76 Q888.311 1528.76 890.001 1527.25 Q891.714 1525.75 891.714 1523.06 Q891.714 1520.38 890.001 1518.87 Q888.311 1517.37 885.302 1517.37 Q882.269 1517.37 880.579 1518.87 Q878.913 1520.38 878.913 1523.06 Z" fill="#000000" fill-rule="evenodd" fill-opacity="1" /><path clip-path="url(#clip240)" d="M902.709 1533.96 L915.186 1533.96 L915.186 1537.76 L902.709 1537.76 L902.709 1533.96 Z" fill="#000000" fill-rule="evenodd" fill-opacity="1" /><path clip-path="url(#clip240)" d="M923.38 1544.91 L931.019 1544.91 L931.019 1518.55 L922.709 1520.21 L922.709 1515.95 L930.973 1514.29 L935.649 1514.29 L935.649 1544.91 L943.287 1544.91 L943.287 1548.85 L923.38 1548.85 L923.38 1544.91 Z" fill="#000000" fill-rule="evenodd" fill-opacity="1" /><path clip-path="url(#clip240)" d="M952.778 1514.29 L971.134 1514.29 L971.134 1518.22 L957.06 1518.22 L957.06 1526.7 Q958.079 1526.35 959.097 1526.19 Q960.116 1526 961.134 1526 Q966.921 1526 970.301 1529.17 Q973.681 1532.34 973.681 1537.76 Q973.681 1543.34 970.209 1546.44 Q966.736 1549.52 960.417 1549.52 Q958.241 1549.52 955.972 1549.15 Q953.727 1548.78 951.32 1548.04 L951.32 1543.34 Q953.403 1544.47 955.625 1545.03 Q957.847 1545.58 960.324 1545.58 Q964.329 1545.58 966.667 1543.48 Q969.005 1541.37 969.005 1537.76 Q969.005 1534.15 966.667 1532.04 Q964.329 1529.94 960.324 1529.94 Q958.449 1529.94 956.574 1530.35 Q954.722 1530.77 952.778 1531.65 L952.778 1514.29 Z" fill="#000000" fill-rule="evenodd" fill-opacity="1" /><path clip-path="url(#clip240)" d="M1276.58 1544.91 L1292.9 1544.91 L1292.9 1548.85 L1270.95 1548.85 L1270.95 1544.91 Q1273.61 1542.16 1278.2 1537.53 Q1282.8 1532.88 1283.98 1531.53 Q1286.23 1529.01 1287.11 1527.27 Q1288.01 1525.51 1288.01 1523.82 Q1288.01 1521.07 1286.07 1519.33 Q1284.15 1517.6 1281.04 1517.6 Q1278.84 1517.6 1276.39 1518.36 Q1273.96 1519.13 1271.18 1520.68 L1271.18 1515.95 Q1274.01 1514.82 1276.46 1514.24 Q1278.91 1513.66 1280.95 1513.66 Q1286.32 1513.66 1289.52 1516.35 Q1292.71 1519.03 1292.71 1523.52 Q1292.71 1525.65 1291.9 1527.57 Q1291.11 1529.47 1289.01 1532.07 Q1288.43 1532.74 1285.33 1535.95 Q1282.22 1539.15 1276.58 1544.91 Z" fill="#000000" fill-rule="evenodd" fill-opacity="1" /><path clip-path="url(#clip240)" d="M1312.71 1517.37 Q1309.1 1517.37 1307.27 1520.93 Q1305.46 1524.47 1305.46 1531.6 Q1305.46 1538.71 1307.27 1542.27 Q1309.1 1545.82 1312.71 1545.82 Q1316.34 1545.82 1318.15 1542.27 Q1319.98 1538.71 1319.98 1531.6 Q1319.98 1524.47 1318.15 1520.93 Q1316.34 1517.37 1312.71 1517.37 M1312.71 1513.66 Q1318.52 1513.66 1321.58 1518.27 Q1324.65 1522.85 1324.65 1531.6 Q1324.65 1540.33 1321.58 1544.94 Q1318.52 1549.52 1312.71 1549.52 Q1306.9 1549.52 1303.82 1544.94 Q1300.77 1540.33 1300.77 1531.6 Q1300.77 1522.85 1303.82 1518.27 Q1306.9 1513.66 1312.71 1513.66 Z" fill="#000000" fill-rule="evenodd" fill-opacity="1" /><path clip-path="url(#clip240)" d="M1336.9 1544.91 L1353.22 1544.91 L1353.22 1548.85 L1331.27 1548.85 L1331.27 1544.91 Q1333.94 1542.16 1338.52 1537.53 Q1343.13 1532.88 1344.31 1531.53 Q1346.55 1529.01 1347.43 1527.27 Q1348.33 1525.51 1348.33 1523.82 Q1348.33 1521.07 1346.39 1519.33 Q1344.47 1517.6 1341.37 1517.6 Q1339.17 1517.6 1336.71 1518.36 Q1334.28 1519.13 1331.51 1520.68 L1331.51 1515.95 Q1334.33 1514.82 1336.78 1514.24 Q1339.24 1513.66 1341.27 1513.66 Q1346.64 1513.66 1349.84 1516.35 Q1353.03 1519.03 1353.03 1523.52 Q1353.03 1525.65 1352.22 1527.57 Q1351.44 1529.47 1349.33 1532.07 Q1348.75 1532.74 1345.65 1535.95 Q1342.55 1539.15 1336.9 1544.91 Z" fill="#000000" fill-rule="evenodd" fill-opacity="1" /><path clip-path="url(#clip240)" d="M1367.06 1544.91 L1383.38 1544.91 L1383.38 1548.85 L1361.44 1548.85 L1361.44 1544.91 Q1364.1 1542.16 1368.68 1537.53 Q1373.29 1532.88 1374.47 1531.53 Q1376.71 1529.01 1377.59 1527.27 Q1378.5 1525.51 1378.5 1523.82 Q1378.5 1521.07 1376.55 1519.33 Q1374.63 1517.6 1371.53 1517.6 Q1369.33 1517.6 1366.88 1518.36 Q1364.45 1519.13 1361.67 1520.68 L1361.67 1515.95 Q1364.49 1514.82 1366.95 1514.24 Q1369.4 1513.66 1371.44 1513.66 Q1376.81 1513.66 1380 1516.35 Q1383.2 1519.03 1383.2 1523.52 Q1383.2 1525.65 1382.39 1527.57 Q1381.6 1529.47 1379.49 1532.07 Q1378.91 1532.74 1375.81 1535.95 Q1372.71 1539.15 1367.06 1544.91 Z" fill="#000000" fill-rule="evenodd" fill-opacity="1" /><path clip-path="url(#clip240)" d="M1390.44 1533.96 L1402.92 1533.96 L1402.92 1537.76 L1390.44 1537.76 L1390.44 1533.96 Z" fill="#000000" fill-rule="evenodd" fill-opacity="1" /><path clip-path="url(#clip240)" d="M1420.3 1517.37 Q1416.69 1517.37 1414.86 1520.93 Q1413.06 1524.47 1413.06 1531.6 Q1413.06 1538.71 1414.86 1542.27 Q1416.69 1545.82 1420.3 1545.82 Q1423.94 1545.82 1425.74 1542.27 Q1427.57 1538.71 1427.57 1531.6 Q1427.57 1524.47 1425.74 1520.93 Q1423.94 1517.37 1420.3 1517.37 M1420.3 1513.66 Q1426.11 1513.66 1429.17 1518.27 Q1432.25 1522.85 1432.25 1531.6 Q1432.25 1540.33 1429.17 1544.94 Q1426.11 1549.52 1420.3 1549.52 Q1414.49 1549.52 1411.41 1544.94 Q1408.36 1540.33 1408.36 1531.6 Q1408.36 1522.85 1411.41 1518.27 Q1414.49 1513.66 1420.3 1513.66 Z" fill="#000000" fill-rule="evenodd" fill-opacity="1" /><path clip-path="url(#clip240)" d="M1450.46 1532.44 Q1447.13 1532.44 1445.21 1534.22 Q1443.31 1536 1443.31 1539.13 Q1443.31 1542.25 1445.21 1544.03 Q1447.13 1545.82 1450.46 1545.82 Q1453.8 1545.82 1455.72 1544.03 Q1457.64 1542.23 1457.64 1539.13 Q1457.64 1536 1455.72 1534.22 Q1453.82 1532.44 1450.46 1532.44 M1445.79 1530.45 Q1442.78 1529.7 1441.09 1527.64 Q1439.42 1525.58 1439.42 1522.62 Q1439.42 1518.48 1442.36 1516.07 Q1445.32 1513.66 1450.46 1513.66 Q1455.63 1513.66 1458.57 1516.07 Q1461.51 1518.48 1461.51 1522.62 Q1461.51 1525.58 1459.82 1527.64 Q1458.15 1529.7 1455.16 1530.45 Q1458.54 1531.23 1460.42 1533.52 Q1462.32 1535.82 1462.32 1539.13 Q1462.32 1544.15 1459.24 1546.83 Q1456.18 1549.52 1450.46 1549.52 Q1444.75 1549.52 1441.67 1546.83 Q1438.61 1544.15 1438.61 1539.13 Q1438.61 1535.82 1440.51 1533.52 Q1442.41 1531.23 1445.79 1530.45 M1444.07 1523.06 Q1444.07 1525.75 1445.74 1527.25 Q1447.43 1528.76 1450.46 1528.76 Q1453.47 1528.76 1455.16 1527.25 Q1456.88 1525.75 1456.88 1523.06 Q1456.88 1520.38 1455.16 1518.87 Q1453.47 1517.37 1450.46 1517.37 Q1447.43 1517.37 1445.74 1518.87 Q1444.07 1520.38 1444.07 1523.06 Z" fill="#000000" fill-rule="evenodd" fill-opacity="1" /><path clip-path="url(#clip240)" d="M1467.87 1533.96 L1480.35 1533.96 L1480.35 1537.76 L1467.87 1537.76 L1467.87 1533.96 Z" fill="#000000" fill-rule="evenodd" fill-opacity="1" /><path clip-path="url(#clip240)" d="M1491.76 1544.91 L1508.08 1544.91 L1508.08 1548.85 L1486.13 1548.85 L1486.13 1544.91 Q1488.8 1542.16 1493.38 1537.53 Q1497.99 1532.88 1499.17 1531.53 Q1501.41 1529.01 1502.29 1527.27 Q1503.19 1525.51 1503.19 1523.82 Q1503.19 1521.07 1501.25 1519.33 Q1499.33 1517.6 1496.23 1517.6 Q1494.03 1517.6 1491.57 1518.36 Q1489.14 1519.13 1486.37 1520.68 L1486.37 1515.95 Q1489.19 1514.82 1491.64 1514.24 Q1494.1 1513.66 1496.13 1513.66 Q1501.51 1513.66 1504.7 1516.35 Q1507.89 1519.03 1507.89 1523.52 Q1507.89 1525.65 1507.08 1527.57 Q1506.3 1529.47 1504.19 1532.07 Q1503.61 1532.74 1500.51 1535.95 Q1497.41 1539.15 1491.76 1544.91 Z" fill="#000000" fill-rule="evenodd" fill-opacity="1" /><path clip-path="url(#clip240)" d="M1521.92 1544.91 L1538.24 1544.91 L1538.24 1548.85 L1516.3 1548.85 L1516.3 1544.91 Q1518.96 1542.16 1523.54 1537.53 Q1528.15 1532.88 1529.33 1531.53 Q1531.57 1529.01 1532.45 1527.27 Q1533.36 1525.51 1533.36 1523.82 Q1533.36 1521.07 1531.41 1519.33 Q1529.49 1517.6 1526.39 1517.6 Q1524.19 1517.6 1521.74 1518.36 Q1519.31 1519.13 1516.53 1520.68 L1516.53 1515.95 Q1519.35 1514.82 1521.81 1514.24 Q1524.26 1513.66 1526.3 1513.66 Q1531.67 1513.66 1534.86 1516.35 Q1538.06 1519.03 1538.06 1523.52 Q1538.06 1525.65 1537.25 1527.57 Q1536.46 1529.47 1534.35 1532.07 Q1533.77 1532.74 1530.67 1535.95 Q1527.57 1539.15 1521.92 1544.91 Z" fill="#000000" fill-rule="evenodd" fill-opacity="1" /><path clip-path="url(#clip240)" d="M1840.73 1544.91 L1857.05 1544.91 L1857.05 1548.85 L1835.11 1548.85 L1835.11 1544.91 Q1837.77 1542.16 1842.35 1537.53 Q1846.96 1532.88 1848.14 1531.53 Q1850.38 1529.01 1851.26 1527.27 Q1852.17 1525.51 1852.17 1523.82 Q1852.17 1521.07 1850.22 1519.33 Q1848.3 1517.6 1845.2 1517.6 Q1843 1517.6 1840.55 1518.36 Q1838.12 1519.13 1835.34 1520.68 L1835.34 1515.95 Q1838.16 1514.82 1840.62 1514.24 Q1843.07 1513.66 1845.11 1513.66 Q1850.48 1513.66 1853.67 1516.35 Q1856.87 1519.03 1856.87 1523.52 Q1856.87 1525.65 1856.06 1527.57 Q1855.27 1529.47 1853.16 1532.07 Q1852.58 1532.74 1849.48 1535.95 Q1846.38 1539.15 1840.73 1544.91 Z" fill="#000000" fill-rule="evenodd" fill-opacity="1" /><path clip-path="url(#clip240)" d="M1876.87 1517.37 Q1873.25 1517.37 1871.43 1520.93 Q1869.62 1524.47 1869.62 1531.6 Q1869.62 1538.71 1871.43 1542.27 Q1873.25 1545.82 1876.87 1545.82 Q1880.5 1545.82 1882.3 1542.27 Q1884.13 1538.71 1884.13 1531.6 Q1884.13 1524.47 1882.3 1520.93 Q1880.5 1517.37 1876.87 1517.37 M1876.87 1513.66 Q1882.68 1513.66 1885.73 1518.27 Q1888.81 1522.85 1888.81 1531.6 Q1888.81 1540.33 1885.73 1544.94 Q1882.68 1549.52 1876.87 1549.52 Q1871.05 1549.52 1867.98 1544.94 Q1864.92 1540.33 1864.92 1531.6 Q1864.92 1522.85 1867.98 1518.27 Q1871.05 1513.66 1876.87 1513.66 Z" fill="#000000" fill-rule="evenodd" fill-opacity="1" /><path clip-path="url(#clip240)" d="M1901.05 1544.91 L1917.37 1544.91 L1917.37 1548.85 L1895.43 1548.85 L1895.43 1544.91 Q1898.09 1542.16 1902.68 1537.53 Q1907.28 1532.88 1908.46 1531.53 Q1910.71 1529.01 1911.59 1527.27 Q1912.49 1525.51 1912.49 1523.82 Q1912.49 1521.07 1910.55 1519.33 Q1908.62 1517.6 1905.52 1517.6 Q1903.32 1517.6 1900.87 1518.36 Q1898.44 1519.13 1895.66 1520.68 L1895.66 1515.95 Q1898.49 1514.82 1900.94 1514.24 Q1903.39 1513.66 1905.43 1513.66 Q1910.8 1513.66 1913.99 1516.35 Q1917.19 1519.03 1917.19 1523.52 Q1917.19 1525.65 1916.38 1527.57 Q1915.59 1529.47 1913.49 1532.07 Q1912.91 1532.74 1909.8 1535.95 Q1906.7 1539.15 1901.05 1544.91 Z" fill="#000000" fill-rule="evenodd" fill-opacity="1" /><path clip-path="url(#clip240)" d="M1931.22 1544.91 L1947.54 1544.91 L1947.54 1548.85 L1925.59 1548.85 L1925.59 1544.91 Q1928.25 1542.16 1932.84 1537.53 Q1937.44 1532.88 1938.62 1531.53 Q1940.87 1529.01 1941.75 1527.27 Q1942.65 1525.51 1942.65 1523.82 Q1942.65 1521.07 1940.71 1519.33 Q1938.79 1517.6 1935.68 1517.6 Q1933.49 1517.6 1931.03 1518.36 Q1928.6 1519.13 1925.82 1520.68 L1925.82 1515.95 Q1928.65 1514.82 1931.1 1514.24 Q1933.55 1513.66 1935.59 1513.66 Q1940.96 1513.66 1944.16 1516.35 Q1947.35 1519.03 1947.35 1523.52 Q1947.35 1525.65 1946.54 1527.57 Q1945.75 1529.47 1943.65 1532.07 Q1943.07 1532.74 1939.97 1535.95 Q1936.86 1539.15 1931.22 1544.91 Z" fill="#000000" fill-rule="evenodd" fill-opacity="1" /><path clip-path="url(#clip240)" d="M1954.6 1533.96 L1967.07 1533.96 L1967.07 1537.76 L1954.6 1537.76 L1954.6 1533.96 Z" fill="#000000" fill-rule="evenodd" fill-opacity="1" /><path clip-path="url(#clip240)" d="M1984.46 1517.37 Q1980.85 1517.37 1979.02 1520.93 Q1977.21 1524.47 1977.21 1531.6 Q1977.21 1538.71 1979.02 1542.27 Q1980.85 1545.82 1984.46 1545.82 Q1988.09 1545.82 1989.9 1542.27 Q1991.73 1538.71 1991.73 1531.6 Q1991.73 1524.47 1989.9 1520.93 Q1988.09 1517.37 1984.46 1517.37 M1984.46 1513.66 Q1990.27 1513.66 1993.32 1518.27 Q1996.4 1522.85 1996.4 1531.6 Q1996.4 1540.33 1993.32 1544.94 Q1990.27 1549.52 1984.46 1549.52 Q1978.65 1549.52 1975.57 1544.94 Q1972.51 1540.33 1972.51 1531.6 Q1972.51 1522.85 1975.57 1518.27 Q1978.65 1513.66 1984.46 1513.66 Z" fill="#000000" fill-rule="evenodd" fill-opacity="1" /><path clip-path="url(#clip240)" d="M2014.62 1532.44 Q2011.29 1532.44 2009.36 1534.22 Q2007.47 1536 2007.47 1539.13 Q2007.47 1542.25 2009.36 1544.03 Q2011.29 1545.82 2014.62 1545.82 Q2017.95 1545.82 2019.87 1544.03 Q2021.79 1542.23 2021.79 1539.13 Q2021.79 1536 2019.87 1534.22 Q2017.98 1532.44 2014.62 1532.44 M2009.94 1530.45 Q2006.93 1529.7 2005.24 1527.64 Q2003.58 1525.58 2003.58 1522.62 Q2003.58 1518.48 2006.52 1516.07 Q2009.48 1513.66 2014.62 1513.66 Q2019.78 1513.66 2022.72 1516.07 Q2025.66 1518.48 2025.66 1522.62 Q2025.66 1525.58 2023.97 1527.64 Q2022.3 1529.7 2019.32 1530.45 Q2022.7 1531.23 2024.57 1533.52 Q2026.47 1535.82 2026.47 1539.13 Q2026.47 1544.15 2023.39 1546.83 Q2020.34 1549.52 2014.62 1549.52 Q2008.9 1549.52 2005.82 1546.83 Q2002.77 1544.15 2002.77 1539.13 Q2002.77 1535.82 2004.67 1533.52 Q2006.56 1531.23 2009.94 1530.45 M2008.23 1523.06 Q2008.23 1525.75 2009.9 1527.25 Q2011.59 1528.76 2014.62 1528.76 Q2017.63 1528.76 2019.32 1527.25 Q2021.03 1525.75 2021.03 1523.06 Q2021.03 1520.38 2019.32 1518.87 Q2017.63 1517.37 2014.62 1517.37 Q2011.59 1517.37 2009.9 1518.87 Q2008.23 1520.38 2008.23 1523.06 Z" fill="#000000" fill-rule="evenodd" fill-opacity="1" /><path clip-path="url(#clip240)" d="M2032.03 1533.96 L2044.5 1533.96 L2044.5 1537.76 L2032.03 1537.76 L2032.03 1533.96 Z" fill="#000000" fill-rule="evenodd" fill-opacity="1" /><path clip-path="url(#clip240)" d="M2055.92 1544.91 L2072.23 1544.91 L2072.23 1548.85 L2050.29 1548.85 L2050.29 1544.91 Q2052.95 1542.16 2057.54 1537.53 Q2062.14 1532.88 2063.32 1531.53 Q2065.57 1529.01 2066.45 1527.27 Q2067.35 1525.51 2067.35 1523.82 Q2067.35 1521.07 2065.41 1519.33 Q2063.48 1517.6 2060.38 1517.6 Q2058.18 1517.6 2055.73 1518.36 Q2053.3 1519.13 2050.52 1520.68 L2050.52 1515.95 Q2053.35 1514.82 2055.8 1514.24 Q2058.25 1513.66 2060.29 1513.66 Q2065.66 1513.66 2068.85 1516.35 Q2072.05 1519.03 2072.05 1523.52 Q2072.05 1525.65 2071.24 1527.57 Q2070.45 1529.47 2068.35 1532.07 Q2067.77 1532.74 2064.67 1535.95 Q2061.56 1539.15 2055.92 1544.91 Z" fill="#000000" fill-rule="evenodd" fill-opacity="1" /><path clip-path="url(#clip240)" d="M2082.19 1548.13 L2082.19 1543.87 Q2083.95 1544.7 2085.75 1545.14 Q2087.56 1545.58 2089.29 1545.58 Q2093.92 1545.58 2096.35 1542.48 Q2098.81 1539.36 2099.16 1533.01 Q2097.81 1535.01 2095.75 1536.07 Q2093.69 1537.13 2091.19 1537.13 Q2086.01 1537.13 2082.98 1534.01 Q2079.97 1530.86 2079.97 1525.42 Q2079.97 1520.1 2083.11 1516.88 Q2086.26 1513.66 2091.49 1513.66 Q2097.49 1513.66 2100.64 1518.27 Q2103.81 1522.85 2103.81 1531.6 Q2103.81 1539.77 2099.92 1544.66 Q2096.05 1549.52 2089.5 1549.52 Q2087.74 1549.52 2085.94 1549.17 Q2084.13 1548.82 2082.19 1548.13 M2091.49 1533.48 Q2094.64 1533.48 2096.47 1531.32 Q2098.32 1529.17 2098.32 1525.42 Q2098.32 1521.7 2096.47 1519.54 Q2094.64 1517.37 2091.49 1517.37 Q2088.35 1517.37 2086.49 1519.54 Q2084.66 1521.7 2084.66 1525.42 Q2084.66 1529.17 2086.49 1531.32 Q2088.35 1533.48 2091.49 1533.48 Z" fill="#000000" fill-rule="evenodd" fill-opacity="1" /><polyline clip-path="url(#clip242)" style="stroke:#000000; stroke-linecap:butt; stroke-linejoin:round; stroke-width:2; stroke-opacity:0.1; fill:none" points="
  214.353,1277.9 2352.76,1277.9 
  "/>
<polyline clip-path="url(#clip242)" style="stroke:#000000; stroke-linecap:butt; stroke-linejoin:round; stroke-width:2; stroke-opacity:0.1; fill:none" points="
  214.353,1053.56 2352.76,1053.56 
  "/>
<polyline clip-path="url(#clip242)" style="stroke:#000000; stroke-linecap:butt; stroke-linejoin:round; stroke-width:2; stroke-opacity:0.1; fill:none" points="
  214.353,829.214 2352.76,829.214 
  "/>
<polyline clip-path="url(#clip242)" style="stroke:#000000; stroke-linecap:butt; stroke-linejoin:round; stroke-width:2; stroke-opacity:0.1; fill:none" points="
  214.353,604.868 2352.76,604.868 
  "/>
<polyline clip-path="url(#clip242)" style="stroke:#000000; stroke-linecap:butt; stroke-linejoin:round; stroke-width:2; stroke-opacity:0.1; fill:none" points="
  214.353,380.523 2352.76,380.523 
  "/>
<polyline clip-path="url(#clip242)" style="stroke:#000000; stroke-linecap:butt; stroke-linejoin:round; stroke-width:2; stroke-opacity:0.1; fill:none" points="
  214.353,156.177 2352.76,156.177 
  "/>
<polyline clip-path="url(#clip240)" style="stroke:#000000; stroke-linecap:butt; stroke-linejoin:round; stroke-width:4; stroke-opacity:1; fill:none" points="
  214.353,1486.45 214.353,47.2441 
  "/>
<polyline clip-path="url(#clip240)" style="stroke:#000000; stroke-linecap:butt; stroke-linejoin:round; stroke-width:4; stroke-opacity:1; fill:none" points="
  214.353,1277.9 233.25,1277.9 
  "/>
<polyline clip-path="url(#clip240)" style="stroke:#000000; stroke-linecap:butt; stroke-linejoin:round; stroke-width:4; stroke-opacity:1; fill:none" points="
  214.353,1053.56 233.25,1053.56 
  "/>
<polyline clip-path="url(#clip240)" style="stroke:#000000; stroke-linecap:butt; stroke-linejoin:round; stroke-width:4; stroke-opacity:1; fill:none" points="
  214.353,829.214 233.25,829.214 
  "/>
<polyline clip-path="url(#clip240)" style="stroke:#000000; stroke-linecap:butt; stroke-linejoin:round; stroke-width:4; stroke-opacity:1; fill:none" points="
  214.353,604.868 233.25,604.868 
  "/>
<polyline clip-path="url(#clip240)" style="stroke:#000000; stroke-linecap:butt; stroke-linejoin:round; stroke-width:4; stroke-opacity:1; fill:none" points="
  214.353,380.523 233.25,380.523 
  "/>
<polyline clip-path="url(#clip240)" style="stroke:#000000; stroke-linecap:butt; stroke-linejoin:round; stroke-width:4; stroke-opacity:1; fill:none" points="
  214.353,156.177 233.25,156.177 
  "/>
<path clip-path="url(#clip240)" d="M51.6634 1291.25 L59.3023 1291.25 L59.3023 1264.88 L50.9921 1266.55 L50.9921 1262.29 L59.256 1260.62 L63.9319 1260.62 L63.9319 1291.25 L71.5707 1291.25 L71.5707 1295.18 L51.6634 1295.18 L51.6634 1291.25 Z" fill="#000000" fill-rule="evenodd" fill-opacity="1" /><path clip-path="url(#clip240)" d="M81.8253 1291.25 L89.4641 1291.25 L89.4641 1264.88 L81.154 1266.55 L81.154 1262.29 L89.4178 1260.62 L94.0937 1260.62 L94.0937 1291.25 L101.733 1291.25 L101.733 1295.18 L81.8253 1295.18 L81.8253 1291.25 Z" fill="#000000" fill-rule="evenodd" fill-opacity="1" /><path clip-path="url(#clip240)" d="M121.177 1263.7 Q117.566 1263.7 115.737 1267.27 Q113.932 1270.81 113.932 1277.94 Q113.932 1285.05 115.737 1288.61 Q117.566 1292.15 121.177 1292.15 Q124.811 1292.15 126.617 1288.61 Q128.445 1285.05 128.445 1277.94 Q128.445 1270.81 126.617 1267.27 Q124.811 1263.7 121.177 1263.7 M121.177 1260 Q126.987 1260 130.043 1264.61 Q133.121 1269.19 133.121 1277.94 Q133.121 1286.67 130.043 1291.27 Q126.987 1295.86 121.177 1295.86 Q115.367 1295.86 112.288 1291.27 Q109.233 1286.67 109.233 1277.94 Q109.233 1269.19 112.288 1264.61 Q115.367 1260 121.177 1260 Z" fill="#000000" fill-rule="evenodd" fill-opacity="1" /><path clip-path="url(#clip240)" d="M141.339 1289.31 L146.223 1289.31 L146.223 1295.18 L141.339 1295.18 L141.339 1289.31 Z" fill="#000000" fill-rule="evenodd" fill-opacity="1" /><path clip-path="url(#clip240)" d="M166.408 1263.7 Q162.797 1263.7 160.968 1267.27 Q159.163 1270.81 159.163 1277.94 Q159.163 1285.05 160.968 1288.61 Q162.797 1292.15 166.408 1292.15 Q170.042 1292.15 171.848 1288.61 Q173.677 1285.05 173.677 1277.94 Q173.677 1270.81 171.848 1267.27 Q170.042 1263.7 166.408 1263.7 M166.408 1260 Q172.218 1260 175.274 1264.61 Q178.353 1269.19 178.353 1277.94 Q178.353 1286.67 175.274 1291.27 Q172.218 1295.86 166.408 1295.86 Q160.598 1295.86 157.519 1291.27 Q154.464 1286.67 154.464 1277.94 Q154.464 1269.19 157.519 1264.61 Q160.598 1260 166.408 1260 Z" fill="#000000" fill-rule="evenodd" fill-opacity="1" /><path clip-path="url(#clip240)" d="M52.6588 1066.9 L60.2976 1066.9 L60.2976 1040.54 L51.9875 1042.21 L51.9875 1037.95 L60.2513 1036.28 L64.9272 1036.28 L64.9272 1066.9 L72.5661 1066.9 L72.5661 1070.84 L52.6588 1070.84 L52.6588 1066.9 Z" fill="#000000" fill-rule="evenodd" fill-opacity="1" /><path clip-path="url(#clip240)" d="M82.8207 1066.9 L90.4595 1066.9 L90.4595 1040.54 L82.1494 1042.21 L82.1494 1037.95 L90.4132 1036.28 L95.0891 1036.28 L95.0891 1066.9 L102.728 1066.9 L102.728 1070.84 L82.8207 1070.84 L82.8207 1066.9 Z" fill="#000000" fill-rule="evenodd" fill-opacity="1" /><path clip-path="url(#clip240)" d="M116.2 1066.9 L132.519 1066.9 L132.519 1070.84 L110.575 1070.84 L110.575 1066.9 Q113.237 1064.15 117.82 1059.52 Q122.427 1054.87 123.607 1053.52 Q125.853 1051 126.732 1049.27 Q127.635 1047.51 127.635 1045.82 Q127.635 1043.06 125.691 1041.33 Q123.77 1039.59 120.668 1039.59 Q118.469 1039.59 116.015 1040.35 Q113.584 1041.12 110.807 1042.67 L110.807 1037.95 Q113.631 1036.81 116.084 1036.23 Q118.538 1035.65 120.575 1035.65 Q125.945 1035.65 129.14 1038.34 Q132.334 1041.02 132.334 1045.52 Q132.334 1047.65 131.524 1049.57 Q130.737 1051.46 128.631 1054.06 Q128.052 1054.73 124.95 1057.95 Q121.848 1061.14 116.2 1066.9 Z" fill="#000000" fill-rule="evenodd" fill-opacity="1" /><path clip-path="url(#clip240)" d="M142.334 1064.96 L147.218 1064.96 L147.218 1070.84 L142.334 1070.84 L142.334 1064.96 Z" fill="#000000" fill-rule="evenodd" fill-opacity="1" /><path clip-path="url(#clip240)" d="M157.45 1036.28 L175.806 1036.28 L175.806 1040.21 L161.732 1040.21 L161.732 1048.69 Q162.751 1048.34 163.769 1048.18 Q164.788 1047.99 165.806 1047.99 Q171.593 1047.99 174.973 1051.16 Q178.353 1054.33 178.353 1059.75 Q178.353 1065.33 174.88 1068.43 Q171.408 1071.51 165.089 1071.51 Q162.913 1071.51 160.644 1071.14 Q158.399 1070.77 155.992 1070.03 L155.992 1065.33 Q158.075 1066.46 160.297 1067.02 Q162.519 1067.58 164.996 1067.58 Q169.001 1067.58 171.339 1065.47 Q173.677 1063.36 173.677 1059.75 Q173.677 1056.14 171.339 1054.03 Q169.001 1051.93 164.996 1051.93 Q163.121 1051.93 161.246 1052.34 Q159.394 1052.76 157.45 1053.64 L157.45 1036.28 Z" fill="#000000" fill-rule="evenodd" fill-opacity="1" /><path clip-path="url(#clip240)" d="M51.6634 842.559 L59.3023 842.559 L59.3023 816.193 L50.9921 817.86 L50.9921 813.601 L59.256 811.934 L63.9319 811.934 L63.9319 842.559 L71.5707 842.559 L71.5707 846.494 L51.6634 846.494 L51.6634 842.559 Z" fill="#000000" fill-rule="evenodd" fill-opacity="1" /><path clip-path="url(#clip240)" d="M81.8253 842.559 L89.4641 842.559 L89.4641 816.193 L81.154 817.86 L81.154 813.601 L89.4178 811.934 L94.0937 811.934 L94.0937 842.559 L101.733 842.559 L101.733 846.494 L81.8253 846.494 L81.8253 842.559 Z" fill="#000000" fill-rule="evenodd" fill-opacity="1" /><path clip-path="url(#clip240)" d="M111.223 811.934 L129.58 811.934 L129.58 815.869 L115.506 815.869 L115.506 824.341 Q116.524 823.994 117.543 823.832 Q118.561 823.647 119.58 823.647 Q125.367 823.647 128.746 826.818 Q132.126 829.989 132.126 835.406 Q132.126 840.985 128.654 844.087 Q125.182 847.165 118.862 847.165 Q116.686 847.165 114.418 846.795 Q112.172 846.425 109.765 845.684 L109.765 840.985 Q111.848 842.119 114.07 842.675 Q116.293 843.23 118.77 843.23 Q122.774 843.23 125.112 841.124 Q127.45 839.017 127.45 835.406 Q127.45 831.795 125.112 829.689 Q122.774 827.582 118.77 827.582 Q116.895 827.582 115.02 827.999 Q113.168 828.415 111.223 829.295 L111.223 811.934 Z" fill="#000000" fill-rule="evenodd" fill-opacity="1" /><path clip-path="url(#clip240)" d="M141.339 840.614 L146.223 840.614 L146.223 846.494 L141.339 846.494 L141.339 840.614 Z" fill="#000000" fill-rule="evenodd" fill-opacity="1" /><path clip-path="url(#clip240)" d="M166.408 815.013 Q162.797 815.013 160.968 818.577 Q159.163 822.119 159.163 829.249 Q159.163 836.355 160.968 839.92 Q162.797 843.462 166.408 843.462 Q170.042 843.462 171.848 839.92 Q173.677 836.355 173.677 829.249 Q173.677 822.119 171.848 818.577 Q170.042 815.013 166.408 815.013 M166.408 811.309 Q172.218 811.309 175.274 815.915 Q178.353 820.499 178.353 829.249 Q178.353 837.976 175.274 842.582 Q172.218 847.165 166.408 847.165 Q160.598 847.165 157.519 842.582 Q154.464 837.976 154.464 829.249 Q154.464 820.499 157.519 815.915 Q160.598 811.309 166.408 811.309 Z" fill="#000000" fill-rule="evenodd" fill-opacity="1" /><path clip-path="url(#clip240)" d="M52.6588 618.213 L60.2976 618.213 L60.2976 591.848 L51.9875 593.514 L51.9875 589.255 L60.2513 587.588 L64.9272 587.588 L64.9272 618.213 L72.5661 618.213 L72.5661 622.148 L52.6588 622.148 L52.6588 618.213 Z" fill="#000000" fill-rule="evenodd" fill-opacity="1" /><path clip-path="url(#clip240)" d="M82.8207 618.213 L90.4595 618.213 L90.4595 591.848 L82.1494 593.514 L82.1494 589.255 L90.4132 587.588 L95.0891 587.588 L95.0891 618.213 L102.728 618.213 L102.728 622.148 L82.8207 622.148 L82.8207 618.213 Z" fill="#000000" fill-rule="evenodd" fill-opacity="1" /><path clip-path="url(#clip240)" d="M110.992 587.588 L133.214 587.588 L133.214 589.579 L120.668 622.148 L115.783 622.148 L127.589 591.524 L110.992 591.524 L110.992 587.588 Z" fill="#000000" fill-rule="evenodd" fill-opacity="1" /><path clip-path="url(#clip240)" d="M142.334 616.269 L147.218 616.269 L147.218 622.148 L142.334 622.148 L142.334 616.269 Z" fill="#000000" fill-rule="evenodd" fill-opacity="1" /><path clip-path="url(#clip240)" d="M157.45 587.588 L175.806 587.588 L175.806 591.524 L161.732 591.524 L161.732 599.996 Q162.751 599.649 163.769 599.487 Q164.788 599.301 165.806 599.301 Q171.593 599.301 174.973 602.473 Q178.353 605.644 178.353 611.061 Q178.353 616.639 174.88 619.741 Q171.408 622.82 165.089 622.82 Q162.913 622.82 160.644 622.449 Q158.399 622.079 155.992 621.338 L155.992 616.639 Q158.075 617.774 160.297 618.329 Q162.519 618.885 164.996 618.885 Q169.001 618.885 171.339 616.778 Q173.677 614.672 173.677 611.061 Q173.677 607.449 171.339 605.343 Q169.001 603.237 164.996 603.237 Q163.121 603.237 161.246 603.653 Q159.394 604.07 157.45 604.95 L157.45 587.588 Z" fill="#000000" fill-rule="evenodd" fill-opacity="1" /><path clip-path="url(#clip240)" d="M51.6634 393.868 L59.3023 393.868 L59.3023 367.502 L50.9921 369.169 L50.9921 364.91 L59.256 363.243 L63.9319 363.243 L63.9319 393.868 L71.5707 393.868 L71.5707 397.803 L51.6634 397.803 L51.6634 393.868 Z" fill="#000000" fill-rule="evenodd" fill-opacity="1" /><path clip-path="url(#clip240)" d="M85.0429 393.868 L101.362 393.868 L101.362 397.803 L79.4179 397.803 L79.4179 393.868 Q82.0799 391.113 86.6632 386.484 Q91.2697 381.831 92.4502 380.488 Q94.6956 377.965 95.5752 376.229 Q96.478 374.47 96.478 372.78 Q96.478 370.025 94.5336 368.289 Q92.6123 366.553 89.5104 366.553 Q87.3114 366.553 84.8577 367.317 Q82.4271 368.081 79.6494 369.632 L79.6494 364.91 Q82.4734 363.775 84.9271 363.197 Q87.3808 362.618 89.4178 362.618 Q94.7882 362.618 97.9826 365.303 Q101.177 367.988 101.177 372.479 Q101.177 374.609 100.367 376.53 Q99.5798 378.428 97.4734 381.021 Q96.8947 381.692 93.7928 384.91 Q90.691 388.104 85.0429 393.868 Z" fill="#000000" fill-rule="evenodd" fill-opacity="1" /><path clip-path="url(#clip240)" d="M121.177 366.322 Q117.566 366.322 115.737 369.886 Q113.932 373.428 113.932 380.558 Q113.932 387.664 115.737 391.229 Q117.566 394.771 121.177 394.771 Q124.811 394.771 126.617 391.229 Q128.445 387.664 128.445 380.558 Q128.445 373.428 126.617 369.886 Q124.811 366.322 121.177 366.322 M121.177 362.618 Q126.987 362.618 130.043 367.224 Q133.121 371.808 133.121 380.558 Q133.121 389.285 130.043 393.891 Q126.987 398.474 121.177 398.474 Q115.367 398.474 112.288 393.891 Q109.233 389.285 109.233 380.558 Q109.233 371.808 112.288 367.224 Q115.367 362.618 121.177 362.618 Z" fill="#000000" fill-rule="evenodd" fill-opacity="1" /><path clip-path="url(#clip240)" d="M141.339 391.923 L146.223 391.923 L146.223 397.803 L141.339 397.803 L141.339 391.923 Z" fill="#000000" fill-rule="evenodd" fill-opacity="1" /><path clip-path="url(#clip240)" d="M166.408 366.322 Q162.797 366.322 160.968 369.886 Q159.163 373.428 159.163 380.558 Q159.163 387.664 160.968 391.229 Q162.797 394.771 166.408 394.771 Q170.042 394.771 171.848 391.229 Q173.677 387.664 173.677 380.558 Q173.677 373.428 171.848 369.886 Q170.042 366.322 166.408 366.322 M166.408 362.618 Q172.218 362.618 175.274 367.224 Q178.353 371.808 178.353 380.558 Q178.353 389.285 175.274 393.891 Q172.218 398.474 166.408 398.474 Q160.598 398.474 157.519 393.891 Q154.464 389.285 154.464 380.558 Q154.464 371.808 157.519 367.224 Q160.598 362.618 166.408 362.618 Z" fill="#000000" fill-rule="evenodd" fill-opacity="1" /><path clip-path="url(#clip240)" d="M52.6588 169.522 L60.2976 169.522 L60.2976 143.157 L51.9875 144.823 L51.9875 140.564 L60.2513 138.897 L64.9272 138.897 L64.9272 169.522 L72.5661 169.522 L72.5661 173.457 L52.6588 173.457 L52.6588 169.522 Z" fill="#000000" fill-rule="evenodd" fill-opacity="1" /><path clip-path="url(#clip240)" d="M86.0382 169.522 L102.358 169.522 L102.358 173.457 L80.4133 173.457 L80.4133 169.522 Q83.0753 166.768 87.6586 162.138 Q92.2651 157.485 93.4456 156.143 Q95.691 153.62 96.5706 151.884 Q97.4734 150.124 97.4734 148.434 Q97.4734 145.68 95.5289 143.944 Q93.6076 142.208 90.5058 142.208 Q88.3067 142.208 85.8531 142.972 Q83.4225 143.735 80.6447 145.286 L80.6447 140.564 Q83.4688 139.43 85.9225 138.851 Q88.3762 138.272 90.4132 138.272 Q95.7836 138.272 98.978 140.958 Q102.172 143.643 102.172 148.134 Q102.172 150.263 101.362 152.184 Q100.575 154.083 98.4687 156.675 Q97.89 157.346 94.7882 160.564 Q91.6864 163.758 86.0382 169.522 Z" fill="#000000" fill-rule="evenodd" fill-opacity="1" /><path clip-path="url(#clip240)" d="M116.2 169.522 L132.519 169.522 L132.519 173.457 L110.575 173.457 L110.575 169.522 Q113.237 166.768 117.82 162.138 Q122.427 157.485 123.607 156.143 Q125.853 153.62 126.732 151.884 Q127.635 150.124 127.635 148.434 Q127.635 145.68 125.691 143.944 Q123.77 142.208 120.668 142.208 Q118.469 142.208 116.015 142.972 Q113.584 143.735 110.807 145.286 L110.807 140.564 Q113.631 139.43 116.084 138.851 Q118.538 138.272 120.575 138.272 Q125.945 138.272 129.14 140.958 Q132.334 143.643 132.334 148.134 Q132.334 150.263 131.524 152.184 Q130.737 154.083 128.631 156.675 Q128.052 157.346 124.95 160.564 Q121.848 163.758 116.2 169.522 Z" fill="#000000" fill-rule="evenodd" fill-opacity="1" /><path clip-path="url(#clip240)" d="M142.334 167.578 L147.218 167.578 L147.218 173.457 L142.334 173.457 L142.334 167.578 Z" fill="#000000" fill-rule="evenodd" fill-opacity="1" /><path clip-path="url(#clip240)" d="M157.45 138.897 L175.806 138.897 L175.806 142.833 L161.732 142.833 L161.732 151.305 Q162.751 150.958 163.769 150.796 Q164.788 150.61 165.806 150.61 Q171.593 150.61 174.973 153.782 Q178.353 156.953 178.353 162.37 Q178.353 167.948 174.88 171.05 Q171.408 174.129 165.089 174.129 Q162.913 174.129 160.644 173.758 Q158.399 173.388 155.992 172.647 L155.992 167.948 Q158.075 169.083 160.297 169.638 Q162.519 170.194 164.996 170.194 Q169.001 170.194 171.339 168.087 Q173.677 165.981 173.677 162.37 Q173.677 158.758 171.339 156.652 Q169.001 154.546 164.996 154.546 Q163.121 154.546 161.246 154.962 Q159.394 155.379 157.45 156.259 L157.45 138.897 Z" fill="#000000" fill-rule="evenodd" fill-opacity="1" /><polyline clip-path="url(#clip242)" style="stroke:#009af9; stroke-linecap:butt; stroke-linejoin:round; stroke-width:4; stroke-opacity:1; fill:none" points="
  274.873,459.492 355.568,560.897 436.262,417.316 516.957,193.867 597.651,276.426 839.735,182.202 920.429,172.33 1001.12,297.066 1081.82,359.883 1162.51,392.189 
  1404.6,730.502 1485.29,890.236 1565.98,878.57 1646.68,815.753 1727.37,756.526 1969.46,1207.91 2050.15,1185.47 2130.85,1131.63 2211.54,1349.7 2292.24,1157.66 
  
  "/>
<polyline clip-path="url(#clip242)" style="stroke:#e26f46; stroke-linecap:butt; stroke-linejoin:round; stroke-width:4; stroke-opacity:1; fill:none" points="
  274.873,303.348 355.568,542.052 436.262,220.789 516.957,170.536 597.651,142.717 839.735,87.9763 920.429,90.8483 1001.12,187.586 1081.82,228.865 1162.51,380.523 
  1404.6,694.607 1485.29,745.757 1565.98,764.871 1646.68,579.742 1727.37,685.633 1969.46,1102.02 2050.15,1154.96 2130.85,1119.07 2211.54,1168.42 2292.24,1127.59 
  
  "/>
<polyline clip-path="url(#clip242)" style="stroke:#3da44d; stroke-linecap:butt; stroke-linejoin:round; stroke-width:4; stroke-opacity:1; fill:none" points="
  274.873,575.255 355.568,689.223 436.262,437.955 516.957,420.905 597.651,344.628 839.735,239.634 920.429,242.774 1001.12,362.576 1081.82,420.905 1162.51,589.613 
  1404.6,858.828 1485.29,892.03 1565.98,938.695 1646.68,824.727 1727.37,1168.42 1969.46,1294.96 2050.15,1385.59 2130.85,1363.16 2211.54,1440.33 2292.24,1445.72 
  
  "/>
<polyline clip-path="url(#clip242)" style="stroke:#c271d2; stroke-linecap:butt; stroke-linejoin:round; stroke-width:4; stroke-opacity:1; fill:none" points="
  274.873,547.436 355.568,604.868 436.262,322.193 516.957,396.676 597.651,142.717 839.735,122.077 920.429,155.28 1001.12,351.807 1081.82,303.348 1162.51,549.231 
  1404.6,822.932 1485.29,849.854 1565.98,856.136 1646.68,586.921 1727.37,1161.25 1969.46,1247.39 2050.15,1285.98 2130.85,1354.18 2211.54,1228.55 2292.24,1396.36 
  
  "/>
<path clip-path="url(#clip240)" d="
M1919.92 354.418 L2281.48 354.418 L2281.48 95.2176 L1919.92 95.2176  Z
  " fill="#ffffff" fill-rule="evenodd" fill-opacity="1"/>
<polyline clip-path="url(#clip240)" style="stroke:#000000; stroke-linecap:butt; stroke-linejoin:round; stroke-width:4; stroke-opacity:1; fill:none" points="
  1919.92,354.418 2281.48,354.418 2281.48,95.2176 1919.92,95.2176 1919.92,354.418 
  "/>
<polyline clip-path="url(#clip240)" style="stroke:#009af9; stroke-linecap:butt; stroke-linejoin:round; stroke-width:4; stroke-opacity:1; fill:none" points="
  1943.68,147.058 2086.24,147.058 
  "/>
<path clip-path="url(#clip240)" d="M2126.02 132.949 Q2120.92 132.949 2117.91 136.745 Q2114.93 140.541 2114.93 147.092 Q2114.93 153.62 2117.91 157.416 Q2120.92 161.213 2126.02 161.213 Q2131.11 161.213 2134.07 157.416 Q2137.06 153.62 2137.06 147.092 Q2137.06 140.541 2134.07 136.745 Q2131.11 132.949 2126.02 132.949 M2126.02 129.153 Q2133.28 129.153 2137.64 134.037 Q2141.99 138.898 2141.99 147.092 Q2141.99 155.264 2137.64 160.148 Q2133.28 165.009 2126.02 165.009 Q2118.72 165.009 2114.35 160.148 Q2110 155.287 2110 147.092 Q2110 138.898 2114.35 134.037 Q2118.72 129.153 2126.02 129.153 Z" fill="#000000" fill-rule="evenodd" fill-opacity="1" /><path clip-path="url(#clip240)" d="M2153.24 160.449 L2153.24 174.199 L2148.96 174.199 L2148.96 138.412 L2153.24 138.412 L2153.24 142.347 Q2154.58 140.032 2156.62 138.921 Q2158.68 137.787 2161.53 137.787 Q2166.25 137.787 2169.19 141.537 Q2172.15 145.287 2172.15 151.398 Q2172.15 157.509 2169.19 161.259 Q2166.25 165.009 2161.53 165.009 Q2158.68 165.009 2156.62 163.898 Q2154.58 162.763 2153.24 160.449 M2167.73 151.398 Q2167.73 146.699 2165.78 144.037 Q2163.86 141.352 2160.48 141.352 Q2157.1 141.352 2155.16 144.037 Q2153.24 146.699 2153.24 151.398 Q2153.24 156.097 2155.16 158.782 Q2157.1 161.444 2160.48 161.444 Q2163.86 161.444 2165.78 158.782 Q2167.73 156.097 2167.73 151.398 Z" fill="#000000" fill-rule="evenodd" fill-opacity="1" /><path clip-path="url(#clip240)" d="M2201.39 150.31 L2201.39 152.393 L2181.8 152.393 Q2182.08 156.791 2184.44 159.106 Q2186.83 161.398 2191.06 161.398 Q2193.52 161.398 2195.81 160.796 Q2198.12 160.194 2200.39 158.99 L2200.39 163.018 Q2198.1 163.99 2195.69 164.5 Q2193.28 165.009 2190.81 165.009 Q2184.6 165.009 2180.97 161.398 Q2177.36 157.787 2177.36 151.629 Q2177.36 145.264 2180.78 141.537 Q2184.23 137.787 2190.07 137.787 Q2195.3 137.787 2198.33 141.166 Q2201.39 144.523 2201.39 150.31 M2197.13 149.06 Q2197.08 145.565 2195.16 143.481 Q2193.26 141.398 2190.11 141.398 Q2186.55 141.398 2184.4 143.412 Q2182.27 145.426 2181.94 149.083 L2197.13 149.06 Z" fill="#000000" fill-rule="evenodd" fill-opacity="1" /><path clip-path="url(#clip240)" d="M2229.93 148.689 L2229.93 164.338 L2225.67 164.338 L2225.67 148.828 Q2225.67 145.148 2224.23 143.319 Q2222.8 141.49 2219.93 141.49 Q2216.48 141.49 2214.49 143.69 Q2212.5 145.889 2212.5 149.685 L2212.5 164.338 L2208.22 164.338 L2208.22 138.412 L2212.5 138.412 L2212.5 142.44 Q2214.03 140.102 2216.09 138.944 Q2218.17 137.787 2220.88 137.787 Q2225.34 137.787 2227.64 140.565 Q2229.93 143.319 2229.93 148.689 Z" fill="#000000" fill-rule="evenodd" fill-opacity="1" /><polyline clip-path="url(#clip240)" style="stroke:#e26f46; stroke-linecap:butt; stroke-linejoin:round; stroke-width:4; stroke-opacity:1; fill:none" points="
  1943.68,198.898 2086.24,198.898 
  "/>
<path clip-path="url(#clip240)" d="M2110 181.618 L2114.67 181.618 L2114.67 195.784 L2131.66 195.784 L2131.66 181.618 L2136.34 181.618 L2136.34 216.178 L2131.66 216.178 L2131.66 199.719 L2114.67 199.719 L2114.67 216.178 L2110 216.178 L2110 181.618 Z" fill="#000000" fill-rule="evenodd" fill-opacity="1" /><path clip-path="url(#clip240)" d="M2145.46 190.252 L2149.72 190.252 L2149.72 216.178 L2145.46 216.178 L2145.46 190.252 M2145.46 180.159 L2149.72 180.159 L2149.72 185.553 L2145.46 185.553 L2145.46 180.159 Z" fill="#000000" fill-rule="evenodd" fill-opacity="1" /><path clip-path="url(#clip240)" d="M2175.69 202.914 Q2175.69 198.284 2173.77 195.738 Q2171.87 193.192 2168.42 193.192 Q2165 193.192 2163.08 195.738 Q2161.18 198.284 2161.18 202.914 Q2161.18 207.52 2163.08 210.066 Q2165 212.613 2168.42 212.613 Q2171.87 212.613 2173.77 210.066 Q2175.69 207.52 2175.69 202.914 M2179.95 212.96 Q2179.95 219.58 2177.01 222.798 Q2174.07 226.039 2168.01 226.039 Q2165.76 226.039 2163.77 225.691 Q2161.78 225.367 2159.91 224.673 L2159.91 220.529 Q2161.78 221.548 2163.61 222.034 Q2165.44 222.52 2167.34 222.52 Q2171.53 222.52 2173.61 220.321 Q2175.69 218.145 2175.69 213.724 L2175.69 211.617 Q2174.37 213.909 2172.31 215.043 Q2170.25 216.178 2167.38 216.178 Q2162.61 216.178 2159.7 212.543 Q2156.78 208.909 2156.78 202.914 Q2156.78 196.895 2159.7 193.261 Q2162.61 189.627 2167.38 189.627 Q2170.25 189.627 2172.31 190.761 Q2174.37 191.895 2175.69 194.187 L2175.69 190.252 L2179.95 190.252 L2179.95 212.96 Z" fill="#000000" fill-rule="evenodd" fill-opacity="1" /><path clip-path="url(#clip240)" d="M2210.28 200.529 L2210.28 216.178 L2206.02 216.178 L2206.02 200.668 Q2206.02 196.988 2204.58 195.159 Q2203.15 193.33 2200.28 193.33 Q2196.83 193.33 2194.84 195.53 Q2192.84 197.729 2192.84 201.525 L2192.84 216.178 L2188.56 216.178 L2188.56 180.159 L2192.84 180.159 L2192.84 194.28 Q2194.37 191.942 2196.43 190.784 Q2198.52 189.627 2201.22 189.627 Q2205.69 189.627 2207.98 192.405 Q2210.28 195.159 2210.28 200.529 Z" fill="#000000" fill-rule="evenodd" fill-opacity="1" /><polyline clip-path="url(#clip240)" style="stroke:#3da44d; stroke-linecap:butt; stroke-linejoin:round; stroke-width:4; stroke-opacity:1; fill:none" points="
  1943.68,250.738 2086.24,250.738 
  "/>
<path clip-path="url(#clip240)" d="M2110 233.458 L2114.67 233.458 L2114.67 264.082 L2131.5 264.082 L2131.5 268.018 L2110 268.018 L2110 233.458 Z" fill="#000000" fill-rule="evenodd" fill-opacity="1" /><path clip-path="url(#clip240)" d="M2145.44 245.078 Q2142.01 245.078 2140.02 247.763 Q2138.03 250.425 2138.03 255.078 Q2138.03 259.731 2140 262.416 Q2141.99 265.078 2145.44 265.078 Q2148.84 265.078 2150.83 262.393 Q2152.82 259.707 2152.82 255.078 Q2152.82 250.471 2150.83 247.786 Q2148.84 245.078 2145.44 245.078 M2145.44 241.467 Q2150.99 241.467 2154.16 245.078 Q2157.34 248.689 2157.34 255.078 Q2157.34 261.444 2154.16 265.078 Q2150.99 268.689 2145.44 268.689 Q2139.86 268.689 2136.69 265.078 Q2133.54 261.444 2133.54 255.078 Q2133.54 248.689 2136.69 245.078 Q2139.86 241.467 2145.44 241.467 Z" fill="#000000" fill-rule="evenodd" fill-opacity="1" /><path clip-path="url(#clip240)" d="M2161.92 242.092 L2166.18 242.092 L2171.5 262.323 L2176.8 242.092 L2181.83 242.092 L2187.15 262.323 L2192.45 242.092 L2196.71 242.092 L2189.93 268.018 L2184.91 268.018 L2179.33 246.768 L2173.72 268.018 L2168.7 268.018 L2161.92 242.092 Z" fill="#000000" fill-rule="evenodd" fill-opacity="1" /><polyline clip-path="url(#clip240)" style="stroke:#c271d2; stroke-linecap:butt; stroke-linejoin:round; stroke-width:4; stroke-opacity:1; fill:none" points="
  1943.68,302.578 2086.24,302.578 
  "/>
<path clip-path="url(#clip240)" d="M2137.87 287.96 L2137.87 292.89 Q2135.51 290.691 2132.82 289.603 Q2130.16 288.515 2127.15 288.515 Q2121.22 288.515 2118.08 292.149 Q2114.93 295.76 2114.93 302.612 Q2114.93 309.441 2118.08 313.075 Q2121.22 316.686 2127.15 316.686 Q2130.16 316.686 2132.82 315.598 Q2135.51 314.51 2137.87 312.311 L2137.87 317.196 Q2135.41 318.862 2132.66 319.696 Q2129.93 320.529 2126.87 320.529 Q2119.03 320.529 2114.51 315.737 Q2110 310.922 2110 302.612 Q2110 294.279 2114.51 289.487 Q2119.03 284.673 2126.87 284.673 Q2129.97 284.673 2132.71 285.506 Q2135.46 286.316 2137.87 287.96 Z" fill="#000000" fill-rule="evenodd" fill-opacity="1" /><path clip-path="url(#clip240)" d="M2144.91 283.839 L2149.16 283.839 L2149.16 319.858 L2144.91 319.858 L2144.91 283.839 Z" fill="#000000" fill-rule="evenodd" fill-opacity="1" /><path clip-path="url(#clip240)" d="M2168.12 296.918 Q2164.7 296.918 2162.71 299.603 Q2160.72 302.265 2160.72 306.918 Q2160.72 311.571 2162.68 314.256 Q2164.67 316.918 2168.12 316.918 Q2171.53 316.918 2173.52 314.233 Q2175.51 311.547 2175.51 306.918 Q2175.51 302.311 2173.52 299.626 Q2171.53 296.918 2168.12 296.918 M2168.12 293.307 Q2173.68 293.307 2176.85 296.918 Q2180.02 300.529 2180.02 306.918 Q2180.02 313.284 2176.85 316.918 Q2173.68 320.529 2168.12 320.529 Q2162.54 320.529 2159.37 316.918 Q2156.22 313.284 2156.22 306.918 Q2156.22 300.529 2159.37 296.918 Q2162.54 293.307 2168.12 293.307 Z" fill="#000000" fill-rule="evenodd" fill-opacity="1" /><path clip-path="url(#clip240)" d="M2203.61 294.696 L2203.61 298.723 Q2201.8 297.797 2199.86 297.335 Q2197.91 296.872 2195.83 296.872 Q2192.66 296.872 2191.06 297.844 Q2189.49 298.816 2189.49 300.76 Q2189.49 302.242 2190.62 303.098 Q2191.76 303.932 2195.18 304.696 L2196.64 305.02 Q2201.18 305.992 2203.08 307.774 Q2205 309.534 2205 312.705 Q2205 316.316 2202.13 318.422 Q2199.28 320.529 2194.28 320.529 Q2192.2 320.529 2189.93 320.112 Q2187.68 319.719 2185.18 318.908 L2185.18 314.51 Q2187.54 315.737 2189.84 316.362 Q2192.13 316.964 2194.37 316.964 Q2197.38 316.964 2199 315.946 Q2200.62 314.904 2200.62 313.029 Q2200.62 311.293 2199.44 310.367 Q2198.28 309.441 2194.33 308.584 L2192.84 308.237 Q2188.89 307.404 2187.13 305.691 Q2185.37 303.955 2185.37 300.946 Q2185.37 297.288 2187.96 295.298 Q2190.55 293.307 2195.32 293.307 Q2197.68 293.307 2199.77 293.654 Q2201.85 294.001 2203.61 294.696 Z" fill="#000000" fill-rule="evenodd" fill-opacity="1" /><path clip-path="url(#clip240)" d="M2233.96 305.83 L2233.96 307.913 L2214.37 307.913 Q2214.65 312.311 2217.01 314.626 Q2219.4 316.918 2223.63 316.918 Q2226.09 316.918 2228.38 316.316 Q2230.69 315.714 2232.96 314.51 L2232.96 318.538 Q2230.67 319.51 2228.26 320.02 Q2225.85 320.529 2223.38 320.529 Q2217.17 320.529 2213.54 316.918 Q2209.93 313.307 2209.93 307.149 Q2209.93 300.784 2213.35 297.057 Q2216.8 293.307 2222.64 293.307 Q2227.87 293.307 2230.9 296.686 Q2233.96 300.043 2233.96 305.83 M2229.7 304.58 Q2229.65 301.085 2227.73 299.001 Q2225.83 296.918 2222.68 296.918 Q2219.12 296.918 2216.97 298.932 Q2214.84 300.946 2214.51 304.603 L2229.7 304.58 Z" fill="#000000" fill-rule="evenodd" fill-opacity="1" /></svg>
