<?xml version="1.0" encoding="utf-8"?>
<svg xmlns="http://www.w3.org/2000/svg" xmlns:xlink="http://www.w3.org/1999/xlink" width="600" height="400" viewBox="0 0 2400 1600">
<defs>
  <clipPath id="clip330">
    <rect x="0" y="0" width="2400" height="1600"/>
  </clipPath>
</defs>
<path clip-path="url(#clip330)" d="
M0 1600 L2400 1600 L2400 0 L0 0  Z
  " fill="#ffffff" fill-rule="evenodd" fill-opacity="1"/>
<defs>
  <clipPath id="clip331">
    <rect x="480" y="0" width="1681" height="1600"/>
  </clipPath>
</defs>
<path clip-path="url(#clip330)" d="
M214.353 1348.2 L2352.76 1348.2 L2352.76 47.2441 L214.353 47.2441  Z
  " fill="#ffffff" fill-rule="evenodd" fill-opacity="1"/>
<defs>
  <clipPath id="clip332">
    <rect x="214" y="47" width="2139" height="1302"/>
  </clipPath>
</defs>
<polyline clip-path="url(#clip332)" style="stroke:#000000; stroke-linecap:butt; stroke-linejoin:round; stroke-width:2; stroke-opacity:0.1; fill:none" points="
  320.492,1348.2 320.492,47.2441 
  "/>
<polyline clip-path="url(#clip332)" style="stroke:#000000; stroke-linecap:butt; stroke-linejoin:round; stroke-width:2; stroke-opacity:0.1; fill:none" points="
  421.867,1348.2 421.867,47.2441 
  "/>
<polyline clip-path="url(#clip332)" style="stroke:#000000; stroke-linecap:butt; stroke-linejoin:round; stroke-width:2; stroke-opacity:0.1; fill:none" points="
  523.242,1348.2 523.242,47.2441 
  "/>
<polyline clip-path="url(#clip332)" style="stroke:#000000; stroke-linecap:butt; stroke-linejoin:round; stroke-width:2; stroke-opacity:0.1; fill:none" points="
  624.617,1348.2 624.617,47.2441 
  "/>
<polyline clip-path="url(#clip332)" style="stroke:#000000; stroke-linecap:butt; stroke-linejoin:round; stroke-width:2; stroke-opacity:0.1; fill:none" points="
  725.992,1348.2 725.992,47.2441 
  "/>
<polyline clip-path="url(#clip332)" style="stroke:#000000; stroke-linecap:butt; stroke-linejoin:round; stroke-width:2; stroke-opacity:0.1; fill:none" points="
  827.367,1348.2 827.367,47.2441 
  "/>
<polyline clip-path="url(#clip332)" style="stroke:#000000; stroke-linecap:butt; stroke-linejoin:round; stroke-width:2; stroke-opacity:0.1; fill:none" points="
  928.742,1348.2 928.742,47.2441 
  "/>
<polyline clip-path="url(#clip332)" style="stroke:#000000; stroke-linecap:butt; stroke-linejoin:round; stroke-width:2; stroke-opacity:0.1; fill:none" points="
  1030.12,1348.2 1030.12,47.2441 
  "/>
<polyline clip-path="url(#clip332)" style="stroke:#000000; stroke-linecap:butt; stroke-linejoin:round; stroke-width:2; stroke-opacity:0.1; fill:none" points="
  1131.49,1348.2 1131.49,47.2441 
  "/>
<polyline clip-path="url(#clip332)" style="stroke:#000000; stroke-linecap:butt; stroke-linejoin:round; stroke-width:2; stroke-opacity:0.1; fill:none" points="
  1232.87,1348.2 1232.87,47.2441 
  "/>
<polyline clip-path="url(#clip332)" style="stroke:#000000; stroke-linecap:butt; stroke-linejoin:round; stroke-width:2; stroke-opacity:0.1; fill:none" points="
  1334.24,1348.2 1334.24,47.2441 
  "/>
<polyline clip-path="url(#clip332)" style="stroke:#000000; stroke-linecap:butt; stroke-linejoin:round; stroke-width:2; stroke-opacity:0.1; fill:none" points="
  1435.62,1348.2 1435.62,47.2441 
  "/>
<polyline clip-path="url(#clip332)" style="stroke:#000000; stroke-linecap:butt; stroke-linejoin:round; stroke-width:2; stroke-opacity:0.1; fill:none" points="
  1536.99,1348.2 1536.99,47.2441 
  "/>
<polyline clip-path="url(#clip332)" style="stroke:#000000; stroke-linecap:butt; stroke-linejoin:round; stroke-width:2; stroke-opacity:0.1; fill:none" points="
  1638.37,1348.2 1638.37,47.2441 
  "/>
<polyline clip-path="url(#clip332)" style="stroke:#000000; stroke-linecap:butt; stroke-linejoin:round; stroke-width:2; stroke-opacity:0.1; fill:none" points="
  1739.74,1348.2 1739.74,47.2441 
  "/>
<polyline clip-path="url(#clip332)" style="stroke:#000000; stroke-linecap:butt; stroke-linejoin:round; stroke-width:2; stroke-opacity:0.1; fill:none" points="
  1841.12,1348.2 1841.12,47.2441 
  "/>
<polyline clip-path="url(#clip332)" style="stroke:#000000; stroke-linecap:butt; stroke-linejoin:round; stroke-width:2; stroke-opacity:0.1; fill:none" points="
  1942.49,1348.2 1942.49,47.2441 
  "/>
<polyline clip-path="url(#clip332)" style="stroke:#000000; stroke-linecap:butt; stroke-linejoin:round; stroke-width:2; stroke-opacity:0.1; fill:none" points="
  2043.87,1348.2 2043.87,47.2441 
  "/>
<polyline clip-path="url(#clip332)" style="stroke:#000000; stroke-linecap:butt; stroke-linejoin:round; stroke-width:2; stroke-opacity:0.1; fill:none" points="
  2145.24,1348.2 2145.24,47.2441 
  "/>
<polyline clip-path="url(#clip332)" style="stroke:#000000; stroke-linecap:butt; stroke-linejoin:round; stroke-width:2; stroke-opacity:0.1; fill:none" points="
  2246.62,1348.2 2246.62,47.2441 
  "/>
<polyline clip-path="url(#clip330)" style="stroke:#000000; stroke-linecap:butt; stroke-linejoin:round; stroke-width:4; stroke-opacity:1; fill:none" points="
  214.353,1348.2 2352.76,1348.2 
  "/>
<polyline clip-path="url(#clip330)" style="stroke:#000000; stroke-linecap:butt; stroke-linejoin:round; stroke-width:4; stroke-opacity:1; fill:none" points="
  320.492,1348.2 320.492,1329.31 
  "/>
<polyline clip-path="url(#clip330)" style="stroke:#000000; stroke-linecap:butt; stroke-linejoin:round; stroke-width:4; stroke-opacity:1; fill:none" points="
  421.867,1348.2 421.867,1329.31 
  "/>
<polyline clip-path="url(#clip330)" style="stroke:#000000; stroke-linecap:butt; stroke-linejoin:round; stroke-width:4; stroke-opacity:1; fill:none" points="
  523.242,1348.2 523.242,1329.31 
  "/>
<polyline clip-path="url(#clip330)" style="stroke:#000000; stroke-linecap:butt; stroke-linejoin:round; stroke-width:4; stroke-opacity:1; fill:none" points="
  624.617,1348.2 624.617,1329.31 
  "/>
<polyline clip-path="url(#clip330)" style="stroke:#000000; stroke-linecap:butt; stroke-linejoin:round; stroke-width:4; stroke-opacity:1; fill:none" points="
  725.992,1348.2 725.992,1329.31 
  "/>
<polyline clip-path="url(#clip330)" style="stroke:#000000; stroke-linecap:butt; stroke-linejoin:round; stroke-width:4; stroke-opacity:1; fill:none" points="
  827.367,1348.2 827.367,1329.31 
  "/>
<polyline clip-path="url(#clip330)" style="stroke:#000000; stroke-linecap:butt; stroke-linejoin:round; stroke-width:4; stroke-opacity:1; fill:none" points="
  928.742,1348.2 928.742,1329.31 
  "/>
<polyline clip-path="url(#clip330)" style="stroke:#000000; stroke-linecap:butt; stroke-linejoin:round; stroke-width:4; stroke-opacity:1; fill:none" points="
  1030.12,1348.2 1030.12,1329.31 
  "/>
<polyline clip-path="url(#clip330)" style="stroke:#000000; stroke-linecap:butt; stroke-linejoin:round; stroke-width:4; stroke-opacity:1; fill:none" points="
  1131.49,1348.2 1131.49,1329.31 
  "/>
<polyline clip-path="url(#clip330)" style="stroke:#000000; stroke-linecap:butt; stroke-linejoin:round; stroke-width:4; stroke-opacity:1; fill:none" points="
  1232.87,1348.2 1232.87,1329.31 
  "/>
<polyline clip-path="url(#clip330)" style="stroke:#000000; stroke-linecap:butt; stroke-linejoin:round; stroke-width:4; stroke-opacity:1; fill:none" points="
  1334.24,1348.2 1334.24,1329.31 
  "/>
<polyline clip-path="url(#clip330)" style="stroke:#000000; stroke-linecap:butt; stroke-linejoin:round; stroke-width:4; stroke-opacity:1; fill:none" points="
  1435.62,1348.2 1435.62,1329.31 
  "/>
<polyline clip-path="url(#clip330)" style="stroke:#000000; stroke-linecap:butt; stroke-linejoin:round; stroke-width:4; stroke-opacity:1; fill:none" points="
  1536.99,1348.2 1536.99,1329.31 
  "/>
<polyline clip-path="url(#clip330)" style="stroke:#000000; stroke-linecap:butt; stroke-linejoin:round; stroke-width:4; stroke-opacity:1; fill:none" points="
  1638.37,1348.2 1638.37,1329.31 
  "/>
<polyline clip-path="url(#clip330)" style="stroke:#000000; stroke-linecap:butt; stroke-linejoin:round; stroke-width:4; stroke-opacity:1; fill:none" points="
  1739.74,1348.2 1739.74,1329.31 
  "/>
<polyline clip-path="url(#clip330)" style="stroke:#000000; stroke-linecap:butt; stroke-linejoin:round; stroke-width:4; stroke-opacity:1; fill:none" points="
  1841.12,1348.2 1841.12,1329.31 
  "/>
<polyline clip-path="url(#clip330)" style="stroke:#000000; stroke-linecap:butt; stroke-linejoin:round; stroke-width:4; stroke-opacity:1; fill:none" points="
  1942.49,1348.2 1942.49,1329.31 
  "/>
<polyline clip-path="url(#clip330)" style="stroke:#000000; stroke-linecap:butt; stroke-linejoin:round; stroke-width:4; stroke-opacity:1; fill:none" points="
  2043.87,1348.2 2043.87,1329.31 
  "/>
<polyline clip-path="url(#clip330)" style="stroke:#000000; stroke-linecap:butt; stroke-linejoin:round; stroke-width:4; stroke-opacity:1; fill:none" points="
  2145.24,1348.2 2145.24,1329.31 
  "/>
<polyline clip-path="url(#clip330)" style="stroke:#000000; stroke-linecap:butt; stroke-linejoin:round; stroke-width:4; stroke-opacity:1; fill:none" points="
  2246.62,1348.2 2246.62,1329.31 
  "/>
<path clip-path="url(#clip330)" d="M200.464 1614.95 L208.624 1600.82 L212.032 1602.78 L201.06 1621.79 L197.652 1619.82 Q196.597 1616.14 194.879 1609.85 Q193.153 1603.54 192.581 1601.84 Q191.518 1598.64 190.455 1597.01 Q189.383 1595.35 187.919 1594.5 Q185.534 1593.12 183.058 1593.94 Q180.594 1594.74 179.043 1597.42 Q177.943 1599.33 177.378 1601.83 Q176.824 1604.32 176.778 1607.5 L172.689 1605.14 Q173.119 1602.13 173.844 1599.71 Q174.57 1597.3 175.588 1595.54 Q178.274 1590.88 182.196 1589.46 Q186.119 1588.04 190.008 1590.28 Q191.852 1591.35 193.111 1593.01 Q194.361 1594.64 195.553 1597.76 Q195.845 1598.6 197.081 1602.89 Q198.297 1607.18 200.464 1614.95 Z" fill="#000000" fill-rule="evenodd" fill-opacity="1" /><path clip-path="url(#clip330)" d="M194.676 1569.88 Q192.87 1573.01 195.043 1576.38 Q197.207 1579.71 203.382 1583.28 Q209.536 1586.83 213.526 1587.05 Q217.507 1587.23 219.313 1584.11 Q221.13 1580.96 218.966 1577.63 Q216.793 1574.26 210.639 1570.71 Q204.464 1567.14 200.483 1566.95 Q196.493 1566.74 194.676 1569.88 M191.468 1568.03 Q194.373 1563 199.89 1562.66 Q205.399 1562.28 212.976 1566.66 Q220.534 1571.02 222.984 1575.99 Q225.426 1580.93 222.521 1585.96 Q219.615 1590.99 214.107 1591.37 Q208.59 1591.71 201.032 1587.35 Q193.454 1582.97 191.013 1578.03 Q188.563 1573.06 191.468 1568.03 Z" fill="#000000" fill-rule="evenodd" fill-opacity="1" /><path clip-path="url(#clip330)" d="M230.626 1562.71 L238.786 1548.57 L242.194 1550.54 L231.222 1569.55 L227.814 1567.58 Q226.759 1563.9 225.041 1557.61 Q223.315 1551.3 222.743 1549.6 Q221.68 1546.4 220.617 1544.77 Q219.544 1543.11 218.081 1542.26 Q215.695 1540.88 213.22 1541.7 Q210.756 1542.49 209.205 1545.18 Q208.105 1547.09 207.54 1549.59 Q206.986 1552.08 206.94 1555.26 L202.851 1552.9 Q203.281 1549.89 204.006 1547.47 Q204.732 1545.06 205.75 1543.29 Q208.436 1538.64 212.358 1537.22 Q216.281 1535.79 220.17 1538.04 Q222.014 1539.11 223.273 1540.77 Q224.523 1542.4 225.715 1545.52 Q226.007 1546.36 227.243 1550.65 Q228.458 1554.93 230.626 1562.71 Z" fill="#000000" fill-rule="evenodd" fill-opacity="1" /><path clip-path="url(#clip330)" d="M245.707 1536.59 L253.867 1522.45 L257.275 1524.42 L246.302 1543.43 L242.894 1541.46 Q241.84 1537.78 240.122 1531.49 Q238.396 1525.18 237.824 1523.48 Q236.761 1520.28 235.698 1518.65 Q234.625 1516.98 233.162 1516.14 Q230.776 1514.76 228.301 1515.58 Q225.836 1516.37 224.286 1519.06 Q223.186 1520.96 222.621 1523.47 Q222.067 1525.96 222.021 1529.14 L217.932 1526.78 Q218.361 1523.77 219.087 1521.35 Q219.813 1518.94 220.831 1517.17 Q223.516 1512.52 227.439 1511.1 Q231.362 1509.67 235.251 1511.92 Q237.095 1512.98 238.354 1514.65 Q239.604 1516.28 240.796 1519.4 Q241.088 1520.23 242.324 1524.53 Q243.539 1528.81 245.707 1536.59 Z" fill="#000000" fill-rule="evenodd" fill-opacity="1" /><path clip-path="url(#clip330)" d="M247.915 1510.86 L254.153 1500.06 L257.441 1501.96 L251.202 1512.76 L247.915 1510.86 Z" fill="#000000" fill-rule="evenodd" fill-opacity="1" /><path clip-path="url(#clip330)" d="M248.472 1476.71 Q246.666 1479.83 248.839 1483.2 Q251.003 1486.53 257.178 1490.1 Q263.332 1493.65 267.322 1493.87 Q271.303 1494.06 273.109 1490.93 Q274.926 1487.78 272.762 1484.45 Q270.589 1481.08 264.435 1477.53 Q258.26 1473.96 254.279 1473.78 Q250.289 1473.56 248.472 1476.71 M245.264 1474.85 Q248.169 1469.82 253.686 1469.48 Q259.195 1469.1 266.772 1473.48 Q274.33 1477.84 276.78 1482.81 Q279.222 1487.75 276.317 1492.78 Q273.411 1497.81 267.903 1498.19 Q262.386 1498.53 254.828 1494.17 Q247.25 1489.79 244.809 1484.86 Q242.359 1479.89 245.264 1474.85 Z" fill="#000000" fill-rule="evenodd" fill-opacity="1" /><path clip-path="url(#clip330)" d="M276.603 1458.12 Q274.936 1461.01 275.519 1463.56 Q276.114 1466.1 278.82 1467.66 Q281.526 1469.22 284.019 1468.47 Q286.523 1467.7 288.19 1464.81 Q289.857 1461.92 289.274 1459.37 Q288.671 1456.8 285.984 1455.25 Q283.278 1453.69 280.774 1454.46 Q278.281 1455.21 276.603 1458.12 M272.541 1461.17 Q270.395 1463.41 267.766 1463.84 Q265.148 1464.26 262.582 1462.77 Q258.994 1460.7 258.379 1456.95 Q257.776 1453.18 260.345 1448.73 Q262.926 1444.26 266.481 1442.92 Q270.036 1441.58 273.624 1443.65 Q276.19 1445.13 277.129 1447.62 Q278.08 1450.1 277.228 1453.05 Q279.6 1450.52 282.522 1450.04 Q285.456 1449.55 288.322 1451.2 Q292.672 1453.71 293.459 1457.72 Q294.256 1461.71 291.397 1466.66 Q288.539 1471.61 284.674 1472.94 Q280.821 1474.24 276.471 1471.73 Q273.604 1470.07 272.568 1467.28 Q271.533 1464.49 272.541 1461.17 M265.29 1458.96 Q267.615 1460.31 269.751 1459.62 Q271.899 1458.91 273.415 1456.28 Q274.92 1453.67 274.462 1451.46 Q274.015 1449.22 271.69 1447.88 Q269.365 1446.54 267.205 1447.27 Q265.057 1447.98 263.552 1450.58 Q262.036 1453.21 262.494 1455.43 Q262.964 1457.62 265.29 1458.96 Z" fill="#000000" fill-rule="evenodd" fill-opacity="1" /><path clip-path="url(#clip330)" d="M286.63 1443.81 L292.868 1433 L296.156 1434.9 L289.917 1445.71 L286.63 1443.81 Z" fill="#000000" fill-rule="evenodd" fill-opacity="1" /><path clip-path="url(#clip330)" d="M287.187 1409.65 Q285.381 1412.78 287.554 1416.14 Q289.718 1419.48 295.893 1423.04 Q302.047 1426.6 306.037 1426.81 Q310.019 1427 311.824 1423.87 Q313.641 1420.73 311.477 1417.39 Q309.304 1414.03 303.15 1410.47 Q296.975 1406.91 292.994 1406.72 Q289.004 1406.5 287.187 1409.65 M283.979 1407.8 Q286.884 1402.77 292.401 1402.42 Q297.91 1402.05 305.488 1406.42 Q313.045 1410.79 315.495 1415.76 Q317.937 1420.69 315.032 1425.73 Q312.127 1430.76 306.618 1431.13 Q301.101 1431.47 293.543 1427.11 Q285.966 1422.74 283.524 1417.8 Q281.074 1412.83 283.979 1407.8 Z" fill="#000000" fill-rule="evenodd" fill-opacity="1" /><path clip-path="url(#clip330)" d="M315.318 1391.06 Q313.651 1393.95 314.234 1396.5 Q314.829 1399.04 317.535 1400.6 Q320.241 1402.16 322.734 1401.41 Q325.238 1400.64 326.905 1397.75 Q328.572 1394.87 327.989 1392.31 Q327.386 1389.74 324.699 1388.19 Q321.993 1386.63 319.489 1387.4 Q316.996 1388.16 315.318 1391.06 M311.256 1394.12 Q309.11 1396.35 306.481 1396.79 Q303.863 1397.2 301.297 1395.72 Q297.709 1393.65 297.094 1389.9 Q296.491 1386.13 299.06 1381.68 Q301.641 1377.21 305.196 1375.86 Q308.751 1374.52 312.339 1376.59 Q314.905 1378.07 315.844 1380.57 Q316.795 1383.04 315.943 1386 Q318.315 1383.46 321.237 1382.99 Q324.171 1382.49 327.037 1384.14 Q331.388 1386.66 332.174 1390.66 Q332.971 1394.65 330.113 1399.6 Q327.254 1404.56 323.389 1405.88 Q319.536 1407.18 315.186 1404.67 Q312.319 1403.02 311.283 1400.23 Q310.248 1397.44 311.256 1394.12 M304.005 1391.91 Q306.33 1393.25 308.466 1392.56 Q310.614 1391.85 312.131 1389.22 Q313.635 1386.62 313.177 1384.4 Q312.73 1382.17 310.405 1380.82 Q308.08 1379.48 305.92 1380.21 Q303.772 1380.92 302.268 1383.53 Q300.751 1386.15 301.209 1388.37 Q301.679 1390.57 304.005 1391.91 Z" fill="#000000" fill-rule="evenodd" fill-opacity="1" /><path clip-path="url(#clip330)" d="M505.156 1613.97 L513.316 1599.83 L516.724 1601.8 L505.752 1620.81 L502.344 1618.84 Q501.289 1615.16 499.571 1608.87 Q497.845 1602.56 497.273 1600.86 Q496.21 1597.66 495.147 1596.03 Q494.075 1594.36 492.611 1593.52 Q490.226 1592.14 487.75 1592.96 Q485.286 1593.75 483.735 1596.44 Q482.635 1598.34 482.07 1600.85 Q481.516 1603.34 481.47 1606.52 L477.381 1604.16 Q477.811 1601.15 478.536 1598.73 Q479.262 1596.32 480.28 1594.55 Q482.966 1589.9 486.888 1588.48 Q490.811 1587.05 494.7 1589.3 Q496.544 1590.36 497.803 1592.03 Q499.053 1593.66 500.245 1596.78 Q500.537 1597.62 501.773 1601.91 Q502.989 1606.19 505.156 1613.97 Z" fill="#000000" fill-rule="evenodd" fill-opacity="1" /><path clip-path="url(#clip330)" d="M499.368 1568.9 Q497.562 1572.03 499.735 1575.39 Q501.899 1578.73 508.074 1582.29 Q514.228 1585.85 518.218 1586.07 Q522.199 1586.25 524.005 1583.13 Q525.822 1579.98 523.658 1576.64 Q521.485 1573.28 515.331 1569.72 Q509.156 1566.16 505.175 1565.97 Q501.185 1565.75 499.368 1568.9 M496.16 1567.05 Q499.065 1562.02 504.582 1561.67 Q510.091 1561.3 517.668 1565.67 Q525.226 1570.04 527.676 1575.01 Q530.118 1579.95 527.212 1584.98 Q524.307 1590.01 518.799 1590.38 Q513.282 1590.73 505.724 1586.36 Q498.146 1581.99 495.705 1577.05 Q493.255 1572.08 496.16 1567.05 Z" fill="#000000" fill-rule="evenodd" fill-opacity="1" /><path clip-path="url(#clip330)" d="M535.318 1561.73 L543.478 1547.59 L546.886 1549.56 L535.914 1568.56 L532.506 1566.6 Q531.451 1562.91 529.733 1556.63 Q528.007 1550.31 527.435 1548.62 Q526.372 1545.41 525.309 1543.78 Q524.236 1542.12 522.773 1541.28 Q520.387 1539.9 517.912 1540.72 Q515.448 1541.51 513.897 1544.2 Q512.797 1546.1 512.232 1548.61 Q511.678 1551.1 511.632 1554.28 L507.543 1551.92 Q507.973 1548.9 508.698 1546.49 Q509.424 1544.08 510.442 1542.31 Q513.128 1537.66 517.05 1536.24 Q520.973 1534.81 524.862 1537.06 Q526.706 1538.12 527.965 1539.79 Q529.215 1541.42 530.407 1544.54 Q530.699 1545.37 531.935 1549.67 Q533.15 1553.95 535.318 1561.73 Z" fill="#000000" fill-rule="evenodd" fill-opacity="1" /><path clip-path="url(#clip330)" d="M550.399 1535.6 L558.559 1521.47 L561.967 1523.44 L550.994 1542.44 L547.586 1540.48 Q546.532 1536.79 544.814 1530.51 Q543.088 1524.19 542.516 1522.5 Q541.453 1519.29 540.39 1517.66 Q539.317 1516 537.854 1515.16 Q535.468 1513.78 532.993 1514.6 Q530.528 1515.39 528.978 1518.08 Q527.878 1519.98 527.313 1522.49 Q526.759 1524.98 526.713 1528.16 L522.624 1525.8 Q523.053 1522.78 523.779 1520.37 Q524.505 1517.95 525.523 1516.19 Q528.208 1511.54 532.131 1510.12 Q536.054 1508.69 539.943 1510.94 Q541.787 1512 543.046 1513.66 Q544.296 1515.29 545.488 1518.42 Q545.78 1519.25 547.016 1523.55 Q548.231 1527.83 550.399 1535.6 Z" fill="#000000" fill-rule="evenodd" fill-opacity="1" /><path clip-path="url(#clip330)" d="M552.607 1509.88 L558.845 1499.08 L562.133 1500.98 L555.894 1511.78 L552.607 1509.88 Z" fill="#000000" fill-rule="evenodd" fill-opacity="1" /><path clip-path="url(#clip330)" d="M553.164 1475.72 Q551.358 1478.85 553.531 1482.22 Q555.695 1485.55 561.87 1489.12 Q568.024 1492.67 572.014 1492.89 Q575.995 1493.08 577.801 1489.95 Q579.618 1486.8 577.454 1483.47 Q575.281 1480.1 569.127 1476.55 Q562.952 1472.98 558.971 1472.79 Q554.981 1472.58 553.164 1475.72 M549.956 1473.87 Q552.861 1468.84 558.378 1468.5 Q563.887 1468.12 571.464 1472.5 Q579.022 1476.86 581.472 1481.83 Q583.914 1486.77 581.009 1491.8 Q578.103 1496.83 572.595 1497.21 Q567.078 1497.55 559.52 1493.19 Q551.942 1488.81 549.501 1483.87 Q547.051 1478.9 549.956 1473.87 Z" fill="#000000" fill-rule="evenodd" fill-opacity="1" /><path clip-path="url(#clip330)" d="M581.295 1457.14 Q579.628 1460.02 580.211 1462.58 Q580.806 1465.11 583.512 1466.68 Q586.218 1468.24 588.711 1467.49 Q591.215 1466.71 592.882 1463.83 Q594.549 1460.94 593.966 1458.39 Q593.363 1455.82 590.676 1454.27 Q587.97 1452.71 585.466 1453.48 Q582.973 1454.23 581.295 1457.14 M577.233 1460.19 Q575.087 1462.43 572.458 1462.86 Q569.84 1463.27 567.274 1461.79 Q563.686 1459.72 563.071 1455.97 Q562.468 1452.2 565.037 1447.75 Q567.618 1443.28 571.173 1441.94 Q574.728 1440.6 578.316 1442.67 Q580.882 1444.15 581.821 1446.64 Q582.772 1449.12 581.92 1452.07 Q584.292 1449.54 587.214 1449.06 Q590.148 1448.56 593.014 1450.22 Q597.364 1452.73 598.151 1456.74 Q598.948 1460.73 596.089 1465.68 Q593.231 1470.63 589.366 1471.95 Q585.513 1473.26 581.163 1470.75 Q578.296 1469.09 577.26 1466.3 Q576.225 1463.51 577.233 1460.19 M569.982 1457.98 Q572.307 1459.33 574.443 1458.63 Q576.591 1457.92 578.107 1455.3 Q579.612 1452.69 579.154 1450.48 Q578.707 1448.24 576.382 1446.9 Q574.057 1445.55 571.897 1446.29 Q569.749 1447 568.244 1449.6 Q566.728 1452.23 567.186 1454.44 Q567.656 1456.64 569.982 1457.98 Z" fill="#000000" fill-rule="evenodd" fill-opacity="1" /><path clip-path="url(#clip330)" d="M591.322 1442.83 L597.56 1432.02 L600.848 1433.92 L594.609 1444.72 L591.322 1442.83 Z" fill="#000000" fill-rule="evenodd" fill-opacity="1" /><path clip-path="url(#clip330)" d="M611.139 1430.4 L614.959 1423.78 L592.126 1410.6 L589.414 1418.63 L585.725 1416.5 L588.414 1408.51 L590.752 1404.46 L617.274 1419.77 L621.093 1413.16 L624.501 1415.13 L614.547 1432.37 L611.139 1430.4 Z" fill="#000000" fill-rule="evenodd" fill-opacity="1" /><path clip-path="url(#clip330)" d="M626.22 1404.28 L630.04 1397.66 L607.206 1384.48 L604.495 1392.51 L600.806 1390.38 L603.495 1382.39 L605.833 1378.34 L632.355 1393.65 L636.174 1387.04 L639.582 1389 L629.628 1406.25 L626.22 1404.28 Z" fill="#000000" fill-rule="evenodd" fill-opacity="1" /><path clip-path="url(#clip330)" d="M808.587 1615.17 L816.746 1601.04 L820.154 1603 L809.182 1622.01 L805.774 1620.04 Q804.72 1616.36 803.002 1610.07 Q801.276 1603.76 800.703 1602.06 Q799.641 1598.86 798.577 1597.23 Q797.505 1595.57 796.042 1594.72 Q793.656 1593.35 791.18 1594.16 Q788.716 1594.96 787.165 1597.64 Q786.066 1599.55 785.5 1602.05 Q784.947 1604.54 784.901 1607.72 L780.811 1605.36 Q781.241 1602.35 781.967 1599.93 Q782.692 1597.52 783.711 1595.76 Q786.396 1591.11 790.319 1589.68 Q794.241 1588.26 798.13 1590.5 Q799.975 1591.57 801.234 1593.23 Q802.484 1594.86 803.676 1597.98 Q803.968 1598.82 805.203 1603.11 Q806.419 1607.4 808.587 1615.17 Z" fill="#000000" fill-rule="evenodd" fill-opacity="1" /><path clip-path="url(#clip330)" d="M802.798 1570.1 Q800.992 1573.23 803.165 1576.6 Q805.33 1579.93 811.504 1583.5 Q817.658 1587.05 821.648 1587.27 Q825.63 1587.46 827.435 1584.33 Q829.253 1581.18 827.088 1577.85 Q824.915 1574.48 818.761 1570.93 Q812.587 1567.36 808.605 1567.18 Q804.615 1566.96 802.798 1570.1 M799.59 1568.25 Q802.496 1563.22 808.013 1562.88 Q813.521 1562.5 821.099 1566.88 Q828.657 1571.24 831.107 1576.21 Q833.548 1581.15 830.643 1586.18 Q827.738 1591.21 822.229 1591.59 Q816.712 1591.93 809.155 1587.57 Q801.577 1583.19 799.135 1578.25 Q796.685 1573.28 799.59 1568.25 Z" fill="#000000" fill-rule="evenodd" fill-opacity="1" /><path clip-path="url(#clip330)" d="M838.748 1562.93 L846.908 1548.79 L850.316 1550.76 L839.344 1569.77 L835.936 1567.8 Q834.881 1564.12 833.164 1557.83 Q831.438 1551.52 830.865 1549.82 Q829.803 1546.62 828.739 1544.99 Q827.667 1543.33 826.203 1542.48 Q823.818 1541.1 821.342 1541.92 Q818.878 1542.72 817.327 1545.4 Q816.228 1547.31 815.662 1549.81 Q815.108 1552.3 815.063 1555.48 L810.973 1553.12 Q811.403 1550.11 812.129 1547.69 Q812.854 1545.28 813.873 1543.51 Q816.558 1538.86 820.481 1537.44 Q824.403 1536.02 828.292 1538.26 Q830.137 1539.33 831.395 1540.99 Q832.646 1542.62 833.838 1545.74 Q834.13 1546.58 835.365 1550.87 Q836.581 1555.15 838.748 1562.93 Z" fill="#000000" fill-rule="evenodd" fill-opacity="1" /><path clip-path="url(#clip330)" d="M853.829 1536.81 L861.989 1522.67 L865.397 1524.64 L854.425 1543.65 L851.017 1541.68 Q849.962 1538 848.245 1531.71 Q846.518 1525.4 845.946 1523.7 Q844.884 1520.5 843.82 1518.87 Q842.748 1517.2 841.284 1516.36 Q838.899 1514.98 836.423 1515.8 Q833.959 1516.59 832.408 1519.28 Q831.308 1521.18 830.743 1523.69 Q830.189 1526.18 830.144 1529.36 L826.054 1527 Q826.484 1523.99 827.21 1521.57 Q827.935 1519.16 828.954 1517.39 Q831.639 1512.74 835.562 1511.32 Q839.484 1509.89 843.373 1512.14 Q845.218 1513.2 846.476 1514.87 Q847.727 1516.5 848.919 1519.62 Q849.211 1520.45 850.446 1524.75 Q851.662 1529.03 853.829 1536.81 Z" fill="#000000" fill-rule="evenodd" fill-opacity="1" /><path clip-path="url(#clip330)" d="M856.037 1511.09 L862.275 1500.28 L865.563 1502.18 L859.325 1512.98 L856.037 1511.09 Z" fill="#000000" fill-rule="evenodd" fill-opacity="1" /><path clip-path="url(#clip330)" d="M856.594 1476.93 Q854.788 1480.05 856.961 1483.42 Q859.126 1486.75 865.3 1490.32 Q871.454 1493.87 875.444 1494.09 Q879.426 1494.28 881.231 1491.15 Q883.049 1488 880.884 1484.67 Q878.711 1481.3 872.557 1477.75 Q866.383 1474.18 862.401 1474 Q858.411 1473.78 856.594 1476.93 M853.386 1475.07 Q856.292 1470.04 861.809 1469.7 Q867.317 1469.33 874.895 1473.7 Q882.453 1478.06 884.903 1483.03 Q887.344 1487.97 884.439 1493 Q881.534 1498.03 876.025 1498.41 Q870.508 1498.75 862.951 1494.39 Q855.373 1490.01 852.931 1485.08 Q850.481 1480.11 853.386 1475.07 Z" fill="#000000" fill-rule="evenodd" fill-opacity="1" /><path clip-path="url(#clip330)" d="M884.725 1458.34 Q883.059 1461.23 883.642 1463.78 Q884.236 1466.32 886.943 1467.88 Q889.649 1469.44 892.141 1468.69 Q894.646 1467.92 896.312 1465.03 Q897.979 1462.14 897.396 1459.59 Q896.793 1457.02 894.107 1455.47 Q891.401 1453.91 888.896 1454.68 Q886.404 1455.43 884.725 1458.34 M880.663 1461.39 Q878.517 1463.63 875.888 1464.06 Q873.271 1464.48 870.705 1462.99 Q867.116 1460.92 866.501 1457.17 Q865.898 1453.4 868.467 1448.95 Q871.048 1444.48 874.603 1443.14 Q878.158 1441.8 881.746 1443.87 Q884.312 1445.35 885.252 1447.85 Q886.202 1450.32 885.351 1453.28 Q887.722 1450.74 890.644 1450.26 Q893.578 1449.77 896.445 1451.42 Q900.795 1453.93 901.581 1457.94 Q902.379 1461.93 899.52 1466.88 Q896.661 1471.83 892.796 1473.16 Q888.943 1474.46 884.593 1471.95 Q881.726 1470.29 880.691 1467.5 Q879.655 1464.71 880.663 1461.39 M873.412 1459.19 Q875.737 1460.53 877.874 1459.84 Q880.022 1459.13 881.538 1456.5 Q883.043 1453.89 882.584 1451.68 Q882.138 1449.44 879.812 1448.1 Q877.487 1446.76 875.327 1447.49 Q873.18 1448.2 871.675 1450.81 Q870.159 1453.43 870.617 1455.65 Q871.087 1457.84 873.412 1459.19 Z" fill="#000000" fill-rule="evenodd" fill-opacity="1" /><path clip-path="url(#clip330)" d="M894.752 1444.03 L900.99 1433.22 L904.278 1435.12 L898.04 1445.93 L894.752 1444.03 Z" fill="#000000" fill-rule="evenodd" fill-opacity="1" /><path clip-path="url(#clip330)" d="M914.57 1431.6 L918.389 1424.99 L895.556 1411.8 L892.844 1419.83 L889.156 1417.7 L891.844 1409.71 L894.182 1405.66 L920.704 1420.98 L924.523 1414.36 L927.931 1416.33 L917.978 1433.57 L914.57 1431.6 Z" fill="#000000" fill-rule="evenodd" fill-opacity="1" /><path clip-path="url(#clip330)" d="M921.364 1389.42 Q919.79 1392.14 920.729 1394.82 Q921.679 1397.48 924.926 1399.36 Q928.154 1401.22 930.952 1400.73 Q933.743 1400.2 935.317 1397.47 Q936.891 1394.75 935.941 1392.09 Q934.982 1389.39 931.755 1387.53 Q928.507 1385.66 925.717 1386.18 Q922.938 1386.69 921.364 1389.42 M913.316 1374.05 L917.004 1376.18 Q915.403 1377.29 914.119 1378.63 Q912.847 1379.96 911.968 1381.48 Q909.653 1385.49 911.132 1389.18 Q912.623 1392.84 917.923 1396.3 Q916.861 1394.11 916.969 1391.8 Q917.057 1389.47 918.296 1387.32 Q920.9 1382.81 925.151 1381.79 Q929.393 1380.74 934.104 1383.46 Q938.715 1386.12 939.928 1390.46 Q941.14 1394.79 938.524 1399.32 Q935.527 1404.52 929.972 1404.97 Q924.397 1405.41 916.839 1401.05 Q909.743 1396.95 907.477 1391.15 Q905.192 1385.34 908.467 1379.67 Q909.347 1378.15 910.539 1376.78 Q911.742 1375.39 913.316 1374.05 Z" fill="#000000" fill-rule="evenodd" fill-opacity="1" /><path clip-path="url(#clip330)" d="M1112.89 1614.87 L1121.04 1600.74 L1124.45 1602.7 L1113.48 1621.71 L1110.07 1619.74 Q1109.02 1616.06 1107.3 1609.77 Q1105.57 1603.46 1105 1601.76 Q1103.94 1598.56 1102.88 1596.93 Q1101.8 1595.27 1100.34 1594.42 Q1097.95 1593.04 1095.48 1593.86 Q1093.01 1594.66 1091.46 1597.34 Q1090.36 1599.25 1089.8 1601.75 Q1089.25 1604.24 1089.2 1607.42 L1085.11 1605.06 Q1085.54 1602.05 1086.27 1599.63 Q1086.99 1597.22 1088.01 1595.46 Q1090.69 1590.8 1094.62 1589.38 Q1098.54 1587.96 1102.43 1590.2 Q1104.27 1591.27 1105.53 1592.93 Q1106.78 1594.56 1107.97 1597.68 Q1108.27 1598.52 1109.5 1602.81 Q1110.72 1607.1 1112.89 1614.87 Z" fill="#000000" fill-rule="evenodd" fill-opacity="1" /><path clip-path="url(#clip330)" d="M1107.1 1569.8 Q1105.29 1572.93 1107.46 1576.3 Q1109.63 1579.63 1115.8 1583.2 Q1121.96 1586.75 1125.95 1586.97 Q1129.93 1587.15 1131.73 1584.03 Q1133.55 1580.88 1131.39 1577.55 Q1129.21 1574.18 1123.06 1570.63 Q1116.89 1567.06 1112.9 1566.87 Q1108.91 1566.66 1107.1 1569.8 M1103.89 1567.95 Q1106.79 1562.92 1112.31 1562.58 Q1117.82 1562.2 1125.4 1566.58 Q1132.96 1570.94 1135.4 1575.91 Q1137.85 1580.85 1134.94 1585.88 Q1132.04 1590.91 1126.53 1591.29 Q1121.01 1591.63 1113.45 1587.27 Q1105.88 1582.89 1103.43 1577.95 Q1100.98 1572.98 1103.89 1567.95 Z" fill="#000000" fill-rule="evenodd" fill-opacity="1" /><path clip-path="url(#clip330)" d="M1143.05 1562.63 L1151.21 1548.49 L1154.61 1550.46 L1143.64 1569.47 L1140.23 1567.5 Q1139.18 1563.82 1137.46 1557.53 Q1135.74 1551.22 1135.16 1549.52 Q1134.1 1546.32 1133.04 1544.69 Q1131.97 1543.02 1130.5 1542.18 Q1128.12 1540.8 1125.64 1541.62 Q1123.18 1542.41 1121.63 1545.1 Q1120.53 1547.01 1119.96 1549.51 Q1119.41 1552 1119.36 1555.18 L1115.27 1552.82 Q1115.7 1549.81 1116.43 1547.39 Q1117.15 1544.98 1118.17 1543.21 Q1120.86 1538.56 1124.78 1537.14 Q1128.7 1535.71 1132.59 1537.96 Q1134.44 1539.02 1135.69 1540.69 Q1136.94 1542.32 1138.14 1545.44 Q1138.43 1546.28 1139.66 1550.57 Q1140.88 1554.85 1143.05 1562.63 Z" fill="#000000" fill-rule="evenodd" fill-opacity="1" /><path clip-path="url(#clip330)" d="M1158.13 1536.51 L1166.29 1522.37 L1169.7 1524.34 L1158.72 1543.35 L1155.32 1541.38 Q1154.26 1537.69 1152.54 1531.41 Q1150.82 1525.1 1150.24 1523.4 Q1149.18 1520.2 1148.12 1518.57 Q1147.05 1516.9 1145.58 1516.06 Q1143.2 1514.68 1140.72 1515.5 Q1138.26 1516.29 1136.71 1518.98 Q1135.61 1520.88 1135.04 1523.39 Q1134.49 1525.88 1134.44 1529.06 L1130.35 1526.7 Q1130.78 1523.69 1131.51 1521.27 Q1132.23 1518.86 1133.25 1517.09 Q1135.94 1512.44 1139.86 1511.02 Q1143.78 1509.59 1147.67 1511.84 Q1149.52 1512.9 1150.77 1514.57 Q1152.03 1516.2 1153.22 1519.32 Q1153.51 1520.15 1154.74 1524.45 Q1155.96 1528.73 1158.13 1536.51 Z" fill="#000000" fill-rule="evenodd" fill-opacity="1" /><path clip-path="url(#clip330)" d="M1160.34 1510.78 L1166.57 1499.98 L1169.86 1501.88 L1163.62 1512.68 L1160.34 1510.78 Z" fill="#000000" fill-rule="evenodd" fill-opacity="1" /><path clip-path="url(#clip330)" d="M1160.89 1476.63 Q1159.09 1479.75 1161.26 1483.12 Q1163.42 1486.45 1169.6 1490.02 Q1175.75 1493.57 1179.74 1493.79 Q1183.72 1493.98 1185.53 1490.85 Q1187.35 1487.7 1185.18 1484.37 Q1183.01 1481 1176.86 1477.45 Q1170.68 1473.88 1166.7 1473.7 Q1162.71 1473.48 1160.89 1476.63 M1157.68 1474.77 Q1160.59 1469.74 1166.11 1469.4 Q1171.62 1469.02 1179.19 1473.4 Q1186.75 1477.76 1189.2 1482.73 Q1191.64 1487.67 1188.74 1492.7 Q1185.83 1497.73 1180.32 1498.11 Q1174.81 1498.45 1167.25 1494.09 Q1159.67 1489.71 1157.23 1484.77 Q1154.78 1479.81 1157.68 1474.77 Z" fill="#000000" fill-rule="evenodd" fill-opacity="1" /><path clip-path="url(#clip330)" d="M1189.02 1458.04 Q1187.36 1460.93 1187.94 1463.48 Q1188.53 1466.02 1191.24 1467.58 Q1193.95 1469.14 1196.44 1468.39 Q1198.94 1467.62 1200.61 1464.73 Q1202.28 1461.84 1201.69 1459.29 Q1201.09 1456.72 1198.41 1455.17 Q1195.7 1453.61 1193.19 1454.38 Q1190.7 1455.13 1189.02 1458.04 M1184.96 1461.09 Q1182.82 1463.33 1180.19 1463.76 Q1177.57 1464.18 1175 1462.69 Q1171.41 1460.62 1170.8 1456.87 Q1170.2 1453.1 1172.77 1448.65 Q1175.35 1444.18 1178.9 1442.84 Q1182.46 1441.5 1186.04 1443.57 Q1188.61 1445.05 1189.55 1447.54 Q1190.5 1450.02 1189.65 1452.97 Q1192.02 1450.44 1194.94 1449.96 Q1197.88 1449.47 1200.74 1451.12 Q1205.09 1453.63 1205.88 1457.64 Q1206.68 1461.63 1203.82 1466.58 Q1200.96 1471.53 1197.09 1472.86 Q1193.24 1474.16 1188.89 1471.65 Q1186.02 1469.99 1184.99 1467.2 Q1183.95 1464.41 1184.96 1461.09 M1177.71 1458.88 Q1180.04 1460.23 1182.17 1459.54 Q1184.32 1458.83 1185.84 1456.2 Q1187.34 1453.59 1186.88 1451.38 Q1186.44 1449.14 1184.11 1447.8 Q1181.79 1446.46 1179.63 1447.19 Q1177.48 1447.9 1175.97 1450.5 Q1174.46 1453.13 1174.92 1455.35 Q1175.39 1457.54 1177.71 1458.88 Z" fill="#000000" fill-rule="evenodd" fill-opacity="1" /><path clip-path="url(#clip330)" d="M1199.05 1443.73 L1205.29 1432.92 L1208.58 1434.82 L1202.34 1445.63 L1199.05 1443.73 Z" fill="#000000" fill-rule="evenodd" fill-opacity="1" /><path clip-path="url(#clip330)" d="M1218.87 1431.3 L1222.69 1424.69 L1199.85 1411.5 L1197.14 1419.53 L1193.45 1417.4 L1196.14 1409.41 L1198.48 1405.36 L1225 1420.68 L1228.82 1414.06 L1232.23 1416.03 L1222.28 1433.27 L1218.87 1431.3 Z" fill="#000000" fill-rule="evenodd" fill-opacity="1" /><path clip-path="url(#clip330)" d="M1236.4 1407.37 L1232.71 1405.24 Q1234.31 1404.13 1235.6 1402.79 Q1236.88 1401.45 1237.75 1399.94 Q1240.06 1395.93 1238.59 1392.28 Q1237.11 1388.59 1231.79 1385.12 Q1232.85 1387.28 1232.74 1389.59 Q1232.63 1391.91 1231.38 1394.07 Q1228.79 1398.56 1224.57 1399.63 Q1220.33 1400.66 1215.62 1397.94 Q1211.01 1395.28 1209.8 1390.94 Q1208.59 1386.61 1211.2 1382.08 Q1214.2 1376.89 1219.76 1376.46 Q1225.32 1376.01 1232.9 1380.38 Q1239.97 1384.47 1242.26 1390.28 Q1244.54 1396.06 1241.26 1401.73 Q1240.38 1403.25 1239.18 1404.64 Q1237.97 1406.03 1236.4 1407.37 M1228.36 1391.98 Q1229.94 1389.26 1228.99 1386.6 Q1228.05 1383.92 1224.8 1382.04 Q1221.57 1380.18 1218.78 1380.71 Q1215.98 1381.2 1214.41 1383.93 Q1212.84 1386.66 1213.8 1389.35 Q1214.75 1392.01 1217.97 1393.87 Q1221.22 1395.75 1224 1395.24 Q1226.79 1394.71 1228.36 1391.98 Z" fill="#000000" fill-rule="evenodd" fill-opacity="1" /><path clip-path="url(#clip330)" d="M1416.67 1615.45 L1424.83 1601.32 L1428.24 1603.28 L1417.27 1622.29 L1413.86 1620.32 Q1412.81 1616.64 1411.09 1610.35 Q1409.36 1604.04 1408.79 1602.35 Q1407.73 1599.14 1406.66 1597.51 Q1405.59 1595.85 1404.13 1595 Q1401.74 1593.63 1399.27 1594.44 Q1396.8 1595.24 1395.25 1597.92 Q1394.15 1599.83 1393.59 1602.34 Q1393.03 1604.82 1392.99 1608 L1388.9 1605.64 Q1389.33 1602.63 1390.05 1600.22 Q1390.78 1597.8 1391.8 1596.04 Q1394.48 1591.39 1398.41 1589.96 Q1402.33 1588.54 1406.22 1590.78 Q1408.06 1591.85 1409.32 1593.51 Q1410.57 1595.14 1411.76 1598.26 Q1412.06 1599.1 1413.29 1603.39 Q1414.51 1607.68 1416.67 1615.45 Z" fill="#000000" fill-rule="evenodd" fill-opacity="1" /><path clip-path="url(#clip330)" d="M1410.89 1570.38 Q1409.08 1573.51 1411.25 1576.88 Q1413.42 1580.21 1419.59 1583.78 Q1425.75 1587.33 1429.74 1587.55 Q1433.72 1587.74 1435.52 1584.61 Q1437.34 1581.46 1435.18 1578.13 Q1433 1574.76 1426.85 1571.21 Q1420.67 1567.64 1416.69 1567.46 Q1412.7 1567.24 1410.89 1570.38 M1407.68 1568.53 Q1410.58 1563.5 1416.1 1563.16 Q1421.61 1562.78 1429.19 1567.16 Q1436.74 1571.52 1439.19 1576.49 Q1441.64 1581.43 1438.73 1586.46 Q1435.83 1591.49 1430.32 1591.87 Q1424.8 1592.21 1417.24 1587.85 Q1409.66 1583.47 1407.22 1578.53 Q1404.77 1573.56 1407.68 1568.53 Z" fill="#000000" fill-rule="evenodd" fill-opacity="1" /><path clip-path="url(#clip330)" d="M1446.84 1563.21 L1455 1549.08 L1458.4 1551.04 L1447.43 1570.05 L1444.02 1568.08 Q1442.97 1564.4 1441.25 1558.11 Q1439.53 1551.8 1438.95 1550.1 Q1437.89 1546.9 1436.83 1545.27 Q1435.75 1543.61 1434.29 1542.76 Q1431.91 1541.38 1429.43 1542.2 Q1426.97 1543 1425.41 1545.68 Q1424.32 1547.59 1423.75 1550.09 Q1423.2 1552.58 1423.15 1555.76 L1419.06 1553.4 Q1419.49 1550.39 1420.22 1547.97 Q1420.94 1545.56 1421.96 1543.79 Q1424.65 1539.14 1428.57 1537.72 Q1432.49 1536.3 1436.38 1538.54 Q1438.22 1539.61 1439.48 1541.27 Q1440.73 1542.9 1441.93 1546.02 Q1442.22 1546.86 1443.45 1551.15 Q1444.67 1555.44 1446.84 1563.21 Z" fill="#000000" fill-rule="evenodd" fill-opacity="1" /><path clip-path="url(#clip330)" d="M1461.92 1537.09 L1470.08 1522.95 L1473.48 1524.92 L1462.51 1543.93 L1459.1 1541.96 Q1458.05 1538.28 1456.33 1531.99 Q1454.61 1525.68 1454.03 1523.98 Q1452.97 1520.78 1451.91 1519.15 Q1450.84 1517.49 1449.37 1516.64 Q1446.99 1515.26 1444.51 1516.08 Q1442.05 1516.87 1440.5 1519.56 Q1439.4 1521.47 1438.83 1523.97 Q1438.28 1526.46 1438.23 1529.64 L1434.14 1527.28 Q1434.57 1524.27 1435.3 1521.85 Q1436.02 1519.44 1437.04 1517.67 Q1439.73 1513.02 1443.65 1511.6 Q1447.57 1510.18 1451.46 1512.42 Q1453.31 1513.49 1454.56 1515.15 Q1455.81 1516.78 1457.01 1519.9 Q1457.3 1520.74 1458.53 1525.03 Q1459.75 1529.31 1461.92 1537.09 Z" fill="#000000" fill-rule="evenodd" fill-opacity="1" /><path clip-path="url(#clip330)" d="M1464.12 1511.37 L1470.36 1500.56 L1473.65 1502.46 L1467.41 1513.26 L1464.12 1511.37 Z" fill="#000000" fill-rule="evenodd" fill-opacity="1" /><path clip-path="url(#clip330)" d="M1464.68 1477.21 Q1462.88 1480.33 1465.05 1483.7 Q1467.21 1487.03 1473.39 1490.6 Q1479.54 1494.15 1483.53 1494.37 Q1487.51 1494.56 1489.32 1491.43 Q1491.14 1488.28 1488.97 1484.95 Q1486.8 1481.58 1480.64 1478.03 Q1474.47 1474.47 1470.49 1474.28 Q1466.5 1474.06 1464.68 1477.21 M1461.47 1475.36 Q1464.38 1470.32 1469.9 1469.98 Q1475.4 1469.61 1482.98 1473.98 Q1490.54 1478.34 1492.99 1483.31 Q1495.43 1488.25 1492.53 1493.28 Q1489.62 1498.31 1484.11 1498.69 Q1478.6 1499.03 1471.04 1494.67 Q1463.46 1490.29 1461.02 1485.36 Q1458.57 1480.39 1461.47 1475.36 Z" fill="#000000" fill-rule="evenodd" fill-opacity="1" /><path clip-path="url(#clip330)" d="M1492.81 1458.62 Q1491.15 1461.51 1491.73 1464.06 Q1492.32 1466.6 1495.03 1468.16 Q1497.74 1469.72 1500.23 1468.97 Q1502.73 1468.2 1504.4 1465.31 Q1506.07 1462.42 1505.48 1459.87 Q1504.88 1457.3 1502.19 1455.75 Q1499.49 1454.19 1496.98 1454.96 Q1494.49 1455.71 1492.81 1458.62 M1488.75 1461.67 Q1486.6 1463.91 1483.98 1464.34 Q1481.36 1464.76 1478.79 1463.28 Q1475.2 1461.2 1474.59 1457.45 Q1473.99 1453.68 1476.56 1449.23 Q1479.14 1444.76 1482.69 1443.42 Q1486.25 1442.08 1489.83 1444.15 Q1492.4 1445.63 1493.34 1448.13 Q1494.29 1450.6 1493.44 1453.56 Q1495.81 1451.02 1498.73 1450.54 Q1501.67 1450.05 1504.53 1451.7 Q1508.88 1454.21 1509.67 1458.22 Q1510.47 1462.21 1507.61 1467.16 Q1504.75 1472.11 1500.88 1473.44 Q1497.03 1474.74 1492.68 1472.23 Q1489.81 1470.57 1488.78 1467.78 Q1487.74 1465 1488.75 1461.67 M1481.5 1459.47 Q1483.83 1460.81 1485.96 1460.12 Q1488.11 1459.41 1489.63 1456.78 Q1491.13 1454.17 1490.67 1451.96 Q1490.23 1449.72 1487.9 1448.38 Q1485.57 1447.04 1483.42 1447.77 Q1481.27 1448.48 1479.76 1451.09 Q1478.25 1453.71 1478.7 1455.93 Q1479.17 1458.12 1481.5 1459.47 Z" fill="#000000" fill-rule="evenodd" fill-opacity="1" /><path clip-path="url(#clip330)" d="M1502.84 1444.31 L1509.08 1433.5 L1512.37 1435.4 L1506.13 1446.21 L1502.84 1444.31 Z" fill="#000000" fill-rule="evenodd" fill-opacity="1" /><path clip-path="url(#clip330)" d="M1524.27 1429.1 L1532.43 1414.96 L1535.83 1416.93 L1524.86 1435.93 L1521.45 1433.97 Q1520.4 1430.28 1518.68 1424 Q1516.96 1417.68 1516.38 1415.99 Q1515.32 1412.78 1514.26 1411.15 Q1513.18 1409.49 1511.72 1408.65 Q1509.34 1407.27 1506.86 1408.09 Q1504.4 1408.88 1502.84 1411.57 Q1501.75 1413.47 1501.18 1415.98 Q1500.63 1418.47 1500.58 1421.65 L1496.49 1419.29 Q1496.92 1416.27 1497.65 1413.86 Q1498.37 1411.45 1499.39 1409.68 Q1502.08 1405.03 1506 1403.61 Q1509.92 1402.18 1513.81 1404.43 Q1515.65 1405.49 1516.91 1407.16 Q1518.16 1408.79 1519.36 1411.91 Q1519.65 1412.74 1520.88 1417.04 Q1522.1 1421.32 1524.27 1429.1 Z" fill="#000000" fill-rule="evenodd" fill-opacity="1" /><path clip-path="url(#clip330)" d="M1520.76 1382.06 L1530.84 1401.51 L1536.74 1391.29 L1520.76 1382.06 M1516.62 1381.09 L1519.56 1375.99 L1539.07 1387.26 L1541.53 1382.99 L1544.9 1384.93 L1542.43 1389.2 L1549.49 1393.27 L1547.16 1397.3 L1540.11 1393.23 L1532.31 1406.74 L1528.4 1404.48 L1516.62 1381.09 Z" fill="#000000" fill-rule="evenodd" fill-opacity="1" /><path clip-path="url(#clip330)" d="M1721.13 1614.87 L1729.29 1600.74 L1732.7 1602.7 L1721.73 1621.71 L1718.32 1619.74 Q1717.27 1616.06 1715.55 1609.77 Q1713.82 1603.46 1713.25 1601.76 Q1712.19 1598.56 1711.13 1596.93 Q1710.05 1595.27 1708.59 1594.42 Q1706.2 1593.04 1703.73 1593.86 Q1701.26 1594.66 1699.71 1597.34 Q1698.61 1599.25 1698.05 1601.75 Q1697.49 1604.24 1697.45 1607.42 L1693.36 1605.06 Q1693.79 1602.05 1694.51 1599.63 Q1695.24 1597.22 1696.26 1595.46 Q1698.94 1590.8 1702.87 1589.38 Q1706.79 1587.96 1710.68 1590.2 Q1712.52 1591.27 1713.78 1592.93 Q1715.03 1594.56 1716.22 1597.68 Q1716.52 1598.52 1717.75 1602.81 Q1718.97 1607.1 1721.13 1614.87 Z" fill="#000000" fill-rule="evenodd" fill-opacity="1" /><path clip-path="url(#clip330)" d="M1715.35 1569.8 Q1713.54 1572.93 1715.71 1576.3 Q1717.88 1579.63 1724.05 1583.2 Q1730.21 1586.75 1734.2 1586.97 Q1738.18 1587.15 1739.98 1584.03 Q1741.8 1580.88 1739.64 1577.55 Q1737.46 1574.18 1731.31 1570.63 Q1725.13 1567.06 1721.15 1566.87 Q1717.16 1566.66 1715.35 1569.8 M1712.14 1567.95 Q1715.04 1562.92 1720.56 1562.58 Q1726.07 1562.2 1733.65 1566.58 Q1741.2 1570.94 1743.65 1575.91 Q1746.1 1580.85 1743.19 1585.88 Q1740.29 1590.91 1734.78 1591.29 Q1729.26 1591.63 1721.7 1587.27 Q1714.13 1582.89 1711.68 1577.95 Q1709.23 1572.98 1712.14 1567.95 Z" fill="#000000" fill-rule="evenodd" fill-opacity="1" /><path clip-path="url(#clip330)" d="M1751.3 1562.63 L1759.46 1548.49 L1762.86 1550.46 L1751.89 1569.47 L1748.48 1567.5 Q1747.43 1563.82 1745.71 1557.53 Q1743.99 1551.22 1743.41 1549.52 Q1742.35 1546.32 1741.29 1544.69 Q1740.22 1543.02 1738.75 1542.18 Q1736.37 1540.8 1733.89 1541.62 Q1731.43 1542.41 1729.88 1545.1 Q1728.78 1547.01 1728.21 1549.51 Q1727.66 1552 1727.61 1555.18 L1723.52 1552.82 Q1723.95 1549.81 1724.68 1547.39 Q1725.4 1544.98 1726.42 1543.21 Q1729.11 1538.56 1733.03 1537.14 Q1736.95 1535.71 1740.84 1537.96 Q1742.68 1539.02 1743.94 1540.69 Q1745.19 1542.32 1746.39 1545.44 Q1746.68 1546.28 1747.91 1550.57 Q1749.13 1554.85 1751.3 1562.63 Z" fill="#000000" fill-rule="evenodd" fill-opacity="1" /><path clip-path="url(#clip330)" d="M1766.38 1536.51 L1774.54 1522.37 L1777.95 1524.34 L1766.97 1543.35 L1763.57 1541.38 Q1762.51 1537.69 1760.79 1531.41 Q1759.07 1525.1 1758.49 1523.4 Q1757.43 1520.2 1756.37 1518.57 Q1755.3 1516.9 1753.83 1516.06 Q1751.45 1514.68 1748.97 1515.5 Q1746.51 1516.29 1744.96 1518.98 Q1743.86 1520.88 1743.29 1523.39 Q1742.74 1525.88 1742.69 1529.06 L1738.6 1526.7 Q1739.03 1523.69 1739.76 1521.27 Q1740.48 1518.86 1741.5 1517.09 Q1744.19 1512.44 1748.11 1511.02 Q1752.03 1509.59 1755.92 1511.84 Q1757.77 1512.9 1759.02 1514.57 Q1760.27 1516.2 1761.47 1519.32 Q1761.76 1520.15 1762.99 1524.45 Q1764.21 1528.73 1766.38 1536.51 Z" fill="#000000" fill-rule="evenodd" fill-opacity="1" /><path clip-path="url(#clip330)" d="M1768.59 1510.78 L1774.82 1499.98 L1778.11 1501.88 L1771.87 1512.68 L1768.59 1510.78 Z" fill="#000000" fill-rule="evenodd" fill-opacity="1" /><path clip-path="url(#clip330)" d="M1769.14 1476.63 Q1767.34 1479.75 1769.51 1483.12 Q1771.67 1486.45 1777.85 1490.02 Q1784 1493.57 1787.99 1493.79 Q1791.97 1493.98 1793.78 1490.85 Q1795.6 1487.7 1793.43 1484.37 Q1791.26 1481 1785.11 1477.45 Q1778.93 1473.88 1774.95 1473.7 Q1770.96 1473.48 1769.14 1476.63 M1765.93 1474.77 Q1768.84 1469.74 1774.36 1469.4 Q1779.87 1469.02 1787.44 1473.4 Q1795 1477.76 1797.45 1482.73 Q1799.89 1487.67 1796.99 1492.7 Q1794.08 1497.73 1788.57 1498.11 Q1783.06 1498.45 1775.5 1494.09 Q1767.92 1489.71 1765.48 1484.77 Q1763.03 1479.81 1765.93 1474.77 Z" fill="#000000" fill-rule="evenodd" fill-opacity="1" /><path clip-path="url(#clip330)" d="M1797.27 1458.04 Q1795.61 1460.93 1796.19 1463.48 Q1796.78 1466.02 1799.49 1467.58 Q1802.2 1469.14 1804.69 1468.39 Q1807.19 1467.62 1808.86 1464.73 Q1810.53 1461.84 1809.94 1459.29 Q1809.34 1456.72 1806.66 1455.17 Q1803.95 1453.61 1801.44 1454.38 Q1798.95 1455.13 1797.27 1458.04 M1793.21 1461.09 Q1791.07 1463.33 1788.44 1463.76 Q1785.82 1464.18 1783.25 1462.69 Q1779.66 1460.62 1779.05 1456.87 Q1778.45 1453.1 1781.02 1448.65 Q1783.6 1444.18 1787.15 1442.84 Q1790.71 1441.5 1794.29 1443.57 Q1796.86 1445.05 1797.8 1447.54 Q1798.75 1450.02 1797.9 1452.97 Q1800.27 1450.44 1803.19 1449.96 Q1806.13 1449.47 1808.99 1451.12 Q1813.34 1453.63 1814.13 1457.64 Q1814.93 1461.63 1812.07 1466.58 Q1809.21 1471.53 1805.34 1472.86 Q1801.49 1474.16 1797.14 1471.65 Q1794.27 1469.99 1793.24 1467.2 Q1792.2 1464.41 1793.21 1461.09 M1785.96 1458.88 Q1788.29 1460.23 1790.42 1459.54 Q1792.57 1458.83 1794.09 1456.2 Q1795.59 1453.59 1795.13 1451.38 Q1794.69 1449.14 1792.36 1447.8 Q1790.04 1446.46 1787.88 1447.19 Q1785.73 1447.9 1784.22 1450.5 Q1782.71 1453.13 1783.17 1455.35 Q1783.63 1457.54 1785.96 1458.88 Z" fill="#000000" fill-rule="evenodd" fill-opacity="1" /><path clip-path="url(#clip330)" d="M1807.3 1443.73 L1813.54 1432.92 L1816.83 1434.82 L1810.59 1445.63 L1807.3 1443.73 Z" fill="#000000" fill-rule="evenodd" fill-opacity="1" /><path clip-path="url(#clip330)" d="M1828.73 1428.51 L1836.89 1414.38 L1840.29 1416.35 L1829.32 1435.35 L1825.91 1433.39 Q1824.86 1429.7 1823.14 1423.42 Q1821.42 1417.1 1820.84 1415.41 Q1819.78 1412.2 1818.72 1410.57 Q1817.65 1408.91 1816.18 1408.07 Q1813.8 1406.69 1811.32 1407.51 Q1808.86 1408.3 1807.31 1410.99 Q1806.21 1412.89 1805.64 1415.4 Q1805.09 1417.89 1805.04 1421.07 L1800.95 1418.71 Q1801.38 1415.69 1802.11 1413.28 Q1802.83 1410.86 1803.85 1409.1 Q1806.54 1404.45 1810.46 1403.03 Q1814.38 1401.6 1818.27 1403.85 Q1820.11 1404.91 1821.37 1406.57 Q1822.62 1408.2 1823.82 1411.33 Q1824.11 1412.16 1825.34 1416.46 Q1826.56 1420.74 1828.73 1428.51 Z" fill="#000000" fill-rule="evenodd" fill-opacity="1" /><path clip-path="url(#clip330)" d="M1844.65 1407.37 L1840.96 1405.24 Q1842.56 1404.13 1843.85 1402.79 Q1845.13 1401.45 1846 1399.94 Q1848.31 1395.93 1846.84 1392.28 Q1845.36 1388.59 1840.04 1385.12 Q1841.1 1387.28 1840.99 1389.59 Q1840.88 1391.91 1839.63 1394.07 Q1837.04 1398.56 1832.81 1399.63 Q1828.58 1400.66 1823.87 1397.94 Q1819.26 1395.28 1818.05 1390.94 Q1816.84 1386.61 1819.45 1382.08 Q1822.45 1376.89 1828.01 1376.46 Q1833.57 1376.01 1841.15 1380.38 Q1848.22 1384.47 1850.51 1390.28 Q1852.79 1396.06 1849.51 1401.73 Q1848.63 1403.25 1847.43 1404.64 Q1846.22 1406.03 1844.65 1407.37 M1836.61 1391.98 Q1838.19 1389.26 1837.24 1386.6 Q1836.3 1383.92 1833.05 1382.04 Q1829.82 1380.18 1827.03 1380.71 Q1824.23 1381.2 1822.66 1383.93 Q1821.09 1386.66 1822.04 1389.35 Q1822.99 1392.01 1826.22 1393.87 Q1829.47 1395.75 1832.25 1395.24 Q1835.04 1394.71 1836.61 1391.98 Z" fill="#000000" fill-rule="evenodd" fill-opacity="1" /><path clip-path="url(#clip330)" d="M2025.78 1613.97 L2033.94 1599.83 L2037.35 1601.8 L2026.38 1620.81 L2022.97 1618.84 Q2021.91 1615.16 2020.2 1608.87 Q2018.47 1602.56 2017.9 1600.86 Q2016.83 1597.66 2015.77 1596.03 Q2014.7 1594.36 2013.24 1593.52 Q2010.85 1592.14 2008.37 1592.96 Q2005.91 1593.75 2004.36 1596.44 Q2003.26 1598.34 2002.69 1600.85 Q2002.14 1603.34 2002.09 1606.52 L1998.01 1604.16 Q1998.43 1601.15 1999.16 1598.73 Q1999.89 1596.32 2000.9 1594.55 Q2003.59 1589.9 2007.51 1588.48 Q2011.44 1587.05 2015.32 1589.3 Q2017.17 1590.36 2018.43 1592.03 Q2019.68 1593.66 2020.87 1596.78 Q2021.16 1597.62 2022.4 1601.91 Q2023.61 1606.19 2025.78 1613.97 Z" fill="#000000" fill-rule="evenodd" fill-opacity="1" /><path clip-path="url(#clip330)" d="M2019.99 1568.9 Q2018.19 1572.03 2020.36 1575.39 Q2022.52 1578.73 2028.7 1582.29 Q2034.85 1585.85 2038.84 1586.07 Q2042.82 1586.25 2044.63 1583.13 Q2046.45 1579.98 2044.28 1576.64 Q2042.11 1573.28 2035.95 1569.72 Q2029.78 1566.16 2025.8 1565.97 Q2021.81 1565.75 2019.99 1568.9 M2016.78 1567.05 Q2019.69 1562.02 2025.21 1561.67 Q2030.72 1561.3 2038.29 1565.67 Q2045.85 1570.04 2048.3 1575.01 Q2050.74 1579.95 2047.84 1584.98 Q2044.93 1590.01 2039.42 1590.38 Q2033.91 1590.73 2026.35 1586.36 Q2018.77 1581.99 2016.33 1577.05 Q2013.88 1572.08 2016.78 1567.05 Z" fill="#000000" fill-rule="evenodd" fill-opacity="1" /><path clip-path="url(#clip330)" d="M2055.94 1561.73 L2064.1 1547.59 L2067.51 1549.56 L2056.54 1568.56 L2053.13 1566.6 Q2052.08 1562.91 2050.36 1556.63 Q2048.63 1550.31 2048.06 1548.62 Q2047 1545.41 2045.93 1543.78 Q2044.86 1542.12 2043.4 1541.28 Q2041.01 1539.9 2038.54 1540.72 Q2036.07 1541.51 2034.52 1544.2 Q2033.42 1546.1 2032.86 1548.61 Q2032.3 1551.1 2032.26 1554.28 L2028.17 1551.92 Q2028.6 1548.9 2029.32 1546.49 Q2030.05 1544.08 2031.07 1542.31 Q2033.75 1537.66 2037.67 1536.24 Q2041.6 1534.81 2045.49 1537.06 Q2047.33 1538.12 2048.59 1539.79 Q2049.84 1541.42 2051.03 1544.54 Q2051.32 1545.37 2052.56 1549.67 Q2053.77 1553.95 2055.94 1561.73 Z" fill="#000000" fill-rule="evenodd" fill-opacity="1" /><path clip-path="url(#clip330)" d="M2071.02 1535.6 L2079.18 1521.47 L2082.59 1523.44 L2071.62 1542.44 L2068.21 1540.48 Q2067.16 1536.79 2065.44 1530.51 Q2063.71 1524.19 2063.14 1522.5 Q2062.08 1519.29 2061.01 1517.66 Q2059.94 1516 2058.48 1515.16 Q2056.09 1513.78 2053.62 1514.6 Q2051.15 1515.39 2049.6 1518.08 Q2048.5 1519.98 2047.94 1522.49 Q2047.38 1524.98 2047.34 1528.16 L2043.25 1525.8 Q2043.68 1522.78 2044.4 1520.37 Q2045.13 1517.95 2046.15 1516.19 Q2048.83 1511.54 2052.76 1510.12 Q2056.68 1508.69 2060.57 1510.94 Q2062.41 1512 2063.67 1513.66 Q2064.92 1515.29 2066.11 1518.42 Q2066.4 1519.25 2067.64 1523.55 Q2068.86 1527.83 2071.02 1535.6 Z" fill="#000000" fill-rule="evenodd" fill-opacity="1" /><path clip-path="url(#clip330)" d="M2073.23 1509.88 L2079.47 1499.08 L2082.76 1500.98 L2076.52 1511.78 L2073.23 1509.88 Z" fill="#000000" fill-rule="evenodd" fill-opacity="1" /><path clip-path="url(#clip330)" d="M2073.79 1475.72 Q2071.98 1478.85 2074.16 1482.22 Q2076.32 1485.55 2082.49 1489.12 Q2088.65 1492.67 2092.64 1492.89 Q2096.62 1493.08 2098.43 1489.95 Q2100.24 1486.8 2098.08 1483.47 Q2095.91 1480.1 2089.75 1476.55 Q2083.58 1472.98 2079.59 1472.79 Q2075.61 1472.58 2073.79 1475.72 M2070.58 1473.87 Q2073.49 1468.84 2079 1468.5 Q2084.51 1468.12 2092.09 1472.5 Q2099.65 1476.86 2102.1 1481.83 Q2104.54 1486.77 2101.63 1491.8 Q2098.73 1496.83 2093.22 1497.21 Q2087.7 1497.55 2080.14 1493.19 Q2072.57 1488.81 2070.13 1483.87 Q2067.68 1478.9 2070.58 1473.87 Z" fill="#000000" fill-rule="evenodd" fill-opacity="1" /><path clip-path="url(#clip330)" d="M2110.58 1473.52 L2106.89 1471.39 Q2108.49 1470.29 2109.78 1468.94 Q2111.06 1467.6 2111.93 1466.1 Q2114.24 1462.09 2112.77 1458.43 Q2111.29 1454.74 2105.97 1451.27 Q2107.03 1453.43 2106.92 1455.75 Q2106.81 1458.06 2105.56 1460.23 Q2102.97 1464.72 2098.75 1465.78 Q2094.51 1466.81 2089.8 1464.09 Q2085.19 1461.43 2083.98 1457.1 Q2082.77 1452.76 2085.38 1448.23 Q2088.38 1443.04 2093.94 1442.62 Q2099.5 1442.16 2107.08 1446.54 Q2114.15 1450.62 2116.44 1456.43 Q2118.72 1462.21 2115.44 1467.88 Q2114.56 1469.41 2113.36 1470.8 Q2112.15 1472.19 2110.58 1473.52 M2102.54 1458.14 Q2104.12 1455.41 2103.17 1452.75 Q2102.23 1450.07 2098.98 1448.2 Q2095.75 1446.33 2092.96 1446.86 Q2090.17 1447.36 2088.59 1450.08 Q2087.02 1452.81 2087.98 1455.5 Q2088.93 1458.16 2092.15 1460.03 Q2095.4 1461.9 2098.18 1461.39 Q2100.97 1460.87 2102.54 1458.14 Z" fill="#000000" fill-rule="evenodd" fill-opacity="1" /><path clip-path="url(#clip330)" d="M2111.95 1442.83 L2118.18 1432.02 L2121.47 1433.92 L2115.23 1444.72 L2111.95 1442.83 Z" fill="#000000" fill-rule="evenodd" fill-opacity="1" /><path clip-path="url(#clip330)" d="M2112.5 1408.67 Q2110.7 1411.79 2112.87 1415.16 Q2115.03 1418.49 2121.21 1422.06 Q2127.36 1425.61 2131.35 1425.83 Q2135.33 1426.02 2137.14 1422.89 Q2138.96 1419.74 2136.79 1416.41 Q2134.62 1413.04 2128.47 1409.49 Q2122.29 1405.93 2118.31 1405.74 Q2114.32 1405.52 2112.5 1408.67 M2109.3 1406.82 Q2112.2 1401.78 2117.72 1401.44 Q2123.23 1401.07 2130.8 1405.44 Q2138.36 1409.8 2140.81 1414.77 Q2143.25 1419.71 2140.35 1424.74 Q2137.44 1429.77 2131.93 1430.15 Q2126.42 1430.49 2118.86 1426.13 Q2111.28 1421.75 2108.84 1416.82 Q2106.39 1411.85 2109.3 1406.82 Z" fill="#000000" fill-rule="evenodd" fill-opacity="1" /><path clip-path="url(#clip330)" d="M2146.84 1404.28 L2150.66 1397.66 L2127.83 1384.48 L2125.12 1392.51 L2121.43 1390.38 L2124.12 1382.39 L2126.46 1378.34 L2152.98 1393.65 L2156.8 1387.04 L2160.21 1389 L2150.25 1406.25 L2146.84 1404.28 Z" fill="#000000" fill-rule="evenodd" fill-opacity="1" /><polyline clip-path="url(#clip332)" style="stroke:#000000; stroke-linecap:butt; stroke-linejoin:round; stroke-width:2; stroke-opacity:0.1; fill:none" points="
  214.353,1159.69 2352.76,1159.69 
  "/>
<polyline clip-path="url(#clip332)" style="stroke:#000000; stroke-linecap:butt; stroke-linejoin:round; stroke-width:2; stroke-opacity:0.1; fill:none" points="
  214.353,956.898 2352.76,956.898 
  "/>
<polyline clip-path="url(#clip332)" style="stroke:#000000; stroke-linecap:butt; stroke-linejoin:round; stroke-width:2; stroke-opacity:0.1; fill:none" points="
  214.353,754.102 2352.76,754.102 
  "/>
<polyline clip-path="url(#clip332)" style="stroke:#000000; stroke-linecap:butt; stroke-linejoin:round; stroke-width:2; stroke-opacity:0.1; fill:none" points="
  214.353,551.306 2352.76,551.306 
  "/>
<polyline clip-path="url(#clip332)" style="stroke:#000000; stroke-linecap:butt; stroke-linejoin:round; stroke-width:2; stroke-opacity:0.1; fill:none" points="
  214.353,348.51 2352.76,348.51 
  "/>
<polyline clip-path="url(#clip332)" style="stroke:#000000; stroke-linecap:butt; stroke-linejoin:round; stroke-width:2; stroke-opacity:0.1; fill:none" points="
  214.353,145.714 2352.76,145.714 
  "/>
<polyline clip-path="url(#clip330)" style="stroke:#000000; stroke-linecap:butt; stroke-linejoin:round; stroke-width:4; stroke-opacity:1; fill:none" points="
  214.353,1348.2 214.353,47.2441 
  "/>
<polyline clip-path="url(#clip330)" style="stroke:#000000; stroke-linecap:butt; stroke-linejoin:round; stroke-width:4; stroke-opacity:1; fill:none" points="
  214.353,1159.69 233.25,1159.69 
  "/>
<polyline clip-path="url(#clip330)" style="stroke:#000000; stroke-linecap:butt; stroke-linejoin:round; stroke-width:4; stroke-opacity:1; fill:none" points="
  214.353,956.898 233.25,956.898 
  "/>
<polyline clip-path="url(#clip330)" style="stroke:#000000; stroke-linecap:butt; stroke-linejoin:round; stroke-width:4; stroke-opacity:1; fill:none" points="
  214.353,754.102 233.25,754.102 
  "/>
<polyline clip-path="url(#clip330)" style="stroke:#000000; stroke-linecap:butt; stroke-linejoin:round; stroke-width:4; stroke-opacity:1; fill:none" points="
  214.353,551.306 233.25,551.306 
  "/>
<polyline clip-path="url(#clip330)" style="stroke:#000000; stroke-linecap:butt; stroke-linejoin:round; stroke-width:4; stroke-opacity:1; fill:none" points="
  214.353,348.51 233.25,348.51 
  "/>
<polyline clip-path="url(#clip330)" style="stroke:#000000; stroke-linecap:butt; stroke-linejoin:round; stroke-width:4; stroke-opacity:1; fill:none" points="
  214.353,145.714 233.25,145.714 
  "/>
<path clip-path="url(#clip330)" d="M51.6634 1173.04 L59.3023 1173.04 L59.3023 1146.67 L50.9921 1148.34 L50.9921 1144.08 L59.256 1142.41 L63.9319 1142.41 L63.9319 1173.04 L71.5707 1173.04 L71.5707 1176.97 L51.6634 1176.97 L51.6634 1173.04 Z" fill="#000000" fill-rule="evenodd" fill-opacity="1" /><path clip-path="url(#clip330)" d="M81.8253 1173.04 L89.4641 1173.04 L89.4641 1146.67 L81.154 1148.34 L81.154 1144.08 L89.4178 1142.41 L94.0937 1142.41 L94.0937 1173.04 L101.733 1173.04 L101.733 1176.97 L81.8253 1176.97 L81.8253 1173.04 Z" fill="#000000" fill-rule="evenodd" fill-opacity="1" /><path clip-path="url(#clip330)" d="M121.177 1145.49 Q117.566 1145.49 115.737 1149.06 Q113.932 1152.6 113.932 1159.73 Q113.932 1166.83 115.737 1170.4 Q117.566 1173.94 121.177 1173.94 Q124.811 1173.94 126.617 1170.4 Q128.445 1166.83 128.445 1159.73 Q128.445 1152.6 126.617 1149.06 Q124.811 1145.49 121.177 1145.49 M121.177 1141.79 Q126.987 1141.79 130.043 1146.4 Q133.121 1150.98 133.121 1159.73 Q133.121 1168.46 130.043 1173.06 Q126.987 1177.64 121.177 1177.64 Q115.367 1177.64 112.288 1173.06 Q109.233 1168.46 109.233 1159.73 Q109.233 1150.98 112.288 1146.4 Q115.367 1141.79 121.177 1141.79 Z" fill="#000000" fill-rule="evenodd" fill-opacity="1" /><path clip-path="url(#clip330)" d="M141.339 1171.09 L146.223 1171.09 L146.223 1176.97 L141.339 1176.97 L141.339 1171.09 Z" fill="#000000" fill-rule="evenodd" fill-opacity="1" /><path clip-path="url(#clip330)" d="M166.408 1145.49 Q162.797 1145.49 160.968 1149.06 Q159.163 1152.6 159.163 1159.73 Q159.163 1166.83 160.968 1170.4 Q162.797 1173.94 166.408 1173.94 Q170.042 1173.94 171.848 1170.4 Q173.677 1166.83 173.677 1159.73 Q173.677 1152.6 171.848 1149.06 Q170.042 1145.49 166.408 1145.49 M166.408 1141.79 Q172.218 1141.79 175.274 1146.4 Q178.353 1150.98 178.353 1159.73 Q178.353 1168.46 175.274 1173.06 Q172.218 1177.64 166.408 1177.64 Q160.598 1177.64 157.519 1173.06 Q154.464 1168.46 154.464 1159.73 Q154.464 1150.98 157.519 1146.4 Q160.598 1141.79 166.408 1141.79 Z" fill="#000000" fill-rule="evenodd" fill-opacity="1" /><path clip-path="url(#clip330)" d="M52.6588 970.243 L60.2976 970.243 L60.2976 943.877 L51.9875 945.544 L51.9875 941.284 L60.2513 939.618 L64.9272 939.618 L64.9272 970.243 L72.5661 970.243 L72.5661 974.178 L52.6588 974.178 L52.6588 970.243 Z" fill="#000000" fill-rule="evenodd" fill-opacity="1" /><path clip-path="url(#clip330)" d="M82.8207 970.243 L90.4595 970.243 L90.4595 943.877 L82.1494 945.544 L82.1494 941.284 L90.4132 939.618 L95.0891 939.618 L95.0891 970.243 L102.728 970.243 L102.728 974.178 L82.8207 974.178 L82.8207 970.243 Z" fill="#000000" fill-rule="evenodd" fill-opacity="1" /><path clip-path="url(#clip330)" d="M116.2 970.243 L132.519 970.243 L132.519 974.178 L110.575 974.178 L110.575 970.243 Q113.237 967.488 117.82 962.858 Q122.427 958.206 123.607 956.863 Q125.853 954.34 126.732 952.604 Q127.635 950.845 127.635 949.155 Q127.635 946.4 125.691 944.664 Q123.77 942.928 120.668 942.928 Q118.469 942.928 116.015 943.692 Q113.584 944.456 110.807 946.007 L110.807 941.284 Q113.631 940.15 116.084 939.571 Q118.538 938.993 120.575 938.993 Q125.945 938.993 129.14 941.678 Q132.334 944.363 132.334 948.854 Q132.334 950.983 131.524 952.905 Q130.737 954.803 128.631 957.395 Q128.052 958.067 124.95 961.284 Q121.848 964.479 116.2 970.243 Z" fill="#000000" fill-rule="evenodd" fill-opacity="1" /><path clip-path="url(#clip330)" d="M142.334 968.298 L147.218 968.298 L147.218 974.178 L142.334 974.178 L142.334 968.298 Z" fill="#000000" fill-rule="evenodd" fill-opacity="1" /><path clip-path="url(#clip330)" d="M157.45 939.618 L175.806 939.618 L175.806 943.553 L161.732 943.553 L161.732 952.025 Q162.751 951.678 163.769 951.516 Q164.788 951.331 165.806 951.331 Q171.593 951.331 174.973 954.502 Q178.353 957.673 178.353 963.09 Q178.353 968.669 174.88 971.77 Q171.408 974.849 165.089 974.849 Q162.913 974.849 160.644 974.479 Q158.399 974.108 155.992 973.368 L155.992 968.669 Q158.075 969.803 160.297 970.358 Q162.519 970.914 164.996 970.914 Q169.001 970.914 171.339 968.807 Q173.677 966.701 173.677 963.09 Q173.677 959.479 171.339 957.372 Q169.001 955.266 164.996 955.266 Q163.121 955.266 161.246 955.682 Q159.394 956.099 157.45 956.979 L157.45 939.618 Z" fill="#000000" fill-rule="evenodd" fill-opacity="1" /><path clip-path="url(#clip330)" d="M51.6634 767.447 L59.3023 767.447 L59.3023 741.081 L50.9921 742.748 L50.9921 738.488 L59.256 736.822 L63.9319 736.822 L63.9319 767.447 L71.5707 767.447 L71.5707 771.382 L51.6634 771.382 L51.6634 767.447 Z" fill="#000000" fill-rule="evenodd" fill-opacity="1" /><path clip-path="url(#clip330)" d="M81.8253 767.447 L89.4641 767.447 L89.4641 741.081 L81.154 742.748 L81.154 738.488 L89.4178 736.822 L94.0937 736.822 L94.0937 767.447 L101.733 767.447 L101.733 771.382 L81.8253 771.382 L81.8253 767.447 Z" fill="#000000" fill-rule="evenodd" fill-opacity="1" /><path clip-path="url(#clip330)" d="M111.223 736.822 L129.58 736.822 L129.58 740.757 L115.506 740.757 L115.506 749.229 Q116.524 748.882 117.543 748.72 Q118.561 748.535 119.58 748.535 Q125.367 748.535 128.746 751.706 Q132.126 754.877 132.126 760.294 Q132.126 765.873 128.654 768.974 Q125.182 772.053 118.862 772.053 Q116.686 772.053 114.418 771.683 Q112.172 771.312 109.765 770.572 L109.765 765.873 Q111.848 767.007 114.07 767.562 Q116.293 768.118 118.77 768.118 Q122.774 768.118 125.112 766.011 Q127.45 763.905 127.45 760.294 Q127.45 756.683 125.112 754.576 Q122.774 752.47 118.77 752.47 Q116.895 752.47 115.02 752.887 Q113.168 753.303 111.223 754.183 L111.223 736.822 Z" fill="#000000" fill-rule="evenodd" fill-opacity="1" /><path clip-path="url(#clip330)" d="M141.339 765.502 L146.223 765.502 L146.223 771.382 L141.339 771.382 L141.339 765.502 Z" fill="#000000" fill-rule="evenodd" fill-opacity="1" /><path clip-path="url(#clip330)" d="M166.408 739.9 Q162.797 739.9 160.968 743.465 Q159.163 747.007 159.163 754.136 Q159.163 761.243 160.968 764.808 Q162.797 768.349 166.408 768.349 Q170.042 768.349 171.848 764.808 Q173.677 761.243 173.677 754.136 Q173.677 747.007 171.848 743.465 Q170.042 739.9 166.408 739.9 M166.408 736.197 Q172.218 736.197 175.274 740.803 Q178.353 745.387 178.353 754.136 Q178.353 762.863 175.274 767.47 Q172.218 772.053 166.408 772.053 Q160.598 772.053 157.519 767.47 Q154.464 762.863 154.464 754.136 Q154.464 745.387 157.519 740.803 Q160.598 736.197 166.408 736.197 Z" fill="#000000" fill-rule="evenodd" fill-opacity="1" /><path clip-path="url(#clip330)" d="M52.6588 564.651 L60.2976 564.651 L60.2976 538.285 L51.9875 539.952 L51.9875 535.692 L60.2513 534.026 L64.9272 534.026 L64.9272 564.651 L72.5661 564.651 L72.5661 568.586 L52.6588 568.586 L52.6588 564.651 Z" fill="#000000" fill-rule="evenodd" fill-opacity="1" /><path clip-path="url(#clip330)" d="M82.8207 564.651 L90.4595 564.651 L90.4595 538.285 L82.1494 539.952 L82.1494 535.692 L90.4132 534.026 L95.0891 534.026 L95.0891 564.651 L102.728 564.651 L102.728 568.586 L82.8207 568.586 L82.8207 564.651 Z" fill="#000000" fill-rule="evenodd" fill-opacity="1" /><path clip-path="url(#clip330)" d="M110.992 534.026 L133.214 534.026 L133.214 536.017 L120.668 568.586 L115.783 568.586 L127.589 537.961 L110.992 537.961 L110.992 534.026 Z" fill="#000000" fill-rule="evenodd" fill-opacity="1" /><path clip-path="url(#clip330)" d="M142.334 562.706 L147.218 562.706 L147.218 568.586 L142.334 568.586 L142.334 562.706 Z" fill="#000000" fill-rule="evenodd" fill-opacity="1" /><path clip-path="url(#clip330)" d="M157.45 534.026 L175.806 534.026 L175.806 537.961 L161.732 537.961 L161.732 546.433 Q162.751 546.086 163.769 545.924 Q164.788 545.739 165.806 545.739 Q171.593 545.739 174.973 548.91 Q178.353 552.081 178.353 557.498 Q178.353 563.077 174.88 566.178 Q171.408 569.257 165.089 569.257 Q162.913 569.257 160.644 568.887 Q158.399 568.516 155.992 567.776 L155.992 563.077 Q158.075 564.211 160.297 564.766 Q162.519 565.322 164.996 565.322 Q169.001 565.322 171.339 563.215 Q173.677 561.109 173.677 557.498 Q173.677 553.887 171.339 551.78 Q169.001 549.674 164.996 549.674 Q163.121 549.674 161.246 550.091 Q159.394 550.507 157.45 551.387 L157.45 534.026 Z" fill="#000000" fill-rule="evenodd" fill-opacity="1" /><path clip-path="url(#clip330)" d="M51.6634 361.855 L59.3023 361.855 L59.3023 335.489 L50.9921 337.156 L50.9921 332.897 L59.256 331.23 L63.9319 331.23 L63.9319 361.855 L71.5707 361.855 L71.5707 365.79 L51.6634 365.79 L51.6634 361.855 Z" fill="#000000" fill-rule="evenodd" fill-opacity="1" /><path clip-path="url(#clip330)" d="M85.0429 361.855 L101.362 361.855 L101.362 365.79 L79.4179 365.79 L79.4179 361.855 Q82.0799 359.1 86.6632 354.47 Q91.2697 349.818 92.4502 348.475 Q94.6956 345.952 95.5752 344.216 Q96.478 342.457 96.478 340.767 Q96.478 338.012 94.5336 336.276 Q92.6123 334.54 89.5104 334.54 Q87.3114 334.54 84.8577 335.304 Q82.4271 336.068 79.6494 337.619 L79.6494 332.897 Q82.4734 331.762 84.9271 331.184 Q87.3808 330.605 89.4178 330.605 Q94.7882 330.605 97.9826 333.29 Q101.177 335.975 101.177 340.466 Q101.177 342.596 100.367 344.517 Q99.5798 346.415 97.4734 349.008 Q96.8947 349.679 93.7928 352.896 Q90.691 356.091 85.0429 361.855 Z" fill="#000000" fill-rule="evenodd" fill-opacity="1" /><path clip-path="url(#clip330)" d="M121.177 334.309 Q117.566 334.309 115.737 337.873 Q113.932 341.415 113.932 348.545 Q113.932 355.651 115.737 359.216 Q117.566 362.757 121.177 362.757 Q124.811 362.757 126.617 359.216 Q128.445 355.651 128.445 348.545 Q128.445 341.415 126.617 337.873 Q124.811 334.309 121.177 334.309 M121.177 330.605 Q126.987 330.605 130.043 335.211 Q133.121 339.795 133.121 348.545 Q133.121 357.271 130.043 361.878 Q126.987 366.461 121.177 366.461 Q115.367 366.461 112.288 361.878 Q109.233 357.271 109.233 348.545 Q109.233 339.795 112.288 335.211 Q115.367 330.605 121.177 330.605 Z" fill="#000000" fill-rule="evenodd" fill-opacity="1" /><path clip-path="url(#clip330)" d="M141.339 359.91 L146.223 359.91 L146.223 365.79 L141.339 365.79 L141.339 359.91 Z" fill="#000000" fill-rule="evenodd" fill-opacity="1" /><path clip-path="url(#clip330)" d="M166.408 334.309 Q162.797 334.309 160.968 337.873 Q159.163 341.415 159.163 348.545 Q159.163 355.651 160.968 359.216 Q162.797 362.757 166.408 362.757 Q170.042 362.757 171.848 359.216 Q173.677 355.651 173.677 348.545 Q173.677 341.415 171.848 337.873 Q170.042 334.309 166.408 334.309 M166.408 330.605 Q172.218 330.605 175.274 335.211 Q178.353 339.795 178.353 348.545 Q178.353 357.271 175.274 361.878 Q172.218 366.461 166.408 366.461 Q160.598 366.461 157.519 361.878 Q154.464 357.271 154.464 348.545 Q154.464 339.795 157.519 335.211 Q160.598 330.605 166.408 330.605 Z" fill="#000000" fill-rule="evenodd" fill-opacity="1" /><path clip-path="url(#clip330)" d="M52.6588 159.059 L60.2976 159.059 L60.2976 132.693 L51.9875 134.36 L51.9875 130.101 L60.2513 128.434 L64.9272 128.434 L64.9272 159.059 L72.5661 159.059 L72.5661 162.994 L52.6588 162.994 L52.6588 159.059 Z" fill="#000000" fill-rule="evenodd" fill-opacity="1" /><path clip-path="url(#clip330)" d="M86.0382 159.059 L102.358 159.059 L102.358 162.994 L80.4133 162.994 L80.4133 159.059 Q83.0753 156.304 87.6586 151.674 Q92.2651 147.022 93.4456 145.679 Q95.691 143.156 96.5706 141.42 Q97.4734 139.661 97.4734 137.971 Q97.4734 135.216 95.5289 133.48 Q93.6076 131.744 90.5058 131.744 Q88.3067 131.744 85.8531 132.508 Q83.4225 133.272 80.6447 134.823 L80.6447 130.101 Q83.4688 128.966 85.9225 128.388 Q88.3762 127.809 90.4132 127.809 Q95.7836 127.809 98.978 130.494 Q102.172 133.179 102.172 137.67 Q102.172 139.8 101.362 141.721 Q100.575 143.619 98.4687 146.212 Q97.89 146.883 94.7882 150.1 Q91.6864 153.295 86.0382 159.059 Z" fill="#000000" fill-rule="evenodd" fill-opacity="1" /><path clip-path="url(#clip330)" d="M116.2 159.059 L132.519 159.059 L132.519 162.994 L110.575 162.994 L110.575 159.059 Q113.237 156.304 117.82 151.674 Q122.427 147.022 123.607 145.679 Q125.853 143.156 126.732 141.42 Q127.635 139.661 127.635 137.971 Q127.635 135.216 125.691 133.48 Q123.77 131.744 120.668 131.744 Q118.469 131.744 116.015 132.508 Q113.584 133.272 110.807 134.823 L110.807 130.101 Q113.631 128.966 116.084 128.388 Q118.538 127.809 120.575 127.809 Q125.945 127.809 129.14 130.494 Q132.334 133.179 132.334 137.67 Q132.334 139.8 131.524 141.721 Q130.737 143.619 128.631 146.212 Q128.052 146.883 124.95 150.1 Q121.848 153.295 116.2 159.059 Z" fill="#000000" fill-rule="evenodd" fill-opacity="1" /><path clip-path="url(#clip330)" d="M142.334 157.114 L147.218 157.114 L147.218 162.994 L142.334 162.994 L142.334 157.114 Z" fill="#000000" fill-rule="evenodd" fill-opacity="1" /><path clip-path="url(#clip330)" d="M157.45 128.434 L175.806 128.434 L175.806 132.369 L161.732 132.369 L161.732 140.841 Q162.751 140.494 163.769 140.332 Q164.788 140.147 165.806 140.147 Q171.593 140.147 174.973 143.318 Q178.353 146.489 178.353 151.906 Q178.353 157.485 174.88 160.586 Q171.408 163.665 165.089 163.665 Q162.913 163.665 160.644 163.295 Q158.399 162.924 155.992 162.184 L155.992 157.485 Q158.075 158.619 160.297 159.174 Q162.519 159.73 164.996 159.73 Q169.001 159.73 171.339 157.624 Q173.677 155.517 173.677 151.906 Q173.677 148.295 171.339 146.188 Q169.001 144.082 164.996 144.082 Q163.121 144.082 161.246 144.499 Q159.394 144.915 157.45 145.795 L157.45 128.434 Z" fill="#000000" fill-rule="evenodd" fill-opacity="1" /><path clip-path="url(#clip332)" d="
M320.492 524.537 L320.492 499.39 L274.873 499.39 L274.873 419.894 L320.492 419.894 L320.492 278.748 L320.492 419.894 L366.111 419.894 L366.111 499.39 L320.492 499.39 
  L320.492 524.537  Z
  " fill="#ff0000" fill-rule="evenodd" fill-opacity="1"/>
<polyline clip-path="url(#clip332)" style="stroke:#ff0000; stroke-linecap:butt; stroke-linejoin:round; stroke-width:2; stroke-opacity:1; fill:none" points="
  320.492,524.537 320.492,499.39 274.873,499.39 274.873,419.894 320.492,419.894 320.492,278.748 320.492,419.894 366.111,419.894 366.111,499.39 320.492,499.39 
  320.492,524.537 
  "/>
<path clip-path="url(#clip332)" d="
M421.867 627.557 L421.867 551.306 L376.248 551.306 L376.248 511.558 L421.867 511.558 L421.867 494.523 L421.867 511.558 L467.486 511.558 L467.486 551.306 L421.867 551.306 
  L421.867 627.557  Z
  " fill="#ff0000" fill-rule="evenodd" fill-opacity="1"/>
<polyline clip-path="url(#clip332)" style="stroke:#ff0000; stroke-linecap:butt; stroke-linejoin:round; stroke-width:2; stroke-opacity:1; fill:none" points="
  421.867,627.557 421.867,551.306 376.248,551.306 376.248,511.558 421.867,511.558 421.867,494.523 421.867,511.558 467.486,511.558 467.486,551.306 421.867,551.306 
  421.867,627.557 
  "/>
<path clip-path="url(#clip332)" d="
M523.242 400.426 L523.242 381.769 L477.623 381.769 L477.623 295.783 L523.242 295.783 L523.242 204.119 L523.242 295.783 L568.861 295.783 L568.861 381.769 L523.242 381.769 
  L523.242 400.426  Z
  " fill="#008000" fill-rule="evenodd" fill-opacity="1"/>
<polyline clip-path="url(#clip332)" style="stroke:#008000; stroke-linecap:butt; stroke-linejoin:round; stroke-width:2; stroke-opacity:1; fill:none" points="
  523.242,400.426 523.242,381.769 477.623,381.769 477.623,295.783 523.242,295.783 523.242,204.119 523.242,295.783 568.861,295.783 568.861,381.769 523.242,381.769 
  523.242,400.426 
  "/>
<path clip-path="url(#clip332)" d="
M624.617 385.013 L624.617 363.111 L578.998 363.111 L578.998 179.783 L624.617 179.783 L624.617 158.693 L624.617 179.783 L670.236 179.783 L670.236 363.111 L624.617 363.111 
  L624.617 385.013  Z
  " fill="#ff0000" fill-rule="evenodd" fill-opacity="1"/>
<polyline clip-path="url(#clip332)" style="stroke:#ff0000; stroke-linecap:butt; stroke-linejoin:round; stroke-width:2; stroke-opacity:1; fill:none" points="
  624.617,385.013 624.617,363.111 578.998,363.111 578.998,179.783 624.617,179.783 624.617,158.693 624.617,179.783 670.236,179.783 670.236,363.111 624.617,363.111 
  624.617,385.013 
  "/>
<path clip-path="url(#clip332)" d="
M725.992 316.062 L725.992 254.412 L680.373 254.412 L680.373 133.546 L725.992 133.546 L725.992 133.546 L725.992 133.546 L771.611 133.546 L771.611 254.412 L725.992 254.412 
  L725.992 316.062  Z
  " fill="#008000" fill-rule="evenodd" fill-opacity="1"/>
<polyline clip-path="url(#clip332)" style="stroke:#008000; stroke-linecap:butt; stroke-linejoin:round; stroke-width:2; stroke-opacity:1; fill:none" points="
  725.992,316.062 725.992,254.412 680.373,254.412 680.373,133.546 725.992,133.546 771.611,133.546 771.611,254.412 725.992,254.412 
  725.992,316.062 
  "/>
<path clip-path="url(#clip332)" d="
M827.367 221.154 L827.367 169.238 L781.748 169.238 L781.748 114.889 L827.367 114.889 L827.367 84.0637 L827.367 114.889 L872.986 114.889 L872.986 169.238 L827.367 169.238 
  L827.367 221.154  Z
  " fill="#008000" fill-rule="evenodd" fill-opacity="1"/>
<polyline clip-path="url(#clip332)" style="stroke:#008000; stroke-linecap:butt; stroke-linejoin:round; stroke-width:2; stroke-opacity:1; fill:none" points="
  827.367,221.154 827.367,169.238 781.748,169.238 781.748,114.889 827.367,114.889 827.367,84.0637 827.367,114.889 872.986,114.889 872.986,169.238 827.367,169.238 
  827.367,221.154 
  "/>
<path clip-path="url(#clip332)" d="
M928.742 223.993 L928.742 160.315 L883.123 160.315 L883.123 144.903 L928.742 144.903 L928.742 86.6599 L928.742 144.903 L974.361 144.903 L974.361 160.315 L928.742 160.315 
  L928.742 223.993  Z
  " fill="#008000" fill-rule="evenodd" fill-opacity="1"/>
<polyline clip-path="url(#clip332)" style="stroke:#008000; stroke-linecap:butt; stroke-linejoin:round; stroke-width:2; stroke-opacity:1; fill:none" points="
  928.742,223.993 928.742,160.315 883.123,160.315 883.123,144.903 928.742,144.903 928.742,86.6599 928.742,144.903 974.361,144.903 974.361,160.315 928.742,160.315 
  928.742,223.993 
  "/>
<path clip-path="url(#clip332)" d="
M1030.12 332.286 L1030.12 322.552 L984.498 322.552 L984.498 273.07 L1030.12 273.07 L1030.12 174.105 L1030.12 273.07 L1075.74 273.07 L1075.74 322.552 L1030.12 322.552 
  L1030.12 332.286  Z
  " fill="#ff0000" fill-rule="evenodd" fill-opacity="1"/>
<polyline clip-path="url(#clip332)" style="stroke:#ff0000; stroke-linecap:butt; stroke-linejoin:round; stroke-width:2; stroke-opacity:1; fill:none" points="
  1030.12,332.286 1030.12,322.552 984.498,322.552 984.498,273.07 1030.12,273.07 1030.12,174.105 1030.12,273.07 1075.74,273.07 1075.74,322.552 1030.12,322.552 
  1030.12,332.286 
  "/>
<path clip-path="url(#clip332)" d="
M1131.49 385.013 L1131.49 329.852 L1085.87 329.852 L1085.87 278.748 L1131.49 278.748 L1131.49 211.42 L1131.49 278.748 L1177.11 278.748 L1177.11 329.852 L1131.49 329.852 
  L1131.49 385.013  Z
  " fill="#008000" fill-rule="evenodd" fill-opacity="1"/>
<polyline clip-path="url(#clip332)" style="stroke:#008000; stroke-linecap:butt; stroke-linejoin:round; stroke-width:2; stroke-opacity:1; fill:none" points="
  1131.49,385.013 1131.49,329.852 1085.87,329.852 1085.87,278.748 1131.49,278.748 1131.49,211.42 1131.49,278.748 1177.11,278.748 1177.11,329.852 1131.49,329.852 
  1131.49,385.013 
  "/>
<path clip-path="url(#clip332)" d="
M1232.87 537.516 L1232.87 501.012 L1187.25 501.012 L1187.25 359.055 L1232.87 359.055 L1232.87 348.51 L1232.87 359.055 L1278.49 359.055 L1278.49 501.012 L1232.87 501.012 
  L1232.87 537.516  Z
  " fill="#ff0000" fill-rule="evenodd" fill-opacity="1"/>
<polyline clip-path="url(#clip332)" style="stroke:#ff0000; stroke-linecap:butt; stroke-linejoin:round; stroke-width:2; stroke-opacity:1; fill:none" points="
  1232.87,537.516 1232.87,501.012 1187.25,501.012 1187.25,359.055 1232.87,359.055 1232.87,348.51 1232.87,359.055 1278.49,359.055 1278.49,501.012 1232.87,501.012 
  1232.87,537.516 
  "/>
<path clip-path="url(#clip332)" d="
M1334.24 780.871 L1334.24 748.423 L1288.62 748.423 L1288.62 664.872 L1334.24 664.872 L1334.24 632.424 L1334.24 664.872 L1379.86 664.872 L1379.86 748.423 L1334.24 748.423 
  L1334.24 780.871  Z
  " fill="#ff0000" fill-rule="evenodd" fill-opacity="1"/>
<polyline clip-path="url(#clip332)" style="stroke:#ff0000; stroke-linecap:butt; stroke-linejoin:round; stroke-width:2; stroke-opacity:1; fill:none" points="
  1334.24,780.871 1334.24,748.423 1288.62,748.423 1288.62,664.872 1334.24,664.872 1334.24,632.424 1334.24,664.872 1379.86,664.872 1379.86,748.423 1334.24,748.423 
  1334.24,780.871 
  "/>
<path clip-path="url(#clip332)" d="
M1435.62 810.884 L1435.62 809.262 L1390 809.262 L1390 772.759 L1435.62 772.759 L1435.62 678.662 L1435.62 772.759 L1481.24 772.759 L1481.24 809.262 L1435.62 809.262 
  L1435.62 810.884  Z
  " fill="#008000" fill-rule="evenodd" fill-opacity="1"/>
<polyline clip-path="url(#clip332)" style="stroke:#008000; stroke-linecap:butt; stroke-linejoin:round; stroke-width:2; stroke-opacity:1; fill:none" points="
  1435.62,810.884 1435.62,809.262 1390,809.262 1390,772.759 1435.62,772.759 1435.62,678.662 1435.62,772.759 1481.24,772.759 1481.24,809.262 1435.62,809.262 
  1435.62,810.884 
  "/>
<path clip-path="url(#clip332)" d="
M1536.99 853.066 L1536.99 798.717 L1491.37 798.717 L1491.37 778.438 L1536.99 778.438 L1536.99 695.94 L1536.99 778.438 L1582.61 778.438 L1582.61 798.717 L1536.99 798.717 
  L1536.99 853.066  Z
  " fill="#008000" fill-rule="evenodd" fill-opacity="1"/>
<polyline clip-path="url(#clip332)" style="stroke:#008000; stroke-linecap:butt; stroke-linejoin:round; stroke-width:2; stroke-opacity:1; fill:none" points="
  1536.99,853.066 1536.99,798.717 1491.37,798.717 1491.37,778.438 1536.99,778.438 1536.99,695.94 1536.99,778.438 1582.61,778.438 1582.61,798.717 1536.99,798.717 
  1536.99,853.066 
  "/>
<path clip-path="url(#clip332)" d="
M1638.37 750.046 L1638.37 741.934 L1592.75 741.934 L1592.75 535.082 L1638.37 535.082 L1638.37 528.593 L1638.37 535.082 L1683.99 535.082 L1683.99 741.934 L1638.37 741.934 
  L1638.37 750.046  Z
  " fill="#008000" fill-rule="evenodd" fill-opacity="1"/>
<polyline clip-path="url(#clip332)" style="stroke:#008000; stroke-linecap:butt; stroke-linejoin:round; stroke-width:2; stroke-opacity:1; fill:none" points="
  1638.37,750.046 1638.37,741.934 1592.75,741.934 1592.75,535.082 1638.37,535.082 1638.37,528.593 1638.37,535.082 1683.99,535.082 1683.99,741.934 1638.37,741.934 
  1638.37,750.046 
  "/>
<path clip-path="url(#clip332)" d="
M1739.74 1060.73 L1739.74 1054.24 L1694.12 1054.24 L1694.12 688.396 L1739.74 688.396 L1739.74 624.313 L1739.74 688.396 L1785.36 688.396 L1785.36 1054.24 L1739.74 1054.24 
  L1739.74 1060.73  Z
  " fill="#ff0000" fill-rule="evenodd" fill-opacity="1"/>
<polyline clip-path="url(#clip332)" style="stroke:#ff0000; stroke-linecap:butt; stroke-linejoin:round; stroke-width:2; stroke-opacity:1; fill:none" points="
  1739.74,1060.73 1739.74,1054.24 1694.12,1054.24 1694.12,688.396 1739.74,688.396 1739.74,624.313 1739.74,688.396 1785.36,688.396 1785.36,1054.24 1739.74,1054.24 
  1739.74,1060.73 
  "/>
<path clip-path="url(#clip332)" d="
M1841.12 1175.11 L1841.12 1132.11 L1795.5 1132.11 L1795.5 1096.42 L1841.12 1096.42 L1841.12 1000.7 L1841.12 1096.42 L1886.74 1096.42 L1886.74 1132.11 L1841.12 1132.11 
  L1841.12 1175.11  Z
  " fill="#ff0000" fill-rule="evenodd" fill-opacity="1"/>
<polyline clip-path="url(#clip332)" style="stroke:#ff0000; stroke-linecap:butt; stroke-linejoin:round; stroke-width:2; stroke-opacity:1; fill:none" points="
  1841.12,1175.11 1841.12,1132.11 1795.5,1132.11 1795.5,1096.42 1841.12,1096.42 1841.12,1000.7 1841.12,1096.42 1886.74,1096.42 1886.74,1132.11 1841.12,1132.11 
  1841.12,1175.11 
  "/>
<path clip-path="url(#clip332)" d="
M1942.49 1257.04 L1942.49 1166.99 L1896.87 1166.99 L1896.87 1076.14 L1942.49 1076.14 L1942.49 1048.56 L1942.49 1076.14 L1988.11 1076.14 L1988.11 1166.99 L1942.49 1166.99 
  L1942.49 1257.04  Z
  " fill="#ff0000" fill-rule="evenodd" fill-opacity="1"/>
<polyline clip-path="url(#clip332)" style="stroke:#ff0000; stroke-linecap:butt; stroke-linejoin:round; stroke-width:2; stroke-opacity:1; fill:none" points="
  1942.49,1257.04 1942.49,1166.99 1896.87,1166.99 1896.87,1076.14 1942.49,1076.14 1942.49,1048.56 1942.49,1076.14 1988.11,1076.14 1988.11,1166.99 1942.49,1166.99 
  1942.49,1257.04 
  "/>
<path clip-path="url(#clip332)" d="
M2043.87 1236.76 L2043.87 1228.64 L1998.25 1228.64 L1998.25 1027.47 L2043.87 1027.47 L2043.87 1016.11 L2043.87 1027.47 L2089.49 1027.47 L2089.49 1228.64 L2043.87 1228.64 
  L2043.87 1236.76  Z
  " fill="#ff0000" fill-rule="evenodd" fill-opacity="1"/>
<polyline clip-path="url(#clip332)" style="stroke:#ff0000; stroke-linecap:butt; stroke-linejoin:round; stroke-width:2; stroke-opacity:1; fill:none" points="
  2043.87,1236.76 2043.87,1228.64 1998.25,1228.64 1998.25,1027.47 2043.87,1027.47 2043.87,1016.11 2043.87,1027.47 2089.49,1027.47 2089.49,1228.64 2043.87,1228.64 
  2043.87,1236.76 
  "/>
<path clip-path="url(#clip332)" d="
M2145.24 1306.52 L2145.24 1224.59 L2099.62 1224.59 L2099.62 1115.08 L2145.24 1115.08 L2145.24 1060.73 L2145.24 1115.08 L2190.86 1115.08 L2190.86 1224.59 L2145.24 1224.59 
  L2145.24 1306.52  Z
  " fill="#008000" fill-rule="evenodd" fill-opacity="1"/>
<polyline clip-path="url(#clip332)" style="stroke:#008000; stroke-linecap:butt; stroke-linejoin:round; stroke-width:2; stroke-opacity:1; fill:none" points="
  2145.24,1306.52 2145.24,1224.59 2099.62,1224.59 2099.62,1115.08 2145.24,1115.08 2145.24,1060.73 2145.24,1115.08 2190.86,1115.08 2190.86,1224.59 2145.24,1224.59 
  2145.24,1306.52 
  "/>
<path clip-path="url(#clip332)" d="
M2246.62 1311.39 L2246.62 1266.77 L2201 1266.77 L2201 1051 L2246.62 1051 L2246.62 1023.82 L2246.62 1051 L2292.24 1051 L2292.24 1266.77 L2246.62 1266.77 
  L2246.62 1311.39  Z
  " fill="#ff0000" fill-rule="evenodd" fill-opacity="1"/>
<polyline clip-path="url(#clip332)" style="stroke:#ff0000; stroke-linecap:butt; stroke-linejoin:round; stroke-width:2; stroke-opacity:1; fill:none" points="
  2246.62,1311.39 2246.62,1266.77 2201,1266.77 2201,1051 2246.62,1051 2246.62,1023.82 2246.62,1051 2292.24,1051 2292.24,1266.77 2246.62,1266.77 
  2246.62,1311.39 
  "/>
<circle clip-path="url(#clip332)" cx="320.492" cy="459.642" r="3" fill="#ff0000" fill-rule="evenodd" fill-opacity="1" stroke="#000000" stroke-opacity="1" stroke-width="0"/>
<circle clip-path="url(#clip332)" cx="421.867" cy="531.432" r="3" fill="#ff0000" fill-rule="evenodd" fill-opacity="1" stroke="#000000" stroke-opacity="1" stroke-width="0"/>
<circle clip-path="url(#clip332)" cx="523.242" cy="338.776" r="3" fill="#008000" fill-rule="evenodd" fill-opacity="1" stroke="#000000" stroke-opacity="1" stroke-width="0"/>
<circle clip-path="url(#clip332)" cx="624.617" cy="271.447" r="3" fill="#ff0000" fill-rule="evenodd" fill-opacity="1" stroke="#000000" stroke-opacity="1" stroke-width="0"/>
<circle clip-path="url(#clip332)" cx="725.992" cy="193.979" r="3" fill="#008000" fill-rule="evenodd" fill-opacity="1" stroke="#000000" stroke-opacity="1" stroke-width="0"/>
<circle clip-path="url(#clip332)" cx="827.367" cy="142.064" r="3" fill="#008000" fill-rule="evenodd" fill-opacity="1" stroke="#000000" stroke-opacity="1" stroke-width="0"/>
<circle clip-path="url(#clip332)" cx="928.742" cy="152.609" r="3" fill="#008000" fill-rule="evenodd" fill-opacity="1" stroke="#000000" stroke-opacity="1" stroke-width="0"/>
<circle clip-path="url(#clip332)" cx="1030.12" cy="297.811" r="3" fill="#ff0000" fill-rule="evenodd" fill-opacity="1" stroke="#000000" stroke-opacity="1" stroke-width="0"/>
<circle clip-path="url(#clip332)" cx="1131.49" cy="304.3" r="3" fill="#008000" fill-rule="evenodd" fill-opacity="1" stroke="#000000" stroke-opacity="1" stroke-width="0"/>
<circle clip-path="url(#clip332)" cx="1232.87" cy="430.034" r="3" fill="#ff0000" fill-rule="evenodd" fill-opacity="1" stroke="#000000" stroke-opacity="1" stroke-width="0"/>
<circle clip-path="url(#clip332)" cx="1334.24" cy="706.648" r="3" fill="#ff0000" fill-rule="evenodd" fill-opacity="1" stroke="#000000" stroke-opacity="1" stroke-width="0"/>
<circle clip-path="url(#clip332)" cx="1435.62" cy="791.011" r="3" fill="#008000" fill-rule="evenodd" fill-opacity="1" stroke="#000000" stroke-opacity="1" stroke-width="0"/>
<circle clip-path="url(#clip332)" cx="1536.99" cy="788.577" r="3" fill="#008000" fill-rule="evenodd" fill-opacity="1" stroke="#000000" stroke-opacity="1" stroke-width="0"/>
<circle clip-path="url(#clip332)" cx="1638.37" cy="638.508" r="3" fill="#008000" fill-rule="evenodd" fill-opacity="1" stroke="#000000" stroke-opacity="1" stroke-width="0"/>
<circle clip-path="url(#clip332)" cx="1739.74" cy="871.318" r="3" fill="#ff0000" fill-rule="evenodd" fill-opacity="1" stroke="#000000" stroke-opacity="1" stroke-width="0"/>
<circle clip-path="url(#clip332)" cx="1841.12" cy="1114.27" r="3" fill="#ff0000" fill-rule="evenodd" fill-opacity="1" stroke="#000000" stroke-opacity="1" stroke-width="0"/>
<circle clip-path="url(#clip332)" cx="1942.49" cy="1121.57" r="3" fill="#ff0000" fill-rule="evenodd" fill-opacity="1" stroke="#000000" stroke-opacity="1" stroke-width="0"/>
<circle clip-path="url(#clip332)" cx="2043.87" cy="1128.06" r="3" fill="#ff0000" fill-rule="evenodd" fill-opacity="1" stroke="#000000" stroke-opacity="1" stroke-width="0"/>
<circle clip-path="url(#clip332)" cx="2145.24" cy="1169.83" r="3" fill="#008000" fill-rule="evenodd" fill-opacity="1" stroke="#000000" stroke-opacity="1" stroke-width="0"/>
<circle clip-path="url(#clip332)" cx="2246.62" cy="1158.88" r="3" fill="#ff0000" fill-rule="evenodd" fill-opacity="1" stroke="#000000" stroke-opacity="1" stroke-width="0"/>
</svg>
