<svg class="main-svg" xmlns="http://www.w3.org/2000/svg" xmlns:xlink="http://www.w3.org/1999/xlink" width="600" height="400" style="" viewBox="0 0 600 400"><rect x="0" y="0" width="600" height="400" style="fill: rgb(255, 255, 255); fill-opacity: 1;"/><defs id="defs-421e79"><g class="clips"><clipPath id="clip421e79xyplot" class="plotclip"><rect width="556.5704286964129" height="272.9133858267716"/></clipPath><clipPath class="axesclip" id="clip421e79x"><rect x="39.4925634295713" y="0" width="556.5704286964129" height="400"/></clipPath><clipPath class="axesclip" id="clip421e79y"><rect x="0" y="23.543307086614167" width="600" height="272.9133858267716"/></clipPath><clipPath class="axesclip" id="clip421e79xy"><rect x="39.4925634295713" y="23.543307086614167" width="556.5704286964129" height="272.9133858267716"/></clipPath></g><g class="gradients"/></defs><g class="bglayer"/><g class="layer-below"><g class="imagelayer"/><g class="shapelayer"/></g><g class="cartesianlayer"><g class="subplot xy"><g class="layer-subplot"><g class="shapelayer"/><g class="imagelayer"/></g><g class="gridlayer"><g class="x"><path class="xgrid crisp" transform="translate(65.5625634295713,0)" d="M0,23.543307086614167v272.9133858267716" style="stroke: rgb(0, 0, 0); stroke-opacity: 0.1; stroke-width: 0.5px;"/><path class="xgrid crisp" transform="translate(88.4925634295713,0)" d="M0,23.543307086614167v272.9133858267716" style="stroke: rgb(0, 0, 0); stroke-opacity: 0.1; stroke-width: 0.5px;"/><path class="xgrid crisp" transform="translate(111.42256342957131,0)" d="M0,23.543307086614167v272.9133858267716" style="stroke: rgb(0, 0, 0); stroke-opacity: 0.1; stroke-width: 0.5px;"/><path class="xgrid crisp" transform="translate(134.3525634295713,0)" d="M0,23.543307086614167v272.9133858267716" style="stroke: rgb(0, 0, 0); stroke-opacity: 0.1; stroke-width: 0.5px;"/><path class="xgrid crisp" transform="translate(157.2725634295713,0)" d="M0,23.543307086614167v272.9133858267716" style="stroke: rgb(0, 0, 0); stroke-opacity: 0.1; stroke-width: 0.5px;"/><path class="xgrid crisp" transform="translate(180.2025634295713,0)" d="M0,23.543307086614167v272.9133858267716" style="stroke: rgb(0, 0, 0); stroke-opacity: 0.1; stroke-width: 0.5px;"/><path class="xgrid crisp" transform="translate(203.1325634295713,0)" d="M0,23.543307086614167v272.9133858267716" style="stroke: rgb(0, 0, 0); stroke-opacity: 0.1; stroke-width: 0.5px;"/><path class="xgrid crisp" transform="translate(226.0625634295713,0)" d="M0,23.543307086614167v272.9133858267716" style="stroke: rgb(0, 0, 0); stroke-opacity: 0.1; stroke-width: 0.5px;"/><path class="xgrid crisp" transform="translate(248.9925634295713,0)" d="M0,23.543307086614167v272.9133858267716" style="stroke: rgb(0, 0, 0); stroke-opacity: 0.1; stroke-width: 0.5px;"/><path class="xgrid crisp" transform="translate(271.9225634295713,0)" d="M0,23.543307086614167v272.9133858267716" style="stroke: rgb(0, 0, 0); stroke-opacity: 0.1; stroke-width: 0.5px;"/><path class="xgrid crisp" transform="translate(294.8525634295713,0)" d="M0,23.543307086614167v272.9133858267716" style="stroke: rgb(0, 0, 0); stroke-opacity: 0.1; stroke-width: 0.5px;"/><path class="xgrid crisp" transform="translate(317.7825634295713,0)" d="M0,23.543307086614167v272.9133858267716" style="stroke: rgb(0, 0, 0); stroke-opacity: 0.1; stroke-width: 0.5px;"/><path class="xgrid crisp" transform="translate(340.7025634295713,0)" d="M0,23.543307086614167v272.9133858267716" style="stroke: rgb(0, 0, 0); stroke-opacity: 0.1; stroke-width: 0.5px;"/><path class="xgrid crisp" transform="translate(363.6325634295713,0)" d="M0,23.543307086614167v272.9133858267716" style="stroke: rgb(0, 0, 0); stroke-opacity: 0.1; stroke-width: 0.5px;"/><path class="xgrid crisp" transform="translate(386.5625634295713,0)" d="M0,23.543307086614167v272.9133858267716" style="stroke: rgb(0, 0, 0); stroke-opacity: 0.1; stroke-width: 0.5px;"/><path class="xgrid crisp" transform="translate(409.4925634295713,0)" d="M0,23.543307086614167v272.9133858267716" style="stroke: rgb(0, 0, 0); stroke-opacity: 0.1; stroke-width: 0.5px;"/><path class="xgrid crisp" transform="translate(432.4225634295713,0)" d="M0,23.543307086614167v272.9133858267716" style="stroke: rgb(0, 0, 0); stroke-opacity: 0.1; stroke-width: 0.5px;"/><path class="xgrid crisp" transform="translate(455.3525634295713,0)" d="M0,23.543307086614167v272.9133858267716" style="stroke: rgb(0, 0, 0); stroke-opacity: 0.1; stroke-width: 0.5px;"/><path class="xgrid crisp" transform="translate(478.2825634295713,0)" d="M0,23.543307086614167v272.9133858267716" style="stroke: rgb(0, 0, 0); stroke-opacity: 0.1; stroke-width: 0.5px;"/><path class="xgrid crisp" transform="translate(501.2025634295713,0)" d="M0,23.543307086614167v272.9133858267716" style="stroke: rgb(0, 0, 0); stroke-opacity: 0.1; stroke-width: 0.5px;"/><path class="xgrid crisp" transform="translate(524.1325634295713,0)" d="M0,23.543307086614167v272.9133858267716" style="stroke: rgb(0, 0, 0); stroke-opacity: 0.1; stroke-width: 0.5px;"/><path class="xgrid crisp" transform="translate(547.0625634295712,0)" d="M0,23.543307086614167v272.9133858267716" style="stroke: rgb(0, 0, 0); stroke-opacity: 0.1; stroke-width: 0.5px;"/><path class="xgrid crisp" transform="translate(569.9925634295713,0)" d="M0,23.543307086614167v272.9133858267716" style="stroke: rgb(0, 0, 0); stroke-opacity: 0.1; stroke-width: 0.5px;"/></g><g class="y"><path class="ygrid crisp" transform="translate(0,248.12330708661418)" d="M39.4925634295713,0h556.5704286964129" style="stroke: rgb(0, 0, 0); stroke-opacity: 0.1; stroke-width: 0.5px;"/><path class="ygrid crisp" transform="translate(0,199.71330708661415)" d="M39.4925634295713,0h556.5704286964129" style="stroke: rgb(0, 0, 0); stroke-opacity: 0.1; stroke-width: 0.5px;"/><path class="ygrid crisp" transform="translate(0,151.30330708661418)" d="M39.4925634295713,0h556.5704286964129" style="stroke: rgb(0, 0, 0); stroke-opacity: 0.1; stroke-width: 0.5px;"/><path class="ygrid crisp" transform="translate(0,102.89330708661416)" d="M39.4925634295713,0h556.5704286964129" style="stroke: rgb(0, 0, 0); stroke-opacity: 0.1; stroke-width: 0.5px;"/><path class="ygrid crisp" transform="translate(0,54.48330708661417)" d="M39.4925634295713,0h556.5704286964129" style="stroke: rgb(0, 0, 0); stroke-opacity: 0.1; stroke-width: 0.5px;"/></g></g><g class="zerolinelayer"/><path class="xlines-below"/><path class="ylines-below"/><g class="overlines-below"/><g class="xaxislayer-below"/><g class="yaxislayer-below"/><g class="overaxes-below"/><g class="plot" transform="translate(39.4925634295713, 23.543307086614167)" clip-path="url('#clip421e79xyplot')"><g class="scatterlayer mlayer"><g class="trace scatter traced48f72" style="stroke-miterlimit: 2;"><g class="fills"><g><path class="js-fill" d="M26.07,3080.79L26.07,3080.79L26.07,166.02L26.07,154.21L15.75,154.21L15.75,79.35L26.07,79.35L26.07,26.81L26.07,79.35L36.39,79.35L36.39,154.21L26.07,154.21L26.07,166.02" style="fill: rgb(255, 0, 0); fill-opacity: 1; stroke-width: 0;"/></g></g><g class="errorbars"/><g class="lines"><path class="js-line" d="M26.07,166.02L26.07,154.21L15.75,154.21L15.75,79.35L26.07,79.35L26.07,26.81L26.07,79.35L36.39,79.35L36.39,154.21L26.07,154.21L26.07,166.02" style="vector-effect: non-scaling-stroke; fill: none; stroke: rgb(255, 0, 0); stroke-opacity: 1; stroke-width: 0.5px; opacity: 1;"/></g><g class="points"/><g class="text"/></g><g class="trace scatter trace9a5357" style="stroke-miterlimit: 2;"><g class="fills"><g><path class="js-fill" d="M49,3080.79L49,3080.79L49,208.12L49,194.94L38.68,194.94L38.68,136.32L49,136.32L49,131.73L49,136.32L59.32,136.32L59.32,194.94L49,194.94L49,208.12" style="fill: rgb(0, 128, 0); fill-opacity: 1; stroke-width: 0;"/></g></g><g class="errorbars"/><g class="lines"><path class="js-line" d="M49,208.12L49,194.94L38.68,194.94L38.68,136.32L49,136.32L49,131.73L49,136.32L59.32,136.32L59.32,194.94L49,194.94L49,208.12" style="vector-effect: non-scaling-stroke; fill: none; stroke: rgb(0, 128, 0); stroke-opacity: 1; stroke-width: 0.5px; opacity: 1;"/></g><g class="points"/><g class="text"/></g><g class="trace scatter trace645aa7" style="stroke-miterlimit: 2;"><g class="fills"><g><path class="js-fill" d="M71.93,3080.79L71.93,3080.79L71.93,180.05L71.93,149.76L61.61,149.76L61.61,131.38L71.93,131.38L71.93,107.76L71.93,131.38L82.25,131.38L82.25,149.76L71.93,149.76L71.93,180.05" style="fill: rgb(255, 0, 0); fill-opacity: 1; stroke-width: 0;"/></g></g><g class="errorbars"/><g class="lines"><path class="js-line" d="M71.93,180.05L71.93,149.76L61.61,149.76L61.61,131.38L71.93,131.38L71.93,107.76L71.93,131.38L82.25,131.38L82.25,149.76L71.93,149.76L71.93,180.05" style="vector-effect: non-scaling-stroke; fill: none; stroke: rgb(255, 0, 0); stroke-opacity: 1; stroke-width: 0.5px; opacity: 1;"/></g><g class="points"/><g class="text"/></g><g class="trace scatter trace80b9e3" style="stroke-miterlimit: 2;"><g class="fills"><g><path class="js-fill" d="M94.86,3080.79L94.86,3080.79L94.86,202.68L94.86,176.17L84.54,176.17L84.54,141.32L94.86,141.32L94.86,139.98L94.86,141.32L105.17,141.32L105.17,176.17L94.86,176.17L94.86,202.68" style="fill: rgb(0, 128, 0); fill-opacity: 1; stroke-width: 0;"/></g></g><g class="errorbars"/><g class="lines"><path class="js-line" d="M94.86,202.68L94.86,176.17L84.54,176.17L84.54,141.32L94.86,141.32L94.86,139.98L94.86,141.32L105.17,141.32L105.17,176.17L94.86,176.17L94.86,202.68" style="vector-effect: non-scaling-stroke; fill: none; stroke: rgb(0, 128, 0); stroke-opacity: 1; stroke-width: 0.5px; opacity: 1;"/></g><g class="points"/><g class="text"/></g><g class="trace scatter trace2fac2f" style="stroke-miterlimit: 2;"><g class="fills"><g><path class="js-fill" d="M117.78,3080.79L117.78,3080.79L117.78,179.23L117.78,146.06L107.47,146.06L107.47,134.31L117.78,134.31L117.78,130.78L117.78,134.31L128.1,134.31L128.1,146.06L117.78,146.06L117.78,179.23" style="fill: rgb(255, 0, 0); fill-opacity: 1; stroke-width: 0;"/></g></g><g class="errorbars"/><g class="lines"><path class="js-line" d="M117.78,179.23L117.78,146.06L107.47,146.06L107.47,134.31L117.78,134.31L117.78,130.78L117.78,134.31L128.1,134.31L128.1,146.06L117.78,146.06L117.78,179.23" style="vector-effect: non-scaling-stroke; fill: none; stroke: rgb(255, 0, 0); stroke-opacity: 1; stroke-width: 0.5px; opacity: 1;"/></g><g class="points"/><g class="text"/></g><g class="trace scatter traceca1d2e" style="stroke-miterlimit: 2;"><g class="fills"><g><path class="js-fill" d="M140.71,3080.79L140.71,3080.79L140.71,169.2L140.71,146.62L130.4,146.62L130.4,48.91L140.71,48.91L140.71,40.06L140.71,48.91L151.03,48.91L151.03,146.62L140.71,146.62L140.71,169.2" style="fill: rgb(0, 128, 0); fill-opacity: 1; stroke-width: 0;"/></g></g><g class="errorbars"/><g class="lines"><path class="js-line" d="M140.71,169.2L140.71,146.62L130.4,146.62L130.4,48.91L140.71,48.91L140.71,40.06L140.71,48.91L151.03,48.91L151.03,146.62L140.71,146.62L140.71,169.2" style="vector-effect: non-scaling-stroke; fill: none; stroke: rgb(0, 128, 0); stroke-opacity: 1; stroke-width: 0.5px; opacity: 1;"/></g><g class="points"/><g class="text"/></g><g class="trace scatter tracee3f18f" style="stroke-miterlimit: 2;"><g class="fills"><g><path class="js-fill" d="M163.64,3080.79L163.64,3080.79L163.64,71.06L163.64,63.05L153.32,63.05L153.32,7.72L163.64,7.72L173.96,7.72L173.96,63.05L163.64,63.05L163.64,71.06" style="fill: rgb(255, 0, 0); fill-opacity: 1; stroke-width: 0;"/></g></g><g class="errorbars"/><g class="lines"><path class="js-line" d="M163.64,71.06L163.64,63.05L153.32,63.05L153.32,7.72L163.64,7.72L173.96,7.72L173.96,63.05L163.64,63.05L163.64,71.06" style="vector-effect: non-scaling-stroke; fill: none; stroke: rgb(255, 0, 0); stroke-opacity: 1; stroke-width: 0.5px; opacity: 1;"/></g><g class="points"/><g class="text"/></g><g class="trace scatter tracebf8611" style="stroke-miterlimit: 2;"><g class="fills"><g><path class="js-fill" d="M186.57,3080.79L186.57,3080.79L186.57,86.9L186.57,59.02L176.25,59.02L176.25,43.55L186.57,43.55L186.57,40.62L186.57,43.55L196.89,43.55L196.89,59.02L186.57,59.02L186.57,86.9" style="fill: rgb(0, 128, 0); fill-opacity: 1; stroke-width: 0;"/></g></g><g class="errorbars"/><g class="lines"><path class="js-line" d="M186.57,86.9L186.57,59.02L176.25,59.02L176.25,43.55L186.57,43.55L186.57,40.62L186.57,43.55L196.89,43.55L196.89,59.02L186.57,59.02L186.57,86.9" style="vector-effect: non-scaling-stroke; fill: none; stroke: rgb(0, 128, 0); stroke-opacity: 1; stroke-width: 0.5px; opacity: 1;"/></g><g class="points"/><g class="text"/></g><g class="trace scatter trace318675" style="stroke-miterlimit: 2;"><g class="fills"><g><path class="js-fill" d="M209.5,3080.79L209.5,3080.79L209.5,161.86L209.5,145.81L199.18,145.81L199.18,46.49L209.5,46.49L209.5,37L209.5,46.49L219.82,46.49L219.82,145.81L209.5,145.81L209.5,161.86" style="fill: rgb(255, 0, 0); fill-opacity: 1; stroke-width: 0;"/></g></g><g class="errorbars"/><g class="lines"><path class="js-line" d="M209.5,161.86L209.5,145.81L199.18,145.81L199.18,46.49L209.5,46.49L209.5,37L209.5,46.49L219.82,46.49L219.82,145.81L209.5,145.81L209.5,161.86" style="vector-effect: non-scaling-stroke; fill: none; stroke: rgb(255, 0, 0); stroke-opacity: 1; stroke-width: 0.5px; opacity: 1;"/></g><g class="points"/><g class="text"/></g><g class="trace scatter traceda8d67" style="stroke-miterlimit: 2;"><g class="fills"><g><path class="js-fill" d="M232.43,3080.79L232.43,3080.79L232.43,198.63L232.43,178.24L222.11,178.24L222.11,153.19L232.43,153.19L232.43,142.02L232.43,153.19L242.75,153.19L242.75,178.24L232.43,178.24L232.43,198.63" style="fill: rgb(0, 128, 0); fill-opacity: 1; stroke-width: 0;"/></g></g><g class="errorbars"/><g class="lines"><path class="js-line" d="M232.43,198.63L232.43,178.24L222.11,178.24L222.11,153.19L232.43,153.19L232.43,142.02L232.43,153.19L242.75,153.19L242.75,178.24L232.43,178.24L232.43,198.63" style="vector-effect: non-scaling-stroke; fill: none; stroke: rgb(0, 128, 0); stroke-opacity: 1; stroke-width: 0.5px; opacity: 1;"/></g><g class="points"/><g class="text"/></g><g class="trace scatter trace0138e5" style="stroke-miterlimit: 2;"><g class="fills"><g><path class="js-fill" d="M255.36,3080.79L255.36,3080.79L255.36,146.72L255.36,145.96L245.04,145.96L245.04,117.69L255.36,117.69L255.36,96.84L255.36,117.69L265.67,117.69L265.67,145.96L255.36,145.96L255.36,146.72" style="fill: rgb(0, 128, 0); fill-opacity: 1; stroke-width: 0;"/></g></g><g class="errorbars"/><g class="lines"><path class="js-line" d="M255.36,146.72L255.36,145.96L245.04,145.96L245.04,117.69L255.36,117.69L255.36,96.84L255.36,117.69L265.67,117.69L265.67,145.96L255.36,145.96L255.36,146.72" style="vector-effect: non-scaling-stroke; fill: none; stroke: rgb(0, 128, 0); stroke-opacity: 1; stroke-width: 0.5px; opacity: 1;"/></g><g class="points"/><g class="text"/></g><g class="trace scatter trace0cac3a" style="stroke-miterlimit: 2;"><g class="fills"><g><path class="js-fill" d="M278.29,3080.79L278.29,3080.79L278.29,180.7L278.29,175.51L267.97,175.51L267.97,127.41L278.29,127.41L278.29,124.9L278.29,127.41L288.6,127.41L288.6,175.51L278.29,175.51L278.29,180.7" style="fill: rgb(255, 0, 0); fill-opacity: 1; stroke-width: 0;"/></g></g><g class="errorbars"/><g class="lines"><path class="js-line" d="M278.29,180.7L278.29,175.51L267.97,175.51L267.97,127.41L278.29,127.41L278.29,124.9L278.29,127.41L288.6,127.41L288.6,175.51L278.29,175.51L278.29,180.7" style="vector-effect: non-scaling-stroke; fill: none; stroke: rgb(255, 0, 0); stroke-opacity: 1; stroke-width: 0.5px; opacity: 1;"/></g><g class="points"/><g class="text"/></g><g class="trace scatter trace2ce3f8" style="stroke-miterlimit: 2;"><g class="fills"><g><path class="js-fill" d="M301.21,3080.79L301.21,3080.79L301.21,173.6L301.21,163.93L290.9,163.93L290.9,133.53L301.21,133.53L301.21,115.66L301.21,133.53L311.53,133.53L311.53,163.93L301.21,163.93L301.21,173.6" style="fill: rgb(0, 128, 0); fill-opacity: 1; stroke-width: 0;"/></g></g><g class="errorbars"/><g class="lines"><path class="js-line" d="M301.21,173.6L301.21,163.93L290.9,163.93L290.9,133.53L301.21,133.53L301.21,115.66L301.21,133.53L311.53,133.53L311.53,163.93L301.21,163.93L301.21,173.6" style="vector-effect: non-scaling-stroke; fill: none; stroke: rgb(0, 128, 0); stroke-opacity: 1; stroke-width: 0.5px; opacity: 1;"/></g><g class="points"/><g class="text"/></g><g class="trace scatter traceee43f8" style="stroke-miterlimit: 2;"><g class="fills"><g><path class="js-fill" d="M324.14,3080.79L324.14,3080.79L324.14,191.24L324.14,181.98L313.82,181.98L313.82,115.27L324.14,115.27L324.14,102.84L324.14,115.27L334.46,115.27L334.46,181.98L324.14,181.98L324.14,191.24" style="fill: rgb(0, 128, 0); fill-opacity: 1; stroke-width: 0;"/></g></g><g class="errorbars"/><g class="lines"><path class="js-line" d="M324.14,191.24L324.14,181.98L313.82,181.98L313.82,115.27L324.14,115.27L324.14,102.84L324.14,115.27L334.46,115.27L334.46,181.98L324.14,181.98L324.14,191.24" style="vector-effect: non-scaling-stroke; fill: none; stroke: rgb(0, 128, 0); stroke-opacity: 1; stroke-width: 0.5px; opacity: 1;"/></g><g class="points"/><g class="text"/></g><g class="trace scatter trace839bc1" style="stroke-miterlimit: 2;"><g class="fills"><g><path class="js-fill" d="M347.07,3080.79L347.07,3080.79L347.07,265.19L347.07,209.17L336.75,209.17L336.75,166.47L347.07,166.47L347.07,158.84L347.07,166.47L357.39,166.47L357.39,209.17L347.07,209.17L347.07,265.19" style="fill: rgb(255, 0, 0); fill-opacity: 1; stroke-width: 0;"/></g></g><g class="errorbars"/><g class="lines"><path class="js-line" d="M347.07,265.19L347.07,209.17L336.75,209.17L336.75,166.47L347.07,166.47L347.07,158.84L347.07,166.47L357.39,166.47L357.39,209.17L347.07,209.17L347.07,265.19" style="vector-effect: non-scaling-stroke; fill: none; stroke: rgb(255, 0, 0); stroke-opacity: 1; stroke-width: 0.5px; opacity: 1;"/></g><g class="points"/><g class="text"/></g><g class="trace scatter tracede9f76" style="stroke-miterlimit: 2;"><g class="fills"><g><path class="js-fill" d="M370,3080.79L370,3080.79L370,242.71L370,225.65L359.68,225.65L359.68,202.04L370,202.04L370,194.63L370,202.04L380.32,202.04L380.32,225.65L370,225.65L370,242.71" style="fill: rgb(255, 0, 0); fill-opacity: 1; stroke-width: 0;"/></g></g><g class="errorbars"/><g class="lines"><path class="js-line" d="M370,242.71L370,225.65L359.68,225.65L359.68,202.04L370,202.04L370,194.63L370,202.04L380.32,202.04L380.32,225.65L370,225.65L370,242.71" style="vector-effect: non-scaling-stroke; fill: none; stroke: rgb(255, 0, 0); stroke-opacity: 1; stroke-width: 0.5px; opacity: 1;"/></g><g class="points"/><g class="text"/></g><g class="trace scatter trace09b830" style="stroke-miterlimit: 2;"><g class="fills"><g><path class="js-fill" d="M392.93,3080.79L392.93,3080.79L392.93,256.24L392.93,244.01L382.61,244.01L382.61,221.54L392.93,221.54L392.93,204.13L392.93,221.54L403.25,221.54L403.25,244.01L392.93,244.01L392.93,256.24" style="fill: rgb(255, 0, 0); fill-opacity: 1; stroke-width: 0;"/></g></g><g class="errorbars"/><g class="lines"><path class="js-line" d="M392.93,256.24L392.93,244.01L382.61,244.01L382.61,221.54L392.93,221.54L392.93,204.13L392.93,221.54L403.25,221.54L403.25,244.01L392.93,244.01L392.93,256.24" style="vector-effect: non-scaling-stroke; fill: none; stroke: rgb(255, 0, 0); stroke-opacity: 1; stroke-width: 0.5px; opacity: 1;"/></g><g class="points"/><g class="text"/></g><g class="trace scatter trace3ed869" style="stroke-miterlimit: 2;"><g class="fills"><g><path class="js-fill" d="M415.86,3080.79L415.86,3080.79L415.86,246.93L415.86,235.62L405.54,235.62L405.54,227.27L415.86,227.27L415.86,210.23L415.86,227.27L426.18,227.27L426.18,235.62L415.86,235.62L415.86,246.93" style="fill: rgb(0, 128, 0); fill-opacity: 1; stroke-width: 0;"/></g></g><g class="errorbars"/><g class="lines"><path class="js-line" d="M415.86,246.93L415.86,235.62L405.54,235.62L405.54,227.27L415.86,227.27L415.86,210.23L415.86,227.27L426.18,227.27L426.18,235.62L415.86,235.62L415.86,246.93" style="vector-effect: non-scaling-stroke; fill: none; stroke: rgb(0, 128, 0); stroke-opacity: 1; stroke-width: 0.5px; opacity: 1;"/></g><g class="points"/><g class="text"/></g><g class="trace scatter traceb5d8f2" style="stroke-miterlimit: 2;"><g class="fills"><g><path class="js-fill" d="M438.79,3080.79L438.79,3080.79L438.79,242.01L438.79,230.88L428.47,230.88L428.47,175.98L438.79,175.98L438.79,171.54L438.79,175.98L449.1,175.98L449.1,230.88L438.79,230.88L438.79,242.01" style="fill: rgb(0, 128, 0); fill-opacity: 1; stroke-width: 0;"/></g></g><g class="errorbars"/><g class="lines"><path class="js-line" d="M438.79,242.01L438.79,230.88L428.47,230.88L428.47,175.98L438.79,175.98L438.79,171.54L438.79,175.98L449.1,175.98L449.1,230.88L438.79,230.88L438.79,242.01" style="vector-effect: non-scaling-stroke; fill: none; stroke: rgb(0, 128, 0); stroke-opacity: 1; stroke-width: 0.5px; opacity: 1;"/></g><g class="points"/><g class="text"/></g><g class="trace scatter trace0c8d86" style="stroke-miterlimit: 2;"><g class="fills"><g><path class="js-fill" d="M461.71,3080.79L461.71,3080.79L461.71,211.73L461.71,186.84L451.4,186.84L451.4,176.17L461.71,176.17L461.71,143.55L461.71,176.17L472.03,176.17L472.03,186.84L461.71,186.84L461.71,211.73" style="fill: rgb(255, 0, 0); fill-opacity: 1; stroke-width: 0;"/></g></g><g class="errorbars"/><g class="lines"><path class="js-line" d="M461.71,211.73L461.71,186.84L451.4,186.84L451.4,176.17L461.71,176.17L461.71,143.55L461.71,176.17L472.03,176.17L472.03,186.84L461.71,186.84L461.71,211.73" style="vector-effect: non-scaling-stroke; fill: none; stroke: rgb(255, 0, 0); stroke-opacity: 1; stroke-width: 0.5px; opacity: 1;"/></g><g class="points"/><g class="text"/></g><g class="trace scatter trace813f47" style="stroke-miterlimit: 2;"><g class="fills"><g><path class="js-fill" d="M484.64,3080.79L484.64,3080.79L484.64,228.3L484.64,201L474.33,201L474.33,183.72L484.64,183.72L484.64,168.28L484.64,183.72L494.96,183.72L494.96,201L484.64,201L484.64,228.3" style="fill: rgb(0, 128, 0); fill-opacity: 1; stroke-width: 0;"/></g></g><g class="errorbars"/><g class="lines"><path class="js-line" d="M484.64,228.3L484.64,201L474.33,201L474.33,183.72L484.64,183.72L484.64,168.28L484.64,183.72L494.96,183.72L494.96,201L484.64,201L484.64,228.3" style="vector-effect: non-scaling-stroke; fill: none; stroke: rgb(0, 128, 0); stroke-opacity: 1; stroke-width: 0.5px; opacity: 1;"/></g><g class="points"/><g class="text"/></g><g class="trace scatter trace1dbc0f" style="stroke-miterlimit: 2;"><g class="fills"><g><path class="js-fill" d="M507.57,3080.79L507.57,3080.79L507.57,218.77L507.57,214.28L497.25,214.28L497.25,190.81L507.57,190.81L507.57,156.81L507.57,190.81L517.89,190.81L517.89,214.28L507.57,214.28L507.57,218.77" style="fill: rgb(255, 0, 0); fill-opacity: 1; stroke-width: 0;"/></g></g><g class="errorbars"/><g class="lines"><path class="js-line" d="M507.57,218.77L507.57,214.28L497.25,214.28L497.25,190.81L507.57,190.81L507.57,156.81L507.57,190.81L517.89,190.81L517.89,214.28L507.57,214.28L507.57,218.77" style="vector-effect: non-scaling-stroke; fill: none; stroke: rgb(255, 0, 0); stroke-opacity: 1; stroke-width: 0.5px; opacity: 1;"/></g><g class="points"/><g class="text"/></g><g class="trace scatter trace286dd5" style="stroke-miterlimit: 2;"><g class="fills"><g><path class="js-fill" d="M530.5,3080.79L530.5,3080.79L530.5,204.73L530.5,204.1L520.18,204.1L520.18,163.35L530.5,163.35L530.5,152.19L530.5,163.35L540.82,163.35L540.82,204.1L530.5,204.1L530.5,204.73" style="fill: rgb(0, 128, 0); fill-opacity: 1; stroke-width: 0;"/></g></g><g class="errorbars"/><g class="lines"><path class="js-line" d="M530.5,204.73L530.5,204.1L520.18,204.1L520.18,163.35L530.5,163.35L530.5,152.19L530.5,163.35L540.82,163.35L540.82,204.1L530.5,204.1L530.5,204.73" style="vector-effect: non-scaling-stroke; fill: none; stroke: rgb(0, 128, 0); stroke-opacity: 1; stroke-width: 0.5px; opacity: 1;"/></g><g class="points"/><g class="text"/></g><g class="trace scatter traceb452c9" style="stroke-miterlimit: 2; opacity: 1;"><g class="fills"/><g class="errorbars"/><g class="lines"/><g class="points"><path class="point" transform="translate(26.07,116.78)" d="M1,0A1,1 0 1,1 0,-1A1,1 0 0,1 1,0Z" style="opacity: 1; stroke-width: 0px; fill: rgb(255, 0, 0); fill-opacity: 1;"/></g><g class="text"/></g><g class="trace scatter traceddb37c" style="stroke-miterlimit: 2; opacity: 1;"><g class="fills"/><g class="errorbars"/><g class="lines"/><g class="points"><path class="point" transform="translate(49,165.63)" d="M1,0A1,1 0 1,1 0,-1A1,1 0 0,1 1,0Z" style="opacity: 1; stroke-width: 0px; fill: rgb(0, 128, 0); fill-opacity: 1;"/></g><g class="text"/></g><g class="trace scatter trace1514ad" style="stroke-miterlimit: 2; opacity: 1;"><g class="fills"/><g class="errorbars"/><g class="lines"/><g class="points"><path class="point" transform="translate(71.93,140.57)" d="M1,0A1,1 0 1,1 0,-1A1,1 0 0,1 1,0Z" style="opacity: 1; stroke-width: 0px; fill: rgb(255, 0, 0); fill-opacity: 1;"/></g><g class="text"/></g><g class="trace scatter trace9a934d" style="stroke-miterlimit: 2; opacity: 1;"><g class="fills"/><g class="errorbars"/><g class="lines"/><g class="points"><path class="point" transform="translate(94.86,158.74)" d="M1,0A1,1 0 1,1 0,-1A1,1 0 0,1 1,0Z" style="opacity: 1; stroke-width: 0px; fill: rgb(0, 128, 0); fill-opacity: 1;"/></g><g class="text"/></g><g class="trace scatter trace1b10ed" style="stroke-miterlimit: 2; opacity: 1;"><g class="fills"/><g class="errorbars"/><g class="lines"/><g class="points"><path class="point" transform="translate(117.78,140.18)" d="M1,0A1,1 0 1,1 0,-1A1,1 0 0,1 1,0Z" style="opacity: 1; stroke-width: 0px; fill: rgb(255, 0, 0); fill-opacity: 1;"/></g><g class="text"/></g><g class="trace scatter trace8a5cb7" style="stroke-miterlimit: 2; opacity: 1;"><g class="fills"/><g class="errorbars"/><g class="lines"/><g class="points"><path class="point" transform="translate(140.71,97.77)" d="M1,0A1,1 0 1,1 0,-1A1,1 0 0,1 1,0Z" style="opacity: 1; stroke-width: 0px; fill: rgb(0, 128, 0); fill-opacity: 1;"/></g><g class="text"/></g><g class="trace scatter trace957c0e" style="stroke-miterlimit: 2; opacity: 1;"><g class="fills"/><g class="errorbars"/><g class="lines"/><g class="points"><path class="point" transform="translate(163.64,35.39)" d="M1,0A1,1 0 1,1 0,-1A1,1 0 0,1 1,0Z" style="opacity: 1; stroke-width: 0px; fill: rgb(255, 0, 0); fill-opacity: 1;"/></g><g class="text"/></g><g class="trace scatter trace121008" style="stroke-miterlimit: 2; opacity: 1;"><g class="fills"/><g class="errorbars"/><g class="lines"/><g class="points"><path class="point" transform="translate(186.57,51.28)" d="M1,0A1,1 0 1,1 0,-1A1,1 0 0,1 1,0Z" style="opacity: 1; stroke-width: 0px; fill: rgb(0, 128, 0); fill-opacity: 1;"/></g><g class="text"/></g><g class="trace scatter tracedeedb4" style="stroke-miterlimit: 2; opacity: 1;"><g class="fills"/><g class="errorbars"/><g class="lines"/><g class="points"><path class="point" transform="translate(209.5,96.15)" d="M1,0A1,1 0 1,1 0,-1A1,1 0 0,1 1,0Z" style="opacity: 1; stroke-width: 0px; fill: rgb(255, 0, 0); fill-opacity: 1;"/></g><g class="text"/></g><g class="trace scatter tracebf1578" style="stroke-miterlimit: 2; opacity: 1;"><g class="fills"/><g class="errorbars"/><g class="lines"/><g class="points"><path class="point" transform="translate(232.43,165.72)" d="M1,0A1,1 0 1,1 0,-1A1,1 0 0,1 1,0Z" style="opacity: 1; stroke-width: 0px; fill: rgb(0, 128, 0); fill-opacity: 1;"/></g><g class="text"/></g><g class="trace scatter tracee3828e" style="stroke-miterlimit: 2; opacity: 1;"><g class="fills"/><g class="errorbars"/><g class="lines"/><g class="points"><path class="point" transform="translate(255.36,131.83)" d="M1,0A1,1 0 1,1 0,-1A1,1 0 0,1 1,0Z" style="opacity: 1; stroke-width: 0px; fill: rgb(0, 128, 0); fill-opacity: 1;"/></g><g class="text"/></g><g class="trace scatter trace13bfca" style="stroke-miterlimit: 2; opacity: 1;"><g class="fills"/><g class="errorbars"/><g class="lines"/><g class="points"><path class="point" transform="translate(278.29,151.46)" d="M1,0A1,1 0 1,1 0,-1A1,1 0 0,1 1,0Z" style="opacity: 1; stroke-width: 0px; fill: rgb(255, 0, 0); fill-opacity: 1;"/></g><g class="text"/></g><g class="trace scatter trace77e735" style="stroke-miterlimit: 2; opacity: 1;"><g class="fills"/><g class="errorbars"/><g class="lines"/><g class="points"><path class="point" transform="translate(301.21,148.73)" d="M1,0A1,1 0 1,1 0,-1A1,1 0 0,1 1,0Z" style="opacity: 1; stroke-width: 0px; fill: rgb(0, 128, 0); fill-opacity: 1;"/></g><g class="text"/></g><g class="trace scatter tracec99405" style="stroke-miterlimit: 2; opacity: 1;"><g class="fills"/><g class="errorbars"/><g class="lines"/><g class="points"><path class="point" transform="translate(324.14,148.63)" d="M1,0A1,1 0 1,1 0,-1A1,1 0 0,1 1,0Z" style="opacity: 1; stroke-width: 0px; fill: rgb(0, 128, 0); fill-opacity: 1;"/></g><g class="text"/></g><g class="trace scatter trace52331d" style="stroke-miterlimit: 2; opacity: 1;"><g class="fills"/><g class="errorbars"/><g class="lines"/><g class="points"><path class="point" transform="translate(347.07,187.82)" d="M1,0A1,1 0 1,1 0,-1A1,1 0 0,1 1,0Z" style="opacity: 1; stroke-width: 0px; fill: rgb(255, 0, 0); fill-opacity: 1;"/></g><g class="text"/></g><g class="trace scatter tracedb00db" style="stroke-miterlimit: 2; opacity: 1;"><g class="fills"/><g class="errorbars"/><g class="lines"/><g class="points"><path class="point" transform="translate(370,213.85)" d="M1,0A1,1 0 1,1 0,-1A1,1 0 0,1 1,0Z" style="opacity: 1; stroke-width: 0px; fill: rgb(255, 0, 0); fill-opacity: 1;"/></g><g class="text"/></g><g class="trace scatter tracee25fff" style="stroke-miterlimit: 2; opacity: 1;"><g class="fills"/><g class="errorbars"/><g class="lines"/><g class="points"><path class="point" transform="translate(392.93,232.77)" d="M1,0A1,1 0 1,1 0,-1A1,1 0 0,1 1,0Z" style="opacity: 1; stroke-width: 0px; fill: rgb(255, 0, 0); fill-opacity: 1;"/></g><g class="text"/></g><g class="trace scatter tracef525f6" style="stroke-miterlimit: 2; opacity: 1;"><g class="fills"/><g class="errorbars"/><g class="lines"/><g class="points"><path class="point" transform="translate(415.86,231.45)" d="M1,0A1,1 0 1,1 0,-1A1,1 0 0,1 1,0Z" style="opacity: 1; stroke-width: 0px; fill: rgb(0, 128, 0); fill-opacity: 1;"/></g><g class="text"/></g><g class="trace scatter tracebc449b" style="stroke-miterlimit: 2; opacity: 1;"><g class="fills"/><g class="errorbars"/><g class="lines"/><g class="points"><path class="point" transform="translate(438.79,203.43)" d="M1,0A1,1 0 1,1 0,-1A1,1 0 0,1 1,0Z" style="opacity: 1; stroke-width: 0px; fill: rgb(0, 128, 0); fill-opacity: 1;"/></g><g class="text"/></g><g class="trace scatter trace335a35" style="stroke-miterlimit: 2; opacity: 1;"><g class="fills"/><g class="errorbars"/><g class="lines"/><g class="points"><path class="point" transform="translate(461.71,181.51)" d="M1,0A1,1 0 1,1 0,-1A1,1 0 0,1 1,0Z" style="opacity: 1; stroke-width: 0px; fill: rgb(255, 0, 0); fill-opacity: 1;"/></g><g class="text"/></g><g class="trace scatter trace662582" style="stroke-miterlimit: 2; opacity: 1;"><g class="fills"/><g class="errorbars"/><g class="lines"/><g class="points"><path class="point" transform="translate(484.64,192.36)" d="M1,0A1,1 0 1,1 0,-1A1,1 0 0,1 1,0Z" style="opacity: 1; stroke-width: 0px; fill: rgb(0, 128, 0); fill-opacity: 1;"/></g><g class="text"/></g><g class="trace scatter trace137b7e" style="stroke-miterlimit: 2; opacity: 1;"><g class="fills"/><g class="errorbars"/><g class="lines"/><g class="points"><path class="point" transform="translate(507.57,202.55)" d="M1,0A1,1 0 1,1 0,-1A1,1 0 0,1 1,0Z" style="opacity: 1; stroke-width: 0px; fill: rgb(255, 0, 0); fill-opacity: 1;"/></g><g class="text"/></g><g class="trace scatter trace47712e" style="stroke-miterlimit: 2; opacity: 1;"><g class="fills"/><g class="errorbars"/><g class="lines"/><g class="points"><path class="point" transform="translate(530.5,183.72)" d="M1,0A1,1 0 1,1 0,-1A1,1 0 0,1 1,0Z" style="opacity: 1; stroke-width: 0px; fill: rgb(0, 128, 0); fill-opacity: 1;"/></g><g class="text"/></g></g></g><g class="overplot"/><path class="xlines-above crisp" d="M38.4925634295713,296.9566929133858H596.0629921259842" style="fill: none; stroke-width: 1px; stroke: rgb(0, 0, 0); stroke-opacity: 1;"/><path class="ylines-above crisp" d="M38.9925634295713,23.543307086614167V296.4566929133858" style="fill: none; stroke-width: 1px; stroke: rgb(0, 0, 0); stroke-opacity: 1;"/><g class="overlines-above"/><g class="xaxislayer-above"><path class="xtick ticks crisp" d="M0,296.4566929133858v-5" transform="translate(65.5625634295713,0)" style="stroke: rgb(0, 0, 0); stroke-opacity: 1; stroke-width: 1px;"/><path class="xtick ticks crisp" d="M0,296.4566929133858v-5" transform="translate(88.4925634295713,0)" style="stroke: rgb(0, 0, 0); stroke-opacity: 1; stroke-width: 1px;"/><path class="xtick ticks crisp" d="M0,296.4566929133858v-5" transform="translate(111.42256342957131,0)" style="stroke: rgb(0, 0, 0); stroke-opacity: 1; stroke-width: 1px;"/><path class="xtick ticks crisp" d="M0,296.4566929133858v-5" transform="translate(134.3525634295713,0)" style="stroke: rgb(0, 0, 0); stroke-opacity: 1; stroke-width: 1px;"/><path class="xtick ticks crisp" d="M0,296.4566929133858v-5" transform="translate(157.2725634295713,0)" style="stroke: rgb(0, 0, 0); stroke-opacity: 1; stroke-width: 1px;"/><path class="xtick ticks crisp" d="M0,296.4566929133858v-5" transform="translate(180.2025634295713,0)" style="stroke: rgb(0, 0, 0); stroke-opacity: 1; stroke-width: 1px;"/><path class="xtick ticks crisp" d="M0,296.4566929133858v-5" transform="translate(203.1325634295713,0)" style="stroke: rgb(0, 0, 0); stroke-opacity: 1; stroke-width: 1px;"/><path class="xtick ticks crisp" d="M0,296.4566929133858v-5" transform="translate(226.0625634295713,0)" style="stroke: rgb(0, 0, 0); stroke-opacity: 1; stroke-width: 1px;"/><path class="xtick ticks crisp" d="M0,296.4566929133858v-5" transform="translate(248.9925634295713,0)" style="stroke: rgb(0, 0, 0); stroke-opacity: 1; stroke-width: 1px;"/><path class="xtick ticks crisp" d="M0,296.4566929133858v-5" transform="translate(271.9225634295713,0)" style="stroke: rgb(0, 0, 0); stroke-opacity: 1; stroke-width: 1px;"/><path class="xtick ticks crisp" d="M0,296.4566929133858v-5" transform="translate(294.8525634295713,0)" style="stroke: rgb(0, 0, 0); stroke-opacity: 1; stroke-width: 1px;"/><path class="xtick ticks crisp" d="M0,296.4566929133858v-5" transform="translate(317.7825634295713,0)" style="stroke: rgb(0, 0, 0); stroke-opacity: 1; stroke-width: 1px;"/><path class="xtick ticks crisp" d="M0,296.4566929133858v-5" transform="translate(340.7025634295713,0)" style="stroke: rgb(0, 0, 0); stroke-opacity: 1; stroke-width: 1px;"/><path class="xtick ticks crisp" d="M0,296.4566929133858v-5" transform="translate(363.6325634295713,0)" style="stroke: rgb(0, 0, 0); stroke-opacity: 1; stroke-width: 1px;"/><path class="xtick ticks crisp" d="M0,296.4566929133858v-5" transform="translate(386.5625634295713,0)" style="stroke: rgb(0, 0, 0); stroke-opacity: 1; stroke-width: 1px;"/><path class="xtick ticks crisp" d="M0,296.4566929133858v-5" transform="translate(409.4925634295713,0)" style="stroke: rgb(0, 0, 0); stroke-opacity: 1; stroke-width: 1px;"/><path class="xtick ticks crisp" d="M0,296.4566929133858v-5" transform="translate(432.4225634295713,0)" style="stroke: rgb(0, 0, 0); stroke-opacity: 1; stroke-width: 1px;"/><path class="xtick ticks crisp" d="M0,296.4566929133858v-5" transform="translate(455.3525634295713,0)" style="stroke: rgb(0, 0, 0); stroke-opacity: 1; stroke-width: 1px;"/><path class="xtick ticks crisp" d="M0,296.4566929133858v-5" transform="translate(478.2825634295713,0)" style="stroke: rgb(0, 0, 0); stroke-opacity: 1; stroke-width: 1px;"/><path class="xtick ticks crisp" d="M0,296.4566929133858v-5" transform="translate(501.2025634295713,0)" style="stroke: rgb(0, 0, 0); stroke-opacity: 1; stroke-width: 1px;"/><path class="xtick ticks crisp" d="M0,296.4566929133858v-5" transform="translate(524.1325634295713,0)" style="stroke: rgb(0, 0, 0); stroke-opacity: 1; stroke-width: 1px;"/><path class="xtick ticks crisp" d="M0,296.4566929133858v-5" transform="translate(547.0625634295712,0)" style="stroke: rgb(0, 0, 0); stroke-opacity: 1; stroke-width: 1px;"/><path class="xtick ticks crisp" d="M0,296.4566929133858v-5" transform="translate(569.9925634295713,0)" style="stroke: rgb(0, 0, 0); stroke-opacity: 1; stroke-width: 1px;"/><g class="xtick"><text text-anchor="end" x="0" y="310.65669291338577" transform="translate(65.5625634295713,0) rotate(-90,0,305.15669291338577)" style="font-family: sans-serif; font-size: 11px; fill: rgb(0, 0, 0); fill-opacity: 1; white-space: pre;">2020-07-13</text></g><g class="xtick"><text text-anchor="end" x="0" y="310.65669291338577" transform="translate(88.4925634295713,0) rotate(-90,0,305.15669291338577)" style="font-family: sans-serif; font-size: 11px; fill: rgb(0, 0, 0); fill-opacity: 1; white-space: pre;">2020-07-14</text></g><g class="xtick"><text text-anchor="end" x="0" y="310.65669291338577" transform="translate(111.42256342957131,0) rotate(-90,0,305.15669291338577)" style="font-family: sans-serif; font-size: 11px; fill: rgb(0, 0, 0); fill-opacity: 1; white-space: pre;">2020-07-15</text></g><g class="xtick"><text text-anchor="end" x="0" y="310.65669291338577" transform="translate(134.3525634295713,0) rotate(-90,0,305.15669291338577)" style="font-family: sans-serif; font-size: 11px; fill: rgb(0, 0, 0); fill-opacity: 1; white-space: pre;">2020-07-16</text></g><g class="xtick"><text text-anchor="end" x="0" y="310.65669291338577" transform="translate(157.2725634295713,0) rotate(-90,0,305.15669291338577)" style="font-family: sans-serif; font-size: 11px; fill: rgb(0, 0, 0); fill-opacity: 1; white-space: pre;">2020-07-17</text></g><g class="xtick"><text text-anchor="end" x="0" y="310.65669291338577" transform="translate(180.2025634295713,0) rotate(-90,0,305.15669291338577)" style="font-family: sans-serif; font-size: 11px; fill: rgb(0, 0, 0); fill-opacity: 1; white-space: pre;">2020-07-20</text></g><g class="xtick"><text text-anchor="end" x="0" y="310.65669291338577" transform="translate(203.1325634295713,0) rotate(-90,0,305.15669291338577)" style="font-family: sans-serif; font-size: 11px; fill: rgb(0, 0, 0); fill-opacity: 1; white-space: pre;">2020-07-21</text></g><g class="xtick"><text text-anchor="end" x="0" y="310.65669291338577" transform="translate(226.0625634295713,0) rotate(-90,0,305.15669291338577)" style="font-family: sans-serif; font-size: 11px; fill: rgb(0, 0, 0); fill-opacity: 1; white-space: pre;">2020-07-22</text></g><g class="xtick"><text text-anchor="end" x="0" y="310.65669291338577" transform="translate(248.9925634295713,0) rotate(-90,0,305.15669291338577)" style="font-family: sans-serif; font-size: 11px; fill: rgb(0, 0, 0); fill-opacity: 1; white-space: pre;">2020-07-23</text></g><g class="xtick"><text text-anchor="end" x="0" y="310.65669291338577" transform="translate(271.9225634295713,0) rotate(-90,0,305.15669291338577)" style="font-family: sans-serif; font-size: 11px; fill: rgb(0, 0, 0); fill-opacity: 1; white-space: pre;">2020-07-24</text></g><g class="xtick"><text text-anchor="end" x="0" y="310.65669291338577" transform="translate(294.8525634295713,0) rotate(-90,0,305.15669291338577)" style="font-family: sans-serif; font-size: 11px; fill: rgb(0, 0, 0); fill-opacity: 1; white-space: pre;">2020-07-27</text></g><g class="xtick"><text text-anchor="end" x="0" y="310.65669291338577" transform="translate(317.7825634295713,0) rotate(-90,0,305.15669291338577)" style="font-family: sans-serif; font-size: 11px; fill: rgb(0, 0, 0); fill-opacity: 1; white-space: pre;">2020-07-28</text></g><g class="xtick"><text text-anchor="end" x="0" y="310.65669291338577" transform="translate(340.7025634295713,0) rotate(-90,0,305.15669291338577)" style="font-family: sans-serif; font-size: 11px; fill: rgb(0, 0, 0); fill-opacity: 1; white-space: pre;">2020-07-29</text></g><g class="xtick"><text text-anchor="end" x="0" y="310.65669291338577" transform="translate(363.6325634295713,0) rotate(-90,0,305.15669291338577)" style="font-family: sans-serif; font-size: 11px; fill: rgb(0, 0, 0); fill-opacity: 1; white-space: pre;">2020-07-30</text></g><g class="xtick"><text text-anchor="end" x="0" y="310.65669291338577" transform="translate(386.5625634295713,0) rotate(-90,0,305.15669291338577)" style="font-family: sans-serif; font-size: 11px; fill: rgb(0, 0, 0); fill-opacity: 1; white-space: pre;">2020-07-31</text></g><g class="xtick"><text text-anchor="end" x="0" y="310.65669291338577" transform="translate(409.4925634295713,0) rotate(-90,0,305.15669291338577)" style="font-family: sans-serif; font-size: 11px; fill: rgb(0, 0, 0); fill-opacity: 1; white-space: pre;">2020-08-03</text></g><g class="xtick"><text text-anchor="end" x="0" y="310.65669291338577" transform="translate(432.4225634295713,0) rotate(-90,0,305.15669291338577)" style="font-family: sans-serif; font-size: 11px; fill: rgb(0, 0, 0); fill-opacity: 1; white-space: pre;">2020-08-04</text></g><g class="xtick"><text text-anchor="end" x="0" y="310.65669291338577" transform="translate(455.3525634295713,0) rotate(-90,0,305.15669291338577)" style="font-family: sans-serif; font-size: 11px; fill: rgb(0, 0, 0); fill-opacity: 1; white-space: pre;">2020-08-05</text></g><g class="xtick"><text text-anchor="end" x="0" y="310.65669291338577" transform="translate(478.2825634295713,0) rotate(-90,0,305.15669291338577)" style="font-family: sans-serif; font-size: 11px; fill: rgb(0, 0, 0); fill-opacity: 1; white-space: pre;">2020-08-06</text></g><g class="xtick"><text text-anchor="end" x="0" y="310.65669291338577" transform="translate(501.2025634295713,0) rotate(-90,0,305.15669291338577)" style="font-family: sans-serif; font-size: 11px; fill: rgb(0, 0, 0); fill-opacity: 1; white-space: pre;">2020-08-07</text></g><g class="xtick"><text text-anchor="end" x="0" y="310.65669291338577" transform="translate(524.1325634295713,0) rotate(-90,0,305.15669291338577)" style="font-family: sans-serif; font-size: 11px; fill: rgb(0, 0, 0); fill-opacity: 1; white-space: pre;">2020-08-10</text></g><g class="xtick"><text text-anchor="end" x="0" y="310.65669291338577" transform="translate(547.0625634295712,0) rotate(-90,0,305.15669291338577)" style="font-family: sans-serif; font-size: 11px; fill: rgb(0, 0, 0); fill-opacity: 1; white-space: pre;">2020-08-11</text></g><g class="xtick"><text text-anchor="end" x="0" y="310.65669291338577" transform="translate(569.9925634295713,0) rotate(-90,0,305.15669291338577)" style="font-family: sans-serif; font-size: 11px; fill: rgb(0, 0, 0); fill-opacity: 1; white-space: pre;">2020-08-12</text></g></g><g class="yaxislayer-above"><path class="ytick ticks crisp" d="M39.4925634295713,0h5" transform="translate(0,248.12330708661418)" style="stroke: rgb(0, 0, 0); stroke-opacity: 1; stroke-width: 1px;"/><path class="ytick ticks crisp" d="M39.4925634295713,0h5" transform="translate(0,199.71330708661415)" style="stroke: rgb(0, 0, 0); stroke-opacity: 1; stroke-width: 1px;"/><path class="ytick ticks crisp" d="M39.4925634295713,0h5" transform="translate(0,151.30330708661418)" style="stroke: rgb(0, 0, 0); stroke-opacity: 1; stroke-width: 1px;"/><path class="ytick ticks crisp" d="M39.4925634295713,0h5" transform="translate(0,102.89330708661416)" style="stroke: rgb(0, 0, 0); stroke-opacity: 1; stroke-width: 1px;"/><path class="ytick ticks crisp" d="M39.4925634295713,0h5" transform="translate(0,54.48330708661417)" style="stroke: rgb(0, 0, 0); stroke-opacity: 1; stroke-width: 1px;"/><g class="ytick"><text text-anchor="end" x="36.292563429571295" y="3.8499999999999996" transform="translate(0,248.12330708661418)" style="font-family: sans-serif; font-size: 11px; fill: rgb(0, 0, 0); fill-opacity: 1; white-space: pre;">1475</text></g><g class="ytick"><text text-anchor="end" x="36.292563429571295" y="3.8499999999999996" transform="translate(0,199.71330708661415)" style="font-family: sans-serif; font-size: 11px; fill: rgb(0, 0, 0); fill-opacity: 1; white-space: pre;">1500</text></g><g class="ytick"><text text-anchor="end" x="36.292563429571295" y="3.8499999999999996" transform="translate(0,151.30330708661418)" style="font-family: sans-serif; font-size: 11px; fill: rgb(0, 0, 0); fill-opacity: 1; white-space: pre;">1525</text></g><g class="ytick"><text text-anchor="end" x="36.292563429571295" y="3.8499999999999996" transform="translate(0,102.89330708661416)" style="font-family: sans-serif; font-size: 11px; fill: rgb(0, 0, 0); fill-opacity: 1; white-space: pre;">1550</text></g><g class="ytick"><text text-anchor="end" x="36.292563429571295" y="3.8499999999999996" transform="translate(0,54.48330708661417)" style="font-family: sans-serif; font-size: 11px; fill: rgb(0, 0, 0); fill-opacity: 1; white-space: pre;">1575</text></g></g><g class="overaxes-above"/></g></g><g class="polarlayer"/><g class="ternarylayer"/><g class="geolayer"/><g class="funnelarealayer"/><g class="pielayer"/><g class="treemaplayer"/><g class="sunburstlayer"/><g class="glimages"/><defs id="topdefs-421e79"><g class="clips"/></defs><g class="layer-above"><g class="imagelayer"/><g class="shapelayer"/></g><g class="infolayer"><g class="g-gtitle"/><g class="g-xtitle"/><g class="g-ytitle"/></g></svg>