<?xml version="1.0" encoding="utf-8"?>
<svg xmlns="http://www.w3.org/2000/svg" xmlns:xlink="http://www.w3.org/1999/xlink" width="600" height="400" viewBox="0 0 2400 1600">
<defs>
  <clipPath id="clip750">
    <rect x="0" y="0" width="2400" height="1600"/>
  </clipPath>
</defs>
<path clip-path="url(#clip750)" d="
M0 1600 L2400 1600 L2400 0 L0 0  Z
  " fill="#ffffff" fill-rule="evenodd" fill-opacity="1"/>
<defs>
  <clipPath id="clip751">
    <rect x="480" y="0" width="1681" height="1600"/>
  </clipPath>
</defs>
<path clip-path="url(#clip750)" d="
M201.019 1486.45 L2352.76 1486.45 L2352.76 47.2441 L201.019 47.2441  Z
  " fill="#ffffff" fill-rule="evenodd" fill-opacity="1"/>
<defs>
  <clipPath id="clip752">
    <rect x="201" y="47" width="2153" height="1440"/>
  </clipPath>
</defs>
<polyline clip-path="url(#clip752)" style="stroke:#000000; stroke-width:2; stroke-opacity:0.1; fill:none" points="
  261.917,1486.45 261.917,47.2441 
  "/>
<polyline clip-path="url(#clip752)" style="stroke:#000000; stroke-width:2; stroke-opacity:0.1; fill:none" points="
  785.773,1486.45 785.773,47.2441 
  "/>
<polyline clip-path="url(#clip752)" style="stroke:#000000; stroke-width:2; stroke-opacity:0.1; fill:none" points="
  1309.63,1486.45 1309.63,47.2441 
  "/>
<polyline clip-path="url(#clip752)" style="stroke:#000000; stroke-width:2; stroke-opacity:0.1; fill:none" points="
  1833.48,1486.45 1833.48,47.2441 
  "/>
<polyline clip-path="url(#clip750)" style="stroke:#000000; stroke-width:4; stroke-opacity:1; fill:none" points="
  201.019,1486.45 2352.76,1486.45 
  "/>
<polyline clip-path="url(#clip750)" style="stroke:#000000; stroke-width:4; stroke-opacity:1; fill:none" points="
  261.917,1486.45 261.917,1469.18 
  "/>
<polyline clip-path="url(#clip750)" style="stroke:#000000; stroke-width:4; stroke-opacity:1; fill:none" points="
  785.773,1486.45 785.773,1469.18 
  "/>
<polyline clip-path="url(#clip750)" style="stroke:#000000; stroke-width:4; stroke-opacity:1; fill:none" points="
  1309.63,1486.45 1309.63,1469.18 
  "/>
<polyline clip-path="url(#clip750)" style="stroke:#000000; stroke-width:4; stroke-opacity:1; fill:none" points="
  1833.48,1486.45 1833.48,1469.18 
  "/>
<path clip-path="url(#clip750)" d="M 0 0 M133.712 1543.18 L150.032 1543.18 L150.032 1547.12 L128.087 1547.12 L128.087 1543.18 Q130.749 1540.43 135.333 1535.8 Q139.939 1531.15 141.12 1529.81 Q143.365 1527.28 144.245 1525.55 Q145.147 1523.79 145.147 1522.1 Q145.147 1519.34 143.203 1517.61 Q141.282 1515.87 138.18 1515.87 Q135.981 1515.87 133.527 1516.63 Q131.096 1517.4 128.319 1518.95 L128.319 1514.23 Q131.143 1513.09 133.596 1512.51 Q136.05 1511.93 138.087 1511.93 Q143.457 1511.93 146.652 1514.62 Q149.846 1517.31 149.846 1521.8 Q149.846 1523.93 149.036 1525.85 Q148.249 1527.74 146.143 1530.34 Q145.564 1531.01 142.462 1534.23 Q139.36 1537.42 133.712 1543.18 Z" fill="#000000" fill-rule="evenodd" fill-opacity="1" /><path clip-path="url(#clip750)" d="M 0 0 M169.846 1515.64 Q166.235 1515.64 164.406 1519.2 Q162.601 1522.75 162.601 1529.87 Q162.601 1536.98 164.406 1540.55 Q166.235 1544.09 169.846 1544.09 Q173.48 1544.09 175.286 1540.55 Q177.115 1536.98 177.115 1529.87 Q177.115 1522.75 175.286 1519.2 Q173.48 1515.64 169.846 1515.64 M169.846 1511.93 Q175.656 1511.93 178.712 1516.54 Q181.791 1521.12 181.791 1529.87 Q181.791 1538.6 178.712 1543.21 Q175.656 1547.79 169.846 1547.79 Q164.036 1547.79 160.957 1543.21 Q157.902 1538.6 157.902 1529.87 Q157.902 1521.12 160.957 1516.54 Q164.036 1511.93 169.846 1511.93 Z" fill="#000000" fill-rule="evenodd" fill-opacity="1" /><path clip-path="url(#clip750)" d="M 0 0 M194.036 1543.18 L210.355 1543.18 L210.355 1547.12 L188.411 1547.12 L188.411 1543.18 Q191.073 1540.43 195.656 1535.8 Q200.263 1531.15 201.443 1529.81 Q203.689 1527.28 204.568 1525.55 Q205.471 1523.79 205.471 1522.1 Q205.471 1519.34 203.527 1517.61 Q201.605 1515.87 198.503 1515.87 Q196.304 1515.87 193.851 1516.63 Q191.42 1517.4 188.642 1518.95 L188.642 1514.23 Q191.466 1513.09 193.92 1512.51 Q196.374 1511.93 198.411 1511.93 Q203.781 1511.93 206.976 1514.62 Q210.17 1517.31 210.17 1521.8 Q210.17 1523.93 209.36 1525.85 Q208.573 1527.74 206.466 1530.34 Q205.888 1531.01 202.786 1534.23 Q199.684 1537.42 194.036 1543.18 Z" fill="#000000" fill-rule="evenodd" fill-opacity="1" /><path clip-path="url(#clip750)" d="M 0 0 M220.98 1543.18 L228.619 1543.18 L228.619 1516.82 L220.309 1518.49 L220.309 1514.23 L228.573 1512.56 L233.249 1512.56 L233.249 1543.18 L240.888 1543.18 L240.888 1547.12 L220.98 1547.12 L220.98 1543.18 Z" fill="#000000" fill-rule="evenodd" fill-opacity="1" /><path clip-path="url(#clip750)" d="M 0 0 M247.577 1532.24 L260.054 1532.24 L260.054 1536.03 L247.577 1536.03 L247.577 1532.24 Z" fill="#000000" fill-rule="evenodd" fill-opacity="1" /><path clip-path="url(#clip750)" d="M 0 0 M277.438 1515.64 Q273.827 1515.64 271.998 1519.2 Q270.193 1522.75 270.193 1529.87 Q270.193 1536.98 271.998 1540.55 Q273.827 1544.09 277.438 1544.09 Q281.072 1544.09 282.878 1540.55 Q284.707 1536.98 284.707 1529.87 Q284.707 1522.75 282.878 1519.2 Q281.072 1515.64 277.438 1515.64 M277.438 1511.93 Q283.248 1511.93 286.304 1516.54 Q289.383 1521.12 289.383 1529.87 Q289.383 1538.6 286.304 1543.21 Q283.248 1547.79 277.438 1547.79 Q271.628 1547.79 268.549 1543.21 Q265.494 1538.6 265.494 1529.87 Q265.494 1521.12 268.549 1516.54 Q271.628 1511.93 277.438 1511.93 Z" fill="#000000" fill-rule="evenodd" fill-opacity="1" /><path clip-path="url(#clip750)" d="M 0 0 M311.767 1528.49 Q315.123 1529.2 316.998 1531.47 Q318.896 1533.74 318.896 1537.07 Q318.896 1542.19 315.378 1544.99 Q311.859 1547.79 305.378 1547.79 Q303.202 1547.79 300.887 1547.35 Q298.596 1546.93 296.142 1546.08 L296.142 1541.56 Q298.086 1542.7 300.401 1543.28 Q302.716 1543.86 305.239 1543.86 Q309.637 1543.86 311.929 1542.12 Q314.244 1540.38 314.244 1537.07 Q314.244 1534.02 312.091 1532.31 Q309.961 1530.57 306.142 1530.57 L302.114 1530.57 L302.114 1526.73 L306.327 1526.73 Q309.776 1526.73 311.605 1525.36 Q313.433 1523.97 313.433 1521.38 Q313.433 1518.72 311.535 1517.31 Q309.66 1515.87 306.142 1515.87 Q304.221 1515.87 302.021 1516.29 Q299.822 1516.7 297.184 1517.58 L297.184 1513.42 Q299.846 1512.68 302.16 1512.31 Q304.498 1511.93 306.558 1511.93 Q311.883 1511.93 314.984 1514.37 Q318.086 1516.77 318.086 1520.89 Q318.086 1523.76 316.443 1525.75 Q314.799 1527.72 311.767 1528.49 Z" fill="#000000" fill-rule="evenodd" fill-opacity="1" /><path clip-path="url(#clip750)" d="M 0 0 M325.007 1532.24 L337.484 1532.24 L337.484 1536.03 L325.007 1536.03 L325.007 1532.24 Z" fill="#000000" fill-rule="evenodd" fill-opacity="1" /><path clip-path="url(#clip750)" d="M 0 0 M354.868 1515.64 Q351.257 1515.64 349.429 1519.2 Q347.623 1522.75 347.623 1529.87 Q347.623 1536.98 349.429 1540.55 Q351.257 1544.09 354.868 1544.09 Q358.503 1544.09 360.308 1540.55 Q362.137 1536.98 362.137 1529.87 Q362.137 1522.75 360.308 1519.2 Q358.503 1515.64 354.868 1515.64 M354.868 1511.93 Q360.679 1511.93 363.734 1516.54 Q366.813 1521.12 366.813 1529.87 Q366.813 1538.6 363.734 1543.21 Q360.679 1547.79 354.868 1547.79 Q349.058 1547.79 345.98 1543.21 Q342.924 1538.6 342.924 1529.87 Q342.924 1521.12 345.98 1516.54 Q349.058 1511.93 354.868 1511.93 Z" fill="#000000" fill-rule="evenodd" fill-opacity="1" /><path clip-path="url(#clip750)" d="M 0 0 M375.84 1543.18 L383.479 1543.18 L383.479 1516.82 L375.169 1518.49 L375.169 1514.23 L383.433 1512.56 L388.109 1512.56 L388.109 1543.18 L395.748 1543.18 L395.748 1547.12 L375.84 1547.12 L375.84 1543.18 Z" fill="#000000" fill-rule="evenodd" fill-opacity="1" /><path clip-path="url(#clip750)" d="M 0 0 M657.047 1543.18 L673.366 1543.18 L673.366 1547.12 L651.422 1547.12 L651.422 1543.18 Q654.084 1540.43 658.667 1535.8 Q663.274 1531.15 664.454 1529.81 Q666.7 1527.28 667.579 1525.55 Q668.482 1523.79 668.482 1522.1 Q668.482 1519.34 666.538 1517.61 Q664.616 1515.87 661.514 1515.87 Q659.315 1515.87 656.862 1516.63 Q654.431 1517.4 651.653 1518.95 L651.653 1514.23 Q654.477 1513.09 656.931 1512.51 Q659.385 1511.93 661.422 1511.93 Q666.792 1511.93 669.987 1514.62 Q673.181 1517.31 673.181 1521.8 Q673.181 1523.93 672.371 1525.85 Q671.584 1527.74 669.477 1530.34 Q668.899 1531.01 665.797 1534.23 Q662.695 1537.42 657.047 1543.18 Z" fill="#000000" fill-rule="evenodd" fill-opacity="1" /><path clip-path="url(#clip750)" d="M 0 0 M693.181 1515.64 Q689.57 1515.64 687.741 1519.2 Q685.936 1522.75 685.936 1529.87 Q685.936 1536.98 687.741 1540.55 Q689.57 1544.09 693.181 1544.09 Q696.815 1544.09 698.621 1540.55 Q700.449 1536.98 700.449 1529.87 Q700.449 1522.75 698.621 1519.2 Q696.815 1515.64 693.181 1515.64 M693.181 1511.93 Q698.991 1511.93 702.047 1516.54 Q705.125 1521.12 705.125 1529.87 Q705.125 1538.6 702.047 1543.21 Q698.991 1547.79 693.181 1547.79 Q687.371 1547.79 684.292 1543.21 Q681.237 1538.6 681.237 1529.87 Q681.237 1521.12 684.292 1516.54 Q687.371 1511.93 693.181 1511.93 Z" fill="#000000" fill-rule="evenodd" fill-opacity="1" /><path clip-path="url(#clip750)" d="M 0 0 M717.371 1543.18 L733.69 1543.18 L733.69 1547.12 L711.746 1547.12 L711.746 1543.18 Q714.408 1540.43 718.991 1535.8 Q723.597 1531.15 724.778 1529.81 Q727.023 1527.28 727.903 1525.55 Q728.806 1523.79 728.806 1522.1 Q728.806 1519.34 726.861 1517.61 Q724.94 1515.87 721.838 1515.87 Q719.639 1515.87 717.185 1516.63 Q714.755 1517.4 711.977 1518.95 L711.977 1514.23 Q714.801 1513.09 717.255 1512.51 Q719.709 1511.93 721.746 1511.93 Q727.116 1511.93 730.31 1514.62 Q733.505 1517.31 733.505 1521.8 Q733.505 1523.93 732.695 1525.85 Q731.908 1527.74 729.801 1530.34 Q729.222 1531.01 726.121 1534.23 Q723.019 1537.42 717.371 1543.18 Z" fill="#000000" fill-rule="evenodd" fill-opacity="1" /><path clip-path="url(#clip750)" d="M 0 0 M744.315 1543.18 L751.954 1543.18 L751.954 1516.82 L743.644 1518.49 L743.644 1514.23 L751.907 1512.56 L756.583 1512.56 L756.583 1543.18 L764.222 1543.18 L764.222 1547.12 L744.315 1547.12 L744.315 1543.18 Z" fill="#000000" fill-rule="evenodd" fill-opacity="1" /><path clip-path="url(#clip750)" d="M 0 0 M770.912 1532.24 L783.389 1532.24 L783.389 1536.03 L770.912 1536.03 L770.912 1532.24 Z" fill="#000000" fill-rule="evenodd" fill-opacity="1" /><path clip-path="url(#clip750)" d="M 0 0 M800.773 1515.64 Q797.162 1515.64 795.333 1519.2 Q793.528 1522.75 793.528 1529.87 Q793.528 1536.98 795.333 1540.55 Q797.162 1544.09 800.773 1544.09 Q804.407 1544.09 806.213 1540.55 Q808.041 1536.98 808.041 1529.87 Q808.041 1522.75 806.213 1519.2 Q804.407 1515.64 800.773 1515.64 M800.773 1511.93 Q806.583 1511.93 809.639 1516.54 Q812.717 1521.12 812.717 1529.87 Q812.717 1538.6 809.639 1543.21 Q806.583 1547.79 800.773 1547.79 Q794.963 1547.79 791.884 1543.21 Q788.829 1538.6 788.829 1529.87 Q788.829 1521.12 791.884 1516.54 Q794.963 1511.93 800.773 1511.93 Z" fill="#000000" fill-rule="evenodd" fill-opacity="1" /><path clip-path="url(#clip750)" d="M 0 0 M835.101 1528.49 Q838.458 1529.2 840.333 1531.47 Q842.231 1533.74 842.231 1537.07 Q842.231 1542.19 838.713 1544.99 Q835.194 1547.79 828.713 1547.79 Q826.537 1547.79 824.222 1547.35 Q821.93 1546.93 819.477 1546.08 L819.477 1541.56 Q821.421 1542.7 823.736 1543.28 Q826.051 1543.86 828.574 1543.86 Q832.972 1543.86 835.264 1542.12 Q837.578 1540.38 837.578 1537.07 Q837.578 1534.02 835.426 1532.31 Q833.296 1530.57 829.477 1530.57 L825.449 1530.57 L825.449 1526.73 L829.662 1526.73 Q833.111 1526.73 834.939 1525.36 Q836.768 1523.97 836.768 1521.38 Q836.768 1518.72 834.87 1517.31 Q832.995 1515.87 829.477 1515.87 Q827.555 1515.87 825.356 1516.29 Q823.157 1516.7 820.518 1517.58 L820.518 1513.42 Q823.18 1512.68 825.495 1512.31 Q827.833 1511.93 829.893 1511.93 Q835.217 1511.93 838.319 1514.37 Q841.421 1516.77 841.421 1520.89 Q841.421 1523.76 839.777 1525.75 Q838.134 1527.72 835.101 1528.49 Z" fill="#000000" fill-rule="evenodd" fill-opacity="1" /><path clip-path="url(#clip750)" d="M 0 0 M848.342 1532.24 L860.819 1532.24 L860.819 1536.03 L848.342 1536.03 L848.342 1532.24 Z" fill="#000000" fill-rule="evenodd" fill-opacity="1" /><path clip-path="url(#clip750)" d="M 0 0 M878.203 1515.64 Q874.592 1515.64 872.763 1519.2 Q870.958 1522.75 870.958 1529.87 Q870.958 1536.98 872.763 1540.55 Q874.592 1544.09 878.203 1544.09 Q881.837 1544.09 883.643 1540.55 Q885.472 1536.98 885.472 1529.87 Q885.472 1522.75 883.643 1519.2 Q881.837 1515.64 878.203 1515.64 M878.203 1511.93 Q884.013 1511.93 887.069 1516.54 Q890.147 1521.12 890.147 1529.87 Q890.147 1538.6 887.069 1543.21 Q884.013 1547.79 878.203 1547.79 Q872.393 1547.79 869.314 1543.21 Q866.259 1538.6 866.259 1529.87 Q866.259 1521.12 869.314 1516.54 Q872.393 1511.93 878.203 1511.93 Z" fill="#000000" fill-rule="evenodd" fill-opacity="1" /><path clip-path="url(#clip750)" d="M 0 0 M898.504 1546.4 L898.504 1542.14 Q900.263 1542.98 902.069 1543.42 Q903.874 1543.86 905.61 1543.86 Q910.24 1543.86 912.671 1540.75 Q915.124 1537.63 915.471 1531.29 Q914.129 1533.28 912.069 1534.34 Q910.008 1535.41 907.508 1535.41 Q902.323 1535.41 899.291 1532.28 Q896.282 1529.13 896.282 1523.69 Q896.282 1518.37 899.43 1515.15 Q902.578 1511.93 907.809 1511.93 Q913.805 1511.93 916.953 1516.54 Q920.124 1521.12 920.124 1529.87 Q920.124 1538.05 916.235 1542.93 Q912.37 1547.79 905.819 1547.79 Q904.059 1547.79 902.254 1547.44 Q900.448 1547.1 898.504 1546.4 M907.809 1531.75 Q910.958 1531.75 912.786 1529.6 Q914.638 1527.44 914.638 1523.69 Q914.638 1519.97 912.786 1517.81 Q910.958 1515.64 907.809 1515.64 Q904.661 1515.64 902.809 1517.81 Q900.981 1519.97 900.981 1523.69 Q900.981 1527.44 902.809 1529.6 Q904.661 1531.75 907.809 1531.75 Z" fill="#000000" fill-rule="evenodd" fill-opacity="1" /><path clip-path="url(#clip750)" d="M 0 0 M1181.26 1543.18 L1197.58 1543.18 L1197.58 1547.12 L1175.64 1547.12 L1175.64 1543.18 Q1178.3 1540.43 1182.88 1535.8 Q1187.49 1531.15 1188.67 1529.81 Q1190.91 1527.28 1191.79 1525.55 Q1192.7 1523.79 1192.7 1522.1 Q1192.7 1519.34 1190.75 1517.61 Q1188.83 1515.87 1185.73 1515.87 Q1183.53 1515.87 1181.08 1516.63 Q1178.65 1517.4 1175.87 1518.95 L1175.87 1514.23 Q1178.69 1513.09 1181.15 1512.51 Q1183.6 1511.93 1185.64 1511.93 Q1191.01 1511.93 1194.2 1514.62 Q1197.4 1517.31 1197.4 1521.8 Q1197.4 1523.93 1196.59 1525.85 Q1195.8 1527.74 1193.69 1530.34 Q1193.11 1531.01 1190.01 1534.23 Q1186.91 1537.42 1181.26 1543.18 Z" fill="#000000" fill-rule="evenodd" fill-opacity="1" /><path clip-path="url(#clip750)" d="M 0 0 M1217.4 1515.64 Q1213.78 1515.64 1211.96 1519.2 Q1210.15 1522.75 1210.15 1529.87 Q1210.15 1536.98 1211.96 1540.55 Q1213.78 1544.09 1217.4 1544.09 Q1221.03 1544.09 1222.84 1540.55 Q1224.66 1536.98 1224.66 1529.87 Q1224.66 1522.75 1222.84 1519.2 Q1221.03 1515.64 1217.4 1515.64 M1217.4 1511.93 Q1223.21 1511.93 1226.26 1516.54 Q1229.34 1521.12 1229.34 1529.87 Q1229.34 1538.6 1226.26 1543.21 Q1223.21 1547.79 1217.4 1547.79 Q1211.59 1547.79 1208.51 1543.21 Q1205.45 1538.6 1205.45 1529.87 Q1205.45 1521.12 1208.51 1516.54 Q1211.59 1511.93 1217.4 1511.93 Z" fill="#000000" fill-rule="evenodd" fill-opacity="1" /><path clip-path="url(#clip750)" d="M 0 0 M1241.58 1543.18 L1257.9 1543.18 L1257.9 1547.12 L1235.96 1547.12 L1235.96 1543.18 Q1238.62 1540.43 1243.21 1535.8 Q1247.81 1531.15 1248.99 1529.81 Q1251.24 1527.28 1252.12 1525.55 Q1253.02 1523.79 1253.02 1522.1 Q1253.02 1519.34 1251.08 1517.61 Q1249.15 1515.87 1246.05 1515.87 Q1243.85 1515.87 1241.4 1516.63 Q1238.97 1517.4 1236.19 1518.95 L1236.19 1514.23 Q1239.02 1513.09 1241.47 1512.51 Q1243.92 1511.93 1245.96 1511.93 Q1251.33 1511.93 1254.52 1514.62 Q1257.72 1517.31 1257.72 1521.8 Q1257.72 1523.93 1256.91 1525.85 Q1256.12 1527.74 1254.02 1530.34 Q1253.44 1531.01 1250.33 1534.23 Q1247.23 1537.42 1241.58 1543.18 Z" fill="#000000" fill-rule="evenodd" fill-opacity="1" /><path clip-path="url(#clip750)" d="M 0 0 M1268.53 1543.18 L1276.17 1543.18 L1276.17 1516.82 L1267.86 1518.49 L1267.86 1514.23 L1276.12 1512.56 L1280.8 1512.56 L1280.8 1543.18 L1288.44 1543.18 L1288.44 1547.12 L1268.53 1547.12 L1268.53 1543.18 Z" fill="#000000" fill-rule="evenodd" fill-opacity="1" /><path clip-path="url(#clip750)" d="M 0 0 M1295.13 1532.24 L1307.6 1532.24 L1307.6 1536.03 L1295.13 1536.03 L1295.13 1532.24 Z" fill="#000000" fill-rule="evenodd" fill-opacity="1" /><path clip-path="url(#clip750)" d="M 0 0 M1324.99 1515.64 Q1321.38 1515.64 1319.55 1519.2 Q1317.74 1522.75 1317.74 1529.87 Q1317.74 1536.98 1319.55 1540.55 Q1321.38 1544.09 1324.99 1544.09 Q1328.62 1544.09 1330.43 1540.55 Q1332.26 1536.98 1332.26 1529.87 Q1332.26 1522.75 1330.43 1519.2 Q1328.62 1515.64 1324.99 1515.64 M1324.99 1511.93 Q1330.8 1511.93 1333.85 1516.54 Q1336.93 1521.12 1336.93 1529.87 Q1336.93 1538.6 1333.85 1543.21 Q1330.8 1547.79 1324.99 1547.79 Q1319.18 1547.79 1316.1 1543.21 Q1313.04 1538.6 1313.04 1529.87 Q1313.04 1521.12 1316.1 1516.54 Q1319.18 1511.93 1324.99 1511.93 Z" fill="#000000" fill-rule="evenodd" fill-opacity="1" /><path clip-path="url(#clip750)" d="M 0 0 M1359.32 1528.49 Q1362.67 1529.2 1364.55 1531.47 Q1366.45 1533.74 1366.45 1537.07 Q1366.45 1542.19 1362.93 1544.99 Q1359.41 1547.79 1352.93 1547.79 Q1350.75 1547.79 1348.44 1547.35 Q1346.14 1546.93 1343.69 1546.08 L1343.69 1541.56 Q1345.64 1542.7 1347.95 1543.28 Q1350.26 1543.86 1352.79 1543.86 Q1357.19 1543.86 1359.48 1542.12 Q1361.79 1540.38 1361.79 1537.07 Q1361.79 1534.02 1359.64 1532.31 Q1357.51 1530.57 1353.69 1530.57 L1349.66 1530.57 L1349.66 1526.73 L1353.88 1526.73 Q1357.33 1526.73 1359.15 1525.36 Q1360.98 1523.97 1360.98 1521.38 Q1360.98 1518.72 1359.08 1517.31 Q1357.21 1515.87 1353.69 1515.87 Q1351.77 1515.87 1349.57 1516.29 Q1347.37 1516.7 1344.73 1517.58 L1344.73 1513.42 Q1347.39 1512.68 1349.71 1512.31 Q1352.05 1511.93 1354.11 1511.93 Q1359.43 1511.93 1362.53 1514.37 Q1365.64 1516.77 1365.64 1520.89 Q1365.64 1523.76 1363.99 1525.75 Q1362.35 1527.72 1359.32 1528.49 Z" fill="#000000" fill-rule="evenodd" fill-opacity="1" /><path clip-path="url(#clip750)" d="M 0 0 M1372.56 1532.24 L1385.03 1532.24 L1385.03 1536.03 L1372.56 1536.03 L1372.56 1532.24 Z" fill="#000000" fill-rule="evenodd" fill-opacity="1" /><path clip-path="url(#clip750)" d="M 0 0 M1393.23 1543.18 L1400.87 1543.18 L1400.87 1516.82 L1392.56 1518.49 L1392.56 1514.23 L1400.82 1512.56 L1405.5 1512.56 L1405.5 1543.18 L1413.13 1543.18 L1413.13 1547.12 L1393.23 1547.12 L1393.23 1543.18 Z" fill="#000000" fill-rule="evenodd" fill-opacity="1" /><path clip-path="url(#clip750)" d="M 0 0 M1421.4 1512.56 L1443.62 1512.56 L1443.62 1514.55 L1431.07 1547.12 L1426.19 1547.12 L1438 1516.5 L1421.4 1516.5 L1421.4 1512.56 Z" fill="#000000" fill-rule="evenodd" fill-opacity="1" /><path clip-path="url(#clip750)" d="M 0 0 M1705.16 1543.18 L1721.48 1543.18 L1721.48 1547.12 L1699.54 1547.12 L1699.54 1543.18 Q1702.2 1540.43 1706.78 1535.8 Q1711.39 1531.15 1712.57 1529.81 Q1714.82 1527.28 1715.7 1525.55 Q1716.6 1523.79 1716.6 1522.1 Q1716.6 1519.34 1714.65 1517.61 Q1712.73 1515.87 1709.63 1515.87 Q1707.43 1515.87 1704.98 1516.63 Q1702.55 1517.4 1699.77 1518.95 L1699.77 1514.23 Q1702.59 1513.09 1705.05 1512.51 Q1707.5 1511.93 1709.54 1511.93 Q1714.91 1511.93 1718.1 1514.62 Q1721.3 1517.31 1721.3 1521.8 Q1721.3 1523.93 1720.49 1525.85 Q1719.7 1527.74 1717.59 1530.34 Q1717.01 1531.01 1713.91 1534.23 Q1710.81 1537.42 1705.16 1543.18 Z" fill="#000000" fill-rule="evenodd" fill-opacity="1" /><path clip-path="url(#clip750)" d="M 0 0 M1741.3 1515.64 Q1737.69 1515.64 1735.86 1519.2 Q1734.05 1522.75 1734.05 1529.87 Q1734.05 1536.98 1735.86 1540.55 Q1737.69 1544.09 1741.3 1544.09 Q1744.93 1544.09 1746.74 1540.55 Q1748.57 1536.98 1748.57 1529.87 Q1748.57 1522.75 1746.74 1519.2 Q1744.93 1515.64 1741.3 1515.64 M1741.3 1511.93 Q1747.11 1511.93 1750.16 1516.54 Q1753.24 1521.12 1753.24 1529.87 Q1753.24 1538.6 1750.16 1543.21 Q1747.11 1547.79 1741.3 1547.79 Q1735.49 1547.79 1732.41 1543.21 Q1729.35 1538.6 1729.35 1529.87 Q1729.35 1521.12 1732.41 1516.54 Q1735.49 1511.93 1741.3 1511.93 Z" fill="#000000" fill-rule="evenodd" fill-opacity="1" /><path clip-path="url(#clip750)" d="M 0 0 M1765.49 1543.18 L1781.81 1543.18 L1781.81 1547.12 L1759.86 1547.12 L1759.86 1543.18 Q1762.52 1540.43 1767.11 1535.8 Q1771.71 1531.15 1772.89 1529.81 Q1775.14 1527.28 1776.02 1525.55 Q1776.92 1523.79 1776.92 1522.1 Q1776.92 1519.34 1774.98 1517.61 Q1773.06 1515.87 1769.95 1515.87 Q1767.76 1515.87 1765.3 1516.63 Q1762.87 1517.4 1760.09 1518.95 L1760.09 1514.23 Q1762.92 1513.09 1765.37 1512.51 Q1767.82 1511.93 1769.86 1511.93 Q1775.23 1511.93 1778.43 1514.62 Q1781.62 1517.31 1781.62 1521.8 Q1781.62 1523.93 1780.81 1525.85 Q1780.02 1527.74 1777.92 1530.34 Q1777.34 1531.01 1774.24 1534.23 Q1771.13 1537.42 1765.49 1543.18 Z" fill="#000000" fill-rule="evenodd" fill-opacity="1" /><path clip-path="url(#clip750)" d="M 0 0 M1792.43 1543.18 L1800.07 1543.18 L1800.07 1516.82 L1791.76 1518.49 L1791.76 1514.23 L1800.02 1512.56 L1804.7 1512.56 L1804.7 1543.18 L1812.34 1543.18 L1812.34 1547.12 L1792.43 1547.12 L1792.43 1543.18 Z" fill="#000000" fill-rule="evenodd" fill-opacity="1" /><path clip-path="url(#clip750)" d="M 0 0 M1819.03 1532.24 L1831.5 1532.24 L1831.5 1536.03 L1819.03 1536.03 L1819.03 1532.24 Z" fill="#000000" fill-rule="evenodd" fill-opacity="1" /><path clip-path="url(#clip750)" d="M 0 0 M1848.89 1515.64 Q1845.28 1515.64 1843.45 1519.2 Q1841.64 1522.75 1841.64 1529.87 Q1841.64 1536.98 1843.45 1540.55 Q1845.28 1544.09 1848.89 1544.09 Q1852.52 1544.09 1854.33 1540.55 Q1856.16 1536.98 1856.16 1529.87 Q1856.16 1522.75 1854.33 1519.2 Q1852.52 1515.64 1848.89 1515.64 M1848.89 1511.93 Q1854.7 1511.93 1857.75 1516.54 Q1860.83 1521.12 1860.83 1529.87 Q1860.83 1538.6 1857.75 1543.21 Q1854.7 1547.79 1848.89 1547.79 Q1843.08 1547.79 1840 1543.21 Q1836.94 1538.6 1836.94 1529.87 Q1836.94 1521.12 1840 1516.54 Q1843.08 1511.93 1848.89 1511.93 Z" fill="#000000" fill-rule="evenodd" fill-opacity="1" /><path clip-path="url(#clip750)" d="M 0 0 M1883.22 1528.49 Q1886.57 1529.2 1888.45 1531.47 Q1890.35 1533.74 1890.35 1537.07 Q1890.35 1542.19 1886.83 1544.99 Q1883.31 1547.79 1876.83 1547.79 Q1874.65 1547.79 1872.34 1547.35 Q1870.05 1546.93 1867.59 1546.08 L1867.59 1541.56 Q1869.54 1542.7 1871.85 1543.28 Q1874.17 1543.86 1876.69 1543.86 Q1881.09 1543.86 1883.38 1542.12 Q1885.69 1540.38 1885.69 1537.07 Q1885.69 1534.02 1883.54 1532.31 Q1881.41 1530.57 1877.59 1530.57 L1873.56 1530.57 L1873.56 1526.73 L1877.78 1526.73 Q1881.23 1526.73 1883.06 1525.36 Q1884.88 1523.97 1884.88 1521.38 Q1884.88 1518.72 1882.99 1517.31 Q1881.11 1515.87 1877.59 1515.87 Q1875.67 1515.87 1873.47 1516.29 Q1871.27 1516.7 1868.63 1517.58 L1868.63 1513.42 Q1871.3 1512.68 1873.61 1512.31 Q1875.95 1511.93 1878.01 1511.93 Q1883.33 1511.93 1886.44 1514.37 Q1889.54 1516.77 1889.54 1520.89 Q1889.54 1523.76 1887.89 1525.75 Q1886.25 1527.72 1883.22 1528.49 Z" fill="#000000" fill-rule="evenodd" fill-opacity="1" /><path clip-path="url(#clip750)" d="M 0 0 M1896.46 1532.24 L1908.94 1532.24 L1908.94 1536.03 L1896.46 1536.03 L1896.46 1532.24 Z" fill="#000000" fill-rule="evenodd" fill-opacity="1" /><path clip-path="url(#clip750)" d="M 0 0 M1920.35 1543.18 L1936.67 1543.18 L1936.67 1547.12 L1914.72 1547.12 L1914.72 1543.18 Q1917.38 1540.43 1921.97 1535.8 Q1926.57 1531.15 1927.75 1529.81 Q1930 1527.28 1930.88 1525.55 Q1931.78 1523.79 1931.78 1522.1 Q1931.78 1519.34 1929.84 1517.61 Q1927.92 1515.87 1924.81 1515.87 Q1922.62 1515.87 1920.16 1516.63 Q1917.73 1517.4 1914.95 1518.95 L1914.95 1514.23 Q1917.78 1513.09 1920.23 1512.51 Q1922.69 1511.93 1924.72 1511.93 Q1930.09 1511.93 1933.29 1514.62 Q1936.48 1517.31 1936.48 1521.8 Q1936.48 1523.93 1935.67 1525.85 Q1934.88 1527.74 1932.78 1530.34 Q1932.2 1531.01 1929.1 1534.23 Q1926 1537.42 1920.35 1543.18 Z" fill="#000000" fill-rule="evenodd" fill-opacity="1" /><path clip-path="url(#clip750)" d="M 0 0 M1946.53 1512.56 L1964.88 1512.56 L1964.88 1516.5 L1950.81 1516.5 L1950.81 1524.97 Q1951.83 1524.62 1952.85 1524.46 Q1953.87 1524.27 1954.88 1524.27 Q1960.67 1524.27 1964.05 1527.44 Q1967.43 1530.62 1967.43 1536.03 Q1967.43 1541.61 1963.96 1544.71 Q1960.49 1547.79 1954.17 1547.79 Q1951.99 1547.79 1949.72 1547.42 Q1947.48 1547.05 1945.07 1546.31 L1945.07 1541.61 Q1947.15 1542.74 1949.37 1543.3 Q1951.6 1543.86 1954.07 1543.86 Q1958.08 1543.86 1960.42 1541.75 Q1962.75 1539.64 1962.75 1536.03 Q1962.75 1532.42 1960.42 1530.31 Q1958.08 1528.21 1954.07 1528.21 Q1952.2 1528.21 1950.32 1528.62 Q1948.47 1529.04 1946.53 1529.92 L1946.53 1512.56 Z" fill="#000000" fill-rule="evenodd" fill-opacity="1" /><polyline clip-path="url(#clip752)" style="stroke:#000000; stroke-width:2; stroke-opacity:0.1; fill:none" points="
  201.019,1290.73 2352.76,1290.73 
  "/>
<polyline clip-path="url(#clip752)" style="stroke:#000000; stroke-width:2; stroke-opacity:0.1; fill:none" points="
  201.019,1032.43 2352.76,1032.43 
  "/>
<polyline clip-path="url(#clip752)" style="stroke:#000000; stroke-width:2; stroke-opacity:0.1; fill:none" points="
  201.019,774.13 2352.76,774.13 
  "/>
<polyline clip-path="url(#clip752)" style="stroke:#000000; stroke-width:2; stroke-opacity:0.1; fill:none" points="
  201.019,515.827 2352.76,515.827 
  "/>
<polyline clip-path="url(#clip752)" style="stroke:#000000; stroke-width:2; stroke-opacity:0.1; fill:none" points="
  201.019,257.525 2352.76,257.525 
  "/>
<polyline clip-path="url(#clip750)" style="stroke:#000000; stroke-width:4; stroke-opacity:1; fill:none" points="
  201.019,1486.45 201.019,47.2441 
  "/>
<polyline clip-path="url(#clip750)" style="stroke:#000000; stroke-width:4; stroke-opacity:1; fill:none" points="
  201.019,1290.73 226.84,1290.73 
  "/>
<polyline clip-path="url(#clip750)" style="stroke:#000000; stroke-width:4; stroke-opacity:1; fill:none" points="
  201.019,1032.43 226.84,1032.43 
  "/>
<polyline clip-path="url(#clip750)" style="stroke:#000000; stroke-width:4; stroke-opacity:1; fill:none" points="
  201.019,774.13 226.84,774.13 
  "/>
<polyline clip-path="url(#clip750)" style="stroke:#000000; stroke-width:4; stroke-opacity:1; fill:none" points="
  201.019,515.827 226.84,515.827 
  "/>
<polyline clip-path="url(#clip750)" style="stroke:#000000; stroke-width:4; stroke-opacity:1; fill:none" points="
  201.019,257.525 226.84,257.525 
  "/>
<path clip-path="url(#clip750)" d="M 0 0 M57.6125 1304.08 L73.9318 1304.08 L73.9318 1308.01 L51.9875 1308.01 L51.9875 1304.08 Q54.6495 1301.32 59.2328 1296.69 Q63.8393 1292.04 65.0198 1290.7 Q67.2652 1288.18 68.1448 1286.44 Q69.0476 1284.68 69.0476 1282.99 Q69.0476 1280.24 67.1032 1278.5 Q65.1819 1276.76 62.08 1276.76 Q59.881 1276.76 57.4273 1277.53 Q54.9967 1278.29 52.219 1279.84 L52.219 1275.12 Q55.043 1273.99 57.4967 1273.41 Q59.9504 1272.83 61.9874 1272.83 Q67.3578 1272.83 70.5522 1275.51 Q73.7466 1278.2 73.7466 1282.69 Q73.7466 1284.82 72.9365 1286.74 Q72.1494 1288.64 70.0429 1291.23 Q69.4642 1291.9 66.3624 1295.12 Q63.2606 1298.32 57.6125 1304.08 Z" fill="#000000" fill-rule="evenodd" fill-opacity="1" /><path clip-path="url(#clip750)" d="M 0 0 M93.7465 1276.53 Q90.1354 1276.53 88.3067 1280.1 Q86.5012 1283.64 86.5012 1290.77 Q86.5012 1297.88 88.3067 1301.44 Q90.1354 1304.98 93.7465 1304.98 Q97.3808 1304.98 99.1863 1301.44 Q101.015 1297.88 101.015 1290.77 Q101.015 1283.64 99.1863 1280.1 Q97.3808 1276.53 93.7465 1276.53 M93.7465 1272.83 Q99.5567 1272.83 102.612 1277.44 Q105.691 1282.02 105.691 1290.77 Q105.691 1299.5 102.612 1304.1 Q99.5567 1308.69 93.7465 1308.69 Q87.9364 1308.69 84.8577 1304.1 Q81.8021 1299.5 81.8021 1290.77 Q81.8021 1282.02 84.8577 1277.44 Q87.9364 1272.83 93.7465 1272.83 Z" fill="#000000" fill-rule="evenodd" fill-opacity="1" /><path clip-path="url(#clip750)" d="M 0 0 M117.936 1304.08 L134.256 1304.08 L134.256 1308.01 L112.311 1308.01 L112.311 1304.08 Q114.973 1301.32 119.557 1296.69 Q124.163 1292.04 125.344 1290.7 Q127.589 1288.18 128.469 1286.44 Q129.371 1284.68 129.371 1282.99 Q129.371 1280.24 127.427 1278.5 Q125.506 1276.76 122.404 1276.76 Q120.205 1276.76 117.751 1277.53 Q115.32 1278.29 112.543 1279.84 L112.543 1275.12 Q115.367 1273.99 117.82 1273.41 Q120.274 1272.83 122.311 1272.83 Q127.682 1272.83 130.876 1275.51 Q134.07 1278.2 134.07 1282.69 Q134.07 1284.82 133.26 1286.74 Q132.473 1288.64 130.367 1291.23 Q129.788 1291.9 126.686 1295.12 Q123.584 1298.32 117.936 1304.08 Z" fill="#000000" fill-rule="evenodd" fill-opacity="1" /><path clip-path="url(#clip750)" d="M 0 0 M144.117 1273.45 L162.473 1273.45 L162.473 1277.39 L148.399 1277.39 L148.399 1285.86 Q149.418 1285.51 150.436 1285.35 Q151.455 1285.17 152.473 1285.17 Q158.26 1285.17 161.64 1288.34 Q165.019 1291.51 165.019 1296.93 Q165.019 1302.51 161.547 1305.61 Q158.075 1308.69 151.755 1308.69 Q149.58 1308.69 147.311 1308.32 Q145.066 1307.94 142.658 1307.2 L142.658 1302.51 Q144.742 1303.64 146.964 1304.19 Q149.186 1304.75 151.663 1304.75 Q155.667 1304.75 158.005 1302.64 Q160.343 1300.54 160.343 1296.93 Q160.343 1293.32 158.005 1291.21 Q155.667 1289.1 151.663 1289.1 Q149.788 1289.1 147.913 1289.52 Q146.061 1289.94 144.117 1290.82 L144.117 1273.45 Z" fill="#000000" fill-rule="evenodd" fill-opacity="1" /><path clip-path="url(#clip750)" d="M 0 0 M56.6171 1045.78 L72.9365 1045.78 L72.9365 1049.71 L50.9921 1049.71 L50.9921 1045.78 Q53.6541 1043.02 58.2375 1038.39 Q62.8439 1033.74 64.0245 1032.4 Q66.2698 1029.87 67.1494 1028.14 Q68.0522 1026.38 68.0522 1024.69 Q68.0522 1021.93 66.1078 1020.2 Q64.1865 1018.46 61.0847 1018.46 Q58.8856 1018.46 56.4319 1019.23 Q54.0014 1019.99 51.2236 1021.54 L51.2236 1016.82 Q54.0477 1015.68 56.5014 1015.11 Q58.955 1014.53 60.9921 1014.53 Q66.3624 1014.53 69.5568 1017.21 Q72.7513 1019.9 72.7513 1024.39 Q72.7513 1026.52 71.9411 1028.44 Q71.1541 1030.34 69.0476 1032.93 Q68.4689 1033.6 65.367 1036.82 Q62.2652 1040.01 56.6171 1045.78 Z" fill="#000000" fill-rule="evenodd" fill-opacity="1" /><path clip-path="url(#clip750)" d="M 0 0 M92.7512 1018.23 Q89.1401 1018.23 87.3114 1021.8 Q85.5058 1025.34 85.5058 1032.47 Q85.5058 1039.57 87.3114 1043.14 Q89.1401 1046.68 92.7512 1046.68 Q96.3854 1046.68 98.1909 1043.14 Q100.02 1039.57 100.02 1032.47 Q100.02 1025.34 98.1909 1021.8 Q96.3854 1018.23 92.7512 1018.23 M92.7512 1014.53 Q98.5613 1014.53 101.617 1019.13 Q104.696 1023.72 104.696 1032.47 Q104.696 1041.19 101.617 1045.8 Q98.5613 1050.38 92.7512 1050.38 Q86.941 1050.38 83.8623 1045.8 Q80.8068 1041.19 80.8068 1032.47 Q80.8068 1023.72 83.8623 1019.13 Q86.941 1014.53 92.7512 1014.53 Z" fill="#000000" fill-rule="evenodd" fill-opacity="1" /><path clip-path="url(#clip750)" d="M 0 0 M112.959 1015.15 L131.316 1015.15 L131.316 1019.09 L117.242 1019.09 L117.242 1027.56 Q118.26 1027.21 119.279 1027.05 Q120.297 1026.86 121.316 1026.86 Q127.103 1026.86 130.482 1030.04 Q133.862 1033.21 133.862 1038.62 Q133.862 1044.2 130.39 1047.3 Q126.918 1050.38 120.598 1050.38 Q118.422 1050.38 116.154 1050.01 Q113.908 1049.64 111.501 1048.9 L111.501 1044.2 Q113.584 1045.34 115.807 1045.89 Q118.029 1046.45 120.506 1046.45 Q124.51 1046.45 126.848 1044.34 Q129.186 1042.24 129.186 1038.62 Q129.186 1035.01 126.848 1032.91 Q124.51 1030.8 120.506 1030.8 Q118.631 1030.8 116.756 1031.22 Q114.904 1031.63 112.959 1032.51 L112.959 1015.15 Z" fill="#000000" fill-rule="evenodd" fill-opacity="1" /><path clip-path="url(#clip750)" d="M 0 0 M153.075 1018.23 Q149.464 1018.23 147.635 1021.8 Q145.83 1025.34 145.83 1032.47 Q145.83 1039.57 147.635 1043.14 Q149.464 1046.68 153.075 1046.68 Q156.709 1046.68 158.515 1043.14 Q160.343 1039.57 160.343 1032.47 Q160.343 1025.34 158.515 1021.8 Q156.709 1018.23 153.075 1018.23 M153.075 1014.53 Q158.885 1014.53 161.941 1019.13 Q165.019 1023.72 165.019 1032.47 Q165.019 1041.19 161.941 1045.8 Q158.885 1050.38 153.075 1050.38 Q147.265 1050.38 144.186 1045.8 Q141.131 1041.19 141.131 1032.47 Q141.131 1023.72 144.186 1019.13 Q147.265 1014.53 153.075 1014.53 Z" fill="#000000" fill-rule="evenodd" fill-opacity="1" /><path clip-path="url(#clip750)" d="M 0 0 M57.6125 787.474 L73.9318 787.474 L73.9318 791.41 L51.9875 791.41 L51.9875 787.474 Q54.6495 784.72 59.2328 780.09 Q63.8393 775.438 65.0198 774.095 Q67.2652 771.572 68.1448 769.836 Q69.0476 768.076 69.0476 766.387 Q69.0476 763.632 67.1032 761.896 Q65.1819 760.16 62.08 760.16 Q59.881 760.16 57.4273 760.924 Q54.9967 761.688 52.219 763.239 L52.219 758.516 Q55.043 757.382 57.4967 756.803 Q59.9504 756.225 61.9874 756.225 Q67.3578 756.225 70.5522 758.91 Q73.7466 761.595 73.7466 766.086 Q73.7466 768.215 72.9365 770.137 Q72.1494 772.035 70.0429 774.627 Q69.4642 775.299 66.3624 778.516 Q63.2606 781.711 57.6125 787.474 Z" fill="#000000" fill-rule="evenodd" fill-opacity="1" /><path clip-path="url(#clip750)" d="M 0 0 M93.7465 759.928 Q90.1354 759.928 88.3067 763.493 Q86.5012 767.035 86.5012 774.164 Q86.5012 781.271 88.3067 784.836 Q90.1354 788.377 93.7465 788.377 Q97.3808 788.377 99.1863 784.836 Q101.015 781.271 101.015 774.164 Q101.015 767.035 99.1863 763.493 Q97.3808 759.928 93.7465 759.928 M93.7465 756.225 Q99.5567 756.225 102.612 760.831 Q105.691 765.414 105.691 774.164 Q105.691 782.891 102.612 787.498 Q99.5567 792.081 93.7465 792.081 Q87.9364 792.081 84.8577 787.498 Q81.8021 782.891 81.8021 774.164 Q81.8021 765.414 84.8577 760.831 Q87.9364 756.225 93.7465 756.225 Z" fill="#000000" fill-rule="evenodd" fill-opacity="1" /><path clip-path="url(#clip750)" d="M 0 0 M112.728 756.85 L134.95 756.85 L134.95 758.84 L122.404 791.41 L117.52 791.41 L129.325 760.785 L112.728 760.785 L112.728 756.85 Z" fill="#000000" fill-rule="evenodd" fill-opacity="1" /><path clip-path="url(#clip750)" d="M 0 0 M144.117 756.85 L162.473 756.85 L162.473 760.785 L148.399 760.785 L148.399 769.257 Q149.418 768.91 150.436 768.748 Q151.455 768.563 152.473 768.563 Q158.26 768.563 161.64 771.734 Q165.019 774.905 165.019 780.322 Q165.019 785.9 161.547 789.002 Q158.075 792.081 151.755 792.081 Q149.58 792.081 147.311 791.711 Q145.066 791.34 142.658 790.599 L142.658 785.9 Q144.742 787.035 146.964 787.59 Q149.186 788.146 151.663 788.146 Q155.667 788.146 158.005 786.039 Q160.343 783.933 160.343 780.322 Q160.343 776.711 158.005 774.604 Q155.667 772.498 151.663 772.498 Q149.788 772.498 147.913 772.914 Q146.061 773.331 144.117 774.211 L144.117 756.85 Z" fill="#000000" fill-rule="evenodd" fill-opacity="1" /><path clip-path="url(#clip750)" d="M 0 0 M56.6171 529.172 L72.9365 529.172 L72.9365 533.107 L50.9921 533.107 L50.9921 529.172 Q53.6541 526.418 58.2375 521.788 Q62.8439 517.135 64.0245 515.793 Q66.2698 513.269 67.1494 511.533 Q68.0522 509.774 68.0522 508.084 Q68.0522 505.33 66.1078 503.594 Q64.1865 501.858 61.0847 501.858 Q58.8856 501.858 56.4319 502.621 Q54.0014 503.385 51.2236 504.936 L51.2236 500.214 Q54.0477 499.08 56.5014 498.501 Q58.955 497.922 60.9921 497.922 Q66.3624 497.922 69.5568 500.608 Q72.7513 503.293 72.7513 507.783 Q72.7513 509.913 71.9411 511.834 Q71.1541 513.732 69.0476 516.325 Q68.4689 516.996 65.367 520.214 Q62.2652 523.408 56.6171 529.172 Z" fill="#000000" fill-rule="evenodd" fill-opacity="1" /><path clip-path="url(#clip750)" d="M 0 0 M83.5614 529.172 L91.2002 529.172 L91.2002 502.807 L82.8901 504.473 L82.8901 500.214 L91.1539 498.547 L95.8298 498.547 L95.8298 529.172 L103.469 529.172 L103.469 533.107 L83.5614 533.107 L83.5614 529.172 Z" fill="#000000" fill-rule="evenodd" fill-opacity="1" /><path clip-path="url(#clip750)" d="M 0 0 M122.913 501.626 Q119.302 501.626 117.473 505.191 Q115.668 508.732 115.668 515.862 Q115.668 522.968 117.473 526.533 Q119.302 530.075 122.913 530.075 Q126.547 530.075 128.353 526.533 Q130.182 522.968 130.182 515.862 Q130.182 508.732 128.353 505.191 Q126.547 501.626 122.913 501.626 M122.913 497.922 Q128.723 497.922 131.779 502.529 Q134.857 507.112 134.857 515.862 Q134.857 524.589 131.779 529.195 Q128.723 533.779 122.913 533.779 Q117.103 533.779 114.024 529.195 Q110.969 524.589 110.969 515.862 Q110.969 507.112 114.024 502.529 Q117.103 497.922 122.913 497.922 Z" fill="#000000" fill-rule="evenodd" fill-opacity="1" /><path clip-path="url(#clip750)" d="M 0 0 M153.075 501.626 Q149.464 501.626 147.635 505.191 Q145.83 508.732 145.83 515.862 Q145.83 522.968 147.635 526.533 Q149.464 530.075 153.075 530.075 Q156.709 530.075 158.515 526.533 Q160.343 522.968 160.343 515.862 Q160.343 508.732 158.515 505.191 Q156.709 501.626 153.075 501.626 M153.075 497.922 Q158.885 497.922 161.941 502.529 Q165.019 507.112 165.019 515.862 Q165.019 524.589 161.941 529.195 Q158.885 533.779 153.075 533.779 Q147.265 533.779 144.186 529.195 Q141.131 524.589 141.131 515.862 Q141.131 507.112 144.186 502.529 Q147.265 497.922 153.075 497.922 Z" fill="#000000" fill-rule="evenodd" fill-opacity="1" /><path clip-path="url(#clip750)" d="M 0 0 M57.6125 270.87 L73.9318 270.87 L73.9318 274.805 L51.9875 274.805 L51.9875 270.87 Q54.6495 268.115 59.2328 263.486 Q63.8393 258.833 65.0198 257.49 Q67.2652 254.967 68.1448 253.231 Q69.0476 251.472 69.0476 249.782 Q69.0476 247.027 67.1032 245.291 Q65.1819 243.555 62.08 243.555 Q59.881 243.555 57.4273 244.319 Q54.9967 245.083 52.219 246.634 L52.219 241.912 Q55.043 240.777 57.4967 240.199 Q59.9504 239.62 61.9874 239.62 Q67.3578 239.62 70.5522 242.305 Q73.7466 244.99 73.7466 249.481 Q73.7466 251.611 72.9365 253.532 Q72.1494 255.43 70.0429 258.023 Q69.4642 258.694 66.3624 261.912 Q63.2606 265.106 57.6125 270.87 Z" fill="#000000" fill-rule="evenodd" fill-opacity="1" /><path clip-path="url(#clip750)" d="M 0 0 M84.5568 270.87 L92.1956 270.87 L92.1956 244.504 L83.8855 246.171 L83.8855 241.912 L92.1493 240.245 L96.8252 240.245 L96.8252 270.87 L104.464 270.87 L104.464 274.805 L84.5568 274.805 L84.5568 270.87 Z" fill="#000000" fill-rule="evenodd" fill-opacity="1" /><path clip-path="url(#clip750)" d="M 0 0 M117.936 270.87 L134.256 270.87 L134.256 274.805 L112.311 274.805 L112.311 270.87 Q114.973 268.115 119.557 263.486 Q124.163 258.833 125.344 257.49 Q127.589 254.967 128.469 253.231 Q129.371 251.472 129.371 249.782 Q129.371 247.027 127.427 245.291 Q125.506 243.555 122.404 243.555 Q120.205 243.555 117.751 244.319 Q115.32 245.083 112.543 246.634 L112.543 241.912 Q115.367 240.777 117.82 240.199 Q120.274 239.62 122.311 239.62 Q127.682 239.62 130.876 242.305 Q134.07 244.99 134.07 249.481 Q134.07 251.611 133.26 253.532 Q132.473 255.43 130.367 258.023 Q129.788 258.694 126.686 261.912 Q123.584 265.106 117.936 270.87 Z" fill="#000000" fill-rule="evenodd" fill-opacity="1" /><path clip-path="url(#clip750)" d="M 0 0 M144.117 240.245 L162.473 240.245 L162.473 244.18 L148.399 244.18 L148.399 252.652 Q149.418 252.305 150.436 252.143 Q151.455 251.958 152.473 251.958 Q158.26 251.958 161.64 255.129 Q165.019 258.3 165.019 263.717 Q165.019 269.296 161.547 272.398 Q158.075 275.476 151.755 275.476 Q149.58 275.476 147.311 275.106 Q145.066 274.736 142.658 273.995 L142.658 269.296 Q144.742 270.43 146.964 270.986 Q149.186 271.541 151.663 271.541 Q155.667 271.541 158.005 269.435 Q160.343 267.328 160.343 263.717 Q160.343 260.106 158.005 258 Q155.667 255.893 151.663 255.893 Q149.788 255.893 147.913 256.31 Q146.061 256.726 144.117 257.606 L144.117 240.245 Z" fill="#000000" fill-rule="evenodd" fill-opacity="1" /><polyline clip-path="url(#clip752)" style="stroke:#009af9; stroke-width:4; stroke-opacity:1; fill:none" points="
  261.917,965.067 327.399,761.835 392.881,854.617 458.363,1307.58 523.845,793.553 720.291,504.153 785.773,825.79 851.255,807.606 916.737,783.841 982.219,670.809 
  1178.66,905.347 1244.15,732.905 1309.63,763.487 1375.11,918.779 1440.59,1114.57 1637.04,1116.74 1702.52,1014.87 1768,873.627 1833.48,1086.05 1898.97,1147.53 
  2095.41,1260.98 2160.89,953.599 2226.38,938.202 2291.86,537.009 
  "/>
<polyline clip-path="url(#clip752)" style="stroke:#e26f46; stroke-width:4; stroke-opacity:1; fill:none" points="
  261.917,655.104 327.399,470.675 392.881,634.46 458.363,627.001 523.845,328.712 720.291,218.159 785.773,742.72 851.255,774.13 916.737,250.293 982.219,616.462 
  1178.66,856.166 1244.15,272.403 1309.63,414.779 1375.11,768.964 1440.59,1000.4 1637.04,949.879 1702.52,802.006 1768,740.964 1833.48,940.785 1898.97,1022.2 
  2095.41,945.333 2160.89,817.731 2226.38,584.774 2291.86,87.9763 
  "/>
<polyline clip-path="url(#clip752)" style="stroke:#3da44d; stroke-width:4; stroke-opacity:1; fill:none" points="
  261.917,1072.73 327.399,812.772 392.881,1445.72 458.363,1339.6 523.845,1069.47 720.291,1325.76 785.773,1054.85 851.255,1204.25 916.737,801.201 982.219,1057.75 
  1178.66,1099.49 1244.15,825.79 1309.63,991.104 1375.11,1202.39 1440.59,1366.36 1637.04,1279.68 1702.52,1143.81 1768,1119.69 1833.48,1438.17 1898.97,1404.18 
  2095.41,1387.65 2160.89,1094.11 2226.38,962.741 2291.86,547.961 
  "/>
<polyline clip-path="url(#clip752)" style="stroke:#c271d2; stroke-width:4; stroke-opacity:1; fill:none" points="
  261.917,706.868 327.399,765.45 392.881,1273.07 458.363,1041.83 523.845,427.591 720.291,1299.31 785.773,1004.54 851.255,980.461 916.737,363.222 982.219,909.274 
  1178.66,862.056 1244.15,593.111 1309.63,607.989 1375.11,1174.81 1440.59,1102.69 1637.04,1150.32 1702.52,1001.85 1768,1083.47 1833.48,1090.71 1898.97,1181.73 
  2095.41,970.957 2160.89,975.192 2226.38,839.946 2291.86,88.3874 
  "/>
<path clip-path="url(#clip750)" d="
M1917.99 397.618 L2281.03 397.618 L2281.03 95.2176 L1917.99 95.2176  Z
  " fill="#ffffff" fill-rule="evenodd" fill-opacity="1"/>
<polyline clip-path="url(#clip750)" style="stroke:#000000; stroke-width:4; stroke-opacity:1; fill:none" points="
  1917.99,397.618 2281.03,397.618 2281.03,95.2176 1917.99,95.2176 1917.99,397.618 
  "/>
<polyline clip-path="url(#clip750)" style="stroke:#009af9; stroke-width:4; stroke-opacity:1; fill:none" points="
  1941.9,155.698 2085.35,155.698 
  "/>
<path clip-path="url(#clip750)" d="M 0 0 M2125.28 141.589 Q2120.18 141.589 2117.17 145.385 Q2114.19 149.181 2114.19 155.732 Q2114.19 162.26 2117.17 166.056 Q2120.18 169.853 2125.28 169.853 Q2130.37 169.853 2133.33 166.056 Q2136.32 162.26 2136.32 155.732 Q2136.32 149.181 2133.33 145.385 Q2130.37 141.589 2125.28 141.589 M2125.28 137.793 Q2132.54 137.793 2136.9 142.677 Q2141.25 147.538 2141.25 155.732 Q2141.25 163.904 2136.9 168.788 Q2132.54 173.649 2125.28 173.649 Q2117.98 173.649 2113.61 168.788 Q2109.26 163.927 2109.26 155.732 Q2109.26 147.538 2113.61 142.677 Q2117.98 137.793 2125.28 137.793 Z" fill="#000000" fill-rule="evenodd" fill-opacity="1" /><path clip-path="url(#clip750)" d="M 0 0 M2152.5 169.089 L2152.5 182.839 L2148.22 182.839 L2148.22 147.052 L2152.5 147.052 L2152.5 150.987 Q2153.84 148.672 2155.88 147.561 Q2157.94 146.427 2160.78 146.427 Q2165.51 146.427 2168.45 150.177 Q2171.41 153.927 2171.41 160.038 Q2171.41 166.149 2168.45 169.899 Q2165.51 173.649 2160.78 173.649 Q2157.94 173.649 2155.88 172.538 Q2153.84 171.403 2152.5 169.089 M2166.99 160.038 Q2166.99 155.339 2165.04 152.677 Q2163.12 149.992 2159.74 149.992 Q2156.36 149.992 2154.42 152.677 Q2152.5 155.339 2152.5 160.038 Q2152.5 164.737 2154.42 167.422 Q2156.36 170.084 2159.74 170.084 Q2163.12 170.084 2165.04 167.422 Q2166.99 164.737 2166.99 160.038 Z" fill="#000000" fill-rule="evenodd" fill-opacity="1" /><path clip-path="url(#clip750)" d="M 0 0 M2200.65 158.95 L2200.65 161.033 L2181.06 161.033 Q2181.34 165.431 2183.7 167.746 Q2186.09 170.038 2190.32 170.038 Q2192.78 170.038 2195.07 169.436 Q2197.38 168.834 2199.65 167.63 L2199.65 171.658 Q2197.36 172.63 2194.95 173.14 Q2192.54 173.649 2190.07 173.649 Q2183.86 173.649 2180.23 170.038 Q2176.62 166.427 2176.62 160.269 Q2176.62 153.904 2180.04 150.177 Q2183.49 146.427 2189.33 146.427 Q2194.56 146.427 2197.59 149.806 Q2200.65 153.163 2200.65 158.95 M2196.39 157.7 Q2196.34 154.205 2194.42 152.121 Q2192.52 150.038 2189.37 150.038 Q2185.81 150.038 2183.66 152.052 Q2181.53 154.066 2181.2 157.723 L2196.39 157.7 Z" fill="#000000" fill-rule="evenodd" fill-opacity="1" /><path clip-path="url(#clip750)" d="M 0 0 M2229.19 157.329 L2229.19 172.978 L2224.93 172.978 L2224.93 157.468 Q2224.93 153.788 2223.49 151.959 Q2222.06 150.13 2219.19 150.13 Q2215.74 150.13 2213.75 152.33 Q2211.76 154.529 2211.76 158.325 L2211.76 172.978 L2207.47 172.978 L2207.47 147.052 L2211.76 147.052 L2211.76 151.08 Q2213.28 148.742 2215.34 147.584 Q2217.43 146.427 2220.14 146.427 Q2224.6 146.427 2226.9 149.205 Q2229.19 151.959 2229.19 157.329 Z" fill="#000000" fill-rule="evenodd" fill-opacity="1" /><polyline clip-path="url(#clip750)" style="stroke:#e26f46; stroke-width:4; stroke-opacity:1; fill:none" points="
  1941.9,216.178 2085.35,216.178 
  "/>
<path clip-path="url(#clip750)" d="M 0 0 M2109.26 198.898 L2113.93 198.898 L2113.93 213.064 L2130.92 213.064 L2130.92 198.898 L2135.6 198.898 L2135.6 233.458 L2130.92 233.458 L2130.92 216.999 L2113.93 216.999 L2113.93 233.458 L2109.26 233.458 L2109.26 198.898 Z" fill="#000000" fill-rule="evenodd" fill-opacity="1" /><path clip-path="url(#clip750)" d="M 0 0 M2144.72 207.532 L2148.98 207.532 L2148.98 233.458 L2144.72 233.458 L2144.72 207.532 M2144.72 197.439 L2148.98 197.439 L2148.98 202.833 L2144.72 202.833 L2144.72 197.439 Z" fill="#000000" fill-rule="evenodd" fill-opacity="1" /><path clip-path="url(#clip750)" d="M 0 0 M2174.95 220.194 Q2174.95 215.564 2173.03 213.018 Q2171.13 210.472 2167.68 210.472 Q2164.26 210.472 2162.34 213.018 Q2160.44 215.564 2160.44 220.194 Q2160.44 224.8 2162.34 227.346 Q2164.26 229.893 2167.68 229.893 Q2171.13 229.893 2173.03 227.346 Q2174.95 224.8 2174.95 220.194 M2179.21 230.24 Q2179.21 236.86 2176.27 240.078 Q2173.33 243.319 2167.27 243.319 Q2165.02 243.319 2163.03 242.971 Q2161.04 242.647 2159.16 241.953 L2159.16 237.809 Q2161.04 238.828 2162.87 239.314 Q2164.7 239.8 2166.59 239.8 Q2170.78 239.8 2172.87 237.601 Q2174.95 235.425 2174.95 231.004 L2174.95 228.897 Q2173.63 231.189 2171.57 232.323 Q2169.51 233.458 2166.64 233.458 Q2161.87 233.458 2158.96 229.823 Q2156.04 226.189 2156.04 220.194 Q2156.04 214.175 2158.96 210.541 Q2161.87 206.907 2166.64 206.907 Q2169.51 206.907 2171.57 208.041 Q2173.63 209.175 2174.95 211.467 L2174.95 207.532 L2179.21 207.532 L2179.21 230.24 Z" fill="#000000" fill-rule="evenodd" fill-opacity="1" /><path clip-path="url(#clip750)" d="M 0 0 M2209.53 217.809 L2209.53 233.458 L2205.28 233.458 L2205.28 217.948 Q2205.28 214.268 2203.84 212.439 Q2202.4 210.61 2199.53 210.61 Q2196.09 210.61 2194.09 212.81 Q2192.1 215.009 2192.1 218.805 L2192.1 233.458 L2187.82 233.458 L2187.82 197.439 L2192.1 197.439 L2192.1 211.56 Q2193.63 209.222 2195.69 208.064 Q2197.78 206.907 2200.48 206.907 Q2204.95 206.907 2207.24 209.685 Q2209.53 212.439 2209.53 217.809 Z" fill="#000000" fill-rule="evenodd" fill-opacity="1" /><polyline clip-path="url(#clip750)" style="stroke:#3da44d; stroke-width:4; stroke-opacity:1; fill:none" points="
  1941.9,276.658 2085.35,276.658 
  "/>
<path clip-path="url(#clip750)" d="M 0 0 M2109.26 259.378 L2113.93 259.378 L2113.93 290.002 L2130.76 290.002 L2130.76 293.938 L2109.26 293.938 L2109.26 259.378 Z" fill="#000000" fill-rule="evenodd" fill-opacity="1" /><path clip-path="url(#clip750)" d="M 0 0 M2144.7 270.998 Q2141.27 270.998 2139.28 273.683 Q2137.29 276.345 2137.29 280.998 Q2137.29 285.651 2139.26 288.336 Q2141.25 290.998 2144.7 290.998 Q2148.1 290.998 2150.09 288.313 Q2152.08 285.627 2152.08 280.998 Q2152.08 276.391 2150.09 273.706 Q2148.1 270.998 2144.7 270.998 M2144.7 267.387 Q2150.25 267.387 2153.42 270.998 Q2156.6 274.609 2156.6 280.998 Q2156.6 287.364 2153.42 290.998 Q2150.25 294.609 2144.7 294.609 Q2139.12 294.609 2135.95 290.998 Q2132.8 287.364 2132.8 280.998 Q2132.8 274.609 2135.95 270.998 Q2139.12 267.387 2144.7 267.387 Z" fill="#000000" fill-rule="evenodd" fill-opacity="1" /><path clip-path="url(#clip750)" d="M 0 0 M2161.18 268.012 L2165.44 268.012 L2170.76 288.243 L2176.06 268.012 L2181.09 268.012 L2186.41 288.243 L2191.71 268.012 L2195.97 268.012 L2189.19 293.938 L2184.16 293.938 L2178.59 272.688 L2172.98 293.938 L2167.96 293.938 L2161.18 268.012 Z" fill="#000000" fill-rule="evenodd" fill-opacity="1" /><polyline clip-path="url(#clip750)" style="stroke:#c271d2; stroke-width:4; stroke-opacity:1; fill:none" points="
  1941.9,337.138 2085.35,337.138 
  "/>
<path clip-path="url(#clip750)" d="M 0 0 M2137.13 322.52 L2137.13 327.45 Q2134.77 325.251 2132.08 324.163 Q2129.42 323.075 2126.41 323.075 Q2120.48 323.075 2117.34 326.709 Q2114.19 330.32 2114.19 337.172 Q2114.19 344.001 2117.34 347.635 Q2120.48 351.246 2126.41 351.246 Q2129.42 351.246 2132.08 350.158 Q2134.77 349.07 2137.13 346.871 L2137.13 351.756 Q2134.67 353.422 2131.92 354.256 Q2129.19 355.089 2126.13 355.089 Q2118.29 355.089 2113.77 350.297 Q2109.26 345.482 2109.26 337.172 Q2109.26 328.839 2113.77 324.047 Q2118.29 319.233 2126.13 319.233 Q2129.23 319.233 2131.97 320.066 Q2134.72 320.876 2137.13 322.52 Z" fill="#000000" fill-rule="evenodd" fill-opacity="1" /><path clip-path="url(#clip750)" d="M 0 0 M2144.16 318.399 L2148.42 318.399 L2148.42 354.418 L2144.16 354.418 L2144.16 318.399 Z" fill="#000000" fill-rule="evenodd" fill-opacity="1" /><path clip-path="url(#clip750)" d="M 0 0 M2167.38 331.478 Q2163.96 331.478 2161.97 334.163 Q2159.97 336.825 2159.97 341.478 Q2159.97 346.131 2161.94 348.816 Q2163.93 351.478 2167.38 351.478 Q2170.78 351.478 2172.78 348.793 Q2174.77 346.107 2174.77 341.478 Q2174.77 336.871 2172.78 334.186 Q2170.78 331.478 2167.38 331.478 M2167.38 327.867 Q2172.94 327.867 2176.11 331.478 Q2179.28 335.089 2179.28 341.478 Q2179.28 347.844 2176.11 351.478 Q2172.94 355.089 2167.38 355.089 Q2161.8 355.089 2158.63 351.478 Q2155.48 347.844 2155.48 341.478 Q2155.48 335.089 2158.63 331.478 Q2161.8 327.867 2167.38 327.867 Z" fill="#000000" fill-rule="evenodd" fill-opacity="1" /><path clip-path="url(#clip750)" d="M 0 0 M2202.87 329.256 L2202.87 333.283 Q2201.06 332.357 2199.12 331.895 Q2197.17 331.432 2195.09 331.432 Q2191.92 331.432 2190.32 332.404 Q2188.75 333.376 2188.75 335.32 Q2188.75 336.802 2189.88 337.658 Q2191.02 338.492 2194.44 339.256 L2195.9 339.58 Q2200.44 340.552 2202.34 342.334 Q2204.26 344.094 2204.26 347.265 Q2204.26 350.876 2201.39 352.982 Q2198.54 355.089 2193.54 355.089 Q2191.46 355.089 2189.19 354.672 Q2186.94 354.279 2184.44 353.468 L2184.44 349.07 Q2186.8 350.297 2189.09 350.922 Q2191.39 351.524 2193.63 351.524 Q2196.64 351.524 2198.26 350.506 Q2199.88 349.464 2199.88 347.589 Q2199.88 345.853 2198.7 344.927 Q2197.54 344.001 2193.59 343.144 L2192.1 342.797 Q2188.15 341.964 2186.39 340.251 Q2184.63 338.515 2184.63 335.506 Q2184.63 331.848 2187.22 329.858 Q2189.81 327.867 2194.58 327.867 Q2196.94 327.867 2199.03 328.214 Q2201.11 328.561 2202.87 329.256 Z" fill="#000000" fill-rule="evenodd" fill-opacity="1" /><path clip-path="url(#clip750)" d="M 0 0 M2233.21 340.39 L2233.21 342.473 L2213.63 342.473 Q2213.91 346.871 2216.27 349.186 Q2218.65 351.478 2222.89 351.478 Q2225.34 351.478 2227.64 350.876 Q2229.95 350.274 2232.22 349.07 L2232.22 353.098 Q2229.93 354.07 2227.52 354.58 Q2225.11 355.089 2222.64 355.089 Q2216.43 355.089 2212.8 351.478 Q2209.19 347.867 2209.19 341.709 Q2209.19 335.344 2212.61 331.617 Q2216.06 327.867 2221.9 327.867 Q2227.13 327.867 2230.16 331.246 Q2233.21 334.603 2233.21 340.39 M2228.96 339.14 Q2228.91 335.645 2226.99 333.561 Q2225.09 331.478 2221.94 331.478 Q2218.38 331.478 2216.22 333.492 Q2214.09 335.506 2213.77 339.163 L2228.96 339.14 Z" fill="#000000" fill-rule="evenodd" fill-opacity="1" /></svg>
