<?xml version="1.0" encoding="utf-8"?>
<svg xmlns="http://www.w3.org/2000/svg" xmlns:xlink="http://www.w3.org/1999/xlink" width="600" height="400" viewBox="0 0 2400 1600">
<defs>
  <clipPath id="clip840">
    <rect x="0" y="0" width="2400" height="1600"/>
  </clipPath>
</defs>
<path clip-path="url(#clip840)" d="
M0 1600 L2400 1600 L2400 0 L0 0  Z
  " fill="#ffffff" fill-rule="evenodd" fill-opacity="1"/>
<defs>
  <clipPath id="clip841">
    <rect x="480" y="0" width="1681" height="1600"/>
  </clipPath>
</defs>
<path clip-path="url(#clip840)" d="
M201.019 1330.92 L2352.76 1330.92 L2352.76 47.2441 L201.019 47.2441  Z
  " fill="#ffffff" fill-rule="evenodd" fill-opacity="1"/>
<defs>
  <clipPath id="clip842">
    <rect x="201" y="47" width="2153" height="1285"/>
  </clipPath>
</defs>
<polyline clip-path="url(#clip842)" style="stroke:#000000; stroke-width:2; stroke-opacity:0.1; fill:none" points="
  300.138,1330.92 300.138,47.2441 
  "/>
<polyline clip-path="url(#clip842)" style="stroke:#000000; stroke-width:2; stroke-opacity:0.1; fill:none" points="
  385.073,1330.92 385.073,47.2441 
  "/>
<polyline clip-path="url(#clip842)" style="stroke:#000000; stroke-width:2; stroke-opacity:0.1; fill:none" points="
  470.008,1330.92 470.008,47.2441 
  "/>
<polyline clip-path="url(#clip842)" style="stroke:#000000; stroke-width:2; stroke-opacity:0.1; fill:none" points="
  554.942,1330.92 554.942,47.2441 
  "/>
<polyline clip-path="url(#clip842)" style="stroke:#000000; stroke-width:2; stroke-opacity:0.1; fill:none" points="
  639.877,1330.92 639.877,47.2441 
  "/>
<polyline clip-path="url(#clip842)" style="stroke:#000000; stroke-width:2; stroke-opacity:0.1; fill:none" points="
  724.812,1330.92 724.812,47.2441 
  "/>
<polyline clip-path="url(#clip842)" style="stroke:#000000; stroke-width:2; stroke-opacity:0.1; fill:none" points="
  809.747,1330.92 809.747,47.2441 
  "/>
<polyline clip-path="url(#clip842)" style="stroke:#000000; stroke-width:2; stroke-opacity:0.1; fill:none" points="
  894.681,1330.92 894.681,47.2441 
  "/>
<polyline clip-path="url(#clip842)" style="stroke:#000000; stroke-width:2; stroke-opacity:0.1; fill:none" points="
  979.616,1330.92 979.616,47.2441 
  "/>
<polyline clip-path="url(#clip842)" style="stroke:#000000; stroke-width:2; stroke-opacity:0.1; fill:none" points="
  1064.55,1330.92 1064.55,47.2441 
  "/>
<polyline clip-path="url(#clip842)" style="stroke:#000000; stroke-width:2; stroke-opacity:0.1; fill:none" points="
  1149.49,1330.92 1149.49,47.2441 
  "/>
<polyline clip-path="url(#clip842)" style="stroke:#000000; stroke-width:2; stroke-opacity:0.1; fill:none" points="
  1234.42,1330.92 1234.42,47.2441 
  "/>
<polyline clip-path="url(#clip842)" style="stroke:#000000; stroke-width:2; stroke-opacity:0.1; fill:none" points="
  1319.35,1330.92 1319.35,47.2441 
  "/>
<polyline clip-path="url(#clip842)" style="stroke:#000000; stroke-width:2; stroke-opacity:0.1; fill:none" points="
  1404.29,1330.92 1404.29,47.2441 
  "/>
<polyline clip-path="url(#clip842)" style="stroke:#000000; stroke-width:2; stroke-opacity:0.1; fill:none" points="
  1489.22,1330.92 1489.22,47.2441 
  "/>
<polyline clip-path="url(#clip842)" style="stroke:#000000; stroke-width:2; stroke-opacity:0.1; fill:none" points="
  1574.16,1330.92 1574.16,47.2441 
  "/>
<polyline clip-path="url(#clip842)" style="stroke:#000000; stroke-width:2; stroke-opacity:0.1; fill:none" points="
  1659.09,1330.92 1659.09,47.2441 
  "/>
<polyline clip-path="url(#clip842)" style="stroke:#000000; stroke-width:2; stroke-opacity:0.1; fill:none" points="
  1744.03,1330.92 1744.03,47.2441 
  "/>
<polyline clip-path="url(#clip842)" style="stroke:#000000; stroke-width:2; stroke-opacity:0.1; fill:none" points="
  1828.96,1330.92 1828.96,47.2441 
  "/>
<polyline clip-path="url(#clip842)" style="stroke:#000000; stroke-width:2; stroke-opacity:0.1; fill:none" points="
  1913.9,1330.92 1913.9,47.2441 
  "/>
<polyline clip-path="url(#clip842)" style="stroke:#000000; stroke-width:2; stroke-opacity:0.1; fill:none" points="
  1998.83,1330.92 1998.83,47.2441 
  "/>
<polyline clip-path="url(#clip842)" style="stroke:#000000; stroke-width:2; stroke-opacity:0.1; fill:none" points="
  2083.77,1330.92 2083.77,47.2441 
  "/>
<polyline clip-path="url(#clip842)" style="stroke:#000000; stroke-width:2; stroke-opacity:0.1; fill:none" points="
  2168.7,1330.92 2168.7,47.2441 
  "/>
<polyline clip-path="url(#clip842)" style="stroke:#000000; stroke-width:2; stroke-opacity:0.1; fill:none" points="
  2253.64,1330.92 2253.64,47.2441 
  "/>
<polyline clip-path="url(#clip840)" style="stroke:#000000; stroke-width:4; stroke-opacity:1; fill:none" points="
  201.019,1330.92 2352.76,1330.92 
  "/>
<polyline clip-path="url(#clip840)" style="stroke:#000000; stroke-width:4; stroke-opacity:1; fill:none" points="
  300.138,1330.92 300.138,1315.52 
  "/>
<polyline clip-path="url(#clip840)" style="stroke:#000000; stroke-width:4; stroke-opacity:1; fill:none" points="
  385.073,1330.92 385.073,1315.52 
  "/>
<polyline clip-path="url(#clip840)" style="stroke:#000000; stroke-width:4; stroke-opacity:1; fill:none" points="
  470.008,1330.92 470.008,1315.52 
  "/>
<polyline clip-path="url(#clip840)" style="stroke:#000000; stroke-width:4; stroke-opacity:1; fill:none" points="
  554.942,1330.92 554.942,1315.52 
  "/>
<polyline clip-path="url(#clip840)" style="stroke:#000000; stroke-width:4; stroke-opacity:1; fill:none" points="
  639.877,1330.92 639.877,1315.52 
  "/>
<polyline clip-path="url(#clip840)" style="stroke:#000000; stroke-width:4; stroke-opacity:1; fill:none" points="
  724.812,1330.92 724.812,1315.52 
  "/>
<polyline clip-path="url(#clip840)" style="stroke:#000000; stroke-width:4; stroke-opacity:1; fill:none" points="
  809.747,1330.92 809.747,1315.52 
  "/>
<polyline clip-path="url(#clip840)" style="stroke:#000000; stroke-width:4; stroke-opacity:1; fill:none" points="
  894.681,1330.92 894.681,1315.52 
  "/>
<polyline clip-path="url(#clip840)" style="stroke:#000000; stroke-width:4; stroke-opacity:1; fill:none" points="
  979.616,1330.92 979.616,1315.52 
  "/>
<polyline clip-path="url(#clip840)" style="stroke:#000000; stroke-width:4; stroke-opacity:1; fill:none" points="
  1064.55,1330.92 1064.55,1315.52 
  "/>
<polyline clip-path="url(#clip840)" style="stroke:#000000; stroke-width:4; stroke-opacity:1; fill:none" points="
  1149.49,1330.92 1149.49,1315.52 
  "/>
<polyline clip-path="url(#clip840)" style="stroke:#000000; stroke-width:4; stroke-opacity:1; fill:none" points="
  1234.42,1330.92 1234.42,1315.52 
  "/>
<polyline clip-path="url(#clip840)" style="stroke:#000000; stroke-width:4; stroke-opacity:1; fill:none" points="
  1319.35,1330.92 1319.35,1315.52 
  "/>
<polyline clip-path="url(#clip840)" style="stroke:#000000; stroke-width:4; stroke-opacity:1; fill:none" points="
  1404.29,1330.92 1404.29,1315.52 
  "/>
<polyline clip-path="url(#clip840)" style="stroke:#000000; stroke-width:4; stroke-opacity:1; fill:none" points="
  1489.22,1330.92 1489.22,1315.52 
  "/>
<polyline clip-path="url(#clip840)" style="stroke:#000000; stroke-width:4; stroke-opacity:1; fill:none" points="
  1574.16,1330.92 1574.16,1315.52 
  "/>
<polyline clip-path="url(#clip840)" style="stroke:#000000; stroke-width:4; stroke-opacity:1; fill:none" points="
  1659.09,1330.92 1659.09,1315.52 
  "/>
<polyline clip-path="url(#clip840)" style="stroke:#000000; stroke-width:4; stroke-opacity:1; fill:none" points="
  1744.03,1330.92 1744.03,1315.52 
  "/>
<polyline clip-path="url(#clip840)" style="stroke:#000000; stroke-width:4; stroke-opacity:1; fill:none" points="
  1828.96,1330.92 1828.96,1315.52 
  "/>
<polyline clip-path="url(#clip840)" style="stroke:#000000; stroke-width:4; stroke-opacity:1; fill:none" points="
  1913.9,1330.92 1913.9,1315.52 
  "/>
<polyline clip-path="url(#clip840)" style="stroke:#000000; stroke-width:4; stroke-opacity:1; fill:none" points="
  1998.83,1330.92 1998.83,1315.52 
  "/>
<polyline clip-path="url(#clip840)" style="stroke:#000000; stroke-width:4; stroke-opacity:1; fill:none" points="
  2083.77,1330.92 2083.77,1315.52 
  "/>
<polyline clip-path="url(#clip840)" style="stroke:#000000; stroke-width:4; stroke-opacity:1; fill:none" points="
  2168.7,1330.92 2168.7,1315.52 
  "/>
<polyline clip-path="url(#clip840)" style="stroke:#000000; stroke-width:4; stroke-opacity:1; fill:none" points="
  2253.64,1330.92 2253.64,1315.52 
  "/>
<path clip-path="url(#clip840)" d="M 0 0 M201.628 1595.82 L209.788 1581.69 L213.196 1583.66 L202.224 1602.66 L198.816 1600.69 Q197.761 1597.01 196.043 1590.73 Q194.317 1584.41 193.745 1582.72 Q192.682 1579.51 191.619 1577.88 Q190.547 1576.22 189.083 1575.38 Q186.698 1574 184.222 1574.81 Q181.758 1575.61 180.207 1578.3 Q179.107 1580.2 178.542 1582.71 Q177.988 1585.19 177.942 1588.38 L173.853 1586.01 Q174.283 1583 175.008 1580.59 Q175.734 1578.17 176.753 1576.41 Q179.438 1571.76 183.36 1570.33 Q187.283 1568.91 191.172 1571.16 Q193.016 1572.22 194.275 1573.88 Q195.525 1575.51 196.717 1578.63 Q197.009 1579.47 198.245 1583.77 Q199.461 1588.05 201.628 1595.82 Z" fill="#000000" fill-rule="evenodd" fill-opacity="1" /><path clip-path="url(#clip840)" d="M 0 0 M195.84 1550.76 Q194.034 1553.88 196.207 1557.25 Q198.371 1560.58 204.546 1564.15 Q210.7 1567.7 214.69 1567.92 Q218.671 1568.11 220.477 1564.98 Q222.294 1561.83 220.13 1558.5 Q217.957 1555.13 211.803 1551.58 Q205.628 1548.02 201.647 1547.83 Q197.657 1547.61 195.84 1550.76 M192.632 1548.9 Q195.537 1543.87 201.054 1543.53 Q206.563 1543.16 214.14 1547.53 Q221.698 1551.89 224.148 1556.86 Q226.59 1561.8 223.685 1566.83 Q220.779 1571.86 215.271 1572.24 Q209.754 1572.58 202.196 1568.22 Q194.618 1563.84 192.177 1558.91 Q189.727 1553.94 192.632 1548.9 Z" fill="#000000" fill-rule="evenodd" fill-opacity="1" /><path clip-path="url(#clip840)" d="M 0 0 M231.79 1543.58 L239.95 1529.45 L243.358 1531.42 L232.386 1550.42 L228.978 1548.45 Q227.923 1544.77 226.205 1538.49 Q224.479 1532.17 223.907 1530.48 Q222.844 1527.27 221.781 1525.64 Q220.708 1523.98 219.245 1523.13 Q216.859 1521.76 214.384 1522.57 Q211.92 1523.37 210.369 1526.05 Q209.269 1527.96 208.704 1530.47 Q208.15 1532.95 208.104 1536.13 L204.015 1533.77 Q204.445 1530.76 205.17 1528.35 Q205.896 1525.93 206.914 1524.17 Q209.6 1519.52 213.522 1518.09 Q217.445 1516.67 221.334 1518.91 Q223.178 1519.98 224.437 1521.64 Q225.687 1523.27 226.879 1526.39 Q227.171 1527.23 228.407 1531.52 Q229.622 1535.81 231.79 1543.58 Z" fill="#000000" fill-rule="evenodd" fill-opacity="1" /><path clip-path="url(#clip840)" d="M 0 0 M245.262 1520.25 L249.082 1513.63 L226.248 1500.45 L223.537 1508.48 L219.848 1506.35 L222.537 1498.36 L224.875 1494.31 L251.396 1509.62 L255.216 1503.01 L258.624 1504.97 L248.67 1522.21 L245.262 1520.25 Z" fill="#000000" fill-rule="evenodd" fill-opacity="1" /><path clip-path="url(#clip840)" d="M 0 0 M249.079 1491.74 L255.317 1480.93 L258.605 1482.83 L252.366 1493.64 L249.079 1491.74 Z" fill="#000000" fill-rule="evenodd" fill-opacity="1" /><path clip-path="url(#clip840)" d="M 0 0 M249.636 1457.58 Q247.83 1460.71 250.003 1464.07 Q252.167 1467.41 258.342 1470.97 Q264.496 1474.53 268.486 1474.74 Q272.467 1474.93 274.273 1471.8 Q276.09 1468.66 273.926 1465.32 Q271.753 1461.96 265.599 1458.4 Q259.424 1454.84 255.443 1454.65 Q251.453 1454.43 249.636 1457.58 M246.428 1455.73 Q249.333 1450.7 254.85 1450.35 Q260.359 1449.98 267.937 1454.35 Q275.494 1458.72 277.944 1463.69 Q280.386 1468.62 277.481 1473.66 Q274.575 1478.69 269.067 1479.06 Q263.55 1479.4 255.992 1475.04 Q248.414 1470.67 245.973 1465.73 Q243.523 1460.76 246.428 1455.73 Z" fill="#000000" fill-rule="evenodd" fill-opacity="1" /><path clip-path="url(#clip840)" d="M 0 0 M277.926 1434.27 Q280.225 1431.73 283.128 1431.24 Q286.041 1430.73 288.928 1432.39 Q293.358 1434.95 294.025 1439.4 Q294.691 1443.85 291.45 1449.46 Q290.362 1451.34 288.824 1453.13 Q287.317 1454.9 285.349 1456.6 L281.44 1454.34 Q283.394 1453.23 285.053 1451.51 Q286.711 1449.8 287.973 1447.61 Q290.172 1443.8 289.814 1440.95 Q289.468 1438.08 286.602 1436.42 Q283.955 1434.89 281.396 1435.9 Q278.827 1436.88 276.917 1440.19 L274.904 1443.67 L271.576 1441.75 L273.682 1438.1 Q275.407 1435.12 275.138 1432.85 Q274.85 1430.57 272.605 1429.28 Q270.299 1427.95 268.127 1428.88 Q265.947 1429.79 264.188 1432.84 Q263.227 1434.5 262.488 1436.61 Q261.75 1438.73 261.192 1441.45 L257.584 1439.37 Q258.273 1436.69 259.11 1434.5 Q259.958 1432.29 260.988 1430.51 Q263.65 1425.9 267.306 1424.43 Q270.942 1422.94 274.51 1425 Q276.996 1426.44 277.898 1428.86 Q278.78 1431.27 277.926 1434.27 Z" fill="#000000" fill-rule="evenodd" fill-opacity="1" /><path clip-path="url(#clip840)" d="M 0 0 M287.794 1424.68 L294.032 1413.88 L297.32 1415.77 L291.081 1426.58 L287.794 1424.68 Z" fill="#000000" fill-rule="evenodd" fill-opacity="1" /><path clip-path="url(#clip840)" d="M 0 0 M288.351 1390.52 Q286.545 1393.65 288.718 1397.02 Q290.882 1400.35 297.057 1403.92 Q303.211 1407.47 307.201 1407.69 Q311.183 1407.87 312.988 1404.75 Q314.805 1401.6 312.641 1398.27 Q310.468 1394.9 304.314 1391.35 Q298.139 1387.78 294.158 1387.59 Q290.168 1387.38 288.351 1390.52 M285.143 1388.67 Q288.048 1383.64 293.565 1383.3 Q299.074 1382.92 306.652 1387.3 Q314.209 1391.66 316.659 1396.63 Q319.101 1401.57 316.196 1406.6 Q313.291 1411.63 307.782 1412.01 Q302.265 1412.35 294.707 1407.99 Q287.13 1403.61 284.688 1398.67 Q282.238 1393.7 285.143 1388.67 Z" fill="#000000" fill-rule="evenodd" fill-opacity="1" /><path clip-path="url(#clip840)" d="M 0 0 M322.692 1386.13 L326.512 1379.52 L303.678 1366.34 L300.967 1374.37 L297.278 1372.24 L299.967 1364.25 L302.305 1360.2 L328.827 1375.51 L332.646 1368.89 L336.054 1370.86 L326.1 1388.1 L322.692 1386.13 Z" fill="#000000" fill-rule="evenodd" fill-opacity="1" /><path clip-path="url(#clip840)" d="M 0 0 M455.576 1597.31 L463.736 1583.17 L467.144 1585.14 L456.171 1604.15 L452.763 1602.18 Q451.709 1598.5 449.991 1592.21 Q448.265 1585.9 447.693 1584.2 Q446.63 1581 445.566 1579.37 Q444.494 1577.7 443.031 1576.86 Q440.645 1575.48 438.17 1576.3 Q435.705 1577.09 434.154 1579.78 Q433.055 1581.68 432.49 1584.19 Q431.936 1586.68 431.89 1589.86 L427.801 1587.5 Q428.23 1584.49 428.956 1582.07 Q429.682 1579.66 430.7 1577.89 Q433.385 1573.24 437.308 1571.82 Q441.231 1570.39 445.12 1572.64 Q446.964 1573.7 448.223 1575.37 Q449.473 1577 450.665 1580.12 Q450.957 1580.95 452.193 1585.25 Q453.408 1589.53 455.576 1597.31 Z" fill="#000000" fill-rule="evenodd" fill-opacity="1" /><path clip-path="url(#clip840)" d="M 0 0 M449.787 1552.24 Q447.982 1555.37 450.155 1558.73 Q452.319 1562.07 458.493 1565.63 Q464.648 1569.19 468.638 1569.4 Q472.619 1569.59 474.425 1566.46 Q476.242 1563.32 474.077 1559.98 Q471.905 1556.62 465.75 1553.06 Q459.576 1549.5 455.594 1549.31 Q451.604 1549.09 449.787 1552.24 M446.58 1550.39 Q449.485 1545.36 455.002 1545.01 Q460.511 1544.64 468.088 1549.01 Q475.646 1553.38 478.096 1558.35 Q480.537 1563.28 477.632 1568.32 Q474.727 1573.35 469.219 1573.72 Q463.701 1574.07 456.144 1569.7 Q448.566 1565.33 446.125 1560.39 Q443.675 1555.42 446.58 1550.39 Z" fill="#000000" fill-rule="evenodd" fill-opacity="1" /><path clip-path="url(#clip840)" d="M 0 0 M485.738 1545.06 L493.897 1530.93 L497.305 1532.9 L486.333 1551.9 L482.925 1549.94 Q481.871 1546.25 480.153 1539.97 Q478.427 1533.65 477.854 1531.96 Q476.792 1528.75 475.728 1527.12 Q474.656 1525.46 473.193 1524.62 Q470.807 1523.24 468.331 1524.06 Q465.867 1524.85 464.316 1527.54 Q463.217 1529.44 462.652 1531.95 Q462.098 1534.44 462.052 1537.62 L457.963 1535.26 Q458.392 1532.24 459.118 1529.83 Q459.844 1527.41 460.862 1525.65 Q463.547 1521 467.47 1519.58 Q471.393 1518.15 475.282 1520.4 Q477.126 1521.46 478.385 1523.12 Q479.635 1524.76 480.827 1527.88 Q481.119 1528.71 482.355 1533.01 Q483.57 1537.29 485.738 1545.06 Z" fill="#000000" fill-rule="evenodd" fill-opacity="1" /><path clip-path="url(#clip840)" d="M 0 0 M499.21 1521.73 L503.029 1515.11 L480.196 1501.93 L477.484 1509.96 L473.796 1507.83 L476.484 1499.84 L478.822 1495.79 L505.344 1511.11 L509.164 1504.49 L512.572 1506.46 L502.618 1523.7 L499.21 1521.73 Z" fill="#000000" fill-rule="evenodd" fill-opacity="1" /><path clip-path="url(#clip840)" d="M 0 0 M503.026 1493.22 L509.265 1482.42 L512.552 1484.31 L506.314 1495.12 L503.026 1493.22 Z" fill="#000000" fill-rule="evenodd" fill-opacity="1" /><path clip-path="url(#clip840)" d="M 0 0 M503.583 1459.06 Q501.778 1462.19 503.951 1465.56 Q506.115 1468.89 512.289 1472.46 Q518.444 1476.01 522.434 1476.23 Q526.415 1476.41 528.221 1473.29 Q530.038 1470.14 527.874 1466.81 Q525.701 1463.44 519.546 1459.89 Q513.372 1456.32 509.39 1456.13 Q505.4 1455.92 503.583 1459.06 M500.376 1457.21 Q503.281 1452.18 508.798 1451.84 Q514.307 1451.46 521.884 1455.84 Q529.442 1460.2 531.892 1465.17 Q534.333 1470.11 531.428 1475.14 Q528.523 1480.17 523.015 1480.55 Q517.497 1480.89 509.94 1476.53 Q502.362 1472.15 499.921 1467.21 Q497.471 1462.24 500.376 1457.21 Z" fill="#000000" fill-rule="evenodd" fill-opacity="1" /><path clip-path="url(#clip840)" d="M 0 0 M531.873 1435.76 Q534.173 1433.21 537.075 1432.72 Q539.989 1432.21 542.876 1433.88 Q547.306 1436.43 547.972 1440.88 Q548.639 1445.33 545.398 1450.94 Q544.31 1452.83 542.772 1454.61 Q541.265 1456.39 539.297 1458.08 L535.387 1455.83 Q537.342 1454.71 539.001 1453 Q540.659 1451.28 541.921 1449.1 Q544.12 1445.29 543.762 1442.43 Q543.416 1439.56 540.549 1437.91 Q537.903 1436.38 535.343 1437.39 Q532.775 1438.36 530.865 1441.67 L528.851 1445.16 L525.524 1443.24 L527.63 1439.59 Q529.355 1436.6 529.086 1434.33 Q528.798 1432.06 526.552 1430.76 Q524.247 1429.43 522.075 1430.37 Q519.895 1431.27 518.136 1434.32 Q517.175 1435.98 516.436 1438.1 Q515.697 1440.21 515.14 1442.94 L511.531 1440.85 Q512.221 1438.18 513.058 1435.99 Q513.906 1433.78 514.936 1431.99 Q517.598 1427.38 521.254 1425.91 Q524.89 1424.43 528.458 1426.49 Q530.944 1427.92 531.846 1430.34 Q532.728 1432.75 531.873 1435.76 Z" fill="#000000" fill-rule="evenodd" fill-opacity="1" /><path clip-path="url(#clip840)" d="M 0 0 M541.741 1426.17 L547.98 1415.36 L551.267 1417.26 L545.029 1428.06 L541.741 1426.17 Z" fill="#000000" fill-rule="evenodd" fill-opacity="1" /><path clip-path="url(#clip840)" d="M 0 0 M542.298 1392.01 Q540.493 1395.13 542.666 1398.5 Q544.83 1401.83 551.004 1405.4 Q557.159 1408.95 561.149 1409.17 Q565.13 1409.36 566.936 1406.23 Q568.753 1403.08 566.589 1399.75 Q564.416 1396.38 558.261 1392.83 Q552.087 1389.26 548.105 1389.08 Q544.115 1388.86 542.298 1392.01 M539.091 1390.15 Q541.996 1385.12 547.513 1384.78 Q553.022 1384.41 560.599 1388.78 Q568.157 1393.14 570.607 1398.11 Q573.048 1403.05 570.143 1408.08 Q567.238 1413.11 561.73 1413.49 Q556.213 1413.83 548.655 1409.47 Q541.077 1405.09 538.636 1400.16 Q536.186 1395.19 539.091 1390.15 Z" fill="#000000" fill-rule="evenodd" fill-opacity="1" /><path clip-path="url(#clip840)" d="M 0 0 M559.665 1363.92 L569.739 1383.37 L575.642 1373.14 L559.665 1363.92 M555.523 1362.94 L558.463 1357.85 L577.969 1369.11 L580.434 1364.84 L583.802 1366.79 L581.336 1371.06 L588.393 1375.13 L586.067 1379.16 L579.01 1375.09 L571.209 1388.6 L567.3 1386.34 L555.523 1362.94 Z" fill="#000000" fill-rule="evenodd" fill-opacity="1" /><path clip-path="url(#clip840)" d="M 0 0 M710.716 1596.73 L718.875 1582.59 L722.283 1584.56 L711.311 1603.56 L707.903 1601.6 Q706.849 1597.91 705.131 1591.63 Q703.405 1585.31 702.832 1583.62 Q701.77 1580.41 700.706 1578.78 Q699.634 1577.12 698.171 1576.28 Q695.785 1574.9 693.309 1575.72 Q690.845 1576.51 689.294 1579.2 Q688.195 1581.1 687.63 1583.61 Q687.076 1586.1 687.03 1589.28 L682.94 1586.92 Q683.37 1583.9 684.096 1581.49 Q684.822 1579.08 685.84 1577.31 Q688.525 1572.66 692.448 1571.24 Q696.371 1569.81 700.26 1572.06 Q702.104 1573.12 703.363 1574.79 Q704.613 1576.42 705.805 1579.54 Q706.097 1580.37 707.333 1584.67 Q708.548 1588.95 710.716 1596.73 Z" fill="#000000" fill-rule="evenodd" fill-opacity="1" /><path clip-path="url(#clip840)" d="M 0 0 M704.927 1551.66 Q703.122 1554.79 705.294 1558.15 Q707.459 1561.49 713.633 1565.05 Q719.788 1568.6 723.778 1568.82 Q727.759 1569.01 729.565 1565.88 Q731.382 1562.74 729.217 1559.4 Q727.044 1556.04 720.89 1552.48 Q714.716 1548.92 710.734 1548.73 Q706.744 1548.51 704.927 1551.66 M701.72 1549.81 Q704.625 1544.78 710.142 1544.43 Q715.65 1544.06 723.228 1548.43 Q730.786 1552.8 733.236 1557.77 Q735.677 1562.7 732.772 1567.74 Q729.867 1572.77 724.358 1573.14 Q718.841 1573.48 711.284 1569.12 Q703.706 1564.75 701.265 1559.81 Q698.815 1554.84 701.72 1549.81 Z" fill="#000000" fill-rule="evenodd" fill-opacity="1" /><path clip-path="url(#clip840)" d="M 0 0 M740.878 1544.48 L749.037 1530.35 L752.445 1532.32 L741.473 1551.32 L738.065 1549.35 Q737.011 1545.67 735.293 1539.39 Q733.567 1533.07 732.994 1531.38 Q731.932 1528.17 730.868 1526.54 Q729.796 1524.88 728.333 1524.04 Q725.947 1522.66 723.471 1523.47 Q721.007 1524.27 719.456 1526.96 Q718.357 1528.86 717.791 1531.37 Q717.238 1533.85 717.192 1537.04 L713.102 1534.67 Q713.532 1531.66 714.258 1529.25 Q714.983 1526.83 716.002 1525.07 Q718.687 1520.42 722.61 1518.99 Q726.532 1517.57 730.421 1519.82 Q732.266 1520.88 733.525 1522.54 Q734.775 1524.17 735.967 1527.29 Q736.259 1528.13 737.495 1532.43 Q738.71 1536.71 740.878 1544.48 Z" fill="#000000" fill-rule="evenodd" fill-opacity="1" /><path clip-path="url(#clip840)" d="M 0 0 M754.35 1521.15 L758.169 1514.53 L735.336 1501.35 L732.624 1509.38 L728.936 1507.25 L731.624 1499.26 L733.962 1495.21 L760.484 1510.52 L764.303 1503.91 L767.711 1505.88 L757.758 1523.12 L754.35 1521.15 Z" fill="#000000" fill-rule="evenodd" fill-opacity="1" /><path clip-path="url(#clip840)" d="M 0 0 M758.166 1492.64 L764.405 1481.84 L767.692 1483.73 L761.454 1494.54 L758.166 1492.64 Z" fill="#000000" fill-rule="evenodd" fill-opacity="1" /><path clip-path="url(#clip840)" d="M 0 0 M758.723 1458.48 Q756.918 1461.61 759.09 1464.97 Q761.255 1468.31 767.429 1471.87 Q773.584 1475.43 777.574 1475.65 Q781.555 1475.83 783.361 1472.71 Q785.178 1469.56 783.013 1466.22 Q780.84 1462.86 774.686 1459.3 Q768.512 1455.74 764.53 1455.55 Q760.54 1455.33 758.723 1458.48 M755.516 1456.63 Q758.421 1451.6 763.938 1451.25 Q769.446 1450.88 777.024 1455.26 Q784.582 1459.62 787.032 1464.59 Q789.473 1469.53 786.568 1474.56 Q783.663 1479.59 778.154 1479.96 Q772.637 1480.31 765.08 1475.94 Q757.502 1471.57 755.061 1466.63 Q752.611 1461.66 755.516 1456.63 Z" fill="#000000" fill-rule="evenodd" fill-opacity="1" /><path clip-path="url(#clip840)" d="M 0 0 M787.013 1435.18 Q789.313 1432.63 792.215 1432.14 Q795.129 1431.63 798.016 1433.3 Q802.446 1435.85 803.112 1440.3 Q803.779 1444.75 800.538 1450.36 Q799.45 1452.25 797.912 1454.03 Q796.405 1455.81 794.436 1457.5 L790.527 1455.25 Q792.482 1454.13 794.14 1452.41 Q795.799 1450.7 797.061 1448.51 Q799.26 1444.71 798.902 1441.85 Q798.556 1438.98 795.689 1437.32 Q793.043 1435.8 790.483 1436.8 Q787.915 1437.78 786.005 1441.09 L783.991 1444.58 L780.663 1442.66 L782.77 1439.01 Q784.494 1436.02 784.226 1433.75 Q783.938 1431.48 781.692 1430.18 Q779.387 1428.85 777.215 1429.79 Q775.035 1430.69 773.275 1433.74 Q772.315 1435.4 771.576 1437.52 Q770.837 1439.63 770.28 1442.35 L766.671 1440.27 Q767.361 1437.59 768.197 1435.4 Q769.046 1433.19 770.076 1431.41 Q772.738 1426.8 776.394 1425.33 Q780.029 1423.85 783.598 1425.91 Q786.084 1427.34 786.986 1429.76 Q787.868 1432.17 787.013 1435.18 Z" fill="#000000" fill-rule="evenodd" fill-opacity="1" /><path clip-path="url(#clip840)" d="M 0 0 M796.881 1425.58 L803.12 1414.78 L806.407 1416.68 L800.169 1427.48 L796.881 1425.58 Z" fill="#000000" fill-rule="evenodd" fill-opacity="1" /><path clip-path="url(#clip840)" d="M 0 0 M797.438 1391.43 Q795.633 1394.55 797.806 1397.92 Q799.97 1401.25 806.144 1404.82 Q812.299 1408.37 816.289 1408.59 Q820.27 1408.78 822.076 1405.65 Q823.893 1402.5 821.728 1399.17 Q819.556 1395.8 813.401 1392.25 Q807.227 1388.68 803.245 1388.5 Q799.255 1388.28 797.438 1391.43 M794.231 1389.57 Q797.136 1384.54 802.653 1384.2 Q808.161 1383.82 815.739 1388.2 Q823.297 1392.56 825.747 1397.53 Q828.188 1402.47 825.283 1407.5 Q822.378 1412.53 816.869 1412.91 Q811.352 1413.25 803.795 1408.89 Q796.217 1404.51 793.776 1399.57 Q791.326 1394.6 794.231 1389.57 Z" fill="#000000" fill-rule="evenodd" fill-opacity="1" /><path clip-path="url(#clip840)" d="M 0 0 M834.231 1389.23 L830.542 1387.1 Q832.143 1385.99 833.427 1384.65 Q834.711 1383.3 835.579 1381.8 Q837.894 1377.79 836.423 1374.13 Q834.943 1370.45 829.624 1366.97 Q830.677 1369.13 830.569 1371.45 Q830.461 1373.76 829.211 1375.93 Q826.618 1380.42 822.396 1381.48 Q818.165 1382.52 813.454 1379.8 Q808.843 1377.13 807.631 1372.8 Q806.418 1368.46 809.034 1363.93 Q812.032 1358.74 817.595 1358.32 Q823.15 1357.86 830.728 1362.24 Q837.804 1366.32 840.089 1372.13 Q842.366 1377.91 839.091 1383.59 Q838.211 1385.11 837.008 1386.5 Q835.804 1387.89 834.231 1389.23 M826.194 1373.84 Q827.768 1371.11 826.818 1368.45 Q825.88 1365.77 822.632 1363.9 Q819.404 1362.04 816.614 1362.56 Q813.815 1363.06 812.241 1365.79 Q810.667 1368.51 811.626 1371.2 Q812.576 1373.86 815.803 1375.73 Q819.051 1377.6 821.83 1377.09 Q824.62 1376.57 826.194 1373.84 Z" fill="#000000" fill-rule="evenodd" fill-opacity="1" /><path clip-path="url(#clip840)" d="M 0 0 M966.226 1595.5 L974.386 1581.37 L977.794 1583.34 L966.821 1602.34 L963.413 1600.37 Q962.359 1596.69 960.641 1590.41 Q958.915 1584.09 958.343 1582.4 Q957.28 1579.19 956.217 1577.56 Q955.144 1575.9 953.681 1575.06 Q951.295 1573.68 948.82 1574.49 Q946.355 1575.29 944.805 1577.98 Q943.705 1579.88 943.14 1582.39 Q942.586 1584.87 942.54 1588.06 L938.451 1585.69 Q938.88 1582.68 939.606 1580.27 Q940.332 1577.85 941.35 1576.09 Q944.035 1571.44 947.958 1570.01 Q951.881 1568.59 955.77 1570.84 Q957.614 1571.9 958.873 1573.56 Q960.123 1575.19 961.315 1578.31 Q961.607 1579.15 962.843 1583.45 Q964.058 1587.73 966.226 1595.5 Z" fill="#000000" fill-rule="evenodd" fill-opacity="1" /><path clip-path="url(#clip840)" d="M 0 0 M960.437 1550.44 Q958.632 1553.56 960.805 1556.93 Q962.969 1560.26 969.143 1563.83 Q975.298 1567.38 979.288 1567.6 Q983.269 1567.79 985.075 1564.66 Q986.892 1561.51 984.728 1558.18 Q982.555 1554.81 976.4 1551.26 Q970.226 1547.69 966.244 1547.51 Q962.254 1547.29 960.437 1550.44 M957.23 1548.58 Q960.135 1543.55 965.652 1543.21 Q971.161 1542.83 978.738 1547.21 Q986.296 1551.57 988.746 1556.54 Q991.187 1561.48 988.282 1566.51 Q985.377 1571.54 979.869 1571.92 Q974.352 1572.26 966.794 1567.9 Q959.216 1563.52 956.775 1558.59 Q954.325 1553.62 957.23 1548.58 Z" fill="#000000" fill-rule="evenodd" fill-opacity="1" /><path clip-path="url(#clip840)" d="M 0 0 M996.388 1543.26 L1004.55 1529.13 L1007.96 1531.09 L996.983 1550.1 L993.575 1548.13 Q992.521 1544.45 990.803 1538.16 Q989.077 1531.85 988.505 1530.16 Q987.442 1526.95 986.378 1525.32 Q985.306 1523.66 983.843 1522.81 Q981.457 1521.44 978.982 1522.25 Q976.517 1523.05 974.966 1525.73 Q973.867 1527.64 973.302 1530.15 Q972.748 1532.63 972.702 1535.81 L968.613 1533.45 Q969.042 1530.44 969.768 1528.02 Q970.494 1525.61 971.512 1523.85 Q974.197 1519.2 978.12 1517.77 Q982.043 1516.35 985.932 1518.59 Q987.776 1519.66 989.035 1521.32 Q990.285 1522.95 991.477 1526.07 Q991.769 1526.91 993.005 1531.2 Q994.22 1535.49 996.388 1543.26 Z" fill="#000000" fill-rule="evenodd" fill-opacity="1" /><path clip-path="url(#clip840)" d="M 0 0 M1009.86 1519.93 L1013.68 1513.31 L990.846 1500.13 L988.134 1508.16 L984.446 1506.03 L987.134 1498.04 L989.472 1493.99 L1015.99 1509.3 L1019.81 1502.69 L1023.22 1504.65 L1013.27 1521.89 L1009.86 1519.93 Z" fill="#000000" fill-rule="evenodd" fill-opacity="1" /><path clip-path="url(#clip840)" d="M 0 0 M1013.68 1491.42 L1019.91 1480.61 L1023.2 1482.51 L1016.96 1493.32 L1013.68 1491.42 Z" fill="#000000" fill-rule="evenodd" fill-opacity="1" /><path clip-path="url(#clip840)" d="M 0 0 M1014.23 1457.26 Q1012.43 1460.39 1014.6 1463.75 Q1016.77 1467.09 1022.94 1470.65 Q1029.09 1474.2 1033.08 1474.42 Q1037.07 1474.61 1038.87 1471.48 Q1040.69 1468.34 1038.52 1465 Q1036.35 1461.64 1030.2 1458.08 Q1024.02 1454.52 1020.04 1454.33 Q1016.05 1454.11 1014.23 1457.26 M1011.03 1455.41 Q1013.93 1450.38 1019.45 1450.03 Q1024.96 1449.66 1032.53 1454.03 Q1040.09 1458.4 1042.54 1463.37 Q1044.98 1468.3 1042.08 1473.33 Q1039.17 1478.37 1033.66 1478.74 Q1028.15 1479.08 1020.59 1474.72 Q1013.01 1470.35 1010.57 1465.41 Q1008.12 1460.44 1011.03 1455.41 Z" fill="#000000" fill-rule="evenodd" fill-opacity="1" /><path clip-path="url(#clip840)" d="M 0 0 M1042.52 1433.95 Q1044.82 1431.4 1047.73 1430.92 Q1050.64 1430.41 1053.53 1432.07 Q1057.96 1434.63 1058.62 1439.08 Q1059.29 1443.53 1056.05 1449.14 Q1054.96 1451.02 1053.42 1452.81 Q1051.92 1454.58 1049.95 1456.28 L1046.04 1454.02 Q1047.99 1452.91 1049.65 1451.19 Q1051.31 1449.48 1052.57 1447.29 Q1054.77 1443.48 1054.41 1440.63 Q1054.07 1437.76 1051.2 1436.1 Q1048.55 1434.57 1045.99 1435.58 Q1043.43 1436.56 1041.52 1439.87 L1039.5 1443.35 L1036.17 1441.43 L1038.28 1437.78 Q1040 1434.8 1039.74 1432.53 Q1039.45 1430.25 1037.2 1428.96 Q1034.9 1427.63 1032.73 1428.56 Q1030.54 1429.47 1028.79 1432.52 Q1027.82 1434.18 1027.09 1436.29 Q1026.35 1438.41 1025.79 1441.13 L1022.18 1439.05 Q1022.87 1436.37 1023.71 1434.18 Q1024.56 1431.97 1025.59 1430.19 Q1028.25 1425.58 1031.9 1424.11 Q1035.54 1422.62 1039.11 1424.68 Q1041.59 1426.12 1042.5 1428.54 Q1043.38 1430.94 1042.52 1433.95 Z" fill="#000000" fill-rule="evenodd" fill-opacity="1" /><path clip-path="url(#clip840)" d="M 0 0 M1052.39 1424.36 L1058.63 1413.56 L1061.92 1415.45 L1055.68 1426.26 L1052.39 1424.36 Z" fill="#000000" fill-rule="evenodd" fill-opacity="1" /><path clip-path="url(#clip840)" d="M 0 0 M1072.21 1411.93 L1076.03 1405.32 L1053.2 1392.14 L1050.48 1400.17 L1046.8 1398.04 L1049.48 1390.05 L1051.82 1386 L1078.34 1401.31 L1082.16 1394.69 L1085.57 1396.66 L1075.62 1413.9 L1072.21 1411.93 Z" fill="#000000" fill-rule="evenodd" fill-opacity="1" /><path clip-path="url(#clip840)" d="M 0 0 M1088.9 1383.03 L1097.06 1368.89 L1100.47 1370.86 L1089.49 1389.87 L1086.09 1387.9 Q1085.03 1384.22 1083.31 1377.93 Q1081.59 1371.62 1081.02 1369.92 Q1079.95 1366.72 1078.89 1365.09 Q1077.82 1363.42 1076.35 1362.58 Q1073.97 1361.2 1071.49 1362.02 Q1069.03 1362.81 1067.48 1365.5 Q1066.38 1367.4 1065.81 1369.91 Q1065.26 1372.4 1065.21 1375.58 L1061.12 1373.22 Q1061.55 1370.21 1062.28 1367.79 Q1063 1365.38 1064.02 1363.61 Q1066.71 1358.96 1070.63 1357.54 Q1074.55 1356.11 1078.44 1358.36 Q1080.29 1359.42 1081.55 1361.09 Q1082.8 1362.72 1083.99 1365.84 Q1084.28 1366.67 1085.52 1370.97 Q1086.73 1375.25 1088.9 1383.03 Z" fill="#000000" fill-rule="evenodd" fill-opacity="1" /><path clip-path="url(#clip840)" d="M 0 0 M1220.68 1596.1 L1228.84 1581.97 L1232.25 1583.94 L1221.28 1602.94 L1217.87 1600.97 Q1216.82 1597.29 1215.1 1591.01 Q1213.37 1584.69 1212.8 1583 Q1211.74 1579.79 1210.67 1578.16 Q1209.6 1576.5 1208.14 1575.66 Q1205.75 1574.28 1203.28 1575.1 Q1200.81 1575.89 1199.26 1578.58 Q1198.16 1580.48 1197.6 1582.99 Q1197.04 1585.48 1197 1588.66 L1192.91 1586.3 Q1193.34 1583.28 1194.06 1580.87 Q1194.79 1578.45 1195.81 1576.69 Q1198.49 1572.04 1202.42 1570.62 Q1206.34 1569.19 1210.23 1571.44 Q1212.07 1572.5 1213.33 1574.16 Q1214.58 1575.79 1215.77 1578.91 Q1216.06 1579.75 1217.3 1584.05 Q1218.52 1588.33 1220.68 1596.1 Z" fill="#000000" fill-rule="evenodd" fill-opacity="1" /><path clip-path="url(#clip840)" d="M 0 0 M1214.89 1551.04 Q1213.09 1554.16 1215.26 1557.53 Q1217.43 1560.87 1223.6 1564.43 Q1229.75 1567.98 1233.74 1568.2 Q1237.73 1568.39 1239.53 1565.26 Q1241.35 1562.11 1239.18 1558.78 Q1237.01 1555.41 1230.86 1551.86 Q1224.68 1548.3 1220.7 1548.11 Q1216.71 1547.89 1214.89 1551.04 M1211.69 1549.19 Q1214.59 1544.15 1220.11 1543.81 Q1225.62 1543.44 1233.2 1547.81 Q1240.75 1552.17 1243.2 1557.14 Q1245.64 1562.08 1242.74 1567.11 Q1239.83 1572.15 1234.33 1572.52 Q1228.81 1572.86 1221.25 1568.5 Q1213.67 1564.12 1211.23 1559.19 Q1208.78 1554.22 1211.69 1549.19 Z" fill="#000000" fill-rule="evenodd" fill-opacity="1" /><path clip-path="url(#clip840)" d="M 0 0 M1250.84 1543.86 L1259 1529.73 L1262.41 1531.7 L1251.44 1550.7 L1248.03 1548.73 Q1246.98 1545.05 1245.26 1538.77 Q1243.53 1532.45 1242.96 1530.76 Q1241.9 1527.55 1240.84 1525.92 Q1239.76 1524.26 1238.3 1523.41 Q1235.91 1522.04 1233.44 1522.85 Q1230.97 1523.65 1229.42 1526.34 Q1228.32 1528.24 1227.76 1530.75 Q1227.2 1533.23 1227.16 1536.41 L1223.07 1534.05 Q1223.5 1531.04 1224.22 1528.63 Q1224.95 1526.21 1225.97 1524.45 Q1228.65 1519.8 1232.58 1518.37 Q1236.5 1516.95 1240.39 1519.19 Q1242.23 1520.26 1243.49 1521.92 Q1244.74 1523.55 1245.93 1526.67 Q1246.23 1527.51 1247.46 1531.8 Q1248.68 1536.09 1250.84 1543.86 Z" fill="#000000" fill-rule="evenodd" fill-opacity="1" /><path clip-path="url(#clip840)" d="M 0 0 M1264.32 1520.53 L1268.14 1513.91 L1245.3 1500.73 L1242.59 1508.76 L1238.9 1506.63 L1241.59 1498.64 L1243.93 1494.59 L1270.45 1509.9 L1274.27 1503.29 L1277.68 1505.25 L1267.72 1522.49 L1264.32 1520.53 Z" fill="#000000" fill-rule="evenodd" fill-opacity="1" /><path clip-path="url(#clip840)" d="M 0 0 M1268.13 1492.02 L1274.37 1481.21 L1277.66 1483.11 L1271.42 1493.92 L1268.13 1492.02 Z" fill="#000000" fill-rule="evenodd" fill-opacity="1" /><path clip-path="url(#clip840)" d="M 0 0 M1268.69 1457.86 Q1266.88 1460.99 1269.06 1464.35 Q1271.22 1467.69 1277.4 1471.25 Q1283.55 1474.81 1287.54 1475.02 Q1291.52 1475.21 1293.33 1472.08 Q1295.14 1468.94 1292.98 1465.6 Q1290.81 1462.24 1284.65 1458.68 Q1278.48 1455.12 1274.5 1454.93 Q1270.51 1454.71 1268.69 1457.86 M1265.48 1456.01 Q1268.39 1450.98 1273.91 1450.63 Q1279.41 1450.26 1286.99 1454.63 Q1294.55 1459 1297 1463.97 Q1299.44 1468.9 1296.54 1473.94 Q1293.63 1478.97 1288.12 1479.34 Q1282.6 1479.69 1275.05 1475.32 Q1267.47 1470.95 1265.03 1466.01 Q1262.58 1461.04 1265.48 1456.01 Z" fill="#000000" fill-rule="evenodd" fill-opacity="1" /><path clip-path="url(#clip840)" d="M 0 0 M1296.98 1434.55 Q1299.28 1432.01 1302.18 1431.52 Q1305.1 1431.01 1307.98 1432.67 Q1312.41 1435.23 1313.08 1439.68 Q1313.75 1444.13 1310.51 1449.74 Q1309.42 1451.62 1307.88 1453.41 Q1306.37 1455.19 1304.4 1456.88 L1300.49 1454.63 Q1302.45 1453.51 1304.11 1451.79 Q1305.77 1450.08 1307.03 1447.89 Q1309.23 1444.08 1308.87 1441.23 Q1308.52 1438.36 1305.66 1436.7 Q1303.01 1435.18 1300.45 1436.18 Q1297.88 1437.16 1295.97 1440.47 L1293.96 1443.96 L1290.63 1442.03 L1292.74 1438.39 Q1294.46 1435.4 1294.19 1433.13 Q1293.9 1430.85 1291.66 1429.56 Q1289.35 1428.23 1287.18 1429.16 Q1285 1430.07 1283.24 1433.12 Q1282.28 1434.78 1281.54 1436.89 Q1280.8 1439.01 1280.25 1441.73 L1276.64 1439.65 Q1277.33 1436.97 1278.16 1434.78 Q1279.01 1432.57 1280.04 1430.79 Q1282.7 1426.18 1286.36 1424.71 Q1290 1423.23 1293.56 1425.29 Q1296.05 1426.72 1296.95 1429.14 Q1297.84 1431.55 1296.98 1434.55 Z" fill="#000000" fill-rule="evenodd" fill-opacity="1" /><path clip-path="url(#clip840)" d="M 0 0 M1306.85 1424.96 L1313.09 1414.16 L1316.37 1416.06 L1310.14 1426.86 L1306.85 1424.96 Z" fill="#000000" fill-rule="evenodd" fill-opacity="1" /><path clip-path="url(#clip840)" d="M 0 0 M1326.67 1412.54 L1330.49 1405.92 L1307.65 1392.74 L1304.94 1400.77 L1301.25 1398.64 L1303.94 1390.65 L1306.28 1386.6 L1332.8 1401.91 L1336.62 1395.3 L1340.03 1397.26 L1330.07 1414.5 L1326.67 1412.54 Z" fill="#000000" fill-rule="evenodd" fill-opacity="1" /><path clip-path="url(#clip840)" d="M 0 0 M1314.23 1372.83 L1325.34 1353.58 L1327.06 1354.58 L1349 1381.73 L1346.56 1385.96 L1325.94 1360.42 L1317.64 1374.79 L1314.23 1372.83 Z" fill="#000000" fill-rule="evenodd" fill-opacity="1" /><path clip-path="url(#clip840)" d="M 0 0 M1475.83 1595.5 L1483.99 1581.37 L1487.4 1583.34 L1476.43 1602.34 L1473.02 1600.37 Q1471.97 1596.69 1470.25 1590.41 Q1468.52 1584.09 1467.95 1582.4 Q1466.89 1579.19 1465.82 1577.56 Q1464.75 1575.9 1463.29 1575.06 Q1460.9 1573.68 1458.43 1574.49 Q1455.96 1575.29 1454.41 1577.98 Q1453.31 1579.88 1452.75 1582.39 Q1452.19 1584.87 1452.15 1588.06 L1448.06 1585.69 Q1448.49 1582.68 1449.21 1580.27 Q1449.94 1577.85 1450.96 1576.09 Q1453.64 1571.44 1457.57 1570.01 Q1461.49 1568.59 1465.38 1570.84 Q1467.22 1571.9 1468.48 1573.56 Q1469.73 1575.19 1470.92 1578.31 Q1471.22 1579.15 1472.45 1583.45 Q1473.67 1587.73 1475.83 1595.5 Z" fill="#000000" fill-rule="evenodd" fill-opacity="1" /><path clip-path="url(#clip840)" d="M 0 0 M1470.05 1550.44 Q1468.24 1553.56 1470.41 1556.93 Q1472.58 1560.26 1478.75 1563.83 Q1484.91 1567.38 1488.9 1567.6 Q1492.88 1567.79 1494.68 1564.66 Q1496.5 1561.51 1494.34 1558.18 Q1492.16 1554.81 1486.01 1551.26 Q1479.83 1547.69 1475.85 1547.51 Q1471.86 1547.29 1470.05 1550.44 M1466.84 1548.58 Q1469.74 1543.55 1475.26 1543.21 Q1480.77 1542.83 1488.35 1547.21 Q1495.9 1551.57 1498.35 1556.54 Q1500.8 1561.48 1497.89 1566.51 Q1494.99 1571.54 1489.48 1571.92 Q1483.96 1572.26 1476.4 1567.9 Q1468.82 1563.52 1466.38 1558.59 Q1463.93 1553.62 1466.84 1548.58 Z" fill="#000000" fill-rule="evenodd" fill-opacity="1" /><path clip-path="url(#clip840)" d="M 0 0 M1506 1543.26 L1514.16 1529.13 L1517.56 1531.09 L1506.59 1550.1 L1503.18 1548.13 Q1502.13 1544.45 1500.41 1538.16 Q1498.69 1531.85 1498.11 1530.16 Q1497.05 1526.95 1495.99 1525.32 Q1494.91 1523.66 1493.45 1522.81 Q1491.07 1521.44 1488.59 1522.25 Q1486.13 1523.05 1484.57 1525.73 Q1483.48 1527.64 1482.91 1530.15 Q1482.36 1532.63 1482.31 1535.81 L1478.22 1533.45 Q1478.65 1530.44 1479.38 1528.02 Q1480.1 1525.61 1481.12 1523.85 Q1483.81 1519.2 1487.73 1517.77 Q1491.65 1516.35 1495.54 1518.59 Q1497.38 1519.66 1498.64 1521.32 Q1499.89 1522.95 1501.09 1526.07 Q1501.38 1526.91 1502.61 1531.2 Q1503.83 1535.49 1506 1543.26 Z" fill="#000000" fill-rule="evenodd" fill-opacity="1" /><path clip-path="url(#clip840)" d="M 0 0 M1519.47 1519.93 L1523.29 1513.31 L1500.45 1500.13 L1497.74 1508.16 L1494.05 1506.03 L1496.74 1498.04 L1499.08 1493.99 L1525.6 1509.3 L1529.42 1502.69 L1532.83 1504.65 L1522.88 1521.89 L1519.47 1519.93 Z" fill="#000000" fill-rule="evenodd" fill-opacity="1" /><path clip-path="url(#clip840)" d="M 0 0 M1523.28 1491.42 L1529.52 1480.61 L1532.81 1482.51 L1526.57 1493.32 L1523.28 1491.42 Z" fill="#000000" fill-rule="evenodd" fill-opacity="1" /><path clip-path="url(#clip840)" d="M 0 0 M1523.84 1457.26 Q1522.04 1460.39 1524.21 1463.75 Q1526.37 1467.09 1532.55 1470.65 Q1538.7 1474.2 1542.69 1474.42 Q1546.67 1474.61 1548.48 1471.48 Q1550.3 1468.34 1548.13 1465 Q1545.96 1461.64 1539.8 1458.08 Q1533.63 1454.52 1529.65 1454.33 Q1525.66 1454.11 1523.84 1457.26 M1520.63 1455.41 Q1523.54 1450.38 1529.06 1450.03 Q1534.57 1449.66 1542.14 1454.03 Q1549.7 1458.4 1552.15 1463.37 Q1554.59 1468.3 1551.69 1473.33 Q1548.78 1478.37 1543.27 1478.74 Q1537.76 1479.08 1530.2 1474.72 Q1522.62 1470.35 1520.18 1465.41 Q1517.73 1460.44 1520.63 1455.41 Z" fill="#000000" fill-rule="evenodd" fill-opacity="1" /><path clip-path="url(#clip840)" d="M 0 0 M1552.13 1433.95 Q1554.43 1431.4 1557.33 1430.92 Q1560.25 1430.41 1563.13 1432.07 Q1567.56 1434.63 1568.23 1439.08 Q1568.9 1443.53 1565.66 1449.14 Q1564.57 1451.02 1563.03 1452.81 Q1561.52 1454.58 1559.56 1456.28 L1555.65 1454.02 Q1557.6 1452.91 1559.26 1451.19 Q1560.92 1449.48 1562.18 1447.29 Q1564.38 1443.48 1564.02 1440.63 Q1563.67 1437.76 1560.81 1436.1 Q1558.16 1434.57 1555.6 1435.58 Q1553.03 1436.56 1551.12 1439.87 L1549.11 1443.35 L1545.78 1441.43 L1547.89 1437.78 Q1549.61 1434.8 1549.34 1432.53 Q1549.06 1430.25 1546.81 1428.96 Q1544.51 1427.63 1542.33 1428.56 Q1540.15 1429.47 1538.39 1432.52 Q1537.43 1434.18 1536.69 1436.29 Q1535.96 1438.41 1535.4 1441.13 L1531.79 1439.05 Q1532.48 1436.37 1533.32 1434.18 Q1534.16 1431.97 1535.19 1430.19 Q1537.86 1425.58 1541.51 1424.11 Q1545.15 1422.62 1548.72 1424.68 Q1551.2 1426.12 1552.1 1428.54 Q1552.99 1430.94 1552.13 1433.95 Z" fill="#000000" fill-rule="evenodd" fill-opacity="1" /><path clip-path="url(#clip840)" d="M 0 0 M1562 1424.36 L1568.24 1413.56 L1571.53 1415.45 L1565.29 1426.26 L1562 1424.36 Z" fill="#000000" fill-rule="evenodd" fill-opacity="1" /><path clip-path="url(#clip840)" d="M 0 0 M1583.43 1409.15 L1591.59 1395.01 L1594.99 1396.98 L1584.02 1415.99 L1580.61 1414.02 Q1579.56 1410.34 1577.84 1404.05 Q1576.12 1397.74 1575.54 1396.04 Q1574.48 1392.84 1573.42 1391.21 Q1572.34 1389.55 1570.88 1388.7 Q1568.5 1387.32 1566.02 1388.14 Q1563.56 1388.93 1562.01 1391.62 Q1560.91 1393.53 1560.34 1396.03 Q1559.79 1398.52 1559.74 1401.7 L1555.65 1399.34 Q1556.08 1396.33 1556.81 1393.91 Q1557.53 1391.5 1558.55 1389.73 Q1561.24 1385.08 1565.16 1383.66 Q1569.08 1382.23 1572.97 1384.48 Q1574.81 1385.55 1576.07 1387.21 Q1577.32 1388.84 1578.52 1391.96 Q1578.81 1392.8 1580.04 1397.09 Q1581.26 1401.37 1583.43 1409.15 Z" fill="#000000" fill-rule="evenodd" fill-opacity="1" /><path clip-path="url(#clip840)" d="M 0 0 M1598.51 1383.03 L1606.67 1368.89 L1610.07 1370.86 L1599.1 1389.87 L1595.69 1387.9 Q1594.64 1384.22 1592.92 1377.93 Q1591.2 1371.62 1590.62 1369.92 Q1589.56 1366.72 1588.5 1365.09 Q1587.43 1363.42 1585.96 1362.58 Q1583.58 1361.2 1581.1 1362.02 Q1578.64 1362.81 1577.09 1365.5 Q1575.99 1367.4 1575.42 1369.91 Q1574.87 1372.4 1574.82 1375.58 L1570.73 1373.22 Q1571.16 1370.21 1571.89 1367.79 Q1572.61 1365.38 1573.63 1363.61 Q1576.32 1358.96 1580.24 1357.54 Q1584.16 1356.11 1588.05 1358.36 Q1589.9 1359.42 1591.15 1361.09 Q1592.4 1362.72 1593.6 1365.84 Q1593.89 1366.67 1595.12 1370.97 Q1596.34 1375.25 1598.51 1383.03 Z" fill="#000000" fill-rule="evenodd" fill-opacity="1" /><path clip-path="url(#clip840)" d="M 0 0 M1730.34 1596.02 L1738.5 1581.89 L1741.91 1583.86 L1730.93 1602.86 L1727.53 1600.89 Q1726.47 1597.21 1724.75 1590.93 Q1723.03 1584.61 1722.45 1582.92 Q1721.39 1579.71 1720.33 1578.08 Q1719.26 1576.42 1717.79 1575.58 Q1715.41 1574.2 1712.93 1575.01 Q1710.47 1575.81 1708.92 1578.5 Q1707.82 1580.4 1707.25 1582.91 Q1706.7 1585.4 1706.65 1588.58 L1702.56 1586.22 Q1702.99 1583.2 1703.72 1580.79 Q1704.44 1578.37 1705.46 1576.61 Q1708.15 1571.96 1712.07 1570.53 Q1715.99 1569.11 1719.88 1571.36 Q1721.73 1572.42 1722.98 1574.08 Q1724.23 1575.71 1725.43 1578.83 Q1725.72 1579.67 1726.95 1583.97 Q1728.17 1588.25 1730.34 1596.02 Z" fill="#000000" fill-rule="evenodd" fill-opacity="1" /><path clip-path="url(#clip840)" d="M 0 0 M1724.55 1550.96 Q1722.74 1554.08 1724.92 1557.45 Q1727.08 1560.79 1733.26 1564.35 Q1739.41 1567.9 1743.4 1568.12 Q1747.38 1568.31 1749.19 1565.18 Q1751 1562.03 1748.84 1558.7 Q1746.67 1555.33 1740.51 1551.78 Q1734.34 1548.22 1730.36 1548.03 Q1726.37 1547.81 1724.55 1550.96 M1721.34 1549.11 Q1724.25 1544.07 1729.76 1543.73 Q1735.27 1543.36 1742.85 1547.73 Q1750.41 1552.09 1752.86 1557.06 Q1755.3 1562 1752.39 1567.03 Q1749.49 1572.07 1743.98 1572.44 Q1738.46 1572.78 1730.91 1568.42 Q1723.33 1564.04 1720.89 1559.11 Q1718.44 1554.14 1721.34 1549.11 Z" fill="#000000" fill-rule="evenodd" fill-opacity="1" /><path clip-path="url(#clip840)" d="M 0 0 M1760.5 1543.78 L1768.66 1529.65 L1772.07 1531.62 L1761.1 1550.62 L1757.69 1548.65 Q1756.63 1544.97 1754.91 1538.69 Q1753.19 1532.37 1752.62 1530.68 Q1751.55 1527.47 1750.49 1525.84 Q1749.42 1524.18 1747.95 1523.33 Q1745.57 1521.96 1743.09 1522.77 Q1740.63 1523.57 1739.08 1526.26 Q1737.98 1528.16 1737.41 1530.67 Q1736.86 1533.15 1736.81 1536.33 L1732.72 1533.97 Q1733.15 1530.96 1733.88 1528.55 Q1734.61 1526.13 1735.62 1524.37 Q1738.31 1519.72 1742.23 1518.29 Q1746.15 1516.87 1750.04 1519.11 Q1751.89 1520.18 1753.15 1521.84 Q1754.4 1523.47 1755.59 1526.59 Q1755.88 1527.43 1757.12 1531.72 Q1758.33 1536.01 1760.5 1543.78 Z" fill="#000000" fill-rule="evenodd" fill-opacity="1" /><path clip-path="url(#clip840)" d="M 0 0 M1773.97 1520.45 L1777.79 1513.83 L1754.96 1500.65 L1752.25 1508.68 L1748.56 1506.55 L1751.25 1498.56 L1753.58 1494.51 L1780.11 1509.82 L1783.93 1503.21 L1787.33 1505.17 L1777.38 1522.41 L1773.97 1520.45 Z" fill="#000000" fill-rule="evenodd" fill-opacity="1" /><path clip-path="url(#clip840)" d="M 0 0 M1777.79 1491.94 L1784.03 1481.13 L1787.31 1483.03 L1781.08 1493.84 L1777.79 1491.94 Z" fill="#000000" fill-rule="evenodd" fill-opacity="1" /><path clip-path="url(#clip840)" d="M 0 0 M1778.35 1457.78 Q1776.54 1460.91 1778.71 1464.27 Q1780.88 1467.61 1787.05 1471.17 Q1793.21 1474.73 1797.2 1474.94 Q1801.18 1475.13 1802.98 1472 Q1804.8 1468.86 1802.64 1465.52 Q1800.46 1462.16 1794.31 1458.6 Q1788.13 1455.04 1784.15 1454.85 Q1780.16 1454.63 1778.35 1457.78 M1775.14 1455.93 Q1778.04 1450.9 1783.56 1450.55 Q1789.07 1450.18 1796.65 1454.55 Q1804.2 1458.92 1806.65 1463.89 Q1809.1 1468.82 1806.19 1473.86 Q1803.28 1478.89 1797.78 1479.26 Q1792.26 1479.61 1784.7 1475.24 Q1777.12 1470.87 1774.68 1465.93 Q1772.23 1460.96 1775.14 1455.93 Z" fill="#000000" fill-rule="evenodd" fill-opacity="1" /><path clip-path="url(#clip840)" d="M 0 0 M1806.64 1434.47 Q1808.93 1431.93 1811.84 1431.44 Q1814.75 1430.93 1817.64 1432.59 Q1822.07 1435.15 1822.73 1439.6 Q1823.4 1444.05 1820.16 1449.66 Q1819.07 1451.54 1817.53 1453.33 Q1816.03 1455.11 1814.06 1456.8 L1810.15 1454.54 Q1812.1 1453.43 1813.76 1451.71 Q1815.42 1450 1816.68 1447.81 Q1818.88 1444 1818.52 1441.15 Q1818.18 1438.28 1815.31 1436.62 Q1812.66 1435.1 1810.11 1436.1 Q1807.54 1437.08 1805.63 1440.39 L1803.61 1443.88 L1800.29 1441.95 L1802.39 1438.31 Q1804.12 1435.32 1803.85 1433.05 Q1803.56 1430.77 1801.31 1429.48 Q1799.01 1428.15 1796.84 1429.08 Q1794.66 1429.99 1792.9 1433.04 Q1791.94 1434.7 1791.2 1436.81 Q1790.46 1438.93 1789.9 1441.65 L1786.29 1439.57 Q1786.98 1436.89 1787.82 1434.7 Q1788.67 1432.49 1789.7 1430.71 Q1792.36 1426.1 1796.02 1424.63 Q1799.65 1423.14 1803.22 1425.21 Q1805.71 1426.64 1806.61 1429.06 Q1807.49 1431.47 1806.64 1434.47 Z" fill="#000000" fill-rule="evenodd" fill-opacity="1" /><path clip-path="url(#clip840)" d="M 0 0 M1816.5 1424.88 L1822.74 1414.08 L1826.03 1415.98 L1819.79 1426.78 L1816.5 1424.88 Z" fill="#000000" fill-rule="evenodd" fill-opacity="1" /><path clip-path="url(#clip840)" d="M 0 0 M1837.93 1409.67 L1846.09 1395.54 L1849.5 1397.5 L1838.53 1416.51 L1835.12 1414.54 Q1834.06 1410.86 1832.34 1404.57 Q1830.62 1398.26 1830.05 1396.56 Q1828.98 1393.36 1827.92 1391.73 Q1826.85 1390.07 1825.38 1389.22 Q1823 1387.84 1820.52 1388.66 Q1818.06 1389.46 1816.51 1392.14 Q1815.41 1394.05 1814.84 1396.55 Q1814.29 1399.04 1814.24 1402.22 L1810.15 1399.86 Q1810.58 1396.85 1811.31 1394.43 Q1812.04 1392.02 1813.05 1390.25 Q1815.74 1385.6 1819.66 1384.18 Q1823.58 1382.76 1827.47 1385 Q1829.32 1386.07 1830.58 1387.73 Q1831.83 1389.36 1833.02 1392.48 Q1833.31 1393.32 1834.55 1397.61 Q1835.76 1401.9 1837.93 1409.67 Z" fill="#000000" fill-rule="evenodd" fill-opacity="1" /><path clip-path="url(#clip840)" d="M 0 0 M1824.5 1371.68 L1833.68 1355.79 L1837.08 1357.75 L1830.05 1369.94 L1837.38 1374.18 Q1837.59 1373.12 1837.96 1372.16 Q1838.31 1371.18 1838.82 1370.3 Q1841.71 1365.29 1846.15 1363.95 Q1850.59 1362.61 1855.28 1365.32 Q1860.11 1368.11 1861.06 1372.66 Q1861.99 1377.21 1858.83 1382.68 Q1857.74 1384.57 1856.29 1386.35 Q1854.84 1388.11 1853 1389.82 L1848.93 1387.47 Q1850.95 1386.23 1852.54 1384.59 Q1854.14 1382.94 1855.37 1380.8 Q1857.38 1377.33 1856.72 1374.25 Q1856.07 1371.17 1852.94 1369.37 Q1849.81 1367.56 1846.82 1368.53 Q1843.83 1369.5 1841.82 1372.97 Q1840.89 1374.6 1840.31 1376.43 Q1839.74 1378.24 1839.53 1380.36 L1824.5 1371.68 Z" fill="#000000" fill-rule="evenodd" fill-opacity="1" /><path clip-path="url(#clip840)" d="M 0 0 M1984.64 1596.89 L1992.8 1582.75 L1996.21 1584.72 L1985.24 1603.72 L1981.83 1601.76 Q1980.78 1598.07 1979.06 1591.79 Q1977.33 1585.47 1976.76 1583.78 Q1975.7 1580.57 1974.63 1578.94 Q1973.56 1577.28 1972.1 1576.44 Q1969.71 1575.06 1967.24 1575.88 Q1964.77 1576.67 1963.22 1579.36 Q1962.12 1581.26 1961.56 1583.77 Q1961 1586.26 1960.96 1589.44 L1956.87 1587.08 Q1957.3 1584.06 1958.02 1581.65 Q1958.75 1579.24 1959.77 1577.47 Q1962.45 1572.82 1966.38 1571.4 Q1970.3 1569.97 1974.19 1572.22 Q1976.03 1573.28 1977.29 1574.95 Q1978.54 1576.58 1979.73 1579.7 Q1980.03 1580.53 1981.26 1584.83 Q1982.48 1589.11 1984.64 1596.89 Z" fill="#000000" fill-rule="evenodd" fill-opacity="1" /><path clip-path="url(#clip840)" d="M 0 0 M1978.86 1551.82 Q1977.05 1554.95 1979.22 1558.31 Q1981.39 1561.65 1987.56 1565.21 Q1993.72 1568.77 1997.71 1568.98 Q2001.69 1569.17 2003.49 1566.04 Q2005.31 1562.9 2003.15 1559.56 Q2000.97 1556.2 1994.82 1552.64 Q1988.64 1549.08 1984.66 1548.89 Q1980.67 1548.67 1978.86 1551.82 M1975.65 1549.97 Q1978.55 1544.94 1984.07 1544.59 Q1989.58 1544.22 1997.16 1548.59 Q2004.71 1552.96 2007.16 1557.93 Q2009.61 1562.86 2006.7 1567.9 Q2003.8 1572.93 1998.29 1573.3 Q1992.77 1573.64 1985.21 1569.28 Q1977.63 1564.91 1975.19 1559.97 Q1972.74 1555 1975.65 1549.97 Z" fill="#000000" fill-rule="evenodd" fill-opacity="1" /><path clip-path="url(#clip840)" d="M 0 0 M2014.81 1544.64 L2022.97 1530.51 L2026.37 1532.48 L2015.4 1551.48 L2011.99 1549.51 Q2010.94 1545.83 2009.22 1539.55 Q2007.5 1533.23 2006.92 1531.54 Q2005.86 1528.33 2004.8 1526.7 Q2003.72 1525.04 2002.26 1524.2 Q1999.88 1522.82 1997.4 1523.64 Q1994.94 1524.43 1993.38 1527.12 Q1992.29 1529.02 1991.72 1531.53 Q1991.17 1534.02 1991.12 1537.2 L1987.03 1534.84 Q1987.46 1531.82 1988.19 1529.41 Q1988.91 1526.99 1989.93 1525.23 Q1992.62 1520.58 1996.54 1519.16 Q2000.46 1517.73 2004.35 1519.98 Q2006.19 1521.04 2007.45 1522.7 Q2008.7 1524.33 2009.9 1527.45 Q2010.19 1528.29 2011.42 1532.59 Q2012.64 1536.87 2014.81 1544.64 Z" fill="#000000" fill-rule="evenodd" fill-opacity="1" /><path clip-path="url(#clip840)" d="M 0 0 M2028.28 1521.31 L2032.1 1514.69 L2009.26 1501.51 L2006.55 1509.54 L2002.86 1507.41 L2005.55 1499.42 L2007.89 1495.37 L2034.41 1510.68 L2038.23 1504.07 L2041.64 1506.04 L2031.69 1523.28 L2028.28 1521.31 Z" fill="#000000" fill-rule="evenodd" fill-opacity="1" /><path clip-path="url(#clip840)" d="M 0 0 M2032.09 1492.8 L2038.33 1482 L2041.62 1483.89 L2035.38 1494.7 L2032.09 1492.8 Z" fill="#000000" fill-rule="evenodd" fill-opacity="1" /><path clip-path="url(#clip840)" d="M 0 0 M2032.65 1458.64 Q2030.85 1461.77 2033.02 1465.14 Q2035.18 1468.47 2041.36 1472.03 Q2047.51 1475.59 2051.5 1475.81 Q2055.48 1475.99 2057.29 1472.87 Q2059.11 1469.72 2056.94 1466.38 Q2054.77 1463.02 2048.61 1459.47 Q2042.44 1455.9 2038.46 1455.71 Q2034.47 1455.49 2032.65 1458.64 M2029.44 1456.79 Q2032.35 1451.76 2037.87 1451.42 Q2043.37 1451.04 2050.95 1455.42 Q2058.51 1459.78 2060.96 1464.75 Q2063.4 1469.69 2060.5 1474.72 Q2057.59 1479.75 2052.08 1480.12 Q2046.57 1480.47 2039.01 1476.1 Q2031.43 1471.73 2028.99 1466.79 Q2026.54 1461.82 2029.44 1456.79 Z" fill="#000000" fill-rule="evenodd" fill-opacity="1" /><path clip-path="url(#clip840)" d="M 0 0 M2060.94 1435.34 Q2063.24 1432.79 2066.14 1432.3 Q2069.06 1431.79 2071.94 1433.46 Q2076.37 1436.01 2077.04 1440.46 Q2077.71 1444.91 2074.47 1450.52 Q2073.38 1452.41 2071.84 1454.19 Q2070.33 1455.97 2068.36 1457.66 L2064.46 1455.41 Q2066.41 1454.29 2068.07 1452.57 Q2069.73 1450.86 2070.99 1448.67 Q2073.19 1444.87 2072.83 1442.01 Q2072.48 1439.14 2069.62 1437.49 Q2066.97 1435.96 2064.41 1436.97 Q2061.84 1437.94 2059.93 1441.25 L2057.92 1444.74 L2054.59 1442.82 L2056.7 1439.17 Q2058.42 1436.18 2058.15 1433.91 Q2057.87 1431.64 2055.62 1430.34 Q2053.32 1429.01 2051.14 1429.95 Q2048.96 1430.85 2047.2 1433.9 Q2046.24 1435.56 2045.5 1437.68 Q2044.77 1439.79 2044.21 1442.51 L2040.6 1440.43 Q2041.29 1437.76 2042.13 1435.57 Q2042.97 1433.36 2044 1431.57 Q2046.67 1426.96 2050.32 1425.49 Q2053.96 1424.01 2057.53 1426.07 Q2060.01 1427.5 2060.91 1429.92 Q2061.8 1432.33 2060.94 1435.34 Z" fill="#000000" fill-rule="evenodd" fill-opacity="1" /><path clip-path="url(#clip840)" d="M 0 0 M2070.81 1425.74 L2077.05 1414.94 L2080.34 1416.84 L2074.1 1427.64 L2070.81 1425.74 Z" fill="#000000" fill-rule="evenodd" fill-opacity="1" /><path clip-path="url(#clip840)" d="M 0 0 M2084.58 1394.4 Q2086.88 1391.85 2089.78 1391.36 Q2092.69 1390.85 2095.58 1392.52 Q2100.01 1395.08 2100.67 1399.53 Q2101.34 1403.97 2098.1 1409.59 Q2097.01 1411.47 2095.47 1413.26 Q2093.97 1415.03 2092 1416.73 L2088.09 1414.47 Q2090.04 1413.35 2091.7 1411.64 Q2093.36 1409.92 2094.62 1407.74 Q2096.82 1403.93 2096.46 1401.08 Q2096.12 1398.2 2093.25 1396.55 Q2090.61 1395.02 2088.05 1396.03 Q2085.48 1397.01 2083.57 1400.31 L2081.55 1403.8 L2078.23 1401.88 L2080.33 1398.23 Q2082.06 1395.24 2081.79 1392.98 Q2081.5 1390.7 2079.25 1389.4 Q2076.95 1388.07 2074.78 1389.01 Q2072.6 1389.92 2070.84 1392.96 Q2069.88 1394.63 2069.14 1396.74 Q2068.4 1398.85 2067.84 1401.58 L2064.23 1399.5 Q2064.92 1396.82 2065.76 1394.63 Q2066.61 1392.42 2067.64 1390.64 Q2070.3 1386.02 2073.96 1384.55 Q2077.59 1383.07 2081.16 1385.13 Q2083.65 1386.57 2084.55 1388.99 Q2085.43 1391.39 2084.58 1394.4 Z" fill="#000000" fill-rule="evenodd" fill-opacity="1" /><path clip-path="url(#clip840)" d="M 0 0 M2086.45 1365.46 Q2084.64 1368.59 2086.81 1371.96 Q2088.98 1375.29 2095.15 1378.86 Q2101.31 1382.41 2105.3 1382.63 Q2109.28 1382.82 2111.09 1379.69 Q2112.9 1376.54 2110.74 1373.21 Q2108.56 1369.84 2102.41 1366.29 Q2096.24 1362.72 2092.25 1362.54 Q2088.26 1362.32 2086.45 1365.46 M2083.24 1363.61 Q2086.15 1358.58 2091.66 1358.24 Q2097.17 1357.86 2104.75 1362.24 Q2112.31 1366.6 2114.76 1371.57 Q2117.2 1376.51 2114.29 1381.54 Q2111.39 1386.57 2105.88 1386.95 Q2100.36 1387.29 2092.8 1382.93 Q2085.23 1378.55 2082.78 1373.61 Q2080.34 1368.64 2083.24 1363.61 Z" fill="#000000" fill-rule="evenodd" fill-opacity="1" /><polyline clip-path="url(#clip842)" style="stroke:#000000; stroke-width:2; stroke-opacity:0.1; fill:none" points="
  201.019,1156.36 2352.76,1156.36 
  "/>
<polyline clip-path="url(#clip842)" style="stroke:#000000; stroke-width:2; stroke-opacity:0.1; fill:none" points="
  201.019,925.971 2352.76,925.971 
  "/>
<polyline clip-path="url(#clip842)" style="stroke:#000000; stroke-width:2; stroke-opacity:0.1; fill:none" points="
  201.019,695.581 2352.76,695.581 
  "/>
<polyline clip-path="url(#clip842)" style="stroke:#000000; stroke-width:2; stroke-opacity:0.1; fill:none" points="
  201.019,465.191 2352.76,465.191 
  "/>
<polyline clip-path="url(#clip842)" style="stroke:#000000; stroke-width:2; stroke-opacity:0.1; fill:none" points="
  201.019,234.802 2352.76,234.802 
  "/>
<polyline clip-path="url(#clip840)" style="stroke:#000000; stroke-width:4; stroke-opacity:1; fill:none" points="
  201.019,1330.92 201.019,47.2441 
  "/>
<polyline clip-path="url(#clip840)" style="stroke:#000000; stroke-width:4; stroke-opacity:1; fill:none" points="
  201.019,1156.36 226.84,1156.36 
  "/>
<polyline clip-path="url(#clip840)" style="stroke:#000000; stroke-width:4; stroke-opacity:1; fill:none" points="
  201.019,925.971 226.84,925.971 
  "/>
<polyline clip-path="url(#clip840)" style="stroke:#000000; stroke-width:4; stroke-opacity:1; fill:none" points="
  201.019,695.581 226.84,695.581 
  "/>
<polyline clip-path="url(#clip840)" style="stroke:#000000; stroke-width:4; stroke-opacity:1; fill:none" points="
  201.019,465.191 226.84,465.191 
  "/>
<polyline clip-path="url(#clip840)" style="stroke:#000000; stroke-width:4; stroke-opacity:1; fill:none" points="
  201.019,234.802 226.84,234.802 
  "/>
<path clip-path="url(#clip840)" d="M 0 0 M57.6125 1169.71 L73.9318 1169.71 L73.9318 1173.64 L51.9875 1173.64 L51.9875 1169.71 Q54.6495 1166.95 59.2328 1162.32 Q63.8393 1157.67 65.0198 1156.33 Q67.2652 1153.8 68.1448 1152.07 Q69.0476 1150.31 69.0476 1148.62 Q69.0476 1145.86 67.1032 1144.13 Q65.1819 1142.39 62.08 1142.39 Q59.881 1142.39 57.4273 1143.15 Q54.9967 1143.92 52.219 1145.47 L52.219 1140.75 Q55.043 1139.61 57.4967 1139.03 Q59.9504 1138.46 61.9874 1138.46 Q67.3578 1138.46 70.5522 1141.14 Q73.7466 1143.83 73.7466 1148.32 Q73.7466 1150.45 72.9365 1152.37 Q72.1494 1154.27 70.0429 1156.86 Q69.4642 1157.53 66.3624 1160.75 Q63.2606 1163.94 57.6125 1169.71 Z" fill="#000000" fill-rule="evenodd" fill-opacity="1" /><path clip-path="url(#clip840)" d="M 0 0 M93.7465 1142.16 Q90.1354 1142.16 88.3067 1145.72 Q86.5012 1149.27 86.5012 1156.4 Q86.5012 1163.5 88.3067 1167.07 Q90.1354 1170.61 93.7465 1170.61 Q97.3808 1170.61 99.1863 1167.07 Q101.015 1163.5 101.015 1156.4 Q101.015 1149.27 99.1863 1145.72 Q97.3808 1142.16 93.7465 1142.16 M93.7465 1138.46 Q99.5567 1138.46 102.612 1143.06 Q105.691 1147.65 105.691 1156.4 Q105.691 1165.12 102.612 1169.73 Q99.5567 1174.31 93.7465 1174.31 Q87.9364 1174.31 84.8577 1169.73 Q81.8021 1165.12 81.8021 1156.4 Q81.8021 1147.65 84.8577 1143.06 Q87.9364 1138.46 93.7465 1138.46 Z" fill="#000000" fill-rule="evenodd" fill-opacity="1" /><path clip-path="url(#clip840)" d="M 0 0 M117.936 1169.71 L134.256 1169.71 L134.256 1173.64 L112.311 1173.64 L112.311 1169.71 Q114.973 1166.95 119.557 1162.32 Q124.163 1157.67 125.344 1156.33 Q127.589 1153.8 128.469 1152.07 Q129.371 1150.31 129.371 1148.62 Q129.371 1145.86 127.427 1144.13 Q125.506 1142.39 122.404 1142.39 Q120.205 1142.39 117.751 1143.15 Q115.32 1143.92 112.543 1145.47 L112.543 1140.75 Q115.367 1139.61 117.82 1139.03 Q120.274 1138.46 122.311 1138.46 Q127.682 1138.46 130.876 1141.14 Q134.07 1143.83 134.07 1148.32 Q134.07 1150.45 133.26 1152.37 Q132.473 1154.27 130.367 1156.86 Q129.788 1157.53 126.686 1160.75 Q123.584 1163.94 117.936 1169.71 Z" fill="#000000" fill-rule="evenodd" fill-opacity="1" /><path clip-path="url(#clip840)" d="M 0 0 M144.117 1139.08 L162.473 1139.08 L162.473 1143.02 L148.399 1143.02 L148.399 1151.49 Q149.418 1151.14 150.436 1150.98 Q151.455 1150.79 152.473 1150.79 Q158.26 1150.79 161.64 1153.96 Q165.019 1157.14 165.019 1162.55 Q165.019 1168.13 161.547 1171.23 Q158.075 1174.31 151.755 1174.31 Q149.58 1174.31 147.311 1173.94 Q145.066 1173.57 142.658 1172.83 L142.658 1168.13 Q144.742 1169.27 146.964 1169.82 Q149.186 1170.38 151.663 1170.38 Q155.667 1170.38 158.005 1168.27 Q160.343 1166.16 160.343 1162.55 Q160.343 1158.94 158.005 1156.84 Q155.667 1154.73 151.663 1154.73 Q149.788 1154.73 147.913 1155.15 Q146.061 1155.56 144.117 1156.44 L144.117 1139.08 Z" fill="#000000" fill-rule="evenodd" fill-opacity="1" /><path clip-path="url(#clip840)" d="M 0 0 M56.6171 939.316 L72.9365 939.316 L72.9365 943.251 L50.9921 943.251 L50.9921 939.316 Q53.6541 936.561 58.2375 931.931 Q62.8439 927.279 64.0245 925.936 Q66.2698 923.413 67.1494 921.677 Q68.0522 919.918 68.0522 918.228 Q68.0522 915.473 66.1078 913.737 Q64.1865 912.001 61.0847 912.001 Q58.8856 912.001 56.4319 912.765 Q54.0014 913.529 51.2236 915.08 L51.2236 910.357 Q54.0477 909.223 56.5014 908.645 Q58.955 908.066 60.9921 908.066 Q66.3624 908.066 69.5568 910.751 Q72.7513 913.436 72.7513 917.927 Q72.7513 920.057 71.9411 921.978 Q71.1541 923.876 69.0476 926.469 Q68.4689 927.14 65.367 930.357 Q62.2652 933.552 56.6171 939.316 Z" fill="#000000" fill-rule="evenodd" fill-opacity="1" /><path clip-path="url(#clip840)" d="M 0 0 M92.7512 911.77 Q89.1401 911.77 87.3114 915.334 Q85.5058 918.876 85.5058 926.006 Q85.5058 933.112 87.3114 936.677 Q89.1401 940.218 92.7512 940.218 Q96.3854 940.218 98.1909 936.677 Q100.02 933.112 100.02 926.006 Q100.02 918.876 98.1909 915.334 Q96.3854 911.77 92.7512 911.77 M92.7512 908.066 Q98.5613 908.066 101.617 912.672 Q104.696 917.256 104.696 926.006 Q104.696 934.732 101.617 939.339 Q98.5613 943.922 92.7512 943.922 Q86.941 943.922 83.8623 939.339 Q80.8068 934.732 80.8068 926.006 Q80.8068 917.256 83.8623 912.672 Q86.941 908.066 92.7512 908.066 Z" fill="#000000" fill-rule="evenodd" fill-opacity="1" /><path clip-path="url(#clip840)" d="M 0 0 M112.959 908.691 L131.316 908.691 L131.316 912.626 L117.242 912.626 L117.242 921.098 Q118.26 920.751 119.279 920.589 Q120.297 920.404 121.316 920.404 Q127.103 920.404 130.482 923.575 Q133.862 926.746 133.862 932.163 Q133.862 937.742 130.39 940.843 Q126.918 943.922 120.598 943.922 Q118.422 943.922 116.154 943.552 Q113.908 943.181 111.501 942.441 L111.501 937.742 Q113.584 938.876 115.807 939.431 Q118.029 939.987 120.506 939.987 Q124.51 939.987 126.848 937.88 Q129.186 935.774 129.186 932.163 Q129.186 928.552 126.848 926.445 Q124.51 924.339 120.506 924.339 Q118.631 924.339 116.756 924.756 Q114.904 925.172 112.959 926.052 L112.959 908.691 Z" fill="#000000" fill-rule="evenodd" fill-opacity="1" /><path clip-path="url(#clip840)" d="M 0 0 M153.075 911.77 Q149.464 911.77 147.635 915.334 Q145.83 918.876 145.83 926.006 Q145.83 933.112 147.635 936.677 Q149.464 940.218 153.075 940.218 Q156.709 940.218 158.515 936.677 Q160.343 933.112 160.343 926.006 Q160.343 918.876 158.515 915.334 Q156.709 911.77 153.075 911.77 M153.075 908.066 Q158.885 908.066 161.941 912.672 Q165.019 917.256 165.019 926.006 Q165.019 934.732 161.941 939.339 Q158.885 943.922 153.075 943.922 Q147.265 943.922 144.186 939.339 Q141.131 934.732 141.131 926.006 Q141.131 917.256 144.186 912.672 Q147.265 908.066 153.075 908.066 Z" fill="#000000" fill-rule="evenodd" fill-opacity="1" /><path clip-path="url(#clip840)" d="M 0 0 M57.6125 708.926 L73.9318 708.926 L73.9318 712.861 L51.9875 712.861 L51.9875 708.926 Q54.6495 706.171 59.2328 701.542 Q63.8393 696.889 65.0198 695.546 Q67.2652 693.023 68.1448 691.287 Q69.0476 689.528 69.0476 687.838 Q69.0476 685.083 67.1032 683.347 Q65.1819 681.611 62.08 681.611 Q59.881 681.611 57.4273 682.375 Q54.9967 683.139 52.219 684.69 L52.219 679.968 Q55.043 678.834 57.4967 678.255 Q59.9504 677.676 61.9874 677.676 Q67.3578 677.676 70.5522 680.361 Q73.7466 683.046 73.7466 687.537 Q73.7466 689.667 72.9365 691.588 Q72.1494 693.486 70.0429 696.079 Q69.4642 696.75 66.3624 699.968 Q63.2606 703.162 57.6125 708.926 Z" fill="#000000" fill-rule="evenodd" fill-opacity="1" /><path clip-path="url(#clip840)" d="M 0 0 M93.7465 681.38 Q90.1354 681.38 88.3067 684.945 Q86.5012 688.486 86.5012 695.616 Q86.5012 702.722 88.3067 706.287 Q90.1354 709.829 93.7465 709.829 Q97.3808 709.829 99.1863 706.287 Q101.015 702.722 101.015 695.616 Q101.015 688.486 99.1863 684.945 Q97.3808 681.38 93.7465 681.38 M93.7465 677.676 Q99.5567 677.676 102.612 682.283 Q105.691 686.866 105.691 695.616 Q105.691 704.343 102.612 708.949 Q99.5567 713.532 93.7465 713.532 Q87.9364 713.532 84.8577 708.949 Q81.8021 704.343 81.8021 695.616 Q81.8021 686.866 84.8577 682.283 Q87.9364 677.676 93.7465 677.676 Z" fill="#000000" fill-rule="evenodd" fill-opacity="1" /><path clip-path="url(#clip840)" d="M 0 0 M112.728 678.301 L134.95 678.301 L134.95 680.292 L122.404 712.861 L117.52 712.861 L129.325 682.236 L112.728 682.236 L112.728 678.301 Z" fill="#000000" fill-rule="evenodd" fill-opacity="1" /><path clip-path="url(#clip840)" d="M 0 0 M144.117 678.301 L162.473 678.301 L162.473 682.236 L148.399 682.236 L148.399 690.708 Q149.418 690.361 150.436 690.199 Q151.455 690.014 152.473 690.014 Q158.26 690.014 161.64 693.185 Q165.019 696.357 165.019 701.773 Q165.019 707.352 161.547 710.454 Q158.075 713.532 151.755 713.532 Q149.58 713.532 147.311 713.162 Q145.066 712.792 142.658 712.051 L142.658 707.352 Q144.742 708.486 146.964 709.042 Q149.186 709.597 151.663 709.597 Q155.667 709.597 158.005 707.491 Q160.343 705.384 160.343 701.773 Q160.343 698.162 158.005 696.056 Q155.667 693.949 151.663 693.949 Q149.788 693.949 147.913 694.366 Q146.061 694.783 144.117 695.662 L144.117 678.301 Z" fill="#000000" fill-rule="evenodd" fill-opacity="1" /><path clip-path="url(#clip840)" d="M 0 0 M56.6171 478.536 L72.9365 478.536 L72.9365 482.471 L50.9921 482.471 L50.9921 478.536 Q53.6541 475.782 58.2375 471.152 Q62.8439 466.499 64.0245 465.157 Q66.2698 462.634 67.1494 460.897 Q68.0522 459.138 68.0522 457.448 Q68.0522 454.694 66.1078 452.958 Q64.1865 451.222 61.0847 451.222 Q58.8856 451.222 56.4319 451.985 Q54.0014 452.749 51.2236 454.3 L51.2236 449.578 Q54.0477 448.444 56.5014 447.865 Q58.955 447.286 60.9921 447.286 Q66.3624 447.286 69.5568 449.972 Q72.7513 452.657 72.7513 457.147 Q72.7513 459.277 71.9411 461.198 Q71.1541 463.097 69.0476 465.689 Q68.4689 466.36 65.367 469.578 Q62.2652 472.772 56.6171 478.536 Z" fill="#000000" fill-rule="evenodd" fill-opacity="1" /><path clip-path="url(#clip840)" d="M 0 0 M83.5614 478.536 L91.2002 478.536 L91.2002 452.171 L82.8901 453.837 L82.8901 449.578 L91.1539 447.911 L95.8298 447.911 L95.8298 478.536 L103.469 478.536 L103.469 482.471 L83.5614 482.471 L83.5614 478.536 Z" fill="#000000" fill-rule="evenodd" fill-opacity="1" /><path clip-path="url(#clip840)" d="M 0 0 M122.913 450.99 Q119.302 450.99 117.473 454.555 Q115.668 458.097 115.668 465.226 Q115.668 472.333 117.473 475.897 Q119.302 479.439 122.913 479.439 Q126.547 479.439 128.353 475.897 Q130.182 472.333 130.182 465.226 Q130.182 458.097 128.353 454.555 Q126.547 450.99 122.913 450.99 M122.913 447.286 Q128.723 447.286 131.779 451.893 Q134.857 456.476 134.857 465.226 Q134.857 473.953 131.779 478.559 Q128.723 483.143 122.913 483.143 Q117.103 483.143 114.024 478.559 Q110.969 473.953 110.969 465.226 Q110.969 456.476 114.024 451.893 Q117.103 447.286 122.913 447.286 Z" fill="#000000" fill-rule="evenodd" fill-opacity="1" /><path clip-path="url(#clip840)" d="M 0 0 M153.075 450.99 Q149.464 450.99 147.635 454.555 Q145.83 458.097 145.83 465.226 Q145.83 472.333 147.635 475.897 Q149.464 479.439 153.075 479.439 Q156.709 479.439 158.515 475.897 Q160.343 472.333 160.343 465.226 Q160.343 458.097 158.515 454.555 Q156.709 450.99 153.075 450.99 M153.075 447.286 Q158.885 447.286 161.941 451.893 Q165.019 456.476 165.019 465.226 Q165.019 473.953 161.941 478.559 Q158.885 483.143 153.075 483.143 Q147.265 483.143 144.186 478.559 Q141.131 473.953 141.131 465.226 Q141.131 456.476 144.186 451.893 Q147.265 447.286 153.075 447.286 Z" fill="#000000" fill-rule="evenodd" fill-opacity="1" /><path clip-path="url(#clip840)" d="M 0 0 M57.6125 248.147 L73.9318 248.147 L73.9318 252.082 L51.9875 252.082 L51.9875 248.147 Q54.6495 245.392 59.2328 240.762 Q63.8393 236.11 65.0198 234.767 Q67.2652 232.244 68.1448 230.508 Q69.0476 228.748 69.0476 227.059 Q69.0476 224.304 67.1032 222.568 Q65.1819 220.832 62.08 220.832 Q59.881 220.832 57.4273 221.596 Q54.9967 222.36 52.219 223.911 L52.219 219.188 Q55.043 218.054 57.4967 217.475 Q59.9504 216.897 61.9874 216.897 Q67.3578 216.897 70.5522 219.582 Q73.7466 222.267 73.7466 226.758 Q73.7466 228.887 72.9365 230.809 Q72.1494 232.707 70.0429 235.299 Q69.4642 235.971 66.3624 239.188 Q63.2606 242.383 57.6125 248.147 Z" fill="#000000" fill-rule="evenodd" fill-opacity="1" /><path clip-path="url(#clip840)" d="M 0 0 M84.5568 248.147 L92.1956 248.147 L92.1956 221.781 L83.8855 223.448 L83.8855 219.188 L92.1493 217.522 L96.8252 217.522 L96.8252 248.147 L104.464 248.147 L104.464 252.082 L84.5568 252.082 L84.5568 248.147 Z" fill="#000000" fill-rule="evenodd" fill-opacity="1" /><path clip-path="url(#clip840)" d="M 0 0 M117.936 248.147 L134.256 248.147 L134.256 252.082 L112.311 252.082 L112.311 248.147 Q114.973 245.392 119.557 240.762 Q124.163 236.11 125.344 234.767 Q127.589 232.244 128.469 230.508 Q129.371 228.748 129.371 227.059 Q129.371 224.304 127.427 222.568 Q125.506 220.832 122.404 220.832 Q120.205 220.832 117.751 221.596 Q115.32 222.36 112.543 223.911 L112.543 219.188 Q115.367 218.054 117.82 217.475 Q120.274 216.897 122.311 216.897 Q127.682 216.897 130.876 219.582 Q134.07 222.267 134.07 226.758 Q134.07 228.887 133.26 230.809 Q132.473 232.707 130.367 235.299 Q129.788 235.971 126.686 239.188 Q123.584 242.383 117.936 248.147 Z" fill="#000000" fill-rule="evenodd" fill-opacity="1" /><path clip-path="url(#clip840)" d="M 0 0 M144.117 217.522 L162.473 217.522 L162.473 221.457 L148.399 221.457 L148.399 229.929 Q149.418 229.582 150.436 229.42 Q151.455 229.235 152.473 229.235 Q158.26 229.235 161.64 232.406 Q165.019 235.577 165.019 240.994 Q165.019 246.572 161.547 249.674 Q158.075 252.753 151.755 252.753 Q149.58 252.753 147.311 252.383 Q145.066 252.012 142.658 251.272 L142.658 246.572 Q144.742 247.707 146.964 248.262 Q149.186 248.818 151.663 248.818 Q155.667 248.818 158.005 246.711 Q160.343 244.605 160.343 240.994 Q160.343 237.383 158.005 235.276 Q155.667 233.17 151.663 233.17 Q149.788 233.17 147.913 233.586 Q146.061 234.003 144.117 234.883 L144.117 217.522 Z" fill="#000000" fill-rule="evenodd" fill-opacity="1" /><path clip-path="url(#clip842)" d="
M300.138 961.912 L300.138 865.885 L261.917 865.885 L261.917 635.588 L300.138 635.588 L300.138 589.417 L300.138 635.588 L338.359 635.588 L338.359 865.885 L300.138 865.885 
  L300.138 961.912  Z
  " fill="#008000" fill-rule="evenodd" fill-opacity="1"/>
<polyline clip-path="url(#clip842)" style="stroke:#008000; stroke-width:2; stroke-opacity:1; fill:none" points="
  300.138,961.912 300.138,865.885 261.917,865.885 261.917,635.588 300.138,635.588 300.138,589.417 300.138,635.588 338.359,635.588 338.359,865.885 300.138,865.885 
  300.138,961.912 
  "/>
<path clip-path="url(#clip842)" d="
M385.073 730.047 L385.073 687.839 L346.852 687.839 L346.852 684.615 L385.073 684.615 L385.073 424.918 L385.073 684.615 L423.293 684.615 L423.293 687.839 L385.073 687.839 
  L385.073 730.047  Z
  " fill="#008000" fill-rule="evenodd" fill-opacity="1"/>
<polyline clip-path="url(#clip842)" style="stroke:#008000; stroke-width:2; stroke-opacity:1; fill:none" points="
  385.073,730.047 385.073,687.839 346.852,687.839 346.852,684.615 385.073,684.615 385.073,424.918 385.073,684.615 423.293,684.615 423.293,687.839 385.073,687.839 
  385.073,730.047 
  "/>
<path clip-path="url(#clip842)" d="
M470.008 1294.59 L470.008 1140.6 L431.787 1140.6 L431.787 767.371 L470.008 767.371 L470.008 571.004 L470.008 767.371 L508.228 767.371 L508.228 1140.6 L470.008 1140.6 
  L470.008 1294.59  Z
  " fill="#008000" fill-rule="evenodd" fill-opacity="1"/>
<polyline clip-path="url(#clip842)" style="stroke:#008000; stroke-width:2; stroke-opacity:1; fill:none" points="
  470.008,1294.59 470.008,1140.6 431.787,1140.6 431.787,767.371 470.008,767.371 470.008,571.004 470.008,767.371 508.228,767.371 508.228,1140.6 470.008,1140.6 
  470.008,1294.59 
  "/>
<path clip-path="url(#clip842)" d="
M554.942 1199.95 L554.942 1171.38 L516.722 1171.38 L516.722 934.356 L554.942 934.356 L554.942 564.351 L554.942 934.356 L593.163 934.356 L593.163 1171.38 L554.942 1171.38 
  L554.942 1199.95  Z
  " fill="#008000" fill-rule="evenodd" fill-opacity="1"/>
<polyline clip-path="url(#clip842)" style="stroke:#008000; stroke-width:2; stroke-opacity:1; fill:none" points="
  554.942,1199.95 554.942,1171.38 516.722,1171.38 516.722,934.356 554.942,934.356 554.942,564.351 554.942,934.356 593.163,934.356 593.163,1171.38 554.942,1171.38 
  554.942,1199.95 
  "/>
<path clip-path="url(#clip842)" d="
M639.877 959.008 L639.877 712.905 L601.656 712.905 L601.656 386.49 L639.877 386.49 L639.877 298.296 L639.877 386.49 L678.098 386.49 L678.098 712.905 L639.877 712.905 
  L639.877 959.008  Z
  " fill="#008000" fill-rule="evenodd" fill-opacity="1"/>
<polyline clip-path="url(#clip842)" style="stroke:#008000; stroke-width:2; stroke-opacity:1; fill:none" points="
  639.877,959.008 639.877,712.905 601.656,712.905 601.656,386.49 639.877,386.49 639.877,298.296 639.877,386.49 678.098,386.49 678.098,712.905 639.877,712.905 
  639.877,959.008 
  "/>
<path clip-path="url(#clip842)" d="
M724.812 1187.6 L724.812 1164.01 L686.591 1164.01 L686.591 454.779 L724.812 454.779 L724.812 199.69 L724.812 454.779 L763.032 454.779 L763.032 1164.01 L724.812 1164.01 
  L724.812 1187.6  Z
  " fill="#008000" fill-rule="evenodd" fill-opacity="1"/>
<polyline clip-path="url(#clip842)" style="stroke:#008000; stroke-width:2; stroke-opacity:1; fill:none" points="
  724.812,1187.6 724.812,1164.01 686.591,1164.01 686.591,454.779 724.812,454.779 724.812,199.69 724.812,454.779 763.032,454.779 763.032,1164.01 724.812,1164.01 
  724.812,1187.6 
  "/>
<path clip-path="url(#clip842)" d="
M809.747 945.969 L809.747 901.089 L771.526 901.089 L771.526 741.659 L809.747 741.659 L809.747 667.565 L809.747 741.659 L847.967 741.659 L847.967 901.089 L809.747 901.089 
  L809.747 945.969  Z
  " fill="#008000" fill-rule="evenodd" fill-opacity="1"/>
<polyline clip-path="url(#clip842)" style="stroke:#008000; stroke-width:2; stroke-opacity:1; fill:none" points="
  809.747,945.969 809.747,901.089 771.526,901.089 771.526,741.659 809.747,741.659 809.747,667.565 809.747,741.659 847.967,741.659 847.967,901.089 809.747,901.089 
  809.747,945.969 
  "/>
<path clip-path="url(#clip842)" d="
M894.681 1079.23 L894.681 879.616 L856.461 879.616 L856.461 725.44 L894.681 725.44 L894.681 695.581 L894.681 725.44 L932.902 725.44 L932.902 879.616 L894.681 879.616 
  L894.681 1079.23  Z
  " fill="#008000" fill-rule="evenodd" fill-opacity="1"/>
<polyline clip-path="url(#clip842)" style="stroke:#008000; stroke-width:2; stroke-opacity:1; fill:none" points="
  894.681,1079.23 894.681,879.616 856.461,879.616 856.461,725.44 894.681,725.44 894.681,695.581 894.681,725.44 932.902,725.44 932.902,879.616 894.681,879.616 
  894.681,1079.23 
  "/>
<path clip-path="url(#clip842)" d="
M979.616 719.727 L979.616 704.243 L941.395 704.243 L941.395 329.077 L979.616 329.077 L979.616 228.351 L979.616 329.077 L1017.84 329.077 L1017.84 704.243 L979.616 704.243 
  L979.616 719.727  Z
  " fill="#008000" fill-rule="evenodd" fill-opacity="1"/>
<polyline clip-path="url(#clip842)" style="stroke:#008000; stroke-width:2; stroke-opacity:1; fill:none" points="
  979.616,719.727 979.616,704.243 941.395,704.243 941.395,329.077 979.616,329.077 979.616,228.351 979.616,329.077 1017.84,329.077 1017.84,704.243 979.616,704.243 
  979.616,719.727 
  "/>
<path clip-path="url(#clip842)" d="
M1064.55 948.549 L1064.55 816.122 L1026.33 816.122 L1026.33 603.425 L1064.55 603.425 L1064.55 554.951 L1064.55 603.425 L1102.77 603.425 L1102.77 816.122 L1064.55 816.122 
  L1064.55 948.549  Z
  " fill="#008000" fill-rule="evenodd" fill-opacity="1"/>
<polyline clip-path="url(#clip842)" style="stroke:#008000; stroke-width:2; stroke-opacity:1; fill:none" points="
  1064.55,948.549 1064.55,816.122 1026.33,816.122 1026.33,603.425 1064.55,603.425 1064.55,554.951 1064.55,603.425 1102.77,603.425 1102.77,816.122 1064.55,816.122 
  1064.55,948.549 
  "/>
<path clip-path="url(#clip842)" d="
M1149.49 985.78 L1149.49 812.619 L1111.26 812.619 L1111.26 774.006 L1149.49 774.006 L1149.49 768.752 L1149.49 774.006 L1187.71 774.006 L1187.71 812.619 L1149.49 812.619 
  L1149.49 985.78  Z
  " fill="#008000" fill-rule="evenodd" fill-opacity="1"/>
<polyline clip-path="url(#clip842)" style="stroke:#008000; stroke-width:2; stroke-opacity:1; fill:none" points="
  1149.49,985.78 1149.49,812.619 1111.26,812.619 1111.26,774.006 1149.49,774.006 1149.49,768.752 1149.49,774.006 1187.71,774.006 1187.71,812.619 1149.49,812.619 
  1149.49,985.78 
  "/>
<path clip-path="url(#clip842)" d="
M1234.42 741.659 L1234.42 658.811 L1196.2 658.811 L1196.2 534.124 L1234.42 534.124 L1234.42 248.072 L1234.42 534.124 L1272.64 534.124 L1272.64 658.811 L1234.42 658.811 
  L1234.42 741.659  Z
  " fill="#008000" fill-rule="evenodd" fill-opacity="1"/>
<polyline clip-path="url(#clip842)" style="stroke:#008000; stroke-width:2; stroke-opacity:1; fill:none" points="
  1234.42,741.659 1234.42,658.811 1196.2,658.811 1196.2,534.124 1234.42,534.124 1234.42,248.072 1234.42,534.124 1272.64,534.124 1272.64,658.811 1234.42,658.811 
  1234.42,741.659 
  "/>
<path clip-path="url(#clip842)" d="
M1319.35 889.108 L1319.35 686.089 L1281.13 686.089 L1281.13 547.394 L1319.35 547.394 L1319.35 375.063 L1319.35 547.394 L1357.58 547.394 L1357.58 686.089 L1319.35 686.089 
  L1319.35 889.108  Z
  " fill="#008000" fill-rule="evenodd" fill-opacity="1"/>
<polyline clip-path="url(#clip842)" style="stroke:#008000; stroke-width:2; stroke-opacity:1; fill:none" points="
  1319.35,889.108 1319.35,686.089 1281.13,686.089 1281.13,547.394 1319.35,547.394 1319.35,375.063 1319.35,547.394 1357.58,547.394 1357.58,686.089 1319.35,686.089 
  1319.35,889.108 
  "/>
<path clip-path="url(#clip842)" d="
M1404.29 1077.57 L1404.29 1052.96 L1366.07 1052.96 L1366.07 824.599 L1404.29 824.599 L1404.29 690.973 L1404.29 824.599 L1442.51 824.599 L1442.51 1052.96 L1404.29 1052.96 
  L1404.29 1077.57  Z
  " fill="#008000" fill-rule="evenodd" fill-opacity="1"/>
<polyline clip-path="url(#clip842)" style="stroke:#008000; stroke-width:2; stroke-opacity:1; fill:none" points="
  1404.29,1077.57 1404.29,1052.96 1366.07,1052.96 1366.07,824.599 1404.29,824.599 1404.29,690.973 1404.29,824.599 1442.51,824.599 1442.51,1052.96 1404.29,1052.96 
  1404.29,1077.57 
  "/>
<path clip-path="url(#clip842)" d="
M1489.22 1223.82 L1489.22 999.234 L1451 999.234 L1451 988.637 L1489.22 988.637 L1489.22 897.402 L1489.22 988.637 L1527.45 988.637 L1527.45 999.234 L1489.22 999.234 
  L1489.22 1223.82  Z
  " fill="#008000" fill-rule="evenodd" fill-opacity="1"/>
<polyline clip-path="url(#clip842)" style="stroke:#008000; stroke-width:2; stroke-opacity:1; fill:none" points="
  1489.22,1223.82 1489.22,999.234 1451,999.234 1451,988.637 1489.22,988.637 1489.22,897.402 1489.22,988.637 1527.45,988.637 1527.45,999.234 1489.22,999.234 
  1489.22,1223.82 
  "/>
<path clip-path="url(#clip842)" d="
M1574.16 1146.5 L1574.16 1031.12 L1535.94 1031.12 L1535.94 1001.17 L1574.16 1001.17 L1574.16 852.338 L1574.16 1001.17 L1612.38 1001.17 L1612.38 1031.12 L1574.16 1031.12 
  L1574.16 1146.5  Z
  " fill="#008000" fill-rule="evenodd" fill-opacity="1"/>
<polyline clip-path="url(#clip842)" style="stroke:#008000; stroke-width:2; stroke-opacity:1; fill:none" points="
  1574.16,1146.5 1574.16,1031.12 1535.94,1031.12 1535.94,1001.17 1574.16,1001.17 1574.16,852.338 1574.16,1001.17 1612.38,1001.17 1612.38,1031.12 1574.16,1031.12 
  1574.16,1146.5 
  "/>
<path clip-path="url(#clip842)" d="
M1659.09 1025.32 L1659.09 910.305 L1620.87 910.305 L1620.87 898.693 L1659.09 898.693 L1659.09 720.445 L1659.09 898.693 L1697.31 898.693 L1697.31 910.305 L1659.09 910.305 
  L1659.09 1025.32  Z
  " fill="#008000" fill-rule="evenodd" fill-opacity="1"/>
<polyline clip-path="url(#clip842)" style="stroke:#008000; stroke-width:2; stroke-opacity:1; fill:none" points="
  1659.09,1025.32 1659.09,910.305 1620.87,910.305 1620.87,898.693 1659.09,898.693 1659.09,720.445 1659.09,898.693 1697.31,898.693 1697.31,910.305 1659.09,910.305 
  1659.09,1025.32 
  "/>
<path clip-path="url(#clip842)" d="
M1744.03 1003.8 L1744.03 971.495 L1705.81 971.495 L1705.81 784.326 L1744.03 784.326 L1744.03 665.999 L1744.03 784.326 L1782.25 784.326 L1782.25 971.495 L1744.03 971.495 
  L1744.03 1003.8  Z
  " fill="#008000" fill-rule="evenodd" fill-opacity="1"/>
<polyline clip-path="url(#clip842)" style="stroke:#008000; stroke-width:2; stroke-opacity:1; fill:none" points="
  1744.03,1003.8 1744.03,971.495 1705.81,971.495 1705.81,784.326 1744.03,784.326 1744.03,665.999 1744.03,784.326 1782.25,784.326 1782.25,971.495 1744.03,971.495 
  1744.03,1003.8 
  "/>
<path clip-path="url(#clip842)" d="
M1828.96 1287.87 L1828.96 977.947 L1790.74 977.947 L1790.74 973.799 L1828.96 973.799 L1828.96 844.227 L1828.96 973.799 L1867.18 973.799 L1867.18 977.947 L1828.96 977.947 
  L1828.96 1287.87  Z
  " fill="#008000" fill-rule="evenodd" fill-opacity="1"/>
<polyline clip-path="url(#clip842)" style="stroke:#008000; stroke-width:2; stroke-opacity:1; fill:none" points="
  1828.96,1287.87 1828.96,977.947 1790.74,977.947 1790.74,973.799 1828.96,973.799 1828.96,844.227 1828.96,973.799 1867.18,973.799 1867.18,977.947 1828.96,977.947 
  1828.96,1287.87 
  "/>
<path clip-path="url(#clip842)" d="
M1913.9 1257.55 L1913.9 1059.14 L1875.68 1059.14 L1875.68 1028.63 L1913.9 1028.63 L1913.9 916.847 L1913.9 1028.63 L1952.12 1028.63 L1952.12 1059.14 L1913.9 1059.14 
  L1913.9 1257.55  Z
  " fill="#008000" fill-rule="evenodd" fill-opacity="1"/>
<polyline clip-path="url(#clip842)" style="stroke:#008000; stroke-width:2; stroke-opacity:1; fill:none" points="
  1913.9,1257.55 1913.9,1059.14 1875.68,1059.14 1875.68,1028.63 1913.9,1028.63 1913.9,916.847 1913.9,1028.63 1952.12,1028.63 1952.12,1059.14 1913.9,1059.14 
  1913.9,1257.55 
  "/>
<path clip-path="url(#clip842)" d="
M1998.83 1242.8 L1998.83 1129.82 L1960.61 1129.82 L1960.61 871.139 L1998.83 871.139 L1998.83 848.284 L1998.83 871.139 L2037.05 871.139 L2037.05 1129.82 L1998.83 1129.82 
  L1998.83 1242.8  Z
  " fill="#008000" fill-rule="evenodd" fill-opacity="1"/>
<polyline clip-path="url(#clip842)" style="stroke:#008000; stroke-width:2; stroke-opacity:1; fill:none" points="
  1998.83,1242.8 1998.83,1129.82 1960.61,1129.82 1960.61,871.139 1998.83,871.139 1998.83,848.284 1998.83,871.139 2037.05,871.139 2037.05,1129.82 1998.83,1129.82 
  1998.83,1242.8 
  "/>
<path clip-path="url(#clip842)" d="
M2083.77 980.988 L2083.77 874.916 L2045.55 874.916 L2045.55 855.657 L2083.77 855.657 L2083.77 734.471 L2083.77 855.657 L2121.99 855.657 L2121.99 874.916 L2083.77 874.916 
  L2083.77 980.988  Z
  " fill="#008000" fill-rule="evenodd" fill-opacity="1"/>
<polyline clip-path="url(#clip842)" style="stroke:#008000; stroke-width:2; stroke-opacity:1; fill:none" points="
  2083.77,980.988 2083.77,874.916 2045.55,874.916 2045.55,855.657 2083.77,855.657 2083.77,734.471 2083.77,855.657 2121.99,855.657 2121.99,874.916 2083.77,874.916 
  2083.77,980.988 
  "/>
<path clip-path="url(#clip842)" d="
M2168.7 863.811 L2168.7 841.924 L2130.48 841.924 L2130.48 754.285 L2168.7 754.285 L2168.7 526.688 L2168.7 754.285 L2206.92 754.285 L2206.92 841.924 L2168.7 841.924 
  L2168.7 863.811  Z
  " fill="#008000" fill-rule="evenodd" fill-opacity="1"/>
<polyline clip-path="url(#clip842)" style="stroke:#008000; stroke-width:2; stroke-opacity:1; fill:none" points="
  2168.7,863.811 2168.7,841.924 2130.48,841.924 2130.48,754.285 2168.7,754.285 2168.7,526.688 2168.7,754.285 2206.92,754.285 2206.92,841.924 2168.7,841.924 
  2168.7,863.811 
  "/>
<path clip-path="url(#clip842)" d="
M2253.64 493.853 L2253.64 484.084 L2215.42 484.084 L2215.42 83.9414 L2253.64 83.9414 L2253.64 83.5747 L2253.64 83.9414 L2291.86 83.9414 L2291.86 484.084 L2253.64 484.084 
  L2253.64 493.853  Z
  " fill="#008000" fill-rule="evenodd" fill-opacity="1"/>
<polyline clip-path="url(#clip842)" style="stroke:#008000; stroke-width:2; stroke-opacity:1; fill:none" points="
  2253.64,493.853 2253.64,484.084 2215.42,484.084 2215.42,83.9414 2253.64,83.9414 2253.64,83.5747 2253.64,83.9414 2291.86,83.9414 2291.86,484.084 2253.64,484.084 
  2253.64,493.853 
  "/>
<circle clip-path="url(#clip842)" cx="300.138" cy="750.736" r="3" fill="#008000" fill-rule="evenodd" fill-opacity="1" stroke="#000000" stroke-opacity="1" stroke-width="0"/>
<circle clip-path="url(#clip842)" cx="385.073" cy="686.227" r="3" fill="#ff0000" fill-rule="evenodd" fill-opacity="1" stroke="#000000" stroke-opacity="1" stroke-width="0"/>
<circle clip-path="url(#clip842)" cx="470.008" cy="953.987" r="3" fill="#ff0000" fill-rule="evenodd" fill-opacity="1" stroke="#000000" stroke-opacity="1" stroke-width="0"/>
<circle clip-path="url(#clip842)" cx="554.942" cy="1052.87" r="3" fill="#008000" fill-rule="evenodd" fill-opacity="1" stroke="#000000" stroke-opacity="1" stroke-width="0"/>
<circle clip-path="url(#clip842)" cx="639.877" cy="549.698" r="3" fill="#008000" fill-rule="evenodd" fill-opacity="1" stroke="#000000" stroke-opacity="1" stroke-width="0"/>
<circle clip-path="url(#clip842)" cx="724.812" cy="809.394" r="3" fill="#ff0000" fill-rule="evenodd" fill-opacity="1" stroke="#000000" stroke-opacity="1" stroke-width="0"/>
<circle clip-path="url(#clip842)" cx="809.747" cy="821.374" r="3" fill="#ff0000" fill-rule="evenodd" fill-opacity="1" stroke="#000000" stroke-opacity="1" stroke-width="0"/>
<circle clip-path="url(#clip842)" cx="894.681" cy="802.528" r="3" fill="#ff0000" fill-rule="evenodd" fill-opacity="1" stroke="#000000" stroke-opacity="1" stroke-width="0"/>
<circle clip-path="url(#clip842)" cx="979.616" cy="516.66" r="3" fill="#008000" fill-rule="evenodd" fill-opacity="1" stroke="#000000" stroke-opacity="1" stroke-width="0"/>
<circle clip-path="url(#clip842)" cx="1064.55" cy="709.773" r="3" fill="#ff0000" fill-rule="evenodd" fill-opacity="1" stroke="#000000" stroke-opacity="1" stroke-width="0"/>
<circle clip-path="url(#clip842)" cx="1149.49" cy="793.312" r="3" fill="#008000" fill-rule="evenodd" fill-opacity="1" stroke="#000000" stroke-opacity="1" stroke-width="0"/>
<circle clip-path="url(#clip842)" cx="1234.42" cy="596.467" r="3" fill="#008000" fill-rule="evenodd" fill-opacity="1" stroke="#000000" stroke-opacity="1" stroke-width="0"/>
<circle clip-path="url(#clip842)" cx="1319.35" cy="616.741" r="3" fill="#008000" fill-rule="evenodd" fill-opacity="1" stroke="#000000" stroke-opacity="1" stroke-width="0"/>
<circle clip-path="url(#clip842)" cx="1404.29" cy="938.781" r="3" fill="#ff0000" fill-rule="evenodd" fill-opacity="1" stroke="#000000" stroke-opacity="1" stroke-width="0"/>
<circle clip-path="url(#clip842)" cx="1489.22" cy="993.936" r="3" fill="#008000" fill-rule="evenodd" fill-opacity="1" stroke="#000000" stroke-opacity="1" stroke-width="0"/>
<circle clip-path="url(#clip842)" cx="1574.16" cy="1016.15" r="3" fill="#ff0000" fill-rule="evenodd" fill-opacity="1" stroke="#000000" stroke-opacity="1" stroke-width="0"/>
<circle clip-path="url(#clip842)" cx="1659.09" cy="904.499" r="3" fill="#008000" fill-rule="evenodd" fill-opacity="1" stroke="#000000" stroke-opacity="1" stroke-width="0"/>
<circle clip-path="url(#clip842)" cx="1744.03" cy="877.911" r="3" fill="#ff0000" fill-rule="evenodd" fill-opacity="1" stroke="#000000" stroke-opacity="1" stroke-width="0"/>
<circle clip-path="url(#clip842)" cx="1828.96" cy="975.873" r="3" fill="#ff0000" fill-rule="evenodd" fill-opacity="1" stroke="#000000" stroke-opacity="1" stroke-width="0"/>
<circle clip-path="url(#clip842)" cx="1913.9" cy="1043.88" r="3" fill="#ff0000" fill-rule="evenodd" fill-opacity="1" stroke="#000000" stroke-opacity="1" stroke-width="0"/>
<circle clip-path="url(#clip842)" cx="1998.83" cy="1000.48" r="3" fill="#008000" fill-rule="evenodd" fill-opacity="1" stroke="#000000" stroke-opacity="1" stroke-width="0"/>
<circle clip-path="url(#clip842)" cx="2083.77" cy="865.287" r="3" fill="#ff0000" fill-rule="evenodd" fill-opacity="1" stroke="#000000" stroke-opacity="1" stroke-width="0"/>
<circle clip-path="url(#clip842)" cx="2168.7" cy="798.105" r="3" fill="#008000" fill-rule="evenodd" fill-opacity="1" stroke="#000000" stroke-opacity="1" stroke-width="0"/>
<circle clip-path="url(#clip842)" cx="2253.64" cy="284.013" r="3" fill="#008000" fill-rule="evenodd" fill-opacity="1" stroke="#000000" stroke-opacity="1" stroke-width="0"/>
</svg>
