<?xml version="1.0" encoding="utf-8"?>
<svg xmlns="http://www.w3.org/2000/svg" xmlns:xlink="http://www.w3.org/1999/xlink" width="600" height="400" viewBox="0 0 2400 1600">
<defs>
  <clipPath id="clip750">
    <rect x="0" y="0" width="2400" height="1600"/>
  </clipPath>
</defs>
<path clip-path="url(#clip750)" d="
M0 1600 L2400 1600 L2400 0 L0 0  Z
  " fill="#ffffff" fill-rule="evenodd" fill-opacity="1"/>
<defs>
  <clipPath id="clip751">
    <rect x="480" y="0" width="1681" height="1600"/>
  </clipPath>
</defs>
<path clip-path="url(#clip750)" d="
M201.019 1486.45 L2352.76 1486.45 L2352.76 47.2441 L201.019 47.2441  Z
  " fill="#ffffff" fill-rule="evenodd" fill-opacity="1"/>
<defs>
  <clipPath id="clip752">
    <rect x="201" y="47" width="2153" height="1440"/>
  </clipPath>
</defs>
<polyline clip-path="url(#clip752)" style="stroke:#000000; stroke-linecap:butt; stroke-linejoin:round; stroke-width:2; stroke-opacity:0.1; fill:none" points="
  261.917,1486.45 261.917,47.2441 
  "/>
<polyline clip-path="url(#clip752)" style="stroke:#000000; stroke-linecap:butt; stroke-linejoin:round; stroke-width:2; stroke-opacity:0.1; fill:none" points="
  769.403,1486.45 769.403,47.2441 
  "/>
<polyline clip-path="url(#clip752)" style="stroke:#000000; stroke-linecap:butt; stroke-linejoin:round; stroke-width:2; stroke-opacity:0.1; fill:none" points="
  1276.89,1486.45 1276.89,47.2441 
  "/>
<polyline clip-path="url(#clip752)" style="stroke:#000000; stroke-linecap:butt; stroke-linejoin:round; stroke-width:2; stroke-opacity:0.1; fill:none" points="
  1784.37,1486.45 1784.37,47.2441 
  "/>
<polyline clip-path="url(#clip752)" style="stroke:#000000; stroke-linecap:butt; stroke-linejoin:round; stroke-width:2; stroke-opacity:0.1; fill:none" points="
  2291.86,1486.45 2291.86,47.2441 
  "/>
<polyline clip-path="url(#clip750)" style="stroke:#000000; stroke-linecap:butt; stroke-linejoin:round; stroke-width:4; stroke-opacity:1; fill:none" points="
  201.019,1486.45 2352.76,1486.45 
  "/>
<polyline clip-path="url(#clip750)" style="stroke:#000000; stroke-linecap:butt; stroke-linejoin:round; stroke-width:4; stroke-opacity:1; fill:none" points="
  261.917,1486.45 261.917,1467.55 
  "/>
<polyline clip-path="url(#clip750)" style="stroke:#000000; stroke-linecap:butt; stroke-linejoin:round; stroke-width:4; stroke-opacity:1; fill:none" points="
  769.403,1486.45 769.403,1467.55 
  "/>
<polyline clip-path="url(#clip750)" style="stroke:#000000; stroke-linecap:butt; stroke-linejoin:round; stroke-width:4; stroke-opacity:1; fill:none" points="
  1276.89,1486.45 1276.89,1467.55 
  "/>
<polyline clip-path="url(#clip750)" style="stroke:#000000; stroke-linecap:butt; stroke-linejoin:round; stroke-width:4; stroke-opacity:1; fill:none" points="
  1784.37,1486.45 1784.37,1467.55 
  "/>
<polyline clip-path="url(#clip750)" style="stroke:#000000; stroke-linecap:butt; stroke-linejoin:round; stroke-width:4; stroke-opacity:1; fill:none" points="
  2291.86,1486.45 2291.86,1467.55 
  "/>
<path clip-path="url(#clip750)" d="M133.145 1544.91 L149.464 1544.91 L149.464 1548.85 L127.52 1548.85 L127.52 1544.91 Q130.182 1542.16 134.765 1537.53 Q139.372 1532.88 140.552 1531.53 Q142.798 1529.01 143.677 1527.27 Q144.58 1525.51 144.58 1523.82 Q144.58 1521.07 142.636 1519.33 Q140.714 1517.6 137.613 1517.6 Q135.414 1517.6 132.96 1518.36 Q130.529 1519.13 127.752 1520.68 L127.752 1515.95 Q130.576 1514.82 133.029 1514.24 Q135.483 1513.66 137.52 1513.66 Q142.89 1513.66 146.085 1516.35 Q149.279 1519.03 149.279 1523.52 Q149.279 1525.65 148.469 1527.57 Q147.682 1529.47 145.576 1532.07 Q144.997 1532.74 141.895 1535.95 Q138.793 1539.15 133.145 1544.91 Z" fill="#000000" fill-rule="evenodd" fill-opacity="1" /><path clip-path="url(#clip750)" d="M169.279 1517.37 Q165.668 1517.37 163.839 1520.93 Q162.034 1524.47 162.034 1531.6 Q162.034 1538.71 163.839 1542.27 Q165.668 1545.82 169.279 1545.82 Q172.913 1545.82 174.719 1542.27 Q176.548 1538.71 176.548 1531.6 Q176.548 1524.47 174.719 1520.93 Q172.913 1517.37 169.279 1517.37 M169.279 1513.66 Q175.089 1513.66 178.145 1518.27 Q181.223 1522.85 181.223 1531.6 Q181.223 1540.33 178.145 1544.94 Q175.089 1549.52 169.279 1549.52 Q163.469 1549.52 160.39 1544.94 Q157.335 1540.33 157.335 1531.6 Q157.335 1522.85 160.39 1518.27 Q163.469 1513.66 169.279 1513.66 Z" fill="#000000" fill-rule="evenodd" fill-opacity="1" /><path clip-path="url(#clip750)" d="M193.469 1544.91 L209.788 1544.91 L209.788 1548.85 L187.844 1548.85 L187.844 1544.91 Q190.506 1542.16 195.089 1537.53 Q199.696 1532.88 200.876 1531.53 Q203.122 1529.01 204.001 1527.27 Q204.904 1525.51 204.904 1523.82 Q204.904 1521.07 202.959 1519.33 Q201.038 1517.6 197.936 1517.6 Q195.737 1517.6 193.284 1518.36 Q190.853 1519.13 188.075 1520.68 L188.075 1515.95 Q190.899 1514.82 193.353 1514.24 Q195.807 1513.66 197.844 1513.66 Q203.214 1513.66 206.409 1516.35 Q209.603 1519.03 209.603 1523.52 Q209.603 1525.65 208.793 1527.57 Q208.006 1529.47 205.899 1532.07 Q205.321 1532.74 202.219 1535.95 Q199.117 1539.15 193.469 1544.91 Z" fill="#000000" fill-rule="evenodd" fill-opacity="1" /><path clip-path="url(#clip750)" d="M220.413 1544.91 L228.052 1544.91 L228.052 1518.55 L219.742 1520.21 L219.742 1515.95 L228.006 1514.29 L232.682 1514.29 L232.682 1544.91 L240.32 1544.91 L240.32 1548.85 L220.413 1548.85 L220.413 1544.91 Z" fill="#000000" fill-rule="evenodd" fill-opacity="1" /><path clip-path="url(#clip750)" d="M247.01 1533.96 L259.487 1533.96 L259.487 1537.76 L247.01 1537.76 L247.01 1533.96 Z" fill="#000000" fill-rule="evenodd" fill-opacity="1" /><path clip-path="url(#clip750)" d="M267.681 1544.91 L275.32 1544.91 L275.32 1518.55 L267.01 1520.21 L267.01 1515.95 L275.274 1514.29 L279.95 1514.29 L279.95 1544.91 L287.589 1544.91 L287.589 1548.85 L267.681 1548.85 L267.681 1544.91 Z" fill="#000000" fill-rule="evenodd" fill-opacity="1" /><path clip-path="url(#clip750)" d="M297.843 1544.91 L305.482 1544.91 L305.482 1518.55 L297.172 1520.21 L297.172 1515.95 L305.436 1514.29 L310.112 1514.29 L310.112 1544.91 L317.751 1544.91 L317.751 1548.85 L297.843 1548.85 L297.843 1544.91 Z" fill="#000000" fill-rule="evenodd" fill-opacity="1" /><path clip-path="url(#clip750)" d="M324.44 1533.96 L336.917 1533.96 L336.917 1537.76 L324.44 1537.76 L324.44 1533.96 Z" fill="#000000" fill-rule="evenodd" fill-opacity="1" /><path clip-path="url(#clip750)" d="M354.301 1517.37 Q350.69 1517.37 348.861 1520.93 Q347.056 1524.47 347.056 1531.6 Q347.056 1538.71 348.861 1542.27 Q350.69 1545.82 354.301 1545.82 Q357.936 1545.82 359.741 1542.27 Q361.57 1538.71 361.57 1531.6 Q361.57 1524.47 359.741 1520.93 Q357.936 1517.37 354.301 1517.37 M354.301 1513.66 Q360.111 1513.66 363.167 1518.27 Q366.246 1522.85 366.246 1531.6 Q366.246 1540.33 363.167 1544.94 Q360.111 1549.52 354.301 1549.52 Q348.491 1549.52 345.412 1544.94 Q342.357 1540.33 342.357 1531.6 Q342.357 1522.85 345.412 1518.27 Q348.491 1513.66 354.301 1513.66 Z" fill="#000000" fill-rule="evenodd" fill-opacity="1" /><path clip-path="url(#clip750)" d="M384.463 1532.44 Q381.13 1532.44 379.209 1534.22 Q377.31 1536 377.31 1539.13 Q377.31 1542.25 379.209 1544.03 Q381.13 1545.82 384.463 1545.82 Q387.796 1545.82 389.718 1544.03 Q391.639 1542.23 391.639 1539.13 Q391.639 1536 389.718 1534.22 Q387.82 1532.44 384.463 1532.44 M379.787 1530.45 Q376.778 1529.7 375.088 1527.64 Q373.422 1525.58 373.422 1522.62 Q373.422 1518.48 376.361 1516.07 Q379.324 1513.66 384.463 1513.66 Q389.625 1513.66 392.565 1516.07 Q395.505 1518.48 395.505 1522.62 Q395.505 1525.58 393.815 1527.64 Q392.148 1529.7 389.162 1530.45 Q392.542 1531.23 394.417 1533.52 Q396.315 1535.82 396.315 1539.13 Q396.315 1544.15 393.236 1546.83 Q390.181 1549.52 384.463 1549.52 Q378.746 1549.52 375.667 1546.83 Q372.611 1544.15 372.611 1539.13 Q372.611 1535.82 374.509 1533.52 Q376.408 1531.23 379.787 1530.45 M378.074 1523.06 Q378.074 1525.75 379.741 1527.25 Q381.431 1528.76 384.463 1528.76 Q387.472 1528.76 389.162 1527.25 Q390.875 1525.75 390.875 1523.06 Q390.875 1520.38 389.162 1518.87 Q387.472 1517.37 384.463 1517.37 Q381.431 1517.37 379.741 1518.87 Q378.074 1520.38 378.074 1523.06 Z" fill="#000000" fill-rule="evenodd" fill-opacity="1" /><path clip-path="url(#clip750)" d="M641.081 1544.91 L657.401 1544.91 L657.401 1548.85 L635.457 1548.85 L635.457 1544.91 Q638.119 1542.16 642.702 1537.53 Q647.308 1532.88 648.489 1531.53 Q650.734 1529.01 651.614 1527.27 Q652.517 1525.51 652.517 1523.82 Q652.517 1521.07 650.572 1519.33 Q648.651 1517.6 645.549 1517.6 Q643.35 1517.6 640.896 1518.36 Q638.466 1519.13 635.688 1520.68 L635.688 1515.95 Q638.512 1514.82 640.966 1514.24 Q643.419 1513.66 645.456 1513.66 Q650.827 1513.66 654.021 1516.35 Q657.216 1519.03 657.216 1523.52 Q657.216 1525.65 656.405 1527.57 Q655.618 1529.47 653.512 1532.07 Q652.933 1532.74 649.831 1535.95 Q646.73 1539.15 641.081 1544.91 Z" fill="#000000" fill-rule="evenodd" fill-opacity="1" /><path clip-path="url(#clip750)" d="M677.216 1517.37 Q673.604 1517.37 671.776 1520.93 Q669.97 1524.47 669.97 1531.6 Q669.97 1538.71 671.776 1542.27 Q673.604 1545.82 677.216 1545.82 Q680.85 1545.82 682.655 1542.27 Q684.484 1538.71 684.484 1531.6 Q684.484 1524.47 682.655 1520.93 Q680.85 1517.37 677.216 1517.37 M677.216 1513.66 Q683.026 1513.66 686.081 1518.27 Q689.16 1522.85 689.16 1531.6 Q689.16 1540.33 686.081 1544.94 Q683.026 1549.52 677.216 1549.52 Q671.405 1549.52 668.327 1544.94 Q665.271 1540.33 665.271 1531.6 Q665.271 1522.85 668.327 1518.27 Q671.405 1513.66 677.216 1513.66 Z" fill="#000000" fill-rule="evenodd" fill-opacity="1" /><path clip-path="url(#clip750)" d="M701.405 1544.91 L717.725 1544.91 L717.725 1548.85 L695.78 1548.85 L695.78 1544.91 Q698.442 1542.16 703.026 1537.53 Q707.632 1532.88 708.813 1531.53 Q711.058 1529.01 711.938 1527.27 Q712.84 1525.51 712.84 1523.82 Q712.84 1521.07 710.896 1519.33 Q708.975 1517.6 705.873 1517.6 Q703.674 1517.6 701.22 1518.36 Q698.79 1519.13 696.012 1520.68 L696.012 1515.95 Q698.836 1514.82 701.289 1514.24 Q703.743 1513.66 705.78 1513.66 Q711.151 1513.66 714.345 1516.35 Q717.539 1519.03 717.539 1523.52 Q717.539 1525.65 716.729 1527.57 Q715.942 1529.47 713.836 1532.07 Q713.257 1532.74 710.155 1535.95 Q707.053 1539.15 701.405 1544.91 Z" fill="#000000" fill-rule="evenodd" fill-opacity="1" /><path clip-path="url(#clip750)" d="M728.35 1544.91 L735.988 1544.91 L735.988 1518.55 L727.678 1520.21 L727.678 1515.95 L735.942 1514.29 L740.618 1514.29 L740.618 1544.91 L748.257 1544.91 L748.257 1548.85 L728.35 1548.85 L728.35 1544.91 Z" fill="#000000" fill-rule="evenodd" fill-opacity="1" /><path clip-path="url(#clip750)" d="M754.947 1533.96 L767.423 1533.96 L767.423 1537.76 L754.947 1537.76 L754.947 1533.96 Z" fill="#000000" fill-rule="evenodd" fill-opacity="1" /><path clip-path="url(#clip750)" d="M775.618 1544.91 L783.257 1544.91 L783.257 1518.55 L774.947 1520.21 L774.947 1515.95 L783.21 1514.29 L787.886 1514.29 L787.886 1544.91 L795.525 1544.91 L795.525 1548.85 L775.618 1548.85 L775.618 1544.91 Z" fill="#000000" fill-rule="evenodd" fill-opacity="1" /><path clip-path="url(#clip750)" d="M805.78 1544.91 L813.419 1544.91 L813.419 1518.55 L805.108 1520.21 L805.108 1515.95 L813.372 1514.29 L818.048 1514.29 L818.048 1544.91 L825.687 1544.91 L825.687 1548.85 L805.78 1548.85 L805.78 1544.91 Z" fill="#000000" fill-rule="evenodd" fill-opacity="1" /><path clip-path="url(#clip750)" d="M832.377 1533.96 L844.854 1533.96 L844.854 1537.76 L832.377 1537.76 L832.377 1533.96 Z" fill="#000000" fill-rule="evenodd" fill-opacity="1" /><path clip-path="url(#clip750)" d="M853.048 1544.91 L860.687 1544.91 L860.687 1518.55 L852.377 1520.21 L852.377 1515.95 L860.64 1514.29 L865.316 1514.29 L865.316 1544.91 L872.955 1544.91 L872.955 1548.85 L853.048 1548.85 L853.048 1544.91 Z" fill="#000000" fill-rule="evenodd" fill-opacity="1" /><path clip-path="url(#clip750)" d="M882.446 1514.29 L900.802 1514.29 L900.802 1518.22 L886.728 1518.22 L886.728 1526.7 Q887.747 1526.35 888.765 1526.19 Q889.784 1526 890.802 1526 Q896.589 1526 899.969 1529.17 Q903.349 1532.34 903.349 1537.76 Q903.349 1543.34 899.876 1546.44 Q896.404 1549.52 890.085 1549.52 Q887.909 1549.52 885.64 1549.15 Q883.395 1548.78 880.988 1548.04 L880.988 1543.34 Q883.071 1544.47 885.293 1545.03 Q887.515 1545.58 889.992 1545.58 Q893.997 1545.58 896.335 1543.48 Q898.673 1541.37 898.673 1537.76 Q898.673 1534.15 896.335 1532.04 Q893.997 1529.94 889.992 1529.94 Q888.117 1529.94 886.242 1530.35 Q884.39 1530.77 882.446 1531.65 L882.446 1514.29 Z" fill="#000000" fill-rule="evenodd" fill-opacity="1" /><path clip-path="url(#clip750)" d="M1148.87 1544.91 L1165.19 1544.91 L1165.19 1548.85 L1143.24 1548.85 L1143.24 1544.91 Q1145.9 1542.16 1150.49 1537.53 Q1155.09 1532.88 1156.27 1531.53 Q1158.52 1529.01 1159.4 1527.27 Q1160.3 1525.51 1160.3 1523.82 Q1160.3 1521.07 1158.36 1519.33 Q1156.44 1517.6 1153.34 1517.6 Q1151.14 1517.6 1148.68 1518.36 Q1146.25 1519.13 1143.47 1520.68 L1143.47 1515.95 Q1146.3 1514.82 1148.75 1514.24 Q1151.21 1513.66 1153.24 1513.66 Q1158.61 1513.66 1161.81 1516.35 Q1165 1519.03 1165 1523.52 Q1165 1525.65 1164.19 1527.57 Q1163.4 1529.47 1161.3 1532.07 Q1160.72 1532.74 1157.62 1535.95 Q1154.52 1539.15 1148.87 1544.91 Z" fill="#000000" fill-rule="evenodd" fill-opacity="1" /><path clip-path="url(#clip750)" d="M1185 1517.37 Q1181.39 1517.37 1179.56 1520.93 Q1177.76 1524.47 1177.76 1531.6 Q1177.76 1538.71 1179.56 1542.27 Q1181.39 1545.82 1185 1545.82 Q1188.64 1545.82 1190.44 1542.27 Q1192.27 1538.71 1192.27 1531.6 Q1192.27 1524.47 1190.44 1520.93 Q1188.64 1517.37 1185 1517.37 M1185 1513.66 Q1190.81 1513.66 1193.87 1518.27 Q1196.95 1522.85 1196.95 1531.6 Q1196.95 1540.33 1193.87 1544.94 Q1190.81 1549.52 1185 1549.52 Q1179.19 1549.52 1176.11 1544.94 Q1173.06 1540.33 1173.06 1531.6 Q1173.06 1522.85 1176.11 1518.27 Q1179.19 1513.66 1185 1513.66 Z" fill="#000000" fill-rule="evenodd" fill-opacity="1" /><path clip-path="url(#clip750)" d="M1209.19 1544.91 L1225.51 1544.91 L1225.51 1548.85 L1203.57 1548.85 L1203.57 1544.91 Q1206.23 1542.16 1210.81 1537.53 Q1215.42 1532.88 1216.6 1531.53 Q1218.84 1529.01 1219.72 1527.27 Q1220.63 1525.51 1220.63 1523.82 Q1220.63 1521.07 1218.68 1519.33 Q1216.76 1517.6 1213.66 1517.6 Q1211.46 1517.6 1209.01 1518.36 Q1206.58 1519.13 1203.8 1520.68 L1203.8 1515.95 Q1206.62 1514.82 1209.08 1514.24 Q1211.53 1513.66 1213.57 1513.66 Q1218.94 1513.66 1222.13 1516.35 Q1225.33 1519.03 1225.33 1523.52 Q1225.33 1525.65 1224.52 1527.57 Q1223.73 1529.47 1221.62 1532.07 Q1221.04 1532.74 1217.94 1535.95 Q1214.84 1539.15 1209.19 1544.91 Z" fill="#000000" fill-rule="evenodd" fill-opacity="1" /><path clip-path="url(#clip750)" d="M1236.14 1544.91 L1243.77 1544.91 L1243.77 1518.55 L1235.46 1520.21 L1235.46 1515.95 L1243.73 1514.29 L1248.4 1514.29 L1248.4 1544.91 L1256.04 1544.91 L1256.04 1548.85 L1236.14 1548.85 L1236.14 1544.91 Z" fill="#000000" fill-rule="evenodd" fill-opacity="1" /><path clip-path="url(#clip750)" d="M1262.73 1533.96 L1275.21 1533.96 L1275.21 1537.76 L1262.73 1537.76 L1262.73 1533.96 Z" fill="#000000" fill-rule="evenodd" fill-opacity="1" /><path clip-path="url(#clip750)" d="M1283.4 1544.91 L1291.04 1544.91 L1291.04 1518.55 L1282.73 1520.21 L1282.73 1515.95 L1291 1514.29 L1295.67 1514.29 L1295.67 1544.91 L1303.31 1544.91 L1303.31 1548.85 L1283.4 1548.85 L1283.4 1544.91 Z" fill="#000000" fill-rule="evenodd" fill-opacity="1" /><path clip-path="url(#clip750)" d="M1313.57 1544.91 L1321.2 1544.91 L1321.2 1518.55 L1312.89 1520.21 L1312.89 1515.95 L1321.16 1514.29 L1325.83 1514.29 L1325.83 1544.91 L1333.47 1544.91 L1333.47 1548.85 L1313.57 1548.85 L1313.57 1544.91 Z" fill="#000000" fill-rule="evenodd" fill-opacity="1" /><path clip-path="url(#clip750)" d="M1340.16 1533.96 L1352.64 1533.96 L1352.64 1537.76 L1340.16 1537.76 L1340.16 1533.96 Z" fill="#000000" fill-rule="evenodd" fill-opacity="1" /><path clip-path="url(#clip750)" d="M1364.05 1544.91 L1380.37 1544.91 L1380.37 1548.85 L1358.43 1548.85 L1358.43 1544.91 Q1361.09 1542.16 1365.67 1537.53 Q1370.28 1532.88 1371.46 1531.53 Q1373.7 1529.01 1374.58 1527.27 Q1375.49 1525.51 1375.49 1523.82 Q1375.49 1521.07 1373.54 1519.33 Q1371.62 1517.6 1368.52 1517.6 Q1366.32 1517.6 1363.87 1518.36 Q1361.44 1519.13 1358.66 1520.68 L1358.66 1515.95 Q1361.48 1514.82 1363.94 1514.24 Q1366.39 1513.66 1368.43 1513.66 Q1373.8 1513.66 1376.99 1516.35 Q1380.19 1519.03 1380.19 1523.52 Q1380.19 1525.65 1379.38 1527.57 Q1378.59 1529.47 1376.48 1532.07 Q1375.9 1532.74 1372.8 1535.95 Q1369.7 1539.15 1364.05 1544.91 Z" fill="#000000" fill-rule="evenodd" fill-opacity="1" /><path clip-path="url(#clip750)" d="M1394.21 1544.91 L1410.53 1544.91 L1410.53 1548.85 L1388.59 1548.85 L1388.59 1544.91 Q1391.25 1542.16 1395.83 1537.53 Q1400.44 1532.88 1401.62 1531.53 Q1403.87 1529.01 1404.75 1527.27 Q1405.65 1525.51 1405.65 1523.82 Q1405.65 1521.07 1403.7 1519.33 Q1401.78 1517.6 1398.68 1517.6 Q1396.48 1517.6 1394.03 1518.36 Q1391.6 1519.13 1388.82 1520.68 L1388.82 1515.95 Q1391.64 1514.82 1394.1 1514.24 Q1396.55 1513.66 1398.59 1513.66 Q1403.96 1513.66 1407.15 1516.35 Q1410.35 1519.03 1410.35 1523.52 Q1410.35 1525.65 1409.54 1527.57 Q1408.75 1529.47 1406.64 1532.07 Q1406.07 1532.74 1402.96 1535.95 Q1399.86 1539.15 1394.21 1544.91 Z" fill="#000000" fill-rule="evenodd" fill-opacity="1" /><path clip-path="url(#clip750)" d="M1655.65 1544.91 L1671.97 1544.91 L1671.97 1548.85 L1650.02 1548.85 L1650.02 1544.91 Q1652.68 1542.16 1657.27 1537.53 Q1661.87 1532.88 1663.05 1531.53 Q1665.3 1529.01 1666.18 1527.27 Q1667.08 1525.51 1667.08 1523.82 Q1667.08 1521.07 1665.14 1519.33 Q1663.22 1517.6 1660.11 1517.6 Q1657.91 1517.6 1655.46 1518.36 Q1653.03 1519.13 1650.25 1520.68 L1650.25 1515.95 Q1653.08 1514.82 1655.53 1514.24 Q1657.98 1513.66 1660.02 1513.66 Q1665.39 1513.66 1668.59 1516.35 Q1671.78 1519.03 1671.78 1523.52 Q1671.78 1525.65 1670.97 1527.57 Q1670.18 1529.47 1668.08 1532.07 Q1667.5 1532.74 1664.4 1535.95 Q1661.29 1539.15 1655.65 1544.91 Z" fill="#000000" fill-rule="evenodd" fill-opacity="1" /><path clip-path="url(#clip750)" d="M1691.78 1517.37 Q1688.17 1517.37 1686.34 1520.93 Q1684.54 1524.47 1684.54 1531.6 Q1684.54 1538.71 1686.34 1542.27 Q1688.17 1545.82 1691.78 1545.82 Q1695.41 1545.82 1697.22 1542.27 Q1699.05 1538.71 1699.05 1531.6 Q1699.05 1524.47 1697.22 1520.93 Q1695.41 1517.37 1691.78 1517.37 M1691.78 1513.66 Q1697.59 1513.66 1700.65 1518.27 Q1703.72 1522.85 1703.72 1531.6 Q1703.72 1540.33 1700.65 1544.94 Q1697.59 1549.52 1691.78 1549.52 Q1685.97 1549.52 1682.89 1544.94 Q1679.84 1540.33 1679.84 1531.6 Q1679.84 1522.85 1682.89 1518.27 Q1685.97 1513.66 1691.78 1513.66 Z" fill="#000000" fill-rule="evenodd" fill-opacity="1" /><path clip-path="url(#clip750)" d="M1715.97 1544.91 L1732.29 1544.91 L1732.29 1548.85 L1710.35 1548.85 L1710.35 1544.91 Q1713.01 1542.16 1717.59 1537.53 Q1722.2 1532.88 1723.38 1531.53 Q1725.62 1529.01 1726.5 1527.27 Q1727.41 1525.51 1727.41 1523.82 Q1727.41 1521.07 1725.46 1519.33 Q1723.54 1517.6 1720.44 1517.6 Q1718.24 1517.6 1715.79 1518.36 Q1713.35 1519.13 1710.58 1520.68 L1710.58 1515.95 Q1713.4 1514.82 1715.85 1514.24 Q1718.31 1513.66 1720.35 1513.66 Q1725.72 1513.66 1728.91 1516.35 Q1732.1 1519.03 1732.1 1523.52 Q1732.1 1525.65 1731.29 1527.57 Q1730.51 1529.47 1728.4 1532.07 Q1727.82 1532.74 1724.72 1535.95 Q1721.62 1539.15 1715.97 1544.91 Z" fill="#000000" fill-rule="evenodd" fill-opacity="1" /><path clip-path="url(#clip750)" d="M1742.91 1544.91 L1750.55 1544.91 L1750.55 1518.55 L1742.24 1520.21 L1742.24 1515.95 L1750.51 1514.29 L1755.18 1514.29 L1755.18 1544.91 L1762.82 1544.91 L1762.82 1548.85 L1742.91 1548.85 L1742.91 1544.91 Z" fill="#000000" fill-rule="evenodd" fill-opacity="1" /><path clip-path="url(#clip750)" d="M1769.51 1533.96 L1781.99 1533.96 L1781.99 1537.76 L1769.51 1537.76 L1769.51 1533.96 Z" fill="#000000" fill-rule="evenodd" fill-opacity="1" /><path clip-path="url(#clip750)" d="M1790.18 1544.91 L1797.82 1544.91 L1797.82 1518.55 L1789.51 1520.21 L1789.51 1515.95 L1797.78 1514.29 L1802.45 1514.29 L1802.45 1544.91 L1810.09 1544.91 L1810.09 1548.85 L1790.18 1548.85 L1790.18 1544.91 Z" fill="#000000" fill-rule="evenodd" fill-opacity="1" /><path clip-path="url(#clip750)" d="M1820.34 1544.91 L1827.98 1544.91 L1827.98 1518.55 L1819.67 1520.21 L1819.67 1515.95 L1827.94 1514.29 L1832.61 1514.29 L1832.61 1544.91 L1840.25 1544.91 L1840.25 1548.85 L1820.34 1548.85 L1820.34 1544.91 Z" fill="#000000" fill-rule="evenodd" fill-opacity="1" /><path clip-path="url(#clip750)" d="M1846.94 1533.96 L1859.42 1533.96 L1859.42 1537.76 L1846.94 1537.76 L1846.94 1533.96 Z" fill="#000000" fill-rule="evenodd" fill-opacity="1" /><path clip-path="url(#clip750)" d="M1870.83 1544.91 L1887.15 1544.91 L1887.15 1548.85 L1865.21 1548.85 L1865.21 1544.91 Q1867.87 1542.16 1872.45 1537.53 Q1877.06 1532.88 1878.24 1531.53 Q1880.48 1529.01 1881.36 1527.27 Q1882.27 1525.51 1882.27 1523.82 Q1882.27 1521.07 1880.32 1519.33 Q1878.4 1517.6 1875.3 1517.6 Q1873.1 1517.6 1870.65 1518.36 Q1868.21 1519.13 1865.44 1520.68 L1865.44 1515.95 Q1868.26 1514.82 1870.71 1514.24 Q1873.17 1513.66 1875.21 1513.66 Q1880.58 1513.66 1883.77 1516.35 Q1886.96 1519.03 1886.96 1523.52 Q1886.96 1525.65 1886.15 1527.57 Q1885.37 1529.47 1883.26 1532.07 Q1882.68 1532.74 1879.58 1535.95 Q1876.48 1539.15 1870.83 1544.91 Z" fill="#000000" fill-rule="evenodd" fill-opacity="1" /><path clip-path="url(#clip750)" d="M1897.1 1548.13 L1897.1 1543.87 Q1898.86 1544.7 1900.67 1545.14 Q1902.47 1545.58 1904.21 1545.58 Q1908.84 1545.58 1911.27 1542.48 Q1913.72 1539.36 1914.07 1533.01 Q1912.73 1535.01 1910.67 1536.07 Q1908.61 1537.13 1906.11 1537.13 Q1900.92 1537.13 1897.89 1534.01 Q1894.88 1530.86 1894.88 1525.42 Q1894.88 1520.1 1898.03 1516.88 Q1901.18 1513.66 1906.41 1513.66 Q1912.4 1513.66 1915.55 1518.27 Q1918.72 1522.85 1918.72 1531.6 Q1918.72 1539.77 1914.83 1544.66 Q1910.97 1549.52 1904.42 1549.52 Q1902.66 1549.52 1900.85 1549.17 Q1899.05 1548.82 1897.1 1548.13 M1906.41 1533.48 Q1909.56 1533.48 1911.39 1531.32 Q1913.24 1529.17 1913.24 1525.42 Q1913.24 1521.7 1911.39 1519.54 Q1909.56 1517.37 1906.41 1517.37 Q1903.26 1517.37 1901.41 1519.54 Q1899.58 1521.7 1899.58 1525.42 Q1899.58 1529.17 1901.41 1531.32 Q1903.26 1533.48 1906.41 1533.48 Z" fill="#000000" fill-rule="evenodd" fill-opacity="1" /><path clip-path="url(#clip750)" d="M2162.96 1544.91 L2179.28 1544.91 L2179.28 1548.85 L2157.33 1548.85 L2157.33 1544.91 Q2159.99 1542.16 2164.58 1537.53 Q2169.18 1532.88 2170.37 1531.53 Q2172.61 1529.01 2173.49 1527.27 Q2174.39 1525.51 2174.39 1523.82 Q2174.39 1521.07 2172.45 1519.33 Q2170.53 1517.6 2167.43 1517.6 Q2165.23 1517.6 2162.77 1518.36 Q2160.34 1519.13 2157.56 1520.68 L2157.56 1515.95 Q2160.39 1514.82 2162.84 1514.24 Q2165.3 1513.66 2167.33 1513.66 Q2172.7 1513.66 2175.9 1516.35 Q2179.09 1519.03 2179.09 1523.52 Q2179.09 1525.65 2178.28 1527.57 Q2177.49 1529.47 2175.39 1532.07 Q2174.81 1532.74 2171.71 1535.95 Q2168.61 1539.15 2162.96 1544.91 Z" fill="#000000" fill-rule="evenodd" fill-opacity="1" /><path clip-path="url(#clip750)" d="M2199.09 1517.37 Q2195.48 1517.37 2193.65 1520.93 Q2191.85 1524.47 2191.85 1531.6 Q2191.85 1538.71 2193.65 1542.27 Q2195.48 1545.82 2199.09 1545.82 Q2202.73 1545.82 2204.53 1542.27 Q2206.36 1538.71 2206.36 1531.6 Q2206.36 1524.47 2204.53 1520.93 Q2202.73 1517.37 2199.09 1517.37 M2199.09 1513.66 Q2204.9 1513.66 2207.96 1518.27 Q2211.04 1522.85 2211.04 1531.6 Q2211.04 1540.33 2207.96 1544.94 Q2204.9 1549.52 2199.09 1549.52 Q2193.28 1549.52 2190.2 1544.94 Q2187.15 1540.33 2187.15 1531.6 Q2187.15 1522.85 2190.2 1518.27 Q2193.28 1513.66 2199.09 1513.66 Z" fill="#000000" fill-rule="evenodd" fill-opacity="1" /><path clip-path="url(#clip750)" d="M2223.28 1544.91 L2239.6 1544.91 L2239.6 1548.85 L2217.66 1548.85 L2217.66 1544.91 Q2220.32 1542.16 2224.9 1537.53 Q2229.51 1532.88 2230.69 1531.53 Q2232.93 1529.01 2233.81 1527.27 Q2234.72 1525.51 2234.72 1523.82 Q2234.72 1521.07 2232.77 1519.33 Q2230.85 1517.6 2227.75 1517.6 Q2225.55 1517.6 2223.1 1518.36 Q2220.67 1519.13 2217.89 1520.68 L2217.89 1515.95 Q2220.71 1514.82 2223.17 1514.24 Q2225.62 1513.66 2227.66 1513.66 Q2233.03 1513.66 2236.22 1516.35 Q2239.42 1519.03 2239.42 1523.52 Q2239.42 1525.65 2238.61 1527.57 Q2237.82 1529.47 2235.71 1532.07 Q2235.13 1532.74 2232.03 1535.95 Q2228.93 1539.15 2223.28 1544.91 Z" fill="#000000" fill-rule="evenodd" fill-opacity="1" /><path clip-path="url(#clip750)" d="M2250.23 1544.91 L2257.86 1544.91 L2257.86 1518.55 L2249.55 1520.21 L2249.55 1515.95 L2257.82 1514.29 L2262.49 1514.29 L2262.49 1544.91 L2270.13 1544.91 L2270.13 1548.85 L2250.23 1548.85 L2250.23 1544.91 Z" fill="#000000" fill-rule="evenodd" fill-opacity="1" /><path clip-path="url(#clip750)" d="M2276.82 1533.96 L2289.3 1533.96 L2289.3 1537.76 L2276.82 1537.76 L2276.82 1533.96 Z" fill="#000000" fill-rule="evenodd" fill-opacity="1" /><path clip-path="url(#clip750)" d="M2297.49 1544.91 L2305.13 1544.91 L2305.13 1518.55 L2296.82 1520.21 L2296.82 1515.95 L2305.09 1514.29 L2309.76 1514.29 L2309.76 1544.91 L2317.4 1544.91 L2317.4 1548.85 L2297.49 1548.85 L2297.49 1544.91 Z" fill="#000000" fill-rule="evenodd" fill-opacity="1" /><path clip-path="url(#clip750)" d="M2330.87 1544.91 L2347.19 1544.91 L2347.19 1548.85 L2325.25 1548.85 L2325.25 1544.91 Q2327.91 1542.16 2332.49 1537.53 Q2337.1 1532.88 2338.28 1531.53 Q2340.53 1529.01 2341.41 1527.27 Q2342.31 1525.51 2342.31 1523.82 Q2342.31 1521.07 2340.36 1519.33 Q2338.44 1517.6 2335.34 1517.6 Q2333.14 1517.6 2330.69 1518.36 Q2328.26 1519.13 2325.48 1520.68 L2325.48 1515.95 Q2328.3 1514.82 2330.76 1514.24 Q2333.21 1513.66 2335.25 1513.66 Q2340.62 1513.66 2343.81 1516.35 Q2347.01 1519.03 2347.01 1523.52 Q2347.01 1525.65 2346.2 1527.57 Q2345.41 1529.47 2343.3 1532.07 Q2342.73 1532.74 2339.62 1535.95 Q2336.52 1539.15 2330.87 1544.91 Z" fill="#000000" fill-rule="evenodd" fill-opacity="1" /><path clip-path="url(#clip750)" d="M2354.25 1533.96 L2366.73 1533.96 L2366.73 1537.76 L2354.25 1537.76 L2354.25 1533.96 Z" fill="#000000" fill-rule="evenodd" fill-opacity="1" /><path clip-path="url(#clip750)" d="M2384.11 1517.37 Q2380.5 1517.37 2378.67 1520.93 Q2376.87 1524.47 2376.87 1531.6 Q2376.87 1538.71 2378.67 1542.27 Q2380.5 1545.82 2384.11 1545.82 Q2387.75 1545.82 2389.55 1542.27 Q2391.38 1538.71 2391.38 1531.6 Q2391.38 1524.47 2389.55 1520.93 Q2387.75 1517.37 2384.11 1517.37 M2384.11 1513.66 Q2389.92 1513.66 2392.98 1518.27 Q2396.06 1522.85 2396.06 1531.6 Q2396.06 1540.33 2392.98 1544.94 Q2389.92 1549.52 2384.11 1549.52 Q2378.3 1549.52 2375.23 1544.94 Q2372.17 1540.33 2372.17 1531.6 Q2372.17 1522.85 2375.23 1518.27 Q2378.3 1513.66 2384.11 1513.66 Z" fill="#000000" fill-rule="evenodd" fill-opacity="1" /><path clip-path="url(#clip750)" d="M2414.85 1529.7 Q2411.71 1529.7 2409.85 1531.86 Q2408.03 1534.01 2408.03 1537.76 Q2408.03 1541.49 2409.85 1543.66 Q2411.71 1545.82 2414.85 1545.82 Q2418 1545.82 2419.83 1543.66 Q2421.68 1541.49 2421.68 1537.76 Q2421.68 1534.01 2419.83 1531.86 Q2418 1529.7 2414.85 1529.7 M2424.14 1515.05 L2424.14 1519.31 Q2422.38 1518.48 2420.57 1518.04 Q2418.79 1517.6 2417.03 1517.6 Q2412.4 1517.6 2409.95 1520.72 Q2407.52 1523.85 2407.17 1530.17 Q2408.54 1528.15 2410.6 1527.09 Q2412.66 1526 2415.13 1526 Q2420.34 1526 2423.35 1529.17 Q2426.38 1532.32 2426.38 1537.76 Q2426.38 1543.08 2423.23 1546.3 Q2420.09 1549.52 2414.85 1549.52 Q2408.86 1549.52 2405.69 1544.94 Q2402.52 1540.33 2402.52 1531.6 Q2402.52 1523.41 2406.41 1518.55 Q2410.29 1513.66 2416.85 1513.66 Q2418.6 1513.66 2420.39 1514.01 Q2422.19 1514.36 2424.14 1515.05 Z" fill="#000000" fill-rule="evenodd" fill-opacity="1" /><polyline clip-path="url(#clip752)" style="stroke:#000000; stroke-linecap:butt; stroke-linejoin:round; stroke-width:2; stroke-opacity:0.1; fill:none" points="
  201.019,1221.14 2352.76,1221.14 
  "/>
<polyline clip-path="url(#clip752)" style="stroke:#000000; stroke-linecap:butt; stroke-linejoin:round; stroke-width:2; stroke-opacity:0.1; fill:none" points="
  201.019,918.157 2352.76,918.157 
  "/>
<polyline clip-path="url(#clip752)" style="stroke:#000000; stroke-linecap:butt; stroke-linejoin:round; stroke-width:2; stroke-opacity:0.1; fill:none" points="
  201.019,615.171 2352.76,615.171 
  "/>
<polyline clip-path="url(#clip752)" style="stroke:#000000; stroke-linecap:butt; stroke-linejoin:round; stroke-width:2; stroke-opacity:0.1; fill:none" points="
  201.019,312.186 2352.76,312.186 
  "/>
<polyline clip-path="url(#clip750)" style="stroke:#000000; stroke-linecap:butt; stroke-linejoin:round; stroke-width:4; stroke-opacity:1; fill:none" points="
  201.019,1486.45 201.019,47.2441 
  "/>
<polyline clip-path="url(#clip750)" style="stroke:#000000; stroke-linecap:butt; stroke-linejoin:round; stroke-width:4; stroke-opacity:1; fill:none" points="
  201.019,1221.14 219.917,1221.14 
  "/>
<polyline clip-path="url(#clip750)" style="stroke:#000000; stroke-linecap:butt; stroke-linejoin:round; stroke-width:4; stroke-opacity:1; fill:none" points="
  201.019,918.157 219.917,918.157 
  "/>
<polyline clip-path="url(#clip750)" style="stroke:#000000; stroke-linecap:butt; stroke-linejoin:round; stroke-width:4; stroke-opacity:1; fill:none" points="
  201.019,615.171 219.917,615.171 
  "/>
<polyline clip-path="url(#clip750)" style="stroke:#000000; stroke-linecap:butt; stroke-linejoin:round; stroke-width:4; stroke-opacity:1; fill:none" points="
  201.019,312.186 219.917,312.186 
  "/>
<path clip-path="url(#clip750)" d="M56.6171 1234.49 L72.9365 1234.49 L72.9365 1238.42 L50.9921 1238.42 L50.9921 1234.49 Q53.6541 1231.73 58.2375 1227.1 Q62.8439 1222.45 64.0245 1221.11 Q66.2698 1218.58 67.1494 1216.85 Q68.0522 1215.09 68.0522 1213.4 Q68.0522 1210.64 66.1078 1208.91 Q64.1865 1207.17 61.0847 1207.17 Q58.8856 1207.17 56.4319 1207.94 Q54.0014 1208.7 51.2236 1210.25 L51.2236 1205.53 Q54.0477 1204.39 56.5014 1203.82 Q58.955 1203.24 60.9921 1203.24 Q66.3624 1203.24 69.5568 1205.92 Q72.7513 1208.61 72.7513 1213.1 Q72.7513 1215.23 71.9411 1217.15 Q71.1541 1219.05 69.0476 1221.64 Q68.4689 1222.31 65.367 1225.53 Q62.2652 1228.72 56.6171 1234.49 Z" fill="#000000" fill-rule="evenodd" fill-opacity="1" /><path clip-path="url(#clip750)" d="M92.7512 1222.01 Q89.4178 1222.01 87.4966 1223.79 Q85.5984 1225.58 85.5984 1228.7 Q85.5984 1231.83 87.4966 1233.61 Q89.4178 1235.39 92.7512 1235.39 Q96.0845 1235.39 98.0058 1233.61 Q99.927 1231.8 99.927 1228.7 Q99.927 1225.58 98.0058 1223.79 Q96.1076 1222.01 92.7512 1222.01 M88.0753 1220.02 Q85.066 1219.28 83.3762 1217.22 Q81.7096 1215.16 81.7096 1212.2 Q81.7096 1208.05 84.6494 1205.64 Q87.6123 1203.24 92.7512 1203.24 Q97.9132 1203.24 100.853 1205.64 Q103.793 1208.05 103.793 1212.2 Q103.793 1215.16 102.103 1217.22 Q100.436 1219.28 97.4502 1220.02 Q100.83 1220.81 102.705 1223.1 Q104.603 1225.39 104.603 1228.7 Q104.603 1233.72 101.524 1236.41 Q98.4687 1239.09 92.7512 1239.09 Q87.0336 1239.09 83.9549 1236.41 Q80.8994 1233.72 80.8994 1228.7 Q80.8994 1225.39 82.7975 1223.1 Q84.6956 1220.81 88.0753 1220.02 M86.3623 1212.64 Q86.3623 1215.32 88.029 1216.83 Q89.7188 1218.33 92.7512 1218.33 Q95.7604 1218.33 97.4502 1216.83 Q99.1632 1215.32 99.1632 1212.64 Q99.1632 1209.95 97.4502 1208.45 Q95.7604 1206.94 92.7512 1206.94 Q89.7188 1206.94 88.029 1208.45 Q86.3623 1209.95 86.3623 1212.64 Z" fill="#000000" fill-rule="evenodd" fill-opacity="1" /><path clip-path="url(#clip750)" d="M112.959 1203.86 L131.316 1203.86 L131.316 1207.8 L117.242 1207.8 L117.242 1216.27 Q118.26 1215.92 119.279 1215.76 Q120.297 1215.58 121.316 1215.58 Q127.103 1215.58 130.482 1218.75 Q133.862 1221.92 133.862 1227.33 Q133.862 1232.91 130.39 1236.02 Q126.918 1239.09 120.598 1239.09 Q118.422 1239.09 116.154 1238.72 Q113.908 1238.35 111.501 1237.61 L111.501 1232.91 Q113.584 1234.05 115.807 1234.6 Q118.029 1235.16 120.506 1235.16 Q124.51 1235.16 126.848 1233.05 Q129.186 1230.95 129.186 1227.33 Q129.186 1223.72 126.848 1221.62 Q124.51 1219.51 120.506 1219.51 Q118.631 1219.51 116.756 1219.93 Q114.904 1220.34 112.959 1221.22 L112.959 1203.86 Z" fill="#000000" fill-rule="evenodd" fill-opacity="1" /><path clip-path="url(#clip750)" d="M153.075 1206.94 Q149.464 1206.94 147.635 1210.51 Q145.83 1214.05 145.83 1221.18 Q145.83 1228.28 147.635 1231.85 Q149.464 1235.39 153.075 1235.39 Q156.709 1235.39 158.515 1231.85 Q160.343 1228.28 160.343 1221.18 Q160.343 1214.05 158.515 1210.51 Q156.709 1206.94 153.075 1206.94 M153.075 1203.24 Q158.885 1203.24 161.941 1207.84 Q165.019 1212.43 165.019 1221.18 Q165.019 1229.9 161.941 1234.51 Q158.885 1239.09 153.075 1239.09 Q147.265 1239.09 144.186 1234.51 Q141.131 1229.9 141.131 1221.18 Q141.131 1212.43 144.186 1207.84 Q147.265 1203.24 153.075 1203.24 Z" fill="#000000" fill-rule="evenodd" fill-opacity="1" /><path clip-path="url(#clip750)" d="M56.6171 931.502 L72.9365 931.502 L72.9365 935.437 L50.9921 935.437 L50.9921 931.502 Q53.6541 928.747 58.2375 924.117 Q62.8439 919.465 64.0245 918.122 Q66.2698 915.599 67.1494 913.863 Q68.0522 912.104 68.0522 910.414 Q68.0522 907.659 66.1078 905.923 Q64.1865 904.187 61.0847 904.187 Q58.8856 904.187 56.4319 904.951 Q54.0014 905.715 51.2236 907.266 L51.2236 902.543 Q54.0477 901.409 56.5014 900.831 Q58.955 900.252 60.9921 900.252 Q66.3624 900.252 69.5568 902.937 Q72.7513 905.622 72.7513 910.113 Q72.7513 912.242 71.9411 914.164 Q71.1541 916.062 69.0476 918.654 Q68.4689 919.326 65.367 922.543 Q62.2652 925.738 56.6171 931.502 Z" fill="#000000" fill-rule="evenodd" fill-opacity="1" /><path clip-path="url(#clip750)" d="M82.8901 934.719 L82.8901 930.46 Q84.6494 931.293 86.4549 931.733 Q88.2604 932.173 89.9965 932.173 Q94.6262 932.173 97.0567 929.071 Q99.5104 925.946 99.8576 919.604 Q98.515 921.594 96.4548 922.659 Q94.3947 923.724 91.8947 923.724 Q86.7095 923.724 83.6771 920.599 Q80.6679 917.451 80.6679 912.011 Q80.6679 906.687 83.816 903.469 Q86.9642 900.252 92.1956 900.252 Q98.1909 900.252 101.339 904.858 Q104.51 909.442 104.51 918.192 Q104.51 926.363 100.621 931.247 Q96.7558 936.108 90.2049 936.108 Q88.4456 936.108 86.6401 935.761 Q84.8345 935.414 82.8901 934.719 M92.1956 920.067 Q95.3437 920.067 97.1724 917.914 Q99.0243 915.761 99.0243 912.011 Q99.0243 908.284 97.1724 906.131 Q95.3437 903.955 92.1956 903.955 Q89.0475 903.955 87.1956 906.131 Q85.3669 908.284 85.3669 912.011 Q85.3669 915.761 87.1956 917.914 Q89.0475 920.067 92.1956 920.067 Z" fill="#000000" fill-rule="evenodd" fill-opacity="1" /><path clip-path="url(#clip750)" d="M122.913 903.955 Q119.302 903.955 117.473 907.52 Q115.668 911.062 115.668 918.192 Q115.668 925.298 117.473 928.863 Q119.302 932.404 122.913 932.404 Q126.547 932.404 128.353 928.863 Q130.182 925.298 130.182 918.192 Q130.182 911.062 128.353 907.52 Q126.547 903.955 122.913 903.955 M122.913 900.252 Q128.723 900.252 131.779 904.858 Q134.857 909.442 134.857 918.192 Q134.857 926.918 131.779 931.525 Q128.723 936.108 122.913 936.108 Q117.103 936.108 114.024 931.525 Q110.969 926.918 110.969 918.192 Q110.969 909.442 114.024 904.858 Q117.103 900.252 122.913 900.252 Z" fill="#000000" fill-rule="evenodd" fill-opacity="1" /><path clip-path="url(#clip750)" d="M153.075 903.955 Q149.464 903.955 147.635 907.52 Q145.83 911.062 145.83 918.192 Q145.83 925.298 147.635 928.863 Q149.464 932.404 153.075 932.404 Q156.709 932.404 158.515 928.863 Q160.343 925.298 160.343 918.192 Q160.343 911.062 158.515 907.52 Q156.709 903.955 153.075 903.955 M153.075 900.252 Q158.885 900.252 161.941 904.858 Q165.019 909.442 165.019 918.192 Q165.019 926.918 161.941 931.525 Q158.885 936.108 153.075 936.108 Q147.265 936.108 144.186 931.525 Q141.131 926.918 141.131 918.192 Q141.131 909.442 144.186 904.858 Q147.265 900.252 153.075 900.252 Z" fill="#000000" fill-rule="evenodd" fill-opacity="1" /><path clip-path="url(#clip750)" d="M56.6171 628.516 L72.9365 628.516 L72.9365 632.451 L50.9921 632.451 L50.9921 628.516 Q53.6541 625.761 58.2375 621.132 Q62.8439 616.479 64.0245 615.136 Q66.2698 612.613 67.1494 610.877 Q68.0522 609.118 68.0522 607.428 Q68.0522 604.674 66.1078 602.937 Q64.1865 601.201 61.0847 601.201 Q58.8856 601.201 56.4319 601.965 Q54.0014 602.729 51.2236 604.28 L51.2236 599.558 Q54.0477 598.424 56.5014 597.845 Q58.955 597.266 60.9921 597.266 Q66.3624 597.266 69.5568 599.951 Q72.7513 602.637 72.7513 607.127 Q72.7513 609.257 71.9411 611.178 Q71.1541 613.076 69.0476 615.669 Q68.4689 616.34 65.367 619.558 Q62.2652 622.752 56.6171 628.516 Z" fill="#000000" fill-rule="evenodd" fill-opacity="1" /><path clip-path="url(#clip750)" d="M82.8901 631.734 L82.8901 627.474 Q84.6494 628.308 86.4549 628.748 Q88.2604 629.187 89.9965 629.187 Q94.6262 629.187 97.0567 626.086 Q99.5104 622.961 99.8576 616.618 Q98.515 618.609 96.4548 619.674 Q94.3947 620.738 91.8947 620.738 Q86.7095 620.738 83.6771 617.613 Q80.6679 614.465 80.6679 609.025 Q80.6679 603.701 83.816 600.484 Q86.9642 597.266 92.1956 597.266 Q98.1909 597.266 101.339 601.873 Q104.51 606.456 104.51 615.206 Q104.51 623.377 100.621 628.261 Q96.7558 633.123 90.2049 633.123 Q88.4456 633.123 86.6401 632.775 Q84.8345 632.428 82.8901 631.734 M92.1956 617.081 Q95.3437 617.081 97.1724 614.928 Q99.0243 612.775 99.0243 609.025 Q99.0243 605.299 97.1724 603.146 Q95.3437 600.97 92.1956 600.97 Q89.0475 600.97 87.1956 603.146 Q85.3669 605.299 85.3669 609.025 Q85.3669 612.775 87.1956 614.928 Q89.0475 617.081 92.1956 617.081 Z" fill="#000000" fill-rule="evenodd" fill-opacity="1" /><path clip-path="url(#clip750)" d="M112.959 597.891 L131.316 597.891 L131.316 601.826 L117.242 601.826 L117.242 610.299 Q118.26 609.951 119.279 609.789 Q120.297 609.604 121.316 609.604 Q127.103 609.604 130.482 612.775 Q133.862 615.947 133.862 621.363 Q133.862 626.942 130.39 630.044 Q126.918 633.123 120.598 633.123 Q118.422 633.123 116.154 632.752 Q113.908 632.382 111.501 631.641 L111.501 626.942 Q113.584 628.076 115.807 628.632 Q118.029 629.187 120.506 629.187 Q124.51 629.187 126.848 627.081 Q129.186 624.974 129.186 621.363 Q129.186 617.752 126.848 615.646 Q124.51 613.539 120.506 613.539 Q118.631 613.539 116.756 613.956 Q114.904 614.373 112.959 615.252 L112.959 597.891 Z" fill="#000000" fill-rule="evenodd" fill-opacity="1" /><path clip-path="url(#clip750)" d="M153.075 600.97 Q149.464 600.97 147.635 604.535 Q145.83 608.076 145.83 615.206 Q145.83 622.312 147.635 625.877 Q149.464 629.419 153.075 629.419 Q156.709 629.419 158.515 625.877 Q160.343 622.312 160.343 615.206 Q160.343 608.076 158.515 604.535 Q156.709 600.97 153.075 600.97 M153.075 597.266 Q158.885 597.266 161.941 601.873 Q165.019 606.456 165.019 615.206 Q165.019 623.933 161.941 628.539 Q158.885 633.123 153.075 633.123 Q147.265 633.123 144.186 628.539 Q141.131 623.933 141.131 615.206 Q141.131 606.456 144.186 601.873 Q147.265 597.266 153.075 597.266 Z" fill="#000000" fill-rule="evenodd" fill-opacity="1" /><path clip-path="url(#clip750)" d="M66.7559 310.831 Q70.1124 311.549 71.9874 313.818 Q73.8855 316.086 73.8855 319.419 Q73.8855 324.535 70.367 327.336 Q66.8485 330.137 60.3671 330.137 Q58.1912 330.137 55.8764 329.697 Q53.5847 329.28 51.131 328.424 L51.131 323.91 Q53.0754 325.044 55.3903 325.623 Q57.7051 326.202 60.2282 326.202 Q64.6263 326.202 66.918 324.466 Q69.2328 322.73 69.2328 319.419 Q69.2328 316.364 67.08 314.651 Q64.9504 312.915 61.131 312.915 L57.1032 312.915 L57.1032 309.072 L61.3161 309.072 Q64.7652 309.072 66.5939 307.706 Q68.4226 306.318 68.4226 303.725 Q68.4226 301.063 66.5245 299.651 Q64.6495 298.216 61.131 298.216 Q59.2097 298.216 57.0106 298.632 Q54.8115 299.049 52.1727 299.929 L52.1727 295.762 Q54.8347 295.021 57.1495 294.651 Q59.4875 294.281 61.5476 294.281 Q66.8717 294.281 69.9735 296.711 Q73.0753 299.119 73.0753 303.239 Q73.0753 306.109 71.4318 308.1 Q69.7883 310.068 66.7559 310.831 Z" fill="#000000" fill-rule="evenodd" fill-opacity="1" /><path clip-path="url(#clip750)" d="M92.7512 297.984 Q89.1401 297.984 87.3114 301.549 Q85.5058 305.091 85.5058 312.22 Q85.5058 319.327 87.3114 322.892 Q89.1401 326.433 92.7512 326.433 Q96.3854 326.433 98.1909 322.892 Q100.02 319.327 100.02 312.22 Q100.02 305.091 98.1909 301.549 Q96.3854 297.984 92.7512 297.984 M92.7512 294.281 Q98.5613 294.281 101.617 298.887 Q104.696 303.47 104.696 312.22 Q104.696 320.947 101.617 325.554 Q98.5613 330.137 92.7512 330.137 Q86.941 330.137 83.8623 325.554 Q80.8068 320.947 80.8068 312.22 Q80.8068 303.47 83.8623 298.887 Q86.941 294.281 92.7512 294.281 Z" fill="#000000" fill-rule="evenodd" fill-opacity="1" /><path clip-path="url(#clip750)" d="M122.913 297.984 Q119.302 297.984 117.473 301.549 Q115.668 305.091 115.668 312.22 Q115.668 319.327 117.473 322.892 Q119.302 326.433 122.913 326.433 Q126.547 326.433 128.353 322.892 Q130.182 319.327 130.182 312.22 Q130.182 305.091 128.353 301.549 Q126.547 297.984 122.913 297.984 M122.913 294.281 Q128.723 294.281 131.779 298.887 Q134.857 303.47 134.857 312.22 Q134.857 320.947 131.779 325.554 Q128.723 330.137 122.913 330.137 Q117.103 330.137 114.024 325.554 Q110.969 320.947 110.969 312.22 Q110.969 303.47 114.024 298.887 Q117.103 294.281 122.913 294.281 Z" fill="#000000" fill-rule="evenodd" fill-opacity="1" /><path clip-path="url(#clip750)" d="M153.075 297.984 Q149.464 297.984 147.635 301.549 Q145.83 305.091 145.83 312.22 Q145.83 319.327 147.635 322.892 Q149.464 326.433 153.075 326.433 Q156.709 326.433 158.515 322.892 Q160.343 319.327 160.343 312.22 Q160.343 305.091 158.515 301.549 Q156.709 297.984 153.075 297.984 M153.075 294.281 Q158.885 294.281 161.941 298.887 Q165.019 303.47 165.019 312.22 Q165.019 320.947 161.941 325.554 Q158.885 330.137 153.075 330.137 Q147.265 330.137 144.186 325.554 Q141.131 320.947 141.131 312.22 Q141.131 303.47 144.186 298.887 Q147.265 294.281 153.075 294.281 Z" fill="#000000" fill-rule="evenodd" fill-opacity="1" /><polyline clip-path="url(#clip752)" style="stroke:#009af9; stroke-linecap:butt; stroke-linejoin:round; stroke-width:4; stroke-opacity:1; fill:none" points="
  261.917,312.186 334.415,342.969 406.913,553.392 479.411,662.801 551.909,574.996 769.403,312.186 841.9,412.717 914.398,405.626 986.896,415.686 1059.39,190.991 
  1276.89,295.007 1349.39,662.073 1421.88,754.545 1566.88,916.278 1784.37,1003.17 1856.87,863.59 1929.37,1013.6 2001.87,1303.07 2074.36,979.3 2291.86,1090.98 
  
  "/>
<polyline clip-path="url(#clip752)" style="stroke:#e26f46; stroke-linecap:butt; stroke-linejoin:round; stroke-width:4; stroke-opacity:1; fill:none" points="
  261.917,186.811 334.415,266.313 406.913,469.738 479.411,493.705 551.909,329.214 769.403,254.376 841.9,332.486 914.398,357.512 986.896,117.063 1059.39,87.9763 
  1276.89,221.957 1349.39,591.66 1421.88,675.768 1566.88,882.162 1784.37,692.493 1856.87,720.792 1929.37,736.469 2001.87,957.545 2074.36,892.342 2291.86,996.751 
  
  "/>
<polyline clip-path="url(#clip752)" style="stroke:#3da44d; stroke-linecap:butt; stroke-linejoin:round; stroke-width:4; stroke-opacity:1; fill:none" points="
  261.917,418.837 334.415,614.324 406.913,878.769 479.411,712.794 551.909,741.94 769.403,475.495 841.9,512.156 914.398,486.342 986.896,433.562 1059.39,325.82 
  1276.89,675.101 1349.39,931.549 1421.88,894.039 1566.88,1222.9 1784.37,1003.17 1856.87,1273.74 1929.37,1342.34 2001.87,1405.12 2074.36,1384.75 2291.86,1445.72 
  
  "/>
<polyline clip-path="url(#clip752)" style="stroke:#c271d2; stroke-linecap:butt; stroke-linejoin:round; stroke-width:4; stroke-opacity:1; fill:none" points="
  261.917,390.78 334.415,403.263 406.913,721.095 479.411,706.31 551.909,355.15 769.403,386.356 841.9,424.169 914.398,425.866 986.896,226.259 1059.39,317.942 
  1276.89,666.254 1349.39,705.219 1421.88,710.005 1566.88,1184.06 1784.37,783.146 1856.87,1226.96 1929.37,1328.04 2001.87,1066.44 2074.36,1218.66 2291.86,1064.01 
  
  "/>
<path clip-path="url(#clip750)" d="
M1917.99 354.418 L2281.03 354.418 L2281.03 95.2176 L1917.99 95.2176  Z
  " fill="#ffffff" fill-rule="evenodd" fill-opacity="1"/>
<polyline clip-path="url(#clip750)" style="stroke:#000000; stroke-linecap:butt; stroke-linejoin:round; stroke-width:4; stroke-opacity:1; fill:none" points="
  1917.99,354.418 2281.03,354.418 2281.03,95.2176 1917.99,95.2176 1917.99,354.418 
  "/>
<polyline clip-path="url(#clip750)" style="stroke:#009af9; stroke-linecap:butt; stroke-linejoin:round; stroke-width:4; stroke-opacity:1; fill:none" points="
  1941.9,147.058 2085.35,147.058 
  "/>
<path clip-path="url(#clip750)" d="M2125.28 132.949 Q2120.18 132.949 2117.17 136.745 Q2114.19 140.541 2114.19 147.092 Q2114.19 153.62 2117.17 157.416 Q2120.18 161.213 2125.28 161.213 Q2130.37 161.213 2133.33 157.416 Q2136.32 153.62 2136.32 147.092 Q2136.32 140.541 2133.33 136.745 Q2130.37 132.949 2125.28 132.949 M2125.28 129.153 Q2132.54 129.153 2136.9 134.037 Q2141.25 138.898 2141.25 147.092 Q2141.25 155.264 2136.9 160.148 Q2132.54 165.009 2125.28 165.009 Q2117.98 165.009 2113.61 160.148 Q2109.26 155.287 2109.26 147.092 Q2109.26 138.898 2113.61 134.037 Q2117.98 129.153 2125.28 129.153 Z" fill="#000000" fill-rule="evenodd" fill-opacity="1" /><path clip-path="url(#clip750)" d="M2152.5 160.449 L2152.5 174.199 L2148.22 174.199 L2148.22 138.412 L2152.5 138.412 L2152.5 142.347 Q2153.84 140.032 2155.88 138.921 Q2157.94 137.787 2160.78 137.787 Q2165.51 137.787 2168.45 141.537 Q2171.41 145.287 2171.41 151.398 Q2171.41 157.509 2168.45 161.259 Q2165.51 165.009 2160.78 165.009 Q2157.94 165.009 2155.88 163.898 Q2153.84 162.763 2152.5 160.449 M2166.99 151.398 Q2166.99 146.699 2165.04 144.037 Q2163.12 141.352 2159.74 141.352 Q2156.36 141.352 2154.42 144.037 Q2152.5 146.699 2152.5 151.398 Q2152.5 156.097 2154.42 158.782 Q2156.36 161.444 2159.74 161.444 Q2163.12 161.444 2165.04 158.782 Q2166.99 156.097 2166.99 151.398 Z" fill="#000000" fill-rule="evenodd" fill-opacity="1" /><path clip-path="url(#clip750)" d="M2200.65 150.31 L2200.65 152.393 L2181.06 152.393 Q2181.34 156.791 2183.7 159.106 Q2186.09 161.398 2190.32 161.398 Q2192.78 161.398 2195.07 160.796 Q2197.38 160.194 2199.65 158.99 L2199.65 163.018 Q2197.36 163.99 2194.95 164.5 Q2192.54 165.009 2190.07 165.009 Q2183.86 165.009 2180.23 161.398 Q2176.62 157.787 2176.62 151.629 Q2176.62 145.264 2180.04 141.537 Q2183.49 137.787 2189.33 137.787 Q2194.56 137.787 2197.59 141.166 Q2200.65 144.523 2200.65 150.31 M2196.39 149.06 Q2196.34 145.565 2194.42 143.481 Q2192.52 141.398 2189.37 141.398 Q2185.81 141.398 2183.66 143.412 Q2181.53 145.426 2181.2 149.083 L2196.39 149.06 Z" fill="#000000" fill-rule="evenodd" fill-opacity="1" /><path clip-path="url(#clip750)" d="M2229.19 148.689 L2229.19 164.338 L2224.93 164.338 L2224.93 148.828 Q2224.93 145.148 2223.49 143.319 Q2222.06 141.49 2219.19 141.49 Q2215.74 141.49 2213.75 143.69 Q2211.76 145.889 2211.76 149.685 L2211.76 164.338 L2207.47 164.338 L2207.47 138.412 L2211.76 138.412 L2211.76 142.44 Q2213.28 140.102 2215.34 138.944 Q2217.43 137.787 2220.14 137.787 Q2224.6 137.787 2226.9 140.565 Q2229.19 143.319 2229.19 148.689 Z" fill="#000000" fill-rule="evenodd" fill-opacity="1" /><polyline clip-path="url(#clip750)" style="stroke:#e26f46; stroke-linecap:butt; stroke-linejoin:round; stroke-width:4; stroke-opacity:1; fill:none" points="
  1941.9,198.898 2085.35,198.898 
  "/>
<path clip-path="url(#clip750)" d="M2109.26 181.618 L2113.93 181.618 L2113.93 195.784 L2130.92 195.784 L2130.92 181.618 L2135.6 181.618 L2135.6 216.178 L2130.92 216.178 L2130.92 199.719 L2113.93 199.719 L2113.93 216.178 L2109.26 216.178 L2109.26 181.618 Z" fill="#000000" fill-rule="evenodd" fill-opacity="1" /><path clip-path="url(#clip750)" d="M2144.72 190.252 L2148.98 190.252 L2148.98 216.178 L2144.72 216.178 L2144.72 190.252 M2144.72 180.159 L2148.98 180.159 L2148.98 185.553 L2144.72 185.553 L2144.72 180.159 Z" fill="#000000" fill-rule="evenodd" fill-opacity="1" /><path clip-path="url(#clip750)" d="M2174.95 202.914 Q2174.95 198.284 2173.03 195.738 Q2171.13 193.192 2167.68 193.192 Q2164.26 193.192 2162.34 195.738 Q2160.44 198.284 2160.44 202.914 Q2160.44 207.52 2162.34 210.066 Q2164.26 212.613 2167.68 212.613 Q2171.13 212.613 2173.03 210.066 Q2174.95 207.52 2174.95 202.914 M2179.21 212.96 Q2179.21 219.58 2176.27 222.798 Q2173.33 226.039 2167.27 226.039 Q2165.02 226.039 2163.03 225.691 Q2161.04 225.367 2159.16 224.673 L2159.16 220.529 Q2161.04 221.548 2162.87 222.034 Q2164.7 222.52 2166.59 222.52 Q2170.78 222.52 2172.87 220.321 Q2174.95 218.145 2174.95 213.724 L2174.95 211.617 Q2173.63 213.909 2171.57 215.043 Q2169.51 216.178 2166.64 216.178 Q2161.87 216.178 2158.96 212.543 Q2156.04 208.909 2156.04 202.914 Q2156.04 196.895 2158.96 193.261 Q2161.87 189.627 2166.64 189.627 Q2169.51 189.627 2171.57 190.761 Q2173.63 191.895 2174.95 194.187 L2174.95 190.252 L2179.21 190.252 L2179.21 212.96 Z" fill="#000000" fill-rule="evenodd" fill-opacity="1" /><path clip-path="url(#clip750)" d="M2209.53 200.529 L2209.53 216.178 L2205.28 216.178 L2205.28 200.668 Q2205.28 196.988 2203.84 195.159 Q2202.4 193.33 2199.53 193.33 Q2196.09 193.33 2194.09 195.53 Q2192.1 197.729 2192.1 201.525 L2192.1 216.178 L2187.82 216.178 L2187.82 180.159 L2192.1 180.159 L2192.1 194.28 Q2193.63 191.942 2195.69 190.784 Q2197.78 189.627 2200.48 189.627 Q2204.95 189.627 2207.24 192.405 Q2209.53 195.159 2209.53 200.529 Z" fill="#000000" fill-rule="evenodd" fill-opacity="1" /><polyline clip-path="url(#clip750)" style="stroke:#3da44d; stroke-linecap:butt; stroke-linejoin:round; stroke-width:4; stroke-opacity:1; fill:none" points="
  1941.9,250.738 2085.35,250.738 
  "/>
<path clip-path="url(#clip750)" d="M2109.26 233.458 L2113.93 233.458 L2113.93 264.082 L2130.76 264.082 L2130.76 268.018 L2109.26 268.018 L2109.26 233.458 Z" fill="#000000" fill-rule="evenodd" fill-opacity="1" /><path clip-path="url(#clip750)" d="M2144.7 245.078 Q2141.27 245.078 2139.28 247.763 Q2137.29 250.425 2137.29 255.078 Q2137.29 259.731 2139.26 262.416 Q2141.25 265.078 2144.7 265.078 Q2148.1 265.078 2150.09 262.393 Q2152.08 259.707 2152.08 255.078 Q2152.08 250.471 2150.09 247.786 Q2148.1 245.078 2144.7 245.078 M2144.7 241.467 Q2150.25 241.467 2153.42 245.078 Q2156.6 248.689 2156.6 255.078 Q2156.6 261.444 2153.42 265.078 Q2150.25 268.689 2144.7 268.689 Q2139.12 268.689 2135.95 265.078 Q2132.8 261.444 2132.8 255.078 Q2132.8 248.689 2135.95 245.078 Q2139.12 241.467 2144.7 241.467 Z" fill="#000000" fill-rule="evenodd" fill-opacity="1" /><path clip-path="url(#clip750)" d="M2161.18 242.092 L2165.44 242.092 L2170.76 262.323 L2176.06 242.092 L2181.09 242.092 L2186.41 262.323 L2191.71 242.092 L2195.97 242.092 L2189.19 268.018 L2184.16 268.018 L2178.59 246.768 L2172.98 268.018 L2167.96 268.018 L2161.18 242.092 Z" fill="#000000" fill-rule="evenodd" fill-opacity="1" /><polyline clip-path="url(#clip750)" style="stroke:#c271d2; stroke-linecap:butt; stroke-linejoin:round; stroke-width:4; stroke-opacity:1; fill:none" points="
  1941.9,302.578 2085.35,302.578 
  "/>
<path clip-path="url(#clip750)" d="M2137.13 287.96 L2137.13 292.89 Q2134.77 290.691 2132.08 289.603 Q2129.42 288.515 2126.41 288.515 Q2120.48 288.515 2117.34 292.149 Q2114.19 295.76 2114.19 302.612 Q2114.19 309.441 2117.34 313.075 Q2120.48 316.686 2126.41 316.686 Q2129.42 316.686 2132.08 315.598 Q2134.77 314.51 2137.13 312.311 L2137.13 317.196 Q2134.67 318.862 2131.92 319.696 Q2129.19 320.529 2126.13 320.529 Q2118.29 320.529 2113.77 315.737 Q2109.26 310.922 2109.26 302.612 Q2109.26 294.279 2113.77 289.487 Q2118.29 284.673 2126.13 284.673 Q2129.23 284.673 2131.97 285.506 Q2134.72 286.316 2137.13 287.96 Z" fill="#000000" fill-rule="evenodd" fill-opacity="1" /><path clip-path="url(#clip750)" d="M2144.16 283.839 L2148.42 283.839 L2148.42 319.858 L2144.16 319.858 L2144.16 283.839 Z" fill="#000000" fill-rule="evenodd" fill-opacity="1" /><path clip-path="url(#clip750)" d="M2167.38 296.918 Q2163.96 296.918 2161.97 299.603 Q2159.97 302.265 2159.97 306.918 Q2159.97 311.571 2161.94 314.256 Q2163.93 316.918 2167.38 316.918 Q2170.78 316.918 2172.78 314.233 Q2174.77 311.547 2174.77 306.918 Q2174.77 302.311 2172.78 299.626 Q2170.78 296.918 2167.38 296.918 M2167.38 293.307 Q2172.94 293.307 2176.11 296.918 Q2179.28 300.529 2179.28 306.918 Q2179.28 313.284 2176.11 316.918 Q2172.94 320.529 2167.38 320.529 Q2161.8 320.529 2158.63 316.918 Q2155.48 313.284 2155.48 306.918 Q2155.48 300.529 2158.63 296.918 Q2161.8 293.307 2167.38 293.307 Z" fill="#000000" fill-rule="evenodd" fill-opacity="1" /><path clip-path="url(#clip750)" d="M2202.87 294.696 L2202.87 298.723 Q2201.06 297.797 2199.12 297.335 Q2197.17 296.872 2195.09 296.872 Q2191.92 296.872 2190.32 297.844 Q2188.75 298.816 2188.75 300.76 Q2188.75 302.242 2189.88 303.098 Q2191.02 303.932 2194.44 304.696 L2195.9 305.02 Q2200.44 305.992 2202.34 307.774 Q2204.26 309.534 2204.26 312.705 Q2204.26 316.316 2201.39 318.422 Q2198.54 320.529 2193.54 320.529 Q2191.46 320.529 2189.19 320.112 Q2186.94 319.719 2184.44 318.908 L2184.44 314.51 Q2186.8 315.737 2189.09 316.362 Q2191.39 316.964 2193.63 316.964 Q2196.64 316.964 2198.26 315.946 Q2199.88 314.904 2199.88 313.029 Q2199.88 311.293 2198.7 310.367 Q2197.54 309.441 2193.59 308.584 L2192.1 308.237 Q2188.15 307.404 2186.39 305.691 Q2184.63 303.955 2184.63 300.946 Q2184.63 297.288 2187.22 295.298 Q2189.81 293.307 2194.58 293.307 Q2196.94 293.307 2199.03 293.654 Q2201.11 294.001 2202.87 294.696 Z" fill="#000000" fill-rule="evenodd" fill-opacity="1" /><path clip-path="url(#clip750)" d="M2233.21 305.83 L2233.21 307.913 L2213.63 307.913 Q2213.91 312.311 2216.27 314.626 Q2218.65 316.918 2222.89 316.918 Q2225.34 316.918 2227.64 316.316 Q2229.95 315.714 2232.22 314.51 L2232.22 318.538 Q2229.93 319.51 2227.52 320.02 Q2225.11 320.529 2222.64 320.529 Q2216.43 320.529 2212.8 316.918 Q2209.19 313.307 2209.19 307.149 Q2209.19 300.784 2212.61 297.057 Q2216.06 293.307 2221.9 293.307 Q2227.13 293.307 2230.16 296.686 Q2233.21 300.043 2233.21 305.83 M2228.96 304.58 Q2228.91 301.085 2226.99 299.001 Q2225.09 296.918 2221.94 296.918 Q2218.38 296.918 2216.22 298.932 Q2214.09 300.946 2213.77 304.603 L2228.96 304.58 Z" fill="#000000" fill-rule="evenodd" fill-opacity="1" /></svg>
