<?xml version="1.0" encoding="utf-8"?>
<svg xmlns="http://www.w3.org/2000/svg" xmlns:xlink="http://www.w3.org/1999/xlink" width="600" height="400" viewBox="0 0 2400 1600">
<defs>
  <clipPath id="clip840">
    <rect x="0" y="0" width="2400" height="1600"/>
  </clipPath>
</defs>
<path clip-path="url(#clip840)" d="
M0 1600 L2400 1600 L2400 0 L0 0  Z
  " fill="#ffffff" fill-rule="evenodd" fill-opacity="1"/>
<defs>
  <clipPath id="clip841">
    <rect x="480" y="0" width="1681" height="1600"/>
  </clipPath>
</defs>
<path clip-path="url(#clip840)" d="
M201.019 1348.2 L2352.76 1348.2 L2352.76 47.2441 L201.019 47.2441  Z
  " fill="#ffffff" fill-rule="evenodd" fill-opacity="1"/>
<defs>
  <clipPath id="clip842">
    <rect x="201" y="47" width="2153" height="1302"/>
  </clipPath>
</defs>
<polyline clip-path="url(#clip842)" style="stroke:#000000; stroke-linecap:butt; stroke-linejoin:round; stroke-width:2; stroke-opacity:0.1; fill:none" points="
  307.821,1348.2 307.821,47.2441 
  "/>
<polyline clip-path="url(#clip842)" style="stroke:#000000; stroke-linecap:butt; stroke-linejoin:round; stroke-width:2; stroke-opacity:0.1; fill:none" points="
  409.828,1348.2 409.828,47.2441 
  "/>
<polyline clip-path="url(#clip842)" style="stroke:#000000; stroke-linecap:butt; stroke-linejoin:round; stroke-width:2; stroke-opacity:0.1; fill:none" points="
  511.835,1348.2 511.835,47.2441 
  "/>
<polyline clip-path="url(#clip842)" style="stroke:#000000; stroke-linecap:butt; stroke-linejoin:round; stroke-width:2; stroke-opacity:0.1; fill:none" points="
  613.842,1348.2 613.842,47.2441 
  "/>
<polyline clip-path="url(#clip842)" style="stroke:#000000; stroke-linecap:butt; stroke-linejoin:round; stroke-width:2; stroke-opacity:0.1; fill:none" points="
  715.849,1348.2 715.849,47.2441 
  "/>
<polyline clip-path="url(#clip842)" style="stroke:#000000; stroke-linecap:butt; stroke-linejoin:round; stroke-width:2; stroke-opacity:0.1; fill:none" points="
  817.856,1348.2 817.856,47.2441 
  "/>
<polyline clip-path="url(#clip842)" style="stroke:#000000; stroke-linecap:butt; stroke-linejoin:round; stroke-width:2; stroke-opacity:0.1; fill:none" points="
  919.863,1348.2 919.863,47.2441 
  "/>
<polyline clip-path="url(#clip842)" style="stroke:#000000; stroke-linecap:butt; stroke-linejoin:round; stroke-width:2; stroke-opacity:0.1; fill:none" points="
  1021.87,1348.2 1021.87,47.2441 
  "/>
<polyline clip-path="url(#clip842)" style="stroke:#000000; stroke-linecap:butt; stroke-linejoin:round; stroke-width:2; stroke-opacity:0.1; fill:none" points="
  1123.88,1348.2 1123.88,47.2441 
  "/>
<polyline clip-path="url(#clip842)" style="stroke:#000000; stroke-linecap:butt; stroke-linejoin:round; stroke-width:2; stroke-opacity:0.1; fill:none" points="
  1225.88,1348.2 1225.88,47.2441 
  "/>
<polyline clip-path="url(#clip842)" style="stroke:#000000; stroke-linecap:butt; stroke-linejoin:round; stroke-width:2; stroke-opacity:0.1; fill:none" points="
  1327.89,1348.2 1327.89,47.2441 
  "/>
<polyline clip-path="url(#clip842)" style="stroke:#000000; stroke-linecap:butt; stroke-linejoin:round; stroke-width:2; stroke-opacity:0.1; fill:none" points="
  1429.9,1348.2 1429.9,47.2441 
  "/>
<polyline clip-path="url(#clip842)" style="stroke:#000000; stroke-linecap:butt; stroke-linejoin:round; stroke-width:2; stroke-opacity:0.1; fill:none" points="
  1531.91,1348.2 1531.91,47.2441 
  "/>
<polyline clip-path="url(#clip842)" style="stroke:#000000; stroke-linecap:butt; stroke-linejoin:round; stroke-width:2; stroke-opacity:0.1; fill:none" points="
  1633.91,1348.2 1633.91,47.2441 
  "/>
<polyline clip-path="url(#clip842)" style="stroke:#000000; stroke-linecap:butt; stroke-linejoin:round; stroke-width:2; stroke-opacity:0.1; fill:none" points="
  1735.92,1348.2 1735.92,47.2441 
  "/>
<polyline clip-path="url(#clip842)" style="stroke:#000000; stroke-linecap:butt; stroke-linejoin:round; stroke-width:2; stroke-opacity:0.1; fill:none" points="
  1837.93,1348.2 1837.93,47.2441 
  "/>
<polyline clip-path="url(#clip842)" style="stroke:#000000; stroke-linecap:butt; stroke-linejoin:round; stroke-width:2; stroke-opacity:0.1; fill:none" points="
  1939.93,1348.2 1939.93,47.2441 
  "/>
<polyline clip-path="url(#clip842)" style="stroke:#000000; stroke-linecap:butt; stroke-linejoin:round; stroke-width:2; stroke-opacity:0.1; fill:none" points="
  2041.94,1348.2 2041.94,47.2441 
  "/>
<polyline clip-path="url(#clip842)" style="stroke:#000000; stroke-linecap:butt; stroke-linejoin:round; stroke-width:2; stroke-opacity:0.1; fill:none" points="
  2143.95,1348.2 2143.95,47.2441 
  "/>
<polyline clip-path="url(#clip842)" style="stroke:#000000; stroke-linecap:butt; stroke-linejoin:round; stroke-width:2; stroke-opacity:0.1; fill:none" points="
  2245.95,1348.2 2245.95,47.2441 
  "/>
<polyline clip-path="url(#clip840)" style="stroke:#000000; stroke-linecap:butt; stroke-linejoin:round; stroke-width:4; stroke-opacity:1; fill:none" points="
  201.019,1348.2 2352.76,1348.2 
  "/>
<polyline clip-path="url(#clip840)" style="stroke:#000000; stroke-linecap:butt; stroke-linejoin:round; stroke-width:4; stroke-opacity:1; fill:none" points="
  307.821,1348.2 307.821,1329.31 
  "/>
<polyline clip-path="url(#clip840)" style="stroke:#000000; stroke-linecap:butt; stroke-linejoin:round; stroke-width:4; stroke-opacity:1; fill:none" points="
  409.828,1348.2 409.828,1329.31 
  "/>
<polyline clip-path="url(#clip840)" style="stroke:#000000; stroke-linecap:butt; stroke-linejoin:round; stroke-width:4; stroke-opacity:1; fill:none" points="
  511.835,1348.2 511.835,1329.31 
  "/>
<polyline clip-path="url(#clip840)" style="stroke:#000000; stroke-linecap:butt; stroke-linejoin:round; stroke-width:4; stroke-opacity:1; fill:none" points="
  613.842,1348.2 613.842,1329.31 
  "/>
<polyline clip-path="url(#clip840)" style="stroke:#000000; stroke-linecap:butt; stroke-linejoin:round; stroke-width:4; stroke-opacity:1; fill:none" points="
  715.849,1348.2 715.849,1329.31 
  "/>
<polyline clip-path="url(#clip840)" style="stroke:#000000; stroke-linecap:butt; stroke-linejoin:round; stroke-width:4; stroke-opacity:1; fill:none" points="
  817.856,1348.2 817.856,1329.31 
  "/>
<polyline clip-path="url(#clip840)" style="stroke:#000000; stroke-linecap:butt; stroke-linejoin:round; stroke-width:4; stroke-opacity:1; fill:none" points="
  919.863,1348.2 919.863,1329.31 
  "/>
<polyline clip-path="url(#clip840)" style="stroke:#000000; stroke-linecap:butt; stroke-linejoin:round; stroke-width:4; stroke-opacity:1; fill:none" points="
  1021.87,1348.2 1021.87,1329.31 
  "/>
<polyline clip-path="url(#clip840)" style="stroke:#000000; stroke-linecap:butt; stroke-linejoin:round; stroke-width:4; stroke-opacity:1; fill:none" points="
  1123.88,1348.2 1123.88,1329.31 
  "/>
<polyline clip-path="url(#clip840)" style="stroke:#000000; stroke-linecap:butt; stroke-linejoin:round; stroke-width:4; stroke-opacity:1; fill:none" points="
  1225.88,1348.2 1225.88,1329.31 
  "/>
<polyline clip-path="url(#clip840)" style="stroke:#000000; stroke-linecap:butt; stroke-linejoin:round; stroke-width:4; stroke-opacity:1; fill:none" points="
  1327.89,1348.2 1327.89,1329.31 
  "/>
<polyline clip-path="url(#clip840)" style="stroke:#000000; stroke-linecap:butt; stroke-linejoin:round; stroke-width:4; stroke-opacity:1; fill:none" points="
  1429.9,1348.2 1429.9,1329.31 
  "/>
<polyline clip-path="url(#clip840)" style="stroke:#000000; stroke-linecap:butt; stroke-linejoin:round; stroke-width:4; stroke-opacity:1; fill:none" points="
  1531.91,1348.2 1531.91,1329.31 
  "/>
<polyline clip-path="url(#clip840)" style="stroke:#000000; stroke-linecap:butt; stroke-linejoin:round; stroke-width:4; stroke-opacity:1; fill:none" points="
  1633.91,1348.2 1633.91,1329.31 
  "/>
<polyline clip-path="url(#clip840)" style="stroke:#000000; stroke-linecap:butt; stroke-linejoin:round; stroke-width:4; stroke-opacity:1; fill:none" points="
  1735.92,1348.2 1735.92,1329.31 
  "/>
<polyline clip-path="url(#clip840)" style="stroke:#000000; stroke-linecap:butt; stroke-linejoin:round; stroke-width:4; stroke-opacity:1; fill:none" points="
  1837.93,1348.2 1837.93,1329.31 
  "/>
<polyline clip-path="url(#clip840)" style="stroke:#000000; stroke-linecap:butt; stroke-linejoin:round; stroke-width:4; stroke-opacity:1; fill:none" points="
  1939.93,1348.2 1939.93,1329.31 
  "/>
<polyline clip-path="url(#clip840)" style="stroke:#000000; stroke-linecap:butt; stroke-linejoin:round; stroke-width:4; stroke-opacity:1; fill:none" points="
  2041.94,1348.2 2041.94,1329.31 
  "/>
<polyline clip-path="url(#clip840)" style="stroke:#000000; stroke-linecap:butt; stroke-linejoin:round; stroke-width:4; stroke-opacity:1; fill:none" points="
  2143.95,1348.2 2143.95,1329.31 
  "/>
<polyline clip-path="url(#clip840)" style="stroke:#000000; stroke-linecap:butt; stroke-linejoin:round; stroke-width:4; stroke-opacity:1; fill:none" points="
  2245.95,1348.2 2245.95,1329.31 
  "/>
<path clip-path="url(#clip840)" d="M187.793 1614.95 L195.952 1600.82 L199.36 1602.78 L188.388 1621.79 L184.98 1619.82 Q183.926 1616.14 182.208 1609.85 Q180.482 1603.54 179.909 1601.84 Q178.847 1598.64 177.783 1597.01 Q176.711 1595.35 175.248 1594.5 Q172.862 1593.12 170.386 1593.94 Q167.922 1594.74 166.371 1597.42 Q165.272 1599.33 164.706 1601.83 Q164.153 1604.32 164.107 1607.5 L160.017 1605.14 Q160.447 1602.13 161.173 1599.71 Q161.899 1597.3 162.917 1595.54 Q165.602 1590.88 169.525 1589.46 Q173.447 1588.04 177.337 1590.28 Q179.181 1591.35 180.44 1593.01 Q181.69 1594.64 182.882 1597.76 Q183.174 1598.6 184.41 1602.89 Q185.625 1607.18 187.793 1614.95 Z" fill="#000000" fill-rule="evenodd" fill-opacity="1" /><path clip-path="url(#clip840)" d="M182.004 1569.88 Q180.199 1573.01 182.371 1576.38 Q184.536 1579.71 190.71 1583.28 Q196.865 1586.83 200.855 1587.05 Q204.836 1587.23 206.642 1584.11 Q208.459 1580.96 206.294 1577.63 Q204.121 1574.26 197.967 1570.71 Q191.793 1567.14 187.811 1566.95 Q183.821 1566.74 182.004 1569.88 M178.797 1568.03 Q181.702 1563 187.219 1562.66 Q192.727 1562.28 200.305 1566.66 Q207.863 1571.02 210.313 1575.99 Q212.754 1580.93 209.849 1585.96 Q206.944 1590.99 201.435 1591.37 Q195.918 1591.71 188.361 1587.35 Q180.783 1582.97 178.341 1578.03 Q175.891 1573.06 178.797 1568.03 Z" fill="#000000" fill-rule="evenodd" fill-opacity="1" /><path clip-path="url(#clip840)" d="M217.955 1562.71 L226.114 1548.57 L229.522 1550.54 L218.55 1569.55 L215.142 1567.58 Q214.088 1563.9 212.37 1557.61 Q210.644 1551.3 210.071 1549.6 Q209.009 1546.4 207.945 1544.77 Q206.873 1543.11 205.41 1542.26 Q203.024 1540.88 200.548 1541.7 Q198.084 1542.49 196.533 1545.18 Q195.434 1547.09 194.868 1549.59 Q194.315 1552.08 194.269 1555.26 L190.179 1552.9 Q190.609 1549.89 191.335 1547.47 Q192.06 1545.06 193.079 1543.29 Q195.764 1538.64 199.687 1537.22 Q203.609 1535.79 207.498 1538.04 Q209.343 1539.11 210.602 1540.77 Q211.852 1542.4 213.044 1545.52 Q213.336 1546.36 214.571 1550.65 Q215.787 1554.93 217.955 1562.71 Z" fill="#000000" fill-rule="evenodd" fill-opacity="1" /><path clip-path="url(#clip840)" d="M231.427 1539.37 L235.246 1532.76 L212.413 1519.57 L209.701 1527.6 L206.013 1525.48 L208.701 1517.49 L211.039 1513.44 L237.561 1528.75 L241.38 1522.13 L244.788 1524.1 L234.835 1541.34 L231.427 1539.37 Z" fill="#000000" fill-rule="evenodd" fill-opacity="1" /><path clip-path="url(#clip840)" d="M235.243 1510.86 L241.482 1500.06 L244.769 1501.96 L238.531 1512.76 L235.243 1510.86 Z" fill="#000000" fill-rule="evenodd" fill-opacity="1" /><path clip-path="url(#clip840)" d="M255.061 1498.44 L258.88 1491.82 L236.047 1478.64 L233.335 1486.67 L229.647 1484.54 L232.335 1476.55 L234.673 1472.5 L261.195 1487.81 L265.015 1481.2 L268.422 1483.16 L258.469 1500.4 L255.061 1498.44 Z" fill="#000000" fill-rule="evenodd" fill-opacity="1" /><path clip-path="url(#clip840)" d="M270.142 1472.32 L273.961 1465.7 L251.128 1452.52 L248.416 1460.55 L244.728 1458.42 L247.416 1450.43 L249.754 1446.38 L276.276 1461.69 L280.095 1455.08 L283.503 1457.04 L273.55 1474.28 L270.142 1472.32 Z" fill="#000000" fill-rule="evenodd" fill-opacity="1" /><path clip-path="url(#clip840)" d="M273.958 1443.81 L280.197 1433 L283.484 1434.9 L277.246 1445.71 L273.958 1443.81 Z" fill="#000000" fill-rule="evenodd" fill-opacity="1" /><path clip-path="url(#clip840)" d="M274.515 1409.65 Q272.71 1412.78 274.882 1416.14 Q277.047 1419.48 283.221 1423.04 Q289.376 1426.6 293.366 1426.81 Q297.347 1427 299.153 1423.87 Q300.97 1420.73 298.805 1417.39 Q296.633 1414.03 290.478 1410.47 Q284.304 1406.91 280.322 1406.72 Q276.332 1406.5 274.515 1409.65 M271.308 1407.8 Q274.213 1402.77 279.73 1402.42 Q285.238 1402.05 292.816 1406.42 Q300.374 1410.79 302.824 1415.76 Q305.265 1420.69 302.36 1425.73 Q299.455 1430.76 293.946 1431.13 Q288.429 1431.47 280.872 1427.11 Q273.294 1422.74 270.853 1417.8 Q268.403 1412.83 271.308 1407.8 Z" fill="#000000" fill-rule="evenodd" fill-opacity="1" /><path clip-path="url(#clip840)" d="M302.647 1391.06 Q300.98 1393.95 301.563 1396.5 Q302.157 1399.04 304.864 1400.6 Q307.57 1402.16 310.063 1401.41 Q312.567 1400.64 314.234 1397.75 Q315.9 1394.87 315.317 1392.31 Q314.714 1389.74 312.028 1388.19 Q309.322 1386.63 306.817 1387.4 Q304.325 1388.16 302.647 1391.06 M298.585 1394.12 Q296.438 1396.35 293.809 1396.79 Q291.192 1397.2 288.626 1395.72 Q285.038 1393.65 284.423 1389.9 Q283.819 1386.13 286.389 1381.68 Q288.97 1377.21 292.524 1375.86 Q296.079 1374.52 299.667 1376.59 Q302.233 1378.07 303.173 1380.57 Q304.124 1383.04 303.272 1386 Q305.643 1383.46 308.566 1382.99 Q311.499 1382.49 314.366 1384.14 Q318.716 1386.66 319.502 1390.66 Q320.3 1394.65 317.441 1399.6 Q314.582 1404.56 310.717 1405.88 Q306.864 1407.18 302.514 1404.67 Q299.647 1403.02 298.612 1400.23 Q297.576 1397.44 298.585 1394.12 M291.333 1391.91 Q293.659 1393.25 295.795 1392.56 Q297.943 1391.85 299.459 1389.22 Q300.964 1386.62 300.506 1384.4 Q300.059 1382.17 297.734 1380.82 Q295.408 1379.48 293.249 1380.21 Q291.101 1380.92 289.596 1383.53 Q288.08 1386.15 288.538 1388.37 Q289.008 1390.57 291.333 1391.91 Z" fill="#000000" fill-rule="evenodd" fill-opacity="1" /><path clip-path="url(#clip840)" d="M494.381 1613.97 L502.541 1599.83 L505.949 1601.8 L494.976 1620.81 L491.568 1618.84 Q490.514 1615.16 488.796 1608.87 Q487.07 1602.56 486.498 1600.86 Q485.435 1597.66 484.371 1596.03 Q483.299 1594.36 481.836 1593.52 Q479.45 1592.14 476.975 1592.96 Q474.51 1593.75 472.96 1596.44 Q471.86 1598.34 471.295 1600.85 Q470.741 1603.34 470.695 1606.52 L466.606 1604.16 Q467.035 1601.15 467.761 1598.73 Q468.487 1596.32 469.505 1594.55 Q472.19 1589.9 476.113 1588.48 Q480.036 1587.05 483.925 1589.3 Q485.769 1590.36 487.028 1592.03 Q488.278 1593.66 489.47 1596.78 Q489.762 1597.62 490.998 1601.91 Q492.213 1606.19 494.381 1613.97 Z" fill="#000000" fill-rule="evenodd" fill-opacity="1" /><path clip-path="url(#clip840)" d="M488.592 1568.9 Q486.787 1572.03 488.96 1575.39 Q491.124 1578.73 497.298 1582.29 Q503.453 1585.85 507.443 1586.07 Q511.424 1586.25 513.23 1583.13 Q515.047 1579.98 512.883 1576.64 Q510.71 1573.28 504.555 1569.72 Q498.381 1566.16 494.399 1565.97 Q490.409 1565.75 488.592 1568.9 M485.385 1567.05 Q488.29 1562.02 493.807 1561.67 Q499.316 1561.3 506.893 1565.67 Q514.451 1570.04 516.901 1575.01 Q519.342 1579.95 516.437 1584.98 Q513.532 1590.01 508.024 1590.38 Q502.507 1590.73 494.949 1586.36 Q487.371 1581.99 484.93 1577.05 Q482.48 1572.08 485.385 1567.05 Z" fill="#000000" fill-rule="evenodd" fill-opacity="1" /><path clip-path="url(#clip840)" d="M524.543 1561.73 L532.703 1547.59 L536.11 1549.56 L525.138 1568.56 L521.73 1566.6 Q520.676 1562.91 518.958 1556.63 Q517.232 1550.31 516.659 1548.62 Q515.597 1545.41 514.533 1543.78 Q513.461 1542.12 511.998 1541.28 Q509.612 1539.9 507.136 1540.72 Q504.672 1541.51 503.121 1544.2 Q502.022 1546.1 501.457 1548.61 Q500.903 1551.1 500.857 1554.28 L496.768 1551.92 Q497.197 1548.9 497.923 1546.49 Q498.649 1544.08 499.667 1542.31 Q502.352 1537.66 506.275 1536.24 Q510.198 1534.81 514.087 1537.06 Q515.931 1538.12 517.19 1539.79 Q518.44 1541.42 519.632 1544.54 Q519.924 1545.37 521.16 1549.67 Q522.375 1553.95 524.543 1561.73 Z" fill="#000000" fill-rule="evenodd" fill-opacity="1" /><path clip-path="url(#clip840)" d="M538.015 1538.39 L541.834 1531.78 L519.001 1518.59 L516.289 1526.62 L512.601 1524.49 L515.289 1516.5 L517.627 1512.45 L544.149 1527.77 L547.969 1521.15 L551.377 1523.12 L541.423 1540.36 L538.015 1538.39 Z" fill="#000000" fill-rule="evenodd" fill-opacity="1" /><path clip-path="url(#clip840)" d="M541.831 1509.88 L548.07 1499.08 L551.357 1500.98 L545.119 1511.78 L541.831 1509.88 Z" fill="#000000" fill-rule="evenodd" fill-opacity="1" /><path clip-path="url(#clip840)" d="M561.649 1497.46 L565.469 1490.84 L542.635 1477.66 L539.924 1485.69 L536.235 1483.56 L538.924 1475.57 L541.261 1471.52 L567.783 1486.83 L571.603 1480.21 L575.011 1482.18 L565.057 1499.42 L561.649 1497.46 Z" fill="#000000" fill-rule="evenodd" fill-opacity="1" /><path clip-path="url(#clip840)" d="M576.73 1471.33 L580.549 1464.72 L557.716 1451.54 L555.004 1459.57 L551.316 1457.44 L554.004 1449.45 L556.342 1445.4 L582.864 1460.71 L586.684 1454.09 L590.092 1456.06 L580.138 1473.3 L576.73 1471.33 Z" fill="#000000" fill-rule="evenodd" fill-opacity="1" /><path clip-path="url(#clip840)" d="M580.546 1442.83 L586.785 1432.02 L590.073 1433.92 L583.834 1444.72 L580.546 1442.83 Z" fill="#000000" fill-rule="evenodd" fill-opacity="1" /><path clip-path="url(#clip840)" d="M600.364 1430.4 L604.184 1423.78 L581.35 1410.6 L578.639 1418.63 L574.95 1416.5 L577.639 1408.51 L579.977 1404.46 L606.498 1419.77 L610.318 1413.16 L613.726 1415.13 L603.772 1432.37 L600.364 1430.4 Z" fill="#000000" fill-rule="evenodd" fill-opacity="1" /><path clip-path="url(#clip840)" d="M615.445 1404.28 L619.265 1397.66 L596.431 1384.48 L593.72 1392.51 L590.031 1390.38 L592.72 1382.39 L595.057 1378.34 L621.579 1393.65 L625.399 1387.04 L628.807 1389 L618.853 1406.25 L615.445 1404.28 Z" fill="#000000" fill-rule="evenodd" fill-opacity="1" /><path clip-path="url(#clip840)" d="M799.708 1615.17 L807.867 1601.04 L811.275 1603 L800.303 1622.01 L796.895 1620.04 Q795.841 1616.36 794.123 1610.07 Q792.397 1603.76 791.824 1602.06 Q790.762 1598.86 789.698 1597.23 Q788.626 1595.57 787.163 1594.72 Q784.777 1593.35 782.301 1594.16 Q779.837 1594.96 778.286 1597.64 Q777.187 1599.55 776.621 1602.05 Q776.068 1604.54 776.022 1607.72 L771.932 1605.36 Q772.362 1602.35 773.088 1599.93 Q773.813 1597.52 774.832 1595.76 Q777.517 1591.11 781.44 1589.68 Q785.362 1588.26 789.252 1590.5 Q791.096 1591.57 792.355 1593.23 Q793.605 1594.86 794.797 1597.98 Q795.089 1598.82 796.325 1603.11 Q797.54 1607.4 799.708 1615.17 Z" fill="#000000" fill-rule="evenodd" fill-opacity="1" /><path clip-path="url(#clip840)" d="M793.919 1570.1 Q792.113 1573.23 794.286 1576.6 Q796.451 1579.93 802.625 1583.5 Q808.779 1587.05 812.769 1587.27 Q816.751 1587.46 818.557 1584.33 Q820.374 1581.18 818.209 1577.85 Q816.036 1574.48 809.882 1570.93 Q803.708 1567.36 799.726 1567.18 Q795.736 1566.96 793.919 1570.1 M790.712 1568.25 Q793.617 1563.22 799.134 1562.88 Q804.642 1562.5 812.22 1566.88 Q819.778 1571.24 822.228 1576.21 Q824.669 1581.15 821.764 1586.18 Q818.859 1591.21 813.35 1591.59 Q807.833 1591.93 800.276 1587.57 Q792.698 1583.19 790.256 1578.25 Q787.806 1573.28 790.712 1568.25 Z" fill="#000000" fill-rule="evenodd" fill-opacity="1" /><path clip-path="url(#clip840)" d="M829.87 1562.93 L838.029 1548.79 L841.437 1550.76 L830.465 1569.77 L827.057 1567.8 Q826.002 1564.12 824.285 1557.83 Q822.559 1551.52 821.986 1549.82 Q820.924 1546.62 819.86 1544.99 Q818.788 1543.33 817.324 1542.48 Q814.939 1541.1 812.463 1541.92 Q809.999 1542.72 808.448 1545.4 Q807.349 1547.31 806.783 1549.81 Q806.23 1552.3 806.184 1555.48 L802.094 1553.12 Q802.524 1550.11 803.25 1547.69 Q803.975 1545.28 804.994 1543.51 Q807.679 1538.86 811.602 1537.44 Q815.524 1536.02 819.413 1538.26 Q821.258 1539.33 822.516 1540.99 Q823.767 1542.62 824.959 1545.74 Q825.251 1546.58 826.486 1550.87 Q827.702 1555.15 829.87 1562.93 Z" fill="#000000" fill-rule="evenodd" fill-opacity="1" /><path clip-path="url(#clip840)" d="M843.342 1539.59 L847.161 1532.98 L824.328 1519.8 L821.616 1527.83 L817.928 1525.7 L820.616 1517.71 L822.954 1513.66 L849.476 1528.97 L853.295 1522.35 L856.703 1524.32 L846.75 1541.56 L843.342 1539.59 Z" fill="#000000" fill-rule="evenodd" fill-opacity="1" /><path clip-path="url(#clip840)" d="M847.158 1511.09 L853.396 1500.28 L856.684 1502.18 L850.446 1512.98 L847.158 1511.09 Z" fill="#000000" fill-rule="evenodd" fill-opacity="1" /><path clip-path="url(#clip840)" d="M866.976 1498.66 L870.795 1492.04 L847.962 1478.86 L845.25 1486.89 L841.562 1484.76 L844.25 1476.77 L846.588 1472.72 L873.11 1488.03 L876.929 1481.42 L880.337 1483.39 L870.384 1500.63 L866.976 1498.66 Z" fill="#000000" fill-rule="evenodd" fill-opacity="1" /><path clip-path="url(#clip840)" d="M882.057 1472.54 L885.876 1465.92 L863.043 1452.74 L860.331 1460.77 L856.643 1458.64 L859.331 1450.65 L861.669 1446.6 L888.191 1461.91 L892.01 1455.3 L895.418 1457.26 L885.465 1474.5 L882.057 1472.54 Z" fill="#000000" fill-rule="evenodd" fill-opacity="1" /><path clip-path="url(#clip840)" d="M885.873 1444.03 L892.112 1433.22 L895.399 1435.12 L889.161 1445.93 L885.873 1444.03 Z" fill="#000000" fill-rule="evenodd" fill-opacity="1" /><path clip-path="url(#clip840)" d="M905.691 1431.6 L909.51 1424.99 L886.677 1411.8 L883.965 1419.83 L880.277 1417.7 L882.965 1409.71 L885.303 1405.66 L911.825 1420.98 L915.645 1414.36 L919.052 1416.33 L909.099 1433.57 L905.691 1431.6 Z" fill="#000000" fill-rule="evenodd" fill-opacity="1" /><path clip-path="url(#clip840)" d="M912.485 1389.42 Q910.911 1392.14 911.85 1394.82 Q912.8 1397.48 916.047 1399.36 Q919.275 1401.22 922.074 1400.73 Q924.864 1400.2 926.438 1397.47 Q928.012 1394.75 927.062 1392.09 Q926.103 1389.39 922.876 1387.53 Q919.628 1385.66 916.838 1386.18 Q914.059 1386.69 912.485 1389.42 M904.437 1374.05 L908.125 1376.18 Q906.524 1377.29 905.241 1378.63 Q903.968 1379.96 903.089 1381.48 Q900.774 1385.49 902.253 1389.18 Q903.745 1392.84 909.044 1396.3 Q907.982 1394.11 908.09 1391.8 Q908.178 1389.47 909.417 1387.32 Q912.021 1382.81 916.272 1381.79 Q920.514 1380.74 925.225 1383.46 Q929.836 1386.12 931.049 1390.46 Q932.261 1394.79 929.645 1399.32 Q926.648 1404.52 921.093 1404.97 Q915.518 1405.41 907.96 1401.05 Q900.864 1396.95 898.598 1391.15 Q896.313 1385.34 899.588 1379.67 Q900.468 1378.15 901.66 1376.78 Q902.863 1375.39 904.437 1374.05 Z" fill="#000000" fill-rule="evenodd" fill-opacity="1" /><path clip-path="url(#clip840)" d="M1105.9 1614.87 L1114.06 1600.74 L1117.47 1602.7 L1106.5 1621.71 L1103.09 1619.74 Q1102.04 1616.06 1100.32 1609.77 Q1098.59 1603.46 1098.02 1601.76 Q1096.96 1598.56 1095.89 1596.93 Q1094.82 1595.27 1093.36 1594.42 Q1090.97 1593.04 1088.5 1593.86 Q1086.03 1594.66 1084.48 1597.34 Q1083.38 1599.25 1082.82 1601.75 Q1082.26 1604.24 1082.22 1607.42 L1078.13 1605.06 Q1078.56 1602.05 1079.28 1599.63 Q1080.01 1597.22 1081.03 1595.46 Q1083.71 1590.8 1087.63 1589.38 Q1091.56 1587.96 1095.45 1590.2 Q1097.29 1591.27 1098.55 1592.93 Q1099.8 1594.56 1100.99 1597.68 Q1101.28 1598.52 1102.52 1602.81 Q1103.73 1607.1 1105.9 1614.87 Z" fill="#000000" fill-rule="evenodd" fill-opacity="1" /><path clip-path="url(#clip840)" d="M1100.11 1569.8 Q1098.31 1572.93 1100.48 1576.3 Q1102.65 1579.63 1108.82 1583.2 Q1114.97 1586.75 1118.96 1586.97 Q1122.95 1587.15 1124.75 1584.03 Q1126.57 1580.88 1124.4 1577.55 Q1122.23 1574.18 1116.08 1570.63 Q1109.9 1567.06 1105.92 1566.87 Q1101.93 1566.66 1100.11 1569.8 M1096.91 1567.95 Q1099.81 1562.92 1105.33 1562.58 Q1110.84 1562.2 1118.41 1566.58 Q1125.97 1570.94 1128.42 1575.91 Q1130.86 1580.85 1127.96 1585.88 Q1125.05 1590.91 1119.55 1591.29 Q1114.03 1591.63 1106.47 1587.27 Q1098.89 1582.89 1096.45 1577.95 Q1094 1572.98 1096.91 1567.95 Z" fill="#000000" fill-rule="evenodd" fill-opacity="1" /><path clip-path="url(#clip840)" d="M1136.06 1562.63 L1144.22 1548.49 L1147.63 1550.46 L1136.66 1569.47 L1133.25 1567.5 Q1132.2 1563.82 1130.48 1557.53 Q1128.75 1551.22 1128.18 1549.52 Q1127.12 1546.32 1126.05 1544.69 Q1124.98 1543.02 1123.52 1542.18 Q1121.13 1540.8 1118.66 1541.62 Q1116.19 1542.41 1114.64 1545.1 Q1113.54 1547.01 1112.98 1549.51 Q1112.42 1552 1112.38 1555.18 L1108.29 1552.82 Q1108.72 1549.81 1109.44 1547.39 Q1110.17 1544.98 1111.19 1543.21 Q1113.87 1538.56 1117.8 1537.14 Q1121.72 1535.71 1125.61 1537.96 Q1127.45 1539.02 1128.71 1540.69 Q1129.96 1542.32 1131.15 1545.44 Q1131.45 1546.28 1132.68 1550.57 Q1133.9 1554.85 1136.06 1562.63 Z" fill="#000000" fill-rule="evenodd" fill-opacity="1" /><path clip-path="url(#clip840)" d="M1149.54 1539.29 L1153.36 1532.68 L1130.52 1519.49 L1127.81 1527.52 L1124.12 1525.39 L1126.81 1517.4 L1129.15 1513.36 L1155.67 1528.67 L1159.49 1522.05 L1162.9 1524.02 L1152.94 1541.26 L1149.54 1539.29 Z" fill="#000000" fill-rule="evenodd" fill-opacity="1" /><path clip-path="url(#clip840)" d="M1153.35 1510.78 L1159.59 1499.98 L1162.88 1501.88 L1156.64 1512.68 L1153.35 1510.78 Z" fill="#000000" fill-rule="evenodd" fill-opacity="1" /><path clip-path="url(#clip840)" d="M1173.17 1498.36 L1176.99 1491.74 L1154.16 1478.56 L1151.44 1486.59 L1147.76 1484.46 L1150.44 1476.47 L1152.78 1472.42 L1179.3 1487.73 L1183.12 1481.12 L1186.53 1483.08 L1176.58 1500.32 L1173.17 1498.36 Z" fill="#000000" fill-rule="evenodd" fill-opacity="1" /><path clip-path="url(#clip840)" d="M1188.25 1472.24 L1192.07 1465.62 L1169.24 1452.44 L1166.53 1460.47 L1162.84 1458.34 L1165.53 1450.35 L1167.86 1446.3 L1194.39 1461.61 L1198.21 1455 L1201.61 1456.96 L1191.66 1474.2 L1188.25 1472.24 Z" fill="#000000" fill-rule="evenodd" fill-opacity="1" /><path clip-path="url(#clip840)" d="M1192.07 1443.73 L1198.31 1432.92 L1201.59 1434.82 L1195.36 1445.63 L1192.07 1443.73 Z" fill="#000000" fill-rule="evenodd" fill-opacity="1" /><path clip-path="url(#clip840)" d="M1211.89 1431.3 L1215.71 1424.69 L1192.87 1411.5 L1190.16 1419.53 L1186.47 1417.4 L1189.16 1409.41 L1191.5 1405.36 L1218.02 1420.68 L1221.84 1414.06 L1225.25 1416.03 L1215.29 1433.27 L1211.89 1431.3 Z" fill="#000000" fill-rule="evenodd" fill-opacity="1" /><path clip-path="url(#clip840)" d="M1229.42 1407.37 L1225.73 1405.24 Q1227.33 1404.13 1228.61 1402.79 Q1229.9 1401.45 1230.77 1399.94 Q1233.08 1395.93 1231.61 1392.28 Q1230.13 1388.59 1224.81 1385.12 Q1225.86 1387.28 1225.76 1389.59 Q1225.65 1391.91 1224.4 1394.07 Q1221.8 1398.56 1217.58 1399.63 Q1213.35 1400.66 1208.64 1397.94 Q1204.03 1395.28 1202.82 1390.94 Q1201.6 1386.61 1204.22 1382.08 Q1207.22 1376.89 1212.78 1376.46 Q1218.34 1376.01 1225.91 1380.38 Q1232.99 1384.47 1235.28 1390.28 Q1237.55 1396.06 1234.28 1401.73 Q1233.4 1403.25 1232.19 1404.64 Q1230.99 1406.03 1229.42 1407.37 M1221.38 1391.98 Q1222.95 1389.26 1222 1386.6 Q1221.07 1383.92 1217.82 1382.04 Q1214.59 1380.18 1211.8 1380.71 Q1209 1381.2 1207.43 1383.93 Q1205.85 1386.66 1206.81 1389.35 Q1207.76 1392.01 1210.99 1393.87 Q1214.24 1395.75 1217.02 1395.24 Q1219.81 1394.71 1221.38 1391.98 Z" fill="#000000" fill-rule="evenodd" fill-opacity="1" /><path clip-path="url(#clip840)" d="M1411.59 1615.45 L1419.75 1601.32 L1423.16 1603.28 L1412.18 1622.29 L1408.78 1620.32 Q1407.72 1616.64 1406 1610.35 Q1404.28 1604.04 1403.7 1602.35 Q1402.64 1599.14 1401.58 1597.51 Q1400.51 1595.85 1399.04 1595 Q1396.66 1593.63 1394.18 1594.44 Q1391.72 1595.24 1390.17 1597.92 Q1389.07 1599.83 1388.5 1602.34 Q1387.95 1604.82 1387.9 1608 L1383.81 1605.64 Q1384.24 1602.63 1384.97 1600.22 Q1385.69 1597.8 1386.71 1596.04 Q1389.4 1591.39 1393.32 1589.96 Q1397.24 1588.54 1401.13 1590.78 Q1402.98 1591.85 1404.23 1593.51 Q1405.49 1595.14 1406.68 1598.26 Q1406.97 1599.1 1408.2 1603.39 Q1409.42 1607.68 1411.59 1615.45 Z" fill="#000000" fill-rule="evenodd" fill-opacity="1" /><path clip-path="url(#clip840)" d="M1405.8 1570.38 Q1403.99 1573.51 1406.17 1576.88 Q1408.33 1580.21 1414.51 1583.78 Q1420.66 1587.33 1424.65 1587.55 Q1428.63 1587.74 1430.44 1584.61 Q1432.25 1581.46 1430.09 1578.13 Q1427.92 1574.76 1421.76 1571.21 Q1415.59 1567.64 1411.61 1567.46 Q1407.62 1567.24 1405.8 1570.38 M1402.59 1568.53 Q1405.5 1563.5 1411.01 1563.16 Q1416.52 1562.78 1424.1 1567.16 Q1431.66 1571.52 1434.11 1576.49 Q1436.55 1581.43 1433.64 1586.46 Q1430.74 1591.49 1425.23 1591.87 Q1419.71 1592.21 1412.16 1587.85 Q1404.58 1583.47 1402.14 1578.53 Q1399.69 1573.56 1402.59 1568.53 Z" fill="#000000" fill-rule="evenodd" fill-opacity="1" /><path clip-path="url(#clip840)" d="M1441.75 1563.21 L1449.91 1549.08 L1453.32 1551.04 L1442.35 1570.05 L1438.94 1568.08 Q1437.88 1564.4 1436.17 1558.11 Q1434.44 1551.8 1433.87 1550.1 Q1432.8 1546.9 1431.74 1545.27 Q1430.67 1543.61 1429.2 1542.76 Q1426.82 1541.38 1424.34 1542.2 Q1421.88 1543 1420.33 1545.68 Q1419.23 1547.59 1418.66 1550.09 Q1418.11 1552.58 1418.06 1555.76 L1413.97 1553.4 Q1414.4 1550.39 1415.13 1547.97 Q1415.86 1545.56 1416.87 1543.79 Q1419.56 1539.14 1423.48 1537.72 Q1427.4 1536.3 1431.29 1538.54 Q1433.14 1539.61 1434.4 1541.27 Q1435.65 1542.9 1436.84 1546.02 Q1437.13 1546.86 1438.37 1551.15 Q1439.58 1555.44 1441.75 1563.21 Z" fill="#000000" fill-rule="evenodd" fill-opacity="1" /><path clip-path="url(#clip840)" d="M1455.22 1539.87 L1459.04 1533.26 L1436.21 1520.08 L1433.5 1528.11 L1429.81 1525.98 L1432.5 1517.99 L1434.83 1513.94 L1461.36 1529.25 L1465.18 1522.63 L1468.58 1524.6 L1458.63 1541.84 L1455.22 1539.87 Z" fill="#000000" fill-rule="evenodd" fill-opacity="1" /><path clip-path="url(#clip840)" d="M1459.04 1511.37 L1465.28 1500.56 L1468.56 1502.46 L1462.33 1513.26 L1459.04 1511.37 Z" fill="#000000" fill-rule="evenodd" fill-opacity="1" /><path clip-path="url(#clip840)" d="M1478.86 1498.94 L1482.68 1492.32 L1459.84 1479.14 L1457.13 1487.17 L1453.44 1485.04 L1456.13 1477.05 L1458.47 1473 L1484.99 1488.31 L1488.81 1481.7 L1492.22 1483.67 L1482.26 1500.91 L1478.86 1498.94 Z" fill="#000000" fill-rule="evenodd" fill-opacity="1" /><path clip-path="url(#clip840)" d="M1493.94 1472.82 L1497.76 1466.2 L1474.92 1453.02 L1472.21 1461.05 L1468.52 1458.92 L1471.21 1450.93 L1473.55 1446.88 L1500.07 1462.19 L1503.89 1455.58 L1507.3 1457.54 L1497.34 1474.79 L1493.94 1472.82 Z" fill="#000000" fill-rule="evenodd" fill-opacity="1" /><path clip-path="url(#clip840)" d="M1497.75 1444.31 L1503.99 1433.5 L1507.28 1435.4 L1501.04 1446.21 L1497.75 1444.31 Z" fill="#000000" fill-rule="evenodd" fill-opacity="1" /><path clip-path="url(#clip840)" d="M1519.18 1429.1 L1527.34 1414.96 L1530.75 1416.93 L1519.78 1435.93 L1516.37 1433.97 Q1515.31 1430.28 1513.6 1424 Q1511.87 1417.68 1511.3 1415.99 Q1510.23 1412.78 1509.17 1411.15 Q1508.1 1409.49 1506.63 1408.65 Q1504.25 1407.27 1501.77 1408.09 Q1499.31 1408.88 1497.76 1411.57 Q1496.66 1413.47 1496.09 1415.98 Q1495.54 1418.47 1495.49 1421.65 L1491.4 1419.29 Q1491.83 1416.27 1492.56 1413.86 Q1493.29 1411.45 1494.3 1409.68 Q1496.99 1405.03 1500.91 1403.61 Q1504.83 1402.18 1508.72 1404.43 Q1510.57 1405.49 1511.83 1407.16 Q1513.08 1408.79 1514.27 1411.91 Q1514.56 1412.74 1515.8 1417.04 Q1517.01 1421.32 1519.18 1429.1 Z" fill="#000000" fill-rule="evenodd" fill-opacity="1" /><path clip-path="url(#clip840)" d="M1515.68 1382.06 L1525.75 1401.51 L1531.65 1391.29 L1515.68 1382.06 M1511.54 1381.09 L1514.48 1375.99 L1533.98 1387.26 L1536.45 1382.99 L1539.81 1384.93 L1537.35 1389.2 L1544.4 1393.27 L1542.08 1397.3 L1535.02 1393.23 L1527.22 1406.74 L1523.31 1404.48 L1511.54 1381.09 Z" fill="#000000" fill-rule="evenodd" fill-opacity="1" /><path clip-path="url(#clip840)" d="M1717.85 1615.03 L1726.01 1600.9 L1729.42 1602.86 L1718.45 1621.87 L1715.04 1619.9 Q1713.99 1616.22 1712.27 1609.93 Q1710.54 1603.62 1709.97 1601.92 Q1708.91 1598.72 1707.84 1597.09 Q1706.77 1595.43 1705.31 1594.58 Q1702.92 1593.21 1700.45 1594.02 Q1697.98 1594.82 1696.43 1597.5 Q1695.33 1599.41 1694.77 1601.91 Q1694.21 1604.4 1694.17 1607.58 L1690.08 1605.22 Q1690.51 1602.21 1691.23 1599.79 Q1691.96 1597.38 1692.98 1595.62 Q1695.66 1590.96 1699.58 1589.54 Q1703.51 1588.12 1707.4 1590.36 Q1709.24 1591.43 1710.5 1593.09 Q1711.75 1594.72 1712.94 1597.84 Q1713.23 1598.68 1714.47 1602.97 Q1715.68 1607.26 1717.85 1615.03 Z" fill="#000000" fill-rule="evenodd" fill-opacity="1" /><path clip-path="url(#clip840)" d="M1712.06 1569.96 Q1710.26 1573.09 1712.43 1576.46 Q1714.6 1579.79 1720.77 1583.36 Q1726.92 1586.91 1730.91 1587.13 Q1734.9 1587.32 1736.7 1584.19 Q1738.52 1581.04 1736.35 1577.71 Q1734.18 1574.34 1728.03 1570.79 Q1721.85 1567.22 1717.87 1567.03 Q1713.88 1566.82 1712.06 1569.96 M1708.86 1568.11 Q1711.76 1563.08 1717.28 1562.74 Q1722.79 1562.36 1730.36 1566.74 Q1737.92 1571.1 1740.37 1576.07 Q1742.81 1581.01 1739.91 1586.04 Q1737 1591.07 1731.49 1591.45 Q1725.98 1591.79 1718.42 1587.43 Q1710.84 1583.05 1708.4 1578.11 Q1705.95 1573.14 1708.86 1568.11 Z" fill="#000000" fill-rule="evenodd" fill-opacity="1" /><path clip-path="url(#clip840)" d="M1748.01 1562.79 L1756.17 1548.65 L1759.58 1550.62 L1748.61 1569.63 L1745.2 1567.66 Q1744.15 1563.98 1742.43 1557.69 Q1740.7 1551.38 1740.13 1549.68 Q1739.07 1546.48 1738 1544.85 Q1736.93 1543.19 1735.47 1542.34 Q1733.08 1540.96 1730.61 1541.78 Q1728.14 1542.57 1726.59 1545.26 Q1725.49 1547.17 1724.93 1549.67 Q1724.37 1552.16 1724.33 1555.34 L1720.24 1552.98 Q1720.67 1549.97 1721.39 1547.55 Q1722.12 1545.14 1723.14 1543.37 Q1725.82 1538.72 1729.75 1537.3 Q1733.67 1535.88 1737.56 1538.12 Q1739.4 1539.19 1740.66 1540.85 Q1741.91 1542.48 1743.1 1545.6 Q1743.4 1546.44 1744.63 1550.73 Q1745.85 1555.01 1748.01 1562.79 Z" fill="#000000" fill-rule="evenodd" fill-opacity="1" /><path clip-path="url(#clip840)" d="M1761.49 1539.45 L1765.31 1532.84 L1742.47 1519.65 L1739.76 1527.68 L1736.07 1525.56 L1738.76 1517.57 L1741.1 1513.52 L1767.62 1528.83 L1771.44 1522.21 L1774.85 1524.18 L1764.89 1541.42 L1761.49 1539.45 Z" fill="#000000" fill-rule="evenodd" fill-opacity="1" /><path clip-path="url(#clip840)" d="M1765.3 1510.94 L1771.54 1500.14 L1774.83 1502.04 L1768.59 1512.84 L1765.3 1510.94 Z" fill="#000000" fill-rule="evenodd" fill-opacity="1" /><path clip-path="url(#clip840)" d="M1785.12 1498.52 L1788.94 1491.9 L1766.11 1478.72 L1763.39 1486.75 L1759.71 1484.62 L1762.39 1476.63 L1764.73 1472.58 L1791.25 1487.89 L1795.07 1481.28 L1798.48 1483.24 L1788.53 1500.49 L1785.12 1498.52 Z" fill="#000000" fill-rule="evenodd" fill-opacity="1" /><path clip-path="url(#clip840)" d="M1800.2 1472.4 L1804.02 1465.78 L1781.19 1452.6 L1778.48 1460.63 L1774.79 1458.5 L1777.48 1450.51 L1779.81 1446.46 L1806.34 1461.77 L1810.15 1455.16 L1813.56 1457.12 L1803.61 1474.36 L1800.2 1472.4 Z" fill="#000000" fill-rule="evenodd" fill-opacity="1" /><path clip-path="url(#clip840)" d="M1804.02 1443.89 L1810.26 1433.08 L1813.54 1434.98 L1807.31 1445.79 L1804.02 1443.89 Z" fill="#000000" fill-rule="evenodd" fill-opacity="1" /><path clip-path="url(#clip840)" d="M1817.78 1412.54 Q1820.08 1410 1822.99 1409.51 Q1825.9 1409 1828.79 1410.66 Q1833.22 1413.22 1833.88 1417.67 Q1834.55 1422.12 1831.31 1427.73 Q1830.22 1429.61 1828.68 1431.4 Q1827.18 1433.18 1825.21 1434.87 L1821.3 1432.62 Q1823.25 1431.5 1824.91 1429.78 Q1826.57 1428.07 1827.83 1425.88 Q1830.03 1422.07 1829.67 1419.22 Q1829.33 1416.35 1826.46 1414.69 Q1823.81 1413.17 1821.25 1414.17 Q1818.69 1415.15 1816.78 1418.46 L1814.76 1421.95 L1811.43 1420.02 L1813.54 1416.38 Q1815.26 1413.39 1815 1411.12 Q1814.71 1408.84 1812.46 1407.55 Q1810.16 1406.22 1807.99 1407.15 Q1805.81 1408.06 1804.05 1411.11 Q1803.09 1412.77 1802.35 1414.88 Q1801.61 1417 1801.05 1419.72 L1797.44 1417.64 Q1798.13 1414.96 1798.97 1412.77 Q1799.82 1410.56 1800.85 1408.78 Q1803.51 1404.17 1807.16 1402.7 Q1810.8 1401.22 1814.37 1403.28 Q1816.85 1404.71 1817.76 1407.13 Q1818.64 1409.54 1817.78 1412.54 Z" fill="#000000" fill-rule="evenodd" fill-opacity="1" /><path clip-path="url(#clip840)" d="M1819.66 1383.61 Q1817.85 1386.74 1820.02 1390.1 Q1822.19 1393.44 1828.36 1397 Q1834.52 1400.55 1838.51 1400.77 Q1842.49 1400.96 1844.29 1397.83 Q1846.11 1394.69 1843.95 1391.35 Q1841.77 1387.99 1835.62 1384.43 Q1829.44 1380.87 1825.46 1380.68 Q1821.47 1380.46 1819.66 1383.61 M1816.45 1381.76 Q1819.35 1376.72 1824.87 1376.38 Q1830.38 1376.01 1837.96 1380.38 Q1845.51 1384.75 1847.96 1389.72 Q1850.41 1394.65 1847.5 1399.68 Q1844.6 1404.72 1839.09 1405.09 Q1833.57 1405.43 1826.01 1401.07 Q1818.43 1396.7 1815.99 1391.76 Q1813.54 1386.79 1816.45 1381.76 Z" fill="#000000" fill-rule="evenodd" fill-opacity="1" /><path clip-path="url(#clip840)" d="M2024.2 1614.47 L2032.36 1600.34 L2035.76 1602.3 L2024.79 1621.31 L2021.38 1619.34 Q2020.33 1615.66 2018.61 1609.37 Q2016.89 1603.06 2016.31 1601.36 Q2015.25 1598.16 2014.19 1596.53 Q2013.12 1594.87 2011.65 1594.02 Q2009.27 1592.64 2006.79 1593.46 Q2004.33 1594.26 2002.78 1596.94 Q2001.68 1598.85 2001.11 1601.35 Q2000.56 1603.84 2000.51 1607.02 L1996.42 1604.66 Q1996.85 1601.65 1997.58 1599.23 Q1998.3 1596.82 1999.32 1595.05 Q2002.01 1590.4 2005.93 1588.98 Q2009.85 1587.56 2013.74 1589.8 Q2015.59 1590.87 2016.84 1592.53 Q2018.09 1594.16 2019.29 1597.28 Q2019.58 1598.12 2020.81 1602.41 Q2022.03 1606.69 2024.2 1614.47 Z" fill="#000000" fill-rule="evenodd" fill-opacity="1" /><path clip-path="url(#clip840)" d="M2018.41 1569.4 Q2016.6 1572.53 2018.78 1575.9 Q2020.94 1579.23 2027.11 1582.79 Q2033.27 1586.35 2037.26 1586.57 Q2041.24 1586.75 2043.05 1583.63 Q2044.86 1580.48 2042.7 1577.14 Q2040.53 1573.78 2034.37 1570.23 Q2028.2 1566.66 2024.22 1566.47 Q2020.23 1566.25 2018.41 1569.4 M2015.2 1567.55 Q2018.11 1562.52 2023.62 1562.18 Q2029.13 1561.8 2036.71 1566.18 Q2044.27 1570.54 2046.72 1575.51 Q2049.16 1580.45 2046.25 1585.48 Q2043.35 1590.51 2037.84 1590.88 Q2032.32 1591.23 2024.77 1586.86 Q2017.19 1582.49 2014.75 1577.55 Q2012.3 1572.58 2015.2 1567.55 Z" fill="#000000" fill-rule="evenodd" fill-opacity="1" /><path clip-path="url(#clip840)" d="M2054.36 1562.23 L2062.52 1548.09 L2065.93 1550.06 L2054.95 1569.07 L2051.55 1567.1 Q2050.49 1563.41 2048.77 1557.13 Q2047.05 1550.82 2046.48 1549.12 Q2045.41 1545.92 2044.35 1544.29 Q2043.28 1542.62 2041.81 1541.78 Q2039.43 1540.4 2036.95 1541.22 Q2034.49 1542.01 2032.94 1544.7 Q2031.84 1546.6 2031.27 1549.11 Q2030.72 1551.6 2030.67 1554.78 L2026.58 1552.42 Q2027.01 1549.41 2027.74 1546.99 Q2028.46 1544.58 2029.48 1542.81 Q2032.17 1538.16 2036.09 1536.74 Q2040.01 1535.31 2043.9 1537.56 Q2045.75 1538.62 2047.01 1540.29 Q2048.26 1541.92 2049.45 1545.04 Q2049.74 1545.87 2050.98 1550.17 Q2052.19 1554.45 2054.36 1562.23 Z" fill="#000000" fill-rule="evenodd" fill-opacity="1" /><path clip-path="url(#clip840)" d="M2067.83 1538.89 L2071.65 1532.28 L2048.82 1519.09 L2046.11 1527.12 L2042.42 1524.99 L2045.11 1517 L2047.44 1512.95 L2073.97 1528.27 L2077.78 1521.65 L2081.19 1523.62 L2071.24 1540.86 L2067.83 1538.89 Z" fill="#000000" fill-rule="evenodd" fill-opacity="1" /><path clip-path="url(#clip840)" d="M2071.65 1510.38 L2077.89 1499.58 L2081.17 1501.48 L2074.94 1512.28 L2071.65 1510.38 Z" fill="#000000" fill-rule="evenodd" fill-opacity="1" /><path clip-path="url(#clip840)" d="M2091.47 1497.96 L2095.28 1491.34 L2072.45 1478.16 L2069.74 1486.19 L2066.05 1484.06 L2068.74 1476.07 L2071.08 1472.02 L2097.6 1487.33 L2101.42 1480.72 L2104.83 1482.68 L2094.87 1499.92 L2091.47 1497.96 Z" fill="#000000" fill-rule="evenodd" fill-opacity="1" /><path clip-path="url(#clip840)" d="M2108.16 1469.05 L2116.31 1454.92 L2119.72 1456.88 L2108.75 1475.89 L2105.34 1473.92 Q2104.29 1470.24 2102.57 1463.95 Q2100.84 1457.64 2100.27 1455.94 Q2099.21 1452.74 2098.15 1451.11 Q2097.07 1449.45 2095.61 1448.6 Q2093.22 1447.22 2090.75 1448.04 Q2088.28 1448.84 2086.73 1451.52 Q2085.63 1453.43 2085.07 1455.93 Q2084.52 1458.42 2084.47 1461.6 L2080.38 1459.24 Q2080.81 1456.23 2081.54 1453.81 Q2082.26 1451.4 2083.28 1449.64 Q2085.96 1444.98 2089.89 1443.56 Q2093.81 1442.14 2097.7 1444.38 Q2099.54 1445.45 2100.8 1447.11 Q2102.05 1448.74 2103.24 1451.86 Q2103.54 1452.7 2104.77 1456.99 Q2105.99 1461.28 2108.16 1469.05 Z" fill="#000000" fill-rule="evenodd" fill-opacity="1" /><path clip-path="url(#clip840)" d="M2110.36 1443.33 L2116.6 1432.52 L2119.89 1434.42 L2113.65 1445.23 L2110.36 1443.33 Z" fill="#000000" fill-rule="evenodd" fill-opacity="1" /><path clip-path="url(#clip840)" d="M2110.92 1409.17 Q2109.11 1412.3 2111.29 1415.66 Q2113.45 1419 2119.63 1422.56 Q2125.78 1426.11 2129.77 1426.33 Q2133.75 1426.52 2135.56 1423.39 Q2137.37 1420.25 2135.21 1416.91 Q2133.04 1413.54 2126.88 1409.99 Q2120.71 1406.43 2116.73 1406.24 Q2112.74 1406.02 2110.92 1409.17 M2107.71 1407.32 Q2110.62 1402.28 2116.13 1401.94 Q2121.64 1401.57 2129.22 1405.94 Q2136.78 1410.31 2139.23 1415.27 Q2141.67 1420.21 2138.76 1425.24 Q2135.86 1430.28 2130.35 1430.65 Q2124.83 1430.99 2117.28 1426.63 Q2109.7 1422.26 2107.26 1417.32 Q2104.81 1412.35 2107.71 1407.32 Z" fill="#000000" fill-rule="evenodd" fill-opacity="1" /><path clip-path="url(#clip840)" d="M2139.21 1385.86 Q2141.51 1383.31 2144.41 1382.82 Q2147.33 1382.32 2150.21 1383.98 Q2154.64 1386.54 2155.31 1390.99 Q2155.98 1395.43 2152.73 1401.05 Q2151.65 1402.93 2150.11 1404.72 Q2148.6 1406.49 2146.63 1408.19 L2142.72 1405.93 Q2144.68 1404.82 2146.34 1403.1 Q2148 1401.39 2149.26 1399.2 Q2151.46 1395.39 2151.1 1392.54 Q2150.75 1389.67 2147.89 1388.01 Q2145.24 1386.48 2142.68 1387.49 Q2140.11 1388.47 2138.2 1391.78 L2136.19 1395.26 L2132.86 1393.34 L2134.97 1389.69 Q2136.69 1386.71 2136.42 1384.44 Q2136.13 1382.16 2133.89 1380.87 Q2131.58 1379.53 2129.41 1380.47 Q2127.23 1381.38 2125.47 1384.43 Q2124.51 1386.09 2123.77 1388.2 Q2123.03 1390.32 2122.48 1393.04 L2118.87 1390.96 Q2119.56 1388.28 2120.39 1386.09 Q2121.24 1383.88 2122.27 1382.1 Q2124.93 1377.49 2128.59 1376.02 Q2132.23 1374.53 2135.79 1376.59 Q2138.28 1378.03 2139.18 1380.45 Q2140.06 1382.85 2139.21 1385.86 Z" fill="#000000" fill-rule="evenodd" fill-opacity="1" /><polyline clip-path="url(#clip842)" style="stroke:#000000; stroke-linecap:butt; stroke-linejoin:round; stroke-width:2; stroke-opacity:0.1; fill:none" points="
  201.019,1108.38 2352.76,1108.38 
  "/>
<polyline clip-path="url(#clip842)" style="stroke:#000000; stroke-linecap:butt; stroke-linejoin:round; stroke-width:2; stroke-opacity:0.1; fill:none" points="
  201.019,834.501 2352.76,834.501 
  "/>
<polyline clip-path="url(#clip842)" style="stroke:#000000; stroke-linecap:butt; stroke-linejoin:round; stroke-width:2; stroke-opacity:0.1; fill:none" points="
  201.019,560.619 2352.76,560.619 
  "/>
<polyline clip-path="url(#clip842)" style="stroke:#000000; stroke-linecap:butt; stroke-linejoin:round; stroke-width:2; stroke-opacity:0.1; fill:none" points="
  201.019,286.737 2352.76,286.737 
  "/>
<polyline clip-path="url(#clip840)" style="stroke:#000000; stroke-linecap:butt; stroke-linejoin:round; stroke-width:4; stroke-opacity:1; fill:none" points="
  201.019,1348.2 201.019,47.2441 
  "/>
<polyline clip-path="url(#clip840)" style="stroke:#000000; stroke-linecap:butt; stroke-linejoin:round; stroke-width:4; stroke-opacity:1; fill:none" points="
  201.019,1108.38 219.917,1108.38 
  "/>
<polyline clip-path="url(#clip840)" style="stroke:#000000; stroke-linecap:butt; stroke-linejoin:round; stroke-width:4; stroke-opacity:1; fill:none" points="
  201.019,834.501 219.917,834.501 
  "/>
<polyline clip-path="url(#clip840)" style="stroke:#000000; stroke-linecap:butt; stroke-linejoin:round; stroke-width:4; stroke-opacity:1; fill:none" points="
  201.019,560.619 219.917,560.619 
  "/>
<polyline clip-path="url(#clip840)" style="stroke:#000000; stroke-linecap:butt; stroke-linejoin:round; stroke-width:4; stroke-opacity:1; fill:none" points="
  201.019,286.737 219.917,286.737 
  "/>
<path clip-path="url(#clip840)" d="M56.6171 1121.73 L72.9365 1121.73 L72.9365 1125.66 L50.9921 1125.66 L50.9921 1121.73 Q53.6541 1118.97 58.2375 1114.34 Q62.8439 1109.69 64.0245 1108.35 Q66.2698 1105.83 67.1494 1104.09 Q68.0522 1102.33 68.0522 1100.64 Q68.0522 1097.89 66.1078 1096.15 Q64.1865 1094.41 61.0847 1094.41 Q58.8856 1094.41 56.4319 1095.18 Q54.0014 1095.94 51.2236 1097.49 L51.2236 1092.77 Q54.0477 1091.64 56.5014 1091.06 Q58.955 1090.48 60.9921 1090.48 Q66.3624 1090.48 69.5568 1093.16 Q72.7513 1095.85 72.7513 1100.34 Q72.7513 1102.47 71.9411 1104.39 Q71.1541 1106.29 69.0476 1108.88 Q68.4689 1109.55 65.367 1112.77 Q62.2652 1115.96 56.6171 1121.73 Z" fill="#000000" fill-rule="evenodd" fill-opacity="1" /><path clip-path="url(#clip840)" d="M92.7512 1109.25 Q89.4178 1109.25 87.4966 1111.03 Q85.5984 1112.82 85.5984 1115.94 Q85.5984 1119.07 87.4966 1120.85 Q89.4178 1122.63 92.7512 1122.63 Q96.0845 1122.63 98.0058 1120.85 Q99.927 1119.04 99.927 1115.94 Q99.927 1112.82 98.0058 1111.03 Q96.1076 1109.25 92.7512 1109.25 M88.0753 1107.26 Q85.066 1106.52 83.3762 1104.46 Q81.7096 1102.4 81.7096 1099.44 Q81.7096 1095.29 84.6494 1092.89 Q87.6123 1090.48 92.7512 1090.48 Q97.9132 1090.48 100.853 1092.89 Q103.793 1095.29 103.793 1099.44 Q103.793 1102.4 102.103 1104.46 Q100.436 1106.52 97.4502 1107.26 Q100.83 1108.05 102.705 1110.34 Q104.603 1112.63 104.603 1115.94 Q104.603 1120.96 101.524 1123.65 Q98.4687 1126.33 92.7512 1126.33 Q87.0336 1126.33 83.9549 1123.65 Q80.8994 1120.96 80.8994 1115.94 Q80.8994 1112.63 82.7975 1110.34 Q84.6956 1108.05 88.0753 1107.26 M86.3623 1099.88 Q86.3623 1102.56 88.029 1104.07 Q89.7188 1105.57 92.7512 1105.57 Q95.7604 1105.57 97.4502 1104.07 Q99.1632 1102.56 99.1632 1099.88 Q99.1632 1097.19 97.4502 1095.69 Q95.7604 1094.18 92.7512 1094.18 Q89.7188 1094.18 88.029 1095.69 Q86.3623 1097.19 86.3623 1099.88 Z" fill="#000000" fill-rule="evenodd" fill-opacity="1" /><path clip-path="url(#clip840)" d="M112.959 1091.1 L131.316 1091.1 L131.316 1095.04 L117.242 1095.04 L117.242 1103.51 Q118.26 1103.16 119.279 1103 Q120.297 1102.82 121.316 1102.82 Q127.103 1102.82 130.482 1105.99 Q133.862 1109.16 133.862 1114.58 Q133.862 1120.15 130.39 1123.26 Q126.918 1126.33 120.598 1126.33 Q118.422 1126.33 116.154 1125.96 Q113.908 1125.59 111.501 1124.85 L111.501 1120.15 Q113.584 1121.29 115.807 1121.84 Q118.029 1122.4 120.506 1122.4 Q124.51 1122.4 126.848 1120.29 Q129.186 1118.19 129.186 1114.58 Q129.186 1110.96 126.848 1108.86 Q124.51 1106.75 120.506 1106.75 Q118.631 1106.75 116.756 1107.17 Q114.904 1107.58 112.959 1108.46 L112.959 1091.1 Z" fill="#000000" fill-rule="evenodd" fill-opacity="1" /><path clip-path="url(#clip840)" d="M153.075 1094.18 Q149.464 1094.18 147.635 1097.75 Q145.83 1101.29 145.83 1108.42 Q145.83 1115.52 147.635 1119.09 Q149.464 1122.63 153.075 1122.63 Q156.709 1122.63 158.515 1119.09 Q160.343 1115.52 160.343 1108.42 Q160.343 1101.29 158.515 1097.75 Q156.709 1094.18 153.075 1094.18 M153.075 1090.48 Q158.885 1090.48 161.941 1095.08 Q165.019 1099.67 165.019 1108.42 Q165.019 1117.14 161.941 1121.75 Q158.885 1126.33 153.075 1126.33 Q147.265 1126.33 144.186 1121.75 Q141.131 1117.14 141.131 1108.42 Q141.131 1099.67 144.186 1095.08 Q147.265 1090.48 153.075 1090.48 Z" fill="#000000" fill-rule="evenodd" fill-opacity="1" /><path clip-path="url(#clip840)" d="M56.6171 847.846 L72.9365 847.846 L72.9365 851.781 L50.9921 851.781 L50.9921 847.846 Q53.6541 845.091 58.2375 840.462 Q62.8439 835.809 64.0245 834.466 Q66.2698 831.943 67.1494 830.207 Q68.0522 828.448 68.0522 826.758 Q68.0522 824.004 66.1078 822.267 Q64.1865 820.531 61.0847 820.531 Q58.8856 820.531 56.4319 821.295 Q54.0014 822.059 51.2236 823.61 L51.2236 818.888 Q54.0477 817.754 56.5014 817.175 Q58.955 816.596 60.9921 816.596 Q66.3624 816.596 69.5568 819.281 Q72.7513 821.967 72.7513 826.457 Q72.7513 828.587 71.9411 830.508 Q71.1541 832.406 69.0476 834.999 Q68.4689 835.67 65.367 838.888 Q62.2652 842.082 56.6171 847.846 Z" fill="#000000" fill-rule="evenodd" fill-opacity="1" /><path clip-path="url(#clip840)" d="M82.8901 851.064 L82.8901 846.804 Q84.6494 847.638 86.4549 848.078 Q88.2604 848.517 89.9965 848.517 Q94.6262 848.517 97.0567 845.415 Q99.5104 842.29 99.8576 835.948 Q98.515 837.939 96.4548 839.003 Q94.3947 840.068 91.8947 840.068 Q86.7095 840.068 83.6771 836.943 Q80.6679 833.795 80.6679 828.355 Q80.6679 823.031 83.816 819.814 Q86.9642 816.596 92.1956 816.596 Q98.1909 816.596 101.339 821.203 Q104.51 825.786 104.51 834.536 Q104.51 842.707 100.621 847.591 Q96.7558 852.452 90.2049 852.452 Q88.4456 852.452 86.6401 852.105 Q84.8345 851.758 82.8901 851.064 M92.1956 836.411 Q95.3437 836.411 97.1724 834.258 Q99.0243 832.105 99.0243 828.355 Q99.0243 824.629 97.1724 822.476 Q95.3437 820.3 92.1956 820.3 Q89.0475 820.3 87.1956 822.476 Q85.3669 824.629 85.3669 828.355 Q85.3669 832.105 87.1956 834.258 Q89.0475 836.411 92.1956 836.411 Z" fill="#000000" fill-rule="evenodd" fill-opacity="1" /><path clip-path="url(#clip840)" d="M122.913 820.3 Q119.302 820.3 117.473 823.865 Q115.668 827.406 115.668 834.536 Q115.668 841.642 117.473 845.207 Q119.302 848.749 122.913 848.749 Q126.547 848.749 128.353 845.207 Q130.182 841.642 130.182 834.536 Q130.182 827.406 128.353 823.865 Q126.547 820.3 122.913 820.3 M122.913 816.596 Q128.723 816.596 131.779 821.203 Q134.857 825.786 134.857 834.536 Q134.857 843.263 131.779 847.869 Q128.723 852.452 122.913 852.452 Q117.103 852.452 114.024 847.869 Q110.969 843.263 110.969 834.536 Q110.969 825.786 114.024 821.203 Q117.103 816.596 122.913 816.596 Z" fill="#000000" fill-rule="evenodd" fill-opacity="1" /><path clip-path="url(#clip840)" d="M153.075 820.3 Q149.464 820.3 147.635 823.865 Q145.83 827.406 145.83 834.536 Q145.83 841.642 147.635 845.207 Q149.464 848.749 153.075 848.749 Q156.709 848.749 158.515 845.207 Q160.343 841.642 160.343 834.536 Q160.343 827.406 158.515 823.865 Q156.709 820.3 153.075 820.3 M153.075 816.596 Q158.885 816.596 161.941 821.203 Q165.019 825.786 165.019 834.536 Q165.019 843.263 161.941 847.869 Q158.885 852.452 153.075 852.452 Q147.265 852.452 144.186 847.869 Q141.131 843.263 141.131 834.536 Q141.131 825.786 144.186 821.203 Q147.265 816.596 153.075 816.596 Z" fill="#000000" fill-rule="evenodd" fill-opacity="1" /><path clip-path="url(#clip840)" d="M56.6171 573.964 L72.9365 573.964 L72.9365 577.899 L50.9921 577.899 L50.9921 573.964 Q53.6541 571.209 58.2375 566.58 Q62.8439 561.927 64.0245 560.584 Q66.2698 558.061 67.1494 556.325 Q68.0522 554.566 68.0522 552.876 Q68.0522 550.121 66.1078 548.385 Q64.1865 546.649 61.0847 546.649 Q58.8856 546.649 56.4319 547.413 Q54.0014 548.177 51.2236 549.728 L51.2236 545.006 Q54.0477 543.871 56.5014 543.293 Q58.955 542.714 60.9921 542.714 Q66.3624 542.714 69.5568 545.399 Q72.7513 548.084 72.7513 552.575 Q72.7513 554.705 71.9411 556.626 Q71.1541 558.524 69.0476 561.117 Q68.4689 561.788 65.367 565.005 Q62.2652 568.2 56.6171 573.964 Z" fill="#000000" fill-rule="evenodd" fill-opacity="1" /><path clip-path="url(#clip840)" d="M82.8901 577.181 L82.8901 572.922 Q84.6494 573.755 86.4549 574.195 Q88.2604 574.635 89.9965 574.635 Q94.6262 574.635 97.0567 571.533 Q99.5104 568.408 99.8576 562.066 Q98.515 564.056 96.4548 565.121 Q94.3947 566.186 91.8947 566.186 Q86.7095 566.186 83.6771 563.061 Q80.6679 559.913 80.6679 554.473 Q80.6679 549.149 83.816 545.931 Q86.9642 542.714 92.1956 542.714 Q98.1909 542.714 101.339 547.32 Q104.51 551.904 104.51 560.654 Q104.51 568.825 100.621 573.709 Q96.7558 578.57 90.2049 578.57 Q88.4456 578.57 86.6401 578.223 Q84.8345 577.876 82.8901 577.181 M92.1956 562.529 Q95.3437 562.529 97.1724 560.376 Q99.0243 558.223 99.0243 554.473 Q99.0243 550.746 97.1724 548.594 Q95.3437 546.418 92.1956 546.418 Q89.0475 546.418 87.1956 548.594 Q85.3669 550.746 85.3669 554.473 Q85.3669 558.223 87.1956 560.376 Q89.0475 562.529 92.1956 562.529 Z" fill="#000000" fill-rule="evenodd" fill-opacity="1" /><path clip-path="url(#clip840)" d="M112.959 543.339 L131.316 543.339 L131.316 547.274 L117.242 547.274 L117.242 555.746 Q118.26 555.399 119.279 555.237 Q120.297 555.052 121.316 555.052 Q127.103 555.052 130.482 558.223 Q133.862 561.394 133.862 566.811 Q133.862 572.39 130.39 575.492 Q126.918 578.57 120.598 578.57 Q118.422 578.57 116.154 578.2 Q113.908 577.829 111.501 577.089 L111.501 572.39 Q113.584 573.524 115.807 574.079 Q118.029 574.635 120.506 574.635 Q124.51 574.635 126.848 572.529 Q129.186 570.422 129.186 566.811 Q129.186 563.2 126.848 561.093 Q124.51 558.987 120.506 558.987 Q118.631 558.987 116.756 559.404 Q114.904 559.82 112.959 560.7 L112.959 543.339 Z" fill="#000000" fill-rule="evenodd" fill-opacity="1" /><path clip-path="url(#clip840)" d="M153.075 546.418 Q149.464 546.418 147.635 549.982 Q145.83 553.524 145.83 560.654 Q145.83 567.76 147.635 571.325 Q149.464 574.867 153.075 574.867 Q156.709 574.867 158.515 571.325 Q160.343 567.76 160.343 560.654 Q160.343 553.524 158.515 549.982 Q156.709 546.418 153.075 546.418 M153.075 542.714 Q158.885 542.714 161.941 547.32 Q165.019 551.904 165.019 560.654 Q165.019 569.38 161.941 573.987 Q158.885 578.57 153.075 578.57 Q147.265 578.57 144.186 573.987 Q141.131 569.38 141.131 560.654 Q141.131 551.904 144.186 547.32 Q147.265 542.714 153.075 542.714 Z" fill="#000000" fill-rule="evenodd" fill-opacity="1" /><path clip-path="url(#clip840)" d="M66.7559 285.382 Q70.1124 286.1 71.9874 288.369 Q73.8855 290.637 73.8855 293.97 Q73.8855 299.086 70.367 301.887 Q66.8485 304.688 60.3671 304.688 Q58.1912 304.688 55.8764 304.248 Q53.5847 303.831 51.131 302.975 L51.131 298.461 Q53.0754 299.595 55.3903 300.174 Q57.7051 300.753 60.2282 300.753 Q64.6263 300.753 66.918 299.017 Q69.2328 297.281 69.2328 293.97 Q69.2328 290.915 67.08 289.202 Q64.9504 287.466 61.131 287.466 L57.1032 287.466 L57.1032 283.623 L61.3161 283.623 Q64.7652 283.623 66.5939 282.257 Q68.4226 280.869 68.4226 278.276 Q68.4226 275.614 66.5245 274.202 Q64.6495 272.767 61.131 272.767 Q59.2097 272.767 57.0106 273.183 Q54.8115 273.6 52.1727 274.48 L52.1727 270.313 Q54.8347 269.572 57.1495 269.202 Q59.4875 268.832 61.5476 268.832 Q66.8717 268.832 69.9735 271.262 Q73.0753 273.67 73.0753 277.79 Q73.0753 280.66 71.4318 282.651 Q69.7883 284.619 66.7559 285.382 Z" fill="#000000" fill-rule="evenodd" fill-opacity="1" /><path clip-path="url(#clip840)" d="M92.7512 272.535 Q89.1401 272.535 87.3114 276.1 Q85.5058 279.642 85.5058 286.771 Q85.5058 293.878 87.3114 297.443 Q89.1401 300.984 92.7512 300.984 Q96.3854 300.984 98.1909 297.443 Q100.02 293.878 100.02 286.771 Q100.02 279.642 98.1909 276.1 Q96.3854 272.535 92.7512 272.535 M92.7512 268.832 Q98.5613 268.832 101.617 273.438 Q104.696 278.021 104.696 286.771 Q104.696 295.498 101.617 300.105 Q98.5613 304.688 92.7512 304.688 Q86.941 304.688 83.8623 300.105 Q80.8068 295.498 80.8068 286.771 Q80.8068 278.021 83.8623 273.438 Q86.941 268.832 92.7512 268.832 Z" fill="#000000" fill-rule="evenodd" fill-opacity="1" /><path clip-path="url(#clip840)" d="M122.913 272.535 Q119.302 272.535 117.473 276.1 Q115.668 279.642 115.668 286.771 Q115.668 293.878 117.473 297.443 Q119.302 300.984 122.913 300.984 Q126.547 300.984 128.353 297.443 Q130.182 293.878 130.182 286.771 Q130.182 279.642 128.353 276.1 Q126.547 272.535 122.913 272.535 M122.913 268.832 Q128.723 268.832 131.779 273.438 Q134.857 278.021 134.857 286.771 Q134.857 295.498 131.779 300.105 Q128.723 304.688 122.913 304.688 Q117.103 304.688 114.024 300.105 Q110.969 295.498 110.969 286.771 Q110.969 278.021 114.024 273.438 Q117.103 268.832 122.913 268.832 Z" fill="#000000" fill-rule="evenodd" fill-opacity="1" /><path clip-path="url(#clip840)" d="M153.075 272.535 Q149.464 272.535 147.635 276.1 Q145.83 279.642 145.83 286.771 Q145.83 293.878 147.635 297.443 Q149.464 300.984 153.075 300.984 Q156.709 300.984 158.515 297.443 Q160.343 293.878 160.343 286.771 Q160.343 279.642 158.515 276.1 Q156.709 272.535 153.075 272.535 M153.075 268.832 Q158.885 268.832 161.941 273.438 Q165.019 278.021 165.019 286.771 Q165.019 295.498 161.941 300.105 Q158.885 304.688 153.075 304.688 Q147.265 304.688 144.186 300.105 Q141.131 295.498 141.131 286.771 Q141.131 278.021 144.186 273.438 Q147.265 268.832 153.075 268.832 Z" fill="#000000" fill-rule="evenodd" fill-opacity="1" /><path clip-path="url(#clip842)" d="
M307.821 383.144 L307.821 357.782 L261.917 357.782 L261.917 286.737 L307.821 286.737 L307.821 173.404 L307.821 286.737 L353.724 286.737 L353.724 357.782 L307.821 357.782 
  L307.821 383.144  Z
  " fill="#ff0000" fill-rule="evenodd" fill-opacity="1"/>
<polyline clip-path="url(#clip842)" style="stroke:#ff0000; stroke-linecap:butt; stroke-linejoin:round; stroke-width:2; stroke-opacity:1; fill:none" points="
  307.821,383.144 307.821,357.782 261.917,357.782 261.917,286.737 307.821,286.737 307.821,173.404 307.821,286.737 353.724,286.737 353.724,357.782 307.821,357.782 
  307.821,383.144 
  "/>
<path clip-path="url(#clip842)" d="
M409.828 559.853 L409.828 369.066 L363.925 369.066 L363.925 314.563 L409.828 314.563 L409.828 245.27 L409.828 314.563 L455.731 314.563 L455.731 369.066 L409.828 369.066 
  L409.828 559.853  Z
  " fill="#ff0000" fill-rule="evenodd" fill-opacity="1"/>
<polyline clip-path="url(#clip842)" style="stroke:#ff0000; stroke-linecap:butt; stroke-linejoin:round; stroke-width:2; stroke-opacity:1; fill:none" points="
  409.828,559.853 409.828,369.066 363.925,369.066 363.925,314.563 409.828,314.563 409.828,245.27 409.828,314.563 455.731,314.563 455.731,369.066 409.828,369.066 
  409.828,559.853 
  "/>
<path clip-path="url(#clip842)" d="
M511.835 798.896 L511.835 656.368 L465.932 656.368 L465.932 504.774 L511.835 504.774 L511.835 429.155 L511.835 504.774 L557.738 504.774 L557.738 656.368 L511.835 656.368 
  L511.835 798.896  Z
  " fill="#ff0000" fill-rule="evenodd" fill-opacity="1"/>
<polyline clip-path="url(#clip842)" style="stroke:#ff0000; stroke-linecap:butt; stroke-linejoin:round; stroke-width:2; stroke-opacity:1; fill:none" points="
  511.835,798.896 511.835,656.368 465.932,656.368 465.932,504.774 511.835,504.774 511.835,429.155 511.835,504.774 557.738,504.774 557.738,656.368 511.835,656.368 
  511.835,798.896 
  "/>
<path clip-path="url(#clip842)" d="
M613.842 648.864 L613.842 643.003 L567.939 643.003 L567.939 603.674 L613.842 603.674 L613.842 450.82 L613.842 603.674 L659.745 603.674 L659.745 643.003 L613.842 643.003 
  L613.842 648.864  Z
  " fill="#ff0000" fill-rule="evenodd" fill-opacity="1"/>
<polyline clip-path="url(#clip842)" style="stroke:#ff0000; stroke-linecap:butt; stroke-linejoin:round; stroke-width:2; stroke-opacity:1; fill:none" points="
  613.842,648.864 613.842,643.003 567.939,643.003 567.939,603.674 613.842,603.674 613.842,450.82 613.842,603.674 659.745,603.674 659.745,643.003 613.842,643.003 
  613.842,648.864 
  "/>
<path clip-path="url(#clip842)" d="
M715.849 675.211 L715.849 524.303 L669.946 524.303 L669.946 325.574 L715.849 325.574 L715.849 302.129 L715.849 325.574 L761.752 325.574 L761.752 524.303 L715.849 524.303 
  L715.849 675.211  Z
  " fill="#008000" fill-rule="evenodd" fill-opacity="1"/>
<polyline clip-path="url(#clip842)" style="stroke:#008000; stroke-linecap:butt; stroke-linejoin:round; stroke-width:2; stroke-opacity:1; fill:none" points="
  715.849,675.211 715.849,524.303 669.946,524.303 669.946,325.574 715.849,325.574 715.849,302.129 715.849,325.574 761.752,325.574 761.752,524.303 715.849,524.303 
  715.849,675.211 
  "/>
<path clip-path="url(#clip842)" d="
M817.856 434.359 L817.856 353.783 L771.953 353.783 L771.953 286.737 L817.856 286.737 L817.856 234.48 L817.856 286.737 L863.759 286.737 L863.759 353.783 L817.856 353.783 
  L817.856 434.359  Z
  " fill="#ff0000" fill-rule="evenodd" fill-opacity="1"/>
<polyline clip-path="url(#clip842)" style="stroke:#ff0000; stroke-linecap:butt; stroke-linejoin:round; stroke-width:2; stroke-opacity:1; fill:none" points="
  817.856,434.359 817.856,353.783 771.953,353.783 771.953,286.737 817.856,286.737 817.856,234.48 817.856,286.737 863.759,286.737 863.759,353.783 817.856,353.783 
  817.856,434.359 
  "/>
<path clip-path="url(#clip842)" d="
M919.863 467.499 L919.863 387.963 L873.96 387.963 L873.96 377.611 L919.863 377.611 L919.863 305.087 L919.863 377.611 L965.766 377.611 L965.766 387.963 L919.863 387.963 
  L919.863 467.499  Z
  " fill="#ff0000" fill-rule="evenodd" fill-opacity="1"/>
<polyline clip-path="url(#clip842)" style="stroke:#ff0000; stroke-linecap:butt; stroke-linejoin:round; stroke-width:2; stroke-opacity:1; fill:none" points="
  919.863,467.499 919.863,387.963 873.96,387.963 873.96,377.611 919.863,377.611 919.863,305.087 919.863,377.611 965.766,377.611 965.766,387.963 919.863,387.963 
  919.863,467.499 
  "/>
<path clip-path="url(#clip842)" d="
M1021.87 444.164 L1021.87 389.497 L975.967 389.497 L975.967 371.201 L1021.87 371.201 L1021.87 327.709 L1021.87 371.201 L1067.77 371.201 L1067.77 389.497 L1021.87 389.497 
  L1021.87 444.164  Z
  " fill="#ff0000" fill-rule="evenodd" fill-opacity="1"/>
<polyline clip-path="url(#clip842)" style="stroke:#ff0000; stroke-linecap:butt; stroke-linejoin:round; stroke-width:2; stroke-opacity:1; fill:none" points="
  1021.87,444.164 1021.87,389.497 975.967,389.497 975.967,371.201 1021.87,371.201 1021.87,327.709 1021.87,371.201 1067.77,371.201 1067.77,389.497 1021.87,389.497 
  1021.87,444.164 
  "/>
<path clip-path="url(#clip842)" d="
M1123.88 396.454 L1123.88 380.295 L1077.97 380.295 L1077.97 209.064 L1123.88 209.064 L1123.88 110.357 L1123.88 209.064 L1169.78 209.064 L1169.78 380.295 L1123.88 380.295 
  L1123.88 396.454  Z
  " fill="#008000" fill-rule="evenodd" fill-opacity="1"/>
<polyline clip-path="url(#clip842)" style="stroke:#008000; stroke-linecap:butt; stroke-linejoin:round; stroke-width:2; stroke-opacity:1; fill:none" points="
  1123.88,396.454 1123.88,380.295 1077.97,380.295 1077.97,209.064 1123.88,209.064 1123.88,110.357 1123.88,209.064 1169.78,209.064 1169.78,380.295 1123.88,380.295 
  1123.88,396.454 
  "/>
<path clip-path="url(#clip842)" d="
M1225.88 299.061 L1225.88 291.94 L1179.98 291.94 L1179.98 177.184 L1225.88 177.184 L1225.88 84.0637 L1225.88 177.184 L1271.79 177.184 L1271.79 291.94 L1225.88 291.94 
  L1225.88 299.061  Z
  " fill="#ff0000" fill-rule="evenodd" fill-opacity="1"/>
<polyline clip-path="url(#clip842)" style="stroke:#ff0000; stroke-linecap:butt; stroke-linejoin:round; stroke-width:2; stroke-opacity:1; fill:none" points="
  1225.88,299.061 1225.88,291.94 1179.98,291.94 1179.98,177.184 1225.88,177.184 1225.88,84.0637 1225.88,177.184 1271.79,177.184 1271.79,291.94 1225.88,291.94 
  1225.88,299.061 
  "/>
<path clip-path="url(#clip842)" d="
M1327.89 614.792 L1327.89 606.795 L1281.99 606.795 L1281.99 271.208 L1327.89 271.208 L1327.89 205.175 L1327.89 271.208 L1373.79 271.208 L1373.79 606.795 L1327.89 606.795 
  L1327.89 614.792  Z
  " fill="#ff0000" fill-rule="evenodd" fill-opacity="1"/>
<polyline clip-path="url(#clip842)" style="stroke:#ff0000; stroke-linecap:butt; stroke-linejoin:round; stroke-width:2; stroke-opacity:1; fill:none" points="
  1327.89,614.792 1327.89,606.795 1281.99,606.795 1281.99,271.208 1327.89,271.208 1327.89,205.175 1327.89,271.208 1373.79,271.208 1373.79,606.795 1327.89,606.795 
  1327.89,614.792 
  "/>
<path clip-path="url(#clip842)" d="
M1429.9 846.607 L1429.9 642.017 L1383.99 642.017 L1383.99 603.016 L1429.9 603.016 L1429.9 539.366 L1429.9 603.016 L1475.8 603.016 L1475.8 642.017 L1429.9 642.017 
  L1429.9 846.607  Z
  " fill="#ff0000" fill-rule="evenodd" fill-opacity="1"/>
<polyline clip-path="url(#clip842)" style="stroke:#ff0000; stroke-linecap:butt; stroke-linejoin:round; stroke-width:2; stroke-opacity:1; fill:none" points="
  1429.9,846.607 1429.9,642.017 1383.99,642.017 1383.99,603.016 1429.9,603.016 1429.9,539.366 1429.9,603.016 1475.8,603.016 1475.8,642.017 1429.9,642.017 
  1429.9,846.607 
  "/>
<path clip-path="url(#clip842)" d="
M1531.91 812.7 L1531.91 686.605 L1486 686.605 L1486 646.344 L1531.91 646.344 L1531.91 615.395 L1531.91 646.344 L1577.81 646.344 L1577.81 686.605 L1531.91 686.605 
  L1531.91 812.7  Z
  " fill="#008000" fill-rule="evenodd" fill-opacity="1"/>
<polyline clip-path="url(#clip842)" style="stroke:#008000; stroke-linecap:butt; stroke-linejoin:round; stroke-width:2; stroke-opacity:1; fill:none" points="
  1531.91,812.7 1531.91,686.605 1486,686.605 1486,646.344 1531.91,646.344 1531.91,615.395 1531.91,646.344 1577.81,646.344 1577.81,686.605 1531.91,686.605 
  1531.91,812.7 
  "/>
<path clip-path="url(#clip842)" d="
M1633.91 1109.97 L1633.91 1074.86 L1588.01 1074.86 L1588.01 832.803 L1633.91 832.803 L1633.91 801.964 L1633.91 832.803 L1679.82 832.803 L1679.82 1074.86 L1633.91 1074.86 
  L1633.91 1109.97  Z
  " fill="#ff0000" fill-rule="evenodd" fill-opacity="1"/>
<polyline clip-path="url(#clip842)" style="stroke:#ff0000; stroke-linecap:butt; stroke-linejoin:round; stroke-width:2; stroke-opacity:1; fill:none" points="
  1633.91,1109.97 1633.91,1074.86 1588.01,1074.86 1588.01,832.803 1633.91,832.803 1633.91,801.964 1633.91,832.803 1679.82,832.803 1679.82,1074.86 1633.91,1074.86 
  1633.91,1109.97 
  "/>
<path clip-path="url(#clip842)" d="
M1735.92 911.353 L1735.92 911.353 L1690.02 911.353 L1690.02 712.459 L1735.92 712.459 L1735.92 630.514 L1735.92 712.459 L1781.82 712.459 L1781.82 911.353 L1735.92 911.353 
  L1735.92 911.353  Z
  " fill="#008000" fill-rule="evenodd" fill-opacity="1"/>
<polyline clip-path="url(#clip842)" style="stroke:#008000; stroke-linecap:butt; stroke-linejoin:round; stroke-width:2; stroke-opacity:1; fill:none" points="
  1735.92,911.353 1735.92,911.353 1690.02,911.353 1690.02,712.459 1735.92,712.459 1735.92,630.514 1735.92,712.459 1781.82,712.459 1781.82,911.353 1735.92,911.353 
  
  "/>
<path clip-path="url(#clip842)" d="
M1837.93 1155.93 L1837.93 1113.64 L1792.02 1113.64 L1792.02 785.176 L1837.93 785.176 L1837.93 656.094 L1837.93 785.176 L1883.83 785.176 L1883.83 1113.64 L1837.93 1113.64 
  L1837.93 1155.93  Z
  " fill="#ff0000" fill-rule="evenodd" fill-opacity="1"/>
<polyline clip-path="url(#clip842)" style="stroke:#ff0000; stroke-linecap:butt; stroke-linejoin:round; stroke-width:2; stroke-opacity:1; fill:none" points="
  1837.93,1155.93 1837.93,1113.64 1792.02,1113.64 1792.02,785.176 1837.93,785.176 1837.93,656.094 1837.93,785.176 1883.83,785.176 1883.83,1113.64 1837.93,1113.64 
  1837.93,1155.93 
  "/>
<path clip-path="url(#clip842)" d="
M1939.93 1217.94 L1939.93 1205.01 L1894.03 1205.01 L1894.03 920.774 L1939.93 920.774 L1939.93 670.265 L1939.93 920.774 L1985.84 920.774 L1985.84 1205.01 L1939.93 1205.01 
  L1939.93 1217.94  Z
  " fill="#ff0000" fill-rule="evenodd" fill-opacity="1"/>
<polyline clip-path="url(#clip842)" style="stroke:#ff0000; stroke-linecap:butt; stroke-linejoin:round; stroke-width:2; stroke-opacity:1; fill:none" points="
  1939.93,1217.94 1939.93,1205.01 1894.03,1205.01 1894.03,920.774 1939.93,920.774 1939.93,670.265 1939.93,920.774 1985.84,920.774 1985.84,1205.01 1939.93,1205.01 
  1939.93,1217.94 
  "/>
<path clip-path="url(#clip842)" d="
M2041.94 1274.69 L2041.94 1182.44 L1996.04 1182.44 L1996.04 968.539 L2041.94 968.539 L2041.94 870.106 L2041.94 968.539 L2087.84 968.539 L2087.84 1182.44 L2041.94 1182.44 
  L2041.94 1274.69  Z
  " fill="#008000" fill-rule="evenodd" fill-opacity="1"/>
<polyline clip-path="url(#clip842)" style="stroke:#008000; stroke-linecap:butt; stroke-linejoin:round; stroke-width:2; stroke-opacity:1; fill:none" points="
  2041.94,1274.69 2041.94,1182.44 1996.04,1182.44 1996.04,968.539 2041.94,968.539 2041.94,870.106 2041.94,968.539 2087.84,968.539 2087.84,1182.44 2041.94,1182.44 
  2041.94,1274.69 
  "/>
<path clip-path="url(#clip842)" d="
M2143.95 1256.28 L2143.95 1106.14 L2098.04 1106.14 L2098.04 889.771 L2143.95 889.771 L2143.95 811.166 L2143.95 889.771 L2189.85 889.771 L2189.85 1106.14 L2143.95 1106.14 
  L2143.95 1256.28  Z
  " fill="#ff0000" fill-rule="evenodd" fill-opacity="1"/>
<polyline clip-path="url(#clip842)" style="stroke:#ff0000; stroke-linecap:butt; stroke-linejoin:round; stroke-width:2; stroke-opacity:1; fill:none" points="
  2143.95,1256.28 2143.95,1106.14 2098.04,1106.14 2098.04,889.771 2143.95,889.771 2143.95,811.166 2143.95,889.771 2189.85,889.771 2189.85,1106.14 2143.95,1106.14 
  2143.95,1256.28 
  "/>
<path clip-path="url(#clip842)" d="
M2245.95 1311.39 L2245.95 990.724 L2200.05 990.724 L2200.05 966.348 L2245.95 966.348 L2245.95 905.546 L2245.95 966.348 L2291.86 966.348 L2291.86 990.724 L2245.95 990.724 
  L2245.95 1311.39  Z
  " fill="#008000" fill-rule="evenodd" fill-opacity="1"/>
<polyline clip-path="url(#clip842)" style="stroke:#008000; stroke-linecap:butt; stroke-linejoin:round; stroke-width:2; stroke-opacity:1; fill:none" points="
  2245.95,1311.39 2245.95,990.724 2200.05,990.724 2200.05,966.348 2245.95,966.348 2245.95,905.546 2245.95,966.348 2291.86,966.348 2291.86,990.724 2245.95,990.724 
  2245.95,1311.39 
  "/>
<circle clip-path="url(#clip842)" cx="307.821" cy="322.259" r="3" fill="#ff0000" fill-rule="evenodd" fill-opacity="1" stroke="#000000" stroke-opacity="1" stroke-width="0"/>
<circle clip-path="url(#clip842)" cx="409.828" cy="341.815" r="3" fill="#ff0000" fill-rule="evenodd" fill-opacity="1" stroke="#000000" stroke-opacity="1" stroke-width="0"/>
<circle clip-path="url(#clip842)" cx="511.835" cy="580.571" r="3" fill="#ff0000" fill-rule="evenodd" fill-opacity="1" stroke="#000000" stroke-opacity="1" stroke-width="0"/>
<circle clip-path="url(#clip842)" cx="613.842" cy="623.338" r="3" fill="#ff0000" fill-rule="evenodd" fill-opacity="1" stroke="#000000" stroke-opacity="1" stroke-width="0"/>
<circle clip-path="url(#clip842)" cx="715.849" cy="424.938" r="3" fill="#008000" fill-rule="evenodd" fill-opacity="1" stroke="#000000" stroke-opacity="1" stroke-width="0"/>
<circle clip-path="url(#clip842)" cx="817.856" cy="320.26" r="3" fill="#ff0000" fill-rule="evenodd" fill-opacity="1" stroke="#000000" stroke-opacity="1" stroke-width="0"/>
<circle clip-path="url(#clip842)" cx="919.863" cy="382.787" r="3" fill="#ff0000" fill-rule="evenodd" fill-opacity="1" stroke="#000000" stroke-opacity="1" stroke-width="0"/>
<circle clip-path="url(#clip842)" cx="1021.87" cy="380.349" r="3" fill="#ff0000" fill-rule="evenodd" fill-opacity="1" stroke="#000000" stroke-opacity="1" stroke-width="0"/>
<circle clip-path="url(#clip842)" cx="1123.88" cy="294.68" r="3" fill="#008000" fill-rule="evenodd" fill-opacity="1" stroke="#000000" stroke-opacity="1" stroke-width="0"/>
<circle clip-path="url(#clip842)" cx="1225.88" cy="234.562" r="3" fill="#ff0000" fill-rule="evenodd" fill-opacity="1" stroke="#000000" stroke-opacity="1" stroke-width="0"/>
<circle clip-path="url(#clip842)" cx="1327.89" cy="439.001" r="3" fill="#ff0000" fill-rule="evenodd" fill-opacity="1" stroke="#000000" stroke-opacity="1" stroke-width="0"/>
<circle clip-path="url(#clip842)" cx="1429.9" cy="622.517" r="3" fill="#ff0000" fill-rule="evenodd" fill-opacity="1" stroke="#000000" stroke-opacity="1" stroke-width="0"/>
<circle clip-path="url(#clip842)" cx="1531.91" cy="666.474" r="3" fill="#008000" fill-rule="evenodd" fill-opacity="1" stroke="#000000" stroke-opacity="1" stroke-width="0"/>
<circle clip-path="url(#clip842)" cx="1633.91" cy="953.831" r="3" fill="#ff0000" fill-rule="evenodd" fill-opacity="1" stroke="#000000" stroke-opacity="1" stroke-width="0"/>
<circle clip-path="url(#clip842)" cx="1735.92" cy="811.906" r="3" fill="#008000" fill-rule="evenodd" fill-opacity="1" stroke="#000000" stroke-opacity="1" stroke-width="0"/>
<circle clip-path="url(#clip842)" cx="1837.93" cy="949.409" r="3" fill="#ff0000" fill-rule="evenodd" fill-opacity="1" stroke="#000000" stroke-opacity="1" stroke-width="0"/>
<circle clip-path="url(#clip842)" cx="1939.93" cy="1062.89" r="3" fill="#ff0000" fill-rule="evenodd" fill-opacity="1" stroke="#000000" stroke-opacity="1" stroke-width="0"/>
<circle clip-path="url(#clip842)" cx="2041.94" cy="1075.49" r="3" fill="#008000" fill-rule="evenodd" fill-opacity="1" stroke="#000000" stroke-opacity="1" stroke-width="0"/>
<circle clip-path="url(#clip842)" cx="2143.95" cy="997.955" r="3" fill="#ff0000" fill-rule="evenodd" fill-opacity="1" stroke="#000000" stroke-opacity="1" stroke-width="0"/>
<circle clip-path="url(#clip842)" cx="2245.95" cy="978.536" r="3" fill="#008000" fill-rule="evenodd" fill-opacity="1" stroke="#000000" stroke-opacity="1" stroke-width="0"/>
</svg>
