<?xml version="1.0" encoding="utf-8"?>
<svg xmlns="http://www.w3.org/2000/svg" xmlns:xlink="http://www.w3.org/1999/xlink" width="600" height="400" viewBox="0 0 2400 1600">
<defs>
  <clipPath id="clip880">
    <rect x="0" y="0" width="2400" height="1600"/>
  </clipPath>
</defs>
<path clip-path="url(#clip880)" d="
M0 1600 L2400 1600 L2400 0 L0 0  Z
  " fill="#ffffff" fill-rule="evenodd" fill-opacity="1"/>
<defs>
  <clipPath id="clip881">
    <rect x="480" y="0" width="1681" height="1600"/>
  </clipPath>
</defs>
<path clip-path="url(#clip880)" d="
M187.617 1486.45 L2352.76 1486.45 L2352.76 47.2441 L187.617 47.2441  Z
  " fill="#ffffff" fill-rule="evenodd" fill-opacity="1"/>
<defs>
  <clipPath id="clip882">
    <rect x="187" y="47" width="2166" height="1440"/>
  </clipPath>
</defs>
<polyline clip-path="url(#clip882)" style="stroke:#000000; stroke-width:2; stroke-opacity:0.1; fill:none" points="
  248.894,1486.45 248.894,47.2441 
  "/>
<polyline clip-path="url(#clip882)" style="stroke:#000000; stroke-width:2; stroke-opacity:0.1; fill:none" points="
  776.013,1486.45 776.013,47.2441 
  "/>
<polyline clip-path="url(#clip882)" style="stroke:#000000; stroke-width:2; stroke-opacity:0.1; fill:none" points="
  1303.13,1486.45 1303.13,47.2441 
  "/>
<polyline clip-path="url(#clip882)" style="stroke:#000000; stroke-width:2; stroke-opacity:0.1; fill:none" points="
  1830.25,1486.45 1830.25,47.2441 
  "/>
<polyline clip-path="url(#clip882)" style="stroke:#000000; stroke-width:2; stroke-opacity:0.1; fill:none" points="
  187.617,1231.58 2352.76,1231.58 
  "/>
<polyline clip-path="url(#clip882)" style="stroke:#000000; stroke-width:2; stroke-opacity:0.1; fill:none" points="
  187.617,976.287 2352.76,976.287 
  "/>
<polyline clip-path="url(#clip882)" style="stroke:#000000; stroke-width:2; stroke-opacity:0.1; fill:none" points="
  187.617,720.996 2352.76,720.996 
  "/>
<polyline clip-path="url(#clip882)" style="stroke:#000000; stroke-width:2; stroke-opacity:0.1; fill:none" points="
  187.617,465.705 2352.76,465.705 
  "/>
<polyline clip-path="url(#clip882)" style="stroke:#000000; stroke-width:2; stroke-opacity:0.1; fill:none" points="
  187.617,210.414 2352.76,210.414 
  "/>
<polyline clip-path="url(#clip880)" style="stroke:#000000; stroke-width:4; stroke-opacity:1; fill:none" points="
  187.617,1486.45 2352.76,1486.45 
  "/>
<polyline clip-path="url(#clip880)" style="stroke:#000000; stroke-width:4; stroke-opacity:1; fill:none" points="
  187.617,1486.45 187.617,47.2441 
  "/>
<polyline clip-path="url(#clip880)" style="stroke:#000000; stroke-width:4; stroke-opacity:1; fill:none" points="
  248.894,1486.45 248.894,1469.18 
  "/>
<polyline clip-path="url(#clip880)" style="stroke:#000000; stroke-width:4; stroke-opacity:1; fill:none" points="
  776.013,1486.45 776.013,1469.18 
  "/>
<polyline clip-path="url(#clip880)" style="stroke:#000000; stroke-width:4; stroke-opacity:1; fill:none" points="
  1303.13,1486.45 1303.13,1469.18 
  "/>
<polyline clip-path="url(#clip880)" style="stroke:#000000; stroke-width:4; stroke-opacity:1; fill:none" points="
  1830.25,1486.45 1830.25,1469.18 
  "/>
<polyline clip-path="url(#clip880)" style="stroke:#000000; stroke-width:4; stroke-opacity:1; fill:none" points="
  187.617,1231.58 213.598,1231.58 
  "/>
<polyline clip-path="url(#clip880)" style="stroke:#000000; stroke-width:4; stroke-opacity:1; fill:none" points="
  187.617,976.287 213.598,976.287 
  "/>
<polyline clip-path="url(#clip880)" style="stroke:#000000; stroke-width:4; stroke-opacity:1; fill:none" points="
  187.617,720.996 213.598,720.996 
  "/>
<polyline clip-path="url(#clip880)" style="stroke:#000000; stroke-width:4; stroke-opacity:1; fill:none" points="
  187.617,465.705 213.598,465.705 
  "/>
<polyline clip-path="url(#clip880)" style="stroke:#000000; stroke-width:4; stroke-opacity:1; fill:none" points="
  187.617,210.414 213.598,210.414 
  "/>
<path clip-path="url(#clip880)" d="M 0 0 M136.395 1535.98 L152.714 1535.98 L152.714 1539.92 L130.77 1539.92 L130.77 1535.98 Q133.432 1533.23 138.015 1528.6 Q142.622 1523.95 143.802 1522.61 Q146.047 1520.08 146.927 1518.35 Q147.83 1516.59 147.83 1514.9 Q147.83 1512.14 145.885 1510.41 Q143.964 1508.67 140.862 1508.67 Q138.663 1508.67 136.21 1509.43 Q133.779 1510.2 131.001 1511.75 L131.001 1507.03 Q133.825 1505.89 136.279 1505.31 Q138.733 1504.73 140.77 1504.73 Q146.14 1504.73 149.334 1507.42 Q152.529 1510.11 152.529 1514.6 Q152.529 1516.73 151.719 1518.65 Q150.932 1520.54 148.825 1523.14 Q148.247 1523.81 145.145 1527.03 Q142.043 1530.22 136.395 1535.98 Z" fill="#000000" fill-rule="evenodd" fill-opacity="1" /><path clip-path="url(#clip880)" d="M 0 0 M167.783 1508.44 Q164.172 1508.44 162.344 1512 Q160.538 1515.55 160.538 1522.67 Q160.538 1529.78 162.344 1533.35 Q164.172 1536.89 167.783 1536.89 Q171.418 1536.89 173.223 1533.35 Q175.052 1529.78 175.052 1522.67 Q175.052 1515.55 173.223 1512 Q171.418 1508.44 167.783 1508.44 M167.783 1504.73 Q173.594 1504.73 176.649 1509.34 Q179.728 1513.92 179.728 1522.67 Q179.728 1531.4 176.649 1536.01 Q173.594 1540.59 167.783 1540.59 Q161.973 1540.59 158.895 1536.01 Q155.839 1531.4 155.839 1522.67 Q155.839 1513.92 158.895 1509.34 Q161.973 1504.73 167.783 1504.73 Z" fill="#000000" fill-rule="evenodd" fill-opacity="1" /><path clip-path="url(#clip880)" d="M 0 0 M188.825 1535.98 L205.144 1535.98 L205.144 1539.92 L183.2 1539.92 L183.2 1535.98 Q185.862 1533.23 190.445 1528.6 Q195.052 1523.95 196.232 1522.61 Q198.478 1520.08 199.357 1518.35 Q200.26 1516.59 200.26 1514.9 Q200.26 1512.14 198.316 1510.41 Q196.394 1508.67 193.293 1508.67 Q191.093 1508.67 188.64 1509.43 Q186.209 1510.2 183.432 1511.75 L183.432 1507.03 Q186.256 1505.89 188.709 1505.31 Q191.163 1504.73 193.2 1504.73 Q198.57 1504.73 201.765 1507.42 Q204.959 1510.11 204.959 1514.6 Q204.959 1516.73 204.149 1518.65 Q203.362 1520.54 201.255 1523.14 Q200.677 1523.81 197.575 1527.03 Q194.473 1530.22 188.825 1535.98 Z" fill="#000000" fill-rule="evenodd" fill-opacity="1" /><path clip-path="url(#clip880)" d="M 0 0 M220.214 1508.44 Q216.603 1508.44 214.774 1512 Q212.968 1515.55 212.968 1522.67 Q212.968 1529.78 214.774 1533.35 Q216.603 1536.89 220.214 1536.89 Q223.848 1536.89 225.653 1533.35 Q227.482 1529.78 227.482 1522.67 Q227.482 1515.55 225.653 1512 Q223.848 1508.44 220.214 1508.44 M220.214 1504.73 Q226.024 1504.73 229.079 1509.34 Q232.158 1513.92 232.158 1522.67 Q232.158 1531.4 229.079 1536.01 Q226.024 1540.59 220.214 1540.59 Q214.404 1540.59 211.325 1536.01 Q208.269 1531.4 208.269 1522.67 Q208.269 1513.92 211.325 1509.34 Q214.404 1504.73 220.214 1504.73 Z" fill="#000000" fill-rule="evenodd" fill-opacity="1" /><path clip-path="url(#clip880)" d="M 0 0 M234.473 1525.04 L246.95 1525.04 L246.95 1528.83 L234.473 1528.83 L234.473 1525.04 Z" fill="#000000" fill-rule="evenodd" fill-opacity="1" /><path clip-path="url(#clip880)" d="M 0 0 M262.019 1508.44 Q258.408 1508.44 256.579 1512 Q254.774 1515.55 254.774 1522.67 Q254.774 1529.78 256.579 1533.35 Q258.408 1536.89 262.019 1536.89 Q265.653 1536.89 267.459 1533.35 Q269.288 1529.78 269.288 1522.67 Q269.288 1515.55 267.459 1512 Q265.653 1508.44 262.019 1508.44 M262.019 1504.73 Q267.829 1504.73 270.885 1509.34 Q273.963 1513.92 273.963 1522.67 Q273.963 1531.4 270.885 1536.01 Q267.829 1540.59 262.019 1540.59 Q256.209 1540.59 253.13 1536.01 Q250.075 1531.4 250.075 1522.67 Q250.075 1513.92 253.13 1509.34 Q256.209 1504.73 262.019 1504.73 Z" fill="#000000" fill-rule="evenodd" fill-opacity="1" /><path clip-path="url(#clip880)" d="M 0 0 M277.852 1505.36 L300.074 1505.36 L300.074 1507.35 L287.528 1539.92 L282.644 1539.92 L294.449 1509.3 L277.852 1509.3 L277.852 1505.36 Z" fill="#000000" fill-rule="evenodd" fill-opacity="1" /><path clip-path="url(#clip880)" d="M 0 0 M302.389 1525.04 L314.866 1525.04 L314.866 1528.83 L302.389 1528.83 L302.389 1525.04 Z" fill="#000000" fill-rule="evenodd" fill-opacity="1" /><path clip-path="url(#clip880)" d="M 0 0 M320.746 1535.98 L328.384 1535.98 L328.384 1509.62 L320.074 1511.29 L320.074 1507.03 L328.338 1505.36 L333.014 1505.36 L333.014 1535.98 L340.653 1535.98 L340.653 1539.92 L320.746 1539.92 L320.746 1535.98 Z" fill="#000000" fill-rule="evenodd" fill-opacity="1" /><path clip-path="url(#clip880)" d="M 0 0 M359.889 1521.29 Q363.245 1522 365.12 1524.27 Q367.018 1526.54 367.018 1529.87 Q367.018 1534.99 363.5 1537.79 Q359.981 1540.59 353.5 1540.59 Q351.324 1540.59 349.009 1540.15 Q346.718 1539.73 344.264 1538.88 L344.264 1534.36 Q346.208 1535.5 348.523 1536.08 Q350.838 1536.66 353.361 1536.66 Q357.759 1536.66 360.051 1534.92 Q362.366 1533.18 362.366 1529.87 Q362.366 1526.82 360.213 1525.11 Q358.083 1523.37 354.264 1523.37 L350.236 1523.37 L350.236 1519.53 L354.449 1519.53 Q357.898 1519.53 359.727 1518.16 Q361.556 1516.77 361.556 1514.18 Q361.556 1511.52 359.657 1510.11 Q357.782 1508.67 354.264 1508.67 Q352.343 1508.67 350.144 1509.09 Q347.945 1509.5 345.306 1510.38 L345.306 1506.22 Q347.968 1505.48 350.282 1505.11 Q352.62 1504.73 354.681 1504.73 Q360.005 1504.73 363.106 1507.17 Q366.208 1509.57 366.208 1513.69 Q366.208 1516.56 364.565 1518.55 Q362.921 1520.52 359.889 1521.29 Z" fill="#000000" fill-rule="evenodd" fill-opacity="1" /><path clip-path="url(#clip880)" d="M 0 0 M663.988 1535.98 L680.307 1535.98 L680.307 1539.92 L658.363 1539.92 L658.363 1535.98 Q661.025 1533.23 665.608 1528.6 Q670.215 1523.95 671.395 1522.61 Q673.64 1520.08 674.52 1518.35 Q675.423 1516.59 675.423 1514.9 Q675.423 1512.14 673.478 1510.41 Q671.557 1508.67 668.455 1508.67 Q666.256 1508.67 663.803 1509.43 Q661.372 1510.2 658.594 1511.75 L658.594 1507.03 Q661.418 1505.89 663.872 1505.31 Q666.326 1504.73 668.363 1504.73 Q673.733 1504.73 676.928 1507.42 Q680.122 1510.11 680.122 1514.6 Q680.122 1516.73 679.312 1518.65 Q678.525 1520.54 676.418 1523.14 Q675.84 1523.81 672.738 1527.03 Q669.636 1530.22 663.988 1535.98 Z" fill="#000000" fill-rule="evenodd" fill-opacity="1" /><path clip-path="url(#clip880)" d="M 0 0 M695.376 1508.44 Q691.765 1508.44 689.937 1512 Q688.131 1515.55 688.131 1522.67 Q688.131 1529.78 689.937 1533.35 Q691.765 1536.89 695.376 1536.89 Q699.011 1536.89 700.816 1533.35 Q702.645 1529.78 702.645 1522.67 Q702.645 1515.55 700.816 1512 Q699.011 1508.44 695.376 1508.44 M695.376 1504.73 Q701.187 1504.73 704.242 1509.34 Q707.321 1513.92 707.321 1522.67 Q707.321 1531.4 704.242 1536.01 Q701.187 1540.59 695.376 1540.59 Q689.566 1540.59 686.488 1536.01 Q683.432 1531.4 683.432 1522.67 Q683.432 1513.92 686.488 1509.34 Q689.566 1504.73 695.376 1504.73 Z" fill="#000000" fill-rule="evenodd" fill-opacity="1" /><path clip-path="url(#clip880)" d="M 0 0 M716.418 1535.98 L732.737 1535.98 L732.737 1539.92 L710.793 1539.92 L710.793 1535.98 Q713.455 1533.23 718.038 1528.6 Q722.645 1523.95 723.825 1522.61 Q726.071 1520.08 726.95 1518.35 Q727.853 1516.59 727.853 1514.9 Q727.853 1512.14 725.909 1510.41 Q723.987 1508.67 720.886 1508.67 Q718.687 1508.67 716.233 1509.43 Q713.802 1510.2 711.025 1511.75 L711.025 1507.03 Q713.849 1505.89 716.302 1505.31 Q718.756 1504.73 720.793 1504.73 Q726.163 1504.73 729.358 1507.42 Q732.552 1510.11 732.552 1514.6 Q732.552 1516.73 731.742 1518.65 Q730.955 1520.54 728.849 1523.14 Q728.27 1523.81 725.168 1527.03 Q722.066 1530.22 716.418 1535.98 Z" fill="#000000" fill-rule="evenodd" fill-opacity="1" /><path clip-path="url(#clip880)" d="M 0 0 M747.807 1508.44 Q744.196 1508.44 742.367 1512 Q740.561 1515.55 740.561 1522.67 Q740.561 1529.78 742.367 1533.35 Q744.196 1536.89 747.807 1536.89 Q751.441 1536.89 753.247 1533.35 Q755.075 1529.78 755.075 1522.67 Q755.075 1515.55 753.247 1512 Q751.441 1508.44 747.807 1508.44 M747.807 1504.73 Q753.617 1504.73 756.672 1509.34 Q759.751 1513.92 759.751 1522.67 Q759.751 1531.4 756.672 1536.01 Q753.617 1540.59 747.807 1540.59 Q741.997 1540.59 738.918 1536.01 Q735.862 1531.4 735.862 1522.67 Q735.862 1513.92 738.918 1509.34 Q741.997 1504.73 747.807 1504.73 Z" fill="#000000" fill-rule="evenodd" fill-opacity="1" /><path clip-path="url(#clip880)" d="M 0 0 M762.066 1525.04 L774.543 1525.04 L774.543 1528.83 L762.066 1528.83 L762.066 1525.04 Z" fill="#000000" fill-rule="evenodd" fill-opacity="1" /><path clip-path="url(#clip880)" d="M 0 0 M789.612 1508.44 Q786.001 1508.44 784.172 1512 Q782.367 1515.55 782.367 1522.67 Q782.367 1529.78 784.172 1533.35 Q786.001 1536.89 789.612 1536.89 Q793.246 1536.89 795.052 1533.35 Q796.881 1529.78 796.881 1522.67 Q796.881 1515.55 795.052 1512 Q793.246 1508.44 789.612 1508.44 M789.612 1504.73 Q795.422 1504.73 798.478 1509.34 Q801.556 1513.92 801.556 1522.67 Q801.556 1531.4 798.478 1536.01 Q795.422 1540.59 789.612 1540.59 Q783.802 1540.59 780.723 1536.01 Q777.668 1531.4 777.668 1522.67 Q777.668 1513.92 780.723 1509.34 Q783.802 1504.73 789.612 1504.73 Z" fill="#000000" fill-rule="evenodd" fill-opacity="1" /><path clip-path="url(#clip880)" d="M 0 0 M805.445 1505.36 L827.667 1505.36 L827.667 1507.35 L815.121 1539.92 L810.237 1539.92 L822.042 1509.3 L805.445 1509.3 L805.445 1505.36 Z" fill="#000000" fill-rule="evenodd" fill-opacity="1" /><path clip-path="url(#clip880)" d="M 0 0 M829.982 1525.04 L842.459 1525.04 L842.459 1528.83 L829.982 1528.83 L829.982 1525.04 Z" fill="#000000" fill-rule="evenodd" fill-opacity="1" /><path clip-path="url(#clip880)" d="M 0 0 M851.556 1535.98 L867.876 1535.98 L867.876 1539.92 L845.931 1539.92 L845.931 1535.98 Q848.593 1533.23 853.177 1528.6 Q857.783 1523.95 858.964 1522.61 Q861.209 1520.08 862.089 1518.35 Q862.991 1516.59 862.991 1514.9 Q862.991 1512.14 861.047 1510.41 Q859.126 1508.67 856.024 1508.67 Q853.825 1508.67 851.371 1509.43 Q848.94 1510.2 846.163 1511.75 L846.163 1507.03 Q848.987 1505.89 851.44 1505.31 Q853.894 1504.73 855.931 1504.73 Q861.302 1504.73 864.496 1507.42 Q867.69 1510.11 867.69 1514.6 Q867.69 1516.73 866.88 1518.65 Q866.093 1520.54 863.987 1523.14 Q863.408 1523.81 860.306 1527.03 Q857.204 1530.22 851.556 1535.98 Z" fill="#000000" fill-rule="evenodd" fill-opacity="1" /><path clip-path="url(#clip880)" d="M 0 0 M873.755 1535.98 L881.394 1535.98 L881.394 1509.62 L873.084 1511.29 L873.084 1507.03 L881.348 1505.36 L886.024 1505.36 L886.024 1535.98 L893.662 1535.98 L893.662 1539.92 L873.755 1539.92 L873.755 1535.98 Z" fill="#000000" fill-rule="evenodd" fill-opacity="1" /><path clip-path="url(#clip880)" d="M 0 0 M1190.59 1535.98 L1206.9 1535.98 L1206.9 1539.92 L1184.96 1539.92 L1184.96 1535.98 Q1187.62 1533.23 1192.21 1528.6 Q1196.81 1523.95 1197.99 1522.61 Q1200.24 1520.08 1201.12 1518.35 Q1202.02 1516.59 1202.02 1514.9 Q1202.02 1512.14 1200.08 1510.41 Q1198.15 1508.67 1195.05 1508.67 Q1192.85 1508.67 1190.4 1509.43 Q1187.97 1510.2 1185.19 1511.75 L1185.19 1507.03 Q1188.02 1505.89 1190.47 1505.31 Q1192.92 1504.73 1194.96 1504.73 Q1200.33 1504.73 1203.53 1507.42 Q1206.72 1510.11 1206.72 1514.6 Q1206.72 1516.73 1205.91 1518.65 Q1205.12 1520.54 1203.02 1523.14 Q1202.44 1523.81 1199.34 1527.03 Q1196.23 1530.22 1190.59 1535.98 Z" fill="#000000" fill-rule="evenodd" fill-opacity="1" /><path clip-path="url(#clip880)" d="M 0 0 M1221.97 1508.44 Q1218.36 1508.44 1216.53 1512 Q1214.73 1515.55 1214.73 1522.67 Q1214.73 1529.78 1216.53 1533.35 Q1218.36 1536.89 1221.97 1536.89 Q1225.61 1536.89 1227.41 1533.35 Q1229.24 1529.78 1229.24 1522.67 Q1229.24 1515.55 1227.41 1512 Q1225.61 1508.44 1221.97 1508.44 M1221.97 1504.73 Q1227.78 1504.73 1230.84 1509.34 Q1233.92 1513.92 1233.92 1522.67 Q1233.92 1531.4 1230.84 1536.01 Q1227.78 1540.59 1221.97 1540.59 Q1216.16 1540.59 1213.09 1536.01 Q1210.03 1531.4 1210.03 1522.67 Q1210.03 1513.92 1213.09 1509.34 Q1216.16 1504.73 1221.97 1504.73 Z" fill="#000000" fill-rule="evenodd" fill-opacity="1" /><path clip-path="url(#clip880)" d="M 0 0 M1243.02 1535.98 L1259.34 1535.98 L1259.34 1539.92 L1237.39 1539.92 L1237.39 1535.98 Q1240.05 1533.23 1244.64 1528.6 Q1249.24 1523.95 1250.42 1522.61 Q1252.67 1520.08 1253.55 1518.35 Q1254.45 1516.59 1254.45 1514.9 Q1254.45 1512.14 1252.51 1510.41 Q1250.59 1508.67 1247.48 1508.67 Q1245.28 1508.67 1242.83 1509.43 Q1240.4 1510.2 1237.62 1511.75 L1237.62 1507.03 Q1240.45 1505.89 1242.9 1505.31 Q1245.35 1504.73 1247.39 1504.73 Q1252.76 1504.73 1255.96 1507.42 Q1259.15 1510.11 1259.15 1514.6 Q1259.15 1516.73 1258.34 1518.65 Q1257.55 1520.54 1255.45 1523.14 Q1254.87 1523.81 1251.77 1527.03 Q1248.66 1530.22 1243.02 1535.98 Z" fill="#000000" fill-rule="evenodd" fill-opacity="1" /><path clip-path="url(#clip880)" d="M 0 0 M1274.4 1508.44 Q1270.79 1508.44 1268.96 1512 Q1267.16 1515.55 1267.16 1522.67 Q1267.16 1529.78 1268.96 1533.35 Q1270.79 1536.89 1274.4 1536.89 Q1278.04 1536.89 1279.84 1533.35 Q1281.67 1529.78 1281.67 1522.67 Q1281.67 1515.55 1279.84 1512 Q1278.04 1508.44 1274.4 1508.44 M1274.4 1504.73 Q1280.21 1504.73 1283.27 1509.34 Q1286.35 1513.92 1286.35 1522.67 Q1286.35 1531.4 1283.27 1536.01 Q1280.21 1540.59 1274.4 1540.59 Q1268.59 1540.59 1265.52 1536.01 Q1262.46 1531.4 1262.46 1522.67 Q1262.46 1513.92 1265.52 1509.34 Q1268.59 1504.73 1274.4 1504.73 Z" fill="#000000" fill-rule="evenodd" fill-opacity="1" /><path clip-path="url(#clip880)" d="M 0 0 M1288.66 1525.04 L1301.14 1525.04 L1301.14 1528.83 L1288.66 1528.83 L1288.66 1525.04 Z" fill="#000000" fill-rule="evenodd" fill-opacity="1" /><path clip-path="url(#clip880)" d="M 0 0 M1316.21 1508.44 Q1312.6 1508.44 1310.77 1512 Q1308.96 1515.55 1308.96 1522.67 Q1308.96 1529.78 1310.77 1533.35 Q1312.6 1536.89 1316.21 1536.89 Q1319.84 1536.89 1321.65 1533.35 Q1323.48 1529.78 1323.48 1522.67 Q1323.48 1515.55 1321.65 1512 Q1319.84 1508.44 1316.21 1508.44 M1316.21 1504.73 Q1322.02 1504.73 1325.08 1509.34 Q1328.15 1513.92 1328.15 1522.67 Q1328.15 1531.4 1325.08 1536.01 Q1322.02 1540.59 1316.21 1540.59 Q1310.4 1540.59 1307.32 1536.01 Q1304.27 1531.4 1304.27 1522.67 Q1304.27 1513.92 1307.32 1509.34 Q1310.4 1504.73 1316.21 1504.73 Z" fill="#000000" fill-rule="evenodd" fill-opacity="1" /><path clip-path="url(#clip880)" d="M 0 0 M1332.04 1505.36 L1354.27 1505.36 L1354.27 1507.35 L1341.72 1539.92 L1336.83 1539.92 L1348.64 1509.3 L1332.04 1509.3 L1332.04 1505.36 Z" fill="#000000" fill-rule="evenodd" fill-opacity="1" /><path clip-path="url(#clip880)" d="M 0 0 M1356.58 1525.04 L1369.06 1525.04 L1369.06 1528.83 L1356.58 1528.83 L1356.58 1525.04 Z" fill="#000000" fill-rule="evenodd" fill-opacity="1" /><path clip-path="url(#clip880)" d="M 0 0 M1378.15 1535.98 L1394.47 1535.98 L1394.47 1539.92 L1372.53 1539.92 L1372.53 1535.98 Q1375.19 1533.23 1379.77 1528.6 Q1384.38 1523.95 1385.56 1522.61 Q1387.81 1520.08 1388.69 1518.35 Q1389.59 1516.59 1389.59 1514.9 Q1389.59 1512.14 1387.64 1510.41 Q1385.72 1508.67 1382.62 1508.67 Q1380.42 1508.67 1377.97 1509.43 Q1375.54 1510.2 1372.76 1511.75 L1372.76 1507.03 Q1375.58 1505.89 1378.04 1505.31 Q1380.49 1504.73 1382.53 1504.73 Q1387.9 1504.73 1391.09 1507.42 Q1394.29 1510.11 1394.29 1514.6 Q1394.29 1516.73 1393.48 1518.65 Q1392.69 1520.54 1390.58 1523.14 Q1390.01 1523.81 1386.9 1527.03 Q1383.8 1530.22 1378.15 1535.98 Z" fill="#000000" fill-rule="evenodd" fill-opacity="1" /><path clip-path="url(#clip880)" d="M 0 0 M1399.68 1539.2 L1399.68 1534.94 Q1401.44 1535.78 1403.25 1536.22 Q1405.05 1536.66 1406.79 1536.66 Q1411.42 1536.66 1413.85 1533.55 Q1416.3 1530.43 1416.65 1524.09 Q1415.31 1526.08 1413.25 1527.14 Q1411.19 1528.21 1408.69 1528.21 Q1403.5 1528.21 1400.47 1525.08 Q1397.46 1521.93 1397.46 1516.49 Q1397.46 1511.17 1400.61 1507.95 Q1403.76 1504.73 1408.99 1504.73 Q1414.98 1504.73 1418.13 1509.34 Q1421.3 1513.92 1421.3 1522.67 Q1421.3 1530.85 1417.41 1535.73 Q1413.55 1540.59 1407 1540.59 Q1405.24 1540.59 1403.43 1540.24 Q1401.63 1539.9 1399.68 1539.2 M1408.99 1524.55 Q1412.14 1524.55 1413.96 1522.4 Q1415.82 1520.24 1415.82 1516.49 Q1415.82 1512.77 1413.96 1510.61 Q1412.14 1508.44 1408.99 1508.44 Q1405.84 1508.44 1403.99 1510.61 Q1402.16 1512.77 1402.16 1516.49 Q1402.16 1520.24 1403.99 1522.4 Q1405.84 1524.55 1408.99 1524.55 Z" fill="#000000" fill-rule="evenodd" fill-opacity="1" /><path clip-path="url(#clip880)" d="M 0 0 M1716.33 1535.98 L1732.65 1535.98 L1732.65 1539.92 L1710.7 1539.92 L1710.7 1535.98 Q1713.36 1533.23 1717.95 1528.6 Q1722.55 1523.95 1723.73 1522.61 Q1725.98 1520.08 1726.86 1518.35 Q1727.76 1516.59 1727.76 1514.9 Q1727.76 1512.14 1725.82 1510.41 Q1723.9 1508.67 1720.79 1508.67 Q1718.6 1508.67 1716.14 1509.43 Q1713.71 1510.2 1710.93 1511.75 L1710.93 1507.03 Q1713.76 1505.89 1716.21 1505.31 Q1718.66 1504.73 1720.7 1504.73 Q1726.07 1504.73 1729.27 1507.42 Q1732.46 1510.11 1732.46 1514.6 Q1732.46 1516.73 1731.65 1518.65 Q1730.86 1520.54 1728.76 1523.14 Q1728.18 1523.81 1725.08 1527.03 Q1721.97 1530.22 1716.33 1535.98 Z" fill="#000000" fill-rule="evenodd" fill-opacity="1" /><path clip-path="url(#clip880)" d="M 0 0 M1747.72 1508.44 Q1744.1 1508.44 1742.28 1512 Q1740.47 1515.55 1740.47 1522.67 Q1740.47 1529.78 1742.28 1533.35 Q1744.1 1536.89 1747.72 1536.89 Q1751.35 1536.89 1753.16 1533.35 Q1754.98 1529.78 1754.98 1522.67 Q1754.98 1515.55 1753.16 1512 Q1751.35 1508.44 1747.72 1508.44 M1747.72 1504.73 Q1753.53 1504.73 1756.58 1509.34 Q1759.66 1513.92 1759.66 1522.67 Q1759.66 1531.4 1756.58 1536.01 Q1753.53 1540.59 1747.72 1540.59 Q1741.91 1540.59 1738.83 1536.01 Q1735.77 1531.4 1735.77 1522.67 Q1735.77 1513.92 1738.83 1509.34 Q1741.91 1504.73 1747.72 1504.73 Z" fill="#000000" fill-rule="evenodd" fill-opacity="1" /><path clip-path="url(#clip880)" d="M 0 0 M1768.76 1535.98 L1785.08 1535.98 L1785.08 1539.92 L1763.13 1539.92 L1763.13 1535.98 Q1765.79 1533.23 1770.38 1528.6 Q1774.98 1523.95 1776.16 1522.61 Q1778.41 1520.08 1779.29 1518.35 Q1780.19 1516.59 1780.19 1514.9 Q1780.19 1512.14 1778.25 1510.41 Q1776.33 1508.67 1773.22 1508.67 Q1771.03 1508.67 1768.57 1509.43 Q1766.14 1510.2 1763.36 1511.75 L1763.36 1507.03 Q1766.19 1505.89 1768.64 1505.31 Q1771.09 1504.73 1773.13 1504.73 Q1778.5 1504.73 1781.7 1507.42 Q1784.89 1510.11 1784.89 1514.6 Q1784.89 1516.73 1784.08 1518.65 Q1783.29 1520.54 1781.19 1523.14 Q1780.61 1523.81 1777.51 1527.03 Q1774.41 1530.22 1768.76 1535.98 Z" fill="#000000" fill-rule="evenodd" fill-opacity="1" /><path clip-path="url(#clip880)" d="M 0 0 M1800.15 1508.44 Q1796.53 1508.44 1794.71 1512 Q1792.9 1515.55 1792.9 1522.67 Q1792.9 1529.78 1794.71 1533.35 Q1796.53 1536.89 1800.15 1536.89 Q1803.78 1536.89 1805.59 1533.35 Q1807.41 1529.78 1807.41 1522.67 Q1807.41 1515.55 1805.59 1512 Q1803.78 1508.44 1800.15 1508.44 M1800.15 1504.73 Q1805.96 1504.73 1809.01 1509.34 Q1812.09 1513.92 1812.09 1522.67 Q1812.09 1531.4 1809.01 1536.01 Q1805.96 1540.59 1800.15 1540.59 Q1794.34 1540.59 1791.26 1536.01 Q1788.2 1531.4 1788.2 1522.67 Q1788.2 1513.92 1791.26 1509.34 Q1794.34 1504.73 1800.15 1504.73 Z" fill="#000000" fill-rule="evenodd" fill-opacity="1" /><path clip-path="url(#clip880)" d="M 0 0 M1814.4 1525.04 L1826.88 1525.04 L1826.88 1528.83 L1814.4 1528.83 L1814.4 1525.04 Z" fill="#000000" fill-rule="evenodd" fill-opacity="1" /><path clip-path="url(#clip880)" d="M 0 0 M1841.95 1508.44 Q1838.34 1508.44 1836.51 1512 Q1834.71 1515.55 1834.71 1522.67 Q1834.71 1529.78 1836.51 1533.35 Q1838.34 1536.89 1841.95 1536.89 Q1845.59 1536.89 1847.39 1533.35 Q1849.22 1529.78 1849.22 1522.67 Q1849.22 1515.55 1847.39 1512 Q1845.59 1508.44 1841.95 1508.44 M1841.95 1504.73 Q1847.76 1504.73 1850.82 1509.34 Q1853.9 1513.92 1853.9 1522.67 Q1853.9 1531.4 1850.82 1536.01 Q1847.76 1540.59 1841.95 1540.59 Q1836.14 1540.59 1833.06 1536.01 Q1830.01 1531.4 1830.01 1522.67 Q1830.01 1513.92 1833.06 1509.34 Q1836.14 1504.73 1841.95 1504.73 Z" fill="#000000" fill-rule="evenodd" fill-opacity="1" /><path clip-path="url(#clip880)" d="M 0 0 M1868.96 1523.51 Q1865.63 1523.51 1863.71 1525.29 Q1861.81 1527.07 1861.81 1530.2 Q1861.81 1533.32 1863.71 1535.11 Q1865.63 1536.89 1868.96 1536.89 Q1872.3 1536.89 1874.22 1535.11 Q1876.14 1533.3 1876.14 1530.2 Q1876.14 1527.07 1874.22 1525.29 Q1872.32 1523.51 1868.96 1523.51 M1864.29 1521.52 Q1861.28 1520.78 1859.59 1518.72 Q1857.92 1516.66 1857.92 1513.69 Q1857.92 1509.55 1860.86 1507.14 Q1863.83 1504.73 1868.96 1504.73 Q1874.13 1504.73 1877.07 1507.14 Q1880.01 1509.55 1880.01 1513.69 Q1880.01 1516.66 1878.32 1518.72 Q1876.65 1520.78 1873.66 1521.52 Q1877.04 1522.3 1878.92 1524.6 Q1880.82 1526.89 1880.82 1530.2 Q1880.82 1535.22 1877.74 1537.91 Q1874.68 1540.59 1868.96 1540.59 Q1863.25 1540.59 1860.17 1537.91 Q1857.11 1535.22 1857.11 1530.2 Q1857.11 1526.89 1859.01 1524.6 Q1860.91 1522.3 1864.29 1521.52 M1862.58 1514.13 Q1862.58 1516.82 1864.24 1518.32 Q1865.93 1519.83 1868.96 1519.83 Q1871.97 1519.83 1873.66 1518.32 Q1875.38 1516.82 1875.38 1514.13 Q1875.38 1511.45 1873.66 1509.94 Q1871.97 1508.44 1868.96 1508.44 Q1865.93 1508.44 1864.24 1509.94 Q1862.58 1511.45 1862.58 1514.13 Z" fill="#000000" fill-rule="evenodd" fill-opacity="1" /><path clip-path="url(#clip880)" d="M 0 0 M1883.13 1525.04 L1895.61 1525.04 L1895.61 1528.83 L1883.13 1528.83 L1883.13 1525.04 Z" fill="#000000" fill-rule="evenodd" fill-opacity="1" /><path clip-path="url(#clip880)" d="M 0 0 M1910.68 1508.44 Q1907.07 1508.44 1905.24 1512 Q1903.43 1515.55 1903.43 1522.67 Q1903.43 1529.78 1905.24 1533.35 Q1907.07 1536.89 1910.68 1536.89 Q1914.31 1536.89 1916.12 1533.35 Q1917.95 1529.78 1917.95 1522.67 Q1917.95 1515.55 1916.12 1512 Q1914.31 1508.44 1910.68 1508.44 M1910.68 1504.73 Q1916.49 1504.73 1919.54 1509.34 Q1922.62 1513.92 1922.62 1522.67 Q1922.62 1531.4 1919.54 1536.01 Q1916.49 1540.59 1910.68 1540.59 Q1904.87 1540.59 1901.79 1536.01 Q1898.73 1531.4 1898.73 1522.67 Q1898.73 1513.92 1901.79 1509.34 Q1904.87 1504.73 1910.68 1504.73 Z" fill="#000000" fill-rule="evenodd" fill-opacity="1" /><path clip-path="url(#clip880)" d="M 0 0 M1938.27 1520.78 Q1935.12 1520.78 1933.27 1522.93 Q1931.44 1525.08 1931.44 1528.83 Q1931.44 1532.56 1933.27 1534.73 Q1935.12 1536.89 1938.27 1536.89 Q1941.42 1536.89 1943.25 1534.73 Q1945.1 1532.56 1945.1 1528.83 Q1945.1 1525.08 1943.25 1522.93 Q1941.42 1520.78 1938.27 1520.78 M1947.55 1506.12 L1947.55 1510.38 Q1945.79 1509.55 1943.99 1509.11 Q1942.21 1508.67 1940.45 1508.67 Q1935.82 1508.67 1933.36 1511.8 Q1930.93 1514.92 1930.58 1521.24 Q1931.95 1519.23 1934.01 1518.16 Q1936.07 1517.07 1938.55 1517.07 Q1943.76 1517.07 1946.77 1520.24 Q1949.8 1523.39 1949.8 1528.83 Q1949.8 1534.16 1946.65 1537.37 Q1943.5 1540.59 1938.27 1540.59 Q1932.27 1540.59 1929.1 1536.01 Q1925.93 1531.4 1925.93 1522.67 Q1925.93 1514.48 1929.82 1509.62 Q1933.71 1504.73 1940.26 1504.73 Q1942.02 1504.73 1943.8 1505.08 Q1945.61 1505.43 1947.55 1506.12 Z" fill="#000000" fill-rule="evenodd" fill-opacity="1" /><path clip-path="url(#clip880)" d="M 0 0 M64.0801 1244.92 L71.7189 1244.92 L71.7189 1218.56 L63.4088 1220.22 L63.4088 1215.96 L71.6726 1214.3 L76.3485 1214.3 L76.3485 1244.92 L83.9874 1244.92 L83.9874 1248.86 L64.0801 1248.86 L64.0801 1244.92 Z" fill="#000000" fill-rule="evenodd" fill-opacity="1" /><path clip-path="url(#clip880)" d="M 0 0 M101.904 1218.37 L90.0985 1236.82 L101.904 1236.82 L101.904 1218.37 M100.677 1214.3 L106.557 1214.3 L106.557 1236.82 L111.487 1236.82 L111.487 1240.71 L106.557 1240.71 L106.557 1248.86 L101.904 1248.86 L101.904 1240.71 L86.3022 1240.71 L86.3022 1236.2 L100.677 1214.3 Z" fill="#000000" fill-rule="evenodd" fill-opacity="1" /><path clip-path="url(#clip880)" d="M 0 0 M115.376 1214.3 L137.598 1214.3 L137.598 1216.29 L125.052 1248.86 L120.168 1248.86 L131.973 1218.23 L115.376 1218.23 L115.376 1214.3 Z" fill="#000000" fill-rule="evenodd" fill-opacity="1" /><path clip-path="url(#clip880)" d="M 0 0 M142.714 1214.3 L161.07 1214.3 L161.07 1218.23 L146.996 1218.23 L146.996 1226.71 Q148.015 1226.36 149.033 1226.2 Q150.052 1226.01 151.07 1226.01 Q156.857 1226.01 160.237 1229.18 Q163.617 1232.35 163.617 1237.77 Q163.617 1243.35 160.144 1246.45 Q156.672 1249.53 150.353 1249.53 Q148.177 1249.53 145.908 1249.16 Q143.663 1248.79 141.256 1248.05 L141.256 1243.35 Q143.339 1244.48 145.561 1245.04 Q147.783 1245.59 150.26 1245.59 Q154.265 1245.59 156.603 1243.49 Q158.941 1241.38 158.941 1237.77 Q158.941 1234.16 156.603 1232.05 Q154.265 1229.95 150.26 1229.95 Q148.385 1229.95 146.51 1230.36 Q144.658 1230.78 142.714 1231.66 L142.714 1214.3 Z" fill="#000000" fill-rule="evenodd" fill-opacity="1" /><path clip-path="url(#clip880)" d="M 0 0 M63.6634 989.632 L71.3023 989.632 L71.3023 963.266 L62.9921 964.933 L62.9921 960.673 L71.256 959.007 L75.9319 959.007 L75.9319 989.632 L83.5707 989.632 L83.5707 993.567 L63.6634 993.567 L63.6634 989.632 Z" fill="#000000" fill-rule="evenodd" fill-opacity="1" /><path clip-path="url(#clip880)" d="M 0 0 M88.6864 959.007 L107.043 959.007 L107.043 962.942 L92.9688 962.942 L92.9688 971.414 Q93.9873 971.067 95.0058 970.905 Q96.0244 970.72 97.0429 970.72 Q102.83 970.72 106.209 973.891 Q109.589 977.062 109.589 982.479 Q109.589 988.058 106.117 991.159 Q102.645 994.238 96.3253 994.238 Q94.1494 994.238 91.8809 993.868 Q89.6355 993.497 87.2281 992.757 L87.2281 988.058 Q89.3114 989.192 91.5336 989.747 Q93.7559 990.303 96.2327 990.303 Q100.237 990.303 102.575 988.197 Q104.913 986.09 104.913 982.479 Q104.913 978.868 102.575 976.761 Q100.237 974.655 96.2327 974.655 Q94.3577 974.655 92.4827 975.072 Q90.6309 975.488 88.6864 976.368 L88.6864 959.007 Z" fill="#000000" fill-rule="evenodd" fill-opacity="1" /><path clip-path="url(#clip880)" d="M 0 0 M124.658 962.086 Q121.047 962.086 119.219 965.65 Q117.413 969.192 117.413 976.322 Q117.413 983.428 119.219 986.993 Q121.047 990.534 124.658 990.534 Q128.293 990.534 130.098 986.993 Q131.927 983.428 131.927 976.322 Q131.927 969.192 130.098 965.65 Q128.293 962.086 124.658 962.086 M124.658 958.382 Q130.469 958.382 133.524 962.988 Q136.603 967.572 136.603 976.322 Q136.603 985.048 133.524 989.655 Q130.469 994.238 124.658 994.238 Q118.848 994.238 115.77 989.655 Q112.714 985.048 112.714 976.322 Q112.714 967.572 115.77 962.988 Q118.848 958.382 124.658 958.382 Z" fill="#000000" fill-rule="evenodd" fill-opacity="1" /><path clip-path="url(#clip880)" d="M 0 0 M151.672 962.086 Q148.061 962.086 146.232 965.65 Q144.427 969.192 144.427 976.322 Q144.427 983.428 146.232 986.993 Q148.061 990.534 151.672 990.534 Q155.306 990.534 157.112 986.993 Q158.941 983.428 158.941 976.322 Q158.941 969.192 157.112 965.65 Q155.306 962.086 151.672 962.086 M151.672 958.382 Q157.482 958.382 160.538 962.988 Q163.617 967.572 163.617 976.322 Q163.617 985.048 160.538 989.655 Q157.482 994.238 151.672 994.238 Q145.862 994.238 142.783 989.655 Q139.728 985.048 139.728 976.322 Q139.728 967.572 142.783 962.988 Q145.862 958.382 151.672 958.382 Z" fill="#000000" fill-rule="evenodd" fill-opacity="1" /><path clip-path="url(#clip880)" d="M 0 0 M66.256 734.341 L73.8948 734.341 L73.8948 707.975 L65.5847 709.642 L65.5847 705.382 L73.8485 703.716 L78.5245 703.716 L78.5245 734.341 L86.1633 734.341 L86.1633 738.276 L66.256 738.276 L66.256 734.341 Z" fill="#000000" fill-rule="evenodd" fill-opacity="1" /><path clip-path="url(#clip880)" d="M 0 0 M91.279 703.716 L109.635 703.716 L109.635 707.651 L95.5614 707.651 L95.5614 716.123 Q96.5799 715.776 97.5984 715.614 Q98.6169 715.429 99.6354 715.429 Q105.422 715.429 108.802 718.6 Q112.182 721.771 112.182 727.188 Q112.182 732.767 108.709 735.868 Q105.237 738.947 98.9179 738.947 Q96.7419 738.947 94.4734 738.577 Q92.2281 738.206 89.8207 737.466 L89.8207 732.767 Q91.904 733.901 94.1262 734.456 Q96.3484 735.012 98.8253 735.012 Q102.83 735.012 105.168 732.905 Q107.506 730.799 107.506 727.188 Q107.506 723.577 105.168 721.47 Q102.83 719.364 98.8253 719.364 Q96.9503 719.364 95.0753 719.781 Q93.2234 720.197 91.279 721.077 L91.279 703.716 Z" fill="#000000" fill-rule="evenodd" fill-opacity="1" /><path clip-path="url(#clip880)" d="M 0 0 M121.279 734.341 L137.598 734.341 L137.598 738.276 L115.654 738.276 L115.654 734.341 Q118.316 731.586 122.899 726.956 Q127.506 722.304 128.686 720.961 Q130.932 718.438 131.811 716.702 Q132.714 714.943 132.714 713.253 Q132.714 710.498 130.77 708.762 Q128.848 707.026 125.746 707.026 Q123.547 707.026 121.094 707.79 Q118.663 708.554 115.885 710.105 L115.885 705.382 Q118.709 704.248 121.163 703.67 Q123.617 703.091 125.654 703.091 Q131.024 703.091 134.219 705.776 Q137.413 708.461 137.413 712.952 Q137.413 715.081 136.603 717.003 Q135.816 718.901 133.709 721.493 Q133.131 722.165 130.029 725.382 Q126.927 728.577 121.279 734.341 Z" fill="#000000" fill-rule="evenodd" fill-opacity="1" /><path clip-path="url(#clip880)" d="M 0 0 M142.714 703.716 L161.07 703.716 L161.07 707.651 L146.996 707.651 L146.996 716.123 Q148.015 715.776 149.033 715.614 Q150.052 715.429 151.07 715.429 Q156.857 715.429 160.237 718.6 Q163.617 721.771 163.617 727.188 Q163.617 732.767 160.144 735.868 Q156.672 738.947 150.353 738.947 Q148.177 738.947 145.908 738.577 Q143.663 738.206 141.256 737.466 L141.256 732.767 Q143.339 733.901 145.561 734.456 Q147.783 735.012 150.26 735.012 Q154.265 735.012 156.603 732.905 Q158.941 730.799 158.941 727.188 Q158.941 723.577 156.603 721.47 Q154.265 719.364 150.26 719.364 Q148.385 719.364 146.51 719.781 Q144.658 720.197 142.714 721.077 L142.714 703.716 Z" fill="#000000" fill-rule="evenodd" fill-opacity="1" /><path clip-path="url(#clip880)" d="M 0 0 M64.6588 479.05 L72.2976 479.05 L72.2976 452.684 L63.9875 454.351 L63.9875 450.091 L72.2513 448.425 L76.9272 448.425 L76.9272 479.05 L84.5661 479.05 L84.5661 482.985 L64.6588 482.985 L64.6588 479.05 Z" fill="#000000" fill-rule="evenodd" fill-opacity="1" /><path clip-path="url(#clip880)" d="M 0 0 M89.6818 448.425 L108.038 448.425 L108.038 452.36 L93.9642 452.36 L93.9642 460.832 Q94.9827 460.485 96.0012 460.323 Q97.0197 460.138 98.0382 460.138 Q103.825 460.138 107.205 463.309 Q110.584 466.48 110.584 471.897 Q110.584 477.476 107.112 480.577 Q103.64 483.656 97.3206 483.656 Q95.1447 483.656 92.8762 483.286 Q90.6309 482.915 88.2235 482.175 L88.2235 477.476 Q90.3068 478.61 92.529 479.165 Q94.7512 479.721 97.2281 479.721 Q101.233 479.721 103.571 477.614 Q105.909 475.508 105.909 471.897 Q105.909 468.286 103.571 466.179 Q101.233 464.073 97.2281 464.073 Q95.3531 464.073 93.4781 464.49 Q91.6262 464.906 89.6818 465.786 L89.6818 448.425 Z" fill="#000000" fill-rule="evenodd" fill-opacity="1" /><path clip-path="url(#clip880)" d="M 0 0 M115.7 448.425 L134.057 448.425 L134.057 452.36 L119.983 452.36 L119.983 460.832 Q121.001 460.485 122.02 460.323 Q123.038 460.138 124.057 460.138 Q129.844 460.138 133.223 463.309 Q136.603 466.48 136.603 471.897 Q136.603 477.476 133.131 480.577 Q129.658 483.656 123.339 483.656 Q121.163 483.656 118.895 483.286 Q116.649 482.915 114.242 482.175 L114.242 477.476 Q116.325 478.61 118.547 479.165 Q120.77 479.721 123.246 479.721 Q127.251 479.721 129.589 477.614 Q131.927 475.508 131.927 471.897 Q131.927 468.286 129.589 466.179 Q127.251 464.073 123.246 464.073 Q121.371 464.073 119.496 464.49 Q117.645 464.906 115.7 465.786 L115.7 448.425 Z" fill="#000000" fill-rule="evenodd" fill-opacity="1" /><path clip-path="url(#clip880)" d="M 0 0 M151.672 451.503 Q148.061 451.503 146.232 455.068 Q144.427 458.61 144.427 465.74 Q144.427 472.846 146.232 476.411 Q148.061 479.952 151.672 479.952 Q155.306 479.952 157.112 476.411 Q158.941 472.846 158.941 465.74 Q158.941 458.61 157.112 455.068 Q155.306 451.503 151.672 451.503 M151.672 447.8 Q157.482 447.8 160.538 452.406 Q163.617 456.99 163.617 465.74 Q163.617 474.466 160.538 479.073 Q157.482 483.656 151.672 483.656 Q145.862 483.656 142.783 479.073 Q139.728 474.466 139.728 465.74 Q139.728 456.99 142.783 452.406 Q145.862 447.8 151.672 447.8 Z" fill="#000000" fill-rule="evenodd" fill-opacity="1" /><path clip-path="url(#clip880)" d="M 0 0 M65.5616 223.759 L73.2004 223.759 L73.2004 197.393 L64.8903 199.06 L64.8903 194.8 L73.1541 193.134 L77.83 193.134 L77.83 223.759 L85.4689 223.759 L85.4689 227.694 L65.5616 227.694 L65.5616 223.759 Z" fill="#000000" fill-rule="evenodd" fill-opacity="1" /><path clip-path="url(#clip880)" d="M 0 0 M90.5846 193.134 L108.941 193.134 L108.941 197.069 L94.867 197.069 L94.867 205.541 Q95.8855 205.194 96.904 205.032 Q97.9225 204.847 98.941 204.847 Q104.728 204.847 108.108 208.018 Q111.487 211.189 111.487 216.606 Q111.487 222.185 108.015 225.286 Q104.543 228.365 98.2234 228.365 Q96.0475 228.365 93.779 227.995 Q91.5336 227.624 89.1262 226.884 L89.1262 222.185 Q91.2096 223.319 93.4318 223.874 Q95.654 224.43 98.1308 224.43 Q102.135 224.43 104.473 222.323 Q106.811 220.217 106.811 216.606 Q106.811 212.995 104.473 210.888 Q102.135 208.782 98.1308 208.782 Q96.2558 208.782 94.3808 209.198 Q92.529 209.615 90.5846 210.495 L90.5846 193.134 Z" fill="#000000" fill-rule="evenodd" fill-opacity="1" /><path clip-path="url(#clip880)" d="M 0 0 M115.376 193.134 L137.598 193.134 L137.598 195.124 L125.052 227.694 L120.168 227.694 L131.973 197.069 L115.376 197.069 L115.376 193.134 Z" fill="#000000" fill-rule="evenodd" fill-opacity="1" /><path clip-path="url(#clip880)" d="M 0 0 M142.714 193.134 L161.07 193.134 L161.07 197.069 L146.996 197.069 L146.996 205.541 Q148.015 205.194 149.033 205.032 Q150.052 204.847 151.07 204.847 Q156.857 204.847 160.237 208.018 Q163.617 211.189 163.617 216.606 Q163.617 222.185 160.144 225.286 Q156.672 228.365 150.353 228.365 Q148.177 228.365 145.908 227.995 Q143.663 227.624 141.256 226.884 L141.256 222.185 Q143.339 223.319 145.561 223.874 Q147.783 224.43 150.26 224.43 Q154.265 224.43 156.603 222.323 Q158.941 220.217 158.941 216.606 Q158.941 212.995 156.603 210.888 Q154.265 208.782 150.26 208.782 Q148.385 208.782 146.51 209.198 Q144.658 209.615 142.714 210.495 L142.714 193.134 Z" fill="#000000" fill-rule="evenodd" fill-opacity="1" /><polyline clip-path="url(#clip882)" style="stroke:#009af9; stroke-width:4; stroke-opacity:1; fill:none" points="
  248.894,465.705 314.784,1075.24 380.674,740.092 446.564,976.287 512.453,755.511 710.123,820.457 776.013,87.9763 841.902,358.483 907.792,292.414 973.682,987.213 
  1171.35,816.985 1237.24,719.157 1303.13,911.75 1369.02,1006.92 1434.91,925.126 1632.58,1112.71 1698.47,1215.55 1764.36,1289.78 1830.25,1264.77 1896.14,976.287 
  2093.81,1107.2 2159.7,1053.49 2225.59,1123.54 2291.48,870.699 
  "/>
<polyline clip-path="url(#clip882)" style="stroke:#e26f46; stroke-width:4; stroke-opacity:1; fill:none" points="
  248.894,188.643 314.784,741.93 380.674,615.51 446.564,785.432 512.453,736.927 710.123,258.51 776.013,87.9763 841.902,261.472 907.792,242.376 973.682,796.194 
  1171.35,557.916 1237.24,705.883 1303.13,657.153 1369.02,589.572 1434.91,884.893 1632.58,1073.6 1698.47,1123.74 1764.36,1155.91 1830.25,951.881 1896.14,804.272 
  2093.81,934.675 2159.7,874.17 2225.59,849.806 2291.48,595.903 
  "/>
<polyline clip-path="url(#clip882)" style="stroke:#3da44d; stroke-width:4; stroke-opacity:1; fill:none" points="
  248.894,922.747 314.784,1144.78 380.674,996.71 446.564,1116.08 512.453,992.421 710.123,939.525 776.013,421.999 841.902,505.53 907.792,900.803 973.682,1094.74 
  1171.35,820.968 1237.24,1000.18 1303.13,962.706 1369.02,1055.73 1434.91,1445.72 1632.58,1327.16 1698.47,1398.54 1764.36,1349.42 1830.25,1323.48 1896.14,1163.77 
  2093.81,1251.18 2159.7,1200.94 2225.59,1126.91 2291.48,894.543 
  "/>
<polyline clip-path="url(#clip882)" style="stroke:#c271d2; stroke-width:4; stroke-opacity:1; fill:none" points="
  248.894,860.487 314.784,766.132 380.674,837 446.564,792.477 512.453,817.495 710.123,305.178 776.013,379.722 841.902,276.892 907.792,816.168 973.682,855.075 
  1171.35,667.896 1237.24,972.815 1303.13,751.426 1369.02,655.131 1434.91,1150.29 1632.58,1237.19 1698.47,1334 1764.36,1245.77 1830.25,975.266 1896.14,1032.55 
  2093.81,1016.11 2159.7,1177.25 2225.59,908.686 2291.48,745.378 
  "/>
<path clip-path="url(#clip880)" d="
M1927.86 397.618 L2280.58 397.618 L2280.58 95.2176 L1927.86 95.2176  Z
  " fill="#ffffff" fill-rule="evenodd" fill-opacity="1"/>
<polyline clip-path="url(#clip880)" style="stroke:#000000; stroke-width:4; stroke-opacity:1; fill:none" points="
  1927.86,397.618 2280.58,397.618 2280.58,95.2176 1927.86,95.2176 1927.86,397.618 
  "/>
<polyline clip-path="url(#clip880)" style="stroke:#009af9; stroke-width:4; stroke-opacity:1; fill:none" points="
  1951.92,155.698 2096.26,155.698 
  "/>
<path clip-path="url(#clip880)" d="M 0 0 M2136.34 141.589 Q2131.24 141.589 2128.23 145.385 Q2125.25 149.181 2125.25 155.732 Q2125.25 162.26 2128.23 166.056 Q2131.24 169.853 2136.34 169.853 Q2141.43 169.853 2144.39 166.056 Q2147.38 162.26 2147.38 155.732 Q2147.38 149.181 2144.39 145.385 Q2141.43 141.589 2136.34 141.589 M2136.34 137.793 Q2143.61 137.793 2147.96 142.677 Q2152.31 147.538 2152.31 155.732 Q2152.31 163.904 2147.96 168.788 Q2143.61 173.649 2136.34 173.649 Q2129.05 173.649 2124.67 168.788 Q2120.32 163.927 2120.32 155.732 Q2120.32 147.538 2124.67 142.677 Q2129.05 137.793 2136.34 137.793 Z" fill="#000000" fill-rule="evenodd" fill-opacity="1" /><path clip-path="url(#clip880)" d="M 0 0 M2160.9 169.089 L2160.9 182.839 L2156.61 182.839 L2156.61 147.052 L2160.9 147.052 L2160.9 150.987 Q2162.24 148.672 2164.28 147.561 Q2166.34 146.427 2169.18 146.427 Q2173.91 146.427 2176.85 150.177 Q2179.81 153.927 2179.81 160.038 Q2179.81 166.149 2176.85 169.899 Q2173.91 173.649 2169.18 173.649 Q2166.34 173.649 2164.28 172.538 Q2162.24 171.403 2160.9 169.089 M2175.39 160.038 Q2175.39 155.339 2173.44 152.677 Q2171.52 149.992 2168.14 149.992 Q2164.76 149.992 2162.82 152.677 Q2160.9 155.339 2160.9 160.038 Q2160.9 164.737 2162.82 167.422 Q2164.76 170.084 2168.14 170.084 Q2171.52 170.084 2173.44 167.422 Q2175.39 164.737 2175.39 160.038 Z" fill="#000000" fill-rule="evenodd" fill-opacity="1" /><path clip-path="url(#clip880)" d="M 0 0 M2206.45 158.95 L2206.45 161.033 L2186.87 161.033 Q2187.15 165.431 2189.51 167.746 Q2191.89 170.038 2196.13 170.038 Q2198.58 170.038 2200.87 169.436 Q2203.19 168.834 2205.46 167.63 L2205.46 171.658 Q2203.16 172.63 2200.76 173.14 Q2198.35 173.649 2195.87 173.649 Q2189.67 173.649 2186.04 170.038 Q2182.42 166.427 2182.42 160.269 Q2182.42 153.904 2185.85 150.177 Q2189.3 146.427 2195.13 146.427 Q2200.36 146.427 2203.4 149.806 Q2206.45 153.163 2206.45 158.95 M2202.19 157.7 Q2202.15 154.205 2200.23 152.121 Q2198.33 150.038 2195.18 150.038 Q2191.61 150.038 2189.46 152.052 Q2187.33 154.066 2187.01 157.723 L2202.19 157.7 Z" fill="#000000" fill-rule="evenodd" fill-opacity="1" /><path clip-path="url(#clip880)" d="M 0 0 M2232.47 157.329 L2232.47 172.978 L2228.21 172.978 L2228.21 157.468 Q2228.21 153.788 2226.78 151.959 Q2225.34 150.13 2222.47 150.13 Q2219.02 150.13 2217.03 152.33 Q2215.04 154.529 2215.04 158.325 L2215.04 172.978 L2210.76 172.978 L2210.76 147.052 L2215.04 147.052 L2215.04 151.08 Q2216.57 148.742 2218.63 147.584 Q2220.71 146.427 2223.42 146.427 Q2227.89 146.427 2230.18 149.205 Q2232.47 151.959 2232.47 157.329 Z" fill="#000000" fill-rule="evenodd" fill-opacity="1" /><polyline clip-path="url(#clip880)" style="stroke:#e26f46; stroke-width:4; stroke-opacity:1; fill:none" points="
  1951.92,216.178 2096.26,216.178 
  "/>
<path clip-path="url(#clip880)" d="M 0 0 M2120.32 198.898 L2124.99 198.898 L2124.99 213.064 L2141.98 213.064 L2141.98 198.898 L2146.66 198.898 L2146.66 233.458 L2141.98 233.458 L2141.98 216.999 L2124.99 216.999 L2124.99 233.458 L2120.32 233.458 L2120.32 198.898 Z" fill="#000000" fill-rule="evenodd" fill-opacity="1" /><path clip-path="url(#clip880)" d="M 0 0 M2151.13 207.532 L2155.39 207.532 L2155.39 233.458 L2151.13 233.458 L2151.13 207.532 M2151.13 197.439 L2155.39 197.439 L2155.39 202.833 L2151.13 202.833 L2151.13 197.439 Z" fill="#000000" fill-rule="evenodd" fill-opacity="1" /><path clip-path="url(#clip880)" d="M 0 0 M2176.92 220.194 Q2176.92 215.564 2174.99 213.018 Q2173.1 210.472 2169.65 210.472 Q2166.22 210.472 2164.3 213.018 Q2162.4 215.564 2162.4 220.194 Q2162.4 224.8 2164.3 227.346 Q2166.22 229.893 2169.65 229.893 Q2173.1 229.893 2174.99 227.346 Q2176.92 224.8 2176.92 220.194 M2181.17 230.24 Q2181.17 236.86 2178.23 240.078 Q2175.29 243.319 2169.23 243.319 Q2166.98 243.319 2164.99 242.971 Q2163 242.647 2161.13 241.953 L2161.13 237.809 Q2163 238.828 2164.83 239.314 Q2166.66 239.8 2168.56 239.8 Q2172.75 239.8 2174.83 237.601 Q2176.92 235.425 2176.92 231.004 L2176.92 228.897 Q2175.6 231.189 2173.54 232.323 Q2171.48 233.458 2168.6 233.458 Q2163.84 233.458 2160.92 229.823 Q2158 226.189 2158 220.194 Q2158 214.175 2160.92 210.541 Q2163.84 206.907 2168.6 206.907 Q2171.48 206.907 2173.54 208.041 Q2175.6 209.175 2176.92 211.467 L2176.92 207.532 L2181.17 207.532 L2181.17 230.24 Z" fill="#000000" fill-rule="evenodd" fill-opacity="1" /><path clip-path="url(#clip880)" d="M 0 0 M2207.19 217.809 L2207.19 233.458 L2202.93 233.458 L2202.93 217.948 Q2202.93 214.268 2201.5 212.439 Q2200.06 210.61 2197.19 210.61 Q2193.74 210.61 2191.75 212.81 Q2189.76 215.009 2189.76 218.805 L2189.76 233.458 L2185.48 233.458 L2185.48 197.439 L2189.76 197.439 L2189.76 211.56 Q2191.29 209.222 2193.35 208.064 Q2195.43 206.907 2198.14 206.907 Q2202.61 206.907 2204.9 209.685 Q2207.19 212.439 2207.19 217.809 Z" fill="#000000" fill-rule="evenodd" fill-opacity="1" /><polyline clip-path="url(#clip880)" style="stroke:#3da44d; stroke-width:4; stroke-opacity:1; fill:none" points="
  1951.92,276.658 2096.26,276.658 
  "/>
<path clip-path="url(#clip880)" d="M 0 0 M2120.32 259.378 L2124.99 259.378 L2124.99 290.002 L2141.82 290.002 L2141.82 293.938 L2120.32 293.938 L2120.32 259.378 Z" fill="#000000" fill-rule="evenodd" fill-opacity="1" /><path clip-path="url(#clip880)" d="M 0 0 M2155.5 270.998 Q2152.08 270.998 2150.09 273.683 Q2148.1 276.345 2148.1 280.998 Q2148.1 285.651 2150.06 288.336 Q2152.05 290.998 2155.5 290.998 Q2158.91 290.998 2160.9 288.313 Q2162.89 285.627 2162.89 280.998 Q2162.89 276.391 2160.9 273.706 Q2158.91 270.998 2155.5 270.998 M2155.5 267.387 Q2161.06 267.387 2164.23 270.998 Q2167.4 274.609 2167.4 280.998 Q2167.4 287.364 2164.23 290.998 Q2161.06 294.609 2155.5 294.609 Q2149.92 294.609 2146.75 290.998 Q2143.61 287.364 2143.61 280.998 Q2143.61 274.609 2146.75 270.998 Q2149.92 267.387 2155.5 267.387 Z" fill="#000000" fill-rule="evenodd" fill-opacity="1" /><path clip-path="url(#clip880)" d="M 0 0 M2169.39 268.012 L2173.65 268.012 L2178.98 288.243 L2184.28 268.012 L2189.3 268.012 L2194.62 288.243 L2199.92 268.012 L2204.18 268.012 L2197.4 293.938 L2192.38 293.938 L2186.8 272.688 L2181.2 293.938 L2176.17 293.938 L2169.39 268.012 Z" fill="#000000" fill-rule="evenodd" fill-opacity="1" /><polyline clip-path="url(#clip880)" style="stroke:#c271d2; stroke-width:4; stroke-opacity:1; fill:none" points="
  1951.92,337.138 2096.26,337.138 
  "/>
<path clip-path="url(#clip880)" d="M 0 0 M2148.19 322.52 L2148.19 327.45 Q2145.83 325.251 2143.14 324.163 Q2140.48 323.075 2137.47 323.075 Q2131.55 323.075 2128.4 326.709 Q2125.25 330.32 2125.25 337.172 Q2125.25 344.001 2128.4 347.635 Q2131.55 351.246 2137.47 351.246 Q2140.48 351.246 2143.14 350.158 Q2145.83 349.07 2148.19 346.871 L2148.19 351.756 Q2145.73 353.422 2142.98 354.256 Q2140.25 355.089 2137.19 355.089 Q2129.35 355.089 2124.83 350.297 Q2120.32 345.482 2120.32 337.172 Q2120.32 328.839 2124.83 324.047 Q2129.35 319.233 2137.19 319.233 Q2140.29 319.233 2143.03 320.066 Q2145.78 320.876 2148.19 322.52 Z" fill="#000000" fill-rule="evenodd" fill-opacity="1" /><path clip-path="url(#clip880)" d="M 0 0 M2152.66 318.399 L2156.92 318.399 L2156.92 354.418 L2152.66 354.418 L2152.66 318.399 Z" fill="#000000" fill-rule="evenodd" fill-opacity="1" /><path clip-path="url(#clip880)" d="M 0 0 M2171.43 331.478 Q2168 331.478 2166.01 334.163 Q2164.02 336.825 2164.02 341.478 Q2164.02 346.131 2165.99 348.816 Q2167.98 351.478 2171.43 351.478 Q2174.83 351.478 2176.82 348.793 Q2178.81 346.107 2178.81 341.478 Q2178.81 336.871 2176.82 334.186 Q2174.83 331.478 2171.43 331.478 M2171.43 327.867 Q2176.98 327.867 2180.16 331.478 Q2183.33 335.089 2183.33 341.478 Q2183.33 347.844 2180.16 351.478 Q2176.98 355.089 2171.43 355.089 Q2165.85 355.089 2162.68 351.478 Q2159.53 347.844 2159.53 341.478 Q2159.53 335.089 2162.68 331.478 Q2165.85 327.867 2171.43 327.867 Z" fill="#000000" fill-rule="evenodd" fill-opacity="1" /><path clip-path="url(#clip880)" d="M 0 0 M2204.32 329.256 L2204.32 333.283 Q2202.52 332.357 2200.57 331.895 Q2198.63 331.432 2196.54 331.432 Q2193.37 331.432 2191.78 332.404 Q2190.2 333.376 2190.2 335.32 Q2190.2 336.802 2191.34 337.658 Q2192.47 338.492 2195.9 339.256 L2197.35 339.58 Q2201.89 340.552 2203.79 342.334 Q2205.71 344.094 2205.71 347.265 Q2205.71 350.876 2202.84 352.982 Q2199.99 355.089 2194.99 355.089 Q2192.91 355.089 2190.64 354.672 Q2188.4 354.279 2185.9 353.468 L2185.9 349.07 Q2188.26 350.297 2190.55 350.922 Q2192.84 351.524 2195.09 351.524 Q2198.1 351.524 2199.72 350.506 Q2201.34 349.464 2201.34 347.589 Q2201.34 345.853 2200.16 344.927 Q2199 344.001 2195.04 343.144 L2193.56 342.797 Q2189.6 341.964 2187.84 340.251 Q2186.08 338.515 2186.08 335.506 Q2186.08 331.848 2188.67 329.858 Q2191.27 327.867 2196.04 327.867 Q2198.4 327.867 2200.48 328.214 Q2202.56 328.561 2204.32 329.256 Z" fill="#000000" fill-rule="evenodd" fill-opacity="1" /><path clip-path="url(#clip880)" d="M 0 0 M2232.35 340.39 L2232.35 342.473 L2212.77 342.473 Q2213.05 346.871 2215.41 349.186 Q2217.79 351.478 2222.03 351.478 Q2224.48 351.478 2226.78 350.876 Q2229.09 350.274 2231.36 349.07 L2231.36 353.098 Q2229.07 354.07 2226.66 354.58 Q2224.25 355.089 2221.78 355.089 Q2215.57 355.089 2211.94 351.478 Q2208.33 347.867 2208.33 341.709 Q2208.33 335.344 2211.75 331.617 Q2215.2 327.867 2221.04 327.867 Q2226.27 327.867 2229.3 331.246 Q2232.35 334.603 2232.35 340.39 M2228.1 339.14 Q2228.05 335.645 2226.13 333.561 Q2224.23 331.478 2221.08 331.478 Q2217.52 331.478 2215.36 333.492 Q2213.23 335.506 2212.91 339.163 L2228.1 339.14 Z" fill="#000000" fill-rule="evenodd" fill-opacity="1" /></svg>
