<?xml version="1.0" encoding="utf-8"?>
<svg xmlns="http://www.w3.org/2000/svg" xmlns:xlink="http://www.w3.org/1999/xlink" width="600" height="400" viewBox="0 0 2400 1600">
<defs>
  <clipPath id="clip970">
    <rect x="0" y="0" width="2400" height="1600"/>
  </clipPath>
</defs>
<path clip-path="url(#clip970)" d="
M0 1600 L2400 1600 L2400 0 L0 0  Z
  " fill="#ffffff" fill-rule="evenodd" fill-opacity="1"/>
<defs>
  <clipPath id="clip971">
    <rect x="480" y="0" width="1681" height="1600"/>
  </clipPath>
</defs>
<path clip-path="url(#clip970)" d="
M187.617 1348.41 L2352.76 1348.41 L2352.76 47.2441 L187.617 47.2441  Z
  " fill="#ffffff" fill-rule="evenodd" fill-opacity="1"/>
<defs>
  <clipPath id="clip972">
    <rect x="187" y="47" width="2166" height="1302"/>
  </clipPath>
</defs>
<polyline clip-path="url(#clip972)" style="stroke:#000000; stroke-width:2; stroke-opacity:0.1; fill:none" points="
  287.353,1348.41 287.353,47.2441 
  "/>
<polyline clip-path="url(#clip972)" style="stroke:#000000; stroke-width:2; stroke-opacity:0.1; fill:none" points="
  372.817,1348.41 372.817,47.2441 
  "/>
<polyline clip-path="url(#clip972)" style="stroke:#000000; stroke-width:2; stroke-opacity:0.1; fill:none" points="
  458.28,1348.41 458.28,47.2441 
  "/>
<polyline clip-path="url(#clip972)" style="stroke:#000000; stroke-width:2; stroke-opacity:0.1; fill:none" points="
  543.744,1348.41 543.744,47.2441 
  "/>
<polyline clip-path="url(#clip972)" style="stroke:#000000; stroke-width:2; stroke-opacity:0.1; fill:none" points="
  629.208,1348.41 629.208,47.2441 
  "/>
<polyline clip-path="url(#clip972)" style="stroke:#000000; stroke-width:2; stroke-opacity:0.1; fill:none" points="
  714.672,1348.41 714.672,47.2441 
  "/>
<polyline clip-path="url(#clip972)" style="stroke:#000000; stroke-width:2; stroke-opacity:0.1; fill:none" points="
  800.135,1348.41 800.135,47.2441 
  "/>
<polyline clip-path="url(#clip972)" style="stroke:#000000; stroke-width:2; stroke-opacity:0.1; fill:none" points="
  885.599,1348.41 885.599,47.2441 
  "/>
<polyline clip-path="url(#clip972)" style="stroke:#000000; stroke-width:2; stroke-opacity:0.1; fill:none" points="
  971.063,1348.41 971.063,47.2441 
  "/>
<polyline clip-path="url(#clip972)" style="stroke:#000000; stroke-width:2; stroke-opacity:0.1; fill:none" points="
  1056.53,1348.41 1056.53,47.2441 
  "/>
<polyline clip-path="url(#clip972)" style="stroke:#000000; stroke-width:2; stroke-opacity:0.1; fill:none" points="
  1141.99,1348.41 1141.99,47.2441 
  "/>
<polyline clip-path="url(#clip972)" style="stroke:#000000; stroke-width:2; stroke-opacity:0.1; fill:none" points="
  1227.45,1348.41 1227.45,47.2441 
  "/>
<polyline clip-path="url(#clip972)" style="stroke:#000000; stroke-width:2; stroke-opacity:0.1; fill:none" points="
  1312.92,1348.41 1312.92,47.2441 
  "/>
<polyline clip-path="url(#clip972)" style="stroke:#000000; stroke-width:2; stroke-opacity:0.1; fill:none" points="
  1398.38,1348.41 1398.38,47.2441 
  "/>
<polyline clip-path="url(#clip972)" style="stroke:#000000; stroke-width:2; stroke-opacity:0.1; fill:none" points="
  1483.85,1348.41 1483.85,47.2441 
  "/>
<polyline clip-path="url(#clip972)" style="stroke:#000000; stroke-width:2; stroke-opacity:0.1; fill:none" points="
  1569.31,1348.41 1569.31,47.2441 
  "/>
<polyline clip-path="url(#clip972)" style="stroke:#000000; stroke-width:2; stroke-opacity:0.1; fill:none" points="
  1654.77,1348.41 1654.77,47.2441 
  "/>
<polyline clip-path="url(#clip972)" style="stroke:#000000; stroke-width:2; stroke-opacity:0.1; fill:none" points="
  1740.24,1348.41 1740.24,47.2441 
  "/>
<polyline clip-path="url(#clip972)" style="stroke:#000000; stroke-width:2; stroke-opacity:0.1; fill:none" points="
  1825.7,1348.41 1825.7,47.2441 
  "/>
<polyline clip-path="url(#clip972)" style="stroke:#000000; stroke-width:2; stroke-opacity:0.1; fill:none" points="
  1911.16,1348.41 1911.16,47.2441 
  "/>
<polyline clip-path="url(#clip972)" style="stroke:#000000; stroke-width:2; stroke-opacity:0.1; fill:none" points="
  1996.63,1348.41 1996.63,47.2441 
  "/>
<polyline clip-path="url(#clip972)" style="stroke:#000000; stroke-width:2; stroke-opacity:0.1; fill:none" points="
  2082.09,1348.41 2082.09,47.2441 
  "/>
<polyline clip-path="url(#clip972)" style="stroke:#000000; stroke-width:2; stroke-opacity:0.1; fill:none" points="
  2167.56,1348.41 2167.56,47.2441 
  "/>
<polyline clip-path="url(#clip972)" style="stroke:#000000; stroke-width:2; stroke-opacity:0.1; fill:none" points="
  2253.02,1348.41 2253.02,47.2441 
  "/>
<polyline clip-path="url(#clip972)" style="stroke:#000000; stroke-width:2; stroke-opacity:0.1; fill:none" points="
  187.617,1117.98 2352.76,1117.98 
  "/>
<polyline clip-path="url(#clip972)" style="stroke:#000000; stroke-width:2; stroke-opacity:0.1; fill:none" points="
  187.617,887.177 2352.76,887.177 
  "/>
<polyline clip-path="url(#clip972)" style="stroke:#000000; stroke-width:2; stroke-opacity:0.1; fill:none" points="
  187.617,656.373 2352.76,656.373 
  "/>
<polyline clip-path="url(#clip972)" style="stroke:#000000; stroke-width:2; stroke-opacity:0.1; fill:none" points="
  187.617,425.568 2352.76,425.568 
  "/>
<polyline clip-path="url(#clip972)" style="stroke:#000000; stroke-width:2; stroke-opacity:0.1; fill:none" points="
  187.617,194.763 2352.76,194.763 
  "/>
<polyline clip-path="url(#clip970)" style="stroke:#000000; stroke-width:4; stroke-opacity:1; fill:none" points="
  187.617,1348.41 2352.76,1348.41 
  "/>
<polyline clip-path="url(#clip970)" style="stroke:#000000; stroke-width:4; stroke-opacity:1; fill:none" points="
  187.617,1348.41 187.617,47.2441 
  "/>
<polyline clip-path="url(#clip970)" style="stroke:#000000; stroke-width:4; stroke-opacity:1; fill:none" points="
  287.353,1348.41 287.353,1332.79 
  "/>
<polyline clip-path="url(#clip970)" style="stroke:#000000; stroke-width:4; stroke-opacity:1; fill:none" points="
  372.817,1348.41 372.817,1332.79 
  "/>
<polyline clip-path="url(#clip970)" style="stroke:#000000; stroke-width:4; stroke-opacity:1; fill:none" points="
  458.28,1348.41 458.28,1332.79 
  "/>
<polyline clip-path="url(#clip970)" style="stroke:#000000; stroke-width:4; stroke-opacity:1; fill:none" points="
  543.744,1348.41 543.744,1332.79 
  "/>
<polyline clip-path="url(#clip970)" style="stroke:#000000; stroke-width:4; stroke-opacity:1; fill:none" points="
  629.208,1348.41 629.208,1332.79 
  "/>
<polyline clip-path="url(#clip970)" style="stroke:#000000; stroke-width:4; stroke-opacity:1; fill:none" points="
  714.672,1348.41 714.672,1332.79 
  "/>
<polyline clip-path="url(#clip970)" style="stroke:#000000; stroke-width:4; stroke-opacity:1; fill:none" points="
  800.135,1348.41 800.135,1332.79 
  "/>
<polyline clip-path="url(#clip970)" style="stroke:#000000; stroke-width:4; stroke-opacity:1; fill:none" points="
  885.599,1348.41 885.599,1332.79 
  "/>
<polyline clip-path="url(#clip970)" style="stroke:#000000; stroke-width:4; stroke-opacity:1; fill:none" points="
  971.063,1348.41 971.063,1332.79 
  "/>
<polyline clip-path="url(#clip970)" style="stroke:#000000; stroke-width:4; stroke-opacity:1; fill:none" points="
  1056.53,1348.41 1056.53,1332.79 
  "/>
<polyline clip-path="url(#clip970)" style="stroke:#000000; stroke-width:4; stroke-opacity:1; fill:none" points="
  1141.99,1348.41 1141.99,1332.79 
  "/>
<polyline clip-path="url(#clip970)" style="stroke:#000000; stroke-width:4; stroke-opacity:1; fill:none" points="
  1227.45,1348.41 1227.45,1332.79 
  "/>
<polyline clip-path="url(#clip970)" style="stroke:#000000; stroke-width:4; stroke-opacity:1; fill:none" points="
  1312.92,1348.41 1312.92,1332.79 
  "/>
<polyline clip-path="url(#clip970)" style="stroke:#000000; stroke-width:4; stroke-opacity:1; fill:none" points="
  1398.38,1348.41 1398.38,1332.79 
  "/>
<polyline clip-path="url(#clip970)" style="stroke:#000000; stroke-width:4; stroke-opacity:1; fill:none" points="
  1483.85,1348.41 1483.85,1332.79 
  "/>
<polyline clip-path="url(#clip970)" style="stroke:#000000; stroke-width:4; stroke-opacity:1; fill:none" points="
  1569.31,1348.41 1569.31,1332.79 
  "/>
<polyline clip-path="url(#clip970)" style="stroke:#000000; stroke-width:4; stroke-opacity:1; fill:none" points="
  1654.77,1348.41 1654.77,1332.79 
  "/>
<polyline clip-path="url(#clip970)" style="stroke:#000000; stroke-width:4; stroke-opacity:1; fill:none" points="
  1740.24,1348.41 1740.24,1332.79 
  "/>
<polyline clip-path="url(#clip970)" style="stroke:#000000; stroke-width:4; stroke-opacity:1; fill:none" points="
  1825.7,1348.41 1825.7,1332.79 
  "/>
<polyline clip-path="url(#clip970)" style="stroke:#000000; stroke-width:4; stroke-opacity:1; fill:none" points="
  1911.16,1348.41 1911.16,1332.79 
  "/>
<polyline clip-path="url(#clip970)" style="stroke:#000000; stroke-width:4; stroke-opacity:1; fill:none" points="
  1996.63,1348.41 1996.63,1332.79 
  "/>
<polyline clip-path="url(#clip970)" style="stroke:#000000; stroke-width:4; stroke-opacity:1; fill:none" points="
  2082.09,1348.41 2082.09,1332.79 
  "/>
<polyline clip-path="url(#clip970)" style="stroke:#000000; stroke-width:4; stroke-opacity:1; fill:none" points="
  2167.56,1348.41 2167.56,1332.79 
  "/>
<polyline clip-path="url(#clip970)" style="stroke:#000000; stroke-width:4; stroke-opacity:1; fill:none" points="
  2253.02,1348.41 2253.02,1332.79 
  "/>
<polyline clip-path="url(#clip970)" style="stroke:#000000; stroke-width:4; stroke-opacity:1; fill:none" points="
  187.617,1117.98 213.598,1117.98 
  "/>
<polyline clip-path="url(#clip970)" style="stroke:#000000; stroke-width:4; stroke-opacity:1; fill:none" points="
  187.617,887.177 213.598,887.177 
  "/>
<polyline clip-path="url(#clip970)" style="stroke:#000000; stroke-width:4; stroke-opacity:1; fill:none" points="
  187.617,656.373 213.598,656.373 
  "/>
<polyline clip-path="url(#clip970)" style="stroke:#000000; stroke-width:4; stroke-opacity:1; fill:none" points="
  187.617,425.568 213.598,425.568 
  "/>
<polyline clip-path="url(#clip970)" style="stroke:#000000; stroke-width:4; stroke-opacity:1; fill:none" points="
  187.617,194.763 213.598,194.763 
  "/>
<path clip-path="url(#clip970)" d="M 0 0 M204.549 1578.9 L212.708 1564.77 L216.116 1566.73 L205.144 1585.74 L201.736 1583.77 Q200.682 1580.09 198.964 1573.8 Q197.238 1567.49 196.665 1565.8 Q195.603 1562.59 194.539 1560.96 Q193.467 1559.3 192.004 1558.45 Q189.618 1557.08 187.142 1557.89 Q184.678 1558.69 183.127 1561.37 Q182.028 1563.28 181.463 1565.79 Q180.909 1568.27 180.863 1571.45 L176.774 1569.09 Q177.203 1566.08 177.929 1563.66 Q178.655 1561.25 179.673 1559.49 Q182.358 1554.84 186.281 1553.41 Q190.204 1551.99 194.093 1554.23 Q195.937 1555.3 197.196 1556.96 Q198.446 1558.59 199.638 1561.71 Q199.93 1562.55 201.166 1566.84 Q202.381 1571.13 204.549 1578.9 Z" fill="#000000" fill-rule="evenodd" fill-opacity="1" /><path clip-path="url(#clip970)" d="M 0 0 M196.387 1537.94 Q194.582 1541.07 196.755 1544.44 Q198.919 1547.77 205.094 1551.34 Q211.248 1554.89 215.238 1555.11 Q219.219 1555.3 221.025 1552.17 Q222.842 1549.02 220.678 1545.69 Q218.505 1542.32 212.35 1538.77 Q206.176 1535.2 202.195 1535.02 Q198.205 1534.8 196.387 1537.94 M193.18 1536.09 Q196.085 1531.06 201.602 1530.72 Q207.111 1530.34 214.688 1534.72 Q222.246 1539.08 224.696 1544.05 Q227.138 1548.99 224.232 1554.02 Q221.327 1559.05 215.819 1559.43 Q210.302 1559.77 202.744 1555.41 Q195.166 1551.03 192.725 1546.09 Q190.275 1541.12 193.18 1536.09 Z" fill="#000000" fill-rule="evenodd" fill-opacity="1" /><path clip-path="url(#clip970)" d="M 0 0 M230.764 1533.49 L238.924 1519.36 L242.332 1521.33 L231.359 1540.33 L227.951 1538.37 Q226.897 1534.68 225.179 1528.4 Q223.453 1522.08 222.881 1520.39 Q221.818 1517.18 220.754 1515.55 Q219.682 1513.89 218.219 1513.05 Q215.833 1511.67 213.358 1512.49 Q210.893 1513.28 209.343 1515.97 Q208.243 1517.87 207.678 1520.38 Q207.124 1522.87 207.078 1526.05 L202.989 1523.69 Q203.418 1520.67 204.144 1518.26 Q204.87 1515.84 205.888 1514.08 Q208.573 1509.43 212.496 1508.01 Q216.419 1506.58 220.308 1508.83 Q222.152 1509.89 223.411 1511.55 Q224.661 1513.19 225.853 1516.31 Q226.145 1517.14 227.381 1521.44 Q228.596 1525.72 230.764 1533.49 Z" fill="#000000" fill-rule="evenodd" fill-opacity="1" /><path clip-path="url(#clip970)" d="M 0 0 M222.603 1492.54 Q220.797 1495.67 222.97 1499.03 Q225.134 1502.37 231.309 1505.93 Q237.463 1509.48 241.453 1509.7 Q245.435 1509.89 247.24 1506.76 Q249.057 1503.61 246.893 1500.28 Q244.72 1496.91 238.566 1493.36 Q232.391 1489.8 228.41 1489.61 Q224.42 1489.39 222.603 1492.54 M219.395 1490.69 Q222.3 1485.65 227.817 1485.31 Q233.326 1484.94 240.904 1489.31 Q248.461 1493.68 250.911 1498.64 Q253.353 1503.58 250.448 1508.61 Q247.543 1513.65 242.034 1514.02 Q236.517 1514.36 228.959 1510 Q221.382 1505.62 218.94 1500.69 Q216.49 1495.72 219.395 1490.69 Z" fill="#000000" fill-rule="evenodd" fill-opacity="1" /><path clip-path="url(#clip970)" d="M 0 0 M244.106 1488.49 L250.344 1477.68 L253.632 1479.58 L247.393 1490.39 L244.106 1488.49 Z" fill="#000000" fill-rule="evenodd" fill-opacity="1" /><path clip-path="url(#clip970)" d="M 0 0 M243.505 1456.33 Q241.7 1459.46 243.873 1462.83 Q246.037 1466.16 252.211 1469.73 Q258.366 1473.28 262.356 1473.5 Q266.337 1473.69 268.143 1470.56 Q269.96 1467.41 267.796 1464.08 Q265.623 1460.71 259.468 1457.16 Q253.294 1453.59 249.312 1453.4 Q245.322 1453.19 243.505 1456.33 M240.298 1454.48 Q243.203 1449.45 248.72 1449.11 Q254.229 1448.73 261.806 1453.11 Q269.364 1457.47 271.814 1462.44 Q274.255 1467.38 271.35 1472.41 Q268.445 1477.44 262.937 1477.82 Q257.419 1478.16 249.862 1473.8 Q242.284 1469.42 239.843 1464.48 Q237.393 1459.51 240.298 1454.48 Z" fill="#000000" fill-rule="evenodd" fill-opacity="1" /><path clip-path="url(#clip970)" d="M 0 0 M248.756 1441.08 L259.867 1421.84 L261.591 1422.83 L283.523 1449.98 L281.081 1454.21 L260.462 1428.68 L252.164 1443.05 L248.756 1441.08 Z" fill="#000000" fill-rule="evenodd" fill-opacity="1" /><path clip-path="url(#clip970)" d="M 0 0 M278.064 1429.67 L284.302 1418.87 L287.59 1420.76 L281.352 1431.57 L278.064 1429.67 Z" fill="#000000" fill-rule="evenodd" fill-opacity="1" /><path clip-path="url(#clip970)" d="M 0 0 M296.724 1419.25 L300.544 1412.63 L277.71 1399.45 L274.999 1407.48 L271.31 1405.35 L273.999 1397.36 L276.337 1393.31 L302.858 1408.62 L306.678 1402.01 L310.086 1403.98 L300.132 1421.22 L296.724 1419.25 Z" fill="#000000" fill-rule="evenodd" fill-opacity="1" /><path clip-path="url(#clip970)" d="M 0 0 M303.566 1378 Q305.866 1375.45 308.768 1374.96 Q311.682 1374.45 314.568 1376.12 Q318.999 1378.68 319.665 1383.12 Q320.331 1387.57 317.091 1393.18 Q316.003 1395.07 314.465 1396.85 Q312.958 1398.63 310.989 1400.33 L307.08 1398.07 Q309.035 1396.95 310.693 1395.24 Q312.352 1393.52 313.613 1391.34 Q315.812 1387.53 315.455 1384.68 Q315.109 1381.8 312.242 1380.15 Q309.596 1378.62 307.036 1379.63 Q304.468 1380.6 302.558 1383.91 L300.544 1387.4 L297.216 1385.48 L299.323 1381.83 Q301.047 1378.84 300.779 1376.58 Q300.49 1374.3 298.245 1373 Q295.94 1371.67 293.768 1372.61 Q291.587 1373.52 289.828 1376.56 Q288.868 1378.23 288.129 1380.34 Q287.39 1382.45 286.833 1385.18 L283.224 1383.09 Q283.914 1380.42 284.75 1378.23 Q285.598 1376.02 286.629 1374.23 Q289.291 1369.62 292.946 1368.15 Q296.582 1366.67 300.151 1368.73 Q302.636 1370.17 303.539 1372.58 Q304.421 1374.99 303.566 1378 Z" fill="#000000" fill-rule="evenodd" fill-opacity="1" /><path clip-path="url(#clip970)" d="M 0 0 M460.535 1579.6 L468.695 1565.47 L472.103 1567.44 L461.13 1586.44 L457.723 1584.47 Q456.668 1580.79 454.95 1574.51 Q453.224 1568.19 452.652 1566.5 Q451.589 1563.29 450.526 1561.66 Q449.453 1560 447.99 1559.15 Q445.604 1557.78 443.129 1558.59 Q440.665 1559.39 439.114 1562.08 Q438.014 1563.98 437.449 1566.49 Q436.895 1568.97 436.849 1572.15 L432.76 1569.79 Q433.189 1566.78 433.915 1564.37 Q434.641 1561.95 435.659 1560.19 Q438.345 1555.54 442.267 1554.11 Q446.19 1552.69 450.079 1554.93 Q451.923 1556 453.182 1557.66 Q454.432 1559.29 455.624 1562.41 Q455.916 1563.25 457.152 1567.55 Q458.367 1571.83 460.535 1579.6 Z" fill="#000000" fill-rule="evenodd" fill-opacity="1" /><path clip-path="url(#clip970)" d="M 0 0 M452.374 1538.65 Q450.568 1541.77 452.741 1545.14 Q454.905 1548.47 461.08 1552.04 Q467.234 1555.59 471.224 1555.81 Q475.206 1556 477.011 1552.87 Q478.828 1549.72 476.664 1546.39 Q474.491 1543.02 468.337 1539.47 Q462.162 1535.9 458.181 1535.72 Q454.191 1535.5 452.374 1538.65 M449.166 1536.79 Q452.071 1531.76 457.588 1531.42 Q463.097 1531.04 470.675 1535.42 Q478.232 1539.78 480.682 1544.75 Q483.124 1549.69 480.219 1554.72 Q477.314 1559.75 471.805 1560.13 Q466.288 1560.47 458.73 1556.11 Q451.153 1551.73 448.711 1546.79 Q446.261 1541.83 449.166 1536.79 Z" fill="#000000" fill-rule="evenodd" fill-opacity="1" /><path clip-path="url(#clip970)" d="M 0 0 M486.75 1534.2 L494.91 1520.06 L498.318 1522.03 L487.346 1541.03 L483.938 1539.07 Q482.883 1535.38 481.165 1529.1 Q479.439 1522.78 478.867 1521.09 Q477.804 1517.89 476.741 1516.26 Q475.669 1514.59 474.205 1513.75 Q471.82 1512.37 469.344 1513.19 Q466.88 1513.98 465.329 1516.67 Q464.229 1518.57 463.664 1521.08 Q463.11 1523.57 463.064 1526.75 L458.975 1524.39 Q459.405 1521.37 460.13 1518.96 Q460.856 1516.55 461.875 1514.78 Q464.56 1510.13 468.482 1508.71 Q472.405 1507.28 476.294 1509.53 Q478.138 1510.59 479.397 1512.26 Q480.647 1513.89 481.839 1517.01 Q482.131 1517.84 483.367 1522.14 Q484.583 1526.42 486.75 1534.2 Z" fill="#000000" fill-rule="evenodd" fill-opacity="1" /><path clip-path="url(#clip970)" d="M 0 0 M478.589 1493.24 Q476.783 1496.37 478.956 1499.73 Q481.121 1503.07 487.295 1506.63 Q493.449 1510.19 497.439 1510.4 Q501.421 1510.59 503.226 1507.46 Q505.043 1504.32 502.879 1500.98 Q500.706 1497.62 494.552 1494.06 Q488.377 1490.5 484.396 1490.31 Q480.406 1490.09 478.589 1493.24 M475.381 1491.39 Q478.286 1486.36 483.804 1486.01 Q489.312 1485.64 496.89 1490.01 Q504.447 1494.38 506.897 1499.35 Q509.339 1504.28 506.434 1509.32 Q503.529 1514.35 498.02 1514.72 Q492.503 1515.06 484.945 1510.7 Q477.368 1506.33 474.926 1501.39 Q472.476 1496.42 475.381 1491.39 Z" fill="#000000" fill-rule="evenodd" fill-opacity="1" /><path clip-path="url(#clip970)" d="M 0 0 M500.092 1489.19 L506.33 1478.38 L509.618 1480.28 L503.38 1491.09 L500.092 1489.19 Z" fill="#000000" fill-rule="evenodd" fill-opacity="1" /><path clip-path="url(#clip970)" d="M 0 0 M499.492 1457.03 Q497.686 1460.16 499.859 1463.53 Q502.023 1466.86 508.198 1470.43 Q514.352 1473.98 518.342 1474.2 Q522.323 1474.39 524.129 1471.26 Q525.946 1468.11 523.782 1464.78 Q521.609 1461.41 515.455 1457.86 Q509.28 1454.29 505.299 1454.11 Q501.309 1453.89 499.492 1457.03 M496.284 1455.18 Q499.189 1450.15 504.706 1449.81 Q510.215 1449.43 517.792 1453.81 Q525.35 1458.17 527.8 1463.14 Q530.242 1468.08 527.336 1473.11 Q524.431 1478.14 518.923 1478.52 Q513.406 1478.86 505.848 1474.5 Q498.27 1470.12 495.829 1465.18 Q493.379 1460.21 496.284 1455.18 Z" fill="#000000" fill-rule="evenodd" fill-opacity="1" /><path clip-path="url(#clip970)" d="M 0 0 M504.742 1441.78 L515.853 1422.54 L517.577 1423.53 L539.51 1450.68 L537.068 1454.91 L516.448 1429.38 L508.15 1443.75 L504.742 1441.78 Z" fill="#000000" fill-rule="evenodd" fill-opacity="1" /><path clip-path="url(#clip970)" d="M 0 0 M534.05 1430.37 L540.289 1419.57 L543.576 1421.46 L537.338 1432.27 L534.05 1430.37 Z" fill="#000000" fill-rule="evenodd" fill-opacity="1" /><path clip-path="url(#clip970)" d="M 0 0 M552.71 1419.95 L556.53 1413.33 L533.697 1400.15 L530.985 1408.18 L527.296 1406.05 L529.985 1398.06 L532.323 1394.01 L558.845 1409.32 L562.664 1402.71 L566.072 1404.68 L556.118 1421.92 L552.71 1419.95 Z" fill="#000000" fill-rule="evenodd" fill-opacity="1" /><path clip-path="url(#clip970)" d="M 0 0 M557.317 1381.55 Q555.743 1384.28 556.682 1386.96 Q557.632 1389.62 560.879 1391.49 Q564.107 1393.36 566.906 1392.86 Q569.696 1392.34 571.27 1389.61 Q572.844 1386.88 571.894 1384.22 Q570.936 1381.53 567.708 1379.67 Q564.46 1377.79 561.67 1378.32 Q558.891 1378.83 557.317 1381.55 M549.269 1366.19 L552.958 1368.32 Q551.356 1369.42 550.073 1370.77 Q548.801 1372.09 547.921 1373.62 Q545.606 1377.63 547.086 1381.31 Q548.577 1384.98 553.876 1388.44 Q552.815 1386.25 552.923 1383.93 Q553.01 1381.61 554.249 1379.46 Q556.853 1374.95 561.104 1373.93 Q565.347 1372.88 570.058 1375.6 Q574.668 1378.26 575.881 1382.59 Q577.093 1386.93 574.477 1391.46 Q571.48 1396.65 565.925 1397.11 Q560.35 1397.55 552.792 1393.19 Q545.696 1389.09 543.43 1383.29 Q541.145 1377.48 544.42 1371.81 Q545.3 1370.28 546.492 1368.91 Q547.695 1367.52 549.269 1366.19 Z" fill="#000000" fill-rule="evenodd" fill-opacity="1" /><path clip-path="url(#clip970)" d="M 0 0 M717.806 1578.08 L725.966 1563.95 L729.374 1565.91 L718.401 1584.92 L714.993 1582.95 Q713.939 1579.27 712.221 1572.98 Q710.495 1566.67 709.923 1564.97 Q708.86 1561.77 707.797 1560.14 Q706.724 1558.48 705.261 1557.63 Q702.875 1556.25 700.4 1557.07 Q697.935 1557.87 696.385 1560.55 Q695.285 1562.46 694.72 1564.96 Q694.166 1567.45 694.12 1570.63 L690.031 1568.27 Q690.46 1565.26 691.186 1562.84 Q691.912 1560.43 692.93 1558.66 Q695.615 1554.01 699.538 1552.59 Q703.461 1551.17 707.35 1553.41 Q709.194 1554.48 710.453 1556.14 Q711.703 1557.77 712.895 1560.89 Q713.187 1561.73 714.423 1566.02 Q715.638 1570.3 717.806 1578.08 Z" fill="#000000" fill-rule="evenodd" fill-opacity="1" /><path clip-path="url(#clip970)" d="M 0 0 M709.645 1537.12 Q707.839 1540.25 710.012 1543.62 Q712.176 1546.95 718.351 1550.51 Q724.505 1554.07 728.495 1554.29 Q732.477 1554.47 734.282 1551.35 Q736.099 1548.2 733.935 1544.86 Q731.762 1541.5 725.608 1537.95 Q719.433 1534.38 715.452 1534.19 Q711.462 1533.97 709.645 1537.12 M706.437 1535.27 Q709.342 1530.24 714.859 1529.9 Q720.368 1529.52 727.946 1533.9 Q735.503 1538.26 737.953 1543.23 Q740.395 1548.17 737.49 1553.2 Q734.585 1558.23 729.076 1558.6 Q723.559 1558.95 716.001 1554.58 Q708.424 1550.21 705.982 1545.27 Q703.532 1540.3 706.437 1535.27 Z" fill="#000000" fill-rule="evenodd" fill-opacity="1" /><path clip-path="url(#clip970)" d="M 0 0 M744.021 1532.67 L752.181 1518.54 L755.589 1520.51 L744.617 1539.51 L741.209 1537.54 Q740.154 1533.86 738.436 1527.58 Q736.71 1521.26 736.138 1519.57 Q735.075 1516.36 734.012 1514.73 Q732.939 1513.07 731.476 1512.23 Q729.09 1510.85 726.615 1511.66 Q724.151 1512.46 722.6 1515.15 Q721.5 1517.05 720.935 1519.56 Q720.381 1522.04 720.335 1525.23 L716.246 1522.86 Q716.676 1519.85 717.401 1517.44 Q718.127 1515.02 719.145 1513.26 Q721.831 1508.61 725.753 1507.18 Q729.676 1505.76 733.565 1508.01 Q735.409 1509.07 736.668 1510.73 Q737.918 1512.36 739.11 1515.48 Q739.402 1516.32 740.638 1520.62 Q741.854 1524.9 744.021 1532.67 Z" fill="#000000" fill-rule="evenodd" fill-opacity="1" /><path clip-path="url(#clip970)" d="M 0 0 M735.86 1491.72 Q734.054 1494.84 736.227 1498.21 Q738.392 1501.54 744.566 1505.11 Q750.72 1508.66 754.71 1508.88 Q758.692 1509.07 760.497 1505.94 Q762.314 1502.79 760.15 1499.46 Q757.977 1496.09 751.823 1492.54 Q745.648 1488.97 741.667 1488.79 Q737.677 1488.57 735.86 1491.72 M732.652 1489.86 Q735.557 1484.83 741.074 1484.49 Q746.583 1484.11 754.161 1488.49 Q761.718 1492.85 764.168 1497.82 Q766.61 1502.76 763.705 1507.79 Q760.8 1512.82 755.291 1513.2 Q749.774 1513.54 742.216 1509.18 Q734.639 1504.8 732.197 1499.87 Q729.747 1494.9 732.652 1489.86 Z" fill="#000000" fill-rule="evenodd" fill-opacity="1" /><path clip-path="url(#clip970)" d="M 0 0 M757.363 1487.67 L763.601 1476.86 L766.889 1478.76 L760.651 1489.56 L757.363 1487.67 Z" fill="#000000" fill-rule="evenodd" fill-opacity="1" /><path clip-path="url(#clip970)" d="M 0 0 M756.762 1455.51 Q754.957 1458.64 757.13 1462 Q759.294 1465.34 765.469 1468.9 Q771.623 1472.46 775.613 1472.68 Q779.594 1472.86 781.4 1469.74 Q783.217 1466.59 781.053 1463.25 Q778.88 1459.89 772.725 1456.33 Q766.551 1452.77 762.57 1452.58 Q758.58 1452.36 756.762 1455.51 M753.555 1453.66 Q756.46 1448.63 761.977 1448.28 Q767.486 1447.91 775.063 1452.29 Q782.621 1456.65 785.071 1461.62 Q787.513 1466.56 784.607 1471.59 Q781.702 1476.62 776.194 1476.99 Q770.677 1477.34 763.119 1472.97 Q755.541 1468.6 753.1 1463.66 Q750.65 1458.69 753.555 1453.66 Z" fill="#000000" fill-rule="evenodd" fill-opacity="1" /><path clip-path="url(#clip970)" d="M 0 0 M762.013 1440.26 L773.124 1421.02 L774.848 1422.01 L796.781 1449.16 L794.339 1453.39 L773.719 1427.85 L765.421 1442.23 L762.013 1440.26 Z" fill="#000000" fill-rule="evenodd" fill-opacity="1" /><path clip-path="url(#clip970)" d="M 0 0 M791.321 1428.85 L797.559 1418.04 L800.847 1419.94 L794.609 1430.75 L791.321 1428.85 Z" fill="#000000" fill-rule="evenodd" fill-opacity="1" /><path clip-path="url(#clip970)" d="M 0 0 M811.59 1415.64 L819.75 1401.51 L823.158 1403.47 L812.186 1422.48 L808.778 1420.51 Q807.723 1416.83 806.005 1410.54 Q804.279 1404.23 803.707 1402.53 Q802.644 1399.33 801.581 1397.7 Q800.509 1396.04 799.045 1395.19 Q796.66 1393.81 794.184 1394.63 Q791.72 1395.43 790.169 1398.11 Q789.069 1400.02 788.504 1402.52 Q787.95 1405.01 787.904 1408.19 L783.815 1405.83 Q784.245 1402.82 784.97 1400.4 Q785.696 1397.99 786.715 1396.23 Q789.4 1391.57 793.322 1390.15 Q797.245 1388.73 801.134 1390.97 Q802.978 1392.04 804.237 1393.7 Q805.487 1395.33 806.679 1398.45 Q806.971 1399.29 808.207 1403.58 Q809.423 1407.87 811.59 1415.64 Z" fill="#000000" fill-rule="evenodd" fill-opacity="1" /><path clip-path="url(#clip970)" d="M 0 0 M822.69 1396.41 L826.509 1389.8 L803.676 1376.62 L800.964 1384.65 L797.276 1382.52 L799.964 1374.53 L802.302 1370.48 L828.824 1385.79 L832.643 1379.17 L836.051 1381.14 L826.098 1398.38 L822.69 1396.41 Z" fill="#000000" fill-rule="evenodd" fill-opacity="1" /><path clip-path="url(#clip970)" d="M 0 0 M973.341 1579.56 L981.501 1565.43 L984.908 1567.4 L973.936 1586.4 L970.528 1584.43 Q969.474 1580.75 967.756 1574.47 Q966.03 1568.15 965.457 1566.46 Q964.395 1563.25 963.331 1561.62 Q962.259 1559.96 960.796 1559.11 Q958.41 1557.74 955.934 1558.55 Q953.47 1559.35 951.919 1562.04 Q950.82 1563.94 950.255 1566.45 Q949.701 1568.93 949.655 1572.11 L945.566 1569.75 Q945.995 1566.74 946.721 1564.33 Q947.447 1561.91 948.465 1560.15 Q951.15 1555.5 955.073 1554.07 Q958.996 1552.65 962.885 1554.89 Q964.729 1555.96 965.988 1557.62 Q967.238 1559.25 968.43 1562.37 Q968.722 1563.21 969.958 1567.5 Q971.173 1571.79 973.341 1579.56 Z" fill="#000000" fill-rule="evenodd" fill-opacity="1" /><path clip-path="url(#clip970)" d="M 0 0 M965.18 1538.61 Q963.374 1541.73 965.547 1545.1 Q967.711 1548.43 973.886 1552 Q980.04 1555.55 984.03 1555.77 Q988.011 1555.96 989.817 1552.83 Q991.634 1549.68 989.47 1546.35 Q987.297 1542.98 981.143 1539.43 Q974.968 1535.86 970.987 1535.68 Q966.997 1535.46 965.18 1538.61 M961.972 1536.75 Q964.877 1531.72 970.394 1531.38 Q975.903 1531 983.48 1535.38 Q991.038 1539.74 993.488 1544.71 Q995.93 1549.65 993.025 1554.68 Q990.119 1559.71 984.611 1560.09 Q979.094 1560.43 971.536 1556.07 Q963.958 1551.69 961.517 1546.75 Q959.067 1541.79 961.972 1536.75 Z" fill="#000000" fill-rule="evenodd" fill-opacity="1" /><path clip-path="url(#clip970)" d="M 0 0 M999.556 1534.16 L1007.72 1520.02 L1011.12 1521.99 L1000.15 1540.99 L996.743 1539.03 Q995.689 1535.34 993.971 1529.06 Q992.245 1522.74 991.673 1521.05 Q990.61 1517.84 989.547 1516.22 Q988.474 1514.55 987.011 1513.71 Q984.625 1512.33 982.15 1513.15 Q979.685 1513.94 978.135 1516.63 Q977.035 1518.53 976.47 1521.04 Q975.916 1523.53 975.87 1526.71 L971.781 1524.35 Q972.21 1521.33 972.936 1518.92 Q973.662 1516.51 974.68 1514.74 Q977.365 1510.09 981.288 1508.67 Q985.211 1507.24 989.1 1509.49 Q990.944 1510.55 992.203 1512.22 Q993.453 1513.85 994.645 1516.97 Q994.937 1517.8 996.173 1522.1 Q997.388 1526.38 999.556 1534.16 Z" fill="#000000" fill-rule="evenodd" fill-opacity="1" /><path clip-path="url(#clip970)" d="M 0 0 M991.395 1493.2 Q989.589 1496.33 991.762 1499.69 Q993.926 1503.03 1000.1 1506.59 Q1006.26 1510.15 1010.25 1510.36 Q1014.23 1510.55 1016.03 1507.42 Q1017.85 1504.28 1015.68 1500.94 Q1013.51 1497.58 1007.36 1494.02 Q1001.18 1490.46 997.202 1490.27 Q993.212 1490.05 991.395 1493.2 M988.187 1491.35 Q991.092 1486.32 996.609 1485.97 Q1002.12 1485.6 1009.7 1489.97 Q1017.25 1494.34 1019.7 1499.31 Q1022.14 1504.24 1019.24 1509.28 Q1016.33 1514.31 1010.83 1514.68 Q1005.31 1515.02 997.751 1510.66 Q990.174 1506.29 987.732 1501.35 Q985.282 1496.38 988.187 1491.35 Z" fill="#000000" fill-rule="evenodd" fill-opacity="1" /><path clip-path="url(#clip970)" d="M 0 0 M1012.9 1489.15 L1019.14 1478.34 L1022.42 1480.24 L1016.19 1491.05 L1012.9 1489.15 Z" fill="#000000" fill-rule="evenodd" fill-opacity="1" /><path clip-path="url(#clip970)" d="M 0 0 M1012.3 1456.99 Q1010.49 1460.12 1012.66 1463.49 Q1014.83 1466.82 1021 1470.39 Q1027.16 1473.94 1031.15 1474.16 Q1035.13 1474.35 1036.93 1471.22 Q1038.75 1468.07 1036.59 1464.74 Q1034.41 1461.37 1028.26 1457.82 Q1022.09 1454.25 1018.1 1454.07 Q1014.11 1453.85 1012.3 1456.99 M1009.09 1455.14 Q1011.99 1450.11 1017.51 1449.77 Q1023.02 1449.39 1030.6 1453.77 Q1038.16 1458.13 1040.61 1463.1 Q1043.05 1468.04 1040.14 1473.07 Q1037.24 1478.1 1031.73 1478.48 Q1026.21 1478.82 1018.65 1474.46 Q1011.08 1470.08 1008.63 1465.14 Q1006.18 1460.17 1009.09 1455.14 Z" fill="#000000" fill-rule="evenodd" fill-opacity="1" /><path clip-path="url(#clip970)" d="M 0 0 M1017.55 1441.74 L1028.66 1422.5 L1030.38 1423.49 L1052.32 1450.64 L1049.87 1454.87 L1029.25 1429.34 L1020.96 1443.71 L1017.55 1441.74 Z" fill="#000000" fill-rule="evenodd" fill-opacity="1" /><path clip-path="url(#clip970)" d="M 0 0 M1046.86 1430.33 L1053.09 1419.53 L1056.38 1421.42 L1050.14 1432.23 L1046.86 1430.33 Z" fill="#000000" fill-rule="evenodd" fill-opacity="1" /><path clip-path="url(#clip970)" d="M 0 0 M1067.13 1417.12 L1075.28 1402.99 L1078.69 1404.96 L1067.72 1423.96 L1064.31 1421.99 Q1063.26 1418.31 1061.54 1412.03 Q1059.81 1405.71 1059.24 1404.02 Q1058.18 1400.81 1057.12 1399.18 Q1056.04 1397.52 1054.58 1396.68 Q1052.19 1395.3 1049.72 1396.11 Q1047.25 1396.91 1045.7 1399.6 Q1044.6 1401.5 1044.04 1404.01 Q1043.49 1406.49 1043.44 1409.68 L1039.35 1407.31 Q1039.78 1404.3 1040.51 1401.89 Q1041.23 1399.47 1042.25 1397.71 Q1044.93 1393.06 1048.86 1391.63 Q1052.78 1390.21 1056.67 1392.46 Q1058.51 1393.52 1059.77 1395.18 Q1061.02 1396.81 1062.21 1399.93 Q1062.51 1400.77 1063.74 1405.07 Q1064.96 1409.35 1067.13 1417.12 Z" fill="#000000" fill-rule="evenodd" fill-opacity="1" /><path clip-path="url(#clip970)" d="M 0 0 M1061.25 1374.2 L1071.32 1393.65 L1077.23 1383.42 L1061.25 1374.2 M1057.11 1373.22 L1060.05 1368.13 L1079.55 1379.39 L1082.02 1375.12 L1085.39 1377.07 L1082.92 1381.34 L1089.98 1385.41 L1087.65 1389.44 L1080.59 1385.37 L1072.79 1398.88 L1068.88 1396.62 L1057.11 1373.22 Z" fill="#000000" fill-rule="evenodd" fill-opacity="1" /><path clip-path="url(#clip970)" d="M 0 0 M1230.07 1578.98 L1238.23 1564.85 L1241.64 1566.82 L1230.66 1585.82 L1227.26 1583.85 Q1226.2 1580.17 1224.48 1573.89 Q1222.76 1567.57 1222.18 1565.88 Q1221.12 1562.67 1220.06 1561.04 Q1218.99 1559.38 1217.52 1558.53 Q1215.14 1557.16 1212.66 1557.97 Q1210.2 1558.77 1208.65 1561.45 Q1207.55 1563.36 1206.98 1565.87 Q1206.43 1568.35 1206.38 1571.53 L1202.29 1569.17 Q1202.72 1566.16 1203.45 1563.75 Q1204.17 1561.33 1205.19 1559.57 Q1207.88 1554.92 1211.8 1553.49 Q1215.72 1552.07 1219.61 1554.31 Q1221.46 1555.38 1222.71 1557.04 Q1223.97 1558.67 1225.16 1561.79 Q1225.45 1562.63 1226.68 1566.92 Q1227.9 1571.21 1230.07 1578.98 Z" fill="#000000" fill-rule="evenodd" fill-opacity="1" /><path clip-path="url(#clip970)" d="M 0 0 M1221.91 1538.02 Q1220.1 1541.15 1222.27 1544.52 Q1224.44 1547.85 1230.61 1551.42 Q1236.77 1554.97 1240.76 1555.19 Q1244.74 1555.38 1246.54 1552.25 Q1248.36 1549.1 1246.2 1545.77 Q1244.02 1542.4 1237.87 1538.85 Q1231.7 1535.28 1227.71 1535.1 Q1223.72 1534.88 1221.91 1538.02 M1218.7 1536.17 Q1221.6 1531.14 1227.12 1530.8 Q1232.63 1530.42 1240.21 1534.8 Q1247.77 1539.16 1250.22 1544.13 Q1252.66 1549.07 1249.75 1554.1 Q1246.85 1559.13 1241.34 1559.51 Q1235.82 1559.85 1228.26 1555.49 Q1220.69 1551.11 1218.24 1546.17 Q1215.79 1541.2 1218.7 1536.17 Z" fill="#000000" fill-rule="evenodd" fill-opacity="1" /><path clip-path="url(#clip970)" d="M 0 0 M1256.28 1533.57 L1264.44 1519.44 L1267.85 1521.41 L1256.88 1540.41 L1253.47 1538.45 Q1252.42 1534.76 1250.7 1528.48 Q1248.97 1522.16 1248.4 1520.47 Q1247.34 1517.26 1246.27 1515.63 Q1245.2 1513.97 1243.74 1513.13 Q1241.35 1511.75 1238.88 1512.57 Q1236.41 1513.36 1234.86 1516.05 Q1233.76 1517.95 1233.2 1520.46 Q1232.64 1522.95 1232.6 1526.13 L1228.51 1523.77 Q1228.94 1520.75 1229.66 1518.34 Q1230.39 1515.92 1231.41 1514.16 Q1234.09 1509.51 1238.02 1508.09 Q1241.94 1506.66 1245.83 1508.91 Q1247.67 1509.97 1248.93 1511.63 Q1250.18 1513.27 1251.37 1516.39 Q1251.66 1517.22 1252.9 1521.52 Q1254.12 1525.8 1256.28 1533.57 Z" fill="#000000" fill-rule="evenodd" fill-opacity="1" /><path clip-path="url(#clip970)" d="M 0 0 M1248.12 1492.62 Q1246.32 1495.75 1248.49 1499.11 Q1250.65 1502.45 1256.83 1506.01 Q1262.98 1509.56 1266.97 1509.78 Q1270.95 1509.97 1272.76 1506.84 Q1274.58 1503.7 1272.41 1500.36 Q1270.24 1496.99 1264.08 1493.44 Q1257.91 1489.88 1253.93 1489.69 Q1249.94 1489.47 1248.12 1492.62 M1244.91 1490.77 Q1247.82 1485.73 1253.34 1485.39 Q1258.84 1485.02 1266.42 1489.39 Q1273.98 1493.76 1276.43 1498.72 Q1278.87 1503.66 1275.97 1508.69 Q1273.06 1513.73 1267.55 1514.1 Q1262.04 1514.44 1254.48 1510.08 Q1246.9 1505.71 1244.46 1500.77 Q1242.01 1495.8 1244.91 1490.77 Z" fill="#000000" fill-rule="evenodd" fill-opacity="1" /><path clip-path="url(#clip970)" d="M 0 0 M1269.62 1488.57 L1275.86 1477.76 L1279.15 1479.66 L1272.91 1490.47 L1269.62 1488.57 Z" fill="#000000" fill-rule="evenodd" fill-opacity="1" /><path clip-path="url(#clip970)" d="M 0 0 M1269.02 1456.41 Q1267.22 1459.54 1269.39 1462.91 Q1271.56 1466.24 1277.73 1469.81 Q1283.88 1473.36 1287.87 1473.58 Q1291.86 1473.77 1293.66 1470.64 Q1295.48 1467.49 1293.31 1464.16 Q1291.14 1460.79 1284.99 1457.24 Q1278.81 1453.67 1274.83 1453.48 Q1270.84 1453.27 1269.02 1456.41 M1265.82 1454.56 Q1268.72 1449.53 1274.24 1449.19 Q1279.75 1448.81 1287.33 1453.19 Q1294.88 1457.55 1297.33 1462.52 Q1299.77 1467.46 1296.87 1472.49 Q1293.96 1477.52 1288.46 1477.9 Q1282.94 1478.24 1275.38 1473.88 Q1267.8 1469.5 1265.36 1464.56 Q1262.91 1459.59 1265.82 1454.56 Z" fill="#000000" fill-rule="evenodd" fill-opacity="1" /><path clip-path="url(#clip970)" d="M 0 0 M1274.27 1441.16 L1285.39 1421.92 L1287.11 1422.91 L1309.04 1450.06 L1306.6 1454.29 L1285.98 1428.76 L1277.68 1443.13 L1274.27 1441.16 Z" fill="#000000" fill-rule="evenodd" fill-opacity="1" /><path clip-path="url(#clip970)" d="M 0 0 M1303.58 1429.75 L1309.82 1418.95 L1313.11 1420.84 L1306.87 1431.65 L1303.58 1429.75 Z" fill="#000000" fill-rule="evenodd" fill-opacity="1" /><path clip-path="url(#clip970)" d="M 0 0 M1323.85 1416.54 L1332.01 1402.41 L1335.42 1404.38 L1324.45 1423.38 L1321.04 1421.41 Q1319.98 1417.73 1318.27 1411.45 Q1316.54 1405.13 1315.97 1403.44 Q1314.91 1400.23 1313.84 1398.6 Q1312.77 1396.94 1311.31 1396.09 Q1308.92 1394.72 1306.45 1395.53 Q1303.98 1396.33 1302.43 1399.02 Q1301.33 1400.92 1300.77 1403.43 Q1300.21 1405.91 1300.17 1409.09 L1296.08 1406.73 Q1296.51 1403.72 1297.23 1401.31 Q1297.96 1398.89 1298.98 1397.13 Q1301.66 1392.48 1305.58 1391.05 Q1309.51 1389.63 1313.4 1391.87 Q1315.24 1392.94 1316.5 1394.6 Q1317.75 1396.23 1318.94 1399.35 Q1319.23 1400.19 1320.47 1404.48 Q1321.68 1408.77 1323.85 1416.54 Z" fill="#000000" fill-rule="evenodd" fill-opacity="1" /><path clip-path="url(#clip970)" d="M 0 0 M1337.4 1399.51 L1333.71 1397.38 Q1335.32 1396.27 1336.6 1394.93 Q1337.88 1393.58 1338.75 1392.08 Q1341.07 1388.07 1339.59 1384.41 Q1338.11 1380.73 1332.8 1377.25 Q1333.85 1379.41 1333.74 1381.73 Q1333.63 1384.05 1332.38 1386.21 Q1329.79 1390.7 1325.57 1391.76 Q1321.34 1392.8 1316.63 1390.08 Q1312.01 1387.42 1310.8 1383.08 Q1309.59 1378.74 1312.21 1374.21 Q1315.2 1369.02 1320.77 1368.6 Q1326.32 1368.14 1333.9 1372.52 Q1340.98 1376.6 1343.26 1382.41 Q1345.54 1388.19 1342.26 1393.87 Q1341.38 1395.39 1340.18 1396.78 Q1338.98 1398.17 1337.4 1399.51 M1329.37 1384.12 Q1330.94 1381.4 1329.99 1378.74 Q1329.05 1376.05 1325.8 1374.18 Q1322.58 1372.32 1319.79 1372.84 Q1316.99 1373.34 1315.41 1376.07 Q1313.84 1378.79 1314.8 1381.48 Q1315.75 1384.14 1318.97 1386.01 Q1322.22 1387.88 1325 1387.38 Q1327.79 1386.85 1329.37 1384.12 Z" fill="#000000" fill-rule="evenodd" fill-opacity="1" /><path clip-path="url(#clip970)" d="M 0 0 M1485.49 1580.66 L1493.65 1566.53 L1497.05 1568.5 L1486.08 1587.5 L1482.67 1585.54 Q1481.62 1581.85 1479.9 1575.57 Q1478.18 1569.25 1477.6 1567.56 Q1476.54 1564.35 1475.48 1562.72 Q1474.41 1561.06 1472.94 1560.22 Q1470.56 1558.84 1468.08 1559.66 Q1465.62 1560.45 1464.07 1563.14 Q1462.97 1565.04 1462.4 1567.55 Q1461.85 1570.04 1461.8 1573.22 L1457.71 1570.86 Q1458.14 1567.84 1458.87 1565.43 Q1459.59 1563.01 1460.61 1561.25 Q1463.3 1556.6 1467.22 1555.18 Q1471.14 1553.75 1475.03 1556 Q1476.88 1557.06 1478.13 1558.72 Q1479.38 1560.36 1480.58 1563.48 Q1480.87 1564.31 1482.1 1568.61 Q1483.32 1572.89 1485.49 1580.66 Z" fill="#000000" fill-rule="evenodd" fill-opacity="1" /><path clip-path="url(#clip970)" d="M 0 0 M1477.33 1539.71 Q1475.52 1542.84 1477.69 1546.2 Q1479.86 1549.54 1486.03 1553.1 Q1492.19 1556.65 1496.18 1556.87 Q1500.16 1557.06 1501.96 1553.93 Q1503.78 1550.78 1501.62 1547.45 Q1499.44 1544.08 1493.29 1540.53 Q1487.11 1536.97 1483.13 1536.78 Q1479.14 1536.56 1477.33 1539.71 M1474.12 1537.86 Q1477.02 1532.82 1482.54 1532.48 Q1488.05 1532.11 1495.63 1536.48 Q1503.18 1540.85 1505.63 1545.81 Q1508.08 1550.75 1505.17 1555.78 Q1502.27 1560.82 1496.76 1561.19 Q1491.24 1561.53 1483.68 1557.17 Q1476.1 1552.8 1473.66 1547.86 Q1471.21 1542.89 1474.12 1537.86 Z" fill="#000000" fill-rule="evenodd" fill-opacity="1" /><path clip-path="url(#clip970)" d="M 0 0 M1511.7 1535.26 L1519.86 1521.13 L1523.27 1523.09 L1512.3 1542.1 L1508.89 1540.13 Q1507.84 1536.45 1506.12 1530.16 Q1504.39 1523.85 1503.82 1522.15 Q1502.76 1518.95 1501.69 1517.32 Q1500.62 1515.66 1499.16 1514.81 Q1496.77 1513.43 1494.3 1514.25 Q1491.83 1515.05 1490.28 1517.73 Q1489.18 1519.64 1488.62 1522.14 Q1488.06 1524.63 1488.02 1527.81 L1483.93 1525.45 Q1484.36 1522.44 1485.08 1520.02 Q1485.81 1517.61 1486.83 1515.84 Q1489.51 1511.19 1493.43 1509.77 Q1497.36 1508.35 1501.25 1510.59 Q1503.09 1511.66 1504.35 1513.32 Q1505.6 1514.95 1506.79 1518.07 Q1507.08 1518.91 1508.32 1523.2 Q1509.53 1527.49 1511.7 1535.26 Z" fill="#000000" fill-rule="evenodd" fill-opacity="1" /><path clip-path="url(#clip970)" d="M 0 0 M1503.54 1494.3 Q1501.74 1497.43 1503.91 1500.8 Q1506.07 1504.13 1512.25 1507.69 Q1518.4 1511.25 1522.39 1511.47 Q1526.37 1511.65 1528.18 1508.53 Q1530 1505.38 1527.83 1502.04 Q1525.66 1498.68 1519.5 1495.13 Q1513.33 1491.56 1509.35 1491.37 Q1505.36 1491.15 1503.54 1494.3 M1500.33 1492.45 Q1503.24 1487.42 1508.76 1487.08 Q1514.26 1486.7 1521.84 1491.08 Q1529.4 1495.44 1531.85 1500.41 Q1534.29 1505.35 1531.39 1510.38 Q1528.48 1515.41 1522.97 1515.78 Q1517.45 1516.13 1509.9 1511.76 Q1502.32 1507.39 1499.88 1502.45 Q1497.43 1497.48 1500.33 1492.45 Z" fill="#000000" fill-rule="evenodd" fill-opacity="1" /><path clip-path="url(#clip970)" d="M 0 0 M1525.04 1490.25 L1531.28 1479.45 L1534.57 1481.34 L1528.33 1492.15 L1525.04 1490.25 Z" fill="#000000" fill-rule="evenodd" fill-opacity="1" /><path clip-path="url(#clip970)" d="M 0 0 M1524.44 1458.1 Q1522.64 1461.22 1524.81 1464.59 Q1526.98 1467.93 1533.15 1471.49 Q1539.3 1475.04 1543.29 1475.26 Q1547.28 1475.45 1549.08 1472.32 Q1550.9 1469.17 1548.73 1465.84 Q1546.56 1462.47 1540.41 1458.92 Q1534.23 1455.36 1530.25 1455.17 Q1526.26 1454.95 1524.44 1458.1 M1521.24 1456.25 Q1524.14 1451.21 1529.66 1450.87 Q1535.17 1450.5 1542.74 1454.87 Q1550.3 1459.23 1552.75 1464.2 Q1555.19 1469.14 1552.29 1474.17 Q1549.38 1479.21 1543.87 1479.58 Q1538.36 1479.92 1530.8 1475.56 Q1523.22 1471.18 1520.78 1466.25 Q1518.33 1461.28 1521.24 1456.25 Z" fill="#000000" fill-rule="evenodd" fill-opacity="1" /><path clip-path="url(#clip970)" d="M 0 0 M1551 1442.24 Q1549.33 1445.12 1549.92 1447.68 Q1550.51 1450.21 1553.22 1451.78 Q1555.92 1453.34 1558.42 1452.59 Q1560.92 1451.81 1562.59 1448.93 Q1564.25 1446.04 1563.67 1443.49 Q1563.07 1440.92 1560.38 1439.37 Q1557.68 1437.81 1555.17 1438.58 Q1552.68 1439.33 1551 1442.24 M1546.94 1445.29 Q1544.79 1447.53 1542.16 1447.96 Q1539.55 1448.37 1536.98 1446.89 Q1533.39 1444.82 1532.78 1441.07 Q1532.17 1437.3 1534.74 1432.85 Q1537.32 1428.38 1540.88 1427.04 Q1544.43 1425.7 1548.02 1427.77 Q1550.59 1429.25 1551.53 1431.74 Q1552.48 1434.22 1551.63 1437.17 Q1554 1434.64 1556.92 1434.16 Q1559.85 1433.66 1562.72 1435.32 Q1567.07 1437.83 1567.86 1441.84 Q1568.65 1445.83 1565.8 1450.78 Q1562.94 1455.73 1559.07 1457.05 Q1555.22 1458.36 1550.87 1455.85 Q1548 1454.19 1546.97 1451.4 Q1545.93 1448.61 1546.94 1445.29 M1539.69 1443.08 Q1542.01 1444.43 1544.15 1443.73 Q1546.3 1443.02 1547.81 1440.4 Q1549.32 1437.79 1548.86 1435.58 Q1548.41 1433.34 1546.09 1432 Q1543.76 1430.65 1541.6 1431.39 Q1539.45 1432.1 1537.95 1434.7 Q1536.43 1437.33 1536.89 1439.54 Q1537.36 1441.74 1539.69 1443.08 Z" fill="#000000" fill-rule="evenodd" fill-opacity="1" /><path clip-path="url(#clip970)" d="M 0 0 M1559.41 1430.73 L1565.65 1419.93 L1568.93 1421.83 L1562.69 1432.63 L1559.41 1430.73 Z" fill="#000000" fill-rule="evenodd" fill-opacity="1" /><path clip-path="url(#clip970)" d="M 0 0 M1558.81 1398.58 Q1557 1401.71 1559.17 1405.07 Q1561.34 1408.41 1567.51 1411.97 Q1573.67 1415.52 1577.66 1415.74 Q1581.64 1415.93 1583.44 1412.8 Q1585.26 1409.66 1583.1 1406.32 Q1580.92 1402.96 1574.77 1399.4 Q1568.6 1395.84 1564.61 1395.65 Q1560.62 1395.43 1558.81 1398.58 M1555.6 1396.73 Q1558.5 1391.69 1564.02 1391.35 Q1569.53 1390.98 1577.11 1395.35 Q1584.67 1399.72 1587.12 1404.69 Q1589.56 1409.62 1586.65 1414.65 Q1583.75 1419.69 1578.24 1420.06 Q1572.72 1420.4 1565.16 1416.04 Q1557.59 1411.67 1555.14 1406.73 Q1552.69 1401.76 1555.6 1396.73 Z" fill="#000000" fill-rule="evenodd" fill-opacity="1" /><path clip-path="url(#clip970)" d="M 0 0 M1585.52 1378 Q1587.82 1375.45 1590.72 1374.96 Q1593.64 1374.45 1596.52 1376.12 Q1600.96 1378.68 1601.62 1383.12 Q1602.29 1387.57 1599.05 1393.18 Q1597.96 1395.07 1596.42 1396.85 Q1594.91 1398.63 1592.95 1400.33 L1589.04 1398.07 Q1590.99 1396.95 1592.65 1395.24 Q1594.31 1393.52 1595.57 1391.34 Q1597.77 1387.53 1597.41 1384.68 Q1597.07 1381.8 1594.2 1380.15 Q1591.55 1378.62 1588.99 1379.63 Q1586.42 1380.6 1584.51 1383.91 L1582.5 1387.4 L1579.17 1385.48 L1581.28 1381.83 Q1583 1378.84 1582.74 1376.58 Q1582.45 1374.3 1580.2 1373 Q1577.9 1371.67 1575.72 1372.61 Q1573.54 1373.52 1571.78 1376.56 Q1570.82 1378.23 1570.09 1380.34 Q1569.35 1382.45 1568.79 1385.18 L1565.18 1383.09 Q1565.87 1380.42 1566.71 1378.23 Q1567.56 1376.02 1568.59 1374.23 Q1571.25 1369.62 1574.9 1368.15 Q1578.54 1366.67 1582.11 1368.73 Q1584.59 1370.17 1585.5 1372.58 Q1586.38 1374.99 1585.52 1378 Z" fill="#000000" fill-rule="evenodd" fill-opacity="1" /><path clip-path="url(#clip970)" d="M 0 0 M1741.47 1581.37 L1749.63 1567.23 L1753.04 1569.2 L1742.07 1588.2 L1738.66 1586.24 Q1737.61 1582.55 1735.89 1576.27 Q1734.16 1569.95 1733.59 1568.26 Q1732.53 1565.06 1731.46 1563.43 Q1730.39 1561.76 1728.93 1560.92 Q1726.54 1559.54 1724.07 1560.36 Q1721.6 1561.15 1720.05 1563.84 Q1718.95 1565.74 1718.39 1568.25 Q1717.83 1570.74 1717.79 1573.92 L1713.7 1571.56 Q1714.13 1568.54 1714.85 1566.13 Q1715.58 1563.72 1716.6 1561.95 Q1719.28 1557.3 1723.21 1555.88 Q1727.13 1554.45 1731.02 1556.7 Q1732.86 1557.76 1734.12 1559.43 Q1735.37 1561.06 1736.56 1564.18 Q1736.85 1565.01 1738.09 1569.31 Q1739.31 1573.59 1741.47 1581.37 Z" fill="#000000" fill-rule="evenodd" fill-opacity="1" /><path clip-path="url(#clip970)" d="M 0 0 M1733.31 1540.41 Q1731.51 1543.54 1733.68 1546.9 Q1735.84 1550.24 1742.02 1553.8 Q1748.17 1557.36 1752.16 1557.57 Q1756.14 1557.76 1757.95 1554.63 Q1759.77 1551.49 1757.6 1548.15 Q1755.43 1544.79 1749.27 1541.23 Q1743.1 1537.67 1739.12 1537.48 Q1735.13 1537.26 1733.31 1540.41 M1730.1 1538.56 Q1733.01 1533.53 1738.53 1533.18 Q1744.04 1532.81 1751.61 1537.18 Q1759.17 1541.55 1761.62 1546.52 Q1764.06 1551.45 1761.16 1556.49 Q1758.25 1561.52 1752.74 1561.89 Q1747.23 1562.24 1739.67 1557.87 Q1732.09 1553.5 1729.65 1548.56 Q1727.2 1543.59 1730.1 1538.56 Z" fill="#000000" fill-rule="evenodd" fill-opacity="1" /><path clip-path="url(#clip970)" d="M 0 0 M1767.69 1535.96 L1775.85 1521.83 L1779.26 1523.79 L1768.28 1542.8 L1764.88 1540.83 Q1763.82 1537.15 1762.1 1530.86 Q1760.38 1524.55 1759.8 1522.86 Q1758.74 1519.65 1757.68 1518.02 Q1756.61 1516.36 1755.14 1515.51 Q1752.76 1514.14 1750.28 1514.95 Q1747.82 1515.75 1746.27 1518.43 Q1745.17 1520.34 1744.6 1522.85 Q1744.05 1525.33 1744 1528.51 L1739.91 1526.15 Q1740.34 1523.14 1741.07 1520.72 Q1741.79 1518.31 1742.81 1516.55 Q1745.5 1511.9 1749.42 1510.47 Q1753.34 1509.05 1757.23 1511.29 Q1759.08 1512.36 1760.34 1514.02 Q1761.59 1515.65 1762.78 1518.77 Q1763.07 1519.61 1764.31 1523.9 Q1765.52 1528.19 1767.69 1535.96 Z" fill="#000000" fill-rule="evenodd" fill-opacity="1" /><path clip-path="url(#clip970)" d="M 0 0 M1759.53 1495 Q1757.72 1498.13 1759.89 1501.5 Q1762.06 1504.83 1768.23 1508.4 Q1774.39 1511.95 1778.38 1512.17 Q1782.36 1512.36 1784.16 1509.23 Q1785.98 1506.08 1783.82 1502.75 Q1781.64 1499.38 1775.49 1495.83 Q1769.32 1492.26 1765.33 1492.07 Q1761.34 1491.86 1759.53 1495 M1756.32 1493.15 Q1759.22 1488.12 1764.74 1487.78 Q1770.25 1487.4 1777.83 1491.78 Q1785.39 1496.14 1787.84 1501.11 Q1790.28 1506.05 1787.37 1511.08 Q1784.47 1516.11 1778.96 1516.49 Q1773.44 1516.83 1765.88 1512.47 Q1758.31 1508.09 1755.86 1503.15 Q1753.41 1498.18 1756.32 1493.15 Z" fill="#000000" fill-rule="evenodd" fill-opacity="1" /><path clip-path="url(#clip970)" d="M 0 0 M1781.03 1490.95 L1787.27 1480.15 L1790.56 1482.05 L1784.32 1492.85 L1781.03 1490.95 Z" fill="#000000" fill-rule="evenodd" fill-opacity="1" /><path clip-path="url(#clip970)" d="M 0 0 M1780.43 1458.8 Q1778.62 1461.93 1780.8 1465.29 Q1782.96 1468.63 1789.14 1472.19 Q1795.29 1475.74 1799.28 1475.96 Q1803.26 1476.15 1805.07 1473.02 Q1806.88 1469.88 1804.72 1466.54 Q1802.55 1463.18 1796.39 1459.62 Q1790.22 1456.06 1786.24 1455.87 Q1782.25 1455.65 1780.43 1458.8 M1777.22 1456.95 Q1780.13 1451.92 1785.64 1451.57 Q1791.15 1451.2 1798.73 1455.57 Q1806.29 1459.94 1808.74 1464.91 Q1811.18 1469.84 1808.27 1474.88 Q1805.37 1479.91 1799.86 1480.28 Q1794.34 1480.62 1786.79 1476.26 Q1779.21 1471.89 1776.77 1466.95 Q1774.32 1461.98 1777.22 1456.95 Z" fill="#000000" fill-rule="evenodd" fill-opacity="1" /><path clip-path="url(#clip970)" d="M 0 0 M1806.99 1442.94 Q1805.32 1445.83 1805.9 1448.38 Q1806.5 1450.92 1809.2 1452.48 Q1811.91 1454.04 1814.4 1453.29 Q1816.91 1452.52 1818.57 1449.63 Q1820.24 1446.74 1819.66 1444.19 Q1819.05 1441.62 1816.37 1440.07 Q1813.66 1438.51 1811.16 1439.28 Q1808.67 1440.03 1806.99 1442.94 M1802.93 1445.99 Q1800.78 1448.23 1798.15 1448.66 Q1795.53 1449.08 1792.97 1447.59 Q1789.38 1445.52 1788.76 1441.77 Q1788.16 1438 1790.73 1433.55 Q1793.31 1429.08 1796.86 1427.74 Q1800.42 1426.4 1804.01 1428.47 Q1806.57 1429.95 1807.51 1432.44 Q1808.46 1434.92 1807.61 1437.87 Q1809.98 1435.34 1812.91 1434.86 Q1815.84 1434.36 1818.71 1436.02 Q1823.06 1438.53 1823.84 1442.54 Q1824.64 1446.53 1821.78 1451.48 Q1818.92 1456.43 1815.06 1457.76 Q1811.2 1459.06 1806.85 1456.55 Q1803.99 1454.89 1802.95 1452.1 Q1801.92 1449.31 1802.93 1445.99 M1795.67 1443.78 Q1798 1445.13 1800.14 1444.44 Q1802.28 1443.72 1803.8 1441.1 Q1805.3 1438.49 1804.85 1436.28 Q1804.4 1434.04 1802.07 1432.7 Q1799.75 1431.36 1797.59 1432.09 Q1795.44 1432.8 1793.94 1435.4 Q1792.42 1438.03 1792.88 1440.25 Q1793.35 1442.44 1795.67 1443.78 Z" fill="#000000" fill-rule="evenodd" fill-opacity="1" /><path clip-path="url(#clip970)" d="M 0 0 M1815.39 1431.43 L1821.63 1420.63 L1824.92 1422.53 L1818.68 1433.33 L1815.39 1431.43 Z" fill="#000000" fill-rule="evenodd" fill-opacity="1" /><path clip-path="url(#clip970)" d="M 0 0 M1814.79 1399.28 Q1812.99 1402.41 1815.16 1405.77 Q1817.32 1409.11 1823.5 1412.67 Q1829.65 1416.23 1833.64 1416.44 Q1837.62 1416.63 1839.43 1413.5 Q1841.25 1410.36 1839.08 1407.02 Q1836.91 1403.66 1830.76 1400.1 Q1824.58 1396.54 1820.6 1396.35 Q1816.61 1396.13 1814.79 1399.28 M1811.59 1397.43 Q1814.49 1392.4 1820.01 1392.05 Q1825.52 1391.68 1833.09 1396.05 Q1840.65 1400.42 1843.1 1405.39 Q1845.54 1410.32 1842.64 1415.36 Q1839.73 1420.39 1834.22 1420.76 Q1828.71 1421.11 1821.15 1416.74 Q1813.57 1412.37 1811.13 1407.43 Q1808.68 1402.46 1811.59 1397.43 Z" fill="#000000" fill-rule="evenodd" fill-opacity="1" /><path clip-path="url(#clip970)" d="M 0 0 M1839.27 1381.55 Q1837.7 1384.28 1838.64 1386.96 Q1839.59 1389.62 1842.84 1391.49 Q1846.06 1393.36 1848.86 1392.86 Q1851.65 1392.34 1853.23 1389.61 Q1854.8 1386.88 1853.85 1384.22 Q1852.89 1381.53 1849.66 1379.67 Q1846.42 1377.79 1843.63 1378.32 Q1840.85 1378.83 1839.27 1381.55 M1831.23 1366.19 L1834.91 1368.32 Q1833.31 1369.42 1832.03 1370.77 Q1830.76 1372.09 1829.88 1373.62 Q1827.56 1377.63 1829.04 1381.31 Q1830.53 1384.98 1835.83 1388.44 Q1834.77 1386.25 1834.88 1383.93 Q1834.97 1381.61 1836.21 1379.46 Q1838.81 1374.95 1843.06 1373.93 Q1847.3 1372.88 1852.01 1375.6 Q1856.62 1378.26 1857.84 1382.59 Q1859.05 1386.93 1856.43 1391.46 Q1853.44 1396.65 1847.88 1397.11 Q1842.31 1397.55 1834.75 1393.19 Q1827.65 1389.09 1825.39 1383.29 Q1823.1 1377.48 1826.38 1371.81 Q1827.26 1370.28 1828.45 1368.91 Q1829.65 1367.52 1831.23 1366.19 Z" fill="#000000" fill-rule="evenodd" fill-opacity="1" /><path clip-path="url(#clip970)" d="M 0 0 M1999.17 1579.1 L2007.33 1564.97 L2010.74 1566.94 L1999.77 1585.94 L1996.36 1583.97 Q1995.31 1580.29 1993.59 1574.01 Q1991.86 1567.69 1991.29 1566 Q1990.23 1562.79 1989.16 1561.16 Q1988.09 1559.5 1986.63 1558.65 Q1984.24 1557.28 1981.77 1558.09 Q1979.3 1558.89 1977.75 1561.57 Q1976.65 1563.48 1976.09 1565.99 Q1975.53 1568.47 1975.49 1571.65 L1971.4 1569.29 Q1971.83 1566.28 1972.55 1563.87 Q1973.28 1561.45 1974.3 1559.69 Q1976.98 1555.04 1980.9 1553.61 Q1984.83 1552.19 1988.72 1554.43 Q1990.56 1555.5 1991.82 1557.16 Q1993.07 1558.79 1994.26 1561.91 Q1994.55 1562.75 1995.79 1567.04 Q1997 1571.33 1999.17 1579.1 Z" fill="#000000" fill-rule="evenodd" fill-opacity="1" /><path clip-path="url(#clip970)" d="M 0 0 M1991.01 1538.14 Q1989.21 1541.27 1991.38 1544.64 Q1993.54 1547.97 1999.72 1551.54 Q2005.87 1555.09 2009.86 1555.31 Q2013.84 1555.5 2015.65 1552.37 Q2017.47 1549.22 2015.3 1545.89 Q2013.13 1542.52 2006.97 1538.97 Q2000.8 1535.4 1996.82 1535.22 Q1992.83 1535 1991.01 1538.14 M1987.8 1536.29 Q1990.71 1531.26 1996.23 1530.92 Q2001.73 1530.54 2009.31 1534.92 Q2016.87 1539.28 2019.32 1544.25 Q2021.76 1549.19 2018.86 1554.22 Q2015.95 1559.25 2010.44 1559.63 Q2004.93 1559.97 1997.37 1555.61 Q1989.79 1551.23 1987.35 1546.29 Q1984.9 1541.32 1987.8 1536.29 Z" fill="#000000" fill-rule="evenodd" fill-opacity="1" /><path clip-path="url(#clip970)" d="M 0 0 M2025.39 1533.69 L2033.55 1519.56 L2036.96 1521.53 L2025.98 1540.53 L2022.58 1538.57 Q2021.52 1534.88 2019.8 1528.6 Q2018.08 1522.28 2017.5 1520.59 Q2016.44 1517.38 2015.38 1515.75 Q2014.31 1514.09 2012.84 1513.25 Q2010.46 1511.87 2007.98 1512.69 Q2005.52 1513.48 2003.97 1516.17 Q2002.87 1518.07 2002.3 1520.58 Q2001.75 1523.07 2001.7 1526.25 L1997.61 1523.89 Q1998.04 1520.87 1998.77 1518.46 Q1999.49 1516.05 2000.51 1514.28 Q2003.2 1509.63 2007.12 1508.21 Q2011.04 1506.78 2014.93 1509.03 Q2016.78 1510.09 2018.03 1511.75 Q2019.28 1513.39 2020.48 1516.51 Q2020.77 1517.34 2022 1521.64 Q2023.22 1525.92 2025.39 1533.69 Z" fill="#000000" fill-rule="evenodd" fill-opacity="1" /><path clip-path="url(#clip970)" d="M 0 0 M2017.23 1492.74 Q2015.42 1495.87 2017.59 1499.23 Q2019.76 1502.57 2025.93 1506.13 Q2032.09 1509.68 2036.08 1509.9 Q2040.06 1510.09 2041.86 1506.96 Q2043.68 1503.82 2041.52 1500.48 Q2039.34 1497.11 2033.19 1493.56 Q2027.01 1490 2023.03 1489.81 Q2019.04 1489.59 2017.23 1492.74 M2014.02 1490.89 Q2016.92 1485.85 2022.44 1485.51 Q2027.95 1485.14 2035.53 1489.51 Q2043.08 1493.88 2045.53 1498.84 Q2047.98 1503.78 2045.07 1508.81 Q2042.17 1513.85 2036.66 1514.22 Q2031.14 1514.56 2023.58 1510.2 Q2016.01 1505.83 2013.56 1500.89 Q2011.11 1495.92 2014.02 1490.89 Z" fill="#000000" fill-rule="evenodd" fill-opacity="1" /><path clip-path="url(#clip970)" d="M 0 0 M2038.73 1488.69 L2044.97 1477.88 L2048.26 1479.78 L2042.02 1490.59 L2038.73 1488.69 Z" fill="#000000" fill-rule="evenodd" fill-opacity="1" /><path clip-path="url(#clip970)" d="M 0 0 M2038.13 1456.53 Q2036.32 1459.66 2038.5 1463.03 Q2040.66 1466.36 2046.83 1469.93 Q2052.99 1473.48 2056.98 1473.7 Q2060.96 1473.89 2062.77 1470.76 Q2064.58 1467.61 2062.42 1464.28 Q2060.25 1460.91 2054.09 1457.36 Q2047.92 1453.79 2043.94 1453.61 Q2039.95 1453.39 2038.13 1456.53 M2034.92 1454.68 Q2037.83 1449.65 2043.34 1449.31 Q2048.85 1448.93 2056.43 1453.31 Q2063.99 1457.67 2066.44 1462.64 Q2068.88 1467.58 2065.97 1472.61 Q2063.07 1477.64 2057.56 1478.02 Q2052.04 1478.36 2044.49 1474 Q2036.91 1469.62 2034.47 1464.68 Q2032.02 1459.71 2034.92 1454.68 Z" fill="#000000" fill-rule="evenodd" fill-opacity="1" /><path clip-path="url(#clip970)" d="M 0 0 M2064.69 1440.67 Q2063.02 1443.56 2063.6 1446.12 Q2064.2 1448.65 2066.9 1450.21 Q2069.61 1451.78 2072.1 1451.02 Q2074.61 1450.25 2076.27 1447.36 Q2077.94 1444.48 2077.36 1441.92 Q2076.75 1439.36 2074.07 1437.8 Q2071.36 1436.24 2068.86 1437.01 Q2066.36 1437.77 2064.69 1440.67 M2060.62 1443.73 Q2058.48 1445.96 2055.85 1446.4 Q2053.23 1446.81 2050.67 1445.33 Q2047.08 1443.26 2046.46 1439.51 Q2045.86 1435.74 2048.43 1431.29 Q2051.01 1426.82 2054.56 1425.47 Q2058.12 1424.13 2061.71 1426.2 Q2064.27 1427.69 2065.21 1430.18 Q2066.16 1432.65 2065.31 1435.61 Q2067.68 1433.08 2070.61 1432.6 Q2073.54 1432.1 2076.41 1433.75 Q2080.76 1436.27 2081.54 1440.28 Q2082.34 1444.26 2079.48 1449.22 Q2076.62 1454.17 2072.76 1455.49 Q2068.9 1456.79 2064.55 1454.28 Q2061.69 1452.63 2060.65 1449.84 Q2059.62 1447.05 2060.62 1443.73 M2053.37 1441.52 Q2055.7 1442.86 2057.83 1442.17 Q2059.98 1441.46 2061.5 1438.83 Q2063 1436.23 2062.55 1434.01 Q2062.1 1431.78 2059.77 1430.43 Q2057.45 1429.09 2055.29 1429.82 Q2053.14 1430.53 2051.64 1433.14 Q2050.12 1435.77 2050.58 1437.98 Q2051.05 1440.18 2053.37 1441.52 Z" fill="#000000" fill-rule="evenodd" fill-opacity="1" /><path clip-path="url(#clip970)" d="M 0 0 M2073.09 1429.17 L2079.33 1418.36 L2082.62 1420.26 L2076.38 1431.07 L2073.09 1429.17 Z" fill="#000000" fill-rule="evenodd" fill-opacity="1" /><path clip-path="url(#clip970)" d="M 0 0 M2091.75 1418.75 L2095.57 1412.13 L2072.74 1398.95 L2070.03 1406.98 L2066.34 1404.85 L2069.03 1396.86 L2071.37 1392.81 L2097.89 1408.12 L2101.71 1401.51 L2105.11 1403.47 L2095.16 1420.71 L2091.75 1418.75 Z" fill="#000000" fill-rule="evenodd" fill-opacity="1" /><path clip-path="url(#clip970)" d="M 0 0 M2104.65 1396.41 L2108.47 1389.8 L2085.63 1376.62 L2082.92 1384.65 L2079.23 1382.52 L2081.92 1374.53 L2084.26 1370.48 L2110.78 1385.79 L2114.6 1379.17 L2118.01 1381.14 L2108.05 1398.38 L2104.65 1396.41 Z" fill="#000000" fill-rule="evenodd" fill-opacity="1" /><path clip-path="url(#clip970)" d="M 0 0 M64.0801 1131.33 L71.7189 1131.33 L71.7189 1104.96 L63.4088 1106.63 L63.4088 1102.37 L71.6726 1100.7 L76.3485 1100.7 L76.3485 1131.33 L83.9874 1131.33 L83.9874 1135.26 L64.0801 1135.26 L64.0801 1131.33 Z" fill="#000000" fill-rule="evenodd" fill-opacity="1" /><path clip-path="url(#clip970)" d="M 0 0 M101.904 1104.78 L90.0985 1123.22 L101.904 1123.22 L101.904 1104.78 M100.677 1100.7 L106.557 1100.7 L106.557 1123.22 L111.487 1123.22 L111.487 1127.11 L106.557 1127.11 L106.557 1135.26 L101.904 1135.26 L101.904 1127.11 L86.3022 1127.11 L86.3022 1122.6 L100.677 1100.7 Z" fill="#000000" fill-rule="evenodd" fill-opacity="1" /><path clip-path="url(#clip970)" d="M 0 0 M115.376 1100.7 L137.598 1100.7 L137.598 1102.69 L125.052 1135.26 L120.168 1135.26 L131.973 1104.64 L115.376 1104.64 L115.376 1100.7 Z" fill="#000000" fill-rule="evenodd" fill-opacity="1" /><path clip-path="url(#clip970)" d="M 0 0 M142.714 1100.7 L161.07 1100.7 L161.07 1104.64 L146.996 1104.64 L146.996 1113.11 Q148.015 1112.76 149.033 1112.6 Q150.052 1112.41 151.07 1112.41 Q156.857 1112.41 160.237 1115.59 Q163.617 1118.76 163.617 1124.17 Q163.617 1129.75 160.144 1132.85 Q156.672 1135.93 150.353 1135.93 Q148.177 1135.93 145.908 1135.56 Q143.663 1135.19 141.256 1134.45 L141.256 1129.75 Q143.339 1130.89 145.561 1131.44 Q147.783 1132 150.26 1132 Q154.265 1132 156.603 1129.89 Q158.941 1127.78 158.941 1124.17 Q158.941 1120.56 156.603 1118.46 Q154.265 1116.35 150.26 1116.35 Q148.385 1116.35 146.51 1116.77 Q144.658 1117.18 142.714 1118.06 L142.714 1100.7 Z" fill="#000000" fill-rule="evenodd" fill-opacity="1" /><path clip-path="url(#clip970)" d="M 0 0 M63.6634 900.522 L71.3023 900.522 L71.3023 874.156 L62.9921 875.823 L62.9921 871.564 L71.256 869.897 L75.9319 869.897 L75.9319 900.522 L83.5707 900.522 L83.5707 904.457 L63.6634 904.457 L63.6634 900.522 Z" fill="#000000" fill-rule="evenodd" fill-opacity="1" /><path clip-path="url(#clip970)" d="M 0 0 M88.6864 869.897 L107.043 869.897 L107.043 873.832 L92.9688 873.832 L92.9688 882.304 Q93.9873 881.957 95.0058 881.795 Q96.0244 881.61 97.0429 881.61 Q102.83 881.61 106.209 884.781 Q109.589 887.953 109.589 893.369 Q109.589 898.948 106.117 902.05 Q102.645 905.128 96.3253 905.128 Q94.1494 905.128 91.8809 904.758 Q89.6355 904.388 87.2281 903.647 L87.2281 898.948 Q89.3114 900.082 91.5336 900.638 Q93.7559 901.193 96.2327 901.193 Q100.237 901.193 102.575 899.087 Q104.913 896.98 104.913 893.369 Q104.913 889.758 102.575 887.652 Q100.237 885.545 96.2327 885.545 Q94.3577 885.545 92.4827 885.962 Q90.6309 886.379 88.6864 887.258 L88.6864 869.897 Z" fill="#000000" fill-rule="evenodd" fill-opacity="1" /><path clip-path="url(#clip970)" d="M 0 0 M124.658 872.976 Q121.047 872.976 119.219 876.541 Q117.413 880.082 117.413 887.212 Q117.413 894.318 119.219 897.883 Q121.047 901.425 124.658 901.425 Q128.293 901.425 130.098 897.883 Q131.927 894.318 131.927 887.212 Q131.927 880.082 130.098 876.541 Q128.293 872.976 124.658 872.976 M124.658 869.272 Q130.469 869.272 133.524 873.879 Q136.603 878.462 136.603 887.212 Q136.603 895.939 133.524 900.545 Q130.469 905.128 124.658 905.128 Q118.848 905.128 115.77 900.545 Q112.714 895.939 112.714 887.212 Q112.714 878.462 115.77 873.879 Q118.848 869.272 124.658 869.272 Z" fill="#000000" fill-rule="evenodd" fill-opacity="1" /><path clip-path="url(#clip970)" d="M 0 0 M151.672 872.976 Q148.061 872.976 146.232 876.541 Q144.427 880.082 144.427 887.212 Q144.427 894.318 146.232 897.883 Q148.061 901.425 151.672 901.425 Q155.306 901.425 157.112 897.883 Q158.941 894.318 158.941 887.212 Q158.941 880.082 157.112 876.541 Q155.306 872.976 151.672 872.976 M151.672 869.272 Q157.482 869.272 160.538 873.879 Q163.617 878.462 163.617 887.212 Q163.617 895.939 160.538 900.545 Q157.482 905.128 151.672 905.128 Q145.862 905.128 142.783 900.545 Q139.728 895.939 139.728 887.212 Q139.728 878.462 142.783 873.879 Q145.862 869.272 151.672 869.272 Z" fill="#000000" fill-rule="evenodd" fill-opacity="1" /><path clip-path="url(#clip970)" d="M 0 0 M66.256 669.717 L73.8948 669.717 L73.8948 643.352 L65.5847 645.018 L65.5847 640.759 L73.8485 639.093 L78.5245 639.093 L78.5245 669.717 L86.1633 669.717 L86.1633 673.653 L66.256 673.653 L66.256 669.717 Z" fill="#000000" fill-rule="evenodd" fill-opacity="1" /><path clip-path="url(#clip970)" d="M 0 0 M91.279 639.093 L109.635 639.093 L109.635 643.028 L95.5614 643.028 L95.5614 651.5 Q96.5799 651.153 97.5984 650.991 Q98.6169 650.805 99.6354 650.805 Q105.422 650.805 108.802 653.977 Q112.182 657.148 112.182 662.565 Q112.182 668.143 108.709 671.245 Q105.237 674.324 98.9179 674.324 Q96.7419 674.324 94.4734 673.953 Q92.2281 673.583 89.8207 672.842 L89.8207 668.143 Q91.904 669.278 94.1262 669.833 Q96.3484 670.389 98.8253 670.389 Q102.83 670.389 105.168 668.282 Q107.506 666.176 107.506 662.565 Q107.506 658.954 105.168 656.847 Q102.83 654.741 98.8253 654.741 Q96.9503 654.741 95.0753 655.157 Q93.2234 655.574 91.279 656.454 L91.279 639.093 Z" fill="#000000" fill-rule="evenodd" fill-opacity="1" /><path clip-path="url(#clip970)" d="M 0 0 M121.279 669.717 L137.598 669.717 L137.598 673.653 L115.654 673.653 L115.654 669.717 Q118.316 666.963 122.899 662.333 Q127.506 657.68 128.686 656.338 Q130.932 653.815 131.811 652.079 Q132.714 650.319 132.714 648.629 Q132.714 645.875 130.77 644.139 Q128.848 642.403 125.746 642.403 Q123.547 642.403 121.094 643.167 Q118.663 643.93 115.885 645.481 L115.885 640.759 Q118.709 639.625 121.163 639.046 Q123.617 638.468 125.654 638.468 Q131.024 638.468 134.219 641.153 Q137.413 643.838 137.413 648.329 Q137.413 650.458 136.603 652.379 Q135.816 654.278 133.709 656.87 Q133.131 657.541 130.029 660.759 Q126.927 663.953 121.279 669.717 Z" fill="#000000" fill-rule="evenodd" fill-opacity="1" /><path clip-path="url(#clip970)" d="M 0 0 M142.714 639.093 L161.07 639.093 L161.07 643.028 L146.996 643.028 L146.996 651.5 Q148.015 651.153 149.033 650.991 Q150.052 650.805 151.07 650.805 Q156.857 650.805 160.237 653.977 Q163.617 657.148 163.617 662.565 Q163.617 668.143 160.144 671.245 Q156.672 674.324 150.353 674.324 Q148.177 674.324 145.908 673.953 Q143.663 673.583 141.256 672.842 L141.256 668.143 Q143.339 669.278 145.561 669.833 Q147.783 670.389 150.26 670.389 Q154.265 670.389 156.603 668.282 Q158.941 666.176 158.941 662.565 Q158.941 658.954 156.603 656.847 Q154.265 654.741 150.26 654.741 Q148.385 654.741 146.51 655.157 Q144.658 655.574 142.714 656.454 L142.714 639.093 Z" fill="#000000" fill-rule="evenodd" fill-opacity="1" /><path clip-path="url(#clip970)" d="M 0 0 M64.6588 438.913 L72.2976 438.913 L72.2976 412.547 L63.9875 414.214 L63.9875 409.955 L72.2513 408.288 L76.9272 408.288 L76.9272 438.913 L84.5661 438.913 L84.5661 442.848 L64.6588 442.848 L64.6588 438.913 Z" fill="#000000" fill-rule="evenodd" fill-opacity="1" /><path clip-path="url(#clip970)" d="M 0 0 M89.6818 408.288 L108.038 408.288 L108.038 412.223 L93.9642 412.223 L93.9642 420.695 Q94.9827 420.348 96.0012 420.186 Q97.0197 420.001 98.0382 420.001 Q103.825 420.001 107.205 423.172 Q110.584 426.343 110.584 431.76 Q110.584 437.339 107.112 440.44 Q103.64 443.519 97.3206 443.519 Q95.1447 443.519 92.8762 443.149 Q90.6309 442.778 88.2235 442.038 L88.2235 437.339 Q90.3068 438.473 92.529 439.028 Q94.7512 439.584 97.2281 439.584 Q101.233 439.584 103.571 437.478 Q105.909 435.371 105.909 431.76 Q105.909 428.149 103.571 426.042 Q101.233 423.936 97.2281 423.936 Q95.3531 423.936 93.4781 424.353 Q91.6262 424.769 89.6818 425.649 L89.6818 408.288 Z" fill="#000000" fill-rule="evenodd" fill-opacity="1" /><path clip-path="url(#clip970)" d="M 0 0 M115.7 408.288 L134.057 408.288 L134.057 412.223 L119.983 412.223 L119.983 420.695 Q121.001 420.348 122.02 420.186 Q123.038 420.001 124.057 420.001 Q129.844 420.001 133.223 423.172 Q136.603 426.343 136.603 431.76 Q136.603 437.339 133.131 440.44 Q129.658 443.519 123.339 443.519 Q121.163 443.519 118.895 443.149 Q116.649 442.778 114.242 442.038 L114.242 437.339 Q116.325 438.473 118.547 439.028 Q120.77 439.584 123.246 439.584 Q127.251 439.584 129.589 437.478 Q131.927 435.371 131.927 431.76 Q131.927 428.149 129.589 426.042 Q127.251 423.936 123.246 423.936 Q121.371 423.936 119.496 424.353 Q117.645 424.769 115.7 425.649 L115.7 408.288 Z" fill="#000000" fill-rule="evenodd" fill-opacity="1" /><path clip-path="url(#clip970)" d="M 0 0 M151.672 411.367 Q148.061 411.367 146.232 414.931 Q144.427 418.473 144.427 425.603 Q144.427 432.709 146.232 436.274 Q148.061 439.815 151.672 439.815 Q155.306 439.815 157.112 436.274 Q158.941 432.709 158.941 425.603 Q158.941 418.473 157.112 414.931 Q155.306 411.367 151.672 411.367 M151.672 407.663 Q157.482 407.663 160.538 412.269 Q163.617 416.853 163.617 425.603 Q163.617 434.329 160.538 438.936 Q157.482 443.519 151.672 443.519 Q145.862 443.519 142.783 438.936 Q139.728 434.329 139.728 425.603 Q139.728 416.853 142.783 412.269 Q145.862 407.663 151.672 407.663 Z" fill="#000000" fill-rule="evenodd" fill-opacity="1" /><path clip-path="url(#clip970)" d="M 0 0 M65.5616 208.108 L73.2004 208.108 L73.2004 181.742 L64.8903 183.409 L64.8903 179.15 L73.1541 177.483 L77.83 177.483 L77.83 208.108 L85.4689 208.108 L85.4689 212.043 L65.5616 212.043 L65.5616 208.108 Z" fill="#000000" fill-rule="evenodd" fill-opacity="1" /><path clip-path="url(#clip970)" d="M 0 0 M90.5846 177.483 L108.941 177.483 L108.941 181.418 L94.867 181.418 L94.867 189.891 Q95.8855 189.543 96.904 189.381 Q97.9225 189.196 98.941 189.196 Q104.728 189.196 108.108 192.367 Q111.487 195.539 111.487 200.955 Q111.487 206.534 108.015 209.636 Q104.543 212.715 98.2234 212.715 Q96.0475 212.715 93.779 212.344 Q91.5336 211.974 89.1262 211.233 L89.1262 206.534 Q91.2096 207.668 93.4318 208.224 Q95.654 208.779 98.1308 208.779 Q102.135 208.779 104.473 206.673 Q106.811 204.566 106.811 200.955 Q106.811 197.344 104.473 195.238 Q102.135 193.131 98.1308 193.131 Q96.2558 193.131 94.3808 193.548 Q92.529 193.965 90.5846 194.844 L90.5846 177.483 Z" fill="#000000" fill-rule="evenodd" fill-opacity="1" /><path clip-path="url(#clip970)" d="M 0 0 M115.376 177.483 L137.598 177.483 L137.598 179.474 L125.052 212.043 L120.168 212.043 L131.973 181.418 L115.376 181.418 L115.376 177.483 Z" fill="#000000" fill-rule="evenodd" fill-opacity="1" /><path clip-path="url(#clip970)" d="M 0 0 M142.714 177.483 L161.07 177.483 L161.07 181.418 L146.996 181.418 L146.996 189.891 Q148.015 189.543 149.033 189.381 Q150.052 189.196 151.07 189.196 Q156.857 189.196 160.237 192.367 Q163.617 195.539 163.617 200.955 Q163.617 206.534 160.144 209.636 Q156.672 212.715 150.353 212.715 Q148.177 212.715 145.908 212.344 Q143.663 211.974 141.256 211.233 L141.256 206.534 Q143.339 207.668 145.561 208.224 Q147.783 208.779 150.26 208.779 Q154.265 208.779 156.603 206.673 Q158.941 204.566 158.941 200.955 Q158.941 197.344 156.603 195.238 Q154.265 193.131 150.26 193.131 Q148.385 193.131 146.51 193.548 Q144.658 193.965 142.714 194.844 L142.714 177.483 Z" fill="#000000" fill-rule="evenodd" fill-opacity="1" /><path clip-path="url(#clip972)" d="
M287.353 838.772 L287.353 782.484 L248.894 782.484 L248.894 425.568 L287.353 425.568 L287.353 175.081 L287.353 425.568 L325.812 425.568 L325.812 782.484 L287.353 782.484 
  L287.353 838.772  Z
  " fill="#ff0000" fill-rule="evenodd" fill-opacity="1"/>
<polyline clip-path="url(#clip972)" style="stroke:#ff0000; stroke-width:2; stroke-opacity:1; fill:none" points="
  287.353,838.772 287.353,782.484 248.894,782.484 248.894,425.568 287.353,425.568 287.353,175.081 287.353,425.568 325.812,425.568 325.812,782.484 287.353,782.484 
  287.353,838.772 
  "/>
<path clip-path="url(#clip972)" d="
M372.817 1039.51 L372.817 976.636 L334.358 976.636 L334.358 697.179 L372.817 697.179 L372.817 675.299 L372.817 697.179 L411.275 697.179 L411.275 976.636 L372.817 976.636 
  L372.817 1039.51  Z
  " fill="#008000" fill-rule="evenodd" fill-opacity="1"/>
<polyline clip-path="url(#clip972)" style="stroke:#008000; stroke-width:2; stroke-opacity:1; fill:none" points="
  372.817,1039.51 372.817,976.636 334.358,976.636 334.358,697.179 372.817,697.179 372.817,675.299 372.817,697.179 411.275,697.179 411.275,976.636 372.817,976.636 
  372.817,1039.51 
  "/>
<path clip-path="url(#clip972)" d="
M458.28 905.642 L458.28 761.25 L419.822 761.25 L419.822 673.637 L458.28 673.637 L458.28 561.004 L458.28 673.637 L496.739 673.637 L496.739 761.25 L458.28 761.25 
  L458.28 905.642  Z
  " fill="#ff0000" fill-rule="evenodd" fill-opacity="1"/>
<polyline clip-path="url(#clip972)" style="stroke:#ff0000; stroke-width:2; stroke-opacity:1; fill:none" points="
  458.28,905.642 458.28,761.25 419.822,761.25 419.822,673.637 458.28,673.637 458.28,561.004 458.28,673.637 496.739,673.637 496.739,761.25 458.28,761.25 
  458.28,905.642 
  "/>
<path clip-path="url(#clip972)" d="
M543.744 1013.57 L543.744 887.177 L505.285 887.177 L505.285 720.998 L543.744 720.998 L543.744 714.628 L543.744 720.998 L582.203 720.998 L582.203 887.177 L543.744 887.177 
  L543.744 1013.57  Z
  " fill="#008000" fill-rule="evenodd" fill-opacity="1"/>
<polyline clip-path="url(#clip972)" style="stroke:#008000; stroke-width:2; stroke-opacity:1; fill:none" points="
  543.744,1013.57 543.744,887.177 505.285,887.177 505.285,720.998 543.744,720.998 543.744,714.628 543.744,720.998 582.203,720.998 582.203,887.177 543.744,887.177 
  543.744,1013.57 
  "/>
<path clip-path="url(#clip972)" d="
M629.208 901.764 L629.208 743.616 L590.749 743.616 L590.749 687.577 L629.208 687.577 L629.208 670.775 L629.208 687.577 L667.667 687.577 L667.667 743.616 L629.208 743.616 
  L629.208 901.764  Z
  " fill="#ff0000" fill-rule="evenodd" fill-opacity="1"/>
<polyline clip-path="url(#clip972)" style="stroke:#ff0000; stroke-width:2; stroke-opacity:1; fill:none" points="
  629.208,901.764 629.208,743.616 590.749,743.616 590.749,687.577 629.208,687.577 629.208,670.775 629.208,687.577 667.667,687.577 667.667,743.616 629.208,743.616 
  629.208,901.764 
  "/>
<path clip-path="url(#clip972)" d="
M714.672 853.941 L714.672 746.294 L676.213 746.294 L676.213 280.438 L714.672 280.438 L714.672 238.246 L714.672 280.438 L753.13 280.438 L753.13 746.294 L714.672 746.294 
  L714.672 853.941  Z
  " fill="#008000" fill-rule="evenodd" fill-opacity="1"/>
<polyline clip-path="url(#clip972)" style="stroke:#008000; stroke-width:2; stroke-opacity:1; fill:none" points="
  714.672,853.941 714.672,746.294 676.213,746.294 676.213,280.438 714.672,280.438 714.672,238.246 714.672,280.438 753.13,280.438 753.13,746.294 714.672,746.294 
  714.672,853.941 
  "/>
<path clip-path="url(#clip972)" d="
M800.135 386.054 L800.135 347.832 L761.677 347.832 L761.677 84.0694 L800.135 84.0694 L800.135 84.0694 L800.135 84.0694 L838.594 84.0694 L838.594 347.832 L800.135 347.832 
  L800.135 386.054  Z
  " fill="#ff0000" fill-rule="evenodd" fill-opacity="1"/>
<polyline clip-path="url(#clip972)" style="stroke:#ff0000; stroke-width:2; stroke-opacity:1; fill:none" points="
  800.135,386.054 800.135,347.832 761.677,347.832 761.677,84.0694 800.135,84.0694 838.594,84.0694 838.594,347.832 800.135,347.832 
  800.135,386.054 
  "/>
<path clip-path="url(#clip972)" d="
M885.599 461.574 L885.599 328.63 L847.141 328.63 L847.141 254.865 L885.599 254.865 L885.599 240.924 L885.599 254.865 L924.058 254.865 L924.058 328.63 L885.599 328.63 
  L885.599 461.574  Z
  " fill="#008000" fill-rule="evenodd" fill-opacity="1"/>
<polyline clip-path="url(#clip972)" style="stroke:#008000; stroke-width:2; stroke-opacity:1; fill:none" points="
  885.599,461.574 885.599,328.63 847.141,328.63 847.141,254.865 885.599,254.865 885.599,240.924 885.599,254.865 924.058,254.865 924.058,328.63 885.599,328.63 
  885.599,461.574 
  "/>
<path clip-path="url(#clip972)" d="
M971.063 818.933 L971.063 742.416 L932.604 742.416 L932.604 268.898 L971.063 268.898 L971.063 223.66 L971.063 268.898 L1009.52 268.898 L1009.52 742.416 L971.063 742.416 
  L971.063 818.933  Z
  " fill="#ff0000" fill-rule="evenodd" fill-opacity="1"/>
<polyline clip-path="url(#clip972)" style="stroke:#ff0000; stroke-width:2; stroke-opacity:1; fill:none" points="
  971.063,818.933 971.063,742.416 932.604,742.416 932.604,268.898 971.063,268.898 971.063,223.66 971.063,268.898 1009.52,268.898 1009.52,742.416 971.063,742.416 
  971.063,818.933 
  "/>
<path clip-path="url(#clip972)" d="
M1056.53 994.27 L1056.53 897.055 L1018.07 897.055 L1018.07 777.591 L1056.53 777.591 L1056.53 724.358 L1056.53 777.591 L1094.99 777.591 L1094.99 897.055 L1056.53 897.055 
  L1056.53 994.27  Z
  " fill="#008000" fill-rule="evenodd" fill-opacity="1"/>
<polyline clip-path="url(#clip972)" style="stroke:#008000; stroke-width:2; stroke-opacity:1; fill:none" points="
  1056.53,994.27 1056.53,897.055 1018.07,897.055 1018.07,777.591 1056.53,777.591 1056.53,724.358 1056.53,777.591 1094.99,777.591 1094.99,897.055 1056.53,897.055 
  1056.53,994.27 
  "/>
<path clip-path="url(#clip972)" d="
M1141.99 746.756 L1141.99 743.155 L1103.53 743.155 L1103.53 608.366 L1141.99 608.366 L1141.99 508.935 L1141.99 608.366 L1180.45 608.366 L1180.45 743.155 L1141.99 743.155 
  L1141.99 746.756  Z
  " fill="#008000" fill-rule="evenodd" fill-opacity="1"/>
<polyline clip-path="url(#clip972)" style="stroke:#008000; stroke-width:2; stroke-opacity:1; fill:none" points="
  1141.99,746.756 1141.99,743.155 1103.53,743.155 1103.53,608.366 1141.99,608.366 1141.99,508.935 1141.99,608.366 1180.45,608.366 1180.45,743.155 1141.99,743.155 
  1141.99,746.756 
  "/>
<path clip-path="url(#clip972)" d="
M1227.45 908.78 L1227.45 884.039 L1189 884.039 L1189 654.71 L1227.45 654.71 L1227.45 642.709 L1227.45 654.71 L1265.91 654.71 L1265.91 884.039 L1227.45 884.039 
  L1227.45 908.78  Z
  " fill="#ff0000" fill-rule="evenodd" fill-opacity="1"/>
<polyline clip-path="url(#clip972)" style="stroke:#ff0000; stroke-width:2; stroke-opacity:1; fill:none" points="
  1227.45,908.78 1227.45,884.039 1189,884.039 1189,654.71 1227.45,654.71 1227.45,642.709 1227.45,654.71 1265.91,654.71 1265.91,884.039 1227.45,884.039 
  1227.45,908.78 
  "/>
<path clip-path="url(#clip972)" d="
M1312.92 874.899 L1312.92 828.83 L1274.46 828.83 L1274.46 683.884 L1312.92 683.884 L1312.92 598.653 L1312.92 683.884 L1351.38 683.884 L1351.38 828.83 L1312.92 828.83 
  L1312.92 874.899  Z
  " fill="#008000" fill-rule="evenodd" fill-opacity="1"/>
<polyline clip-path="url(#clip972)" style="stroke:#008000; stroke-width:2; stroke-opacity:1; fill:none" points="
  1312.92,874.899 1312.92,828.83 1274.46,828.83 1274.46,683.884 1312.92,683.884 1312.92,598.653 1312.92,683.884 1351.38,683.884 1351.38,828.83 1312.92,828.83 
  1312.92,874.899 
  "/>
<path clip-path="url(#clip972)" d="
M1398.38 959.004 L1398.38 914.874 L1359.92 914.874 L1359.92 596.825 L1398.38 596.825 L1398.38 537.554 L1398.38 596.825 L1436.84 596.825 L1436.84 914.874 L1398.38 914.874 
  L1398.38 959.004  Z
  " fill="#008000" fill-rule="evenodd" fill-opacity="1"/>
<polyline clip-path="url(#clip972)" style="stroke:#008000; stroke-width:2; stroke-opacity:1; fill:none" points="
  1398.38,959.004 1398.38,914.874 1359.92,914.874 1359.92,596.825 1398.38,596.825 1398.38,537.554 1398.38,596.825 1436.84,596.825 1436.84,914.874 1398.38,914.874 
  1398.38,959.004 
  "/>
<path clip-path="url(#clip972)" d="
M1483.85 1311.58 L1483.85 1044.49 L1445.39 1044.49 L1445.39 840.924 L1483.85 840.924 L1483.85 804.55 L1483.85 840.924 L1522.3 840.924 L1522.3 1044.49 L1483.85 1044.49 
  L1483.85 1311.58  Z
  " fill="#ff0000" fill-rule="evenodd" fill-opacity="1"/>
<polyline clip-path="url(#clip972)" style="stroke:#ff0000; stroke-width:2; stroke-opacity:1; fill:none" points="
  1483.85,1311.58 1483.85,1044.49 1445.39,1044.49 1445.39,840.924 1483.85,840.924 1483.85,804.55 1483.85,840.924 1522.3,840.924 1522.3,1044.49 1483.85,1044.49 
  1483.85,1311.58 
  "/>
<path clip-path="url(#clip972)" d="
M1569.31 1204.39 L1569.31 1123.06 L1530.85 1123.06 L1530.85 1010.52 L1569.31 1010.52 L1569.31 975.16 L1569.31 1010.52 L1607.77 1010.52 L1607.77 1123.06 L1569.31 1123.06 
  L1569.31 1204.39  Z
  " fill="#ff0000" fill-rule="evenodd" fill-opacity="1"/>
<polyline clip-path="url(#clip972)" style="stroke:#ff0000; stroke-width:2; stroke-opacity:1; fill:none" points="
  1569.31,1204.39 1569.31,1123.06 1530.85,1123.06 1530.85,1010.52 1569.31,1010.52 1569.31,975.16 1569.31,1010.52 1607.77,1010.52 1607.77,1123.06 1569.31,1123.06 
  1569.31,1204.39 
  "/>
<path clip-path="url(#clip972)" d="
M1654.77 1268.93 L1654.77 1210.58 L1616.31 1210.58 L1616.31 1103.49 L1654.77 1103.49 L1654.77 1020.49 L1654.77 1103.49 L1693.23 1103.49 L1693.23 1210.58 L1654.77 1210.58 
  L1654.77 1268.93  Z
  " fill="#ff0000" fill-rule="evenodd" fill-opacity="1"/>
<polyline clip-path="url(#clip972)" style="stroke:#ff0000; stroke-width:2; stroke-opacity:1; fill:none" points="
  1654.77,1268.93 1654.77,1210.58 1616.31,1210.58 1616.31,1103.49 1654.77,1103.49 1654.77,1020.49 1654.77,1103.49 1693.23,1103.49 1693.23,1210.58 1654.77,1210.58 
  1654.77,1268.93 
  "/>
<path clip-path="url(#clip972)" d="
M1740.24 1224.52 L1740.24 1170.6 L1701.78 1170.6 L1701.78 1130.81 L1740.24 1130.81 L1740.24 1049.57 L1740.24 1130.81 L1778.7 1130.81 L1778.7 1170.6 L1740.24 1170.6 
  L1740.24 1224.52  Z
  " fill="#008000" fill-rule="evenodd" fill-opacity="1"/>
<polyline clip-path="url(#clip972)" style="stroke:#008000; stroke-width:2; stroke-opacity:1; fill:none" points="
  1740.24,1224.52 1740.24,1170.6 1701.78,1170.6 1701.78,1130.81 1740.24,1130.81 1740.24,1049.57 1740.24,1130.81 1778.7,1130.81 1778.7,1170.6 1740.24,1170.6 
  1740.24,1224.52 
  "/>
<path clip-path="url(#clip972)" d="
M1825.7 1201.07 L1825.7 1147.99 L1787.24 1147.99 L1787.24 886.254 L1825.7 886.254 L1825.7 865.112 L1825.7 886.254 L1864.16 886.254 L1864.16 1147.99 L1825.7 1147.99 
  L1825.7 1201.07  Z
  " fill="#008000" fill-rule="evenodd" fill-opacity="1"/>
<polyline clip-path="url(#clip972)" style="stroke:#008000; stroke-width:2; stroke-opacity:1; fill:none" points="
  1825.7,1201.07 1825.7,1147.99 1787.24,1147.99 1787.24,886.254 1825.7,886.254 1825.7,865.112 1825.7,886.254 1864.16,886.254 1864.16,1147.99 1825.7,1147.99 
  1825.7,1201.07 
  "/>
<path clip-path="url(#clip972)" d="
M1911.16 1056.68 L1911.16 938.047 L1872.71 938.047 L1872.71 887.177 L1911.16 887.177 L1911.16 731.661 L1911.16 887.177 L1949.62 887.177 L1949.62 938.047 L1911.16 938.047 
  L1911.16 1056.68  Z
  " fill="#ff0000" fill-rule="evenodd" fill-opacity="1"/>
<polyline clip-path="url(#clip972)" style="stroke:#ff0000; stroke-width:2; stroke-opacity:1; fill:none" points="
  1911.16,1056.68 1911.16,938.047 1872.71,938.047 1872.71,887.177 1911.16,887.177 1911.16,731.661 1911.16,887.177 1949.62,887.177 1949.62,938.047 1911.16,938.047 
  1911.16,1056.68 
  "/>
<path clip-path="url(#clip972)" d="
M1996.63 1135.71 L1996.63 1005.53 L1958.17 1005.53 L1958.17 923.183 L1996.63 923.183 L1996.63 849.556 L1996.63 923.183 L2035.09 923.183 L2035.09 1005.53 L1996.63 1005.53 
  L1996.63 1135.71  Z
  " fill="#008000" fill-rule="evenodd" fill-opacity="1"/>
<polyline clip-path="url(#clip972)" style="stroke:#008000; stroke-width:2; stroke-opacity:1; fill:none" points="
  1996.63,1135.71 1996.63,1005.53 1958.17,1005.53 1958.17,923.183 1996.63,923.183 1996.63,849.556 1996.63,923.183 2035.09,923.183 2035.09,1005.53 1996.63,1005.53 
  1996.63,1135.71 
  "/>
<path clip-path="url(#clip972)" d="
M2082.09 1090.29 L2082.09 1068.87 L2043.63 1068.87 L2043.63 956.973 L2082.09 956.973 L2082.09 794.855 L2082.09 956.973 L2120.55 956.973 L2120.55 1068.87 L2082.09 1068.87 
  L2082.09 1090.29  Z
  " fill="#ff0000" fill-rule="evenodd" fill-opacity="1"/>
<polyline clip-path="url(#clip972)" style="stroke:#ff0000; stroke-width:2; stroke-opacity:1; fill:none" points="
  2082.09,1090.29 2082.09,1068.87 2043.63,1068.87 2043.63,956.973 2082.09,956.973 2082.09,794.855 2082.09,956.973 2120.55,956.973 2120.55,1068.87 2082.09,1068.87 
  2082.09,1090.29 
  "/>
<path clip-path="url(#clip972)" d="
M2167.56 1023.35 L2167.56 1020.31 L2129.1 1020.31 L2129.1 826.06 L2167.56 826.06 L2167.56 772.827 L2167.56 826.06 L2206.01 826.06 L2206.01 1020.31 L2167.56 1020.31 
  L2167.56 1023.35  Z
  " fill="#008000" fill-rule="evenodd" fill-opacity="1"/>
<polyline clip-path="url(#clip972)" style="stroke:#008000; stroke-width:2; stroke-opacity:1; fill:none" points="
  2167.56,1023.35 2167.56,1020.31 2129.1,1020.31 2129.1,826.06 2167.56,826.06 2167.56,772.827 2167.56,826.06 2206.01,826.06 2206.01,1020.31 2167.56,1020.31 
  2167.56,1023.35 
  "/>
<path clip-path="url(#clip972)" d="
M2253.02 813.273 L2253.02 791.717 L2214.56 791.717 L2214.56 678.416 L2253.02 678.416 L2253.02 543.278 L2253.02 678.416 L2291.48 678.416 L2291.48 791.717 L2253.02 791.717 
  L2253.02 813.273  Z
  " fill="#008000" fill-rule="evenodd" fill-opacity="1"/>
<polyline clip-path="url(#clip972)" style="stroke:#008000; stroke-width:2; stroke-opacity:1; fill:none" points="
  2253.02,813.273 2253.02,791.717 2214.56,791.717 2214.56,678.416 2253.02,678.416 2253.02,543.278 2253.02,678.416 2291.48,678.416 2291.48,791.717 2253.02,791.717 
  2253.02,813.273 
  "/>
<circle clip-path="url(#clip972)" cx="287.353" cy="604.026" r="3" fill="#ff0000" fill-rule="evenodd" fill-opacity="1" stroke="#000000" stroke-opacity="1" stroke-width="0"/>
<circle clip-path="url(#clip972)" cx="372.817" cy="836.908" r="3" fill="#008000" fill-rule="evenodd" fill-opacity="1" stroke="#000000" stroke-opacity="1" stroke-width="0"/>
<circle clip-path="url(#clip972)" cx="458.28" cy="717.443" r="3" fill="#ff0000" fill-rule="evenodd" fill-opacity="1" stroke="#000000" stroke-opacity="1" stroke-width="0"/>
<circle clip-path="url(#clip972)" cx="543.744" cy="804.087" r="3" fill="#008000" fill-rule="evenodd" fill-opacity="1" stroke="#000000" stroke-opacity="1" stroke-width="0"/>
<circle clip-path="url(#clip972)" cx="629.208" cy="715.597" r="3" fill="#ff0000" fill-rule="evenodd" fill-opacity="1" stroke="#000000" stroke-opacity="1" stroke-width="0"/>
<circle clip-path="url(#clip972)" cx="714.672" cy="513.366" r="3" fill="#008000" fill-rule="evenodd" fill-opacity="1" stroke="#000000" stroke-opacity="1" stroke-width="0"/>
<circle clip-path="url(#clip972)" cx="800.135" cy="215.951" r="3" fill="#ff0000" fill-rule="evenodd" fill-opacity="1" stroke="#000000" stroke-opacity="1" stroke-width="0"/>
<circle clip-path="url(#clip972)" cx="885.599" cy="291.747" r="3" fill="#008000" fill-rule="evenodd" fill-opacity="1" stroke="#000000" stroke-opacity="1" stroke-width="0"/>
<circle clip-path="url(#clip972)" cx="971.063" cy="505.657" r="3" fill="#ff0000" fill-rule="evenodd" fill-opacity="1" stroke="#000000" stroke-opacity="1" stroke-width="0"/>
<circle clip-path="url(#clip972)" cx="1056.53" cy="837.323" r="3" fill="#008000" fill-rule="evenodd" fill-opacity="1" stroke="#000000" stroke-opacity="1" stroke-width="0"/>
<circle clip-path="url(#clip972)" cx="1141.99" cy="675.76" r="3" fill="#008000" fill-rule="evenodd" fill-opacity="1" stroke="#000000" stroke-opacity="1" stroke-width="0"/>
<circle clip-path="url(#clip972)" cx="1227.45" cy="769.374" r="3" fill="#ff0000" fill-rule="evenodd" fill-opacity="1" stroke="#000000" stroke-opacity="1" stroke-width="0"/>
<circle clip-path="url(#clip972)" cx="1312.92" cy="756.357" r="3" fill="#008000" fill-rule="evenodd" fill-opacity="1" stroke="#000000" stroke-opacity="1" stroke-width="0"/>
<circle clip-path="url(#clip972)" cx="1398.38" cy="755.85" r="3" fill="#008000" fill-rule="evenodd" fill-opacity="1" stroke="#000000" stroke-opacity="1" stroke-width="0"/>
<circle clip-path="url(#clip972)" cx="1483.85" cy="942.709" r="3" fill="#ff0000" fill-rule="evenodd" fill-opacity="1" stroke="#000000" stroke-opacity="1" stroke-width="0"/>
<circle clip-path="url(#clip972)" cx="1569.31" cy="1066.79" r="3" fill="#ff0000" fill-rule="evenodd" fill-opacity="1" stroke="#000000" stroke-opacity="1" stroke-width="0"/>
<circle clip-path="url(#clip972)" cx="1654.77" cy="1157.03" r="3" fill="#ff0000" fill-rule="evenodd" fill-opacity="1" stroke="#000000" stroke-opacity="1" stroke-width="0"/>
<circle clip-path="url(#clip972)" cx="1740.24" cy="1150.71" r="3" fill="#008000" fill-rule="evenodd" fill-opacity="1" stroke="#000000" stroke-opacity="1" stroke-width="0"/>
<circle clip-path="url(#clip972)" cx="1825.7" cy="1017.12" r="3" fill="#008000" fill-rule="evenodd" fill-opacity="1" stroke="#000000" stroke-opacity="1" stroke-width="0"/>
<circle clip-path="url(#clip972)" cx="1911.16" cy="912.612" r="3" fill="#ff0000" fill-rule="evenodd" fill-opacity="1" stroke="#000000" stroke-opacity="1" stroke-width="0"/>
<circle clip-path="url(#clip972)" cx="1996.63" cy="964.358" r="3" fill="#008000" fill-rule="evenodd" fill-opacity="1" stroke="#000000" stroke-opacity="1" stroke-width="0"/>
<circle clip-path="url(#clip972)" cx="2082.09" cy="1012.92" r="3" fill="#ff0000" fill-rule="evenodd" fill-opacity="1" stroke="#000000" stroke-opacity="1" stroke-width="0"/>
<circle clip-path="url(#clip972)" cx="2167.56" cy="923.183" r="3" fill="#008000" fill-rule="evenodd" fill-opacity="1" stroke="#000000" stroke-opacity="1" stroke-width="0"/>
<circle clip-path="url(#clip972)" cx="2253.02" cy="735.066" r="3" fill="#008000" fill-rule="evenodd" fill-opacity="1" stroke="#000000" stroke-opacity="1" stroke-width="0"/>
</svg>
