<?xml version="1.0" encoding="utf-8"?>
<svg xmlns="http://www.w3.org/2000/svg" xmlns:xlink="http://www.w3.org/1999/xlink" width="150" height="100" viewBox="0 0 600 400">
<defs>
  <clipPath id="clip570">
    <rect x="0" y="0" width="600" height="400"/>
  </clipPath>
</defs>
<path clip-path="url(#clip570)" d="
M0 400 L600 400 L600 0 L0 0  Z
  " fill="#ffffff" fill-rule="evenodd" fill-opacity="1"/>
<defs>
  <clipPath id="clip571">
    <rect x="120" y="0" width="421" height="400"/>
  </clipPath>
</defs>
<path clip-path="url(#clip570)" d="
M40.1507 371.612 L588.189 371.612 L588.189 11.811 L40.1507 11.811  Z
  " fill="#ffffff" fill-rule="evenodd" fill-opacity="1"/>
<defs>
  <clipPath id="clip572">
    <rect x="40" y="11" width="549" height="361"/>
  </clipPath>
</defs>
<polyline clip-path="url(#clip572)" style="stroke:#000000; stroke-width:0.5; stroke-opacity:0.1; fill:none" points="
  55.6612,371.612 55.6612,11.811 
  "/>
<polyline clip-path="url(#clip572)" style="stroke:#000000; stroke-width:0.5; stroke-opacity:0.1; fill:none" points="
  198.287,371.612 198.287,11.811 
  "/>
<polyline clip-path="url(#clip572)" style="stroke:#000000; stroke-width:0.5; stroke-opacity:0.1; fill:none" points="
  340.912,371.612 340.912,11.811 
  "/>
<polyline clip-path="url(#clip572)" style="stroke:#000000; stroke-width:0.5; stroke-opacity:0.1; fill:none" points="
  483.538,371.612 483.538,11.811 
  "/>
<polyline clip-path="url(#clip570)" style="stroke:#000000; stroke-width:1; stroke-opacity:1; fill:none" points="
  40.1507,371.612 588.189,371.612 
  "/>
<polyline clip-path="url(#clip570)" style="stroke:#000000; stroke-width:1; stroke-opacity:1; fill:none" points="
  55.6612,371.612 55.6612,367.294 
  "/>
<polyline clip-path="url(#clip570)" style="stroke:#000000; stroke-width:1; stroke-opacity:1; fill:none" points="
  198.287,371.612 198.287,367.294 
  "/>
<polyline clip-path="url(#clip570)" style="stroke:#000000; stroke-width:1; stroke-opacity:1; fill:none" points="
  340.912,371.612 340.912,367.294 
  "/>
<polyline clip-path="url(#clip570)" style="stroke:#000000; stroke-width:1; stroke-opacity:1; fill:none" points="
  483.538,371.612 483.538,367.294 
  "/>
<path clip-path="url(#clip570)" d="M 0 0 M27.4756 385.796 L31.5555 385.796 L31.5555 386.78 L26.0694 386.78 L26.0694 385.796 Q26.7349 385.108 27.8807 383.95 Q29.0323 382.787 29.3275 382.451 Q29.8888 381.821 30.1087 381.386 Q30.3344 380.947 30.3344 380.524 Q30.3344 379.836 29.8483 379.402 Q29.368 378.968 28.5925 378.968 Q28.0427 378.968 27.4293 379.158 Q26.8217 379.349 26.1272 379.737 L26.1272 378.557 Q26.8333 378.273 27.4467 378.128 Q28.0601 377.984 28.5694 377.984 Q29.9119 377.984 30.7106 378.655 Q31.5092 379.326 31.5092 380.449 Q31.5092 380.981 31.3066 381.462 Q31.1099 381.936 30.5832 382.584 Q30.4386 382.752 29.6631 383.557 Q28.8876 384.355 27.4756 385.796 Z" fill="#000000" fill-rule="evenodd" fill-opacity="1" /><path clip-path="url(#clip570)" d="M 0 0 M35.3228 378.91 Q34.42 378.91 33.9628 379.801 Q33.5115 380.686 33.5115 382.469 Q33.5115 384.245 33.9628 385.136 Q34.42 386.022 35.3228 386.022 Q36.2314 386.022 36.6827 385.136 Q37.1399 384.245 37.1399 382.469 Q37.1399 380.686 36.6827 379.801 Q36.2314 378.91 35.3228 378.91 M35.3228 377.984 Q36.7753 377.984 37.5392 379.135 Q38.3089 380.281 38.3089 382.469 Q38.3089 384.65 37.5392 385.802 Q36.7753 386.948 35.3228 386.948 Q33.8703 386.948 33.1006 385.802 Q32.3367 384.65 32.3367 382.469 Q32.3367 380.281 33.1006 379.135 Q33.8703 377.984 35.3228 377.984 Z" fill="#000000" fill-rule="evenodd" fill-opacity="1" /><path clip-path="url(#clip570)" d="M 0 0 M40.5832 385.796 L44.663 385.796 L44.663 386.78 L39.1769 386.78 L39.1769 385.796 Q39.8424 385.108 40.9883 383.95 Q42.1399 382.787 42.435 382.451 Q42.9964 381.821 43.2163 381.386 Q43.442 380.947 43.442 380.524 Q43.442 379.836 42.9559 379.402 Q42.4755 378.968 41.7001 378.968 Q41.1503 378.968 40.5369 379.158 Q39.9293 379.349 39.2348 379.737 L39.2348 378.557 Q39.9408 378.273 40.5542 378.128 Q41.1677 377.984 41.6769 377.984 Q43.0195 377.984 43.8181 378.655 Q44.6167 379.326 44.6167 380.449 Q44.6167 380.981 44.4142 381.462 Q44.2174 381.936 43.6908 382.584 Q43.5461 382.752 42.7707 383.557 Q41.9952 384.355 40.5832 385.796 Z" fill="#000000" fill-rule="evenodd" fill-opacity="1" /><path clip-path="url(#clip570)" d="M 0 0 M49.472 382.121 Q50.3111 382.301 50.7799 382.868 Q51.2544 383.435 51.2544 384.268 Q51.2544 385.547 50.3748 386.248 Q49.4952 386.948 47.8748 386.948 Q47.3308 386.948 46.7521 386.838 Q46.1792 386.734 45.5658 386.52 L45.5658 385.391 Q46.0519 385.675 46.6306 385.819 Q47.2093 385.964 47.8401 385.964 Q48.9396 385.964 49.5125 385.53 Q50.0912 385.096 50.0912 384.268 Q50.0912 383.505 49.553 383.076 Q49.0206 382.642 48.0658 382.642 L47.0588 382.642 L47.0588 381.682 L48.1121 381.682 Q48.9743 381.682 49.4315 381.34 Q49.8887 380.993 49.8887 380.345 Q49.8887 379.679 49.4142 379.326 Q48.9454 378.968 48.0658 378.968 Q47.5855 378.968 47.0357 379.072 Q46.4859 379.176 45.8262 379.396 L45.8262 378.354 Q46.4917 378.169 47.0704 378.076 Q47.6549 377.984 48.1699 377.984 Q49.501 377.984 50.2764 378.591 Q51.0519 379.193 51.0519 380.223 Q51.0519 380.941 50.641 381.439 Q50.2301 381.93 49.472 382.121 Z" fill="#000000" fill-rule="evenodd" fill-opacity="1" /><path clip-path="url(#clip570)" d="M 0 0 M51.8331 383.059 L54.9523 383.059 L54.9523 384.008 L51.8331 384.008 L51.8331 383.059 Z" fill="#000000" fill-rule="evenodd" fill-opacity="1" /><path clip-path="url(#clip570)" d="M 0 0 M58.7197 378.91 Q57.8169 378.91 57.3597 379.801 Q56.9083 380.686 56.9083 382.469 Q56.9083 384.245 57.3597 385.136 Q57.8169 386.022 58.7197 386.022 Q59.6282 386.022 60.0796 385.136 Q60.5368 384.245 60.5368 382.469 Q60.5368 380.686 60.0796 379.801 Q59.6282 378.91 58.7197 378.91 M58.7197 377.984 Q60.1722 377.984 60.9361 379.135 Q61.7058 380.281 61.7058 382.469 Q61.7058 384.65 60.9361 385.802 Q60.1722 386.948 58.7197 386.948 Q57.2671 386.948 56.4974 385.802 Q55.7336 384.65 55.7336 382.469 Q55.7336 380.281 56.4974 379.135 Q57.2671 377.984 58.7197 377.984 Z" fill="#000000" fill-rule="evenodd" fill-opacity="1" /><path clip-path="url(#clip570)" d="M 0 0 M66.1849 379.158 L63.2335 383.771 L66.1849 383.771 L66.1849 379.158 M65.8782 378.14 L67.3481 378.14 L67.3481 383.771 L68.5807 383.771 L68.5807 384.743 L67.3481 384.743 L67.3481 386.78 L66.1849 386.78 L66.1849 384.743 L62.2845 384.743 L62.2845 383.614 L65.8782 378.14 Z" fill="#000000" fill-rule="evenodd" fill-opacity="1" /><path clip-path="url(#clip570)" d="M 0 0 M69.1594 383.059 L72.2786 383.059 L72.2786 384.008 L69.1594 384.008 L69.1594 383.059 Z" fill="#000000" fill-rule="evenodd" fill-opacity="1" /><path clip-path="url(#clip570)" d="M 0 0 M73.7485 385.796 L75.6582 385.796 L75.6582 379.205 L73.5807 379.621 L73.5807 378.557 L75.6467 378.14 L76.8156 378.14 L76.8156 385.796 L78.7253 385.796 L78.7253 386.78 L73.7485 386.78 L73.7485 385.796 Z" fill="#000000" fill-rule="evenodd" fill-opacity="1" /><path clip-path="url(#clip570)" d="M 0 0 M79.6976 378.14 L85.2531 378.14 L85.2531 378.638 L82.1165 386.78 L80.8955 386.78 L83.8468 379.124 L79.6976 379.124 L79.6976 378.14 Z" fill="#000000" fill-rule="evenodd" fill-opacity="1" /><path clip-path="url(#clip570)" d="M 0 0 M170.159 385.796 L174.239 385.796 L174.239 386.78 L168.753 386.78 L168.753 385.796 Q169.418 385.108 170.564 383.95 Q171.716 382.787 172.011 382.451 Q172.572 381.821 172.792 381.386 Q173.018 380.947 173.018 380.524 Q173.018 379.836 172.532 379.402 Q172.051 378.968 171.276 378.968 Q170.726 378.968 170.113 379.158 Q169.505 379.349 168.811 379.737 L168.811 378.557 Q169.517 378.273 170.13 378.128 Q170.743 377.984 171.253 377.984 Q172.595 377.984 173.394 378.655 Q174.192 379.326 174.192 380.449 Q174.192 380.981 173.99 381.462 Q173.793 381.936 173.267 382.584 Q173.122 382.752 172.346 383.557 Q171.571 384.355 170.159 385.796 Z" fill="#000000" fill-rule="evenodd" fill-opacity="1" /><path clip-path="url(#clip570)" d="M 0 0 M178.006 378.91 Q177.103 378.91 176.646 379.801 Q176.195 380.686 176.195 382.469 Q176.195 384.245 176.646 385.136 Q177.103 386.022 178.006 386.022 Q178.915 386.022 179.366 385.136 Q179.823 384.245 179.823 382.469 Q179.823 380.686 179.366 379.801 Q178.915 378.91 178.006 378.91 M178.006 377.984 Q179.459 377.984 180.223 379.135 Q180.992 380.281 180.992 382.469 Q180.992 384.65 180.223 385.802 Q179.459 386.948 178.006 386.948 Q176.554 386.948 175.784 385.802 Q175.02 384.65 175.02 382.469 Q175.02 380.281 175.784 379.135 Q176.554 377.984 178.006 377.984 Z" fill="#000000" fill-rule="evenodd" fill-opacity="1" /><path clip-path="url(#clip570)" d="M 0 0 M183.266 385.796 L187.346 385.796 L187.346 386.78 L181.86 386.78 L181.86 385.796 Q182.526 385.108 183.672 383.95 Q184.823 382.787 185.118 382.451 Q185.68 381.821 185.9 381.386 Q186.125 380.947 186.125 380.524 Q186.125 379.836 185.639 379.402 Q185.159 378.968 184.383 378.968 Q183.834 378.968 183.22 379.158 Q182.613 379.349 181.918 379.737 L181.918 378.557 Q182.624 378.273 183.238 378.128 Q183.851 377.984 184.36 377.984 Q185.703 377.984 186.501 378.655 Q187.3 379.326 187.3 380.449 Q187.3 380.981 187.097 381.462 Q186.901 381.936 186.374 382.584 Q186.229 382.752 185.454 383.557 Q184.679 384.355 183.266 385.796 Z" fill="#000000" fill-rule="evenodd" fill-opacity="1" /><path clip-path="url(#clip570)" d="M 0 0 M192.155 382.121 Q192.994 382.301 193.463 382.868 Q193.938 383.435 193.938 384.268 Q193.938 385.547 193.058 386.248 Q192.178 386.948 190.558 386.948 Q190.014 386.948 189.435 386.838 Q188.863 386.734 188.249 386.52 L188.249 385.391 Q188.735 385.675 189.314 385.819 Q189.893 385.964 190.523 385.964 Q191.623 385.964 192.196 385.53 Q192.775 385.096 192.775 384.268 Q192.775 383.505 192.236 383.076 Q191.704 382.642 190.749 382.642 L189.742 382.642 L189.742 381.682 L190.795 381.682 Q191.658 381.682 192.115 381.34 Q192.572 380.993 192.572 380.345 Q192.572 379.679 192.097 379.326 Q191.629 378.968 190.749 378.968 Q190.269 378.968 189.719 379.072 Q189.169 379.176 188.51 379.396 L188.51 378.354 Q189.175 378.169 189.754 378.076 Q190.338 377.984 190.853 377.984 Q192.184 377.984 192.96 378.591 Q193.735 379.193 193.735 380.223 Q193.735 380.941 193.324 381.439 Q192.913 381.93 192.155 382.121 Z" fill="#000000" fill-rule="evenodd" fill-opacity="1" /><path clip-path="url(#clip570)" d="M 0 0 M194.516 383.059 L197.636 383.059 L197.636 384.008 L194.516 384.008 L194.516 383.059 Z" fill="#000000" fill-rule="evenodd" fill-opacity="1" /><path clip-path="url(#clip570)" d="M 0 0 M201.403 378.91 Q200.5 378.91 200.043 379.801 Q199.592 380.686 199.592 382.469 Q199.592 384.245 200.043 385.136 Q200.5 386.022 201.403 386.022 Q202.312 386.022 202.763 385.136 Q203.22 384.245 203.22 382.469 Q203.22 380.686 202.763 379.801 Q202.312 378.91 201.403 378.91 M201.403 377.984 Q202.856 377.984 203.619 379.135 Q204.389 380.281 204.389 382.469 Q204.389 384.65 203.619 385.802 Q202.856 386.948 201.403 386.948 Q199.95 386.948 199.181 385.802 Q198.417 384.65 198.417 382.469 Q198.417 380.281 199.181 379.135 Q199.95 377.984 201.403 377.984 Z" fill="#000000" fill-rule="evenodd" fill-opacity="1" /><path clip-path="url(#clip570)" d="M 0 0 M208.868 379.158 L205.917 383.771 L208.868 383.771 L208.868 379.158 M208.562 378.14 L210.031 378.14 L210.031 383.771 L211.264 383.771 L211.264 384.743 L210.031 384.743 L210.031 386.78 L208.868 386.78 L208.868 384.743 L204.968 384.743 L204.968 383.614 L208.562 378.14 Z" fill="#000000" fill-rule="evenodd" fill-opacity="1" /><path clip-path="url(#clip570)" d="M 0 0 M211.843 383.059 L214.962 383.059 L214.962 384.008 L211.843 384.008 L211.843 383.059 Z" fill="#000000" fill-rule="evenodd" fill-opacity="1" /><path clip-path="url(#clip570)" d="M 0 0 M217.236 385.796 L221.316 385.796 L221.316 386.78 L215.83 386.78 L215.83 385.796 Q216.495 385.108 217.641 383.95 Q218.793 382.787 219.088 382.451 Q219.649 381.821 219.869 381.386 Q220.095 380.947 220.095 380.524 Q220.095 379.836 219.609 379.402 Q219.129 378.968 218.353 378.968 Q217.803 378.968 217.19 379.158 Q216.582 379.349 215.888 379.737 L215.888 378.557 Q216.594 378.273 217.207 378.128 Q217.821 377.984 218.33 377.984 Q219.673 377.984 220.471 378.655 Q221.27 379.326 221.27 380.449 Q221.27 380.981 221.067 381.462 Q220.87 381.936 220.344 382.584 Q220.199 382.752 219.424 383.557 Q218.648 384.355 217.236 385.796 Z" fill="#000000" fill-rule="evenodd" fill-opacity="1" /><path clip-path="url(#clip570)" d="M 0 0 M222.595 378.14 L227.184 378.14 L227.184 379.124 L223.666 379.124 L223.666 381.242 Q223.92 381.155 224.175 381.114 Q224.429 381.068 224.684 381.068 Q226.131 381.068 226.976 381.861 Q227.821 382.654 227.821 384.008 Q227.821 385.403 226.953 386.178 Q226.085 386.948 224.505 386.948 Q223.961 386.948 223.394 386.855 Q222.832 386.763 222.23 386.577 L222.23 385.403 Q222.751 385.686 223.307 385.825 Q223.862 385.964 224.482 385.964 Q225.483 385.964 226.067 385.437 Q226.652 384.911 226.652 384.008 Q226.652 383.105 226.067 382.579 Q225.483 382.052 224.482 382.052 Q224.013 382.052 223.544 382.156 Q223.081 382.26 222.595 382.48 L222.595 378.14 Z" fill="#000000" fill-rule="evenodd" fill-opacity="1" /><path clip-path="url(#clip570)" d="M 0 0 M312.727 385.796 L316.806 385.796 L316.806 386.78 L311.32 386.78 L311.32 385.796 Q311.986 385.108 313.132 383.95 Q314.283 382.787 314.578 382.451 Q315.14 381.821 315.36 381.386 Q315.585 380.947 315.585 380.524 Q315.585 379.836 315.099 379.402 Q314.619 378.968 313.843 378.968 Q313.294 378.968 312.68 379.158 Q312.073 379.349 311.378 379.737 L311.378 378.557 Q312.084 378.273 312.698 378.128 Q313.311 377.984 313.82 377.984 Q315.163 377.984 315.961 378.655 Q316.76 379.326 316.76 380.449 Q316.76 380.981 316.557 381.462 Q316.361 381.936 315.834 382.584 Q315.689 382.752 314.914 383.557 Q314.139 384.355 312.727 385.796 Z" fill="#000000" fill-rule="evenodd" fill-opacity="1" /><path clip-path="url(#clip570)" d="M 0 0 M320.574 378.91 Q319.671 378.91 319.214 379.801 Q318.762 380.686 318.762 382.469 Q318.762 384.245 319.214 385.136 Q319.671 386.022 320.574 386.022 Q321.482 386.022 321.934 385.136 Q322.391 384.245 322.391 382.469 Q322.391 380.686 321.934 379.801 Q321.482 378.91 320.574 378.91 M320.574 377.984 Q322.026 377.984 322.79 379.135 Q323.56 380.281 323.56 382.469 Q323.56 384.65 322.79 385.802 Q322.026 386.948 320.574 386.948 Q319.121 386.948 318.351 385.802 Q317.588 384.65 317.588 382.469 Q317.588 380.281 318.351 379.135 Q319.121 377.984 320.574 377.984 Z" fill="#000000" fill-rule="evenodd" fill-opacity="1" /><path clip-path="url(#clip570)" d="M 0 0 M325.834 385.796 L329.914 385.796 L329.914 386.78 L324.428 386.78 L324.428 385.796 Q325.093 385.108 326.239 383.95 Q327.391 382.787 327.686 382.451 Q328.247 381.821 328.467 381.386 Q328.693 380.947 328.693 380.524 Q328.693 379.836 328.207 379.402 Q327.726 378.968 326.951 378.968 Q326.401 378.968 325.788 379.158 Q325.18 379.349 324.486 379.737 L324.486 378.557 Q325.192 378.273 325.805 378.128 Q326.419 377.984 326.928 377.984 Q328.27 377.984 329.069 378.655 Q329.868 379.326 329.868 380.449 Q329.868 380.981 329.665 381.462 Q329.468 381.936 328.942 382.584 Q328.797 382.752 328.022 383.557 Q327.246 384.355 325.834 385.796 Z" fill="#000000" fill-rule="evenodd" fill-opacity="1" /><path clip-path="url(#clip570)" d="M 0 0 M334.723 382.121 Q335.562 382.301 336.031 382.868 Q336.505 383.435 336.505 384.268 Q336.505 385.547 335.626 386.248 Q334.746 386.948 333.126 386.948 Q332.582 386.948 332.003 386.838 Q331.43 386.734 330.817 386.52 L330.817 385.391 Q331.303 385.675 331.881 385.819 Q332.46 385.964 333.091 385.964 Q334.191 385.964 334.763 385.53 Q335.342 385.096 335.342 384.268 Q335.342 383.505 334.804 383.076 Q334.272 382.642 333.317 382.642 L332.31 382.642 L332.31 381.682 L333.363 381.682 Q334.225 381.682 334.682 381.34 Q335.14 380.993 335.14 380.345 Q335.14 379.679 334.665 379.326 Q334.196 378.968 333.317 378.968 Q332.836 378.968 332.287 379.072 Q331.737 379.176 331.077 379.396 L331.077 378.354 Q331.743 378.169 332.321 378.076 Q332.906 377.984 333.421 377.984 Q334.752 377.984 335.527 378.591 Q336.303 379.193 336.303 380.223 Q336.303 380.941 335.892 381.439 Q335.481 381.93 334.723 382.121 Z" fill="#000000" fill-rule="evenodd" fill-opacity="1" /><path clip-path="url(#clip570)" d="M 0 0 M337.084 383.059 L340.203 383.059 L340.203 384.008 L337.084 384.008 L337.084 383.059 Z" fill="#000000" fill-rule="evenodd" fill-opacity="1" /><path clip-path="url(#clip570)" d="M 0 0 M343.971 378.91 Q343.068 378.91 342.611 379.801 Q342.159 380.686 342.159 382.469 Q342.159 384.245 342.611 385.136 Q343.068 386.022 343.971 386.022 Q344.879 386.022 345.33 385.136 Q345.788 384.245 345.788 382.469 Q345.788 380.686 345.33 379.801 Q344.879 378.91 343.971 378.91 M343.971 377.984 Q345.423 377.984 346.187 379.135 Q346.957 380.281 346.957 382.469 Q346.957 384.65 346.187 385.802 Q345.423 386.948 343.971 386.948 Q342.518 386.948 341.748 385.802 Q340.984 384.65 340.984 382.469 Q340.984 380.281 341.748 379.135 Q342.518 377.984 343.971 377.984 Z" fill="#000000" fill-rule="evenodd" fill-opacity="1" /><path clip-path="url(#clip570)" d="M 0 0 M348.236 378.14 L352.825 378.14 L352.825 379.124 L349.306 379.124 L349.306 381.242 Q349.561 381.155 349.815 381.114 Q350.07 381.068 350.325 381.068 Q351.771 381.068 352.616 381.861 Q353.461 382.654 353.461 384.008 Q353.461 385.403 352.593 386.178 Q351.725 386.948 350.145 386.948 Q349.601 386.948 349.034 386.855 Q348.473 386.763 347.871 386.577 L347.871 385.403 Q348.392 385.686 348.947 385.825 Q349.503 385.964 350.122 385.964 Q351.123 385.964 351.708 385.437 Q352.292 384.911 352.292 384.008 Q352.292 383.105 351.708 382.579 Q351.123 382.052 350.122 382.052 Q349.653 382.052 349.185 382.156 Q348.722 382.26 348.236 382.48 L348.236 378.14 Z" fill="#000000" fill-rule="evenodd" fill-opacity="1" /><path clip-path="url(#clip570)" d="M 0 0 M354.04 383.059 L357.159 383.059 L357.159 384.008 L354.04 384.008 L354.04 383.059 Z" fill="#000000" fill-rule="evenodd" fill-opacity="1" /><path clip-path="url(#clip570)" d="M 0 0 M360.926 378.91 Q360.024 378.91 359.567 379.801 Q359.115 380.686 359.115 382.469 Q359.115 384.245 359.567 385.136 Q360.024 386.022 360.926 386.022 Q361.835 386.022 362.286 385.136 Q362.744 384.245 362.744 382.469 Q362.744 380.686 362.286 379.801 Q361.835 378.91 360.926 378.91 M360.926 377.984 Q362.379 377.984 363.143 379.135 Q363.913 380.281 363.913 382.469 Q363.913 384.65 363.143 385.802 Q362.379 386.948 360.926 386.948 Q359.474 386.948 358.704 385.802 Q357.94 384.65 357.94 382.469 Q357.94 380.281 358.704 379.135 Q359.474 377.984 360.926 377.984 Z" fill="#000000" fill-rule="evenodd" fill-opacity="1" /><path clip-path="url(#clip570)" d="M 0 0 M368.722 382.121 Q369.561 382.301 370.029 382.868 Q370.504 383.435 370.504 384.268 Q370.504 385.547 369.624 386.248 Q368.745 386.948 367.124 386.948 Q366.58 386.948 366.002 386.838 Q365.429 386.734 364.815 386.52 L364.815 385.391 Q365.301 385.675 365.88 385.819 Q366.459 385.964 367.09 385.964 Q368.189 385.964 368.762 385.53 Q369.341 385.096 369.341 384.268 Q369.341 383.505 368.803 383.076 Q368.27 382.642 367.315 382.642 L366.308 382.642 L366.308 381.682 L367.362 381.682 Q368.224 381.682 368.681 381.34 Q369.138 380.993 369.138 380.345 Q369.138 379.679 368.664 379.326 Q368.195 378.968 367.315 378.968 Q366.835 378.968 366.285 379.072 Q365.735 379.176 365.076 379.396 L365.076 378.354 Q365.741 378.169 366.32 378.076 Q366.904 377.984 367.419 377.984 Q368.751 377.984 369.526 378.591 Q370.301 379.193 370.301 380.223 Q370.301 380.941 369.891 381.439 Q369.48 381.93 368.722 382.121 Z" fill="#000000" fill-rule="evenodd" fill-opacity="1" /><path clip-path="url(#clip570)" d="M 0 0 M455.578 385.796 L459.657 385.796 L459.657 386.78 L454.171 386.78 L454.171 385.796 Q454.837 385.108 455.983 383.95 Q457.134 382.787 457.429 382.451 Q457.991 381.821 458.211 381.386 Q458.436 380.947 458.436 380.524 Q458.436 379.836 457.95 379.402 Q457.47 378.968 456.695 378.968 Q456.145 378.968 455.531 379.158 Q454.924 379.349 454.229 379.737 L454.229 378.557 Q454.935 378.273 455.549 378.128 Q456.162 377.984 456.671 377.984 Q458.014 377.984 458.813 378.655 Q459.611 379.326 459.611 380.449 Q459.611 380.981 459.409 381.462 Q459.212 381.936 458.685 382.584 Q458.541 382.752 457.765 383.557 Q456.99 384.355 455.578 385.796 Z" fill="#000000" fill-rule="evenodd" fill-opacity="1" /><path clip-path="url(#clip570)" d="M 0 0 M463.425 378.91 Q462.522 378.91 462.065 379.801 Q461.613 380.686 461.613 382.469 Q461.613 384.245 462.065 385.136 Q462.522 386.022 463.425 386.022 Q464.333 386.022 464.785 385.136 Q465.242 384.245 465.242 382.469 Q465.242 380.686 464.785 379.801 Q464.333 378.91 463.425 378.91 M463.425 377.984 Q464.877 377.984 465.641 379.135 Q466.411 380.281 466.411 382.469 Q466.411 384.65 465.641 385.802 Q464.877 386.948 463.425 386.948 Q461.972 386.948 461.203 385.802 Q460.439 384.65 460.439 382.469 Q460.439 380.281 461.203 379.135 Q461.972 377.984 463.425 377.984 Z" fill="#000000" fill-rule="evenodd" fill-opacity="1" /><path clip-path="url(#clip570)" d="M 0 0 M468.685 385.796 L472.765 385.796 L472.765 386.78 L467.279 386.78 L467.279 385.796 Q467.944 385.108 469.09 383.95 Q470.242 382.787 470.537 382.451 Q471.098 381.821 471.318 381.386 Q471.544 380.947 471.544 380.524 Q471.544 379.836 471.058 379.402 Q470.578 378.968 469.802 378.968 Q469.252 378.968 468.639 379.158 Q468.031 379.349 467.337 379.737 L467.337 378.557 Q468.043 378.273 468.656 378.128 Q469.27 377.984 469.779 377.984 Q471.122 377.984 471.92 378.655 Q472.719 379.326 472.719 380.449 Q472.719 380.981 472.516 381.462 Q472.319 381.936 471.793 382.584 Q471.648 382.752 470.873 383.557 Q470.097 384.355 468.685 385.796 Z" fill="#000000" fill-rule="evenodd" fill-opacity="1" /><path clip-path="url(#clip570)" d="M 0 0 M477.574 382.121 Q478.413 382.301 478.882 382.868 Q479.356 383.435 479.356 384.268 Q479.356 385.547 478.477 386.248 Q477.597 386.948 475.977 386.948 Q475.433 386.948 474.854 386.838 Q474.281 386.734 473.668 386.52 L473.668 385.391 Q474.154 385.675 474.733 385.819 Q475.311 385.964 475.942 385.964 Q477.042 385.964 477.615 385.53 Q478.193 385.096 478.193 384.268 Q478.193 383.505 477.655 383.076 Q477.123 382.642 476.168 382.642 L475.161 382.642 L475.161 381.682 L476.214 381.682 Q477.076 381.682 477.534 381.34 Q477.991 380.993 477.991 380.345 Q477.991 379.679 477.516 379.326 Q477.047 378.968 476.168 378.968 Q475.687 378.968 475.138 379.072 Q474.588 379.176 473.928 379.396 L473.928 378.354 Q474.594 378.169 475.172 378.076 Q475.757 377.984 476.272 377.984 Q477.603 377.984 478.378 378.591 Q479.154 379.193 479.154 380.223 Q479.154 380.941 478.743 381.439 Q478.332 381.93 477.574 382.121 Z" fill="#000000" fill-rule="evenodd" fill-opacity="1" /><path clip-path="url(#clip570)" d="M 0 0 M479.935 383.059 L483.054 383.059 L483.054 384.008 L479.935 384.008 L479.935 383.059 Z" fill="#000000" fill-rule="evenodd" fill-opacity="1" /><path clip-path="url(#clip570)" d="M 0 0 M486.822 378.91 Q485.919 378.91 485.462 379.801 Q485.01 380.686 485.01 382.469 Q485.01 384.245 485.462 385.136 Q485.919 386.022 486.822 386.022 Q487.73 386.022 488.182 385.136 Q488.639 384.245 488.639 382.469 Q488.639 380.686 488.182 379.801 Q487.73 378.91 486.822 378.91 M486.822 377.984 Q488.274 377.984 489.038 379.135 Q489.808 380.281 489.808 382.469 Q489.808 384.65 489.038 385.802 Q488.274 386.948 486.822 386.948 Q485.369 386.948 484.599 385.802 Q483.836 384.65 483.836 382.469 Q483.836 380.281 484.599 379.135 Q485.369 377.984 486.822 377.984 Z" fill="#000000" fill-rule="evenodd" fill-opacity="1" /><path clip-path="url(#clip570)" d="M 0 0 M491.087 378.14 L495.676 378.14 L495.676 379.124 L492.157 379.124 L492.157 381.242 Q492.412 381.155 492.667 381.114 Q492.921 381.068 493.176 381.068 Q494.623 381.068 495.467 381.861 Q496.312 382.654 496.312 384.008 Q496.312 385.403 495.444 386.178 Q494.576 386.948 492.996 386.948 Q492.452 386.948 491.885 386.855 Q491.324 386.763 490.722 386.577 L490.722 385.403 Q491.243 385.686 491.799 385.825 Q492.354 385.964 492.973 385.964 Q493.974 385.964 494.559 385.437 Q495.143 384.911 495.143 384.008 Q495.143 383.105 494.559 382.579 Q493.974 382.052 492.973 382.052 Q492.505 382.052 492.036 382.156 Q491.573 382.26 491.087 382.48 L491.087 378.14 Z" fill="#000000" fill-rule="evenodd" fill-opacity="1" /><path clip-path="url(#clip570)" d="M 0 0 M496.891 383.059 L500.01 383.059 L500.01 384.008 L496.891 384.008 L496.891 383.059 Z" fill="#000000" fill-rule="evenodd" fill-opacity="1" /><path clip-path="url(#clip570)" d="M 0 0 M501.48 385.796 L503.39 385.796 L503.39 379.205 L501.312 379.621 L501.312 378.557 L503.378 378.14 L504.547 378.14 L504.547 385.796 L506.457 385.796 L506.457 386.78 L501.48 386.78 L501.48 385.796 Z" fill="#000000" fill-rule="evenodd" fill-opacity="1" /><path clip-path="url(#clip570)" d="M 0 0 M507.927 385.796 L509.837 385.796 L509.837 379.205 L507.759 379.621 L507.759 378.557 L509.825 378.14 L510.994 378.14 L510.994 385.796 L512.904 385.796 L512.904 386.78 L507.927 386.78 L507.927 385.796 Z" fill="#000000" fill-rule="evenodd" fill-opacity="1" /><polyline clip-path="url(#clip572)" style="stroke:#000000; stroke-width:0.5; stroke-opacity:0.1; fill:none" points="
  40.1507,328.678 588.189,328.678 
  "/>
<polyline clip-path="url(#clip572)" style="stroke:#000000; stroke-width:0.5; stroke-opacity:0.1; fill:none" points="
  40.1507,234.022 588.189,234.022 
  "/>
<polyline clip-path="url(#clip572)" style="stroke:#000000; stroke-width:0.5; stroke-opacity:0.1; fill:none" points="
  40.1507,139.367 588.189,139.367 
  "/>
<polyline clip-path="url(#clip572)" style="stroke:#000000; stroke-width:0.5; stroke-opacity:0.1; fill:none" points="
  40.1507,44.7113 588.189,44.7113 
  "/>
<polyline clip-path="url(#clip570)" style="stroke:#000000; stroke-width:1; stroke-opacity:1; fill:none" points="
  40.1507,371.612 40.1507,11.811 
  "/>
<polyline clip-path="url(#clip570)" style="stroke:#000000; stroke-width:1; stroke-opacity:1; fill:none" points="
  40.1507,328.678 46.7272,328.678 
  "/>
<polyline clip-path="url(#clip570)" style="stroke:#000000; stroke-width:1; stroke-opacity:1; fill:none" points="
  40.1507,234.022 46.7272,234.022 
  "/>
<polyline clip-path="url(#clip570)" style="stroke:#000000; stroke-width:1; stroke-opacity:1; fill:none" points="
  40.1507,139.367 46.7272,139.367 
  "/>
<polyline clip-path="url(#clip570)" style="stroke:#000000; stroke-width:1; stroke-opacity:1; fill:none" points="
  40.1507,44.7113 46.7272,44.7113 
  "/>
<path clip-path="url(#clip570)" d="M 0 0 M12.9159 332.014 L14.8256 332.014 L14.8256 325.423 L12.748 325.84 L12.748 324.775 L14.814 324.358 L15.983 324.358 L15.983 332.014 L17.8927 332.014 L17.8927 332.998 L12.9159 332.998 L12.9159 332.014 Z" fill="#000000" fill-rule="evenodd" fill-opacity="1" /><path clip-path="url(#clip570)" d="M 0 0 M21.66 325.128 Q20.7572 325.128 20.3001 326.019 Q19.8487 326.904 19.8487 328.687 Q19.8487 330.463 20.3001 331.355 Q20.7572 332.24 21.66 332.24 Q22.5686 332.24 23.02 331.355 Q23.4771 330.463 23.4771 328.687 Q23.4771 326.904 23.02 326.019 Q22.5686 325.128 21.66 325.128 M21.66 324.202 Q23.1126 324.202 23.8764 325.353 Q24.6461 326.499 24.6461 328.687 Q24.6461 330.868 23.8764 332.02 Q23.1126 333.166 21.66 333.166 Q20.2075 333.166 19.4378 332.02 Q18.6739 330.868 18.6739 328.687 Q18.6739 326.499 19.4378 325.353 Q20.2075 324.202 21.66 324.202 Z" fill="#000000" fill-rule="evenodd" fill-opacity="1" /><path clip-path="url(#clip570)" d="M 0 0 M25.925 324.358 L30.5141 324.358 L30.5141 325.342 L26.9956 325.342 L26.9956 327.46 Q27.2503 327.373 27.5049 327.333 Q27.7595 327.286 28.0142 327.286 Q29.4609 327.286 30.3058 328.079 Q31.1507 328.872 31.1507 330.226 Q31.1507 331.621 30.2827 332.396 Q29.4146 333.166 27.8348 333.166 Q27.2908 333.166 26.7237 333.073 Q26.1623 332.981 25.5605 332.795 L25.5605 331.621 Q26.0813 331.904 26.6368 332.043 Q27.1924 332.182 27.8116 332.182 Q28.8128 332.182 29.3972 331.655 Q29.9817 331.129 29.9817 330.226 Q29.9817 329.323 29.3972 328.797 Q28.8128 328.27 27.8116 328.27 Q27.3429 328.27 26.8741 328.374 Q26.4112 328.478 25.925 328.698 L25.925 324.358 Z" fill="#000000" fill-rule="evenodd" fill-opacity="1" /><path clip-path="url(#clip570)" d="M 0 0 M12.9737 237.359 L14.8834 237.359 L14.8834 230.767 L12.8059 231.184 L12.8059 230.119 L14.8719 229.702 L16.0408 229.702 L16.0408 237.359 L17.9505 237.359 L17.9505 238.342 L12.9737 238.342 L12.9737 237.359 Z" fill="#000000" fill-rule="evenodd" fill-opacity="1" /><path clip-path="url(#clip570)" d="M 0 0 M19.4204 237.359 L21.3302 237.359 L21.3302 230.767 L19.2526 231.184 L19.2526 230.119 L21.3186 229.702 L22.4876 229.702 L22.4876 237.359 L24.3973 237.359 L24.3973 238.342 L19.4204 238.342 L19.4204 237.359 Z" fill="#000000" fill-rule="evenodd" fill-opacity="1" /><path clip-path="url(#clip570)" d="M 0 0 M28.1646 230.472 Q27.2618 230.472 26.8047 231.363 Q26.3533 232.249 26.3533 234.031 Q26.3533 235.808 26.8047 236.699 Q27.2618 237.584 28.1646 237.584 Q29.0732 237.584 29.5246 236.699 Q29.9817 235.808 29.9817 234.031 Q29.9817 232.249 29.5246 231.363 Q29.0732 230.472 28.1646 230.472 M28.1646 229.546 Q29.6172 229.546 30.381 230.698 Q31.1507 231.844 31.1507 234.031 Q31.1507 236.213 30.381 237.364 Q29.6172 238.51 28.1646 238.51 Q26.7121 238.51 25.9424 237.364 Q25.1785 236.213 25.1785 234.031 Q25.1785 231.844 25.9424 230.698 Q26.7121 229.546 28.1646 229.546 Z" fill="#000000" fill-rule="evenodd" fill-opacity="1" /><path clip-path="url(#clip570)" d="M 0 0 M13.2226 142.703 L15.1323 142.703 L15.1323 136.112 L13.0547 136.528 L13.0547 135.464 L15.1207 135.047 L16.2897 135.047 L16.2897 142.703 L18.1994 142.703 L18.1994 143.687 L13.2226 143.687 L13.2226 142.703 Z" fill="#000000" fill-rule="evenodd" fill-opacity="1" /><path clip-path="url(#clip570)" d="M 0 0 M19.6693 142.703 L21.579 142.703 L21.579 136.112 L19.5015 136.528 L19.5015 135.464 L21.5674 135.047 L22.7364 135.047 L22.7364 142.703 L24.6461 142.703 L24.6461 143.687 L19.6693 143.687 L19.6693 142.703 Z" fill="#000000" fill-rule="evenodd" fill-opacity="1" /><path clip-path="url(#clip570)" d="M 0 0 M25.925 135.047 L30.5141 135.047 L30.5141 136.031 L26.9956 136.031 L26.9956 138.149 Q27.2503 138.062 27.5049 138.021 Q27.7595 137.975 28.0142 137.975 Q29.4609 137.975 30.3058 138.768 Q31.1507 139.561 31.1507 140.915 Q31.1507 142.31 30.2827 143.085 Q29.4146 143.855 27.8348 143.855 Q27.2908 143.855 26.7237 143.762 Q26.1623 143.67 25.5605 143.484 L25.5605 142.31 Q26.0813 142.593 26.6368 142.732 Q27.1924 142.871 27.8116 142.871 Q28.8128 142.871 29.3972 142.344 Q29.9817 141.818 29.9817 140.915 Q29.9817 140.012 29.3972 139.486 Q28.8128 138.959 27.8116 138.959 Q27.3429 138.959 26.8741 139.063 Q26.4112 139.167 25.925 139.387 L25.925 135.047 Z" fill="#000000" fill-rule="evenodd" fill-opacity="1" /><path clip-path="url(#clip570)" d="M 0 0 M13.0663 48.0476 L14.976 48.0476 L14.976 41.4562 L12.8985 41.8728 L12.8985 40.808 L14.9645 40.3913 L16.1334 40.3913 L16.1334 48.0476 L18.0431 48.0476 L18.0431 49.0313 L13.0663 49.0313 L13.0663 48.0476 Z" fill="#000000" fill-rule="evenodd" fill-opacity="1" /><path clip-path="url(#clip570)" d="M 0 0 M20.3174 48.0476 L24.3973 48.0476 L24.3973 49.0313 L18.9112 49.0313 L18.9112 48.0476 Q19.5767 47.3589 20.7225 46.2015 Q21.8741 45.0383 22.1693 44.7027 Q22.7306 44.0719 22.9505 43.6379 Q23.1762 43.198 23.1762 42.7756 Q23.1762 42.0869 22.6901 41.6529 Q22.2098 41.2189 21.4343 41.2189 Q20.8846 41.2189 20.2711 41.4099 Q19.6635 41.6008 18.9691 41.9886 L18.9691 40.808 Q19.6751 40.5244 20.2885 40.3798 Q20.9019 40.2351 21.4112 40.2351 Q22.7538 40.2351 23.5524 40.9064 Q24.351 41.5777 24.351 42.7004 Q24.351 43.2328 24.1484 43.7131 Q23.9517 44.1876 23.4251 44.8358 Q23.2804 45.0036 22.5049 45.808 Q21.7295 46.6066 20.3174 48.0476 Z" fill="#000000" fill-rule="evenodd" fill-opacity="1" /><path clip-path="url(#clip570)" d="M 0 0 M28.1646 41.161 Q27.2618 41.161 26.8047 42.0522 Q26.3533 42.9376 26.3533 44.72 Q26.3533 46.4966 26.8047 47.3878 Q27.2618 48.2733 28.1646 48.2733 Q29.0732 48.2733 29.5246 47.3878 Q29.9817 46.4966 29.9817 44.72 Q29.9817 42.9376 29.5246 42.0522 Q29.0732 41.161 28.1646 41.161 M28.1646 40.2351 Q29.6172 40.2351 30.381 41.3867 Q31.1507 42.5325 31.1507 44.72 Q31.1507 46.9017 30.381 48.0533 Q29.6172 49.1992 28.1646 49.1992 Q26.7121 49.1992 25.9424 48.0533 Q25.1785 46.9017 25.1785 44.72 Q25.1785 42.5325 25.9424 41.3867 Q26.7121 40.2351 28.1646 40.2351 Z" fill="#000000" fill-rule="evenodd" fill-opacity="1" /><polyline clip-path="url(#clip572)" style="stroke:#009af9; stroke-width:1; stroke-opacity:1; fill:none" points="
  55.6612,320.538 73.4894,290.816 91.3176,343.539 109.146,335.304 126.974,308.043 180.458,308.8 198.287,298.199 216.115,318.077 233.943,324.324 251.771,275.671 
  305.256,277.185 323.084,278.321 340.912,305.582 358.74,306.718 376.568,322.62 430.053,313.628 447.881,257.118 465.709,261.473 483.538,123.086 501.366,101.505 
  554.85,111.16 572.678,104.723 
  "/>
<polyline clip-path="url(#clip572)" style="stroke:#e26f46; stroke-width:1; stroke-opacity:1; fill:none" points="
  55.6612,296.306 73.4894,289.869 91.3176,314.953 109.146,292.936 126.974,297.631 180.458,284.758 198.287,282.486 216.115,290.437 233.943,250.114 251.771,266.395 
  305.256,259.012 323.084,276.996 340.912,269.424 358.74,304.068 376.568,301.417 430.053,263.934 447.881,222.758 465.709,167.574 483.538,74.2438 501.366,77.6514 
  554.85,67.5234 572.678,21.9941 
  "/>
<polyline clip-path="url(#clip572)" style="stroke:#3da44d; stroke-width:1; stroke-opacity:1; fill:none" points="
  55.6612,322.62 73.4894,332.843 91.3176,351.395 109.146,335.493 126.974,319.496 180.458,321.863 198.287,337.008 216.115,361.429 233.943,339.658 251.771,308.99 
  305.256,281.35 323.084,338.144 340.912,316.941 358.74,334.357 376.568,333.619 430.053,313.722 447.881,277.091 465.709,262.798 483.538,140.692 501.366,110.024 
  554.85,111.349 572.678,104.534 
  "/>
<polyline clip-path="url(#clip572)" style="stroke:#c271d2; stroke-width:1; stroke-opacity:1; fill:none" points="
  55.6612,301.796 73.4894,326.406 91.3176,328.299 109.146,311.64 126.974,311.451 180.458,294.981 198.287,336.061 216.115,339.09 233.943,264.88 251.771,267.72 
  305.256,277.375 323.084,310.125 340.912,307.475 358.74,324.703 376.568,305.677 430.053,267.341 447.881,273.021 465.709,190.86 483.538,103.398 501.366,84.0881 
  554.85,102.262 572.678,43.0076 
  "/>
<path clip-path="url(#clip570)" d="
M480.99 99.4044 L569.921 99.4044 L569.921 23.8044 L480.99 23.8044  Z
  " fill="#ffffff" fill-rule="evenodd" fill-opacity="1"/>
<polyline clip-path="url(#clip570)" style="stroke:#000000; stroke-width:1; stroke-opacity:1; fill:none" points="
  480.99,99.4044 569.921,99.4044 569.921,23.8044 480.99,23.8044 480.99,99.4044 
  "/>
<polyline clip-path="url(#clip570)" style="stroke:#009af9; stroke-width:1; stroke-opacity:1; fill:none" points="
  487.079,38.9244 523.615,38.9244 
  "/>
<path clip-path="url(#clip570)" d="M 0 0 M533.709 35.3972 Q532.436 35.3972 531.684 36.3463 Q530.937 37.2953 530.937 38.9331 Q530.937 40.565 531.684 41.5141 Q532.436 42.4631 533.709 42.4631 Q534.982 42.4631 535.723 41.5141 Q536.469 40.565 536.469 38.9331 Q536.469 37.2953 535.723 36.3463 Q534.982 35.3972 533.709 35.3972 M533.709 34.4481 Q535.526 34.4481 536.614 35.6692 Q537.702 36.8845 537.702 38.9331 Q537.702 40.9759 536.614 42.1969 Q535.526 43.4122 533.709 43.4122 Q531.886 43.4122 530.792 42.1969 Q529.704 40.9817 529.704 38.9331 Q529.704 36.8845 530.792 35.6692 Q531.886 34.4481 533.709 34.4481 Z" fill="#000000" fill-rule="evenodd" fill-opacity="1" /><path clip-path="url(#clip570)" d="M 0 0 M539.849 42.2722 L539.849 45.7097 L538.778 45.7097 L538.778 36.7629 L539.849 36.7629 L539.849 37.7467 Q540.185 37.168 540.694 36.8903 Q541.209 36.6067 541.921 36.6067 Q543.101 36.6067 543.836 37.5442 Q544.577 38.4817 544.577 40.0095 Q544.577 41.5372 543.836 42.4747 Q543.101 43.4122 541.921 43.4122 Q541.209 43.4122 540.694 43.1344 Q540.185 42.8509 539.849 42.2722 M543.472 40.0095 Q543.472 38.8347 542.986 38.1692 Q542.505 37.4979 541.66 37.4979 Q540.815 37.4979 540.329 38.1692 Q539.849 38.8347 539.849 40.0095 Q539.849 41.1842 540.329 41.8555 Q540.815 42.521 541.66 42.521 Q542.505 42.521 542.986 41.8555 Q543.472 41.1842 543.472 40.0095 Z" fill="#000000" fill-rule="evenodd" fill-opacity="1" /><path clip-path="url(#clip570)" d="M 0 0 M551.238 39.7375 L551.238 40.2583 L546.342 40.2583 Q546.411 41.3578 547.002 41.9365 Q547.598 42.5094 548.657 42.5094 Q549.27 42.5094 549.843 42.359 Q550.422 42.2085 550.989 41.9076 L550.989 42.9145 Q550.416 43.1576 549.814 43.2849 Q549.212 43.4122 548.593 43.4122 Q547.042 43.4122 546.134 42.5094 Q545.231 41.6067 545.231 40.0673 Q545.231 38.4759 546.087 37.5442 Q546.95 36.6067 548.408 36.6067 Q549.716 36.6067 550.474 37.4516 Q551.238 38.2907 551.238 39.7375 M550.173 39.425 Q550.161 38.5511 549.681 38.0303 Q549.207 37.5095 548.42 37.5095 Q547.528 37.5095 546.99 38.0129 Q546.458 38.5164 546.377 39.4308 L550.173 39.425 Z" fill="#000000" fill-rule="evenodd" fill-opacity="1" /><path clip-path="url(#clip570)" d="M 0 0 M557.742 39.3324 L557.742 43.2444 L556.678 43.2444 L556.678 39.3671 Q556.678 38.447 556.319 37.9898 Q555.96 37.5326 555.242 37.5326 Q554.38 37.5326 553.882 38.0824 Q553.385 38.6321 553.385 39.5812 L553.385 43.2444 L552.314 43.2444 L552.314 36.7629 L553.385 36.7629 L553.385 37.7699 Q553.767 37.1854 554.282 36.896 Q554.803 36.6067 555.48 36.6067 Q556.597 36.6067 557.169 37.3011 Q557.742 37.9898 557.742 39.3324 Z" fill="#000000" fill-rule="evenodd" fill-opacity="1" /><polyline clip-path="url(#clip570)" style="stroke:#e26f46; stroke-width:1; stroke-opacity:1; fill:none" points="
  487.079,54.0444 523.615,54.0444 
  "/>
<path clip-path="url(#clip570)" d="M 0 0 M529.704 49.7244 L530.873 49.7244 L530.873 53.266 L535.121 53.266 L535.121 49.7244 L536.29 49.7244 L536.29 58.3644 L535.121 58.3644 L535.121 54.2498 L530.873 54.2498 L530.873 58.3644 L529.704 58.3644 L529.704 49.7244 Z" fill="#000000" fill-rule="evenodd" fill-opacity="1" /><path clip-path="url(#clip570)" d="M 0 0 M537.407 51.8829 L538.472 51.8829 L538.472 58.3644 L537.407 58.3644 L537.407 51.8829 M537.407 49.3598 L538.472 49.3598 L538.472 50.7082 L537.407 50.7082 L537.407 49.3598 Z" fill="#000000" fill-rule="evenodd" fill-opacity="1" /><path clip-path="url(#clip570)" d="M 0 0 M543.854 55.0484 Q543.854 53.891 543.373 53.2545 Q542.899 52.6179 542.036 52.6179 Q541.18 52.6179 540.7 53.2545 Q540.225 53.891 540.225 55.0484 Q540.225 56.2 540.7 56.8366 Q541.18 57.4732 542.036 57.4732 Q542.899 57.4732 543.373 56.8366 Q543.854 56.2 543.854 55.0484 M544.918 57.56 Q544.918 59.2151 544.183 60.0195 Q543.449 60.8297 541.932 60.8297 Q541.371 60.8297 540.873 60.7428 Q540.376 60.6618 539.907 60.4882 L539.907 59.4523 Q540.376 59.707 540.833 59.8285 Q541.29 59.95 541.764 59.95 Q542.812 59.95 543.333 59.4003 Q543.854 58.8563 543.854 57.751 L543.854 57.2243 Q543.524 57.7973 543.009 58.0808 Q542.494 58.3644 541.776 58.3644 Q540.584 58.3644 539.855 57.4558 Q539.126 56.5473 539.126 55.0484 Q539.126 53.5438 539.855 52.6353 Q540.584 51.7267 541.776 51.7267 Q542.494 51.7267 543.009 52.0103 Q543.524 52.2938 543.854 52.8667 L543.854 51.8829 L544.918 51.8829 L544.918 57.56 Z" fill="#000000" fill-rule="evenodd" fill-opacity="1" /><path clip-path="url(#clip570)" d="M 0 0 M551.423 54.4524 L551.423 58.3644 L550.358 58.3644 L550.358 54.4871 Q550.358 53.567 549.999 53.1098 Q549.641 52.6526 548.923 52.6526 Q548.061 52.6526 547.563 53.2024 Q547.065 53.7521 547.065 54.7012 L547.065 58.3644 L545.995 58.3644 L545.995 49.3598 L547.065 49.3598 L547.065 52.8899 Q547.447 52.3054 547.962 52.016 Q548.483 51.7267 549.16 51.7267 Q550.277 51.7267 550.85 52.4211 Q551.423 53.1098 551.423 54.4524 Z" fill="#000000" fill-rule="evenodd" fill-opacity="1" /><polyline clip-path="url(#clip570)" style="stroke:#3da44d; stroke-width:1; stroke-opacity:1; fill:none" points="
  487.079,69.1644 523.615,69.1644 
  "/>
<path clip-path="url(#clip570)" d="M 0 0 M529.704 64.8444 L530.873 64.8444 L530.873 72.5006 L535.08 72.5006 L535.08 73.4844 L529.704 73.4844 L529.704 64.8444 Z" fill="#000000" fill-rule="evenodd" fill-opacity="1" /><path clip-path="url(#clip570)" d="M 0 0 M538.501 67.7495 Q537.644 67.7495 537.146 68.4208 Q536.649 69.0863 536.649 70.2495 Q536.649 71.4126 537.141 72.0839 Q537.638 72.7494 538.501 72.7494 Q539.351 72.7494 539.849 72.0781 Q540.347 71.4069 540.347 70.2495 Q540.347 69.0978 539.849 68.4265 Q539.351 67.7495 538.501 67.7495 M538.501 66.8467 Q539.889 66.8467 540.682 67.7495 Q541.475 68.6522 541.475 70.2495 Q541.475 71.8409 540.682 72.7494 Q539.889 73.6522 538.501 73.6522 Q537.106 73.6522 536.313 72.7494 Q535.526 71.8409 535.526 70.2495 Q535.526 68.6522 536.313 67.7495 Q537.106 66.8467 538.501 66.8467 Z" fill="#000000" fill-rule="evenodd" fill-opacity="1" /><path clip-path="url(#clip570)" d="M 0 0 M541.973 67.0029 L543.038 67.0029 L544.369 72.0608 L545.694 67.0029 L546.95 67.0029 L548.281 72.0608 L549.606 67.0029 L550.671 67.0029 L548.975 73.4844 L547.719 73.4844 L546.325 68.1719 L544.924 73.4844 L543.668 73.4844 L541.973 67.0029 Z" fill="#000000" fill-rule="evenodd" fill-opacity="1" /><polyline clip-path="url(#clip570)" style="stroke:#c271d2; stroke-width:1; stroke-opacity:1; fill:none" points="
  487.079,84.2844 523.615,84.2844 
  "/>
<path clip-path="url(#clip570)" d="M 0 0 M536.672 80.6299 L536.672 81.8625 Q536.082 81.3128 535.41 81.0408 Q534.745 80.7688 533.993 80.7688 Q532.511 80.7688 531.724 81.6773 Q530.937 82.5801 530.937 84.2931 Q530.937 86.0002 531.724 86.9088 Q532.511 87.8116 533.993 87.8116 Q534.745 87.8116 535.41 87.5396 Q536.082 87.2676 536.672 86.7178 L536.672 87.9389 Q536.058 88.3555 535.37 88.5639 Q534.687 88.7722 533.923 88.7722 Q531.961 88.7722 530.833 87.5743 Q529.704 86.3706 529.704 84.2931 Q529.704 82.2097 530.833 81.0118 Q531.961 79.8081 533.923 79.8081 Q534.699 79.8081 535.381 80.0165 Q536.07 80.219 536.672 80.6299 Z" fill="#000000" fill-rule="evenodd" fill-opacity="1" /><path clip-path="url(#clip570)" d="M 0 0 M537.789 79.5998 L538.854 79.5998 L538.854 88.6044 L537.789 88.6044 L537.789 79.5998 Z" fill="#000000" fill-rule="evenodd" fill-opacity="1" /><path clip-path="url(#clip570)" d="M 0 0 M542.482 82.8695 Q541.626 82.8695 541.128 83.5408 Q540.63 84.2063 540.63 85.3695 Q540.63 86.5326 541.122 87.2039 Q541.62 87.8694 542.482 87.8694 Q543.333 87.8694 543.83 87.1981 Q544.328 86.5269 544.328 85.3695 Q544.328 84.2178 543.83 83.5465 Q543.333 82.8695 542.482 82.8695 M542.482 81.9667 Q543.871 81.9667 544.664 82.8695 Q545.457 83.7722 545.457 85.3695 Q545.457 86.9609 544.664 87.8694 Q543.871 88.7722 542.482 88.7722 Q541.087 88.7722 540.295 87.8694 Q539.508 86.9609 539.508 85.3695 Q539.508 83.7722 540.295 82.8695 Q541.087 81.9667 542.482 81.9667 Z" fill="#000000" fill-rule="evenodd" fill-opacity="1" /><path clip-path="url(#clip570)" d="M 0 0 M550.705 82.3139 L550.705 83.3209 Q550.254 83.0894 549.768 82.9736 Q549.282 82.8579 548.761 82.8579 Q547.968 82.8579 547.569 83.1009 Q547.175 83.344 547.175 83.8301 Q547.175 84.2005 547.459 84.4146 Q547.742 84.6229 548.599 84.8139 L548.964 84.8949 Q550.098 85.138 550.572 85.5836 Q551.053 86.0234 551.053 86.8162 Q551.053 87.719 550.335 88.2456 Q549.623 88.7722 548.373 88.7722 Q547.852 88.7722 547.285 88.668 Q546.724 88.5697 546.099 88.3671 L546.099 87.2676 Q546.689 87.5743 547.262 87.7306 Q547.835 87.881 548.396 87.881 Q549.149 87.881 549.554 87.6264 Q549.959 87.366 549.959 86.8972 Q549.959 86.4632 549.664 86.2317 Q549.374 86.0002 548.385 85.7861 L548.014 85.6993 Q547.025 85.491 546.585 85.0627 Q546.145 84.6287 546.145 83.8764 Q546.145 82.9621 546.793 82.4644 Q547.442 81.9667 548.634 81.9667 Q549.224 81.9667 549.745 82.0535 Q550.266 82.1403 550.705 82.3139 Z" fill="#000000" fill-rule="evenodd" fill-opacity="1" /><path clip-path="url(#clip570)" d="M 0 0 M557.713 85.0975 L557.713 85.6183 L552.818 85.6183 Q552.887 86.7178 553.477 87.2965 Q554.073 87.8694 555.132 87.8694 Q555.746 87.8694 556.319 87.719 Q556.898 87.5685 557.465 87.2676 L557.465 88.2745 Q556.892 88.5176 556.29 88.6449 Q555.688 88.7722 555.069 88.7722 Q553.518 88.7722 552.609 87.8694 Q551.707 86.9667 551.707 85.4273 Q551.707 83.8359 552.563 82.9042 Q553.425 81.9667 554.884 81.9667 Q556.191 81.9667 556.95 82.8116 Q557.713 83.6507 557.713 85.0975 M556.649 84.785 Q556.637 83.9111 556.157 83.3903 Q555.682 82.8695 554.895 82.8695 Q554.004 82.8695 553.466 83.3729 Q552.933 83.8764 552.852 84.7908 L556.649 84.785 Z" fill="#000000" fill-rule="evenodd" fill-opacity="1" /></svg>
