<?xml version="1.0" encoding="utf-8"?>
<svg xmlns="http://www.w3.org/2000/svg" xmlns:xlink="http://www.w3.org/1999/xlink" width="150" height="100" viewBox="0 0 600 400">
<defs>
  <clipPath id="clip660">
    <rect x="0" y="0" width="600" height="400"/>
  </clipPath>
</defs>
<path clip-path="url(#clip660)" d="
M0 400 L600 400 L600 0 L0 0  Z
  " fill="#ffffff" fill-rule="evenodd" fill-opacity="1"/>
<defs>
  <clipPath id="clip661">
    <rect x="120" y="0" width="421" height="400"/>
  </clipPath>
</defs>
<path clip-path="url(#clip660)" d="
M40.1507 337.362 L588.189 337.362 L588.189 11.811 L40.1507 11.811  Z
  " fill="#ffffff" fill-rule="evenodd" fill-opacity="1"/>
<defs>
  <clipPath id="clip662">
    <rect x="40" y="11" width="549" height="327"/>
  </clipPath>
</defs>
<polyline clip-path="url(#clip662)" style="stroke:#000000; stroke-width:0.5; stroke-opacity:0.1; fill:none" points="
  66.2849,337.362 66.2849,11.811 
  "/>
<polyline clip-path="url(#clip662)" style="stroke:#000000; stroke-width:0.5; stroke-opacity:0.1; fill:none" points="
  89.893,337.362 89.893,11.811 
  "/>
<polyline clip-path="url(#clip662)" style="stroke:#000000; stroke-width:0.5; stroke-opacity:0.1; fill:none" points="
  113.501,337.362 113.501,11.811 
  "/>
<polyline clip-path="url(#clip662)" style="stroke:#000000; stroke-width:0.5; stroke-opacity:0.1; fill:none" points="
  137.109,337.362 137.109,11.811 
  "/>
<polyline clip-path="url(#clip662)" style="stroke:#000000; stroke-width:0.5; stroke-opacity:0.1; fill:none" points="
  160.717,337.362 160.717,11.811 
  "/>
<polyline clip-path="url(#clip662)" style="stroke:#000000; stroke-width:0.5; stroke-opacity:0.1; fill:none" points="
  184.325,337.362 184.325,11.811 
  "/>
<polyline clip-path="url(#clip662)" style="stroke:#000000; stroke-width:0.5; stroke-opacity:0.1; fill:none" points="
  207.933,337.362 207.933,11.811 
  "/>
<polyline clip-path="url(#clip662)" style="stroke:#000000; stroke-width:0.5; stroke-opacity:0.1; fill:none" points="
  231.542,337.362 231.542,11.811 
  "/>
<polyline clip-path="url(#clip662)" style="stroke:#000000; stroke-width:0.5; stroke-opacity:0.1; fill:none" points="
  255.15,337.362 255.15,11.811 
  "/>
<polyline clip-path="url(#clip662)" style="stroke:#000000; stroke-width:0.5; stroke-opacity:0.1; fill:none" points="
  278.758,337.362 278.758,11.811 
  "/>
<polyline clip-path="url(#clip662)" style="stroke:#000000; stroke-width:0.5; stroke-opacity:0.1; fill:none" points="
  302.366,337.362 302.366,11.811 
  "/>
<polyline clip-path="url(#clip662)" style="stroke:#000000; stroke-width:0.5; stroke-opacity:0.1; fill:none" points="
  325.974,337.362 325.974,11.811 
  "/>
<polyline clip-path="url(#clip662)" style="stroke:#000000; stroke-width:0.5; stroke-opacity:0.1; fill:none" points="
  349.582,337.362 349.582,11.811 
  "/>
<polyline clip-path="url(#clip662)" style="stroke:#000000; stroke-width:0.5; stroke-opacity:0.1; fill:none" points="
  373.19,337.362 373.19,11.811 
  "/>
<polyline clip-path="url(#clip662)" style="stroke:#000000; stroke-width:0.5; stroke-opacity:0.1; fill:none" points="
  396.798,337.362 396.798,11.811 
  "/>
<polyline clip-path="url(#clip662)" style="stroke:#000000; stroke-width:0.5; stroke-opacity:0.1; fill:none" points="
  420.406,337.362 420.406,11.811 
  "/>
<polyline clip-path="url(#clip662)" style="stroke:#000000; stroke-width:0.5; stroke-opacity:0.1; fill:none" points="
  444.014,337.362 444.014,11.811 
  "/>
<polyline clip-path="url(#clip662)" style="stroke:#000000; stroke-width:0.5; stroke-opacity:0.1; fill:none" points="
  467.622,337.362 467.622,11.811 
  "/>
<polyline clip-path="url(#clip662)" style="stroke:#000000; stroke-width:0.5; stroke-opacity:0.1; fill:none" points="
  491.231,337.362 491.231,11.811 
  "/>
<polyline clip-path="url(#clip662)" style="stroke:#000000; stroke-width:0.5; stroke-opacity:0.1; fill:none" points="
  514.839,337.362 514.839,11.811 
  "/>
<polyline clip-path="url(#clip662)" style="stroke:#000000; stroke-width:0.5; stroke-opacity:0.1; fill:none" points="
  538.447,337.362 538.447,11.811 
  "/>
<polyline clip-path="url(#clip662)" style="stroke:#000000; stroke-width:0.5; stroke-opacity:0.1; fill:none" points="
  562.055,337.362 562.055,11.811 
  "/>
<polyline clip-path="url(#clip660)" style="stroke:#000000; stroke-width:1; stroke-opacity:1; fill:none" points="
  40.1507,337.362 588.189,337.362 
  "/>
<polyline clip-path="url(#clip660)" style="stroke:#000000; stroke-width:1; stroke-opacity:1; fill:none" points="
  66.2849,337.362 66.2849,333.455 
  "/>
<polyline clip-path="url(#clip660)" style="stroke:#000000; stroke-width:1; stroke-opacity:1; fill:none" points="
  89.893,337.362 89.893,333.455 
  "/>
<polyline clip-path="url(#clip660)" style="stroke:#000000; stroke-width:1; stroke-opacity:1; fill:none" points="
  113.501,337.362 113.501,333.455 
  "/>
<polyline clip-path="url(#clip660)" style="stroke:#000000; stroke-width:1; stroke-opacity:1; fill:none" points="
  137.109,337.362 137.109,333.455 
  "/>
<polyline clip-path="url(#clip660)" style="stroke:#000000; stroke-width:1; stroke-opacity:1; fill:none" points="
  160.717,337.362 160.717,333.455 
  "/>
<polyline clip-path="url(#clip660)" style="stroke:#000000; stroke-width:1; stroke-opacity:1; fill:none" points="
  184.325,337.362 184.325,333.455 
  "/>
<polyline clip-path="url(#clip660)" style="stroke:#000000; stroke-width:1; stroke-opacity:1; fill:none" points="
  207.933,337.362 207.933,333.455 
  "/>
<polyline clip-path="url(#clip660)" style="stroke:#000000; stroke-width:1; stroke-opacity:1; fill:none" points="
  231.542,337.362 231.542,333.455 
  "/>
<polyline clip-path="url(#clip660)" style="stroke:#000000; stroke-width:1; stroke-opacity:1; fill:none" points="
  255.15,337.362 255.15,333.455 
  "/>
<polyline clip-path="url(#clip660)" style="stroke:#000000; stroke-width:1; stroke-opacity:1; fill:none" points="
  278.758,337.362 278.758,333.455 
  "/>
<polyline clip-path="url(#clip660)" style="stroke:#000000; stroke-width:1; stroke-opacity:1; fill:none" points="
  302.366,337.362 302.366,333.455 
  "/>
<polyline clip-path="url(#clip660)" style="stroke:#000000; stroke-width:1; stroke-opacity:1; fill:none" points="
  325.974,337.362 325.974,333.455 
  "/>
<polyline clip-path="url(#clip660)" style="stroke:#000000; stroke-width:1; stroke-opacity:1; fill:none" points="
  349.582,337.362 349.582,333.455 
  "/>
<polyline clip-path="url(#clip660)" style="stroke:#000000; stroke-width:1; stroke-opacity:1; fill:none" points="
  373.19,337.362 373.19,333.455 
  "/>
<polyline clip-path="url(#clip660)" style="stroke:#000000; stroke-width:1; stroke-opacity:1; fill:none" points="
  396.798,337.362 396.798,333.455 
  "/>
<polyline clip-path="url(#clip660)" style="stroke:#000000; stroke-width:1; stroke-opacity:1; fill:none" points="
  420.406,337.362 420.406,333.455 
  "/>
<polyline clip-path="url(#clip660)" style="stroke:#000000; stroke-width:1; stroke-opacity:1; fill:none" points="
  444.014,337.362 444.014,333.455 
  "/>
<polyline clip-path="url(#clip660)" style="stroke:#000000; stroke-width:1; stroke-opacity:1; fill:none" points="
  467.622,337.362 467.622,333.455 
  "/>
<polyline clip-path="url(#clip660)" style="stroke:#000000; stroke-width:1; stroke-opacity:1; fill:none" points="
  491.231,337.362 491.231,333.455 
  "/>
<polyline clip-path="url(#clip660)" style="stroke:#000000; stroke-width:1; stroke-opacity:1; fill:none" points="
  514.839,337.362 514.839,333.455 
  "/>
<polyline clip-path="url(#clip660)" style="stroke:#000000; stroke-width:1; stroke-opacity:1; fill:none" points="
  538.447,337.362 538.447,333.455 
  "/>
<polyline clip-path="url(#clip660)" style="stroke:#000000; stroke-width:1; stroke-opacity:1; fill:none" points="
  562.055,337.362 562.055,333.455 
  "/>
<path clip-path="url(#clip660)" d="M 0 0 M45.5231 396.891 L47.563 393.358 L48.415 393.85 L45.672 398.601 L44.82 398.109 Q44.5563 397.188 44.1269 395.617 Q43.6954 394.038 43.5523 393.615 Q43.2867 392.813 43.0207 392.406 Q42.7527 391.99 42.3868 391.779 Q41.7904 391.435 41.1715 391.639 Q40.5555 391.838 40.1677 392.509 Q39.8929 392.985 39.7515 393.612 Q39.6131 394.234 39.6017 395.029 L38.5793 394.439 Q38.6867 393.686 38.8681 393.082 Q39.0496 392.478 39.3042 392.037 Q39.9755 390.875 40.9561 390.519 Q41.9368 390.163 42.9091 390.724 Q43.3701 390.99 43.6848 391.406 Q43.9974 391.814 44.2954 392.594 Q44.3684 392.803 44.6773 393.877 Q44.9812 394.948 45.5231 396.891 Z" fill="#000000" fill-rule="evenodd" fill-opacity="1" /><path clip-path="url(#clip660)" d="M 0 0 M43.4828 386.652 Q43.0314 387.434 43.5746 388.275 Q44.1157 389.109 45.6593 390 Q47.1979 390.888 48.1954 390.943 Q49.1908 390.99 49.6421 390.208 Q50.0964 389.421 49.5553 388.587 Q49.0121 387.746 47.4735 386.858 Q45.9299 385.966 44.9345 385.92 Q43.9371 385.865 43.4828 386.652 M42.6809 386.189 Q43.4072 384.931 44.7864 384.845 Q46.1636 384.752 48.058 385.845 Q49.9474 386.936 50.5599 388.178 Q51.1703 389.413 50.444 390.671 Q49.7177 391.929 48.3406 392.022 Q46.9613 392.108 45.0719 391.017 Q43.1775 389.924 42.5671 388.689 Q41.9546 387.447 42.6809 386.189 Z" fill="#000000" fill-rule="evenodd" fill-opacity="1" /><path clip-path="url(#clip660)" d="M 0 0 M52.0769 385.539 L54.1168 382.006 L54.9688 382.498 L52.2257 387.249 L51.3738 386.757 Q51.1101 385.837 50.6807 384.266 Q50.2492 382.687 50.106 382.263 Q49.8404 381.462 49.5745 381.054 Q49.3065 380.639 48.9406 380.428 Q48.3442 380.083 47.7253 380.287 Q47.1093 380.486 46.7215 381.158 Q46.4466 381.634 46.3053 382.261 Q46.1669 382.882 46.1555 383.678 L45.1331 383.087 Q45.2405 382.334 45.4219 381.731 Q45.6033 381.127 45.858 380.686 Q46.5293 379.523 47.5099 379.167 Q48.4906 378.811 49.4628 379.373 Q49.9239 379.639 50.2386 380.054 Q50.5512 380.462 50.8492 381.242 Q50.9222 381.451 51.2311 382.525 Q51.535 383.596 52.0769 385.539 Z" fill="#000000" fill-rule="evenodd" fill-opacity="1" /><path clip-path="url(#clip660)" d="M 0 0 M53.3389 376.004 Q53.9138 375.367 54.6393 375.245 Q55.3677 375.117 56.0894 375.534 Q57.197 376.173 57.3636 377.285 Q57.5302 378.397 56.72 379.8 Q56.448 380.272 56.0635 380.718 Q55.6868 381.162 55.1947 381.586 L54.2174 381.022 Q54.706 380.743 55.1206 380.314 Q55.5353 379.885 55.8507 379.339 Q56.4004 378.386 56.311 377.673 Q56.2245 376.955 55.5078 376.541 Q54.8463 376.159 54.2063 376.411 Q53.5642 376.655 53.0868 377.482 L52.5833 378.354 L51.7514 377.874 L52.278 376.962 Q52.7091 376.215 52.642 375.649 Q52.5699 375.079 52.0086 374.755 Q51.4323 374.422 50.8893 374.657 Q50.3442 374.883 49.9044 375.645 Q49.6642 376.061 49.4796 376.589 Q49.2949 377.117 49.1555 377.799 L48.2534 377.278 Q48.4257 376.609 48.6349 376.061 Q48.847 375.509 49.1045 375.063 Q49.77 373.91 50.6839 373.542 Q51.5929 373.172 52.485 373.687 Q53.1064 374.046 53.332 374.65 Q53.5525 375.252 53.3389 376.004 Z" fill="#000000" fill-rule="evenodd" fill-opacity="1" /><path clip-path="url(#clip660)" d="M 0 0 M55.3313 374.428 L56.8909 371.727 L57.7128 372.201 L56.1532 374.903 L55.3313 374.428 Z" fill="#000000" fill-rule="evenodd" fill-opacity="1" /><path clip-path="url(#clip660)" d="M 0 0 M55.1812 366.39 Q54.7298 367.171 55.273 368.013 Q55.8141 368.846 57.3577 369.738 Q58.8963 370.626 59.8938 370.681 Q60.8892 370.727 61.3406 369.946 Q61.7949 369.159 61.2538 368.325 Q60.7105 367.484 59.172 366.595 Q57.6284 365.704 56.633 365.657 Q55.6355 365.603 55.1812 366.39 M54.3793 365.927 Q55.1056 364.669 56.4849 364.583 Q57.862 364.489 59.7564 365.583 Q61.6459 366.674 62.2583 367.916 Q62.8687 369.151 62.1424 370.409 Q61.4162 371.667 60.039 371.76 Q58.6598 371.846 56.7703 370.755 Q54.8759 369.661 54.2656 368.427 Q53.6531 367.184 54.3793 365.927 Z" fill="#000000" fill-rule="evenodd" fill-opacity="1" /><path clip-path="url(#clip660)" d="M 0 0 M59.1293 360.049 L61.648 364.911 L63.1236 362.355 L59.1293 360.049 M58.0939 359.805 L58.8289 358.532 L63.7052 361.348 L64.3216 360.28 L65.1635 360.766 L64.5472 361.834 L66.3113 362.852 L65.7297 363.86 L63.9656 362.841 L62.0154 366.219 L61.0381 365.655 L58.0939 359.805 Z" fill="#000000" fill-rule="evenodd" fill-opacity="1" /><path clip-path="url(#clip660)" d="M 0 0 M63.9945 359.423 L65.5541 356.722 L66.376 357.196 L64.8164 359.898 L63.9945 359.423 Z" fill="#000000" fill-rule="evenodd" fill-opacity="1" /><path clip-path="url(#clip660)" d="M 0 0 M68.6595 356.817 L69.6144 355.164 L63.9061 351.868 L63.2282 353.875 L62.306 353.343 L62.9781 351.345 L63.5626 350.333 L70.1931 354.161 L71.148 352.507 L71.9999 352.999 L69.5115 357.309 L68.6595 356.817 Z" fill="#000000" fill-rule="evenodd" fill-opacity="1" /><path clip-path="url(#clip660)" d="M 0 0 M65.0036 347.837 L67.7814 343.026 L68.2124 343.275 L73.6955 350.062 L73.085 351.12 L67.9302 344.736 L65.8556 348.329 L65.0036 347.837 Z" fill="#000000" fill-rule="evenodd" fill-opacity="1" /><path clip-path="url(#clip660)" d="M 0 0 M116.281 397.006 L118.321 393.473 L119.173 393.965 L116.43 398.716 L115.578 398.224 Q115.314 397.303 114.885 395.732 Q114.453 394.153 114.31 393.73 Q114.044 392.928 113.778 392.521 Q113.51 392.106 113.145 391.894 Q112.548 391.55 111.929 391.754 Q111.313 391.953 110.925 392.625 Q110.651 393.101 110.509 393.727 Q110.371 394.349 110.359 395.144 L109.337 394.554 Q109.444 393.801 109.626 393.197 Q109.807 392.594 110.062 392.153 Q110.733 390.99 111.714 390.634 Q112.695 390.278 113.667 390.839 Q114.128 391.106 114.443 391.521 Q114.755 391.929 115.053 392.709 Q115.126 392.918 115.435 393.992 Q115.739 395.063 116.281 397.006 Z" fill="#000000" fill-rule="evenodd" fill-opacity="1" /><path clip-path="url(#clip660)" d="M 0 0 M114.241 386.767 Q113.789 387.549 114.332 388.39 Q114.873 389.224 116.417 390.115 Q117.956 391.004 118.953 391.058 Q119.948 391.105 120.4 390.323 Q120.854 389.536 120.313 388.703 Q119.77 387.861 118.231 386.973 Q116.688 386.082 115.692 386.035 Q114.695 385.98 114.241 386.767 M113.439 386.304 Q114.165 385.046 115.544 384.96 Q116.921 384.867 118.816 385.961 Q120.705 387.051 121.318 388.294 Q121.928 389.528 121.202 390.786 Q120.475 392.044 119.098 392.138 Q117.719 392.223 115.83 391.133 Q113.935 390.039 113.325 388.804 Q112.712 387.562 113.439 386.304 Z" fill="#000000" fill-rule="evenodd" fill-opacity="1" /><path clip-path="url(#clip660)" d="M 0 0 M122.835 385.655 L124.875 382.121 L125.727 382.613 L122.983 387.364 L122.131 386.873 Q121.868 385.952 121.438 384.381 Q121.007 382.802 120.864 382.379 Q120.598 381.577 120.332 381.17 Q120.064 380.754 119.698 380.543 Q119.102 380.199 118.483 380.403 Q117.867 380.602 117.479 381.273 Q117.204 381.749 117.063 382.376 Q116.925 382.998 116.913 383.793 L115.891 383.203 Q115.998 382.449 116.18 381.846 Q116.361 381.242 116.616 380.801 Q117.287 379.639 118.268 379.283 Q119.248 378.927 120.221 379.488 Q120.682 379.754 120.996 380.17 Q121.309 380.577 121.607 381.358 Q121.68 381.567 121.989 382.64 Q122.293 383.711 122.835 385.655 Z" fill="#000000" fill-rule="evenodd" fill-opacity="1" /><path clip-path="url(#clip660)" d="M 0 0 M124.097 376.119 Q124.672 375.482 125.397 375.36 Q126.125 375.233 126.847 375.649 Q127.955 376.289 128.121 377.401 Q128.288 378.512 127.478 379.916 Q127.206 380.387 126.821 380.833 Q126.445 381.277 125.952 381.701 L124.975 381.137 Q125.464 380.858 125.878 380.429 Q126.293 380 126.608 379.454 Q127.158 378.502 127.069 377.789 Q126.982 377.07 126.266 376.657 Q125.604 376.275 124.964 376.527 Q124.322 376.771 123.845 377.598 L123.341 378.47 L122.509 377.989 L123.036 377.077 Q123.467 376.33 123.4 375.764 Q123.328 375.194 122.766 374.87 Q122.19 374.537 121.647 374.772 Q121.102 374.998 120.662 375.76 Q120.422 376.176 120.237 376.704 Q120.053 377.233 119.913 377.914 L119.011 377.393 Q119.183 376.724 119.393 376.177 Q119.605 375.624 119.862 375.178 Q120.528 374.025 121.442 373.658 Q122.351 373.287 123.243 373.802 Q123.864 374.161 124.09 374.766 Q124.31 375.367 124.097 376.119 Z" fill="#000000" fill-rule="evenodd" fill-opacity="1" /><path clip-path="url(#clip660)" d="M 0 0 M126.089 374.543 L127.649 371.842 L128.471 372.317 L126.911 375.018 L126.089 374.543 Z" fill="#000000" fill-rule="evenodd" fill-opacity="1" /><path clip-path="url(#clip660)" d="M 0 0 M125.939 366.505 Q125.488 367.287 126.031 368.128 Q126.572 368.962 128.115 369.853 Q129.654 370.741 130.652 370.796 Q131.647 370.843 132.098 370.061 Q132.553 369.274 132.011 368.44 Q131.468 367.599 129.93 366.711 Q128.386 365.819 127.391 365.773 Q126.393 365.718 125.939 366.505 M125.137 366.042 Q125.863 364.784 127.243 364.698 Q128.62 364.604 130.514 365.698 Q132.404 366.789 133.016 368.031 Q133.626 369.266 132.9 370.524 Q132.174 371.782 130.797 371.875 Q129.417 371.961 127.528 370.87 Q125.634 369.777 125.023 368.542 Q124.411 367.3 125.137 366.042 Z" fill="#000000" fill-rule="evenodd" fill-opacity="1" /><path clip-path="url(#clip660)" d="M 0 0 M129.887 360.164 L132.406 365.026 L133.881 362.47 L129.887 360.164 M128.852 359.92 L129.587 358.648 L134.463 361.463 L135.079 360.395 L135.921 360.881 L135.305 361.949 L137.069 362.968 L136.487 363.975 L134.723 362.956 L132.773 366.334 L131.796 365.77 L128.852 359.92 Z" fill="#000000" fill-rule="evenodd" fill-opacity="1" /><path clip-path="url(#clip660)" d="M 0 0 M134.752 359.538 L136.312 356.837 L137.134 357.312 L135.574 360.013 L134.752 359.538 Z" fill="#000000" fill-rule="evenodd" fill-opacity="1" /><path clip-path="url(#clip660)" d="M 0 0 M139.819 356.236 L141.859 352.703 L142.711 353.195 L139.968 357.946 L139.116 357.454 Q138.853 356.533 138.423 354.962 Q137.992 353.383 137.849 352.96 Q137.583 352.158 137.317 351.751 Q137.049 351.336 136.683 351.124 Q136.087 350.78 135.468 350.984 Q134.852 351.183 134.464 351.854 Q134.189 352.331 134.048 352.957 Q133.909 353.579 133.898 354.374 L132.876 353.784 Q132.983 353.031 133.165 352.427 Q133.346 351.824 133.601 351.383 Q134.272 350.22 135.253 349.864 Q136.233 349.508 137.205 350.069 Q137.667 350.336 137.981 350.751 Q138.294 351.159 138.592 351.939 Q138.665 352.148 138.974 353.222 Q139.278 354.293 139.819 356.236 Z" fill="#000000" fill-rule="evenodd" fill-opacity="1" /><path clip-path="url(#clip660)" d="M 0 0 M137.779 345.997 Q137.328 346.779 137.871 347.62 Q138.412 348.454 139.956 349.345 Q141.494 350.233 142.492 350.288 Q143.487 350.335 143.939 349.553 Q144.393 348.766 143.852 347.933 Q143.308 347.091 141.77 346.203 Q140.226 345.312 139.231 345.265 Q138.233 345.21 137.779 345.997 M136.977 345.534 Q137.704 344.276 139.083 344.19 Q140.46 344.097 142.354 345.19 Q144.244 346.281 144.856 347.524 Q145.467 348.758 144.74 350.016 Q144.014 351.274 142.637 351.368 Q141.258 351.453 139.368 350.362 Q137.474 349.269 136.863 348.034 Q136.251 346.792 136.977 345.534 Z" fill="#000000" fill-rule="evenodd" fill-opacity="1" /><path clip-path="url(#clip660)" d="M 0 0 M187.23 396.791 L189.269 393.257 L190.121 393.749 L187.378 398.5 L186.526 398.009 Q186.263 397.088 185.833 395.517 Q185.402 393.938 185.259 393.514 Q184.993 392.713 184.727 392.306 Q184.459 391.89 184.093 391.679 Q183.497 391.335 182.878 391.539 Q182.262 391.738 181.874 392.409 Q181.599 392.885 181.458 393.512 Q181.32 394.134 181.308 394.929 L180.286 394.339 Q180.393 393.585 180.575 392.982 Q180.756 392.378 181.011 391.937 Q181.682 390.775 182.663 390.419 Q183.643 390.063 184.615 390.624 Q185.077 390.89 185.391 391.306 Q185.704 391.713 186.002 392.494 Q186.075 392.703 186.384 393.776 Q186.688 394.847 187.23 396.791 Z" fill="#000000" fill-rule="evenodd" fill-opacity="1" /><path clip-path="url(#clip660)" d="M 0 0 M185.189 386.552 Q184.738 387.333 185.281 388.175 Q185.822 389.009 187.366 389.9 Q188.904 390.788 189.902 390.843 Q190.897 390.889 191.349 390.108 Q191.803 389.321 191.262 388.487 Q190.719 387.646 189.18 386.757 Q187.636 385.866 186.641 385.819 Q185.643 385.765 185.189 386.552 M184.387 386.089 Q185.114 384.831 186.493 384.745 Q187.87 384.651 189.764 385.745 Q191.654 386.836 192.266 388.078 Q192.877 389.313 192.15 390.571 Q191.424 391.829 190.047 391.922 Q188.668 392.008 186.778 390.917 Q184.884 389.823 184.274 388.589 Q183.661 387.347 184.387 386.089 Z" fill="#000000" fill-rule="evenodd" fill-opacity="1" /><path clip-path="url(#clip660)" d="M 0 0 M193.783 385.439 L195.823 381.906 L196.675 382.398 L193.932 387.149 L193.08 386.657 Q192.817 385.736 192.387 384.165 Q191.956 382.586 191.812 382.163 Q191.547 381.361 191.281 380.954 Q191.013 380.539 190.647 380.327 Q190.051 379.983 189.432 380.187 Q188.816 380.386 188.428 381.058 Q188.153 381.534 188.012 382.16 Q187.873 382.782 187.862 383.577 L186.839 382.987 Q186.947 382.234 187.128 381.63 Q187.31 381.027 187.564 380.586 Q188.236 379.423 189.216 379.067 Q190.197 378.711 191.169 379.272 Q191.63 379.539 191.945 379.954 Q192.258 380.362 192.556 381.142 Q192.629 381.351 192.938 382.425 Q193.241 383.496 193.783 385.439 Z" fill="#000000" fill-rule="evenodd" fill-opacity="1" /><path clip-path="url(#clip660)" d="M 0 0 M195.045 375.904 Q195.62 375.267 196.346 375.144 Q197.074 375.017 197.796 375.434 Q198.903 376.073 199.07 377.185 Q199.237 378.297 198.426 379.7 Q198.154 380.171 197.77 380.618 Q197.393 381.062 196.901 381.486 L195.924 380.922 Q196.412 380.642 196.827 380.214 Q197.242 379.785 197.557 379.238 Q198.107 378.286 198.017 377.573 Q197.931 376.855 197.214 376.441 Q196.553 376.059 195.913 376.311 Q195.271 376.555 194.793 377.382 L194.29 378.254 L193.458 377.774 L193.984 376.862 Q194.416 376.115 194.348 375.548 Q194.276 374.979 193.715 374.655 Q193.139 374.322 192.596 374.556 Q192.051 374.783 191.611 375.545 Q191.371 375.961 191.186 376.489 Q191.001 377.017 190.862 377.698 L189.96 377.178 Q190.132 376.509 190.341 375.961 Q190.553 375.409 190.811 374.963 Q191.476 373.81 192.39 373.442 Q193.299 373.072 194.191 373.587 Q194.813 373.945 195.038 374.55 Q195.259 375.152 195.045 375.904 Z" fill="#000000" fill-rule="evenodd" fill-opacity="1" /><path clip-path="url(#clip660)" d="M 0 0 M197.038 374.328 L198.597 371.627 L199.419 372.101 L197.86 374.802 L197.038 374.328 Z" fill="#000000" fill-rule="evenodd" fill-opacity="1" /><path clip-path="url(#clip660)" d="M 0 0 M196.888 366.289 Q196.436 367.071 196.979 367.913 Q197.521 368.746 199.064 369.637 Q200.603 370.526 201.6 370.58 Q202.596 370.627 203.047 369.845 Q203.501 369.059 202.96 368.225 Q202.417 367.383 200.878 366.495 Q199.335 365.604 198.339 365.557 Q197.342 365.502 196.888 366.289 M196.086 365.826 Q196.812 364.568 198.191 364.483 Q199.568 364.389 201.463 365.483 Q203.352 366.574 203.965 367.816 Q204.575 369.05 203.849 370.308 Q203.123 371.566 201.745 371.66 Q200.366 371.746 198.477 370.655 Q196.582 369.561 195.972 368.327 Q195.359 367.084 196.086 365.826 Z" fill="#000000" fill-rule="evenodd" fill-opacity="1" /><path clip-path="url(#clip660)" d="M 0 0 M200.836 359.949 L203.354 364.811 L204.83 362.255 L200.836 359.949 M199.8 359.705 L200.535 358.432 L205.412 361.247 L206.028 360.18 L206.87 360.666 L206.254 361.733 L208.018 362.752 L207.436 363.759 L205.672 362.741 L203.722 366.119 L202.745 365.554 L199.8 359.705 Z" fill="#000000" fill-rule="evenodd" fill-opacity="1" /><path clip-path="url(#clip660)" d="M 0 0 M205.701 359.323 L207.26 356.622 L208.082 357.096 L206.523 359.797 L205.701 359.323 Z" fill="#000000" fill-rule="evenodd" fill-opacity="1" /><path clip-path="url(#clip660)" d="M 0 0 M210.768 356.021 L212.808 352.487 L213.66 352.979 L210.917 357.73 L210.065 357.238 Q209.801 356.318 209.372 354.747 Q208.94 353.168 208.797 352.744 Q208.532 351.943 208.266 351.535 Q207.998 351.12 207.632 350.909 Q207.036 350.564 206.417 350.768 Q205.801 350.967 205.413 351.639 Q205.138 352.115 204.997 352.742 Q204.858 353.364 204.847 354.159 L203.824 353.568 Q203.932 352.815 204.113 352.212 Q204.295 351.608 204.549 351.167 Q205.221 350.004 206.201 349.648 Q207.182 349.292 208.154 349.854 Q208.615 350.12 208.93 350.536 Q209.242 350.943 209.54 351.723 Q209.613 351.933 209.922 353.006 Q210.226 354.077 210.768 356.021 Z" fill="#000000" fill-rule="evenodd" fill-opacity="1" /><path clip-path="url(#clip660)" d="M 0 0 M206.817 347.552 L209.112 343.577 L209.964 344.069 L208.204 347.116 L210.039 348.175 Q210.091 347.911 210.183 347.671 Q210.27 347.427 210.398 347.207 Q211.121 345.954 212.23 345.618 Q213.339 345.283 214.512 345.96 Q215.72 346.657 215.957 347.797 Q216.19 348.933 215.4 350.302 Q215.128 350.773 214.764 351.218 Q214.403 351.657 213.942 352.086 L212.924 351.499 Q213.43 351.189 213.829 350.778 Q214.227 350.366 214.536 349.83 Q215.037 348.963 214.873 348.193 Q214.709 347.424 213.927 346.972 Q213.145 346.521 212.397 346.764 Q211.649 347.007 211.148 347.874 Q210.914 348.28 210.77 348.738 Q210.628 349.191 210.576 349.722 L206.817 347.552 Z" fill="#000000" fill-rule="evenodd" fill-opacity="1" /><path clip-path="url(#clip660)" d="M 0 0 M257.941 396.986 L259.981 393.453 L260.833 393.945 L258.09 398.696 L257.238 398.204 Q256.974 397.283 256.545 395.712 Q256.113 394.133 255.97 393.71 Q255.705 392.908 255.439 392.501 Q255.171 392.086 254.805 391.874 Q254.208 391.53 253.589 391.734 Q252.973 391.933 252.586 392.605 Q252.311 393.081 252.169 393.707 Q252.031 394.329 252.02 395.124 L250.997 394.534 Q251.105 393.781 251.286 393.177 Q251.467 392.574 251.722 392.133 Q252.393 390.97 253.374 390.614 Q254.355 390.258 255.327 390.819 Q255.788 391.086 256.103 391.501 Q256.415 391.909 256.713 392.689 Q256.786 392.898 257.095 393.972 Q257.399 395.043 257.941 396.986 Z" fill="#000000" fill-rule="evenodd" fill-opacity="1" /><path clip-path="url(#clip660)" d="M 0 0 M255.901 386.747 Q255.449 387.529 255.992 388.37 Q256.534 389.204 258.077 390.095 Q259.616 390.983 260.613 391.038 Q261.609 391.085 262.06 390.303 Q262.514 389.516 261.973 388.683 Q261.43 387.841 259.891 386.953 Q258.348 386.062 257.352 386.015 Q256.355 385.96 255.901 386.747 M255.099 386.284 Q255.825 385.026 257.204 384.94 Q258.581 384.847 260.476 385.94 Q262.365 387.031 262.978 388.274 Q263.588 389.508 262.862 390.766 Q262.136 392.024 260.758 392.118 Q259.379 392.203 257.49 391.113 Q255.595 390.019 254.985 388.784 Q254.372 387.542 255.099 386.284 Z" fill="#000000" fill-rule="evenodd" fill-opacity="1" /><path clip-path="url(#clip660)" d="M 0 0 M264.495 385.635 L266.535 382.101 L267.387 382.593 L264.644 387.344 L263.792 386.852 Q263.528 385.932 263.099 384.361 Q262.667 382.782 262.524 382.358 Q262.258 381.557 261.992 381.149 Q261.724 380.734 261.358 380.523 Q260.762 380.179 260.143 380.383 Q259.527 380.581 259.139 381.253 Q258.865 381.729 258.723 382.356 Q258.585 382.978 258.573 383.773 L257.551 383.183 Q257.658 382.429 257.84 381.826 Q258.021 381.222 258.276 380.781 Q258.947 379.618 259.928 379.263 Q260.908 378.907 261.881 379.468 Q262.342 379.734 262.656 380.15 Q262.969 380.557 263.267 381.337 Q263.34 381.547 263.649 382.62 Q263.953 383.691 264.495 385.635 Z" fill="#000000" fill-rule="evenodd" fill-opacity="1" /><path clip-path="url(#clip660)" d="M 0 0 M265.757 376.099 Q266.332 375.462 267.057 375.34 Q267.786 375.213 268.507 375.629 Q269.615 376.269 269.781 377.381 Q269.948 378.492 269.138 379.896 Q268.866 380.367 268.481 380.813 Q268.105 381.257 267.613 381.681 L266.635 381.117 Q267.124 380.838 267.538 380.409 Q267.953 379.98 268.269 379.434 Q268.818 378.482 268.729 377.768 Q268.642 377.05 267.926 376.637 Q267.264 376.255 266.624 376.507 Q265.982 376.751 265.505 377.578 L265.001 378.45 L264.169 377.969 L264.696 377.057 Q265.127 376.31 265.06 375.744 Q264.988 375.174 264.426 374.85 Q263.85 374.517 263.307 374.752 Q262.762 374.978 262.322 375.74 Q262.082 376.156 261.897 376.684 Q261.713 377.213 261.573 377.894 L260.671 377.373 Q260.844 376.704 261.053 376.157 Q261.265 375.604 261.522 375.158 Q262.188 374.005 263.102 373.638 Q264.011 373.267 264.903 373.782 Q265.524 374.141 265.75 374.746 Q265.97 375.347 265.757 376.099 Z" fill="#000000" fill-rule="evenodd" fill-opacity="1" /><path clip-path="url(#clip660)" d="M 0 0 M267.749 374.523 L269.309 371.822 L270.131 372.297 L268.571 374.998 L267.749 374.523 Z" fill="#000000" fill-rule="evenodd" fill-opacity="1" /><path clip-path="url(#clip660)" d="M 0 0 M267.599 366.485 Q267.148 367.267 267.691 368.108 Q268.232 368.942 269.776 369.833 Q271.314 370.721 272.312 370.776 Q273.307 370.823 273.758 370.041 Q274.213 369.254 273.672 368.42 Q273.128 367.579 271.59 366.691 Q270.046 365.799 269.051 365.753 Q268.053 365.698 267.599 366.485 M266.797 366.022 Q267.523 364.764 268.903 364.678 Q270.28 364.584 272.174 365.678 Q274.064 366.769 274.676 368.011 Q275.287 369.246 274.56 370.504 Q273.834 371.762 272.457 371.855 Q271.078 371.941 269.188 370.85 Q267.294 369.757 266.683 368.522 Q266.071 367.28 266.797 366.022 Z" fill="#000000" fill-rule="evenodd" fill-opacity="1" /><path clip-path="url(#clip660)" d="M 0 0 M271.547 360.144 L274.066 365.006 L275.542 362.45 L271.547 360.144 M270.512 359.9 L271.247 358.627 L276.123 361.443 L276.739 360.375 L277.581 360.861 L276.965 361.929 L278.729 362.947 L278.148 363.955 L276.383 362.936 L274.433 366.314 L273.456 365.75 L270.512 359.9 Z" fill="#000000" fill-rule="evenodd" fill-opacity="1" /><path clip-path="url(#clip660)" d="M 0 0 M276.412 359.518 L277.972 356.817 L278.794 357.292 L277.234 359.993 L276.412 359.518 Z" fill="#000000" fill-rule="evenodd" fill-opacity="1" /><path clip-path="url(#clip660)" d="M 0 0 M281.48 356.216 L283.52 352.683 L284.372 353.175 L281.628 357.926 L280.776 357.434 Q280.513 356.513 280.083 354.942 Q279.652 353.363 279.509 352.94 Q279.243 352.138 278.977 351.731 Q278.709 351.315 278.343 351.104 Q277.747 350.76 277.128 350.964 Q276.512 351.163 276.124 351.834 Q275.849 352.311 275.708 352.937 Q275.57 353.559 275.558 354.354 L274.536 353.764 Q274.643 353.011 274.825 352.407 Q275.006 351.804 275.261 351.363 Q275.932 350.2 276.913 349.844 Q277.893 349.488 278.866 350.049 Q279.327 350.315 279.641 350.731 Q279.954 351.139 280.252 351.919 Q280.325 352.128 280.634 353.202 Q280.938 354.273 281.48 356.216 Z" fill="#000000" fill-rule="evenodd" fill-opacity="1" /><path clip-path="url(#clip660)" d="M 0 0 M282.702 347.861 Q282.285 348.582 282.431 349.221 Q282.58 349.855 283.256 350.245 Q283.933 350.636 284.556 350.448 Q285.182 350.255 285.599 349.533 Q286.015 348.811 285.87 348.173 Q285.719 347.531 285.047 347.143 Q284.371 346.753 283.745 346.946 Q283.121 347.134 282.702 347.861 M281.686 348.624 Q281.15 349.183 280.493 349.291 Q279.838 349.395 279.197 349.024 Q278.3 348.506 278.146 347.569 Q277.995 346.627 278.637 345.514 Q279.283 344.396 280.171 344.061 Q281.06 343.725 281.957 344.243 Q282.599 344.613 282.833 345.237 Q283.071 345.855 282.858 346.594 Q283.451 345.961 284.182 345.842 Q284.915 345.717 285.632 346.131 Q286.719 346.759 286.916 347.761 Q287.115 348.758 286.401 349.996 Q285.686 351.234 284.72 351.565 Q283.756 351.891 282.669 351.263 Q281.952 350.849 281.693 350.152 Q281.434 349.454 281.686 348.624 M279.874 348.072 Q280.455 348.408 280.989 348.235 Q281.526 348.057 281.905 347.4 Q282.281 346.749 282.167 346.195 Q282.055 345.636 281.474 345.3 Q280.892 344.965 280.352 345.148 Q279.815 345.325 279.439 345.977 Q279.06 346.633 279.175 347.187 Q279.292 347.736 279.874 348.072 Z" fill="#000000" fill-rule="evenodd" fill-opacity="1" /><path clip-path="url(#clip660)" d="M 0 0 M328.82 396.891 L330.86 393.358 L331.712 393.85 L328.969 398.601 L328.117 398.109 Q327.853 397.188 327.424 395.617 Q326.992 394.038 326.849 393.615 Q326.584 392.813 326.318 392.406 Q326.05 391.99 325.684 391.779 Q325.088 391.435 324.469 391.639 Q323.853 391.838 323.465 392.509 Q323.19 392.985 323.049 393.612 Q322.91 394.234 322.899 395.029 L321.876 394.439 Q321.984 393.686 322.165 393.082 Q322.347 392.478 322.601 392.037 Q323.273 390.875 324.253 390.519 Q325.234 390.163 326.206 390.724 Q326.667 390.99 326.982 391.406 Q327.295 391.814 327.593 392.594 Q327.666 392.803 327.974 393.877 Q328.278 394.948 328.82 396.891 Z" fill="#000000" fill-rule="evenodd" fill-opacity="1" /><path clip-path="url(#clip660)" d="M 0 0 M326.78 386.652 Q326.328 387.434 326.872 388.275 Q327.413 389.109 328.956 390 Q330.495 390.888 331.492 390.943 Q332.488 390.99 332.939 390.208 Q333.394 389.421 332.852 388.587 Q332.309 387.746 330.771 386.858 Q329.227 385.966 328.232 385.92 Q327.234 385.865 326.78 386.652 M325.978 386.189 Q326.704 384.931 328.084 384.845 Q329.461 384.752 331.355 385.845 Q333.245 386.936 333.857 388.178 Q334.467 389.413 333.741 390.671 Q333.015 391.929 331.638 392.022 Q330.258 392.108 328.369 391.017 Q326.475 389.924 325.864 388.689 Q325.252 387.447 325.978 386.189 Z" fill="#000000" fill-rule="evenodd" fill-opacity="1" /><path clip-path="url(#clip660)" d="M 0 0 M335.374 385.539 L337.414 382.006 L338.266 382.498 L335.523 387.249 L334.671 386.757 Q334.407 385.837 333.978 384.266 Q333.546 382.687 333.403 382.263 Q333.138 381.462 332.872 381.054 Q332.604 380.639 332.238 380.428 Q331.641 380.083 331.022 380.287 Q330.406 380.486 330.019 381.158 Q329.744 381.634 329.602 382.261 Q329.464 382.882 329.453 383.678 L328.43 383.087 Q328.538 382.334 328.719 381.731 Q328.9 381.127 329.155 380.686 Q329.826 379.523 330.807 379.167 Q331.788 378.811 332.76 379.373 Q333.221 379.639 333.536 380.054 Q333.848 380.462 334.146 381.242 Q334.219 381.451 334.528 382.525 Q334.832 383.596 335.374 385.539 Z" fill="#000000" fill-rule="evenodd" fill-opacity="1" /><path clip-path="url(#clip660)" d="M 0 0 M336.636 376.004 Q337.211 375.367 337.936 375.245 Q338.665 375.117 339.387 375.534 Q340.494 376.173 340.661 377.285 Q340.827 378.397 340.017 379.8 Q339.745 380.272 339.361 380.718 Q338.984 381.162 338.492 381.586 L337.514 381.022 Q338.003 380.743 338.418 380.314 Q338.832 379.885 339.148 379.339 Q339.698 378.386 339.608 377.673 Q339.522 376.955 338.805 376.541 Q338.143 376.159 337.503 376.411 Q336.861 376.655 336.384 377.482 L335.88 378.354 L335.049 377.874 L335.575 376.962 Q336.006 376.215 335.939 375.649 Q335.867 375.079 335.306 374.755 Q334.729 374.422 334.186 374.657 Q333.641 374.883 333.201 375.645 Q332.961 376.061 332.777 376.589 Q332.592 377.117 332.453 377.799 L331.55 377.278 Q331.723 376.609 331.932 376.061 Q332.144 375.509 332.402 375.063 Q333.067 373.91 333.981 373.542 Q334.89 373.172 335.782 373.687 Q336.404 374.046 336.629 374.65 Q336.85 375.252 336.636 376.004 Z" fill="#000000" fill-rule="evenodd" fill-opacity="1" /><path clip-path="url(#clip660)" d="M 0 0 M338.628 374.428 L340.188 371.727 L341.01 372.201 L339.45 374.903 L338.628 374.428 Z" fill="#000000" fill-rule="evenodd" fill-opacity="1" /><path clip-path="url(#clip660)" d="M 0 0 M338.478 366.39 Q338.027 367.171 338.57 368.013 Q339.111 368.846 340.655 369.738 Q342.193 370.626 343.191 370.681 Q344.186 370.727 344.638 369.946 Q345.092 369.159 344.551 368.325 Q344.008 367.484 342.469 366.595 Q340.925 365.704 339.93 365.657 Q338.933 365.603 338.478 366.39 M337.676 365.927 Q338.403 364.669 339.782 364.583 Q341.159 364.489 343.054 365.583 Q344.943 366.674 345.555 367.916 Q346.166 369.151 345.44 370.409 Q344.713 371.667 343.336 371.76 Q341.957 371.846 340.067 370.755 Q338.173 369.661 337.563 368.427 Q336.95 367.184 337.676 365.927 Z" fill="#000000" fill-rule="evenodd" fill-opacity="1" /><path clip-path="url(#clip660)" d="M 0 0 M339.944 362.311 L342.239 358.337 L343.091 358.829 L341.332 361.876 L343.166 362.935 Q343.218 362.671 343.31 362.43 Q343.397 362.186 343.525 361.966 Q344.248 360.713 345.357 360.378 Q346.466 360.042 347.639 360.72 Q348.847 361.417 349.084 362.556 Q349.317 363.693 348.527 365.061 Q348.255 365.532 347.891 365.977 Q347.53 366.417 347.069 366.846 L346.052 366.258 Q346.558 365.949 346.956 365.537 Q347.354 365.126 347.663 364.589 Q348.164 363.722 348 362.953 Q347.836 362.183 347.054 361.732 Q346.273 361.28 345.524 361.523 Q344.776 361.766 344.275 362.633 Q344.041 363.039 343.897 363.497 Q343.756 363.95 343.703 364.481 L339.944 362.311 Z" fill="#000000" fill-rule="evenodd" fill-opacity="1" /><path clip-path="url(#clip660)" d="M 0 0 M347.106 359.744 L348.666 357.042 L349.488 357.517 L347.928 360.218 L347.106 359.744 Z" fill="#000000" fill-rule="evenodd" fill-opacity="1" /><path clip-path="url(#clip660)" d="M 0 0 M346.956 351.705 Q346.505 352.487 347.048 353.329 Q347.589 354.162 349.133 355.053 Q350.671 355.942 351.669 355.996 Q352.664 356.043 353.116 355.261 Q353.57 354.475 353.029 353.641 Q352.486 352.799 350.947 351.911 Q349.403 351.02 348.408 350.973 Q347.411 350.918 346.956 351.705 M346.154 351.242 Q346.881 349.984 348.26 349.899 Q349.637 349.805 351.532 350.899 Q353.421 351.99 354.033 353.232 Q354.644 354.466 353.918 355.724 Q353.191 356.982 351.814 357.076 Q350.435 357.162 348.545 356.071 Q346.651 354.977 346.041 353.743 Q345.428 352.5 346.154 351.242 Z" fill="#000000" fill-rule="evenodd" fill-opacity="1" /><path clip-path="url(#clip660)" d="M 0 0 M353.635 346.56 Q354.21 345.923 354.936 345.801 Q355.664 345.674 356.386 346.09 Q357.493 346.73 357.66 347.842 Q357.827 348.954 357.016 350.357 Q356.744 350.828 356.36 351.274 Q355.983 351.718 355.491 352.142 L354.514 351.578 Q355.002 351.299 355.417 350.87 Q355.832 350.441 356.147 349.895 Q356.697 348.943 356.607 348.23 Q356.521 347.511 355.804 347.098 Q355.143 346.716 354.503 346.968 Q353.861 347.212 353.383 348.039 L352.88 348.911 L352.048 348.43 L352.574 347.518 Q353.006 346.771 352.938 346.205 Q352.866 345.635 352.305 345.311 Q351.729 344.978 351.186 345.213 Q350.641 345.439 350.201 346.201 Q349.961 346.617 349.776 347.145 Q349.591 347.674 349.452 348.355 L348.55 347.834 Q348.722 347.165 348.931 346.618 Q349.143 346.065 349.401 345.619 Q350.066 344.466 350.98 344.099 Q351.889 343.728 352.781 344.243 Q353.403 344.602 353.628 345.207 Q353.849 345.808 353.635 346.56 Z" fill="#000000" fill-rule="evenodd" fill-opacity="1" /><path clip-path="url(#clip660)" d="M 0 0 M399.575 397.011 L401.615 393.478 L402.467 393.97 L399.724 398.721 L398.872 398.229 Q398.608 397.308 398.179 395.737 Q397.747 394.158 397.604 393.735 Q397.339 392.933 397.073 392.526 Q396.805 392.111 396.439 391.899 Q395.842 391.555 395.223 391.759 Q394.607 391.958 394.22 392.63 Q393.945 393.106 393.803 393.732 Q393.665 394.354 393.654 395.149 L392.631 394.559 Q392.739 393.806 392.92 393.202 Q393.102 392.599 393.356 392.158 Q394.027 390.995 395.008 390.639 Q395.989 390.283 396.961 390.844 Q397.422 391.111 397.737 391.526 Q398.049 391.934 398.347 392.714 Q398.42 392.923 398.729 393.997 Q399.033 395.068 399.575 397.011 Z" fill="#000000" fill-rule="evenodd" fill-opacity="1" /><path clip-path="url(#clip660)" d="M 0 0 M397.535 386.772 Q397.083 387.554 397.627 388.395 Q398.168 389.229 399.711 390.12 Q401.25 391.009 402.247 391.063 Q403.243 391.11 403.694 390.328 Q404.148 389.541 403.607 388.708 Q403.064 387.866 401.525 386.978 Q399.982 386.087 398.986 386.04 Q397.989 385.985 397.535 386.772 M396.733 386.309 Q397.459 385.051 398.838 384.965 Q400.216 384.872 402.11 385.966 Q403.999 387.056 404.612 388.299 Q405.222 389.533 404.496 390.791 Q403.77 392.049 402.393 392.143 Q401.013 392.228 399.124 391.138 Q397.229 390.044 396.619 388.809 Q396.007 387.567 396.733 386.309 Z" fill="#000000" fill-rule="evenodd" fill-opacity="1" /><path clip-path="url(#clip660)" d="M 0 0 M406.129 385.66 L408.169 382.126 L409.021 382.618 L406.278 387.369 L405.426 386.878 Q405.162 385.957 404.733 384.386 Q404.301 382.807 404.158 382.384 Q403.892 381.582 403.626 381.175 Q403.358 380.759 402.993 380.548 Q402.396 380.204 401.777 380.408 Q401.161 380.607 400.773 381.278 Q400.499 381.754 400.357 382.381 Q400.219 383.003 400.207 383.798 L399.185 383.208 Q399.292 382.454 399.474 381.851 Q399.655 381.247 399.91 380.806 Q400.581 379.644 401.562 379.288 Q402.543 378.932 403.515 379.493 Q403.976 379.759 404.291 380.175 Q404.603 380.582 404.901 381.363 Q404.974 381.572 405.283 382.645 Q405.587 383.716 406.129 385.66 Z" fill="#000000" fill-rule="evenodd" fill-opacity="1" /><path clip-path="url(#clip660)" d="M 0 0 M407.391 376.124 Q407.966 375.487 408.691 375.365 Q409.42 375.238 410.141 375.654 Q411.249 376.294 411.416 377.406 Q411.582 378.518 410.772 379.921 Q410.5 380.392 410.115 380.838 Q409.739 381.282 409.247 381.706 L408.269 381.142 Q408.758 380.863 409.173 380.434 Q409.587 380.005 409.903 379.459 Q410.452 378.507 410.363 377.794 Q410.276 377.075 409.56 376.662 Q408.898 376.28 408.258 376.532 Q407.616 376.776 407.139 377.603 L406.635 378.475 L405.803 377.994 L406.33 377.082 Q406.761 376.335 406.694 375.769 Q406.622 375.199 406.061 374.875 Q405.484 374.542 404.941 374.777 Q404.396 375.003 403.956 375.765 Q403.716 376.181 403.531 376.709 Q403.347 377.238 403.207 377.919 L402.305 377.398 Q402.478 376.729 402.687 376.182 Q402.899 375.629 403.156 375.183 Q403.822 374.03 404.736 373.663 Q405.645 373.292 406.537 373.807 Q407.158 374.166 407.384 374.771 Q407.604 375.372 407.391 376.124 Z" fill="#000000" fill-rule="evenodd" fill-opacity="1" /><path clip-path="url(#clip660)" d="M 0 0 M409.383 374.548 L410.943 371.847 L411.765 372.322 L410.205 375.023 L409.383 374.548 Z" fill="#000000" fill-rule="evenodd" fill-opacity="1" /><path clip-path="url(#clip660)" d="M 0 0 M409.233 366.51 Q408.782 367.292 409.325 368.133 Q409.866 368.967 411.41 369.858 Q412.948 370.746 413.946 370.801 Q414.941 370.848 415.393 370.066 Q415.847 369.279 415.306 368.445 Q414.762 367.604 413.224 366.716 Q411.68 365.824 410.685 365.778 Q409.687 365.723 409.233 366.51 M408.431 366.047 Q409.158 364.789 410.537 364.703 Q411.914 364.61 413.808 365.703 Q415.698 366.794 416.31 368.036 Q416.921 369.271 416.194 370.529 Q415.468 371.787 414.091 371.88 Q412.712 371.966 410.822 370.875 Q408.928 369.782 408.318 368.547 Q407.705 367.305 408.431 366.047 Z" fill="#000000" fill-rule="evenodd" fill-opacity="1" /><path clip-path="url(#clip660)" d="M 0 0 M410.699 362.431 L412.994 358.457 L413.846 358.949 L412.086 361.996 L413.921 363.055 Q413.973 362.791 414.065 362.55 Q414.152 362.307 414.28 362.086 Q415.003 360.833 416.112 360.498 Q417.221 360.163 418.394 360.84 Q419.602 361.537 419.839 362.677 Q420.072 363.813 419.282 365.181 Q419.01 365.652 418.646 366.097 Q418.285 366.537 417.824 366.966 L416.806 366.378 Q417.312 366.069 417.711 365.657 Q418.109 365.246 418.418 364.71 Q418.919 363.843 418.755 363.073 Q418.591 362.304 417.809 361.852 Q417.027 361.401 416.279 361.644 Q415.531 361.887 415.03 362.754 Q414.796 363.159 414.652 363.618 Q414.51 364.071 414.458 364.601 L410.699 362.431 Z" fill="#000000" fill-rule="evenodd" fill-opacity="1" /><path clip-path="url(#clip660)" d="M 0 0 M417.861 359.864 L419.421 357.163 L420.243 357.637 L418.683 360.339 L417.861 359.864 Z" fill="#000000" fill-rule="evenodd" fill-opacity="1" /><path clip-path="url(#clip660)" d="M 0 0 M417.711 351.826 Q417.26 352.607 417.803 353.449 Q418.344 354.282 419.888 355.174 Q421.426 356.062 422.424 356.117 Q423.419 356.163 423.87 355.382 Q424.325 354.595 423.784 353.761 Q423.24 352.92 421.702 352.031 Q420.158 351.14 419.163 351.093 Q418.165 351.039 417.711 351.826 M416.909 351.363 Q417.636 350.105 419.015 350.019 Q420.392 349.925 422.286 351.019 Q424.176 352.11 424.788 353.352 Q425.399 354.587 424.672 355.845 Q423.946 357.103 422.569 357.196 Q421.19 357.282 419.3 356.191 Q417.406 355.097 416.795 353.863 Q416.183 352.62 416.909 351.363 Z" fill="#000000" fill-rule="evenodd" fill-opacity="1" /><path clip-path="url(#clip660)" d="M 0 0 M424.35 347.861 Q423.934 348.582 424.08 349.221 Q424.228 349.855 424.905 350.245 Q425.581 350.636 426.204 350.448 Q426.831 350.255 427.247 349.533 Q427.664 348.811 427.518 348.173 Q427.367 347.531 426.696 347.143 Q426.019 346.753 425.393 346.946 Q424.77 347.134 424.35 347.861 M423.335 348.624 Q422.798 349.183 422.141 349.291 Q421.487 349.395 420.845 349.024 Q419.948 348.506 419.794 347.569 Q419.644 346.627 420.286 345.514 Q420.931 344.396 421.82 344.061 Q422.709 343.725 423.606 344.243 Q424.247 344.613 424.482 345.237 Q424.72 345.855 424.507 346.594 Q425.1 345.961 425.83 345.842 Q426.564 345.717 427.28 346.131 Q428.368 346.759 428.564 347.761 Q428.764 348.758 428.049 349.996 Q427.334 351.234 426.368 351.565 Q425.405 351.891 424.317 351.263 Q423.601 350.849 423.342 350.152 Q423.083 349.454 423.335 348.624 M421.522 348.072 Q422.103 348.408 422.638 348.235 Q423.175 348.057 423.554 347.4 Q423.93 346.749 423.815 346.195 Q423.704 345.636 423.122 345.3 Q422.541 344.965 422.001 345.148 Q421.464 345.325 421.088 345.977 Q420.709 346.633 420.823 347.187 Q420.941 347.736 421.522 348.072 Z" fill="#000000" fill-rule="evenodd" fill-opacity="1" /><path clip-path="url(#clip660)" d="M 0 0 M470.694 396.5 L472.734 392.967 L473.586 393.459 L470.843 398.21 L469.991 397.718 Q469.728 396.797 469.298 395.226 Q468.867 393.647 468.724 393.224 Q468.458 392.422 468.192 392.015 Q467.924 391.599 467.558 391.388 Q466.962 391.044 466.343 391.248 Q465.727 391.447 465.339 392.118 Q465.064 392.595 464.923 393.221 Q464.784 393.843 464.773 394.638 L463.751 394.048 Q463.858 393.295 464.039 392.691 Q464.221 392.088 464.476 391.647 Q465.147 390.484 466.127 390.128 Q467.108 389.772 468.08 390.333 Q468.542 390.599 468.856 391.015 Q469.169 391.423 469.467 392.203 Q469.54 392.412 469.849 393.486 Q470.153 394.557 470.694 396.5 Z" fill="#000000" fill-rule="evenodd" fill-opacity="1" /><path clip-path="url(#clip660)" d="M 0 0 M468.654 386.261 Q468.203 387.043 468.746 387.884 Q469.287 388.718 470.831 389.609 Q472.369 390.497 473.367 390.552 Q474.362 390.599 474.814 389.817 Q475.268 389.03 474.727 388.197 Q474.183 387.355 472.645 386.467 Q471.101 385.576 470.106 385.529 Q469.108 385.474 468.654 386.261 M467.852 385.798 Q468.579 384.54 469.958 384.454 Q471.335 384.361 473.229 385.454 Q475.119 386.545 475.731 387.788 Q476.342 389.022 475.615 390.28 Q474.889 391.538 473.512 391.632 Q472.133 391.717 470.243 390.626 Q468.349 389.533 467.738 388.298 Q467.126 387.056 467.852 385.798 Z" fill="#000000" fill-rule="evenodd" fill-opacity="1" /><path clip-path="url(#clip660)" d="M 0 0 M477.248 385.149 L479.288 381.615 L480.14 382.107 L477.397 386.858 L476.545 386.366 Q476.281 385.446 475.852 383.875 Q475.421 382.296 475.277 381.872 Q475.012 381.071 474.746 380.663 Q474.478 380.248 474.112 380.037 Q473.516 379.692 472.897 379.896 Q472.281 380.095 471.893 380.767 Q471.618 381.243 471.477 381.87 Q471.338 382.491 471.327 383.287 L470.304 382.696 Q470.412 381.943 470.593 381.34 Q470.775 380.736 471.029 380.295 Q471.701 379.132 472.681 378.776 Q473.662 378.42 474.634 378.982 Q475.095 379.248 475.41 379.664 Q475.723 380.071 476.021 380.851 Q476.094 381.061 476.402 382.134 Q476.706 383.205 477.248 385.149 Z" fill="#000000" fill-rule="evenodd" fill-opacity="1" /><path clip-path="url(#clip660)" d="M 0 0 M478.51 375.613 Q479.085 374.976 479.811 374.854 Q480.539 374.726 481.261 375.143 Q482.368 375.783 482.535 376.894 Q482.702 378.006 481.891 379.41 Q481.619 379.881 481.235 380.327 Q480.858 380.771 480.366 381.195 L479.389 380.631 Q479.877 380.352 480.292 379.923 Q480.707 379.494 481.022 378.948 Q481.572 377.996 481.482 377.282 Q481.396 376.564 480.679 376.15 Q480.018 375.768 479.378 376.02 Q478.736 376.265 478.258 377.091 L477.755 377.963 L476.923 377.483 L477.449 376.571 Q477.881 375.824 477.813 375.258 Q477.741 374.688 477.18 374.364 Q476.604 374.031 476.061 374.266 Q475.516 374.492 475.076 375.254 Q474.836 375.67 474.651 376.198 Q474.466 376.726 474.327 377.408 L473.425 376.887 Q473.597 376.218 473.806 375.67 Q474.018 375.118 474.276 374.672 Q474.941 373.519 475.855 373.152 Q476.764 372.781 477.656 373.296 Q478.278 373.655 478.503 374.259 Q478.724 374.861 478.51 375.613 Z" fill="#000000" fill-rule="evenodd" fill-opacity="1" /><path clip-path="url(#clip660)" d="M 0 0 M480.503 374.037 L482.062 371.336 L482.884 371.81 L481.325 374.512 L480.503 374.037 Z" fill="#000000" fill-rule="evenodd" fill-opacity="1" /><path clip-path="url(#clip660)" d="M 0 0 M480.353 365.999 Q479.901 366.78 480.444 367.622 Q480.985 368.456 482.529 369.347 Q484.068 370.235 485.065 370.29 Q486.061 370.337 486.512 369.555 Q486.966 368.768 486.425 367.934 Q485.882 367.093 484.343 366.204 Q482.8 365.313 481.804 365.266 Q480.807 365.212 480.353 365.999 M479.551 365.536 Q480.277 364.278 481.656 364.192 Q483.033 364.098 484.928 365.192 Q486.817 366.283 487.43 367.525 Q488.04 368.76 487.314 370.018 Q486.588 371.276 485.21 371.369 Q483.831 371.455 481.942 370.364 Q480.047 369.27 479.437 368.036 Q478.824 366.794 479.551 365.536 Z" fill="#000000" fill-rule="evenodd" fill-opacity="1" /><path clip-path="url(#clip660)" d="M 0 0 M481.819 361.92 L484.113 357.946 L484.965 358.438 L483.206 361.485 L485.04 362.544 Q485.092 362.28 485.184 362.039 Q485.272 361.796 485.399 361.575 Q486.122 360.322 487.231 359.987 Q488.34 359.652 489.513 360.329 Q490.721 361.026 490.959 362.165 Q491.191 363.302 490.401 364.67 Q490.129 365.141 489.765 365.586 Q489.405 366.026 488.943 366.455 L487.926 365.867 Q488.432 365.558 488.83 365.146 Q489.228 364.735 489.538 364.198 Q490.038 363.331 489.874 362.562 Q489.711 361.792 488.929 361.341 Q488.147 360.89 487.399 361.132 Q486.65 361.375 486.15 362.242 Q485.915 362.648 485.771 363.106 Q485.63 363.559 485.577 364.09 L481.819 361.92 Z" fill="#000000" fill-rule="evenodd" fill-opacity="1" /><path clip-path="url(#clip660)" d="M 0 0 M488.981 359.353 L490.54 356.652 L491.362 357.126 L489.803 359.827 L488.981 359.353 Z" fill="#000000" fill-rule="evenodd" fill-opacity="1" /><path clip-path="url(#clip660)" d="M 0 0 M493.646 356.747 L494.601 355.093 L488.892 351.798 L488.214 353.805 L487.292 353.273 L487.964 351.275 L488.549 350.263 L495.179 354.091 L496.134 352.437 L496.986 352.929 L494.498 357.239 L493.646 356.747 Z" fill="#000000" fill-rule="evenodd" fill-opacity="1" /><path clip-path="url(#clip660)" d="M 0 0 M496.869 351.164 L497.824 349.51 L492.116 346.215 L491.438 348.222 L490.516 347.69 L491.188 345.692 L491.772 344.68 L498.403 348.508 L499.358 346.854 L500.209 347.346 L497.721 351.656 L496.869 351.164 Z" fill="#000000" fill-rule="evenodd" fill-opacity="1" /><path clip-path="url(#clip660)" d="M 0 0 M541.345 396.801 L543.385 393.267 L544.237 393.759 L541.494 398.51 L540.642 398.019 Q540.378 397.098 539.949 395.527 Q539.517 393.948 539.374 393.525 Q539.109 392.723 538.843 392.316 Q538.575 391.9 538.209 391.689 Q537.612 391.345 536.994 391.549 Q536.378 391.748 535.99 392.419 Q535.715 392.895 535.574 393.522 Q535.435 394.144 535.424 394.939 L534.401 394.349 Q534.509 393.595 534.69 392.992 Q534.872 392.388 535.126 391.947 Q535.798 390.785 536.778 390.429 Q537.759 390.073 538.731 390.634 Q539.192 390.9 539.507 391.316 Q539.819 391.723 540.117 392.504 Q540.19 392.713 540.499 393.786 Q540.803 394.857 541.345 396.801 Z" fill="#000000" fill-rule="evenodd" fill-opacity="1" /><path clip-path="url(#clip660)" d="M 0 0 M539.305 386.562 Q538.853 387.343 539.397 388.185 Q539.938 389.019 541.481 389.91 Q543.02 390.798 544.017 390.853 Q545.013 390.9 545.464 390.118 Q545.918 389.331 545.377 388.497 Q544.834 387.656 543.296 386.767 Q541.752 385.876 540.757 385.829 Q539.759 385.775 539.305 386.562 M538.503 386.099 Q539.229 384.841 540.608 384.755 Q541.986 384.661 543.88 385.755 Q545.769 386.846 546.382 388.088 Q546.992 389.323 546.266 390.581 Q545.54 391.839 544.163 391.932 Q542.783 392.018 540.894 390.927 Q539 389.833 538.389 388.599 Q537.777 387.357 538.503 386.099 Z" fill="#000000" fill-rule="evenodd" fill-opacity="1" /><path clip-path="url(#clip660)" d="M 0 0 M547.899 385.449 L549.939 381.916 L550.791 382.408 L548.048 387.159 L547.196 386.667 Q546.932 385.746 546.503 384.175 Q546.071 382.596 545.928 382.173 Q545.662 381.371 545.397 380.964 Q545.129 380.549 544.763 380.337 Q544.166 379.993 543.547 380.197 Q542.931 380.396 542.544 381.068 Q542.269 381.544 542.127 382.17 Q541.989 382.792 541.977 383.587 L540.955 382.997 Q541.063 382.244 541.244 381.64 Q541.425 381.037 541.68 380.596 Q542.351 379.433 543.332 379.077 Q544.313 378.721 545.285 379.282 Q545.746 379.549 546.061 379.964 Q546.373 380.372 546.671 381.152 Q546.744 381.361 547.053 382.435 Q547.357 383.506 547.899 385.449 Z" fill="#000000" fill-rule="evenodd" fill-opacity="1" /><path clip-path="url(#clip660)" d="M 0 0 M549.161 375.914 Q549.736 375.277 550.461 375.154 Q551.19 375.027 551.911 375.444 Q553.019 376.083 553.186 377.195 Q553.352 378.307 552.542 379.71 Q552.27 380.181 551.885 380.628 Q551.509 381.072 551.017 381.496 L550.039 380.932 Q550.528 380.652 550.943 380.224 Q551.357 379.795 551.673 379.248 Q552.222 378.296 552.133 377.583 Q552.047 376.865 551.33 376.451 Q550.668 376.069 550.028 376.321 Q549.386 376.565 548.909 377.392 L548.405 378.264 L547.573 377.784 L548.1 376.872 Q548.531 376.125 548.464 375.558 Q548.392 374.989 547.831 374.665 Q547.254 374.332 546.711 374.566 Q546.166 374.793 545.726 375.555 Q545.486 375.971 545.302 376.499 Q545.117 377.027 544.977 377.708 L544.075 377.188 Q544.248 376.519 544.457 375.971 Q544.669 375.419 544.927 374.973 Q545.592 373.82 546.506 373.452 Q547.415 373.082 548.307 373.597 Q548.928 373.955 549.154 374.56 Q549.375 375.162 549.161 375.914 Z" fill="#000000" fill-rule="evenodd" fill-opacity="1" /><path clip-path="url(#clip660)" d="M 0 0 M551.153 374.338 L552.713 371.637 L553.535 372.111 L551.975 374.812 L551.153 374.338 Z" fill="#000000" fill-rule="evenodd" fill-opacity="1" /><path clip-path="url(#clip660)" d="M 0 0 M551.003 366.299 Q550.552 367.081 551.095 367.923 Q551.636 368.756 553.18 369.647 Q554.718 370.536 555.716 370.59 Q556.711 370.637 557.163 369.855 Q557.617 369.069 557.076 368.235 Q556.533 367.393 554.994 366.505 Q553.45 365.614 552.455 365.567 Q551.458 365.512 551.003 366.299 M550.201 365.836 Q550.928 364.578 552.307 364.493 Q553.684 364.399 555.578 365.493 Q557.468 366.584 558.08 367.826 Q558.691 369.06 557.964 370.318 Q557.238 371.576 555.861 371.67 Q554.482 371.756 552.592 370.665 Q550.698 369.571 550.088 368.337 Q549.475 367.094 550.201 365.836 Z" fill="#000000" fill-rule="evenodd" fill-opacity="1" /><path clip-path="url(#clip660)" d="M 0 0 M552.469 362.221 L554.764 358.247 L555.616 358.738 L553.856 361.786 L555.691 362.845 Q555.743 362.581 555.835 362.34 Q555.922 362.096 556.05 361.876 Q556.773 360.623 557.882 360.288 Q558.991 359.952 560.164 360.629 Q561.372 361.327 561.609 362.466 Q561.842 363.603 561.052 364.971 Q560.78 365.442 560.416 365.887 Q560.055 366.327 559.594 366.755 L558.577 366.168 Q559.083 365.859 559.481 365.447 Q559.879 365.035 560.188 364.499 Q560.689 363.632 560.525 362.863 Q560.361 362.093 559.579 361.642 Q558.798 361.19 558.049 361.433 Q557.301 361.676 556.8 362.543 Q556.566 362.949 556.422 363.407 Q556.281 363.86 556.228 364.391 L552.469 362.221 Z" fill="#000000" fill-rule="evenodd" fill-opacity="1" /><path clip-path="url(#clip660)" d="M 0 0 M559.631 359.654 L561.191 356.952 L562.013 357.427 L560.453 360.128 L559.631 359.654 Z" fill="#000000" fill-rule="evenodd" fill-opacity="1" /><path clip-path="url(#clip660)" d="M 0 0 M564.296 357.048 L565.251 355.394 L559.543 352.098 L558.865 354.106 L557.943 353.574 L558.615 351.576 L559.199 350.564 L565.83 354.392 L566.785 352.738 L567.637 353.23 L565.148 357.54 L564.296 357.048 Z" fill="#000000" fill-rule="evenodd" fill-opacity="1" /><path clip-path="url(#clip660)" d="M 0 0 M565.448 347.449 Q565.055 348.131 565.289 348.801 Q565.527 349.466 566.339 349.934 Q567.146 350.4 567.845 350.276 Q568.543 350.144 568.936 349.463 Q569.33 348.781 569.092 348.116 Q568.853 347.443 568.046 346.977 Q567.234 346.509 566.536 346.641 Q565.842 346.767 565.448 347.449 M563.436 343.608 L564.358 344.14 Q563.958 344.417 563.637 344.753 Q563.319 345.084 563.099 345.465 Q562.52 346.467 562.89 347.389 Q563.263 348.306 564.588 349.171 Q564.322 348.623 564.349 348.044 Q564.371 347.462 564.681 346.926 Q565.332 345.798 566.395 345.543 Q567.455 345.28 568.633 345.96 Q569.786 346.626 570.089 347.709 Q570.392 348.793 569.738 349.926 Q568.989 351.224 567.6 351.338 Q566.206 351.448 564.317 350.357 Q562.543 349.333 561.976 347.884 Q561.405 346.431 562.224 345.013 Q562.444 344.632 562.742 344.289 Q563.043 343.942 563.436 343.608 Z" fill="#000000" fill-rule="evenodd" fill-opacity="1" /><polyline clip-path="url(#clip662)" style="stroke:#000000; stroke-width:0.5; stroke-opacity:0.1; fill:none" points="
  40.1507,298.515 588.189,298.515 
  "/>
<polyline clip-path="url(#clip662)" style="stroke:#000000; stroke-width:0.5; stroke-opacity:0.1; fill:none" points="
  40.1507,212.87 588.189,212.87 
  "/>
<polyline clip-path="url(#clip662)" style="stroke:#000000; stroke-width:0.5; stroke-opacity:0.1; fill:none" points="
  40.1507,127.225 588.189,127.225 
  "/>
<polyline clip-path="url(#clip662)" style="stroke:#000000; stroke-width:0.5; stroke-opacity:0.1; fill:none" points="
  40.1507,41.5795 588.189,41.5795 
  "/>
<polyline clip-path="url(#clip660)" style="stroke:#000000; stroke-width:1; stroke-opacity:1; fill:none" points="
  40.1507,337.362 40.1507,11.811 
  "/>
<polyline clip-path="url(#clip660)" style="stroke:#000000; stroke-width:1; stroke-opacity:1; fill:none" points="
  40.1507,298.515 46.7272,298.515 
  "/>
<polyline clip-path="url(#clip660)" style="stroke:#000000; stroke-width:1; stroke-opacity:1; fill:none" points="
  40.1507,212.87 46.7272,212.87 
  "/>
<polyline clip-path="url(#clip660)" style="stroke:#000000; stroke-width:1; stroke-opacity:1; fill:none" points="
  40.1507,127.225 46.7272,127.225 
  "/>
<polyline clip-path="url(#clip660)" style="stroke:#000000; stroke-width:1; stroke-opacity:1; fill:none" points="
  40.1507,41.5795 46.7272,41.5795 
  "/>
<path clip-path="url(#clip660)" d="M 0 0 M12.9159 301.851 L14.8256 301.851 L14.8256 295.26 L12.748 295.677 L12.748 294.612 L14.814 294.195 L15.983 294.195 L15.983 301.851 L17.8927 301.851 L17.8927 302.835 L12.9159 302.835 L12.9159 301.851 Z" fill="#000000" fill-rule="evenodd" fill-opacity="1" /><path clip-path="url(#clip660)" d="M 0 0 M21.66 294.965 Q20.7572 294.965 20.3001 295.856 Q19.8487 296.741 19.8487 298.524 Q19.8487 300.3 20.3001 301.192 Q20.7572 302.077 21.66 302.077 Q22.5686 302.077 23.02 301.192 Q23.4771 300.3 23.4771 298.524 Q23.4771 296.741 23.02 295.856 Q22.5686 294.965 21.66 294.965 M21.66 294.039 Q23.1126 294.039 23.8764 295.19 Q24.6461 296.336 24.6461 298.524 Q24.6461 300.705 23.8764 301.857 Q23.1126 303.003 21.66 303.003 Q20.2075 303.003 19.4378 301.857 Q18.6739 300.705 18.6739 298.524 Q18.6739 296.336 19.4378 295.19 Q20.2075 294.039 21.66 294.039 Z" fill="#000000" fill-rule="evenodd" fill-opacity="1" /><path clip-path="url(#clip660)" d="M 0 0 M25.925 294.195 L30.5141 294.195 L30.5141 295.179 L26.9956 295.179 L26.9956 297.297 Q27.2503 297.21 27.5049 297.17 Q27.7595 297.123 28.0142 297.123 Q29.4609 297.123 30.3058 297.916 Q31.1507 298.709 31.1507 300.063 Q31.1507 301.458 30.2827 302.233 Q29.4146 303.003 27.8348 303.003 Q27.2908 303.003 26.7237 302.91 Q26.1623 302.818 25.5605 302.633 L25.5605 301.458 Q26.0813 301.741 26.6368 301.88 Q27.1924 302.019 27.8116 302.019 Q28.8128 302.019 29.3972 301.492 Q29.9817 300.966 29.9817 300.063 Q29.9817 299.16 29.3972 298.634 Q28.8128 298.107 27.8116 298.107 Q27.3429 298.107 26.8741 298.211 Q26.4112 298.315 25.925 298.535 L25.925 294.195 Z" fill="#000000" fill-rule="evenodd" fill-opacity="1" /><path clip-path="url(#clip660)" d="M 0 0 M12.9737 216.206 L14.8834 216.206 L14.8834 209.615 L12.8059 210.031 L12.8059 208.967 L14.8719 208.55 L16.0408 208.55 L16.0408 216.206 L17.9505 216.206 L17.9505 217.19 L12.9737 217.19 L12.9737 216.206 Z" fill="#000000" fill-rule="evenodd" fill-opacity="1" /><path clip-path="url(#clip660)" d="M 0 0 M19.4204 216.206 L21.3302 216.206 L21.3302 209.615 L19.2526 210.031 L19.2526 208.967 L21.3186 208.55 L22.4876 208.55 L22.4876 216.206 L24.3973 216.206 L24.3973 217.19 L19.4204 217.19 L19.4204 216.206 Z" fill="#000000" fill-rule="evenodd" fill-opacity="1" /><path clip-path="url(#clip660)" d="M 0 0 M28.1646 209.32 Q27.2618 209.32 26.8047 210.211 Q26.3533 211.096 26.3533 212.879 Q26.3533 214.655 26.8047 215.546 Q27.2618 216.432 28.1646 216.432 Q29.0732 216.432 29.5246 215.546 Q29.9817 214.655 29.9817 212.879 Q29.9817 211.096 29.5246 210.211 Q29.0732 209.32 28.1646 209.32 M28.1646 208.394 Q29.6172 208.394 30.381 209.545 Q31.1507 210.691 31.1507 212.879 Q31.1507 215.06 30.381 216.212 Q29.6172 217.358 28.1646 217.358 Q26.7121 217.358 25.9424 216.212 Q25.1785 215.06 25.1785 212.879 Q25.1785 210.691 25.9424 209.545 Q26.7121 208.394 28.1646 208.394 Z" fill="#000000" fill-rule="evenodd" fill-opacity="1" /><path clip-path="url(#clip660)" d="M 0 0 M13.2226 130.561 L15.1323 130.561 L15.1323 123.97 L13.0547 124.386 L13.0547 123.321 L15.1207 122.905 L16.2897 122.905 L16.2897 130.561 L18.1994 130.561 L18.1994 131.545 L13.2226 131.545 L13.2226 130.561 Z" fill="#000000" fill-rule="evenodd" fill-opacity="1" /><path clip-path="url(#clip660)" d="M 0 0 M19.6693 130.561 L21.579 130.561 L21.579 123.97 L19.5015 124.386 L19.5015 123.321 L21.5674 122.905 L22.7364 122.905 L22.7364 130.561 L24.6461 130.561 L24.6461 131.545 L19.6693 131.545 L19.6693 130.561 Z" fill="#000000" fill-rule="evenodd" fill-opacity="1" /><path clip-path="url(#clip660)" d="M 0 0 M25.925 122.905 L30.5141 122.905 L30.5141 123.888 L26.9956 123.888 L26.9956 126.007 Q27.2503 125.92 27.5049 125.879 Q27.7595 125.833 28.0142 125.833 Q29.4609 125.833 30.3058 126.626 Q31.1507 127.419 31.1507 128.773 Q31.1507 130.167 30.2827 130.943 Q29.4146 131.713 27.8348 131.713 Q27.2908 131.713 26.7237 131.62 Q26.1623 131.527 25.5605 131.342 L25.5605 130.167 Q26.0813 130.451 26.6368 130.59 Q27.1924 130.729 27.8116 130.729 Q28.8128 130.729 29.3972 130.202 Q29.9817 129.675 29.9817 128.773 Q29.9817 127.87 29.3972 127.343 Q28.8128 126.817 27.8116 126.817 Q27.3429 126.817 26.8741 126.921 Q26.4112 127.025 25.925 127.245 L25.925 122.905 Z" fill="#000000" fill-rule="evenodd" fill-opacity="1" /><path clip-path="url(#clip660)" d="M 0 0 M13.0663 44.9157 L14.976 44.9157 L14.976 38.3243 L12.8985 38.741 L12.8985 37.6762 L14.9645 37.2595 L16.1334 37.2595 L16.1334 44.9157 L18.0431 44.9157 L18.0431 45.8995 L13.0663 45.8995 L13.0663 44.9157 Z" fill="#000000" fill-rule="evenodd" fill-opacity="1" /><path clip-path="url(#clip660)" d="M 0 0 M20.3174 44.9157 L24.3973 44.9157 L24.3973 45.8995 L18.9112 45.8995 L18.9112 44.9157 Q19.5767 44.2271 20.7225 43.0697 Q21.8741 41.9065 22.1693 41.5708 Q22.7306 40.9401 22.9505 40.506 Q23.1762 40.0662 23.1762 39.6438 Q23.1762 38.9551 22.6901 38.5211 Q22.2098 38.0871 21.4343 38.0871 Q20.8846 38.0871 20.2711 38.278 Q19.6635 38.469 18.9691 38.8567 L18.9691 37.6762 Q19.6751 37.3926 20.2885 37.2479 Q20.9019 37.1033 21.4112 37.1033 Q22.7538 37.1033 23.5524 37.7746 Q24.351 38.4459 24.351 39.5685 Q24.351 40.1009 24.1484 40.5813 Q23.9517 41.0558 23.4251 41.7039 Q23.2804 41.8718 22.5049 42.6762 Q21.7295 43.4748 20.3174 44.9157 Z" fill="#000000" fill-rule="evenodd" fill-opacity="1" /><path clip-path="url(#clip660)" d="M 0 0 M28.1646 38.0292 Q27.2618 38.0292 26.8047 38.9204 Q26.3533 39.8058 26.3533 41.5882 Q26.3533 43.3648 26.8047 44.256 Q27.2618 45.1414 28.1646 45.1414 Q29.0732 45.1414 29.5246 44.256 Q29.9817 43.3648 29.9817 41.5882 Q29.9817 39.8058 29.5246 38.9204 Q29.0732 38.0292 28.1646 38.0292 M28.1646 37.1033 Q29.6172 37.1033 30.381 38.2549 Q31.1507 39.4007 31.1507 41.5882 Q31.1507 43.7699 30.381 44.9215 Q29.6172 46.0673 28.1646 46.0673 Q26.7121 46.0673 25.9424 44.9215 Q25.1785 43.7699 25.1785 41.5882 Q25.1785 39.4007 25.9424 38.2549 Q26.7121 37.1033 28.1646 37.1033 Z" fill="#000000" fill-rule="evenodd" fill-opacity="1" /><path clip-path="url(#clip662)" d="
M66.2849 293.034 L66.2849 291.15 L55.6612 291.15 L55.6612 274.192 L66.2849 274.192 L66.2849 269.224 L66.2849 274.192 L76.9085 274.192 L76.9085 291.15 L66.2849 291.15 
  L66.2849 293.034  Z
  " fill="#008000" fill-rule="evenodd" fill-opacity="1"/>
<polyline clip-path="url(#clip662)" style="stroke:#008000; stroke-width:0.5; stroke-opacity:1; fill:none" points="
  66.2849,293.034 66.2849,291.15 55.6612,291.15 55.6612,274.192 66.2849,274.192 66.2849,269.224 66.2849,274.192 76.9085,274.192 76.9085,291.15 66.2849,291.15 
  66.2849,293.034 
  "/>
<path clip-path="url(#clip662)" d="
M89.893 302.283 L89.893 296.46 L79.2693 296.46 L79.2693 264.257 L89.893 264.257 L89.893 263.4 L89.893 264.257 L100.517 264.257 L100.517 296.46 L89.893 296.46 
  L89.893 302.283  Z
  " fill="#ff0000" fill-rule="evenodd" fill-opacity="1"/>
<polyline clip-path="url(#clip662)" style="stroke:#ff0000; stroke-width:0.5; stroke-opacity:1; fill:none" points="
  89.893,302.283 89.893,296.46 79.2693,296.46 79.2693,264.257 89.893,264.257 89.893,263.4 89.893,264.257 100.517,264.257 100.517,296.46 89.893,296.46 
  89.893,302.283 
  "/>
<path clip-path="url(#clip662)" d="
M113.501 319.07 L113.501 311.961 L102.877 311.961 L102.877 298.173 L113.501 298.173 L113.501 286.097 L113.501 298.173 L124.125 298.173 L124.125 311.961 L113.501 311.961 
  L113.501 319.07  Z
  " fill="#008000" fill-rule="evenodd" fill-opacity="1"/>
<polyline clip-path="url(#clip662)" style="stroke:#008000; stroke-width:0.5; stroke-opacity:1; fill:none" points="
  113.501,319.07 113.501,311.961 102.877,311.961 102.877,298.173 113.501,298.173 113.501,286.097 113.501,298.173 124.125,298.173 124.125,311.961 113.501,311.961 
  113.501,319.07 
  "/>
<path clip-path="url(#clip662)" d="
M137.109 304.682 L137.109 304.51 L126.486 304.51 L126.486 283.099 L137.109 283.099 L137.109 266.175 L137.109 283.099 L147.733 283.099 L147.733 304.51 L137.109 304.51 
  L137.109 304.682  Z
  " fill="#008000" fill-rule="evenodd" fill-opacity="1"/>
<polyline clip-path="url(#clip662)" style="stroke:#008000; stroke-width:0.5; stroke-opacity:1; fill:none" points="
  137.109,304.682 137.109,304.51 126.486,304.51 126.486,283.099 137.109,283.099 137.109,266.175 137.109,283.099 147.733,283.099 147.733,304.51 137.109,304.51 
  137.109,304.682 
  "/>
<path clip-path="url(#clip662)" d="
M160.717 290.207 L160.717 282.928 L150.094 282.928 L150.094 279.844 L160.717 279.844 L160.717 270.423 L160.717 279.844 L171.341 279.844 L171.341 282.928 L160.717 282.928 
  L160.717 290.207  Z
  " fill="#ff0000" fill-rule="evenodd" fill-opacity="1"/>
<polyline clip-path="url(#clip662)" style="stroke:#ff0000; stroke-width:0.5; stroke-opacity:1; fill:none" points="
  160.717,290.207 160.717,282.928 150.094,282.928 150.094,279.844 160.717,279.844 160.717,270.423 160.717,279.844 171.341,279.844 171.341,282.928 160.717,282.928 
  160.717,290.207 
  "/>
<path clip-path="url(#clip662)" d="
M184.325 292.349 L184.325 280.53 L173.702 280.53 L173.702 268.025 L184.325 268.025 L184.325 258.776 L184.325 268.025 L194.949 268.025 L194.949 280.53 L184.325 280.53 
  L184.325 292.349  Z
  " fill="#008000" fill-rule="evenodd" fill-opacity="1"/>
<polyline clip-path="url(#clip662)" style="stroke:#008000; stroke-width:0.5; stroke-opacity:1; fill:none" points="
  184.325,292.349 184.325,280.53 173.702,280.53 173.702,268.025 184.325,268.025 184.325,258.776 184.325,268.025 194.949,268.025 194.949,280.53 184.325,280.53 
  184.325,292.349 
  "/>
<path clip-path="url(#clip662)" d="
M207.933 306.052 L207.933 305.195 L197.31 305.195 L197.31 270.937 L207.933 270.937 L207.933 256.72 L207.933 270.937 L218.557 270.937 L218.557 305.195 L207.933 305.195 
  L207.933 306.052  Z
  " fill="#ff0000" fill-rule="evenodd" fill-opacity="1"/>
<polyline clip-path="url(#clip662)" style="stroke:#ff0000; stroke-width:0.5; stroke-opacity:1; fill:none" points="
  207.933,306.052 207.933,305.195 197.31,305.195 197.31,270.937 207.933,270.937 207.933,256.72 207.933,270.937 218.557,270.937 218.557,305.195 207.933,305.195 
  207.933,306.052 
  "/>
<path clip-path="url(#clip662)" d="
M231.542 328.148 L231.542 307.936 L220.918 307.936 L220.918 288.923 L231.542 288.923 L231.542 263.914 L231.542 288.923 L242.165 288.923 L242.165 307.936 L231.542 307.936 
  L231.542 328.148  Z
  " fill="#ff0000" fill-rule="evenodd" fill-opacity="1"/>
<polyline clip-path="url(#clip662)" style="stroke:#ff0000; stroke-width:0.5; stroke-opacity:1; fill:none" points="
  231.542,328.148 231.542,307.936 220.918,307.936 220.918,288.923 231.542,288.923 231.542,263.914 231.542,288.923 242.165,288.923 242.165,307.936 231.542,307.936 
  231.542,328.148 
  "/>
<path clip-path="url(#clip662)" d="
M255.15 308.45 L255.15 294.575 L244.526 294.575 L244.526 240.79 L255.15 240.79 L255.15 227.43 L255.15 240.79 L265.773 240.79 L265.773 294.575 L255.15 294.575 
  L255.15 308.45  Z
  " fill="#008000" fill-rule="evenodd" fill-opacity="1"/>
<polyline clip-path="url(#clip662)" style="stroke:#008000; stroke-width:0.5; stroke-opacity:1; fill:none" points="
  255.15,308.45 255.15,294.575 244.526,294.575 244.526,240.79 255.15,240.79 255.15,227.43 255.15,240.79 265.773,240.79 265.773,294.575 255.15,294.575 
  255.15,308.45 
  "/>
<path clip-path="url(#clip662)" d="
M278.758 280.701 L278.758 250.554 L268.134 250.554 L268.134 243.36 L278.758 243.36 L278.758 242.161 L278.758 243.36 L289.381 243.36 L289.381 250.554 L278.758 250.554 
  L278.758 280.701  Z
  " fill="#008000" fill-rule="evenodd" fill-opacity="1"/>
<polyline clip-path="url(#clip662)" style="stroke:#008000; stroke-width:0.5; stroke-opacity:1; fill:none" points="
  278.758,280.701 278.758,250.554 268.134,250.554 268.134,243.36 278.758,243.36 278.758,242.161 278.758,243.36 289.381,243.36 289.381,250.554 278.758,250.554 
  278.758,280.701 
  "/>
<path clip-path="url(#clip662)" d="
M302.366 255.692 L302.366 252.095 L291.742 252.095 L291.742 251.924 L302.366 251.924 L302.366 235.48 L302.366 251.924 L312.989 251.924 L312.989 252.095 L302.366 252.095 
  L302.366 255.692  Z
  " fill="#ff0000" fill-rule="evenodd" fill-opacity="1"/>
<polyline clip-path="url(#clip662)" style="stroke:#ff0000; stroke-width:0.5; stroke-opacity:1; fill:none" points="
  302.366,255.692 302.366,252.095 291.742,252.095 291.742,251.924 302.366,251.924 302.366,235.48 302.366,251.924 312.989,251.924 312.989,252.095 302.366,252.095 
  302.366,255.692 
  "/>
<path clip-path="url(#clip662)" d="
M325.974 307.08 L325.974 281.729 L315.35 281.729 L315.35 252.952 L325.974 252.952 L325.974 251.753 L325.974 252.952 L336.598 252.952 L336.598 281.729 L325.974 281.729 
  L325.974 307.08  Z
  " fill="#ff0000" fill-rule="evenodd" fill-opacity="1"/>
<polyline clip-path="url(#clip662)" style="stroke:#ff0000; stroke-width:0.5; stroke-opacity:1; fill:none" points="
  325.974,307.08 325.974,281.729 315.35,281.729 315.35,252.952 325.974,252.952 325.974,251.753 325.974,252.952 336.598,252.952 336.598,281.729 325.974,281.729 
  325.974,307.08 
  "/>
<path clip-path="url(#clip662)" d="
M349.582 287.895 L349.582 279.33 L338.958 279.33 L338.958 277.618 L349.582 277.618 L349.582 244.901 L349.582 277.618 L360.206 277.618 L360.206 279.33 L349.582 279.33 
  L349.582 287.895  Z
  " fill="#ff0000" fill-rule="evenodd" fill-opacity="1"/>
<polyline clip-path="url(#clip662)" style="stroke:#ff0000; stroke-width:0.5; stroke-opacity:1; fill:none" points="
  349.582,287.895 349.582,279.33 338.958,279.33 338.958,277.618 349.582,277.618 349.582,244.901 349.582,277.618 360.206,277.618 360.206,279.33 349.582,279.33 
  349.582,287.895 
  "/>
<path clip-path="url(#clip662)" d="
M373.19 303.654 L373.19 294.918 L362.566 294.918 L362.566 278.645 L373.19 278.645 L373.19 276.247 L373.19 278.645 L383.814 278.645 L383.814 294.918 L373.19 294.918 
  L373.19 303.654  Z
  " fill="#ff0000" fill-rule="evenodd" fill-opacity="1"/>
<polyline clip-path="url(#clip662)" style="stroke:#ff0000; stroke-width:0.5; stroke-opacity:1; fill:none" points="
  373.19,303.654 373.19,294.918 362.566,294.918 362.566,278.645 373.19,278.645 373.19,276.247 373.19,278.645 383.814,278.645 383.814,294.918 373.19,294.918 
  373.19,303.654 
  "/>
<path clip-path="url(#clip662)" d="
M396.798 302.986 L396.798 293.034 L386.175 293.034 L386.175 277.703 L396.798 277.703 L396.798 273.849 L396.798 277.703 L407.422 277.703 L407.422 293.034 L396.798 293.034 
  L396.798 302.986  Z
  " fill="#008000" fill-rule="evenodd" fill-opacity="1"/>
<polyline clip-path="url(#clip662)" style="stroke:#008000; stroke-width:0.5; stroke-opacity:1; fill:none" points="
  396.798,302.986 396.798,293.034 386.175,293.034 386.175,277.703 396.798,277.703 396.798,273.849 396.798,277.703 407.422,277.703 407.422,293.034 396.798,293.034 
  396.798,302.986 
  "/>
<path clip-path="url(#clip662)" d="
M420.406 284.983 L420.406 284.898 L409.783 284.898 L409.783 243.017 L420.406 243.017 L420.406 239.934 L420.406 243.017 L431.03 243.017 L431.03 284.898 L420.406 284.898 
  L420.406 284.983  Z
  " fill="#008000" fill-rule="evenodd" fill-opacity="1"/>
<polyline clip-path="url(#clip662)" style="stroke:#008000; stroke-width:0.5; stroke-opacity:1; fill:none" points="
  420.406,284.983 420.406,284.898 409.783,284.898 409.783,243.017 420.406,243.017 420.406,239.934 420.406,243.017 431.03,243.017 431.03,284.898 420.406,284.898 
  420.406,284.983 
  "/>
<path clip-path="url(#clip662)" d="
M444.014 251.838 L444.014 248.156 L433.391 248.156 L433.391 233.767 L444.014 233.767 L444.014 202.678 L444.014 233.767 L454.638 233.767 L454.638 248.156 L444.014 248.156 
  L444.014 251.838  Z
  " fill="#ff0000" fill-rule="evenodd" fill-opacity="1"/>
<polyline clip-path="url(#clip662)" style="stroke:#ff0000; stroke-width:0.5; stroke-opacity:1; fill:none" points="
  444.014,251.838 444.014,248.156 433.391,248.156 433.391,233.767 444.014,233.767 444.014,202.678 444.014,233.767 454.638,233.767 454.638,248.156 444.014,248.156 
  444.014,251.838 
  "/>
<path clip-path="url(#clip662)" d="
M467.622 238.906 L467.622 237.707 L456.999 237.707 L456.999 173.816 L467.622 173.816 L467.622 152.747 L467.622 173.816 L478.246 173.816 L478.246 237.707 L467.622 237.707 
  L467.622 238.906  Z
  " fill="#008000" fill-rule="evenodd" fill-opacity="1"/>
<polyline clip-path="url(#clip662)" style="stroke:#008000; stroke-width:0.5; stroke-opacity:1; fill:none" points="
  467.622,238.906 467.622,237.707 456.999,237.707 456.999,173.816 467.622,173.816 467.622,152.747 467.622,173.816 478.246,173.816 478.246,237.707 467.622,237.707 
  467.622,238.906 
  "/>
<path clip-path="url(#clip662)" d="
M491.231 128.424 L491.231 112.494 L480.607 112.494 L480.607 94.6795 L491.231 94.6795 L491.231 68.3008 L491.231 94.6795 L501.854 94.6795 L501.854 112.494 L491.231 112.494 
  L491.231 128.424  Z
  " fill="#008000" fill-rule="evenodd" fill-opacity="1"/>
<polyline clip-path="url(#clip662)" style="stroke:#008000; stroke-width:0.5; stroke-opacity:1; fill:none" points="
  491.231,128.424 491.231,112.494 480.607,112.494 480.607,94.6795 491.231,94.6795 491.231,68.3008 491.231,94.6795 501.854,94.6795 501.854,112.494 491.231,112.494 
  491.231,128.424 
  "/>
<path clip-path="url(#clip662)" d="
M514.839 100.675 L514.839 92.9666 L504.215 92.9666 L504.215 77.208 L514.839 77.208 L514.839 71.384 L514.839 77.208 L525.462 77.208 L525.462 92.9666 L514.839 92.9666 
  L514.839 100.675  Z
  " fill="#008000" fill-rule="evenodd" fill-opacity="1"/>
<polyline clip-path="url(#clip662)" style="stroke:#008000; stroke-width:0.5; stroke-opacity:1; fill:none" points="
  514.839,100.675 514.839,92.9666 504.215,92.9666 504.215,77.208 514.839,77.208 514.839,71.384 514.839,77.208 525.462,77.208 525.462,92.9666 514.839,92.9666 
  514.839,100.675 
  "/>
<path clip-path="url(#clip662)" d="
M538.447 101.874 L538.447 101.702 L527.823 101.702 L527.823 93.6518 L538.447 93.6518 L538.447 62.22 L538.447 93.6518 L549.07 93.6518 L549.07 101.702 L538.447 101.702 
  L538.447 101.874  Z
  " fill="#008000" fill-rule="evenodd" fill-opacity="1"/>
<polyline clip-path="url(#clip662)" style="stroke:#008000; stroke-width:0.5; stroke-opacity:1; fill:none" points="
  538.447,101.874 538.447,101.702 527.823,101.702 527.823,93.6518 538.447,93.6518 538.447,62.22 538.447,93.6518 549.07,93.6518 549.07,101.702 538.447,101.702 
  538.447,101.874 
  "/>
<path clip-path="url(#clip662)" d="
M562.055 95.7073 L562.055 95.8785 L551.431 95.8785 L551.431 40.038 L562.055 40.038 L562.055 21.0247 L562.055 40.038 L572.678 40.038 L572.678 95.8785 L562.055 95.8785 
  L562.055 95.7073  Z
  " fill="#008000" fill-rule="evenodd" fill-opacity="1"/>
<polyline clip-path="url(#clip662)" style="stroke:#008000; stroke-width:0.5; stroke-opacity:1; fill:none" points="
  562.055,95.7073 562.055,95.8785 551.431,95.8785 551.431,40.038 562.055,40.038 562.055,21.0247 562.055,40.038 572.678,40.038 572.678,95.8785 562.055,95.8785 
  562.055,95.7073 
  "/>
<circle clip-path="url(#clip662)" style="fill:#008000; stroke:none; fill-opacity:1" cx="66.2849" cy="282.671" r="2"/>
<circle clip-path="url(#clip662)" style="fill:#ff0000; stroke:none; fill-opacity:1" cx="89.893" cy="280.358" r="2"/>
<circle clip-path="url(#clip662)" style="fill:#008000; stroke:none; fill-opacity:1" cx="113.501" cy="305.067" r="2"/>
<circle clip-path="url(#clip662)" style="fill:#008000; stroke:none; fill-opacity:1" cx="137.109" cy="293.805" r="2"/>
<circle clip-path="url(#clip662)" style="fill:#ff0000; stroke:none; fill-opacity:1" cx="160.717" cy="281.386" r="2"/>
<circle clip-path="url(#clip662)" style="fill:#008000; stroke:none; fill-opacity:1" cx="184.325" cy="274.277" r="2"/>
<circle clip-path="url(#clip662)" style="fill:#ff0000; stroke:none; fill-opacity:1" cx="207.933" cy="288.066" r="2"/>
<circle clip-path="url(#clip662)" style="fill:#ff0000; stroke:none; fill-opacity:1" cx="231.542" cy="298.429" r="2"/>
<circle clip-path="url(#clip662)" style="fill:#008000; stroke:none; fill-opacity:1" cx="255.15" cy="267.683" r="2"/>
<circle clip-path="url(#clip662)" style="fill:#008000; stroke:none; fill-opacity:1" cx="278.758" cy="246.957" r="2"/>
<circle clip-path="url(#clip662)" style="fill:#ff0000; stroke:none; fill-opacity:1" cx="302.366" cy="252.01" r="2"/>
<circle clip-path="url(#clip662)" style="fill:#ff0000; stroke:none; fill-opacity:1" cx="325.974" cy="267.34" r="2"/>
<circle clip-path="url(#clip662)" style="fill:#ff0000; stroke:none; fill-opacity:1" cx="349.582" cy="278.474" r="2"/>
<circle clip-path="url(#clip662)" style="fill:#ff0000; stroke:none; fill-opacity:1" cx="373.19" cy="286.782" r="2"/>
<circle clip-path="url(#clip662)" style="fill:#008000; stroke:none; fill-opacity:1" cx="396.798" cy="285.369" r="2"/>
<circle clip-path="url(#clip662)" style="fill:#008000; stroke:none; fill-opacity:1" cx="420.406" cy="263.957" r="2"/>
<circle clip-path="url(#clip662)" style="fill:#ff0000; stroke:none; fill-opacity:1" cx="444.014" cy="240.961" r="2"/>
<circle clip-path="url(#clip662)" style="fill:#008000; stroke:none; fill-opacity:1" cx="467.622" cy="205.761" r="2"/>
<circle clip-path="url(#clip662)" style="fill:#008000; stroke:none; fill-opacity:1" cx="491.231" cy="103.587" r="2"/>
<circle clip-path="url(#clip662)" style="fill:#008000; stroke:none; fill-opacity:1" cx="514.839" cy="85.0873" r="2"/>
<circle clip-path="url(#clip662)" style="fill:#008000; stroke:none; fill-opacity:1" cx="538.447" cy="97.6771" r="2"/>
<circle clip-path="url(#clip662)" style="fill:#008000; stroke:none; fill-opacity:1" cx="562.055" cy="67.9583" r="2"/>
</svg>
