<?xml version="1.0" encoding="utf-8"?>
<svg xmlns="http://www.w3.org/2000/svg" xmlns:xlink="http://www.w3.org/1999/xlink" width="600" height="400" viewBox="0 0 2400 1600">
<defs>
  <clipPath id="clip300">
    <rect x="0" y="0" width="2400" height="1600"/>
  </clipPath>
</defs>
<path clip-path="url(#clip300)" d="M0 1600 L2400 1600 L2400 0 L0 0  Z" fill="#ffffff" fill-rule="evenodd" fill-opacity="1"/>
<defs>
  <clipPath id="clip301">
    <rect x="480" y="0" width="1681" height="1600"/>
  </clipPath>
</defs>
<path clip-path="url(#clip300)" d="M169.121 1486.45 L2352.76 1486.45 L2352.76 47.2441 L169.121 47.2441  Z" fill="#ffffff" fill-rule="evenodd" fill-opacity="1"/>
<defs>
  <clipPath id="clip302">
    <rect x="169" y="47" width="2185" height="1440"/>
  </clipPath>
</defs>
<polyline clip-path="url(#clip302)" style="stroke:#000000; stroke-linecap:round; stroke-linejoin:round; stroke-width:2; stroke-opacity:0.1; fill:none" points="230.922,1486.45 230.922,47.2441 "/>
<polyline clip-path="url(#clip302)" style="stroke:#000000; stroke-linecap:round; stroke-linejoin:round; stroke-width:2; stroke-opacity:0.1; fill:none" points="799.207,1486.45 799.207,47.2441 "/>
<polyline clip-path="url(#clip302)" style="stroke:#000000; stroke-linecap:round; stroke-linejoin:round; stroke-width:2; stroke-opacity:0.1; fill:none" points="1367.49,1486.45 1367.49,47.2441 "/>
<polyline clip-path="url(#clip302)" style="stroke:#000000; stroke-linecap:round; stroke-linejoin:round; stroke-width:2; stroke-opacity:0.1; fill:none" points="1935.78,1486.45 1935.78,47.2441 "/>
<polyline clip-path="url(#clip300)" style="stroke:#000000; stroke-linecap:round; stroke-linejoin:round; stroke-width:4; stroke-opacity:1; fill:none" points="169.121,1486.45 2352.76,1486.45 "/>
<polyline clip-path="url(#clip300)" style="stroke:#000000; stroke-linecap:round; stroke-linejoin:round; stroke-width:4; stroke-opacity:1; fill:none" points="230.922,1486.45 230.922,1467.55 "/>
<polyline clip-path="url(#clip300)" style="stroke:#000000; stroke-linecap:round; stroke-linejoin:round; stroke-width:4; stroke-opacity:1; fill:none" points="799.207,1486.45 799.207,1467.55 "/>
<polyline clip-path="url(#clip300)" style="stroke:#000000; stroke-linecap:round; stroke-linejoin:round; stroke-width:4; stroke-opacity:1; fill:none" points="1367.49,1486.45 1367.49,1467.55 "/>
<polyline clip-path="url(#clip300)" style="stroke:#000000; stroke-linecap:round; stroke-linejoin:round; stroke-width:4; stroke-opacity:1; fill:none" points="1935.78,1486.45 1935.78,1467.55 "/>
<path clip-path="url(#clip300)" d="M102.428 1544.91 L118.747 1544.91 L118.747 1548.85 L96.8026 1548.85 L96.8026 1544.91 Q99.4647 1542.16 104.048 1537.53 Q108.654 1532.88 109.835 1531.53 Q112.08 1529.01 112.96 1527.27 Q113.863 1525.51 113.863 1523.82 Q113.863 1521.07 111.918 1519.33 Q109.997 1517.6 106.895 1517.6 Q104.696 1517.6 102.242 1518.36 Q99.8119 1519.13 97.0341 1520.68 L97.0341 1515.95 Q99.8582 1514.82 102.312 1514.24 Q104.766 1513.66 106.803 1513.66 Q112.173 1513.66 115.367 1516.35 Q118.562 1519.03 118.562 1523.52 Q118.562 1525.65 117.752 1527.57 Q116.965 1529.47 114.858 1532.07 Q114.279 1532.74 111.178 1535.95 Q108.076 1539.15 102.428 1544.91 Z" fill="#000000" fill-rule="nonzero" fill-opacity="1" /><path clip-path="url(#clip300)" d="M138.562 1517.37 Q134.951 1517.37 133.122 1520.93 Q131.316 1524.47 131.316 1531.6 Q131.316 1538.71 133.122 1542.27 Q134.951 1545.82 138.562 1545.82 Q142.196 1545.82 144.001 1542.27 Q145.83 1538.71 145.83 1531.6 Q145.83 1524.47 144.001 1520.93 Q142.196 1517.37 138.562 1517.37 M138.562 1513.66 Q144.372 1513.66 147.427 1518.27 Q150.506 1522.85 150.506 1531.6 Q150.506 1540.33 147.427 1544.94 Q144.372 1549.52 138.562 1549.52 Q132.752 1549.52 129.673 1544.94 Q126.617 1540.33 126.617 1531.6 Q126.617 1522.85 129.673 1518.27 Q132.752 1513.66 138.562 1513.66 Z" fill="#000000" fill-rule="nonzero" fill-opacity="1" /><path clip-path="url(#clip300)" d="M162.751 1544.91 L179.071 1544.91 L179.071 1548.85 L157.126 1548.85 L157.126 1544.91 Q159.788 1542.16 164.372 1537.53 Q168.978 1532.88 170.159 1531.53 Q172.404 1529.01 173.284 1527.27 Q174.186 1525.51 174.186 1523.82 Q174.186 1521.07 172.242 1519.33 Q170.321 1517.6 167.219 1517.6 Q165.02 1517.6 162.566 1518.36 Q160.136 1519.13 157.358 1520.68 L157.358 1515.95 Q160.182 1514.82 162.636 1514.24 Q165.089 1513.66 167.126 1513.66 Q172.497 1513.66 175.691 1516.35 Q178.886 1519.03 178.886 1523.52 Q178.886 1525.65 178.075 1527.57 Q177.288 1529.47 175.182 1532.07 Q174.603 1532.74 171.501 1535.95 Q168.399 1539.15 162.751 1544.91 Z" fill="#000000" fill-rule="nonzero" fill-opacity="1" /><path clip-path="url(#clip300)" d="M203.052 1530.21 Q206.409 1530.93 208.284 1533.2 Q210.182 1535.47 210.182 1538.8 Q210.182 1543.92 206.663 1546.72 Q203.145 1549.52 196.663 1549.52 Q194.487 1549.52 192.173 1549.08 Q189.881 1548.66 187.427 1547.81 L187.427 1543.29 Q189.372 1544.43 191.686 1545.01 Q194.001 1545.58 196.524 1545.58 Q200.922 1545.58 203.214 1543.85 Q205.529 1542.11 205.529 1538.8 Q205.529 1535.75 203.376 1534.03 Q201.247 1532.3 197.427 1532.3 L193.399 1532.3 L193.399 1528.45 L197.612 1528.45 Q201.061 1528.45 202.89 1527.09 Q204.719 1525.7 204.719 1523.11 Q204.719 1520.45 202.821 1519.03 Q200.946 1517.6 197.427 1517.6 Q195.506 1517.6 193.307 1518.01 Q191.108 1518.43 188.469 1519.31 L188.469 1515.14 Q191.131 1514.4 193.446 1514.03 Q195.784 1513.66 197.844 1513.66 Q203.168 1513.66 206.27 1516.09 Q209.371 1518.5 209.371 1522.62 Q209.371 1525.49 207.728 1527.48 Q206.084 1529.45 203.052 1530.21 Z" fill="#000000" fill-rule="nonzero" fill-opacity="1" /><path clip-path="url(#clip300)" d="M216.293 1533.96 L228.77 1533.96 L228.77 1537.76 L216.293 1537.76 L216.293 1533.96 Z" fill="#000000" fill-rule="nonzero" fill-opacity="1" /><path clip-path="url(#clip300)" d="M236.964 1544.91 L244.603 1544.91 L244.603 1518.55 L236.293 1520.21 L236.293 1515.95 L244.556 1514.29 L249.232 1514.29 L249.232 1544.91 L256.871 1544.91 L256.871 1548.85 L236.964 1548.85 L236.964 1544.91 Z" fill="#000000" fill-rule="nonzero" fill-opacity="1" /><path clip-path="url(#clip300)" d="M276.316 1517.37 Q272.704 1517.37 270.876 1520.93 Q269.07 1524.47 269.07 1531.6 Q269.07 1538.71 270.876 1542.27 Q272.704 1545.82 276.316 1545.82 Q279.95 1545.82 281.755 1542.27 Q283.584 1538.71 283.584 1531.6 Q283.584 1524.47 281.755 1520.93 Q279.95 1517.37 276.316 1517.37 M276.316 1513.66 Q282.126 1513.66 285.181 1518.27 Q288.26 1522.85 288.26 1531.6 Q288.26 1540.33 285.181 1544.94 Q282.126 1549.52 276.316 1549.52 Q270.505 1549.52 267.427 1544.94 Q264.371 1540.33 264.371 1531.6 Q264.371 1522.85 267.427 1518.27 Q270.505 1513.66 276.316 1513.66 Z" fill="#000000" fill-rule="nonzero" fill-opacity="1" /><path clip-path="url(#clip300)" d="M293.723 1533.96 L306.2 1533.96 L306.2 1537.76 L293.723 1537.76 L293.723 1533.96 Z" fill="#000000" fill-rule="nonzero" fill-opacity="1" /><path clip-path="url(#clip300)" d="M317.612 1544.91 L333.931 1544.91 L333.931 1548.85 L311.987 1548.85 L311.987 1544.91 Q314.649 1542.16 319.232 1537.53 Q323.838 1532.88 325.019 1531.53 Q327.264 1529.01 328.144 1527.27 Q329.047 1525.51 329.047 1523.82 Q329.047 1521.07 327.102 1519.33 Q325.181 1517.6 322.079 1517.6 Q319.88 1517.6 317.426 1518.36 Q314.996 1519.13 312.218 1520.68 L312.218 1515.95 Q315.042 1514.82 317.496 1514.24 Q319.95 1513.66 321.987 1513.66 Q327.357 1513.66 330.551 1516.35 Q333.746 1519.03 333.746 1523.52 Q333.746 1525.65 332.936 1527.57 Q332.149 1529.47 330.042 1532.07 Q329.463 1532.74 326.362 1535.95 Q323.26 1539.15 317.612 1544.91 Z" fill="#000000" fill-rule="nonzero" fill-opacity="1" /><path clip-path="url(#clip300)" d="M357.912 1530.21 Q361.269 1530.93 363.144 1533.2 Q365.042 1535.47 365.042 1538.8 Q365.042 1543.92 361.523 1546.72 Q358.005 1549.52 351.524 1549.52 Q349.348 1549.52 347.033 1549.08 Q344.741 1548.66 342.287 1547.81 L342.287 1543.29 Q344.232 1544.43 346.547 1545.01 Q348.861 1545.58 351.385 1545.58 Q355.783 1545.58 358.074 1543.85 Q360.389 1542.11 360.389 1538.8 Q360.389 1535.75 358.236 1534.03 Q356.107 1532.3 352.287 1532.3 L348.26 1532.3 L348.26 1528.45 L352.473 1528.45 Q355.922 1528.45 357.75 1527.09 Q359.579 1525.7 359.579 1523.11 Q359.579 1520.45 357.681 1519.03 Q355.806 1517.6 352.287 1517.6 Q350.366 1517.6 348.167 1518.01 Q345.968 1518.43 343.329 1519.31 L343.329 1515.14 Q345.991 1514.4 348.306 1514.03 Q350.644 1513.66 352.704 1513.66 Q358.028 1513.66 361.13 1516.09 Q364.232 1518.5 364.232 1522.62 Q364.232 1525.49 362.588 1527.48 Q360.945 1529.45 357.912 1530.21 Z" fill="#000000" fill-rule="nonzero" fill-opacity="1" /><path clip-path="url(#clip300)" d="M671.002 1544.91 L687.321 1544.91 L687.321 1548.85 L665.377 1548.85 L665.377 1544.91 Q668.039 1542.16 672.622 1537.53 Q677.229 1532.88 678.409 1531.53 Q680.655 1529.01 681.534 1527.27 Q682.437 1525.51 682.437 1523.82 Q682.437 1521.07 680.493 1519.33 Q678.571 1517.6 675.469 1517.6 Q673.27 1517.6 670.817 1518.36 Q668.386 1519.13 665.608 1520.68 L665.608 1515.95 Q668.432 1514.82 670.886 1514.24 Q673.34 1513.66 675.377 1513.66 Q680.747 1513.66 683.942 1516.35 Q687.136 1519.03 687.136 1523.52 Q687.136 1525.65 686.326 1527.57 Q685.539 1529.47 683.432 1532.07 Q682.854 1532.74 679.752 1535.95 Q676.65 1539.15 671.002 1544.91 Z" fill="#000000" fill-rule="nonzero" fill-opacity="1" /><path clip-path="url(#clip300)" d="M707.136 1517.37 Q703.525 1517.37 701.696 1520.93 Q699.891 1524.47 699.891 1531.6 Q699.891 1538.71 701.696 1542.27 Q703.525 1545.82 707.136 1545.82 Q710.77 1545.82 712.576 1542.27 Q714.404 1538.71 714.404 1531.6 Q714.404 1524.47 712.576 1520.93 Q710.77 1517.37 707.136 1517.37 M707.136 1513.66 Q712.946 1513.66 716.002 1518.27 Q719.08 1522.85 719.08 1531.6 Q719.08 1540.33 716.002 1544.94 Q712.946 1549.52 707.136 1549.52 Q701.326 1549.52 698.247 1544.94 Q695.192 1540.33 695.192 1531.6 Q695.192 1522.85 698.247 1518.27 Q701.326 1513.66 707.136 1513.66 Z" fill="#000000" fill-rule="nonzero" fill-opacity="1" /><path clip-path="url(#clip300)" d="M731.326 1544.91 L747.645 1544.91 L747.645 1548.85 L725.701 1548.85 L725.701 1544.91 Q728.363 1542.16 732.946 1537.53 Q737.552 1532.88 738.733 1531.53 Q740.978 1529.01 741.858 1527.27 Q742.761 1525.51 742.761 1523.82 Q742.761 1521.07 740.816 1519.33 Q738.895 1517.6 735.793 1517.6 Q733.594 1517.6 731.14 1518.36 Q728.71 1519.13 725.932 1520.68 L725.932 1515.95 Q728.756 1514.82 731.21 1514.24 Q733.664 1513.66 735.701 1513.66 Q741.071 1513.66 744.265 1516.35 Q747.46 1519.03 747.46 1523.52 Q747.46 1525.65 746.65 1527.57 Q745.863 1529.47 743.756 1532.07 Q743.177 1532.74 740.076 1535.95 Q736.974 1539.15 731.326 1544.91 Z" fill="#000000" fill-rule="nonzero" fill-opacity="1" /><path clip-path="url(#clip300)" d="M771.626 1530.21 Q774.983 1530.93 776.858 1533.2 Q778.756 1535.47 778.756 1538.8 Q778.756 1543.92 775.237 1546.72 Q771.719 1549.52 765.237 1549.52 Q763.062 1549.52 760.747 1549.08 Q758.455 1548.66 756.001 1547.81 L756.001 1543.29 Q757.946 1544.43 760.261 1545.01 Q762.575 1545.58 765.099 1545.58 Q769.497 1545.58 771.788 1543.85 Q774.103 1542.11 774.103 1538.8 Q774.103 1535.75 771.95 1534.03 Q769.821 1532.3 766.001 1532.3 L761.974 1532.3 L761.974 1528.45 L766.187 1528.45 Q769.636 1528.45 771.464 1527.09 Q773.293 1525.7 773.293 1523.11 Q773.293 1520.45 771.395 1519.03 Q769.52 1517.6 766.001 1517.6 Q764.08 1517.6 761.881 1518.01 Q759.682 1518.43 757.043 1519.31 L757.043 1515.14 Q759.705 1514.4 762.02 1514.03 Q764.358 1513.66 766.418 1513.66 Q771.742 1513.66 774.844 1516.09 Q777.946 1518.5 777.946 1522.62 Q777.946 1525.49 776.302 1527.48 Q774.659 1529.45 771.626 1530.21 Z" fill="#000000" fill-rule="nonzero" fill-opacity="1" /><path clip-path="url(#clip300)" d="M784.867 1533.96 L797.344 1533.96 L797.344 1537.76 L784.867 1537.76 L784.867 1533.96 Z" fill="#000000" fill-rule="nonzero" fill-opacity="1" /><path clip-path="url(#clip300)" d="M805.538 1544.91 L813.177 1544.91 L813.177 1518.55 L804.867 1520.21 L804.867 1515.95 L813.131 1514.29 L817.807 1514.29 L817.807 1544.91 L825.445 1544.91 L825.445 1548.85 L805.538 1548.85 L805.538 1544.91 Z" fill="#000000" fill-rule="nonzero" fill-opacity="1" /><path clip-path="url(#clip300)" d="M844.89 1517.37 Q841.279 1517.37 839.45 1520.93 Q837.644 1524.47 837.644 1531.6 Q837.644 1538.71 839.45 1542.27 Q841.279 1545.82 844.89 1545.82 Q848.524 1545.82 850.33 1542.27 Q852.158 1538.71 852.158 1531.6 Q852.158 1524.47 850.33 1520.93 Q848.524 1517.37 844.89 1517.37 M844.89 1513.66 Q850.7 1513.66 853.755 1518.27 Q856.834 1522.85 856.834 1531.6 Q856.834 1540.33 853.755 1544.94 Q850.7 1549.52 844.89 1549.52 Q839.08 1549.52 836.001 1544.94 Q832.945 1540.33 832.945 1531.6 Q832.945 1522.85 836.001 1518.27 Q839.08 1513.66 844.89 1513.66 Z" fill="#000000" fill-rule="nonzero" fill-opacity="1" /><path clip-path="url(#clip300)" d="M862.297 1533.96 L874.774 1533.96 L874.774 1537.76 L862.297 1537.76 L862.297 1533.96 Z" fill="#000000" fill-rule="nonzero" fill-opacity="1" /><path clip-path="url(#clip300)" d="M896.325 1530.21 Q899.681 1530.93 901.556 1533.2 Q903.454 1535.47 903.454 1538.8 Q903.454 1543.92 899.936 1546.72 Q896.417 1549.52 889.936 1549.52 Q887.76 1549.52 885.445 1549.08 Q883.153 1548.66 880.7 1547.81 L880.7 1543.29 Q882.644 1544.43 884.959 1545.01 Q887.274 1545.58 889.797 1545.58 Q894.195 1545.58 896.487 1543.85 Q898.802 1542.11 898.802 1538.8 Q898.802 1535.75 896.649 1534.03 Q894.519 1532.3 890.7 1532.3 L886.672 1532.3 L886.672 1528.45 L890.885 1528.45 Q894.334 1528.45 896.163 1527.09 Q897.991 1525.7 897.991 1523.11 Q897.991 1520.45 896.093 1519.03 Q894.218 1517.6 890.7 1517.6 Q888.778 1517.6 886.579 1518.01 Q884.38 1518.43 881.741 1519.31 L881.741 1515.14 Q884.403 1514.4 886.718 1514.03 Q889.056 1513.66 891.116 1513.66 Q896.44 1513.66 899.542 1516.09 Q902.644 1518.5 902.644 1522.62 Q902.644 1525.49 901.001 1527.48 Q899.357 1529.45 896.325 1530.21 Z" fill="#000000" fill-rule="nonzero" fill-opacity="1" /><path clip-path="url(#clip300)" d="M913.13 1544.91 L920.769 1544.91 L920.769 1518.55 L912.459 1520.21 L912.459 1515.95 L920.723 1514.29 L925.399 1514.29 L925.399 1544.91 L933.037 1544.91 L933.037 1548.85 L913.13 1548.85 L913.13 1544.91 Z" fill="#000000" fill-rule="nonzero" fill-opacity="1" /><path clip-path="url(#clip300)" d="M1238.72 1544.91 L1255.04 1544.91 L1255.04 1548.85 L1233.09 1548.85 L1233.09 1544.91 Q1235.76 1542.16 1240.34 1537.53 Q1244.95 1532.88 1246.13 1531.53 Q1248.37 1529.01 1249.25 1527.27 Q1250.15 1525.51 1250.15 1523.82 Q1250.15 1521.07 1248.21 1519.33 Q1246.29 1517.6 1243.19 1517.6 Q1240.99 1517.6 1238.53 1518.36 Q1236.1 1519.13 1233.33 1520.68 L1233.33 1515.95 Q1236.15 1514.82 1238.6 1514.24 Q1241.06 1513.66 1243.09 1513.66 Q1248.46 1513.66 1251.66 1516.35 Q1254.85 1519.03 1254.85 1523.52 Q1254.85 1525.65 1254.04 1527.57 Q1253.26 1529.47 1251.15 1532.07 Q1250.57 1532.74 1247.47 1535.95 Q1244.37 1539.15 1238.72 1544.91 Z" fill="#000000" fill-rule="nonzero" fill-opacity="1" /><path clip-path="url(#clip300)" d="M1274.85 1517.37 Q1271.24 1517.37 1269.41 1520.93 Q1267.61 1524.47 1267.61 1531.6 Q1267.61 1538.71 1269.41 1542.27 Q1271.24 1545.82 1274.85 1545.82 Q1278.49 1545.82 1280.29 1542.27 Q1282.12 1538.71 1282.12 1531.6 Q1282.12 1524.47 1280.29 1520.93 Q1278.49 1517.37 1274.85 1517.37 M1274.85 1513.66 Q1280.66 1513.66 1283.72 1518.27 Q1286.8 1522.85 1286.8 1531.6 Q1286.8 1540.33 1283.72 1544.94 Q1280.66 1549.52 1274.85 1549.52 Q1269.04 1549.52 1265.96 1544.94 Q1262.91 1540.33 1262.91 1531.6 Q1262.91 1522.85 1265.96 1518.27 Q1269.04 1513.66 1274.85 1513.66 Z" fill="#000000" fill-rule="nonzero" fill-opacity="1" /><path clip-path="url(#clip300)" d="M1299.04 1544.91 L1315.36 1544.91 L1315.36 1548.85 L1293.42 1548.85 L1293.42 1544.91 Q1296.08 1542.16 1300.66 1537.53 Q1305.27 1532.88 1306.45 1531.53 Q1308.7 1529.01 1309.58 1527.27 Q1310.48 1525.51 1310.48 1523.82 Q1310.48 1521.07 1308.53 1519.33 Q1306.61 1517.6 1303.51 1517.6 Q1301.31 1517.6 1298.86 1518.36 Q1296.43 1519.13 1293.65 1520.68 L1293.65 1515.95 Q1296.47 1514.82 1298.93 1514.24 Q1301.38 1513.66 1303.42 1513.66 Q1308.79 1513.66 1311.98 1516.35 Q1315.18 1519.03 1315.18 1523.52 Q1315.18 1525.65 1314.37 1527.57 Q1313.58 1529.47 1311.47 1532.07 Q1310.9 1532.74 1307.79 1535.95 Q1304.69 1539.15 1299.04 1544.91 Z" fill="#000000" fill-rule="nonzero" fill-opacity="1" /><path clip-path="url(#clip300)" d="M1339.34 1530.21 Q1342.7 1530.93 1344.58 1533.2 Q1346.47 1535.47 1346.47 1538.8 Q1346.47 1543.92 1342.96 1546.72 Q1339.44 1549.52 1332.96 1549.52 Q1330.78 1549.52 1328.46 1549.08 Q1326.17 1548.66 1323.72 1547.81 L1323.72 1543.29 Q1325.66 1544.43 1327.98 1545.01 Q1330.29 1545.58 1332.82 1545.58 Q1337.21 1545.58 1339.51 1543.85 Q1341.82 1542.11 1341.82 1538.8 Q1341.82 1535.75 1339.67 1534.03 Q1337.54 1532.3 1333.72 1532.3 L1329.69 1532.3 L1329.69 1528.45 L1333.9 1528.45 Q1337.35 1528.45 1339.18 1527.09 Q1341.01 1525.7 1341.01 1523.11 Q1341.01 1520.45 1339.11 1519.03 Q1337.24 1517.6 1333.72 1517.6 Q1331.8 1517.6 1329.6 1518.01 Q1327.4 1518.43 1324.76 1519.31 L1324.76 1515.14 Q1327.42 1514.4 1329.74 1514.03 Q1332.08 1513.66 1334.14 1513.66 Q1339.46 1513.66 1342.56 1516.09 Q1345.66 1518.5 1345.66 1522.62 Q1345.66 1525.49 1344.02 1527.48 Q1342.38 1529.45 1339.34 1530.21 Z" fill="#000000" fill-rule="nonzero" fill-opacity="1" /><path clip-path="url(#clip300)" d="M1352.58 1533.96 L1365.06 1533.96 L1365.06 1537.76 L1352.58 1537.76 L1352.58 1533.96 Z" fill="#000000" fill-rule="nonzero" fill-opacity="1" /><path clip-path="url(#clip300)" d="M1373.26 1544.91 L1380.89 1544.91 L1380.89 1518.55 L1372.58 1520.21 L1372.58 1515.95 L1380.85 1514.29 L1385.52 1514.29 L1385.52 1544.91 L1393.16 1544.91 L1393.16 1548.85 L1373.26 1548.85 L1373.26 1544.91 Z" fill="#000000" fill-rule="nonzero" fill-opacity="1" /><path clip-path="url(#clip300)" d="M1403.42 1544.91 L1411.06 1544.91 L1411.06 1518.55 L1402.75 1520.21 L1402.75 1515.95 L1411.01 1514.29 L1415.69 1514.29 L1415.69 1544.91 L1423.33 1544.91 L1423.33 1548.85 L1403.42 1548.85 L1403.42 1544.91 Z" fill="#000000" fill-rule="nonzero" fill-opacity="1" /><path clip-path="url(#clip300)" d="M1430.01 1533.96 L1442.49 1533.96 L1442.49 1537.76 L1430.01 1537.76 L1430.01 1533.96 Z" fill="#000000" fill-rule="nonzero" fill-opacity="1" /><path clip-path="url(#clip300)" d="M1459.88 1517.37 Q1456.26 1517.37 1454.44 1520.93 Q1452.63 1524.47 1452.63 1531.6 Q1452.63 1538.71 1454.44 1542.27 Q1456.26 1545.82 1459.88 1545.82 Q1463.51 1545.82 1465.32 1542.27 Q1467.14 1538.71 1467.14 1531.6 Q1467.14 1524.47 1465.32 1520.93 Q1463.51 1517.37 1459.88 1517.37 M1459.88 1513.66 Q1465.69 1513.66 1468.74 1518.27 Q1471.82 1522.85 1471.82 1531.6 Q1471.82 1540.33 1468.74 1544.94 Q1465.69 1549.52 1459.88 1549.52 Q1454.07 1549.52 1450.99 1544.94 Q1447.93 1540.33 1447.93 1531.6 Q1447.93 1522.85 1450.99 1518.27 Q1454.07 1513.66 1459.88 1513.66 Z" fill="#000000" fill-rule="nonzero" fill-opacity="1" /><path clip-path="url(#clip300)" d="M1490.04 1532.44 Q1486.7 1532.44 1484.78 1534.22 Q1482.88 1536 1482.88 1539.13 Q1482.88 1542.25 1484.78 1544.03 Q1486.7 1545.82 1490.04 1545.82 Q1493.37 1545.82 1495.29 1544.03 Q1497.21 1542.23 1497.21 1539.13 Q1497.21 1536 1495.29 1534.22 Q1493.39 1532.44 1490.04 1532.44 M1485.36 1530.45 Q1482.35 1529.7 1480.66 1527.64 Q1479 1525.58 1479 1522.62 Q1479 1518.48 1481.94 1516.07 Q1484.9 1513.66 1490.04 1513.66 Q1495.2 1513.66 1498.14 1516.07 Q1501.08 1518.48 1501.08 1522.62 Q1501.08 1525.58 1499.39 1527.64 Q1497.72 1529.7 1494.74 1530.45 Q1498.12 1531.23 1499.99 1533.52 Q1501.89 1535.82 1501.89 1539.13 Q1501.89 1544.15 1498.81 1546.83 Q1495.76 1549.52 1490.04 1549.52 Q1484.32 1549.52 1481.24 1546.83 Q1478.19 1544.15 1478.19 1539.13 Q1478.19 1535.82 1480.08 1533.52 Q1481.98 1531.23 1485.36 1530.45 M1483.65 1523.06 Q1483.65 1525.75 1485.32 1527.25 Q1487.01 1528.76 1490.04 1528.76 Q1493.05 1528.76 1494.74 1527.25 Q1496.45 1525.75 1496.45 1523.06 Q1496.45 1520.38 1494.74 1518.87 Q1493.05 1517.37 1490.04 1517.37 Q1487.01 1517.37 1485.32 1518.87 Q1483.65 1520.38 1483.65 1523.06 Z" fill="#000000" fill-rule="nonzero" fill-opacity="1" /><path clip-path="url(#clip300)" d="M1806.88 1544.91 L1823.2 1544.91 L1823.2 1548.85 L1801.25 1548.85 L1801.25 1544.91 Q1803.91 1542.16 1808.5 1537.53 Q1813.1 1532.88 1814.28 1531.53 Q1816.53 1529.01 1817.41 1527.27 Q1818.31 1525.51 1818.31 1523.82 Q1818.31 1521.07 1816.37 1519.33 Q1814.45 1517.6 1811.34 1517.6 Q1809.15 1517.6 1806.69 1518.36 Q1804.26 1519.13 1801.48 1520.68 L1801.48 1515.95 Q1804.31 1514.82 1806.76 1514.24 Q1809.22 1513.66 1811.25 1513.66 Q1816.62 1513.66 1819.82 1516.35 Q1823.01 1519.03 1823.01 1523.52 Q1823.01 1525.65 1822.2 1527.57 Q1821.41 1529.47 1819.31 1532.07 Q1818.73 1532.74 1815.63 1535.95 Q1812.53 1539.15 1806.88 1544.91 Z" fill="#000000" fill-rule="nonzero" fill-opacity="1" /><path clip-path="url(#clip300)" d="M1843.01 1517.37 Q1839.4 1517.37 1837.57 1520.93 Q1835.77 1524.47 1835.77 1531.6 Q1835.77 1538.71 1837.57 1542.27 Q1839.4 1545.82 1843.01 1545.82 Q1846.65 1545.82 1848.45 1542.27 Q1850.28 1538.71 1850.28 1531.6 Q1850.28 1524.47 1848.45 1520.93 Q1846.65 1517.37 1843.01 1517.37 M1843.01 1513.66 Q1848.82 1513.66 1851.88 1518.27 Q1854.96 1522.85 1854.96 1531.6 Q1854.96 1540.33 1851.88 1544.94 Q1848.82 1549.52 1843.01 1549.52 Q1837.2 1549.52 1834.12 1544.94 Q1831.07 1540.33 1831.07 1531.6 Q1831.07 1522.85 1834.12 1518.27 Q1837.2 1513.66 1843.01 1513.66 Z" fill="#000000" fill-rule="nonzero" fill-opacity="1" /><path clip-path="url(#clip300)" d="M1867.2 1544.91 L1883.52 1544.91 L1883.52 1548.85 L1861.58 1548.85 L1861.58 1544.91 Q1864.24 1542.16 1868.82 1537.53 Q1873.43 1532.88 1874.61 1531.53 Q1876.85 1529.01 1877.73 1527.27 Q1878.64 1525.51 1878.64 1523.82 Q1878.64 1521.07 1876.69 1519.33 Q1874.77 1517.6 1871.67 1517.6 Q1869.47 1517.6 1867.02 1518.36 Q1864.59 1519.13 1861.81 1520.68 L1861.81 1515.95 Q1864.63 1514.82 1867.09 1514.24 Q1869.54 1513.66 1871.58 1513.66 Q1876.95 1513.66 1880.14 1516.35 Q1883.34 1519.03 1883.34 1523.52 Q1883.34 1525.65 1882.52 1527.57 Q1881.74 1529.47 1879.63 1532.07 Q1879.05 1532.74 1875.95 1535.95 Q1872.85 1539.15 1867.2 1544.91 Z" fill="#000000" fill-rule="nonzero" fill-opacity="1" /><path clip-path="url(#clip300)" d="M1907.5 1530.21 Q1910.86 1530.93 1912.73 1533.2 Q1914.63 1535.47 1914.63 1538.8 Q1914.63 1543.92 1911.11 1546.72 Q1907.59 1549.52 1901.11 1549.52 Q1898.94 1549.52 1896.62 1549.08 Q1894.33 1548.66 1891.88 1547.81 L1891.88 1543.29 Q1893.82 1544.43 1896.14 1545.01 Q1898.45 1545.58 1900.97 1545.58 Q1905.37 1545.58 1907.66 1543.85 Q1909.98 1542.11 1909.98 1538.8 Q1909.98 1535.75 1907.83 1534.03 Q1905.7 1532.3 1901.88 1532.3 L1897.85 1532.3 L1897.85 1528.45 L1902.06 1528.45 Q1905.51 1528.45 1907.34 1527.09 Q1909.17 1525.7 1909.17 1523.11 Q1909.17 1520.45 1907.27 1519.03 Q1905.4 1517.6 1901.88 1517.6 Q1899.96 1517.6 1897.76 1518.01 Q1895.56 1518.43 1892.92 1519.31 L1892.92 1515.14 Q1895.58 1514.4 1897.9 1514.03 Q1900.23 1513.66 1902.29 1513.66 Q1907.62 1513.66 1910.72 1516.09 Q1913.82 1518.5 1913.82 1522.62 Q1913.82 1525.49 1912.18 1527.48 Q1910.53 1529.45 1907.5 1530.21 Z" fill="#000000" fill-rule="nonzero" fill-opacity="1" /><path clip-path="url(#clip300)" d="M1920.74 1533.96 L1933.22 1533.96 L1933.22 1537.76 L1920.74 1537.76 L1920.74 1533.96 Z" fill="#000000" fill-rule="nonzero" fill-opacity="1" /><path clip-path="url(#clip300)" d="M1941.41 1544.91 L1949.05 1544.91 L1949.05 1518.55 L1940.74 1520.21 L1940.74 1515.95 L1949.01 1514.29 L1953.68 1514.29 L1953.68 1544.91 L1961.32 1544.91 L1961.32 1548.85 L1941.41 1548.85 L1941.41 1544.91 Z" fill="#000000" fill-rule="nonzero" fill-opacity="1" /><path clip-path="url(#clip300)" d="M1971.58 1544.91 L1979.21 1544.91 L1979.21 1518.55 L1970.9 1520.21 L1970.9 1515.95 L1979.17 1514.29 L1983.84 1514.29 L1983.84 1544.91 L1991.48 1544.91 L1991.48 1548.85 L1971.58 1548.85 L1971.58 1544.91 Z" fill="#000000" fill-rule="nonzero" fill-opacity="1" /><path clip-path="url(#clip300)" d="M1998.17 1533.96 L2010.65 1533.96 L2010.65 1537.76 L1998.17 1537.76 L1998.17 1533.96 Z" fill="#000000" fill-rule="nonzero" fill-opacity="1" /><path clip-path="url(#clip300)" d="M2018.84 1544.91 L2026.48 1544.91 L2026.48 1518.55 L2018.17 1520.21 L2018.17 1515.95 L2026.44 1514.29 L2031.11 1514.29 L2031.11 1544.91 L2038.75 1544.91 L2038.75 1548.85 L2018.84 1548.85 L2018.84 1544.91 Z" fill="#000000" fill-rule="nonzero" fill-opacity="1" /><path clip-path="url(#clip300)" d="M2058.77 1529.7 Q2055.63 1529.7 2053.77 1531.86 Q2051.95 1534.01 2051.95 1537.76 Q2051.95 1541.49 2053.77 1543.66 Q2055.63 1545.82 2058.77 1545.82 Q2061.92 1545.82 2063.75 1543.66 Q2065.6 1541.49 2065.6 1537.76 Q2065.6 1534.01 2063.75 1531.86 Q2061.92 1529.7 2058.77 1529.7 M2068.06 1515.05 L2068.06 1519.31 Q2066.3 1518.48 2064.49 1518.04 Q2062.71 1517.6 2060.95 1517.6 Q2056.32 1517.6 2053.87 1520.72 Q2051.44 1523.85 2051.09 1530.17 Q2052.45 1528.15 2054.51 1527.09 Q2056.57 1526 2059.05 1526 Q2064.26 1526 2067.27 1529.17 Q2070.3 1532.32 2070.3 1537.76 Q2070.3 1543.08 2067.15 1546.3 Q2064.01 1549.52 2058.77 1549.52 Q2052.78 1549.52 2049.61 1544.94 Q2046.44 1540.33 2046.44 1531.6 Q2046.44 1523.41 2050.32 1518.55 Q2054.21 1513.66 2060.76 1513.66 Q2062.52 1513.66 2064.31 1514.01 Q2066.11 1514.36 2068.06 1515.05 Z" fill="#000000" fill-rule="nonzero" fill-opacity="1" /><polyline clip-path="url(#clip302)" style="stroke:#000000; stroke-linecap:round; stroke-linejoin:round; stroke-width:2; stroke-opacity:0.1; fill:none" points="169.121,1196.03 2352.76,1196.03 "/>
<polyline clip-path="url(#clip302)" style="stroke:#000000; stroke-linecap:round; stroke-linejoin:round; stroke-width:2; stroke-opacity:0.1; fill:none" points="169.121,843.373 2352.76,843.373 "/>
<polyline clip-path="url(#clip302)" style="stroke:#000000; stroke-linecap:round; stroke-linejoin:round; stroke-width:2; stroke-opacity:0.1; fill:none" points="169.121,490.714 2352.76,490.714 "/>
<polyline clip-path="url(#clip302)" style="stroke:#000000; stroke-linecap:round; stroke-linejoin:round; stroke-width:2; stroke-opacity:0.1; fill:none" points="169.121,138.054 2352.76,138.054 "/>
<polyline clip-path="url(#clip300)" style="stroke:#000000; stroke-linecap:round; stroke-linejoin:round; stroke-width:4; stroke-opacity:1; fill:none" points="169.121,1486.45 169.121,47.2441 "/>
<polyline clip-path="url(#clip300)" style="stroke:#000000; stroke-linecap:round; stroke-linejoin:round; stroke-width:4; stroke-opacity:1; fill:none" points="169.121,1196.03 188.019,1196.03 "/>
<polyline clip-path="url(#clip300)" style="stroke:#000000; stroke-linecap:round; stroke-linejoin:round; stroke-width:4; stroke-opacity:1; fill:none" points="169.121,843.373 188.019,843.373 "/>
<polyline clip-path="url(#clip300)" style="stroke:#000000; stroke-linecap:round; stroke-linejoin:round; stroke-width:4; stroke-opacity:1; fill:none" points="169.121,490.714 188.019,490.714 "/>
<polyline clip-path="url(#clip300)" style="stroke:#000000; stroke-linecap:round; stroke-linejoin:round; stroke-width:4; stroke-opacity:1; fill:none" points="169.121,138.054 188.019,138.054 "/>
<path clip-path="url(#clip300)" d="M52.6588 1209.38 L60.2976 1209.38 L60.2976 1183.01 L51.9875 1184.68 L51.9875 1180.42 L60.2513 1178.75 L64.9272 1178.75 L64.9272 1209.38 L72.5661 1209.38 L72.5661 1213.31 L52.6588 1213.31 L52.6588 1209.38 Z" fill="#000000" fill-rule="nonzero" fill-opacity="1" /><path clip-path="url(#clip300)" d="M86.0382 1209.38 L102.358 1209.38 L102.358 1213.31 L80.4133 1213.31 L80.4133 1209.38 Q83.0753 1206.62 87.6586 1201.99 Q92.2651 1197.34 93.4456 1196 Q95.691 1193.47 96.5706 1191.74 Q97.4734 1189.98 97.4734 1188.29 Q97.4734 1185.54 95.5289 1183.8 Q93.6076 1182.06 90.5058 1182.06 Q88.3067 1182.06 85.8531 1182.83 Q83.4225 1183.59 80.6447 1185.14 L80.6447 1180.42 Q83.4688 1179.29 85.9225 1178.71 Q88.3762 1178.13 90.4132 1178.13 Q95.7836 1178.13 98.978 1180.81 Q102.172 1183.5 102.172 1187.99 Q102.172 1190.12 101.362 1192.04 Q100.575 1193.94 98.4687 1196.53 Q97.89 1197.2 94.7882 1200.42 Q91.6864 1203.61 86.0382 1209.38 Z" fill="#000000" fill-rule="nonzero" fill-opacity="1" /><path clip-path="url(#clip300)" d="M112.219 1178.75 L130.575 1178.75 L130.575 1182.69 L116.501 1182.69 L116.501 1191.16 Q117.52 1190.81 118.538 1190.65 Q119.557 1190.47 120.575 1190.47 Q126.362 1190.47 129.742 1193.64 Q133.121 1196.81 133.121 1202.22 Q133.121 1207.8 129.649 1210.91 Q126.177 1213.98 119.857 1213.98 Q117.682 1213.98 115.413 1213.61 Q113.168 1213.24 110.76 1212.5 L110.76 1207.8 Q112.844 1208.94 115.066 1209.49 Q117.288 1210.05 119.765 1210.05 Q123.77 1210.05 126.107 1207.94 Q128.445 1205.84 128.445 1202.22 Q128.445 1198.61 126.107 1196.51 Q123.77 1194.4 119.765 1194.4 Q117.89 1194.4 116.015 1194.82 Q114.163 1195.23 112.219 1196.11 L112.219 1178.75 Z" fill="#000000" fill-rule="nonzero" fill-opacity="1" /><path clip-path="url(#clip300)" d="M51.6634 856.718 L59.3023 856.718 L59.3023 830.353 L50.9921 832.019 L50.9921 827.76 L59.256 826.093 L63.9319 826.093 L63.9319 856.718 L71.5707 856.718 L71.5707 860.653 L51.6634 860.653 L51.6634 856.718 Z" fill="#000000" fill-rule="nonzero" fill-opacity="1" /><path clip-path="url(#clip300)" d="M95.1817 842.019 Q98.5382 842.737 100.413 845.005 Q102.311 847.274 102.311 850.607 Q102.311 855.723 98.7928 858.524 Q95.2743 861.325 88.7928 861.325 Q86.6169 861.325 84.3021 860.885 Q82.0105 860.468 79.5568 859.612 L79.5568 855.098 Q81.5012 856.232 83.816 856.811 Q86.1308 857.389 88.654 857.389 Q93.0521 857.389 95.3437 855.653 Q97.6585 853.917 97.6585 850.607 Q97.6585 847.552 95.5058 845.839 Q93.3762 844.102 89.5567 844.102 L85.529 844.102 L85.529 840.26 L89.7419 840.26 Q93.191 840.26 95.0197 838.894 Q96.8484 837.505 96.8484 834.913 Q96.8484 832.251 94.9502 830.839 Q93.0752 829.403 89.5567 829.403 Q87.6354 829.403 85.4364 829.82 Q83.2373 830.237 80.5984 831.116 L80.5984 826.95 Q83.2605 826.209 85.5753 825.839 Q87.9132 825.468 89.9734 825.468 Q95.2974 825.468 98.3993 827.899 Q101.501 830.306 101.501 834.427 Q101.501 837.297 99.8576 839.288 Q98.2141 841.255 95.1817 842.019 Z" fill="#000000" fill-rule="nonzero" fill-opacity="1" /><path clip-path="url(#clip300)" d="M121.177 829.172 Q117.566 829.172 115.737 832.737 Q113.932 836.278 113.932 843.408 Q113.932 850.514 115.737 854.079 Q117.566 857.621 121.177 857.621 Q124.811 857.621 126.617 854.079 Q128.445 850.514 128.445 843.408 Q128.445 836.278 126.617 832.737 Q124.811 829.172 121.177 829.172 M121.177 825.468 Q126.987 825.468 130.043 830.075 Q133.121 834.658 133.121 843.408 Q133.121 852.135 130.043 856.741 Q126.987 861.325 121.177 861.325 Q115.367 861.325 112.288 856.741 Q109.233 852.135 109.233 843.408 Q109.233 834.658 112.288 830.075 Q115.367 825.468 121.177 825.468 Z" fill="#000000" fill-rule="nonzero" fill-opacity="1" /><path clip-path="url(#clip300)" d="M52.6588 504.059 L60.2976 504.059 L60.2976 477.693 L51.9875 479.36 L51.9875 475.101 L60.2513 473.434 L64.9272 473.434 L64.9272 504.059 L72.5661 504.059 L72.5661 507.994 L52.6588 507.994 L52.6588 504.059 Z" fill="#000000" fill-rule="nonzero" fill-opacity="1" /><path clip-path="url(#clip300)" d="M96.1771 489.36 Q99.5335 490.077 101.409 492.346 Q103.307 494.614 103.307 497.948 Q103.307 503.063 99.7882 505.864 Q96.2697 508.665 89.7882 508.665 Q87.6123 508.665 85.2975 508.225 Q83.0058 507.809 80.5522 506.952 L80.5522 502.438 Q82.4966 503.573 84.8114 504.151 Q87.1262 504.73 89.6493 504.73 Q94.0475 504.73 96.3391 502.994 Q98.6539 501.258 98.6539 497.948 Q98.6539 494.892 96.5011 493.179 Q94.3715 491.443 90.5521 491.443 L86.5243 491.443 L86.5243 487.6 L90.7373 487.6 Q94.1863 487.6 96.015 486.235 Q97.8437 484.846 97.8437 482.253 Q97.8437 479.591 95.9456 478.179 Q94.0706 476.744 90.5521 476.744 Q88.6308 476.744 86.4318 477.161 Q84.2327 477.577 81.5938 478.457 L81.5938 474.29 Q84.2558 473.55 86.5706 473.179 Q88.9086 472.809 90.9688 472.809 Q96.2928 472.809 99.3946 475.239 Q102.496 477.647 102.496 481.767 Q102.496 484.637 100.853 486.628 Q99.2095 488.596 96.1771 489.36 Z" fill="#000000" fill-rule="nonzero" fill-opacity="1" /><path clip-path="url(#clip300)" d="M112.219 473.434 L130.575 473.434 L130.575 477.369 L116.501 477.369 L116.501 485.841 Q117.52 485.494 118.538 485.332 Q119.557 485.147 120.575 485.147 Q126.362 485.147 129.742 488.318 Q133.121 491.489 133.121 496.906 Q133.121 502.485 129.649 505.586 Q126.177 508.665 119.857 508.665 Q117.682 508.665 115.413 508.295 Q113.168 507.924 110.76 507.184 L110.76 502.485 Q112.844 503.619 115.066 504.174 Q117.288 504.73 119.765 504.73 Q123.77 504.73 126.107 502.624 Q128.445 500.517 128.445 496.906 Q128.445 493.295 126.107 491.188 Q123.77 489.082 119.765 489.082 Q117.89 489.082 116.015 489.499 Q114.163 489.915 112.219 490.795 L112.219 473.434 Z" fill="#000000" fill-rule="nonzero" fill-opacity="1" /><path clip-path="url(#clip300)" d="M51.6634 151.399 L59.3023 151.399 L59.3023 125.034 L50.9921 126.7 L50.9921 122.441 L59.256 120.774 L63.9319 120.774 L63.9319 151.399 L71.5707 151.399 L71.5707 155.334 L51.6634 155.334 L51.6634 151.399 Z" fill="#000000" fill-rule="nonzero" fill-opacity="1" /><path clip-path="url(#clip300)" d="M93.8623 124.848 L82.0568 143.297 L93.8623 143.297 L93.8623 124.848 M92.6354 120.774 L98.515 120.774 L98.515 143.297 L103.446 143.297 L103.446 147.186 L98.515 147.186 L98.515 155.334 L93.8623 155.334 L93.8623 147.186 L78.2605 147.186 L78.2605 142.672 L92.6354 120.774 Z" fill="#000000" fill-rule="nonzero" fill-opacity="1" /><path clip-path="url(#clip300)" d="M121.177 123.853 Q117.566 123.853 115.737 127.418 Q113.932 130.96 113.932 138.089 Q113.932 145.196 115.737 148.76 Q117.566 152.302 121.177 152.302 Q124.811 152.302 126.617 148.76 Q128.445 145.196 128.445 138.089 Q128.445 130.96 126.617 127.418 Q124.811 123.853 121.177 123.853 M121.177 120.149 Q126.987 120.149 130.043 124.756 Q133.121 129.339 133.121 138.089 Q133.121 146.816 130.043 151.422 Q126.987 156.006 121.177 156.006 Q115.367 156.006 112.288 151.422 Q109.233 146.816 109.233 138.089 Q109.233 129.339 112.288 124.756 Q115.367 120.149 121.177 120.149 Z" fill="#000000" fill-rule="nonzero" fill-opacity="1" /><polyline clip-path="url(#clip302)" style="stroke:#009af9; stroke-linecap:round; stroke-linejoin:round; stroke-width:4; stroke-opacity:1; fill:none" points="230.922,403.96 301.958,197.301 372.994,859.595 444.029,1233.41 515.065,1264.45 728.172,1234.12 799.207,1106.46 870.243,1172.05 941.278,874.407 1012.31,907.558 1225.42,827.856 1296.46,703.72 1367.49,676.918 1438.53,606.386 1509.56,735.46 1722.67,606.386 1793.71,444.869 1864.74,375.042 1935.78,352.471 2006.81,291.813 2219.92,455.448 2290.95,283.35 "/>
<polyline clip-path="url(#clip302)" style="stroke:#e26f46; stroke-linecap:round; stroke-linejoin:round; stroke-width:4; stroke-opacity:1; fill:none" points="230.922,207.175 301.958,87.9763 372.994,836.32 444.029,1163.59 515.065,1235.53 728.172,1086.71 799.207,1086 870.243,1002.78 941.278,837.026 1012.31,791.885 1225.42,733.344 1296.46,612.029 1367.49,593.691 1438.53,564.067 1509.56,542.202 1722.67,553.487 1793.71,332.722 1864.74,360.935 1935.78,217.05 2006.81,279.118 2219.92,249.142 2290.95,211.055 "/>
<polyline clip-path="url(#clip302)" style="stroke:#3da44d; stroke-linecap:round; stroke-linejoin:round; stroke-width:4; stroke-opacity:1; fill:none" points="230.922,482.955 301.958,226.219 372.994,1119.15 444.029,1385.06 515.065,1445.72 728.172,1275.03 799.207,1271.85 870.243,1201.32 941.278,976.678 1012.31,913.2 1225.42,848.311 1296.46,762.967 1367.49,691.024 1438.53,736.87 1509.56,782.011 1722.67,648 1793.71,483.66 1864.74,467.438 1935.78,414.539 2006.81,456.859 2219.92,456.153 2290.95,299.925 "/>
<polyline clip-path="url(#clip302)" style="stroke:#c271d2; stroke-linecap:round; stroke-linejoin:round; stroke-width:4; stroke-opacity:1; fill:none" points="230.922,286.172 301.958,129.591 372.994,1078.24 444.029,1306.06 515.065,1308.88 728.172,1143.13 799.207,1174.87 870.243,1014.77 941.278,943.528 1012.31,817.277 1225.42,741.102 1296.46,674.097 1367.49,613.44 1438.53,724.174 1509.56,557.014 1722.67,586.637 1793.71,460.386 1864.74,393.379 1935.78,229.746 2006.81,353.882 2219.92,284.761 2290.95,235.389 "/>
<path clip-path="url(#clip300)" d="M1937.65 1438.47 L2279.97 1438.47 L2279.97 1179.27 L1937.65 1179.27  Z" fill="#ffffff" fill-rule="evenodd" fill-opacity="1"/>
<polyline clip-path="url(#clip300)" style="stroke:#000000; stroke-linecap:round; stroke-linejoin:round; stroke-width:4; stroke-opacity:1; fill:none" points="1937.65,1438.47 2279.97,1438.47 2279.97,1179.27 1937.65,1179.27 1937.65,1438.47 "/>
<polyline clip-path="url(#clip300)" style="stroke:#009af9; stroke-linecap:round; stroke-linejoin:round; stroke-width:4; stroke-opacity:1; fill:none" points="1961.91,1231.11 2107.49,1231.11 "/>
<path clip-path="url(#clip300)" d="M2147.77 1217.01 Q2142.67 1217.01 2139.66 1220.8 Q2136.68 1224.6 2136.68 1231.15 Q2136.68 1237.68 2139.66 1241.47 Q2142.67 1245.27 2147.77 1245.27 Q2152.86 1245.27 2155.82 1241.47 Q2158.81 1237.68 2158.81 1231.15 Q2158.81 1224.6 2155.82 1220.8 Q2152.86 1217.01 2147.77 1217.01 M2147.77 1213.21 Q2155.03 1213.21 2159.39 1218.09 Q2163.74 1222.95 2163.74 1231.15 Q2163.74 1239.32 2159.39 1244.2 Q2155.03 1249.07 2147.77 1249.07 Q2140.47 1249.07 2136.1 1244.2 Q2131.75 1239.34 2131.75 1231.15 Q2131.75 1222.95 2136.1 1218.09 Q2140.47 1213.21 2147.77 1213.21 Z" fill="#000000" fill-rule="nonzero" fill-opacity="1" /><path clip-path="url(#clip300)" d="M2174.99 1244.51 L2174.99 1258.26 L2170.71 1258.26 L2170.71 1222.47 L2174.99 1222.47 L2174.99 1226.4 Q2176.33 1224.09 2178.37 1222.98 Q2180.43 1221.84 2183.28 1221.84 Q2188 1221.84 2190.94 1225.59 Q2193.9 1229.34 2193.9 1235.45 Q2193.9 1241.57 2190.94 1245.32 Q2188 1249.07 2183.28 1249.07 Q2180.43 1249.07 2178.37 1247.95 Q2176.33 1246.82 2174.99 1244.51 M2189.48 1235.45 Q2189.48 1230.76 2187.53 1228.09 Q2185.61 1225.41 2182.23 1225.41 Q2178.85 1225.41 2176.91 1228.09 Q2174.99 1230.76 2174.99 1235.45 Q2174.99 1240.15 2176.91 1242.84 Q2178.85 1245.5 2182.23 1245.5 Q2185.61 1245.5 2187.53 1242.84 Q2189.48 1240.15 2189.48 1235.45 Z" fill="#000000" fill-rule="nonzero" fill-opacity="1" /><path clip-path="url(#clip300)" d="M2223.14 1234.37 L2223.14 1236.45 L2203.55 1236.45 Q2203.83 1240.85 2206.19 1243.16 Q2208.58 1245.45 2212.81 1245.45 Q2215.27 1245.45 2217.56 1244.85 Q2219.87 1244.25 2222.14 1243.05 L2222.14 1247.07 Q2219.85 1248.05 2217.44 1248.56 Q2215.03 1249.07 2212.56 1249.07 Q2206.35 1249.07 2202.72 1245.45 Q2199.11 1241.84 2199.11 1235.69 Q2199.11 1229.32 2202.53 1225.59 Q2205.98 1221.84 2211.82 1221.84 Q2217.05 1221.84 2220.08 1225.22 Q2223.14 1228.58 2223.14 1234.37 M2218.88 1233.12 Q2218.83 1229.62 2216.91 1227.54 Q2215.01 1225.45 2211.86 1225.45 Q2208.3 1225.45 2206.15 1227.47 Q2204.02 1229.48 2203.69 1233.14 L2218.88 1233.12 Z" fill="#000000" fill-rule="nonzero" fill-opacity="1" /><path clip-path="url(#clip300)" d="M2251.68 1232.75 L2251.68 1248.39 L2247.42 1248.39 L2247.42 1232.89 Q2247.42 1229.2 2245.98 1227.38 Q2244.55 1225.55 2241.68 1225.55 Q2238.23 1225.55 2236.24 1227.75 Q2234.25 1229.95 2234.25 1233.74 L2234.25 1248.39 L2229.96 1248.39 L2229.96 1222.47 L2234.25 1222.47 L2234.25 1226.5 Q2235.78 1224.16 2237.84 1223 Q2239.92 1221.84 2242.63 1221.84 Q2247.09 1221.84 2249.39 1224.62 Q2251.68 1227.38 2251.68 1232.75 Z" fill="#000000" fill-rule="nonzero" fill-opacity="1" /><polyline clip-path="url(#clip300)" style="stroke:#e26f46; stroke-linecap:round; stroke-linejoin:round; stroke-width:4; stroke-opacity:1; fill:none" points="1961.91,1282.95 2107.49,1282.95 "/>
<path clip-path="url(#clip300)" d="M2131.75 1265.67 L2136.42 1265.67 L2136.42 1279.84 L2153.41 1279.84 L2153.41 1265.67 L2158.09 1265.67 L2158.09 1300.23 L2153.41 1300.23 L2153.41 1283.78 L2136.42 1283.78 L2136.42 1300.23 L2131.75 1300.23 L2131.75 1265.67 Z" fill="#000000" fill-rule="nonzero" fill-opacity="1" /><path clip-path="url(#clip300)" d="M2167.21 1274.31 L2171.47 1274.31 L2171.47 1300.23 L2167.21 1300.23 L2167.21 1274.31 M2167.21 1264.22 L2171.47 1264.22 L2171.47 1269.61 L2167.21 1269.61 L2167.21 1264.22 Z" fill="#000000" fill-rule="nonzero" fill-opacity="1" /><path clip-path="url(#clip300)" d="M2197.44 1286.97 Q2197.44 1282.34 2195.52 1279.79 Q2193.62 1277.25 2190.17 1277.25 Q2186.75 1277.25 2184.83 1279.79 Q2182.93 1282.34 2182.93 1286.97 Q2182.93 1291.58 2184.83 1294.12 Q2186.75 1296.67 2190.17 1296.67 Q2193.62 1296.67 2195.52 1294.12 Q2197.44 1291.58 2197.44 1286.97 M2201.7 1297.02 Q2201.7 1303.64 2198.76 1306.85 Q2195.82 1310.1 2189.76 1310.1 Q2187.51 1310.1 2185.52 1309.75 Q2183.53 1309.42 2181.65 1308.73 L2181.65 1304.59 Q2183.53 1305.6 2185.36 1306.09 Q2187.19 1306.58 2189.09 1306.58 Q2193.28 1306.58 2195.36 1304.38 Q2197.44 1302.2 2197.44 1297.78 L2197.44 1295.67 Q2196.12 1297.97 2194.06 1299.1 Q2192 1300.23 2189.13 1300.23 Q2184.36 1300.23 2181.45 1296.6 Q2178.53 1292.97 2178.53 1286.97 Q2178.53 1280.95 2181.45 1277.32 Q2184.36 1273.68 2189.13 1273.68 Q2192 1273.68 2194.06 1274.82 Q2196.12 1275.95 2197.44 1278.24 L2197.44 1274.31 L2201.7 1274.31 L2201.7 1297.02 Z" fill="#000000" fill-rule="nonzero" fill-opacity="1" /><path clip-path="url(#clip300)" d="M2232.03 1284.59 L2232.03 1300.23 L2227.77 1300.23 L2227.77 1284.73 Q2227.77 1281.04 2226.33 1279.22 Q2224.9 1277.39 2222.03 1277.39 Q2218.58 1277.39 2216.59 1279.59 Q2214.59 1281.79 2214.59 1285.58 L2214.59 1300.23 L2210.31 1300.23 L2210.31 1264.22 L2214.59 1264.22 L2214.59 1278.34 Q2216.12 1276 2218.18 1274.84 Q2220.27 1273.68 2222.97 1273.68 Q2227.44 1273.68 2229.73 1276.46 Q2232.03 1279.22 2232.03 1284.59 Z" fill="#000000" fill-rule="nonzero" fill-opacity="1" /><polyline clip-path="url(#clip300)" style="stroke:#3da44d; stroke-linecap:round; stroke-linejoin:round; stroke-width:4; stroke-opacity:1; fill:none" points="1961.91,1334.79 2107.49,1334.79 "/>
<path clip-path="url(#clip300)" d="M2131.75 1317.51 L2136.42 1317.51 L2136.42 1348.14 L2153.25 1348.14 L2153.25 1352.07 L2131.75 1352.07 L2131.75 1317.51 Z" fill="#000000" fill-rule="nonzero" fill-opacity="1" /><path clip-path="url(#clip300)" d="M2167.19 1329.13 Q2163.76 1329.13 2161.77 1331.82 Q2159.78 1334.48 2159.78 1339.13 Q2159.78 1343.79 2161.75 1346.47 Q2163.74 1349.13 2167.19 1349.13 Q2170.59 1349.13 2172.58 1346.45 Q2174.57 1343.76 2174.57 1339.13 Q2174.57 1334.53 2172.58 1331.84 Q2170.59 1329.13 2167.19 1329.13 M2167.19 1325.52 Q2172.74 1325.52 2175.91 1329.13 Q2179.09 1332.75 2179.09 1339.13 Q2179.09 1345.5 2175.91 1349.13 Q2172.74 1352.75 2167.19 1352.75 Q2161.61 1352.75 2158.44 1349.13 Q2155.29 1345.5 2155.29 1339.13 Q2155.29 1332.75 2158.44 1329.13 Q2161.61 1325.52 2167.19 1325.52 Z" fill="#000000" fill-rule="nonzero" fill-opacity="1" /><path clip-path="url(#clip300)" d="M2183.67 1326.15 L2187.93 1326.15 L2193.25 1346.38 L2198.55 1326.15 L2203.58 1326.15 L2208.9 1346.38 L2214.2 1326.15 L2218.46 1326.15 L2211.68 1352.07 L2206.65 1352.07 L2201.08 1330.82 L2195.47 1352.07 L2190.45 1352.07 L2183.67 1326.15 Z" fill="#000000" fill-rule="nonzero" fill-opacity="1" /><polyline clip-path="url(#clip300)" style="stroke:#c271d2; stroke-linecap:round; stroke-linejoin:round; stroke-width:4; stroke-opacity:1; fill:none" points="1961.91,1386.63 2107.49,1386.63 "/>
<path clip-path="url(#clip300)" d="M2159.62 1372.02 L2159.62 1376.95 Q2157.26 1374.75 2154.57 1373.66 Q2151.91 1372.57 2148.9 1372.57 Q2142.97 1372.57 2139.83 1376.21 Q2136.68 1379.82 2136.68 1386.67 Q2136.68 1393.5 2139.83 1397.13 Q2142.97 1400.74 2148.9 1400.74 Q2151.91 1400.74 2154.57 1399.66 Q2157.26 1398.57 2159.62 1396.37 L2159.62 1401.25 Q2157.16 1402.92 2154.41 1403.75 Q2151.68 1404.59 2148.62 1404.59 Q2140.78 1404.59 2136.26 1399.79 Q2131.75 1394.98 2131.75 1386.67 Q2131.75 1378.34 2136.26 1373.54 Q2140.78 1368.73 2148.62 1368.73 Q2151.72 1368.73 2154.46 1369.56 Q2157.21 1370.37 2159.62 1372.02 Z" fill="#000000" fill-rule="nonzero" fill-opacity="1" /><path clip-path="url(#clip300)" d="M2166.66 1367.9 L2170.91 1367.9 L2170.91 1403.91 L2166.66 1403.91 L2166.66 1367.9 Z" fill="#000000" fill-rule="nonzero" fill-opacity="1" /><path clip-path="url(#clip300)" d="M2189.87 1380.97 Q2186.45 1380.97 2184.46 1383.66 Q2182.47 1386.32 2182.47 1390.97 Q2182.47 1395.63 2184.43 1398.31 Q2186.42 1400.97 2189.87 1400.97 Q2193.28 1400.97 2195.27 1398.29 Q2197.26 1395.6 2197.26 1390.97 Q2197.26 1386.37 2195.27 1383.68 Q2193.28 1380.97 2189.87 1380.97 M2189.87 1377.36 Q2195.43 1377.36 2198.6 1380.97 Q2201.77 1384.59 2201.77 1390.97 Q2201.77 1397.34 2198.6 1400.97 Q2195.43 1404.59 2189.87 1404.59 Q2184.29 1404.59 2181.12 1400.97 Q2177.97 1397.34 2177.97 1390.97 Q2177.97 1384.59 2181.12 1380.97 Q2184.29 1377.36 2189.87 1377.36 Z" fill="#000000" fill-rule="nonzero" fill-opacity="1" /><path clip-path="url(#clip300)" d="M2225.36 1378.75 L2225.36 1382.78 Q2223.55 1381.85 2221.61 1381.39 Q2219.66 1380.93 2217.58 1380.93 Q2214.41 1380.93 2212.81 1381.9 Q2211.24 1382.87 2211.24 1384.82 Q2211.24 1386.3 2212.37 1387.16 Q2213.51 1387.99 2216.93 1388.75 L2218.39 1389.08 Q2222.93 1390.05 2224.83 1391.83 Q2226.75 1393.59 2226.75 1396.76 Q2226.75 1400.37 2223.88 1402.48 Q2221.03 1404.59 2216.03 1404.59 Q2213.95 1404.59 2211.68 1404.17 Q2209.43 1403.78 2206.93 1402.97 L2206.93 1398.57 Q2209.29 1399.79 2211.59 1400.42 Q2213.88 1401.02 2216.12 1401.02 Q2219.13 1401.02 2220.75 1400 Q2222.37 1398.96 2222.37 1397.09 Q2222.37 1395.35 2221.19 1394.42 Q2220.03 1393.5 2216.08 1392.64 L2214.59 1392.29 Q2210.64 1391.46 2208.88 1389.75 Q2207.12 1388.01 2207.12 1385 Q2207.12 1381.35 2209.71 1379.35 Q2212.3 1377.36 2217.07 1377.36 Q2219.43 1377.36 2221.52 1377.71 Q2223.6 1378.06 2225.36 1378.75 Z" fill="#000000" fill-rule="nonzero" fill-opacity="1" /><path clip-path="url(#clip300)" d="M2255.71 1389.89 L2255.71 1391.97 L2236.12 1391.97 Q2236.4 1396.37 2238.76 1398.68 Q2241.15 1400.97 2245.38 1400.97 Q2247.84 1400.97 2250.13 1400.37 Q2252.44 1399.77 2254.71 1398.57 L2254.71 1402.59 Q2252.42 1403.57 2250.01 1404.08 Q2247.6 1404.59 2245.13 1404.59 Q2238.92 1404.59 2235.29 1400.97 Q2231.68 1397.36 2231.68 1391.21 Q2231.68 1384.84 2235.1 1381.11 Q2238.55 1377.36 2244.39 1377.36 Q2249.62 1377.36 2252.65 1380.74 Q2255.71 1384.1 2255.71 1389.89 M2251.45 1388.64 Q2251.4 1385.14 2249.48 1383.06 Q2247.58 1380.97 2244.43 1380.97 Q2240.87 1380.97 2238.71 1382.99 Q2236.59 1385 2236.26 1388.66 L2251.45 1388.64 Z" fill="#000000" fill-rule="nonzero" fill-opacity="1" /></svg>
