<?xml version="1.0" encoding="utf-8"?>
<svg xmlns="http://www.w3.org/2000/svg" xmlns:xlink="http://www.w3.org/1999/xlink" width="600" height="400" viewBox="0 0 2400 1600">
<defs>
  <clipPath id="clip390">
    <rect x="0" y="0" width="2400" height="1600"/>
  </clipPath>
</defs>
<path clip-path="url(#clip390)" d="M0 1600 L2400 1600 L2400 0 L0 0  Z" fill="#ffffff" fill-rule="evenodd" fill-opacity="1"/>
<defs>
  <clipPath id="clip391">
    <rect x="480" y="0" width="1681" height="1600"/>
  </clipPath>
</defs>
<path clip-path="url(#clip390)" d="M169.121 1348.39 L2352.76 1348.39 L2352.76 47.2441 L169.121 47.2441  Z" fill="#ffffff" fill-rule="evenodd" fill-opacity="1"/>
<defs>
  <clipPath id="clip392">
    <rect x="169" y="47" width="2185" height="1302"/>
  </clipPath>
</defs>
<polyline clip-path="url(#clip392)" style="stroke:#000000; stroke-linecap:round; stroke-linejoin:round; stroke-width:2; stroke-opacity:0.1; fill:none" points="273.252,1348.39 273.252,47.2441 "/>
<polyline clip-path="url(#clip392)" style="stroke:#000000; stroke-linecap:round; stroke-linejoin:round; stroke-width:2; stroke-opacity:0.1; fill:none" points="367.317,1348.39 367.317,47.2441 "/>
<polyline clip-path="url(#clip392)" style="stroke:#000000; stroke-linecap:round; stroke-linejoin:round; stroke-width:2; stroke-opacity:0.1; fill:none" points="461.383,1348.39 461.383,47.2441 "/>
<polyline clip-path="url(#clip392)" style="stroke:#000000; stroke-linecap:round; stroke-linejoin:round; stroke-width:2; stroke-opacity:0.1; fill:none" points="555.448,1348.39 555.448,47.2441 "/>
<polyline clip-path="url(#clip392)" style="stroke:#000000; stroke-linecap:round; stroke-linejoin:round; stroke-width:2; stroke-opacity:0.1; fill:none" points="649.513,1348.39 649.513,47.2441 "/>
<polyline clip-path="url(#clip392)" style="stroke:#000000; stroke-linecap:round; stroke-linejoin:round; stroke-width:2; stroke-opacity:0.1; fill:none" points="743.579,1348.39 743.579,47.2441 "/>
<polyline clip-path="url(#clip392)" style="stroke:#000000; stroke-linecap:round; stroke-linejoin:round; stroke-width:2; stroke-opacity:0.1; fill:none" points="837.644,1348.39 837.644,47.2441 "/>
<polyline clip-path="url(#clip392)" style="stroke:#000000; stroke-linecap:round; stroke-linejoin:round; stroke-width:2; stroke-opacity:0.1; fill:none" points="931.71,1348.39 931.71,47.2441 "/>
<polyline clip-path="url(#clip392)" style="stroke:#000000; stroke-linecap:round; stroke-linejoin:round; stroke-width:2; stroke-opacity:0.1; fill:none" points="1025.78,1348.39 1025.78,47.2441 "/>
<polyline clip-path="url(#clip392)" style="stroke:#000000; stroke-linecap:round; stroke-linejoin:round; stroke-width:2; stroke-opacity:0.1; fill:none" points="1119.84,1348.39 1119.84,47.2441 "/>
<polyline clip-path="url(#clip392)" style="stroke:#000000; stroke-linecap:round; stroke-linejoin:round; stroke-width:2; stroke-opacity:0.1; fill:none" points="1213.91,1348.39 1213.91,47.2441 "/>
<polyline clip-path="url(#clip392)" style="stroke:#000000; stroke-linecap:round; stroke-linejoin:round; stroke-width:2; stroke-opacity:0.1; fill:none" points="1307.97,1348.39 1307.97,47.2441 "/>
<polyline clip-path="url(#clip392)" style="stroke:#000000; stroke-linecap:round; stroke-linejoin:round; stroke-width:2; stroke-opacity:0.1; fill:none" points="1402.04,1348.39 1402.04,47.2441 "/>
<polyline clip-path="url(#clip392)" style="stroke:#000000; stroke-linecap:round; stroke-linejoin:round; stroke-width:2; stroke-opacity:0.1; fill:none" points="1496.1,1348.39 1496.1,47.2441 "/>
<polyline clip-path="url(#clip392)" style="stroke:#000000; stroke-linecap:round; stroke-linejoin:round; stroke-width:2; stroke-opacity:0.1; fill:none" points="1590.17,1348.39 1590.17,47.2441 "/>
<polyline clip-path="url(#clip392)" style="stroke:#000000; stroke-linecap:round; stroke-linejoin:round; stroke-width:2; stroke-opacity:0.1; fill:none" points="1684.23,1348.39 1684.23,47.2441 "/>
<polyline clip-path="url(#clip392)" style="stroke:#000000; stroke-linecap:round; stroke-linejoin:round; stroke-width:2; stroke-opacity:0.1; fill:none" points="1778.3,1348.39 1778.3,47.2441 "/>
<polyline clip-path="url(#clip392)" style="stroke:#000000; stroke-linecap:round; stroke-linejoin:round; stroke-width:2; stroke-opacity:0.1; fill:none" points="1872.36,1348.39 1872.36,47.2441 "/>
<polyline clip-path="url(#clip392)" style="stroke:#000000; stroke-linecap:round; stroke-linejoin:round; stroke-width:2; stroke-opacity:0.1; fill:none" points="1966.43,1348.39 1966.43,47.2441 "/>
<polyline clip-path="url(#clip392)" style="stroke:#000000; stroke-linecap:round; stroke-linejoin:round; stroke-width:2; stroke-opacity:0.1; fill:none" points="2060.49,1348.39 2060.49,47.2441 "/>
<polyline clip-path="url(#clip392)" style="stroke:#000000; stroke-linecap:round; stroke-linejoin:round; stroke-width:2; stroke-opacity:0.1; fill:none" points="2154.56,1348.39 2154.56,47.2441 "/>
<polyline clip-path="url(#clip392)" style="stroke:#000000; stroke-linecap:round; stroke-linejoin:round; stroke-width:2; stroke-opacity:0.1; fill:none" points="2248.63,1348.39 2248.63,47.2441 "/>
<polyline clip-path="url(#clip390)" style="stroke:#000000; stroke-linecap:round; stroke-linejoin:round; stroke-width:4; stroke-opacity:1; fill:none" points="169.121,1348.39 2352.76,1348.39 "/>
<polyline clip-path="url(#clip390)" style="stroke:#000000; stroke-linecap:round; stroke-linejoin:round; stroke-width:4; stroke-opacity:1; fill:none" points="273.252,1348.39 273.252,1329.49 "/>
<polyline clip-path="url(#clip390)" style="stroke:#000000; stroke-linecap:round; stroke-linejoin:round; stroke-width:4; stroke-opacity:1; fill:none" points="367.317,1348.39 367.317,1329.49 "/>
<polyline clip-path="url(#clip390)" style="stroke:#000000; stroke-linecap:round; stroke-linejoin:round; stroke-width:4; stroke-opacity:1; fill:none" points="461.383,1348.39 461.383,1329.49 "/>
<polyline clip-path="url(#clip390)" style="stroke:#000000; stroke-linecap:round; stroke-linejoin:round; stroke-width:4; stroke-opacity:1; fill:none" points="555.448,1348.39 555.448,1329.49 "/>
<polyline clip-path="url(#clip390)" style="stroke:#000000; stroke-linecap:round; stroke-linejoin:round; stroke-width:4; stroke-opacity:1; fill:none" points="649.513,1348.39 649.513,1329.49 "/>
<polyline clip-path="url(#clip390)" style="stroke:#000000; stroke-linecap:round; stroke-linejoin:round; stroke-width:4; stroke-opacity:1; fill:none" points="743.579,1348.39 743.579,1329.49 "/>
<polyline clip-path="url(#clip390)" style="stroke:#000000; stroke-linecap:round; stroke-linejoin:round; stroke-width:4; stroke-opacity:1; fill:none" points="837.644,1348.39 837.644,1329.49 "/>
<polyline clip-path="url(#clip390)" style="stroke:#000000; stroke-linecap:round; stroke-linejoin:round; stroke-width:4; stroke-opacity:1; fill:none" points="931.71,1348.39 931.71,1329.49 "/>
<polyline clip-path="url(#clip390)" style="stroke:#000000; stroke-linecap:round; stroke-linejoin:round; stroke-width:4; stroke-opacity:1; fill:none" points="1025.78,1348.39 1025.78,1329.49 "/>
<polyline clip-path="url(#clip390)" style="stroke:#000000; stroke-linecap:round; stroke-linejoin:round; stroke-width:4; stroke-opacity:1; fill:none" points="1119.84,1348.39 1119.84,1329.49 "/>
<polyline clip-path="url(#clip390)" style="stroke:#000000; stroke-linecap:round; stroke-linejoin:round; stroke-width:4; stroke-opacity:1; fill:none" points="1213.91,1348.39 1213.91,1329.49 "/>
<polyline clip-path="url(#clip390)" style="stroke:#000000; stroke-linecap:round; stroke-linejoin:round; stroke-width:4; stroke-opacity:1; fill:none" points="1307.97,1348.39 1307.97,1329.49 "/>
<polyline clip-path="url(#clip390)" style="stroke:#000000; stroke-linecap:round; stroke-linejoin:round; stroke-width:4; stroke-opacity:1; fill:none" points="1402.04,1348.39 1402.04,1329.49 "/>
<polyline clip-path="url(#clip390)" style="stroke:#000000; stroke-linecap:round; stroke-linejoin:round; stroke-width:4; stroke-opacity:1; fill:none" points="1496.1,1348.39 1496.1,1329.49 "/>
<polyline clip-path="url(#clip390)" style="stroke:#000000; stroke-linecap:round; stroke-linejoin:round; stroke-width:4; stroke-opacity:1; fill:none" points="1590.17,1348.39 1590.17,1329.49 "/>
<polyline clip-path="url(#clip390)" style="stroke:#000000; stroke-linecap:round; stroke-linejoin:round; stroke-width:4; stroke-opacity:1; fill:none" points="1684.23,1348.39 1684.23,1329.49 "/>
<polyline clip-path="url(#clip390)" style="stroke:#000000; stroke-linecap:round; stroke-linejoin:round; stroke-width:4; stroke-opacity:1; fill:none" points="1778.3,1348.39 1778.3,1329.49 "/>
<polyline clip-path="url(#clip390)" style="stroke:#000000; stroke-linecap:round; stroke-linejoin:round; stroke-width:4; stroke-opacity:1; fill:none" points="1872.36,1348.39 1872.36,1329.49 "/>
<polyline clip-path="url(#clip390)" style="stroke:#000000; stroke-linecap:round; stroke-linejoin:round; stroke-width:4; stroke-opacity:1; fill:none" points="1966.43,1348.39 1966.43,1329.49 "/>
<polyline clip-path="url(#clip390)" style="stroke:#000000; stroke-linecap:round; stroke-linejoin:round; stroke-width:4; stroke-opacity:1; fill:none" points="2060.49,1348.39 2060.49,1329.49 "/>
<polyline clip-path="url(#clip390)" style="stroke:#000000; stroke-linecap:round; stroke-linejoin:round; stroke-width:4; stroke-opacity:1; fill:none" points="2154.56,1348.39 2154.56,1329.49 "/>
<polyline clip-path="url(#clip390)" style="stroke:#000000; stroke-linecap:round; stroke-linejoin:round; stroke-width:4; stroke-opacity:1; fill:none" points="2248.63,1348.39 2248.63,1329.49 "/>
<path clip-path="url(#clip390)" d="M153.502 1614.66 L161.661 1600.52 L165.069 1602.49 L154.097 1621.49 L150.689 1619.53 Q149.634 1615.84 147.917 1609.56 Q146.191 1603.24 145.618 1601.55 Q144.556 1598.34 143.492 1596.71 Q142.42 1595.05 140.956 1594.21 Q138.571 1592.83 136.095 1593.65 Q133.631 1594.44 132.08 1597.13 Q130.981 1599.03 130.415 1601.54 Q129.862 1604.03 129.816 1607.21 L125.726 1604.85 Q126.156 1601.83 126.882 1599.42 Q127.607 1597.01 128.626 1595.24 Q131.311 1590.59 135.234 1589.17 Q139.156 1587.74 143.045 1589.99 Q144.89 1591.05 146.148 1592.72 Q147.399 1594.35 148.591 1597.47 Q148.883 1598.3 150.118 1602.6 Q151.334 1606.88 153.502 1614.66 Z" fill="#000000" fill-rule="nonzero" fill-opacity="1" /><path clip-path="url(#clip390)" d="M147.713 1569.59 Q145.907 1572.72 148.08 1576.08 Q150.245 1579.42 156.419 1582.98 Q162.573 1586.53 166.563 1586.75 Q170.545 1586.94 172.35 1583.81 Q174.168 1580.67 172.003 1577.33 Q169.83 1573.97 163.676 1570.41 Q157.502 1566.85 153.52 1566.66 Q149.53 1566.44 147.713 1569.59 M144.505 1567.74 Q147.41 1562.71 152.928 1562.36 Q158.436 1561.99 166.014 1566.36 Q173.571 1570.73 176.021 1575.7 Q178.463 1580.63 175.558 1585.67 Q172.653 1590.7 167.144 1591.07 Q161.627 1591.41 154.069 1587.05 Q146.492 1582.68 144.05 1577.74 Q141.6 1572.77 144.505 1567.74 Z" fill="#000000" fill-rule="nonzero" fill-opacity="1" /><path clip-path="url(#clip390)" d="M183.663 1562.41 L191.823 1548.28 L195.231 1550.25 L184.259 1569.25 L180.851 1567.28 Q179.796 1563.6 178.079 1557.32 Q176.352 1551 175.78 1549.31 Q174.718 1546.1 173.654 1544.47 Q172.582 1542.81 171.118 1541.97 Q168.733 1540.59 166.257 1541.4 Q163.793 1542.2 162.242 1544.89 Q161.142 1546.79 160.577 1549.3 Q160.023 1551.79 159.978 1554.97 L155.888 1552.61 Q156.318 1549.59 157.044 1547.18 Q157.769 1544.76 158.788 1543 Q161.473 1538.35 165.396 1536.92 Q169.318 1535.5 173.207 1537.75 Q175.052 1538.81 176.31 1540.47 Q177.561 1542.1 178.753 1545.22 Q179.045 1546.06 180.28 1550.36 Q181.496 1554.64 183.663 1562.41 Z" fill="#000000" fill-rule="nonzero" fill-opacity="1" /><path clip-path="url(#clip390)" d="M191.084 1520.16 Q193.384 1517.61 196.286 1517.12 Q199.199 1516.62 202.086 1518.28 Q206.517 1520.84 207.183 1525.29 Q207.849 1529.73 204.609 1535.35 Q203.521 1537.23 201.982 1539.02 Q200.476 1540.79 198.507 1542.49 L194.598 1540.23 Q196.553 1539.12 198.211 1537.4 Q199.87 1535.69 201.131 1533.5 Q203.33 1529.69 202.973 1526.84 Q202.627 1523.97 199.76 1522.31 Q197.114 1520.78 194.554 1521.79 Q191.985 1522.77 190.076 1526.08 L188.062 1529.56 L184.734 1527.64 L186.841 1523.99 Q188.565 1521.01 188.297 1518.74 Q188.008 1516.46 185.763 1515.17 Q183.458 1513.83 181.286 1514.77 Q179.105 1515.68 177.346 1518.73 Q176.385 1520.39 175.647 1522.5 Q174.908 1524.62 174.35 1527.34 L170.742 1525.26 Q171.431 1522.58 172.268 1520.39 Q173.116 1518.18 174.146 1516.4 Q176.808 1511.79 180.464 1510.32 Q184.1 1508.83 187.668 1510.89 Q190.154 1512.33 191.056 1514.75 Q191.939 1517.15 191.084 1520.16 Z" fill="#000000" fill-rule="nonzero" fill-opacity="1" /><path clip-path="url(#clip390)" d="M200.952 1510.57 L207.19 1499.77 L210.478 1501.66 L204.24 1512.47 L200.952 1510.57 Z" fill="#000000" fill-rule="nonzero" fill-opacity="1" /><path clip-path="url(#clip390)" d="M220.77 1498.14 L224.589 1491.53 L201.756 1478.35 L199.044 1486.38 L195.356 1484.25 L198.044 1476.26 L200.382 1472.21 L226.904 1487.52 L230.723 1480.9 L234.131 1482.87 L224.178 1500.11 L220.77 1498.14 Z" fill="#000000" fill-rule="nonzero" fill-opacity="1" /><path clip-path="url(#clip390)" d="M216.59 1450.29 Q214.784 1453.42 216.957 1456.78 Q219.122 1460.12 225.296 1463.68 Q231.45 1467.24 235.44 1467.46 Q239.422 1467.64 241.227 1464.52 Q243.044 1461.37 240.88 1458.03 Q238.707 1454.67 232.553 1451.11 Q226.378 1447.55 222.397 1447.36 Q218.407 1447.14 216.59 1450.29 M213.382 1448.44 Q216.287 1443.41 221.805 1443.06 Q227.313 1442.69 234.891 1447.06 Q242.448 1451.43 244.898 1456.4 Q247.34 1461.34 244.435 1466.37 Q241.53 1471.4 236.021 1471.77 Q230.504 1472.12 222.946 1467.75 Q215.369 1463.38 212.927 1458.44 Q210.477 1453.47 213.382 1448.44 Z" fill="#000000" fill-rule="nonzero" fill-opacity="1" /><path clip-path="url(#clip390)" d="M239.667 1443.51 L245.905 1432.71 L249.193 1434.61 L242.955 1445.41 L239.667 1443.51 Z" fill="#000000" fill-rule="nonzero" fill-opacity="1" /><path clip-path="url(#clip390)" d="M261.094 1428.3 L269.253 1414.17 L272.661 1416.13 L261.689 1435.14 L258.281 1433.17 Q257.227 1429.49 255.509 1423.2 Q253.783 1416.89 253.21 1415.2 Q252.148 1411.99 251.084 1410.36 Q250.012 1408.7 248.548 1407.85 Q246.163 1406.48 243.687 1407.29 Q241.223 1408.09 239.672 1410.77 Q238.573 1412.68 238.007 1415.19 Q237.454 1417.67 237.408 1420.85 L233.318 1418.49 Q233.748 1415.48 234.474 1413.07 Q235.199 1410.65 236.218 1408.89 Q238.903 1404.24 242.826 1402.81 Q246.748 1401.39 250.637 1403.63 Q252.482 1404.7 253.741 1406.36 Q254.991 1407.99 256.183 1411.11 Q256.475 1411.95 257.71 1416.24 Q258.926 1420.53 261.094 1428.3 Z" fill="#000000" fill-rule="nonzero" fill-opacity="1" /><path clip-path="url(#clip390)" d="M268.514 1386.05 Q270.814 1383.5 273.716 1383.01 Q276.63 1382.5 279.516 1384.17 Q283.947 1386.73 284.613 1391.17 Q285.28 1395.62 282.039 1401.24 Q280.951 1403.12 279.413 1404.9 Q277.906 1406.68 275.937 1408.38 L272.028 1406.12 Q273.983 1405 275.641 1403.29 Q277.3 1401.57 278.561 1399.39 Q280.76 1395.58 280.403 1392.73 Q280.057 1389.85 277.19 1388.2 Q274.544 1386.67 271.984 1387.68 Q269.416 1388.65 267.506 1391.96 L265.492 1395.45 L262.164 1393.53 L264.271 1389.88 Q265.995 1386.89 265.727 1384.63 Q265.438 1382.35 263.193 1381.05 Q260.888 1379.72 258.716 1380.66 Q256.535 1381.57 254.776 1384.61 Q253.816 1386.28 253.077 1388.39 Q252.338 1390.5 251.781 1393.23 L248.172 1391.14 Q248.862 1388.47 249.698 1386.28 Q250.547 1384.07 251.577 1382.28 Q254.239 1377.67 257.894 1376.2 Q261.53 1374.72 265.099 1376.78 Q267.584 1378.22 268.487 1380.63 Q269.369 1383.04 268.514 1386.05 Z" fill="#000000" fill-rule="nonzero" fill-opacity="1" /><path clip-path="url(#clip390)" d="M435.293 1615.36 L443.452 1601.22 L446.86 1603.19 L435.888 1622.2 L432.48 1620.23 Q431.426 1616.55 429.708 1610.26 Q427.982 1603.95 427.409 1602.25 Q426.347 1599.05 425.283 1597.42 Q424.211 1595.75 422.748 1594.91 Q420.362 1593.53 417.886 1594.35 Q415.422 1595.14 413.871 1597.83 Q412.772 1599.73 412.206 1602.24 Q411.653 1604.73 411.607 1607.91 L407.517 1605.55 Q407.947 1602.54 408.673 1600.12 Q409.399 1597.71 410.417 1595.94 Q413.102 1591.29 417.025 1589.87 Q420.947 1588.44 424.837 1590.69 Q426.681 1591.75 427.94 1593.42 Q429.19 1595.05 430.382 1598.17 Q430.674 1599 431.91 1603.3 Q433.125 1607.58 435.293 1615.36 Z" fill="#000000" fill-rule="nonzero" fill-opacity="1" /><path clip-path="url(#clip390)" d="M429.504 1570.29 Q427.699 1573.42 429.871 1576.78 Q432.036 1580.12 438.21 1583.68 Q444.365 1587.24 448.355 1587.46 Q452.336 1587.64 454.142 1584.52 Q455.959 1581.37 453.794 1578.03 Q451.621 1574.67 445.467 1571.11 Q439.293 1567.55 435.311 1567.36 Q431.321 1567.14 429.504 1570.29 M426.297 1568.44 Q429.202 1563.41 434.719 1563.06 Q440.227 1562.69 447.805 1567.06 Q455.363 1571.43 457.813 1576.4 Q460.254 1581.34 457.349 1586.37 Q454.444 1591.4 448.935 1591.77 Q443.418 1592.12 435.861 1587.75 Q428.283 1583.38 425.841 1578.44 Q423.391 1573.47 426.297 1568.44 Z" fill="#000000" fill-rule="nonzero" fill-opacity="1" /><path clip-path="url(#clip390)" d="M465.455 1563.11 L473.614 1548.98 L477.022 1550.95 L466.05 1569.95 L462.642 1567.99 Q461.588 1564.3 459.87 1558.02 Q458.144 1551.7 457.571 1550.01 Q456.509 1546.8 455.445 1545.17 Q454.373 1543.51 452.91 1542.67 Q450.524 1541.29 448.048 1542.11 Q445.584 1542.9 444.033 1545.59 Q442.934 1547.49 442.368 1550 Q441.815 1552.49 441.769 1555.67 L437.679 1553.31 Q438.109 1550.29 438.835 1547.88 Q439.56 1545.47 440.579 1543.7 Q443.264 1539.05 447.187 1537.63 Q451.109 1536.2 454.998 1538.45 Q456.843 1539.51 458.102 1541.18 Q459.352 1542.81 460.544 1545.93 Q460.836 1546.76 462.071 1551.06 Q463.287 1555.34 465.455 1563.11 Z" fill="#000000" fill-rule="nonzero" fill-opacity="1" /><path clip-path="url(#clip390)" d="M472.875 1520.86 Q475.175 1518.32 478.077 1517.83 Q480.991 1517.32 483.877 1518.98 Q488.308 1521.54 488.974 1525.99 Q489.641 1530.44 486.4 1536.05 Q485.312 1537.93 483.774 1539.72 Q482.267 1541.5 480.298 1543.19 L476.389 1540.93 Q478.344 1539.82 480.002 1538.1 Q481.661 1536.39 482.922 1534.2 Q485.121 1530.39 484.764 1527.54 Q484.418 1524.67 481.551 1523.01 Q478.905 1521.49 476.345 1522.49 Q473.777 1523.47 471.867 1526.78 L469.853 1530.27 L466.525 1528.34 L468.632 1524.7 Q470.356 1521.71 470.088 1519.44 Q469.799 1517.16 467.554 1515.87 Q465.249 1514.54 463.077 1515.47 Q460.896 1516.38 459.137 1519.43 Q458.177 1521.09 457.438 1523.2 Q456.699 1525.32 456.142 1528.04 L452.533 1525.96 Q453.223 1523.28 454.059 1521.09 Q454.908 1518.88 455.938 1517.1 Q458.6 1512.49 462.255 1511.02 Q465.891 1509.53 469.46 1511.59 Q471.945 1513.03 472.848 1515.45 Q473.73 1517.86 472.875 1520.86 Z" fill="#000000" fill-rule="nonzero" fill-opacity="1" /><path clip-path="url(#clip390)" d="M482.743 1511.27 L488.982 1500.47 L492.269 1502.37 L486.031 1513.17 L482.743 1511.27 Z" fill="#000000" fill-rule="nonzero" fill-opacity="1" /><path clip-path="url(#clip390)" d="M502.561 1498.84 L506.38 1492.23 L483.547 1479.05 L480.835 1487.08 L477.147 1484.95 L479.835 1476.96 L482.173 1472.91 L508.695 1488.22 L512.515 1481.6 L515.922 1483.57 L505.969 1500.81 L502.561 1498.84 Z" fill="#000000" fill-rule="nonzero" fill-opacity="1" /><path clip-path="url(#clip390)" d="M498.381 1450.99 Q496.575 1454.12 498.748 1457.49 Q500.913 1460.82 507.087 1464.39 Q513.241 1467.94 517.231 1468.16 Q521.213 1468.34 523.018 1465.22 Q524.836 1462.07 522.671 1458.74 Q520.498 1455.37 514.344 1451.82 Q508.17 1448.25 504.188 1448.06 Q500.198 1447.85 498.381 1450.99 M495.174 1449.14 Q498.079 1444.11 503.596 1443.77 Q509.104 1443.39 516.682 1447.77 Q524.24 1452.13 526.69 1457.1 Q529.131 1462.04 526.226 1467.07 Q523.321 1472.1 517.812 1472.47 Q512.295 1472.82 504.738 1468.45 Q497.16 1464.08 494.718 1459.14 Q492.268 1454.17 495.174 1449.14 Z" fill="#000000" fill-rule="nonzero" fill-opacity="1" /><path clip-path="url(#clip390)" d="M521.458 1444.22 L527.697 1433.41 L530.984 1435.31 L524.746 1446.11 L521.458 1444.22 Z" fill="#000000" fill-rule="nonzero" fill-opacity="1" /><path clip-path="url(#clip390)" d="M542.885 1429 L551.044 1414.87 L554.452 1416.84 L543.48 1435.84 L540.072 1433.87 Q539.018 1430.19 537.3 1423.91 Q535.574 1417.59 535.001 1415.9 Q533.939 1412.69 532.875 1411.06 Q531.803 1409.4 530.34 1408.55 Q527.954 1407.18 525.478 1407.99 Q523.014 1408.79 521.463 1411.48 Q520.364 1413.38 519.798 1415.89 Q519.245 1418.37 519.199 1421.55 L515.109 1419.19 Q515.539 1416.18 516.265 1413.77 Q516.991 1411.35 518.009 1409.59 Q520.694 1404.94 524.617 1403.51 Q528.539 1402.09 532.429 1404.33 Q534.273 1405.4 535.532 1407.06 Q536.782 1408.69 537.974 1411.81 Q538.266 1412.65 539.502 1416.95 Q540.717 1421.23 542.885 1429 Z" fill="#000000" fill-rule="nonzero" fill-opacity="1" /><path clip-path="url(#clip390)" d="M548.07 1389.6 Q546.496 1392.33 547.435 1395.01 Q548.385 1397.67 551.632 1399.55 Q554.86 1401.41 557.659 1400.91 Q560.449 1400.39 562.023 1397.66 Q563.597 1394.93 562.647 1392.27 Q561.689 1389.58 558.461 1387.72 Q555.213 1385.84 552.423 1386.37 Q549.644 1386.88 548.07 1389.6 M540.022 1374.24 L543.711 1376.37 Q542.109 1377.48 540.826 1378.82 Q539.553 1380.14 538.674 1381.67 Q536.359 1385.68 537.839 1389.36 Q539.33 1393.03 544.629 1396.49 Q543.568 1394.3 543.675 1391.98 Q543.763 1389.66 545.002 1387.51 Q547.606 1383 551.857 1381.98 Q556.1 1380.93 560.81 1383.65 Q565.421 1386.31 566.634 1390.65 Q567.846 1394.98 565.23 1399.51 Q562.233 1404.7 556.678 1405.16 Q551.103 1405.6 543.545 1401.24 Q536.449 1397.14 534.183 1391.34 Q531.898 1385.53 535.173 1379.86 Q536.053 1378.34 537.245 1376.97 Q538.448 1375.58 540.022 1374.24 Z" fill="#000000" fill-rule="nonzero" fill-opacity="1" /><path clip-path="url(#clip390)" d="M718.183 1614.15 L726.343 1600.02 L729.751 1601.99 L718.779 1620.99 L715.371 1619.03 Q714.316 1615.34 712.599 1609.06 Q710.872 1602.74 710.3 1601.05 Q709.238 1597.84 708.174 1596.21 Q707.102 1594.55 705.638 1593.71 Q703.253 1592.33 700.777 1593.15 Q698.313 1593.94 696.762 1596.63 Q695.662 1598.53 695.097 1601.04 Q694.543 1603.53 694.498 1606.71 L690.408 1604.35 Q690.838 1601.33 691.564 1598.92 Q692.289 1596.5 693.308 1594.74 Q695.993 1590.09 699.916 1588.67 Q703.838 1587.24 707.727 1589.49 Q709.572 1590.55 710.83 1592.21 Q712.081 1593.84 713.273 1596.97 Q713.565 1597.8 714.8 1602.1 Q716.016 1606.38 718.183 1614.15 Z" fill="#000000" fill-rule="nonzero" fill-opacity="1" /><path clip-path="url(#clip390)" d="M712.395 1569.09 Q710.589 1572.22 712.762 1575.58 Q714.926 1578.92 721.101 1582.48 Q727.255 1586.03 731.245 1586.25 Q735.227 1586.44 737.032 1583.31 Q738.849 1580.17 736.685 1576.83 Q734.512 1573.46 728.358 1569.91 Q722.183 1566.35 718.202 1566.16 Q714.212 1565.94 712.395 1569.09 M709.187 1567.24 Q712.092 1562.2 717.609 1561.86 Q723.118 1561.49 730.696 1565.86 Q738.253 1570.23 740.703 1575.19 Q743.145 1580.13 740.24 1585.16 Q737.335 1590.2 731.826 1590.57 Q726.309 1590.91 718.751 1586.55 Q711.174 1582.18 708.732 1577.24 Q706.282 1572.27 709.187 1567.24 Z" fill="#000000" fill-rule="nonzero" fill-opacity="1" /><path clip-path="url(#clip390)" d="M748.345 1561.91 L756.505 1547.78 L759.913 1549.75 L748.941 1568.75 L745.533 1566.78 Q744.478 1563.1 742.761 1556.82 Q741.034 1550.5 740.462 1548.81 Q739.399 1545.6 738.336 1543.97 Q737.264 1542.31 735.8 1541.47 Q733.415 1540.09 730.939 1540.9 Q728.475 1541.7 726.924 1544.39 Q725.824 1546.29 725.259 1548.8 Q724.705 1551.28 724.66 1554.47 L720.57 1552.1 Q721 1549.09 721.725 1546.68 Q722.451 1544.26 723.47 1542.5 Q726.155 1537.85 730.077 1536.42 Q734 1535 737.889 1537.25 Q739.733 1538.31 740.992 1539.97 Q742.243 1541.6 743.435 1544.72 Q743.727 1545.56 744.962 1549.86 Q746.178 1554.14 748.345 1561.91 Z" fill="#000000" fill-rule="nonzero" fill-opacity="1" /><path clip-path="url(#clip390)" d="M755.766 1519.66 Q758.066 1517.11 760.968 1516.62 Q763.881 1516.11 766.768 1517.78 Q771.198 1520.34 771.865 1524.79 Q772.531 1529.23 769.29 1534.85 Q768.203 1536.73 766.664 1538.52 Q765.158 1540.29 763.189 1541.99 L759.28 1539.73 Q761.234 1538.62 762.893 1536.9 Q764.552 1535.18 765.813 1533 Q768.012 1529.19 767.654 1526.34 Q767.308 1523.47 764.442 1521.81 Q761.796 1520.28 759.236 1521.29 Q756.667 1522.27 754.758 1525.57 L752.744 1529.06 L749.416 1527.14 L751.522 1523.49 Q753.247 1520.51 752.979 1518.24 Q752.69 1515.96 750.445 1514.66 Q748.14 1513.33 745.968 1514.27 Q743.787 1515.18 742.028 1518.22 Q741.067 1519.89 740.329 1522 Q739.59 1524.11 739.032 1526.84 L735.424 1524.76 Q736.113 1522.08 736.95 1519.89 Q737.798 1517.68 738.828 1515.9 Q741.49 1511.29 745.146 1509.81 Q748.782 1508.33 752.35 1510.39 Q754.836 1511.83 755.738 1514.25 Q756.621 1516.65 755.766 1519.66 Z" fill="#000000" fill-rule="nonzero" fill-opacity="1" /><path clip-path="url(#clip390)" d="M765.634 1510.07 L771.872 1499.26 L775.16 1501.16 L768.921 1511.97 L765.634 1510.07 Z" fill="#000000" fill-rule="nonzero" fill-opacity="1" /><path clip-path="url(#clip390)" d="M785.452 1497.64 L789.271 1491.03 L766.438 1477.84 L763.726 1485.87 L760.037 1483.74 L762.726 1475.75 L765.064 1471.7 L791.586 1487.02 L795.405 1480.4 L798.813 1482.37 L788.859 1499.61 L785.452 1497.64 Z" fill="#000000" fill-rule="nonzero" fill-opacity="1" /><path clip-path="url(#clip390)" d="M781.272 1449.79 Q779.466 1452.92 781.639 1456.28 Q783.803 1459.62 789.978 1463.18 Q796.132 1466.74 800.122 1466.95 Q804.104 1467.14 805.909 1464.01 Q807.726 1460.87 805.562 1457.53 Q803.389 1454.17 797.235 1450.61 Q791.06 1447.05 787.079 1446.86 Q783.089 1446.64 781.272 1449.79 M778.064 1447.94 Q780.969 1442.91 786.486 1442.56 Q791.995 1442.19 799.573 1446.56 Q807.13 1450.93 809.58 1455.9 Q812.022 1460.83 809.117 1465.87 Q806.212 1470.9 800.703 1471.27 Q795.186 1471.62 787.628 1467.25 Q780.051 1462.88 777.609 1457.94 Q775.159 1452.97 778.064 1447.94 Z" fill="#000000" fill-rule="nonzero" fill-opacity="1" /><path clip-path="url(#clip390)" d="M804.349 1443.01 L810.587 1432.21 L813.875 1434.11 L807.637 1444.91 L804.349 1443.01 Z" fill="#000000" fill-rule="nonzero" fill-opacity="1" /><path clip-path="url(#clip390)" d="M818.115 1411.67 Q820.415 1409.12 823.317 1408.63 Q826.231 1408.12 829.117 1409.79 Q833.548 1412.35 834.214 1416.79 Q834.88 1421.24 831.64 1426.85 Q830.552 1428.74 829.013 1430.52 Q827.507 1432.3 825.538 1434 L821.629 1431.74 Q823.584 1430.62 825.242 1428.91 Q826.901 1427.19 828.162 1425.01 Q830.361 1421.2 830.004 1418.35 Q829.658 1415.47 826.791 1413.82 Q824.145 1412.29 821.585 1413.3 Q819.017 1414.27 817.107 1417.58 L815.093 1421.07 L811.765 1419.15 L813.872 1415.5 Q815.596 1412.51 815.328 1410.25 Q815.039 1407.97 812.794 1406.67 Q810.489 1405.34 808.317 1406.28 Q806.136 1407.19 804.377 1410.23 Q803.416 1411.9 802.678 1414.01 Q801.939 1416.12 801.381 1418.85 L797.773 1416.76 Q798.463 1414.09 799.299 1411.9 Q800.147 1409.69 801.178 1407.9 Q803.84 1403.29 807.495 1401.82 Q811.131 1400.34 814.699 1402.4 Q817.185 1403.84 818.088 1406.25 Q818.97 1408.66 818.115 1411.67 Z" fill="#000000" fill-rule="nonzero" fill-opacity="1" /><path clip-path="url(#clip390)" d="M839.248 1404.46 L843.067 1397.85 L820.234 1384.67 L817.522 1392.7 L813.833 1390.57 L816.522 1382.58 L818.86 1378.53 L845.382 1393.84 L849.201 1387.22 L852.609 1389.19 L842.656 1406.43 L839.248 1404.46 Z" fill="#000000" fill-rule="nonzero" fill-opacity="1" /><path clip-path="url(#clip390)" d="M1000.09 1614.66 L1008.25 1600.52 L1011.66 1602.49 L1000.69 1621.49 L997.278 1619.53 Q996.223 1615.84 994.506 1609.56 Q992.779 1603.24 992.207 1601.55 Q991.145 1598.34 990.081 1596.71 Q989.009 1595.05 987.545 1594.21 Q985.16 1592.83 982.684 1593.65 Q980.22 1594.44 978.669 1597.13 Q977.569 1599.03 977.004 1601.54 Q976.45 1604.03 976.405 1607.21 L972.315 1604.85 Q972.745 1601.83 973.47 1599.42 Q974.196 1597.01 975.215 1595.24 Q977.9 1590.59 981.822 1589.17 Q985.745 1587.74 989.634 1589.99 Q991.478 1591.05 992.737 1592.72 Q993.988 1594.35 995.18 1597.47 Q995.472 1598.3 996.707 1602.6 Q997.923 1606.88 1000.09 1614.66 Z" fill="#000000" fill-rule="nonzero" fill-opacity="1" /><path clip-path="url(#clip390)" d="M994.302 1569.59 Q992.496 1572.72 994.669 1576.08 Q996.833 1579.42 1003.01 1582.98 Q1009.16 1586.53 1013.15 1586.75 Q1017.13 1586.94 1018.94 1583.81 Q1020.76 1580.67 1018.59 1577.33 Q1016.42 1573.97 1010.26 1570.41 Q1004.09 1566.85 1000.11 1566.66 Q996.119 1566.44 994.302 1569.59 M991.094 1567.74 Q993.999 1562.71 999.516 1562.36 Q1005.02 1561.99 1012.6 1566.36 Q1020.16 1570.73 1022.61 1575.7 Q1025.05 1580.63 1022.15 1585.67 Q1019.24 1590.7 1013.73 1591.07 Q1008.22 1591.41 1000.66 1587.05 Q993.081 1582.68 990.639 1577.74 Q988.189 1572.77 991.094 1567.74 Z" fill="#000000" fill-rule="nonzero" fill-opacity="1" /><path clip-path="url(#clip390)" d="M1030.25 1562.41 L1038.41 1548.28 L1041.82 1550.25 L1030.85 1569.25 L1027.44 1567.28 Q1026.39 1563.6 1024.67 1557.32 Q1022.94 1551 1022.37 1549.31 Q1021.31 1546.1 1020.24 1544.47 Q1019.17 1542.81 1017.71 1541.97 Q1015.32 1540.59 1012.85 1541.4 Q1010.38 1542.2 1008.83 1544.89 Q1007.73 1546.79 1007.17 1549.3 Q1006.61 1551.79 1006.57 1554.97 L1002.48 1552.61 Q1002.91 1549.59 1003.63 1547.18 Q1004.36 1544.76 1005.38 1543 Q1008.06 1538.35 1011.98 1536.92 Q1015.91 1535.5 1019.8 1537.75 Q1021.64 1538.81 1022.9 1540.47 Q1024.15 1542.1 1025.34 1545.22 Q1025.63 1546.06 1026.87 1550.36 Q1028.08 1554.64 1030.25 1562.41 Z" fill="#000000" fill-rule="nonzero" fill-opacity="1" /><path clip-path="url(#clip390)" d="M1037.67 1520.16 Q1039.97 1517.61 1042.87 1517.12 Q1045.79 1516.62 1048.67 1518.28 Q1053.11 1520.84 1053.77 1525.29 Q1054.44 1529.73 1051.2 1535.35 Q1050.11 1537.23 1048.57 1539.02 Q1047.06 1540.79 1045.1 1542.49 L1041.19 1540.23 Q1043.14 1539.12 1044.8 1537.4 Q1046.46 1535.69 1047.72 1533.5 Q1049.92 1529.69 1049.56 1526.84 Q1049.22 1523.97 1046.35 1522.31 Q1043.7 1520.78 1041.14 1521.79 Q1038.57 1522.77 1036.66 1526.08 L1034.65 1529.56 L1031.32 1527.64 L1033.43 1523.99 Q1035.15 1521.01 1034.89 1518.74 Q1034.6 1516.46 1032.35 1515.17 Q1030.05 1513.83 1027.87 1514.77 Q1025.69 1515.68 1023.93 1518.73 Q1022.97 1520.39 1022.24 1522.5 Q1021.5 1524.62 1020.94 1527.34 L1017.33 1525.26 Q1018.02 1522.58 1018.86 1520.39 Q1019.71 1518.18 1020.74 1516.4 Q1023.4 1511.79 1027.05 1510.32 Q1030.69 1508.83 1034.26 1510.89 Q1036.74 1512.33 1037.65 1514.75 Q1038.53 1517.15 1037.67 1520.16 Z" fill="#000000" fill-rule="nonzero" fill-opacity="1" /><path clip-path="url(#clip390)" d="M1047.54 1510.57 L1053.78 1499.77 L1057.07 1501.66 L1050.83 1512.47 L1047.54 1510.57 Z" fill="#000000" fill-rule="nonzero" fill-opacity="1" /><path clip-path="url(#clip390)" d="M1067.36 1498.14 L1071.18 1491.53 L1048.34 1478.35 L1045.63 1486.38 L1041.94 1484.25 L1044.63 1476.26 L1046.97 1472.21 L1073.49 1487.52 L1077.31 1480.9 L1080.72 1482.87 L1070.77 1500.11 L1067.36 1498.14 Z" fill="#000000" fill-rule="nonzero" fill-opacity="1" /><path clip-path="url(#clip390)" d="M1082.44 1472.02 L1086.26 1465.41 L1063.43 1452.22 L1060.71 1460.25 L1057.03 1458.12 L1059.71 1450.13 L1062.05 1446.09 L1088.57 1461.4 L1092.39 1454.78 L1095.8 1456.75 L1085.85 1473.99 L1082.44 1472.02 Z" fill="#000000" fill-rule="nonzero" fill-opacity="1" /><path clip-path="url(#clip390)" d="M1086.26 1443.51 L1092.49 1432.71 L1095.78 1434.61 L1089.54 1445.41 L1086.26 1443.51 Z" fill="#000000" fill-rule="nonzero" fill-opacity="1" /><path clip-path="url(#clip390)" d="M1086.81 1409.36 Q1085.01 1412.48 1087.18 1415.85 Q1089.34 1419.18 1095.52 1422.75 Q1101.67 1426.3 1105.66 1426.52 Q1109.64 1426.71 1111.45 1423.58 Q1113.27 1420.43 1111.1 1417.1 Q1108.93 1413.73 1102.78 1410.18 Q1096.6 1406.61 1092.62 1406.43 Q1088.63 1406.21 1086.81 1409.36 M1083.61 1407.5 Q1086.51 1402.47 1092.03 1402.13 Q1097.54 1401.75 1105.11 1406.13 Q1112.67 1410.49 1115.12 1415.46 Q1117.56 1420.4 1114.66 1425.43 Q1111.75 1430.46 1106.24 1430.84 Q1100.73 1431.18 1093.17 1426.82 Q1085.59 1422.44 1083.15 1417.5 Q1080.7 1412.54 1083.61 1407.5 Z" fill="#000000" fill-rule="nonzero" fill-opacity="1" /><path clip-path="url(#clip390)" d="M1115.1 1386.05 Q1117.4 1383.5 1120.3 1383.01 Q1123.22 1382.5 1126.11 1384.17 Q1130.54 1386.73 1131.2 1391.17 Q1131.87 1395.62 1128.63 1401.24 Q1127.54 1403.12 1126 1404.9 Q1124.49 1406.68 1122.53 1408.38 L1118.62 1406.12 Q1120.57 1405 1122.23 1403.29 Q1123.89 1401.57 1125.15 1399.39 Q1127.35 1395.58 1126.99 1392.73 Q1126.65 1389.85 1123.78 1388.2 Q1121.13 1386.67 1118.57 1387.68 Q1116 1388.65 1114.09 1391.96 L1112.08 1395.45 L1108.75 1393.53 L1110.86 1389.88 Q1112.58 1386.89 1112.32 1384.63 Q1112.03 1382.35 1109.78 1381.05 Q1107.48 1379.72 1105.3 1380.66 Q1103.12 1381.57 1101.36 1384.61 Q1100.4 1386.28 1099.67 1388.39 Q1098.93 1390.5 1098.37 1393.23 L1094.76 1391.14 Q1095.45 1388.47 1096.29 1386.28 Q1097.14 1384.07 1098.17 1382.28 Q1100.83 1377.67 1104.48 1376.2 Q1108.12 1374.72 1111.69 1376.78 Q1114.17 1378.22 1115.08 1380.63 Q1115.96 1383.04 1115.1 1386.05 Z" fill="#000000" fill-rule="nonzero" fill-opacity="1" /><path clip-path="url(#clip390)" d="M1282.01 1615.14 L1290.17 1601 L1293.58 1602.97 L1282.6 1621.98 L1279.2 1620.01 Q1278.14 1616.32 1276.42 1610.04 Q1274.7 1603.73 1274.13 1602.03 Q1273.06 1598.83 1272 1597.2 Q1270.93 1595.53 1269.46 1594.69 Q1267.08 1593.31 1264.6 1594.13 Q1262.14 1594.92 1260.59 1597.61 Q1259.49 1599.51 1258.92 1602.02 Q1258.37 1604.51 1258.32 1607.69 L1254.23 1605.33 Q1254.66 1602.32 1255.39 1599.9 Q1256.11 1597.49 1257.13 1595.72 Q1259.82 1591.07 1263.74 1589.65 Q1267.66 1588.22 1271.55 1590.47 Q1273.4 1591.53 1274.66 1593.2 Q1275.91 1594.83 1277.1 1597.95 Q1277.39 1598.78 1278.63 1603.08 Q1279.84 1607.36 1282.01 1615.14 Z" fill="#000000" fill-rule="nonzero" fill-opacity="1" /><path clip-path="url(#clip390)" d="M1276.22 1570.07 Q1274.41 1573.2 1276.59 1576.56 Q1278.75 1579.9 1284.93 1583.46 Q1291.08 1587.02 1295.07 1587.23 Q1299.05 1587.42 1300.86 1584.29 Q1302.67 1581.15 1300.51 1577.81 Q1298.34 1574.45 1292.18 1570.89 Q1286.01 1567.33 1282.03 1567.14 Q1278.04 1566.92 1276.22 1570.07 M1273.01 1568.22 Q1275.92 1563.19 1281.43 1562.84 Q1286.94 1562.47 1294.52 1566.84 Q1302.08 1571.21 1304.53 1576.18 Q1306.97 1581.11 1304.07 1586.15 Q1301.16 1591.18 1295.65 1591.55 Q1290.13 1591.9 1282.58 1587.53 Q1275 1583.16 1272.56 1578.22 Q1270.11 1573.25 1273.01 1568.22 Z" fill="#000000" fill-rule="nonzero" fill-opacity="1" /><path clip-path="url(#clip390)" d="M1312.17 1562.89 L1320.33 1548.76 L1323.74 1550.73 L1312.77 1569.73 L1309.36 1567.77 Q1308.3 1564.08 1306.59 1557.8 Q1304.86 1551.48 1304.29 1549.79 Q1303.22 1546.58 1302.16 1544.95 Q1301.09 1543.29 1299.63 1542.45 Q1297.24 1541.07 1294.76 1541.89 Q1292.3 1542.68 1290.75 1545.37 Q1289.65 1547.27 1289.08 1549.78 Q1288.53 1552.27 1288.48 1555.45 L1284.4 1553.09 Q1284.83 1550.07 1285.55 1547.66 Q1286.28 1545.24 1287.29 1543.48 Q1289.98 1538.83 1293.9 1537.41 Q1297.83 1535.98 1301.71 1538.23 Q1303.56 1539.29 1304.82 1540.95 Q1306.07 1542.59 1307.26 1545.71 Q1307.55 1546.54 1308.79 1550.84 Q1310 1555.12 1312.17 1562.89 Z" fill="#000000" fill-rule="nonzero" fill-opacity="1" /><path clip-path="url(#clip390)" d="M1319.59 1520.64 Q1321.89 1518.1 1324.79 1517.61 Q1327.71 1517.1 1330.59 1518.76 Q1335.02 1521.32 1335.69 1525.77 Q1336.36 1530.22 1333.12 1535.83 Q1332.03 1537.71 1330.49 1539.5 Q1328.98 1541.27 1327.01 1542.97 L1323.11 1540.71 Q1325.06 1539.6 1326.72 1537.88 Q1328.38 1536.17 1329.64 1533.98 Q1331.84 1530.17 1331.48 1527.32 Q1331.13 1524.45 1328.27 1522.79 Q1325.62 1521.26 1323.06 1522.27 Q1320.49 1523.25 1318.58 1526.56 L1316.57 1530.04 L1313.24 1528.12 L1315.35 1524.47 Q1317.07 1521.49 1316.8 1519.22 Q1316.52 1516.94 1314.27 1515.65 Q1311.96 1514.32 1309.79 1515.25 Q1307.61 1516.16 1305.85 1519.21 Q1304.89 1520.87 1304.15 1522.98 Q1303.42 1525.1 1302.86 1527.82 L1299.25 1525.74 Q1299.94 1523.06 1300.78 1520.87 Q1301.62 1518.66 1302.65 1516.88 Q1305.32 1512.27 1308.97 1510.8 Q1312.61 1509.31 1316.18 1511.37 Q1318.66 1512.81 1319.56 1515.23 Q1320.45 1517.64 1319.59 1520.64 Z" fill="#000000" fill-rule="nonzero" fill-opacity="1" /><path clip-path="url(#clip390)" d="M1329.46 1511.05 L1335.7 1500.25 L1338.99 1502.14 L1332.75 1512.95 L1329.46 1511.05 Z" fill="#000000" fill-rule="nonzero" fill-opacity="1" /><path clip-path="url(#clip390)" d="M1349.28 1498.62 L1353.1 1492.01 L1330.26 1478.83 L1327.55 1486.86 L1323.86 1484.73 L1326.55 1476.74 L1328.89 1472.69 L1355.41 1488 L1359.23 1481.38 L1362.64 1483.35 L1352.68 1500.59 L1349.28 1498.62 Z" fill="#000000" fill-rule="nonzero" fill-opacity="1" /><path clip-path="url(#clip390)" d="M1364.36 1472.5 L1368.18 1465.89 L1345.34 1452.71 L1342.63 1460.74 L1338.94 1458.61 L1341.63 1450.62 L1343.97 1446.57 L1370.49 1461.88 L1374.31 1455.26 L1377.72 1457.23 L1367.77 1474.47 L1364.36 1472.5 Z" fill="#000000" fill-rule="nonzero" fill-opacity="1" /><path clip-path="url(#clip390)" d="M1368.17 1444 L1374.41 1433.19 L1377.7 1435.09 L1371.46 1445.89 L1368.17 1444 Z" fill="#000000" fill-rule="nonzero" fill-opacity="1" /><path clip-path="url(#clip390)" d="M1368.73 1409.84 Q1366.93 1412.96 1369.1 1416.33 Q1371.26 1419.66 1377.44 1423.23 Q1383.59 1426.78 1387.58 1427 Q1391.56 1427.19 1393.37 1424.06 Q1395.19 1420.91 1393.02 1417.58 Q1390.85 1414.21 1384.69 1410.66 Q1378.52 1407.09 1374.54 1406.91 Q1370.55 1406.69 1368.73 1409.84 M1365.52 1407.98 Q1368.43 1402.95 1373.95 1402.61 Q1379.45 1402.24 1387.03 1406.61 Q1394.59 1410.97 1397.04 1415.94 Q1399.48 1420.88 1396.58 1425.91 Q1393.67 1430.94 1388.16 1431.32 Q1382.65 1431.66 1375.09 1427.3 Q1367.51 1422.92 1365.07 1417.99 Q1362.62 1413.02 1365.52 1407.98 Z" fill="#000000" fill-rule="nonzero" fill-opacity="1" /><path clip-path="url(#clip390)" d="M1396.86 1391.25 Q1395.2 1394.14 1395.78 1396.69 Q1396.37 1399.23 1399.08 1400.79 Q1401.79 1402.35 1404.28 1401.6 Q1406.78 1400.83 1408.45 1397.94 Q1410.12 1395.05 1409.53 1392.5 Q1408.93 1389.93 1406.24 1388.38 Q1403.54 1386.82 1401.03 1387.59 Q1398.54 1388.34 1396.86 1391.25 M1392.8 1394.3 Q1390.65 1396.54 1388.03 1396.97 Q1385.41 1397.39 1382.84 1395.9 Q1379.25 1393.83 1378.64 1390.08 Q1378.04 1386.31 1380.6 1381.86 Q1383.19 1377.39 1386.74 1376.05 Q1390.3 1374.71 1393.88 1376.78 Q1396.45 1378.26 1397.39 1380.76 Q1398.34 1383.23 1397.49 1386.19 Q1399.86 1383.65 1402.78 1383.17 Q1405.72 1382.68 1408.58 1384.33 Q1412.93 1386.84 1413.72 1390.85 Q1414.52 1394.84 1411.66 1399.79 Q1408.8 1404.74 1404.93 1406.07 Q1401.08 1407.37 1396.73 1404.86 Q1393.86 1403.2 1392.83 1400.41 Q1391.79 1397.62 1392.8 1394.3 M1385.55 1392.1 Q1387.87 1393.44 1390.01 1392.75 Q1392.16 1392.04 1393.68 1389.41 Q1395.18 1386.8 1394.72 1384.59 Q1394.28 1382.35 1391.95 1381.01 Q1389.62 1379.67 1387.46 1380.4 Q1385.32 1381.11 1383.81 1383.72 Q1382.3 1386.34 1382.75 1388.56 Q1383.22 1390.75 1385.55 1392.1 Z" fill="#000000" fill-rule="nonzero" fill-opacity="1" /><path clip-path="url(#clip390)" d="M1564.48 1614.66 L1572.64 1600.52 L1576.05 1602.49 L1565.08 1621.49 L1561.67 1619.53 Q1560.62 1615.84 1558.9 1609.56 Q1557.17 1603.24 1556.6 1601.55 Q1555.54 1598.34 1554.47 1596.71 Q1553.4 1595.05 1551.94 1594.21 Q1549.55 1592.83 1547.08 1593.65 Q1544.61 1594.44 1543.06 1597.13 Q1541.96 1599.03 1541.4 1601.54 Q1540.84 1604.03 1540.8 1607.21 L1536.71 1604.85 Q1537.14 1601.83 1537.86 1599.42 Q1538.59 1597.01 1539.61 1595.24 Q1542.29 1590.59 1546.21 1589.17 Q1550.14 1587.74 1554.03 1589.99 Q1555.87 1591.05 1557.13 1592.72 Q1558.38 1594.35 1559.57 1597.47 Q1559.86 1598.3 1561.1 1602.6 Q1562.32 1606.88 1564.48 1614.66 Z" fill="#000000" fill-rule="nonzero" fill-opacity="1" /><path clip-path="url(#clip390)" d="M1558.69 1569.59 Q1556.89 1572.72 1559.06 1576.08 Q1561.23 1579.42 1567.4 1582.98 Q1573.55 1586.53 1577.54 1586.75 Q1581.53 1586.94 1583.33 1583.81 Q1585.15 1580.67 1582.98 1577.33 Q1580.81 1573.97 1574.66 1570.41 Q1568.48 1566.85 1564.5 1566.66 Q1560.51 1566.44 1558.69 1569.59 M1555.49 1567.74 Q1558.39 1562.71 1563.91 1562.36 Q1569.42 1561.99 1577 1566.36 Q1584.55 1570.73 1587 1575.7 Q1589.44 1580.63 1586.54 1585.67 Q1583.63 1590.7 1578.13 1591.07 Q1572.61 1591.41 1565.05 1587.05 Q1557.47 1582.68 1555.03 1577.74 Q1552.58 1572.77 1555.49 1567.74 Z" fill="#000000" fill-rule="nonzero" fill-opacity="1" /><path clip-path="url(#clip390)" d="M1594.64 1562.41 L1602.8 1548.28 L1606.21 1550.25 L1595.24 1569.25 L1591.83 1567.28 Q1590.78 1563.6 1589.06 1557.32 Q1587.33 1551 1586.76 1549.31 Q1585.7 1546.1 1584.64 1544.47 Q1583.56 1542.81 1582.1 1541.97 Q1579.71 1540.59 1577.24 1541.4 Q1574.77 1542.2 1573.22 1544.89 Q1572.12 1546.79 1571.56 1549.3 Q1571 1551.79 1570.96 1554.97 L1566.87 1552.61 Q1567.3 1549.59 1568.02 1547.18 Q1568.75 1544.76 1569.77 1543 Q1572.45 1538.35 1576.38 1536.92 Q1580.3 1535.5 1584.19 1537.75 Q1586.03 1538.81 1587.29 1540.47 Q1588.54 1542.1 1589.73 1545.22 Q1590.03 1546.06 1591.26 1550.36 Q1592.48 1554.64 1594.64 1562.41 Z" fill="#000000" fill-rule="nonzero" fill-opacity="1" /><path clip-path="url(#clip390)" d="M1602.07 1520.16 Q1604.36 1517.61 1607.27 1517.12 Q1610.18 1516.62 1613.07 1518.28 Q1617.5 1520.84 1618.16 1525.29 Q1618.83 1529.73 1615.59 1535.35 Q1614.5 1537.23 1612.96 1539.02 Q1611.46 1540.79 1609.49 1542.49 L1605.58 1540.23 Q1607.53 1539.12 1609.19 1537.4 Q1610.85 1535.69 1612.11 1533.5 Q1614.31 1529.69 1613.95 1526.84 Q1613.61 1523.97 1610.74 1522.31 Q1608.09 1520.78 1605.54 1521.79 Q1602.97 1522.77 1601.06 1526.08 L1599.04 1529.56 L1595.72 1527.64 L1597.82 1523.99 Q1599.55 1521.01 1599.28 1518.74 Q1598.99 1516.46 1596.74 1515.17 Q1594.44 1513.83 1592.27 1514.77 Q1590.09 1515.68 1588.33 1518.73 Q1587.37 1520.39 1586.63 1522.5 Q1585.89 1524.62 1585.33 1527.34 L1581.72 1525.26 Q1582.41 1522.58 1583.25 1520.39 Q1584.1 1518.18 1585.13 1516.4 Q1587.79 1511.79 1591.45 1510.32 Q1595.08 1508.83 1598.65 1510.89 Q1601.14 1512.33 1602.04 1514.75 Q1602.92 1517.15 1602.07 1520.16 Z" fill="#000000" fill-rule="nonzero" fill-opacity="1" /><path clip-path="url(#clip390)" d="M1611.93 1510.57 L1618.17 1499.77 L1621.46 1501.66 L1615.22 1512.47 L1611.93 1510.57 Z" fill="#000000" fill-rule="nonzero" fill-opacity="1" /><path clip-path="url(#clip390)" d="M1631.75 1498.14 L1635.57 1491.53 L1612.74 1478.35 L1610.03 1486.38 L1606.34 1484.25 L1609.03 1476.26 L1611.36 1472.21 L1637.89 1487.52 L1641.7 1480.9 L1645.11 1482.87 L1635.16 1500.11 L1631.75 1498.14 Z" fill="#000000" fill-rule="nonzero" fill-opacity="1" /><path clip-path="url(#clip390)" d="M1646.83 1472.02 L1650.65 1465.41 L1627.82 1452.22 L1625.11 1460.25 L1621.42 1458.12 L1624.11 1450.13 L1626.44 1446.09 L1652.97 1461.4 L1656.79 1454.78 L1660.19 1456.75 L1650.24 1473.99 L1646.83 1472.02 Z" fill="#000000" fill-rule="nonzero" fill-opacity="1" /><path clip-path="url(#clip390)" d="M1650.65 1443.51 L1656.89 1432.71 L1660.17 1434.61 L1653.94 1445.41 L1650.65 1443.51 Z" fill="#000000" fill-rule="nonzero" fill-opacity="1" /><path clip-path="url(#clip390)" d="M1670.47 1431.09 L1674.29 1424.47 L1651.45 1411.29 L1648.74 1419.32 L1645.05 1417.19 L1647.74 1409.2 L1650.08 1405.15 L1676.6 1420.46 L1680.42 1413.85 L1683.83 1415.81 L1673.87 1433.05 L1670.47 1431.09 Z" fill="#000000" fill-rule="nonzero" fill-opacity="1" /><path clip-path="url(#clip390)" d="M1679.5 1386.05 Q1681.8 1383.5 1684.7 1383.01 Q1687.61 1382.5 1690.5 1384.17 Q1694.93 1386.73 1695.59 1391.17 Q1696.26 1395.62 1693.02 1401.24 Q1691.93 1403.12 1690.39 1404.9 Q1688.89 1406.68 1686.92 1408.38 L1683.01 1406.12 Q1684.96 1405 1686.62 1403.29 Q1688.28 1401.57 1689.54 1399.39 Q1691.74 1395.58 1691.38 1392.73 Q1691.04 1389.85 1688.17 1388.2 Q1685.53 1386.67 1682.97 1387.68 Q1680.4 1388.65 1678.49 1391.96 L1676.47 1395.45 L1673.15 1393.53 L1675.25 1389.88 Q1676.98 1386.89 1676.71 1384.63 Q1676.42 1382.35 1674.17 1381.05 Q1671.87 1379.72 1669.7 1380.66 Q1667.52 1381.57 1665.76 1384.61 Q1664.8 1386.28 1664.06 1388.39 Q1663.32 1390.5 1662.76 1393.23 L1659.15 1391.14 Q1659.84 1388.47 1660.68 1386.28 Q1661.53 1384.07 1662.56 1382.28 Q1665.22 1377.67 1668.88 1376.2 Q1672.51 1374.72 1676.08 1376.78 Q1678.57 1378.22 1679.47 1380.63 Q1680.35 1383.04 1679.5 1386.05 Z" fill="#000000" fill-rule="nonzero" fill-opacity="1" /><path clip-path="url(#clip390)" d="M1846.27 1615.36 L1854.43 1601.22 L1857.84 1603.19 L1846.87 1622.2 L1843.46 1620.23 Q1842.41 1616.55 1840.69 1610.26 Q1838.96 1603.95 1838.39 1602.25 Q1837.33 1599.05 1836.26 1597.42 Q1835.19 1595.75 1833.73 1594.91 Q1831.34 1593.53 1828.87 1594.35 Q1826.4 1595.14 1824.85 1597.83 Q1823.75 1599.73 1823.19 1602.24 Q1822.63 1604.73 1822.59 1607.91 L1818.5 1605.55 Q1818.93 1602.54 1819.65 1600.12 Q1820.38 1597.71 1821.4 1595.94 Q1824.08 1591.29 1828.01 1589.87 Q1831.93 1588.44 1835.82 1590.69 Q1837.66 1591.75 1838.92 1593.42 Q1840.17 1595.05 1841.36 1598.17 Q1841.66 1599 1842.89 1603.3 Q1844.11 1607.58 1846.27 1615.36 Z" fill="#000000" fill-rule="nonzero" fill-opacity="1" /><path clip-path="url(#clip390)" d="M1840.49 1570.29 Q1838.68 1573.42 1840.85 1576.78 Q1843.02 1580.12 1849.19 1583.68 Q1855.35 1587.24 1859.34 1587.46 Q1863.32 1587.64 1865.12 1584.52 Q1866.94 1581.37 1864.78 1578.03 Q1862.6 1574.67 1856.45 1571.11 Q1850.27 1567.55 1846.29 1567.36 Q1842.3 1567.14 1840.49 1570.29 M1837.28 1568.44 Q1840.18 1563.41 1845.7 1563.06 Q1851.21 1562.69 1858.79 1567.06 Q1866.34 1571.43 1868.79 1576.4 Q1871.24 1581.34 1868.33 1586.37 Q1865.43 1591.4 1859.92 1591.77 Q1854.4 1592.12 1846.84 1587.75 Q1839.26 1583.38 1836.82 1578.44 Q1834.37 1573.47 1837.28 1568.44 Z" fill="#000000" fill-rule="nonzero" fill-opacity="1" /><path clip-path="url(#clip390)" d="M1876.44 1563.11 L1884.6 1548.98 L1888 1550.95 L1877.03 1569.95 L1873.62 1567.99 Q1872.57 1564.3 1870.85 1558.02 Q1869.12 1551.7 1868.55 1550.01 Q1867.49 1546.8 1866.43 1545.17 Q1865.35 1543.51 1863.89 1542.67 Q1861.51 1541.29 1859.03 1542.11 Q1856.57 1542.9 1855.01 1545.59 Q1853.91 1547.49 1853.35 1550 Q1852.8 1552.49 1852.75 1555.67 L1848.66 1553.31 Q1849.09 1550.29 1849.82 1547.88 Q1850.54 1545.47 1851.56 1543.7 Q1854.25 1539.05 1858.17 1537.63 Q1862.09 1536.2 1865.98 1538.45 Q1867.82 1539.51 1869.08 1541.18 Q1870.33 1542.81 1871.53 1545.93 Q1871.82 1546.76 1873.05 1551.06 Q1874.27 1555.34 1876.44 1563.11 Z" fill="#000000" fill-rule="nonzero" fill-opacity="1" /><path clip-path="url(#clip390)" d="M1883.86 1520.86 Q1886.16 1518.32 1889.06 1517.83 Q1891.97 1517.32 1894.86 1518.98 Q1899.29 1521.54 1899.96 1525.99 Q1900.62 1530.44 1897.38 1536.05 Q1896.29 1537.93 1894.75 1539.72 Q1893.25 1541.5 1891.28 1543.19 L1887.37 1540.93 Q1889.32 1539.82 1890.98 1538.1 Q1892.64 1536.39 1893.9 1534.2 Q1896.1 1530.39 1895.75 1527.54 Q1895.4 1524.67 1892.53 1523.01 Q1889.89 1521.49 1887.33 1522.49 Q1884.76 1523.47 1882.85 1526.78 L1880.83 1530.27 L1877.51 1528.34 L1879.61 1524.7 Q1881.34 1521.71 1881.07 1519.44 Q1880.78 1517.16 1878.54 1515.87 Q1876.23 1514.54 1874.06 1515.47 Q1871.88 1516.38 1870.12 1519.43 Q1869.16 1521.09 1868.42 1523.2 Q1867.68 1525.32 1867.12 1528.04 L1863.51 1525.96 Q1864.2 1523.28 1865.04 1521.09 Q1865.89 1518.88 1866.92 1517.1 Q1869.58 1512.49 1873.24 1511.02 Q1876.87 1509.53 1880.44 1511.59 Q1882.93 1513.03 1883.83 1515.45 Q1884.71 1517.86 1883.86 1520.86 Z" fill="#000000" fill-rule="nonzero" fill-opacity="1" /><path clip-path="url(#clip390)" d="M1893.72 1511.27 L1899.96 1500.47 L1903.25 1502.37 L1897.01 1513.17 L1893.72 1511.27 Z" fill="#000000" fill-rule="nonzero" fill-opacity="1" /><path clip-path="url(#clip390)" d="M1913.54 1498.84 L1917.36 1492.23 L1894.53 1479.05 L1891.82 1487.08 L1888.13 1484.95 L1890.82 1476.96 L1893.15 1472.91 L1919.68 1488.22 L1923.5 1481.6 L1926.9 1483.57 L1916.95 1500.81 L1913.54 1498.84 Z" fill="#000000" fill-rule="nonzero" fill-opacity="1" /><path clip-path="url(#clip390)" d="M1928.62 1472.72 L1932.44 1466.11 L1909.61 1452.93 L1906.9 1460.96 L1903.21 1458.83 L1905.9 1450.84 L1908.24 1446.79 L1934.76 1462.1 L1938.58 1455.48 L1941.98 1457.45 L1932.03 1474.69 L1928.62 1472.72 Z" fill="#000000" fill-rule="nonzero" fill-opacity="1" /><path clip-path="url(#clip390)" d="M1932.44 1444.22 L1938.68 1433.41 L1941.97 1435.31 L1935.73 1446.11 L1932.44 1444.22 Z" fill="#000000" fill-rule="nonzero" fill-opacity="1" /><path clip-path="url(#clip390)" d="M1952.26 1431.79 L1956.08 1425.17 L1933.24 1411.99 L1930.53 1420.02 L1926.84 1417.89 L1929.53 1409.9 L1931.87 1405.85 L1958.39 1421.16 L1962.21 1414.55 L1965.62 1416.52 L1955.67 1433.76 L1952.26 1431.79 Z" fill="#000000" fill-rule="nonzero" fill-opacity="1" /><path clip-path="url(#clip390)" d="M1959.05 1389.6 Q1957.48 1392.33 1958.42 1395.01 Q1959.37 1397.67 1962.61 1399.55 Q1965.84 1401.41 1968.64 1400.91 Q1971.43 1400.39 1973 1397.66 Q1974.58 1394.93 1973.63 1392.27 Q1972.67 1389.58 1969.44 1387.72 Q1966.19 1385.84 1963.4 1386.37 Q1960.63 1386.88 1959.05 1389.6 M1951 1374.24 L1954.69 1376.37 Q1953.09 1377.48 1951.81 1378.82 Q1950.53 1380.14 1949.66 1381.67 Q1947.34 1385.68 1948.82 1389.36 Q1950.31 1393.03 1955.61 1396.49 Q1954.55 1394.3 1954.66 1391.98 Q1954.74 1389.66 1955.98 1387.51 Q1958.59 1383 1962.84 1381.98 Q1967.08 1380.93 1971.79 1383.65 Q1976.4 1386.31 1977.61 1390.65 Q1978.83 1394.98 1976.21 1399.51 Q1973.21 1404.7 1967.66 1405.16 Q1962.08 1405.6 1954.53 1401.24 Q1947.43 1397.14 1945.16 1391.34 Q1942.88 1385.53 1946.15 1379.86 Q1947.03 1378.34 1948.23 1376.97 Q1949.43 1375.58 1951 1374.24 Z" fill="#000000" fill-rule="nonzero" fill-opacity="1" /><path clip-path="url(#clip390)" d="M2129.16 1614.15 L2137.32 1600.02 L2140.73 1601.99 L2129.76 1620.99 L2126.35 1619.03 Q2125.3 1615.34 2123.58 1609.06 Q2121.85 1602.74 2121.28 1601.05 Q2120.22 1597.84 2119.16 1596.21 Q2118.08 1594.55 2116.62 1593.71 Q2114.23 1592.33 2111.76 1593.15 Q2109.29 1593.94 2107.74 1596.63 Q2106.64 1598.53 2106.08 1601.04 Q2105.52 1603.53 2105.48 1606.71 L2101.39 1604.35 Q2101.82 1601.33 2102.54 1598.92 Q2103.27 1596.5 2104.29 1594.74 Q2106.97 1590.09 2110.9 1588.67 Q2114.82 1587.24 2118.71 1589.49 Q2120.55 1590.55 2121.81 1592.21 Q2123.06 1593.84 2124.25 1596.97 Q2124.55 1597.8 2125.78 1602.1 Q2127 1606.38 2129.16 1614.15 Z" fill="#000000" fill-rule="nonzero" fill-opacity="1" /><path clip-path="url(#clip390)" d="M2123.38 1569.09 Q2121.57 1572.22 2123.74 1575.58 Q2125.91 1578.92 2132.08 1582.48 Q2138.24 1586.03 2142.23 1586.25 Q2146.21 1586.44 2148.01 1583.31 Q2149.83 1580.17 2147.67 1576.83 Q2145.49 1573.46 2139.34 1569.91 Q2133.16 1566.35 2129.18 1566.16 Q2125.19 1565.94 2123.38 1569.09 M2120.17 1567.24 Q2123.07 1562.2 2128.59 1561.86 Q2134.1 1561.49 2141.68 1565.86 Q2149.23 1570.23 2151.68 1575.19 Q2154.13 1580.13 2151.22 1585.16 Q2148.32 1590.2 2142.81 1590.57 Q2137.29 1590.91 2129.73 1586.55 Q2122.15 1582.18 2119.71 1577.24 Q2117.26 1572.27 2120.17 1567.24 Z" fill="#000000" fill-rule="nonzero" fill-opacity="1" /><path clip-path="url(#clip390)" d="M2159.33 1561.91 L2167.49 1547.78 L2170.89 1549.75 L2159.92 1568.75 L2156.51 1566.78 Q2155.46 1563.1 2153.74 1556.82 Q2152.02 1550.5 2151.44 1548.81 Q2150.38 1545.6 2149.32 1543.97 Q2148.24 1542.31 2146.78 1541.47 Q2144.4 1540.09 2141.92 1540.9 Q2139.46 1541.7 2137.91 1544.39 Q2136.81 1546.29 2136.24 1548.8 Q2135.69 1551.28 2135.64 1554.47 L2131.55 1552.1 Q2131.98 1549.09 2132.71 1546.68 Q2133.43 1544.26 2134.45 1542.5 Q2137.14 1537.85 2141.06 1536.42 Q2144.98 1535 2148.87 1537.25 Q2150.71 1538.31 2151.97 1539.97 Q2153.22 1541.6 2154.42 1544.72 Q2154.71 1545.56 2155.94 1549.86 Q2157.16 1554.14 2159.33 1561.91 Z" fill="#000000" fill-rule="nonzero" fill-opacity="1" /><path clip-path="url(#clip390)" d="M2166.75 1519.66 Q2169.05 1517.11 2171.95 1516.62 Q2174.86 1516.11 2177.75 1517.78 Q2182.18 1520.34 2182.85 1524.79 Q2183.51 1529.23 2180.27 1534.85 Q2179.18 1536.73 2177.65 1538.52 Q2176.14 1540.29 2174.17 1541.99 L2170.26 1539.73 Q2172.22 1538.62 2173.87 1536.9 Q2175.53 1535.18 2176.79 1533 Q2178.99 1529.19 2178.64 1526.34 Q2178.29 1523.47 2175.42 1521.81 Q2172.78 1520.28 2170.22 1521.29 Q2167.65 1522.27 2165.74 1525.57 L2163.73 1529.06 L2160.4 1527.14 L2162.5 1523.49 Q2164.23 1520.51 2163.96 1518.24 Q2163.67 1515.96 2161.43 1514.66 Q2159.12 1513.33 2156.95 1514.27 Q2154.77 1515.18 2153.01 1518.22 Q2152.05 1519.89 2151.31 1522 Q2150.57 1524.11 2150.01 1526.84 L2146.41 1524.76 Q2147.09 1522.08 2147.93 1519.89 Q2148.78 1517.68 2149.81 1515.9 Q2152.47 1511.29 2156.13 1509.81 Q2159.76 1508.33 2163.33 1510.39 Q2165.82 1511.83 2166.72 1514.25 Q2167.6 1516.65 2166.75 1519.66 Z" fill="#000000" fill-rule="nonzero" fill-opacity="1" /><path clip-path="url(#clip390)" d="M2176.62 1510.07 L2182.85 1499.26 L2186.14 1501.16 L2179.9 1511.97 L2176.62 1510.07 Z" fill="#000000" fill-rule="nonzero" fill-opacity="1" /><path clip-path="url(#clip390)" d="M2196.43 1497.64 L2200.25 1491.03 L2177.42 1477.84 L2174.71 1485.87 L2171.02 1483.74 L2173.71 1475.75 L2176.05 1471.7 L2202.57 1487.02 L2206.39 1480.4 L2209.79 1482.37 L2199.84 1499.61 L2196.43 1497.64 Z" fill="#000000" fill-rule="nonzero" fill-opacity="1" /><path clip-path="url(#clip390)" d="M2211.51 1471.52 L2215.33 1464.91 L2192.5 1451.72 L2189.79 1459.75 L2186.1 1457.62 L2188.79 1449.63 L2191.13 1445.58 L2217.65 1460.9 L2221.47 1454.28 L2224.88 1456.25 L2214.92 1473.49 L2211.51 1471.52 Z" fill="#000000" fill-rule="nonzero" fill-opacity="1" /><path clip-path="url(#clip390)" d="M2215.33 1443.01 L2221.57 1432.21 L2224.86 1434.11 L2218.62 1444.91 L2215.33 1443.01 Z" fill="#000000" fill-rule="nonzero" fill-opacity="1" /><path clip-path="url(#clip390)" d="M2236.76 1427.8 L2244.92 1413.67 L2248.32 1415.63 L2237.35 1434.64 L2233.94 1432.67 Q2232.89 1428.99 2231.17 1422.7 Q2229.45 1416.39 2228.87 1414.69 Q2227.81 1411.49 2226.75 1409.86 Q2225.68 1408.2 2224.21 1407.35 Q2221.83 1405.97 2219.35 1406.79 Q2216.89 1407.59 2215.34 1410.27 Q2214.24 1412.18 2213.67 1414.68 Q2213.12 1417.17 2213.07 1420.35 L2208.98 1417.99 Q2209.41 1414.98 2210.14 1412.56 Q2210.86 1410.15 2211.88 1408.39 Q2214.57 1403.73 2218.49 1402.31 Q2222.41 1400.89 2226.3 1403.13 Q2228.14 1404.2 2229.4 1405.86 Q2230.65 1407.49 2231.85 1410.61 Q2232.14 1411.45 2233.37 1415.74 Q2234.59 1420.03 2236.76 1427.8 Z" fill="#000000" fill-rule="nonzero" fill-opacity="1" /><path clip-path="url(#clip390)" d="M2250.23 1404.46 L2254.05 1397.85 L2231.21 1384.67 L2228.5 1392.7 L2224.81 1390.57 L2227.5 1382.58 L2229.84 1378.53 L2256.36 1393.84 L2260.18 1387.22 L2263.59 1389.19 L2253.64 1406.43 L2250.23 1404.46 Z" fill="#000000" fill-rule="nonzero" fill-opacity="1" /><polyline clip-path="url(#clip392)" style="stroke:#000000; stroke-linecap:round; stroke-linejoin:round; stroke-width:2; stroke-opacity:0.1; fill:none" points="169.121,1085.84 2352.76,1085.84 "/>
<polyline clip-path="url(#clip392)" style="stroke:#000000; stroke-linecap:round; stroke-linejoin:round; stroke-width:2; stroke-opacity:0.1; fill:none" points="169.121,767.005 2352.76,767.005 "/>
<polyline clip-path="url(#clip392)" style="stroke:#000000; stroke-linecap:round; stroke-linejoin:round; stroke-width:2; stroke-opacity:0.1; fill:none" points="169.121,448.174 2352.76,448.174 "/>
<polyline clip-path="url(#clip392)" style="stroke:#000000; stroke-linecap:round; stroke-linejoin:round; stroke-width:2; stroke-opacity:0.1; fill:none" points="169.121,129.343 2352.76,129.343 "/>
<polyline clip-path="url(#clip390)" style="stroke:#000000; stroke-linecap:round; stroke-linejoin:round; stroke-width:4; stroke-opacity:1; fill:none" points="169.121,1348.39 169.121,47.2441 "/>
<polyline clip-path="url(#clip390)" style="stroke:#000000; stroke-linecap:round; stroke-linejoin:round; stroke-width:4; stroke-opacity:1; fill:none" points="169.121,1085.84 188.019,1085.84 "/>
<polyline clip-path="url(#clip390)" style="stroke:#000000; stroke-linecap:round; stroke-linejoin:round; stroke-width:4; stroke-opacity:1; fill:none" points="169.121,767.005 188.019,767.005 "/>
<polyline clip-path="url(#clip390)" style="stroke:#000000; stroke-linecap:round; stroke-linejoin:round; stroke-width:4; stroke-opacity:1; fill:none" points="169.121,448.174 188.019,448.174 "/>
<polyline clip-path="url(#clip390)" style="stroke:#000000; stroke-linecap:round; stroke-linejoin:round; stroke-width:4; stroke-opacity:1; fill:none" points="169.121,129.343 188.019,129.343 "/>
<path clip-path="url(#clip390)" d="M52.6588 1099.18 L60.2976 1099.18 L60.2976 1072.81 L51.9875 1074.48 L51.9875 1070.22 L60.2513 1068.56 L64.9272 1068.56 L64.9272 1099.18 L72.5661 1099.18 L72.5661 1103.12 L52.6588 1103.12 L52.6588 1099.18 Z" fill="#000000" fill-rule="nonzero" fill-opacity="1" /><path clip-path="url(#clip390)" d="M86.0382 1099.18 L102.358 1099.18 L102.358 1103.12 L80.4133 1103.12 L80.4133 1099.18 Q83.0753 1096.43 87.6586 1091.8 Q92.2651 1087.14 93.4456 1085.8 Q95.691 1083.28 96.5706 1081.54 Q97.4734 1079.78 97.4734 1078.09 Q97.4734 1075.34 95.5289 1073.6 Q93.6076 1071.87 90.5058 1071.87 Q88.3067 1071.87 85.8531 1072.63 Q83.4225 1073.39 80.6447 1074.94 L80.6447 1070.22 Q83.4688 1069.09 85.9225 1068.51 Q88.3762 1067.93 90.4132 1067.93 Q95.7836 1067.93 98.978 1070.62 Q102.172 1073.3 102.172 1077.79 Q102.172 1079.92 101.362 1081.84 Q100.575 1083.74 98.4687 1086.33 Q97.89 1087 94.7882 1090.22 Q91.6864 1093.42 86.0382 1099.18 Z" fill="#000000" fill-rule="nonzero" fill-opacity="1" /><path clip-path="url(#clip390)" d="M112.219 1068.56 L130.575 1068.56 L130.575 1072.49 L116.501 1072.49 L116.501 1080.96 Q117.52 1080.62 118.538 1080.45 Q119.557 1080.27 120.575 1080.27 Q126.362 1080.27 129.742 1083.44 Q133.121 1086.61 133.121 1092.03 Q133.121 1097.61 129.649 1100.71 Q126.177 1103.79 119.857 1103.79 Q117.682 1103.79 115.413 1103.42 Q113.168 1103.05 110.76 1102.3 L110.76 1097.61 Q112.844 1098.74 115.066 1099.3 Q117.288 1099.85 119.765 1099.85 Q123.77 1099.85 126.107 1097.74 Q128.445 1095.64 128.445 1092.03 Q128.445 1088.42 126.107 1086.31 Q123.77 1084.2 119.765 1084.2 Q117.89 1084.2 116.015 1084.62 Q114.163 1085.04 112.219 1085.92 L112.219 1068.56 Z" fill="#000000" fill-rule="nonzero" fill-opacity="1" /><path clip-path="url(#clip390)" d="M51.6634 780.349 L59.3023 780.349 L59.3023 753.984 L50.9921 755.65 L50.9921 751.391 L59.256 749.725 L63.9319 749.725 L63.9319 780.349 L71.5707 780.349 L71.5707 784.285 L51.6634 784.285 L51.6634 780.349 Z" fill="#000000" fill-rule="nonzero" fill-opacity="1" /><path clip-path="url(#clip390)" d="M95.1817 765.65 Q98.5382 766.368 100.413 768.636 Q102.311 770.905 102.311 774.238 Q102.311 779.354 98.7928 782.155 Q95.2743 784.956 88.7928 784.956 Q86.6169 784.956 84.3021 784.516 Q82.0105 784.099 79.5568 783.243 L79.5568 778.729 Q81.5012 779.863 83.816 780.442 Q86.1308 781.021 88.654 781.021 Q93.0521 781.021 95.3437 779.285 Q97.6585 777.548 97.6585 774.238 Q97.6585 771.183 95.5058 769.47 Q93.3762 767.734 89.5567 767.734 L85.529 767.734 L85.529 763.891 L89.7419 763.891 Q93.191 763.891 95.0197 762.525 Q96.8484 761.136 96.8484 758.544 Q96.8484 755.882 94.9502 754.47 Q93.0752 753.035 89.5567 753.035 Q87.6354 753.035 85.4364 753.451 Q83.2373 753.868 80.5984 754.748 L80.5984 750.581 Q83.2605 749.84 85.5753 749.47 Q87.9132 749.1 89.9734 749.1 Q95.2974 749.1 98.3993 751.53 Q101.501 753.937 101.501 758.058 Q101.501 760.928 99.8576 762.919 Q98.2141 764.886 95.1817 765.65 Z" fill="#000000" fill-rule="nonzero" fill-opacity="1" /><path clip-path="url(#clip390)" d="M121.177 752.803 Q117.566 752.803 115.737 756.368 Q113.932 759.91 113.932 767.039 Q113.932 774.146 115.737 777.71 Q117.566 781.252 121.177 781.252 Q124.811 781.252 126.617 777.71 Q128.445 774.146 128.445 767.039 Q128.445 759.91 126.617 756.368 Q124.811 752.803 121.177 752.803 M121.177 749.1 Q126.987 749.1 130.043 753.706 Q133.121 758.289 133.121 767.039 Q133.121 775.766 130.043 780.372 Q126.987 784.956 121.177 784.956 Q115.367 784.956 112.288 780.372 Q109.233 775.766 109.233 767.039 Q109.233 758.289 112.288 753.706 Q115.367 749.1 121.177 749.1 Z" fill="#000000" fill-rule="nonzero" fill-opacity="1" /><path clip-path="url(#clip390)" d="M52.6588 461.519 L60.2976 461.519 L60.2976 435.153 L51.9875 436.82 L51.9875 432.561 L60.2513 430.894 L64.9272 430.894 L64.9272 461.519 L72.5661 461.519 L72.5661 465.454 L52.6588 465.454 L52.6588 461.519 Z" fill="#000000" fill-rule="nonzero" fill-opacity="1" /><path clip-path="url(#clip390)" d="M96.1771 446.82 Q99.5335 447.537 101.409 449.806 Q103.307 452.074 103.307 455.408 Q103.307 460.523 99.7882 463.324 Q96.2697 466.125 89.7882 466.125 Q87.6123 466.125 85.2975 465.685 Q83.0058 465.269 80.5522 464.412 L80.5522 459.898 Q82.4966 461.033 84.8114 461.611 Q87.1262 462.19 89.6493 462.19 Q94.0475 462.19 96.3391 460.454 Q98.6539 458.718 98.6539 455.408 Q98.6539 452.352 96.5011 450.639 Q94.3715 448.903 90.5521 448.903 L86.5243 448.903 L86.5243 445.061 L90.7373 445.061 Q94.1863 445.061 96.015 443.695 Q97.8437 442.306 97.8437 439.713 Q97.8437 437.051 95.9456 435.639 Q94.0706 434.204 90.5521 434.204 Q88.6308 434.204 86.4318 434.621 Q84.2327 435.037 81.5938 435.917 L81.5938 431.75 Q84.2558 431.01 86.5706 430.639 Q88.9086 430.269 90.9688 430.269 Q96.2928 430.269 99.3946 432.7 Q102.496 435.107 102.496 439.227 Q102.496 442.098 100.853 444.088 Q99.2095 446.056 96.1771 446.82 Z" fill="#000000" fill-rule="nonzero" fill-opacity="1" /><path clip-path="url(#clip390)" d="M112.219 430.894 L130.575 430.894 L130.575 434.829 L116.501 434.829 L116.501 443.301 Q117.52 442.954 118.538 442.792 Q119.557 442.607 120.575 442.607 Q126.362 442.607 129.742 445.778 Q133.121 448.949 133.121 454.366 Q133.121 459.945 129.649 463.047 Q126.177 466.125 119.857 466.125 Q117.682 466.125 115.413 465.755 Q113.168 465.385 110.76 464.644 L110.76 459.945 Q112.844 461.079 115.066 461.635 Q117.288 462.19 119.765 462.19 Q123.77 462.19 126.107 460.084 Q128.445 457.977 128.445 454.366 Q128.445 450.755 126.107 448.648 Q123.77 446.542 119.765 446.542 Q117.89 446.542 116.015 446.959 Q114.163 447.375 112.219 448.255 L112.219 430.894 Z" fill="#000000" fill-rule="nonzero" fill-opacity="1" /><path clip-path="url(#clip390)" d="M51.6634 142.688 L59.3023 142.688 L59.3023 116.323 L50.9921 117.989 L50.9921 113.73 L59.256 112.063 L63.9319 112.063 L63.9319 142.688 L71.5707 142.688 L71.5707 146.623 L51.6634 146.623 L51.6634 142.688 Z" fill="#000000" fill-rule="nonzero" fill-opacity="1" /><path clip-path="url(#clip390)" d="M93.8623 116.137 L82.0568 134.586 L93.8623 134.586 L93.8623 116.137 M92.6354 112.063 L98.515 112.063 L98.515 134.586 L103.446 134.586 L103.446 138.475 L98.515 138.475 L98.515 146.623 L93.8623 146.623 L93.8623 138.475 L78.2605 138.475 L78.2605 133.961 L92.6354 112.063 Z" fill="#000000" fill-rule="nonzero" fill-opacity="1" /><path clip-path="url(#clip390)" d="M121.177 115.142 Q117.566 115.142 115.737 118.707 Q113.932 122.249 113.932 129.378 Q113.932 136.485 115.737 140.049 Q117.566 143.591 121.177 143.591 Q124.811 143.591 126.617 140.049 Q128.445 136.485 128.445 129.378 Q128.445 122.249 126.617 118.707 Q124.811 115.142 121.177 115.142 M121.177 111.438 Q126.987 111.438 130.043 116.045 Q133.121 120.628 133.121 129.378 Q133.121 138.105 130.043 142.711 Q126.987 147.295 121.177 147.295 Q115.367 147.295 112.288 142.711 Q109.233 138.105 109.233 129.378 Q109.233 120.628 112.288 116.045 Q115.367 111.438 121.177 111.438 Z" fill="#000000" fill-rule="nonzero" fill-opacity="1" /><path clip-path="url(#clip392)" d="M273.252 441.16 L273.252 369.742 L230.922 369.742 L230.922 263.253 L273.252 263.253 L273.252 191.834 L273.252 263.253 L315.581 263.253 L315.581 369.742 L273.252 369.742 L273.252 441.16  Z" fill="#008000" fill-rule="evenodd" fill-opacity="1"/>
<polyline clip-path="url(#clip392)" style="stroke:#008000; stroke-linecap:round; stroke-linejoin:round; stroke-width:2; stroke-opacity:1; fill:none" points="273.252,441.16 273.252,369.742 230.922,369.742 230.922,263.253 273.252,263.253 273.252,191.834 273.252,263.253 315.581,263.253 315.581,369.742 273.252,369.742 273.252,441.16 "/>
<path clip-path="url(#clip392)" d="M367.317 209.051 L367.317 182.907 L324.988 182.907 L324.988 121.692 L367.317 121.692 L367.317 84.069 L367.317 121.692 L409.647 121.692 L409.647 182.907 L367.317 182.907 L367.317 209.051  Z" fill="#008000" fill-rule="evenodd" fill-opacity="1"/>
<polyline clip-path="url(#clip392)" style="stroke:#008000; stroke-linecap:round; stroke-linejoin:round; stroke-width:2; stroke-opacity:1; fill:none" points="367.317,209.051 367.317,182.907 324.988,182.907 324.988,121.692 367.317,121.692 367.317,84.069 367.317,121.692 409.647,121.692 409.647,182.907 367.317,182.907 367.317,209.051 "/>
<path clip-path="url(#clip392)" d="M461.383 1016.33 L461.383 979.346 L419.053 979.346 L419.053 781.67 L461.383 781.67 L461.383 760.628 L461.383 781.67 L503.712 781.67 L503.712 979.346 L461.383 979.346 L461.383 1016.33  Z" fill="#ff0000" fill-rule="evenodd" fill-opacity="1"/>
<polyline clip-path="url(#clip392)" style="stroke:#ff0000; stroke-linecap:round; stroke-linejoin:round; stroke-width:2; stroke-opacity:1; fill:none" points="461.383,1016.33 461.383,979.346 419.053,979.346 419.053,781.67 461.383,781.67 461.383,760.628 461.383,781.67 503.712,781.67 503.712,979.346 461.383,979.346 461.383,1016.33 "/>
<path clip-path="url(#clip392)" d="M555.448 1256.73 L555.448 1185.31 L513.119 1185.31 L513.119 1119.63 L555.448 1119.63 L555.448 1056.5 L555.448 1119.63 L597.777 1119.63 L597.777 1185.31 L555.448 1185.31 L555.448 1256.73  Z" fill="#ff0000" fill-rule="evenodd" fill-opacity="1"/>
<polyline clip-path="url(#clip392)" style="stroke:#ff0000; stroke-linecap:round; stroke-linejoin:round; stroke-width:2; stroke-opacity:1; fill:none" points="555.448,1256.73 555.448,1185.31 513.119,1185.31 513.119,1119.63 555.448,1119.63 555.448,1056.5 555.448,1119.63 597.777,1119.63 597.777,1185.31 555.448,1185.31 555.448,1256.73 "/>
<path clip-path="url(#clip392)" d="M649.513 1311.57 L649.513 1187.86 L607.184 1187.86 L607.184 1147.69 L649.513 1147.69 L649.513 1121.54 L649.513 1147.69 L691.843 1147.69 L691.843 1187.86 L649.513 1187.86 L649.513 1311.57  Z" fill="#ff0000" fill-rule="evenodd" fill-opacity="1"/>
<polyline clip-path="url(#clip392)" style="stroke:#ff0000; stroke-linecap:round; stroke-linejoin:round; stroke-width:2; stroke-opacity:1; fill:none" points="649.513,1311.57 649.513,1187.86 607.184,1187.86 607.184,1147.69 649.513,1147.69 649.513,1121.54 649.513,1147.69 691.843,1147.69 691.843,1187.86 649.513,1187.86 649.513,1311.57 "/>
<path clip-path="url(#clip392)" d="M743.579 1157.25 L743.579 1120.27 L701.249 1120.27 L701.249 1038.01 L743.579 1038.01 L743.579 986.997 L743.579 1038.01 L785.908 1038.01 L785.908 1120.27 L743.579 1120.27 L743.579 1157.25  Z" fill="#008000" fill-rule="evenodd" fill-opacity="1"/>
<polyline clip-path="url(#clip392)" style="stroke:#008000; stroke-linecap:round; stroke-linejoin:round; stroke-width:2; stroke-opacity:1; fill:none" points="743.579,1157.25 743.579,1120.27 701.249,1120.27 701.249,1038.01 743.579,1038.01 743.579,986.997 743.579,1038.01 785.908,1038.01 785.908,1120.27 743.579,1120.27 743.579,1157.25 "/>
<path clip-path="url(#clip392)" d="M837.644 1154.38 L837.644 1066.71 L795.315 1066.71 L795.315 1004.85 L837.644 1004.85 L837.644 986.36 L837.644 1004.85 L879.974 1004.85 L879.974 1066.71 L837.644 1066.71 L837.644 1154.38  Z" fill="#ff0000" fill-rule="evenodd" fill-opacity="1"/>
<polyline clip-path="url(#clip392)" style="stroke:#ff0000; stroke-linecap:round; stroke-linejoin:round; stroke-width:2; stroke-opacity:1; fill:none" points="837.644,1154.38 837.644,1066.71 795.315,1066.71 795.315,1004.85 837.644,1004.85 837.644,986.36 837.644,1004.85 879.974,1004.85 879.974,1066.71 837.644,1066.71 837.644,1154.38 "/>
<path clip-path="url(#clip392)" d="M931.71 1090.62 L931.71 1064.15 L889.38 1064.15 L889.38 921.956 L931.71 921.956 L931.71 911.116 L931.71 921.956 L974.039 921.956 L974.039 1064.15 L931.71 1064.15 L931.71 1090.62  Z" fill="#008000" fill-rule="evenodd" fill-opacity="1"/>
<polyline clip-path="url(#clip392)" style="stroke:#008000; stroke-linecap:round; stroke-linejoin:round; stroke-width:2; stroke-opacity:1; fill:none" points="931.71,1090.62 931.71,1064.15 889.38,1064.15 889.38,921.956 931.71,921.956 931.71,911.116 931.71,921.956 974.039,921.956 974.039,1064.15 931.71,1064.15 931.71,1090.62 "/>
<path clip-path="url(#clip392)" d="M1025.78 887.522 L1025.78 857.552 L983.446 857.552 L983.446 795.062 L1025.78 795.062 L1025.78 761.266 L1025.78 795.062 L1068.1 795.062 L1068.1 857.552 L1025.78 857.552 L1025.78 887.522  Z" fill="#ff0000" fill-rule="evenodd" fill-opacity="1"/>
<polyline clip-path="url(#clip392)" style="stroke:#ff0000; stroke-linecap:round; stroke-linejoin:round; stroke-width:2; stroke-opacity:1; fill:none" points="1025.78,887.522 1025.78,857.552 983.446,857.552 983.446,795.062 1025.78,795.062 1025.78,761.266 1025.78,795.062 1068.1,795.062 1068.1,857.552 1025.78,857.552 1025.78,887.522 "/>
<path clip-path="url(#clip392)" d="M1119.84 830.133 L1119.84 825.032 L1077.51 825.032 L1077.51 743.411 L1119.84 743.411 L1119.84 720.456 L1119.84 743.411 L1162.17 743.411 L1162.17 825.032 L1119.84 825.032 L1119.84 830.133  Z" fill="#008000" fill-rule="evenodd" fill-opacity="1"/>
<polyline clip-path="url(#clip392)" style="stroke:#008000; stroke-linecap:round; stroke-linejoin:round; stroke-width:2; stroke-opacity:1; fill:none" points="1119.84,830.133 1119.84,825.032 1077.51,825.032 1077.51,743.411 1119.84,743.411 1119.84,720.456 1119.84,743.411 1162.17,743.411 1162.17,825.032 1119.84,825.032 1119.84,830.133 "/>
<path clip-path="url(#clip392)" d="M1213.91 771.469 L1213.91 752.976 L1171.58 752.976 L1171.58 674.544 L1213.91 674.544 L1213.91 667.53 L1213.91 674.544 L1256.24 674.544 L1256.24 752.976 L1213.91 752.976 L1213.91 771.469  Z" fill="#008000" fill-rule="evenodd" fill-opacity="1"/>
<polyline clip-path="url(#clip392)" style="stroke:#008000; stroke-linecap:round; stroke-linejoin:round; stroke-width:2; stroke-opacity:1; fill:none" points="1213.91,771.469 1213.91,752.976 1171.58,752.976 1171.58,674.544 1213.91,674.544 1213.91,667.53 1213.91,674.544 1256.24,674.544 1256.24,752.976 1213.91,752.976 1213.91,771.469 "/>
<path clip-path="url(#clip392)" d="M1307.97 694.311 L1307.97 640.748 L1265.64 640.748 L1265.64 613.966 L1307.97 613.966 L1307.97 557.852 L1307.97 613.966 L1350.3 613.966 L1350.3 640.748 L1307.97 640.748 L1307.97 694.311  Z" fill="#008000" fill-rule="evenodd" fill-opacity="1"/>
<polyline clip-path="url(#clip392)" style="stroke:#008000; stroke-linecap:round; stroke-linejoin:round; stroke-width:2; stroke-opacity:1; fill:none" points="1307.97,694.311 1307.97,640.748 1265.64,640.748 1265.64,613.966 1307.97,613.966 1307.97,557.852 1307.97,613.966 1350.3,613.966 1350.3,640.748 1307.97,640.748 1307.97,694.311 "/>
<path clip-path="url(#clip392)" d="M1402.04 629.269 L1402.04 616.516 L1359.71 616.516 L1359.71 559.127 L1402.04 559.127 L1402.04 541.273 L1402.04 559.127 L1444.37 559.127 L1444.37 616.516 L1402.04 616.516 L1402.04 629.269  Z" fill="#008000" fill-rule="evenodd" fill-opacity="1"/>
<polyline clip-path="url(#clip392)" style="stroke:#008000; stroke-linecap:round; stroke-linejoin:round; stroke-width:2; stroke-opacity:1; fill:none" points="1402.04,629.269 1402.04,616.516 1359.71,616.516 1359.71,559.127 1402.04,559.127 1402.04,541.273 1402.04,559.127 1444.37,559.127 1444.37,616.516 1402.04,616.516 1402.04,629.269 "/>
<path clip-path="url(#clip392)" d="M1496.1 670.718 L1496.1 659.24 L1453.77 659.24 L1453.77 552.75 L1496.1 552.75 L1496.1 514.49 L1496.1 552.75 L1538.43 552.75 L1538.43 659.24 L1496.1 659.24 L1496.1 670.718  Z" fill="#ff0000" fill-rule="evenodd" fill-opacity="1"/>
<polyline clip-path="url(#clip392)" style="stroke:#ff0000; stroke-linecap:round; stroke-linejoin:round; stroke-width:2; stroke-opacity:1; fill:none" points="1496.1,670.718 1496.1,659.24 1453.77,659.24 1453.77,552.75 1496.1,552.75 1496.1,514.49 1496.1,552.75 1538.43,552.75 1538.43,659.24 1496.1,659.24 1496.1,670.718 "/>
<path clip-path="url(#clip392)" d="M1590.17 711.528 L1590.17 669.442 L1547.84 669.442 L1547.84 508.114 L1590.17 508.114 L1590.17 494.723 L1590.17 508.114 L1632.5 508.114 L1632.5 669.442 L1590.17 669.442 L1590.17 711.528  Z" fill="#008000" fill-rule="evenodd" fill-opacity="1"/>
<polyline clip-path="url(#clip392)" style="stroke:#008000; stroke-linecap:round; stroke-linejoin:round; stroke-width:2; stroke-opacity:1; fill:none" points="1590.17,711.528 1590.17,669.442 1547.84,669.442 1547.84,508.114 1590.17,508.114 1590.17,494.723 1590.17,508.114 1632.5,508.114 1632.5,669.442 1590.17,669.442 1590.17,711.528 "/>
<path clip-path="url(#clip392)" d="M1684.23 590.372 L1684.23 552.75 L1641.9 552.75 L1641.9 534.896 L1684.23 534.896 L1684.23 504.926 L1684.23 534.896 L1726.56 534.896 L1726.56 552.75 L1684.23 552.75 L1684.23 590.372  Z" fill="#008000" fill-rule="evenodd" fill-opacity="1"/>
<polyline clip-path="url(#clip392)" style="stroke:#008000; stroke-linecap:round; stroke-linejoin:round; stroke-width:2; stroke-opacity:1; fill:none" points="1684.23,590.372 1684.23,552.75 1641.9,552.75 1641.9,534.896 1684.23,534.896 1684.23,504.926 1684.23,534.896 1726.56,534.896 1726.56,552.75 1684.23,552.75 1684.23,590.372 "/>
<path clip-path="url(#clip392)" d="M1778.3 441.797 L1778.3 420.755 L1735.97 420.755 L1735.97 406.726 L1778.3 406.726 L1778.3 305.338 L1778.3 406.726 L1820.63 406.726 L1820.63 420.755 L1778.3 420.755 L1778.3 441.797  Z" fill="#ff0000" fill-rule="evenodd" fill-opacity="1"/>
<polyline clip-path="url(#clip392)" style="stroke:#ff0000; stroke-linecap:round; stroke-linejoin:round; stroke-width:2; stroke-opacity:1; fill:none" points="1778.3,441.797 1778.3,420.755 1735.97,420.755 1735.97,406.726 1778.3,406.726 1778.3,305.338 1778.3,406.726 1820.63,406.726 1820.63,420.755 1778.3,420.755 1778.3,441.797 "/>
<path clip-path="url(#clip392)" d="M1872.36 427.131 L1872.36 360.176 L1830.03 360.176 L1830.03 343.598 L1872.36 343.598 L1872.36 330.845 L1872.36 343.598 L1914.69 343.598 L1914.69 360.176 L1872.36 360.176 L1872.36 427.131  Z" fill="#ff0000" fill-rule="evenodd" fill-opacity="1"/>
<polyline clip-path="url(#clip392)" style="stroke:#ff0000; stroke-linecap:round; stroke-linejoin:round; stroke-width:2; stroke-opacity:1; fill:none" points="1872.36,427.131 1872.36,360.176 1830.03,360.176 1830.03,343.598 1872.36,343.598 1872.36,330.845 1872.36,343.598 1914.69,343.598 1914.69,360.176 1872.36,360.176 1872.36,427.131 "/>
<path clip-path="url(#clip392)" d="M1966.43 379.306 L1966.43 323.192 L1924.1 323.192 L1924.1 212.24 L1966.43 212.24 L1966.43 200.761 L1966.43 212.24 L2008.76 212.24 L2008.76 323.192 L1966.43 323.192 L1966.43 379.306  Z" fill="#008000" fill-rule="evenodd" fill-opacity="1"/>
<polyline clip-path="url(#clip392)" style="stroke:#008000; stroke-linecap:round; stroke-linejoin:round; stroke-width:2; stroke-opacity:1; fill:none" points="1966.43,379.306 1966.43,323.192 1924.1,323.192 1924.1,212.24 1966.43,212.24 1966.43,200.761 1966.43,212.24 2008.76,212.24 2008.76,323.192 1966.43,323.192 1966.43,379.306 "/>
<path clip-path="url(#clip392)" d="M2060.49 417.566 L2060.49 324.468 L2018.17 324.468 L2018.17 268.353 L2060.49 268.353 L2060.49 256.876 L2060.49 268.353 L2102.82 268.353 L2102.82 324.468 L2060.49 324.468 L2060.49 417.566  Z" fill="#ff0000" fill-rule="evenodd" fill-opacity="1"/>
<polyline clip-path="url(#clip392)" style="stroke:#ff0000; stroke-linecap:round; stroke-linejoin:round; stroke-width:2; stroke-opacity:1; fill:none" points="2060.49,417.566 2060.49,324.468 2018.17,324.468 2018.17,268.353 2060.49,268.353 2060.49,256.876 2060.49,268.353 2102.82,268.353 2102.82,324.468 2060.49,324.468 2060.49,417.566 "/>
<path clip-path="url(#clip392)" d="M2154.56 416.928 L2154.56 416.291 L2112.23 416.291 L2112.23 261.977 L2154.56 261.977 L2154.56 229.775 L2154.56 261.977 L2196.89 261.977 L2196.89 416.291 L2154.56 416.291 L2154.56 416.928  Z" fill="#008000" fill-rule="evenodd" fill-opacity="1"/>
<polyline clip-path="url(#clip392)" style="stroke:#008000; stroke-linecap:round; stroke-linejoin:round; stroke-width:2; stroke-opacity:1; fill:none" points="2154.56,416.928 2154.56,416.291 2112.23,416.291 2112.23,261.977 2154.56,261.977 2154.56,229.775 2154.56,261.977 2196.89,261.977 2196.89,416.291 2154.56,416.291 2154.56,416.928 "/>
<path clip-path="url(#clip392)" d="M2248.63 275.687 L2248.63 260.701 L2206.3 260.701 L2206.3 217.341 L2248.63 217.341 L2248.63 195.342 L2248.63 217.341 L2290.95 217.341 L2290.95 260.701 L2248.63 260.701 L2248.63 275.687  Z" fill="#008000" fill-rule="evenodd" fill-opacity="1"/>
<polyline clip-path="url(#clip392)" style="stroke:#008000; stroke-linecap:round; stroke-linejoin:round; stroke-width:2; stroke-opacity:1; fill:none" points="2248.63,275.687 2248.63,260.701 2206.3,260.701 2206.3,217.341 2248.63,217.341 2248.63,195.342 2248.63,217.341 2290.95,217.341 2290.95,260.701 2248.63,260.701 2248.63,275.687 "/>
<circle clip-path="url(#clip392)" cx="273.252" cy="316.497" r="3.6" fill="#008000" fill-rule="evenodd" fill-opacity="1" stroke="none"/>
<circle clip-path="url(#clip392)" cx="367.317" cy="152.299" r="3.6" fill="#008000" fill-rule="evenodd" fill-opacity="1" stroke="none"/>
<circle clip-path="url(#clip392)" cx="461.383" cy="880.508" r="3.6" fill="#ff0000" fill-rule="evenodd" fill-opacity="1" stroke="none"/>
<circle clip-path="url(#clip392)" cx="555.448" cy="1152.47" r="3.6" fill="#ff0000" fill-rule="evenodd" fill-opacity="1" stroke="none"/>
<circle clip-path="url(#clip392)" cx="649.513" cy="1167.77" r="3.6" fill="#ff0000" fill-rule="evenodd" fill-opacity="1" stroke="none"/>
<circle clip-path="url(#clip392)" cx="743.579" cy="1079.14" r="3.6" fill="#008000" fill-rule="evenodd" fill-opacity="1" stroke="none"/>
<circle clip-path="url(#clip392)" cx="837.644" cy="1035.78" r="3.6" fill="#ff0000" fill-rule="evenodd" fill-opacity="1" stroke="none"/>
<circle clip-path="url(#clip392)" cx="931.71" cy="993.055" r="3.6" fill="#008000" fill-rule="evenodd" fill-opacity="1" stroke="none"/>
<circle clip-path="url(#clip392)" cx="1025.78" cy="826.307" r="3.6" fill="#ff0000" fill-rule="evenodd" fill-opacity="1" stroke="none"/>
<circle clip-path="url(#clip392)" cx="1119.84" cy="784.222" r="3.6" fill="#008000" fill-rule="evenodd" fill-opacity="1" stroke="none"/>
<circle clip-path="url(#clip392)" cx="1213.91" cy="713.76" r="3.6" fill="#008000" fill-rule="evenodd" fill-opacity="1" stroke="none"/>
<circle clip-path="url(#clip392)" cx="1307.97" cy="627.357" r="3.6" fill="#008000" fill-rule="evenodd" fill-opacity="1" stroke="none"/>
<circle clip-path="url(#clip392)" cx="1402.04" cy="587.822" r="3.6" fill="#008000" fill-rule="evenodd" fill-opacity="1" stroke="none"/>
<circle clip-path="url(#clip392)" cx="1496.1" cy="605.995" r="3.6" fill="#ff0000" fill-rule="evenodd" fill-opacity="1" stroke="none"/>
<circle clip-path="url(#clip392)" cx="1590.17" cy="588.778" r="3.6" fill="#008000" fill-rule="evenodd" fill-opacity="1" stroke="none"/>
<circle clip-path="url(#clip392)" cx="1684.23" cy="543.823" r="3.6" fill="#008000" fill-rule="evenodd" fill-opacity="1" stroke="none"/>
<circle clip-path="url(#clip392)" cx="1778.3" cy="413.741" r="3.6" fill="#ff0000" fill-rule="evenodd" fill-opacity="1" stroke="none"/>
<circle clip-path="url(#clip392)" cx="1872.36" cy="351.887" r="3.6" fill="#ff0000" fill-rule="evenodd" fill-opacity="1" stroke="none"/>
<circle clip-path="url(#clip392)" cx="1966.43" cy="267.716" r="3.6" fill="#008000" fill-rule="evenodd" fill-opacity="1" stroke="none"/>
<circle clip-path="url(#clip392)" cx="2060.49" cy="296.41" r="3.6" fill="#ff0000" fill-rule="evenodd" fill-opacity="1" stroke="none"/>
<circle clip-path="url(#clip392)" cx="2154.56" cy="339.134" r="3.6" fill="#008000" fill-rule="evenodd" fill-opacity="1" stroke="none"/>
<circle clip-path="url(#clip392)" cx="2248.63" cy="239.021" r="3.6" fill="#008000" fill-rule="evenodd" fill-opacity="1" stroke="none"/>
</svg>
