<?xml version="1.0" encoding="utf-8"?>
<svg xmlns="http://www.w3.org/2000/svg" xmlns:xlink="http://www.w3.org/1999/xlink" width="600" height="400" viewBox="0 0 2400 1600">
<defs>
  <clipPath id="clip170">
    <rect x="0" y="0" width="2400" height="1600"/>
  </clipPath>
</defs>
<path clip-path="url(#clip170)" d="
M0 1600 L2400 1600 L2400 0 L0 0  Z
  " fill="#ffffff" fill-rule="evenodd" fill-opacity="1"/>
<defs>
  <clipPath id="clip171">
    <rect x="480" y="0" width="1681" height="1600"/>
  </clipPath>
</defs>
<path clip-path="url(#clip170)" d="
M188.774 1486.45 L2352.76 1486.45 L2352.76 47.2441 L188.774 47.2441  Z
  " fill="#ffffff" fill-rule="evenodd" fill-opacity="1"/>
<defs>
  <clipPath id="clip172">
    <rect x="188" y="47" width="2165" height="1440"/>
  </clipPath>
</defs>
<polyline clip-path="url(#clip172)" style="stroke:#000000; stroke-width:2; stroke-opacity:0.1; fill:none" points="
  250.019,1486.45 250.019,47.2441 
  "/>
<polyline clip-path="url(#clip172)" style="stroke:#000000; stroke-width:2; stroke-opacity:0.1; fill:none" points="
  776.856,1486.45 776.856,47.2441 
  "/>
<polyline clip-path="url(#clip172)" style="stroke:#000000; stroke-width:2; stroke-opacity:0.1; fill:none" points="
  1303.69,1486.45 1303.69,47.2441 
  "/>
<polyline clip-path="url(#clip172)" style="stroke:#000000; stroke-width:2; stroke-opacity:0.1; fill:none" points="
  1830.53,1486.45 1830.53,47.2441 
  "/>
<polyline clip-path="url(#clip170)" style="stroke:#000000; stroke-width:4; stroke-opacity:1; fill:none" points="
  188.774,1486.45 2352.76,1486.45 
  "/>
<polyline clip-path="url(#clip170)" style="stroke:#000000; stroke-width:4; stroke-opacity:1; fill:none" points="
  250.019,1486.45 250.019,1469.18 
  "/>
<polyline clip-path="url(#clip170)" style="stroke:#000000; stroke-width:4; stroke-opacity:1; fill:none" points="
  776.856,1486.45 776.856,1469.18 
  "/>
<polyline clip-path="url(#clip170)" style="stroke:#000000; stroke-width:4; stroke-opacity:1; fill:none" points="
  1303.69,1486.45 1303.69,1469.18 
  "/>
<polyline clip-path="url(#clip170)" style="stroke:#000000; stroke-width:4; stroke-opacity:1; fill:none" points="
  1830.53,1486.45 1830.53,1469.18 
  "/>
<path clip-path="url(#clip170)" d="M 0 0 M137.242 1543.18 L153.561 1543.18 L153.561 1547.12 L131.617 1547.12 L131.617 1543.18 Q134.279 1540.43 138.862 1535.8 Q143.468 1531.15 144.649 1529.81 Q146.894 1527.28 147.774 1525.55 Q148.677 1523.79 148.677 1522.1 Q148.677 1519.34 146.732 1517.61 Q144.811 1515.87 141.709 1515.87 Q139.51 1515.87 137.056 1516.63 Q134.626 1517.4 131.848 1518.95 L131.848 1514.23 Q134.672 1513.09 137.126 1512.51 Q139.58 1511.93 141.617 1511.93 Q146.987 1511.93 150.181 1514.62 Q153.376 1517.31 153.376 1521.8 Q153.376 1523.93 152.566 1525.85 Q151.779 1527.74 149.672 1530.34 Q149.093 1531.01 145.992 1534.23 Q142.89 1537.42 137.242 1543.18 Z" fill="#000000" fill-rule="evenodd" fill-opacity="1" /><path clip-path="url(#clip170)" d="M 0 0 M168.63 1515.64 Q165.019 1515.64 163.191 1519.2 Q161.385 1522.75 161.385 1529.87 Q161.385 1536.98 163.191 1540.55 Q165.019 1544.09 168.63 1544.09 Q172.265 1544.09 174.07 1540.55 Q175.899 1536.98 175.899 1529.87 Q175.899 1522.75 174.07 1519.2 Q172.265 1515.64 168.63 1515.64 M168.63 1511.93 Q174.44 1511.93 177.496 1516.54 Q180.575 1521.12 180.575 1529.87 Q180.575 1538.6 177.496 1543.21 Q174.44 1547.79 168.63 1547.79 Q162.82 1547.79 159.741 1543.21 Q156.686 1538.6 156.686 1529.87 Q156.686 1521.12 159.741 1516.54 Q162.82 1511.93 168.63 1511.93 Z" fill="#000000" fill-rule="evenodd" fill-opacity="1" /><path clip-path="url(#clip170)" d="M 0 0 M189.672 1543.18 L205.991 1543.18 L205.991 1547.12 L184.047 1547.12 L184.047 1543.18 Q186.709 1540.43 191.292 1535.8 Q195.899 1531.15 197.079 1529.81 Q199.325 1527.28 200.204 1525.55 Q201.107 1523.79 201.107 1522.1 Q201.107 1519.34 199.163 1517.61 Q197.241 1515.87 194.139 1515.87 Q191.94 1515.87 189.487 1516.63 Q187.056 1517.4 184.278 1518.95 L184.278 1514.23 Q187.102 1513.09 189.556 1512.51 Q192.01 1511.93 194.047 1511.93 Q199.417 1511.93 202.612 1514.62 Q205.806 1517.31 205.806 1521.8 Q205.806 1523.93 204.996 1525.85 Q204.209 1527.74 202.102 1530.34 Q201.524 1531.01 198.422 1534.23 Q195.32 1537.42 189.672 1543.18 Z" fill="#000000" fill-rule="evenodd" fill-opacity="1" /><path clip-path="url(#clip170)" d="M 0 0 M221.061 1515.64 Q217.449 1515.64 215.621 1519.2 Q213.815 1522.75 213.815 1529.87 Q213.815 1536.98 215.621 1540.55 Q217.449 1544.09 221.061 1544.09 Q224.695 1544.09 226.5 1540.55 Q228.329 1536.98 228.329 1529.87 Q228.329 1522.75 226.5 1519.2 Q224.695 1515.64 221.061 1515.64 M221.061 1511.93 Q226.871 1511.93 229.926 1516.54 Q233.005 1521.12 233.005 1529.87 Q233.005 1538.6 229.926 1543.21 Q226.871 1547.79 221.061 1547.79 Q215.25 1547.79 212.172 1543.21 Q209.116 1538.6 209.116 1529.87 Q209.116 1521.12 212.172 1516.54 Q215.25 1511.93 221.061 1511.93 Z" fill="#000000" fill-rule="evenodd" fill-opacity="1" /><path clip-path="url(#clip170)" d="M 0 0 M235.32 1532.24 L247.797 1532.24 L247.797 1536.03 L235.32 1536.03 L235.32 1532.24 Z" fill="#000000" fill-rule="evenodd" fill-opacity="1" /><path clip-path="url(#clip170)" d="M 0 0 M253.676 1543.18 L261.315 1543.18 L261.315 1516.82 L253.005 1518.49 L253.005 1514.23 L261.269 1512.56 L265.945 1512.56 L265.945 1543.18 L273.583 1543.18 L273.583 1547.12 L253.676 1547.12 L253.676 1543.18 Z" fill="#000000" fill-rule="evenodd" fill-opacity="1" /><path clip-path="url(#clip170)" d="M 0 0 M288.653 1515.64 Q285.042 1515.64 283.213 1519.2 Q281.407 1522.75 281.407 1529.87 Q281.407 1536.98 283.213 1540.55 Q285.042 1544.09 288.653 1544.09 Q292.287 1544.09 294.093 1540.55 Q295.921 1536.98 295.921 1529.87 Q295.921 1522.75 294.093 1519.2 Q292.287 1515.64 288.653 1515.64 M288.653 1511.93 Q294.463 1511.93 297.519 1516.54 Q300.597 1521.12 300.597 1529.87 Q300.597 1538.6 297.519 1543.21 Q294.463 1547.79 288.653 1547.79 Q282.843 1547.79 279.764 1543.21 Q276.708 1538.6 276.708 1529.87 Q276.708 1521.12 279.764 1516.54 Q282.843 1511.93 288.653 1511.93 Z" fill="#000000" fill-rule="evenodd" fill-opacity="1" /><path clip-path="url(#clip170)" d="M 0 0 M302.912 1532.24 L315.389 1532.24 L315.389 1536.03 L302.912 1536.03 L302.912 1532.24 Z" fill="#000000" fill-rule="evenodd" fill-opacity="1" /><path clip-path="url(#clip170)" d="M 0 0 M330.458 1515.64 Q326.847 1515.64 325.018 1519.2 Q323.213 1522.75 323.213 1529.87 Q323.213 1536.98 325.018 1540.55 Q326.847 1544.09 330.458 1544.09 Q334.092 1544.09 335.898 1540.55 Q337.727 1536.98 337.727 1529.87 Q337.727 1522.75 335.898 1519.2 Q334.092 1515.64 330.458 1515.64 M330.458 1511.93 Q336.268 1511.93 339.324 1516.54 Q342.403 1521.12 342.403 1529.87 Q342.403 1538.6 339.324 1543.21 Q336.268 1547.79 330.458 1547.79 Q324.648 1547.79 321.569 1543.21 Q318.514 1538.6 318.514 1529.87 Q318.514 1521.12 321.569 1516.54 Q324.648 1511.93 330.458 1511.93 Z" fill="#000000" fill-rule="evenodd" fill-opacity="1" /><path clip-path="url(#clip170)" d="M 0 0 M347.518 1512.56 L365.875 1512.56 L365.875 1516.5 L351.801 1516.5 L351.801 1524.97 Q352.819 1524.62 353.838 1524.46 Q354.856 1524.27 355.875 1524.27 Q361.662 1524.27 365.041 1527.44 Q368.421 1530.62 368.421 1536.03 Q368.421 1541.61 364.949 1544.71 Q361.476 1547.79 355.157 1547.79 Q352.981 1547.79 350.713 1547.42 Q348.467 1547.05 346.06 1546.31 L346.06 1541.61 Q348.143 1542.74 350.365 1543.3 Q352.588 1543.86 355.064 1543.86 Q359.069 1543.86 361.407 1541.75 Q363.745 1539.64 363.745 1536.03 Q363.745 1532.42 361.407 1530.31 Q359.069 1528.21 355.064 1528.21 Q353.19 1528.21 351.315 1528.62 Q349.463 1529.04 347.518 1529.92 L347.518 1512.56 Z" fill="#000000" fill-rule="evenodd" fill-opacity="1" /><path clip-path="url(#clip170)" d="M 0 0 M664.518 1543.18 L680.837 1543.18 L680.837 1547.12 L658.893 1547.12 L658.893 1543.18 Q661.555 1540.43 666.139 1535.8 Q670.745 1531.15 671.926 1529.81 Q674.171 1527.28 675.05 1525.55 Q675.953 1523.79 675.953 1522.1 Q675.953 1519.34 674.009 1517.61 Q672.088 1515.87 668.986 1515.87 Q666.787 1515.87 664.333 1516.63 Q661.902 1517.4 659.125 1518.95 L659.125 1514.23 Q661.949 1513.09 664.402 1512.51 Q666.856 1511.93 668.893 1511.93 Q674.263 1511.93 677.458 1514.62 Q680.652 1517.31 680.652 1521.8 Q680.652 1523.93 679.842 1525.85 Q679.055 1527.74 676.949 1530.34 Q676.37 1531.01 673.268 1534.23 Q670.166 1537.42 664.518 1543.18 Z" fill="#000000" fill-rule="evenodd" fill-opacity="1" /><path clip-path="url(#clip170)" d="M 0 0 M695.907 1515.64 Q692.296 1515.64 690.467 1519.2 Q688.662 1522.75 688.662 1529.87 Q688.662 1536.98 690.467 1540.55 Q692.296 1544.09 695.907 1544.09 Q699.541 1544.09 701.347 1540.55 Q703.175 1536.98 703.175 1529.87 Q703.175 1522.75 701.347 1519.2 Q699.541 1515.64 695.907 1515.64 M695.907 1511.93 Q701.717 1511.93 704.773 1516.54 Q707.851 1521.12 707.851 1529.87 Q707.851 1538.6 704.773 1543.21 Q701.717 1547.79 695.907 1547.79 Q690.097 1547.79 687.018 1543.21 Q683.962 1538.6 683.962 1529.87 Q683.962 1521.12 687.018 1516.54 Q690.097 1511.93 695.907 1511.93 Z" fill="#000000" fill-rule="evenodd" fill-opacity="1" /><path clip-path="url(#clip170)" d="M 0 0 M716.948 1543.18 L733.268 1543.18 L733.268 1547.12 L711.323 1547.12 L711.323 1543.18 Q713.985 1540.43 718.569 1535.8 Q723.175 1531.15 724.356 1529.81 Q726.601 1527.28 727.481 1525.55 Q728.384 1523.79 728.384 1522.1 Q728.384 1519.34 726.439 1517.61 Q724.518 1515.87 721.416 1515.87 Q719.217 1515.87 716.763 1516.63 Q714.333 1517.4 711.555 1518.95 L711.555 1514.23 Q714.379 1513.09 716.833 1512.51 Q719.286 1511.93 721.323 1511.93 Q726.694 1511.93 729.888 1514.62 Q733.083 1517.31 733.083 1521.8 Q733.083 1523.93 732.272 1525.85 Q731.485 1527.74 729.379 1530.34 Q728.8 1531.01 725.698 1534.23 Q722.597 1537.42 716.948 1543.18 Z" fill="#000000" fill-rule="evenodd" fill-opacity="1" /><path clip-path="url(#clip170)" d="M 0 0 M748.337 1515.64 Q744.726 1515.64 742.897 1519.2 Q741.092 1522.75 741.092 1529.87 Q741.092 1536.98 742.897 1540.55 Q744.726 1544.09 748.337 1544.09 Q751.971 1544.09 753.777 1540.55 Q755.606 1536.98 755.606 1529.87 Q755.606 1522.75 753.777 1519.2 Q751.971 1515.64 748.337 1515.64 M748.337 1511.93 Q754.147 1511.93 757.203 1516.54 Q760.282 1521.12 760.282 1529.87 Q760.282 1538.6 757.203 1543.21 Q754.147 1547.79 748.337 1547.79 Q742.527 1547.79 739.448 1543.21 Q736.393 1538.6 736.393 1529.87 Q736.393 1521.12 739.448 1516.54 Q742.527 1511.93 748.337 1511.93 Z" fill="#000000" fill-rule="evenodd" fill-opacity="1" /><path clip-path="url(#clip170)" d="M 0 0 M762.596 1532.24 L775.073 1532.24 L775.073 1536.03 L762.596 1536.03 L762.596 1532.24 Z" fill="#000000" fill-rule="evenodd" fill-opacity="1" /><path clip-path="url(#clip170)" d="M 0 0 M780.953 1543.18 L788.592 1543.18 L788.592 1516.82 L780.281 1518.49 L780.281 1514.23 L788.545 1512.56 L793.221 1512.56 L793.221 1543.18 L800.86 1543.18 L800.86 1547.12 L780.953 1547.12 L780.953 1543.18 Z" fill="#000000" fill-rule="evenodd" fill-opacity="1" /><path clip-path="url(#clip170)" d="M 0 0 M815.929 1515.64 Q812.318 1515.64 810.49 1519.2 Q808.684 1522.75 808.684 1529.87 Q808.684 1536.98 810.49 1540.55 Q812.318 1544.09 815.929 1544.09 Q819.564 1544.09 821.369 1540.55 Q823.198 1536.98 823.198 1529.87 Q823.198 1522.75 821.369 1519.2 Q819.564 1515.64 815.929 1515.64 M815.929 1511.93 Q821.74 1511.93 824.795 1516.54 Q827.874 1521.12 827.874 1529.87 Q827.874 1538.6 824.795 1543.21 Q821.74 1547.79 815.929 1547.79 Q810.119 1547.79 807.041 1543.21 Q803.985 1538.6 803.985 1529.87 Q803.985 1521.12 807.041 1516.54 Q810.119 1511.93 815.929 1511.93 Z" fill="#000000" fill-rule="evenodd" fill-opacity="1" /><path clip-path="url(#clip170)" d="M 0 0 M830.189 1532.24 L842.665 1532.24 L842.665 1536.03 L830.189 1536.03 L830.189 1532.24 Z" fill="#000000" fill-rule="evenodd" fill-opacity="1" /><path clip-path="url(#clip170)" d="M 0 0 M848.545 1543.18 L856.184 1543.18 L856.184 1516.82 L847.874 1518.49 L847.874 1514.23 L856.137 1512.56 L860.813 1512.56 L860.813 1543.18 L868.452 1543.18 L868.452 1547.12 L848.545 1547.12 L848.545 1543.18 Z" fill="#000000" fill-rule="evenodd" fill-opacity="1" /><path clip-path="url(#clip170)" d="M 0 0 M887.688 1528.49 Q891.045 1529.2 892.92 1531.47 Q894.818 1533.74 894.818 1537.07 Q894.818 1542.19 891.299 1544.99 Q887.781 1547.79 881.299 1547.79 Q879.123 1547.79 876.809 1547.35 Q874.517 1546.93 872.063 1546.08 L872.063 1541.56 Q874.008 1542.7 876.323 1543.28 Q878.637 1543.86 881.16 1543.86 Q885.559 1543.86 887.85 1542.12 Q890.165 1540.38 890.165 1537.07 Q890.165 1534.02 888.012 1532.31 Q885.883 1530.57 882.063 1530.57 L878.036 1530.57 L878.036 1526.73 L882.248 1526.73 Q885.698 1526.73 887.526 1525.36 Q889.355 1523.97 889.355 1521.38 Q889.355 1518.72 887.457 1517.31 Q885.582 1515.87 882.063 1515.87 Q880.142 1515.87 877.943 1516.29 Q875.744 1516.7 873.105 1517.58 L873.105 1513.42 Q875.767 1512.68 878.082 1512.31 Q880.42 1511.93 882.48 1511.93 Q887.804 1511.93 890.906 1514.37 Q894.008 1516.77 894.008 1520.89 Q894.008 1523.76 892.364 1525.75 Q890.721 1527.72 887.688 1528.49 Z" fill="#000000" fill-rule="evenodd" fill-opacity="1" /><path clip-path="url(#clip170)" d="M 0 0 M1191.83 1543.18 L1208.15 1543.18 L1208.15 1547.12 L1186.2 1547.12 L1186.2 1543.18 Q1188.87 1540.43 1193.45 1535.8 Q1198.06 1531.15 1199.24 1529.81 Q1201.48 1527.28 1202.36 1525.55 Q1203.26 1523.79 1203.26 1522.1 Q1203.26 1519.34 1201.32 1517.61 Q1199.4 1515.87 1196.3 1515.87 Q1194.1 1515.87 1191.64 1516.63 Q1189.21 1517.4 1186.44 1518.95 L1186.44 1514.23 Q1189.26 1513.09 1191.71 1512.51 Q1194.17 1511.93 1196.2 1511.93 Q1201.57 1511.93 1204.77 1514.62 Q1207.96 1517.31 1207.96 1521.8 Q1207.96 1523.93 1207.15 1525.85 Q1206.37 1527.74 1204.26 1530.34 Q1203.68 1531.01 1200.58 1534.23 Q1197.48 1537.42 1191.83 1543.18 Z" fill="#000000" fill-rule="evenodd" fill-opacity="1" /><path clip-path="url(#clip170)" d="M 0 0 M1223.22 1515.64 Q1219.61 1515.64 1217.78 1519.2 Q1215.97 1522.75 1215.97 1529.87 Q1215.97 1536.98 1217.78 1540.55 Q1219.61 1544.09 1223.22 1544.09 Q1226.85 1544.09 1228.66 1540.55 Q1230.49 1536.98 1230.49 1529.87 Q1230.49 1522.75 1228.66 1519.2 Q1226.85 1515.64 1223.22 1515.64 M1223.22 1511.93 Q1229.03 1511.93 1232.08 1516.54 Q1235.16 1521.12 1235.16 1529.87 Q1235.16 1538.6 1232.08 1543.21 Q1229.03 1547.79 1223.22 1547.79 Q1217.41 1547.79 1214.33 1543.21 Q1211.27 1538.6 1211.27 1529.87 Q1211.27 1521.12 1214.33 1516.54 Q1217.41 1511.93 1223.22 1511.93 Z" fill="#000000" fill-rule="evenodd" fill-opacity="1" /><path clip-path="url(#clip170)" d="M 0 0 M1244.26 1543.18 L1260.58 1543.18 L1260.58 1547.12 L1238.63 1547.12 L1238.63 1543.18 Q1241.3 1540.43 1245.88 1535.8 Q1250.49 1531.15 1251.67 1529.81 Q1253.91 1527.28 1254.79 1525.55 Q1255.69 1523.79 1255.69 1522.1 Q1255.69 1519.34 1253.75 1517.61 Q1251.83 1515.87 1248.73 1515.87 Q1246.53 1515.87 1244.07 1516.63 Q1241.64 1517.4 1238.87 1518.95 L1238.87 1514.23 Q1241.69 1513.09 1244.14 1512.51 Q1246.6 1511.93 1248.63 1511.93 Q1254.01 1511.93 1257.2 1514.62 Q1260.39 1517.31 1260.39 1521.8 Q1260.39 1523.93 1259.58 1525.85 Q1258.8 1527.74 1256.69 1530.34 Q1256.11 1531.01 1253.01 1534.23 Q1249.91 1537.42 1244.26 1543.18 Z" fill="#000000" fill-rule="evenodd" fill-opacity="1" /><path clip-path="url(#clip170)" d="M 0 0 M1275.65 1515.64 Q1272.04 1515.64 1270.21 1519.2 Q1268.4 1522.75 1268.4 1529.87 Q1268.4 1536.98 1270.21 1540.55 Q1272.04 1544.09 1275.65 1544.09 Q1279.28 1544.09 1281.09 1540.55 Q1282.92 1536.98 1282.92 1529.87 Q1282.92 1522.75 1281.09 1519.2 Q1279.28 1515.64 1275.65 1515.64 M1275.65 1511.93 Q1281.46 1511.93 1284.51 1516.54 Q1287.59 1521.12 1287.59 1529.87 Q1287.59 1538.6 1284.51 1543.21 Q1281.46 1547.79 1275.65 1547.79 Q1269.84 1547.79 1266.76 1543.21 Q1263.7 1538.6 1263.7 1529.87 Q1263.7 1521.12 1266.76 1516.54 Q1269.84 1511.93 1275.65 1511.93 Z" fill="#000000" fill-rule="evenodd" fill-opacity="1" /><path clip-path="url(#clip170)" d="M 0 0 M1289.91 1532.24 L1302.38 1532.24 L1302.38 1536.03 L1289.91 1536.03 L1289.91 1532.24 Z" fill="#000000" fill-rule="evenodd" fill-opacity="1" /><path clip-path="url(#clip170)" d="M 0 0 M1308.26 1543.18 L1315.9 1543.18 L1315.9 1516.82 L1307.59 1518.49 L1307.59 1514.23 L1315.86 1512.56 L1320.53 1512.56 L1320.53 1543.18 L1328.17 1543.18 L1328.17 1547.12 L1308.26 1547.12 L1308.26 1543.18 Z" fill="#000000" fill-rule="evenodd" fill-opacity="1" /><path clip-path="url(#clip170)" d="M 0 0 M1343.24 1515.64 Q1339.63 1515.64 1337.8 1519.2 Q1336 1522.75 1336 1529.87 Q1336 1536.98 1337.8 1540.55 Q1339.63 1544.09 1343.24 1544.09 Q1346.87 1544.09 1348.68 1540.55 Q1350.51 1536.98 1350.51 1529.87 Q1350.51 1522.75 1348.68 1519.2 Q1346.87 1515.64 1343.24 1515.64 M1343.24 1511.93 Q1349.05 1511.93 1352.11 1516.54 Q1355.19 1521.12 1355.19 1529.87 Q1355.19 1538.6 1352.11 1543.21 Q1349.05 1547.79 1343.24 1547.79 Q1337.43 1547.79 1334.35 1543.21 Q1331.3 1538.6 1331.3 1529.87 Q1331.3 1521.12 1334.35 1516.54 Q1337.43 1511.93 1343.24 1511.93 Z" fill="#000000" fill-rule="evenodd" fill-opacity="1" /><path clip-path="url(#clip170)" d="M 0 0 M1357.5 1532.24 L1369.98 1532.24 L1369.98 1536.03 L1357.5 1536.03 L1357.5 1532.24 Z" fill="#000000" fill-rule="evenodd" fill-opacity="1" /><path clip-path="url(#clip170)" d="M 0 0 M1379.07 1543.18 L1395.39 1543.18 L1395.39 1547.12 L1373.45 1547.12 L1373.45 1543.18 Q1376.11 1540.43 1380.69 1535.8 Q1385.3 1531.15 1386.48 1529.81 Q1388.73 1527.28 1389.61 1525.55 Q1390.51 1523.79 1390.51 1522.1 Q1390.51 1519.34 1388.56 1517.61 Q1386.64 1515.87 1383.54 1515.87 Q1381.34 1515.87 1378.89 1516.63 Q1376.46 1517.4 1373.68 1518.95 L1373.68 1514.23 Q1376.5 1513.09 1378.96 1512.51 Q1381.41 1511.93 1383.45 1511.93 Q1388.82 1511.93 1392.01 1514.62 Q1395.21 1517.31 1395.21 1521.8 Q1395.21 1523.93 1394.4 1525.85 Q1393.61 1527.74 1391.5 1530.34 Q1390.93 1531.01 1387.82 1534.23 Q1384.72 1537.42 1379.07 1543.18 Z" fill="#000000" fill-rule="evenodd" fill-opacity="1" /><path clip-path="url(#clip170)" d="M 0 0 M1401.27 1543.18 L1408.91 1543.18 L1408.91 1516.82 L1400.6 1518.49 L1400.6 1514.23 L1408.87 1512.56 L1413.54 1512.56 L1413.54 1543.18 L1421.18 1543.18 L1421.18 1547.12 L1401.27 1547.12 L1401.27 1543.18 Z" fill="#000000" fill-rule="evenodd" fill-opacity="1" /><path clip-path="url(#clip170)" d="M 0 0 M1718.15 1543.18 L1734.46 1543.18 L1734.46 1547.12 L1712.52 1547.12 L1712.52 1543.18 Q1715.18 1540.43 1719.77 1535.8 Q1724.37 1531.15 1725.55 1529.81 Q1727.8 1527.28 1728.68 1525.55 Q1729.58 1523.79 1729.58 1522.1 Q1729.58 1519.34 1727.64 1517.61 Q1725.71 1515.87 1722.61 1515.87 Q1720.41 1515.87 1717.96 1516.63 Q1715.53 1517.4 1712.75 1518.95 L1712.75 1514.23 Q1715.58 1513.09 1718.03 1512.51 Q1720.48 1511.93 1722.52 1511.93 Q1727.89 1511.93 1731.09 1514.62 Q1734.28 1517.31 1734.28 1521.8 Q1734.28 1523.93 1733.47 1525.85 Q1732.68 1527.74 1730.58 1530.34 Q1730 1531.01 1726.9 1534.23 Q1723.79 1537.42 1718.15 1543.18 Z" fill="#000000" fill-rule="evenodd" fill-opacity="1" /><path clip-path="url(#clip170)" d="M 0 0 M1749.53 1515.64 Q1745.92 1515.64 1744.09 1519.2 Q1742.29 1522.75 1742.29 1529.87 Q1742.29 1536.98 1744.09 1540.55 Q1745.92 1544.09 1749.53 1544.09 Q1753.17 1544.09 1754.97 1540.55 Q1756.8 1536.98 1756.8 1529.87 Q1756.8 1522.75 1754.97 1519.2 Q1753.17 1515.64 1749.53 1515.64 M1749.53 1511.93 Q1755.34 1511.93 1758.4 1516.54 Q1761.48 1521.12 1761.48 1529.87 Q1761.48 1538.6 1758.4 1543.21 Q1755.34 1547.79 1749.53 1547.79 Q1743.72 1547.79 1740.65 1543.21 Q1737.59 1538.6 1737.59 1529.87 Q1737.59 1521.12 1740.65 1516.54 Q1743.72 1511.93 1749.53 1511.93 Z" fill="#000000" fill-rule="evenodd" fill-opacity="1" /><path clip-path="url(#clip170)" d="M 0 0 M1770.58 1543.18 L1786.89 1543.18 L1786.89 1547.12 L1764.95 1547.12 L1764.95 1543.18 Q1767.61 1540.43 1772.2 1535.8 Q1776.8 1531.15 1777.98 1529.81 Q1780.23 1527.28 1781.11 1525.55 Q1782.01 1523.79 1782.01 1522.1 Q1782.01 1519.34 1780.07 1517.61 Q1778.15 1515.87 1775.04 1515.87 Q1772.84 1515.87 1770.39 1516.63 Q1767.96 1517.4 1765.18 1518.95 L1765.18 1514.23 Q1768.01 1513.09 1770.46 1512.51 Q1772.91 1511.93 1774.95 1511.93 Q1780.32 1511.93 1783.52 1514.62 Q1786.71 1517.31 1786.71 1521.8 Q1786.71 1523.93 1785.9 1525.85 Q1785.11 1527.74 1783.01 1530.34 Q1782.43 1531.01 1779.33 1534.23 Q1776.22 1537.42 1770.58 1543.18 Z" fill="#000000" fill-rule="evenodd" fill-opacity="1" /><path clip-path="url(#clip170)" d="M 0 0 M1801.96 1515.64 Q1798.35 1515.64 1796.52 1519.2 Q1794.72 1522.75 1794.72 1529.87 Q1794.72 1536.98 1796.52 1540.55 Q1798.35 1544.09 1801.96 1544.09 Q1805.6 1544.09 1807.4 1540.55 Q1809.23 1536.98 1809.23 1529.87 Q1809.23 1522.75 1807.4 1519.2 Q1805.6 1515.64 1801.96 1515.64 M1801.96 1511.93 Q1807.77 1511.93 1810.83 1516.54 Q1813.91 1521.12 1813.91 1529.87 Q1813.91 1538.6 1810.83 1543.21 Q1807.77 1547.79 1801.96 1547.79 Q1796.15 1547.79 1793.08 1543.21 Q1790.02 1538.6 1790.02 1529.87 Q1790.02 1521.12 1793.08 1516.54 Q1796.15 1511.93 1801.96 1511.93 Z" fill="#000000" fill-rule="evenodd" fill-opacity="1" /><path clip-path="url(#clip170)" d="M 0 0 M1816.22 1532.24 L1828.7 1532.24 L1828.7 1536.03 L1816.22 1536.03 L1816.22 1532.24 Z" fill="#000000" fill-rule="evenodd" fill-opacity="1" /><path clip-path="url(#clip170)" d="M 0 0 M1834.58 1543.18 L1842.22 1543.18 L1842.22 1516.82 L1833.91 1518.49 L1833.91 1514.23 L1842.17 1512.56 L1846.85 1512.56 L1846.85 1543.18 L1854.49 1543.18 L1854.49 1547.12 L1834.58 1547.12 L1834.58 1543.18 Z" fill="#000000" fill-rule="evenodd" fill-opacity="1" /><path clip-path="url(#clip170)" d="M 0 0 M1869.56 1515.64 Q1865.95 1515.64 1864.12 1519.2 Q1862.31 1522.75 1862.31 1529.87 Q1862.31 1536.98 1864.12 1540.55 Q1865.95 1544.09 1869.56 1544.09 Q1873.19 1544.09 1875 1540.55 Q1876.83 1536.98 1876.83 1529.87 Q1876.83 1522.75 1875 1519.2 Q1873.19 1515.64 1869.56 1515.64 M1869.56 1511.93 Q1875.37 1511.93 1878.42 1516.54 Q1881.5 1521.12 1881.5 1529.87 Q1881.5 1538.6 1878.42 1543.21 Q1875.37 1547.79 1869.56 1547.79 Q1863.75 1547.79 1860.67 1543.21 Q1857.61 1538.6 1857.61 1529.87 Q1857.61 1521.12 1860.67 1516.54 Q1863.75 1511.93 1869.56 1511.93 Z" fill="#000000" fill-rule="evenodd" fill-opacity="1" /><path clip-path="url(#clip170)" d="M 0 0 M1883.82 1532.24 L1896.29 1532.24 L1896.29 1536.03 L1883.82 1536.03 L1883.82 1532.24 Z" fill="#000000" fill-rule="evenodd" fill-opacity="1" /><path clip-path="url(#clip170)" d="M 0 0 M1905.39 1543.18 L1921.71 1543.18 L1921.71 1547.12 L1899.76 1547.12 L1899.76 1543.18 Q1902.43 1540.43 1907.01 1535.8 Q1911.62 1531.15 1912.8 1529.81 Q1915.04 1527.28 1915.92 1525.55 Q1916.82 1523.79 1916.82 1522.1 Q1916.82 1519.34 1914.88 1517.61 Q1912.96 1515.87 1909.86 1515.87 Q1907.66 1515.87 1905.2 1516.63 Q1902.77 1517.4 1900 1518.95 L1900 1514.23 Q1902.82 1513.09 1905.27 1512.51 Q1907.73 1511.93 1909.76 1511.93 Q1915.14 1511.93 1918.33 1514.62 Q1921.52 1517.31 1921.52 1521.8 Q1921.52 1523.93 1920.71 1525.85 Q1919.93 1527.74 1917.82 1530.34 Q1917.24 1531.01 1914.14 1534.23 Q1911.04 1537.42 1905.39 1543.18 Z" fill="#000000" fill-rule="evenodd" fill-opacity="1" /><path clip-path="url(#clip170)" d="M 0 0 M1926.92 1546.4 L1926.92 1542.14 Q1928.68 1542.98 1930.48 1543.42 Q1932.29 1543.86 1934.02 1543.86 Q1938.65 1543.86 1941.08 1540.75 Q1943.54 1537.63 1943.88 1531.29 Q1942.54 1533.28 1940.48 1534.34 Q1938.42 1535.41 1935.92 1535.41 Q1930.74 1535.41 1927.7 1532.28 Q1924.7 1529.13 1924.7 1523.69 Q1924.7 1518.37 1927.84 1515.15 Q1930.99 1511.93 1936.22 1511.93 Q1942.22 1511.93 1945.37 1516.54 Q1948.54 1521.12 1948.54 1529.87 Q1948.54 1538.05 1944.65 1542.93 Q1940.78 1547.79 1934.23 1547.79 Q1932.47 1547.79 1930.67 1547.44 Q1928.86 1547.1 1926.92 1546.4 M1936.22 1531.75 Q1939.37 1531.75 1941.2 1529.6 Q1943.05 1527.44 1943.05 1523.69 Q1943.05 1519.97 1941.2 1517.81 Q1939.37 1515.64 1936.22 1515.64 Q1933.07 1515.64 1931.22 1517.81 Q1929.39 1519.97 1929.39 1523.69 Q1929.39 1527.44 1931.22 1529.6 Q1933.07 1531.75 1936.22 1531.75 Z" fill="#000000" fill-rule="evenodd" fill-opacity="1" /><polyline clip-path="url(#clip172)" style="stroke:#000000; stroke-width:2; stroke-opacity:0.1; fill:none" points="
  188.774,1202.66 2352.76,1202.66 
  "/>
<polyline clip-path="url(#clip172)" style="stroke:#000000; stroke-width:2; stroke-opacity:0.1; fill:none" points="
  188.774,822.873 2352.76,822.873 
  "/>
<polyline clip-path="url(#clip172)" style="stroke:#000000; stroke-width:2; stroke-opacity:0.1; fill:none" points="
  188.774,443.091 2352.76,443.091 
  "/>
<polyline clip-path="url(#clip172)" style="stroke:#000000; stroke-width:2; stroke-opacity:0.1; fill:none" points="
  188.774,63.3095 2352.76,63.3095 
  "/>
<polyline clip-path="url(#clip170)" style="stroke:#000000; stroke-width:4; stroke-opacity:1; fill:none" points="
  188.774,1486.45 188.774,47.2441 
  "/>
<polyline clip-path="url(#clip170)" style="stroke:#000000; stroke-width:4; stroke-opacity:1; fill:none" points="
  188.774,1202.66 214.742,1202.66 
  "/>
<polyline clip-path="url(#clip170)" style="stroke:#000000; stroke-width:4; stroke-opacity:1; fill:none" points="
  188.774,822.873 214.742,822.873 
  "/>
<polyline clip-path="url(#clip170)" style="stroke:#000000; stroke-width:4; stroke-opacity:1; fill:none" points="
  188.774,443.091 214.742,443.091 
  "/>
<polyline clip-path="url(#clip170)" style="stroke:#000000; stroke-width:4; stroke-opacity:1; fill:none" points="
  188.774,63.3095 214.742,63.3095 
  "/>
<path clip-path="url(#clip170)" d="M 0 0 M52.8208 1216 L60.4597 1216 L60.4597 1189.63 L52.1495 1191.3 L52.1495 1187.04 L60.4134 1185.38 L65.0893 1185.38 L65.0893 1216 L72.7281 1216 L72.7281 1219.94 L52.8208 1219.94 L52.8208 1216 Z" fill="#000000" fill-rule="evenodd" fill-opacity="1" /><path clip-path="url(#clip170)" d="M 0 0 M77.8438 1185.38 L96.2002 1185.38 L96.2002 1189.31 L82.1262 1189.31 L82.1262 1197.78 Q83.1447 1197.44 84.1632 1197.27 Q85.1818 1197.09 86.2003 1197.09 Q91.9873 1197.09 95.3669 1200.26 Q98.7465 1203.43 98.7465 1208.85 Q98.7465 1214.43 95.2743 1217.53 Q91.8021 1220.61 85.4827 1220.61 Q83.3068 1220.61 81.0383 1220.24 Q78.7929 1219.87 76.3855 1219.13 L76.3855 1214.43 Q78.4688 1215.56 80.691 1216.12 Q82.9133 1216.67 85.3901 1216.67 Q89.3947 1216.67 91.7326 1214.56 Q94.0706 1212.46 94.0706 1208.85 Q94.0706 1205.24 91.7326 1203.13 Q89.3947 1201.02 85.3901 1201.02 Q83.5151 1201.02 81.6401 1201.44 Q79.7883 1201.86 77.8438 1202.74 L77.8438 1185.38 Z" fill="#000000" fill-rule="evenodd" fill-opacity="1" /><path clip-path="url(#clip170)" d="M 0 0 M113.816 1188.45 Q110.205 1188.45 108.376 1192.02 Q106.571 1195.56 106.571 1202.69 Q106.571 1209.8 108.376 1213.36 Q110.205 1216.9 113.816 1216.9 Q117.45 1216.9 119.256 1213.36 Q121.084 1209.8 121.084 1202.69 Q121.084 1195.56 119.256 1192.02 Q117.45 1188.45 113.816 1188.45 M113.816 1184.75 Q119.626 1184.75 122.682 1189.36 Q125.76 1193.94 125.76 1202.69 Q125.76 1211.42 122.682 1216.02 Q119.626 1220.61 113.816 1220.61 Q108.006 1220.61 104.927 1216.02 Q101.871 1211.42 101.871 1202.69 Q101.871 1193.94 104.927 1189.36 Q108.006 1184.75 113.816 1184.75 Z" fill="#000000" fill-rule="evenodd" fill-opacity="1" /><path clip-path="url(#clip170)" d="M 0 0 M140.83 1188.45 Q137.219 1188.45 135.39 1192.02 Q133.584 1195.56 133.584 1202.69 Q133.584 1209.8 135.39 1213.36 Q137.219 1216.9 140.83 1216.9 Q144.464 1216.9 146.269 1213.36 Q148.098 1209.8 148.098 1202.69 Q148.098 1195.56 146.269 1192.02 Q144.464 1188.45 140.83 1188.45 M140.83 1184.75 Q146.64 1184.75 149.695 1189.36 Q152.774 1193.94 152.774 1202.69 Q152.774 1211.42 149.695 1216.02 Q146.64 1220.61 140.83 1220.61 Q135.019 1220.61 131.941 1216.02 Q128.885 1211.42 128.885 1202.69 Q128.885 1193.94 131.941 1189.36 Q135.019 1184.75 140.83 1184.75 Z" fill="#000000" fill-rule="evenodd" fill-opacity="1" /><path clip-path="url(#clip170)" d="M 0 0 M51.6634 836.218 L59.3023 836.218 L59.3023 809.853 L50.9921 811.519 L50.9921 807.26 L59.256 805.593 L63.9319 805.593 L63.9319 836.218 L71.5707 836.218 L71.5707 840.153 L51.6634 840.153 L51.6634 836.218 Z" fill="#000000" fill-rule="evenodd" fill-opacity="1" /><path clip-path="url(#clip170)" d="M 0 0 M87.2188 821.01 Q84.0707 821.01 82.2188 823.163 Q80.3901 825.315 80.3901 829.065 Q80.3901 832.792 82.2188 834.968 Q84.0707 837.121 87.2188 837.121 Q90.3669 837.121 92.1956 834.968 Q94.0475 832.792 94.0475 829.065 Q94.0475 825.315 92.1956 823.163 Q90.3669 821.01 87.2188 821.01 M96.5011 806.357 L96.5011 810.616 Q94.7419 809.783 92.9363 809.343 Q91.1539 808.903 89.3947 808.903 Q84.7651 808.903 82.3114 812.028 Q79.8809 815.153 79.5336 821.473 Q80.8994 819.459 82.9595 818.394 Q85.0197 817.306 87.4966 817.306 Q92.7049 817.306 95.7141 820.478 Q98.7465 823.626 98.7465 829.065 Q98.7465 834.389 95.5984 837.607 Q92.4502 840.825 87.2188 840.825 Q81.2234 840.825 78.0522 836.241 Q74.8809 831.635 74.8809 822.908 Q74.8809 814.714 78.7698 809.853 Q82.6586 804.968 89.2095 804.968 Q90.9688 804.968 92.7512 805.316 Q94.5567 805.663 96.5011 806.357 Z" fill="#000000" fill-rule="evenodd" fill-opacity="1" /><path clip-path="url(#clip170)" d="M 0 0 M113.816 808.672 Q110.205 808.672 108.376 812.237 Q106.571 815.778 106.571 822.908 Q106.571 830.014 108.376 833.579 Q110.205 837.121 113.816 837.121 Q117.45 837.121 119.256 833.579 Q121.084 830.014 121.084 822.908 Q121.084 815.778 119.256 812.237 Q117.45 808.672 113.816 808.672 M113.816 804.968 Q119.626 804.968 122.682 809.575 Q125.76 814.158 125.76 822.908 Q125.76 831.635 122.682 836.241 Q119.626 840.825 113.816 840.825 Q108.006 840.825 104.927 836.241 Q101.871 831.635 101.871 822.908 Q101.871 814.158 104.927 809.575 Q108.006 804.968 113.816 804.968 Z" fill="#000000" fill-rule="evenodd" fill-opacity="1" /><path clip-path="url(#clip170)" d="M 0 0 M140.83 808.672 Q137.219 808.672 135.39 812.237 Q133.584 815.778 133.584 822.908 Q133.584 830.014 135.39 833.579 Q137.219 837.121 140.83 837.121 Q144.464 837.121 146.269 833.579 Q148.098 830.014 148.098 822.908 Q148.098 815.778 146.269 812.237 Q144.464 808.672 140.83 808.672 M140.83 804.968 Q146.64 804.968 149.695 809.575 Q152.774 814.158 152.774 822.908 Q152.774 831.635 149.695 836.241 Q146.64 840.825 140.83 840.825 Q135.019 840.825 131.941 836.241 Q128.885 831.635 128.885 822.908 Q128.885 814.158 131.941 809.575 Q135.019 804.968 140.83 804.968 Z" fill="#000000" fill-rule="evenodd" fill-opacity="1" /><path clip-path="url(#clip170)" d="M 0 0 M52.7282 456.436 L60.3671 456.436 L60.3671 430.071 L52.0569 431.737 L52.0569 427.478 L60.3208 425.811 L64.9967 425.811 L64.9967 456.436 L72.6355 456.436 L72.6355 460.371 L52.7282 460.371 L52.7282 456.436 Z" fill="#000000" fill-rule="evenodd" fill-opacity="1" /><path clip-path="url(#clip170)" d="M 0 0 M76.5244 425.811 L98.7465 425.811 L98.7465 427.802 L86.2003 460.371 L81.316 460.371 L93.1215 429.747 L76.5244 429.747 L76.5244 425.811 Z" fill="#000000" fill-rule="evenodd" fill-opacity="1" /><path clip-path="url(#clip170)" d="M 0 0 M113.816 428.89 Q110.205 428.89 108.376 432.455 Q106.571 435.997 106.571 443.126 Q106.571 450.233 108.376 453.797 Q110.205 457.339 113.816 457.339 Q117.45 457.339 119.256 453.797 Q121.084 450.233 121.084 443.126 Q121.084 435.997 119.256 432.455 Q117.45 428.89 113.816 428.89 M113.816 425.186 Q119.626 425.186 122.682 429.793 Q125.76 434.376 125.76 443.126 Q125.76 451.853 122.682 456.459 Q119.626 461.043 113.816 461.043 Q108.006 461.043 104.927 456.459 Q101.871 451.853 101.871 443.126 Q101.871 434.376 104.927 429.793 Q108.006 425.186 113.816 425.186 Z" fill="#000000" fill-rule="evenodd" fill-opacity="1" /><path clip-path="url(#clip170)" d="M 0 0 M140.83 428.89 Q137.219 428.89 135.39 432.455 Q133.584 435.997 133.584 443.126 Q133.584 450.233 135.39 453.797 Q137.219 457.339 140.83 457.339 Q144.464 457.339 146.269 453.797 Q148.098 450.233 148.098 443.126 Q148.098 435.997 146.269 432.455 Q144.464 428.89 140.83 428.89 M140.83 425.186 Q146.64 425.186 149.695 429.793 Q152.774 434.376 152.774 443.126 Q152.774 451.853 149.695 456.459 Q146.64 461.043 140.83 461.043 Q135.019 461.043 131.941 456.459 Q128.885 451.853 128.885 443.126 Q128.885 434.376 131.941 429.793 Q135.019 425.186 140.83 425.186 Z" fill="#000000" fill-rule="evenodd" fill-opacity="1" /><path clip-path="url(#clip170)" d="M 0 0 M51.918 76.6543 L59.5569 76.6543 L59.5569 50.2887 L51.2468 51.9554 L51.2468 47.6961 L59.5106 46.0295 L64.1865 46.0295 L64.1865 76.6543 L71.8253 76.6543 L71.8253 80.5895 L51.918 80.5895 L51.918 76.6543 Z" fill="#000000" fill-rule="evenodd" fill-opacity="1" /><path clip-path="url(#clip170)" d="M 0 0 M86.8947 64.1775 Q83.5614 64.1775 81.6401 65.9599 Q79.742 67.7423 79.742 70.8673 Q79.742 73.9923 81.6401 75.7747 Q83.5614 77.5571 86.8947 77.5571 Q90.228 77.5571 92.1493 75.7747 Q94.0706 73.9691 94.0706 70.8673 Q94.0706 67.7423 92.1493 65.9599 Q90.2512 64.1775 86.8947 64.1775 M82.2188 62.1868 Q79.2096 61.446 77.5198 59.3859 Q75.8531 57.3257 75.8531 54.3627 Q75.8531 50.2193 78.7929 47.8119 Q81.7559 45.4045 86.8947 45.4045 Q92.0567 45.4045 94.9965 47.8119 Q97.9363 50.2193 97.9363 54.3627 Q97.9363 57.3257 96.2465 59.3859 Q94.5799 61.446 91.5938 62.1868 Q94.9734 62.9738 96.8484 65.2655 Q98.7465 67.5571 98.7465 70.8673 Q98.7465 75.8904 95.6678 78.5756 Q92.6123 81.2608 86.8947 81.2608 Q81.1771 81.2608 78.0985 78.5756 Q75.0429 75.8904 75.0429 70.8673 Q75.0429 67.5571 76.9411 65.2655 Q78.8392 62.9738 82.2188 62.1868 M80.5059 54.8026 Q80.5059 57.4877 82.1725 58.9924 Q83.8623 60.497 86.8947 60.497 Q89.904 60.497 91.5938 58.9924 Q93.3067 57.4877 93.3067 54.8026 Q93.3067 52.1174 91.5938 50.6128 Q89.904 49.1081 86.8947 49.1081 Q83.8623 49.1081 82.1725 50.6128 Q80.5059 52.1174 80.5059 54.8026 Z" fill="#000000" fill-rule="evenodd" fill-opacity="1" /><path clip-path="url(#clip170)" d="M 0 0 M113.816 49.1081 Q110.205 49.1081 108.376 52.6729 Q106.571 56.2146 106.571 63.3442 Q106.571 70.4506 108.376 74.0154 Q110.205 77.5571 113.816 77.5571 Q117.45 77.5571 119.256 74.0154 Q121.084 70.4506 121.084 63.3442 Q121.084 56.2146 119.256 52.6729 Q117.45 49.1081 113.816 49.1081 M113.816 45.4045 Q119.626 45.4045 122.682 50.0109 Q125.76 54.5942 125.76 63.3442 Q125.76 72.071 122.682 76.6774 Q119.626 81.2608 113.816 81.2608 Q108.006 81.2608 104.927 76.6774 Q101.871 72.071 101.871 63.3442 Q101.871 54.5942 104.927 50.0109 Q108.006 45.4045 113.816 45.4045 Z" fill="#000000" fill-rule="evenodd" fill-opacity="1" /><path clip-path="url(#clip170)" d="M 0 0 M140.83 49.1081 Q137.219 49.1081 135.39 52.6729 Q133.584 56.2146 133.584 63.3442 Q133.584 70.4506 135.39 74.0154 Q137.219 77.5571 140.83 77.5571 Q144.464 77.5571 146.269 74.0154 Q148.098 70.4506 148.098 63.3442 Q148.098 56.2146 146.269 52.6729 Q144.464 49.1081 140.83 49.1081 M140.83 45.4045 Q146.64 45.4045 149.695 50.0109 Q152.774 54.5942 152.774 63.3442 Q152.774 72.071 149.695 76.6774 Q146.64 81.2608 140.83 81.2608 Q135.019 81.2608 131.941 76.6774 Q128.885 72.071 128.885 63.3442 Q128.885 54.5942 131.941 50.0109 Q135.019 45.4045 140.83 45.4045 Z" fill="#000000" fill-rule="evenodd" fill-opacity="1" /><polyline clip-path="url(#clip172)" style="stroke:#009af9; stroke-width:4; stroke-opacity:1; fill:none" points="
  250.019,1330.98 315.873,1295.4 381.728,1338.28 447.583,1335.24 513.437,1222.78 711.001,1039.35 776.856,884.664 842.71,904.185 908.565,1023.59 974.419,952.569 
  1171.98,897.083 1237.84,1099.92 1303.69,924.161 1369.55,849.268 1435.4,723.864 1632.97,727.89 1698.82,839.318 1764.67,975.774 1830.53,1117.74 1896.38,549.013 
  2093.95,715.927 2159.8,702.179 2225.66,404.05 2291.51,135.468 
  "/>
<polyline clip-path="url(#clip172)" style="stroke:#e26f46; stroke-width:4; stroke-opacity:1; fill:none" points="
  250.019,1247.43 315.873,1252.94 381.728,1320.54 447.583,1240.63 513.437,1139.92 711.001,846.192 776.856,860.852 842.71,869.647 908.565,917.42 974.419,894.538 
  1171.98,867.877 1237.84,908.324 1303.69,751.74 1369.55,739.359 1435.4,661.998 1632.97,677.645 1698.82,796.877 1764.67,969.659 1830.53,846.762 1896.38,492.463 
  2093.95,592.08 2159.8,588.548 2225.66,172.06 2291.51,87.9763 
  "/>
<polyline clip-path="url(#clip172)" style="stroke:#3da44d; stroke-width:4; stroke-opacity:1; fill:none" points="
  250.019,1338.35 315.873,1397.9 381.728,1445.72 447.583,1335.24 513.437,1242.72 711.001,1078.96 776.856,962.633 842.71,1010.75 908.565,1031.64 974.419,963.393 
  1171.98,1096.32 1237.84,1105.17 1303.69,930.617 1369.55,879.841 1435.4,744.98 1632.97,912.122 1698.82,888.272 1764.67,1147.13 1830.53,1118.19 1896.38,805.935 
  2093.95,761.994 2159.8,759.754 2225.66,420.19 2291.51,249.175 
  "/>
<polyline clip-path="url(#clip172)" style="stroke:#c271d2; stroke-width:4; stroke-opacity:1; fill:none" points="
  250.019,1255.75 315.873,1379.48 381.728,1353.47 447.583,1256.09 513.437,1144.85 711.001,940.036 776.856,930.427 842.71,944.1 908.565,978.09 974.419,925.376 
  1171.98,1071.21 1237.84,990.243 1303.69,848.281 1369.55,764.653 1435.4,667.163 1632.97,859.143 1698.82,806.695 1764.67,1139.54 1830.53,947.29 1896.38,743.081 
  2093.95,724.016 2159.8,632.185 2225.66,256.505 2291.51,168.585 
  "/>
<path clip-path="url(#clip170)" d="
M1928.03 397.618 L2280.62 397.618 L2280.62 95.2176 L1928.03 95.2176  Z
  " fill="#ffffff" fill-rule="evenodd" fill-opacity="1"/>
<polyline clip-path="url(#clip170)" style="stroke:#000000; stroke-width:4; stroke-opacity:1; fill:none" points="
  1928.03,397.618 2280.62,397.618 2280.62,95.2176 1928.03,95.2176 1928.03,397.618 
  "/>
<polyline clip-path="url(#clip170)" style="stroke:#009af9; stroke-width:4; stroke-opacity:1; fill:none" points="
  1952.07,155.698 2096.34,155.698 
  "/>
<path clip-path="url(#clip170)" d="M 0 0 M2136.4 141.589 Q2131.31 141.589 2128.3 145.385 Q2125.31 149.181 2125.31 155.732 Q2125.31 162.26 2128.3 166.056 Q2131.31 169.853 2136.4 169.853 Q2141.49 169.853 2144.46 166.056 Q2147.44 162.26 2147.44 155.732 Q2147.44 149.181 2144.46 145.385 Q2141.49 141.589 2136.4 141.589 M2136.4 137.793 Q2143.67 137.793 2148.02 142.677 Q2152.37 147.538 2152.37 155.732 Q2152.37 163.904 2148.02 168.788 Q2143.67 173.649 2136.4 173.649 Q2129.11 173.649 2124.73 168.788 Q2120.38 163.927 2120.38 155.732 Q2120.38 147.538 2124.73 142.677 Q2129.11 137.793 2136.4 137.793 Z" fill="#000000" fill-rule="evenodd" fill-opacity="1" /><path clip-path="url(#clip170)" d="M 0 0 M2160.96 169.089 L2160.96 182.839 L2156.68 182.839 L2156.68 147.052 L2160.96 147.052 L2160.96 150.987 Q2162.3 148.672 2164.34 147.561 Q2166.4 146.427 2169.25 146.427 Q2173.97 146.427 2176.91 150.177 Q2179.87 153.927 2179.87 160.038 Q2179.87 166.149 2176.91 169.899 Q2173.97 173.649 2169.25 173.649 Q2166.4 173.649 2164.34 172.538 Q2162.3 171.403 2160.96 169.089 M2175.45 160.038 Q2175.45 155.339 2173.51 152.677 Q2171.59 149.992 2168.21 149.992 Q2164.83 149.992 2162.88 152.677 Q2160.96 155.339 2160.96 160.038 Q2160.96 164.737 2162.88 167.422 Q2164.83 170.084 2168.21 170.084 Q2171.59 170.084 2173.51 167.422 Q2175.45 164.737 2175.45 160.038 Z" fill="#000000" fill-rule="evenodd" fill-opacity="1" /><path clip-path="url(#clip170)" d="M 0 0 M2206.52 158.95 L2206.52 161.033 L2186.93 161.033 Q2187.21 165.431 2189.57 167.746 Q2191.96 170.038 2196.19 170.038 Q2198.65 170.038 2200.94 169.436 Q2203.25 168.834 2205.52 167.63 L2205.52 171.658 Q2203.23 172.63 2200.82 173.14 Q2198.41 173.649 2195.94 173.649 Q2189.73 173.649 2186.1 170.038 Q2182.49 166.427 2182.49 160.269 Q2182.49 153.904 2185.91 150.177 Q2189.36 146.427 2195.2 146.427 Q2200.43 146.427 2203.46 149.806 Q2206.52 153.163 2206.52 158.95 M2202.26 157.7 Q2202.21 154.205 2200.29 152.121 Q2198.39 150.038 2195.24 150.038 Q2191.68 150.038 2189.53 152.052 Q2187.4 154.066 2187.07 157.723 L2202.26 157.7 Z" fill="#000000" fill-rule="evenodd" fill-opacity="1" /><path clip-path="url(#clip170)" d="M 0 0 M2232.53 157.329 L2232.53 172.978 L2228.28 172.978 L2228.28 157.468 Q2228.28 153.788 2226.84 151.959 Q2225.41 150.13 2222.53 150.13 Q2219.09 150.13 2217.09 152.33 Q2215.1 154.529 2215.1 158.325 L2215.1 172.978 L2210.82 172.978 L2210.82 147.052 L2215.1 147.052 L2215.1 151.08 Q2216.63 148.742 2218.69 147.584 Q2220.78 146.427 2223.48 146.427 Q2227.95 146.427 2230.24 149.205 Q2232.53 151.959 2232.53 157.329 Z" fill="#000000" fill-rule="evenodd" fill-opacity="1" /><polyline clip-path="url(#clip170)" style="stroke:#e26f46; stroke-width:4; stroke-opacity:1; fill:none" points="
  1952.07,216.178 2096.34,216.178 
  "/>
<path clip-path="url(#clip170)" d="M 0 0 M2120.38 198.898 L2125.06 198.898 L2125.06 213.064 L2142.05 213.064 L2142.05 198.898 L2146.72 198.898 L2146.72 233.458 L2142.05 233.458 L2142.05 216.999 L2125.06 216.999 L2125.06 233.458 L2120.38 233.458 L2120.38 198.898 Z" fill="#000000" fill-rule="evenodd" fill-opacity="1" /><path clip-path="url(#clip170)" d="M 0 0 M2151.19 207.532 L2155.45 207.532 L2155.45 233.458 L2151.19 233.458 L2151.19 207.532 M2151.19 197.439 L2155.45 197.439 L2155.45 202.833 L2151.19 202.833 L2151.19 197.439 Z" fill="#000000" fill-rule="evenodd" fill-opacity="1" /><path clip-path="url(#clip170)" d="M 0 0 M2176.98 220.194 Q2176.98 215.564 2175.06 213.018 Q2173.16 210.472 2169.71 210.472 Q2166.29 210.472 2164.36 213.018 Q2162.47 215.564 2162.47 220.194 Q2162.47 224.8 2164.36 227.346 Q2166.29 229.893 2169.71 229.893 Q2173.16 229.893 2175.06 227.346 Q2176.98 224.8 2176.98 220.194 M2181.24 230.24 Q2181.24 236.86 2178.3 240.078 Q2175.36 243.319 2169.29 243.319 Q2167.05 243.319 2165.06 242.971 Q2163.07 242.647 2161.19 241.953 L2161.19 237.809 Q2163.07 238.828 2164.9 239.314 Q2166.72 239.8 2168.62 239.8 Q2172.81 239.8 2174.9 237.601 Q2176.98 235.425 2176.98 231.004 L2176.98 228.897 Q2175.66 231.189 2173.6 232.323 Q2171.54 233.458 2168.67 233.458 Q2163.9 233.458 2160.98 229.823 Q2158.07 226.189 2158.07 220.194 Q2158.07 214.175 2160.98 210.541 Q2163.9 206.907 2168.67 206.907 Q2171.54 206.907 2173.6 208.041 Q2175.66 209.175 2176.98 211.467 L2176.98 207.532 L2181.24 207.532 L2181.24 230.24 Z" fill="#000000" fill-rule="evenodd" fill-opacity="1" /><path clip-path="url(#clip170)" d="M 0 0 M2207.26 217.809 L2207.26 233.458 L2203 233.458 L2203 217.948 Q2203 214.268 2201.56 212.439 Q2200.13 210.61 2197.26 210.61 Q2193.81 210.61 2191.82 212.81 Q2189.83 215.009 2189.83 218.805 L2189.83 233.458 L2185.54 233.458 L2185.54 197.439 L2189.83 197.439 L2189.83 211.56 Q2191.35 209.222 2193.41 208.064 Q2195.5 206.907 2198.21 206.907 Q2202.67 206.907 2204.97 209.685 Q2207.26 212.439 2207.26 217.809 Z" fill="#000000" fill-rule="evenodd" fill-opacity="1" /><polyline clip-path="url(#clip170)" style="stroke:#3da44d; stroke-width:4; stroke-opacity:1; fill:none" points="
  1952.07,276.658 2096.34,276.658 
  "/>
<path clip-path="url(#clip170)" d="M 0 0 M2120.38 259.378 L2125.06 259.378 L2125.06 290.002 L2141.89 290.002 L2141.89 293.938 L2120.38 293.938 L2120.38 259.378 Z" fill="#000000" fill-rule="evenodd" fill-opacity="1" /><path clip-path="url(#clip170)" d="M 0 0 M2155.57 270.998 Q2152.14 270.998 2150.15 273.683 Q2148.16 276.345 2148.16 280.998 Q2148.16 285.651 2150.13 288.336 Q2152.12 290.998 2155.57 290.998 Q2158.97 290.998 2160.96 288.313 Q2162.95 285.627 2162.95 280.998 Q2162.95 276.391 2160.96 273.706 Q2158.97 270.998 2155.57 270.998 M2155.57 267.387 Q2161.12 267.387 2164.29 270.998 Q2167.47 274.609 2167.47 280.998 Q2167.47 287.364 2164.29 290.998 Q2161.12 294.609 2155.57 294.609 Q2149.99 294.609 2146.82 290.998 Q2143.67 287.364 2143.67 280.998 Q2143.67 274.609 2146.82 270.998 Q2149.99 267.387 2155.57 267.387 Z" fill="#000000" fill-rule="evenodd" fill-opacity="1" /><path clip-path="url(#clip170)" d="M 0 0 M2169.46 268.012 L2173.72 268.012 L2179.04 288.243 L2184.34 268.012 L2189.36 268.012 L2194.69 288.243 L2199.99 268.012 L2204.25 268.012 L2197.47 293.938 L2192.44 293.938 L2186.86 272.688 L2181.26 293.938 L2176.24 293.938 L2169.46 268.012 Z" fill="#000000" fill-rule="evenodd" fill-opacity="1" /><polyline clip-path="url(#clip170)" style="stroke:#c271d2; stroke-width:4; stroke-opacity:1; fill:none" points="
  1952.07,337.138 2096.34,337.138 
  "/>
<path clip-path="url(#clip170)" d="M 0 0 M2148.25 322.52 L2148.25 327.45 Q2145.89 325.251 2143.21 324.163 Q2140.54 323.075 2137.54 323.075 Q2131.61 323.075 2128.46 326.709 Q2125.31 330.32 2125.31 337.172 Q2125.31 344.001 2128.46 347.635 Q2131.61 351.246 2137.54 351.246 Q2140.54 351.246 2143.21 350.158 Q2145.89 349.07 2148.25 346.871 L2148.25 351.756 Q2145.8 353.422 2143.04 354.256 Q2140.31 355.089 2137.26 355.089 Q2129.41 355.089 2124.9 350.297 Q2120.38 345.482 2120.38 337.172 Q2120.38 328.839 2124.9 324.047 Q2129.41 319.233 2137.26 319.233 Q2140.36 319.233 2143.09 320.066 Q2145.85 320.876 2148.25 322.52 Z" fill="#000000" fill-rule="evenodd" fill-opacity="1" /><path clip-path="url(#clip170)" d="M 0 0 M2152.72 318.399 L2156.98 318.399 L2156.98 354.418 L2152.72 354.418 L2152.72 318.399 Z" fill="#000000" fill-rule="evenodd" fill-opacity="1" /><path clip-path="url(#clip170)" d="M 0 0 M2171.49 331.478 Q2168.07 331.478 2166.08 334.163 Q2164.09 336.825 2164.09 341.478 Q2164.09 346.131 2166.05 348.816 Q2168.04 351.478 2171.49 351.478 Q2174.9 351.478 2176.89 348.793 Q2178.88 346.107 2178.88 341.478 Q2178.88 336.871 2176.89 334.186 Q2174.9 331.478 2171.49 331.478 M2171.49 327.867 Q2177.05 327.867 2180.22 331.478 Q2183.39 335.089 2183.39 341.478 Q2183.39 347.844 2180.22 351.478 Q2177.05 355.089 2171.49 355.089 Q2165.91 355.089 2162.74 351.478 Q2159.6 347.844 2159.6 341.478 Q2159.6 335.089 2162.74 331.478 Q2165.91 327.867 2171.49 327.867 Z" fill="#000000" fill-rule="evenodd" fill-opacity="1" /><path clip-path="url(#clip170)" d="M 0 0 M2204.39 329.256 L2204.39 333.283 Q2202.58 332.357 2200.64 331.895 Q2198.69 331.432 2196.61 331.432 Q2193.44 331.432 2191.84 332.404 Q2190.27 333.376 2190.27 335.32 Q2190.27 336.802 2191.4 337.658 Q2192.53 338.492 2195.96 339.256 L2197.42 339.58 Q2201.96 340.552 2203.85 342.334 Q2205.78 344.094 2205.78 347.265 Q2205.78 350.876 2202.91 352.982 Q2200.06 355.089 2195.06 355.089 Q2192.97 355.089 2190.71 354.672 Q2188.46 354.279 2185.96 353.468 L2185.96 349.07 Q2188.32 350.297 2190.61 350.922 Q2192.91 351.524 2195.15 351.524 Q2198.16 351.524 2199.78 350.506 Q2201.4 349.464 2201.4 347.589 Q2201.4 345.853 2200.22 344.927 Q2199.06 344.001 2195.1 343.144 L2193.62 342.797 Q2189.66 341.964 2187.91 340.251 Q2186.15 338.515 2186.15 335.506 Q2186.15 331.848 2188.74 329.858 Q2191.33 327.867 2196.1 327.867 Q2198.46 327.867 2200.54 328.214 Q2202.63 328.561 2204.39 329.256 Z" fill="#000000" fill-rule="evenodd" fill-opacity="1" /><path clip-path="url(#clip170)" d="M 0 0 M2232.42 340.39 L2232.42 342.473 L2212.84 342.473 Q2213.11 346.871 2215.47 349.186 Q2217.86 351.478 2222.09 351.478 Q2224.55 351.478 2226.84 350.876 Q2229.16 350.274 2231.42 349.07 L2231.42 353.098 Q2229.13 354.07 2226.72 354.58 Q2224.32 355.089 2221.84 355.089 Q2215.64 355.089 2212 351.478 Q2208.39 347.867 2208.39 341.709 Q2208.39 335.344 2211.82 331.617 Q2215.27 327.867 2221.1 327.867 Q2226.33 327.867 2229.36 331.246 Q2232.42 334.603 2232.42 340.39 M2228.16 339.14 Q2228.11 335.645 2226.19 333.561 Q2224.29 331.478 2221.15 331.478 Q2217.58 331.478 2215.43 333.492 Q2213.3 335.506 2212.97 339.163 L2228.16 339.14 Z" fill="#000000" fill-rule="evenodd" fill-opacity="1" /></svg>
