<?xml version="1.0" encoding="utf-8"?>
<svg xmlns="http://www.w3.org/2000/svg" xmlns:xlink="http://www.w3.org/1999/xlink" width="600" height="400" viewBox="0 0 2400 1600">
<defs>
  <clipPath id="clip260">
    <rect x="0" y="0" width="2400" height="1600"/>
  </clipPath>
</defs>
<path clip-path="url(#clip260)" d="
M0 1600 L2400 1600 L2400 0 L0 0  Z
  " fill="#ffffff" fill-rule="evenodd" fill-opacity="1"/>
<defs>
  <clipPath id="clip261">
    <rect x="480" y="0" width="1681" height="1600"/>
  </clipPath>
</defs>
<path clip-path="url(#clip260)" d="
M188.774 1349.21 L2352.76 1349.21 L2352.76 47.2441 L188.774 47.2441  Z
  " fill="#ffffff" fill-rule="evenodd" fill-opacity="1"/>
<defs>
  <clipPath id="clip262">
    <rect x="188" y="47" width="2165" height="1303"/>
  </clipPath>
</defs>
<polyline clip-path="url(#clip262)" style="stroke:#000000; stroke-width:2; stroke-opacity:0.1; fill:none" points="
  288.457,1349.21 288.457,47.2441 
  "/>
<polyline clip-path="url(#clip262)" style="stroke:#000000; stroke-width:2; stroke-opacity:0.1; fill:none" points="
  373.875,1349.21 373.875,47.2441 
  "/>
<polyline clip-path="url(#clip262)" style="stroke:#000000; stroke-width:2; stroke-opacity:0.1; fill:none" points="
  459.293,1349.21 459.293,47.2441 
  "/>
<polyline clip-path="url(#clip262)" style="stroke:#000000; stroke-width:2; stroke-opacity:0.1; fill:none" points="
  544.711,1349.21 544.711,47.2441 
  "/>
<polyline clip-path="url(#clip262)" style="stroke:#000000; stroke-width:2; stroke-opacity:0.1; fill:none" points="
  630.129,1349.21 630.129,47.2441 
  "/>
<polyline clip-path="url(#clip262)" style="stroke:#000000; stroke-width:2; stroke-opacity:0.1; fill:none" points="
  715.547,1349.21 715.547,47.2441 
  "/>
<polyline clip-path="url(#clip262)" style="stroke:#000000; stroke-width:2; stroke-opacity:0.1; fill:none" points="
  800.965,1349.21 800.965,47.2441 
  "/>
<polyline clip-path="url(#clip262)" style="stroke:#000000; stroke-width:2; stroke-opacity:0.1; fill:none" points="
  886.384,1349.21 886.384,47.2441 
  "/>
<polyline clip-path="url(#clip262)" style="stroke:#000000; stroke-width:2; stroke-opacity:0.1; fill:none" points="
  971.802,1349.21 971.802,47.2441 
  "/>
<polyline clip-path="url(#clip262)" style="stroke:#000000; stroke-width:2; stroke-opacity:0.1; fill:none" points="
  1057.22,1349.21 1057.22,47.2441 
  "/>
<polyline clip-path="url(#clip262)" style="stroke:#000000; stroke-width:2; stroke-opacity:0.1; fill:none" points="
  1142.64,1349.21 1142.64,47.2441 
  "/>
<polyline clip-path="url(#clip262)" style="stroke:#000000; stroke-width:2; stroke-opacity:0.1; fill:none" points="
  1228.06,1349.21 1228.06,47.2441 
  "/>
<polyline clip-path="url(#clip262)" style="stroke:#000000; stroke-width:2; stroke-opacity:0.1; fill:none" points="
  1313.47,1349.21 1313.47,47.2441 
  "/>
<polyline clip-path="url(#clip262)" style="stroke:#000000; stroke-width:2; stroke-opacity:0.1; fill:none" points="
  1398.89,1349.21 1398.89,47.2441 
  "/>
<polyline clip-path="url(#clip262)" style="stroke:#000000; stroke-width:2; stroke-opacity:0.1; fill:none" points="
  1484.31,1349.21 1484.31,47.2441 
  "/>
<polyline clip-path="url(#clip262)" style="stroke:#000000; stroke-width:2; stroke-opacity:0.1; fill:none" points="
  1569.73,1349.21 1569.73,47.2441 
  "/>
<polyline clip-path="url(#clip262)" style="stroke:#000000; stroke-width:2; stroke-opacity:0.1; fill:none" points="
  1655.15,1349.21 1655.15,47.2441 
  "/>
<polyline clip-path="url(#clip262)" style="stroke:#000000; stroke-width:2; stroke-opacity:0.1; fill:none" points="
  1740.56,1349.21 1740.56,47.2441 
  "/>
<polyline clip-path="url(#clip262)" style="stroke:#000000; stroke-width:2; stroke-opacity:0.1; fill:none" points="
  1825.98,1349.21 1825.98,47.2441 
  "/>
<polyline clip-path="url(#clip262)" style="stroke:#000000; stroke-width:2; stroke-opacity:0.1; fill:none" points="
  1911.4,1349.21 1911.4,47.2441 
  "/>
<polyline clip-path="url(#clip262)" style="stroke:#000000; stroke-width:2; stroke-opacity:0.1; fill:none" points="
  1996.82,1349.21 1996.82,47.2441 
  "/>
<polyline clip-path="url(#clip262)" style="stroke:#000000; stroke-width:2; stroke-opacity:0.1; fill:none" points="
  2082.24,1349.21 2082.24,47.2441 
  "/>
<polyline clip-path="url(#clip262)" style="stroke:#000000; stroke-width:2; stroke-opacity:0.1; fill:none" points="
  2167.65,1349.21 2167.65,47.2441 
  "/>
<polyline clip-path="url(#clip262)" style="stroke:#000000; stroke-width:2; stroke-opacity:0.1; fill:none" points="
  2253.07,1349.21 2253.07,47.2441 
  "/>
<polyline clip-path="url(#clip260)" style="stroke:#000000; stroke-width:4; stroke-opacity:1; fill:none" points="
  188.774,1349.21 2352.76,1349.21 
  "/>
<polyline clip-path="url(#clip260)" style="stroke:#000000; stroke-width:4; stroke-opacity:1; fill:none" points="
  288.457,1349.21 288.457,1333.58 
  "/>
<polyline clip-path="url(#clip260)" style="stroke:#000000; stroke-width:4; stroke-opacity:1; fill:none" points="
  373.875,1349.21 373.875,1333.58 
  "/>
<polyline clip-path="url(#clip260)" style="stroke:#000000; stroke-width:4; stroke-opacity:1; fill:none" points="
  459.293,1349.21 459.293,1333.58 
  "/>
<polyline clip-path="url(#clip260)" style="stroke:#000000; stroke-width:4; stroke-opacity:1; fill:none" points="
  544.711,1349.21 544.711,1333.58 
  "/>
<polyline clip-path="url(#clip260)" style="stroke:#000000; stroke-width:4; stroke-opacity:1; fill:none" points="
  630.129,1349.21 630.129,1333.58 
  "/>
<polyline clip-path="url(#clip260)" style="stroke:#000000; stroke-width:4; stroke-opacity:1; fill:none" points="
  715.547,1349.21 715.547,1333.58 
  "/>
<polyline clip-path="url(#clip260)" style="stroke:#000000; stroke-width:4; stroke-opacity:1; fill:none" points="
  800.965,1349.21 800.965,1333.58 
  "/>
<polyline clip-path="url(#clip260)" style="stroke:#000000; stroke-width:4; stroke-opacity:1; fill:none" points="
  886.384,1349.21 886.384,1333.58 
  "/>
<polyline clip-path="url(#clip260)" style="stroke:#000000; stroke-width:4; stroke-opacity:1; fill:none" points="
  971.802,1349.21 971.802,1333.58 
  "/>
<polyline clip-path="url(#clip260)" style="stroke:#000000; stroke-width:4; stroke-opacity:1; fill:none" points="
  1057.22,1349.21 1057.22,1333.58 
  "/>
<polyline clip-path="url(#clip260)" style="stroke:#000000; stroke-width:4; stroke-opacity:1; fill:none" points="
  1142.64,1349.21 1142.64,1333.58 
  "/>
<polyline clip-path="url(#clip260)" style="stroke:#000000; stroke-width:4; stroke-opacity:1; fill:none" points="
  1228.06,1349.21 1228.06,1333.58 
  "/>
<polyline clip-path="url(#clip260)" style="stroke:#000000; stroke-width:4; stroke-opacity:1; fill:none" points="
  1313.47,1349.21 1313.47,1333.58 
  "/>
<polyline clip-path="url(#clip260)" style="stroke:#000000; stroke-width:4; stroke-opacity:1; fill:none" points="
  1398.89,1349.21 1398.89,1333.58 
  "/>
<polyline clip-path="url(#clip260)" style="stroke:#000000; stroke-width:4; stroke-opacity:1; fill:none" points="
  1484.31,1349.21 1484.31,1333.58 
  "/>
<polyline clip-path="url(#clip260)" style="stroke:#000000; stroke-width:4; stroke-opacity:1; fill:none" points="
  1569.73,1349.21 1569.73,1333.58 
  "/>
<polyline clip-path="url(#clip260)" style="stroke:#000000; stroke-width:4; stroke-opacity:1; fill:none" points="
  1655.15,1349.21 1655.15,1333.58 
  "/>
<polyline clip-path="url(#clip260)" style="stroke:#000000; stroke-width:4; stroke-opacity:1; fill:none" points="
  1740.56,1349.21 1740.56,1333.58 
  "/>
<polyline clip-path="url(#clip260)" style="stroke:#000000; stroke-width:4; stroke-opacity:1; fill:none" points="
  1825.98,1349.21 1825.98,1333.58 
  "/>
<polyline clip-path="url(#clip260)" style="stroke:#000000; stroke-width:4; stroke-opacity:1; fill:none" points="
  1911.4,1349.21 1911.4,1333.58 
  "/>
<polyline clip-path="url(#clip260)" style="stroke:#000000; stroke-width:4; stroke-opacity:1; fill:none" points="
  1996.82,1349.21 1996.82,1333.58 
  "/>
<polyline clip-path="url(#clip260)" style="stroke:#000000; stroke-width:4; stroke-opacity:1; fill:none" points="
  2082.24,1349.21 2082.24,1333.58 
  "/>
<polyline clip-path="url(#clip260)" style="stroke:#000000; stroke-width:4; stroke-opacity:1; fill:none" points="
  2167.65,1349.21 2167.65,1333.58 
  "/>
<polyline clip-path="url(#clip260)" style="stroke:#000000; stroke-width:4; stroke-opacity:1; fill:none" points="
  2253.07,1349.21 2253.07,1333.58 
  "/>
<path clip-path="url(#clip260)" d="M 0 0 M205.375 1587.38 L213.535 1573.25 L216.943 1575.22 L205.971 1594.22 L202.563 1592.25 Q201.508 1588.57 199.79 1582.29 Q198.064 1575.97 197.492 1574.28 Q196.429 1571.07 195.366 1569.44 Q194.293 1567.78 192.83 1566.94 Q190.444 1565.56 187.969 1566.37 Q185.505 1567.17 183.954 1569.86 Q182.854 1571.76 182.289 1574.27 Q181.735 1576.76 181.689 1579.94 L177.6 1577.58 Q178.03 1574.56 178.755 1572.15 Q179.481 1569.73 180.499 1567.97 Q183.185 1563.32 187.107 1561.89 Q191.03 1560.47 194.919 1562.72 Q196.763 1563.78 198.022 1565.44 Q199.272 1567.07 200.464 1570.19 Q200.756 1571.03 201.992 1575.33 Q203.208 1579.61 205.375 1587.38 Z" fill="#000000" fill-rule="evenodd" fill-opacity="1" /><path clip-path="url(#clip260)" d="M 0 0 M197.214 1546.43 Q195.408 1549.55 197.581 1552.92 Q199.745 1556.25 205.92 1559.82 Q212.074 1563.37 216.064 1563.59 Q220.046 1563.78 221.851 1560.65 Q223.668 1557.5 221.504 1554.17 Q219.331 1550.8 213.177 1547.25 Q207.002 1543.69 203.021 1543.5 Q199.031 1543.28 197.214 1546.43 M194.006 1544.57 Q196.911 1539.54 202.428 1539.2 Q207.937 1538.83 215.515 1543.2 Q223.072 1547.56 225.522 1552.53 Q227.964 1557.47 225.059 1562.5 Q222.154 1567.53 216.645 1567.91 Q211.128 1568.25 203.57 1563.89 Q195.993 1559.51 193.551 1554.58 Q191.101 1549.61 194.006 1544.57 Z" fill="#000000" fill-rule="evenodd" fill-opacity="1" /><path clip-path="url(#clip260)" d="M 0 0 M231.59 1541.98 L239.75 1527.84 L243.158 1529.81 L232.186 1548.82 L228.778 1546.85 Q227.723 1543.17 226.005 1536.88 Q224.279 1530.57 223.707 1528.87 Q222.644 1525.67 221.581 1524.04 Q220.509 1522.38 219.045 1521.53 Q216.66 1520.15 214.184 1520.97 Q211.72 1521.76 210.169 1524.45 Q209.069 1526.36 208.504 1528.86 Q207.95 1531.35 207.905 1534.53 L203.815 1532.17 Q204.245 1529.16 204.97 1526.74 Q205.696 1524.33 206.715 1522.56 Q209.4 1517.91 213.322 1516.49 Q217.245 1515.06 221.134 1517.31 Q222.978 1518.38 224.237 1520.04 Q225.488 1521.67 226.68 1524.79 Q226.972 1525.63 228.207 1529.92 Q229.423 1534.2 231.59 1541.98 Z" fill="#000000" fill-rule="evenodd" fill-opacity="1" /><path clip-path="url(#clip260)" d="M 0 0 M223.429 1501.02 Q221.623 1504.15 223.796 1507.51 Q225.961 1510.85 232.135 1514.41 Q238.289 1517.97 242.279 1518.19 Q246.261 1518.37 248.066 1515.25 Q249.884 1512.1 247.719 1508.76 Q245.546 1505.4 239.392 1501.84 Q233.218 1498.28 229.236 1498.09 Q225.246 1497.87 223.429 1501.02 M220.221 1499.17 Q223.127 1494.14 228.644 1493.79 Q234.152 1493.42 241.73 1497.79 Q249.288 1502.16 251.737 1507.13 Q254.179 1512.07 251.274 1517.1 Q248.369 1522.13 242.86 1522.5 Q237.343 1522.85 229.786 1518.48 Q222.208 1514.11 219.766 1509.17 Q217.316 1504.2 220.221 1499.17 Z" fill="#000000" fill-rule="evenodd" fill-opacity="1" /><path clip-path="url(#clip260)" d="M 0 0 M244.932 1496.97 L251.17 1486.17 L254.458 1488.06 L248.22 1498.87 L244.932 1496.97 Z" fill="#000000" fill-rule="evenodd" fill-opacity="1" /><path clip-path="url(#clip260)" d="M 0 0 M263.592 1486.55 L267.412 1479.93 L244.579 1466.75 L241.867 1474.78 L238.178 1472.65 L240.867 1464.66 L243.205 1460.61 L269.727 1475.92 L273.546 1469.31 L276.954 1471.28 L267 1488.52 L263.592 1486.55 Z" fill="#000000" fill-rule="evenodd" fill-opacity="1" /><path clip-path="url(#clip260)" d="M 0 0 M257.225 1442.48 Q255.419 1445.61 257.592 1448.98 Q259.757 1452.31 265.931 1455.88 Q272.086 1459.43 276.075 1459.65 Q280.057 1459.84 281.863 1456.71 Q283.68 1453.56 281.515 1450.23 Q279.342 1446.86 273.188 1443.31 Q267.014 1439.74 263.032 1439.56 Q259.042 1439.34 257.225 1442.48 M254.018 1440.63 Q256.923 1435.6 262.44 1435.26 Q267.948 1434.88 275.526 1439.26 Q283.084 1443.62 285.534 1448.59 Q287.975 1453.53 285.07 1458.56 Q282.165 1463.59 276.656 1463.97 Q271.139 1464.31 263.582 1459.95 Q256.004 1455.57 253.562 1450.63 Q251.112 1445.66 254.018 1440.63 Z" fill="#000000" fill-rule="evenodd" fill-opacity="1" /><path clip-path="url(#clip260)" d="M 0 0 M278.728 1438.43 L284.967 1427.63 L288.254 1429.53 L282.016 1440.33 L278.728 1438.43 Z" fill="#000000" fill-rule="evenodd" fill-opacity="1" /><path clip-path="url(#clip260)" d="M 0 0 M278.128 1406.28 Q276.322 1409.41 278.495 1412.77 Q280.659 1416.11 286.834 1419.67 Q292.988 1423.23 296.978 1423.44 Q300.96 1423.63 302.765 1420.5 Q304.582 1417.36 302.418 1414.02 Q300.245 1410.66 294.091 1407.1 Q287.916 1403.54 283.935 1403.35 Q279.945 1403.13 278.128 1406.28 M274.92 1404.43 Q277.825 1399.4 283.342 1399.05 Q288.851 1398.68 296.429 1403.05 Q303.986 1407.42 306.436 1412.39 Q308.878 1417.32 305.973 1422.36 Q303.068 1427.39 297.559 1427.76 Q292.042 1428.11 284.484 1423.74 Q276.907 1419.37 274.465 1414.43 Q272.015 1409.46 274.92 1404.43 Z" fill="#000000" fill-rule="evenodd" fill-opacity="1" /><path clip-path="url(#clip260)" d="M 0 0 M283.992 1389.97 L293.17 1374.07 L296.578 1376.04 L289.541 1388.22 L296.878 1392.46 Q297.086 1391.41 297.455 1390.44 Q297.804 1389.47 298.313 1388.59 Q301.207 1383.57 305.643 1382.23 Q310.079 1380.89 314.77 1383.6 Q319.602 1386.39 320.552 1390.95 Q321.482 1395.49 318.322 1400.97 Q317.234 1402.85 315.779 1404.63 Q314.336 1406.39 312.491 1408.1 L308.421 1405.75 Q310.445 1404.52 312.037 1402.87 Q313.629 1401.22 314.868 1399.08 Q316.87 1395.61 316.215 1392.53 Q315.56 1389.45 312.432 1387.65 Q309.305 1385.84 306.312 1386.82 Q303.319 1387.79 301.316 1391.25 Q300.379 1392.88 299.802 1394.71 Q299.237 1396.52 299.027 1398.65 L283.992 1389.97 Z" fill="#000000" fill-rule="evenodd" fill-opacity="1" /><path clip-path="url(#clip260)" d="M 0 0 M461.178 1588.17 L469.338 1574.03 L472.746 1576 L461.773 1595 L458.365 1593.04 Q457.311 1589.35 455.593 1583.07 Q453.867 1576.75 453.295 1575.06 Q452.232 1571.85 451.169 1570.22 Q450.096 1568.56 448.633 1567.72 Q446.247 1566.34 443.772 1567.16 Q441.307 1567.95 439.757 1570.64 Q438.657 1572.54 438.092 1575.05 Q437.538 1577.54 437.492 1580.72 L433.403 1578.36 Q433.832 1575.34 434.558 1572.93 Q435.284 1570.52 436.302 1568.75 Q438.987 1564.1 442.91 1562.68 Q446.833 1561.25 450.722 1563.5 Q452.566 1564.56 453.825 1566.23 Q455.075 1567.86 456.267 1570.98 Q456.559 1571.81 457.795 1576.11 Q459.01 1580.39 461.178 1588.17 Z" fill="#000000" fill-rule="evenodd" fill-opacity="1" /><path clip-path="url(#clip260)" d="M 0 0 M453.017 1547.21 Q451.211 1550.34 453.384 1553.7 Q455.548 1557.04 461.723 1560.6 Q467.877 1564.15 471.867 1564.37 Q475.849 1564.56 477.654 1561.43 Q479.471 1558.29 477.307 1554.95 Q475.134 1551.59 468.98 1548.03 Q462.805 1544.47 458.824 1544.28 Q454.834 1544.06 453.017 1547.21 M449.809 1545.36 Q452.714 1540.32 458.231 1539.98 Q463.74 1539.61 471.318 1543.98 Q478.875 1548.35 481.325 1553.32 Q483.767 1558.25 480.862 1563.28 Q477.957 1568.32 472.448 1568.69 Q466.931 1569.03 459.373 1564.67 Q451.796 1560.3 449.354 1555.36 Q446.904 1550.39 449.809 1545.36 Z" fill="#000000" fill-rule="evenodd" fill-opacity="1" /><path clip-path="url(#clip260)" d="M 0 0 M487.393 1542.76 L495.553 1528.63 L498.961 1530.59 L487.989 1549.6 L484.581 1547.63 Q483.526 1543.95 481.808 1537.66 Q480.082 1531.35 479.51 1529.65 Q478.447 1526.45 477.384 1524.82 Q476.311 1523.16 474.848 1522.31 Q472.463 1520.93 469.987 1521.75 Q467.523 1522.55 465.972 1525.23 Q464.872 1527.14 464.307 1529.64 Q463.753 1532.13 463.707 1535.31 L459.618 1532.95 Q460.048 1529.94 460.773 1527.52 Q461.499 1525.11 462.517 1523.35 Q465.203 1518.69 469.125 1517.27 Q473.048 1515.85 476.937 1518.09 Q478.781 1519.16 480.04 1520.82 Q481.29 1522.45 482.482 1525.57 Q482.774 1526.41 484.01 1530.7 Q485.226 1534.99 487.393 1542.76 Z" fill="#000000" fill-rule="evenodd" fill-opacity="1" /><path clip-path="url(#clip260)" d="M 0 0 M479.232 1501.8 Q477.426 1504.93 479.599 1508.3 Q481.764 1511.63 487.938 1515.2 Q494.092 1518.75 498.082 1518.97 Q502.064 1519.15 503.869 1516.03 Q505.686 1512.88 503.522 1509.55 Q501.349 1506.18 495.195 1502.63 Q489.02 1499.06 485.039 1498.87 Q481.049 1498.66 479.232 1501.8 M476.024 1499.95 Q478.929 1494.92 484.446 1494.58 Q489.955 1494.2 497.533 1498.58 Q505.09 1502.94 507.54 1507.91 Q509.982 1512.85 507.077 1517.88 Q504.172 1522.91 498.663 1523.29 Q493.146 1523.63 485.588 1519.26 Q478.011 1514.89 475.569 1509.95 Q473.119 1504.98 476.024 1499.95 Z" fill="#000000" fill-rule="evenodd" fill-opacity="1" /><path clip-path="url(#clip260)" d="M 0 0 M500.735 1497.75 L506.973 1486.95 L510.261 1488.85 L504.023 1499.65 L500.735 1497.75 Z" fill="#000000" fill-rule="evenodd" fill-opacity="1" /><path clip-path="url(#clip260)" d="M 0 0 M519.395 1487.33 L523.215 1480.71 L500.381 1467.53 L497.67 1475.56 L493.981 1473.43 L496.67 1465.44 L499.008 1461.39 L525.529 1476.7 L529.349 1470.09 L532.757 1472.06 L522.803 1489.3 L519.395 1487.33 Z" fill="#000000" fill-rule="evenodd" fill-opacity="1" /><path clip-path="url(#clip260)" d="M 0 0 M513.028 1443.27 Q511.222 1446.39 513.395 1449.76 Q515.56 1453.09 521.734 1456.66 Q527.888 1460.21 531.878 1460.43 Q535.86 1460.62 537.665 1457.49 Q539.483 1454.34 537.318 1451.01 Q535.145 1447.64 528.991 1444.09 Q522.817 1440.52 518.835 1440.34 Q514.845 1440.12 513.028 1443.27 M509.82 1441.41 Q512.726 1436.38 518.243 1436.04 Q523.751 1435.66 531.329 1440.04 Q538.887 1444.4 541.336 1449.37 Q543.778 1454.31 540.873 1459.34 Q537.968 1464.37 532.459 1464.75 Q526.942 1465.09 519.385 1460.73 Q511.807 1456.35 509.365 1451.42 Q506.915 1446.45 509.82 1441.41 Z" fill="#000000" fill-rule="evenodd" fill-opacity="1" /><path clip-path="url(#clip260)" d="M 0 0 M534.531 1439.22 L540.769 1428.41 L544.057 1430.31 L537.819 1441.11 L534.531 1439.22 Z" fill="#000000" fill-rule="evenodd" fill-opacity="1" /><path clip-path="url(#clip260)" d="M 0 0 M533.931 1407.06 Q532.125 1410.19 534.298 1413.55 Q536.462 1416.89 542.637 1420.45 Q548.791 1424.01 552.781 1424.23 Q556.763 1424.41 558.568 1421.29 Q560.385 1418.14 558.221 1414.8 Q556.048 1411.44 549.894 1407.88 Q543.719 1404.32 539.738 1404.13 Q535.748 1403.91 533.931 1407.06 M530.723 1405.21 Q533.628 1400.18 539.145 1399.83 Q544.654 1399.46 552.232 1403.84 Q559.789 1408.2 562.239 1413.17 Q564.681 1418.11 561.776 1423.14 Q558.87 1428.17 553.362 1428.54 Q547.845 1428.89 540.287 1424.52 Q532.709 1420.15 530.268 1415.21 Q527.818 1410.24 530.723 1405.21 Z" fill="#000000" fill-rule="evenodd" fill-opacity="1" /><path clip-path="url(#clip260)" d="M 0 0 M560.488 1391.2 Q558.821 1394.09 559.404 1396.64 Q559.999 1399.18 562.705 1400.74 Q565.411 1402.3 567.904 1401.55 Q570.408 1400.78 572.075 1397.89 Q573.742 1395 573.159 1392.45 Q572.556 1389.88 569.869 1388.33 Q567.163 1386.77 564.659 1387.54 Q562.166 1388.29 560.488 1391.2 M556.426 1394.26 Q554.28 1396.49 551.651 1396.92 Q549.033 1397.34 546.467 1395.86 Q542.879 1393.78 542.264 1390.04 Q541.661 1386.27 544.23 1381.82 Q546.811 1377.34 550.366 1376 Q553.921 1374.66 557.509 1376.73 Q560.075 1378.21 561.014 1380.71 Q561.965 1383.18 561.113 1386.14 Q563.485 1383.6 566.407 1383.13 Q569.341 1382.63 572.207 1384.28 Q576.557 1386.79 577.344 1390.8 Q578.141 1394.79 575.282 1399.74 Q572.424 1404.69 568.559 1406.02 Q564.706 1407.32 560.356 1404.81 Q557.489 1403.16 556.453 1400.37 Q555.418 1397.58 556.426 1394.26 M549.175 1392.05 Q551.5 1393.39 553.636 1392.7 Q555.784 1391.99 557.3 1389.36 Q558.805 1386.76 558.347 1384.54 Q557.9 1382.3 555.575 1380.96 Q553.25 1379.62 551.09 1380.35 Q548.942 1381.06 547.437 1383.67 Q545.921 1386.29 546.379 1388.51 Q546.849 1390.7 549.175 1392.05 Z" fill="#000000" fill-rule="evenodd" fill-opacity="1" /><path clip-path="url(#clip260)" d="M 0 0 M718.323 1586.62 L726.483 1572.49 L729.891 1574.46 L718.919 1593.46 L715.511 1591.49 Q714.456 1587.81 712.739 1581.53 Q711.013 1575.21 710.44 1573.52 Q709.378 1570.31 708.314 1568.68 Q707.242 1567.02 705.778 1566.17 Q703.393 1564.8 700.917 1565.61 Q698.453 1566.41 696.902 1569.1 Q695.803 1571 695.237 1573.51 Q694.683 1575.99 694.638 1579.17 L690.548 1576.81 Q690.978 1573.8 691.704 1571.39 Q692.429 1568.97 693.448 1567.21 Q696.133 1562.56 700.056 1561.13 Q703.978 1559.71 707.867 1561.95 Q709.712 1563.02 710.97 1564.68 Q712.221 1566.31 713.413 1569.43 Q713.705 1570.27 714.94 1574.56 Q716.156 1578.85 718.323 1586.62 Z" fill="#000000" fill-rule="evenodd" fill-opacity="1" /><path clip-path="url(#clip260)" d="M 0 0 M710.162 1545.66 Q708.357 1548.79 710.529 1552.16 Q712.694 1555.49 718.868 1559.06 Q725.023 1562.61 729.013 1562.83 Q732.994 1563.02 734.8 1559.89 Q736.617 1556.74 734.452 1553.41 Q732.28 1550.04 726.125 1546.49 Q719.951 1542.92 715.969 1542.74 Q711.979 1542.52 710.162 1545.66 M706.955 1543.81 Q709.86 1538.78 715.377 1538.44 Q720.885 1538.06 728.463 1542.44 Q736.021 1546.8 738.471 1551.77 Q740.912 1556.71 738.007 1561.74 Q735.102 1566.77 729.593 1567.15 Q724.076 1567.49 716.519 1563.13 Q708.941 1558.75 706.5 1553.81 Q704.05 1548.84 706.955 1543.81 Z" fill="#000000" fill-rule="evenodd" fill-opacity="1" /><path clip-path="url(#clip260)" d="M 0 0 M744.539 1541.22 L752.698 1527.08 L756.106 1529.05 L745.134 1548.05 L741.726 1546.09 Q740.672 1542.4 738.954 1536.12 Q737.228 1529.8 736.655 1528.11 Q735.593 1524.9 734.529 1523.27 Q733.457 1521.61 731.994 1520.77 Q729.608 1519.39 727.132 1520.21 Q724.668 1521 723.117 1523.69 Q722.018 1525.59 721.452 1528.1 Q720.899 1530.59 720.853 1533.77 L716.763 1531.41 Q717.193 1528.39 717.919 1525.98 Q718.644 1523.57 719.663 1521.8 Q722.348 1517.15 726.271 1515.73 Q730.193 1514.3 734.082 1516.55 Q735.927 1517.61 737.186 1519.28 Q738.436 1520.91 739.628 1524.03 Q739.92 1524.86 741.155 1529.16 Q742.371 1533.44 744.539 1541.22 Z" fill="#000000" fill-rule="evenodd" fill-opacity="1" /><path clip-path="url(#clip260)" d="M 0 0 M736.377 1500.26 Q734.572 1503.39 736.745 1506.75 Q738.909 1510.09 745.083 1513.65 Q751.238 1517.2 755.228 1517.42 Q759.209 1517.61 761.015 1514.48 Q762.832 1511.34 760.668 1508 Q758.495 1504.64 752.34 1501.08 Q746.166 1497.52 742.184 1497.33 Q738.194 1497.11 736.377 1500.26 M733.17 1498.41 Q736.075 1493.38 741.592 1493.03 Q747.101 1492.66 754.678 1497.03 Q762.236 1501.4 764.686 1506.37 Q767.127 1511.3 764.222 1516.34 Q761.317 1521.37 755.809 1521.74 Q750.291 1522.08 742.734 1517.72 Q735.156 1513.35 732.715 1508.41 Q730.265 1503.44 733.17 1498.41 Z" fill="#000000" fill-rule="evenodd" fill-opacity="1" /><path clip-path="url(#clip260)" d="M 0 0 M757.88 1496.21 L764.119 1485.4 L767.406 1487.3 L761.168 1498.11 L757.88 1496.21 Z" fill="#000000" fill-rule="evenodd" fill-opacity="1" /><path clip-path="url(#clip260)" d="M 0 0 M776.541 1485.79 L780.36 1479.17 L757.527 1465.99 L754.815 1474.02 L751.127 1471.89 L753.815 1463.9 L756.153 1459.85 L782.675 1475.16 L786.494 1468.55 L789.902 1470.51 L779.949 1487.75 L776.541 1485.79 Z" fill="#000000" fill-rule="evenodd" fill-opacity="1" /><path clip-path="url(#clip260)" d="M 0 0 M770.173 1441.72 Q768.368 1444.85 770.541 1448.22 Q772.705 1451.55 778.88 1455.12 Q785.034 1458.67 789.024 1458.89 Q793.005 1459.07 794.811 1455.95 Q796.628 1452.8 794.464 1449.47 Q792.291 1446.1 786.136 1442.55 Q779.962 1438.98 775.98 1438.79 Q771.991 1438.58 770.173 1441.72 M766.966 1439.87 Q769.871 1434.84 775.388 1434.5 Q780.897 1434.12 788.474 1438.5 Q796.032 1442.86 798.482 1447.83 Q800.923 1452.77 798.018 1457.8 Q795.113 1462.83 789.605 1463.21 Q784.088 1463.55 776.53 1459.18 Q768.952 1454.81 766.511 1449.87 Q764.061 1444.9 766.966 1439.87 Z" fill="#000000" fill-rule="evenodd" fill-opacity="1" /><path clip-path="url(#clip260)" d="M 0 0 M791.677 1437.67 L797.915 1426.87 L801.203 1428.77 L794.964 1439.57 L791.677 1437.67 Z" fill="#000000" fill-rule="evenodd" fill-opacity="1" /><path clip-path="url(#clip260)" d="M 0 0 M810.337 1427.25 L814.156 1420.63 L791.323 1407.45 L788.611 1415.48 L784.923 1413.35 L787.611 1405.36 L789.949 1401.31 L816.471 1416.62 L820.29 1410.01 L823.698 1411.98 L813.745 1429.22 L810.337 1427.25 Z" fill="#000000" fill-rule="evenodd" fill-opacity="1" /><path clip-path="url(#clip260)" d="M 0 0 M817.179 1386 Q819.478 1383.45 822.381 1382.96 Q825.294 1382.45 828.181 1384.12 Q832.611 1386.68 833.278 1391.13 Q833.944 1395.57 830.703 1401.19 Q829.615 1403.07 828.077 1404.86 Q826.57 1406.63 824.602 1408.33 L820.693 1406.07 Q822.647 1404.96 824.306 1403.24 Q825.964 1401.52 827.226 1399.34 Q829.425 1395.53 829.067 1392.68 Q828.721 1389.81 825.855 1388.15 Q823.208 1386.62 820.649 1387.63 Q818.08 1388.61 816.171 1391.91 L814.157 1395.4 L810.829 1393.48 L812.935 1389.83 Q814.66 1386.85 814.391 1384.58 Q814.103 1382.3 811.858 1381 Q809.552 1379.67 807.38 1380.61 Q805.2 1381.52 803.441 1384.56 Q802.48 1386.23 801.741 1388.34 Q801.003 1390.45 800.445 1393.18 L796.837 1391.1 Q797.526 1388.42 798.363 1386.23 Q799.211 1384.02 800.241 1382.24 Q802.903 1377.63 806.559 1376.15 Q810.195 1374.67 813.763 1376.73 Q816.249 1378.17 817.151 1380.59 Q818.033 1382.99 817.179 1386 Z" fill="#000000" fill-rule="evenodd" fill-opacity="1" /><path clip-path="url(#clip260)" d="M 0 0 M974.173 1587.32 L982.332 1573.19 L985.74 1575.16 L974.768 1594.16 L971.36 1592.19 Q970.306 1588.51 968.588 1582.23 Q966.862 1575.91 966.289 1574.22 Q965.227 1571.01 964.163 1569.38 Q963.091 1567.72 961.628 1566.88 Q959.242 1565.5 956.766 1566.31 Q954.302 1567.11 952.751 1569.8 Q951.652 1571.7 951.086 1574.21 Q950.533 1576.69 950.487 1579.88 L946.397 1577.51 Q946.827 1574.5 947.553 1572.09 Q948.278 1569.67 949.297 1567.91 Q951.982 1563.26 955.905 1561.83 Q959.827 1560.41 963.717 1562.66 Q965.561 1563.72 966.82 1565.38 Q968.07 1567.01 969.262 1570.13 Q969.554 1570.97 970.79 1575.27 Q972.005 1579.55 974.173 1587.32 Z" fill="#000000" fill-rule="evenodd" fill-opacity="1" /><path clip-path="url(#clip260)" d="M 0 0 M966.011 1546.37 Q964.206 1549.49 966.379 1552.86 Q968.543 1556.19 974.717 1559.76 Q980.872 1563.31 984.862 1563.53 Q988.843 1563.72 990.649 1560.59 Q992.466 1557.44 990.302 1554.11 Q988.129 1550.74 981.974 1547.19 Q975.8 1543.63 971.818 1543.44 Q967.828 1543.22 966.011 1546.37 M962.804 1544.51 Q965.709 1539.48 971.226 1539.14 Q976.735 1538.77 984.312 1543.14 Q991.87 1547.5 994.32 1552.47 Q996.761 1557.41 993.856 1562.44 Q990.951 1567.47 985.443 1567.85 Q979.926 1568.19 972.368 1563.83 Q964.79 1559.45 962.349 1554.52 Q959.899 1549.55 962.804 1544.51 Z" fill="#000000" fill-rule="evenodd" fill-opacity="1" /><path clip-path="url(#clip260)" d="M 0 0 M1000.39 1541.92 L1008.55 1527.78 L1011.96 1529.75 L1000.98 1548.76 L997.575 1546.79 Q996.521 1543.11 994.803 1536.82 Q993.077 1530.51 992.504 1528.81 Q991.442 1525.61 990.378 1523.98 Q989.306 1522.31 987.843 1521.47 Q985.457 1520.09 982.981 1520.91 Q980.517 1521.7 978.966 1524.39 Q977.867 1526.3 977.302 1528.8 Q976.748 1531.29 976.702 1534.47 L972.613 1532.11 Q973.042 1529.1 973.768 1526.68 Q974.494 1524.27 975.512 1522.5 Q978.197 1517.85 982.12 1516.43 Q986.043 1515 989.932 1517.25 Q991.776 1518.31 993.035 1519.98 Q994.285 1521.61 995.477 1524.73 Q995.769 1525.57 997.005 1529.86 Q998.22 1534.14 1000.39 1541.92 Z" fill="#000000" fill-rule="evenodd" fill-opacity="1" /><path clip-path="url(#clip260)" d="M 0 0 M992.226 1500.96 Q990.421 1504.09 992.594 1507.45 Q994.758 1510.79 1000.93 1514.35 Q1007.09 1517.91 1011.08 1518.13 Q1015.06 1518.31 1016.86 1515.19 Q1018.68 1512.04 1016.52 1508.7 Q1014.34 1505.34 1008.19 1501.78 Q1002.02 1498.22 998.034 1498.03 Q994.044 1497.81 992.226 1500.96 M989.019 1499.11 Q991.924 1494.08 997.441 1493.73 Q1002.95 1493.36 1010.53 1497.73 Q1018.09 1502.1 1020.54 1507.07 Q1022.98 1512.01 1020.07 1517.04 Q1017.17 1522.07 1011.66 1522.44 Q1006.14 1522.79 998.583 1518.42 Q991.005 1514.05 988.564 1509.11 Q986.114 1504.14 989.019 1499.11 Z" fill="#000000" fill-rule="evenodd" fill-opacity="1" /><path clip-path="url(#clip260)" d="M 0 0 M1013.73 1496.91 L1019.97 1486.11 L1023.26 1488 L1017.02 1498.81 L1013.73 1496.91 Z" fill="#000000" fill-rule="evenodd" fill-opacity="1" /><path clip-path="url(#clip260)" d="M 0 0 M1032.39 1486.49 L1036.21 1479.87 L1013.38 1466.69 L1010.66 1474.72 L1006.98 1472.59 L1009.66 1464.6 L1012 1460.55 L1038.52 1475.86 L1042.34 1469.25 L1045.75 1471.22 L1035.8 1488.46 L1032.39 1486.49 Z" fill="#000000" fill-rule="evenodd" fill-opacity="1" /><path clip-path="url(#clip260)" d="M 0 0 M1026.02 1442.42 Q1024.22 1445.55 1026.39 1448.92 Q1028.55 1452.25 1034.73 1455.82 Q1040.88 1459.37 1044.87 1459.59 Q1048.85 1459.78 1050.66 1456.65 Q1052.48 1453.5 1050.31 1450.17 Q1048.14 1446.8 1041.99 1443.25 Q1035.81 1439.68 1031.83 1439.5 Q1027.84 1439.28 1026.02 1442.42 M1022.82 1440.57 Q1025.72 1435.54 1031.24 1435.2 Q1036.75 1434.82 1044.32 1439.2 Q1051.88 1443.56 1054.33 1448.53 Q1056.77 1453.47 1053.87 1458.5 Q1050.96 1463.53 1045.45 1463.91 Q1039.94 1464.25 1032.38 1459.89 Q1024.8 1455.51 1022.36 1450.57 Q1019.91 1445.6 1022.82 1440.57 Z" fill="#000000" fill-rule="evenodd" fill-opacity="1" /><path clip-path="url(#clip260)" d="M 0 0 M1047.53 1438.37 L1053.76 1427.57 L1057.05 1429.47 L1050.81 1440.27 L1047.53 1438.37 Z" fill="#000000" fill-rule="evenodd" fill-opacity="1" /><path clip-path="url(#clip260)" d="M 0 0 M1066.19 1427.95 L1070.01 1421.34 L1047.17 1408.15 L1044.46 1416.18 L1040.77 1414.05 L1043.46 1406.06 L1045.8 1402.01 L1072.32 1417.33 L1076.14 1410.71 L1079.55 1412.68 L1069.59 1429.92 L1066.19 1427.95 Z" fill="#000000" fill-rule="evenodd" fill-opacity="1" /><path clip-path="url(#clip260)" d="M 0 0 M1070.79 1389.56 Q1069.22 1392.28 1070.16 1394.96 Q1071.11 1397.62 1074.35 1399.5 Q1077.58 1401.36 1080.38 1400.86 Q1083.17 1400.34 1084.75 1397.61 Q1086.32 1394.88 1085.37 1392.22 Q1084.41 1389.53 1081.18 1387.67 Q1077.94 1385.79 1075.15 1386.32 Q1072.37 1386.83 1070.79 1389.56 M1062.74 1374.19 L1066.43 1376.32 Q1064.83 1377.43 1063.55 1378.77 Q1062.28 1380.09 1061.4 1381.62 Q1059.08 1385.63 1060.56 1389.31 Q1062.05 1392.98 1067.35 1396.44 Q1066.29 1394.25 1066.4 1391.94 Q1066.49 1389.61 1067.72 1387.46 Q1070.33 1382.95 1074.58 1381.93 Q1078.82 1380.88 1083.53 1383.6 Q1088.14 1386.26 1089.36 1390.6 Q1090.57 1394.93 1087.95 1399.46 Q1084.96 1404.65 1079.4 1405.11 Q1073.83 1405.55 1066.27 1401.19 Q1059.17 1397.09 1056.91 1391.29 Q1054.62 1385.48 1057.9 1379.81 Q1058.78 1378.29 1059.97 1376.92 Q1061.17 1375.53 1062.74 1374.19 Z" fill="#000000" fill-rule="evenodd" fill-opacity="1" /><path clip-path="url(#clip260)" d="M 0 0 M1231.31 1585.8 L1239.47 1571.67 L1242.87 1573.63 L1231.9 1592.64 L1228.49 1590.67 Q1227.44 1586.99 1225.72 1580.7 Q1224 1574.39 1223.42 1572.69 Q1222.36 1569.49 1221.3 1567.86 Q1220.22 1566.2 1218.76 1565.35 Q1216.38 1563.98 1213.9 1564.79 Q1211.44 1565.59 1209.89 1568.27 Q1208.79 1570.18 1208.22 1572.68 Q1207.67 1575.17 1207.62 1578.35 L1203.53 1575.99 Q1203.96 1572.98 1204.69 1570.56 Q1205.41 1568.15 1206.43 1566.39 Q1209.12 1561.73 1213.04 1560.31 Q1216.96 1558.89 1220.85 1561.13 Q1222.69 1562.2 1223.95 1563.86 Q1225.2 1565.49 1226.4 1568.61 Q1226.69 1569.45 1227.92 1573.74 Q1229.14 1578.03 1231.31 1585.8 Z" fill="#000000" fill-rule="evenodd" fill-opacity="1" /><path clip-path="url(#clip260)" d="M 0 0 M1223.15 1544.84 Q1221.34 1547.97 1223.51 1551.34 Q1225.68 1554.67 1231.85 1558.24 Q1238.01 1561.79 1242 1562.01 Q1245.98 1562.19 1247.78 1559.07 Q1249.6 1555.92 1247.44 1552.59 Q1245.26 1549.22 1239.11 1545.67 Q1232.93 1542.1 1228.95 1541.91 Q1224.96 1541.7 1223.15 1544.84 M1219.94 1542.99 Q1222.84 1537.96 1228.36 1537.62 Q1233.87 1537.24 1241.45 1541.62 Q1249 1545.98 1251.45 1550.95 Q1253.9 1555.89 1250.99 1560.92 Q1248.09 1565.95 1242.58 1566.33 Q1237.06 1566.67 1229.5 1562.31 Q1221.92 1557.93 1219.48 1552.99 Q1217.03 1548.02 1219.94 1542.99 Z" fill="#000000" fill-rule="evenodd" fill-opacity="1" /><path clip-path="url(#clip260)" d="M 0 0 M1257.52 1540.39 L1265.68 1526.26 L1269.09 1528.23 L1258.12 1547.23 L1254.71 1545.26 Q1253.65 1541.58 1251.94 1535.3 Q1250.21 1528.98 1249.64 1527.29 Q1248.58 1524.08 1247.51 1522.45 Q1246.44 1520.79 1244.98 1519.95 Q1242.59 1518.57 1240.12 1519.39 Q1237.65 1520.18 1236.1 1522.87 Q1235 1524.77 1234.44 1527.28 Q1233.88 1529.77 1233.84 1532.95 L1229.75 1530.59 Q1230.18 1527.57 1230.9 1525.16 Q1231.63 1522.74 1232.65 1520.98 Q1235.33 1516.33 1239.25 1514.91 Q1243.18 1513.48 1247.07 1515.73 Q1248.91 1516.79 1250.17 1518.45 Q1251.42 1520.08 1252.61 1523.2 Q1252.9 1524.04 1254.14 1528.34 Q1255.35 1532.62 1257.52 1540.39 Z" fill="#000000" fill-rule="evenodd" fill-opacity="1" /><path clip-path="url(#clip260)" d="M 0 0 M1249.36 1499.44 Q1247.55 1502.56 1249.73 1505.93 Q1251.89 1509.26 1258.07 1512.83 Q1264.22 1516.38 1268.21 1516.6 Q1272.19 1516.79 1274 1513.66 Q1275.81 1510.51 1273.65 1507.18 Q1271.48 1503.81 1265.32 1500.26 Q1259.15 1496.7 1255.17 1496.51 Q1251.18 1496.29 1249.36 1499.44 M1246.15 1497.59 Q1249.06 1492.55 1254.58 1492.21 Q1260.08 1491.84 1267.66 1496.21 Q1275.22 1500.57 1277.67 1505.54 Q1280.11 1510.48 1277.21 1515.51 Q1274.3 1520.55 1268.79 1520.92 Q1263.27 1521.26 1255.72 1516.9 Q1248.14 1512.52 1245.7 1507.59 Q1243.25 1502.62 1246.15 1497.59 Z" fill="#000000" fill-rule="evenodd" fill-opacity="1" /><path clip-path="url(#clip260)" d="M 0 0 M1270.86 1495.39 L1277.1 1484.58 L1280.39 1486.48 L1274.15 1497.28 L1270.86 1495.39 Z" fill="#000000" fill-rule="evenodd" fill-opacity="1" /><path clip-path="url(#clip260)" d="M 0 0 M1289.52 1484.96 L1293.34 1478.35 L1270.51 1465.17 L1267.8 1473.2 L1264.11 1471.07 L1266.8 1463.08 L1269.14 1459.03 L1295.66 1474.34 L1299.48 1467.72 L1302.89 1469.69 L1292.93 1486.93 L1289.52 1484.96 Z" fill="#000000" fill-rule="evenodd" fill-opacity="1" /><path clip-path="url(#clip260)" d="M 0 0 M1283.16 1440.9 Q1281.35 1444.03 1283.52 1447.39 Q1285.69 1450.73 1291.86 1454.29 Q1298.02 1457.85 1302.01 1458.07 Q1305.99 1458.25 1307.79 1455.12 Q1309.61 1451.98 1307.45 1448.64 Q1305.27 1445.28 1299.12 1441.72 Q1292.95 1438.16 1288.96 1437.97 Q1284.97 1437.75 1283.16 1440.9 M1279.95 1439.05 Q1282.85 1434.02 1288.37 1433.67 Q1293.88 1433.3 1301.46 1437.67 Q1309.02 1442.04 1311.47 1447.01 Q1313.91 1451.95 1311 1456.98 Q1308.1 1462.01 1302.59 1462.38 Q1297.07 1462.73 1289.51 1458.36 Q1281.94 1453.99 1279.49 1449.05 Q1277.04 1444.08 1279.95 1439.05 Z" fill="#000000" fill-rule="evenodd" fill-opacity="1" /><path clip-path="url(#clip260)" d="M 0 0 M1304.66 1436.85 L1310.9 1426.05 L1314.19 1427.94 L1307.95 1438.75 L1304.66 1436.85 Z" fill="#000000" fill-rule="evenodd" fill-opacity="1" /><path clip-path="url(#clip260)" d="M 0 0 M1324.93 1423.64 L1333.09 1409.51 L1336.5 1411.48 L1325.52 1430.48 L1322.12 1428.51 Q1321.06 1424.83 1319.34 1418.55 Q1317.62 1412.23 1317.05 1410.54 Q1315.98 1407.33 1314.92 1405.7 Q1313.85 1404.04 1312.38 1403.19 Q1310 1401.82 1307.52 1402.63 Q1305.06 1403.43 1303.51 1406.11 Q1302.41 1408.02 1301.84 1410.53 Q1301.29 1413.01 1301.24 1416.19 L1297.15 1413.83 Q1297.58 1410.82 1298.31 1408.41 Q1299.03 1405.99 1300.05 1404.23 Q1302.74 1399.58 1306.66 1398.15 Q1310.58 1396.73 1314.47 1398.97 Q1316.32 1400.04 1317.58 1401.7 Q1318.83 1403.33 1320.02 1406.45 Q1320.31 1407.29 1321.55 1411.58 Q1322.76 1415.87 1324.93 1423.64 Z" fill="#000000" fill-rule="evenodd" fill-opacity="1" /><path clip-path="url(#clip260)" d="M 0 0 M1336.03 1404.42 L1339.85 1397.8 L1317.01 1384.62 L1314.3 1392.65 L1310.61 1390.52 L1313.3 1382.53 L1315.64 1378.48 L1342.16 1393.79 L1345.98 1387.18 L1349.39 1389.14 L1339.44 1406.38 L1336.03 1404.42 Z" fill="#000000" fill-rule="evenodd" fill-opacity="1" /><path clip-path="url(#clip260)" d="M 0 0 M1486.87 1587 L1495.03 1572.87 L1498.43 1574.84 L1487.46 1593.84 L1484.05 1591.87 Q1483 1588.19 1481.28 1581.91 Q1479.56 1575.59 1478.98 1573.9 Q1477.92 1570.69 1476.86 1569.06 Q1475.78 1567.4 1474.32 1566.56 Q1471.94 1565.18 1469.46 1565.99 Q1467 1566.79 1465.44 1569.48 Q1464.35 1571.38 1463.78 1573.89 Q1463.23 1576.37 1463.18 1579.56 L1459.09 1577.19 Q1459.52 1574.18 1460.25 1571.77 Q1460.97 1569.35 1461.99 1567.59 Q1464.68 1562.94 1468.6 1561.51 Q1472.52 1560.09 1476.41 1562.34 Q1478.25 1563.4 1479.51 1565.06 Q1480.76 1566.69 1481.96 1569.81 Q1482.25 1570.65 1483.48 1574.95 Q1484.7 1579.23 1486.87 1587 Z" fill="#000000" fill-rule="evenodd" fill-opacity="1" /><path clip-path="url(#clip260)" d="M 0 0 M1478.71 1546.05 Q1476.9 1549.17 1479.07 1552.54 Q1481.24 1555.87 1487.41 1559.44 Q1493.57 1562.99 1497.56 1563.21 Q1501.54 1563.4 1503.34 1560.27 Q1505.16 1557.12 1503 1553.79 Q1500.82 1550.42 1494.67 1546.87 Q1488.49 1543.3 1484.51 1543.12 Q1480.52 1542.9 1478.71 1546.05 M1475.5 1544.19 Q1478.4 1539.16 1483.92 1538.82 Q1489.43 1538.44 1497.01 1542.82 Q1504.56 1547.18 1507.01 1552.15 Q1509.46 1557.09 1506.55 1562.12 Q1503.64 1567.15 1498.14 1567.53 Q1492.62 1567.87 1485.06 1563.51 Q1477.48 1559.13 1475.04 1554.2 Q1472.59 1549.23 1475.5 1544.19 Z" fill="#000000" fill-rule="evenodd" fill-opacity="1" /><path clip-path="url(#clip260)" d="M 0 0 M1513.08 1541.6 L1521.24 1527.46 L1524.65 1529.43 L1513.68 1548.44 L1510.27 1546.47 Q1509.21 1542.79 1507.5 1536.5 Q1505.77 1530.19 1505.2 1528.49 Q1504.14 1525.29 1503.07 1523.66 Q1502 1521.99 1500.54 1521.15 Q1498.15 1519.77 1495.68 1520.59 Q1493.21 1521.38 1491.66 1524.07 Q1490.56 1525.97 1490 1528.48 Q1489.44 1530.97 1489.4 1534.15 L1485.31 1531.79 Q1485.74 1528.78 1486.46 1526.36 Q1487.19 1523.95 1488.21 1522.18 Q1490.89 1517.53 1494.81 1516.11 Q1498.74 1514.68 1502.63 1516.93 Q1504.47 1517.99 1505.73 1519.66 Q1506.98 1521.29 1508.17 1524.41 Q1508.46 1525.24 1509.7 1529.54 Q1510.91 1533.82 1513.08 1541.6 Z" fill="#000000" fill-rule="evenodd" fill-opacity="1" /><path clip-path="url(#clip260)" d="M 0 0 M1504.92 1500.64 Q1503.11 1503.77 1505.29 1507.13 Q1507.45 1510.47 1513.63 1514.03 Q1519.78 1517.59 1523.77 1517.8 Q1527.75 1517.99 1529.56 1514.86 Q1531.37 1511.72 1529.21 1508.38 Q1527.04 1505.02 1520.88 1501.46 Q1514.71 1497.9 1510.73 1497.71 Q1506.74 1497.49 1504.92 1500.64 M1501.71 1498.79 Q1504.62 1493.76 1510.13 1493.41 Q1515.64 1493.04 1523.22 1497.41 Q1530.78 1501.78 1533.23 1506.75 Q1535.67 1511.68 1532.77 1516.72 Q1529.86 1521.75 1524.35 1522.12 Q1518.83 1522.47 1511.28 1518.1 Q1503.7 1513.73 1501.26 1508.79 Q1498.81 1503.82 1501.71 1498.79 Z" fill="#000000" fill-rule="evenodd" fill-opacity="1" /><path clip-path="url(#clip260)" d="M 0 0 M1526.42 1496.59 L1532.66 1485.78 L1535.95 1487.68 L1529.71 1498.49 L1526.42 1496.59 Z" fill="#000000" fill-rule="evenodd" fill-opacity="1" /><path clip-path="url(#clip260)" d="M 0 0 M1545.08 1486.17 L1548.9 1479.55 L1526.07 1466.37 L1523.36 1474.4 L1519.67 1472.27 L1522.36 1464.28 L1524.7 1460.23 L1551.22 1475.54 L1555.04 1468.93 L1558.45 1470.89 L1548.49 1488.13 L1545.08 1486.17 Z" fill="#000000" fill-rule="evenodd" fill-opacity="1" /><path clip-path="url(#clip260)" d="M 0 0 M1538.72 1442.1 Q1536.91 1445.23 1539.08 1448.6 Q1541.25 1451.93 1547.42 1455.5 Q1553.58 1459.05 1557.57 1459.27 Q1561.55 1459.46 1563.35 1456.33 Q1565.17 1453.18 1563.01 1449.85 Q1560.83 1446.48 1554.68 1442.93 Q1548.5 1439.36 1544.52 1439.17 Q1540.53 1438.96 1538.72 1442.1 M1535.51 1440.25 Q1538.41 1435.22 1543.93 1434.88 Q1549.44 1434.5 1557.02 1438.88 Q1564.57 1443.24 1567.02 1448.21 Q1569.47 1453.15 1566.56 1458.18 Q1563.66 1463.21 1558.15 1463.59 Q1552.63 1463.93 1545.07 1459.57 Q1537.5 1455.19 1535.05 1450.25 Q1532.6 1445.28 1535.51 1440.25 Z" fill="#000000" fill-rule="evenodd" fill-opacity="1" /><path clip-path="url(#clip260)" d="M 0 0 M1560.22 1438.05 L1566.46 1427.25 L1569.75 1429.15 L1563.51 1439.95 L1560.22 1438.05 Z" fill="#000000" fill-rule="evenodd" fill-opacity="1" /><path clip-path="url(#clip260)" d="M 0 0 M1580.49 1424.84 L1588.65 1410.71 L1592.06 1412.68 L1581.08 1431.68 L1577.68 1429.72 Q1576.62 1426.03 1574.9 1419.75 Q1573.18 1413.43 1572.61 1411.74 Q1571.54 1408.53 1570.48 1406.9 Q1569.41 1405.24 1567.94 1404.4 Q1565.56 1403.02 1563.08 1403.84 Q1560.62 1404.63 1559.07 1407.32 Q1557.97 1409.22 1557.4 1411.73 Q1556.85 1414.22 1556.8 1417.4 L1552.71 1415.04 Q1553.14 1412.02 1553.87 1409.61 Q1554.59 1407.19 1555.61 1405.43 Q1558.3 1400.78 1562.22 1399.36 Q1566.14 1397.93 1570.03 1400.18 Q1571.88 1401.24 1573.14 1402.9 Q1574.39 1404.53 1575.58 1407.66 Q1575.87 1408.49 1577.11 1412.79 Q1578.32 1417.07 1580.49 1424.84 Z" fill="#000000" fill-rule="evenodd" fill-opacity="1" /><path clip-path="url(#clip260)" d="M 0 0 M1583.3 1389.56 Q1581.73 1392.28 1582.67 1394.96 Q1583.62 1397.62 1586.86 1399.5 Q1590.09 1401.36 1592.89 1400.86 Q1595.68 1400.34 1597.25 1397.61 Q1598.83 1394.88 1597.88 1392.22 Q1596.92 1389.53 1593.69 1387.67 Q1590.44 1385.79 1587.65 1386.32 Q1584.88 1386.83 1583.3 1389.56 M1575.25 1374.19 L1578.94 1376.32 Q1577.34 1377.43 1576.06 1378.77 Q1574.78 1380.09 1573.91 1381.62 Q1571.59 1385.63 1573.07 1389.31 Q1574.56 1392.98 1579.86 1396.44 Q1578.8 1394.25 1578.91 1391.94 Q1578.99 1389.61 1580.23 1387.46 Q1582.84 1382.95 1587.09 1381.93 Q1591.33 1380.88 1596.04 1383.6 Q1600.65 1386.26 1601.86 1390.6 Q1603.08 1394.93 1600.46 1399.46 Q1597.46 1404.65 1591.91 1405.11 Q1586.33 1405.55 1578.78 1401.19 Q1571.68 1397.09 1569.41 1391.29 Q1567.13 1385.48 1570.4 1379.81 Q1571.28 1378.29 1572.48 1376.92 Q1573.68 1375.53 1575.25 1374.19 Z" fill="#000000" fill-rule="evenodd" fill-opacity="1" /><path clip-path="url(#clip260)" d="M 0 0 M1743.29 1586.7 L1751.45 1572.57 L1754.86 1574.54 L1743.89 1593.54 L1740.48 1591.57 Q1739.43 1587.89 1737.71 1581.61 Q1735.98 1575.29 1735.41 1573.6 Q1734.35 1570.39 1733.28 1568.76 Q1732.21 1567.1 1730.75 1566.25 Q1728.36 1564.88 1725.89 1565.69 Q1723.42 1566.49 1721.87 1569.18 Q1720.77 1571.08 1720.21 1573.59 Q1719.65 1576.07 1719.61 1579.25 L1715.52 1576.89 Q1715.95 1573.88 1716.67 1571.47 Q1717.4 1569.05 1718.42 1567.29 Q1721.1 1562.64 1725.03 1561.21 Q1728.95 1559.79 1732.84 1562.03 Q1734.68 1563.1 1735.94 1564.76 Q1737.19 1566.39 1738.38 1569.51 Q1738.68 1570.35 1739.91 1574.64 Q1741.13 1578.93 1743.29 1586.7 Z" fill="#000000" fill-rule="evenodd" fill-opacity="1" /><path clip-path="url(#clip260)" d="M 0 0 M1735.13 1545.75 Q1733.33 1548.87 1735.5 1552.24 Q1737.66 1555.57 1743.84 1559.14 Q1749.99 1562.69 1753.98 1562.91 Q1757.96 1563.1 1759.77 1559.97 Q1761.59 1556.82 1759.42 1553.49 Q1757.25 1550.12 1751.1 1546.57 Q1744.92 1543 1740.94 1542.82 Q1736.95 1542.6 1735.13 1545.75 M1731.93 1543.89 Q1734.83 1538.86 1740.35 1538.52 Q1745.86 1538.14 1753.43 1542.52 Q1760.99 1546.88 1763.44 1551.85 Q1765.88 1556.79 1762.98 1561.82 Q1760.07 1566.85 1754.56 1567.23 Q1749.05 1567.57 1741.49 1563.21 Q1733.91 1558.83 1731.47 1553.89 Q1729.02 1548.93 1731.93 1543.89 Z" fill="#000000" fill-rule="evenodd" fill-opacity="1" /><path clip-path="url(#clip260)" d="M 0 0 M1769.51 1541.3 L1777.67 1527.16 L1781.08 1529.13 L1770.1 1548.13 L1766.7 1546.17 Q1765.64 1542.48 1763.92 1536.2 Q1762.2 1529.88 1761.63 1528.19 Q1760.56 1524.98 1759.5 1523.35 Q1758.43 1521.69 1756.96 1520.85 Q1754.58 1519.47 1752.1 1520.29 Q1749.64 1521.08 1748.09 1523.77 Q1746.99 1525.67 1746.42 1528.18 Q1745.87 1530.67 1745.82 1533.85 L1741.73 1531.49 Q1742.16 1528.47 1742.89 1526.06 Q1743.62 1523.65 1744.63 1521.88 Q1747.32 1517.23 1751.24 1515.81 Q1755.16 1514.38 1759.05 1516.63 Q1760.9 1517.69 1762.16 1519.36 Q1763.41 1520.99 1764.6 1524.11 Q1764.89 1524.94 1766.13 1529.24 Q1767.34 1533.52 1769.51 1541.3 Z" fill="#000000" fill-rule="evenodd" fill-opacity="1" /><path clip-path="url(#clip260)" d="M 0 0 M1761.35 1500.34 Q1759.54 1503.47 1761.72 1506.83 Q1763.88 1510.17 1770.05 1513.73 Q1776.21 1517.29 1780.2 1517.5 Q1784.18 1517.69 1785.99 1514.56 Q1787.8 1511.42 1785.64 1508.08 Q1783.47 1504.72 1777.31 1501.16 Q1771.14 1497.6 1767.16 1497.41 Q1763.17 1497.19 1761.35 1500.34 M1758.14 1498.49 Q1761.05 1493.46 1766.56 1493.11 Q1772.07 1492.74 1779.65 1497.11 Q1787.21 1501.48 1789.66 1506.45 Q1792.1 1511.38 1789.19 1516.42 Q1786.29 1521.45 1780.78 1521.82 Q1775.26 1522.16 1767.7 1517.8 Q1760.13 1513.43 1757.69 1508.49 Q1755.24 1503.52 1758.14 1498.49 Z" fill="#000000" fill-rule="evenodd" fill-opacity="1" /><path clip-path="url(#clip260)" d="M 0 0 M1782.85 1496.29 L1789.09 1485.48 L1792.38 1487.38 L1786.14 1498.19 L1782.85 1496.29 Z" fill="#000000" fill-rule="evenodd" fill-opacity="1" /><path clip-path="url(#clip260)" d="M 0 0 M1801.51 1485.87 L1805.33 1479.25 L1782.5 1466.07 L1779.79 1474.1 L1776.1 1471.97 L1778.79 1463.98 L1781.12 1459.93 L1807.65 1475.24 L1811.47 1468.63 L1814.87 1470.59 L1804.92 1487.83 L1801.51 1485.87 Z" fill="#000000" fill-rule="evenodd" fill-opacity="1" /><path clip-path="url(#clip260)" d="M 0 0 M1795.14 1441.8 Q1793.34 1444.93 1795.51 1448.3 Q1797.68 1451.63 1803.85 1455.2 Q1810 1458.75 1813.99 1458.97 Q1817.98 1459.15 1819.78 1456.03 Q1821.6 1452.88 1819.43 1449.55 Q1817.26 1446.18 1811.11 1442.63 Q1804.93 1439.06 1800.95 1438.87 Q1796.96 1438.66 1795.14 1441.8 M1791.94 1439.95 Q1794.84 1434.92 1800.36 1434.58 Q1805.87 1434.2 1813.45 1438.58 Q1821 1442.94 1823.45 1447.91 Q1825.89 1452.85 1822.99 1457.88 Q1820.08 1462.91 1814.58 1463.29 Q1809.06 1463.63 1801.5 1459.26 Q1793.92 1454.89 1791.48 1449.95 Q1789.03 1444.98 1791.94 1439.95 Z" fill="#000000" fill-rule="evenodd" fill-opacity="1" /><path clip-path="url(#clip260)" d="M 0 0 M1816.65 1437.75 L1822.89 1426.95 L1826.17 1428.85 L1819.93 1439.65 L1816.65 1437.75 Z" fill="#000000" fill-rule="evenodd" fill-opacity="1" /><path clip-path="url(#clip260)" d="M 0 0 M1836.92 1424.54 L1845.08 1410.41 L1848.48 1412.38 L1837.51 1431.38 L1834.1 1429.41 Q1833.05 1425.73 1831.33 1419.45 Q1829.61 1413.13 1829.03 1411.44 Q1827.97 1408.23 1826.91 1406.6 Q1825.83 1404.94 1824.37 1404.1 Q1821.99 1402.72 1819.51 1403.53 Q1817.05 1404.33 1815.5 1407.02 Q1814.4 1408.92 1813.83 1411.43 Q1813.28 1413.92 1813.23 1417.1 L1809.14 1414.74 Q1809.57 1411.72 1810.3 1409.31 Q1811.02 1406.89 1812.04 1405.13 Q1814.73 1400.48 1818.65 1399.05 Q1822.57 1397.63 1826.46 1399.88 Q1828.3 1400.94 1829.56 1402.6 Q1830.81 1404.23 1832.01 1407.35 Q1832.3 1408.19 1833.53 1412.49 Q1834.75 1416.77 1836.92 1424.54 Z" fill="#000000" fill-rule="evenodd" fill-opacity="1" /><path clip-path="url(#clip260)" d="M 0 0 M1850.47 1407.51 L1846.78 1405.38 Q1848.38 1404.27 1849.66 1402.93 Q1850.95 1401.58 1851.81 1400.08 Q1854.13 1396.07 1852.66 1392.42 Q1851.18 1388.73 1845.86 1385.26 Q1846.91 1387.41 1846.8 1389.73 Q1846.7 1392.05 1845.45 1394.21 Q1842.85 1398.7 1838.63 1399.77 Q1834.4 1400.8 1829.69 1398.08 Q1825.08 1395.42 1823.87 1391.08 Q1822.65 1386.75 1825.27 1382.22 Q1828.27 1377.02 1833.83 1376.6 Q1839.39 1376.15 1846.96 1380.52 Q1854.04 1384.61 1856.33 1390.42 Q1858.6 1396.19 1855.33 1401.87 Q1854.45 1403.39 1853.24 1404.78 Q1852.04 1406.17 1850.47 1407.51 M1842.43 1392.12 Q1844 1389.4 1843.05 1386.74 Q1842.12 1384.06 1838.87 1382.18 Q1835.64 1380.32 1832.85 1380.85 Q1830.05 1381.34 1828.48 1384.07 Q1826.9 1386.79 1827.86 1389.49 Q1828.81 1392.15 1832.04 1394.01 Q1835.29 1395.88 1838.07 1395.38 Q1840.86 1394.85 1842.43 1392.12 Z" fill="#000000" fill-rule="evenodd" fill-opacity="1" /><path clip-path="url(#clip260)" d="M 0 0 M1999.59 1586.62 L2007.75 1572.49 L2011.16 1574.46 L2000.19 1593.46 L1996.78 1591.49 Q1995.73 1587.81 1994.01 1581.53 Q1992.28 1575.21 1991.71 1573.52 Q1990.65 1570.31 1989.59 1568.68 Q1988.51 1567.02 1987.05 1566.17 Q1984.66 1564.8 1982.19 1565.61 Q1979.72 1566.41 1978.17 1569.1 Q1977.07 1571 1976.51 1573.51 Q1975.95 1575.99 1975.91 1579.17 L1971.82 1576.81 Q1972.25 1573.8 1972.97 1571.39 Q1973.7 1568.97 1974.72 1567.21 Q1977.4 1562.56 1981.33 1561.13 Q1985.25 1559.71 1989.14 1561.95 Q1990.98 1563.02 1992.24 1564.68 Q1993.49 1566.31 1994.68 1569.43 Q1994.98 1570.27 1996.21 1574.56 Q1997.43 1578.85 1999.59 1586.62 Z" fill="#000000" fill-rule="evenodd" fill-opacity="1" /><path clip-path="url(#clip260)" d="M 0 0 M1991.43 1545.66 Q1989.63 1548.79 1991.8 1552.16 Q1993.97 1555.49 2000.14 1559.06 Q2006.29 1562.61 2010.28 1562.83 Q2014.27 1563.02 2016.07 1559.89 Q2017.89 1556.74 2015.72 1553.41 Q2013.55 1550.04 2007.4 1546.49 Q2001.22 1542.92 1997.24 1542.74 Q1993.25 1542.52 1991.43 1545.66 M1988.23 1543.81 Q1991.13 1538.78 1996.65 1538.44 Q2002.16 1538.06 2009.73 1542.44 Q2017.29 1546.8 2019.74 1551.77 Q2022.18 1556.71 2019.28 1561.74 Q2016.37 1566.77 2010.86 1567.15 Q2005.35 1567.49 1997.79 1563.13 Q1990.21 1558.75 1987.77 1553.81 Q1985.32 1548.84 1988.23 1543.81 Z" fill="#000000" fill-rule="evenodd" fill-opacity="1" /><path clip-path="url(#clip260)" d="M 0 0 M2025.81 1541.22 L2033.97 1527.08 L2037.38 1529.05 L2026.41 1548.05 L2023 1546.09 Q2021.94 1542.4 2020.23 1536.12 Q2018.5 1529.8 2017.93 1528.11 Q2016.86 1524.9 2015.8 1523.27 Q2014.73 1521.61 2013.26 1520.77 Q2010.88 1519.39 2008.4 1520.21 Q2005.94 1521 2004.39 1523.69 Q2003.29 1525.59 2002.72 1528.1 Q2002.17 1530.59 2002.12 1533.77 L1998.03 1531.41 Q1998.46 1528.39 1999.19 1525.98 Q1999.92 1523.57 2000.93 1521.8 Q2003.62 1517.15 2007.54 1515.73 Q2011.46 1514.3 2015.35 1516.55 Q2017.2 1517.61 2018.46 1519.28 Q2019.71 1520.91 2020.9 1524.03 Q2021.19 1524.86 2022.43 1529.16 Q2023.64 1533.44 2025.81 1541.22 Z" fill="#000000" fill-rule="evenodd" fill-opacity="1" /><path clip-path="url(#clip260)" d="M 0 0 M2017.65 1500.26 Q2015.84 1503.39 2018.02 1506.75 Q2020.18 1510.09 2026.35 1513.65 Q2032.51 1517.2 2036.5 1517.42 Q2040.48 1517.61 2042.29 1514.48 Q2044.1 1511.34 2041.94 1508 Q2039.77 1504.64 2033.61 1501.08 Q2027.44 1497.52 2023.46 1497.33 Q2019.47 1497.11 2017.65 1500.26 M2014.44 1498.41 Q2017.35 1493.38 2022.86 1493.03 Q2028.37 1492.66 2035.95 1497.03 Q2043.51 1501.4 2045.96 1506.37 Q2048.4 1511.3 2045.49 1516.34 Q2042.59 1521.37 2037.08 1521.74 Q2031.56 1522.08 2024.01 1517.72 Q2016.43 1513.35 2013.99 1508.41 Q2011.54 1503.44 2014.44 1498.41 Z" fill="#000000" fill-rule="evenodd" fill-opacity="1" /><path clip-path="url(#clip260)" d="M 0 0 M2039.15 1496.21 L2045.39 1485.4 L2048.68 1487.3 L2042.44 1498.11 L2039.15 1496.21 Z" fill="#000000" fill-rule="evenodd" fill-opacity="1" /><path clip-path="url(#clip260)" d="M 0 0 M2057.81 1485.79 L2061.63 1479.17 L2038.8 1465.99 L2036.09 1474.02 L2032.4 1471.89 L2035.09 1463.9 L2037.42 1459.85 L2063.95 1475.16 L2067.77 1468.55 L2071.17 1470.51 L2061.22 1487.75 L2057.81 1485.79 Z" fill="#000000" fill-rule="evenodd" fill-opacity="1" /><path clip-path="url(#clip260)" d="M 0 0 M2070.71 1463.45 L2074.52 1456.84 L2051.69 1443.66 L2048.98 1451.69 L2045.29 1449.56 L2047.98 1441.57 L2050.32 1437.52 L2076.84 1452.83 L2080.66 1446.21 L2084.07 1448.18 L2074.11 1465.42 L2070.71 1463.45 Z" fill="#000000" fill-rule="evenodd" fill-opacity="1" /><path clip-path="url(#clip260)" d="M 0 0 M2072.33 1438.73 L2078.57 1427.93 L2081.86 1429.83 L2075.62 1440.63 L2072.33 1438.73 Z" fill="#000000" fill-rule="evenodd" fill-opacity="1" /><path clip-path="url(#clip260)" d="M 0 0 M2071.73 1406.58 Q2069.93 1409.71 2072.1 1413.07 Q2074.27 1416.41 2080.44 1419.97 Q2086.59 1423.53 2090.58 1423.75 Q2094.57 1423.93 2096.37 1420.8 Q2098.19 1417.66 2096.02 1414.32 Q2093.85 1410.96 2087.7 1407.4 Q2081.52 1403.84 2077.54 1403.65 Q2073.55 1403.43 2071.73 1406.58 M2068.53 1404.73 Q2071.43 1399.7 2076.95 1399.35 Q2082.46 1398.98 2090.03 1403.35 Q2097.59 1407.72 2100.04 1412.69 Q2102.48 1417.62 2099.58 1422.66 Q2096.67 1427.69 2091.17 1428.06 Q2085.65 1428.41 2078.09 1424.04 Q2070.51 1419.67 2068.07 1414.73 Q2065.62 1409.76 2068.53 1404.73 Z" fill="#000000" fill-rule="evenodd" fill-opacity="1" /><path clip-path="url(#clip260)" d="M 0 0 M2098.45 1386 Q2100.75 1383.45 2103.65 1382.96 Q2106.57 1382.45 2109.45 1384.12 Q2113.88 1386.68 2114.55 1391.13 Q2115.22 1395.57 2111.97 1401.19 Q2110.89 1403.07 2109.35 1404.86 Q2107.84 1406.63 2105.87 1408.33 L2101.96 1406.07 Q2103.92 1404.96 2105.58 1403.24 Q2107.24 1401.52 2108.5 1399.34 Q2110.7 1395.53 2110.34 1392.68 Q2109.99 1389.81 2107.13 1388.15 Q2104.48 1386.62 2101.92 1387.63 Q2099.35 1388.61 2097.44 1391.91 L2095.43 1395.4 L2092.1 1393.48 L2094.21 1389.83 Q2095.93 1386.85 2095.66 1384.58 Q2095.37 1382.3 2093.13 1381 Q2090.82 1379.67 2088.65 1380.61 Q2086.47 1381.52 2084.71 1384.56 Q2083.75 1386.23 2083.01 1388.34 Q2082.27 1390.45 2081.72 1393.18 L2078.11 1391.1 Q2078.8 1388.42 2079.63 1386.23 Q2080.48 1384.02 2081.51 1382.24 Q2084.17 1377.63 2087.83 1376.15 Q2091.47 1374.67 2095.03 1376.73 Q2097.52 1378.17 2098.42 1380.59 Q2099.3 1382.99 2098.45 1386 Z" fill="#000000" fill-rule="evenodd" fill-opacity="1" /><polyline clip-path="url(#clip262)" style="stroke:#000000; stroke-width:2; stroke-opacity:0.1; fill:none" points="
  188.774,1092.48 2352.76,1092.48 
  "/>
<polyline clip-path="url(#clip262)" style="stroke:#000000; stroke-width:2; stroke-opacity:0.1; fill:none" points="
  188.774,748.911 2352.76,748.911 
  "/>
<polyline clip-path="url(#clip262)" style="stroke:#000000; stroke-width:2; stroke-opacity:0.1; fill:none" points="
  188.774,405.344 2352.76,405.344 
  "/>
<polyline clip-path="url(#clip262)" style="stroke:#000000; stroke-width:2; stroke-opacity:0.1; fill:none" points="
  188.774,61.7775 2352.76,61.7775 
  "/>
<polyline clip-path="url(#clip260)" style="stroke:#000000; stroke-width:4; stroke-opacity:1; fill:none" points="
  188.774,1349.21 188.774,47.2441 
  "/>
<polyline clip-path="url(#clip260)" style="stroke:#000000; stroke-width:4; stroke-opacity:1; fill:none" points="
  188.774,1092.48 214.742,1092.48 
  "/>
<polyline clip-path="url(#clip260)" style="stroke:#000000; stroke-width:4; stroke-opacity:1; fill:none" points="
  188.774,748.911 214.742,748.911 
  "/>
<polyline clip-path="url(#clip260)" style="stroke:#000000; stroke-width:4; stroke-opacity:1; fill:none" points="
  188.774,405.344 214.742,405.344 
  "/>
<polyline clip-path="url(#clip260)" style="stroke:#000000; stroke-width:4; stroke-opacity:1; fill:none" points="
  188.774,61.7775 214.742,61.7775 
  "/>
<path clip-path="url(#clip260)" d="M 0 0 M52.8208 1105.82 L60.4597 1105.82 L60.4597 1079.46 L52.1495 1081.12 L52.1495 1076.86 L60.4134 1075.2 L65.0893 1075.2 L65.0893 1105.82 L72.7281 1105.82 L72.7281 1109.76 L52.8208 1109.76 L52.8208 1105.82 Z" fill="#000000" fill-rule="evenodd" fill-opacity="1" /><path clip-path="url(#clip260)" d="M 0 0 M77.8438 1075.2 L96.2002 1075.2 L96.2002 1079.13 L82.1262 1079.13 L82.1262 1087.6 Q83.1447 1087.26 84.1632 1087.1 Q85.1818 1086.91 86.2003 1086.91 Q91.9873 1086.91 95.3669 1090.08 Q98.7465 1093.25 98.7465 1098.67 Q98.7465 1104.25 95.2743 1107.35 Q91.8021 1110.43 85.4827 1110.43 Q83.3068 1110.43 81.0383 1110.06 Q78.7929 1109.69 76.3855 1108.95 L76.3855 1104.25 Q78.4688 1105.38 80.691 1105.94 Q82.9133 1106.49 85.3901 1106.49 Q89.3947 1106.49 91.7326 1104.39 Q94.0706 1102.28 94.0706 1098.67 Q94.0706 1095.06 91.7326 1092.95 Q89.3947 1090.85 85.3901 1090.85 Q83.5151 1090.85 81.6401 1091.26 Q79.7883 1091.68 77.8438 1092.56 L77.8438 1075.2 Z" fill="#000000" fill-rule="evenodd" fill-opacity="1" /><path clip-path="url(#clip260)" d="M 0 0 M113.816 1078.28 Q110.205 1078.28 108.376 1081.84 Q106.571 1085.38 106.571 1092.51 Q106.571 1099.62 108.376 1103.18 Q110.205 1106.72 113.816 1106.72 Q117.45 1106.72 119.256 1103.18 Q121.084 1099.62 121.084 1092.51 Q121.084 1085.38 119.256 1081.84 Q117.45 1078.28 113.816 1078.28 M113.816 1074.57 Q119.626 1074.57 122.682 1079.18 Q125.76 1083.76 125.76 1092.51 Q125.76 1101.24 122.682 1105.85 Q119.626 1110.43 113.816 1110.43 Q108.006 1110.43 104.927 1105.85 Q101.871 1101.24 101.871 1092.51 Q101.871 1083.76 104.927 1079.18 Q108.006 1074.57 113.816 1074.57 Z" fill="#000000" fill-rule="evenodd" fill-opacity="1" /><path clip-path="url(#clip260)" d="M 0 0 M140.83 1078.28 Q137.219 1078.28 135.39 1081.84 Q133.584 1085.38 133.584 1092.51 Q133.584 1099.62 135.39 1103.18 Q137.219 1106.72 140.83 1106.72 Q144.464 1106.72 146.269 1103.18 Q148.098 1099.62 148.098 1092.51 Q148.098 1085.38 146.269 1081.84 Q144.464 1078.28 140.83 1078.28 M140.83 1074.57 Q146.64 1074.57 149.695 1079.18 Q152.774 1083.76 152.774 1092.51 Q152.774 1101.24 149.695 1105.85 Q146.64 1110.43 140.83 1110.43 Q135.019 1110.43 131.941 1105.85 Q128.885 1101.24 128.885 1092.51 Q128.885 1083.76 131.941 1079.18 Q135.019 1074.57 140.83 1074.57 Z" fill="#000000" fill-rule="evenodd" fill-opacity="1" /><path clip-path="url(#clip260)" d="M 0 0 M51.6634 762.255 L59.3023 762.255 L59.3023 735.89 L50.9921 737.556 L50.9921 733.297 L59.256 731.631 L63.9319 731.631 L63.9319 762.255 L71.5707 762.255 L71.5707 766.191 L51.6634 766.191 L51.6634 762.255 Z" fill="#000000" fill-rule="evenodd" fill-opacity="1" /><path clip-path="url(#clip260)" d="M 0 0 M87.2188 747.047 Q84.0707 747.047 82.2188 749.2 Q80.3901 751.353 80.3901 755.103 Q80.3901 758.829 82.2188 761.005 Q84.0707 763.158 87.2188 763.158 Q90.3669 763.158 92.1956 761.005 Q94.0475 758.829 94.0475 755.103 Q94.0475 751.353 92.1956 749.2 Q90.3669 747.047 87.2188 747.047 M96.5011 732.394 L96.5011 736.654 Q94.7419 735.82 92.9363 735.381 Q91.1539 734.941 89.3947 734.941 Q84.7651 734.941 82.3114 738.066 Q79.8809 741.191 79.5336 747.51 Q80.8994 745.496 82.9595 744.431 Q85.0197 743.343 87.4966 743.343 Q92.7049 743.343 95.7141 746.515 Q98.7465 749.663 98.7465 755.103 Q98.7465 760.427 95.5984 763.644 Q92.4502 766.862 87.2188 766.862 Q81.2234 766.862 78.0522 762.279 Q74.8809 757.672 74.8809 748.945 Q74.8809 740.751 78.7698 735.89 Q82.6586 731.006 89.2095 731.006 Q90.9688 731.006 92.7512 731.353 Q94.5567 731.7 96.5011 732.394 Z" fill="#000000" fill-rule="evenodd" fill-opacity="1" /><path clip-path="url(#clip260)" d="M 0 0 M113.816 734.709 Q110.205 734.709 108.376 738.274 Q106.571 741.816 106.571 748.945 Q106.571 756.052 108.376 759.616 Q110.205 763.158 113.816 763.158 Q117.45 763.158 119.256 759.616 Q121.084 756.052 121.084 748.945 Q121.084 741.816 119.256 738.274 Q117.45 734.709 113.816 734.709 M113.816 731.006 Q119.626 731.006 122.682 735.612 Q125.76 740.195 125.76 748.945 Q125.76 757.672 122.682 762.279 Q119.626 766.862 113.816 766.862 Q108.006 766.862 104.927 762.279 Q101.871 757.672 101.871 748.945 Q101.871 740.195 104.927 735.612 Q108.006 731.006 113.816 731.006 Z" fill="#000000" fill-rule="evenodd" fill-opacity="1" /><path clip-path="url(#clip260)" d="M 0 0 M140.83 734.709 Q137.219 734.709 135.39 738.274 Q133.584 741.816 133.584 748.945 Q133.584 756.052 135.39 759.616 Q137.219 763.158 140.83 763.158 Q144.464 763.158 146.269 759.616 Q148.098 756.052 148.098 748.945 Q148.098 741.816 146.269 738.274 Q144.464 734.709 140.83 734.709 M140.83 731.006 Q146.64 731.006 149.695 735.612 Q152.774 740.195 152.774 748.945 Q152.774 757.672 149.695 762.279 Q146.64 766.862 140.83 766.862 Q135.019 766.862 131.941 762.279 Q128.885 757.672 128.885 748.945 Q128.885 740.195 131.941 735.612 Q135.019 731.006 140.83 731.006 Z" fill="#000000" fill-rule="evenodd" fill-opacity="1" /><path clip-path="url(#clip260)" d="M 0 0 M52.7282 418.689 L60.3671 418.689 L60.3671 392.323 L52.0569 393.99 L52.0569 389.731 L60.3208 388.064 L64.9967 388.064 L64.9967 418.689 L72.6355 418.689 L72.6355 422.624 L52.7282 422.624 L52.7282 418.689 Z" fill="#000000" fill-rule="evenodd" fill-opacity="1" /><path clip-path="url(#clip260)" d="M 0 0 M76.5244 388.064 L98.7465 388.064 L98.7465 390.055 L86.2003 422.624 L81.316 422.624 L93.1215 391.999 L76.5244 391.999 L76.5244 388.064 Z" fill="#000000" fill-rule="evenodd" fill-opacity="1" /><path clip-path="url(#clip260)" d="M 0 0 M113.816 391.143 Q110.205 391.143 108.376 394.707 Q106.571 398.249 106.571 405.379 Q106.571 412.485 108.376 416.05 Q110.205 419.592 113.816 419.592 Q117.45 419.592 119.256 416.05 Q121.084 412.485 121.084 405.379 Q121.084 398.249 119.256 394.707 Q117.45 391.143 113.816 391.143 M113.816 387.439 Q119.626 387.439 122.682 392.045 Q125.76 396.629 125.76 405.379 Q125.76 414.106 122.682 418.712 Q119.626 423.295 113.816 423.295 Q108.006 423.295 104.927 418.712 Q101.871 414.106 101.871 405.379 Q101.871 396.629 104.927 392.045 Q108.006 387.439 113.816 387.439 Z" fill="#000000" fill-rule="evenodd" fill-opacity="1" /><path clip-path="url(#clip260)" d="M 0 0 M140.83 391.143 Q137.219 391.143 135.39 394.707 Q133.584 398.249 133.584 405.379 Q133.584 412.485 135.39 416.05 Q137.219 419.592 140.83 419.592 Q144.464 419.592 146.269 416.05 Q148.098 412.485 148.098 405.379 Q148.098 398.249 146.269 394.707 Q144.464 391.143 140.83 391.143 M140.83 387.439 Q146.64 387.439 149.695 392.045 Q152.774 396.629 152.774 405.379 Q152.774 414.106 149.695 418.712 Q146.64 423.295 140.83 423.295 Q135.019 423.295 131.941 418.712 Q128.885 414.106 128.885 405.379 Q128.885 396.629 131.941 392.045 Q135.019 387.439 140.83 387.439 Z" fill="#000000" fill-rule="evenodd" fill-opacity="1" /><path clip-path="url(#clip260)" d="M 0 0 M51.918 75.1223 L59.5569 75.1223 L59.5569 48.7567 L51.2468 50.4234 L51.2468 46.1641 L59.5106 44.4975 L64.1865 44.4975 L64.1865 75.1223 L71.8253 75.1223 L71.8253 79.0575 L51.918 79.0575 L51.918 75.1223 Z" fill="#000000" fill-rule="evenodd" fill-opacity="1" /><path clip-path="url(#clip260)" d="M 0 0 M86.8947 62.6455 Q83.5614 62.6455 81.6401 64.4279 Q79.742 66.2103 79.742 69.3353 Q79.742 72.4603 81.6401 74.2427 Q83.5614 76.0251 86.8947 76.0251 Q90.228 76.0251 92.1493 74.2427 Q94.0706 72.4372 94.0706 69.3353 Q94.0706 66.2103 92.1493 64.4279 Q90.2512 62.6455 86.8947 62.6455 M82.2188 60.6548 Q79.2096 59.9141 77.5198 57.8539 Q75.8531 55.7937 75.8531 52.8308 Q75.8531 48.6873 78.7929 46.2799 Q81.7559 43.8725 86.8947 43.8725 Q92.0567 43.8725 94.9965 46.2799 Q97.9363 48.6873 97.9363 52.8308 Q97.9363 55.7937 96.2465 57.8539 Q94.5799 59.9141 91.5938 60.6548 Q94.9734 61.4418 96.8484 63.7335 Q98.7465 66.0252 98.7465 69.3353 Q98.7465 74.3584 95.6678 77.0436 Q92.6123 79.7288 86.8947 79.7288 Q81.1771 79.7288 78.0985 77.0436 Q75.0429 74.3584 75.0429 69.3353 Q75.0429 66.0252 76.9411 63.7335 Q78.8392 61.4418 82.2188 60.6548 M80.5059 53.2706 Q80.5059 55.9558 82.1725 57.4604 Q83.8623 58.965 86.8947 58.965 Q89.904 58.965 91.5938 57.4604 Q93.3067 55.9558 93.3067 53.2706 Q93.3067 50.5854 91.5938 49.0808 Q89.904 47.5762 86.8947 47.5762 Q83.8623 47.5762 82.1725 49.0808 Q80.5059 50.5854 80.5059 53.2706 Z" fill="#000000" fill-rule="evenodd" fill-opacity="1" /><path clip-path="url(#clip260)" d="M 0 0 M113.816 47.5762 Q110.205 47.5762 108.376 51.141 Q106.571 54.6826 106.571 61.8122 Q106.571 68.9187 108.376 72.4835 Q110.205 76.0251 113.816 76.0251 Q117.45 76.0251 119.256 72.4835 Q121.084 68.9187 121.084 61.8122 Q121.084 54.6826 119.256 51.141 Q117.45 47.5762 113.816 47.5762 M113.816 43.8725 Q119.626 43.8725 122.682 48.479 Q125.76 53.0623 125.76 61.8122 Q125.76 70.539 122.682 75.1455 Q119.626 79.7288 113.816 79.7288 Q108.006 79.7288 104.927 75.1455 Q101.871 70.539 101.871 61.8122 Q101.871 53.0623 104.927 48.479 Q108.006 43.8725 113.816 43.8725 Z" fill="#000000" fill-rule="evenodd" fill-opacity="1" /><path clip-path="url(#clip260)" d="M 0 0 M140.83 47.5762 Q137.219 47.5762 135.39 51.141 Q133.584 54.6826 133.584 61.8122 Q133.584 68.9187 135.39 72.4835 Q137.219 76.0251 140.83 76.0251 Q144.464 76.0251 146.269 72.4835 Q148.098 68.9187 148.098 61.8122 Q148.098 54.6826 146.269 51.141 Q144.464 47.5762 140.83 47.5762 M140.83 43.8725 Q146.64 43.8725 149.695 48.479 Q152.774 53.0623 152.774 61.8122 Q152.774 70.539 149.695 75.1455 Q146.64 79.7288 140.83 79.7288 Q135.019 79.7288 131.941 75.1455 Q128.885 70.539 128.885 61.8122 Q128.885 53.0623 131.941 48.479 Q135.019 43.8725 140.83 43.8725 Z" fill="#000000" fill-rule="evenodd" fill-opacity="1" /><path clip-path="url(#clip262)" d="
M288.457 1215.23 L288.457 1208.57 L250.019 1208.57 L250.019 1140.51 L288.457 1140.51 L288.457 1132.98 L288.457 1140.51 L326.895 1140.51 L326.895 1208.57 L288.457 1208.57 
  L288.457 1215.23  Z
  " fill="#008000" fill-rule="evenodd" fill-opacity="1"/>
<polyline clip-path="url(#clip262)" style="stroke:#008000; stroke-width:2; stroke-opacity:1; fill:none" points="
  288.457,1215.23 288.457,1208.57 250.019,1208.57 250.019,1140.51 288.457,1140.51 288.457,1132.98 288.457,1140.51 326.895,1140.51 326.895,1208.57 288.457,1208.57 
  288.457,1215.23 
  "/>
<path clip-path="url(#clip262)" d="
M373.875 1269.1 L373.875 1252.44 L335.437 1252.44 L335.437 1176.38 L373.875 1176.38 L373.875 1137.97 L373.875 1176.38 L412.313 1176.38 L412.313 1252.44 L373.875 1252.44 
  L373.875 1269.1  Z
  " fill="#ff0000" fill-rule="evenodd" fill-opacity="1"/>
<polyline clip-path="url(#clip262)" style="stroke:#ff0000; stroke-width:2; stroke-opacity:1; fill:none" points="
  373.875,1269.1 373.875,1252.44 335.437,1252.44 335.437,1176.38 373.875,1176.38 373.875,1137.97 373.875,1176.38 412.313,1176.38 412.313,1252.44 373.875,1252.44 
  373.875,1269.1 
  "/>
<path clip-path="url(#clip262)" d="
M459.293 1312.36 L459.293 1228.91 L420.855 1228.91 L420.855 1215.16 L459.293 1215.16 L459.293 1199.12 L459.293 1215.16 L497.731 1215.16 L497.731 1228.91 L459.293 1228.91 
  L459.293 1312.36  Z
  " fill="#ff0000" fill-rule="evenodd" fill-opacity="1"/>
<polyline clip-path="url(#clip262)" style="stroke:#ff0000; stroke-width:2; stroke-opacity:1; fill:none" points="
  459.293,1312.36 459.293,1228.91 420.855,1228.91 420.855,1215.16 459.293,1215.16 459.293,1199.12 459.293,1215.16 497.731,1215.16 497.731,1228.91 459.293,1228.91 
  459.293,1312.36 
  "/>
<path clip-path="url(#clip262)" d="
M544.711 1212.42 L544.711 1212.42 L506.273 1212.42 L506.273 1140.82 L544.711 1140.82 L544.711 1126.83 L544.711 1140.82 L583.149 1140.82 L583.149 1212.42 L544.711 1212.42 
  L544.711 1212.42  Z
  " fill="#008000" fill-rule="evenodd" fill-opacity="1"/>
<polyline clip-path="url(#clip262)" style="stroke:#008000; stroke-width:2; stroke-opacity:1; fill:none" points="
  544.711,1212.42 544.711,1212.42 506.273,1212.42 506.273,1140.82 544.711,1140.82 544.711,1126.83 544.711,1140.82 583.149,1140.82 583.149,1212.42 544.711,1212.42 
  
  "/>
<path clip-path="url(#clip262)" d="
M630.129 1128.72 L630.129 1110.69 L591.691 1110.69 L591.691 1040.19 L630.129 1040.19 L630.129 1035.72 L630.129 1040.19 L668.567 1040.19 L668.567 1110.69 L630.129 1110.69 
  L630.129 1128.72  Z
  " fill="#008000" fill-rule="evenodd" fill-opacity="1"/>
<polyline clip-path="url(#clip262)" style="stroke:#008000; stroke-width:2; stroke-opacity:1; fill:none" points="
  630.129,1128.72 630.129,1110.69 591.691,1110.69 591.691,1040.19 630.129,1040.19 630.129,1035.72 630.129,1040.19 668.567,1040.19 668.567,1110.69 630.129,1110.69 
  630.129,1128.72 
  "/>
<path clip-path="url(#clip262)" d="
M715.547 980.578 L715.547 944.743 L677.109 944.743 L677.109 854.901 L715.547 854.901 L715.547 770.006 L715.547 854.901 L753.985 854.901 L753.985 944.743 L715.547 944.743 
  L715.547 980.578  Z
  " fill="#008000" fill-rule="evenodd" fill-opacity="1"/>
<polyline clip-path="url(#clip262)" style="stroke:#008000; stroke-width:2; stroke-opacity:1; fill:none" points="
  715.547,980.578 715.547,944.743 677.109,944.743 677.109,854.901 715.547,854.901 715.547,770.006 715.547,854.901 753.985,854.901 753.985,944.743 715.547,944.743 
  715.547,980.578 
  "/>
<path clip-path="url(#clip262)" d="
M800.965 875.343 L800.965 846.208 L762.527 846.208 L762.527 804.809 L800.965 804.809 L800.965 783.267 L800.965 804.809 L839.404 804.809 L839.404 846.208 L800.965 846.208 
  L800.965 875.343  Z
  " fill="#ff0000" fill-rule="evenodd" fill-opacity="1"/>
<polyline clip-path="url(#clip262)" style="stroke:#ff0000; stroke-width:2; stroke-opacity:1; fill:none" points="
  800.965,875.343 800.965,846.208 762.527,846.208 762.527,804.809 800.965,804.809 800.965,783.267 800.965,804.809 839.404,804.809 839.404,846.208 800.965,846.208 
  800.965,875.343 
  "/>
<path clip-path="url(#clip262)" d="
M886.384 918.873 L886.384 858.577 L847.945 858.577 L847.945 822.468 L886.384 822.468 L886.384 791.224 L886.384 822.468 L924.822 822.468 L924.822 858.577 L886.384 858.577 
  L886.384 918.873  Z
  " fill="#ff0000" fill-rule="evenodd" fill-opacity="1"/>
<polyline clip-path="url(#clip262)" style="stroke:#ff0000; stroke-width:2; stroke-opacity:1; fill:none" points="
  886.384,918.873 886.384,858.577 847.945,858.577 847.945,822.468 886.384,822.468 886.384,791.224 886.384,822.468 924.822,822.468 924.822,858.577 886.384,858.577 
  886.384,918.873 
  "/>
<path clip-path="url(#clip262)" d="
M971.802 937.769 L971.802 930.485 L933.363 930.485 L933.363 889.326 L971.802 889.326 L971.802 834.441 L971.802 889.326 L1010.24 889.326 L1010.24 930.485 L971.802 930.485 
  L971.802 937.769  Z
  " fill="#008000" fill-rule="evenodd" fill-opacity="1"/>
<polyline clip-path="url(#clip262)" style="stroke:#008000; stroke-width:2; stroke-opacity:1; fill:none" points="
  971.802,937.769 971.802,930.485 933.363,930.485 933.363,889.326 971.802,889.326 971.802,834.441 971.802,889.326 1010.24,889.326 1010.24,930.485 971.802,930.485 
  971.802,937.769 
  "/>
<path clip-path="url(#clip262)" d="
M1057.22 876.03 L1057.22 866.239 L1018.78 866.239 L1018.78 841.639 L1057.22 841.639 L1057.22 813.742 L1057.22 841.639 L1095.66 841.639 L1095.66 866.239 L1057.22 866.239 
  L1057.22 876.03  Z
  " fill="#008000" fill-rule="evenodd" fill-opacity="1"/>
<polyline clip-path="url(#clip262)" style="stroke:#008000; stroke-width:2; stroke-opacity:1; fill:none" points="
  1057.22,876.03 1057.22,866.239 1018.78,866.239 1018.78,841.639 1057.22,841.639 1057.22,813.742 1057.22,841.639 1095.66,841.639 1095.66,866.239 1057.22,866.239 
  1057.22,876.03 
  "/>
<path clip-path="url(#clip262)" d="
M1142.64 996.278 L1142.64 973.569 L1104.2 973.569 L1104.2 816.044 L1142.64 816.044 L1142.64 789.623 L1142.64 816.044 L1181.08 816.044 L1181.08 973.569 L1142.64 973.569 
  L1142.64 996.278  Z
  " fill="#ff0000" fill-rule="evenodd" fill-opacity="1"/>
<polyline clip-path="url(#clip262)" style="stroke:#ff0000; stroke-width:2; stroke-opacity:1; fill:none" points="
  1142.64,996.278 1142.64,973.569 1104.2,973.569 1104.2,816.044 1142.64,816.044 1142.64,789.623 1142.64,816.044 1181.08,816.044 1181.08,973.569 1142.64,973.569 
  1142.64,996.278 
  "/>
<path clip-path="url(#clip262)" d="
M1228.06 1004.28 L1228.06 999.542 L1189.62 999.542 L1189.62 900.32 L1228.06 900.32 L1228.06 826.213 L1228.06 900.32 L1266.49 900.32 L1266.49 999.542 L1228.06 999.542 
  L1228.06 1004.28  Z
  " fill="#008000" fill-rule="evenodd" fill-opacity="1"/>
<polyline clip-path="url(#clip262)" style="stroke:#008000; stroke-width:2; stroke-opacity:1; fill:none" points="
  1228.06,1004.28 1228.06,999.542 1189.62,999.542 1189.62,900.32 1228.06,900.32 1228.06,826.213 1228.06,900.32 1266.49,900.32 1266.49,999.542 1228.06,999.542 
  1228.06,1004.28 
  "/>
<path clip-path="url(#clip262)" d="
M1313.47 846.38 L1313.47 840.54 L1275.04 840.54 L1275.04 771.895 L1313.47 771.895 L1313.47 684.561 L1313.47 771.895 L1351.91 771.895 L1351.91 840.54 L1313.47 840.54 
  L1313.47 846.38  Z
  " fill="#008000" fill-rule="evenodd" fill-opacity="1"/>
<polyline clip-path="url(#clip262)" style="stroke:#008000; stroke-width:2; stroke-opacity:1; fill:none" points="
  1313.47,846.38 1313.47,840.54 1275.04,840.54 1275.04,771.895 1313.47,771.895 1313.47,684.561 1313.47,771.895 1351.91,771.895 1351.91,840.54 1313.47,840.54 
  1313.47,846.38 
  "/>
<path clip-path="url(#clip262)" d="
M1398.89 800.446 L1398.89 772.788 L1360.45 772.788 L1360.45 696.242 L1398.89 696.242 L1398.89 673.36 L1398.89 696.242 L1437.33 696.242 L1437.33 772.788 L1398.89 772.788 
  L1398.89 800.446  Z
  " fill="#008000" fill-rule="evenodd" fill-opacity="1"/>
<polyline clip-path="url(#clip262)" style="stroke:#008000; stroke-width:2; stroke-opacity:1; fill:none" points="
  1398.89,800.446 1398.89,772.788 1360.45,772.788 1360.45,696.242 1398.89,696.242 1398.89,673.36 1398.89,696.242 1437.33,696.242 1437.33,772.788 1398.89,772.788 
  1398.89,800.446 
  "/>
<path clip-path="url(#clip262)" d="
M1484.31 678.445 L1484.31 659.343 L1445.87 659.343 L1445.87 608.048 L1484.31 608.048 L1484.31 603.376 L1484.31 608.048 L1522.75 608.048 L1522.75 659.343 L1484.31 659.343 
  L1484.31 678.445  Z
  " fill="#008000" fill-rule="evenodd" fill-opacity="1"/>
<polyline clip-path="url(#clip262)" style="stroke:#008000; stroke-width:2; stroke-opacity:1; fill:none" points="
  1484.31,678.445 1484.31,659.343 1445.87,659.343 1445.87,608.048 1484.31,608.048 1484.31,603.376 1484.31,608.048 1522.75,608.048 1522.75,659.343 1484.31,659.343 
  1484.31,678.445 
  "/>
<path clip-path="url(#clip262)" d="
M1569.73 829.649 L1569.73 781.721 L1531.29 781.721 L1531.29 662.985 L1569.73 662.985 L1569.73 617.531 L1569.73 662.985 L1608.17 662.985 L1608.17 781.721 L1569.73 781.721 
  L1569.73 829.649  Z
  " fill="#ff0000" fill-rule="evenodd" fill-opacity="1"/>
<polyline clip-path="url(#clip262)" style="stroke:#ff0000; stroke-width:2; stroke-opacity:1; fill:none" points="
  1569.73,829.649 1569.73,781.721 1531.29,781.721 1531.29,662.985 1569.73,662.985 1569.73,617.531 1569.73,662.985 1608.17,662.985 1608.17,781.721 1569.73,781.721 
  1569.73,829.649 
  "/>
<path clip-path="url(#clip262)" d="
M1655.15 808.073 L1655.15 763.787 L1616.71 763.787 L1616.71 734.275 L1655.15 734.275 L1655.15 725.393 L1655.15 734.275 L1693.58 734.275 L1693.58 763.787 L1655.15 763.787 
  L1655.15 808.073  Z
  " fill="#008000" fill-rule="evenodd" fill-opacity="1"/>
<polyline clip-path="url(#clip262)" style="stroke:#008000; stroke-width:2; stroke-opacity:1; fill:none" points="
  1655.15,808.073 1655.15,763.787 1616.71,763.787 1616.71,734.275 1655.15,734.275 1655.15,725.393 1655.15,734.275 1693.58,734.275 1693.58,763.787 1655.15,763.787 
  1655.15,808.073 
  "/>
<path clip-path="url(#clip262)" d="
M1740.56 1042.25 L1740.56 1035.38 L1702.13 1035.38 L1702.13 887.23 L1740.56 887.23 L1740.56 881.699 L1740.56 887.23 L1779 887.23 L1779 1035.38 L1740.56 1035.38 
  L1740.56 1042.25  Z
  " fill="#ff0000" fill-rule="evenodd" fill-opacity="1"/>
<polyline clip-path="url(#clip262)" style="stroke:#ff0000; stroke-width:2; stroke-opacity:1; fill:none" points="
  1740.56,1042.25 1740.56,1035.38 1702.13,1035.38 1702.13,887.23 1740.56,887.23 1740.56,881.699 1740.56,887.23 1779,887.23 1779,1035.38 1740.56,1035.38 
  1740.56,1042.25 
  "/>
<path clip-path="url(#clip262)" d="
M1825.98 1016.07 L1825.98 1015.66 L1787.54 1015.66 L1787.54 861.463 L1825.98 861.463 L1825.98 770.521 L1825.98 861.463 L1864.42 861.463 L1864.42 1015.66 L1825.98 1015.66 
  L1825.98 1016.07  Z
  " fill="#008000" fill-rule="evenodd" fill-opacity="1"/>
<polyline clip-path="url(#clip262)" style="stroke:#008000; stroke-width:2; stroke-opacity:1; fill:none" points="
  1825.98,1016.07 1825.98,1015.66 1787.54,1015.66 1787.54,861.463 1825.98,861.463 1825.98,770.521 1825.98,861.463 1864.42,861.463 1864.42,1015.66 1825.98,1015.66 
  1825.98,1016.07 
  "/>
<path clip-path="url(#clip262)" d="
M1911.4 733.588 L1911.4 676.727 L1872.96 676.727 L1872.96 501.165 L1911.4 501.165 L1911.4 450.008 L1911.4 501.165 L1949.84 501.165 L1949.84 676.727 L1911.4 676.727 
  L1911.4 733.588  Z
  " fill="#ff0000" fill-rule="evenodd" fill-opacity="1"/>
<polyline clip-path="url(#clip262)" style="stroke:#ff0000; stroke-width:2; stroke-opacity:1; fill:none" points="
  1911.4,733.588 1911.4,676.727 1872.96,676.727 1872.96,501.165 1911.4,501.165 1911.4,450.008 1911.4,501.165 1949.84,501.165 1949.84,676.727 1911.4,676.727 
  1911.4,733.588 
  "/>
<path clip-path="url(#clip262)" d="
M1996.82 693.837 L1996.82 659.48 L1958.38 659.48 L1958.38 652.162 L1996.82 652.162 L1996.82 540.125 L1996.82 652.162 L2035.26 652.162 L2035.26 659.48 L1996.82 659.48 
  L1996.82 693.837  Z
  " fill="#ff0000" fill-rule="evenodd" fill-opacity="1"/>
<polyline clip-path="url(#clip262)" style="stroke:#ff0000; stroke-width:2; stroke-opacity:1; fill:none" points="
  1996.82,693.837 1996.82,659.48 1958.38,659.48 1958.38,652.162 1996.82,652.162 1996.82,540.125 1996.82,652.162 2035.26,652.162 2035.26,659.48 1996.82,659.48 
  1996.82,693.837 
  "/>
<path clip-path="url(#clip262)" d="
M2082.24 691.81 L2082.24 639.725 L2043.8 639.725 L2043.8 576.406 L2082.24 576.406 L2082.24 536.93 L2082.24 576.406 L2120.67 576.406 L2120.67 639.725 L2082.24 639.725 
  L2082.24 691.81  Z
  " fill="#008000" fill-rule="evenodd" fill-opacity="1"/>
<polyline clip-path="url(#clip262)" style="stroke:#008000; stroke-width:2; stroke-opacity:1; fill:none" points="
  2082.24,691.81 2082.24,639.725 2043.8,639.725 2043.8,576.406 2082.24,576.406 2082.24,536.93 2082.24,576.406 2120.67,576.406 2120.67,639.725 2082.24,639.725 
  2082.24,691.81 
  "/>
<path clip-path="url(#clip262)" d="
M2167.65 384.627 L2167.65 370.025 L2129.22 370.025 L2129.22 236.55 L2167.65 236.55 L2167.65 160.158 L2167.65 236.55 L2206.09 236.55 L2206.09 370.025 L2167.65 370.025 
  L2167.65 384.627  Z
  " fill="#008000" fill-rule="evenodd" fill-opacity="1"/>
<polyline clip-path="url(#clip262)" style="stroke:#008000; stroke-width:2; stroke-opacity:1; fill:none" points="
  2167.65,384.627 2167.65,370.025 2129.22,370.025 2129.22,236.55 2167.65,236.55 2167.65,160.158 2167.65,236.55 2206.09,236.55 2206.09,370.025 2167.65,370.025 
  2167.65,384.627 
  "/>
<path clip-path="url(#clip262)" d="
M2253.07 229.919 L2253.07 157.014 L2214.63 157.014 L2214.63 127.055 L2253.07 127.055 L2253.07 84.0921 L2253.07 127.055 L2291.51 127.055 L2291.51 157.014 L2253.07 157.014 
  L2253.07 229.919  Z
  " fill="#ff0000" fill-rule="evenodd" fill-opacity="1"/>
<polyline clip-path="url(#clip262)" style="stroke:#ff0000; stroke-width:2; stroke-opacity:1; fill:none" points="
  2253.07,229.919 2253.07,157.014 2214.63,157.014 2214.63,127.055 2253.07,127.055 2253.07,84.0921 2253.07,127.055 2291.51,127.055 2291.51,157.014 2253.07,157.014 
  2253.07,229.919 
  "/>
<circle clip-path="url(#clip262)" cx="288.457" cy="1174.54" r="3" fill="#008000" fill-rule="evenodd" fill-opacity="1" stroke="#000000" stroke-opacity="1" stroke-width="0"/>
<circle clip-path="url(#clip262)" cx="373.875" cy="1214.41" r="3" fill="#ff0000" fill-rule="evenodd" fill-opacity="1" stroke="#000000" stroke-opacity="1" stroke-width="0"/>
<circle clip-path="url(#clip262)" cx="459.293" cy="1222.04" r="3" fill="#ff0000" fill-rule="evenodd" fill-opacity="1" stroke="#000000" stroke-opacity="1" stroke-width="0"/>
<circle clip-path="url(#clip262)" cx="544.711" cy="1176.62" r="3" fill="#008000" fill-rule="evenodd" fill-opacity="1" stroke="#000000" stroke-opacity="1" stroke-width="0"/>
<circle clip-path="url(#clip262)" cx="630.129" cy="1075.44" r="3" fill="#008000" fill-rule="evenodd" fill-opacity="1" stroke="#000000" stroke-opacity="1" stroke-width="0"/>
<circle clip-path="url(#clip262)" cx="715.547" cy="899.822" r="3" fill="#008000" fill-rule="evenodd" fill-opacity="1" stroke="#000000" stroke-opacity="1" stroke-width="0"/>
<circle clip-path="url(#clip262)" cx="800.965" cy="825.509" r="3" fill="#ff0000" fill-rule="evenodd" fill-opacity="1" stroke="#000000" stroke-opacity="1" stroke-width="0"/>
<circle clip-path="url(#clip262)" cx="886.384" cy="840.523" r="3" fill="#ff0000" fill-rule="evenodd" fill-opacity="1" stroke="#000000" stroke-opacity="1" stroke-width="0"/>
<circle clip-path="url(#clip262)" cx="971.802" cy="909.906" r="3" fill="#008000" fill-rule="evenodd" fill-opacity="1" stroke="#000000" stroke-opacity="1" stroke-width="0"/>
<circle clip-path="url(#clip262)" cx="1057.22" cy="853.939" r="3" fill="#008000" fill-rule="evenodd" fill-opacity="1" stroke="#000000" stroke-opacity="1" stroke-width="0"/>
<circle clip-path="url(#clip262)" cx="1142.64" cy="894.806" r="3" fill="#ff0000" fill-rule="evenodd" fill-opacity="1" stroke="#000000" stroke-opacity="1" stroke-width="0"/>
<circle clip-path="url(#clip262)" cx="1228.06" cy="949.931" r="3" fill="#008000" fill-rule="evenodd" fill-opacity="1" stroke="#000000" stroke-opacity="1" stroke-width="0"/>
<circle clip-path="url(#clip262)" cx="1313.47" cy="806.217" r="3" fill="#008000" fill-rule="evenodd" fill-opacity="1" stroke="#000000" stroke-opacity="1" stroke-width="0"/>
<circle clip-path="url(#clip262)" cx="1398.89" cy="734.515" r="3" fill="#008000" fill-rule="evenodd" fill-opacity="1" stroke="#000000" stroke-opacity="1" stroke-width="0"/>
<circle clip-path="url(#clip262)" cx="1484.31" cy="633.696" r="3" fill="#008000" fill-rule="evenodd" fill-opacity="1" stroke="#000000" stroke-opacity="1" stroke-width="0"/>
<circle clip-path="url(#clip262)" cx="1569.73" cy="722.353" r="3" fill="#ff0000" fill-rule="evenodd" fill-opacity="1" stroke="#000000" stroke-opacity="1" stroke-width="0"/>
<circle clip-path="url(#clip262)" cx="1655.15" cy="749.031" r="3" fill="#008000" fill-rule="evenodd" fill-opacity="1" stroke="#000000" stroke-opacity="1" stroke-width="0"/>
<circle clip-path="url(#clip262)" cx="1740.56" cy="961.303" r="3" fill="#ff0000" fill-rule="evenodd" fill-opacity="1" stroke="#000000" stroke-opacity="1" stroke-width="0"/>
<circle clip-path="url(#clip262)" cx="1825.98" cy="938.559" r="3" fill="#008000" fill-rule="evenodd" fill-opacity="1" stroke="#000000" stroke-opacity="1" stroke-width="0"/>
<circle clip-path="url(#clip262)" cx="1911.4" cy="588.946" r="3" fill="#ff0000" fill-rule="evenodd" fill-opacity="1" stroke="#000000" stroke-opacity="1" stroke-width="0"/>
<circle clip-path="url(#clip262)" cx="1996.82" cy="655.821" r="3" fill="#ff0000" fill-rule="evenodd" fill-opacity="1" stroke="#000000" stroke-opacity="1" stroke-width="0"/>
<circle clip-path="url(#clip262)" cx="2082.24" cy="608.065" r="3" fill="#008000" fill-rule="evenodd" fill-opacity="1" stroke="#000000" stroke-opacity="1" stroke-width="0"/>
<circle clip-path="url(#clip262)" cx="2167.65" cy="303.288" r="3" fill="#008000" fill-rule="evenodd" fill-opacity="1" stroke="#000000" stroke-opacity="1" stroke-width="0"/>
<circle clip-path="url(#clip262)" cx="2253.07" cy="142.035" r="3" fill="#ff0000" fill-rule="evenodd" fill-opacity="1" stroke="#000000" stroke-opacity="1" stroke-width="0"/>
</svg>
