<svg class="main-svg" xmlns="http://www.w3.org/2000/svg" xmlns:xlink="http://www.w3.org/1999/xlink" width="600" height="400" style="" viewBox="0 0 600 400"><rect x="0" y="0" width="600" height="400" style="fill: rgb(255, 255, 255); fill-opacity: 1;"/><defs id="defs-e4043c"><g class="clips"><clipPath id="clipe4043cxyplot" class="plotclip"><rect width="556.5704286964129" height="278.63135352401656"/></clipPath><clipPath class="axesclip" id="clipe4043cx"><rect x="39.4925634295713" y="0" width="556.5704286964129" height="400"/></clipPath><clipPath class="axesclip" id="clipe4043cy"><rect x="0" y="23.543307086614167" width="600" height="278.63135352401656"/></clipPath><clipPath class="axesclip" id="clipe4043cxy"><rect x="39.4925634295713" y="23.543307086614167" width="556.5704286964129" height="278.63135352401656"/></clipPath></g><g class="gradients"/></defs><g class="bglayer"/><g class="layer-below"><g class="imagelayer"/><g class="shapelayer"/></g><g class="cartesianlayer"><g class="subplot xy"><g class="layer-subplot"><g class="shapelayer"/><g class="imagelayer"/></g><g class="gridlayer"><g class="x"><path class="xgrid crisp" transform="translate(65.5625634295713,0)" d="M0,23.543307086614167v278.63135352401656" style="stroke: rgb(0, 0, 0); stroke-opacity: 0.1; stroke-width: 0.5px;"/><path class="xgrid crisp" transform="translate(88.4925634295713,0)" d="M0,23.543307086614167v278.63135352401656" style="stroke: rgb(0, 0, 0); stroke-opacity: 0.1; stroke-width: 0.5px;"/><path class="xgrid crisp" transform="translate(111.42256342957131,0)" d="M0,23.543307086614167v278.63135352401656" style="stroke: rgb(0, 0, 0); stroke-opacity: 0.1; stroke-width: 0.5px;"/><path class="xgrid crisp" transform="translate(134.3525634295713,0)" d="M0,23.543307086614167v278.63135352401656" style="stroke: rgb(0, 0, 0); stroke-opacity: 0.1; stroke-width: 0.5px;"/><path class="xgrid crisp" transform="translate(157.2725634295713,0)" d="M0,23.543307086614167v278.63135352401656" style="stroke: rgb(0, 0, 0); stroke-opacity: 0.1; stroke-width: 0.5px;"/><path class="xgrid crisp" transform="translate(180.2025634295713,0)" d="M0,23.543307086614167v278.63135352401656" style="stroke: rgb(0, 0, 0); stroke-opacity: 0.1; stroke-width: 0.5px;"/><path class="xgrid crisp" transform="translate(203.1325634295713,0)" d="M0,23.543307086614167v278.63135352401656" style="stroke: rgb(0, 0, 0); stroke-opacity: 0.1; stroke-width: 0.5px;"/><path class="xgrid crisp" transform="translate(226.0625634295713,0)" d="M0,23.543307086614167v278.63135352401656" style="stroke: rgb(0, 0, 0); stroke-opacity: 0.1; stroke-width: 0.5px;"/><path class="xgrid crisp" transform="translate(248.9925634295713,0)" d="M0,23.543307086614167v278.63135352401656" style="stroke: rgb(0, 0, 0); stroke-opacity: 0.1; stroke-width: 0.5px;"/><path class="xgrid crisp" transform="translate(271.9225634295713,0)" d="M0,23.543307086614167v278.63135352401656" style="stroke: rgb(0, 0, 0); stroke-opacity: 0.1; stroke-width: 0.5px;"/><path class="xgrid crisp" transform="translate(294.8525634295713,0)" d="M0,23.543307086614167v278.63135352401656" style="stroke: rgb(0, 0, 0); stroke-opacity: 0.1; stroke-width: 0.5px;"/><path class="xgrid crisp" transform="translate(317.7825634295713,0)" d="M0,23.543307086614167v278.63135352401656" style="stroke: rgb(0, 0, 0); stroke-opacity: 0.1; stroke-width: 0.5px;"/><path class="xgrid crisp" transform="translate(340.7025634295713,0)" d="M0,23.543307086614167v278.63135352401656" style="stroke: rgb(0, 0, 0); stroke-opacity: 0.1; stroke-width: 0.5px;"/><path class="xgrid crisp" transform="translate(363.6325634295713,0)" d="M0,23.543307086614167v278.63135352401656" style="stroke: rgb(0, 0, 0); stroke-opacity: 0.1; stroke-width: 0.5px;"/><path class="xgrid crisp" transform="translate(386.5625634295713,0)" d="M0,23.543307086614167v278.63135352401656" style="stroke: rgb(0, 0, 0); stroke-opacity: 0.1; stroke-width: 0.5px;"/><path class="xgrid crisp" transform="translate(409.4925634295713,0)" d="M0,23.543307086614167v278.63135352401656" style="stroke: rgb(0, 0, 0); stroke-opacity: 0.1; stroke-width: 0.5px;"/><path class="xgrid crisp" transform="translate(432.4225634295713,0)" d="M0,23.543307086614167v278.63135352401656" style="stroke: rgb(0, 0, 0); stroke-opacity: 0.1; stroke-width: 0.5px;"/><path class="xgrid crisp" transform="translate(455.3525634295713,0)" d="M0,23.543307086614167v278.63135352401656" style="stroke: rgb(0, 0, 0); stroke-opacity: 0.1; stroke-width: 0.5px;"/><path class="xgrid crisp" transform="translate(478.2825634295713,0)" d="M0,23.543307086614167v278.63135352401656" style="stroke: rgb(0, 0, 0); stroke-opacity: 0.1; stroke-width: 0.5px;"/><path class="xgrid crisp" transform="translate(501.2025634295713,0)" d="M0,23.543307086614167v278.63135352401656" style="stroke: rgb(0, 0, 0); stroke-opacity: 0.1; stroke-width: 0.5px;"/><path class="xgrid crisp" transform="translate(524.1325634295713,0)" d="M0,23.543307086614167v278.63135352401656" style="stroke: rgb(0, 0, 0); stroke-opacity: 0.1; stroke-width: 0.5px;"/><path class="xgrid crisp" transform="translate(547.0625634295712,0)" d="M0,23.543307086614167v278.63135352401656" style="stroke: rgb(0, 0, 0); stroke-opacity: 0.1; stroke-width: 0.5px;"/><path class="xgrid crisp" transform="translate(569.9925634295713,0)" d="M0,23.543307086614167v278.63135352401656" style="stroke: rgb(0, 0, 0); stroke-opacity: 0.1; stroke-width: 0.5px;"/></g><g class="y"><path class="ygrid crisp" transform="translate(0,252.83330708661416)" d="M39.4925634295713,0h556.5704286964129" style="stroke: rgb(0, 0, 0); stroke-opacity: 0.1; stroke-width: 0.5px;"/><path class="ygrid crisp" transform="translate(0,203.40330708661418)" d="M39.4925634295713,0h556.5704286964129" style="stroke: rgb(0, 0, 0); stroke-opacity: 0.1; stroke-width: 0.5px;"/><path class="ygrid crisp" transform="translate(0,153.98330708661416)" d="M39.4925634295713,0h556.5704286964129" style="stroke: rgb(0, 0, 0); stroke-opacity: 0.1; stroke-width: 0.5px;"/><path class="ygrid crisp" transform="translate(0,104.55330708661417)" d="M39.4925634295713,0h556.5704286964129" style="stroke: rgb(0, 0, 0); stroke-opacity: 0.1; stroke-width: 0.5px;"/><path class="ygrid crisp" transform="translate(0,55.13330708661417)" d="M39.4925634295713,0h556.5704286964129" style="stroke: rgb(0, 0, 0); stroke-opacity: 0.1; stroke-width: 0.5px;"/></g></g><g class="zerolinelayer"/><path class="xlines-below"/><path class="ylines-below"/><g class="overlines-below"/><g class="xaxislayer-below"/><g class="yaxislayer-below"/><g class="overaxes-below"/><g class="plot" transform="translate(39.4925634295713, 23.543307086614167)" clip-path="url('#clipe4043cxyplot')"><g class="scatterlayer mlayer"><g class="trace scatter trace499161" style="stroke-miterlimit: 2;"><g class="fills"><g><path class="js-fill" d="M26.07,3145.34L26.07,3145.34L26.07,169.5L26.07,157.44L15.75,157.44L15.75,81.01L26.07,81.01L26.07,27.37L26.07,81.01L36.39,81.01L36.39,157.44L26.07,157.44L26.07,169.5" style="fill: rgb(255, 0, 0); fill-opacity: 1; stroke-width: 0;"/></g></g><g class="errorbars"/><g class="lines"><path class="js-line" d="M26.07,169.5L26.07,157.44L15.75,157.44L15.75,81.01L26.07,81.01L26.07,27.37L26.07,81.01L36.39,81.01L36.39,157.44L26.07,157.44L26.07,169.5" style="vector-effect: non-scaling-stroke; fill: none; stroke: rgb(255, 0, 0); stroke-opacity: 1; stroke-width: 0.5px; opacity: 1;"/></g><g class="points"/><g class="text"/></g><g class="trace scatter traceaeca9d" style="stroke-miterlimit: 2;"><g class="fills"><g><path class="js-fill" d="M49,3145.34L49,3145.34L49,212.48L49,199.02L38.68,199.02L38.68,139.18L49,139.18L49,134.49L49,139.18L59.32,139.18L59.32,199.02L49,199.02L49,212.48" style="fill: rgb(0, 128, 0); fill-opacity: 1; stroke-width: 0;"/></g></g><g class="errorbars"/><g class="lines"><path class="js-line" d="M49,212.48L49,199.02L38.68,199.02L38.68,139.18L49,139.18L49,134.49L49,139.18L59.32,139.18L59.32,199.02L49,199.02L49,212.48" style="vector-effect: non-scaling-stroke; fill: none; stroke: rgb(0, 128, 0); stroke-opacity: 1; stroke-width: 0.5px; opacity: 1;"/></g><g class="points"/><g class="text"/></g><g class="trace scatter tracee877e7" style="stroke-miterlimit: 2;"><g class="fills"><g><path class="js-fill" d="M71.93,3145.34L71.93,3145.34L71.93,183.82L71.93,152.9L61.61,152.9L61.61,134.14L71.93,134.14L71.93,110.02L71.93,134.14L82.25,134.14L82.25,152.9L71.93,152.9L71.93,183.82" style="fill: rgb(255, 0, 0); fill-opacity: 1; stroke-width: 0;"/></g></g><g class="errorbars"/><g class="lines"><path class="js-line" d="M71.93,183.82L71.93,152.9L61.61,152.9L61.61,134.14L71.93,134.14L71.93,110.02L71.93,134.14L82.25,134.14L82.25,152.9L71.93,152.9L71.93,183.82" style="vector-effect: non-scaling-stroke; fill: none; stroke: rgb(255, 0, 0); stroke-opacity: 1; stroke-width: 0.5px; opacity: 1;"/></g><g class="points"/><g class="text"/></g><g class="trace scatter trace63abe1" style="stroke-miterlimit: 2;"><g class="fills"><g><path class="js-fill" d="M94.86,3145.34L94.86,3145.34L94.86,206.93L94.86,179.86L84.54,179.86L84.54,144.28L94.86,144.28L94.86,142.91L94.86,144.28L105.17,144.28L105.17,179.86L94.86,179.86L94.86,206.93" style="fill: rgb(0, 128, 0); fill-opacity: 1; stroke-width: 0;"/></g></g><g class="errorbars"/><g class="lines"><path class="js-line" d="M94.86,206.93L94.86,179.86L84.54,179.86L84.54,144.28L94.86,144.28L94.86,142.91L94.86,144.28L105.17,144.28L105.17,179.86L94.86,179.86L94.86,206.93" style="vector-effect: non-scaling-stroke; fill: none; stroke: rgb(0, 128, 0); stroke-opacity: 1; stroke-width: 0.5px; opacity: 1;"/></g><g class="points"/><g class="text"/></g><g class="trace scatter traceb54459" style="stroke-miterlimit: 2;"><g class="fills"><g><path class="js-fill" d="M117.78,3145.34L117.78,3145.34L117.78,182.99L117.78,149.12L107.47,149.12L107.47,137.12L117.78,137.12L117.78,133.52L117.78,137.12L128.1,137.12L128.1,149.12L117.78,149.12L117.78,182.99" style="fill: rgb(255, 0, 0); fill-opacity: 1; stroke-width: 0;"/></g></g><g class="errorbars"/><g class="lines"><path class="js-line" d="M117.78,182.99L117.78,149.12L107.47,149.12L107.47,137.12L117.78,137.12L117.78,133.52L117.78,137.12L128.1,137.12L128.1,149.12L117.78,149.12L117.78,182.99" style="vector-effect: non-scaling-stroke; fill: none; stroke: rgb(255, 0, 0); stroke-opacity: 1; stroke-width: 0.5px; opacity: 1;"/></g><g class="points"/><g class="text"/></g><g class="trace scatter trace3d8a72" style="stroke-miterlimit: 2;"><g class="fills"><g><path class="js-fill" d="M140.71,3145.34L140.71,3145.34L140.71,172.75L140.71,149.69L130.4,149.69L130.4,49.94L140.71,49.94L140.71,40.9L140.71,49.94L151.03,49.94L151.03,149.69L140.71,149.69L140.71,172.75" style="fill: rgb(0, 128, 0); fill-opacity: 1; stroke-width: 0;"/></g></g><g class="errorbars"/><g class="lines"><path class="js-line" d="M140.71,172.75L140.71,149.69L130.4,149.69L130.4,49.94L140.71,49.94L140.71,40.9L140.71,49.94L151.03,49.94L151.03,149.69L140.71,149.69L140.71,172.75" style="vector-effect: non-scaling-stroke; fill: none; stroke: rgb(0, 128, 0); stroke-opacity: 1; stroke-width: 0.5px; opacity: 1;"/></g><g class="points"/><g class="text"/></g><g class="trace scatter trace4421ef" style="stroke-miterlimit: 2;"><g class="fills"><g><path class="js-fill" d="M163.64,3145.34L163.64,3145.34L163.64,72.55L163.64,64.37L153.32,64.37L153.32,7.89L163.64,7.89L173.96,7.89L173.96,64.37L163.64,64.37L163.64,72.55" style="fill: rgb(255, 0, 0); fill-opacity: 1; stroke-width: 0;"/></g></g><g class="errorbars"/><g class="lines"><path class="js-line" d="M163.64,72.55L163.64,64.37L153.32,64.37L153.32,7.89L163.64,7.89L173.96,7.89L173.96,64.37L163.64,64.37L163.64,72.55" style="vector-effect: non-scaling-stroke; fill: none; stroke: rgb(255, 0, 0); stroke-opacity: 1; stroke-width: 0.5px; opacity: 1;"/></g><g class="points"/><g class="text"/></g><g class="trace scatter tracee69097" style="stroke-miterlimit: 2;"><g class="fills"><g><path class="js-fill" d="M186.57,3145.34L186.57,3145.34L186.57,88.72L186.57,60.26L176.25,60.26L176.25,44.46L186.57,44.46L186.57,41.47L186.57,44.46L196.89,44.46L196.89,60.26L186.57,60.26L186.57,88.72" style="fill: rgb(0, 128, 0); fill-opacity: 1; stroke-width: 0;"/></g></g><g class="errorbars"/><g class="lines"><path class="js-line" d="M186.57,88.72L186.57,60.26L176.25,60.26L176.25,44.46L186.57,44.46L186.57,41.47L186.57,44.46L196.89,44.46L196.89,60.26L186.57,60.26L186.57,88.72" style="vector-effect: non-scaling-stroke; fill: none; stroke: rgb(0, 128, 0); stroke-opacity: 1; stroke-width: 0.5px; opacity: 1;"/></g><g class="points"/><g class="text"/></g><g class="trace scatter tracec1b079" style="stroke-miterlimit: 2;"><g class="fills"><g><path class="js-fill" d="M209.5,3145.34L209.5,3145.34L209.5,165.25L209.5,148.86L199.18,148.86L199.18,47.47L209.5,47.47L209.5,37.78L209.5,47.47L219.82,47.47L219.82,148.86L209.5,148.86L209.5,165.25" style="fill: rgb(255, 0, 0); fill-opacity: 1; stroke-width: 0;"/></g></g><g class="errorbars"/><g class="lines"><path class="js-line" d="M209.5,165.25L209.5,148.86L199.18,148.86L199.18,47.47L209.5,47.47L209.5,37.78L209.5,47.47L219.82,47.47L219.82,148.86L209.5,148.86L209.5,165.25" style="vector-effect: non-scaling-stroke; fill: none; stroke: rgb(255, 0, 0); stroke-opacity: 1; stroke-width: 0.5px; opacity: 1;"/></g><g class="points"/><g class="text"/></g><g class="trace scatter tracee03a55" style="stroke-miterlimit: 2;"><g class="fills"><g><path class="js-fill" d="M232.43,3145.34L232.43,3145.34L232.43,202.8L232.43,181.98L222.11,181.98L222.11,156.4L232.43,156.4L232.43,145L232.43,156.4L242.75,156.4L242.75,181.98L232.43,181.98L232.43,202.8" style="fill: rgb(0, 128, 0); fill-opacity: 1; stroke-width: 0;"/></g></g><g class="errorbars"/><g class="lines"><path class="js-line" d="M232.43,202.8L232.43,181.98L222.11,181.98L222.11,156.4L232.43,156.4L232.43,145L232.43,156.4L242.75,156.4L242.75,181.98L232.43,181.98L232.43,202.8" style="vector-effect: non-scaling-stroke; fill: none; stroke: rgb(0, 128, 0); stroke-opacity: 1; stroke-width: 0.5px; opacity: 1;"/></g><g class="points"/><g class="text"/></g><g class="trace scatter trace402161" style="stroke-miterlimit: 2;"><g class="fills"><g><path class="js-fill" d="M255.36,3145.34L255.36,3145.34L255.36,149.79L255.36,149.02L245.04,149.02L245.04,120.16L255.36,120.16L255.36,98.87L255.36,120.16L265.67,120.16L265.67,149.02L255.36,149.02L255.36,149.79" style="fill: rgb(0, 128, 0); fill-opacity: 1; stroke-width: 0;"/></g></g><g class="errorbars"/><g class="lines"><path class="js-line" d="M255.36,149.79L255.36,149.02L245.04,149.02L245.04,120.16L255.36,120.16L255.36,98.87L255.36,120.16L265.67,120.16L265.67,149.02L255.36,149.02L255.36,149.79" style="vector-effect: non-scaling-stroke; fill: none; stroke: rgb(0, 128, 0); stroke-opacity: 1; stroke-width: 0.5px; opacity: 1;"/></g><g class="points"/><g class="text"/></g><g class="trace scatter tracea42a43" style="stroke-miterlimit: 2;"><g class="fills"><g><path class="js-fill" d="M278.29,3145.34L278.29,3145.34L278.29,184.49L278.29,179.19L267.97,179.19L267.97,130.08L278.29,130.08L278.29,127.51L278.29,130.08L288.6,130.08L288.6,179.19L278.29,179.19L278.29,184.49" style="fill: rgb(255, 0, 0); fill-opacity: 1; stroke-width: 0;"/></g></g><g class="errorbars"/><g class="lines"><path class="js-line" d="M278.29,184.49L278.29,179.19L267.97,179.19L267.97,130.08L278.29,130.08L278.29,127.51L278.29,130.08L288.6,130.08L288.6,179.19L278.29,179.19L278.29,184.49" style="vector-effect: non-scaling-stroke; fill: none; stroke: rgb(255, 0, 0); stroke-opacity: 1; stroke-width: 0.5px; opacity: 1;"/></g><g class="points"/><g class="text"/></g><g class="trace scatter traceec5135" style="stroke-miterlimit: 2;"><g class="fills"><g><path class="js-fill" d="M301.21,3145.34L301.21,3145.34L301.21,177.23L301.21,167.37L290.9,167.37L290.9,136.33L301.21,136.33L301.21,118.08L301.21,136.33L311.53,136.33L311.53,167.37L301.21,167.37L301.21,177.23" style="fill: rgb(0, 128, 0); fill-opacity: 1; stroke-width: 0;"/></g></g><g class="errorbars"/><g class="lines"><path class="js-line" d="M301.21,177.23L301.21,167.37L290.9,167.37L290.9,136.33L301.21,136.33L301.21,118.08L301.21,136.33L311.53,136.33L311.53,167.37L301.21,167.37L301.21,177.23" style="vector-effect: non-scaling-stroke; fill: none; stroke: rgb(0, 128, 0); stroke-opacity: 1; stroke-width: 0.5px; opacity: 1;"/></g><g class="points"/><g class="text"/></g><g class="trace scatter traceeee4ed" style="stroke-miterlimit: 2;"><g class="fills"><g><path class="js-fill" d="M324.14,3145.34L324.14,3145.34L324.14,195.24L324.14,185.79L313.82,185.79L313.82,117.69L324.14,117.69L324.14,105L324.14,117.69L334.46,117.69L334.46,185.79L324.14,185.79L324.14,195.24" style="fill: rgb(0, 128, 0); fill-opacity: 1; stroke-width: 0;"/></g></g><g class="errorbars"/><g class="lines"><path class="js-line" d="M324.14,195.24L324.14,185.79L313.82,185.79L313.82,117.69L324.14,117.69L324.14,105L324.14,117.69L334.46,117.69L334.46,185.79L324.14,185.79L324.14,195.24" style="vector-effect: non-scaling-stroke; fill: none; stroke: rgb(0, 128, 0); stroke-opacity: 1; stroke-width: 0.5px; opacity: 1;"/></g><g class="points"/><g class="text"/></g><g class="trace scatter trace4f5148" style="stroke-miterlimit: 2;"><g class="fills"><g><path class="js-fill" d="M347.07,3145.34L347.07,3145.34L347.07,270.75L347.07,213.55L336.75,213.55L336.75,169.96L347.07,169.96L347.07,162.17L347.07,169.96L357.39,169.96L357.39,213.55L347.07,213.55L347.07,270.75" style="fill: rgb(255, 0, 0); fill-opacity: 1; stroke-width: 0;"/></g></g><g class="errorbars"/><g class="lines"><path class="js-line" d="M347.07,270.75L347.07,213.55L336.75,213.55L336.75,169.96L347.07,169.96L347.07,162.17L347.07,169.96L357.39,169.96L357.39,213.55L347.07,213.55L347.07,270.75" style="vector-effect: non-scaling-stroke; fill: none; stroke: rgb(255, 0, 0); stroke-opacity: 1; stroke-width: 0.5px; opacity: 1;"/></g><g class="points"/><g class="text"/></g><g class="trace scatter trace6570f1" style="stroke-miterlimit: 2;"><g class="fills"><g><path class="js-fill" d="M370,3145.34L370,3145.34L370,247.79L370,230.38L359.68,230.38L359.68,206.28L370,206.28L370,198.7L370,206.28L380.32,206.28L380.32,230.38L370,230.38L370,247.79" style="fill: rgb(255, 0, 0); fill-opacity: 1; stroke-width: 0;"/></g></g><g class="errorbars"/><g class="lines"><path class="js-line" d="M370,247.79L370,230.38L359.68,230.38L359.68,206.28L370,206.28L370,198.7L370,206.28L380.32,206.28L380.32,230.38L370,230.38L370,247.79" style="vector-effect: non-scaling-stroke; fill: none; stroke: rgb(255, 0, 0); stroke-opacity: 1; stroke-width: 0.5px; opacity: 1;"/></g><g class="points"/><g class="text"/></g><g class="trace scatter trace7788d2" style="stroke-miterlimit: 2;"><g class="fills"><g><path class="js-fill" d="M392.93,3145.34L392.93,3145.34L392.93,261.61L392.93,249.12L382.61,249.12L382.61,226.18L392.93,226.18L392.93,208.41L392.93,226.18L403.25,226.18L403.25,249.12L392.93,249.12L392.93,261.61" style="fill: rgb(255, 0, 0); fill-opacity: 1; stroke-width: 0;"/></g></g><g class="errorbars"/><g class="lines"><path class="js-line" d="M392.93,261.61L392.93,249.12L382.61,249.12L382.61,226.18L392.93,226.18L392.93,208.41L392.93,226.18L403.25,226.18L403.25,249.12L392.93,249.12L392.93,261.61" style="vector-effect: non-scaling-stroke; fill: none; stroke: rgb(255, 0, 0); stroke-opacity: 1; stroke-width: 0.5px; opacity: 1;"/></g><g class="points"/><g class="text"/></g><g class="trace scatter trace761643" style="stroke-miterlimit: 2;"><g class="fills"><g><path class="js-fill" d="M415.86,3145.34L415.86,3145.34L415.86,252.1L415.86,240.56L405.54,240.56L405.54,232.04L415.86,232.04L415.86,214.64L415.86,232.04L426.18,232.04L426.18,240.56L415.86,240.56L415.86,252.1" style="fill: rgb(0, 128, 0); fill-opacity: 1; stroke-width: 0;"/></g></g><g class="errorbars"/><g class="lines"><path class="js-line" d="M415.86,252.1L415.86,240.56L405.54,240.56L405.54,232.04L415.86,232.04L415.86,214.64L415.86,232.04L426.18,232.04L426.18,240.56L415.86,240.56L415.86,252.1" style="vector-effect: non-scaling-stroke; fill: none; stroke: rgb(0, 128, 0); stroke-opacity: 1; stroke-width: 0.5px; opacity: 1;"/></g><g class="points"/><g class="text"/></g><g class="trace scatter tracec085e6" style="stroke-miterlimit: 2;"><g class="fills"><g><path class="js-fill" d="M438.79,3145.34L438.79,3145.34L438.79,247.08L438.79,235.71L428.47,235.71L428.47,179.67L438.79,179.67L438.79,175.14L438.79,179.67L449.1,179.67L449.1,235.71L438.79,235.71L438.79,247.08" style="fill: rgb(0, 128, 0); fill-opacity: 1; stroke-width: 0;"/></g></g><g class="errorbars"/><g class="lines"><path class="js-line" d="M438.79,247.08L438.79,235.71L428.47,235.71L428.47,179.67L438.79,179.67L438.79,175.14L438.79,179.67L449.1,179.67L449.1,235.71L438.79,235.71L438.79,247.08" style="vector-effect: non-scaling-stroke; fill: none; stroke: rgb(0, 128, 0); stroke-opacity: 1; stroke-width: 0.5px; opacity: 1;"/></g><g class="points"/><g class="text"/></g><g class="trace scatter trace5c177a" style="stroke-miterlimit: 2;"><g class="fills"><g><path class="js-fill" d="M461.71,3145.34L461.71,3145.34L461.71,216.16L461.71,190.76L451.4,190.76L451.4,179.86L461.71,179.86L461.71,146.56L461.71,179.86L472.03,179.86L472.03,190.76L461.71,190.76L461.71,216.16" style="fill: rgb(255, 0, 0); fill-opacity: 1; stroke-width: 0;"/></g></g><g class="errorbars"/><g class="lines"><path class="js-line" d="M461.71,216.16L461.71,190.76L451.4,190.76L451.4,179.86L461.71,179.86L461.71,146.56L461.71,179.86L472.03,179.86L472.03,190.76L461.71,190.76L461.71,216.16" style="vector-effect: non-scaling-stroke; fill: none; stroke: rgb(255, 0, 0); stroke-opacity: 1; stroke-width: 0.5px; opacity: 1;"/></g><g class="points"/><g class="text"/></g><g class="trace scatter trace8a1058" style="stroke-miterlimit: 2;"><g class="fills"><g><path class="js-fill" d="M484.64,3145.34L484.64,3145.34L484.64,233.08L484.64,205.21L474.33,205.21L474.33,187.57L484.64,187.57L484.64,171.81L484.64,187.57L494.96,187.57L494.96,205.21L484.64,205.21L484.64,233.08" style="fill: rgb(0, 128, 0); fill-opacity: 1; stroke-width: 0;"/></g></g><g class="errorbars"/><g class="lines"><path class="js-line" d="M484.64,233.08L484.64,205.21L474.33,205.21L474.33,187.57L484.64,187.57L484.64,171.81L484.64,187.57L494.96,187.57L494.96,205.21L484.64,205.21L484.64,233.08" style="vector-effect: non-scaling-stroke; fill: none; stroke: rgb(0, 128, 0); stroke-opacity: 1; stroke-width: 0.5px; opacity: 1;"/></g><g class="points"/><g class="text"/></g><g class="trace scatter trace32a64c" style="stroke-miterlimit: 2;"><g class="fills"><g><path class="js-fill" d="M507.57,3145.34L507.57,3145.34L507.57,223.36L507.57,218.77L497.25,218.77L497.25,194.81L507.57,194.81L507.57,160.09L507.57,194.81L517.89,194.81L517.89,218.77L507.57,218.77L507.57,223.36" style="fill: rgb(255, 0, 0); fill-opacity: 1; stroke-width: 0;"/></g></g><g class="errorbars"/><g class="lines"><path class="js-line" d="M507.57,223.36L507.57,218.77L497.25,218.77L497.25,194.81L507.57,194.81L507.57,160.09L507.57,194.81L517.89,194.81L517.89,218.77L507.57,218.77L507.57,223.36" style="vector-effect: non-scaling-stroke; fill: none; stroke: rgb(255, 0, 0); stroke-opacity: 1; stroke-width: 0.5px; opacity: 1;"/></g><g class="points"/><g class="text"/></g><g class="trace scatter traced627e2" style="stroke-miterlimit: 2;"><g class="fills"><g><path class="js-fill" d="M530.5,3145.34L530.5,3145.34L530.5,209.02L530.5,208.37L520.18,208.37L520.18,166.78L530.5,166.78L530.5,155.38L530.5,166.78L540.82,166.78L540.82,208.37L530.5,208.37L530.5,209.02" style="fill: rgb(0, 128, 0); fill-opacity: 1; stroke-width: 0;"/></g></g><g class="errorbars"/><g class="lines"><path class="js-line" d="M530.5,209.02L530.5,208.37L520.18,208.37L520.18,166.78L530.5,166.78L530.5,155.38L530.5,166.78L540.82,166.78L540.82,208.37L530.5,208.37L530.5,209.02" style="vector-effect: non-scaling-stroke; fill: none; stroke: rgb(0, 128, 0); stroke-opacity: 1; stroke-width: 0.5px; opacity: 1;"/></g><g class="points"/><g class="text"/></g><g class="trace scatter tracefae58c" style="stroke-miterlimit: 2; opacity: 1;"><g class="fills"/><g class="errorbars"/><g class="lines"/><g class="points"><path class="point" transform="translate(26.07,119.23)" d="M1,0A1,1 0 1,1 0,-1A1,1 0 0,1 1,0Z" style="opacity: 1; stroke-width: 0px; fill: rgb(255, 0, 0); fill-opacity: 1;"/></g><g class="text"/></g><g class="trace scatter trace60d53d" style="stroke-miterlimit: 2; opacity: 1;"><g class="fills"/><g class="errorbars"/><g class="lines"/><g class="points"><path class="point" transform="translate(49,169.1)" d="M1,0A1,1 0 1,1 0,-1A1,1 0 0,1 1,0Z" style="opacity: 1; stroke-width: 0px; fill: rgb(0, 128, 0); fill-opacity: 1;"/></g><g class="text"/></g><g class="trace scatter trace1574ca" style="stroke-miterlimit: 2; opacity: 1;"><g class="fills"/><g class="errorbars"/><g class="lines"/><g class="points"><path class="point" transform="translate(71.93,143.52)" d="M1,0A1,1 0 1,1 0,-1A1,1 0 0,1 1,0Z" style="opacity: 1; stroke-width: 0px; fill: rgb(255, 0, 0); fill-opacity: 1;"/></g><g class="text"/></g><g class="trace scatter trace291fcc" style="stroke-miterlimit: 2; opacity: 1;"><g class="fills"/><g class="errorbars"/><g class="lines"/><g class="points"><path class="point" transform="translate(94.86,162.07)" d="M1,0A1,1 0 1,1 0,-1A1,1 0 0,1 1,0Z" style="opacity: 1; stroke-width: 0px; fill: rgb(0, 128, 0); fill-opacity: 1;"/></g><g class="text"/></g><g class="trace scatter trace69f61e" style="stroke-miterlimit: 2; opacity: 1;"><g class="fills"/><g class="errorbars"/><g class="lines"/><g class="points"><path class="point" transform="translate(117.78,143.12)" d="M1,0A1,1 0 1,1 0,-1A1,1 0 0,1 1,0Z" style="opacity: 1; stroke-width: 0px; fill: rgb(255, 0, 0); fill-opacity: 1;"/></g><g class="text"/></g><g class="trace scatter tracec1ab49" style="stroke-miterlimit: 2; opacity: 1;"><g class="fills"/><g class="errorbars"/><g class="lines"/><g class="points"><path class="point" transform="translate(140.71,99.82)" d="M1,0A1,1 0 1,1 0,-1A1,1 0 0,1 1,0Z" style="opacity: 1; stroke-width: 0px; fill: rgb(0, 128, 0); fill-opacity: 1;"/></g><g class="text"/></g><g class="trace scatter trace1bbbac" style="stroke-miterlimit: 2; opacity: 1;"><g class="fills"/><g class="errorbars"/><g class="lines"/><g class="points"><path class="point" transform="translate(163.64,36.13)" d="M1,0A1,1 0 1,1 0,-1A1,1 0 0,1 1,0Z" style="opacity: 1; stroke-width: 0px; fill: rgb(255, 0, 0); fill-opacity: 1;"/></g><g class="text"/></g><g class="trace scatter tracebe784b" style="stroke-miterlimit: 2; opacity: 1;"><g class="fills"/><g class="errorbars"/><g class="lines"/><g class="points"><path class="point" transform="translate(186.57,52.36)" d="M1,0A1,1 0 1,1 0,-1A1,1 0 0,1 1,0Z" style="opacity: 1; stroke-width: 0px; fill: rgb(0, 128, 0); fill-opacity: 1;"/></g><g class="text"/></g><g class="trace scatter trace4487f8" style="stroke-miterlimit: 2; opacity: 1;"><g class="fills"/><g class="errorbars"/><g class="lines"/><g class="points"><path class="point" transform="translate(209.5,98.16)" d="M1,0A1,1 0 1,1 0,-1A1,1 0 0,1 1,0Z" style="opacity: 1; stroke-width: 0px; fill: rgb(255, 0, 0); fill-opacity: 1;"/></g><g class="text"/></g><g class="trace scatter trace907769" style="stroke-miterlimit: 2; opacity: 1;"><g class="fills"/><g class="errorbars"/><g class="lines"/><g class="points"><path class="point" transform="translate(232.43,169.19)" d="M1,0A1,1 0 1,1 0,-1A1,1 0 0,1 1,0Z" style="opacity: 1; stroke-width: 0px; fill: rgb(0, 128, 0); fill-opacity: 1;"/></g><g class="text"/></g><g class="trace scatter traceac070c" style="stroke-miterlimit: 2; opacity: 1;"><g class="fills"/><g class="errorbars"/><g class="lines"/><g class="points"><path class="point" transform="translate(255.36,134.59)" d="M1,0A1,1 0 1,1 0,-1A1,1 0 0,1 1,0Z" style="opacity: 1; stroke-width: 0px; fill: rgb(0, 128, 0); fill-opacity: 1;"/></g><g class="text"/></g><g class="trace scatter trace99ef21" style="stroke-miterlimit: 2; opacity: 1;"><g class="fills"/><g class="errorbars"/><g class="lines"/><g class="points"><path class="point" transform="translate(278.29,154.64)" d="M1,0A1,1 0 1,1 0,-1A1,1 0 0,1 1,0Z" style="opacity: 1; stroke-width: 0px; fill: rgb(255, 0, 0); fill-opacity: 1;"/></g><g class="text"/></g><g class="trace scatter trace3fd589" style="stroke-miterlimit: 2; opacity: 1;"><g class="fills"/><g class="errorbars"/><g class="lines"/><g class="points"><path class="point" transform="translate(301.21,151.85)" d="M1,0A1,1 0 1,1 0,-1A1,1 0 0,1 1,0Z" style="opacity: 1; stroke-width: 0px; fill: rgb(0, 128, 0); fill-opacity: 1;"/></g><g class="text"/></g><g class="trace scatter trace012a4b" style="stroke-miterlimit: 2; opacity: 1;"><g class="fills"/><g class="errorbars"/><g class="lines"/><g class="points"><path class="point" transform="translate(324.14,151.74)" d="M1,0A1,1 0 1,1 0,-1A1,1 0 0,1 1,0Z" style="opacity: 1; stroke-width: 0px; fill: rgb(0, 128, 0); fill-opacity: 1;"/></g><g class="text"/></g><g class="trace scatter tracee691db" style="stroke-miterlimit: 2; opacity: 1;"><g class="fills"/><g class="errorbars"/><g class="lines"/><g class="points"><path class="point" transform="translate(347.07,191.76)" d="M1,0A1,1 0 1,1 0,-1A1,1 0 0,1 1,0Z" style="opacity: 1; stroke-width: 0px; fill: rgb(255, 0, 0); fill-opacity: 1;"/></g><g class="text"/></g><g class="trace scatter trace90068e" style="stroke-miterlimit: 2; opacity: 1;"><g class="fills"/><g class="errorbars"/><g class="lines"/><g class="points"><path class="point" transform="translate(370,218.33)" d="M1,0A1,1 0 1,1 0,-1A1,1 0 0,1 1,0Z" style="opacity: 1; stroke-width: 0px; fill: rgb(255, 0, 0); fill-opacity: 1;"/></g><g class="text"/></g><g class="trace scatter trace8de6ae" style="stroke-miterlimit: 2; opacity: 1;"><g class="fills"/><g class="errorbars"/><g class="lines"/><g class="points"><path class="point" transform="translate(392.93,237.65)" d="M1,0A1,1 0 1,1 0,-1A1,1 0 0,1 1,0Z" style="opacity: 1; stroke-width: 0px; fill: rgb(255, 0, 0); fill-opacity: 1;"/></g><g class="text"/></g><g class="trace scatter trace856f4c" style="stroke-miterlimit: 2; opacity: 1;"><g class="fills"/><g class="errorbars"/><g class="lines"/><g class="points"><path class="point" transform="translate(415.86,236.3)" d="M1,0A1,1 0 1,1 0,-1A1,1 0 0,1 1,0Z" style="opacity: 1; stroke-width: 0px; fill: rgb(0, 128, 0); fill-opacity: 1;"/></g><g class="text"/></g><g class="trace scatter trace28b389" style="stroke-miterlimit: 2; opacity: 1;"><g class="fills"/><g class="errorbars"/><g class="lines"/><g class="points"><path class="point" transform="translate(438.79,207.69)" d="M1,0A1,1 0 1,1 0,-1A1,1 0 0,1 1,0Z" style="opacity: 1; stroke-width: 0px; fill: rgb(0, 128, 0); fill-opacity: 1;"/></g><g class="text"/></g><g class="trace scatter trace76928b" style="stroke-miterlimit: 2; opacity: 1;"><g class="fills"/><g class="errorbars"/><g class="lines"/><g class="points"><path class="point" transform="translate(461.71,185.31)" d="M1,0A1,1 0 1,1 0,-1A1,1 0 0,1 1,0Z" style="opacity: 1; stroke-width: 0px; fill: rgb(255, 0, 0); fill-opacity: 1;"/></g><g class="text"/></g><g class="trace scatter trace9ff07d" style="stroke-miterlimit: 2; opacity: 1;"><g class="fills"/><g class="errorbars"/><g class="lines"/><g class="points"><path class="point" transform="translate(484.64,196.39)" d="M1,0A1,1 0 1,1 0,-1A1,1 0 0,1 1,0Z" style="opacity: 1; stroke-width: 0px; fill: rgb(0, 128, 0); fill-opacity: 1;"/></g><g class="text"/></g><g class="trace scatter traceec5b7e" style="stroke-miterlimit: 2; opacity: 1;"><g class="fills"/><g class="errorbars"/><g class="lines"/><g class="points"><path class="point" transform="translate(507.57,206.79)" d="M1,0A1,1 0 1,1 0,-1A1,1 0 0,1 1,0Z" style="opacity: 1; stroke-width: 0px; fill: rgb(255, 0, 0); fill-opacity: 1;"/></g><g class="text"/></g><g class="trace scatter tracec90ac6" style="stroke-miterlimit: 2; opacity: 1;"><g class="fills"/><g class="errorbars"/><g class="lines"/><g class="points"><path class="point" transform="translate(530.5,187.57)" d="M1,0A1,1 0 1,1 0,-1A1,1 0 0,1 1,0Z" style="opacity: 1; stroke-width: 0px; fill: rgb(0, 128, 0); fill-opacity: 1;"/></g><g class="text"/></g></g></g><g class="overplot"/><path class="xlines-above crisp" d="M38.4925634295713,302.6746606106307H596.0629921259842" style="fill: none; stroke-width: 1px; stroke: rgb(0, 0, 0); stroke-opacity: 1;"/><path class="ylines-above crisp" d="M38.9925634295713,23.543307086614167V302.1746606106307" style="fill: none; stroke-width: 1px; stroke: rgb(0, 0, 0); stroke-opacity: 1;"/><g class="overlines-above"/><g class="xaxislayer-above"><path class="xtick ticks crisp" d="M0,302.1746606106307v-5" transform="translate(65.5625634295713,0)" style="stroke: rgb(0, 0, 0); stroke-opacity: 1; stroke-width: 1px;"/><path class="xtick ticks crisp" d="M0,302.1746606106307v-5" transform="translate(88.4925634295713,0)" style="stroke: rgb(0, 0, 0); stroke-opacity: 1; stroke-width: 1px;"/><path class="xtick ticks crisp" d="M0,302.1746606106307v-5" transform="translate(111.42256342957131,0)" style="stroke: rgb(0, 0, 0); stroke-opacity: 1; stroke-width: 1px;"/><path class="xtick ticks crisp" d="M0,302.1746606106307v-5" transform="translate(134.3525634295713,0)" style="stroke: rgb(0, 0, 0); stroke-opacity: 1; stroke-width: 1px;"/><path class="xtick ticks crisp" d="M0,302.1746606106307v-5" transform="translate(157.2725634295713,0)" style="stroke: rgb(0, 0, 0); stroke-opacity: 1; stroke-width: 1px;"/><path class="xtick ticks crisp" d="M0,302.1746606106307v-5" transform="translate(180.2025634295713,0)" style="stroke: rgb(0, 0, 0); stroke-opacity: 1; stroke-width: 1px;"/><path class="xtick ticks crisp" d="M0,302.1746606106307v-5" transform="translate(203.1325634295713,0)" style="stroke: rgb(0, 0, 0); stroke-opacity: 1; stroke-width: 1px;"/><path class="xtick ticks crisp" d="M0,302.1746606106307v-5" transform="translate(226.0625634295713,0)" style="stroke: rgb(0, 0, 0); stroke-opacity: 1; stroke-width: 1px;"/><path class="xtick ticks crisp" d="M0,302.1746606106307v-5" transform="translate(248.9925634295713,0)" style="stroke: rgb(0, 0, 0); stroke-opacity: 1; stroke-width: 1px;"/><path class="xtick ticks crisp" d="M0,302.1746606106307v-5" transform="translate(271.9225634295713,0)" style="stroke: rgb(0, 0, 0); stroke-opacity: 1; stroke-width: 1px;"/><path class="xtick ticks crisp" d="M0,302.1746606106307v-5" transform="translate(294.8525634295713,0)" style="stroke: rgb(0, 0, 0); stroke-opacity: 1; stroke-width: 1px;"/><path class="xtick ticks crisp" d="M0,302.1746606106307v-5" transform="translate(317.7825634295713,0)" style="stroke: rgb(0, 0, 0); stroke-opacity: 1; stroke-width: 1px;"/><path class="xtick ticks crisp" d="M0,302.1746606106307v-5" transform="translate(340.7025634295713,0)" style="stroke: rgb(0, 0, 0); stroke-opacity: 1; stroke-width: 1px;"/><path class="xtick ticks crisp" d="M0,302.1746606106307v-5" transform="translate(363.6325634295713,0)" style="stroke: rgb(0, 0, 0); stroke-opacity: 1; stroke-width: 1px;"/><path class="xtick ticks crisp" d="M0,302.1746606106307v-5" transform="translate(386.5625634295713,0)" style="stroke: rgb(0, 0, 0); stroke-opacity: 1; stroke-width: 1px;"/><path class="xtick ticks crisp" d="M0,302.1746606106307v-5" transform="translate(409.4925634295713,0)" style="stroke: rgb(0, 0, 0); stroke-opacity: 1; stroke-width: 1px;"/><path class="xtick ticks crisp" d="M0,302.1746606106307v-5" transform="translate(432.4225634295713,0)" style="stroke: rgb(0, 0, 0); stroke-opacity: 1; stroke-width: 1px;"/><path class="xtick ticks crisp" d="M0,302.1746606106307v-5" transform="translate(455.3525634295713,0)" style="stroke: rgb(0, 0, 0); stroke-opacity: 1; stroke-width: 1px;"/><path class="xtick ticks crisp" d="M0,302.1746606106307v-5" transform="translate(478.2825634295713,0)" style="stroke: rgb(0, 0, 0); stroke-opacity: 1; stroke-width: 1px;"/><path class="xtick ticks crisp" d="M0,302.1746606106307v-5" transform="translate(501.2025634295713,0)" style="stroke: rgb(0, 0, 0); stroke-opacity: 1; stroke-width: 1px;"/><path class="xtick ticks crisp" d="M0,302.1746606106307v-5" transform="translate(524.1325634295713,0)" style="stroke: rgb(0, 0, 0); stroke-opacity: 1; stroke-width: 1px;"/><path class="xtick ticks crisp" d="M0,302.1746606106307v-5" transform="translate(547.0625634295712,0)" style="stroke: rgb(0, 0, 0); stroke-opacity: 1; stroke-width: 1px;"/><path class="xtick ticks crisp" d="M0,302.1746606106307v-5" transform="translate(569.9925634295713,0)" style="stroke: rgb(0, 0, 0); stroke-opacity: 1; stroke-width: 1px;"/><g class="xtick"><text text-anchor="end" x="0" y="316.3746606106307" transform="translate(65.5625634295713,0) rotate(-60,0,310.8746606106307)" style="font-family: sans-serif; font-size: 11px; fill: rgb(0, 0, 0); fill-opacity: 1; white-space: pre;">2020-07-13</text></g><g class="xtick"><text text-anchor="end" x="0" y="316.3746606106307" transform="translate(88.4925634295713,0) rotate(-60,0,310.8746606106307)" style="font-family: sans-serif; font-size: 11px; fill: rgb(0, 0, 0); fill-opacity: 1; white-space: pre;"></text></g><g class="xtick"><text text-anchor="end" x="0" y="316.3746606106307" transform="translate(111.42256342957131,0) rotate(-60,0,310.8746606106307)" style="font-family: sans-serif; font-size: 11px; fill: rgb(0, 0, 0); fill-opacity: 1; white-space: pre;"></text></g><g class="xtick"><text text-anchor="end" x="0" y="316.3746606106307" transform="translate(134.3525634295713,0) rotate(-60,0,310.8746606106307)" style="font-family: sans-serif; font-size: 11px; fill: rgb(0, 0, 0); fill-opacity: 1; white-space: pre;">2020-07-16</text></g><g class="xtick"><text text-anchor="end" x="0" y="316.3746606106307" transform="translate(157.2725634295713,0) rotate(-60,0,310.8746606106307)" style="font-family: sans-serif; font-size: 11px; fill: rgb(0, 0, 0); fill-opacity: 1; white-space: pre;"></text></g><g class="xtick"><text text-anchor="end" x="0" y="316.3746606106307" transform="translate(180.2025634295713,0) rotate(-60,0,310.8746606106307)" style="font-family: sans-serif; font-size: 11px; fill: rgb(0, 0, 0); fill-opacity: 1; white-space: pre;"></text></g><g class="xtick"><text text-anchor="end" x="0" y="316.3746606106307" transform="translate(203.1325634295713,0) rotate(-60,0,310.8746606106307)" style="font-family: sans-serif; font-size: 11px; fill: rgb(0, 0, 0); fill-opacity: 1; white-space: pre;">2020-07-21</text></g><g class="xtick"><text text-anchor="end" x="0" y="316.3746606106307" transform="translate(226.0625634295713,0) rotate(-60,0,310.8746606106307)" style="font-family: sans-serif; font-size: 11px; fill: rgb(0, 0, 0); fill-opacity: 1; white-space: pre;"></text></g><g class="xtick"><text text-anchor="end" x="0" y="316.3746606106307" transform="translate(248.9925634295713,0) rotate(-60,0,310.8746606106307)" style="font-family: sans-serif; font-size: 11px; fill: rgb(0, 0, 0); fill-opacity: 1; white-space: pre;"></text></g><g class="xtick"><text text-anchor="end" x="0" y="316.3746606106307" transform="translate(271.9225634295713,0) rotate(-60,0,310.8746606106307)" style="font-family: sans-serif; font-size: 11px; fill: rgb(0, 0, 0); fill-opacity: 1; white-space: pre;">2020-07-24</text></g><g class="xtick"><text text-anchor="end" x="0" y="316.3746606106307" transform="translate(294.8525634295713,0) rotate(-60,0,310.8746606106307)" style="font-family: sans-serif; font-size: 11px; fill: rgb(0, 0, 0); fill-opacity: 1; white-space: pre;"></text></g><g class="xtick"><text text-anchor="end" x="0" y="316.3746606106307" transform="translate(317.7825634295713,0) rotate(-60,0,310.8746606106307)" style="font-family: sans-serif; font-size: 11px; fill: rgb(0, 0, 0); fill-opacity: 1; white-space: pre;"></text></g><g class="xtick"><text text-anchor="end" x="0" y="316.3746606106307" transform="translate(340.7025634295713,0) rotate(-60,0,310.8746606106307)" style="font-family: sans-serif; font-size: 11px; fill: rgb(0, 0, 0); fill-opacity: 1; white-space: pre;">2020-07-29</text></g><g class="xtick"><text text-anchor="end" x="0" y="316.3746606106307" transform="translate(363.6325634295713,0) rotate(-60,0,310.8746606106307)" style="font-family: sans-serif; font-size: 11px; fill: rgb(0, 0, 0); fill-opacity: 1; white-space: pre;"></text></g><g class="xtick"><text text-anchor="end" x="0" y="316.3746606106307" transform="translate(386.5625634295713,0) rotate(-60,0,310.8746606106307)" style="font-family: sans-serif; font-size: 11px; fill: rgb(0, 0, 0); fill-opacity: 1; white-space: pre;"></text></g><g class="xtick"><text text-anchor="end" x="0" y="316.3746606106307" transform="translate(409.4925634295713,0) rotate(-60,0,310.8746606106307)" style="font-family: sans-serif; font-size: 11px; fill: rgb(0, 0, 0); fill-opacity: 1; white-space: pre;">2020-08-03</text></g><g class="xtick"><text text-anchor="end" x="0" y="316.3746606106307" transform="translate(432.4225634295713,0) rotate(-60,0,310.8746606106307)" style="font-family: sans-serif; font-size: 11px; fill: rgb(0, 0, 0); fill-opacity: 1; white-space: pre;"></text></g><g class="xtick"><text text-anchor="end" x="0" y="316.3746606106307" transform="translate(455.3525634295713,0) rotate(-60,0,310.8746606106307)" style="font-family: sans-serif; font-size: 11px; fill: rgb(0, 0, 0); fill-opacity: 1; white-space: pre;"></text></g><g class="xtick"><text text-anchor="end" x="0" y="316.3746606106307" transform="translate(478.2825634295713,0) rotate(-60,0,310.8746606106307)" style="font-family: sans-serif; font-size: 11px; fill: rgb(0, 0, 0); fill-opacity: 1; white-space: pre;">2020-08-06</text></g><g class="xtick"><text text-anchor="end" x="0" y="316.3746606106307" transform="translate(501.2025634295713,0) rotate(-60,0,310.8746606106307)" style="font-family: sans-serif; font-size: 11px; fill: rgb(0, 0, 0); fill-opacity: 1; white-space: pre;"></text></g><g class="xtick"><text text-anchor="end" x="0" y="316.3746606106307" transform="translate(524.1325634295713,0) rotate(-60,0,310.8746606106307)" style="font-family: sans-serif; font-size: 11px; fill: rgb(0, 0, 0); fill-opacity: 1; white-space: pre;"></text></g><g class="xtick"><text text-anchor="end" x="0" y="316.3746606106307" transform="translate(547.0625634295712,0) rotate(-60,0,310.8746606106307)" style="font-family: sans-serif; font-size: 11px; fill: rgb(0, 0, 0); fill-opacity: 1; white-space: pre;">2020-08-11</text></g><g class="xtick"><text text-anchor="end" x="0" y="316.3746606106307" transform="translate(569.9925634295713,0) rotate(-60,0,310.8746606106307)" style="font-family: sans-serif; font-size: 11px; fill: rgb(0, 0, 0); fill-opacity: 1; white-space: pre;"></text></g></g><g class="yaxislayer-above"><path class="ytick ticks crisp" d="M39.4925634295713,0h5" transform="translate(0,252.83330708661416)" style="stroke: rgb(0, 0, 0); stroke-opacity: 1; stroke-width: 1px;"/><path class="ytick ticks crisp" d="M39.4925634295713,0h5" transform="translate(0,203.40330708661418)" style="stroke: rgb(0, 0, 0); stroke-opacity: 1; stroke-width: 1px;"/><path class="ytick ticks crisp" d="M39.4925634295713,0h5" transform="translate(0,153.98330708661416)" style="stroke: rgb(0, 0, 0); stroke-opacity: 1; stroke-width: 1px;"/><path class="ytick ticks crisp" d="M39.4925634295713,0h5" transform="translate(0,104.55330708661417)" style="stroke: rgb(0, 0, 0); stroke-opacity: 1; stroke-width: 1px;"/><path class="ytick ticks crisp" d="M39.4925634295713,0h5" transform="translate(0,55.13330708661417)" style="stroke: rgb(0, 0, 0); stroke-opacity: 1; stroke-width: 1px;"/><g class="ytick"><text text-anchor="end" x="36.292563429571295" y="3.8499999999999996" transform="translate(0,252.83330708661416)" style="font-family: sans-serif; font-size: 11px; fill: rgb(0, 0, 0); fill-opacity: 1; white-space: pre;">1475</text></g><g class="ytick"><text text-anchor="end" x="36.292563429571295" y="3.8499999999999996" transform="translate(0,203.40330708661418)" style="font-family: sans-serif; font-size: 11px; fill: rgb(0, 0, 0); fill-opacity: 1; white-space: pre;">1500</text></g><g class="ytick"><text text-anchor="end" x="36.292563429571295" y="3.8499999999999996" transform="translate(0,153.98330708661416)" style="font-family: sans-serif; font-size: 11px; fill: rgb(0, 0, 0); fill-opacity: 1; white-space: pre;">1525</text></g><g class="ytick"><text text-anchor="end" x="36.292563429571295" y="3.8499999999999996" transform="translate(0,104.55330708661417)" style="font-family: sans-serif; font-size: 11px; fill: rgb(0, 0, 0); fill-opacity: 1; white-space: pre;">1550</text></g><g class="ytick"><text text-anchor="end" x="36.292563429571295" y="3.8499999999999996" transform="translate(0,55.13330708661417)" style="font-family: sans-serif; font-size: 11px; fill: rgb(0, 0, 0); fill-opacity: 1; white-space: pre;">1575</text></g></g><g class="overaxes-above"/></g></g><g class="polarlayer"/><g class="ternarylayer"/><g class="geolayer"/><g class="funnelarealayer"/><g class="pielayer"/><g class="treemaplayer"/><g class="sunburstlayer"/><g class="glimages"/><defs id="topdefs-e4043c"><g class="clips"/></defs><g class="layer-above"><g class="imagelayer"/><g class="shapelayer"/></g><g class="infolayer"><g class="g-gtitle"/><g class="g-xtitle"/><g class="g-ytitle"/></g></svg>